<svg xmlns="http://www.w3.org/2000/svg" xmlns:xlink="http://www.w3.org/1999/xlink">

	<symbol id="header-loupe" role="img" aria-labelledby="header-loupe_title" viewBox="0 0 512 512">
        <title id="header-loupe_title"></title>
        <path d="M216.8,41.4c96.7,0,175.4,78.7,175.4,175.4c0,96.7-78.7,175.4-175.4,175.4c-96.7,0-175.4-78.7-175.4-175.4
				C41.4,120.1,120.1,41.4,216.8,41.4z"/>
		<path style="fill:#001;" d="M370.1,63.5c40.9,41,63.5,95.4,63.5,153.3S411,329.1,370.1,370.1c-41,40.9-95.4,63.5-153.3,63.5S104.4,411,63.5,370.1
				C22.5,329.1,0,274.7,0,216.8S22.5,104.4,63.5,63.5C104.4,22.5,158.9,0,216.8,0C274.7,0,329.1,22.5,370.1,63.5z M392.2,216.8
				c0-96.7-78.7-175.4-175.4-175.4c-96.7,0-175.4,78.7-175.4,175.4c0,96.7,78.7,175.4,175.4,175.4
				C313.5,392.2,392.2,313.5,392.2,216.8z"/>
		<path style="fill:#001;" d="M505.9,476.7l-136-136c-8.1-8.1-21.2-8.1-29.2,0c-8.1,8.1-8.1,21.2,0,29.2l136,136c4,4,9.3,6.1,14.6,6.1s10.6-2,14.6-6.1
			C514,497.9,514,484.8,505.9,476.7z"/>
    </symbol>

    <symbol id="header-phone" role="img" aria-labelledby="header-phone_title" viewBox="0 0 512 512">
        <title id="header-phone_title"></title>
        <path style="fill:#001;" d="M421.2,195.5c-5.1-26.1-17.7-49.8-36.5-68.6c-18.8-18.8-42.5-31.4-68.6-36.5c-11.2-2.2-22.1,5.1-24.3,16.3
			c-2.2,11.2,5.1,22.1,16.3,24.3c36.8,7.2,65.3,35.6,72.5,72.5c1.9,9.9,10.6,16.7,20.3,16.7c1.3,0,2.6-0.1,4-0.4
			C416.1,217.6,423.4,206.7,421.2,195.5z"/>
		<path style="fill:#001;" d="M511.4,196.9c-5.6-50.1-28.4-97.3-64-132.9c-35.7-35.6-82.9-58.3-133-63.9C303-1.1,292.8,7,291.5,18.4
			c-1.3,11.4,6.9,21.6,18.3,22.8c85,9.4,151,75.4,160.5,160.3c1.2,10.6,10.1,18.4,20.5,18.4c0.8,0,1.6,0,2.3-0.1
			C504.5,218.5,512.7,208.3,511.4,196.9z"/>
		<path d="M426.9,353.5c12.2,1.8,21.1,12.3,20.8,24.6c0,0.2,0,0.3,0,0.5v67.5c0,13.4-10.8,24.3-24.2,24.4c-0.7,0-1.4,0-2.1-0.1
			c-65.6-7.2-129.5-29.9-184.8-65.8c-0.1,0-0.1-0.1-0.2-0.1c-51.4-32.7-95.9-77.1-128.6-128.6c0-0.1-0.1-0.1-0.1-0.1
			c-36-55.6-58.8-119.8-65.8-185.7c-1.1-13.3,8.7-25,22-26.2c0.7-0.1,1.5-0.1,2.2-0.1h67.5c0.1,0,0.3,0,0.4,0
			c12,0,22.3,8.9,24.1,20.8c3.1,23.1,8.7,45.8,16.9,67.7c3.3,8.8,1.2,18.9-5.4,25.6l-28.5,28.5c-6.6,6.6-8,16.8-3.4,24.9
			c33.8,59.5,83.2,108.8,142.7,142.7c8.1,4.6,18.3,3.2,24.8-3.4l28.5-28.5c6.7-6.6,16.8-8.8,25.6-5.4
			C381.1,344.8,403.8,350.5,426.9,353.5z"/>
		<path style="fill:#001;" d="M432.6,312.6c32.9,4.6,57.2,33.1,56.5,66.4v67.2c0.1,36.1-29.2,65.7-65.4,65.8c-0.1,0-0.2,0-0.3,0c-2,0-4-0.1-5.9-0.3
			c-0.1,0-0.3,0-0.4,0c-72-7.8-142.2-32.8-203-72.2c-56.5-35.9-105.3-84.7-141.2-141.2C33.4,237.3,8.4,166.7,0.8,94.4
			c0-0.1,0-0.2,0-0.3C-2.5,58,24.1,26,60.2,22.8c1.9-0.2,3.9-0.3,5.9-0.3h67.4c32.8-0.3,60.9,24,65.6,56.5c0,0.1,0,0.1,0,0.2
			c2.6,20,7.6,39.8,14.6,58.7c9,23.9,3.2,51.1-14.8,69.2c0,0-0.1,0.1-0.1,0.1l-17.1,17.2c26.9,42.6,63,78.7,105.7,105.7l17.1-17.2
			c0,0,0.1,0,0.1-0.1c18.2-18,45.4-23.8,69.3-14.8c18.9,7,38.6,11.9,58.6,14.6C432.5,312.5,432.5,312.6,432.6,312.6z M447.7,378.2
			c0.3-12.3-8.6-22.9-20.8-24.6c-23.1-3.1-45.8-8.7-67.6-16.9c-8.9-3.3-18.9-1.2-25.6,5.4l-28.5,28.5c-6.6,6.6-16.8,8-24.8,3.4
			c-59.5-33.8-108.9-83.2-142.7-142.7c-4.6-8.1-3.2-18.3,3.4-24.9l28.5-28.5c6.6-6.7,8.8-16.8,5.4-25.6
			c-8.1-21.8-13.8-44.6-16.9-67.7c-1.7-11.9-12-20.8-24.1-20.8c-0.1,0-0.3,0-0.4,0H66.1c-0.7,0-1.4,0-2.2,0.1
			c-13.3,1.2-23.1,13-22,26.2c7,65.9,29.8,130.1,65.8,185.7c0,0,0.1,0.1,0.1,0.1c32.7,51.4,77.1,95.9,128.6,128.6
			c0.1,0,0.1,0.1,0.2,0.1c55.3,35.9,119.3,58.7,184.8,65.8c0.7,0.1,1.4,0.1,2.1,0.1c13.4-0.1,24.2-11,24.2-24.4v-67.5
			C447.7,378.5,447.7,378.4,447.7,378.2z"/>
	</symbol>

	<symbol id="header-account" role="img" aria-labelledby="header-account_title" viewBox="0 0 512 512">
        <title id="header-account_title"></title>
        <path d="M339.9,112.8c6.8,45.6-24.9,88.3-70.5,95c-22.1,3.3-44.2-2.2-62.1-15.5c-17.9-13.3-29.6-32.8-32.9-54.9
			c-6.8-45.6,24.8-88.2,70.5-95c4.1-0.6,8.2-0.9,12.3-0.9s8.2,0.3,12.3,0.9C306.1,47.7,334.4,76,339.9,112.8z"/>
		<path d="M474.5,426c-2.8-41.9-37.7-75-80.3-75H115.5c-42.6,0-77.5,33.1-80.3,75H20v86h95.5h278.7h95.5v-86H474.5z"/>
        <path style="fill:#001;" d="M511.4,465.2v26.1c0,11.4-9.3,20.7-20.7,20.7c-11.4,0-20.7-9.3-20.7-20.7v-26.1c0-59.5-98-109.7-214.1-109.7
			S41.9,405.8,41.9,465.2v26.1c0,11.4-9.3,20.7-20.7,20.7s-20.7-9.3-20.7-20.7v-26.1c0-84.7,112.2-151.1,255.4-151.1
			C399.2,314.1,511.4,380.5,511.4,465.2z"/>
		<path style="fill:#001;" d="M380.8,106.7c10.1,68.2-37.1,131.9-105.3,142c-6.2,0.9-12.4,1.4-18.6,1.4c-26.6,0-52.4-8.5-74.2-24.6
			c-26.8-19.9-44.3-49-49.2-82.1c-10.1-68.2,37.1-131.9,105.3-142c12.2-1.8,24.5-1.8,36.7,0c26.7,4,51,16.2,70.1,35.3
			C364.6,55.7,376.8,79.9,380.8,106.7z M269.4,207.8c45.6-6.8,77.2-49.4,70.5-95c-5.5-36.7-33.8-65-70.5-70.5
			c-4.1-0.6-8.2-0.9-12.3-0.9s-8.2,0.3-12.3,0.9c-45.6,6.8-77.2,49.4-70.5,95c3.3,22.1,15,41.6,32.9,54.9
			C225.2,205.5,247.3,211,269.4,207.8z"/>
    </symbol>

	<symbol id="header-cart" role="img" aria-labelledby="header-cart_title" viewBox="0 0 512 512">
        <title id="header-cart_title"></title>
        <path d="M472,430.3h0.1c-0.1,0.6-0.1,1.1-0.1,1.7c0,22.1-17.9,40-40,40H80c-22.1,0-40-17.9-40-40V172h106v75c0,11,9,20,20,20
			s20-9,20-20v-75h60h10h70v75c0,11,9,20,20,20s20-9,20-20v-75h106v150.3v9.7V430.3z"/>
		<path style="fill:#001;" d="M512,152v180c0,0.5-0.1,1-0.1,1.5v96.8c0.1,0.6,0.1,1.1,0.1,1.7c0,44.1-35.9,80-80,80H80c-44.1,0-80-35.9-80-80V152
			c0-11,9-20,20-20h126v-22C146,49.3,195.3,0,256,0s110,49.3,110,110v22h126C503,132,512,141,512,152z M472.1,430.3H472V332v-9.7
			V172H366v75c0,11-9,20-20,20s-20-9-20-20v-75h-70h-10h-60v75c0,11-9,20-20,20s-20-9-20-20v-75H40v260c0,22.1,17.9,40,40,40h352
			c22.1,0,40-17.9,40-40C472,431.4,472,430.9,472.1,430.3z M326,132v-22c0-38.6-31.4-70-70-70s-70,31.4-70,70v22h60h10H326z"/>
    </symbol>

    <symbol id="header-menu06" role="img" aria-labelledby="header-menu06_title" viewBox="0 0 510 510">
        <title id="header-menu06_title"></title>
        <path d="M150.45,206.55l-35.7,35.7L229.5,357l255-255l-35.7-35.7L229.5,285.6L150.45,206.55z M459,255c0,112.2-91.8,204-204,204
			S51,367.2,51,255S142.8,51,255,51c20.4,0,38.25,2.55,56.1,7.65l40.801-40.8C321.3,7.65,288.15,0,255,0C114.75,0,0,114.75,0,255
			s114.75,255,255,255s255-114.75,255-255H459z"/>
    </symbol>    

    <symbol id="heart" role="img" aria-labelledby="heart_title" viewBox="0 0 378.9 378.9">
        <title id="heart_title"></title>
        <path d="M325.1,77.5c28.4,28.4,28.4,74.5,0,102.9L189.5,316.1L53.8,180.4c-28.4-28.4-28.4-74.5,0-102.9
			c13.7-13.7,32-21.3,51.5-21.3s37.7,7.5,51.4,21.3L178,98.8c6.1,6.1,16.9,6.1,23,0l21.3-21.3c13.7-13.7,32-21.3,51.4-21.3
			C293.1,56.2,311.4,63.8,325.1,77.5z"/>
		<path style="fill:#001;" d="M348.1,54.5c41.1,41.1,41.1,107.9,0,148.9L201.1,350.5c-3.2,3.2-7.3,4.8-11.5,4.8c-1.1,0-2.1-0.1-3.2-0.3
			c-3.1-0.6-6.1-2.1-8.5-4.5L30.8,203.4c-41.1-41-41.1-107.8,0-148.9c19.9-19.9,46.3-30.8,74.4-30.8s54.6,10.9,74.4,30.8l9.8,9.8
			l9.8-9.8c19.9-19.9,46.3-30.8,74.4-30.8C301.8,23.7,328.3,34.6,348.1,54.5z M325.1,180.4c28.4-28.4,28.4-74.5,0-102.9
			c-13.7-13.7-32-21.3-51.4-21.3c-19.4,0-37.7,7.5-51.4,21.3L201,98.8c-6.1,6.1-16.9,6.1-23,0l-21.3-21.3
			c-13.7-13.7-32-21.3-51.4-21.3s-37.7,7.5-51.5,21.3c-28.4,28.4-28.4,74.5,0,102.9l135.7,135.7L325.1,180.4z"/>
    </symbol>

    <symbol id="button-arrow" role="img" aria-labelledby="button-arrow_title" viewBox="0 0 612 612">
        <title id="button-arrow_title"></title>
        <path d="M277.58,179.679l-0.057,0.077c-5.125-4.705-11.857-7.631-19.335-7.631c-15.835,0-28.688,12.852-28.688,28.688
				c0,8.377,3.634,15.835,9.352,21.076l-0.057,0.077L330.48,306l-91.686,84.055l0.057,0.076c-5.718,5.221-9.352,12.68-9.352,21.057
				c0,15.836,12.852,28.688,28.688,28.688c7.478,0,14.21-2.926,19.335-7.611l0.057,0.076l114.75-105.188
				c5.91-5.451,9.295-13.101,9.295-21.152s-3.385-15.702-9.295-21.152L277.58,179.679z M306,0C137.012,0,0,137.012,0,306
				s137.012,306,306,306s306-137.012,306-306S474.988,0,306,0z M306,554.625C168.912,554.625,57.375,443.088,57.375,306
				S168.912,57.375,306,57.375S554.625,168.912,554.625,306S443.088,554.625,306,554.625z"/>
    </symbol>

    <symbol id="advantages01" role="img" aria-labelledby="advantages01_title" viewBox="0 0 480 480">
        <title id="advantages01_title"></title>
		<path d="m41.59375 164.769531-2.554688 21.375-11.09375 25.933594 20.054688-28.078125zm0 0"/>
		<path d="m27.945312 267.921875 11.09375 25.933594 4.503907 37.769531 4.457031-35.625zm0 0"/>
		<path d="m440.960938 186.144531-6.945313-58.144531-46.9375-35.054688-35.078125-46.960937-58.144531-6.945313-53.855469-23.039062-53.855469 23.039062-58.144531 6.945313-35.054688 46.9375-46.960937 35.078125-3.824219 32h85.839844v16h16c39.765625 0 72-32.234375 72-72v-32h16c17.671875 0 32 14.328125 32 32v72h86.640625c12.921875-.277344 23.90625 9.386719 25.28125 22.238281.488281 6.652344-1.8125 13.207031-6.351563 18.09375-4.535156 4.886719-10.902343 7.664063-17.570312 7.667969h6.640625c12.921875-.277344 23.90625 9.386719 25.28125 22.238281.488281 6.652344-1.8125 13.207031-6.351563 18.09375-4.535156 4.886719-10.902343 7.664063-17.570312 7.667969h-8c13.253906 0 24 10.746094 24 24s-10.746094 24-24 24h-16c13.253906 0 24 10.746094 24 24s-10.746094 24-24 24h-208v16h-24l-30.527344-11.449219 19.449219 14.527344 35.078125 46.9375 58.167969 6.945313 53.832031 23.039062 53.855469-23.039062 58.144531-6.945313 35.054688-46.9375 46.960937-35.078125 6.945313-58.167969 23.039062-53.832031zm0 0"/>
		<path d="m40 160 1.59375 4.769531.566406-4.769531zm0 0"/>
		<path d="m27.945312 212.078125-19.945312 27.921875 19.945312 27.921875-11.945312-27.921875zm0 0"/>
		<path d="m43.542969 331.625-3.542969 28.375 33.472656 12.550781-27.488281-20.527343zm0 0"/>
		<path d="m478.398438 235.199219-36.796876-49.214844 7.320313-61.0625c.421875-3.53125-1.53125-6.917969-4.800781-8.3125l-56.5625-24.121094-24.167969-56.578125c-1.394531-3.265625-4.78125-5.222656-8.3125-4.796875l-61.0625 7.328125-49.214844-36.839844c-2.84375-2.136718-6.757812-2.136718-9.601562 0l-49.214844 36.839844-61.054687-7.328125c-3.53125-.425781-6.917969 1.53125-8.3125 4.796875l-24.128907 56.578125-56.566406 24.121094c-3.269531 1.394531-5.226563 4.78125-4.800781 8.3125l7.320312 61.0625-36.839844 49.214844c-2.136718 2.84375-2.136718 6.757812 0 9.601562l36.847657 49.214844-7.328125 61.0625c-.425782 3.53125 1.53125 6.917969 4.800781 8.3125l56.558594 24.121094 24.128906 56.578125c1.394531 3.265625 4.78125 5.222656 8.3125 4.796875l61.0625-7.328125 49.214844 36.839844c2.84375 2.136718 6.757812 2.136718 9.601562 0l49.214844-36.796876 61.054687 7.328126c3.53125.421874 6.917969-1.53125 8.3125-4.800782l24.128907-56.578125 56.566406-24.117187c3.269531-1.398438 5.226563-4.785156 4.800781-8.3125l-7.277344-61.105469 36.796876-49.214844c2.136718-2.84375 2.136718-6.757812 0-9.601562zm-430.6875 115.824219 6.992187-58.28125c.246094-2.042969-.300781-4.101563-1.535156-5.75l-35.175781-46.992188 35.199218-46.992188c1.234375-1.648437 1.785156-3.707031 1.535156-5.75l-2.328124-19.257812h67.601562v208h-15.609375c-.742187-.824219-1.652344-1.484375-2.671875-1.9375zm379.121093-64c-1.234375 1.648437-1.78125 3.710937-1.535156 5.753906l6.992187 58.277344-54.007812 23.042968c-1.898438.804688-3.414062 2.316406-4.226562 4.214844l-23.03125 54.007812-58.28125-7c-2.039063-.242187-4.097657.308594-5.742188 1.542969l-47 35.144531-47-35.199218c-1.386719-1.039063-3.070312-1.601563-4.800781-1.601563-.316407 0-.636719.019531-.953125.058594l-58.277344 7-17.175781-40.265625h24.207031v-16h200c11.808594-.003906 22.652344-6.511719 28.214844-16.929688 5.5625-10.414062 4.933594-23.046874-1.628906-32.863281 9.914062-3.476562 17.492187-11.605469 20.269531-21.738281 2.777343-10.136719.398437-20.988281-6.359375-29.035156 2.226562-1.351563 4.28125-2.960938 6.121094-4.800782 7-6.917968 10.375-16.699218 9.132812-26.460937-1.246094-9.761719-6.96875-18.382813-15.476562-23.324219 5.511718-6.394531 8.257812-14.714844 7.628906-23.136718-1.609375-17.078126-16.109375-30.03125-33.261719-29.710938h-78.640625v-64c-.027344-22.082031-17.917969-39.972656-40-40h-16c-4.417969 0-8 3.582031-8 8v32c-.039062 35.328125-28.671875 63.960938-64 64h-8v-16h-85.519531l-2.769531-23.023438 54.007812-23.039062c1.898438-.808594 3.414062-2.320312 4.226562-4.21875l23.03125-54.007812 58.28125 7c2.039063.25 4.101563-.304688 5.742188-1.542969l47-35.175781 47 35.199218c1.644531 1.238282 3.703125 1.792969 5.742188 1.542969l58.28125-7 23.039062 54.007813c.8125 1.898437 2.320312 3.410156 4.21875 4.21875l54.007812 23.039062-6.992187 58.28125c-.246094 2.042969.300781 4.101562 1.535156 5.75l35.175781 46.96875zm-162.832031-103.023438h86.640625c8.726563-.234375 16.207031 6.1875 17.304687 14.847656.375 4.636719-1.324218 9.199219-4.640624 12.457032-2.988282 3.015624-7.058594 4.707031-11.304688 4.695312h-16c-4.417969 0-8 3.582031-8 8s3.582031 8 8 8h22.640625c8.726563-.234375 16.207031 6.1875 17.304687 14.847656.375 4.636719-1.324218 9.199219-4.640624 12.457032-2.988282 3.015624-7.058594 4.707031-11.304688 4.695312h-24c-4.417969 0-8 3.582031-8 8s3.582031 8 8 8h16c8.835938 0 16 7.164062 16 16s-7.164062 16-16 16h-24c-4.417969 0-8 3.582031-8 8s3.582031 8 8 8h8c8.835938 0 16 7.164062 16 16s-7.164062 16-16 16h-200v-176h8c44.164062-.046875 79.953125-35.835938 80-80v-24h8c13.253906 0 24 10.746094 24 24v72c0 4.417969 3.582031 8 8 8zm0 0" fill="#000"/>
    </symbol>

    <symbol id="advantages02" role="img" aria-labelledby="advantages02_title" viewBox="0 0 480 480">
        <title id="advantages02_title"></title>
        <path d="m207.761719 385.359375-56.5625 56.5625c-1.085938 1.125-2.234375 2.195313-3.4375 3.199219l-.082031.078125c-15.171876 17.019531-36.878907 26.765625-59.679688 26.800781h128v-94.878906zm0 0"/>
        <path d="m309.601562 57.28125.003907-.003906 113.121093 113.117187-.003906.007813zm0 0"/>
        <path d="m168 312v80c.011719 15.71875-4.636719 31.085938-13.359375 44.160156-2.089844 3.140625-4.386719 6.132813-6.878906 8.960938 1.203125-1.003906 2.351562-2.074219 3.4375-3.199219l90.480469-90.480469-73.679688-73.679687zm0 0"/>
        <path d="m147.679688 445.199219.082031-.078125c2.492187-2.828125 4.789062-5.820313 6.878906-8.960938 8.722656-13.074218 13.371094-28.441406 13.359375-44.160156v-32h-160v32c0 44.183594 35.816406 80 80 80 22.800781-.035156 44.507812-9.78125 59.679688-26.800781zm-59.679688-5.199219c-8.835938 0-16-7.164062-16-16s7.164062-16 16-16 16 7.164062 16 16-7.164062 16-16 16zm0 0"/>
        <path d="m8 88h160v80h-160zm0 0"/>
        <path d="m168 312v-48h-160v96h160zm0 0"/>
        <path d="m253.039062 113.839844 56.5625-56.558594-.015624-.007812-56.570313 56.566406.007813.015625zm0 0"/>
        <path d="m366.144531 226.976562.015625.007813 56.566406-56.570313-.007812-.015624-56.558594 56.5625zm0 0"/>
        <path d="m196.460938 170.425781.023437-.023437 113.121094 113.121094-.023438.019531zm0 0"/>
        <path d="m309.601562 283.519531-.027343.023438.011719.007812 56.574218-56.566406-.015625-.007813zm0 0"/>
        <path d="m196.476562 170.398438 56.542969-56.546876 113.121094 113.121094-56.546875 56.546875zm0 0"/>
        <path d="m253.023438 113.855469-.007813-.015625-56.566406 56.574218.007812.011719.023438-.027343zm0 0"/>
        <path d="m312 312h80v160h-80zm0 0"/>
        <path d="m88 400c-13.253906 0-24 10.746094-24 24s10.746094 24 24 24 24-10.746094 24-24-10.746094-24-24-24zm0 32c-4.417969 0-8-3.582031-8-8s3.582031-8 8-8 8 3.582031 8 8-3.582031 8-8 8zm0 0" fill="#000"/>
        <path d="m300.433594 304 133.597656-133.601562-124.429688-124.429688-133.601562 133.597656v-179.566406h-176v392c.0585938 48.578125 39.421875 87.941406 88 88h392v-176zm9.167968-235.398438 101.796876 101.796876-45.253907 45.257812-101.800781-101.800781zm45.230469 158.398438-45.230469 45.207031-101.808593-101.808593 45.238281-45.230469zm-178.832031-24.808594 20.457031-20.457031 101.808594 101.808594-56.585937 56.585937-65.679688-65.679687zm0 94.878906 54.398438 54.402344-55.871094 55.871094c.941406-5.0625 1.433594-10.195312 1.472656-15.34375zm-160-281.070312h144v64h-144zm0 80h144v64h-144zm0 80h144v80h-144zm144 96v80h-144v-80zm-144 120v-24h144v24c0 5.796875-.699219 11.570312-2.089844 17.199219-1.964844 8.027343-5.320312 15.648437-9.910156 22.519531-1.90625 2.867188-4.003906 5.59375-6.289062 8.167969-6.914063 7.753906-15.417969 13.917969-24.933594 18.082031-9.0625 4.007812-18.867188 6.0625-28.777344 6.03125-39.746094-.046875-71.953125-32.253906-72-72zm122.398438 72c5.480468-3.824219 10.511718-8.253906 14.992187-13.207031 1.152344-.984375 2.28125-2.023438 3.472656-3.199219l51.136719-51.160156v67.566406zm85.601562 0v-83.566406l60.433594-60.433594h19.566406v144zm96 0v-144h64v144zm144 0h-64v-144h64zm0 0" fill="#000"/>
    </symbol>

    <symbol id="advantages03" role="img" aria-labelledby="advantages03_title" viewBox="0 -28 480 480">
        <title id="advantages03_title"></title>
        <path d="m392 320c-22.089844 0-40 17.910156-40 40-.019531 2.6875.25 5.371094.800781 8 3.785157 18.644531 20.175781 32.039062 39.199219 32.039062s35.414062-13.394531 39.199219-32.039062c.550781-2.628906.820312-5.3125.800781-8 0-22.089844-17.910156-40-40-40zm0 56c-8.835938 0-16-7.164062-16-16s7.164062-16 16-16 16 7.164062 16 16-7.164062 16-16 16zm0 0" />
        <path d="m120 320c-22.089844 0-40 17.910156-40 40-.019531 2.6875.25 5.371094.800781 8 3.785157 18.644531 20.175781 32.039062 39.199219 32.039062s35.414062-13.394531 39.199219-32.039062c.550781-2.628906.820312-5.3125.800781-8 0-22.089844-17.910156-40-40-40zm0 56c-8.835938 0-16-7.164062-16-16s7.164062-16 16-16 16 7.164062 16 16-7.164062 16-16 16zm0 0" />
        <path d="m392 112h-80v176h144v-80zm-48 32h32l40 56h-72zm0 0" />
        <path d="m328 40v-32h-320v32zm0 0" />
        <path d="m312 296h-304v64h72c0-22.089844 17.910156-40 40-40s40 17.910156 40 40h192c0-22.089844 17.910156-40 40-40s40 17.910156 40 40h40v-64zm0 0" />
        <path d="m136 360c0 8.835938-7.164062 16-16 16s-16-7.164062-16-16 7.164062-16 16-16 16 7.164062 16 16zm0 0" />
        <path d="m408 360c0 8.835938-7.164062 16-16 16s-16-7.164062-16-16 7.164062-16 16-16 16 7.164062 16 16zm0 0" />
        <path fill="#000" d="m439.023438 369.695312c.121093-.542968.167968-1.136718.265624-1.695312h32.710938c4.417969 0 8-3.582031 8-8v-64c0-4.417969-3.582031-8-8-8h-8v-72c-.003906-1.578125-.46875-3.125-1.34375-4.441406l-64-96c-1.484375-2.222656-3.980469-3.558594-6.65625-3.558594h-72v-64h8c4.417969 0 8-3.582031 8-8v-32c0-4.417969-3.582031-8-8-8h-320c-4.417969 0-8 3.582031-8 8v32c0 4.417969 3.582031 8 8 8h8v240h-8c-4.417969 0-8 3.582031-8 8v64c0 4.417969 3.582031 8 8 8h64.710938c.089843.519531.136718 1.078125.242187 1.601562 4.519531 22.367188 24.164063 38.457032 46.984375 38.488282 22.820312.027344 42.507812-16.015625 47.085938-38.371094.121093-.542969.167968-1.132812.265624-1.695312h177.421876c.089843.519531.136718 1.082031.242187 1.601562 4.519531 22.367188 24.164063 38.457031 46.984375 38.488281 22.820312.027344 42.507812-16.011719 47.085938-38.371093zm-51.304688-241.695312 60.28125 90.398438v13.601562h-104c-4.417969 0-8 3.582031-8 8s3.582031 8 8 8h104v40h-128v-160zm-371.71875-112h304v16h-304zm16 32h272v240h-272zm-16 256h448v48h-24.664062c0-.183594-.105469-.351562-.144532-.535156-.4375-2.410156-1.054687-4.78125-1.855468-7.097656-.144532-.414063-.304688-.800782-.457032-1.246094-.851562-2.273438-1.871094-4.480469-3.054687-6.601563-.175781-.304687-.367188-.589843-.542969-.894531-1.273438-2.175781-2.714844-4.25-4.3125-6.199219l-.136719-.152343c-1.617187-1.925782-3.386719-3.714844-5.289062-5.363282-.214844-.191406-.40625-.390625-.621094-.566406-1.871094-1.566406-3.859375-2.988281-5.945313-4.253906-.351562-.21875-.695312-.433594-1.054687-.640625-2.09375-1.210938-4.273437-2.257813-6.523437-3.136719l-1.191407-.441406c-2.34375-.847656-4.75-1.515625-7.199219-1.992188-.320312-.0625-.640624-.09375-.960937-.152344-5.324219-.96875-10.785156-.96875-16.109375 0-.320312.058594-.640625.089844-.960938.152344-2.449218.476563-4.855468 1.144532-7.199218 1.992188l-1.191406.441406c-2.25.878906-4.429688 1.925781-6.523438 3.136719-.359375.207031-.703125.421875-1.054688.640625-2.085937 1.265625-4.074218 2.6875-5.945312 4.253906-.214844.175781-.40625.375-.621094.566406-1.902344 1.648438-3.671875 3.4375-5.289062 5.363282l-.136719.152343c-1.597656 1.949219-3.039063 4.027344-4.3125 6.207031-.175781.296876-.367187.582032-.535156.886719-1.191407 2.117188-2.214844 4.324219-3.0625 6.601563-.152344.414062-.3125.800781-.457031 1.246094-.800782 2.316406-1.421876 4.6875-1.855469 7.097656-.039063.183594-.113281.351562-.144531.535156h-177.3125c0-.183594-.105469-.351562-.144532-.535156-.4375-2.410156-1.054687-4.78125-1.855468-7.097656-.144532-.414063-.304688-.800782-.457032-1.246094-.851562-2.273438-1.871094-4.480469-3.054687-6.601563-.175781-.304687-.367188-.589843-.542969-.894531-1.273438-2.175781-2.714844-4.25-4.3125-6.199219l-.136719-.152343c-1.617187-1.925782-3.386719-3.714844-5.289062-5.363282-.214844-.191406-.40625-.390625-.621094-.566406-1.871094-1.566406-3.859375-2.988281-5.945313-4.253906-.351562-.21875-.695312-.433594-1.054687-.640625-2.09375-1.210938-4.273437-2.257813-6.523437-3.136719l-1.191407-.441406c-2.34375-.847656-4.75-1.515625-7.199219-1.992188-.320312-.0625-.640624-.09375-.960937-.152344-5.324219-.96875-10.785156-.96875-16.109375 0-.320312.058594-.640625.089844-.960938.152344-2.449218.476563-4.855468 1.144532-7.199218 1.992188l-1.191406.441406c-2.25.878906-4.429688 1.925781-6.523438 3.136719-.359375.207031-.703125.421875-1.054688.640625-2.085937 1.265625-4.074218 2.6875-5.945312 4.253906-.214844.175781-.40625.375-.621094.566406-1.902344 1.648438-3.671875 3.4375-5.289062 5.363282l-.136719.152343c-1.597656 1.949219-3.039063 4.027344-4.3125 6.207031-.175781.296876-.367187.582032-.535156.886719-1.191407 2.117188-2.214844 4.324219-3.0625 6.601563-.152344.414062-.3125.800781-.457031 1.246094-.800782 2.316406-1.421876 4.6875-1.855469 7.097656-.039063.183594-.113281.351562-.144531.535156h-56.648438zm135.359375 62.398438c-3.03125 14.9375-16.179687 25.664062-31.421875 25.632812-15.238281-.027344-28.34375-10.804688-31.320312-25.75-.425782-2.066406-.632813-4.171875-.617188-6.28125 0-17.671875 14.328125-32 32-32s32 14.328125 32 32c.015625 2.148438-.199219 4.296875-.640625 6.398438zm272 0c-3.03125 14.9375-16.179687 25.664062-31.421875 25.632812-15.238281-.027344-28.34375-10.804688-31.320312-25.75-.425782-2.066406-.632813-4.171875-.617188-6.28125 0-17.671875 14.328125-32 32-32s32 14.328125 32 32c.015625 2.148438-.199219 4.296875-.640625 6.398438zm0 0"/>
        <path fill="#000" d="m120 336c-13.253906 0-24 10.746094-24 24s10.746094 24 24 24 24-10.746094 24-24-10.746094-24-24-24zm0 32c-4.417969 0-8-3.582031-8-8s3.582031-8 8-8 8 3.582031 8 8-3.582031 8-8 8zm0 0"/>
        <path fill="#000" d="m392 336c-13.253906 0-24 10.746094-24 24s10.746094 24 24 24 24-10.746094 24-24-10.746094-24-24-24zm0 32c-4.417969 0-8-3.582031-8-8s3.582031-8 8-8 8 3.582031 8 8-3.582031 8-8 8zm0 0"/>
        <path fill="#000" d="m344 216h72c2.996094-.003906 5.738281-1.679688 7.105469-4.339844 1.371093-2.664062 1.136719-5.871094-.601563-8.308594l-40-56c-1.5-2.101562-3.921875-3.347656-6.503906-3.351562h-32c-4.417969 0-8 3.582031-8 8v56c0 4.417969 3.582031 8 8 8zm8-56h19.878906l28.578125 40h-48.457031zm0 0"/>
        <path fill="#000" d="m88 120h-40c-4.417969 0-8 3.582031-8 8v80c0 4.417969 3.582031 8 8 8s8-3.582031 8-8v-32h24c4.417969 0 8-3.582031 8-8s-3.582031-8-8-8h-24v-24h32c4.417969 0 8-3.582031 8-8s-3.582031-8-8-8zm0 0"/>
        <path fill="#000" d="m168 144c0-13.253906-10.746094-24-24-24h-32c-4.417969 0-8 3.582031-8 8v80c0 4.417969 3.582031 8 8 8s8-3.582031 8-8v-28.6875l34.34375 34.34375c3.140625 3.03125 8.128906 2.988281 11.214844-.097656 3.085937-3.085938 3.128906-8.074219.097656-11.214844l-34.34375-34.34375h12.6875c13.253906 0 24-10.746094 24-24zm-48-8h24c4.417969 0 8 3.582031 8 8s-3.582031 8-8 8h-24zm0 0"/>
        <path fill="#000" d="m224 136c4.417969 0 8-3.582031 8-8s-3.582031-8-8-8h-40c-4.417969 0-8 3.582031-8 8v80c0 4.417969 3.582031 8 8 8h40c4.417969 0 8-3.582031 8-8s-3.582031-8-8-8h-32v-24h24c4.417969 0 8-3.582031 8-8s-3.582031-8-8-8h-24v-24zm0 0"/>
        <path fill="#000" d="m288 136c4.417969 0 8-3.582031 8-8s-3.582031-8-8-8h-40c-4.417969 0-8 3.582031-8 8v80c0 4.417969 3.582031 8 8 8h40c4.417969 0 8-3.582031 8-8s-3.582031-8-8-8h-32v-24h24c4.417969 0 8-3.582031 8-8s-3.582031-8-8-8h-24v-24zm0 0"/>
        <path fill="#000" d="m8 408c-4.417969 0-8 3.582031-8 8s3.582031 8 8 8h464c4.417969 0 8-3.582031 8-8s-3.582031-8-8-8zm0 0"/>
    </symbol>

    <symbol id="advantages04" role="img" aria-labelledby="advantages04_title" viewBox="0 0 512 512">
        <title id="advantages04_title"></title>
        <path d="M492.522,118.3L266.433,3.743l-0.093-0.047c-10.068-5.012-22.029-4.9-32.002,0.3
			C233.553,4.328,19.617,117.874,18.896,118.338C7.24,124.44,0,136.398,0,149.559V362.44c0,13.161,7.24,25.118,18.896,31.221
			l215.345,114.292l0.097,0.051c5.086,2.652,10.691,3.981,16.297,3.981c5.385,0,10.772-1.226,15.705-3.682l226.182-114.604
			C504.539,387.69,512,375.618,512,362.18V149.82C512,136.381,504.538,124.309,492.522,118.3z M248.237,30.57
			c1.469-0.754,3.224-0.769,4.705-0.042l211.629,107.229l-82.365,41.006L175.308,69.276L248.237,30.57z M235.424,474.631
			L32.91,367.148l-0.097-0.051c-1.741-0.909-2.824-2.692-2.824-4.656V163.092l205.435,107.124V474.631z M250.577,244.295
			L46.272,137.76l97.024-51.493l205.875,108.945L250.577,244.295z M482.01,362.181c0,2.004-1.116,3.806-2.912,4.7L265.414,475.152
			V270.409l98.386-48.981v51.355c0,8.281,6.714,14.995,14.995,14.995s14.995-6.714,14.995-14.995v-66.285l88.22-43.92V362.181z"/>
		<path d="M181.277,294.419c-4.19-7.144-13.378-9.536-20.521-5.346l-46.437,27.244l-9.751-17.666
			c-4.002-7.25-13.125-9.884-20.374-5.882c-7.25,4.002-9.884,13.124-5.882,20.374l17.189,31.143c0.04,0.073,0.086,0.14,0.127,0.212
			c0.024,0.043,0.043,0.087,0.068,0.13c0.057,0.098,0.121,0.189,0.18,0.285c0.089,0.145,0.179,0.29,0.273,0.431
			c0.095,0.143,0.193,0.282,0.292,0.42c0.1,0.14,0.2,0.28,0.304,0.416c0.103,0.134,0.21,0.264,0.316,0.394
			c0.108,0.131,0.215,0.262,0.326,0.388c0.112,0.127,0.227,0.249,0.343,0.371c0.113,0.12,0.226,0.241,0.343,0.357
			c0.122,0.121,0.248,0.237,0.373,0.353c0.117,0.108,0.233,0.217,0.352,0.321c0.133,0.116,0.271,0.226,0.408,0.337
			c0.118,0.095,0.235,0.192,0.356,0.284c0.144,0.109,0.291,0.212,0.438,0.315c0.121,0.085,0.24,0.171,0.363,0.252
			c0.152,0.1,0.308,0.194,0.464,0.289c0.123,0.075,0.245,0.152,0.37,0.223c0.16,0.091,0.324,0.175,0.487,0.26
			c0.125,0.065,0.249,0.133,0.376,0.195c0.166,0.081,0.336,0.154,0.505,0.229c0.129,0.057,0.256,0.117,0.386,0.17
			c0.168,0.069,0.34,0.129,0.51,0.192c0.135,0.049,0.268,0.102,0.404,0.148c0.169,0.057,0.341,0.105,0.511,0.155
			c0.14,0.042,0.279,0.087,0.421,0.124c0.168,0.044,0.338,0.08,0.507,0.118c0.147,0.034,0.294,0.072,0.442,0.101
			c0.161,0.032,0.324,0.054,0.486,0.081c0.159,0.026,0.316,0.056,0.476,0.077c0.153,0.02,0.306,0.03,0.46,0.046
			c0.17,0.017,0.34,0.038,0.51,0.049c0.135,0.009,0.27,0.008,0.405,0.013c0.188,0.007,0.375,0.019,0.563,0.019
			c0.317,0,0.634-0.011,0.951-0.031c0.081-0.005,0.162-0.016,0.243-0.023c0.233-0.019,0.466-0.038,0.699-0.068
			c0.12-0.015,0.239-0.038,0.358-0.056c0.194-0.03,0.387-0.058,0.58-0.095c0.138-0.027,0.276-0.061,0.414-0.092
			c0.173-0.039,0.346-0.076,0.518-0.121c0.149-0.039,0.296-0.084,0.444-0.128c0.161-0.047,0.321-0.093,0.481-0.146
			c0.152-0.05,0.302-0.107,0.453-0.162c0.155-0.057,0.31-0.113,0.464-0.176c0.151-0.061,0.3-0.128,0.45-0.194
			c0.152-0.068,0.305-0.136,0.456-0.209c0.146-0.071,0.29-0.146,0.434-0.222c0.096-0.05,0.194-0.095,0.289-0.148
			c0.04-0.022,0.076-0.05,0.117-0.072c0.075-0.042,0.151-0.078,0.225-0.122l59.715-35.033
			C183.074,310.75,185.468,301.562,181.277,294.419z"/>
    </symbol>

    <symbol id="footer-facebook" role="img" aria-labelledby="footer-facebook_title" viewBox="0 0 512 512">
        <title id="footer-facebook_title">Facebook</title>
        <path d="M314.829,135.492h70.595c11.423,0,20.682-9.26,20.682-20.682V20.682C406.107,9.26,396.848,0,385.425,0h-70.595
            c-76.282,0-138.341,62.06-138.341,138.341v49.913h-49.913c-11.422,0-20.682,9.26-20.682,20.682v94.127
            c0,11.423,9.26,20.682,20.682,20.682h49.913v167.572c0,11.423,9.26,20.682,20.682,20.682h94.127
            c11.423,0,20.682-9.259,20.682-20.682V323.746h49.913c9.49,0,17.763-6.458,20.065-15.666l23.532-94.127
            c1.544-6.179,0.156-12.725-3.763-17.744c-3.919-5.02-9.932-7.954-16.301-7.954H311.98v-49.913
            C311.98,136.77,313.258,135.492,314.829,135.492z M291.298,229.619h67.637l-13.191,52.763h-54.447
            c-11.423,0-20.682,9.259-20.682,20.682v167.572h-52.763V303.064c0-11.423-9.26-20.682-20.682-20.682h-49.913v-52.763h49.913
            c11.422,0,20.682-9.26,20.682-20.682v-70.595c0-53.473,43.503-96.977,96.977-96.977h49.913v52.763h-49.913
            c-24.38,0-44.214,19.835-44.214,44.214v70.595C270.615,220.359,279.875,229.619,291.298,229.619z"/>
    </symbol>

    <symbol id="footer-twitter" role="img" aria-labelledby="footer-twitter_title" viewBox="0 0 512 512">
        <title id="footer-twitter_title">Twitter</title>
        <path d="M502.954,47.189c-7.126-4.852-16.515-4.774-23.559,0.196c-15.351,10.828-31.974,19.528-49.557,25.948
            c-19.253-17.414-43.615-27.826-69.915-29.656c-31.056-2.16-61.081,7.9-84.561,28.326c-25.59,22.259-40.174,54.444-40.046,88.349
            c-85.248-7.609-139.14-61.55-177.09-108.986c-4.598-5.746-11.901-8.619-19.182-7.538c-7.279,1.078-13.438,5.944-16.171,12.777
            c-0.948,2.369-23.141,58.799-17.453,127.057c4.761,57.133,30.23,131.964,120.039,181.717
            c-32.436,14.756-68.282,21.939-103.953,20.519c-9.576-0.378-18.15,5.859-20.736,15.08c-2.587,9.221,1.497,19.013,9.869,23.665
            c51.359,28.532,108.03,43.736,163.889,43.965c0.432,0.002,0.861,0.003,1.294,0.003c54.105-0.001,106.379-13.938,151.246-40.336
            c42.898-25.241,78.416-61.759,102.715-105.603c26.162-47.206,39.427-101.75,39.427-162.186c-0.011-3.544-0.186-7.098-0.52-10.638
            c20.7-22.885,35.388-50.567,42.719-80.667C513.451,60.803,510.081,52.04,502.954,47.189z M432.297,128.07
            c-4.916,4.847-7.088,11.827-5.793,18.607c0.877,4.588,1.329,9.278,1.344,13.874c0,101.956-44.378,186.544-121.756,232.072
            c-60.586,35.649-133.037,43.933-203.609,25.057c0.729-0.201,1.459-0.407,2.185-0.615c27.596-7.885,53.63-20.055,77.377-36.174
            c6.329-4.296,9.77-11.734,8.946-19.34c-0.825-7.605-5.778-14.134-12.881-16.975C97.757,312.434,53.563,257.594,46.757,181.575
            c-2.536-28.334,0.707-54.721,4.766-74.501c16.638,17.909,37.384,37.227,62.129,53.407c42.771,27.966,90.663,42.146,142.346,42.146
            c11.423,0,20.682-9.26,20.682-20.682v-21.393c0-0.045,0-0.091,0-0.137c-0.146-21.948,9.268-42.797,25.829-57.202
            c15.146-13.175,34.51-19.665,54.543-18.27c20.026,1.393,38.311,10.502,51.487,25.648c5.339,6.138,13.783,8.577,21.567,6.229
            c5.725-1.724,11.375-3.645,16.941-5.757C442.599,117.081,437.672,122.769,432.297,128.07z"/>
    </symbol>    

    <symbol id="footer-linkedin" role="img" aria-labelledby="footer-linkedin_title" viewBox="0 0 512 512">
        <title id="footer-linkedin_title">Linkedin</title>
        <path d="M2.5,510V153.7h137.3V510H2.5z M102.5,472.7V191H39.8v281.7H102.5z"/>
        <path d="M375.4,510l0.1-158.1c0.5-23.6-8.8-42.9-24.9-51.7c-5.4-3-11.2-4.5-17.3-4.5c-5.2,0-10.4,1.1-15.5,3.3l-1.1,211H176.1
            V153.7h140.6V166c16.6-6,33.6-9.1,50.6-9.1c24.7,0,48.3,6.4,70.2,18.9c44,25.2,72.5,71.8,72.5,118.8V510H375.4z M472.7,472.7V294.6
            c0-33.8-21.1-67.7-53.7-86.4c-15.9-9.1-33.8-13.9-51.7-14h-0.3c-20.1,0-40.1,5.8-59.6,17.3L279.4,228V191h-66.1v281.7h66.2l1-194.7
            l8.2-5.5c13.7-9.2,29.1-14.1,44.5-14.1c12.4,0,24.2,3,35.1,9c13.7,7.5,25,19.2,32.8,33.8c7.9,14.9,11.9,32.6,11.5,51.1l0,120.3
            H472.7z"/>
        <path d="M70.9,139.9C32.9,139.9,2,109,2,71c0-38,30.9-69,68.9-69c38,0,68.9,30.9,68.9,69C139.8,109,108.9,139.9,70.9,139.9z
             M70.9,39.3c-17.4,0-31.6,14.2-31.6,31.7c0,17.5,14.2,31.7,31.6,31.7c17.4,0,31.6-14.2,31.6-31.7C102.5,53.5,88.3,39.3,70.9,39.3z"
            />
    </symbol>

    <symbol id="footer-instagram" role="img" aria-labelledby="footer-instagram_title" viewBox="0 0 512 512">
        <title id="footer-instagram_title">Instagram</title>
        <path d="M373.659,0H138.341C62.06,0,0,62.06,0,138.341v235.318C0,449.94,62.06,512,138.341,512h235.318
            C449.94,512,512,449.94,512,373.659V138.341C512,62.06,449.94,0,373.659,0z M470.636,373.659
            c0,53.473-43.503,96.977-96.977,96.977H138.341c-53.473,0-96.977-43.503-96.977-96.977V138.341
            c0-53.473,43.503-96.977,96.977-96.977h235.318c53.473,0,96.977,43.503,96.977,96.977V373.659z"/>
        <path d="M370.586,238.141c-3.64-24.547-14.839-46.795-32.386-64.342c-17.547-17.546-39.795-28.746-64.341-32.385
            c-11.176-1.657-22.507-1.657-33.682,0c-30.336,4.499-57.103,20.541-75.372,45.172c-18.269,24.631-25.854,54.903-21.355,85.237
            c4.499,30.335,20.541,57.102,45.172,75.372c19.996,14.831,43.706,22.619,68.153,22.619c5.667,0,11.375-0.418,17.083-1.265
            c30.336-4.499,57.103-20.541,75.372-45.172C367.5,298.747,375.085,268.476,370.586,238.141z M267.791,327.632
            c-19.405,2.882-38.77-1.973-54.527-13.66c-15.757-11.687-26.019-28.811-28.896-48.216c-2.878-19.405,1.973-38.77,13.66-54.527
            c11.688-15.757,28.811-26.019,48.217-28.897c3.574-0.53,7.173-0.795,10.772-0.795s7.199,0.265,10.773,0.796
            c32.231,4.779,57.098,29.645,61.878,61.877C335.608,284.268,307.851,321.692,267.791,327.632z"/>
        <path d="M400.049,111.951c-3.852-3.851-9.183-6.058-14.625-6.058c-5.442,0-10.773,2.206-14.625,6.058
            c-3.851,3.852-6.058,9.174-6.058,14.625c0,5.451,2.207,10.773,6.058,14.625c3.852,3.851,9.183,6.058,14.625,6.058
            c5.442,0,10.773-2.206,14.625-6.058c3.851-3.852,6.058-9.183,6.058-14.625C406.107,121.133,403.9,115.802,400.049,111.951z"/>
    </symbol>

    <symbol id="footer-pinterest" role="img" aria-labelledby="footer-pinterest_title" viewBox="0 0 384 384">
        <title id="footer-pinterest_title">Pinterest</title>
		<path d="m192 384c105.863281 0 192-86.128906 192-192s-86.136719-192-192-192-192 86.128906-192 192 86.136719 192 192 192zm0-352c88.222656 0 160 71.777344 160 160s-71.777344 160-160 160c-39.585938 0-75.792969-14.527344-103.753906-38.433594l21.785156-71.773437c12.394531 20.40625 32.273438 36.304687 57.097656 42.960937 8.285156 2.222656 16.625 3.285156 24.832032 3.285156 42.382812 0 81.261718-28.328124 92.75-71.167968 13.695312-51.136719-16.757813-103.871094-67.878907-117.574219-45.679687-12.234375-92.574219 10.832031-111.839843 52.351563l-41.921876 134.695312c-19.4375-26.488281-31.070312-59.046875-31.070312-94.34375 0-88.222656 71.777344-160 160-160zm-61.761719 143.207031c7.746094-28.414062 33.578125-47.199219 61.753907-47.199219 5.472656 0 11.03125.703126 16.550781 2.183594 34.089843 9.136719 54.386719 44.304688 45.257812 78.382813-9.144531 34.089843-44.3125 54.402343-78.394531 45.257812-34.03125-9.121093-54.308594-44.191406-45.285156-78.230469zm0 0"/>
    </symbol>

    <symbol id="footer-phone" role="img" aria-labelledby="footer-phone_title" viewBox="0 0 512 512">
        <title id="footer-phone_title"></title>
        <path d="M421.216,195.504c-5.092-26.101-17.723-49.836-36.526-68.64c-18.804-18.803-42.54-31.434-68.641-36.527
			c-11.21-2.189-22.073,5.128-24.261,16.339c-2.187,11.212,5.128,22.073,16.339,24.26c36.847,7.188,65.3,35.642,72.489,72.489
			c1.927,9.874,10.581,16.726,20.278,16.726c1.313,0,2.645-0.125,3.984-0.387C416.088,217.577,423.403,206.715,421.216,195.504z"/>
		<path d="M511.422,196.929c-5.629-50.096-28.373-97.304-64.042-132.927C411.712,28.378,364.475,5.694,314.371,0.128
			c-11.355-1.261-21.578,6.92-22.839,18.272c-1.261,11.353,6.919,21.578,18.272,22.84c84.961,9.438,150.966,75.36,160.512,160.31
			c1.188,10.566,10.139,18.374,20.527,18.374c0.771,0,1.552-0.043,2.336-0.131C504.53,218.516,512.698,208.281,511.422,196.929z"/>
		<path d="M432.59,312.566c-0.062-0.008-0.124-0.017-0.186-0.025c-20.013-2.639-39.751-7.557-58.619-14.596
			c-23.91-8.99-51.103-3.191-69.27,14.772c-0.028,0.028-0.056,0.055-0.083,0.083l-17.148,17.148
			c-42.633-26.924-78.756-63.047-105.679-105.679l17.149-17.149c0.027-0.028,0.054-0.055,0.082-0.083
			c17.964-18.166,23.762-45.356,14.79-69.223c-7.057-18.914-11.974-38.653-14.614-58.666c-0.007-0.063-0.017-0.127-0.026-0.19
			c-4.591-32.478-32.782-56.734-65.548-56.467H66.053c-1.943,0.002-3.912,0.091-5.853,0.267
			C24.143,26.016-2.541,58.001,0.718,94.058c0.01,0.108,0.02,0.215,0.032,0.323c7.684,72.354,32.649,142.88,72.197,203.955
			c35.892,56.461,84.701,105.269,141.162,141.164c60.792,39.406,130.99,64.369,203.013,72.196c0.127,0.015,0.254,0.027,0.38,0.038
			c1.961,0.176,3.949,0.266,5.921,0.266c0.083,0,0.165,0,0.247,0.001c36.204-0.148,65.538-29.722,65.391-65.841v-67.233
			C489.746,345.714,465.515,317.211,432.59,312.566z M447.698,378.695v67.548c0.055,13.396-10.8,24.338-24.19,24.393
			c-0.715-0.004-1.425-0.027-2.135-0.086c-65.578-7.161-129.488-29.914-184.837-65.808c-0.053-0.035-0.107-0.069-0.161-0.103
			c-51.429-32.68-95.885-77.137-128.565-128.565c-0.032-0.051-0.064-0.101-0.097-0.153C71.683,220.306,48.928,156.086,41.902,90.193
			C40.779,76.91,50.63,65.155,63.923,63.954c0.717-0.064,1.443-0.098,2.145-0.098h67.463c0.146-0.001,0.294-0.003,0.443-0.002
			c12.021,0,22.322,8.905,24.044,20.819c3.05,23.063,8.721,45.806,16.871,67.649c3.319,8.832,1.189,18.869-5.427,25.591
			l-28.517,28.517c-6.583,6.582-7.956,16.753-3.354,24.847c33.837,59.508,83.177,108.847,142.685,142.685
			c8.094,4.6,18.264,3.23,24.848-3.355l28.512-28.512c6.72-6.621,16.765-8.752,25.642-5.415
			c21.799,8.134,44.547,13.805,67.61,16.855c12.18,1.757,21.122,12.339,20.816,24.647
			C447.7,378.353,447.698,378.524,447.698,378.695z"/>
    </symbol>

	<symbol id="footer-mail" role="img" aria-labelledby="footer-mail_title" viewBox="0 0 512 512">
        <title id="footer-mail_title"></title>
        <path d="M256,141.176c-63.306,0-114.809,51.503-114.809,114.809S192.694,370.795,256,370.795s114.809-51.503,114.809-114.809
			S319.306,141.176,256,141.176z M256,329.43c-40.498,0-73.445-32.947-73.445-73.445c0-40.498,32.947-73.445,73.445-73.445
			c40.499,0,73.445,32.947,73.445,73.445C329.445,296.483,296.499,329.43,256,329.43z"/>
		<path d="M437.008,74.97C388.656,26.623,324.375,0,256,0c-0.005,0-0.013,0-0.017,0C187.603,0.004,123.318,26.637,74.97,74.992
			C26.62,123.347-0.005,187.637,0,256.017c0.004,68.379,26.637,132.666,74.992,181.014C123.344,485.377,187.625,512.001,256,512
			c0.004,0,0.012,0,0.017,0c55.945-0.004,111.216-18.738,155.631-52.752c9.07-6.945,10.792-19.927,3.846-28.995
			c-6.945-9.069-19.926-10.794-28.995-3.846c-37.24,28.518-83.58,44.224-130.486,44.228c-0.006,0-0.006,0-0.014,0
			c-57.324,0-111.224-22.324-151.761-62.856c-40.542-40.536-62.871-94.435-62.875-151.766
			C41.357,137.663,137.636,41.372,255.986,41.364c0.007,0,0.006,0,0.014,0c118.34,0,214.628,96.279,214.636,214.622v23.532
			c0,27.523-22.39,49.913-49.913,49.913c-27.523,0-49.913-22.391-49.913-49.913v-23.532c0-11.422-9.259-20.682-20.682-20.682
			s-20.682,9.26-20.682,20.682v23.532c0,50.33,40.947,91.278,91.278,91.278S512,329.848,512,279.518v-23.534
			C511.995,187.604,485.362,123.318,437.008,74.97z"/>
    </symbol>

    <symbol id="footer-time" role="img" aria-labelledby="footer-time_title" viewBox="0 0 512 512">
        <title id="footer-time_title"></title>
        <path d="M437.019,74.981C388.667,26.629,324.38,0,256,0S123.333,26.63,74.981,74.981S0,187.62,0,256
			s26.629,132.667,74.981,181.019C123.332,485.371,187.62,512,256,512s132.667-26.629,181.019-74.981
			C485.371,388.667,512,324.38,512,256S485.371,123.332,437.019,74.981z M256,470.636C137.65,470.636,41.364,374.35,41.364,256
			S137.65,41.364,256,41.364S470.636,137.65,470.636,256S374.35,470.636,256,470.636z"/>
		<path d="M341.221,311.97l-64.538-64.537V114.809c0-11.422-9.259-20.682-20.682-20.682c-11.422,0-20.682,9.26-20.682,20.682V256
			c0,5.486,2.179,10.746,6.058,14.625l70.594,70.595c4.038,4.039,9.332,6.058,14.625,6.058c5.293,0,10.586-2.019,14.626-6.058
			C349.297,333.142,349.297,320.047,341.221,311.97z"/>
    </symbol>

    <symbol id="footer-location" role="img" aria-labelledby="footer-location_title" viewBox="0 0 512 512">
        <title id="footer-location_title"></title>
        <path d="M406.766,62.449C366.495,22.178,312.951,0,256,0S145.505,22.178,105.234,62.449
			c-40.272,40.271-62.449,93.814-62.449,150.766c0,37.656,10.972,76.863,32.609,116.532c16.825,30.846,40.15,62.102,69.326,92.898
			c49.17,51.903,97.763,84.519,99.808,85.881C248.001,510.842,252,512,256,512c4,0,7.999-1.158,11.473-3.474
			c2.045-1.363,50.638-33.978,99.808-85.881c29.176-30.795,52.501-62.051,69.326-92.898c21.637-39.669,32.609-78.876,32.609-116.532
			C469.215,156.263,447.038,102.72,406.766,62.449z M256.001,465.903C215.826,436.156,84.15,329.739,84.15,213.215
			c0-94.759,77.091-171.851,171.85-171.851s171.85,77.092,171.851,171.851C427.851,329.748,296.159,436.168,256.001,465.903z"/>
		<path d="M256,128.355c-46.791,0-84.86,38.068-84.86,84.86c0,46.791,38.068,84.86,84.86,84.86c46.792,0,84.861-38.068,84.86-84.86
			C340.86,166.423,302.791,128.355,256,128.355z M256,256.71c-23.983,0-43.495-19.512-43.495-43.495
			c0-23.983,19.512-43.495,43.495-43.495c23.984,0,43.495,19.512,43.495,43.495C299.495,237.198,279.984,256.71,256,256.71z"/>
    </symbol>

    <symbol id="link-arrow" role="img" aria-labelledby="link-arrow_title" viewBox="0 0 512 512">
        <title id="link-arrow_title"></title>
        <path d="M256,0C114.615,0,0,114.615,0,256s114.615,256,256,256s256-114.615,256-256C511.833,114.685,397.315,0.167,256,0z
			 M256,480C132.288,480,32,379.712,32,256S132.288,32,256,32s224,100.288,224,224C479.868,379.657,379.657,479.868,256,480z"/>
		<polygon points="126.88,256 208,256 208,224 196.336,224 256,154.24 315.664,224 240,224 240,288 272,288 272,256 385.12,256 
			256,104.992 			"/>
		<rect x="240" y="384" width="32" height="32"/>
		<rect x="240" y="320" width="32" height="32"/>
    </symbol>

</svg>