<svg xmlns="http://www.w3.org/2000/svg" xmlns:xlink="http://www.w3.org/1999/xlink">

	<symbol id="what01" role="img" aria-labelledby="what01_title" viewBox="0 0 512 512">
        <title id="what01_title"></title>
        <path fill="#ffc20d" d="M432,216c0.1-81.8-56.3-152.9-136-171.4V40c0-8.8-7.2-16-16-16h-48c-8.8,0-16,7.2-16,16v4.6
			C136.3,63.2,80,134.2,80,216c-17.7,0-32,14.3-32,32v16c0,8.8,7.2,16,16,16h384c8.8,0,16-7.2,16-16v-16C464,230.3,449.7,216,432,216z
			"/>
		<path d="M360,216h-64c-4.4,0-8,3.6-8,8v8c0,4.4-3.6,8-8,8h-48c-4.4,0-8-3.6-8-8v-8c0-4.4-3.6-8-8-8h-64
			c-4.4,0-8,3.6-8,8s3.6,8,8,8h56c0,13.3,10.7,24,24,24l0,0h48c13.3,0,24-10.7,24-24l0,0h56c4.4,0,8-3.6,8-8S364.4,216,360,216z"/>
		<path d="M439.6,208.8c-2.9-80.5-58-149.6-135.8-170.3C303.1,25.9,292.6,16,280,16h-48c-12.6,0-23.1,9.9-23.8,22.5
			C130.3,59.1,75.1,128.3,72.3,208.8C53.6,212.5,40,228.9,40,248v16c0,13.3,10.7,24,24,24h8v56c0,4.4,3.6,8,8,8h46
			c2.5,8.2,5.8,16.1,9.8,23.7l-32.4,32.5c-3.1,3.1-3.1,8.2,0,11.3l45.2,45.2c3.1,3.1,8.2,3.1,11.3,0l32.5-32.4
			c7.6,4,15.5,7.3,23.7,9.8v46c0,4.4,3.6,8,8,8h64c4.4,0,8-3.6,8-8v-46c8.2-2.5,16.1-5.8,23.6-9.9l32.6,32.5c3.1,3.1,8.2,3.1,11.3,0
			l45.2-45.2c3.1-3.1,3.1-8.2,0-11.3l-32.5-32.6c4-7.5,7.3-15.5,9.9-23.6h46c4.4,0,8-3.6,8-8v-56h8c13.3,0,24-10.7,24-24v-16
			C472,228.9,458.4,212.5,439.6,208.8z M315.2,288c13.4,32.7-2.2,70.1-34.9,83.5c-32.7,13.4-70.1-2.2-83.5-34.9
			c-6.4-15.6-6.4-33.1,0-48.6H315.2z M456,264c0,4.4-3.6,8-8,8H64c-4.4,0-8-3.6-8-8v-16c0-10.1,6.4-19.1,16-22.5V248c0,4.4,3.6,8,8,8
			s8-3.6,8-8v-32c-0.3-74.4,48.6-140,120-160.9V160c0,4.4,3.6,8,8,8s8-3.6,8-8V40c0-4.4,3.6-8,8-8h48c4.4,0,8,3.6,8,8v120
			c0,4.4,3.6,8,8,8s8-3.6,8-8V55c71.2,21.1,120.1,86.6,120,161v32c0,4.4,3.6,8,8,8s8-3.6,8-8v-22.5c9.6,3.4,16,12.4,16,22.5V264z"/>
		<path fill="#ffffff" d="M424,288v48h-44c-3.6,0-6.8,2.5-7.7,6c-2.8,10.9-7.1,21.2-12.9,30.9c-1.9,3.1-1.4,7.2,1.2,9.8l31.2,31.2l-33.9,33.9
			l-31.2-31.1c-2.6-2.6-6.6-3.1-9.8-1.2c-9.6,5.8-20,10.1-30.8,12.9c-3.5,0.9-6,4.1-6,7.8v44h-48v-44c0-3.6-2.5-6.8-6-7.7
			c-10.9-2.8-21.3-7.1-31-12.8c-3.1-1.9-7.1-1.4-9.7,1.2l-31.1,31.1l-33.9-33.9l31.1-31.1c2.6-2.6,3.1-6.6,1.2-9.7
			c-5.7-9.7-10-20.1-12.8-31c-0.9-3.5-4.1-6-7.8-6H88v-48h91.8c-13.5,42.1,9.7,87.1,51.8,100.6c42.1,13.5,87.1-9.7,100.6-51.8
			c5.1-15.9,5.1-32.9,0-48.8H424z"/>
		<path d="M328,144c4.4,0,8-3.6,8-8V88c0-4.4-3.6-8-8-8s-8,3.6-8,8v48C320,140.4,323.6,144,328,144z"/>
		<path d="M184,144c4.4,0,8-3.6,8-8V88c0-4.4-3.6-8-8-8s-8,3.6-8,8v48C176,140.4,179.6,144,184,144z"/>
		<path d="M400,216h-8c-4.4,0-8,3.6-8,8s3.6,8,8,8h8c4.4,0,8-3.6,8-8S404.4,216,400,216z"/>
		<path d="M120,216h-8c-4.4,0-8,3.6-8,8s3.6,8,8,8h8c4.4,0,8-3.6,8-8S124.4,216,120,216z"/>
		<path d="M104,304h16v16h-16V304z"/>
		<path d="M142.8,413.8l11.3-11.3l11.3,11.3l-11.3,11.3L142.8,413.8z"/>
		<path d="M248,448h16v16h-16V448z"/>
		<path d="M346.4,413.8l11.3-11.3l11.3,11.3l-11.3,11.3L346.4,413.8z"/>
		<path d="M392,304h16v16h-16V304z"/>
    </symbol>

    <symbol id="what02" role="img" aria-labelledby="what02_title" viewBox="0 0 512 512">
        <title id="what02_title"></title>
        <polygon fill="#ffffff" points="416,187.1 416,432 64,432 64,187.1 240,65.7 			"/>	
        <path fill="#ffc20d" d="M8,440v32h464v-32H8z"/>
		<path fill="#ffc20d" d="M424,182.9L424,182.9L424,182.9l27.6,19L472,168L240,8L136,79.7v0v0L8,168l20.4,33.9l27.6-19v0v0L240,56
			L424,182.9z"/>
		<path fill="#ffc20d" d="M289.3,261.4l24.2-24.2l-22.6-22.6l-24.2,24.2h-0.1c-3.4-1.8-7-3.3-10.6-4.4V200h-32v34.3
			c-3.7,1.1-7.3,2.6-10.6,4.4h-0.1l-24.2-24.2l-22.6,22.6l24.2,24.2c-1.8,3.4-3.3,7-4.4,10.6H152v32h34.3c1.1,3.7,2.6,7.3,4.4,10.6
			v0.1l-24.2,24.2l22.6,22.6l24.2-24.2c3.4,1.8,7,3.3,10.6,4.4V376h32v-34.3c3.7-1.1,7.3-2.6,10.6-4.4l24.2,24.2l22.6-22.6l-24.2-24.2
			v-0.1c1.8-3.4,3.3-7,4.4-10.6H328v-32h-34.3C292.6,268.3,291.1,264.7,289.3,261.4z M240,312c-13.3,0-24-10.7-24-24s10.7-24,24-24
			s24,10.7,24,24S253.3,312,240,312z"/>
		<path fill="#ffc20d" d="M136,40H88v72h1.2L136,79.7V40z"/>
		<path d="M480,440v32c0,4.4-3.6,8-8,8H8c-4.4,0-8-3.6-8-8v-32c0-4.4,3.6-8,8-8h40V198.1l-15.1,10.4
			c-1.8,1.3-4.1,1.7-6.2,1.2c-2.2-0.5-4-1.8-5.2-3.7L1.1,172.1c-2.2-3.6-1.1-8.3,2.3-10.7L80,108.6V40c0-4.4,3.6-8,8-8h48
			c4.4,0,8,3.6,8,8v24.5l91.5-63.1c2.7-1.9,6.3-1.9,9.1,0l232,160c3.5,2.4,4.5,7.1,2.3,10.7l-20.4,33.9c-1.1,1.9-3,3.2-5.2,3.7
			c-2.2,0.5-4.4,0-6.2-1.2L432,198.1V432h40C476.4,432,480,435.6,480,440z M464,464v-16H16v16H464z M449.1,190.5l12.1-20.2
			L240,17.7L18.7,170.3l12.1,20.2L235.5,49.4c2.7-1.9,6.3-1.9,9.1,0L449.1,190.5z M416,432V187.1L240,65.7L64,187.1V432H416z
			 M128,75.5V48H96v49.6L128,75.5z"/>
		<path d="M328,264h-28.7c-0.1-0.3-0.3-0.7-0.4-1l20.2-20.2c3.1-3.1,3.1-8.2,0-11.3l-22.6-22.6c-1.5-1.5-3.5-2.3-5.7-2.3
			c-2.1,0-4.2,0.8-5.7,2.4L265,229.1l-1-0.4V200c0-4.4-3.6-8-8-8h-32c-4.4,0-8,3.6-8,8v28.7l-1,0.4l-20.2-20.3
			c-1.5-1.5-3.5-2.4-5.7-2.4s-4.2,0.8-5.7,2.3l-22.6,22.6c-3.1,3.1-3.1,8.2,0,11.3l20.2,20.2c-0.1,0.3-0.3,0.6-0.4,1H152
			c-4.4,0-8,3.6-8,8v32c0,4.4,3.6,8,8,8h28.7l0.4,1l-20.3,20.2c-1.5,1.5-2.4,3.5-2.4,5.7s0.8,4.2,2.4,5.7l22.6,22.6
			c3.1,3.1,8.2,3.1,11.3,0l20.2-20.2l1,0.4V376c0,4.4,3.6,8,8,8h32c4.4,0,8-3.6,8-8v-28.7l1-0.4l20.2,20.2c3.1,3.1,8.2,3.1,11.3,0
			l22.6-22.6c1.5-1.5,2.4-3.5,2.4-5.7s-0.8-4.2-2.4-5.7L298.9,313l0.4-1H328c4.4,0,8-3.6,8-8v-32C336,267.6,332.4,264,328,264z
			 M320,296h-26.3c-3.5,0-6.6,2.3-7.7,5.7c-0.9,3.2-2.2,6.2-3.8,9.1c-0.6,1.2-1,2.5-1,3.9c0,2.1,0.8,4.2,2.4,5.7l18.6,18.5
			l-11.3,11.3l-18.6-18.6c-2.5-2.5-6.4-3.1-9.5-1.4c-2.9,1.6-6,2.8-9.1,3.8c-3.4,1-5.7,4.1-5.7,7.7V368h-16v-26.3
			c0-3.5-2.3-6.6-5.7-7.7c-3.2-0.9-6.2-2.2-9.1-3.8c-3.1-1.7-7-1.2-9.5,1.4l-18.6,18.6l-11.3-11.3l18.6-18.5c1.5-1.5,2.4-3.6,2.4-5.7
			c0-1.3-0.3-2.7-1-3.8c-1.6-2.9-2.8-6-3.8-9.1c-1-3.4-4.1-5.7-7.7-5.7H160v-16h26.3c3.5,0,6.6-2.3,7.7-5.7c0.9-3.2,2.2-6.2,3.8-9.1
			c1.7-3.1,1.1-7-1.4-9.5l-18.6-18.6l11.3-11.3l18.5,18.6c2.6,2.5,6.4,3,9.6,1.4c2.9-1.6,6-2.8,9.1-3.8c3.4-1,5.7-4.1,5.7-7.7V208h16
			v26.3c0,3.5,2.3,6.6,5.7,7.7c3.2,0.9,6.2,2.2,9.1,3.8c3.2,1.7,7,1.1,9.6-1.4l18.5-18.6l11.3,11.3l-18.6,18.6
			c-2.5,2.5-3.1,6.4-1.4,9.5c1.6,2.9,2.8,6,3.8,9.1c1,3.4,4.1,5.7,7.6,5.7H320V296z"/>
		<path d="M240,256c-17.7,0-32,14.3-32,32s14.3,32,32,32s32-14.3,32-32S257.7,256,240,256z M240,304c-8.8,0-16-7.2-16-16
			s7.2-16,16-16s16,7.2,16,16S248.8,304,240,304z"/>
		<path d="M232,144h16c4.4,0,8-3.6,8-8s-3.6-8-8-8h-16c-4.4,0-8,3.6-8,8S227.6,144,232,144z"/>
		<path d="M280,144h16c4.4,0,8-3.6,8-8s-3.6-8-8-8h-16c-4.4,0-8,3.6-8,8S275.6,144,280,144z"/>
		<path d="M184,144h16c4.4,0,8-3.6,8-8s-3.6-8-8-8h-16c-4.4,0-8,3.6-8,8S179.6,144,184,144z"/>
    </symbol>

    <symbol id="what03" role="img" aria-labelledby="what03_title" viewBox="0 0 512 512">
        <title id="what03_title"></title>
        <path fill="#ffc20d" d="M392,392h-90.5l32,32H88V178.5l48,48V136L24,24v128v48v48v48v48v48v48v48h48h48h48h48h48h48h48h128L392,392z"
		/>
		<path fill="#ffc20d" d="M232,322.5V232l-48-48v90.5L232,322.5z"/>
		<path fill="#ffc20d" d="M136,328l24-16V104h-24v32v90.5V328z"/>
		<path fill="#ffc20d" d="M160,312l24,16v-53.5V184v-80h-24V312z"/>
		<path fill="#ffc20d" d="M184,104V72h-48v32h24H184z"/>
		<path fill="#ffc20d" d="M456,24H264c-17.7,0-32,14.3-32,32v304c0,17.7,14.3,32,32,32h192c17.7,0,32-14.3,32-32V56
			C488,38.3,473.7,24,456,24z M456,232v128H264V168h192V232z M456,120H264V56h192V120z"/>
		<path d="M496,360V56c0-22.1-17.9-40-40-40H264c-22.1,0-40,17.9-40,40v156.7l-32-32V48c0-17.7-14.3-32-32-32
			s-32,14.3-32,32v68.7L29.7,18.3c-3.1-3.1-8.2-3.1-11.3,0C16.8,19.8,16,21.9,16,24v464c0,4.4,3.6,8,8,8h464c4.4,0,8-3.6,8-8
			c0-2.1-0.8-4.2-2.3-5.7L411.3,400H456C478.1,400,496,382.1,496,360z M240,56c0-13.3,10.7-24,24-24h192c13.3,0,24,10.7,24,24v304
			c0,13.3-10.7,24-24,24H264c-13.3,0-24-10.7-24-24V56z M314.2,416H96V197.8l32,32V328c0,1.2,0.3,2.5,0.8,3.6l24,48
			c2,4,6.8,5.6,10.7,3.6c1.6-0.8,2.8-2,3.6-3.6l24-48c0.6-1.1,0.8-2.3,0.8-3.6v-34.2l32,32V360c0,22.1,17.9,40,40,40h34.2L314.2,416z
			 M176,112v201.1l-8-5.3V112H176z M176,96h-32V80h32V96z M144,112h8v195.7l-8,5.3V112z M224,235.3v67.9l-32-32v-67.9L224,235.3z
			 M468.7,480H368v-24h-16v24h-32v-24h-16v24h-32v-24h-16v24h-32v-24h-16v24h-32v-24h-16v24h-32v-24h-16v24H80v-24H64v24H32v-32h24
			v-16H32v-32h24v-16H32v-32h24v-16H32v-32h24v-16H32v-32h24v-16H32v-32h24v-16H32v-32h24v-16H32V43.3l96,96v67.9l-34.3-34.4
			c-3.1-3.1-8.2-3.1-11.3,0c-1.5,1.5-2.3,3.5-2.3,5.7V424c0,4.4,3.6,8,8,8h245.5c4.4,0,8-3.6,8-8c0-2.1-0.8-4.2-2.3-5.7L320.8,400
			h67.9L468.7,480z"/>
		<polygon fill="#ffffff" points="173.7,330.7 160,358.1 146.3,330.7 160,321.6 		"/>
		<path fill="#ffffff" d="M176,48v16h-32V48c0-8.8,7.2-16,16-16S176,39.2,176,48z"/>
		<path d="M264,128h192c4.4,0,8-3.6,8-8V56c0-4.4-3.6-8-8-8H264c-4.4,0-8,3.6-8,8v64C256,124.4,259.6,128,264,128z"/>
		<rect fill="#ffffff" x="272" y="64" width="176" height="48"/>
		<path d="M464,168v192c0,4.4-3.6,8-8,8H264c-4.4,0-8-3.6-8-8V168c0-4.4,3.6-8,8-8h192C460.4,160,464,163.6,464,168z
			 M448,352V240h-48v112H448z M448,224v-48h-48v48H448z M384,352v-48h-48v48H384z M384,288v-48h-48v48H384z M384,224v-48h-48v48H384
			z M320,352v-48h-48v48H320z M320,288v-48h-48v48H320z M320,224v-48h-48v48H320z"/>
		<rect fill="#ffffff" x="400" y="240" width="48" height="112"/>
		<rect fill="#ffffff" x="400" y="176" width="48" height="48"/>
		<rect fill="#ffffff" x="336" y="304" width="48" height="48"/>
		<rect fill="#ffffff" x="336" y="240" width="48" height="48"/>
		<rect fill="#ffffff" x="336" y="176" width="48" height="48"/>
		<rect fill="#ffffff" x="272" y="304" width="48" height="48"/>
		<rect fill="#ffffff" x="272" y="240" width="48" height="48"/>
		<rect fill="#ffffff" x="272" y="176" width="48" height="48"/>
    </symbol>

    <symbol id="what04" role="img" aria-labelledby="what04_title" viewBox="0 0 512 512">
        <title id="what04_title"></title>
        <path fill="#ffffff" d="M480,440v1.7c0,21.1-17.2,38.3-38.3,38.3H112V160h272v280c0,4.4,3.6,8,8,8s8-3.6,8-8c0-22.1,17.9-40,40-40
			S480,417.9,480,440z"/>
        <path fill="#ffc20d" d="M152,376v48h48C200,397.5,178.5,376,152,376z"/>
		<path fill="#ffc20d" d="M320,24h-32h-32h-32h-32h-32h-32H96H64H24v96h336V24H320z"/>
		<path fill="#ffc20d" d="M48,232H24v208l24-16V232z"/>
		<path fill="#ffc20d" d="M48,424l24,16V232H48V424z"/>
		<path fill="#ffc20d" d="M24,232h24h24v-32H24V232z"/>
		<path d="M16,16v112h352V16H16z M352,112H32V32h24v32h16V32h16v16h16V32h16v32h16V32h16v16h16V32h16v32h16V32h16v16h16
			V32h16v32h16V32h16v16h16V32h16v32h16V32h24V112z"/>
		<polygon fill="#ffffff" points="61.7,442.7 48,470.1 34.3,442.7 48,433.6 		"/>
		<path fill="#ffffff" d="M64,176v16H32v-16c0-8.8,7.2-16,16-16S64,167.2,64,176z"/>
		<path d="M80,176v264c0,1.3-0.3,2.5-0.9,3.6l-24,48c-0.8,1.6-2,2.8-3.6,3.6c-3.9,2-8.8,0.4-10.7-3.6l-24-48
			c-0.5-1.1-0.8-2.3-0.8-3.6V176c0-17.7,14.3-32,32-32S80,158.3,80,176z M64,425.1V240h-8v179.7L64,425.1z M64,224v-16H32v16H64z
			 M64,192v-16c0-8.8-7.2-16-16-16s-16,7.2-16,16v16H64z M48,470.1l13.7-27.4L48,433.6l-13.7,9.1L48,470.1z M40,419.7V240h-8v185.1
			L40,419.7z"/>
		<path d="M240,208v80h-48v16h48v64h64v-16h-48V224h80v192H207.4c-3.6-24.5-22.8-43.8-47.4-47.4V224h32v-16h-48v224h208
			V208H240z M160,416v-31.2c15.7,3.2,28,15.5,31.2,31.2H160z"/>
		<path fill="#ffc20d" d="M440,392c-26.5,0-48,21.5-48,48V152c0-26.5,21.5-48,48-48s48,21.5,48,48v288C488,413.5,466.5,392,440,392z"/>
		<path d="M496,152v289.6c0,30-24.3,54.3-54.3,54.4H96V144h288.6c4.1-27.2,27.4-47.4,54.9-47.6
			C470.5,96.2,495.8,121.1,496,152z M480,441.7V440c0-22.1-17.9-40-40-40s-40,17.9-40,40c0,4.4-3.6,8-8,8s-8-3.6-8-8V160H112v320
			h329.7C462.8,480,480,462.8,480,441.7z M480,400.8V152c0-22.1-17.9-40-40-40s-40,17.9-40,40v248.8c0.3-0.3,0.6-0.6,0.9-0.9
			C423,378.3,458.4,378.7,480,400.8z"/>
    </symbol>

    <symbol id="what05" role="img" aria-labelledby="what05_title" viewBox="0 0 512 512">
        <title id="what05_title"></title>
        <path fill="#ffffff" d="M384,224v240h-97.5c-3.4-9.5-12.4-16-22.5-16c0-49.6-32.7-93.4-80.3-107.4C182,328.8,171.9,320,160,320h-16
			c-12,0.1-22.1,8.9-23.7,20.8c-14.8,4.3-28.5,11.5-40.3,21.4V152h72c4.4,0,8-3.6,8-8V72h150l17,17c-1.1,2.3-2.1,4.6-2.9,7H296
			c-4.4,0-8,3.6-8,8v32c0,4.4,3.6,8,8,8h28.1c0.9,2.4,1.8,4.7,2.9,7l-19.9,19.9c-3.1,3.1-3.1,8.2,0,11.3l22.6,22.6
			c3.1,3.1,8.2,3.1,11.3,0L361,185c2.3,1.1,4.6,2.1,7,2.9V216c0,4.4,3.6,8,8,8H384z"/>
        <path fill="#ffc20d" d="M152,144V64l-80,80H152z"/>
		<path fill="#ffc20d" d="M264,456h-8v-8c0-48.2-33.1-90-80-101.2V344c0-8.8-7.2-16-16-16h-16c-8.8,0-16,7.2-16,16v2.8
			c-46.9,11.1-80,53-80,101.2v8h-8c-8.8,0-16,7.2-16,16s7.2,16,16,16h224c8.8,0,16-7.2,16-16S272.8,456,264,456z"/>
		<path fill="#ffc20d" d="M447.1,87.5l24.1-24.1l-22.6-22.6l-24.1,24.1c-5.1-3.1-10.7-5.4-16.5-6.9V24h-32v34c-5.8,1.5-11.3,3.8-16.5,6.9
			l-24.1-24.1l-22.6,22.6l0.6,0.6l23.5,23.5c-3.1,5.1-5.4,10.7-6.9,16.5h-34v32h34c1.5,5.8,3.8,11.3,6.9,16.5l-24.1,24.1l22.6,22.6
			l24.1-24.1c5.1,3.1,10.7,5.4,16.5,6.9v34h32v-34c5.8-1.5,11.3-3.8,16.5-6.9l24.1,24.1l22.6-22.6l-24.1-24.1
			c3.1-5.1,5.4-10.7,6.9-16.5h34v-32h-34C452.5,98.2,450.2,92.7,447.1,87.5L447.1,87.5z M392,152c-17.7,0-32-14.3-32-32s14.3-32,32-32
			s32,14.3,32,32S409.7,152,392,152z"/>
		<path fill="#ffc20d" d="M136,176v32h16h16v-16v-16H136z"/>
		<path fill="#ffc20d" d="M328,384v-32h-16h-16v16v16H328z"/>
		<path fill="#ffc20d" d="M208,248h48v48h-48V248z"/>
		<path d="M392,160c-22.1,0-40-17.9-40-40s17.9-40,40-40s40,17.9,40,40C432,142.1,414.1,160,392,160z M392,96
			c-13.3,0-24,10.7-24,24s10.7,24,24,24s24-10.7,24-24S405.3,96,392,96z"/>
		<path d="M152,312c-4.4,0-8-3.6-8-8v-40c0-4.4,3.6-8,8-8s8,3.6,8,8v40C160,308.4,156.4,312,152,312z"/>
		<path d="M264,184h-88v-8c0-4.4-3.6-8-8-8h-32c-4.4,0-8,3.6-8,8v32c0,4.4,3.6,8,8,8h8v16c0,4.4,3.6,8,8,8s8-3.6,8-8v-16
			h8c4.4,0,8-3.6,8-8v-8h88c4.4,0,8-3.6,8-8S268.4,184,264,184z M160,200h-16v-16h16V200z"/>
		<path d="M312,200h-16v-24c0-4.4-3.6-8-8-8s-8,3.6-8,8v32c0,4.4,3.6,8,8,8h16v72c0,4.4,3.6,8,8,8s8-3.6,8-8v-80
			C320,203.6,316.4,200,312,200z"/>
		<path d="M232,440h-64c-4.4,0-8,3.6-8,8v8h-16v-8c0-4.4-3.6-8-8-8H80c-4.4,0-8,3.6-8,8s3.6,8,8,8h48v8c0,4.4,3.6,8,8,8
			h32c4.4,0,8-3.6,8-8v-8h56c4.4,0,8-3.6,8-8S236.4,440,232,440z"/>
		<path d="M496,104v32c0,4.4-3.6,8-8,8h-28.1c-0.9,2.4-1.8,4.7-2.9,7l19.9,19.9c3.1,3.1,3.1,8.2,0,11.3l-22.6,22.6
			c-3.1,3.1-8.2,3.1-11.3,0L423,185c-2.3,1.1-4.6,2.1-7,2.9V216c0,4.4-3.6,8-8,8h-8v248c0,4.4-3.6,8-8,8H286.5
			c-3.4,9.5-12.4,16-22.5,16H40c-13.3,0-24-10.8-24-24s10.8-24,24-24c-0.1-25.2,8.4-49.7,24-69.5V144c0-2.1,0.8-4.2,2.3-5.7l80-80
			c1.5-1.5,3.5-2.3,5.7-2.3h156.9l20.9-20.9c3.1-3.1,8.2-3.1,11.3,0L361,55c2.3-1.1,4.6-2.1,7-2.9V24c0-4.4,3.6-8,8-8h32
			c4.4,0,8,3.6,8,8v28.1c2.4,0.8,4.7,1.8,7,2.9l19.9-19.9c3.1-3.1,8.2-3.1,11.3,0l22.6,22.6c3.1,3.1,3.1,8.2,0,11.3L457,89
			c1.1,2.3,2.1,4.6,2.9,7H488C492.4,96,496,99.6,496,104z M480,128v-16h-26c-3.6,0-6.8-2.5-7.7-6c-1.3-5.1-3.3-9.9-6-14.4
			c-1.9-3.1-1.4-7.2,1.2-9.8l18.4-18.4l-11.3-11.3l-18.4,18.4c-2.6,2.6-6.6,3.1-9.8,1.2c-4.5-2.7-9.3-4.7-14.4-6
			c-3.5-0.9-6-4.1-6-7.7V32h-16v26c0,3.6-2.5,6.8-6,7.7c-5.1,1.3-9.9,3.3-14.4,6c-3.1,1.9-7.2,1.4-9.8-1.2l-18.4-18.4l-11.3,11.3
			l18.4,18.4c2.6,2.6,3.1,6.7,1.2,9.8c-2.7,4.5-4.7,9.3-6,14.4c-0.9,3.5-4.1,6-7.7,6h-26v16h26c3.6,0,6.8,2.5,7.7,6
			c1.3,5.1,3.3,9.9,6,14.4c1.9,3.2,1.4,7.2-1.2,9.8l-18.4,18.4l11.3,11.3l18.4-18.4c2.6-2.6,6.6-3.1,9.8-1.2
			c4.5,2.7,9.3,4.7,14.4,6c3.5,0.9,6,4.1,6,7.7v26h16v-26c0-3.6,2.5-6.8,6-7.7c5.1-1.3,9.9-3.3,14.4-6c3.1-1.9,7.2-1.4,9.8,1.2
			l18.4,18.4l11.3-11.4l-18.4-18.4c-2.6-2.6-3.1-6.6-1.2-9.8c2.7-4.5,4.7-9.3,6-14.4c0.9-3.5,4.1-6,7.7-6H480z M384,464V224h-8
			c-4.4,0-8-3.6-8-8v-28.1c-2.4-0.9-4.7-1.8-7-2.9l-19.9,19.9c-3.1,3.1-8.2,3.1-11.3,0l-22.6-22.6c-3.1-3.1-3.1-8.2,0-11.3L327,151
			c-1.1-2.3-2.1-4.6-2.9-7H296c-4.4,0-8-3.6-8-8v-32c0-4.4,3.6-8,8-8h28.1c0.9-2.4,1.8-4.7,2.9-7l-17-17H160v72c0,4.4-3.6,8-8,8H80
			v210.2c11.8-9.8,25.6-17.1,40.3-21.4c1.6-11.9,11.7-20.7,23.7-20.8h16c11.9,0,22,8.8,23.7,20.6c47.6,14,80.3,57.8,80.3,107.4
			c10.1,0,19.1,6.5,22.5,16H384z M272,472c0-4.4-3.6-8-8-8c0,4.4-3.6,8-8,8c-4.4,0-8-3.6-8-8v-16c0.1-40.7-25.6-76.9-64-90.4V408
			c0,4.4-3.6,8-8,8s-8-3.6-8-8v-64c0-4.4-3.6-8-8-8h-16c-4.4,0-8,3.6-8,8v64c0,4.4-3.6,8-8,8s-8-3.6-8-8v-50.5
			C81.6,371,55.9,407.3,56,448v16c0,4.4-3.6,8-8,8s-8-3.6-8-8c-4.4,0-8,3.6-8,8s3.6,8,8,8h224C268.4,480,272,476.4,272,472z
			 M144,136V83.3L91.3,136H144z"/>
		<path d="M328,344h-8v-24c0-4.4-3.6-8-8-8s-8,3.6-8,8v24h-8c-4.4,0-8,3.6-8,8v8h-32c-4.4,0-8,3.6-8,8s3.6,8,8,8h32v8
			c0,4.4,3.6,8,8,8h32c4.4,0,8-3.6,8-8v-32C336,347.6,332.4,344,328,344z M320,376h-16v-16h16V376z"/>
		<path d="M256,304h-48c-4.4,0-8-3.6-8-8v-48c0-4.4,3.6-8,8-8h48c4.4,0,8,3.6,8,8v48C264,300.4,260.4,304,256,304z
			 M216,288h32v-32h-32V288z"/>
    </symbol>

    <symbol id="what06" role="img" aria-labelledby="what06_title" viewBox="0 0 512 512">
        <title id="what06_title"></title>
        <path fill="#ffffff" d="M456,352v32h-64c-4.4,0-8,3.6-8,8s3.6,8,8,8h16v16h-56v-8c0-4.4-3.6-8-8-8s-8,3.6-8,8v40h-16c-4.4,0-8,3.6-8,8v24h-32V352
			H456z"/>
        <path fill="#ffc20d" d="M24,432v56h208v-56h-72H96H24z"/>
		<path fill="#ffc20d" d="M80,160h-8v32h24h64h24v-32h-8H80z"/>
		<path fill="#ffc20d" d="M344,208v24h144v-24h-56h-32H344z"/>
		<circle fill="#ffc20d" cx="128" cy="40" r="16"/>
		<path fill="#ffc20d" d="M440,424h24v32h-24V424z"/>
		<path fill="#ffc20d" d="M248,344h24h192h24l-120-80L248,344z"/>
		<path fill="#ffc20d" d="M416,456v32h48v-32h-24H416z"/>
		<path fill="#ffc20d" d="M392,456h-24v32h48v-32H392z"/>
		<path fill="#ffc20d" d="M416,456h24v-32h-24h-24v32H416z"/>
		<path fill="#ffc20d" d="M344,456h-24v32h48v-32H344z"/>
		<path fill="#ffc20d" d="M392,456v-32h-48v32h24H392z"/>
		<path fill="#ffc20d" d="M416,424h24h24v-32h-48V424z"/>
		<path d="M488,168c4.4,0,8-3.6,8-8V96c0-3.5-2.3-6.5-5.6-7.5C490.1,88.3,150.9,33,150.9,33
			c-3.8-12.7-17.1-19.9-29.8-16.1c-8.5,2.5-14.9,9.6-16.6,18.4c0,0-85.6,54.5-85.8,54.8C17,91.6,16,93.7,16,96v64c0,4.4,3.6,8,8,8
			c0,0,0,0,0,0h40v24c0,4.4,3.6,8,8,8h16v224H24c-4.4,0-8,3.6-8,8v56c0,4.4,3.6,8,8,8h208c4.4,0,8-3.6,8-8v-56c0-4.4-3.6-8-8-8h-64
			V200h16c4.4,0,8-3.6,8-8v-24h200v32h-48c-4.4,0-8,3.6-8,8v24c0,4.4,3.6,8,8,8h144c4.4,0,8-3.6,8-8v-24c0-4.4-3.6-8-8-8h-48v-32H488z
			 M480,152h-12l-36-48h48V152z M150.2,49.1L389.1,88H136V62.6C142.4,60.3,147.6,55.4,150.2,49.1z M160,152H96l32-42.7L160,152z
			 M128,32c4.4,0,8,3.6,8,8s-3.6,8-8,8c-4.4,0-8-3.6-8-8S123.6,32,128,32z M107.5,52.3c2.9,4.7,7.3,8.2,12.5,10.1V88H51.5L107.5,52.3z
			 M32,152v-42.7L64,152H32z M48,104h64l-32,42.7L48,104z M224,440v40H32v-40H224z M104,219.1V200h38.1L104,219.1z M152,212.9v38.1
			L113.9,232L152,212.9z M142.1,264L104,283.1v-38.1L142.1,264z M152,276.9v38.1L113.9,296L152,276.9z M142.1,328L104,347.1v-38.1
			L142.1,328z M152,340.9v38.1L113.9,360L152,340.9z M143.7,392.8L104,417.6v-44.7L143.7,392.8z M152,406.4V424h-28.1L152,406.4z
			 M176,184H80v-16h96V184z M176,146.7L144,104h64L176,146.7z M192,152l32-42.7l32,42.7H192z M240,104h64l-32,42.7L240,104z M288,152
			l32-42.7l32,42.7H288z M336,104h64l-32,42.7L336,104z M480,216v8H352v-8H480z M408,200v-32h16v32H408z M384,152l32-42.7l32,42.7H384
			z"/>
		<path d="M492.4,337.3c2.2,1.5,3.6,4,3.6,6.7c0,4.4-3.6,8-8,8h-16v136c0,4.4-3.6,8-8,8H272c-4.4,0-8-3.6-8-8V352h-16
			c-2.7,0-5.2-1.3-6.7-3.6c-2.4-3.7-1.5-8.6,2.2-11.1l120-80c2.7-1.8,6.2-1.8,8.9,0L492.4,337.3z M274.4,336h187.2L368,273.6
			L274.4,336z M456,480v-16h-32v16H456z M456,448v-16h-8v16H456z M456,416v-16h-32v16H456z M456,384v-32H280v128h32v-24
			c0-4.4,3.6-8,8-8h16v-40c0-4.4,3.6-8,8-8s8,3.6,8,8v8h56v-16h-16c-4.4,0-8-3.6-8-8s3.6-8,8-8H456z M432,448v-16h-32v16H432z
			 M408,480v-16h-32v16H408z M384,448v-16h-32v16H384z M360,480v-16h-32v16H360z"/>
    </symbol>

    <symbol id="check01" role="img" aria-labelledby="check01_title" viewBox="0 0 504.1 504.1">
        <title id="check01_title"></title>
        <path d="M480.1,144.7L256.4,365.9c-3.5,3.5-8.3,4.7-13,4.3c-4.7,0.4-9.5-0.8-13-4.3L98.9,235.5
			c-5.9-5.9-5.9-15.8,0-21.7l39.4-39c6.3-5.9,16.1-5.9,22.1,0l82.3,81.1L424.4,68.2C379.3,25.9,318.7,0,252.1,0
			C112.9,0,0,112.9,0,252.1s112.9,252.1,252.1,252.1s252.1-112.9,252.1-252.1C504.1,213.6,495.5,177.3,480.1,144.7z"/>
    </symbol>

	<symbol id="trade01" role="img" aria-labelledby="trade01_title" viewBox="0 0 512 512">
        <title id="trade01_title"></title>
        <polygon points="97.409,61.893 255.999,61.893 149.583,193.179 	"/>
		<polygon points="414.589,61.893 255.999,61.893 362.415,193.179 	"/>
		<polygon points="146.993,194.664 255.999,446.434 365.006,194.664 	"/>
		<path style="fill:#003B5C;" d="M511.985,194.034c0.017-2.515-0.654-5.029-2.054-7.225L425.782,54.76
			c-0.038-0.061-0.085-0.114-0.123-0.174c-0.032-0.048-0.054-0.1-0.086-0.146c-0.066-0.098-0.147-0.183-0.216-0.279
			c-0.202-0.281-0.411-0.555-0.63-0.816c-0.107-0.127-0.216-0.252-0.329-0.376c-0.249-0.275-0.508-0.535-0.776-0.784
			c-0.096-0.089-0.187-0.181-0.284-0.265c-0.76-0.668-1.585-1.24-2.458-1.708c-0.1-0.053-0.202-0.098-0.303-0.149
			c-0.337-0.17-0.681-0.328-1.03-0.468c-0.147-0.06-0.296-0.114-0.445-0.169c-0.328-0.118-0.66-0.222-0.995-0.315
			c-0.146-0.04-0.292-0.084-0.439-0.119c-0.472-0.113-0.948-0.206-1.429-0.267c-0.005,0-0.009-0.001-0.015-0.003
			c-0.502-0.062-1.007-0.089-1.514-0.093c-0.04,0-0.078-0.007-0.118-0.007H255.999H97.409c-4.398,0-8.511,2.179-10.981,5.818
			c-2.47,3.64-2.977,8.267-1.352,12.355l45.255,113.875H37.457l29.313-46.001c3.939-6.182,2.122-14.385-4.06-18.324
			c-6.182-3.939-14.384-2.123-18.324,4.06L2.069,186.81c-1.403,2.2-2.074,4.717-2.054,7.236c-0.162,3.486,1.033,7.031,3.626,9.761
			l242.738,255.441c0.072,0.076,0.151,0.139,0.224,0.212c0.077,0.077,0.145,0.161,0.223,0.236c0.098,0.093,0.203,0.173,0.303,0.263
			c0.161,0.145,0.321,0.287,0.487,0.422c0.183,0.15,0.37,0.291,0.559,0.429c0.17,0.125,0.34,0.248,0.515,0.364
			c0.199,0.131,0.402,0.252,0.605,0.372c0.173,0.101,0.344,0.204,0.52,0.297c0.218,0.115,0.441,0.218,0.664,0.32
			c0.17,0.078,0.338,0.159,0.511,0.23c0.24,0.098,0.484,0.18,0.729,0.264c0.162,0.056,0.322,0.117,0.487,0.165
			c0.265,0.08,0.535,0.141,0.804,0.203c0.147,0.035,0.293,0.076,0.443,0.105c0.301,0.058,0.604,0.098,0.908,0.135
			c0.121,0.015,0.242,0.038,0.362,0.05c0.425,0.041,0.851,0.064,1.277,0.064h0.001h0.001c0.425,0,0.849-0.023,1.273-0.062
			c0.119-0.012,0.239-0.036,0.358-0.05c0.303-0.037,0.605-0.076,0.905-0.134c0.15-0.029,0.297-0.07,0.446-0.105
			c0.267-0.061,0.534-0.122,0.796-0.2c0.165-0.049,0.326-0.11,0.488-0.165c0.242-0.082,0.483-0.163,0.721-0.26
			c0.174-0.07,0.344-0.153,0.515-0.23c0.22-0.101,0.439-0.2,0.656-0.315c0.178-0.093,0.35-0.196,0.524-0.297
			c0.202-0.118,0.402-0.236,0.6-0.366c0.175-0.115,0.345-0.239,0.515-0.362c0.188-0.137,0.374-0.276,0.557-0.425
			c0.165-0.134,0.324-0.273,0.483-0.415c0.1-0.089,0.206-0.169,0.304-0.261c0.08-0.076,0.149-0.159,0.226-0.238
			c0.073-0.073,0.151-0.135,0.223-0.21l122.146-127.72c5.066-5.297,4.879-13.698-0.418-18.765c-5.298-5.067-13.699-4.877-18.765,0.418
			l-73.842,77.211l79.323-183.21h94.601l-36.481,38.638c-5.033,5.33-4.791,13.73,0.539,18.761c2.564,2.422,5.84,3.622,9.108,3.622
			c3.525,0,7.042-1.395,9.653-4.161l56.933-60.299C510.965,201.045,512.15,197.509,511.985,194.034z M255.999,83.044l78.675,97.626
			h-157.35L255.999,83.044z M137.964,207.214l79.065,182.616L43.495,207.214H137.964z M417.34,90.907l57.203,89.764h-92.875
			L417.34,90.907z M395.033,75.165l-36.581,92.048l-74.611-92.048H395.033z M228.158,75.165l-74.611,92.048l-36.581-92.048H228.158z
			 M255.999,413.03l-88.797-205.094h177.595L255.999,413.03z"/>
    </symbol>

    <symbol id="trade02" role="img" aria-labelledby="trade02_title" viewBox="0 0 512 512">
        <title id="trade02_title"></title>
        <circle cx="256.008" cy="280.395" r="150.734"/>
		<path style="fill:#003B5C;" d="M217.384,227.031c16.934,0,34.015,10.657,34.015,30.22c0,31.68-45.111,42.045-45.111,55.33v1.314
			h38.25c3.649,0,6.861,4.526,6.861,9.781s-3.211,10.073-6.861,10.073h-51.973c-4.087,0-9.927-2.773-9.927-7.008v-14.161
			c0-22.92,45.987-36.06,45.987-54.6c0-4.672-2.919-10.365-11.095-10.365c-5.838,0-10.949,2.919-10.949,10.949
			c0,4.235-4.526,8.322-11.972,8.322c-5.84,0-10.219-2.629-10.219-11.826C184.391,237.249,200.742,227.031,217.384,227.031z"/>
		<path style="fill:#003B5C;" d="M293.302,311.266H259.14c-4.233,0-7.591-2.773-7.591-7.883c0-1.168,0.292-2.775,1.168-4.379
			l33.723-66.133c2.189-4.233,5.84-5.84,9.489-5.84c3.941,0,11.388,3.357,11.388,8.613c0,0.876-0.292,1.752-0.73,2.773
			l-25.839,51.827h12.554v-10.219c0-4.818,5.694-6.861,11.388-6.861s11.388,2.044,11.388,6.861v10.219h6.278
			c4.672,0,7.008,5.256,7.008,10.511c0,5.254-3.505,10.51-7.008,10.51h-6.278v15.475c0,4.673-5.694,7.008-11.388,7.008
			s-11.388-2.335-11.388-7.008v-15.474H293.302z"/>
		<path style="fill:#003B5C;" d="M473.008,265.786c-8.065,0-14.603,6.538-14.603,14.603c0,111.606-90.798,202.406-202.406,202.406
			S53.595,391.996,53.595,280.389S144.393,77.985,256.001,77.985c44.436,0,87.346,14.551,122.436,41.233l-26.546,26.546
			c-27.063-19.332-60.171-30.719-95.89-30.719c-91.17,0-165.344,74.172-165.344,165.344s74.172,165.344,165.344,165.344
			s165.344-74.172,165.344-165.344c0-37.329-12.44-71.804-33.386-99.509l80.046,21.448c1.25,0.334,2.519,0.498,3.779,0.498
			c0.055,0,0.111,0,0.166,0c8.001-0.073,14.466-6.583,14.466-14.603c0-1.647-0.273-3.232-0.775-4.708L455.946,72.689
			c-1.351-5.04-5.286-8.975-10.326-10.326c-5.042-1.351-10.418,0.091-14.107,3.779l-32.26,32.26
			c-36.911-29.081-81.727-46.203-128.649-49.154V29.206h17.717c8.065,0,14.603-6.538,14.603-14.603S296.386,0,288.32,0h-64.639
			c-8.065,0-14.603,6.538-14.603,14.603s6.538,14.603,14.603,14.603h17.717v20.046C120.466,56.815,24.389,157.584,24.389,280.389
			c0,127.71,103.9,231.612,231.612,231.612s231.612-103.9,231.612-231.612C487.611,272.324,481.073,265.786,473.008,265.786z
			 M256.001,416.527c-75.066,0-136.138-61.072-136.138-136.138s61.07-136.138,136.138-136.138s136.138,61.07,136.138,136.138
			S331.067,416.527,256.001,416.527z M434.28,104.68l16.852,62.891l-62.891-16.852L434.28,104.68z"/>
    </symbol>
  
    <symbol id="trade03" role="img" aria-labelledby="trade03_title" viewBox="0 0 512 512">
        <title id="trade03_title"></title>
        <path style="fill:#003B5C;" d="M256.001,512.001c-1.816,0-3.633-0.352-5.344-1.058c-1.955-0.804-48.404-20.076-95.599-51.396
			C89.065,415.75,55.602,371.28,55.602,327.373V71.769c0-4.779,2.433-9.231,6.457-11.811c4.024-2.577,9.085-2.935,13.428-0.94
			c13.865,6.364,28.692,9.592,44.066,9.592c40.666,0,78.205-23.78,95.631-60.583C217.505,3.126,222.442,0,227.865,0h56.27
			c5.423,0,10.361,3.126,12.681,8.027c6.359,13.429,15.311,25.183,26.604,34.932c5.866,5.064,6.517,13.924,1.454,19.789
			c-5.062,5.865-13.924,6.517-19.789,1.454c-11.978-10.339-21.873-22.468-29.497-36.14h-39.182
			c-23.494,41.954-68.418,68.607-116.852,68.607c-12.277,0-24.285-1.63-35.889-4.862v235.565
			c0,66.803,119.627,132.572,172.336,155.364c52.705-22.791,172.336-88.561,172.336-155.364V91.811
			c-11.605,3.231-23.611,4.862-35.889,4.862c-7.748,0-14.031-6.283-14.031-14.031s6.283-14.031,14.031-14.031
			c15.374,0,30.2-3.227,44.066-9.592c4.344-1.997,9.405-1.639,13.428,0.94c4.023,2.58,6.457,7.032,6.457,11.811v255.603
			c0,43.907-33.463,88.377-99.456,132.175c-47.195,31.32-93.644,50.592-95.599,51.396
			C259.634,511.649,257.817,512.001,256.001,512.001z"/>
		<path d="M256.001,413.69c-14.411-7.31-33.637-17.817-52.472-30.426
			c-44.363-29.699-56.858-51.111-57.843-56.535v-170.15c41.216-5.664,80.263-24.703,110.315-53.749
			c30.052,29.046,69.099,48.084,110.315,53.749v170.148c-0.986,5.424-13.48,26.836-57.843,56.535
			C289.638,395.874,270.413,406.382,256.001,413.69z"/>
		<path style="fill:#003B5C;"  d="M256.001,427.721c-2.176,0-4.352-0.505-6.346-1.517c-13.56-6.877-33.923-17.887-53.93-31.281
			c-43.617-29.201-61.651-53.635-63.844-65.685c-0.15-0.828-0.226-1.668-0.226-2.51V156.58c0-7.011,5.175-12.946,12.12-13.901
			c38.197-5.25,74.589-22.986,102.474-49.938c5.44-5.256,14.063-5.256,19.503,0c27.885,26.952,64.279,44.687,102.474,49.938
			c6.944,0.956,12.12,6.889,12.12,13.901v170.147c0,0.842-0.076,1.682-0.226,2.51c-2.193,12.051-20.227,36.485-63.843,65.685
			c-20.008,13.394-40.37,24.404-53.931,31.281C260.354,427.216,258.178,427.721,256.001,427.721z M159.718,324.396
			c2.854,5.837,16.472,23.68,51.619,47.209c15.955,10.68,32.236,19.795,44.665,26.301c12.429-6.506,28.71-15.621,44.666-26.301
			c35.145-23.53,48.763-41.372,51.617-47.209V168.442c-35.301-7.024-68.763-23.248-96.284-46.677
			c-27.52,23.428-60.983,39.653-96.284,46.677V324.396z"/>
		<path style="fill:#003B5C;" d="M249.868,302.227c-3.592,0-7.181-1.371-9.921-4.11l-41.06-41.06c-5.479-5.479-5.479-14.364,0-19.844
			c5.481-5.478,14.362-5.478,19.844,0l31.138,31.138l54.467-54.467c5.481-5.478,14.362-5.478,19.844,0
			c5.479,5.479,5.479,14.364,0,19.844l-64.39,64.39C257.05,300.857,253.46,302.227,249.868,302.227z"/>
    </symbol>

    <symbol id="platform01" role="img" aria-labelledby="platform01_title" viewBox="0 0 512 512">
        <title id="platform01_title"></title>
        <polygon points="497.116,299.826 497.116,421.873 318.512,421.873 271.379,360.105 318.512,299.826 	"/>
		<path d="M444.693,106.338l22.211,60.011H38.55l-3.971-10.728l133.156-49.281H76.563
			c-34.064-0.001-61.68,27.614-61.68,61.678l0,0c0,34.064,27.615,61.68,61.68,61.68h420.553V106.338H444.693z"/>
		<path style="fill:#003B5C;" d="M76.563,244.581h420.553c8.219,0,14.884-6.665,14.884-14.884V106.338
			c0-8.219-6.665-14.884-14.884-14.884h-42.063l-29.77-80.436c-1.369-3.702-4.154-6.708-7.741-8.357
			c-3.584-1.649-7.681-1.802-11.382-0.435L250.834,59.713c-7.708,2.853-11.645,11.414-8.792,19.124
			c2.853,7.711,11.414,11.642,19.124,8.792L402.533,35.31l42.99,116.157H88.688l84.214-31.168c0.454-0.168,0.893-0.36,1.322-0.567
			c0.147-0.07,0.284-0.152,0.429-0.226c0.274-0.144,0.545-0.289,0.807-0.447c0.168-0.103,0.329-0.213,0.491-0.32
			c0.223-0.149,0.445-0.298,0.659-0.457c0.167-0.124,0.327-0.253,0.488-0.383c0.196-0.159,0.39-0.323,0.577-0.493
			c0.155-0.14,0.308-0.281,0.457-0.427c0.182-0.179,0.356-0.362,0.528-0.548c0.135-0.149,0.272-0.295,0.403-0.448
			c0.176-0.207,0.341-0.421,0.506-0.637c0.109-0.143,0.222-0.281,0.324-0.429c0.191-0.269,0.365-0.549,0.537-0.831
			c0.063-0.101,0.131-0.199,0.191-0.304c0.229-0.397,0.441-0.804,0.633-1.219c0.015-0.031,0.025-0.063,0.039-0.094
			c0.173-0.381,0.33-0.771,0.47-1.167c0.046-0.128,0.08-0.259,0.122-0.388c0.098-0.302,0.192-0.604,0.269-0.912
			c0.042-0.165,0.076-0.333,0.112-0.5c0.06-0.274,0.116-0.548,0.161-0.826c0.031-0.193,0.055-0.388,0.077-0.583
			c0.03-0.253,0.055-0.506,0.071-0.761c0.015-0.217,0.024-0.433,0.03-0.65c0.006-0.237,0.003-0.475-0.003-0.713
			c-0.006-0.231-0.013-0.461-0.03-0.694c-0.016-0.232-0.045-0.464-0.071-0.698c-0.028-0.231-0.054-0.463-0.092-0.694
			c-0.009-0.058-0.013-0.115-0.022-0.171c-0.039-0.214-0.095-0.421-0.143-0.631c-0.042-0.186-0.076-0.372-0.125-0.558
			c-0.249-0.939-0.583-1.837-0.997-2.689c-0.055-0.113-0.118-0.219-0.176-0.33c-0.155-0.301-0.316-0.597-0.49-0.884
			c-0.098-0.161-0.202-0.316-0.305-0.472c-0.147-0.223-0.296-0.444-0.455-0.656c-0.127-0.173-0.259-0.339-0.393-0.505
			c-0.15-0.186-0.307-0.369-0.466-0.548c-0.147-0.165-0.296-0.329-0.451-0.487c-0.165-0.17-0.336-0.33-0.509-0.493
			c-0.158-0.147-0.314-0.296-0.478-0.435c-0.201-0.171-0.411-0.332-0.619-0.491c-0.146-0.112-0.287-0.229-0.438-0.336
			c-0.345-0.244-0.701-0.475-1.066-0.689c-0.021-0.012-0.04-0.027-0.061-0.039c-0.396-0.231-0.805-0.441-1.222-0.634
			c-0.1-0.046-0.204-0.083-0.305-0.128c-0.314-0.137-0.631-0.269-0.956-0.385c-0.153-0.055-0.311-0.1-0.466-0.149
			c-0.272-0.088-0.546-0.173-0.825-0.244c-0.196-0.051-0.394-0.092-0.592-0.134c-0.24-0.052-0.478-0.1-0.722-0.14
			c-0.234-0.037-0.467-0.067-0.704-0.094c-0.21-0.024-0.42-0.045-0.631-0.06c-0.262-0.019-0.524-0.031-0.787-0.034
			c-0.091-0.001-0.18-0.012-0.272-0.012h-91.17c-41.137,0-74.785,32.613-76.481,73.34C0.028,165.306,0,165.824,0,166.349v267.788
			c0,42.216,34.346,76.562,76.563,76.562h420.553c8.219,0,14.884-6.665,14.884-14.884v-73.942V299.826
			c0-8.219-6.665-14.884-14.884-14.884H318.512c-4.58,0-8.903,2.108-11.725,5.715l-47.132,60.278c-0.138,0.176-0.259,0.36-0.387,0.542
			c-0.094,0.131-0.194,0.26-0.283,0.396c-0.201,0.302-0.384,0.61-0.56,0.923c-0.055,0.095-0.113,0.189-0.165,0.287
			c-0.198,0.369-0.378,0.746-0.543,1.127c-0.071,0.165-0.131,0.336-0.196,0.503c-0.097,0.25-0.192,0.5-0.275,0.753
			c-0.063,0.188-0.116,0.378-0.17,0.57c-0.071,0.25-0.137,0.5-0.194,0.753c-0.043,0.186-0.083,0.374-0.119,0.564
			c-0.055,0.293-0.098,0.589-0.135,0.884c-0.019,0.153-0.043,0.302-0.058,0.457c-0.043,0.455-0.068,0.914-0.07,1.371
			c0,0.013-0.001,0.025-0.001,0.039c0,0.068,0.009,0.135,0.01,0.205c0.006,0.378,0.024,0.758,0.057,1.134
			c0.015,0.17,0.037,0.336,0.058,0.503c0.036,0.283,0.077,0.566,0.129,0.847c0.034,0.186,0.07,0.371,0.11,0.554
			c0.06,0.265,0.13,0.527,0.202,0.789c0.051,0.177,0.095,0.356,0.152,0.53c0.103,0.319,0.222,0.631,0.345,0.944
			c0.063,0.156,0.124,0.313,0.192,0.466c0.152,0.347,0.314,0.689,0.494,1.025c0.082,0.153,0.173,0.298,0.26,0.448
			c0.14,0.241,0.281,0.482,0.435,0.716c0.101,0.155,0.21,0.304,0.317,0.455c0.098,0.137,0.186,0.278,0.289,0.412l47.132,61.769
			c2.816,3.69,7.192,5.855,11.833,5.855h163.721v44.175H76.563c-25.802,0-46.796-20.992-46.796-46.794V228.552
			C42.718,238.587,58.95,244.581,76.563,244.581z M482.233,121.221v30.242h-4.968l-11.193-30.242H482.233z M76.563,121.221h8.077
			l-43.31,16.03C49.916,127.432,62.528,121.221,76.563,121.221z M38.549,181.233h428.353h15.33v33.582H76.563
			c-21.215,0-39.178-14.192-44.895-33.582L38.549,181.233L38.549,181.233z M325.876,406.989l-24.418-32.001h30.449
			c8.219,0,14.884-6.665,14.884-14.884s-6.665-14.884-14.884-14.884h-29.995l23.856-30.51h156.465v92.279H325.876z"/>
    </symbol>

    <symbol id="platform02" role="img" aria-labelledby="platform02_title" viewBox="0 0 512 512">
        <title id="platform02_title"></title>
        <path style="fill:#003B5C;" d="M340.41,225.225c-3.649,0-7.298-1.393-10.082-4.176l-40.65-40.65
			c-2.673-2.675-4.176-6.301-4.176-10.082c0-3.781,1.503-7.407,4.176-10.082L417.439,32.472c5.568-5.567,14.597-5.567,20.166,0
			c5.568,5.568,5.568,14.597,0,20.166l-117.68,117.678l20.485,20.485l34.001-34.001c5.568-5.567,14.595-5.565,20.165,0
			c5.568,5.568,5.568,14.597,0,20.166l-44.083,44.082C347.709,223.831,344.06,225.225,340.41,225.225z"/>
		<polygon points="349.852,48.611 497.713,14.275 463.376,162.136 "/>
		<path style="fill:#003B5C;" d="M463.378,176.394c-3.73,0-7.372-1.464-10.084-4.176L339.769,58.693
			c-3.662-3.663-5.05-9.024-3.626-14.003c1.424-4.981,5.437-8.796,10.483-9.968L494.487,0.384c4.795-1.115,9.826,0.325,13.308,3.807
			c3.481,3.481,4.921,8.512,3.806,13.308L477.264,165.36c-1.172,5.046-4.988,9.06-9.968,10.484
			C466.004,176.215,464.685,176.394,463.378,176.394z M378.095,56.69l77.202,77.202l23.35-100.552L378.095,56.69z"/>
		<path style="fill:#003B5C;" d="M84.45,483.706c-3.649,0-7.299-1.393-10.082-4.176c-5.568-5.568-5.568-14.597,0-20.166
			l117.68-117.678L171.561,321.2l-34.001,34.001c-5.567,5.569-14.595,5.567-20.165,0c-5.568-5.568-5.568-14.597,0-20.166
			l44.084-44.082c5.567-5.567,14.595-5.567,20.165,0l40.65,40.65c2.673,2.675,4.176,6.301,4.176,10.082
			c0,3.781-1.503,7.407-4.176,10.082L94.532,479.529C91.749,482.314,88.098,483.706,84.45,483.706z"/>
		<polygon points="162.119,463.391 14.258,497.728 48.595,349.867 "/>
		<path style="fill:#003B5C;" d="M14.258,511.986c-3.739,0-7.377-1.472-10.082-4.176c-3.481-3.481-4.921-8.512-3.806-13.308
			l34.336-147.861c1.172-5.046,4.988-9.06,9.968-10.484c4.982-1.423,10.342-0.034,14.003,3.626l113.525,113.525
			c3.662,3.663,5.05,9.024,3.626,14.003c-1.424,4.981-5.437,8.796-10.483,9.968L17.484,511.617
			C16.414,511.865,15.332,511.986,14.258,511.986z M56.674,378.112l-23.35,100.552l100.552-23.35L56.674,378.112z"/>
		<path style="fill:#003B5C;" d="M469.432,441.796c-3.65,0-7.298-1.393-10.082-4.176L341.671,319.942l-20.485,20.484l34,34
			c5.568,5.568,5.568,14.597,0,20.166c-5.568,5.567-14.597,5.567-20.166,0l-44.082-44.082c-2.673-2.675-4.176-6.301-4.176-10.082
			c0-3.781,1.503-7.407,4.176-10.082l40.65-40.65c5.568-5.567,14.597-5.565,20.165,0l127.76,127.762
			c5.568,5.568,5.568,14.597,0,20.166C476.73,440.403,473.081,441.796,469.432,441.796z"/>
		<polygon points="463.376,349.867 497.713,497.728 349.852,463.391 "/>
		<path style="fill:#003B5C;" d="M497.713,511.986c-1.074,0-2.156-0.121-3.225-0.369l-147.861-34.336
			c-5.046-1.172-9.059-4.988-10.483-9.968c-1.424-4.979-0.036-10.34,3.626-14.003l113.525-113.525
			c3.663-3.66,9.026-5.048,14.003-3.626c4.981,1.424,8.796,5.437,9.968,10.484l34.124,146.944c0.398,1.312,0.612,2.702,0.612,4.142
			c0,7.832-6.317,14.19-14.135,14.259C497.815,511.986,497.762,511.986,497.713,511.986z M378.095,455.312l100.552,23.35
			l-23.35-100.552L378.095,455.312z"/>
		<path style="fill:#003B5C;" d="M170.299,226.485c-3.65,0-7.298-1.392-10.082-4.176L32.457,94.55
			c-5.568-5.568-5.568-14.597,0-20.166c5.568-5.567,14.597-5.567,20.166,0l117.678,117.678l20.485-20.485l-34-34
			c-5.568-5.568-5.568-14.597,0-20.166c5.568-5.567,14.597-5.567,20.166,0l44.082,44.082c2.673,2.675,4.176,6.301,4.176,10.082
			s-1.503,7.407-4.176,10.082l-40.65,40.65C177.598,225.092,173.948,226.485,170.299,226.485z"/>
		<polygon points="48.595,162.136 14.258,14.275 162.119,48.611 "/>
		<path style="fill:#003B5C;" d="M48.593,176.394c-1.308,0-2.626-0.18-3.92-0.55c-4.981-1.424-8.796-5.437-9.968-10.484L0.37,17.499
			c-1.114-4.795,0.325-9.827,3.806-13.308c3.482-3.481,8.514-4.918,13.308-3.807L165.345,34.72c5.046,1.172,9.059,4.988,10.483,9.968
			c1.424,4.979,0.036,10.34-3.626,14.003L58.677,172.217C55.966,174.93,52.323,176.394,48.593,176.394z M33.324,33.34l23.35,100.552
			l77.202-77.202L33.324,33.34z"/>
    </symbol>

    <symbol id="platform03" role="img" aria-labelledby="platform03_title" viewBox="0 0 512 512">
        <title id="platform03_title"></title>
        <path style="fill:#003B5C;" d="M185.575,232.902H46.944C21.059,232.902,0,211.843,0,185.958V47.328
			C0,21.443,21.059,0.384,46.944,0.384h138.631c25.884,0,46.944,21.059,46.944,46.944v138.631
			C232.519,211.843,211.459,232.902,185.575,232.902z M46.944,30.061c-9.522,0-17.267,7.746-17.267,17.267v138.631
			c0,9.522,7.746,17.267,17.267,17.267h138.631c9.522,0,17.267-7.746,17.267-17.267V47.328c0-9.522-7.746-17.267-17.267-17.267
			C185.575,30.061,46.944,30.061,46.944,30.061z"/>
		<path style="fill:#003B5C;" d="M116.26,175.317c-8.195,0-14.838-6.645-14.838-14.838V72.806c0-8.194,6.643-14.838,14.838-14.838
			s14.838,6.645,14.838,14.838v87.674C131.098,168.674,124.455,175.317,116.26,175.317z"/>
		<path style="fill:#003B5C;" d="M160.096,131.481H72.423c-8.195,0-14.838-6.645-14.838-14.838s6.643-14.838,14.838-14.838h87.672
			c8.195,0,14.838,6.645,14.838,14.838S168.292,131.481,160.096,131.481z"/>
		<path d="M465.056,218.064H326.425c-17.732,0-32.106-14.374-32.106-32.106V47.327
			c0-17.732,14.374-32.106,32.106-32.106h138.631c17.732,0,32.106,14.374,32.106,32.106v138.631
			C497.162,203.69,482.788,218.064,465.056,218.064z"/>
		<path style="fill:#003B5C;" d="M465.056,232.902H326.425c-25.884,0-46.944-21.059-46.944-46.944V47.328
			c0-25.884,21.059-46.944,46.944-46.944h138.631C490.94,0.384,512,21.443,512,47.328v138.631
			C512,211.843,490.94,232.902,465.056,232.902z M326.425,30.061c-9.522,0-17.267,7.746-17.267,17.267v138.631
			c0,9.522,7.746,17.267,17.267,17.267h138.631c9.522,0,17.267-7.746,17.267-17.267V47.328c0-9.522-7.746-17.267-17.267-17.267
			C465.056,30.061,326.425,30.061,326.425,30.061z"/>
		<path style="fill:#003B5C;" d="M439.577,131.481h-87.672c-8.195,0-14.838-6.645-14.838-14.838s6.643-14.838,14.838-14.838h87.672
			c8.195,0,14.838,6.645,14.838,14.838S447.772,131.481,439.577,131.481z"/>
		<path d="M185.575,496.777H46.944c-17.732,0-32.106-14.374-32.106-32.106V326.04
			c0-17.732,14.374-32.106,32.106-32.106h138.631c17.732,0,32.106,14.374,32.106,32.106v138.631
			C217.681,482.403,203.307,496.777,185.575,496.777z"/>
		<path style="fill:#003B5C;" d="M185.575,511.616H46.944C21.059,511.616,0,490.557,0,464.672V326.04
			c0-25.884,21.059-46.944,46.944-46.944h138.631c25.884,0,46.944,21.059,46.944,46.944v138.631
			C232.519,490.557,211.459,511.616,185.575,511.616z M46.944,308.775c-9.522,0-17.267,7.746-17.267,17.267v138.631
			c0,9.522,7.746,17.267,17.267,17.267h138.631c9.522,0,17.267-7.746,17.267-17.267V326.042c0-9.522-7.746-17.267-17.267-17.267
			H46.944L46.944,308.775z"/>
		<path style="fill:#003B5C;" d="M85.262,441.192c-3.799,0-7.594-1.45-10.492-4.346c-5.794-5.794-5.794-15.19,0-20.986l61.994-61.993
			c5.794-5.793,15.188-5.791,20.984,0c5.794,5.794,5.794,15.19,0,20.986l-61.994,61.993
			C92.858,439.742,89.059,441.192,85.262,441.192z"/>
		<path style="fill:#003B5C;" d="M147.257,441.192c-3.797,0-7.594-1.45-10.492-4.346L74.77,374.853
			c-5.794-5.794-5.796-15.19,0-20.986c5.794-5.793,15.19-5.793,20.984,0l61.994,61.993c5.794,5.794,5.796,15.19,0,20.986
			C154.851,439.742,151.054,441.192,147.257,441.192z"/>
		<path style="fill:#003B5C;" d="M465.056,511.616H326.425c-25.884,0-46.944-21.059-46.944-46.944V326.04
			c0-25.884,21.059-46.944,46.944-46.944h138.631c25.884,0,46.944,21.059,46.944,46.944v52.127c0,8.194-6.643,14.838-14.838,14.838
			s-14.838-6.645-14.838-14.838V326.04c0-9.522-7.746-17.267-17.267-17.267H326.425c-9.522,0-17.267,7.746-17.267,17.267v138.631
			c0,9.522,7.746,17.267,17.267,17.267h138.631c9.522,0,17.267-7.746,17.267-17.267v-16.775c0-8.194,6.643-14.838,14.838-14.838
			S512,439.703,512,447.897v16.775C512,490.557,490.94,511.616,465.056,511.616z"/>
		<path style="fill:#003B5C;" d="M439.577,383.359h-87.672c-8.195,0-14.838-6.645-14.838-14.838s6.643-14.838,14.838-14.838h87.672
			c8.195,0,14.838,6.645,14.838,14.838S447.772,383.359,439.577,383.359z"/>
		<path style="fill:#003B5C;" d="M439.577,437.028h-87.672c-8.195,0-14.838-6.645-14.838-14.838c0-8.194,6.643-14.838,14.838-14.838
			h87.672c8.195,0,14.838,6.645,14.838,14.838C454.415,430.383,447.772,437.028,439.577,437.028z"/>
    </symbol>

    <symbol id="platform04" role="img" aria-labelledby="platform04_title" viewBox="0 0 512 512">
        <title id="platform04_title"></title>
        <polygon points="97.409,61.893 255.999,61.893 149.583,193.179 	"/>
		<polygon points="414.589,61.893 255.999,61.893 362.415,193.179 	"/>
		<polygon points="146.993,194.664 255.999,446.434 365.006,194.664 	"/>
		<path style="fill:#003B5C;" d="M511.985,194.034c0.017-2.515-0.654-5.029-2.054-7.225L425.782,54.76
			c-0.038-0.061-0.085-0.114-0.123-0.174c-0.032-0.048-0.054-0.1-0.086-0.146c-0.066-0.098-0.147-0.183-0.216-0.279
			c-0.202-0.281-0.411-0.555-0.63-0.816c-0.107-0.127-0.216-0.252-0.329-0.376c-0.249-0.275-0.508-0.535-0.776-0.784
			c-0.096-0.089-0.187-0.181-0.284-0.265c-0.76-0.668-1.585-1.24-2.458-1.708c-0.1-0.053-0.202-0.098-0.303-0.149
			c-0.337-0.17-0.681-0.328-1.03-0.468c-0.147-0.06-0.296-0.114-0.445-0.169c-0.328-0.118-0.66-0.222-0.995-0.315
			c-0.146-0.04-0.292-0.084-0.439-0.119c-0.472-0.113-0.948-0.206-1.429-0.267c-0.005,0-0.009-0.001-0.015-0.003
			c-0.502-0.062-1.007-0.089-1.514-0.093c-0.04,0-0.078-0.007-0.118-0.007H255.999H97.409c-4.398,0-8.511,2.179-10.981,5.818
			c-2.47,3.64-2.977,8.267-1.352,12.355l45.255,113.875H37.457l29.313-46.001c3.939-6.182,2.122-14.385-4.06-18.324
			c-6.182-3.939-14.384-2.123-18.324,4.06L2.069,186.81c-1.403,2.2-2.074,4.717-2.054,7.236c-0.162,3.486,1.033,7.031,3.626,9.761
			l242.738,255.441c0.072,0.076,0.151,0.139,0.224,0.212c0.077,0.077,0.145,0.161,0.223,0.236c0.098,0.093,0.203,0.173,0.303,0.263
			c0.161,0.145,0.321,0.287,0.487,0.422c0.183,0.15,0.37,0.291,0.559,0.429c0.17,0.125,0.34,0.248,0.515,0.364
			c0.199,0.131,0.402,0.252,0.605,0.372c0.173,0.101,0.344,0.204,0.52,0.297c0.218,0.115,0.441,0.218,0.664,0.32
			c0.17,0.078,0.338,0.159,0.511,0.23c0.24,0.098,0.484,0.18,0.729,0.264c0.162,0.056,0.322,0.117,0.487,0.165
			c0.265,0.08,0.535,0.141,0.804,0.203c0.147,0.035,0.293,0.076,0.443,0.105c0.301,0.058,0.604,0.098,0.908,0.135
			c0.121,0.015,0.242,0.038,0.362,0.05c0.425,0.041,0.851,0.064,1.277,0.064h0.001h0.001c0.425,0,0.849-0.023,1.273-0.062
			c0.119-0.012,0.239-0.036,0.358-0.05c0.303-0.037,0.605-0.076,0.905-0.134c0.15-0.029,0.297-0.07,0.446-0.105
			c0.267-0.061,0.534-0.122,0.796-0.2c0.165-0.049,0.326-0.11,0.488-0.165c0.242-0.082,0.483-0.163,0.721-0.26
			c0.174-0.07,0.344-0.153,0.515-0.23c0.22-0.101,0.439-0.2,0.656-0.315c0.178-0.093,0.35-0.196,0.524-0.297
			c0.202-0.118,0.402-0.236,0.6-0.366c0.175-0.115,0.345-0.239,0.515-0.362c0.188-0.137,0.374-0.276,0.557-0.425
			c0.165-0.134,0.324-0.273,0.483-0.415c0.1-0.089,0.206-0.169,0.304-0.261c0.08-0.076,0.149-0.159,0.226-0.238
			c0.073-0.073,0.151-0.135,0.223-0.21l122.146-127.72c5.066-5.297,4.879-13.698-0.418-18.765c-5.298-5.067-13.699-4.877-18.765,0.418
			l-73.842,77.211l79.323-183.21h94.601l-36.481,38.638c-5.033,5.33-4.791,13.73,0.539,18.761c2.564,2.422,5.84,3.622,9.108,3.622
			c3.525,0,7.042-1.395,9.653-4.161l56.933-60.299C510.965,201.045,512.15,197.509,511.985,194.034z M255.999,83.044l78.675,97.626
			h-157.35L255.999,83.044z M137.964,207.214l79.065,182.616L43.495,207.214H137.964z M417.34,90.907l57.203,89.764h-92.875
			L417.34,90.907z M395.033,75.165l-36.581,92.048l-74.611-92.048H395.033z M228.158,75.165l-74.611,92.048l-36.581-92.048H228.158z
			 M255.999,413.03l-88.797-205.094h177.595L255.999,413.03z"/>
    </symbol>

    <symbol id="platform05" role="img" aria-labelledby="platform05_title" viewBox="0 0 512 512">
        <title id="platform05_title"></title>
        <path d="M290.221,456.964c-14.872-8.103-24.126-23.685-24.126-40.622V285.623
			c8.349,3.521,17.523,5.47,27.153,5.47c19.592,0,37.292-8.063,49.983-21.048c-18.339-25.213-48.055-41.618-81.618-41.618h-25.059
			h-60.478h-25.059c-55.714,0-100.88,45.165-100.88,100.88v167.85h312.353v-0.81L290.221,456.964z"/>
		<path style="fill:#003B5C;" d="M461.862,270.781c-8.198,0-14.843,6.645-14.843,14.843v130.719c0,11.509-6.279,22.079-16.386,27.588
			l-66.655,36.32l-66.654-36.32c-10.107-5.507-16.386-16.078-16.386-27.588V305.053c4.051,0.589,8.158,0.885,12.31,0.885
			c1.259,0,2.513-0.039,3.763-0.094c0.328-0.015,0.658-0.028,0.984-0.046c1.128-0.062,2.252-0.142,3.369-0.249
			c0.534-0.05,1.064-0.117,1.596-0.177c0.549-0.064,1.098-0.131,1.645-0.205c15.087-2.005,29.195-7.996,41.132-17.463
			c0.364-0.286,0.727-0.573,1.087-0.867c0.429-0.352,0.856-0.705,1.279-1.066c0.855-0.726,1.697-1.467,2.523-2.226
			c0.138-0.126,0.272-0.257,0.408-0.384c0.948-0.883,1.878-1.787,2.786-2.713c0.009-0.009,0.016-0.016,0.025-0.025
			c0.001-0.001,0.004-0.004,0.006-0.006c3.743-3.827,7.146-8.021,10.138-12.552c7.169,10.807,16.809,19.988,28.021,26.541
			c7.077,4.137,16.169,1.752,20.304-5.326c4.137-7.077,1.752-16.169-5.326-20.304c-9.976-5.83-18.035-14.851-22.691-25.401
			c-2.373-5.379-7.699-8.85-13.579-8.85h-13.485c-5.879,0-11.205,3.47-13.579,8.85c-0.445,1.011-0.94,1.989-1.44,2.963
			c-12.869-12.47-28.449-21.765-45.388-27.206c16.754-15.949,27.227-38.438,27.227-63.341V87.501c0-8.198-6.645-14.843-14.843-14.843
			s-14.843,6.645-14.843,14.843v68.287c0,31.63-25.535,57.395-57.071,57.795h-61.963c-31.536-0.401-57.071-26.166-57.071-57.795
			V87.501c0-31.879,25.936-57.815,57.815-57.815h60.478c8.198,0,14.843-6.645,14.843-14.843S244.753,0,236.555,0h-60.478
			c-48.248,0-87.501,39.253-87.501,87.501v68.287c0,24.883,10.459,47.358,27.19,63.305c-46.621,14.947-80.47,58.693-80.47,110.213
			v167.85c0,8.198,6.645,14.843,14.843,14.843h312.353c0.278,0,0.549-0.027,0.824-0.042c0.221,0.01,0.441,0.042,0.662,0.042
			c2.443,0,4.888-0.603,7.103-1.809l73.757-40.191c19.657-10.711,31.867-31.27,31.867-53.654V285.626
			C476.706,277.426,470.06,270.781,461.862,270.781z M64.984,482.313V329.307c0-47.441,38.596-86.036,86.036-86.036h24.315
			c0.248,0.001,0.494,0.019,0.742,0.019h15.395v144.167c0,8.198,6.645,14.843,14.843,14.843s14.843-6.645,14.843-14.843V243.29h15.395
			c0.249,0,0.494-0.016,0.742-0.019h24.315c22.688,0,44.419,9.089,60.403,24.818c-6.228,3.821-13.205,6.435-20.58,7.545
			c-0.049,0.007-0.096,0.018-0.147,0.025c-1.149,0.169-2.31,0.288-3.475,0.384c-0.189,0.015-0.374,0.045-0.563,0.058
			c-1.238,0.091-2.485,0.132-3.738,0.138c-0.089,0-0.178,0.009-0.267,0.009c-7.422,0-14.616-1.447-21.383-4.302
			c-4.582-1.934-9.829-1.443-13.976,1.308c-4.144,2.75-6.636,7.393-6.636,12.369v130.719c0,6.996,1.192,13.812,3.432,20.206
			c4.927,14.067,14.921,26.086,28.435,33.449l22.599,12.314H64.984V482.313z"/>
		<polyline points="337.64,377.225 362.494,391.08 404.435,353.972 "/>
		<path style="fill:#003B5C;" d="M362.489,405.924c-2.474,0-4.961-0.617-7.223-1.878l-24.854-13.853
			c-7.16-3.991-9.73-13.032-5.738-20.193c3.991-7.162,13.031-9.731,20.193-5.738l15.669,8.734l34.064-30.139
			c6.138-5.434,15.52-4.86,20.953,1.281c5.433,6.139,4.858,15.52-1.281,20.953l-41.941,37.108
			C369.55,404.656,366.035,405.924,362.489,405.924z"/>
    </symbol>

    <symbol id="platform06" role="img" aria-labelledby="platform06_title" viewBox="0 0 512 512">
        <title id="platform06_title"></title>
        <path d="M484.829,271.361v-94.957c0-22.328-18.099-40.427-40.427-40.427H67.597
			c-22.328,0-40.427,18.099-40.427,40.427v94.957H484.829z"/>
		<path style="fill:#003B5C;" d="M484.829,286.617H27.171c-8.426,0-15.255-6.83-15.255-15.255v-94.957
			c0-30.703,24.979-55.682,55.682-55.682h376.805c30.703,0,55.682,24.979,55.682,55.682v94.957
			C500.085,279.787,493.255,286.617,484.829,286.617z M42.426,256.106h427.148v-79.702c0-13.879-11.292-25.171-25.171-25.171H67.597
			c-13.879,0-25.171,11.292-25.171,25.171V256.106z"/>
		<path style="fill:#003B5C;" d="M444.403,512H67.597c-30.703,0-55.682-24.979-55.682-55.682V330.856
			c0-8.426,6.83-15.255,15.255-15.255h250.187c8.426,0,15.255,6.83,15.255,15.255c0,8.426-6.83,15.255-15.255,15.255H42.426v110.206
			c0,13.879,11.292,25.171,25.171,25.171h376.805c13.879,0,25.171-11.292,25.171-25.171V330.856c0-8.426,6.83-15.255,15.255-15.255
			s15.255,6.83,15.255,15.255v125.462C500.085,487.021,475.106,512,444.403,512z"/>
		<path d="M139.189,364.317h-16.52c-15.263,0-27.635-12.374-27.635-27.635v-98.12h71.792v98.12
			C166.825,351.943,154.452,364.317,139.189,364.317z"/>
		<path style="fill:#003B5C;" d="M139.189,379.573h-16.52c-23.65,0-42.892-19.24-42.892-42.891v-98.12
			c0-8.426,6.83-15.255,15.255-15.255h71.792c8.426,0,15.255,6.83,15.255,15.255v98.12C182.08,360.331,162.84,379.573,139.189,379.573
			z M110.288,253.816v82.864c0,6.827,5.554,12.38,12.381,12.38h16.52c6.827,0,12.38-5.554,12.38-12.38v-82.864L110.288,253.816
			L110.288,253.816z"/>
		<path d="M389.329,364.317h-16.52c-15.263,0-27.635-12.374-27.635-27.635v-98.12h71.792v98.12
			C416.966,351.943,404.592,364.317,389.329,364.317z"/>
		<path style="fill:#003B5C;" d="M389.329,379.573h-16.52c-23.65,0-42.891-19.24-42.891-42.891v-98.12
			c0-8.426,6.83-15.255,15.255-15.255h71.792c8.426,0,15.255,6.83,15.255,15.255v98.12
			C432.221,360.331,412.98,379.573,389.329,379.573z M360.429,253.816v82.864c0,6.827,5.555,12.38,12.38,12.38h16.52
			c6.827,0,12.381-5.554,12.381-12.38v-82.864L360.429,253.816L360.429,253.816z"/>
		<path style="fill:#003B5C;" d="M339.905,85.43c-8.426,0-15.255-6.83-15.255-15.255v-22.12c0-9.673-7.87-17.544-17.544-17.544
			H204.894c-9.673,0-17.544,7.87-17.544,17.544v22.12c0,8.426-6.83,15.255-15.255,15.255c-8.426,0-15.255-6.83-15.255-15.255v-22.12
			C156.84,21.557,178.397,0,204.894,0h102.211c26.497,0,48.055,21.557,48.055,48.054v22.12C355.16,78.599,348.33,85.43,339.905,85.43
			z"/>
    </symbol>

    <symbol id="process01" role="img" aria-labelledby="process01_title" viewBox="0 0 512 512">
		<title id="process01_title"></title>
		<path d="M342.64,209.773c0-6.785-0.779-13.381-2.257-19.717l18.627-15.133l-21.325-36.942l-22.442,8.578
			c-9.587-8.989-21.22-15.819-34.123-19.723l-3.794-23.701h-42.654l-3.79,23.701c-12.908,3.903-24.542,10.734-34.127,19.723
			l-22.436-8.578l-21.329,36.94l18.626,15.133c-1.471,6.336-2.256,12.932-2.256,19.717c0,6.779,0.785,13.381,2.256,19.713
			l-18.626,15.133l21.329,36.939l22.438-8.578c9.587,8.993,21.22,15.825,34.127,19.727l3.79,23.695h42.654l3.794-23.695
			c12.903-3.903,24.538-10.734,34.123-19.727l22.442,8.578l21.325-36.939l-18.627-15.133
			C341.861,223.154,342.64,216.553,342.64,209.773z M255.999,243.107c-18.411,0-33.336-14.925-33.336-33.336
			s14.925-33.336,33.336-33.336s33.336,14.925,33.336,33.336S274.41,243.107,255.999,243.107z"/>
		<path style="fill:#003B5C;" d="M277.327,330.838h-42.654c-7.091,0-13.133-5.151-14.253-12.153l-2.439-15.249
			c-8.596-3.501-16.725-8.202-24.069-13.915l-14.442,5.521c-6.623,2.533-14.106-0.123-17.652-6.264l-21.329-36.939
			c-3.546-6.141-2.104-13.948,3.398-18.42l11.993-9.744c-0.634-4.601-0.954-9.252-0.954-13.901c0-4.65,0.32-9.301,0.955-13.903
			l-11.994-9.744c-5.503-4.471-6.944-12.278-3.398-18.418l21.329-36.94c3.548-6.141,11.03-8.796,17.652-6.265l14.445,5.521
			c7.342-5.711,15.472-10.411,24.066-13.911l2.439-15.254c1.12-7.003,7.16-12.154,14.253-12.154h42.654
			c7.091,0,13.131,5.15,14.253,12.151l2.442,15.257c8.594,3.5,16.721,8.199,24.063,13.911l14.449-5.522
			c6.625-2.53,14.107,0.124,17.652,6.267l21.325,36.94c3.545,6.141,2.104,13.947-3.399,18.418l-11.991,9.742
			c0.634,4.596,0.953,9.246,0.953,13.906c0,4.66-0.319,9.309-0.953,13.902l11.991,9.742c5.503,4.471,6.944,12.277,3.399,18.418
			l-21.325,36.939c-3.546,6.141-11.027,8.796-17.652,6.267l-14.448-5.522c-7.341,5.713-15.471,10.414-24.066,13.916l-2.442,15.252
			C290.457,325.688,284.417,330.838,277.327,330.838z M246.98,301.971h18.041l1.849-11.544c0.873-5.456,4.783-9.933,10.073-11.534
			c10.529-3.185,20.358-8.871,28.428-16.439c4.03-3.781,9.864-4.927,15.028-2.956l10.945,4.183l9.018-15.621l-9.076-7.372
			c-4.285-3.481-6.209-9.103-4.955-14.481c1.247-5.345,1.879-10.874,1.879-16.434c0-5.56-0.632-11.09-1.879-16.441
			c-1.254-5.376,0.67-10.998,4.955-14.479l9.076-7.372l-9.018-15.622l-10.945,4.183c-5.16,1.97-10.994,0.826-15.025-2.953
			c-8.071-7.569-17.903-13.253-28.429-16.437c-5.288-1.599-9.2-6.078-10.073-11.534l-1.849-11.549h-18.04l-1.846,11.547
			c-0.872,5.457-4.785,9.937-10.074,11.536c-10.529,3.184-20.361,8.868-28.432,16.435c-4.03,3.78-9.862,4.927-15.026,2.953
			l-10.94-4.181l-9.021,15.622l9.074,7.372c4.281,3.478,6.205,9.091,4.959,14.464c-1.248,5.381-1.882,10.917-1.882,16.455
			s0.632,11.072,1.881,16.448c1.247,5.373-0.677,10.988-4.958,14.466l-9.074,7.372l9.021,15.621l10.94-4.181
			c5.16-1.972,11-0.827,15.029,2.956c8.067,7.569,17.899,13.253,28.43,16.438c5.29,1.599,9.201,6.079,10.073,11.535L246.98,301.971z
			 M255.999,257.541c-26.341,0-47.77-21.43-47.77-47.771s21.429-47.77,47.77-47.77s47.77,21.429,47.77,47.77
			S282.34,257.541,255.999,257.541z M255.999,190.867c-10.424,0-18.903,8.48-18.903,18.903s8.479,18.905,18.903,18.905
			c10.424,0,18.903-8.48,18.903-18.905C274.902,199.347,266.423,190.867,255.999,190.867z"/>
		<path style="fill:#003B5C;" d="M255.999,471.707c-7.971,0-14.433-6.462-14.433-14.433v-69.952c0-7.971,6.462-14.433,14.433-14.433
			c7.971,0,14.433,6.462,14.433,14.433v69.952C270.432,465.245,263.971,471.707,255.999,471.707z"/>
		<path style="fill:#003B5C;" d="M189.724,442.773c-7.971,0-14.433-6.462-14.433-14.433V395.14
			c-35.021-14.914-65.042-39.11-87.26-70.44c-24.741-34.885-37.818-76.005-37.818-118.914C50.212,92.316,142.527,0,255.999,0
			s205.788,92.316,205.788,205.788c0,70.532-35.511,135.369-94.992,173.438c-6.711,4.297-15.638,2.338-19.937-4.376
			c-4.297-6.714-2.338-15.64,4.376-19.937c51.148-32.737,81.686-88.486,81.686-149.125c0-97.555-79.367-176.922-176.922-176.922
			S79.079,108.233,79.079,205.788c0,73.762,46.473,140.481,115.644,166.021c5.669,2.093,9.434,7.497,9.434,13.54v42.992
			C204.157,436.311,197.695,442.773,189.724,442.773z"/>
		<path d="M189.724,424.678v28.52c0,16.532,13.401,29.934,29.934,29.934h72.686
			c16.532,0,29.934-13.401,29.934-29.934v-28.52H189.724z"/>
		<path style="fill:#003B5C;" d="M292.342,497.565h-72.684c-24.464,0-44.368-19.903-44.368-44.368v-28.52
			c0-7.971,6.462-14.433,14.433-14.433h132.553c7.971,0,14.433,6.462,14.433,14.433v28.52
			C336.71,477.663,316.806,497.565,292.342,497.565z M204.157,439.111v14.087c0,8.547,6.954,15.501,15.501,15.501h72.684
			c8.547,0,15.501-6.954,15.501-15.501v-14.087H204.157z"/>
		<path style="fill:#003B5C;" d="M287.031,512h-62.063c-7.971,0-14.433-6.462-14.433-14.433c0-7.971,6.462-14.433,14.433-14.433
			h62.063c7.971,0,14.433,6.462,14.433,14.433C301.464,505.538,295.002,512,287.031,512z"/>
    </symbol>

    <symbol id="process02" role="img" aria-labelledby="process02_title" viewBox="0 0 512 512">
		<title id="process02_title"></title>
		<polygon points="61.694,97.625 147.112,97.625 147.112,14.781 "/>
		<path style="fill:#003B5C;" d="M147.112,112.404H61.694c-6.018,0-11.436-3.65-13.697-9.228c-2.261-5.578-0.913-11.969,3.408-16.159
			l85.419-82.846c4.261-4.134,10.582-5.316,16.048-3.002c5.467,2.314,9.02,7.675,9.02,13.61v82.846
			C161.891,105.787,155.273,112.404,147.112,112.404z M98.159,82.846h34.175V49.702L98.159,82.846z"/>
		<path style="fill:#003B5C;" d="M450.308,319.952c-8.161,0-14.779-6.616-14.779-14.779V36.133c0-3.625-3.247-6.574-7.237-6.574
			H215.658c-8.161,0-14.779-6.616-14.779-14.779s6.618-14.779,14.779-14.779h212.634c20.29,0,36.795,16.208,36.795,36.131v269.04
			C465.087,313.336,458.47,319.952,450.308,319.952z"/>
		<path style="fill:#003B5C;" d="M428.292,512H83.711c-20.29,0-36.795-16.208-36.795-36.131V97.625c0-3.998,1.62-7.825,4.49-10.608
			l85.417-82.846c5.858-5.682,15.213-5.541,20.899,0.319c5.682,5.858,5.539,15.215-0.321,20.897l-80.929,78.49v371.99
			c0,3.625,3.247,6.574,7.237,6.574h344.582c3.99,0,7.237-2.95,7.237-6.574v-92.663c0-8.162,6.618-14.779,14.779-14.779
			s14.779,6.617,14.779,14.779v92.663C465.087,495.792,448.58,512,428.292,512z"/>
		<path style="fill:#003B5C;" d="M450.308,112.404h-234.65c-8.161,0-14.779-6.616-14.779-14.779s6.618-14.779,14.779-14.779h219.871
			V39.853c0-5.677-4.617-10.293-10.293-10.293H215.657c-8.161,0-14.779-6.616-14.779-14.779s6.618-14.779,14.779-14.779h209.579
			c21.973,0,39.851,17.878,39.851,39.851v57.772C465.087,105.787,458.47,112.404,450.308,112.404z"/>
		<rect x="119.902" y="189.569" width="124.142" height="65.025"/>
		<path style="fill:#003B5C;" d="M244.047,269.367H119.9c-8.161,0-14.779-6.616-14.779-14.779v-65.025
			c0-8.162,6.618-14.779,14.779-14.779h124.147c8.161,0,14.779,6.616,14.779,14.779v65.025
			C258.826,262.751,252.208,269.367,244.047,269.367z M134.679,239.809h94.589v-35.468h-94.589V239.809z"/>
		<path style="fill:#003B5C;" d="M335.67,265.069L335.67,265.069c-3.919,0-7.679-1.558-10.45-4.329l-23.645-23.646
			c-5.771-5.771-5.771-15.129,0-20.9c5.774-5.771,15.129-5.771,20.902,0l13.195,13.196l45.981-45.981
			c5.774-5.77,15.129-5.771,20.902,0c5.771,5.771,5.771,15.129,0,20.9l-56.433,56.432
			C343.347,263.513,339.589,265.069,335.67,265.069z"/>
		<rect x="119.902" y="346.151" width="124.142" height="65.025"/>
		<path style="fill:#003B5C;" d="M244.047,425.955H119.9c-8.161,0-14.779-6.616-14.779-14.779v-65.025
			c0-8.162,6.618-14.779,14.779-14.779h124.147c8.161,0,14.779,6.617,14.779,14.779v65.025
			C258.826,419.339,252.208,425.955,244.047,425.955z M134.679,396.397h94.589V360.93h-94.589V396.397z"/>
		<path style="fill:#003B5C;" d="M335.67,421.659L335.67,421.659c-3.919,0-7.679-1.558-10.45-4.329l-23.645-23.646
			c-5.771-5.771-5.771-15.129,0-20.9c5.774-5.771,15.129-5.771,20.902,0l13.195,13.195l45.981-45.981
			c5.774-5.771,15.129-5.77,20.902,0c5.771,5.771,5.771,15.129,0,20.9l-56.433,56.432
			C343.347,420.101,339.589,421.659,335.67,421.659z"/>
    </symbol>

    <symbol id="process03" role="img" aria-labelledby="process03_title" viewBox="0 0 512 512">
		<title id="process03_title"></title>
		<path style="fill:#003B5C;" d="M256.001,512.001c-1.816,0-3.633-0.352-5.344-1.058c-1.955-0.804-48.404-20.076-95.599-51.396
			C89.065,415.75,55.602,371.28,55.602,327.373V71.769c0-4.779,2.433-9.231,6.457-11.811c4.024-2.577,9.085-2.935,13.428-0.94
			c13.865,6.364,28.692,9.592,44.066,9.592c40.666,0,78.205-23.78,95.631-60.583C217.505,3.126,222.442,0,227.865,0h56.27
			c5.423,0,10.361,3.126,12.681,8.027c6.359,13.429,15.311,25.183,26.604,34.932c5.866,5.064,6.517,13.924,1.454,19.789
			c-5.062,5.865-13.924,6.517-19.789,1.454c-11.978-10.339-21.873-22.468-29.497-36.14h-39.182
			c-23.494,41.954-68.418,68.607-116.852,68.607c-12.277,0-24.285-1.63-35.889-4.862v235.565
			c0,66.803,119.627,132.572,172.336,155.364c52.705-22.791,172.336-88.561,172.336-155.364V91.811
			c-11.605,3.231-23.611,4.862-35.889,4.862c-7.748,0-14.031-6.283-14.031-14.031s6.283-14.031,14.031-14.031
			c15.374,0,30.2-3.227,44.066-9.592c4.344-1.997,9.405-1.639,13.428,0.94c4.023,2.58,6.457,7.032,6.457,11.811v255.603
			c0,43.907-33.463,88.377-99.456,132.175c-47.195,31.32-93.644,50.592-95.599,51.396
			C259.634,511.649,257.817,512.001,256.001,512.001z"/>
		<path d="M256.001,413.69c-14.411-7.31-33.637-17.817-52.472-30.426
			c-44.363-29.699-56.858-51.111-57.843-56.535v-170.15c41.216-5.664,80.263-24.703,110.315-53.749
			c30.052,29.046,69.099,48.084,110.315,53.749v170.148c-0.986,5.424-13.48,26.836-57.843,56.535
			C289.638,395.874,270.413,406.382,256.001,413.69z"/>
		<path style="fill:#003B5C;"  d="M256.001,427.721c-2.176,0-4.352-0.505-6.346-1.517c-13.56-6.877-33.923-17.887-53.93-31.281
			c-43.617-29.201-61.651-53.635-63.844-65.685c-0.15-0.828-0.226-1.668-0.226-2.51V156.58c0-7.011,5.175-12.946,12.12-13.901
			c38.197-5.25,74.589-22.986,102.474-49.938c5.44-5.256,14.063-5.256,19.503,0c27.885,26.952,64.279,44.687,102.474,49.938
			c6.944,0.956,12.12,6.889,12.12,13.901v170.147c0,0.842-0.076,1.682-0.226,2.51c-2.193,12.051-20.227,36.485-63.843,65.685
			c-20.008,13.394-40.37,24.404-53.931,31.281C260.354,427.216,258.178,427.721,256.001,427.721z M159.718,324.396
			c2.854,5.837,16.472,23.68,51.619,47.209c15.955,10.68,32.236,19.795,44.665,26.301c12.429-6.506,28.71-15.621,44.666-26.301
			c35.145-23.53,48.763-41.372,51.617-47.209V168.442c-35.301-7.024-68.763-23.248-96.284-46.677
			c-27.52,23.428-60.983,39.653-96.284,46.677V324.396z"/>
		<path style="fill:#003B5C;" d="M249.868,302.227c-3.592,0-7.181-1.371-9.921-4.11l-41.06-41.06c-5.479-5.479-5.479-14.364,0-19.844
			c5.481-5.478,14.362-5.478,19.844,0l31.138,31.138l54.467-54.467c5.481-5.478,14.362-5.478,19.844,0
			c5.479,5.479,5.479,14.364,0,19.844l-64.39,64.39C257.05,300.857,253.46,302.227,249.868,302.227z"/>
    </symbol>

    <symbol id="process04" role="img" aria-labelledby="process04_title" viewBox="0 0 512 512">
		<title id="process04_title"></title>
		<path style="fill:#003B5C;" d="M190.834,439.324H57.065C25.599,439.324,0,413.724,0,382.259V72.483
			c0-31.465,25.599-57.065,57.065-57.065h253.046c7.662,0,13.875,6.212,13.875,13.875s-6.213,13.875-13.875,13.875H57.065
			c-16.163,0-29.314,13.151-29.314,29.314v309.775c0,16.163,13.151,29.314,29.314,29.314h133.769c7.662,0,13.875,6.212,13.875,13.875
			S198.498,439.324,190.834,439.324z"/>
		<path style="fill:#003B5C;" d="M454.935,439.324h-60.179c-7.662,0-13.875-6.212-13.875-13.875s6.213-13.875,13.875-13.875h60.179
			c16.163,0,29.314-13.151,29.314-29.314V72.483c0-16.163-13.151-29.314-29.314-29.314h-59.203c-7.662,0-13.875-6.212-13.875-13.875
			s6.213-13.875,13.875-13.875h59.203c31.467,0,57.065,25.6,57.065,57.065v309.775C512,413.724,486.401,439.324,454.935,439.324z"/>
		<path style="fill:#003B5C;" d="M208.263,496.582c-3.474,0-6.967-0.808-10.211-2.446c-7.655-3.867-12.409-11.597-12.409-20.173
			v-149.24c0-7.663,6.213-13.875,13.875-13.875s13.875,6.212,13.875,13.875v139.046l29.198-21.519c8.019-5.912,18.8-5.912,26.818,0
			l29.198,21.519v-19.134c0-7.663,6.213-13.875,13.875-13.875s13.875,6.212,13.875,13.875v29.326c0,8.576-4.755,16.306-12.409,20.173
			c-7.658,3.867-16.699,3.108-23.603-1.98L256,466.84l-34.347,25.316C217.676,495.087,212.986,496.582,208.263,496.582z"/>
		<path style="fill:#003B5C;" d="M256,395.081c-38.795,0-70.358-31.562-70.358-70.358c0-38.794,31.562-70.358,70.358-70.358
			s70.358,31.562,70.358,70.358S294.795,395.081,256,395.081z M256,282.118c-23.494,0-42.607,19.113-42.607,42.607
			s19.113,42.607,42.607,42.607s42.607-19.113,42.607-42.607C298.607,301.231,279.494,282.118,256,282.118z"/>
		<path d="M371.432,98.67H140.568l-57.316,57.316v142.769l57.316,57.316h68.447
			c-5.997-8.969-9.498-19.749-9.498-31.349c0-31.195,25.288-56.482,56.482-56.482s56.482,25.288,56.482,56.482
			c0,11.6-3.501,22.378-9.498,31.349h68.447l57.316-57.316V155.987L371.432,98.67z"/>
		<path style="fill:#003B5C;" d="M371.43,369.947h-68.447c-5.12,0-9.825-2.821-12.238-7.337c-2.412-4.516-2.142-9.994,0.705-14.251
			c4.682-7.004,7.157-15.177,7.157-23.637c0-23.494-19.113-42.607-42.607-42.607s-42.607,19.113-42.607,42.607
			c0,8.225,2.341,16.181,6.775,23.055c1.727,2.313,2.75,5.184,2.75,8.293c0,7.663-6.213,13.875-13.875,13.875
			c-0.01,0-0.018,0-0.029,0h-68.447c-3.68,0-7.208-1.462-9.811-4.064L73.44,308.565c-2.6-2.6-4.063-6.13-4.063-9.81V155.987
			c0-3.68,1.462-7.21,4.064-9.811l57.316-57.316c2.603-2.602,6.132-4.064,9.811-4.064h230.863c3.68,0,7.208,1.462,9.811,4.064
			l57.318,57.316c2.602,2.602,4.064,6.132,4.064,9.811v142.769c0,3.68-1.462,7.21-4.064,9.811l-57.318,57.316
			C378.64,368.485,375.111,369.947,371.43,369.947z M324.167,342.196h41.516l49.189-49.188V161.735l-49.189-49.188H146.315
			l-49.188,49.187v131.273l49.188,49.188h41.518c-1.45-5.665-2.191-11.528-2.191-17.473c0-38.794,31.562-70.358,70.358-70.358
			s70.358,31.562,70.358,70.358C326.358,330.669,325.617,336.531,324.167,342.196z"/>
		<path style="fill:#003B5C;" d="M339.252,210.267H172.748c-7.662,0-13.875-6.212-13.875-13.875s6.213-13.875,13.875-13.875h166.504
			c7.662,0,13.875,6.212,13.875,13.875S346.914,210.267,339.252,210.267z"/>
    </symbol>

    <symbol id="quote" role="img" aria-labelledby="quote_title" viewBox="0 0 298.667 298.667">
    	<title id="quote_title"></title>
        <polygon points="0,170.667 64,170.667 21.333,256 85.333,256 128,170.667 128,42.667 0,42.667 			"/>
		<polygon points="170.667,42.667 170.667,170.667 234.667,170.667 192,256 256,256 298.667,170.667 298.667,42.667 			"/>
    </symbol>

    <symbol id="footer-facebook" role="img" aria-labelledby="footer-facebook_title" viewBox="0 0 512 512">
        <title id="footer-facebook_title">Facebook</title>
        <path d="M314.829,135.492h70.595c11.423,0,20.682-9.26,20.682-20.682V20.682C406.107,9.26,396.848,0,385.425,0h-70.595
            c-76.282,0-138.341,62.06-138.341,138.341v49.913h-49.913c-11.422,0-20.682,9.26-20.682,20.682v94.127
            c0,11.423,9.26,20.682,20.682,20.682h49.913v167.572c0,11.423,9.26,20.682,20.682,20.682h94.127
            c11.423,0,20.682-9.259,20.682-20.682V323.746h49.913c9.49,0,17.763-6.458,20.065-15.666l23.532-94.127
            c1.544-6.179,0.156-12.725-3.763-17.744c-3.919-5.02-9.932-7.954-16.301-7.954H311.98v-49.913
            C311.98,136.77,313.258,135.492,314.829,135.492z M291.298,229.619h67.637l-13.191,52.763h-54.447
            c-11.423,0-20.682,9.259-20.682,20.682v167.572h-52.763V303.064c0-11.423-9.26-20.682-20.682-20.682h-49.913v-52.763h49.913
            c11.422,0,20.682-9.26,20.682-20.682v-70.595c0-53.473,43.503-96.977,96.977-96.977h49.913v52.763h-49.913
            c-24.38,0-44.214,19.835-44.214,44.214v70.595C270.615,220.359,279.875,229.619,291.298,229.619z"/>
    </symbol>

    <symbol id="footer-twitter" role="img" aria-labelledby="footer-twitter_title" viewBox="0 0 512 512">
        <title id="footer-twitter_title">Twitter</title>
        <path d="M502.954,47.189c-7.126-4.852-16.515-4.774-23.559,0.196c-15.351,10.828-31.974,19.528-49.557,25.948
            c-19.253-17.414-43.615-27.826-69.915-29.656c-31.056-2.16-61.081,7.9-84.561,28.326c-25.59,22.259-40.174,54.444-40.046,88.349
            c-85.248-7.609-139.14-61.55-177.09-108.986c-4.598-5.746-11.901-8.619-19.182-7.538c-7.279,1.078-13.438,5.944-16.171,12.777
            c-0.948,2.369-23.141,58.799-17.453,127.057c4.761,57.133,30.23,131.964,120.039,181.717
            c-32.436,14.756-68.282,21.939-103.953,20.519c-9.576-0.378-18.15,5.859-20.736,15.08c-2.587,9.221,1.497,19.013,9.869,23.665
            c51.359,28.532,108.03,43.736,163.889,43.965c0.432,0.002,0.861,0.003,1.294,0.003c54.105-0.001,106.379-13.938,151.246-40.336
            c42.898-25.241,78.416-61.759,102.715-105.603c26.162-47.206,39.427-101.75,39.427-162.186c-0.011-3.544-0.186-7.098-0.52-10.638
            c20.7-22.885,35.388-50.567,42.719-80.667C513.451,60.803,510.081,52.04,502.954,47.189z M432.297,128.07
            c-4.916,4.847-7.088,11.827-5.793,18.607c0.877,4.588,1.329,9.278,1.344,13.874c0,101.956-44.378,186.544-121.756,232.072
            c-60.586,35.649-133.037,43.933-203.609,25.057c0.729-0.201,1.459-0.407,2.185-0.615c27.596-7.885,53.63-20.055,77.377-36.174
            c6.329-4.296,9.77-11.734,8.946-19.34c-0.825-7.605-5.778-14.134-12.881-16.975C97.757,312.434,53.563,257.594,46.757,181.575
            c-2.536-28.334,0.707-54.721,4.766-74.501c16.638,17.909,37.384,37.227,62.129,53.407c42.771,27.966,90.663,42.146,142.346,42.146
            c11.423,0,20.682-9.26,20.682-20.682v-21.393c0-0.045,0-0.091,0-0.137c-0.146-21.948,9.268-42.797,25.829-57.202
            c15.146-13.175,34.51-19.665,54.543-18.27c20.026,1.393,38.311,10.502,51.487,25.648c5.339,6.138,13.783,8.577,21.567,6.229
            c5.725-1.724,11.375-3.645,16.941-5.757C442.599,117.081,437.672,122.769,432.297,128.07z"/>
    </symbol>    

    <symbol id="footer-linkedin" role="img" aria-labelledby="footer-linkedin_title" viewBox="0 0 512 512">
        <title id="footer-linkedin_title">Linkedin</title>
        <path d="M2.5,510V153.7h137.3V510H2.5z M102.5,472.7V191H39.8v281.7H102.5z"/>
        <path d="M375.4,510l0.1-158.1c0.5-23.6-8.8-42.9-24.9-51.7c-5.4-3-11.2-4.5-17.3-4.5c-5.2,0-10.4,1.1-15.5,3.3l-1.1,211H176.1
            V153.7h140.6V166c16.6-6,33.6-9.1,50.6-9.1c24.7,0,48.3,6.4,70.2,18.9c44,25.2,72.5,71.8,72.5,118.8V510H375.4z M472.7,472.7V294.6
            c0-33.8-21.1-67.7-53.7-86.4c-15.9-9.1-33.8-13.9-51.7-14h-0.3c-20.1,0-40.1,5.8-59.6,17.3L279.4,228V191h-66.1v281.7h66.2l1-194.7
            l8.2-5.5c13.7-9.2,29.1-14.1,44.5-14.1c12.4,0,24.2,3,35.1,9c13.7,7.5,25,19.2,32.8,33.8c7.9,14.9,11.9,32.6,11.5,51.1l0,120.3
            H472.7z"/>
        <path d="M70.9,139.9C32.9,139.9,2,109,2,71c0-38,30.9-69,68.9-69c38,0,68.9,30.9,68.9,69C139.8,109,108.9,139.9,70.9,139.9z
             M70.9,39.3c-17.4,0-31.6,14.2-31.6,31.7c0,17.5,14.2,31.7,31.6,31.7c17.4,0,31.6-14.2,31.6-31.7C102.5,53.5,88.3,39.3,70.9,39.3z"
            />
    </symbol>

    <symbol id="footer-instagram" role="img" aria-labelledby="footer-instagram_title" viewBox="0 0 512 512">
        <title id="footer-instagram_title">Instagram</title>
        <path d="M373.659,0H138.341C62.06,0,0,62.06,0,138.341v235.318C0,449.94,62.06,512,138.341,512h235.318
            C449.94,512,512,449.94,512,373.659V138.341C512,62.06,449.94,0,373.659,0z M470.636,373.659
            c0,53.473-43.503,96.977-96.977,96.977H138.341c-53.473,0-96.977-43.503-96.977-96.977V138.341
            c0-53.473,43.503-96.977,96.977-96.977h235.318c53.473,0,96.977,43.503,96.977,96.977V373.659z"/>
        <path d="M370.586,238.141c-3.64-24.547-14.839-46.795-32.386-64.342c-17.547-17.546-39.795-28.746-64.341-32.385
            c-11.176-1.657-22.507-1.657-33.682,0c-30.336,4.499-57.103,20.541-75.372,45.172c-18.269,24.631-25.854,54.903-21.355,85.237
            c4.499,30.335,20.541,57.102,45.172,75.372c19.996,14.831,43.706,22.619,68.153,22.619c5.667,0,11.375-0.418,17.083-1.265
            c30.336-4.499,57.103-20.541,75.372-45.172C367.5,298.747,375.085,268.476,370.586,238.141z M267.791,327.632
            c-19.405,2.882-38.77-1.973-54.527-13.66c-15.757-11.687-26.019-28.811-28.896-48.216c-2.878-19.405,1.973-38.77,13.66-54.527
            c11.688-15.757,28.811-26.019,48.217-28.897c3.574-0.53,7.173-0.795,10.772-0.795s7.199,0.265,10.773,0.796
            c32.231,4.779,57.098,29.645,61.878,61.877C335.608,284.268,307.851,321.692,267.791,327.632z"/>
        <path d="M400.049,111.951c-3.852-3.851-9.183-6.058-14.625-6.058c-5.442,0-10.773,2.206-14.625,6.058
            c-3.851,3.852-6.058,9.174-6.058,14.625c0,5.451,2.207,10.773,6.058,14.625c3.852,3.851,9.183,6.058,14.625,6.058
            c5.442,0,10.773-2.206,14.625-6.058c3.851-3.852,6.058-9.183,6.058-14.625C406.107,121.133,403.9,115.802,400.049,111.951z"/>
    </symbol>

    <symbol id="footer-google" role="img" aria-labelledby="footer-google_title" viewBox="0 90 320 320">
        <title id="footer-google_title">Google</title>
		<path d="M160,224v64h90.528c-13.216,37.248-48.8,64-90.528,64c-52.928,0-96-43.072-96-96c0-52.928,43.072-96,96-96
			c22.944,0,45.024,8.224,62.176,23.168l42.048-48.256C235.424,109.824,198.432,96,160,96C71.776,96,0,167.776,0,256
			s71.776,160,160,160s160-71.776,160-160v-32H160z"/>
    </symbol>

    <symbol id="footer-phone" role="img" aria-labelledby="footer-phone_title" viewBox="0 0 512 512">
        <title id="footer-phone_title"></title>
        <path d="M421.216,195.504c-5.092-26.101-17.723-49.836-36.526-68.64c-18.804-18.803-42.54-31.434-68.641-36.527
			c-11.21-2.189-22.073,5.128-24.261,16.339c-2.187,11.212,5.128,22.073,16.339,24.26c36.847,7.188,65.3,35.642,72.489,72.489
			c1.927,9.874,10.581,16.726,20.278,16.726c1.313,0,2.645-0.125,3.984-0.387C416.088,217.577,423.403,206.715,421.216,195.504z"/>
		<path d="M511.422,196.929c-5.629-50.096-28.373-97.304-64.042-132.927C411.712,28.378,364.475,5.694,314.371,0.128
			c-11.355-1.261-21.578,6.92-22.839,18.272c-1.261,11.353,6.919,21.578,18.272,22.84c84.961,9.438,150.966,75.36,160.512,160.31
			c1.188,10.566,10.139,18.374,20.527,18.374c0.771,0,1.552-0.043,2.336-0.131C504.53,218.516,512.698,208.281,511.422,196.929z"/>
		<path d="M432.59,312.566c-0.062-0.008-0.124-0.017-0.186-0.025c-20.013-2.639-39.751-7.557-58.619-14.596
			c-23.91-8.99-51.103-3.191-69.27,14.772c-0.028,0.028-0.056,0.055-0.083,0.083l-17.148,17.148
			c-42.633-26.924-78.756-63.047-105.679-105.679l17.149-17.149c0.027-0.028,0.054-0.055,0.082-0.083
			c17.964-18.166,23.762-45.356,14.79-69.223c-7.057-18.914-11.974-38.653-14.614-58.666c-0.007-0.063-0.017-0.127-0.026-0.19
			c-4.591-32.478-32.782-56.734-65.548-56.467H66.053c-1.943,0.002-3.912,0.091-5.853,0.267
			C24.143,26.016-2.541,58.001,0.718,94.058c0.01,0.108,0.02,0.215,0.032,0.323c7.684,72.354,32.649,142.88,72.197,203.955
			c35.892,56.461,84.701,105.269,141.162,141.164c60.792,39.406,130.99,64.369,203.013,72.196c0.127,0.015,0.254,0.027,0.38,0.038
			c1.961,0.176,3.949,0.266,5.921,0.266c0.083,0,0.165,0,0.247,0.001c36.204-0.148,65.538-29.722,65.391-65.841v-67.233
			C489.746,345.714,465.515,317.211,432.59,312.566z M447.698,378.695v67.548c0.055,13.396-10.8,24.338-24.19,24.393
			c-0.715-0.004-1.425-0.027-2.135-0.086c-65.578-7.161-129.488-29.914-184.837-65.808c-0.053-0.035-0.107-0.069-0.161-0.103
			c-51.429-32.68-95.885-77.137-128.565-128.565c-0.032-0.051-0.064-0.101-0.097-0.153C71.683,220.306,48.928,156.086,41.902,90.193
			C40.779,76.91,50.63,65.155,63.923,63.954c0.717-0.064,1.443-0.098,2.145-0.098h67.463c0.146-0.001,0.294-0.003,0.443-0.002
			c12.021,0,22.322,8.905,24.044,20.819c3.05,23.063,8.721,45.806,16.871,67.649c3.319,8.832,1.189,18.869-5.427,25.591
			l-28.517,28.517c-6.583,6.582-7.956,16.753-3.354,24.847c33.837,59.508,83.177,108.847,142.685,142.685
			c8.094,4.6,18.264,3.23,24.848-3.355l28.512-28.512c6.72-6.621,16.765-8.752,25.642-5.415
			c21.799,8.134,44.547,13.805,67.61,16.855c12.18,1.757,21.122,12.339,20.816,24.647
			C447.7,378.353,447.698,378.524,447.698,378.695z"/>
    </symbol>    

	<symbol id="footer-mail" role="img" aria-labelledby="footer-mail_title" viewBox="0 0 512 512">
        <title id="footer-mail_title"></title>
        <path d="M256,141.176c-63.306,0-114.809,51.503-114.809,114.809S192.694,370.795,256,370.795s114.809-51.503,114.809-114.809
			S319.306,141.176,256,141.176z M256,329.43c-40.498,0-73.445-32.947-73.445-73.445c0-40.498,32.947-73.445,73.445-73.445
			c40.499,0,73.445,32.947,73.445,73.445C329.445,296.483,296.499,329.43,256,329.43z"/>
		<path d="M437.008,74.97C388.656,26.623,324.375,0,256,0c-0.005,0-0.013,0-0.017,0C187.603,0.004,123.318,26.637,74.97,74.992
			C26.62,123.347-0.005,187.637,0,256.017c0.004,68.379,26.637,132.666,74.992,181.014C123.344,485.377,187.625,512.001,256,512
			c0.004,0,0.012,0,0.017,0c55.945-0.004,111.216-18.738,155.631-52.752c9.07-6.945,10.792-19.927,3.846-28.995
			c-6.945-9.069-19.926-10.794-28.995-3.846c-37.24,28.518-83.58,44.224-130.486,44.228c-0.006,0-0.006,0-0.014,0
			c-57.324,0-111.224-22.324-151.761-62.856c-40.542-40.536-62.871-94.435-62.875-151.766
			C41.357,137.663,137.636,41.372,255.986,41.364c0.007,0,0.006,0,0.014,0c118.34,0,214.628,96.279,214.636,214.622v23.532
			c0,27.523-22.39,49.913-49.913,49.913c-27.523,0-49.913-22.391-49.913-49.913v-23.532c0-11.422-9.259-20.682-20.682-20.682
			s-20.682,9.26-20.682,20.682v23.532c0,50.33,40.947,91.278,91.278,91.278S512,329.848,512,279.518v-23.534
			C511.995,187.604,485.362,123.318,437.008,74.97z"/>
    </symbol>

    <symbol id="footer-location" role="img" aria-labelledby="footer-location_title" viewBox="0 0 512 512">
        <title id="footer-location_title"></title>
        <path d="M406.766,62.449C366.495,22.178,312.951,0,256,0S145.505,22.178,105.234,62.449
			c-40.272,40.271-62.449,93.814-62.449,150.766c0,37.656,10.972,76.863,32.609,116.532c16.825,30.846,40.15,62.102,69.326,92.898
			c49.17,51.903,97.763,84.519,99.808,85.881C248.001,510.842,252,512,256,512c4,0,7.999-1.158,11.473-3.474
			c2.045-1.363,50.638-33.978,99.808-85.881c29.176-30.795,52.501-62.051,69.326-92.898c21.637-39.669,32.609-78.876,32.609-116.532
			C469.215,156.263,447.038,102.72,406.766,62.449z M256.001,465.903C215.826,436.156,84.15,329.739,84.15,213.215
			c0-94.759,77.091-171.851,171.85-171.851s171.85,77.092,171.851,171.851C427.851,329.748,296.159,436.168,256.001,465.903z"/>
		<path d="M256,128.355c-46.791,0-84.86,38.068-84.86,84.86c0,46.791,38.068,84.86,84.86,84.86c46.792,0,84.861-38.068,84.86-84.86
			C340.86,166.423,302.791,128.355,256,128.355z M256,256.71c-23.983,0-43.495-19.512-43.495-43.495
			c0-23.983,19.512-43.495,43.495-43.495c23.984,0,43.495,19.512,43.495,43.495C299.495,237.198,279.984,256.71,256,256.71z"/>
		</symbol>

	<symbol id="footer-time" role="img" aria-labelledby="footer-time_title" viewBox="0 0 512 512">
        <title id="footer-time_title"></title>
        <path d="M437.019,74.981C388.667,26.629,324.38,0,256,0S123.333,26.63,74.981,74.981S0,187.62,0,256
			s26.629,132.667,74.981,181.019C123.332,485.371,187.62,512,256,512s132.667-26.629,181.019-74.981
			C485.371,388.667,512,324.38,512,256S485.371,123.332,437.019,74.981z M256,470.636C137.65,470.636,41.364,374.35,41.364,256
			S137.65,41.364,256,41.364S470.636,137.65,470.636,256S374.35,470.636,256,470.636z"/>
		<path d="M341.221,311.97l-64.538-64.537V114.809c0-11.422-9.259-20.682-20.682-20.682c-11.422,0-20.682,9.26-20.682,20.682V256
			c0,5.486,2.179,10.746,6.058,14.625l70.594,70.595c4.038,4.039,9.332,6.058,14.625,6.058c5.293,0,10.586-2.019,14.626-6.058
			C349.297,333.142,349.297,320.047,341.221,311.97z"/>
	</symbol>

</svg>