<svg xmlns="http://www.w3.org/2000/svg" xmlns:xlink="http://www.w3.org/1999/xlink">
  
    <symbol id="aside-menu01" role="img" aria-labelledby="aside-menu01_title" viewBox="0 0 512 512">
        <title id="aside-menu01_title"></title>
        <path d="M256,11.96L0,234.276l26.206,30.176l23.967-20.814V440.09c0,33.056,26.893,59.95,59.95,59.95h111.906V304.204h69.941
			V500.04h109.908c33.056,0,59.95-26.893,59.95-59.95V243.639l23.967,20.814L512,234.277L256,11.96z M421.861,440.09
			c0,11.019-8.964,19.983-19.983,19.983h-69.941V264.238H182.062v195.836h-71.94c-11.019,0-19.983-8.964-19.983-19.983V208.931
			L256,64.894l165.861,144.037V440.09z"/>
    </symbol>

    <symbol id="aside-menu02" role="img" aria-labelledby="aside-menu02_title" viewBox="0 0 512 512">
        <title id="aside-menu02_title"></title>
        <path d="M512,289.74v-67.479l-68.197-18.139c-4.251-15.398-10.406-30.187-18.389-44.192l34.876-60.574l-47.646-47.647
			L352.07,86.585c-14.002-7.982-28.794-14.137-44.191-18.389L289.74,0h-67.48l-18.14,68.195
			c-15.397,4.252-30.189,10.408-44.191,18.389L99.355,51.708L51.709,99.355l34.876,60.573
			c-7.984,14.005-14.138,28.795-18.389,44.192L0,222.26v67.479l68.197,18.139c4.252,15.398,10.407,30.188,18.389,44.192
			L51.71,412.643l47.646,47.647l60.574-34.876c14.002,7.983,28.793,14.138,44.19,18.39L222.26,512h67.48l18.141-68.194
			c15.397-4.253,30.187-10.407,44.19-18.39l60.574,34.876l47.646-47.647l-34.876-60.573c7.983-14.004,14.137-28.794,18.389-44.192
			L512,289.74z M410.086,275.458l-2.504,12.098c-3.913,18.907-11.363,36.817-22.14,53.232l-6.755,10.289l31.644,54.96l-4.293,4.293
			l-54.961-31.645l-10.289,6.755c-16.415,10.778-34.325,18.227-53.232,22.141l-12.098,2.505L258.989,472h-5.977l-16.469-61.915
			l-12.098-2.505c-18.907-3.914-36.817-11.364-53.232-22.141l-10.289-6.755l-54.961,31.645l-4.293-4.293l31.644-54.96l-6.755-10.289
			c-10.778-16.415-18.227-34.325-22.14-53.232l-2.504-12.098L40,258.989v-5.977l61.914-16.47l2.504-12.099
			c3.912-18.905,11.362-36.814,22.14-53.231l6.755-10.289l-31.644-54.961l4.293-4.293l54.962,31.645l10.29-6.756
			c16.413-10.776,34.322-18.225,53.229-22.139l12.099-2.504L253.011,40h5.977l16.469,61.915l12.099,2.504
			c18.907,3.914,36.816,11.363,53.229,22.139l10.29,6.756l54.962-31.645l4.293,4.293l-31.644,54.961l6.755,10.289
			c10.779,16.416,18.228,34.326,22.14,53.231l2.504,12.099L472,253.011v5.977L410.086,275.458z"/>
		<path d="M256,140c-63.963,0-116,52.038-116,116s52.037,116,116,116s116-52.038,116-116S319.963,140,256,140z M256,332
			c-41.906,0-76-34.093-76-76s34.094-76,76-76s76,34.093,76,76C332,297.907,297.906,332,256,332z"/>
    </symbol>

    <symbol id="aside-menu03" role="img" aria-labelledby="aside-menu03_title" viewBox="0 0 512 512">
        <title id="aside-menu03_title"></title>
        <path d="M176.792,0H59.208C26.561,0,0,26.561,0,59.208v117.584C0,209.439,26.561,236,59.208,236h117.584
			C209.439,236,236,209.439,236,176.792V59.208C236,26.561,209.439,0,176.792,0z M196,176.792c0,10.591-8.617,19.208-19.208,19.208
			H59.208C48.617,196,40,187.383,40,176.792V59.208C40,48.617,48.617,40,59.208,40h117.584C187.383,40,196,48.617,196,59.208
			V176.792z"/>
		<path d="M452,0H336c-33.084,0-60,26.916-60,60v116c0,33.084,26.916,60,60,60h116c33.084,0,60-26.916,60-60V60
			C512,26.916,485.084,0,452,0z M472,176c0,11.028-8.972,20-20,20H336c-11.028,0-20-8.972-20-20V60c0-11.028,8.972-20,20-20h116
			c11.028,0,20,8.972,20,20V176z"/>
		<path d="M176.792,276H59.208C26.561,276,0,302.561,0,335.208v117.584C0,485.439,26.561,512,59.208,512h117.584
			C209.439,512,236,485.439,236,452.792V335.208C236,302.561,209.439,276,176.792,276z M196,452.792
			c0,10.591-8.617,19.208-19.208,19.208H59.208C48.617,472,40,463.383,40,452.792V335.208C40,324.617,48.617,316,59.208,316h117.584
			c10.591,0,19.208,8.617,19.208,19.208V452.792z"/>
		<path d="M452,276H336c-33.084,0-60,26.916-60,60v116c0,33.084,26.916,60,60,60h116c33.084,0,60-26.916,60-60V336
			C512,302.916,485.084,276,452,276z M472,452c0,11.028-8.972,20-20,20H336c-11.028,0-20-8.972-20-20V336c0-11.028,8.972-20,20-20
			h116c11.028,0,20,8.972,20,20V452z"/>
    </symbol>

    <symbol id="aside-menu04" role="img" aria-labelledby="aside-menu04_title" viewBox="0 0 512 512">
        <title id="aside-menu04_title"></title>
        <path d="m460.683594 194.417969 51.316406-79.832031-104.425781-40.164063-30.945313 30.945313 75.171875 28.910156-21.929687 34.113281-82.558594-33.707031-30.507812 30.507812 72.933593 29.617188-133.78125 50.707031-132.371093-50.175781 71.03125-27.148438-30.96875-30.96875-82.046876 31.363282-.128906.351562-21.445312-33.625 73.457031-28.253906-30.941406-30.945313-102.542969 39.441407 50.757812 79.597656-50.636718 78.773437 49.886718 20.066407v138.695312l206.988282 78.035156 204.910156-78.085937v-138.644531l49.886719-20.066407zm-400.777344 60.453125 21.144531-32.886719 139.128907 52.734375-23.726563 35.085938zm392.101562 0-136.546874 54.933594-23.726563-35.085938 139.128906-52.734375zm-362.007812 55.210937 121.488281 48.875 24.472657-36.191406v137.289063l-145.960938-55.027344zm331.914062 95-145.960937 55.621094v-137.9375l24.472656 36.191406 121.488281-48.875zm-222.75-292.09375-28.277343-28.277343 84.710937-84.710938 84.710938 84.710938-28.277344 28.277343-36.078125-36.078125v118.503906h-39.992187v-119.226562zm0 0"/>
    </symbol>

    <symbol id="aside-menu05" role="img" aria-labelledby="aside-menu05_title" viewBox="0 0 512 512">
        <title id="aside-menu05_title"></title>
        <path d="m451.910156 307.378906v-102.859375c23.269532-8.253906 39.988282-30.480469 39.988282-56.550781 0-33.074219-26.910157-59.988281-59.984376-59.988281-15.136718 0-28.972656 5.648437-39.535156 14.929687l-86.613281-47.226562c-2.214844-31.074219-28.1875-55.683594-59.816406-55.683594-31.824219 0-57.925781 24.914062-59.859375 56.261719l-86.378906 46.8125c-10.589844-9.382813-24.5-15.09375-39.722657-15.09375-33.078125 0-59.988281 26.914062-59.988281 59.988281 0 26.070312 16.71875 48.292969 39.992188 56.550781v102.859375c-23.273438 8.253906-39.992188 30.480469-39.992188 56.546875 0 33.078125 26.910156 59.988281 59.988281 59.988281 15.1875 0 29.070313-5.6875 39.648438-15.027343l86.453125 46.851562c1.933594 31.347657 28.035156 56.261719 59.859375 56.261719 31.628906 0 57.601562-24.609375 59.820312-55.683594l86.683594-47.265625c10.554687 9.242188 24.359375 14.863281 39.460937 14.863281 33.078126 0 59.988282-26.910156 59.988282-59.988281-.003906-26.066406-16.722656-48.292969-39.992188-56.546875zm-79.984375 56.546875c0 3.503907.316407 6.933594.898438 10.273438l-78.289063 42.6875c-10.910156-15.046875-28.617187-24.863281-48.585937-24.863281-19.800781 0-37.382813 9.648437-48.3125 24.484374l-78.515625-42.546874c.550781-3.265626.855468-6.613282.855468-10.035157 0-26.066406-16.71875-48.292969-39.992187-56.546875v-102.859375c23.273437-8.253906 39.992187-30.480469 39.992187-56.550781 0-3.386719-.300781-6.703125-.839843-9.9375l78.496093-42.539062c10.933594 14.835937 28.515626 24.484374 48.316407 24.484374 19.96875 0 37.675781-9.816406 48.585937-24.863281l78.269532 42.675781c-.566407 3.3125-.878907 6.710938-.878907 10.179688 0 26.070312 16.71875 48.292969 39.992188 56.550781v102.859375c-23.273438 8.253906-39.992188 30.480469-39.992188 56.546875zm59.988281-235.953125c11.023438 0 19.996094 8.972656 19.996094 19.996094 0 11.027344-8.972656 19.996094-19.996094 19.996094-11.027343 0-19.996093-8.96875-19.996093-19.996094 0-11.023438 8.96875-19.996094 19.996093-19.996094zm-185.964843-87.980468c11.027343 0 19.996093 8.96875 19.996093 19.996093 0 11.023438-8.96875 19.996094-19.996093 19.996094-11.023438 0-19.996094-8.972656-19.996094-19.996094 0-11.027343 8.972656-19.996093 19.996094-19.996093zm-185.960938 87.980468c11.023438 0 19.996094 8.972656 19.996094 19.996094 0 11.027344-8.972656 19.996094-19.996094 19.996094-11.027343 0-19.996093-8.96875-19.996093-19.996094 0-11.023438 8.96875-19.996094 19.996093-19.996094zm0 255.949219c-11.027343 0-19.996093-8.96875-19.996093-19.996094 0-11.027343 8.96875-19.996093 19.996093-19.996093 11.023438 0 19.996094 8.96875 19.996094 19.996093 0 11.027344-8.972656 19.996094-19.996094 19.996094zm185.960938 88.085937c-11.023438 0-19.996094-8.96875-19.996094-19.996093 0-11.023438 8.972656-19.996094 19.996094-19.996094 11.027343 0 19.996093 8.972656 19.996093 19.996094 0 11.027343-8.96875 19.996093-19.996093 19.996093zm185.964843-88.085937c-11.027343 0-19.996093-8.96875-19.996093-19.996094 0-11.027343 8.96875-19.996093 19.996093-19.996093 11.023438 0 19.996094 8.96875 19.996094 19.996093 0 11.027344-8.972656 19.996094-19.996094 19.996094zm-134.65625-129.769531c8.5625-11.007813 13.679688-24.820313 13.679688-39.8125 0-35.835938-29.152344-64.988282-64.988281-64.988282-35.832031 0-64.984375 29.152344-64.984375 64.988282 0 14.992187 5.117187 28.804687 13.675781 39.8125-29.132813 17.492187-48.671875 49.394531-48.671875 85.777344h39.992188c0-33.074219 26.910156-59.988282 59.988281-59.988282s59.988281 26.914063 59.988281 59.988282h39.992188c0-36.382813-19.539063-68.285157-48.671876-85.777344zm-51.308593-64.808594c13.78125 0 24.996093 11.210938 24.996093 24.996094 0 13.78125-11.214843 24.992187-24.996093 24.992187s-24.992188-11.210937-24.992188-24.992187c0-13.785156 11.210938-24.996094 24.992188-24.996094zm0 0"/>
    </symbol>

    <symbol id="aside-menu06" role="img" aria-labelledby="aside-menu06_title" viewBox="0 0 512 512">
        <title id="aside-menu06_title"></title>
        <circle cx="265.911" cy="132.089" r="25"/>
		<path d="M437.02,74.98C388.667,26.629,324.38,0,256,0S123.333,26.629,74.98,74.98C26.629,123.333,0,187.62,0,256
			s26.629,132.667,74.98,181.02C123.333,485.371,187.62,512,256,512s132.667-26.629,181.02-74.98
			C485.371,388.667,512,324.38,512,256S485.371,123.333,437.02,74.98z M256,472c-119.103,0-216-96.897-216-216S136.897,40,256,40
			s216,96.897,216,216S375.103,472,256,472z"/>
		<path d="M278.528,366.083c-4.024,1.965-7.223,0.347-8.771-0.792c-1.546-1.138-4.041-3.705-3.359-8.17l17.163-114.269
			c2.728-17.888-4.633-35.66-19.212-46.381c-14.582-10.724-33.746-12.454-50.01-4.517l-24.695,12.044l17.527,35.955l24.708-12.051
			c4.023-1.962,7.223-0.345,8.771,0.793c1.547,1.138,4.041,3.706,3.36,8.17l-17.163,114.269
			c-2.729,17.888,4.633,35.659,19.211,46.381c8.508,6.257,18.574,9.451,28.716,9.451c7.24,0,14.519-1.629,21.294-4.935
			l24.696-12.045l-17.53-35.955L278.528,366.083z"/>
    </symbol>

    <symbol id="aside-menu07" role="img" aria-labelledby="aside-menu07_title" viewBox="0 0 512 512">
        <title id="aside-menu07_title"></title>
        <rect x="180" y="340" width="122" height="40"/>
		<rect x="180" y="260" width="232" height="40"/>
		<path d="M452,80h-20V60c0-33.084-26.916-60-60-60H60C26.916,0,0,26.916,0,60v312c0,33.084,26.916,60,60,60h20v20
			c0,33.084,26.916,60,60,60h229.828L512,369.145V140C512,106.916,485.084,80,452,80z M80,140v252H60c-11.028,0-20-8.972-20-20V60
			c0-11.028,8.972-20,20-20h312c11.028,0,20,8.972,20,20v20H140C106.916,80,80,106.916,80,140z M381.889,443.177v-42.288
			c0-11.028,8.972-20,20-20h41.99L381.889,443.177z M472,340.889h-70.111c-33.084,0-60,26.916-60,60V472H140
			c-11.028,0-20-8.972-20-20V140c0-11.028,8.972-20,20-20h312c11.028,0,20,8.972,20,20V340.889z"/>
		<rect x="180" y="180" width="232" height="40"/>
    </symbol>

    <symbol id="header-panel01" role="img" aria-labelledby="header-panel01_title" viewBox="0 0 512 512">
        <title id="header-panel01_title"></title>
        <path d="M477.187,120.776l-7.224-18.65l-37.3,14.448l7.225,18.649C447.925,155.974,452,177.768,452,200v92h40v-92
			C492,172.807,487.017,146.152,477.187,120.776z"/>
		<path d="M42.037,102.127l-7.224,18.65C24.983,146.152,20,172.807,20,200v92h40v-92c0-22.232,4.075-44.026,12.112-64.776
			l7.225-18.649L42.037,102.127z"/>
		<path d="M468,392h-20c-10.384,0-18.709-3.609-24.745-10.728C415.892,372.588,412,358.886,412,341.646V204
			c0-78.818-59.543-144.777-136-154.699V0h-40v49.301C159.543,59.223,100,125.181,100,204v144c0,14.175-3.734,25.775-10.799,33.546
			C82.984,388.385,74.27,392,64,392H44v56h161.413c-0.915,3.855-1.413,7.869-1.413,12c0,28.673,23.327,52,52,52
			c28.673,0,52-23.327,52-52c0-4.131-0.499-8.145-1.413-12H468V392z M256,472c-6.617,0-12-5.383-12-12s5.383-12,12-12
			s12,5.383,12,12S262.617,472,256,472z M119.208,408C132.813,392.784,140,372.052,140,348V204
			c0-63.067,51.263-115.072,114.302-115.987h3.396C320.737,88.928,372,140.933,372,204v137.646c0,26.84,7.174,49.488,20.745,65.494
			c0.245,0.289,0.492,0.576,0.741,0.86H119.208z"/>
    </symbol>

    <symbol id="header-panel02" role="img" aria-labelledby="header-panel02_title" viewBox="0 0 512 512">
        <title id="header-panel02_title"></title>
        <path d="m256 0-256 190.933594v261.03125c0 33.085937 26.914062 60 60 60h392c33.085938 0 60-26.914063 60-60v-261.03125zm200.8125 199.671875-200.8125 149.367187-200.8125-149.367187 200.8125-149.773437zm-4.8125 272.292969h-392c-11.027344 0-20-8.972656-20-20v-213.734375l216 160.660156 216-160.660156v213.734375c0 11.027344-8.972656 20-20 20zm-217-190v-40h40v40zm40-70h-40v-95h40zm0 0"/>
    </symbol>

    <symbol id="header-panel04" role="img" aria-labelledby="header-panel04_title" viewBox="0 0 512 512">
        <title id="header-panel04_title"></title>
        <path d="M302.058,0C186.296,0,92.116,94.18,92.116,209.942c0,50.697,18.064,97.253,48.092,133.574L0,483.724L28.276,512
			l140.208-140.208c36.321,30.028,82.877,48.092,133.574,48.092C417.82,419.884,512,325.704,512,209.942S417.821,0,302.058,0z
			 M302.058,379.895c-93.712,0-169.953-76.241-169.953-169.953S208.346,39.989,302.058,39.989s169.953,76.241,169.953,169.953
			S395.77,379.895,302.058,379.895z"/>
    </symbol>

    <symbol id="numbers01" role="img" aria-labelledby="numbers01_title" viewBox="0 0 512 512">
        <title id="numbers01_title"></title>
        <path d="m197.573 188.379h-6.15c-35.801 0-65.108 28.328-66.681 63.748h139.512c-1.577-35.416-30.883-63.748-66.681-63.748z"/>
        <path d="m428.513 0h-348.031c-44.366 0-80.461 39.036-80.461 87.019v219.758c0 47.982 36.095 87.018 80.461 87.018h104.492l56.241 107.171c2.591 4.937 7.706 8.03 13.282 8.03s10.691-3.093 13.282-8.03l56.241-107.171h104.492c44.366 0 80.461-39.036 80.461-87.018v-219.758c.001-47.983-36.094-87.019-80.46-87.019zm-161.193 282.128h-145.645c-14.888 0-27-12.112-27-27 0-40.134 24.565-74.635 59.448-89.266-10.311-10.331-16.695-24.581-16.695-40.295 0-31.468 25.601-57.07 57.069-57.07s57.069 25.602 57.069 57.07c0 15.714-6.385 29.964-16.695 40.295 34.883 14.63 59.448 49.131 59.448 89.265.001 14.888-12.111 27.001-26.999 27.001zm129.796-24.774c0 6.353-7.742 9.529-15.485 9.529-7.742 0-15.485-3.177-15.485-9.529v-101.053l-5.758 3.574c-1.786 1.191-3.573 1.588-4.963 1.588-5.758 0-9.729-6.155-9.729-12.309 0-4.169 1.787-8.14 5.758-10.522l26.206-15.882c1.589-.993 3.574-1.39 5.758-1.39 6.353 0 13.698 3.772 13.698 9.728z"/>
        <path d="m194.498 152.637c14.926 0 27.069-12.143 27.069-27.07 0-14.926-12.144-27.07-27.069-27.07s-27.069 12.144-27.069 27.07c-.001 14.927 12.143 27.07 27.069 27.07z"/>
    </symbol>

    <symbol id="numbers02" role="img" aria-labelledby="numbers02_title" viewBox="0 0 512 512">
        <title id="numbers02_title"></title>
        <path d="m101.84375 312.390625v-97.808594c0-7.058593 1.011719-13.941406 2.90625-20.511719h-65.953125c-10.695313 0-20.394531 4.351563-27.417969 11.375-7.023437 7.023438-11.378906 16.726563-11.378906 27.417969v77.828125c0 9.472656 3.457031 18.195313 9.183594 24.980469 2.976562 3.53125 6.578125 6.523437 10.632812 8.8125v113.121094c0 8.269531 6.703125 14.972656 14.96875 14.972656h91.960938v-104.574219c-15.722656-14.195312-24.902344-34.417968-24.902344-55.613281zm0 0"/>
        <path d="m80.847656 176.363281c32.339844 0 58.648438-26.308593 58.648438-58.648437s-26.308594-58.648438-58.648438-58.648438-58.648437 26.308594-58.648437 58.648438 26.308593 58.648437 58.648437 58.648437zm0 0"/>
        <path d="m282.441406 169.667969h-105.746094c-12.375 0-23.605468 5.042969-31.738281 13.171875-8.132812 8.132812-13.171875 19.363281-13.171875 31.742187v97.808594c0 10.96875 4 21.070313 10.621094 28.917969 3.925781 4.652344 8.785156 8.5 14.28125 11.25v144.46875c0 8.269531 6.703125 14.972656 14.972656 14.972656h115.820313c8.269531 0 14.972656-6.703125 14.972656-14.972656v-144.46875c5.496094-2.75 10.355469-6.597656 14.277344-11.25 6.625-7.847656 10.625-17.945313 10.625-28.917969v-97.808594c0-12.378906-5.039063-23.609375-13.171875-31.738281-8.132813-8.132812-19.363282-13.175781-31.742188-13.175781zm0 0"/>
        <path d="m229.546875 139.726562c38.523437 0 69.863281-31.339843 69.863281-69.863281 0-38.523437-31.339844-69.863281-69.863281-69.863281s-69.863281 31.339844-69.863281 69.863281c0 38.523438 31.339844 69.863281 69.863281 69.863281zm0 0"/>
        <path d="m449.769531 205.445312c-7.023437-7.023437-16.722656-11.375-27.417969-11.375h-67.960937c1.890625 6.570313 2.90625 13.453126 2.90625 20.511719v97.808594c0 21.191406-9.179687 41.417969-24.902344 55.613281v104.464844c.589844.070312 1.195313.109375 1.808594.109375h92.15625c8.269531 0 14.972656-6.703125 14.972656-14.972656v-113.121094c4.050781-2.285156 7.652344-5.28125 10.632813-8.8125 5.726562-6.785156 9.183594-15.507813 9.183594-24.980469v-77.828125c0-10.691406-4.355469-20.394531-11.378907-27.417969zm0 0"/>
        <path d="m380.261719 176.363281c32.339843 0 58.648437-26.308593 58.648437-58.648437s-26.308594-58.648438-58.648437-58.648438c-32.335938 0-58.648438 26.308594-58.648438 58.648438s26.3125 58.648437 58.648438 58.648437zm0 0"/>
    </symbol>

    <symbol id="numbers03" role="img" aria-labelledby="numbers03_title" viewBox="0 0 512 512">
        <title id="numbers03_title"></title>
        <path d="m512 128v-29.539062c0-8.15625-6.613281-14.769532-14.769531-14.769532h-14.769531v-68.921875c0-8.15625-6.613282-14.769531-14.769532-14.769531h-59.074218c-8.160157 0-14.769532 6.613281-14.769532 14.769531v68.921875h-14.769531c-8.15625 0-14.769531 6.613282-14.769531 14.769532v29.539062c0 4.140625 1.738281 8.089844 4.789062 10.886719l31.085938 28.496093h-106.214844l31.085938-28.496093c3.054687-2.796875 4.789062-6.746094 4.789062-10.886719v-29.539062c0-8.15625-6.609375-14.769532-14.769531-14.769532h-14.765625v-68.921875c0-8.15625-6.613282-14.769531-14.769532-14.769531h-59.078124c-8.15625 0-14.769532 6.613281-14.769532 14.769531v68.921875h-14.769531c-8.15625 0-14.769531 6.613282-14.769531 14.769532v29.539062c0 4.140625 1.738281 8.089844 4.789062 10.886719l31.089844 28.496093h-106.214844l31.085938-28.496093c3.050781-2.796875 4.789062-6.746094 4.789062-10.886719v-29.539062c0-8.15625-6.613281-14.769532-14.769531-14.769532h-14.769531v-68.921875c0-8.15625-6.613282-14.769531-14.769532-14.769531h-59.074218c-8.15625 0-14.769532 6.613281-14.769532 14.769531v68.921875h-14.769531c-8.15625 0-14.769531 6.613282-14.769531 14.769532v29.539062c0 4.140625 1.738281 8.089844 4.789062 10.886719l31.089844 28.496093h-21.109375c-8.15625 0-14.769531 6.613282-14.769531 14.769532v315.078125c0 8.15625 6.613281 14.769531 14.769531 14.769531h482.460938c8.15625 0 14.769531-6.613281 14.769531-14.769531v-315.078125c0-8.15625-6.613281-14.769532-14.769531-14.769532h-21.109375l31.089844-28.496093c3.050781-2.796875 4.789062-6.746094 4.789062-10.886719zm-391.1875 295.382812h36.726562c8.15625 0 14.769532 6.613282 14.769532 14.769532s-6.613282 14.769531-14.769532 14.769531h-49.230468c-8.15625 0-14.769532-6.613281-14.769532-14.769531 0-10.855469-8.835937-19.691406-19.691406-19.691406-8.15625 0-14.769531-6.613282-14.769531-14.769532v-128c0-8.15625 6.613281-14.769531 14.769531-14.769531 10.855469 0 19.691406-8.832031 19.691406-19.691406 0-8.15625 6.613282-14.769531 14.769532-14.769531h49.230468c8.15625 0 14.769532 6.613281 14.769532 14.769531s-6.613282 14.769531-14.769532 14.769531h-36.726562c-4.816406 15.289062-16.90625 27.382812-32.195312 32.199219v102.988281c15.289062 4.816406 27.378906 16.90625 32.195312 32.195312zm120.417969-98.460937h29.539062c21.714844 0 39.382813 17.667969 39.382813 39.386719 0 21.714844-17.667969 39.382812-39.382813 39.382812v24.617188c0 8.15625-6.613281 14.769531-14.769531 14.769531s-14.769531-6.613281-14.769531-14.769531v-24.617188h-24.613281c-8.160157 0-14.769532-6.613281-14.769532-14.769531s6.609375-14.769531 14.769532-14.769531h54.152343c5.429688 0 9.847657-4.414063 9.847657-9.84375 0-5.429688-4.417969-9.847656-9.847657-9.847656h-29.539062c-21.714844 0-39.382813-17.667969-39.382813-39.382813 0-21.71875 17.667969-39.386719 39.382813-39.386719v-24.613281c0-8.15625 6.613281-14.769531 14.769531-14.769531s14.769531 6.613281 14.769531 14.769531v24.613281h24.613281c8.160157 0 14.769532 6.613282 14.769532 14.769532s-6.609375 14.769531-14.769532 14.769531h-54.152343c-5.429688 0-9.847657 4.417969-9.847657 9.847656s4.417969 9.84375 9.847657 9.84375zm211.691406 78.769531c0 8.15625-6.613281 14.769532-14.769531 14.769532-10.855469 0-19.691406 8.835937-19.691406 19.691406 0 8.15625-6.613282 14.769531-14.769532 14.769531h-49.230468c-8.15625 0-14.769532-6.613281-14.769532-14.769531s6.613282-14.769532 14.769532-14.769532h36.726562c4.816406-15.289062 16.90625-27.378906 32.195312-32.195312v-102.988281c-15.289062-4.820313-27.378906-16.910157-32.195312-32.199219h-36.726562c-8.15625 0-14.769532-6.613281-14.769532-14.769531s6.613282-14.769531 14.769532-14.769531h49.230468c8.15625 0 14.769532 6.613281 14.769532 14.769531 0 10.859375 8.835937 19.691406 19.691406 19.691406 8.15625 0 14.769531 6.613281 14.769531 14.769531zm0 0"/>
    </symbol>

    <symbol id="numbers04" role="img" aria-labelledby="numbers04_title" viewBox="0 0 512 512">
        <title id="numbers04_title"></title>
        <path d="m510.855469 266.945312c-2.320313-5.605468-7.789063-9.257812-13.859375-9.257812h-65.332032v-202.519531c0-30.421875-24.746093-55.167969-55.164062-55.167969h-241.003906c-30.417969 0-55.164063 24.746094-55.164063 55.167969v202.519531h-65.332031c-6.066406 0-11.535156 3.65625-13.859375 9.261719-2.320313 5.605469-1.035156 12.058593 3.253906 16.347656l212.59375 212.597656c10.386719 10.386719 24.242188 16.105469 39.007813 16.105469 14.769531 0 28.625-5.722656 39.007812-16.109375l212.601563-212.597656c4.289062-4.289063 5.574219-10.742188 3.25-16.347657zm-345.742188-133.652343c12.546875-12.550781 32.890625-12.550781 45.441407 0 12.546874 12.546875 12.546874 32.890625 0 45.441406-12.550782 12.550781-32.894532 12.546875-45.441407 0-12.550781-12.550781-12.550781-32.894531 0-45.441406zm56.800781 170.410156c-12.546874 12.550781-32.894531 12.550781-45.441406 0-12.550781-12.546875-12.550781-32.894531 0-45.441406l113.609375-113.609375c12.546875-12.550782 32.894531-12.546875 45.441407 0 12.546874 12.546875 12.550781 32.894531 0 45.445312zm124.972657 11.359375c-12.550781 12.550781-32.894531 12.550781-45.441407 0-12.550781-12.546875-12.550781-32.894531 0-45.441406 12.546876-12.546875 32.890626-12.546875 45.441407 0s12.546875 32.894531 0 45.441406zm0 0"/>
    </symbol>

    <symbol id="activities01" role="img" aria-labelledby="activities01_title" viewBox="0 0 512 512">
        <title id="activities01_title"></title>
        <path d="M482.104,17.321c-1.75,0.996-174.858,98.783-294.107,100.481c-0.657-0.065-1.323-0.101-1.997-0.101H60
			c-33.084,0-60,26.916-60,60v69c0,26.073,16.722,48.303,40,56.56v108.44c0,55.141,44.86,100,100,100h20v-127h40v-48h-40v-30h26
			c0.943,0,1.863-0.088,2.771-0.214c119.434,1.946,292.173,91.998,293.92,92.915L512,414.815V0.299L482.104,17.321z M120,468.274
			c-23.281-8.255-40-30.498-40-56.573v-105h40V468.274z M166,266.701H60c-11.028,0-20-8.972-20-20v-69c0-11.028,8.972-20,20-20h106
			V266.701z M472,349.495c-53.451-25.371-169.574-75.459-266-82.263V156.984c96.352-7.335,212.222-61.303,266-88.898V349.495z"/>
    </symbol>

    <symbol id="activities02" role="img" aria-labelledby="activities02_title" viewBox="0 0 512 512">
        <title id="activities02_title"></title>
        <path d="M0,216.007v30.187l116.611,48.501l51.31,172.678l31.417,21.992l74.259-96.762l131.384,91.398h27.123L512,22.635L0,216.007
			z M70.497,232.167l243.818-92.087l-183.21,117.295L70.497,232.167z M184.985,310.423l-5.647,54.854l-22.782-76.67L318.696,184.8
			L184.985,310.423z M215.773,402.206l4.786-46.499l20.145,14.014L215.773,402.206z M400.47,432.105L235.829,317.572l220.319-206.99
			L400.47,432.105z"/>
    </symbol>

    <symbol id="activities03" role="img" aria-labelledby="activities03_title" viewBox="0 0 512 512">
        <title id="activities03_title"></title>
        <path d="m199.945312 359.898438h67.980469v39.988281h-67.980469zm-74.980468-4.996094c-13.804688 0-24.992188 11.1875-24.992188 24.992187 0 13.800781 11.1875 24.992188 24.992188 24.992188 13.804687 0 24.992187-11.191407 24.992187-24.992188 0-13.804687-11.1875-24.992187-24.992187-24.992187zm276.921875-121.96875h-201.941407v39.988281h201.941407zm-276.921875-4.996094c-13.804688 0-24.992188 11.1875-24.992188 24.992188 0 13.804687 11.1875 24.992187 24.992188 24.992187 13.804687 0 24.992187-11.1875 24.992187-24.992187 0-13.804688-11.1875-24.992188-24.992187-24.992188zm276.921875-114.96875h-201.941407v39.988281h201.941407zm-276.921875-5c-13.804688 0-24.992188 11.191406-24.992188 24.992188 0 13.804687 11.1875 24.996093 24.992188 24.996093 13.804687 0 24.992187-11.191406 24.992187-24.996093 0-13.800782-11.1875-24.992188-24.992187-24.992188zm-84.976563 343.90625v-391.890625c0-11.027344 8.96875-19.996094 19.996094-19.996094h391.890625c11.023438 0 19.992188 8.96875 19.992188 19.996094v225.9375h39.988281v-225.9375c0-33.074219-26.90625-59.984375-59.980469-59.984375h-391.890625c-33.074219 0-59.984375 26.910156-59.984375 59.984375v391.890625c0 33.074219 26.910156 59.980469 59.984375 59.980469h230.933594v-39.988281h-230.933594c-11.027344 0-19.996094-8.96875-19.996094-19.992188zm443.734375 60.125-39.820312-39.820312c-13.472656 8.050781-29.210938 12.683593-46.011719 12.683593-49.613281 0-89.976563-40.363281-89.976563-89.972656 0-49.613281 40.363282-89.976563 89.976563-89.976563 49.609375 0 89.972656 40.363282 89.972656 89.976563 0 18.355469-5.53125 35.441406-15.003906 49.691406l39.140625 39.140625zm-85.832031-67.125c27.5625 0 49.984375-22.421875 49.984375-49.984375s-22.421875-49.988281-49.984375-49.988281-49.988281 22.425781-49.988281 49.988281 22.425781 49.984375 49.988281 49.984375zm0 0"/>
    </symbol>

    <symbol id="activities04" role="img" aria-labelledby="activities04_title" viewBox="0 0 512 512">
        <title id="activities04_title"></title>
        <path d="m512 474.539062-51.105469-51.105468c8.75-13.871094 13.820313-30.28125 13.820313-47.855469 0-49.597656-40.347656-89.949219-89.945313-89.949219-49.597656 0-89.945312 40.351563-89.945312 89.949219 0 49.59375 40.347656 89.945313 89.945312 89.945313 17.574219 0 33.988281-5.074219 47.855469-13.824219l51.105469 51.105469zm-127.230469-48.992187c-27.554687 0-49.96875-22.417969-49.96875-49.96875 0-27.554687 22.414063-49.972656 49.96875-49.972656 27.554688 0 49.96875 22.417969 49.96875 49.972656 0 27.550781-22.414062 49.96875-49.96875 49.96875zm-105.949219 25.148437h-218.855468c-11.023438 0-19.988282-8.96875-19.988282-19.988281v-211.875h195.882813v49.96875h39.976563v-49.96875h195.882812v60.292969c19.796875 17.863281 34.082031 41.71875 39.976562 68.679688v-207.886719c0-33.066407-26.902343-59.964844-59.964843-59.964844h-106.011719v-19.988281c0-33.066406-26.898438-59.964844-59.964844-59.964844h-59.816406c-33.0625 0-59.960938 26.898438-59.960938 59.964844v19.988281h-106.011718c-33.066406 0-59.964844 26.898437-59.964844 59.964844v290.789062c0 33.0625 26.898438 59.960938 59.964844 59.960938h264.585937c-18.207031-9.5625-33.882812-23.3125-45.730469-39.972657zm-72.871093-390.730468c0-11.023438 8.96875-19.988282 19.988281-19.988282h59.816406c11.023438 0 19.988282 8.964844 19.988282 19.988282v19.988281h-99.792969zm-165.972657 79.953125c0-11.023438 8.964844-20.027344 19.988282-20.027344h391.765625c11.019531 0 19.988281 9.003906 19.988281 20.027344v38.9375h-431.742188zm0 0"/>
    </symbol>

    <symbol id="activities05" role="img" aria-labelledby="activities05_title" viewBox="0 0 512 512">
        <title id="activities05_title"></title>
        <path d="m512 428h-84v84h-40v-84h-84v-40h84v-84h40v84h84zm-212.695312-204.5625c1.757812 7.910156 2.695312 16.128906 2.695312 24.5625 0 34.550781-15.59375 65.527344-40.105469 86.269531.699219.277344 1.40625.546875 2.105469.832031v44.199219c-21.414062-11.667969-45.945312-18.300781-72-18.300781v-.039062c-.332031.007812-.667969.007812-1 .015624v.023438c-83.261719 0-151 67.738281-151 151h-40c0-79.371094 48.671875-147.582031 117.730469-176.378906-25.449219-20.734375-41.730469-52.3125-41.730469-87.621094 0-62.308594 50.691406-113 113-113 7.40625 0 14.644531.722656 21.65625 2.089844-1.734375-7.84375-2.65625-15.988282-2.65625-24.34375 0-62.167969 50.578125-112.746094 112.746094-112.746094 62.167968 0 112.746094 50.578125 112.746094 112.746094 0 34.894531-15.9375 66.136718-40.910157 86.832031 33.011719 13.109375 61.464844 35.117187 82.304688 63.421875h-53.847657c-24.847656-22.023438-56.976562-36-92.273437-37.796875-2.652344.1875-5.324219.289063-8.019531.289063-7.332032 0-14.5-.710938-21.441406-2.054688zm-51.304688-110.691406c0 40.113281 32.632812 72.746094 72.746094 72.746094 40.109375 0 72.746094-32.632813 72.746094-72.746094 0-40.113282-32.636719-72.746094-72.746094-72.746094-40.113282 0-72.746094 32.632812-72.746094 72.746094zm14 135.253906c0-40.253906-32.746094-73-73-73s-73 32.746094-73 73 32.746094 73 73 73 73-32.746094 73-73zm0 0"/>
    </symbol>

    <symbol id="arrow" role="img" aria-labelledby="arrow_title" viewBox="0 0 451.846 451.847">
        <title id="arrow_title"></title>
        <path d="M345.441,248.292L151.154,442.573c-12.359,12.365-32.397,12.365-44.75,0c-12.354-12.354-12.354-32.391,0-44.744
		L278.318,225.92L106.409,54.017c-12.354-12.359-12.354-32.394,0-44.748c12.354-12.359,32.391-12.359,44.75,0l194.287,194.284
		c6.177,6.18,9.262,14.271,9.262,22.366C354.708,234.018,351.617,242.115,345.441,248.292z"/>
    </symbol>

</svg>