<svg xmlns="http://www.w3.org/2000/svg" xmlns:xlink="http://www.w3.org/1999/xlink">

	<symbol id="header01" role="img" aria-labelledby="header01_title" viewBox="0 0 512 512">
        <title id="header01_title"></title>
        <path d="m208.128906 0h-188.109375c-11.042969 0-19.9960935 8.953125-19.9960935 20v188.0625c0 11.046875 8.9531245 20 19.9960935 20h188.109375c11.042969 0 19.996094-8.957031 19.996094-20v-188.0625c.003906-11.046875-8.953125-20-19.996094-20zm-20 188.0625h-148.109375v-148.0625h148.109375zm20 93.863281h-188.109375c-17.757812 0-26.726562 21.554688-14.136719 34.140625l188.105469 188.0625c12.515625 12.511719 34.140625 3.730469 34.140625-14.140625v-188.066406c0-11.042969-8.957031-19.996094-20-19.996094zm-20 159.785157-119.816406-119.789063h119.816406zm303.871094-441.710938h-188.105469c-11.042969 0-20 8.953125-20 20v188.0625c0 11.046875 8.957031 20 20 20h188.105469c11.046875 0 20-8.957031 20-20v-188.0625c0-11.046875-8.953125-20-20-20zm-19.996094 188.0625h-148.109375v-148.0625h148.109375zm19.996094 93.863281h-188.105469c-11.042969 0-20 8.953125-20 19.996094v188.0625c0 11.046875 8.957031 20 20 20h188.105469c11.046875 0 20-8.953125 20-20v-188.0625c0-11.042969-8.953125-19.996094-20-19.996094zm-19.996094 188.0625h-148.109375v-148.066406h148.109375zm0 0"/>
    </symbol>

	<symbol id="header03" role="img" aria-labelledby="header03_title" viewBox="0 0 512 512">
        <title id="header03_title"></title>
        <path d="M492,0H20C8.954,0,0,8.954,0,20v472c0,11.046,8.954,20,20,20h472c11.046,0,20-8.954,20-20V20C512,8.954,503.046,0,492,0z
			 M472,472H40v-65.795c61.281-42.974,140.464-62.516,216-62.516c75.506,0,154.701,19.529,216,62.516V472z M472,358.707
			c-63.305-37.091-140.295-55.018-216-55.018c-75.767,0-152.743,17.955-216,55.018V40h432V358.707z"/>
		<path d="M256,271c52.383,0,95-42.617,95-95s-42.617-95-95-95s-95,42.617-95,95S203.617,271,256,271z M256,121
			c30.327,0,55,24.673,55,55c0,30.327-24.673,55-55,55c-30.327,0-55-24.673-55-55C201,145.673,225.673,121,256,121z"/>
    </symbol>

    <symbol id="header04" role="img" aria-labelledby="header04_title" viewBox="0 0 512 512">
        <title id="header04_title"></title>
        <path d="M374,31c-58.214,0-97.482,29.5-118,50.404C235.482,60.5,196.214,31,138,31C57.044,31,0,102.857,0,187.667
			C0,318.82,130.497,419.012,246.861,478.79c5.736,2.947,12.542,2.947,18.278,0C381.563,418.982,512,318.888,512,187.667
			C512,103.007,455.085,31,374,31z M256,438.449C157.865,386.596,40,297.982,40,187.667C40,126.922,78.035,71,138,71
			c47.307,0,84.768,27.882,101.22,52.382c3.65,5.75,9.923,9.167,16.736,9.2c6.851,0.024,13.153-3.504,16.854-9.245
			C273.147,122.813,307.322,71,374,71c59.978,0,98,55.945,98,116.667C472,297.913,353.928,386.705,256,438.449z"/>
    </symbol>

    <symbol id="header05" role="img" aria-labelledby="header05_title" viewBox="0 0 512 512">
        <title id="header05_title"></title>
        <path d="m492 392.636719h-372.632812v-27.132813h314.15625c11.046874 0 20-8.957031 20-20v-167.078125c0-9.273437-6.371094-17.328125-15.394532-19.464843l-318.761718-75.414063v-24.179687c0-7.597657-4.308594-14.539063-11.113282-17.914063l-79.363281-39.363281c-9.898437-4.914063-21.898437-.867188-26.804687 9.027344-4.90625 9.894531-.863282 21.898437 9.03125 26.804687l68.25 33.851563v340.863281c0 11.046875 8.953124 20 20 20h42.738281c-2.160157 6.167969-3.351563 12.789062-3.351563 19.683593 0 32.90625 26.773438 59.679688 59.679688 59.679688 32.910156 0 59.683594-26.773438 59.683594-59.679688 0-6.894531-1.191407-13.515624-3.351563-19.683593h102.71875c-2.160156 6.167969-3.351563 12.789062-3.351563 19.683593 0 32.90625 26.773438 59.679688 59.683594 59.679688 32.90625 0 59.679688-26.773438 59.679688-59.679688 0-6.894531-1.191406-13.515624-3.351563-19.683593h21.855469c11.046875 0 20-8.953125 20-20 0-11.042969-8.953125-20-20-20zm-372.632812-267.984375 294.15625 69.59375v131.257812h-294.15625zm79.066406 347.347656c-10.851563 0-19.679688-8.828125-19.679688-19.679688 0-10.851562 8.828125-19.683593 19.679688-19.683593 10.855468 0 19.683594 8.832031 19.683594 19.683593 0 10.851563-8.828126 19.679688-19.683594 19.679688zm215.382812 0c-10.855468 0-19.683594-8.828125-19.683594-19.679688 0-10.851562 8.828126-19.683593 19.683594-19.683593 10.851563 0 19.679688 8.832031 19.679688 19.683593 0 10.851563-8.828125 19.679688-19.679688 19.679688zm0 0"/>
    </symbol>
  
    <symbol id="footer-facebook" role="img" aria-labelledby="footer-facebook_title" viewBox="0 0 512 512">
        <title id="footer-facebook_title">Facebook</title>
        <path d="M296.296,512H200.36V256h-64v-88.225l64-0.029l-0.104-51.976C200.256,43.794,219.773,0,304.556,0h70.588v88.242h-44.115
		c-33.016,0-34.604,12.328-34.604,35.342l-0.131,44.162h79.346l-9.354,88.225L296.36,256L296.296,512z"/>
    </symbol>

    <symbol id="footer-twitter" role="img" aria-labelledby="footer-twitter_title" viewBox="0 0 512.002 512.002">
        <title id="footer-twitter_title">Twitter</title>
        <path d="M512.002,97.211c-18.84,8.354-39.082,14.001-60.33,16.54c21.686-13,38.342-33.585,46.186-58.115
		c-20.299,12.039-42.777,20.78-66.705,25.49c-19.16-20.415-46.461-33.17-76.674-33.17c-58.011,0-105.042,47.029-105.042,105.039
		c0,8.233,0.929,16.25,2.72,23.939c-87.3-4.382-164.701-46.2-216.509-109.753c-9.042,15.514-14.223,33.558-14.223,52.809
		c0,36.444,18.544,68.596,46.73,87.433c-17.219-0.546-33.416-5.271-47.577-13.139c-0.01,0.438-0.01,0.878-0.01,1.321
		c0,50.894,36.209,93.348,84.261,103c-8.813,2.399-18.094,3.687-27.674,3.687c-6.769,0-13.349-0.66-19.764-1.888
		c13.368,41.73,52.16,72.104,98.126,72.949c-35.95,28.176-81.243,44.967-130.458,44.967c-8.479,0-16.84-0.496-25.058-1.471
		c46.486,29.807,101.701,47.197,161.021,47.197c193.211,0,298.868-160.062,298.868-298.872c0-4.554-0.104-9.084-0.305-13.59
		C480.111,136.775,497.92,118.275,512.002,97.211z"/>
    </symbol>

    <symbol id="footer-instagram" role="img" aria-labelledby="footer-instagram_title" viewBox="155 155 200 200">
        <title id="footer-instagram_title">Instagram</title>
        <path d="M256,227.5c-15.7,0-28.5,12.8-28.5,28.5s12.8,28.5,28.5,28.5s28.5-12.8,28.5-28.5S271.7,227.5,256,227.5z"/>
        <path d="M322.2,154.8H189.8c-19.3,0-35,15.7-35,35v132.5c0,19.3,15.7,35,35,35h132.5c19.3,0,35-15.7,35-35V189.8   C357.2,170.5,341.5,154.8,322.2,154.8z M256,314.5c-32.2,0-58.5-26.2-58.5-58.5s26.2-58.5,58.5-58.5s58.5,26.2,58.5,58.5   S288.2,314.5,256,314.5z M335.9,190.6c0,8-6.5,14.5-14.5,14.5h0c-8,0-14.5-6.5-14.5-14.5v0c0-8,6.5-14.5,14.5-14.5h0   C329.4,176.1,335.9,182.6,335.9,190.6L335.9,190.6z"/>
    </symbol>

    <symbol id="footer-linkedin" role="img" aria-labelledby="footer-linkedin_title" viewBox="0 0 93.06 93.06">
        <title id="footer-linkedin_title">Linkedin</title>
        <path d="M11.185,0.08C5.004,0.08,0.001,5.092,0,11.259c0,6.173,5.003,11.184,11.186,11.184c6.166,0,11.176-5.011,11.176-11.184
			C22.362,5.091,17.351,0.08,11.185,0.08z"/>
		<rect x="1.538" y="30.926" width="19.287" height="62.054"/>
		<path d="M69.925,29.383c-9.382,0-15.673,5.144-18.248,10.022h-0.258v-8.479H32.921H32.92v62.053h19.27V62.281
			c0-8.093,1.541-15.932,11.575-15.932c9.89,0,10.022,9.256,10.022,16.451v30.178H93.06V58.942
			C93.06,42.235,89.455,29.383,69.925,29.383z"/>
    </symbol>

</svg>