<svg xmlns="http://www.w3.org/2000/svg" xmlns:xlink="http://www.w3.org/1999/xlink">

	<symbol id="services01" role="img" aria-labelledby="services01_title" viewBox="0 0 512 512">
        <title id="services01_title"></title>
        <path d="M358.102,127.603c51.62,33.98,83.3,90.723,84.74,151.788c0.257,10.883,9.16,19.531,19.988,19.531
			c0.16,0,0.321-0.002,0.481-0.005c11.044-0.261,19.786-9.425,19.526-20.469c-0.881-37.341-11.053-74.103-29.414-106.307
			c-17.724-31.088-43.08-58.044-73.324-77.953c-9.227-6.075-21.632-3.517-27.706,5.71S348.875,121.529,358.102,127.603z"/>
		<path d="M46.179,294.904c0.29,0.013,0.577,0.019,0.865,0.019c10.655,0,19.512-8.405,19.97-19.153
			c2.711-63.682,37.504-121.106,93.071-153.609c9.536-5.578,12.745-17.83,7.167-27.366c-5.579-9.536-17.831-12.744-27.366-7.167
			C72.522,127.032,30.338,196.729,27.046,274.068C26.576,285.106,35.142,294.434,46.179,294.904z"/>
		<path d="M342.617,450.264c-26.83,14.185-57.172,21.683-87.748,21.683c-31.833,0-63.67-8.449-92.072-24.432
			c-9.627-5.419-21.824-2.006-27.242,7.621s-2.006,21.824,7.621,27.242c34.379,19.348,73.001,29.575,111.693,29.575
			c37.069,0,73.879-9.102,106.447-26.323c9.766-5.164,13.498-17.266,8.334-27.033C364.486,448.831,352.382,445.099,342.617,450.264
			z"/>
		<path d="M498.295,375.586c-30.57-26.365-109.622-86.088-213.054-143.753c8.432-12.41,19.208-17.157,20.656-17.752
			c8.148-2.735,13.132-10.207,13.117-18.818c-0.139-81.316-9.591-138.357-28.897-174.383c-6.9-12.877-20.283-20.873-34.945-20.836
			c-18.668,0.032-34.953,13.33-38.722,31.618c-2.214,10.744-21.56,108.814-21.453,252.454c-15.024-0.844-24.505-7.665-25.764-8.622
			c-6.48-5.675-15.448-6.191-22.884-1.815C55.964,326.859,20.03,365.767,5.8,389.042c-7.621,12.465-7.739,28.054-0.308,40.683
			c7.248,12.32,20.495,19.502,34.246,19.502c4.209,0,8.468-0.674,12.613-2.079c38.397-13.019,130.596-51.092,233.293-111.392
			c6.743,13.192,5.771,24.557,5.595,26.119c-1.56,8.439,2.546,16.373,10.064,20.546c92.01,51.07,143.529,62.32,170.546,62.765
			c0.22,0.004,0.438,0.005,0.658,0.005c14.352,0,27.549-7.766,34.554-20.387C516.119,408.481,512.432,387.783,498.295,375.586z
			 M40.56,408.9c8.288-13.028,35.203-45.859,115.833-94.631c11.501,5.81,30.189,12.147,53.679,9.187
			c1.769,2.018,3.672,3.916,5.693,5.681C137.064,371.444,69.767,398.888,40.56,408.9z M255.182,303.951
			c-11.03,0-20.003-8.973-20.003-20.003c0-11.03,8.973-20.003,20.003-20.003s20.003,8.973,20.003,20.003
			S266.212,303.951,255.182,303.951z M243.5,225.09c-2.564,0.508-5.066,1.189-7.502,2.013
			c3.749-104.328,16.889-173.768,19.41-186.276c14.67,28.189,22.566,76.101,23.504,142.559
			C268,190.379,252.909,203.326,243.5,225.09z M331.114,353.133c-0.882-12.67-4.9-31.643-19.033-50.161
			c0.87-2.596,1.567-5.27,2.078-8.01c76.156,46.237,133.76,90.151,157.157,110.193C456.036,404.623,414.373,398.06,331.114,353.133
			z"/>
    </symbol>

    <symbol id="services02" role="img" aria-labelledby="services02_title" viewBox="0 0 512 512">
        <title id="services02_title"></title>
        <path d="m351.109375 323.324219c13.160156-18.808594 20.890625-41.679688 20.890625-66.324219 0-63.960938-52.039062-116-116-116s-116 52.039062-116 116c0 63.964844 52.039062 116 116 116 24.902344 0 47.996094-7.890625 66.917969-21.296875l75.691406 75.691406c3.902344 3.902344 9.023437 5.855469 14.140625 5.855469s10.238281-1.953125 14.140625-5.855469c7.8125-7.8125 7.8125-20.476562 0-28.285156zm-171.109375-66.324219c0-41.90625 34.09375-76 76-76s76 34.09375 76 76-34.09375 76-76 76-76-34.09375-76-76zm332-11v20c0 33.085938-26.914062 60-60 60h-10.074219c-1.625 0-2.863281.613281-3.613281 1.128906-9.109375 6.25-21.558594 3.929688-27.804688-5.183594-6.25-9.105468-3.929687-21.558593 5.179688-27.804687 7.769531-5.324219 16.839844-8.140625 26.238281-8.140625h10.074219c11.027344 0 20-8.972656 20-20v-20c0-11.027344-8.972656-20-20-20h-10.074219c-18.90625 0-35.816406-11.378906-43.089843-28.984375l-.121094-.292969c-7.308594-17.601562-3.398438-37.613281 9.96875-50.980468l7.125-7.121094c7.796875-7.800782 7.796875-20.488282 0-28.285156l-14.144532-14.140626c-3.777343-3.777343-8.800781-5.859374-14.140624-5.859374-5.34375 0-10.367188 2.078124-14.140626 5.859374l-7.125 7.121094c-13.367187 13.367188-33.378906 17.28125-50.980468 9.964844l-.296875-.121094c-17.601563-7.269531-28.980469-24.179687-28.980469-43.085937v-10.074219c0-11.027344-8.972656-20-20-20h-20c-11.027344 0-20 8.972656-20 20v10.074219c0 18.90625-11.378906 35.816406-28.984375 43.085937l-.253906.105469c-17.644531 7.328125-37.652344 3.417969-51.019531-9.949219l-7.125-7.125c-3.773438-3.777344-8.796876-5.855468-14.140626-5.855468-5.339843 0-10.363281 2.078124-14.140624 5.855468l-14.144532 14.144532c-7.796875 7.796874-7.796875 20.484374 0 28.285156l7.125 7.121094c13.367188 13.367187 17.277344 33.378906 9.964844 50.984374l-.121094.296876c-7.269531 17.597656-24.179687 28.976562-43.085937 28.976562h-10.074219c-11.027344 0-20 8.972656-20 20v20c0 11.027344 8.972656 20 20 20h10.074219c18.902343 0 35.816406 11.378906 43.085937 28.984375l.148438.351563c7.285156 17.542968 3.375 37.554687-9.992188 50.921874l-7.125 7.121094c-3.777344 3.777344-5.855468 8.800782-5.855468 14.144532 0 5.339843 2.078124 10.363281 5.855468 14.140624l14.144532 14.144532c7.796874 7.796875 20.484374 7.800781 28.285156 0l7.121094-7.125c13.359374-13.355469 33.355468-17.273438 50.953124-9.976563l.257813.105469c17.671875 7.296875 29.046875 24.210938 29.046875 43.113281v10.074219c0 11.027344 8.972656 20 20 20h20c11.027344 0 20-8.972656 20-20v-10.074219c0-9.398437 2.816406-18.472656 8.144531-26.238281 6.246094-9.109375 18.695313-11.429688 27.804688-5.179688 9.109375 6.246094 11.429687 18.695313 5.179687 27.804688-.515625.75-1.128906 1.988281-1.128906 3.613281v10.074219c0 33.085938-26.914062 60-60 60h-20c-33.085938 0-60-26.914062-60-60v-10.074219c0-2.648437-1.667969-5.050781-4.253906-6.117187l-.363282-.152344c-2.597656-1.078125-5.484374-.5625-7.355468 1.3125l-7.125 7.125c-23.390625 23.390625-61.457032 23.390625-84.851563 0l-14.144531-14.144531c-11.332031-11.332031-17.570312-26.398438-17.570312-42.425781 0-16.027344 6.238281-31.09375 17.574218-42.425782l7.121094-7.125c1.871094-1.871094 2.386719-4.757812 1.3125-7.351562l-.164062-.390625c-1.054688-2.5625-3.457032-4.230469-6.105469-4.230469h-10.074219c-33.085938 0-60-26.914062-60-60v-20c0-33.085938 26.914062-60 60-60h10.074219c2.648437 0 5.050781-1.667969 6.117187-4.25l.148438-.363281c1.082031-2.597657.566406-5.484375-1.308594-7.359375l-7.121094-7.121094c-23.394531-23.394531-23.394531-61.460938 0-84.855469l14.140625-14.140625c11.335938-11.332031 26.402344-17.574218 42.425781-17.574218 16.027344 0 31.09375 6.242187 42.429688 17.574218l7.121094 7.121094c1.875 1.875 4.761718 2.390625 7.355468 1.3125l.359376-.152344c2.589843-1.066406 4.257812-3.46875 4.257812-6.117187v-10.074219c0-33.085938 26.917969-60 60-60h20c33.085938 0 60 26.914062 60 60v10.074219c0 2.648437 1.667969 5.050781 4.25 6.117187l.40625.167969c2.558594 1.0625 5.445312.546875 7.316406-1.328125l7.125-7.121094c11.332032-11.335937 26.398438-17.574218 42.425782-17.574218 16.023437 0 31.09375 6.238281 42.425781 17.574218l14.140625 14.140625c23.394531 23.394531 23.394531 61.460938 0 84.851563l-7.121094 7.125c-1.875 1.871094-2.390625 4.757812-1.3125 7.355468l.148438.359376c1.070312 2.585937 3.472656 4.257812 6.121093 4.257812h10.074219c33.085938 0 60 26.914062 60 60zm0 0"/>
    </symbol>

    <symbol id="services03" role="img" aria-labelledby="services03_title" viewBox="-27 0 512 512">
        <title id="services03_title"></title>
        <path d="m188 492c0 11.046875-8.953125 20-20 20h-88c-44.113281 0-80-35.886719-80-80v-352c0-44.113281 35.886719-80 80-80h245.890625c44.109375 0 80 35.886719 80 80v191c0 11.046875-8.957031 20-20 20-11.046875 0-20-8.953125-20-20v-191c0-22.054688-17.945313-40-40-40h-245.890625c-22.054688 0-40 17.945312-40 40v352c0 22.054688 17.945312 40 40 40h88c11.046875 0 20 8.953125 20 20zm117.890625-372h-206c-11.046875 0-20 8.953125-20 20s8.953125 20 20 20h206c11.042969 0 20-8.953125 20-20s-8.957031-20-20-20zm20 100c0-11.046875-8.957031-20-20-20h-206c-11.046875 0-20 8.953125-20 20s8.953125 20 20 20h206c11.042969 0 20-8.953125 20-20zm-226 60c-11.046875 0-20 8.953125-20 20s8.953125 20 20 20h105.109375c11.046875 0 20-8.953125 20-20s-8.953125-20-20-20zm355.472656 146.496094c-.703125 1.003906-3.113281 4.414062-4.609375 6.300781-6.699218 8.425781-22.378906 28.148437-44.195312 45.558594-27.972656 22.324219-56.757813 33.644531-85.558594 33.644531s-57.585938-11.320312-85.558594-33.644531c-21.816406-17.410157-37.496094-37.136719-44.191406-45.558594-1.5-1.886719-3.910156-5.300781-4.613281-6.300781-4.847657-6.898438-4.847657-16.097656 0-22.996094.703125-1 3.113281-4.414062 4.613281-6.300781 6.695312-8.421875 22.375-28.144531 44.191406-45.554688 27.972656-22.324219 56.757813-33.644531 85.558594-33.644531s57.585938 11.320312 85.558594 33.644531c21.816406 17.410157 37.496094 37.136719 44.191406 45.558594 1.5 1.886719 3.910156 5.300781 4.613281 6.300781 4.847657 6.898438 4.847657 16.09375 0 22.992188zm-41.71875-11.496094c-31.800781-37.832031-62.9375-57-92.644531-57-29.703125 0-60.84375 19.164062-92.644531 57 31.800781 37.832031 62.9375 57 92.644531 57s60.84375-19.164062 92.644531-57zm-91.644531-38c-20.988281 0-38 17.011719-38 38s17.011719 38 38 38 38-17.011719 38-38-17.011719-38-38-38zm0 0"/>
    </symbol>

    <symbol id="services04" role="img" aria-labelledby="services04_title" viewBox="0 0 512 512">
        <title id="services04_title"></title>
        <path d="m432 81.035156h-86.074219v-26.070312c0-30.308594-24.65625-54.964844-54.964843-54.964844h-69.925782c-30.304687 0-54.960937 24.65625-54.960937 54.964844v26.070312h-86.074219c-44.113281 0-80 35.890625-80 80v233c0 44.113282 35.886719 80 80 80h163c11.046875 0 20-8.953125 20-20s-8.953125-20-20-20h-163c-22.054688 0-40-17.945312-40-40v-152.035156h197v30.035156c0 11.046875 8.953125 20 20 20s20-8.953125 20-20v-30.035156h195v25.035156c0 11.046875 8.953125 20 20 20 11.042969 0 19.996094-8.953125 19.996094-20v-106c0-44.109375-35.886719-80-79.996094-80zm-225.925781-26.070312c0-8.253906 6.710937-14.964844 14.960937-14.964844h69.925782c8.25 0 14.964843 6.710938 14.964843 14.964844v26.070312h-99.851562zm-166.074219 147.035156v-40.964844c0-22.054687 17.945312-40 40-40h352c22.054688 0 40 17.945313 40 40v40.964844zm463.691406 213.871094-19.246094-13.867188c.039063-1.003906.058594-2.003906.058594-3.003906 0-1.214844-.039062-2.429688-.09375-3.644531-.019531-.390625-.042968-.78125-.066406-1.171875-.023438-.382813-.035156-.765625-.0625-1.148438l19.855469-15.164062c7.824219-5.976563 10.136719-16.753906 5.453125-25.410156l-9-16.640626c-4.707032-8.703124-15.074219-12.65625-24.378906-9.296874l-23.644532 8.53125c-2.976562-2.242188-6.113281-4.242188-9.363281-6.042969-.289063-.160157-.574219-.324219-.863281-.480469-.816406-.4375-1.640625-.855469-2.46875-1.265625-.429688-.210937-.855469-.421875-1.289063-.625-.382812-.183594-.757812-.382813-1.144531-.558594l-4.25-23.628906c-1.714844-9.523437-10.003906-16.457031-19.683594-16.457031h-19c-9.976562 0-18.425781 7.351562-19.808594 17.226562l-3.203124 22.882813c-5.886719 2.664062-11.425782 6.035156-16.507813 10.046875l-23.207031-7.246094c-9.347656-2.917969-19.4375 1.359375-23.832032 10.109375l-8.816406 17.535156c-4.492187 8.945313-1.6875 19.832031 6.570313 25.484375l18.90625 12.945313c-.066407 1.328125-.101563 2.667969-.101563 4.015625 0 1.21875.035156 2.441406.09375 3.660156.015625.417969.046875.832031.070313 1.25.027343.417969.039062.835938.074219 1.253906l-19.164063 15.179688c-7.851563 6.222656-9.890625 17.292968-4.769531 25.902344l9.378906 15.761718c4.894531 8.230469 14.941406 11.835938 23.957031 8.597656l21.96875-7.902343c4.792969 3.648437 9.972657 6.738281 15.453125 9.214843l4.253906 23.625c1.714844 9.527344 10.003907 16.457032 19.683594 16.457032h18c9.824219 0 18.195313-7.136719 19.746094-16.839844l3.683594-23.007812c6.691406-2.960938 12.925781-6.828126 18.574218-11.519532l22.730469 6.726563c9.277344 2.746093 19.199219-1.546875 23.542969-10.195313l8.085938-16.082031c4.414062-8.777344 1.796874-19.460937-6.175782-25.207031zm-139.125-19.089844c.003906-.089844.015625-.183594.019532-.273438.042968-.664062.097656-1.332031.175781-1.996093.003906-.054688.015625-.113281.019531-.171875.085938-.699219.183594-1.402344.304688-2.101563.007812-.035156.011718-.074219.019531-.109375.121093-.699218.261719-1.398437.421875-2.089844 1.675781-7.296874 5.347656-13.835937 10.417968-19.007812.125-.132812.253907-.265625.382813-.394531.40625-.402344.816406-.796875 1.238281-1.179688.082032-.074219.164063-.144531.242188-.21875.851562-.761719 1.734375-1.492187 2.648437-2.179687.0625-.046875.121094-.097656.183594-.140625 1.453125-1.085938 2.984375-2.066407 4.578125-2.949219.117188-.066406.234375-.132812.351562-.195312.5-.269532 1.011719-.53125 1.527344-.78125.160156-.082032.328125-.152344.488282-.226563.816406-.382813 1.648437-.738281 2.492187-1.066406.339844-.128907.683594-.261719 1.027344-.382813.398437-.144531.800781-.28125 1.207031-.410156.554688-.175781 1.109375-.339844 1.671875-.492188 3.351563-.917968 6.878906-1.414062 10.519531-1.414062 3.714844 0 7.308594.519531 10.726563 1.472656.554687.152344 1.105469.320313 1.652343.496094.324219.105469.648438.214844.96875.328125.484376.171875.960938.355469 1.433594.546875.453125.179688.898438.367188 1.34375.5625.480469.210938.960938.429688 1.429688.664062.351562.167969.695312.347657 1.035156.53125.386719.199219.761719.410157 1.140625.625.320313.183594.640625.359376.957031.550782.601563.367187 1.195313.75 1.78125 1.148437.285156.195313.5625.398438.84375.601563.402344.289062.796875.585937 1.1875.886718.253906.195313.503906.390626.75.589844.585938.480469 1.160156.972656 1.71875 1.484375.179688.164063.347656.332031.523438.5.441406.417969.871094.84375 1.296875 1.28125 4.878906 5.066407 8.433593 11.40625 10.117187 18.46875.125.535157.246094 1.070313.351563 1.609375.046875.246094.089843.496094.132812.742188.089844.519531.171875 1.039062.242188 1.5625.03125.246094.066406.496094.09375.742187.0625.550781.113281 1.101563.152343 1.652344.015626.21875.039063.433594.050782.652344.042968.765625.070312 1.53125.070312 2.300781 0 1.378906-.074218 2.765625-.214844 4.140625-.007812.0625-.015624.125-.023437.1875-.066406.613281-.144531 1.226563-.238281 1.835937-.039063.246094-.089844.488282-.132813.734376-.070312.410156-.140625.824218-.226562 1.234374-1.425781 6.886719-4.636719 13.121094-9.113281 18.21875-.578126.660157-1.167969 1.304688-1.78125 1.917969-.140626.136719-.285157.269531-.425782.402344-.476562.46875-.96875.917969-1.464844 1.355469-.265624.234375-.535156.472656-.808593.703125-.554688.460937-1.121094.910156-1.695313 1.339843-.363281.269532-.730468.527344-1.101562.78125-.316406.222657-.632813.433594-.953125.644532-.601563.390625-1.210938.765625-1.832031 1.125-.367188.214844-.734376.425781-1.109376.628906-.402343.214844-.808593.421875-1.21875.625-.4375.214844-.878906.417969-1.324218.617188-.46875.210937-.945313.417968-1.425782.609374-.574218.230469-1.152343.453126-1.742187.65625-.285156.097657-.570313.199219-.859375.292969-.816406.261719-1.640625.507813-2.476562.71875-3.148438.800781-6.441407 1.226563-9.832032 1.226563-3.707031 0-7.292968-.515625-10.703125-1.464844-.574219-.160156-1.140625-.332031-1.707031-.515625-.320312-.105469-.636719-.210937-.957031-.324219-.5-.175781-.992188-.367187-1.484375-.566406-.484375-.191406-.957032-.394531-1.429688-.605469-.4375-.195312-.871094-.394531-1.300781-.605469-.371094-.179687-.734375-.371093-1.097656-.5625-.355469-.1875-.707031-.382812-1.058594-.582031-.5-.289062-1-.582031-1.488281-.890625-.425782-.269531-.851563-.539062-1.269532-.824218-.332031-.226563-.660156-.464844-.984374-.703126-.347657-.253906-.691407-.511718-1.03125-.777343-.292969-.226563-.585938-.449219-.871094-.6875-.554688-.457031-1.097656-.929688-1.628906-1.414063-.246094-.226562-.484376-.460937-.726563-.691406-.371094-.363281-.738281-.730469-1.101563-1.109375-4.847656-5.046875-8.382812-11.355469-10.0625-18.386719-.132812-.554687-.257812-1.117187-.363281-1.675781-.046875-.230469-.085937-.460937-.125-.6875-.09375-.539063-.175781-1.078125-.25-1.617187-.03125-.234376-.0625-.46875-.089843-.703126-.0625-.558593-.113282-1.117187-.152344-1.679687-.015625-.207031-.039063-.417969-.050782-.628906-.042968-.765625-.070312-1.53125-.070312-2.296875 0-.734375.023438-1.472656.066406-2.214844zm0 0"/>
    </symbol>

    <symbol id="services05" role="img" aria-labelledby="services05_title" viewBox="0 0 512 512">
        <title id="services05_title"></title>
        <path d="m492 276c11.046875 0 20-8.953125 20-20s-8.953125-20-20-20h-215v-81c0-27.570312-22.429688-50-50-50h-18c-27.570312 0-50 22.429688-50 50v81h-39v-186c0-27.570312-22.429688-50-50-50h-20c-27.570312 0-50 22.429688-50 50v206c0 11.046875 8.953125 20 20 20h217v86c0 27.570312 22.429688 50 50 50h18c27.570312 0 50-22.429688 50-50v-86h39v186c0 27.570312 22.429688 50 50 50h18c27.570312 0 50-22.429688 50-50v-106c0-11.046875-8.953125-20-20-20s-20 8.953125-20 20v106c0 5.515625-4.484375 10-10 10h-18c-5.515625 0-10-4.484375-10-10v-186zm-293-121c0-5.515625 4.484375-10 10-10h18c5.515625 0 10 4.484375 10 10v81h-38zm-149-115h20c5.515625 0 10 4.484375 10 10v186h-40v-186c0-5.515625 4.484375-10 10-10zm265 322c0 5.515625-4.484375 10-10 10h-18c-5.515625 0-10-4.484375-10-10v-86h38zm27-277c0-11.046875 8.953125-20 20-20h45v-45c0-11.046875 8.953125-20 20-20s20 8.953125 20 20v45h45c11.046875 0 20 8.953125 20 20s-8.953125 20-20 20h-45v45c0 11.046875-8.953125 20-20 20s-20-8.953125-20-20v-45h-45c-11.046875 0-20-8.953125-20-20zm-172 377c0 11.046875-8.953125 20-20 20h-130c-11.046875 0-20-8.953125-20-20s8.953125-20 20-20h130c11.046875 0 20 8.953125 20 20zm0 0"/>
    </symbol>

    <symbol id="services06" role="img" aria-labelledby="services06_title" viewBox="0 0 512 512">
        <title id="services06_title"></title>
        <path d="m512 246v20c0 33.085938-26.914062 60-60 60h-10.074219c-2.648437 0-5.050781 1.667969-6.117187 4.25l-.136719.335938c-1.089844 2.625-.578125 5.511718 1.296875 7.386718 7.808594 7.808594 7.808594 20.472656 0 28.285156-7.8125 7.808594-20.472656 7.8125-28.285156 0-13.367188-13.367187-17.277344-33.378906-9.964844-50.980468l.121094-.300782c7.269531-17.597656 24.179687-28.976562 43.085937-28.976562h10.074219c11.027344 0 20-8.972656 20-20v-20c0-11.027344-8.972656-20-20-20h-10.074219c-18.90625 0-35.816406-11.378906-43.089843-28.984375l-.121094-.292969c-7.308594-17.601562-3.398438-37.613281 9.96875-50.980468l7.125-7.121094c7.796875-7.796875 7.796875-20.484375 0-28.285156l-14.144532-14.140626c-3.777343-3.777343-8.800781-5.859374-14.140624-5.859374-5.34375 0-10.367188 2.082031-14.140626 5.859374l-7.125 7.121094c-13.367187 13.367188-33.378906 17.28125-50.980468 9.96875l-.296875-.125c-17.601563-7.269531-28.980469-24.179687-28.980469-43.085937v-10.074219c0-11.027344-8.972656-20-20-20h-20c-11.027344 0-20 8.972656-20 20v10.074219c0 18.90625-11.378906 35.816406-28.984375 43.085937l-.253906.105469c-17.644531 7.328125-37.652344 3.414063-51.019531-9.949219l-7.125-7.125c-3.773438-3.777344-8.796876-5.855468-14.140626-5.855468-5.339843 0-10.363281 2.078124-14.140624 5.855468l-14.144532 14.144532c-7.796875 7.796874-7.796875 20.484374 0 28.285156l7.125 7.121094c13.367188 13.367187 17.277344 33.378906 9.964844 50.984374l-.121094.296876c-7.269531 17.597656-24.179687 28.976562-43.085937 28.976562h-10.074219c-11.027344 0-20 8.972656-20 20v20c0 11.027344 8.972656 20 20 20h10.074219c18.902343 0 35.816406 11.378906 43.085937 28.984375l.136719.324219c7.296875 17.570312 3.382813 37.582031-9.984375 50.949218l-7.121094 7.121094c-3.777344 3.777344-5.855468 8.800782-5.855468 14.144532 0 5.339843 2.078124 10.363281 5.855468 14.140624l14.144532 14.140626c7.796874 7.800781 20.484374 7.800781 28.28125 0l7.125-7.121094c13.363281-13.367188 33.375-17.277344 50.980468-9.964844l.296875.121094c17.601563 7.269531 28.980469 24.179687 28.980469 43.085937v10.074219c0 11.027344 8.972656 20 20 20h20c11.027344 0 20-8.972656 20-20v-10.074219c0-18.90625 11.378906-35.816406 28.984375-43.085937l.253906-.105469c17.640625-7.328125 37.652344-3.417969 51.019531 9.949219l7.121094 7.121094c7.800782 7.800781 20.488282 7.800781 28.285156 0 7.8125-7.808594 20.472657-7.808594 28.285157 0 7.808593 7.8125 7.808593 20.476562 0 28.285156-23.394531 23.394531-61.460938 23.394531-84.855469 0l-7.121094-7.121094c-1.875-1.875-4.761718-2.390625-7.355468-1.3125l-.359376.152344c-2.589843 1.066406-4.257812 3.46875-4.257812 6.117187v10.074219c0 33.085938-26.917969 60-60 60h-20c-33.085938 0-60-26.914062-60-60v-10.074219c0-2.648437-1.667969-5.050781-4.25-6.117187l-.40625-.167969c-2.558594-1.0625-5.441406-.546875-7.316406 1.328125l-7.125 7.121094c-23.390625 23.394531-61.457032 23.394531-84.851563 0l-14.140625-14.140625c-11.332031-11.335938-17.574218-26.402344-17.574218-42.425781 0-16.027344 6.242187-31.09375 17.574218-42.429688l7.121094-7.121094c1.875-1.875 2.390625-4.761718 1.3125-7.355468l-.148438-.359376c-1.070312-2.589843-3.472656-4.257812-6.121093-4.257812h-10.074219c-33.085938 0-60-26.914062-60-60v-20c0-33.082031 26.914062-60 60-60h10.074219c2.648437 0 5.050781-1.667969 6.117187-4.25l.148438-.363281c1.082031-2.597657.566406-5.484375-1.308594-7.359375l-7.121094-7.121094c-23.394531-23.394531-23.394531-61.457031 0-84.851562l14.140625-14.144532c11.335938-11.332031 26.402344-17.574218 42.425781-17.574218 16.027344 0 31.09375 6.242187 42.429688 17.574218l7.121094 7.121094c1.875 1.875 4.761718 2.390625 7.355468 1.3125l.359376-.152344c2.589843-1.066406 4.257812-3.46875 4.257812-6.117187v-10.074219c0-33.085938 26.917969-60 60-60h20c33.085938 0 60 26.914062 60 60v10.074219c0 2.648437 1.667969 5.050781 4.25 6.117187l.40625.167969c2.558594 1.0625 5.445312.546875 7.316406-1.328125l7.125-7.121094c11.332032-11.335937 26.398438-17.574218 42.425782-17.574218 16.023437 0 31.09375 6.238281 42.425781 17.574218l14.140625 14.140625c23.394531 23.394531 23.394531 61.460938 0 84.851563l-7.121094 7.125c-1.875 1.871094-2.390625 4.757812-1.3125 7.355468l.148438.359376c1.070312 2.585937 3.472656 4.257812 6.121093 4.257812h10.074219c33.085938 0 60 26.914062 60 60zm-256.019531 140c11.046875 0 20-8.953125 20-20v-11.582031c27.511719-3.84375 48.019531-26.472657 48.019531-54.667969v-9.5c0-31.042969-25.285156-56.296875-56.367188-56.296875h-18.324218c-8.964844 0-16.253906-7.421875-16.253906-16.542969v-2.703125c0-8.953125 6.984374-15.707031 16.253906-15.707031h17.328125c5.09375 0 10.363281 3.410156 10.363281 9.117188 0 11.042968 8.953125 20 20 20s20-8.957032 20-20c0-23.96875-17.699219-43.972657-41.019531-48.257813v-12.859375c0-11.046875-8.953125-20-20-20s-20 8.953125-20 20v13.546875c-9.898438 2.339844-18.964844 7.273437-26.320313 14.46875-10.710937 10.480469-16.605468 24.574219-16.605468 39.691406v2.703125c0 31.179688 25.234374 56.542969 56.253906 56.542969h18.324218c9.023438 0 16.367188 7.3125 16.367188 16.296875v9.5c0 8.691406-7.035156 15.25-16.367188 15.25h-29.78125c-5.640624 0-9.890624-4.035156-9.890624-9.390625 0-11.042969-8.953126-20-20-20-11.046876 0-20 8.957031-20 20 0 13.398437 5.25 25.898437 14.78125 35.207031 8.929687 8.714844 20.671874 13.6875 33.238281 14.140625v11.042969c0 11.046875 8.953125 20 20 20zm0 0"/>
    </symbol>

	<symbol id="pew" role="img" aria-labelledby="pew_title" viewBox="0 0 452.589 452.59">
        <title id="pew_title"></title>
        <path d="M375.786,368.016c-1.022,62.699-34.434,85.385-69.898,83.283c-35.465-2.093-60.132-18.537-85.32-18.537l-1.032,0.576
			c-25.188,0-49.854,17.021-85.319,19.114c-35.466,2.093-68.876-19.449-69.898-82.148c2.056-57.565,45.911-61.798,83.265-129.8
			c32.891-59.881,71.954-55.035,71.954-55.035h1.03c0,0,39.4-4.586,71.955,55.035C329.698,308.599,373.73,310.449,375.786,368.016z
			 M156.203,159.636c31.413-2.382,54.172-40.021,50.832-84.071c-3.34-44.049-31.514-77.828-62.927-75.446
			C112.695,2.501,89.936,40.141,93.276,84.19C96.616,128.239,124.789,162.018,156.203,159.636z M275.264,160.401
			c30.698,8.368,65.097-19.742,76.83-62.786c11.732-43.044-3.642-84.722-34.339-93.09c-30.698-8.368-65.097,19.742-76.829,62.786
			C229.193,110.354,244.566,152.033,275.264,160.401z M417.486,125.937c-26.732-7.288-56.688,17.19-66.905,54.674
			c-10.217,37.484,3.171,73.777,29.903,81.064c26.733,7.287,56.688-17.191,66.906-54.675
			C457.608,169.518,444.22,133.224,417.486,125.937z M102.008,180.608c-10.218-37.482-40.172-61.961-66.905-54.674
			s-40.122,43.581-29.904,81.064c10.218,37.482,40.173,61.961,66.906,54.674C98.837,254.386,112.225,218.092,102.008,180.608z"/>
    </symbol>

    <symbol id="competencies01" role="img" aria-labelledby="competencies01_title" viewBox="0 0 512 512">
        <title id="competencies01_title"></title>
        <polygon points="153.858,359.246 182.143,387.531 236,333.673 236,512 276,512 276,332.896 330.634,387.531 358.919,359.247 
			256.389,256.716 			"/>
		<path d="M324.342,268.101C343.813,248.018,356,219.486,356,187.878C356,127.224,311.141,78,256,78s-100,49.224-100,109.878
			c0,31.815,12.347,60.513,32.041,80.616l28.227-28.227C203.849,227.433,196,208.71,196,187.878c0-38.598,26.916-70,60-70
			s60,31.402,60,70c0,20.618-7.684,39.177-19.882,51.999L324.342,268.101z"/>
		<path d="M452,0H60C26.916,0,0,26.916,0,60v256c0,33.084,26.916,60,60,60h60v-60c0-33.084-26.916-60-60-60c-6.989,0-20,0-20-32
			v-72c0-32,13.011-32,20-32c33.084,0,60-26.916,60-60c0-11.589,12.617-20,30-20h212c17.383,0,30,8.411,30,20
			c0,33.084,26.916,60,60,60c6.989,0,20,0,20,32v72c0,32-13.011,32-20,32c-33.084,0-60,26.916-60,60v60h60
			c33.084,0,60-26.916,60-60V60C512,26.916,485.084,0,452,0z M60,296c11.028,0,20,8.972,20,20v20H60c-11.028,0-20-8.972-20-20
			v-23.027C46.144,294.965,52.839,296,60,296z M80,60c0,11.028-8.972,20-20,20c-7.161,0-13.856,1.036-20,3.027V60
			c0-11.028,8.972-20,20-20h23.707C81.308,46.206,80,52.919,80,60z M472,316c0,11.028-8.972,20-20,20h-20v-20
			c0-11.028,8.972-20,20-20c7.161,0,13.856-1.035,20-3.027V316z M472,83.027C465.856,81.036,459.161,80,452,80
			c-11.028,0-20-8.972-20-20c0-7.081-1.308-13.794-3.707-20H452c11.028,0,20,8.972,20,20V83.027z"/>
		<circle cx="415" cy="188" r="20"/>
		<circle cx="97" cy="186" r="20"/>
    </symbol>

    <symbol id="competencies02" role="img" aria-labelledby="competencies02_title" viewBox="0 0 512 512">
        <title id="competencies02_title"></title>
        <path d="m497.074219 120.996094c-9.902344-23.90625-24.195313-45.300782-42.480469-63.589844-18.285156-18.285156-39.683594-32.578125-63.589844-42.480469-23.90625-9.90625-49.144531-14.925781-75.003906-14.925781h-20v216h216v-20c0-25.859375-5.019531-51.097656-14.925781-75.003906zm-123.160157-69.746094-37.914062 37.914062v-47.851562c13.015625 1.710938 25.765625 5.074219 37.914062 9.9375zm-37.914062 94.484375 74.105469-74.105469c5.707031 4.292969 11.125 8.984375 16.203125 14.0625 5.074218 5.074219 9.765625 10.496094 14.0625 16.199219l-74.105469 74.109375h-30.265625zm86.832031 30.265625 37.914063-37.914062c4.863281 12.148437 8.230468 24.898437 9.941406 37.914062zm-166.832031-136h-20c-63.039062 0-122.304688 24.546875-166.878906 69.121094-44.574219 44.574218-69.121094 103.839844-69.121094 166.878906s24.546875 122.304688 69.121094 166.878906c44.574218 44.574219 103.839844 69.121094 166.878906 69.121094s122.304688-24.546875 166.878906-69.121094c44.574219-44.574218 69.121094-103.839844 69.121094-166.878906v-20h-216zm174.988281 256c-10.046875 98.71875-93.660156 176-194.988281 176-108.074219 0-196-87.925781-196-196 0-101.328125 77.28125-184.941406 176-194.988281v214.988281zm0 0"/>
    </symbol>

    <symbol id="competencies03" role="img" aria-labelledby="competencies03_title" viewBox="0 0 512 512">
        <title id="competencies03_title"></title>
        <path d="m45 193h-45v-40h45zm-26.574219 79.003906 17.996094 35.722656 42.4375-21.375-17.996094-35.722656zm59.433594-215.410156-41.4375-20.871094-17.996094 35.722656 41.4375 20.875zm355.28125 229.757812 42.4375 21.375 17.996094-35.722656-42.4375-21.375zm60.433594-214.90625-17.996094-35.722656-41.4375 20.871094 17.996094 35.726562zm-26.574219 81.554688v40h45v-40zm-182-76-111 144h73.949219l-19.949219 94 111-134h-75.554688zm142.996094 93.855469h.003906l-.003906 1.144531c-.3125 66.597656-27.902344 105.011719-52.261719 138.929688-21.796875 30.351562-40.625 56.5625-40.625 101.070312v40c0 33.085938-26.914063 60-60 60h-38.222656c-33.082031 0-60-26.914062-60-60v-40c0-43.914062-18.757813-70.128906-40.476563-100.480469-24.429687-34.132812-52.09375-72.800781-52.40625-139.519531h-.003906l.003906-1.144531c.617188-94.316407 77.535156-170.855469 171.996094-170.855469s171.378906 76.539062 171.996094 170.855469zm-132.886719 281.144531v-39h-78.222656v39c0 11.027344 8.972656 20 20 20h38.222656c11.03125 0 20-8.972656 20-20zm92.890625-280.511719c-.273438-72.550781-59.382812-131.488281-132-131.488281s-131.726562 58.9375-132 131.488281c.167969 54.191407 21.917969 84.582031 44.9375 116.753907 17.621094 24.621093 35.6875 49.875 43.6875 84.757812h86.675781c7.988281-35.34375 26.195313-60.6875 43.945313-85.402344 22.925781-31.921875 44.582031-62.082031 44.753906-116.109375zm0 0"/>
    </symbol>

    <symbol id="competencies04" role="img" aria-labelledby="competencies04_title" viewBox="-10 0 512 512">
        <title id="competencies04_title"></title>
        <path d="m451.910156 307.378906v-102.859375c23.269532-8.253906 39.988282-30.480469 39.988282-56.550781 0-33.074219-26.910157-59.988281-59.984376-59.988281-15.136718 0-28.972656 5.648437-39.535156 14.929687l-86.613281-47.226562c-2.214844-31.074219-28.1875-55.683594-59.816406-55.683594-31.824219 0-57.925781 24.914062-59.859375 56.261719l-86.378906 46.8125c-10.589844-9.382813-24.5-15.09375-39.722657-15.09375-33.078125 0-59.988281 26.914062-59.988281 59.988281 0 26.070312 16.71875 48.292969 39.992188 56.550781v102.859375c-23.273438 8.253906-39.992188 30.480469-39.992188 56.546875 0 33.078125 26.910156 59.988281 59.988281 59.988281 15.1875 0 29.070313-5.6875 39.648438-15.027343l86.453125 46.851562c1.933594 31.347657 28.035156 56.261719 59.859375 56.261719 31.628906 0 57.601562-24.609375 59.820312-55.683594l86.683594-47.265625c10.554687 9.242188 24.359375 14.863281 39.460937 14.863281 33.078126 0 59.988282-26.910156 59.988282-59.988281-.003906-26.066406-16.722656-48.292969-39.992188-56.546875zm-79.984375 56.546875c0 3.503907.316407 6.933594.898438 10.273438l-78.289063 42.6875c-10.910156-15.046875-28.617187-24.863281-48.585937-24.863281-19.800781 0-37.382813 9.648437-48.3125 24.484374l-78.515625-42.546874c.550781-3.265626.855468-6.613282.855468-10.035157 0-26.066406-16.71875-48.292969-39.992187-56.546875v-102.859375c23.273437-8.253906 39.992187-30.480469 39.992187-56.550781 0-3.386719-.300781-6.703125-.839843-9.9375l78.496093-42.539062c10.933594 14.835937 28.515626 24.484374 48.316407 24.484374 19.96875 0 37.675781-9.816406 48.585937-24.863281l78.269532 42.675781c-.566407 3.3125-.878907 6.710938-.878907 10.179688 0 26.070312 16.71875 48.292969 39.992188 56.550781v102.859375c-23.273438 8.253906-39.992188 30.480469-39.992188 56.546875zm59.988281-235.953125c11.023438 0 19.996094 8.972656 19.996094 19.996094 0 11.027344-8.972656 19.996094-19.996094 19.996094-11.027343 0-19.996093-8.96875-19.996093-19.996094 0-11.023438 8.96875-19.996094 19.996093-19.996094zm-185.964843-87.980468c11.027343 0 19.996093 8.96875 19.996093 19.996093 0 11.023438-8.96875 19.996094-19.996093 19.996094-11.023438 0-19.996094-8.972656-19.996094-19.996094 0-11.027343 8.972656-19.996093 19.996094-19.996093zm-185.960938 87.980468c11.023438 0 19.996094 8.972656 19.996094 19.996094 0 11.027344-8.972656 19.996094-19.996094 19.996094-11.027343 0-19.996093-8.96875-19.996093-19.996094 0-11.023438 8.96875-19.996094 19.996093-19.996094zm0 255.949219c-11.027343 0-19.996093-8.96875-19.996093-19.996094 0-11.027343 8.96875-19.996093 19.996093-19.996093 11.023438 0 19.996094 8.96875 19.996094 19.996093 0 11.027344-8.972656 19.996094-19.996094 19.996094zm185.960938 88.085937c-11.023438 0-19.996094-8.96875-19.996094-19.996093 0-11.023438 8.972656-19.996094 19.996094-19.996094 11.027343 0 19.996093 8.972656 19.996093 19.996094 0 11.027343-8.96875 19.996093-19.996093 19.996093zm185.964843-88.085937c-11.027343 0-19.996093-8.96875-19.996093-19.996094 0-11.027343 8.96875-19.996093 19.996093-19.996093 11.023438 0 19.996094 8.96875 19.996094 19.996093 0 11.027344-8.972656 19.996094-19.996094 19.996094zm-134.65625-129.769531c8.5625-11.007813 13.679688-24.820313 13.679688-39.8125 0-35.835938-29.152344-64.988282-64.988281-64.988282-35.832031 0-64.984375 29.152344-64.984375 64.988282 0 14.992187 5.117187 28.804687 13.675781 39.8125-29.132813 17.492187-48.671875 49.394531-48.671875 85.777344h39.992188c0-33.074219 26.910156-59.988282 59.988281-59.988282s59.988281 26.914063 59.988281 59.988282h39.992188c0-36.382813-19.539063-68.285157-48.671876-85.777344zm-51.308593-64.808594c13.78125 0 24.996093 11.210938 24.996093 24.996094 0 13.78125-11.214843 24.992187-24.996093 24.992187s-24.992188-11.210937-24.992188-24.992187c0-13.785156 11.210938-24.996094 24.992188-24.996094zm0 0"/>
    </symbol>

    <symbol id="competencies05" role="img" aria-labelledby="competencies05_title" viewBox="0 0 512 512">
        <title id="competencies05_title"></title>
        <path d="m332 257h40c0 63.960938-52.035156 116-116 116s-116-52.039062-116-116h40c0 41.90625 34.09375 76 76 76s76-34.09375 76-76zm154.480469-3.222656-11.230469 3.222656h-3.25v.933594l-61.96875 17.785156-2.449219 11.835938c-3.914062 18.90625-11.363281 36.816406-22.140625 53.230468l-6.753906 10.289063 31.640625 54.960937-4.292969 4.292969-54.960937-31.644531-10.289063 6.753906c-16.414062 10.777344-34.324218 18.226562-53.230468 22.140625l-12.097657 2.507813-16.46875 61.914062h-5.976562l-16.46875-61.914062-12.097657-2.503907c-18.910156-3.914062-36.816406-11.363281-53.234374-22.140625l-10.289063-6.753906-54.960937 31.640625-4.292969-4.292969 31.644531-54.957031-6.753906-10.289063c-10.777344-16.417968-18.226563-34.324218-22.140625-53.234374l-2.449219-11.832032-61.96875-17.789062v-.933594h-3.25l-11.230469-3.222656-.925781 3.222656h-24.59375v31.066406l68.125 19.554688c4.253906 15.488281 10.433594 30.367187 18.460938 44.449218l-34.875 60.574219 47.644531 47.644531 60.574219-34.875c14.003906 7.984376 28.792968 14.136719 44.191406 18.390626l18.140625 68.195312h67.476562l18.140625-68.195312c15.398438-4.253907 30.1875-10.40625 44.191406-18.390626l60.574219 34.875 47.644531-47.644531-34.875-60.574219c8.027344-14.082031 14.207032-28.960937 18.460938-44.449218l68.125-19.554688v-31.066406h-24.59375zm-446.480469-36.777344h-40c0-36.734375 20.183594-68.839844 50.039062-85.824219-6.335937-9.511719-10.039062-20.917969-10.039062-33.175781 0-33.085938 26.914062-60 60-60s60 26.914062 60 60c0 12.703125-3.980469 24.492188-10.742188 34.203125 5.839844 3.480469 11.3125 7.570313 16.332032 12.210937 9.902344-12.3125 22.265625-22.566406 36.335937-30.011718-9.945312-12.089844-15.925781-27.5625-15.925781-44.402344 0-38.597656 31.402344-70 70-70s70 31.402344 70 70c0 16.839844-5.980469 32.3125-15.925781 44.402344 14.070312 7.445312 26.433593 17.699218 36.339843 30.011718 5.019532-4.640624 10.492188-8.730468 16.332032-12.210937-6.765625-9.710937-10.746094-21.5-10.746094-34.203125 0-33.085938 26.914062-60 60-60s60 26.914062 60 60c0 12.257812-3.703125 23.664062-10.039062 33.175781 29.855468 16.984375 50.039062 49.089844 50.039062 85.824219h-40c0-32.347656-26.316406-58.667969-58.667969-58.667969-18.722656 0-35.878906 8.726563-46.847656 23.320313 3.578125 11.148437 5.515625 23.027344 5.515625 35.347656h-40c0-41.90625-34.09375-76-76-76s-76 34.09375-76 76h-40c0-12.320312 1.9375-24.199219 5.515625-35.347656-10.96875-14.59375-28.125-23.316406-46.847656-23.316406-32.351563-.003907-58.667969 26.316406-58.667969 58.664062zm352-119c0 11.027344 8.972656 20 20 20s20-8.972656 20-20-8.972656-20-20-20-20 8.972656-20 20zm-166-28c0 16.542969 13.457031 30 30 30s30-13.457031 30-30-13.457031-30-30-30-30 13.457031-30 30zm-146 28c0 11.027344 8.972656 20 20 20s20-8.972656 20-20-8.972656-20-20-20-20 8.972656-20 20zm0 0"/>
    </symbol>

    <symbol id="competencies06" role="img" aria-labelledby="competencies06_title" viewBox="0 0 512 512">
        <title id="competencies06_title"></title>
        <path d="m236 76h40v200h-152v-40h112zm240.132812 303h35.867188v40h-35.867188c-1.894531 7.328125-4.816406 14.242188-8.582031 20.605469l25.394531 25.394531-28.285156 28.285156-25.394531-25.394531c-6.261719 3.703125-13.0625 6.585937-20.265625 8.480469v35.628906h-40v-35.453125c-7.453125-1.890625-14.484375-4.835937-20.941406-8.65625l-25.394532 25.394531-28.285156-28.285156 25.394532-25.394531c-3.765626-6.363281-6.6875-13.277344-8.578126-20.605469h-36.195312v-40h36.195312c1.890626-7.328125 4.8125-14.246094 8.578126-20.605469l-25.394532-25.394531 28.285156-28.285156 25.394532 25.394531c6.457031-3.820313 13.488281-6.765625 20.941406-8.65625v-35.453125h40v35.628906c7.203125 1.894532 14.003906 4.777344 20.265625 8.480469l25.394531-25.394531 28.285156 28.285156-25.394531 25.394531c3.765625 6.363281 6.6875 13.277344 8.582031 20.605469zm-77.472656 60c22.058594 0 40-17.945312 40-40s-17.941406-40-40-40c-8.585937 0-16.542968 2.730469-23.066406 7.355469l-9.578125 9.574219c-4.625 6.523437-7.355469 14.480468-7.355469 23.070312 0 22.054688 17.945313 40 40 40zm-142.660156 33c-119.101562 0-216-96.898438-216-216s96.898438-216 216-216 216 96.898438 216 216c0 2.710938-.066406 5.402344-.167969 8.089844 13.964844 7.605468 26.621094 17.316406 37.550781 28.703125 1.726563-12.082031 2.617188-24.367188 2.617188-36.792969 0-68.378906-26.628906-132.667969-74.980469-181.019531-48.351562-48.351563-112.640625-74.980469-181.019531-74.980469s-132.667969 26.628906-181.019531 74.980469c-48.351563 48.351562-74.980469 112.640625-74.980469 181.019531s26.628906 132.667969 74.980469 181.019531c48.351562 48.351563 112.640625 74.980469 181.019531 74.980469 12.21875 0 24.300781-.867188 36.191406-2.539062-11.355468-10.949219-21.039062-23.625-28.609375-37.609376-2.519531.089844-5.042969.148438-7.582031.148438zm0 0"/>
    </symbol>

    <symbol id="competencies07" role="img" aria-labelledby="competencies07_title" viewBox="0 0 512 512">
        <title id="competencies07_title"></title>
        <path d="m512 66v120h-120v-40h50.023438c-38.390626-65.347656-108.171876-106-186.023438-106-119.101562 0-216 96.898438-216 216h-40c0-68.378906 26.628906-132.667969 74.980469-181.019531 48.351562-48.351563 112.640625-74.980469 181.019531-74.980469 52.589844 0 103.121094 15.832031 146.132812 45.78125 28.132813 19.589844 51.761719 44.269531 69.867188 72.703125v-52.484375zm-255 406c-77.851562 0-147.632812-40.652344-186.023438-106h48.023438v-40h-119v120h40v-54.0625c18.230469 29.101562 42.214844 54.332031 70.867188 74.28125 43.011718 29.949219 93.542968 45.78125 146.132812 45.78125 68.339844 0 132.464844-26.644531 180.5625-75.023438 48-48.285156 74.4375-112.554687 74.4375-180.976562h-40c0 119.101562-96.449219 216-215 216zm20-248c0-11.046875-8.953125-20-20-20s-20 8.953125-20 20 8.953125 20 20 20 20-8.953125 20-20zm-81.6875 109.160156c-32.722656-41.375-49.3125-77.558594-49.3125-107.554687v-2.753907c0-60.625 49.347656-109.949218 110-109.949218s110 49.324218 110 109.949218v2.753907c0 29.996093-16.589844 66.179687-49.3125 107.554687-23.199219 29.332032-46.148438 50.632813-47.113281 51.527344l-13.574219 12.546875-13.574219-12.546875c-.96875-.894531-23.914062-22.195312-47.113281-51.527344zm31.050781-25.226562c10.695313 13.566406 21.503907 25.414062 29.636719 33.871094 8.132812-8.457032 18.9375-20.304688 29.636719-33.871094 26.027343-32.996094 40.363281-62.238282 40.363281-82.328125v-2.753907c0-38.570312-31.402344-69.949218-70-69.949218s-70 31.378906-70 69.949218v2.753907c0 20.089843 14.335938 49.332031 40.363281 82.328125zm0 0"/>
    </symbol>

    <symbol id="competencies08" role="img" aria-labelledby="competencies08_title" viewBox="0 0 512 512">
        <title id="competencies08_title"></title>
        <path d="m512 236h-50.972656c-9.453125-97.65625-87.371094-175.574219-185.027344-185.027344v-50.972656h-40v50.972656c-97.65625 9.453125-175.574219 87.371094-185.027344 185.027344h-50.972656v40h50.972656c9.453125 97.65625 87.371094 175.574219 185.027344 185.027344v50.972656h40v-50.972656c97.65625-9.453125 175.574219-87.371094 185.027344-185.027344h50.972656zm-256 186c-84.765625 0-154.882812-63.863281-164.789062-146h50.789062v-40h-50.789062c9.90625-82.136719 80.023437-146 164.789062-146s154.882812 63.863281 164.792969 146h-50.792969v40h50.792969c-9.910157 82.136719-80.027344 146-164.792969 146zm62-124.425781c0 16.109375-6.351562 31.410156-17.882812 43.074219-6.664063 6.742187-14.550782 11.738281-23.117188 14.78125v32.570312h-40v-32.523438c-8.53125-2.992187-16.382812-7.898437-23.019531-14.515624-11.59375-11.5625-17.980469-26.820313-17.980469-42.960938v-8h40v8c0 11.316406 9.617188 20.875 21 20.875 11.1875 0 21-9.953125 21-21.300781 0-8.722657-9.59375-14.660157-29.953125-25.230469l-.265625-.136719c-16-8.308593-45.78125-23.773437-45.78125-61.550781 0-22.757812 14.535156-42.242188 35-50.085938v-32.570312h40v32.472656c6.714844 2.511719 12.90625 6.285156 18.21875 11.21875 10.820312 10.039063 16.78125 23.644532 16.78125 38.308594v5h-40v-5c0-8.214844-7.625-13.125-15-13.125-8.269531 0-15 6.183594-15 13.78125 0 10.707031 4.980469 16.0625 24.214844 26.050781l.261718.136719c11.175782 5.800781 22.726563 11.800781 32.144532 20.074219 12.859375 11.300781 19.378906 24.976562 19.378906 40.65625zm0 0"/>
    </symbol>

    <symbol id="competencies09" role="img" aria-labelledby="competencies09_title" viewBox="0 0 512 512">
        <title id="competencies09_title"></title>
        <path d="M368.678,285.929c10.482-39.696-0.724-82.421-30.219-111.917c-32.689-32.69-81.639-42.912-124.697-26.041l-28.459,11.151  l60.396,60.397c7.219,7.218,7.219,18.962,0,26.18c-3.496,3.497-8.146,5.423-13.09,5.423s-9.594-1.926-13.09-5.423l-60.397-60.396  l-11.15,28.458c-16.873,43.059-6.651,92.006,26.041,124.699c29.496,29.494,72.217,40.698,111.916,30.218l126.184,126.185  C423.164,505.913,437.858,512,453.487,512c15.631,0,30.324-6.087,41.375-17.138c22.813-22.814,22.813-59.936,0-82.75  L368.678,285.929z M466.577,466.578c-3.496,3.496-8.145,5.422-13.09,5.422c-4.944,0-9.594-1.926-13.09-5.423L296.303,322.482  l-12.186,4.775c-28.256,11.072-60.372,4.364-81.82-17.082c-12.915-12.915-20.484-29.698-22.047-47.177l10.984,10.985  c11.052,11.051,25.746,17.138,41.375,17.138s30.323-6.087,41.375-17.138c22.813-22.814,22.813-59.936,0-82.75L263,180.251  c17.477,1.563,34.262,9.133,47.175,22.045c21.449,21.45,28.154,53.566,17.083,81.821l-4.775,12.186l144.095,144.095  C473.796,447.615,473.796,459.359,466.577,466.578z M512,222.26v67.48l-65.516,17.426l-32.694-32.694L472,258.988v-5.977  l-61.915-16.469l-2.504-12.099c-3.913-18.905-11.361-36.815-22.14-53.231l-6.755-10.289l31.644-54.961l-4.293-4.294l-54.962,31.646  l-10.29-6.756c-16.413-10.777-34.322-18.226-53.229-22.14l-12.099-2.505L258.988,40h-5.977l-16.469,61.914l-12.099,2.505  c-18.907,3.914-36.816,11.362-53.229,22.14l-10.29,6.756l-54.962-31.646l-4.293,4.294l31.644,54.961l-6.755,10.289  c-10.778,16.416-18.227,34.326-22.14,53.231l-2.504,12.099L40,253.012v5.977l61.914,16.469l2.505,12.099  c3.914,18.907,11.362,36.817,22.14,53.231l6.755,10.289l-31.644,54.96l4.293,4.294l54.961-31.644l10.289,6.755  c16.415,10.777,34.324,18.226,53.231,22.14l12.099,2.504L253.012,472h5.977l15.483-58.21l32.694,32.694L289.74,512h-67.48  l-18.139-68.196c-15.398-4.252-30.188-10.406-44.191-18.389l-60.574,34.876l-47.646-47.647l34.876-60.573  c-7.982-14.003-14.137-28.793-18.389-44.191L0,289.74v-67.48l68.196-18.139c4.251-15.397,10.405-30.188,18.389-44.191L51.709,99.355  l47.646-47.647l60.574,34.877c14.002-7.981,28.794-14.137,44.191-18.389L222.26,0h67.48l18.139,68.196  c15.397,4.252,30.189,10.407,44.191,18.389l60.574-34.877l47.646,47.647l-34.876,60.574c7.983,14.004,14.138,28.794,18.389,44.191  L512,222.26z"/>
    </symbol>

    <symbol id="competencies10" role="img" aria-labelledby="competencies10_title" viewBox="0 0 512 512">
        <title id="competencies10_title"></title>
        <path d="m45 192h-45v-40h45zm-26.574219 79 17.992188 35.726562 42.441406-21.371093-17.992187-35.726563zm59.433594-215.40625-41.441406-20.871094-17.992188 35.726563 41.441407 20.867187zm415.714844 14.855469-17.992188-35.726563-41.441406 20.871094 17.992187 35.722656zm-236.574219 49.550781c28.121094 0 51 22.878906 51 51h40c0-50.179688-40.820312-91-91-91zm210 32v40h45v-40zm9.132812 221h35.867188v40h-35.867188c-1.894531 7.328125-4.816406 14.242188-8.582031 20.605469l25.394531 25.394531-28.285156 28.285156-25.394531-25.394531c-6.261719 3.703125-13.0625 6.585937-20.265625 8.480469v35.628906h-40v-35.453125c-7.453125-1.890625-14.484375-4.835937-20.941406-8.65625l-25.394532 25.394531-28.285156-28.285156 25.394532-25.394531c-3.765626-6.363281-6.6875-13.277344-8.578126-20.605469h-36.195312v-40h36.195312c1.890626-7.328125 4.8125-14.246094 8.578126-20.605469l-25.394532-25.394531 28.285156-28.285156 25.394532 25.394531c6.457031-3.820313 13.488281-6.765625 20.941406-8.65625v-35.453125h40v35.628906c7.203125 1.894532 14.003906 4.777344 20.265625 8.480469l25.394531-25.394531 28.285156 28.285156-25.394531 25.394531c3.765625 6.363281 6.6875 13.277344 8.582031 20.605469zm-77.472656 60c22.058594 0 40-17.945312 40-40s-17.941406-40-40-40c-8.585937 0-16.542968 2.730469-23.066406 7.355469l-9.578125 9.574219c-4.625 6.523437-7.355469 14.480468-7.355469 23.070312 0 22.054688 17.945313 40 40 40zm-131.300781 39h-30.472656c-11.027344 0-20-8.972656-20-20v-39h29.113281v-40h-31.433594c-6.480468-35.558594-25.5-60.585938-44.007812-84.941406-23.851563-31.386719-46.386719-61.042969-46.558594-116.566406.273438-72.554688 59.382812-131.492188 132-131.492188s131.726562 58.9375 132 131.492188c-.09375 30.171874-6.796875 52.695312-16.71875 72.019531 8.988281-1.644531 18.253906-2.511719 27.71875-2.511719 5.660156 0 11.242188.316406 16.742188.914062 7.339843-19.453124 12.128906-42.183593 12.253906-69.914062l.003906-1.144531h-.003906c-.617188-94.316407-77.535156-170.855469-171.996094-170.855469s-171.378906 76.539062-171.996094 170.855469l-.003906 1.144531h.003906c.316406 68.6875 29.203125 106.699219 54.707032 140.261719 21.328124 28.070312 38.289062 50.242187 38.289062 87.148437v52.589844c0 33.085938 26.804688 60 59.890625 60h38.222656c7.667969 0 15-1.460938 21.746094-4.097656-11.558594-10.371094-21.523437-22.472656-29.5-35.902344zm0 0"/>
    </symbol>

    <symbol id="competencies11" role="img" aria-labelledby="competencies11_title" viewBox="0 0 512 512">
        <title id="competencies11_title"></title>
        <path d="m282.132812 362c71.757813 0 130.132813-58.378906 130.132813-130.132812 0-18.804688-4.109375-37.167969-12.21875-54.578126l-12.035156-25.835937-72.433594 72.082031c-3.351563 3.355469-7.808594 5.199219-12.550781 5.199219-4.746094 0-9.203125-1.84375-12.558594-5.203125-3.355469-3.351562-5.203125-7.8125-5.203125-12.554688 0-4.746093 1.847656-9.203124 5.238281-12.59375l72.042969-72.394531-25.835937-12.035156c-17.40625-8.109375-35.769532-11.953125-54.578126-11.953125-71.753906 0-130.132812 58.113281-130.132812 129.867188 0 14.191406 2.300781 28.085937 6.851562 41.476562l-141.835937 139.960938-.09375.089843c-10.910156 10.910157-16.921875 25.417969-16.921875 40.84375 0 15.433594 6.011719 29.9375 16.917969 40.839844 10.90625 10.914063 25.410156 16.921875 40.84375 16.921875 15.40625 0 29.894531-5.992188 40.792969-16.871094l141.917968-140.042968c13.445313 4.59375 27.402344 6.914062 41.660156 6.914062zm-211.722656 104.703125-.097656.097656c-3.351562 3.351563-7.808594 5.199219-12.550781 5.199219-4.746094 0-9.203125-1.847656-12.558594-5.203125s-5.203125-7.8125-5.203125-12.558594c0-4.722656 1.835938-9.164062 5.164062-12.515625l161.265626-159.132812-5.949219-12.78125c-5.628907-12.078125-8.480469-24.84375-8.480469-37.941406 0-49.699219 40.433594-90.132813 90.132812-90.132813 2.664063 0 5.3125.121094 7.953126.363281l-27.898438 28.03125c-10.910156 10.910156-16.921875 25.417969-16.921875 40.84375 0 15.429688 6.011719 29.933594 16.917969 40.839844 10.90625 10.910156 25.414062 16.921875 40.84375 16.921875 15.433594 0 29.9375-6.011719 40.804687-16.882813l28.074219-27.9375c.238281 2.636719.359375 5.289063.359375 7.953126 0 49.699218-40.433594 90.132812-90.132813 90.132812-13.097656 0-25.863281-2.855469-37.941406-8.480469l-12.597656-5.867187zm-20.410156-235.703125h40c0 16.375 2.070312 32.5 6.101562 48.066406l-32.003906 31.582032c-9.296875-25.304688-14.097656-52.191407-14.097656-79.648438zm99-62h-100v-100h40v33.507812c42.402344-63.304687 114.109375-102.507812 192-102.507812 61.703125 0 119.710938 24.027344 163.34375 67.65625 43.628906 43.632812 67.65625 101.640625 67.65625 163.34375h-40c0-105.316406-85.683594-191-191-191-66.128906 0-126.871094 34.167969-161.527344 89h29.527344zm263 124h100v100h-40v-32.03125c-17.089844 25.097656-39.023438 46.683594-64.726562 63.492188-37.554688 24.558593-81.21875 37.539062-126.273438 37.539062-26.882812 0-53.273438-4.628906-78.167969-13.574219l32.386719-31.960937c14.871094 3.65625 30.222656 5.535156 45.78125 5.535156 65.855469 0 126.8125-34.238281 161.503906-89h-30.503906zm0 0"/>
    </symbol>

    <symbol id="competencies12" role="img" aria-labelledby="competencies12_title" viewBox="0 0 512 512">
        <title id="competencies12_title"></title>
        <path d="m512 289.738281v-67.476562l-68.195312-18.140625c-4.253907-15.398438-10.40625-30.1875-18.390626-44.191406l34.875-60.574219-47.644531-47.648438-60.574219 34.878907c-14.003906-7.984376-28.792968-14.136719-44.191406-18.390626l-18.140625-68.195312h-67.476562l-18.140625 68.195312c-15.398438 4.253907-30.1875 10.40625-44.191406 18.390626l-60.574219-34.878907-47.644531 47.648438 34.875 60.574219c-7.984376 14.003906-14.140626 28.792968-18.390626 44.191406l-68.195312 18.140625v67.476562l68.195312 18.140625c4.253907 15.398438 10.40625 30.1875 18.390626 44.191406l-34.875 60.574219 47.644531 47.648438 60.574219-34.878907c14.003906 7.984376 28.792968 14.140626 44.191406 18.390626l18.140625 68.195312h67.476562l18.140625-68.195312c15.398438-4.253907 30.1875-10.40625 44.191406-18.390626l60.574219 34.875 47.648438-47.644531-34.875-60.574219c7.980469-14.003906 14.136719-28.792968 18.386719-44.191406zm-101.914062-14.28125-2.503907 12.097657c-3.914062 18.90625-11.363281 36.816406-22.140625 53.234374l-6.753906 10.289063 31.640625 54.957031-4.292969 4.292969-54.960937-31.644531-10.289063 6.757812c-16.414062 10.777344-34.324218 18.226563-53.230468 22.140625l-12.097657 2.503907-16.46875 61.914062h-5.976562l-16.46875-61.914062-12.097657-2.503907c-18.90625-3.914062-36.816406-11.363281-53.230468-22.140625l-10.289063-6.757812-54.960937 31.644531-4.292969-4.292969 31.640625-54.957031-6.753906-10.289063c-10.777344-16.417968-18.226563-34.324218-22.140625-53.234374l-2.503907-12.097657-61.914062-16.46875v-5.976562l61.914062-16.46875 2.503907-12.097657c3.914062-18.90625 11.363281-36.816406 22.140625-53.234374l6.753906-10.289063-31.644531-54.960937 4.292969-4.292969 54.960937 31.644531 10.289063-6.753906c16.417968-10.777344 34.324218-18.226563 53.234374-22.140625l12.097657-2.503907 16.46875-61.914062h5.976562l16.46875 61.914062 12.097657 2.503907c18.90625 3.914062 36.816406 11.363281 53.230468 22.140625l10.289063 6.753906 54.960937-31.644531 4.292969 4.292969-31.644531 54.960937 6.757812 10.289063c10.777344 16.417968 18.226563 34.328124 22.140625 53.234374l2.503907 12.097657 61.914062 16.46875v5.976562zm-93.085938 20.117188c0 16.109375-6.351562 31.410156-17.882812 43.074219-6.664063 6.742187-14.550782 11.738281-23.117188 14.78125v32.570312h-40v-32.523438c-8.53125-2.992187-16.382812-7.898437-23.019531-14.515624-11.59375-11.5625-17.980469-26.820313-17.980469-42.960938v-8h40v8c0 11.316406 9.617188 20.875 21 20.875 11.1875 0 21-9.953125 21-21.300781 0-8.722657-9.59375-14.660157-29.953125-25.230469l-.265625-.136719c-16-8.308593-45.78125-23.773437-45.78125-61.550781 0-22.757812 14.535156-42.242188 35-50.085938v-32.570312h40v32.472656c6.714844 2.511719 12.90625 6.285156 18.21875 11.21875 10.820312 10.039063 16.78125 23.644532 16.78125 38.308594v5h-40v-5c0-8.214844-7.625-13.125-15-13.125-8.269531 0-15 6.183594-15 13.78125 0 10.707031 4.980469 16.0625 24.214844 26.050781l.261718.136719c11.175782 5.800781 22.726563 11.800781 32.144532 20.074219 12.859375 11.300781 19.378906 24.976562 19.378906 40.65625zm0 0"/>
    </symbol>

    <symbol id="what02" role="img" aria-labelledby="what02_title" viewBox="0 0 512 512">
        <title id="what02_title"></title>
        <circle cx="320" cy="128" r="21.333"/>
		<circle cx="405.333" cy="128" r="21.333"/>
		<circle cx="384" cy="192" r="21.333"/>
		<circle cx="469.333" cy="234.667" r="21.333"/>
		<circle cx="469.333" cy="21.333" r="21.333"/>
		<circle cx="383.104" cy="64" r="21.333"/>
		<circle cx="490.667" cy="128" r="21.333"/>
		<polygon points="106.667,192 0,234.667 341.333,234.667 234.667,192 			"/>
		<path d="M0,512h341.333V256H0V512z M256,341.333c11.782,0,21.333,9.551,21.333,21.333S267.782,384,256,384
			s-21.333-9.551-21.333-21.333S244.218,341.333,256,341.333z M213.333,298.667c11.782,0,21.333,9.551,21.333,21.333
			s-9.551,21.333-21.333,21.333C201.551,341.333,192,331.782,192,320S201.551,298.667,213.333,298.667z M234.667,405.333
			c0,35.346-28.654,64-64,64c-35.346,0-64-28.654-64-64c0-35.346,28.654-64,64-64C206.013,341.333,234.667,369.987,234.667,405.333
			z M128,298.667c11.782,0,21.333,9.551,21.333,21.333s-9.551,21.333-21.333,21.333c-11.782,0-21.333-9.551-21.333-21.333
			S116.218,298.667,128,298.667z M85.333,341.333c11.782,0,21.333,9.551,21.333,21.333S97.115,384,85.333,384
			C73.551,384,64,374.449,64,362.667S73.551,341.333,85.333,341.333z"/>
		<path d="M234.667,149.333H256v-42.667h-21.333V85.333c0-11.782-9.551-21.333-21.333-21.333H128
			c-11.782,0-21.333,9.551-21.333,21.333v85.333h128V149.333z"/>
    </symbol>

    <symbol id="what03" role="img" aria-labelledby="what03_title" viewBox="0 0 512 512">
        <title id="what03_title"></title>
        <path d="M490.667,53.333h-85.333V10.667h-42.667v42.667h-85.333V10.667h-42.667v42.667h-85.333V10.667h-42.667v42.667H21.333
			C9.551,53.333,0,62.885,0,74.667v64h512v-64C512,62.885,502.449,53.333,490.667,53.333z"/>
		<path d="M0,480c0,11.782,9.551,21.333,21.333,21.333h320c5.657-0.001,11.083-2.25,15.083-6.251l149.333-149.333
			c4.001-4,6.249-9.425,6.251-15.083V181.333H0V480z M341.333,245.333h85.333V288h-85.333V245.333z M341.333,352
			c0-11.782,9.551-21.333,21.333-21.333h128L341.333,480V352z M277.333,288c11.782,0,21.333,9.551,21.333,21.333
			s-9.551,21.333-21.333,21.333c-11.782,0-21.333-9.551-21.333-21.333S265.551,288,277.333,288z M234.667,245.333
			c11.782,0,21.333,9.551,21.333,21.333c0,11.782-9.551,21.333-21.333,21.333c-11.782,0-21.333-9.551-21.333-21.333
			C213.333,254.885,222.885,245.333,234.667,245.333z M256,352c0,35.346-28.654,64-64,64c-35.346,0-64-28.654-64-64
			s28.654-64,64-64C227.346,288,256,316.654,256,352z M149.333,245.333c11.782,0,21.333,9.551,21.333,21.333
			c0,11.782-9.551,21.333-21.333,21.333C137.551,288,128,278.449,128,266.667C128,254.885,137.551,245.333,149.333,245.333z
			 M106.667,288c11.782,0,21.333,9.551,21.333,21.333s-9.551,21.333-21.333,21.333c-11.782,0-21.333-9.551-21.333-21.333
			S94.885,288,106.667,288z"/>
    </symbol>

    <symbol id="what04" role="img" aria-labelledby="what04_title" viewBox="0 0 512 512">
        <title id="what04_title"></title>
        <ellipse cx="64" cy="202.667" rx="64" ry="74.667"/>
		<ellipse cx="448" cy="202.667" rx="64" ry="74.667"/>
		<ellipse cx="170.667" cy="96" rx="64" ry="74.667"/>
		<ellipse cx="341.333" cy="96" rx="64" ry="74.667"/>
		<path d="M256,192c-94.213,0.106-170.561,76.454-170.667,170.667c0,58.389,29.611,128,170.667,128s170.667-69.611,170.667-128
			C426.561,268.454,350.213,192.106,256,192z M341.333,362.667h-64v64h-42.667v-64h-64V320h64v-64h42.667v64h64V362.667z"/>
    </symbol>

    <symbol id="what05" role="img" aria-labelledby="what05_title" viewBox="0 0 512 512">
        <title id="what05_title"></title>
        <path d="M448,0h-85.333v85.333c0,11.782-9.551,21.333-21.333,21.333H170.667c-11.782,0-21.333-9.551-21.333-21.333V0H64
			C52.218,0,42.667,9.551,42.667,21.333v469.333C42.667,502.449,52.218,512,64,512h384c11.782,0,21.333-9.551,21.333-21.333V21.333
			C469.333,9.551,459.782,0,448,0z M341.333,192c11.782,0,21.333,9.551,21.333,21.333c0,11.782-9.551,21.333-21.333,21.333
			c-11.782,0-21.333-9.551-21.333-21.333C320,201.551,329.551,192,341.333,192z M298.667,149.333
			c11.782,0,21.333,9.551,21.333,21.333c0,11.782-9.551,21.333-21.333,21.333c-11.782,0-21.333-9.551-21.333-21.333
			C277.333,158.885,286.885,149.333,298.667,149.333z M320,256c0,35.346-28.654,64-64,64s-64-28.654-64-64s28.654-64,64-64
			S320,220.654,320,256z M213.333,149.333c11.782,0,21.333,9.551,21.333,21.333c0,11.782-9.551,21.333-21.333,21.333
			C201.551,192,192,182.449,192,170.667C192,158.885,201.551,149.333,213.333,149.333z M170.667,192
			c11.782,0,21.333,9.551,21.333,21.333c0,11.782-9.551,21.333-21.333,21.333c-11.782,0-21.333-9.551-21.333-21.333
			C149.333,201.551,158.885,192,170.667,192z M128,362.667h85.333v42.667H128V362.667z M341.333,469.333H170.667v-42.667h170.667
			V469.333z M384,405.333H256v-42.667h128V405.333z"/>
		<rect x="170.667" width="170.667" height="85.333"/>
    </symbol>

    <symbol id="what06" role="img" aria-labelledby="what06_title" viewBox="0 0 435.783 435.783">
        <title id="what06_title"></title>
        <path d="M428.251,275.038c-15.706-18.083-52.923-17.488-83.122,1.346c-8.643,5.388-15.771,11.689-21.19,18.356H111.84
			c-5.411-6.667-12.538-12.979-21.188-18.356c-30.186-18.834-67.402-19.429-83.116-1.346c-15.706,18.083-3.958,48.007,26.228,66.836
			c4.329,2.687,8.8,5.002,13.335,6.942c-4.524,1.949-9.006,4.25-13.335,6.951C3.585,374.597-8.175,404.521,7.536,422.594
			c15.706,18.093,52.923,17.499,83.116-1.335c8.65-5.388,15.777-11.689,21.188-18.357h212.11
			c5.408,6.668,12.527,12.97,21.186,18.357c30.193,18.834,67.41,19.428,83.121,1.335c15.69-18.072,3.95-47.997-26.243-66.826
			c-4.321-2.701-8.79-5.002-13.324-6.951c4.524-1.94,9.003-4.256,13.324-6.942C432.202,323.045,443.942,293.121,428.251,275.038z"/>
		<path d="M350.873,164.219c-11.187,0-20.266,0-20.266,0l-6.281-19.276c-3.458-10.651-9.069-10.651-12.513,0
			c-3.483,10.648-6.281,19.276-6.281,19.276H285.26c-11.187,0-12.934,5.347-3.869,11.921c9.069,6.573,16.401,11.913,16.401,11.913
			l-6.281,19.284c-3.438,10.656,1.097,13.952,10.166,7.371c9.044-6.581,16.387-11.92,16.387-11.92l16.397,11.92
			c9.063,6.582,13.599,3.286,10.15-7.371c-3.474-10.656-6.276-19.284-6.276-19.284l16.412-11.913
			C363.801,169.559,362.055,164.219,350.873,164.219z"/>
		<path d="M145.471,164.219c-11.187,0-20.264,0-20.264,0l-6.281-19.276c-3.461-10.651-9.069-10.651-12.512,0
			c-3.486,10.648-6.282,19.276-6.282,19.276H79.861c-11.187,0-12.934,5.347-3.872,11.921c9.069,6.573,16.402,11.913,16.402,11.913
			l-6.281,19.284c-3.445,10.656,1.097,13.952,10.166,7.371c9.046-6.581,16.387-11.92,16.387-11.92l16.399,11.92
			c9.062,6.582,13.596,3.286,10.151-7.371c-3.476-10.656-6.279-19.284-6.279-19.284l16.414-11.913
			C158.402,169.559,156.656,164.219,145.471,164.219z"/>
		<path d="M393.299,250.699c7.673,0,14.848,1.021,21.389,2.931c4.164-16.321,6.357-33.241,6.357-50.48
			C421.045,91.126,329.911,0,217.898,0C105.883,0,14.749,91.126,14.749,203.149c0,17.295,2.14,34.221,6.281,50.506
			c6.563-1.93,13.761-2.956,21.465-2.956c6.391,0,12.9,0.741,19.393,2.062c-5.009-15.812-7.64-32.483-7.64-49.604
			c0-90.233,73.415-163.648,163.65-163.648c90.233,0,163.645,73.415,163.645,163.648c0,17.08-2.747,33.756-7.789,49.635
			C380.315,251.451,386.871,250.699,393.299,250.699z"/>
		<path d="M262.313,133.952c-15.163,0-27.432,0-27.432,0l-8.5-26.108c-4.677-14.409-12.284-14.409-16.953,0
			c-4.707,14.424-8.485,26.108-8.485,26.108h-27.467c-15.145,0-17.499,7.239-5.23,16.132c12.284,8.904,22.213,16.133,22.213,16.133
			l-8.5,26.108c-4.674,14.427,1.47,18.891,13.749,9.986c12.251-8.912,22.191-16.133,22.191-16.133l22.199,16.133
			c12.258,8.904,18.392,4.44,13.721-9.986c-4.683-14.416-8.476-26.108-8.476-26.108l22.217-16.133
			C279.812,141.19,277.465,133.952,262.313,133.952z"/>
    </symbol>

	<symbol id="process02" role="img" aria-labelledby="process02_title" viewBox="0 0 512 512">
        <title id="process02_title"></title>
        <path style="fill:#CFF09E;" d="M328.974,321.875c21.174,0,38.38-19.288,38.38-43.007s-17.208-43.01-38.38-43.01
			c-21.171,0-38.377,19.291-38.377,43.01C290.595,302.587,307.803,321.875,328.974,321.875L328.974,321.875z"/>
		<path style="fill:#507C5C;" d="M328.974,336.563c-29.261,0-53.068-25.883-53.068-57.696c0-31.814,23.806-57.697,53.068-57.697
			c29.263,0,53.069,25.883,53.069,57.697C382.043,310.68,358.237,336.563,328.974,336.563z M328.974,250.546
			c-13.063,0-23.69,12.704-23.69,28.32s10.627,28.318,23.69,28.318c13.064,0,23.691-12.703,23.691-28.318
			C352.666,263.25,342.037,250.546,328.974,250.546z"/>
		<path style="fill:#CFF09E;" d="M410.839,321.875c21.137,0,38.377-19.288,38.377-43.007s-17.23-43.01-38.377-43.01
			c-21.171,0-38.392,19.291-38.392,43.01C372.448,302.587,389.669,321.875,410.839,321.875L410.839,321.875z"/>
		<path style="fill:#507C5C;" d="M410.839,336.563c-29.269,0-53.081-25.883-53.081-57.696c0-31.814,23.812-57.697,53.081-57.697
			c29.261,0,53.068,25.883,53.068,57.697C463.906,310.68,440.1,336.563,410.839,336.563z M410.839,250.546
			c-13.069,0-23.703,12.704-23.703,28.32s10.633,28.318,23.703,28.318c13.063,0,23.69-12.703,23.69-28.318
			C434.529,263.25,423.902,250.546,410.839,250.546z"/>
		<path style="fill:#CFF09E;" d="M472.971,307.784c-16.651-2.606-33.073,9.036-37.408,26.521
			c-4.346,17.465,5.284,33.175,21.936,35.772c16.629,2.597,33.073-9.045,37.417-26.512C499.252,326.09,489.6,310.37,472.971,307.784
			L472.971,307.784z"/>
		<path style="fill:#507C5C;" d="M462.166,385.124C462.164,385.124,462.166,385.124,462.166,385.124c-2.315,0-4.648-0.181-6.932-0.538
			c-11.81-1.84-21.863-8.195-28.299-17.891c-6.833-10.294-8.832-23.057-5.626-35.94c5.463-22.029,25.221-38.028,46.981-38.028
			c2.319,0,4.659,0.182,6.951,0.541c11.789,1.836,21.836,8.186,28.277,17.879c6.843,10.297,8.851,23.064,5.655,35.952
			C503.694,369.137,483.924,385.124,462.166,385.124z M468.291,322.107c-8.442,0-16.209,6.617-18.47,15.732
			c-1.194,4.797-0.629,9.27,1.588,12.609c1.848,2.782,4.737,4.551,8.355,5.113c0.793,0.125,1.601,0.187,2.403,0.187
			c8.45,0.001,16.231-6.614,18.498-15.729c1.187-4.781,0.615-9.263-1.61-12.609c-1.851-2.785-4.736-4.552-8.342-5.113
			C469.905,322.17,469.094,322.107,468.291,322.107z"/>
		<path style="fill:#CFF09E;" d="M304.253,334.303c-4.343-17.484-20.766-29.126-37.417-26.521
			c-16.62,2.588-26.283,18.298-21.936,35.78c4.335,17.466,20.779,29.109,37.408,26.512
			C298.959,367.477,308.589,351.768,304.253,334.303L304.253,334.303z"/>
		<path style="fill:#507C5C;" d="M277.647,385.124c0,0-0.001,0-0.003,0c-21.764-0.001-41.531-15.993-47-38.023
			c-3.202-12.882-1.199-25.648,5.64-35.945c6.441-9.698,16.49-16.05,28.293-17.889c2.283-0.357,4.621-0.539,6.942-0.539
			c21.753,0,41.515,15.996,46.991,38.032c3.199,12.889,1.194,25.652-5.642,35.943c-6.44,9.692-16.488,16.043-28.296,17.885
			C282.29,384.944,279.959,385.124,277.647,385.124z M271.519,322.107c-0.805,0-1.616,0.063-2.41,0.188
			c-3.619,0.564-6.504,2.333-8.353,5.116c-2.222,3.343-2.789,7.822-1.6,12.609c2.262,9.114,10.037,15.727,18.489,15.727
			c0.001,0,0.001,0,0.001,0c0.801,0,1.605-0.062,2.396-0.185c3.621-0.566,6.509-2.334,8.355-5.115
			c2.221-3.34,2.788-7.817,1.601-12.604C287.732,328.727,279.961,322.107,271.519,322.107z"/>
		<path style="fill:#507C5C;" d="M409.983,512c-13.449,0-26.415-3.337-38.02-9.728C360.35,508.663,347.386,512,333.947,512
			c-43.725,0-79.296-35.567-79.296-79.285c0-28.899,15.729-55.29,40.666-69.224c9.088-34.591,40.18-58.955,76.652-58.955
			c36.469,0,67.555,24.369,76.639,58.965c16.25,9.12,29.019,23.852,35.614,41.362c2.858,7.591-0.977,16.064-8.569,18.924
			c-7.59,2.857-16.065-0.977-18.924-8.569c-4.739-12.581-14.537-22.888-26.885-28.279c-4.577-1.998-7.825-6.185-8.622-11.113
			c-3.87-23.893-25.044-41.91-49.253-41.91c-24.217,0-45.398,18.019-49.269,41.91c-0.798,4.928-4.045,9.114-8.621,11.112
			c-18.255,7.972-30.049,25.939-30.049,45.777c0,27.518,22.393,49.908,49.918,49.908c10.617,0,20.765-3.318,29.351-9.593
			c5.165-3.778,12.181-3.775,17.346,0.006c8.568,6.274,18.712,9.587,29.339,9.587c12.272,0,24.081-4.517,33.247-12.72
			c6.046-5.407,15.331-4.896,20.742,1.15c5.41,6.046,4.894,15.332-1.15,20.742C448.26,504.825,429.494,512,409.983,512z"/>
		<path style="fill:#CFF09E;" d="M101.162,100.706c21.174,0,38.38-19.288,38.38-43.007s-17.206-43.01-38.38-43.01
			c-21.171,0-38.377,19.291-38.377,43.01C62.784,81.418,79.991,100.706,101.162,100.706L101.162,100.706z"/>
		<path style="fill:#507C5C;" d="M101.162,115.396c-29.261,0-53.068-25.883-53.068-57.696C48.094,25.883,71.9,0,101.162,0
			c29.263,0,53.069,25.883,53.069,57.699C154.231,89.512,130.425,115.396,101.162,115.396z M101.162,29.378
			c-13.063,0-23.69,12.704-23.69,28.321c0,15.616,10.627,28.318,23.69,28.318c13.064,0,23.691-12.703,23.691-28.318
			C124.853,42.082,114.226,29.378,101.162,29.378z"/>
		<path style="fill:#CFF09E;" d="M183.028,100.706c21.137,0,38.377-19.288,38.377-43.007s-17.23-43.01-38.377-43.01
			c-21.171,0-38.392,19.291-38.392,43.01S161.857,100.706,183.028,100.706L183.028,100.706z"/>
		<path style="fill:#507C5C;" d="M183.028,115.396c-29.269,0-53.081-25.883-53.081-57.696c0-31.817,23.812-57.7,53.081-57.7
			c29.261,0,53.068,25.883,53.068,57.699C236.094,89.512,212.288,115.396,183.028,115.396z M183.028,29.378
			c-13.069,0-23.703,12.704-23.703,28.321c0,15.616,10.633,28.318,23.703,28.318c13.063,0,23.69-12.703,23.69-28.318
			C206.717,42.082,196.089,29.378,183.028,29.378z"/>
		<path style="fill:#CFF09E;" d="M245.16,86.615c-16.651-2.606-33.073,9.037-37.408,26.521c-4.346,17.465,5.284,33.175,21.936,35.772
			c16.629,2.597,33.073-9.045,37.417-26.512C271.44,104.922,261.788,89.203,245.16,86.615L245.16,86.615z"/>
		<path style="fill:#507C5C;" d="M234.354,163.957c-0.001,0-0.001,0-0.003,0c-2.312,0-4.645-0.181-6.929-0.538
			c-11.811-1.842-21.863-8.196-28.301-17.894c-6.833-10.292-8.831-23.055-5.624-35.939c5.461-22.027,25.221-38.026,46.979-38.026
			c2.321,0,4.661,0.182,6.952,0.541c11.788,1.835,21.835,8.183,28.277,17.876c6.843,10.297,8.851,23.064,5.655,35.954
			C275.882,147.967,256.11,163.957,234.354,163.957z M240.477,100.94c-8.442,0-16.209,6.616-18.468,15.73
			c-1.194,4.797-0.629,9.27,1.588,12.609c1.848,2.784,4.737,4.552,8.355,5.115c0.792,0.125,1.6,0.187,2.4,0.187
			c8.452,0,16.231-6.616,18.499-15.73c1.187-4.783,0.615-9.263-1.61-12.609c-1.849-2.784-4.734-4.551-8.34-5.112
			C242.093,101.003,241.282,100.94,240.477,100.94z"/>
		<path style="fill:#CFF09E;" d="M76.442,113.136C72.099,95.652,55.677,84.01,39.025,86.615c-16.62,2.588-26.283,18.298-21.936,35.78
			c4.335,17.466,20.78,29.109,37.408,26.512C71.148,146.31,80.777,130.601,76.442,113.136L76.442,113.136z"/>
		<path style="fill:#507C5C;" d="M49.835,163.957L49.835,163.957C28.066,163.956,8.3,147.964,2.832,125.931
			c-3.202-12.879-1.199-25.647,5.64-35.943c6.442-9.698,16.491-16.05,28.295-17.888c2.281-0.357,4.621-0.539,6.942-0.539
			c21.754,0,41.516,15.996,46.989,38.032c3.199,12.886,1.194,25.651-5.642,35.942c-6.438,9.692-16.487,16.043-28.296,17.886
			C54.478,163.777,52.147,163.957,49.835,163.957z M43.708,100.94c-0.805,0-1.617,0.063-2.412,0.188
			c-3.619,0.564-6.504,2.333-8.353,5.115c-2.222,3.345-2.789,7.822-1.601,12.607c2.264,9.117,10.038,15.73,18.492,15.73l0,0
			c0.801,0,1.607-0.062,2.396-0.185c3.619-0.566,6.509-2.334,8.356-5.116c2.219-3.34,2.786-7.817,1.6-12.604
			C59.922,107.558,52.15,100.94,43.708,100.94z"/>
		<path style="fill:#507C5C;" d="M182.172,290.831c-13.449,0-26.415-3.337-38.02-9.727c-11.61,6.39-24.574,9.727-38.014,9.727
			c-43.725,0-79.297-35.567-79.297-79.285c0-28.9,15.729-55.291,40.666-69.224c9.089-34.589,40.18-58.953,76.652-58.953
			c36.469,0,67.555,24.369,76.639,58.965c16.25,9.12,29.019,23.852,35.614,41.362c2.858,7.591-0.977,16.064-8.569,18.924
			c-7.588,2.857-16.065-0.977-18.924-8.569c-4.739-12.581-14.537-22.888-26.885-28.279c-4.577-1.998-7.825-6.185-8.622-11.114
			c-3.87-23.893-25.044-41.91-49.253-41.91c-24.217,0-45.399,18.019-49.269,41.91c-0.798,4.93-4.047,9.116-8.622,11.114
			c-18.254,7.969-30.047,25.936-30.047,45.775c0,27.518,22.394,49.908,49.92,49.908c10.618,0,20.767-3.317,29.348-9.592
			c5.167-3.776,12.183-3.776,17.347,0.006c8.566,6.272,18.711,9.586,29.339,9.586c12.299,0,24.126-4.534,33.299-12.765
			c6.036-5.417,15.326-4.918,20.742,1.122c5.419,6.037,4.916,15.325-1.122,20.742C220.518,283.631,201.724,290.831,182.172,290.831z"
		/>
    </symbol>

	<symbol id="how01" role="img" aria-labelledby="how01_title" viewBox="0 0 512 512">
        <title id="how01_title"></title>
        <polygon style="fill:#B8860B;" points="385.518,289.025 385.518,311.609 319.82,358.012 256.662,294.854 255.338,294.854 
			192.18,358.012 126.482,311.609 126.482,289.025 192.445,191.901 255.999,98.348 319.555,191.901 "/>
		<path style="fill:#271613;" d="M255.999,0C114.842,0,0,114.842,0,255.999s114.842,255.999,255.999,255.999
			c48.979,0,96.587-13.88,137.676-40.137c5.181-3.31,6.554-9.874,6.532-15.024V311.614c0-0.028-0.006-0.054-0.006-0.082v-22.507
			c0-2.941-0.884-5.817-2.537-8.25l-65.889-97.004c-0.026-0.04-0.047-0.081-0.073-0.12l-63.555-93.555
			c-2.734-4.024-7.282-6.433-12.147-6.433s-9.413,2.41-12.147,6.433l-63.555,93.555c-0.023,0.035-0.041,0.072-0.065,0.106
			l-65.9,97.018c-1.652,2.435-2.537,5.308-2.537,8.251v22.507c0,0.028-0.006,0.054-0.006,0.082v119.087
			c-50.309-41.6-82.421-104.47-82.421-174.701c0-124.964,101.667-226.63,226.63-226.63s226.63,101.667,226.63,226.63
			c0,18.676-2.275,37.24-6.761,55.176c-1.968,7.866,2.815,15.84,10.683,17.808c7.864,1.968,15.84-2.814,17.808-10.683
			c5.069-20.263,7.639-41.225,7.639-62.302C512,114.842,397.158,0,255.999,0z M321.56,372.585c0.2-0.024,0.401-0.046,0.599-0.078
			c0.204-0.032,0.405-0.075,0.608-0.116c0.184-0.038,0.369-0.076,0.551-0.12c0.209-0.051,0.417-0.109,0.624-0.169
			c0.173-0.05,0.344-0.104,0.515-0.162c0.211-0.07,0.423-0.144,0.633-0.225c0.16-0.062,0.319-0.129,0.476-0.197
			c0.216-0.093,0.432-0.184,0.645-0.288c0.138-0.068,0.273-0.142,0.41-0.213c0.228-0.119,0.455-0.236,0.678-0.367
			c0.06-0.037,0.119-0.078,0.179-0.115c0.275-0.169,0.551-0.335,0.816-0.523l42.542-30.046v111.457
			c-30.511,17.968-64.744,28.441-100.154,30.717V329.646l38.751,38.751c0.101,0.101,0.211,0.186,0.314,0.283
			c0.236,0.223,0.471,0.445,0.718,0.649c0.157,0.131,0.323,0.247,0.485,0.369c0.21,0.16,0.419,0.32,0.634,0.467
			c0.172,0.117,0.349,0.222,0.526,0.332c0.217,0.134,0.433,0.267,0.656,0.388c0.181,0.098,0.363,0.189,0.546,0.28
			c0.229,0.113,0.458,0.222,0.692,0.322c0.184,0.079,0.367,0.154,0.552,0.225c0.244,0.094,0.49,0.179,0.739,0.26
			c0.179,0.059,0.36,0.116,0.54,0.167c0.267,0.075,0.537,0.138,0.808,0.198c0.166,0.037,0.33,0.078,0.498,0.109
			c0.314,0.059,0.63,0.1,0.947,0.138c0.126,0.015,0.253,0.037,0.38,0.048c0.579,0.053,1.16,0.066,1.742,0.05
			c0.257-0.007,0.515-0.013,0.772-0.034C321.178,372.635,321.369,372.607,321.56,372.585z M299.034,187.835
			c-13.109,7.209-27.758,10.968-43.033,10.968c-15.275,0-29.924-3.761-43.033-10.969l43.033-63.355L299.034,187.835z M141.166,293.54
			l55.247-81.337c18.027,10.479,38.35,15.969,59.585,15.969s41.559-5.491,59.585-15.969l55.247,81.337v10.463l-49.378,34.876
			l-54.41-54.41c-2.753-2.753-6.489-4.301-10.383-4.301h-1.323c-3.894,0-7.63,1.548-10.383,4.301l-54.41,54.41l-49.378-34.876V293.54
			H141.166z M141.161,339.964l42.542,30.046c4.38,3.093,9.953,3.483,14.599,1.352c1.551-0.711,2.997-1.7,4.261-2.965l38.751-38.751
			v152.497c-36.369-2.338-70.425-13.288-100.154-30.836L141.161,339.964L141.161,339.964z"/>
    </symbol>

    <symbol id="how02" role="img" aria-labelledby="how02_title" viewBox="0 0 512 512">
        <title id="how02_title"></title>
        <path style="fill:#271613;" d="M497.497,512H14.503c-8.009,0-14.502-6.493-14.502-14.502V14.502C0.001,6.493,6.495,0,14.503,0
			h482.995c8.009,0,14.502,6.493,14.502,14.502v385.151c0,8.009-6.493,14.502-14.502,14.502s-14.502-6.493-14.502-14.502V29.004
			H29.005v453.992h468.493c8.009,0,14.502,6.493,14.502,14.502S505.507,512,497.497,512z"/>
		<path style="fill:#271613;" d="M427.065,441.568H84.935c-8.009,0-14.502-6.493-14.502-14.502V154.242
			c0-8.009,6.493-14.502,14.502-14.502c8.009,0,14.502,6.493,14.502,14.502v258.323h313.127V99.436H84.935
			c-8.009,0-14.502-6.493-14.502-14.502s6.493-14.502,14.502-14.502h342.131c8.009,0,14.502,6.493,14.502,14.502v342.132
			C441.567,435.076,435.075,441.568,427.065,441.568z"/>
		<path style="fill:#B8860B;" d="M157.444,354.556h197.111V157.444H157.444V354.556z"/>
		<path style="fill:#271613;" d="M354.556,369.058H157.444c-8.009,0-14.502-6.493-14.502-14.502V157.444
			c0-8.009,6.493-14.502,14.502-14.502h197.111c8.009,0,14.502,6.493,14.502,14.502v197.113
			C369.058,362.566,362.565,369.058,354.556,369.058z M171.946,340.054h168.107V171.946H171.946V340.054z"/>
    </symbol>

    <symbol id="how03" role="img" aria-labelledby="how03_title" viewBox="0 0 512 512">
        <title id="how03_title"></title>
        <circle style="fill:#B8860B;" cx="255.999" cy="256" r="112.533"/>
		<path style="fill:#271613;" d="M256.001,382.601c-69.807,0-126.6-56.793-126.6-126.6s56.793-126.6,126.6-126.6
			s126.6,56.793,126.6,126.6S325.808,382.601,256.001,382.601z M256.001,157.535c-54.295,0-98.467,44.172-98.467,98.467
			s44.172,98.467,98.467,98.467s98.467-44.172,98.467-98.467S310.295,157.535,256.001,157.535z"/>
		<path style="fill:#271613;" d="M279.385,512.001h-46.77c-16.208,0-29.394-13.186-29.394-29.394v-19.214
			c-19.925-5.042-38.866-12.891-56.545-23.432l-13.593,13.594c-5.493,5.493-14.4,5.493-19.894,0c-5.494-5.493-5.493-14.4,0-19.895
			l21.552-21.552c4.755-4.753,12.207-5.48,17.79-1.73c20.54,13.797,43.238,23.202,67.465,27.956
			c6.599,1.296,11.357,7.08,11.357,13.804v30.468c0,0.695,0.565,1.26,1.26,1.26h46.77c0.695,0,1.26-0.565,1.26-1.26v-30.468
			c0-6.724,4.759-12.508,11.357-13.804c24.227-4.755,46.926-14.16,67.465-27.956c5.583-3.749,13.037-3.023,17.79,1.73l21.552,21.552
			c0.491,0.492,1.29,0.491,1.781,0l33.072-33.072c0.491-0.491,0.491-1.29,0-1.781l-21.552-21.552
			c-4.753-4.755-5.479-12.208-1.73-17.79c13.797-20.54,23.202-43.238,27.956-67.465c1.296-6.599,7.08-11.357,13.804-11.357h30.468
			c0.695,0,1.26-0.565,1.26-1.26v-46.77c0-0.695-0.565-1.26-1.26-1.26h-30.468c-6.724,0-12.508-4.759-13.804-11.357
			c-4.755-24.227-14.16-46.926-27.956-67.465c-3.749-5.582-3.023-13.036,1.73-17.79l21.552-21.552c5.493-5.493,14.4-5.493,19.895,0
			c5.494,5.493,5.493,14.4,0,19.894l-13.594,13.593c10.542,17.678,18.389,36.62,23.432,56.545h19.214
			c16.208,0,29.394,13.186,29.394,29.394v46.77c0,16.208-13.186,29.394-29.394,29.394h-19.214
			c-5.042,19.925-12.891,38.866-23.432,56.545l13.594,13.593c11.46,11.46,11.46,30.107,0,41.568l-33.072,33.072
			c-11.46,11.46-30.107,11.459-41.568,0l-13.593-13.594c-17.678,10.542-36.62,18.389-56.545,23.432v19.214
			C308.779,498.816,295.593,512.001,279.385,512.001z"/>
		<path style="fill:#271613;" d="M68.392,402.931c-3.6,0-7.201-1.373-9.947-4.12c-5.493-5.493-5.493-14.4,0-19.895l13.594-13.593
			c-10.542-17.678-18.389-36.62-23.432-56.545H29.394C13.186,308.78,0,295.593,0,279.386v-46.77
			c0-16.208,13.186-29.394,29.394-29.394h19.214c5.041-19.925,12.891-38.866,23.432-56.545l-13.594-13.593
			c-11.46-11.46-11.46-30.107,0-41.568l33.072-33.072c11.46-11.46,30.107-11.459,41.568,0l13.593,13.594
			c17.678-10.54,36.618-18.389,56.545-23.432V29.394c-0.001-16.208,13.183-29.394,29.391-29.394h46.77
			c16.208,0,29.394,13.186,29.394,29.394v19.214c19.927,5.043,38.868,12.892,56.545,23.432l13.593-13.594
			c5.493-5.493,14.4-5.493,19.895,0s5.493,14.4,0,19.894L377.26,99.892c-4.755,4.753-12.208,5.48-17.79,1.73
			c-20.539-13.795-43.237-23.2-67.465-27.956c-6.599-1.296-11.357-7.08-11.357-13.804V29.394c0-0.695-0.565-1.26-1.26-1.26h-46.77
			c-0.695,0-1.26,0.565-1.26,1.26v30.468c0,6.724-4.759,12.508-11.357,13.804c-24.228,4.755-46.928,14.161-67.465,27.956
			c-5.582,3.75-13.036,3.024-17.79-1.73L113.19,78.339c-0.491-0.494-1.29-0.492-1.781,0l-33.071,33.072
			c-0.491,0.491-0.491,1.29,0,1.781l21.552,21.552c4.753,4.755,5.479,12.208,1.73,17.79c-13.797,20.54-23.202,43.238-27.956,67.465
			c-1.296,6.599-7.08,11.357-13.804,11.357H29.392c-0.695,0-1.26,0.565-1.26,1.26v46.77c0,0.695,0.565,1.26,1.26,1.26h30.468
			c6.724,0,12.508,4.759,13.804,11.357c4.755,24.227,14.16,46.926,27.956,67.465c3.749,5.582,3.023,13.036-1.73,17.79l-21.552,21.552
			C75.591,401.558,71.992,402.931,68.392,402.931z"/>
    </symbol>

    <symbol id="how04" role="img" aria-labelledby="how04_title" viewBox="0 0 512 512">
        <title id="how04_title"></title>
        <path style="fill:#271613;" d="M256.001,125.572c-34.621,0-62.786-28.165-62.786-62.786S221.38,0,256.001,0
			s62.786,28.165,62.786,62.786S290.62,125.572,256.001,125.572z M256.001,28.539c-18.883,0-34.247,15.364-34.247,34.247
			s15.364,34.247,34.247,34.247s34.247-15.364,34.247-34.247S274.884,28.539,256.001,28.539z"/>
		<path style="fill:#271613;" d="M430.463,512H42.231c-19.71,0-35.745-16.035-35.745-35.747V105.943
			c0-19.71,16.035-35.745,35.745-35.745h427.539c19.71,0,35.745,16.035,35.745,35.745v310.335c0,7.88-6.39,14.27-14.27,14.27
			c-7.88,0-14.27-6.39-14.27-14.27V105.943c0-3.973-3.233-7.206-7.206-7.206H42.231c-3.974,0-7.206,3.233-7.206,7.206v370.311
			c0,3.974,3.233,7.208,7.206,7.208h388.232c7.88,0,14.27,6.39,14.27,14.27S438.344,512,430.463,512z"/>
		<path style="fill:#B8860B;" d="M491.245,157.286v-51.343c0-11.861-9.615-21.476-21.476-21.476H42.231
			c-11.861,0-21.476,9.615-21.476,21.476v51.343L491.245,157.286L491.245,157.286z"/>
		<path style="fill:#271613;" d="M491.245,171.557H20.755c-7.881,0-14.27-6.39-14.27-14.27v-51.345
			c0-19.71,16.036-35.745,35.745-35.745h427.539c19.71,0,35.745,16.035,35.745,35.745v51.343
			C505.514,165.167,499.125,171.557,491.245,171.557z M35.025,143.018h441.951v-37.075c0-3.973-3.233-7.206-7.206-7.206H42.231
			c-3.974,0-7.206,3.233-7.206,7.206C35.025,105.943,35.025,143.018,35.025,143.018z"/>
		<path style="fill:#B8860B;" d="M123.416,284.998h-7.61c-17.206,0-31.155-13.948-31.155-31.155l0,0
			c0-17.206,13.948-31.155,31.155-31.155h7.61c17.206,0,31.155,13.948,31.155,31.155l0,0
			C154.572,271.049,140.623,284.998,123.416,284.998z"/>
		<path style="fill:#271613;" d="M123.417,299.269h-7.61c-25.047,0-45.424-20.377-45.424-45.426
			c0-25.047,20.377-45.424,45.424-45.424h7.61c25.047,0,45.424,20.377,45.424,45.424S148.463,299.269,123.417,299.269z
			 M115.806,236.958c-9.311,0-16.885,7.576-16.885,16.885c0,9.311,7.576,16.887,16.885,16.887h7.61
			c9.311,0,16.885-7.576,16.885-16.887c0-9.309-7.574-16.885-16.885-16.885L115.806,236.958L115.806,236.958z"/>
		<path style="fill:#271613;" d="M290.961,299.269c-7.88,0-14.27-6.39-14.27-14.27v-48.041H235.31v48.041
			c0,7.88-6.388,14.27-14.27,14.27s-14.27-6.39-14.27-14.27v-62.311c0-7.88,6.388-14.27,14.27-14.27h69.921
			c7.88,0,14.27,6.39,14.27,14.27v62.311C305.231,292.879,298.841,299.269,290.961,299.269z"/>
		<rect x="357.423" y="222.69" style="fill:#B8860B;" width="69.921" height="62.311"/>
		<path style="fill:#271613;" d="M427.35,299.269H357.43c-7.88,0-14.27-6.39-14.27-14.27v-62.311c0-7.88,6.39-14.27,14.27-14.27
			h69.921c7.88,0,14.27,6.39,14.27,14.27v62.311C441.62,292.879,435.23,299.269,427.35,299.269z M371.699,270.73h41.382v-33.772
			h-41.382V270.73z"/>
		<rect x="84.647" y="353.969" style="fill:#B8860B;" width="69.921" height="62.311"/>
		<path style="fill:#271613;" d="M154.572,430.548H84.651c-7.881,0-14.27-6.39-14.27-14.27v-62.311c0-7.88,6.388-14.27,14.27-14.27
			h69.921c7.881,0,14.27,6.39,14.27,14.27v62.311C168.841,424.158,162.451,430.548,154.572,430.548z M98.921,402.009h41.382v-33.772
			H98.921V402.009z"/>
		<path style="fill:#B8860B;" d="M259.805,416.277h-7.61c-17.206,0-31.155-13.948-31.155-31.155l0,0
			c0-17.206,13.948-31.155,31.155-31.155h7.61c17.206,0,31.155,13.948,31.155,31.155l0,0
			C290.961,402.329,277.011,416.277,259.805,416.277z"/>
		<path style="fill:#271613;" d="M259.806,430.548h-7.61c-25.047,0-45.424-20.377-45.424-45.426
			c0-25.047,20.377-45.424,45.424-45.424h7.61c25.047,0,45.424,20.377,45.424,45.424C305.231,410.17,284.852,430.548,259.806,430.548
			z M252.195,368.238c-9.311,0-16.885,7.576-16.885,16.885c0,9.311,7.576,16.887,16.885,16.887h7.61
			c9.309,0,16.885-7.576,16.885-16.887c0-9.309-7.576-16.885-16.885-16.885L252.195,368.238L252.195,368.238z"/>
		<path style="fill:#271613;" d="M427.35,430.548c-7.88,0-14.27-6.39-14.27-14.27v-48.041h-41.382v48.041
			c0,7.88-6.39,14.27-14.27,14.27c-7.88,0-14.27-6.39-14.27-14.27v-62.311c0-7.88,6.39-14.27,14.27-14.27h69.921
			c7.88,0,14.27,6.39,14.27,14.27v62.311C441.62,424.158,435.23,430.548,427.35,430.548z"/>
    </symbol>

    <symbol id="how05" role="img" aria-labelledby="how05_title" viewBox="0 0 512 512">
        <title id="how05_title"></title>
        <path style="fill:#271613;" d="M342.844,338.234c-43.316,0-86.635-16.489-119.612-49.465c-65.953-65.954-65.953-173.271,0-239.225
			c23.06-23.06,52.029-38.868,83.776-45.717c30.896-6.663,62.932-4.595,92.651,5.978c4.957,1.764,8.666,5.945,9.822,11.081
			c1.158,5.134-0.397,10.502-4.118,14.224L358.9,81.574c-5.993,5.991-15.705,5.993-21.699,0c-5.991-5.991-5.991-15.706,0-21.698
			l27.439-27.439c-43.262-6.788-88.19,7.285-119.709,38.805c-53.99,53.99-53.99,141.838,0,195.828
			c53.991,53.993,141.84,53.988,195.829,0c31.522-31.522,45.591-76.459,38.805-119.709l-82.721,82.721
			c-5.993,5.991-15.705,5.991-21.699,0l-93.226-93.226c-5.991-5.991-5.991-15.706,0-21.699c5.993-5.991,15.705-5.991,21.699,0
			l82.375,82.377l90.897-90.897c3.722-3.722,9.097-5.278,14.224-4.118c5.135,1.157,9.316,4.865,11.081,9.824
			c10.576,29.719,12.642,61.756,5.978,92.651c-6.849,31.746-22.657,60.715-45.715,83.775
			C429.48,321.745,386.161,338.234,342.844,338.234z"/>
		<path style="fill:#B8860B;" d="M234.082,277.919c-16.684-16.684-28.716-36.252-36.132-57.094l-163.3,163.3
			c-25.744,25.744-25.744,67.482,0,93.226l0,0c25.744,25.744,67.482,25.744,93.226,0l163.3-163.3
			C270.332,306.636,250.766,294.602,234.082,277.919z"/>
		<path style="fill:#271613;" d="M81.263,512.001c-21.707,0-42.113-8.454-57.462-23.803C8.452,472.851-0.002,452.445,0,430.738
			c-0.002-21.705,8.452-42.113,23.801-57.462l163.3-163.3c3.722-3.722,9.089-5.278,14.224-4.118c5.135,1.157,9.316,4.865,11.081,9.822
			c6.915,19.432,17.859,36.721,32.527,51.389c14.669,14.669,31.959,25.612,51.388,32.527c4.957,1.764,8.666,5.947,9.822,11.081
			c1.158,5.134-0.397,10.502-4.118,14.224l-163.3,163.298C123.376,503.548,102.969,512.001,81.263,512.001z M192.907,247.565
			L45.499,394.974c-9.552,9.554-14.813,22.255-14.813,35.764c0,13.509,5.261,26.21,14.813,35.764
			c9.552,9.554,22.253,14.815,35.764,14.815c13.509,0,26.21-5.261,35.764-14.815l147.409-147.408
			c-15.119-7.891-28.918-18.039-41.203-30.325C210.947,276.483,200.797,262.685,192.907,247.565z"/>
    </symbol>

    <symbol id="how06" role="img" aria-labelledby="how06_title" viewBox="0 0 512 512">
        <title id="how06_title"></title>
        <path style="fill:#B8860B;" d="M293.603,448.684H82.471c-37.966,0-68.744-30.777-68.744-68.743l0,0
			c0-37.966,30.777-68.744,68.744-68.744h211.132c37.966,0,68.744,30.777,68.744,68.744l0,0
			C362.346,417.906,331.568,448.684,293.603,448.684z"/>
		<path style="fill:#B8860B;" d="M266.563,407.466c-15.202,0-27.525-12.324-27.525-27.525s12.324-27.525,27.525-27.525
			s27.525,12.324,27.525,27.525"/>
		<path style="fill:#271613;" d="M266.563,421.192c-22.746,0-41.253-18.506-41.253-41.253s18.506-41.252,41.253-41.252
			s41.253,18.505,41.253,41.252c0,7.58-6.147,13.726-13.726,13.726c-7.58,0-13.726-6.147-13.726-13.726
			c0-7.609-6.191-13.799-13.8-13.799s-13.8,6.191-13.8,13.799c0,7.61,6.191,13.8,13.8,13.8c7.58,0,13.726,6.147,13.726,13.726
			C280.289,415.046,274.144,421.192,266.563,421.192z"/>
		<path style="fill:#B8860B;" d="M109.51,407.466c-15.202,0-27.525-12.324-27.525-27.525s12.324-27.525,27.525-27.525
			s27.525,12.324,27.525,27.525"/>
		<path style="fill:#271613;" d="M109.509,421.192c-22.746,0-41.252-18.506-41.252-41.253s18.505-41.252,41.252-41.252
			s41.253,18.505,41.253,41.252c0,7.58-6.147,13.726-13.726,13.726c-7.58,0-13.726-6.147-13.726-13.726
			c0-7.609-6.191-13.799-13.8-13.799c-7.609,0-13.799,6.191-13.799,13.799c0,7.61,6.191,13.8,13.799,13.8
			c7.58,0,13.726,6.147,13.726,13.726C123.235,415.046,117.09,421.192,109.509,421.192z"/>
		<path style="fill:#B8860B;" d="M478.508,332.288l-35.511-47.264l-57.981,11.537l16.435-43.007
			c9.866-25.818,38.793-38.749,64.611-28.883l0,0c25.818,9.867,38.75,38.793,28.883,64.611L478.508,332.288z"/>
		<path style="fill:#271613;" d="M373.356,129.207c-21.95,0-39.808-17.858-39.808-39.809c0-21.95,17.858-39.808,39.808-39.808
			c21.951,0,39.809,17.858,39.809,39.808C413.165,111.349,395.307,129.207,373.356,129.207z M373.356,77.042
			c-6.812,0-12.355,5.543-12.355,12.355c0,6.814,5.543,12.356,12.355,12.356c6.814,0,12.356-5.543,12.356-12.356
			C385.712,82.585,380.169,77.042,373.356,77.042z"/>
		<path style="fill:#271613;" d="M293.601,297.47H82.471c-0.489,0-0.972,0.029-1.459,0.037V94.795h137.722l46.871,112.547h-81.687
			c-7.58,0-13.726,6.147-13.726,13.726s6.147,13.726,13.726,13.726h102.136c0.051,0,0.102,0,0.152,0h29.726
			c5.677,0,10.768-3.495,12.808-8.79l27.527-71.443c2.726-7.075-0.799-15.018-7.872-17.744c-7.076-2.727-15.019,0.8-17.744,7.872
			l-24.139,62.653h-11.168L240.559,75.791c-2.132-5.117-7.128-8.449-12.671-8.449H67.287c-7.58,0-13.726,6.147-13.726,13.726v221.645
			C22.305,314.452,0,344.635,0,379.939c0,45.474,36.997,82.471,82.471,82.471h211.131c45.474,0,82.471-36.997,82.471-82.471
			S339.075,297.47,293.601,297.47z M293.601,434.957H82.471c-30.338,0-55.018-24.68-55.018-55.018
			c0-30.337,24.68-55.017,55.018-55.017h211.131c30.338,0,55.018,24.68,55.018,55.017
			C348.621,410.277,323.939,434.957,293.601,434.957z"/>
		<path style="fill:#271613;" d="M506.413,245.391c-5.208-11.65-13.584-21.258-24.147-27.902l16.247-64.478
			c1.482-5.886-1.076-12.048-6.295-15.151l-51.485-30.621c-6.515-3.874-14.938-1.734-18.813,4.781
			c-3.875,6.515-1.735,14.938,4.781,18.813l42.69,25.39l-13.087,51.936c-2.679-0.345-5.381-0.528-8.099-0.528
			c-26.261,0-50.204,16.485-59.579,41.021l-16.435,43.007c-1.784,4.667-0.889,9.935,2.332,13.754
			c3.224,3.819,8.274,5.587,13.168,4.608l49.515-9.853l30.326,40.362c2.613,3.478,6.694,5.481,10.973,5.481
			c0.634,0,1.274-0.044,1.913-0.135c4.947-0.696,9.127-4.025,10.91-8.693l16.436-43.007
			C513.845,278.268,513.364,260.941,506.413,245.391z M482.12,284.38l-7.566,19.796l-20.585-27.399
			c-2.623-3.491-6.709-5.481-10.973-5.481c-0.888,0-1.787,0.086-2.679,0.264l-33.612,6.687l7.565-19.796
			c5.342-13.976,18.979-23.366,33.937-23.366c4.417,0,8.777,0.81,12.955,2.406c9.062,3.463,16.231,10.248,20.191,19.104
			C485.31,265.45,485.584,275.32,482.12,284.38z"/>
    </symbol>
  
    <symbol id="footer-phone" role="img" aria-labelledby="footer-phone_title" viewBox="0 0 512 512">
        <title id="footer-phone_title"></title>
        <path d="M421.216,195.504c-5.092-26.101-17.723-49.836-36.526-68.64c-18.804-18.803-42.54-31.434-68.641-36.527
			c-11.21-2.189-22.073,5.128-24.261,16.339c-2.187,11.212,5.128,22.073,16.339,24.26c36.847,7.188,65.3,35.642,72.489,72.489
			c1.927,9.874,10.581,16.726,20.278,16.726c1.313,0,2.645-0.125,3.984-0.387C416.088,217.577,423.403,206.715,421.216,195.504z"/>
		<path d="M511.422,196.929c-5.629-50.096-28.373-97.304-64.042-132.927C411.712,28.378,364.475,5.694,314.371,0.128
			c-11.355-1.261-21.578,6.92-22.839,18.272c-1.261,11.353,6.919,21.578,18.272,22.84c84.961,9.438,150.966,75.36,160.512,160.31
			c1.188,10.566,10.139,18.374,20.527,18.374c0.771,0,1.552-0.043,2.336-0.131C504.53,218.516,512.698,208.281,511.422,196.929z"/>
		<path d="M432.59,312.566c-0.062-0.008-0.124-0.017-0.186-0.025c-20.013-2.639-39.751-7.557-58.619-14.596
			c-23.91-8.99-51.103-3.191-69.27,14.772c-0.028,0.028-0.056,0.055-0.083,0.083l-17.148,17.148
			c-42.633-26.924-78.756-63.047-105.679-105.679l17.149-17.149c0.027-0.028,0.054-0.055,0.082-0.083
			c17.964-18.166,23.762-45.356,14.79-69.223c-7.057-18.914-11.974-38.653-14.614-58.666c-0.007-0.063-0.017-0.127-0.026-0.19
			c-4.591-32.478-32.782-56.734-65.548-56.467H66.053c-1.943,0.002-3.912,0.091-5.853,0.267
			C24.143,26.016-2.541,58.001,0.718,94.058c0.01,0.108,0.02,0.215,0.032,0.323c7.684,72.354,32.649,142.88,72.197,203.955
			c35.892,56.461,84.701,105.269,141.162,141.164c60.792,39.406,130.99,64.369,203.013,72.196c0.127,0.015,0.254,0.027,0.38,0.038
			c1.961,0.176,3.949,0.266,5.921,0.266c0.083,0,0.165,0,0.247,0.001c36.204-0.148,65.538-29.722,65.391-65.841v-67.233
			C489.746,345.714,465.515,317.211,432.59,312.566z M447.698,378.695v67.548c0.055,13.396-10.8,24.338-24.19,24.393
			c-0.715-0.004-1.425-0.027-2.135-0.086c-65.578-7.161-129.488-29.914-184.837-65.808c-0.053-0.035-0.107-0.069-0.161-0.103
			c-51.429-32.68-95.885-77.137-128.565-128.565c-0.032-0.051-0.064-0.101-0.097-0.153C71.683,220.306,48.928,156.086,41.902,90.193
			C40.779,76.91,50.63,65.155,63.923,63.954c0.717-0.064,1.443-0.098,2.145-0.098h67.463c0.146-0.001,0.294-0.003,0.443-0.002
			c12.021,0,22.322,8.905,24.044,20.819c3.05,23.063,8.721,45.806,16.871,67.649c3.319,8.832,1.189,18.869-5.427,25.591
			l-28.517,28.517c-6.583,6.582-7.956,16.753-3.354,24.847c33.837,59.508,83.177,108.847,142.685,142.685
			c8.094,4.6,18.264,3.23,24.848-3.355l28.512-28.512c6.72-6.621,16.765-8.752,25.642-5.415
			c21.799,8.134,44.547,13.805,67.61,16.855c12.18,1.757,21.122,12.339,20.816,24.647
			C447.7,378.353,447.698,378.524,447.698,378.695z"/>
    </symbol>

	<symbol id="footer-mail" role="img" aria-labelledby="footer-mail_title" viewBox="0 0 512 512">
        <title id="footer-mail_title"></title>
        <path d="M256,141.176c-63.306,0-114.809,51.503-114.809,114.809S192.694,370.795,256,370.795s114.809-51.503,114.809-114.809
			S319.306,141.176,256,141.176z M256,329.43c-40.498,0-73.445-32.947-73.445-73.445c0-40.498,32.947-73.445,73.445-73.445
			c40.499,0,73.445,32.947,73.445,73.445C329.445,296.483,296.499,329.43,256,329.43z"/>
		<path d="M437.008,74.97C388.656,26.623,324.375,0,256,0c-0.005,0-0.013,0-0.017,0C187.603,0.004,123.318,26.637,74.97,74.992
			C26.62,123.347-0.005,187.637,0,256.017c0.004,68.379,26.637,132.666,74.992,181.014C123.344,485.377,187.625,512.001,256,512
			c0.004,0,0.012,0,0.017,0c55.945-0.004,111.216-18.738,155.631-52.752c9.07-6.945,10.792-19.927,3.846-28.995
			c-6.945-9.069-19.926-10.794-28.995-3.846c-37.24,28.518-83.58,44.224-130.486,44.228c-0.006,0-0.006,0-0.014,0
			c-57.324,0-111.224-22.324-151.761-62.856c-40.542-40.536-62.871-94.435-62.875-151.766
			C41.357,137.663,137.636,41.372,255.986,41.364c0.007,0,0.006,0,0.014,0c118.34,0,214.628,96.279,214.636,214.622v23.532
			c0,27.523-22.39,49.913-49.913,49.913c-27.523,0-49.913-22.391-49.913-49.913v-23.532c0-11.422-9.259-20.682-20.682-20.682
			s-20.682,9.26-20.682,20.682v23.532c0,50.33,40.947,91.278,91.278,91.278S512,329.848,512,279.518v-23.534
			C511.995,187.604,485.362,123.318,437.008,74.97z"/>
    </symbol>

    <symbol id="footer-time" role="img" aria-labelledby="footer-time_title" viewBox="0 0 512 512">
        <title id="footer-time_title"></title>
        <path d="M437.019,74.981C388.667,26.629,324.38,0,256,0S123.333,26.63,74.981,74.981S0,187.62,0,256
			s26.629,132.667,74.981,181.019C123.332,485.371,187.62,512,256,512s132.667-26.629,181.019-74.981
			C485.371,388.667,512,324.38,512,256S485.371,123.332,437.019,74.981z M256,470.636C137.65,470.636,41.364,374.35,41.364,256
			S137.65,41.364,256,41.364S470.636,137.65,470.636,256S374.35,470.636,256,470.636z"/>
		<path d="M341.221,311.97l-64.538-64.537V114.809c0-11.422-9.259-20.682-20.682-20.682c-11.422,0-20.682,9.26-20.682,20.682V256
			c0,5.486,2.179,10.746,6.058,14.625l70.594,70.595c4.038,4.039,9.332,6.058,14.625,6.058c5.293,0,10.586-2.019,14.626-6.058
			C349.297,333.142,349.297,320.047,341.221,311.97z"/>
	</symbol>

    <symbol id="footer-location" role="img" aria-labelledby="footer-location_title" viewBox="0 0 512 512">
        <title id="footer-location_title"></title>
        <path d="M406.766,62.449C366.495,22.178,312.951,0,256,0S145.505,22.178,105.234,62.449
			c-40.272,40.271-62.449,93.814-62.449,150.766c0,37.656,10.972,76.863,32.609,116.532c16.825,30.846,40.15,62.102,69.326,92.898
			c49.17,51.903,97.763,84.519,99.808,85.881C248.001,510.842,252,512,256,512c4,0,7.999-1.158,11.473-3.474
			c2.045-1.363,50.638-33.978,99.808-85.881c29.176-30.795,52.501-62.051,69.326-92.898c21.637-39.669,32.609-78.876,32.609-116.532
			C469.215,156.263,447.038,102.72,406.766,62.449z M256.001,465.903C215.826,436.156,84.15,329.739,84.15,213.215
			c0-94.759,77.091-171.851,171.85-171.851s171.85,77.092,171.851,171.851C427.851,329.748,296.159,436.168,256.001,465.903z"/>
		<path d="M256,128.355c-46.791,0-84.86,38.068-84.86,84.86c0,46.791,38.068,84.86,84.86,84.86c46.792,0,84.861-38.068,84.86-84.86
			C340.86,166.423,302.791,128.355,256,128.355z M256,256.71c-23.983,0-43.495-19.512-43.495-43.495
			c0-23.983,19.512-43.495,43.495-43.495c23.984,0,43.495,19.512,43.495,43.495C299.495,237.198,279.984,256.71,256,256.71z"/>
	</symbol>

	<symbol id="footer-facebook" role="img" aria-labelledby="footer-facebook_title" viewBox="0 0 512 512">
        <title id="footer-facebook_title">Facebook</title>
        <path d="M296.296,512H200.36V256h-64v-88.225l64-0.029l-0.104-51.976C200.256,43.794,219.773,0,304.556,0h70.588v88.242h-44.115
		c-33.016,0-34.604,12.328-34.604,35.342l-0.131,44.162h79.346l-9.354,88.225L296.36,256L296.296,512z"/>
    </symbol>

    <symbol id="footer-twitter" role="img" aria-labelledby="footer-twitter_title" viewBox="0 0 512 512">
        <title id="footer-twitter_title">Twitter</title>
        <path d="M512.002,97.211c-18.84,8.354-39.082,14.001-60.33,16.54c21.686-13,38.342-33.585,46.186-58.115
		c-20.299,12.039-42.777,20.78-66.705,25.49c-19.16-20.415-46.461-33.17-76.674-33.17c-58.011,0-105.042,47.029-105.042,105.039
		c0,8.233,0.929,16.25,2.72,23.939c-87.3-4.382-164.701-46.2-216.509-109.753c-9.042,15.514-14.223,33.558-14.223,52.809
		c0,36.444,18.544,68.596,46.73,87.433c-17.219-0.546-33.416-5.271-47.577-13.139c-0.01,0.438-0.01,0.878-0.01,1.321
		c0,50.894,36.209,93.348,84.261,103c-8.813,2.399-18.094,3.687-27.674,3.687c-6.769,0-13.349-0.66-19.764-1.888
		c13.368,41.73,52.16,72.104,98.126,72.949c-35.95,28.176-81.243,44.967-130.458,44.967c-8.479,0-16.84-0.496-25.058-1.471
		c46.486,29.807,101.701,47.197,161.021,47.197c193.211,0,298.868-160.062,298.868-298.872c0-4.554-0.104-9.084-0.305-13.59
		C480.111,136.775,497.92,118.275,512.002,97.211z"/>
    </symbol>

    <symbol id="footer-instagram" role="img" aria-labelledby="footer-instagram_title" viewBox="155 155 200 200">
        <title id="footer-instagram_title">Instagram</title>
        <path d="M256,227.5c-15.7,0-28.5,12.8-28.5,28.5s12.8,28.5,28.5,28.5s28.5-12.8,28.5-28.5S271.7,227.5,256,227.5z"/>
        <path d="M322.2,154.8H189.8c-19.3,0-35,15.7-35,35v132.5c0,19.3,15.7,35,35,35h132.5c19.3,0,35-15.7,35-35V189.8   C357.2,170.5,341.5,154.8,322.2,154.8z M256,314.5c-32.2,0-58.5-26.2-58.5-58.5s26.2-58.5,58.5-58.5s58.5,26.2,58.5,58.5   S288.2,314.5,256,314.5z M335.9,190.6c0,8-6.5,14.5-14.5,14.5h0c-8,0-14.5-6.5-14.5-14.5v0c0-8,6.5-14.5,14.5-14.5h0   C329.4,176.1,335.9,182.6,335.9,190.6L335.9,190.6z"/>
    </symbol>

    <symbol id="footer-linkedin" role="img" aria-labelledby="footer-linkedin_title" viewBox="0 0 93 93">
        <title id="footer-linkedin_title">Linkedin</title>
        <path d="M11.185,0.08C5.004,0.08,0.001,5.092,0,11.259c0,6.173,5.003,11.184,11.186,11.184c6.166,0,11.176-5.011,11.176-11.184
			C22.362,5.091,17.351,0.08,11.185,0.08z"/>
		<rect x="1.538" y="30.926" width="19.287" height="62.054"/>
		<path d="M69.925,29.383c-9.382,0-15.673,5.144-18.248,10.022h-0.258v-8.479H32.921H32.92v62.053h19.27V62.281
			c0-8.093,1.541-15.932,11.575-15.932c9.89,0,10.022,9.256,10.022,16.451v30.178H93.06V58.942
			C93.06,42.235,89.455,29.383,69.925,29.383z"/>
    </symbol>

</svg>