<svg xmlns="http://www.w3.org/2000/svg" xmlns:xlink="http://www.w3.org/1999/xlink">
  
    <symbol id="explore01" role="img" aria-labelledby="explore01_title" viewBox="-43 0 512 512.00446">
        <title id="explore01_title"></title>
        <path d="m82.035156 163.222656c2.691406-2.648437 5.515625-5.152344 8.464844-7.507812 3.523438-3.003906 4.011719-8.269532 1.097656-11.867188-2.914062-3.597656-8.164062-4.21875-11.832031-1.394531-3.417969 2.726563-6.6875 5.632813-9.796875 8.703125-2.21875 2.140625-3.109375 5.316406-2.328125 8.296875.78125 2.984375 3.109375 5.316406 6.09375 6.097656s6.15625-.109375 8.300781-2.328125zm0 0"/>
        <path d="m12.007812 50.515625c15.449219-6.097656 32.390626-7.308594 48.546876-3.476563-4.9375.410157-9.78125 1.585938-14.359376 3.484376-28.585937 11.972656-37 48.46875-37.34375 50.03125-1.015624 4.589843 1.871094 9.140624 6.460938 10.171874.613281.136719 1.238281.207032 1.867188.210938 3.992187.003906 7.453124-2.761719 8.328124-6.65625.0625-.289062 6.914063-29.53125 27.308594-38.03125 9.046875-3.289062 19.003906-3.027344 27.871094.726562-20.292969 9.957032-49.085938 33.140626-54.921875 85.691407-.519531 4.683593 2.859375 8.902343 7.542969 9.417969 4.683594.519531 8.902344-2.859376 9.421875-7.542969 5.769531-51.898438 36.238281-69.578125 51.839843-75.289063 2.117188 19.191406 9.777344 34.527344 20.539063 56.039063 6.144531 12.296875 13.789063 27.589843 22.230469 47.273437 20.480468 47.789063 18.21875 119.679688 16.894531 142.34375h-135.84375c-4.988281-44.015625 5.578125-88.390625 29.867187-125.4375 1.058594-1.707031 2.203126-3.347656 3.339844-4.984375l1.347656-1.953125c1.714844-2.523437 1.957032-5.765625.628907-8.515625-1.324219-2.746093-4.011719-4.578125-7.054688-4.804687-3.042969-.222656-5.972656 1.191406-7.691406 3.710937l-1.277344 1.859375c-1.28125 1.859375-2.5625 3.730469-3.660156 5.496094-36.621094 56.027344-43.921875 126.289062-19.609375 188.648438.074219.203124.144531.398437.238281.59375 13.554688 34.296874 35.925781 64.402343 64.851563 87.273437.324218.296875.671875.566406 1.042968.808594 75.652344 59.199219 181.917969 59.199219 257.570313 0 .367187-.242188.714844-.511719 1.039063-.808594 28.925781-22.871094 51.300781-52.976563 64.855468-87.273437.09375-.195313.160156-.390626.238282-.59375 17.429687-44.683594 18.816406-94.03125 3.925781-139.625-1.472657-4.476563-6.296875-6.910157-10.773438-5.4375-4.476562 1.472656-6.914062 6.292968-5.441406 10.773437 6.246094 19.058594 9.417969 38.992187 9.386719 59.046875-.011719 7.09375-.414063 14.179688-1.210938 21.222656h-59.410156c.554688-3.023437.839844-6.09375.855469-9.171875 0-28.277343-22.925781-51.199219-51.203125-51.199219s-51.199219 22.921876-51.199219 51.199219c.015625 3.078125.300781 6.148438.855469 9.171875h-38.519532c10.878907-30.027344 27.550782-67.148437 50.054688-92.105468 14.335938-15.855469 26.511719-27.828126 36.300781-37.453126 17.179688-16.878906 29.421875-28.921874 37.632813-46.441406 12.9375 10.472656 36.027344 37.054688 24.746094 88.015625-.871094 4.535157 2.023437 8.945313 6.535156 9.941407 4.511718 1 9-1.773438 10.121094-6.257813 11.445312-51.589844-8.292969-82.832031-24.277344-98.832031 9.59375-.679688 19.089844 2.289062 26.589844 8.3125 16.5625 14.644531 13.585937 44.527344 13.550781 44.824218-.496094 4.671876 2.875 8.867188 7.542969 9.386719.320312.042969.636718.0625.957031.0625 4.34375-.011719 7.988281-3.28125 8.464843-7.597656.179688-1.578125 4.027344-38.84375-19.132812-59.40625-3.640625-3.222656-7.757812-5.867187-12.199219-7.84375 16.410157 1.683594 31.933594 8.269531 44.550781 18.902344 3.527344 2.867187 8.6875 2.46875 11.730469-.914063 3.039063-3.378906 2.894531-8.554687-.328125-11.757812-19.945312-17.652344-46.585937-25.753906-72.980468-22.1875 12.777343-8.386719 28.5625-10.824219 43.273437-6.691406 4.464844 1.515624 9.308594-.875 10.824219-5.335938 1.515625-4.464844-.875-9.308594-5.335938-10.824219-21.96875-6.25-45.601562-1.617187-63.589844 12.457031-1.730468-16.164062-9.792968-30.984374-22.425781-41.214843-2.285156-2.183594-5.585937-2.925781-8.585937-1.933594-2.996094.996094-5.203125 3.566406-5.726563 6.679687-.527343 3.117188.710938 6.265626 3.21875 8.191407 10.121094 7.980469 16.234375 19.996093 16.734375 32.878906-4.714844-7.367187-11.203125-13.425781-18.875-17.621094-29.082031-15.941406-66.945312-1.171875-68.542968-.523437-4.253907 1.824218-6.28125 6.707031-4.566407 11.007812 1.714844 4.300782 6.550781 6.449219 10.890625 4.839844.316406-.128906 31.898438-12.476562 54.015625-.359375 5.804688 3.292969 10.582031 8.132813 13.800781 13.976563-38.273437-12.277344-73.679687 13.902343-88.816406 32.316406-1.9375 2.355468-2.472656 5.566406-1.402344 8.421875 1.074219 2.855469 3.585938 4.921875 6.59375 5.421875 3.007813.5 6.054688-.640625 7.992188-2.996094 1.613281-1.964844 38.398438-45.628906 80.144531-22.632812-6.824219 15.824218-17.433593 26.277343-35.054687 43.597656-9.941406 9.78125-22.324219 21.949218-37.007813 38.179687-25.832031 28.664063-44.160156 71.125-55.46875 103.550781h-11.945312c1.46875-24.984374 3.507812-98.132812-18.339844-149.066406-8.625-20.140625-16.398437-35.6875-22.644531-48.179687-11.070313-22.101563-17.648438-35.414063-19.066406-52.601563 46.722656-8.191406 67.621093 44.972656 68.523437 47.351563 1.71875 4.3125 6.566406 6.460937 10.914063 4.835937 4.347656-1.625 6.601562-6.425781 5.070312-10.808594-8.378906-22.339843-33.441406-58.632812-73.730469-59.316406 4.964844-4.496094 11.074219-7.527344 17.65625-8.753906 24.707031-4.265625 50.808594 17.605469 51.074219 17.816406 3.589844 2.917969 8.851562 2.441406 11.863281-1.074218 3.007813-3.515626 2.667969-8.789063-.769531-11.886719-1.308594-1.117188-32.367188-27.375-65.027344-21.675781-8.613281 1.488281-16.714844 5.121093-23.558594 10.558593 4.636719-12.019531 14.304688-21.402343 26.453126-25.679687 4.378906-1.746094 6.511718-6.714844 4.761718-11.09375-1.75-4.375-6.714844-6.507813-11.09375-4.761719-15.265625 5.597656-27.6875 17.015625-34.550781 31.753906-12.46875-19.136719-33.332031-31.160156-56.140625-32.35937475-4.714844-.01171875-8.542969 3.80078175-8.554688 8.51171875-.011718 4.714844 3.796876 8.542969 8.511719 8.554687 15.269531.84375 29.425781 8.265626 38.800781 20.34375-23.835937-11.902343-51.671874-12.835937-76.253906-2.558593-2.84375 1.171875-4.839844 3.785156-5.2187498 6.839843-.3789062 3.054688.9179688 6.074219 3.3906248 7.90625 2.472657 1.832032 5.742188 2.191407 8.550781.9375zm356.746094 359.414063h-319.144531c-5.441406-8.101563-10.257813-16.605469-14.40625-25.4375h347.945313c-4.144532 8.832031-8.957032 17.335937-14.394532 25.4375zm-255.0625 59.570312h190.984375c-59.148437 33.910156-131.84375 33.910156-190.992187 0zm215.996094-17.066406h-241.007812c-9.480469-7.640625-18.21875-16.15625-26.101563-25.4375h293.207031c-7.882812 9.28125-16.625 17.796875-26.105468 25.4375zm60.503906-85.007813h-362.011718c-2.964844-8.304687-5.347657-16.808593-7.125-25.449219h376.253906c-1.777344 8.640626-4.160156 17.144532-7.128906 25.449219zm-134.078125-51.6875c0-18.851562 15.28125-34.132812 34.132813-34.132812 18.851562 0 34.132812 15.28125 34.132812 34.132812-.050781 3.105469-.515625 6.191407-1.390625 9.171875h-65.484375c-.871094-2.980468-1.339844-6.066406-1.390625-9.171875zm0 0"/>
    </symbol>

    <symbol id="explore02" role="img" aria-labelledby="explore02_title" viewBox="0 0 512 512">
        <title id="explore02_title"></title>
        <path d="m494.933594.00390625h-17.066406c-9.425782 0-17.066407 7.64062475-17.066407 17.06640575v17.066407h-17.066406v-17.066407c0-9.425781-7.640625-17.06640575-17.066406-17.06640575h-17.066407c-9.425781 0-17.066406 7.64062475-17.066406 17.06640575v17.066407h-17.066406v-17.066407c0-9.425781-7.640625-17.06640575-17.066406-17.06640575h-17.066406c-9.425782 0-17.066407 7.64062475-17.066407 17.06640575v68.265626c0 4.714843 3.820313 8.535156 8.53125 8.535156h8.535157v179.199218h-34.132813v-179.199218c0-9.425782-7.640625-17.066406-17.066406-17.066406h-25.082031v-.070313l-.09375-11.699219 30.941406-15.625c5.757812-2.90625 9.382812-8.816406 9.371094-15.269531-.015626-6.449219-3.667969-12.34375-9.4375-15.226563l-36.019532-18.015624c-2.652344-1.324219-5.804687-1.175782-8.320312.390624-2.519532 1.5625-4.042969 4.324219-4.027344 7.289063l.527344 68.226563h-26.128906c-9.425782 0-17.066407 7.640624-17.066407 17.066406v179.199218h-34.132812v-179.199218h8.535156c4.710937 0 8.53125-3.820313 8.53125-8.535156v-68.265626c0-9.425781-7.640625-17.06640575-17.066406-17.06640575h-17.066407c-9.425781 0-17.066406 7.64062475-17.066406 17.06640575v17.066407h-17.066406v-17.066407c0-9.425781-7.640625-17.06640575-17.066406-17.06640575h-17.066406c-9.425782 0-17.066407 7.64062475-17.066407 17.06640575v17.066407h-17.066406v-17.066407c0-9.425781-7.640625-17.06640575-17.066406-17.06640575h-17.066407c-9.425781 0-17.06640575 7.64062475-17.06640575 17.06640575v68.265626c0 4.714843 3.82031275 8.535156 8.53124975 8.535156h8.535156v342.902344c-10.195312 3.605468-17.023437 13.222656-17.06640575 24.03125v25.597656c0 14.140625 11.46093775 25.601562 25.59765575 25.601562h460.800782c14.136718 0 25.601562-11.460937 25.601562-25.601562v-25.597656c-.046875-10.808594-6.875-20.425782-17.070312-24.03125v-342.902344h8.535156c4.710938 0 8.535156-3.820313 8.535156-8.535156v-68.265626c0-9.425781-7.644531-17.06640575-17.070312-17.06640575zm-206.734375 34.17578175-23.375 11.808593-.179688-23.585937zm-66.332031 59.691406h68.269531v179.199218h-68.269531zm-8.53125 196.265625h128v145.066406h-34.132813v-42.664063c0-28.277343-22.925781-51.203124-51.199219-51.203124-28.277344 0-51.203125 22.925781-51.203125 51.203124v42.664063h-34.132812v-145.066406zm34.132812 145.066406h-25.601562v-42.664063c.058593-15.519531 10.578124-29.042968 25.601562-32.921874zm17.066406-75.585937c15.023438 3.878906 25.542969 17.402343 25.601563 32.921874v42.664063h-25.601563zm-247.464844-342.546876h17.066407v17.066407c0 9.425781 7.640625 17.066406 17.066406 17.066406h17.066406c9.425781 0 17.066407-7.640625 17.066407-17.066406v-17.066407h17.066406v17.066407c0 9.425781 7.640625 17.066406 17.066406 17.066406h17.066406c9.425782 0 17.066406-7.640625 17.066406-17.066406v-17.066407h17.066407v59.734376h-153.597657zm136.53125 76.800782v341.332031h-119.464843v-341.332031zm341.332032 392.53125c0 4.714844-3.820313 8.535156-8.53125 8.535156h-460.800782c-4.710937 0-8.53125-3.820312-8.53125-8.535156v-25.597656c0-4.714844 3.820313-8.535157 8.53125-8.535157h460.800782c4.710937 0 8.53125 3.820313 8.53125 8.535157zm-17.066406-51.199219h-119.464844v-341.332031h119.464844zm17.066406-358.398437h-153.597656v-59.734376h17.066406v17.066407c0 9.425781 7.640625 17.066406 17.066406 17.066406h17.066406c9.425782 0 17.066406-7.640625 17.066406-17.066406v-17.066407h17.066407v17.066407c0 9.425781 7.640625 17.066406 17.066406 17.066406h17.066406c9.425781 0 17.066407-7.640625 17.066407-17.066406v-17.066407h17.066406zm0 0"/>
        <path d="m264.535156 110.9375h-17.066406c-4.710938 0-8.535156 3.820312-8.535156 8.535156 0 4.710938 3.824218 8.53125 8.535156 8.53125h17.066406c4.714844 0 8.535156-3.820312 8.535156-8.53125 0-4.714844-3.820312-8.535156-8.535156-8.535156zm0 0"/>
        <path d="m256.003906 145.070312c-4.714844 0-8.535156 3.820313-8.535156 8.535157v25.597656c0 4.714844 3.820312 8.535156 8.535156 8.535156 4.710938 0 8.53125-3.820312 8.53125-8.535156v-25.597656c0-4.714844-3.820312-8.535157-8.53125-8.535157zm0 0"/>
        <path d="m221.867188 324.269531h68.269531c4.710937 0 8.53125-3.820312 8.53125-8.53125 0-4.714843-3.820313-8.535156-8.53125-8.535156h-68.269531c-4.710938 0-8.53125 3.820313-8.53125 8.535156 0 4.710938 3.820312 8.53125 8.53125 8.53125zm0 0"/>
        <path d="m59.734375 128.003906h68.269531c4.710938 0 8.53125-3.820312 8.53125-8.53125 0-4.714844-3.820312-8.535156-8.53125-8.535156h-68.269531c-4.710937 0-8.53125 3.820312-8.53125 8.535156 0 4.710938 3.820313 8.53125 8.53125 8.53125zm0 0"/>
        <path d="m384.003906 128.003906h68.265625c4.710938 0 8.53125-3.820312 8.53125-8.53125 0-4.714844-3.820312-8.535156-8.53125-8.535156h-68.265625c-4.714844 0-8.535156 3.820312-8.535156 8.535156 0 4.710938 3.820312 8.53125 8.535156 8.53125zm0 0"/>
        <path d="m102.402344 315.738281c9.425781 0 17.066406-7.640625 17.066406-17.066406v-34.132813c0-14.140624-11.460938-25.601562-25.601562-25.601562-14.136719 0-25.597657 11.460938-25.597657 25.601562v34.132813c0 9.425781 7.640625 17.066406 17.066407 17.066406zm-17.066406-51.199219c0-4.714843 3.820312-8.535156 8.53125-8.535156 4.714843 0 8.535156 3.820313 8.535156 8.535156v34.132813h-17.066406zm0 0"/>
        <path d="m426.667969 315.738281c9.425781 0 17.066406-7.640625 17.066406-17.066406v-34.132813c0-14.140624-11.460937-25.601562-25.597656-25.601562-14.140625 0-25.601563 11.460938-25.601563 25.601562v34.132813c0 9.425781 7.640625 17.066406 17.066406 17.066406zm-17.066407-51.199219c0-4.714843 3.820313-8.535156 8.535157-8.535156 4.710937 0 8.53125 3.820313 8.53125 8.535156v34.132813h-17.066407zm0 0"/>
        <path d="m102.402344 221.871094c9.425781 0 17.066406-7.640625 17.066406-17.066406v-34.132813c0-14.140625-11.460938-25.601563-25.601562-25.601563-14.136719 0-25.597657 11.460938-25.597657 25.601563v34.132813c0 9.425781 7.640625 17.066406 17.066407 17.066406zm-17.066406-51.199219c0-4.714844 3.820312-8.535156 8.53125-8.535156 4.714843 0 8.535156 3.820312 8.535156 8.535156v34.132813h-17.066406zm0 0"/>
        <path d="m426.667969 221.871094c9.425781 0 17.066406-7.640625 17.066406-17.066406v-34.132813c0-14.140625-11.460937-25.601563-25.597656-25.601563-14.140625 0-25.601563 11.460938-25.601563 25.601563v34.132813c0 9.425781 7.640625 17.066406 17.066406 17.066406zm-17.066407-51.199219c0-4.714844 3.820313-8.535156 8.535157-8.535156 4.710937 0 8.53125 3.820312 8.53125 8.535156v34.132813h-17.066407zm0 0"/>
        <path d="m119.46875 349.871094c0 4.710937-3.820312 8.53125-8.535156 8.53125-4.710938 0-8.53125-3.820313-8.53125-8.53125 0-4.714844 3.820312-8.535156 8.53125-8.535156 4.714844 0 8.535156 3.820312 8.535156 8.535156zm0 0"/>
        <path d="m102.402344 375.472656c0 4.710938-3.820313 8.53125-8.535156 8.53125-4.710938 0-8.53125-3.820312-8.53125-8.53125 0-4.714844 3.820312-8.535156 8.53125-8.535156 4.714843 0 8.535156 3.820312 8.535156 8.535156zm0 0"/>
        <path d="m136.535156 384.003906c0 4.714844-3.820312 8.535156-8.53125 8.535156-4.714844 0-8.535156-3.820312-8.535156-8.535156 0-4.710937 3.820312-8.53125 8.535156-8.53125 4.710938 0 8.53125 3.820313 8.53125 8.53125zm0 0"/>
        <path d="m435.203125 341.335938c0 4.714843-3.820313 8.535156-8.535156 8.535156-4.710938 0-8.53125-3.820313-8.53125-8.535156 0-4.710938 3.820312-8.53125 8.53125-8.53125 4.714843 0 8.535156 3.820312 8.535156 8.53125zm0 0"/>
        <path d="m256.003906 238.9375c0 4.710938-3.824218 8.535156-8.535156 8.535156s-8.535156-3.824218-8.535156-8.535156c0-4.714844 3.824218-8.535156 8.535156-8.535156s8.535156 3.820312 8.535156 8.535156zm0 0"/>
        <path d="m452.269531 375.472656c0 4.710938-3.820312 8.53125-8.535156 8.53125-4.710937 0-8.53125-3.820312-8.53125-8.53125 0-4.714844 3.820313-8.535156 8.53125-8.535156 4.714844 0 8.535156 3.820312 8.535156 8.535156zm0 0"/>
        <path d="m418.136719 409.605469c0 4.710937-3.820313 8.53125-8.535157 8.53125-4.710937 0-8.53125-3.820313-8.53125-8.53125 0-4.714844 3.820313-8.535157 8.53125-8.535157 4.714844 0 8.535157 3.820313 8.535157 8.535157zm0 0"/>
        <path d="m401.070312 477.871094c0 4.710937-3.820312 8.53125-8.535156 8.53125-4.710937 0-8.53125-3.820313-8.53125-8.53125 0-4.714844 3.820313-8.535156 8.53125-8.535156 4.714844 0 8.535156 3.820312 8.535156 8.535156zm0 0"/>
        <path d="m136.535156 477.871094c0 4.710937-3.820312 8.53125-8.53125 8.53125-4.714844 0-8.535156-3.820313-8.535156-8.53125 0-4.714844 3.820312-8.535156 8.535156-8.535156 4.710938 0 8.53125 3.820312 8.53125 8.535156zm0 0"/>
        <path d="m179.203125 477.871094c0 4.710937-3.820313 8.53125-8.535156 8.53125-4.710938 0-8.53125-3.820313-8.53125-8.53125 0-4.714844 3.820312-8.535156 8.53125-8.535156 4.714843 0 8.535156 3.820312 8.535156 8.535156zm0 0"/>
    </symbol>

    <symbol id="explore03" role="img" aria-labelledby="explore03_title" viewBox="0 -9 512.09355 512">
        <title id="explore03_title"></title>
        <path d="m502.875 229.335938c-40.246094-76.199219-91.59375-146-152.363281-207.101563l-13.15625-13.261719c-4.945313-6.863281-13.480469-10.152344-21.753907-8.390625-8.273437 1.761719-14.722656 8.25-16.441406 16.53125h-19.089844c-1.210937-3.566406-3.234374-6.804687-5.914062-9.453125-4.761719-4.898437-11.308594-7.6484372-18.140625-7.613281-10.808594.046875-20.425781 6.875-24.03125 17.066406h-18.816406c-.214844-3.757812-1.628907-7.347656-4.035157-10.238281-3.71875-4.453125-9.503906-6.625-15.230468-5.71875-43.34375 6.683594-185.414063 48.382812-193.886719 305.058594-.292969 7 3.621094 13.5 9.949219 16.511718 6.101562 2.890626 13.34375 1.792969 18.3125-2.773437.316406-.273437.785156-.5625 1.144531-.851563l39.527344 56.414063h-43.332031c-6.464844 0-12.375 3.652344-15.265626 9.433594-2.890624 5.78125-2.269531 12.699219 1.609376 17.871093l37.640624 50.003907c2.828126 3.773437 8.175782 4.535156 11.949219 1.707031 3.769531-2.828125 4.53125-8.175781 1.707031-11.945312l-37.640624-50.003907h89.792968l-.800781 6.40625c-.609375 4.859375.898437 9.746094 4.136719 13.414063 3.238281 3.671875 7.898437 5.777344 12.792968 5.777344h252.476563c5.253906 0 10.214844-2.421876 13.449219-6.5625 3.234375-4.144532 4.378906-9.542969 3.105468-14.640626l-1.101562-4.394531h55.6875l35.339844 84.820313c1.320312 3.179687 4.421875 5.25 7.867187 5.257812 1.128907 0 2.246094-.226562 3.285157-.667968 2.089843-.871094 3.746093-2.535157 4.605468-4.628907.863282-2.09375.855469-4.441406-.015625-6.53125l-35.335937-84.855469c-2.683594-6.351562-8.910156-10.472656-15.804688-10.460937h-59.894531l-7.441406-29.742187c-1.898438-7.59375-8.71875-12.921876-16.546875-12.925782h-89.597656v-25.601562h204.796874c4.714844 0 8.535157-3.820313 8.535157-8.53125 0-4.714844-3.820313-8.535156-8.535157-8.535156h-4.46875l6.902344-17.261719h.050782c.585937.125 1.183593.191406 1.785156.195312 7.828125.011719 15.035156-4.269531 18.773437-11.152343 3.675781-6.609376 3.496094-14.6875-.460937-21.128907zm-293.621094 58.660156c-.144531-1.964844-.617187-3.886719-1.402344-5.691406-13.574218-29.960938-39.796874-113.296876 1.527344-248.125h21.035156v266.523437zm-192.171875 18.78125c8.03125-243.515625 139.359375-282.574219 179.414063-288.75l-.273438.691406c-.382812 1.175781-.65625 2.277344-1.03125 3.414062-.113281.253907-.148437.527344-.242187.785157-45.824219 144.09375-17.234375 234.195312-2.625 266.929687-79.957031-14.667968-153.3125-2.398437-175.242188 16.929688zm72.710938 68.738281-44.867188-64.054687c26.640625-9.488282 78.941407-16.808594 144.316407-4.800782 4.554687.832032 9.253906-.242187 12.996093-2.972656l28.175781 16.921875v12.238281h-92.472656c-8.605468 0-15.863281 6.410156-16.933594 14.949219l-3.460937 27.71875zm281.421875-25.601563 12.800781 51.199219h-252.476563l6.402344-51.199219zm-123.734375-17.066406v-307.199218c0-4.714844 3.820312-8.535157 8.535156-8.535157 2.300781-.003906 4.503906.941407 6.085937 2.613281 1.582032 1.5625 2.464844 3.695313 2.445313 5.921876v307.199218zm34.136719-298.667968h18.867187l.75 5.121093c9.570313 64.523438 9.570313 130.105469 0 194.628907l-2.46875 16.640624c-.054687.398438-.082031.804688-.082031 1.210938.011718 6.679688 3.175781 12.960938 8.53125 16.953125v21.445313h-25.597656zm181.953124 256h-139.289062v-17.722657l32.640625-6.222656c34.726563-6.648437 70.429687-6.304687 105.019531 1.015625l9.949219 2.101562zm30.839844-36.359376c-.632812 1.167969-1.773437 1.976563-3.089844 2.183594l-25.863281-5.453125c-36.800781-7.789062-74.789062-8.15625-111.734375-1.082031l-34.296875 6.578125c-1.957031-.261719-3.480469-1.839844-3.675781-3.804687l2.34375-15.847657c9.820312-66.179687 9.820312-133.449219 0-199.628906l-2.34375-15.847656c.199219-1.789063 1.507812-3.261719 3.265625-3.675781 1.753906-.410157 3.582031.328124 4.558594 1.84375.320312.496093.691406.957031 1.109375 1.371093l13.703125 13.792969c59.582031 59.898438 109.933593 128.320312 149.402343 203.023438l6.453126 12.152343c.878906 1.316407.945312 3.015625.167968 4.394531zm0 0"/>
        <path d="m170.683594 366.980469h-8.535156c-4.710938 0-8.53125 3.820312-8.53125 8.535156 0 4.710937 3.820312 8.53125 8.53125 8.53125h8.535156c4.710937 0 8.53125-3.820313 8.53125-8.53125 0-4.714844-3.820313-8.535156-8.53125-8.535156zm0 0"/>
        <path d="m85.347656 426.714844c4.714844 0 8.535156-3.820313 8.535156-8.535156 0-4.710938-3.820312-8.53125-8.535156-8.53125h-8.53125c-4.714844 0-8.535156 3.820312-8.535156 8.53125 0 4.714843 3.820312 8.535156 8.535156 8.535156zm0 0"/>
        <path d="m213.347656 366.980469h-8.53125c-4.714844 0-8.535156 3.820312-8.535156 8.535156 0 4.710937 3.820312 8.53125 8.535156 8.53125h8.53125c4.714844 0 8.535156-3.820313 8.535156-8.53125 0-4.714844-3.820312-8.535156-8.535156-8.535156zm0 0"/>
        <path d="m256.015625 366.980469h-8.535156c-4.710938 0-8.53125 3.820312-8.53125 8.535156 0 4.710937 3.820312 8.53125 8.53125 8.53125h8.535156c4.710937 0 8.53125-3.820313 8.53125-8.53125 0-4.714844-3.820313-8.535156-8.53125-8.535156zm0 0"/>
        <path d="m161.296875 75.925781c4.210937-2.121093 5.902344-7.253906 3.78125-11.464843-2.117187-4.210938-7.25-5.90625-11.460937-3.785157-1.554688.777344-38.128907 19.628907-47.269532 74.496094-.371094 2.234375.160156 4.523437 1.472656 6.363281 1.316407 1.84375 3.3125 3.085938 5.542969 3.460938.464844.078125.9375.121094 1.410157.117187 4.167968 0 7.722656-3.011719 8.414062-7.125 7.667969-45.832031 36.8125-61.378906 38.109375-62.0625zm0 0"/>
        <path d="m43.875 477.914062c-4.710938 0-8.53125 3.820313-8.53125 8.53125 0 4.714844 3.820312 8.535157 8.53125 8.535157 13.152344.417969 25.886719-4.636719 35.167969-13.960938 9.488281 9.261719 22.320312 14.296875 35.574219 13.960938 13.152343.445312 25.886718-4.632813 35.125-14.003907 9.445312 9.308594 22.277343 14.367188 35.53125 14.003907 13.15625.457031 25.902343-4.605469 35.15625-13.960938 9.496093 9.261719 22.328124 14.296875 35.585937 13.960938 13.144531.433593 25.875-4.644531 35.113281-14.003907 9.476563 9.320313 22.34375 14.375 35.628906 14.003907 13.148438.445312 25.878907-4.632813 35.113282-14.003907 9.449218 9.308594 22.28125 14.363282 35.542968 14.003907 13.144532.417969 25.878907-4.636719 35.15625-13.960938 9.492188 9.261719 22.324219 14.296875 35.582032 13.960938 4.714844 0 8.535156-3.820313 8.535156-8.535157 0-4.710937-3.820312-8.53125-8.535156-8.53125-8.527344.355469-16.847656-2.71875-23.097656-8.535156-6.769532-6.765625-17.746094-6.765625-24.515626 0-13.269531 11.402344-32.875 11.402344-46.140624 0-3.265626-3.269531-7.699219-5.105468-12.320313-5.105468-4.625 0-9.058594 1.835937-12.324219 5.105468-13.257812 11.363282-32.820312 11.363282-46.078125 0-3.25-3.25-7.660156-5.078125-12.253906-5.078125-4.597656 0-9.007813 1.828125-12.253906 5.078125-6.265625 5.828125-14.605469 8.902344-23.152344 8.535156-8.53125.355469-16.847656-2.71875-23.101563-8.535156-3.246093-3.265625-7.664062-5.101562-12.273437-5.101562s-9.027344 1.835937-12.273437 5.101562c-6.261719 5.796875-14.570313 8.867188-23.09375 8.535156-8.507813.335938-16.800782-2.738281-23.039063-8.535156-3.265625-3.269531-7.699219-5.105468-12.324219-5.105468-4.621094 0-9.054687 1.835937-12.320312 5.105468-6.242188 5.792969-14.53125 8.863282-23.039063 8.535156-8.527343.355469-16.84375-2.71875-23.09375-8.535156-6.769531-6.765625-17.742187-6.765625-24.515625 0-6.242187 5.808594-14.546875 8.878906-23.066406 8.535156zm0 0"/>
    </symbol>

    <symbol id="explore04" role="img" aria-labelledby="explore04_title" viewBox="0 0 512 512">
        <title id="explore04_title"></title>
        <path d="m503.480469 494.960938h-30.546875l10.851562-31.339844c4.273438 1.492187 8.964844 1.210937 13.03125-.777344 4.082032-1.964844 7.207032-5.484375 8.671875-9.773438l5.585938-16.125c3.082031-8.910156-1.636719-18.628906-10.546875-21.710937l-16.125-5.605469c-8.910156-3.082031-18.628906 1.640625-21.710938 10.546875l-5.582031 16.128907c-1.488281 4.277343-1.214844 8.972656.761719 13.050781 1.976562 4.074219 5.488281 7.199219 9.769531 8.683593l-12.800781 36.921876h-41.8125c1.671875-2.972657 2.722656-6.25 3.089844-9.640626.917968-14.484374.746093-29.011718-.519532-43.46875 4.773438-4.679687 7.191406-11.261718 6.585938-17.921874-1.511719-12.601563-3.753906-26.332032-6.929688-42.664063 4.125-5.007813 5.726563-11.628906 4.335938-17.964844-2.558594-11.519531-5.359375-23.039062-8.113282-34.550781l-1.863281-7.867188c3.238281-5.21875 4.1875-11.539062 2.628907-17.476562-4.265626-16.527344-7.535157-30.183594-10.324219-42.753906 2.519531-5.417969 3.097656-11.542969 1.628906-17.339844-2.429687-7.992188-4.566406-15.648438-6.492187-23.132812l41.597656 46.082031c4.039062 4.386719 9.746094 6.867187 15.710937 6.824219.488281 0 .980469 0 1.476563-.050782 6.296875-.363281 12.078125-3.59375 15.691406-8.761718 16.324219-23.742188 10.558594-56.03125-15.035156-84.277344h34.628906c6.597656-.027344 12.804688-3.148438 16.757812-8.429688 3.917969-5.171875 5.140626-11.898437 3.296876-18.117187-7.792969-26.667969-34.417969-43.785157-70.207032-45.636719l25.285156-30.984375c4.101563-4.894531 5.550782-11.488281 3.875-17.65625-1.734374-6.300781-6.394531-11.382813-12.527343-13.652344-19.433594-6.761719-40.933594-3.765625-57.777344 8.046875-1.789063-18.976562-10.84375-36.523437-25.269531-48.980468-7.539063-6.113282-18.332032-6.113282-25.871094 0-14.113281 12.175781-23.078125 29.253906-25.082031 47.785156-16.519531-10.84375-37.15625-13.371094-55.804688-6.824219-6.121093 2.242187-10.785156 7.296875-12.527343 13.574219-1.703126 6.1875-.277344 12.816406 3.820312 17.75l25.371094 31.027344c-8.148438.34375-16.226563 1.621093-24.082032 3.816406l-2.832031-7.09375c-2.570312-6.496094-8.859375-10.753906-15.847656-10.726563h-193.246094c-6.984375-.027343-13.273437 4.230469-15.84375 10.726563l-27.308593 68.269531c-2.109376 5.257813-1.46875 11.21875 1.707031 15.914063.519531.675781 1.089843 1.3125 1.707031 1.902343-.082031.4375-.140625.878907-.171875 1.320313v21.335937c.058594 15.515625 10.578125 29.042969 25.601563 32.921875v214.542969h-8.535157c-14.136719 0-25.597656 11.460937-25.597656 25.601563 0 14.136718 11.460937 25.597656 25.597656 25.597656h477.867188c4.714843 0 8.535156-3.820313 8.535156-8.53125 0-4.714844-3.820313-8.535156-8.535156-8.535156zm-24.660157-69.179688 16.128907 5.582031-5.574219 16.128907-16.128906-5.582032zm-205.738281 35.046875h-17.066406v-192.117187c3.257813 2.527343 7.191406 4.03125 11.304687 4.324218.496094.035156.992188.050782 1.484376.050782 5.984374.027343 11.699218-2.480469 15.726562-6.902344l44.75-49.492188c-2.167969 8.644532-4.640625 17.570313-7.585938 27.230469-1.335937 5.621094-.703124 11.535156 1.792969 16.75-2.800781 12.613281-6.09375 26.273437-10.34375 42.800781-1.546875 5.929688-.589843 12.234375 2.644531 17.433594l-1.960937 8.183594c-2.738281 11.4375-5.488281 22.878906-8.082031 34.375-1.375 6.324218.230468 12.929687 4.351562 17.917968-3.171875 16.332032-5.425781 30.074219-6.9375 42.667969-.578125 6.621094 1.84375 13.15625 6.597656 17.800781-1.269531 14.53125-1.4375 29.132813-.503906 43.691407.378906 3.316406 1.425782 6.519531 3.082032 9.417969h-15.226563c1.011719-2.730469 1.542969-5.617188 1.570313-8.53125 0-14.140626-11.460938-25.601563-25.597657-25.601563zm-42.667969 0h-8.53125v-85.332031h17.066407v85.332031zm-42.667968 0v-85.332031h17.070312v85.332031zm-34.132813 0v-85.332031h17.066407v85.332031zm-68.265625 0v-85.332031h17.066406v85.332031zm-17.066406-225.125c6.398438 7.484375 15.753906 11.792969 25.601562 11.792969 9.84375 0 19.199219-4.308594 25.597657-11.792969 6.398437 7.484375 15.753906 11.792969 25.601562 11.792969 9.847657 0 19.199219-4.308594 25.597657-11.792969 6.402343 7.484375 15.753906 11.792969 25.601562 11.792969s19.199219-4.308594 25.601562-11.792969c4.488282 5.167969 10.4375 8.855469 17.066407 10.582031v112.144532h-17.066407v-25.601563c0-9.425781-7.644531-17.066406-17.066406-17.066406h-17.070312c-9.425782 0-17.066406 7.640625-17.066406 17.066406v25.601563h-42.664063v-30.601563l23.097656-23.097656c3.234375-3.351563 3.1875-8.671875-.101562-11.964844-3.292969-3.289063-8.617188-3.335937-11.964844-.101563l-19.566406 19.566407-19.566407-19.566407c-3.347656-3.234374-8.671874-3.1875-11.960937.101563-3.292969 3.292969-3.339844 8.613281-.105469 11.964844l23.101563 23.097656v30.601563h-59.734375v-112.144532c6.625-1.726562 12.574218-5.414062 17.066406-10.582031zm8.535156-39.40625h34.132813v17.066406c0 9.425781-7.640625 17.066407-17.066407 17.066407-9.425781 0-17.066406-7.640626-17.066406-17.066407zm248.316406-30.542969c1.507813 7.125 5.011719 13.671875 10.105469 18.875l-63.324219 70.085938c-.894531.910156-2.144531 1.382812-3.414062 1.289062-1.074219-.035156-2.082031-.539062-2.75-1.382812-.875-1.285156-1.675781-2.621094-2.386719-4.003906-1.40625-2.613282-4.089843-4.292969-7.058593-4.410157 14.882812-3.980469 25.25-17.4375 25.308593-32.84375v-21.335937c-.019531-.441406-.0625-.882813-.136719-1.320313.617188-.589843 1.1875-1.226562 1.707032-1.902343.507812-.816407.945312-1.671876 1.316406-2.5625 2.910156-2.855469 6.023438-5.5 9.316406-7.910157 9.039063-7.070312 19.898438-11.429687 31.316406-12.578125zm69.777344 167.074219c2.75 11.445313 5.488282 22.886719 8.066406 34.28125.144532.664063.585938 2.675781-2.246093 5.023437-3.277344 2.339844-7.234375 3.539063-11.261719 3.414063h-53.539062c-3.996094.132813-7.921876-1.035156-11.195313-3.328125-2.902344-2.40625-2.457031-4.429688-2.320313-5.035156 2.558594-11.367188 5.289063-22.730469 8.011719-34.132813l.347657-1.46875c2.753906.804688 5.601562 1.230469 8.464843 1.265625h46.933594c2.867187-.035156 5.714844-.460937 8.464844-1.265625zm-7.832031-60.371094c2.433594 10.527344 5.230469 21.964844 8.617187 35.164063.597657 1.894531.085938 3.960937-1.320312 5.359375-2.285156 1.941406-5.222656 2.945312-8.21875 2.808593h-46.933594c-2.964844.136719-5.871094-.839843-8.148437-2.742187-1.441407-1.382813-1.980469-3.460937-1.398438-5.375 3.410157-13.21875 6.195313-24.652344 8.625-35.214844 1.808594.433594 3.660157.65625 5.523438.664063h37.714843c1.867188-.015625 3.726563-.246094 5.539063-.691406zm-.851563-18.449219c-1.148437 1.367188-2.867187 2.125-4.652343 2.046876h-37.71875c-1.722657.097656-3.398438-.605469-4.539063-1.902344-1.179687-1.699219-1.589844-3.820313-1.125-5.835938 4.496094-14.671875 8.097656-28.289062 11.03125-41.710937l1.28125-6.058594c0-.171875.070313-.359375.09375-.554687l1.101563-5.472657c7.179687 2.425781 14.957031 2.425781 22.136719 0 .585937 3.148438 1.183593 6.332031 1.859374 9.386719 2.996094 14.199219 6.765626 28.722656 11.382813 43.835938.613281 2.109374.296875 4.378906-.871094 6.238281zm-2.210937-96.683593v.109375c0 .035156 0 .121094.050781.1875.050782.070312 0 .179687 0 .273437 1 12.941407-8.636718 24.261719-21.570312 25.34375-12.9375 1.078125-24.316406-8.488281-25.472656-21.417969-1.15625-12.929687 8.339843-24.363281 21.261718-25.601562 12.921875-1.234375 24.414063 8.191406 25.730469 21.105469zm-119.46875 56.039062c0 9.425781-7.640625 17.066407-17.066406 17.066407s-17.066407-7.640626-17.066407-17.066407v-17.066406h34.132813zm-51.199219 0c0 9.425781-7.640625 17.066407-17.066406 17.066407s-17.066406-7.640626-17.066406-17.066407v-17.066406h34.132812zm-51.199218 0c0 9.425781-7.640626 17.066407-17.066407 17.066407s-17.066406-7.640626-17.066406-17.066407v-17.066406h34.132813zm42.667968 145.066407h-17.070312v-25.601563h17.070312zm-85.335937 17.066406h17.066406v85.332031h-17.066406zm204.195312 56.140625c-1.160156-.855469-3.832031-3.167969-3.558593-5.640625 1.253906-10.453125 3.046874-21.785156 5.488281-34.882813 3.359375.941407 6.832031 1.429688 10.324219 1.449219h53.539062c3.488281-.019531 6.960938-.507812 10.324219-1.449219 2.441406 13.0625 4.265625 24.378907 5.476562 34.8125.28125 2.5625-2.386719 4.847657-3.472656 5.652344-3.609375 2.453125-7.890625 3.726563-12.253906 3.652344h-53.691407c-4.332031.078125-8.582031-1.175781-12.175781-3.59375zm133.8125-177.058594c-.667969.863281-1.683593 1.386719-2.773437 1.425781-1.269532.097656-2.515625-.359375-3.414063-1.253906l-62.292969-68.992188c5.648438-5.289062 9.558594-12.164062 11.21875-19.722656 10.65625 1.492188 20.734376 5.746094 29.238282 12.339844 5.226562 3.847656 10.046875 8.226562 14.375 13.066406 20.320312 22.414063 25.414062 46.027344 13.648437 63.136719zm37.316407-96.308594c.300781 1.066407.078124 2.207031-.597657 3.082031-.726562.980469-1.863281 1.5625-3.082031 1.578126h-54.203125c-10.886719-7.910157-23.679687-12.789063-37.070313-14.140626-1.257812-5.109374-3.566406-9.898437-6.773437-14.070312 9.386719-5.355469 19.84375-8.558594 30.617187-9.386719 3.558594-.4375 7.144532-.640625 10.734376-.605469 31.675781-.027343 54.230468 12.511719 60.375 33.542969zm-43.179688-96.757812c.980469.3125 1.742188 1.097656 2.023438 2.089843.230468.859376.011718 1.777344-.582032 2.441407l-35.089844 42.941406c-13.8125 1.589844-27.011718 6.601563-38.398437 14.582031-2.707031-1.378906-5.574219-2.421875-8.535156-3.105468v-.214844c2.839843-12.199219 8.609375-23.523438 16.804687-32.996094 19.378906-23.75 43.246094-33.359375 63.777344-25.738281zm-111.71875-2.96875c.085938-.359375.152344-.726563.195312-1.09375.988282-15.246094 7.949219-29.488281 19.371094-39.636719 1.269532-.929688 2.996094-.929688 4.265625 0 11.449219 10.132812 18.429688 24.378906 19.421875 39.636719.046875.367187.109375.726562.199219 1.085937.269531 2.371094.398437 5.015625.441406 7.882813-3.242187 3.171875-6.304687 6.523437-9.171875 10.035156-4.558594 5.589844-8.558594 11.613281-11.949218 17.980469-3.386719-6.367188-7.390626-12.386719-11.945313-17.980469-3.472656-4.238281-7.238281-8.230469-11.265625-11.945313.113281-2.144531.222656-4.140624.4375-5.964843zm-68.164062 5.050781c.285156-.96875 1.027343-1.734375 1.988281-2.046875 20.589843-7.621094 44.441406 1.988281 63.8125 25.683594 7.878906 9.234375 13.515625 20.171875 16.460937 31.949219-.085937.496093-.136718.972656-.207031 1.460937-2.652344.636719-5.226563 1.566406-7.679687 2.761719-5.640626-4.023438-11.804688-7.257813-18.320313-9.617188-6.628906-2.347656-13.496094-3.96875-20.480469-4.828125l-35.070312-42.886719c-.570313-.691406-.757813-1.617187-.503906-2.476562zm19.171874 61.105469c10.546876.046875 21.015626 1.773437 31.011719 5.121093 3.589844 1.328126 7.050781 2.984376 10.335938 4.949219-3.148438 4.101563-5.421875 8.804688-6.683594 13.816407-.265625 0-.570313 0-.851563 0-14.949218 1.191406-29.21875 6.734374-41.054687 15.941406-.5625.410156-1.09375.851562-1.65625 1.296875l-15.273437-38.1875c7.894531-2.023438 16.023437-3.011719 24.171874-2.9375zm-242.457031-13.738281h193.246094l5.777344 14.335937c0 .09375 0 .1875.050781.273437.050781.085938.113281.144532.15625.238282l21.355469 53.421875h-247.890625zm-22.84375 102.402343v-17.066406h34.132813v17.066406c0 9.425781-7.640625 17.066407-17.066406 17.066407-9.425782 0-17.066407-7.640626-17.066407-17.066407zm25.601563 162.132813h17.066406v85.332031h-17.066406zm-34.132813 110.933594c0-4.714844 3.820313-8.535157 8.53125-8.535157h247.46875c4.710938 0 8.53125 3.820313 8.53125 8.535157 0 4.710937-3.820312 8.53125-8.53125 8.53125h-247.46875c-4.710937 0-8.53125-3.820313-8.53125-8.53125zm323.875 8.53125c-6.75.007812-12.710937-4.394532-14.695312-10.84375-.734375-11.015626-.757813-22.066407-.078125-33.085938 3.160156.808594 6.40625 1.230469 9.667968 1.265625h53.691407c3.261719-.035156 6.511719-.460937 9.667969-1.273437.679687 10.953124.660156 21.9375-.058594 32.886718-1.910156 6.539063-7.898438 11.039063-14.710938 11.050782zm0 0"/>
    </symbol>

    <symbol id="footer-facebook" role="img" aria-labelledby="footer-facebook_title" viewBox="0 0 512 512">
        <title id="footer-facebook_title">Facebook</title>
        <path d="M314.829,135.492h70.595c11.423,0,20.682-9.26,20.682-20.682V20.682C406.107,9.26,396.848,0,385.425,0h-70.595
            c-76.282,0-138.341,62.06-138.341,138.341v49.913h-49.913c-11.422,0-20.682,9.26-20.682,20.682v94.127
            c0,11.423,9.26,20.682,20.682,20.682h49.913v167.572c0,11.423,9.26,20.682,20.682,20.682h94.127
            c11.423,0,20.682-9.259,20.682-20.682V323.746h49.913c9.49,0,17.763-6.458,20.065-15.666l23.532-94.127
            c1.544-6.179,0.156-12.725-3.763-17.744c-3.919-5.02-9.932-7.954-16.301-7.954H311.98v-49.913
            C311.98,136.77,313.258,135.492,314.829,135.492z M291.298,229.619h67.637l-13.191,52.763h-54.447
            c-11.423,0-20.682,9.259-20.682,20.682v167.572h-52.763V303.064c0-11.423-9.26-20.682-20.682-20.682h-49.913v-52.763h49.913
            c11.422,0,20.682-9.26,20.682-20.682v-70.595c0-53.473,43.503-96.977,96.977-96.977h49.913v52.763h-49.913
            c-24.38,0-44.214,19.835-44.214,44.214v70.595C270.615,220.359,279.875,229.619,291.298,229.619z"/>
    </symbol>

    <symbol id="footer-twitter" role="img" aria-labelledby="footer-twitter_title" viewBox="0 0 512 512">
        <title id="footer-twitter_title">Twitter</title>
        <path d="M502.954,47.189c-7.126-4.852-16.515-4.774-23.559,0.196c-15.351,10.828-31.974,19.528-49.557,25.948
            c-19.253-17.414-43.615-27.826-69.915-29.656c-31.056-2.16-61.081,7.9-84.561,28.326c-25.59,22.259-40.174,54.444-40.046,88.349
            c-85.248-7.609-139.14-61.55-177.09-108.986c-4.598-5.746-11.901-8.619-19.182-7.538c-7.279,1.078-13.438,5.944-16.171,12.777
            c-0.948,2.369-23.141,58.799-17.453,127.057c4.761,57.133,30.23,131.964,120.039,181.717
            c-32.436,14.756-68.282,21.939-103.953,20.519c-9.576-0.378-18.15,5.859-20.736,15.08c-2.587,9.221,1.497,19.013,9.869,23.665
            c51.359,28.532,108.03,43.736,163.889,43.965c0.432,0.002,0.861,0.003,1.294,0.003c54.105-0.001,106.379-13.938,151.246-40.336
            c42.898-25.241,78.416-61.759,102.715-105.603c26.162-47.206,39.427-101.75,39.427-162.186c-0.011-3.544-0.186-7.098-0.52-10.638
            c20.7-22.885,35.388-50.567,42.719-80.667C513.451,60.803,510.081,52.04,502.954,47.189z M432.297,128.07
            c-4.916,4.847-7.088,11.827-5.793,18.607c0.877,4.588,1.329,9.278,1.344,13.874c0,101.956-44.378,186.544-121.756,232.072
            c-60.586,35.649-133.037,43.933-203.609,25.057c0.729-0.201,1.459-0.407,2.185-0.615c27.596-7.885,53.63-20.055,77.377-36.174
            c6.329-4.296,9.77-11.734,8.946-19.34c-0.825-7.605-5.778-14.134-12.881-16.975C97.757,312.434,53.563,257.594,46.757,181.575
            c-2.536-28.334,0.707-54.721,4.766-74.501c16.638,17.909,37.384,37.227,62.129,53.407c42.771,27.966,90.663,42.146,142.346,42.146
            c11.423,0,20.682-9.26,20.682-20.682v-21.393c0-0.045,0-0.091,0-0.137c-0.146-21.948,9.268-42.797,25.829-57.202
            c15.146-13.175,34.51-19.665,54.543-18.27c20.026,1.393,38.311,10.502,51.487,25.648c5.339,6.138,13.783,8.577,21.567,6.229
            c5.725-1.724,11.375-3.645,16.941-5.757C442.599,117.081,437.672,122.769,432.297,128.07z"/>
    </symbol>    

    <symbol id="footer-linkedin" role="img" aria-labelledby="footer-linkedin_title" viewBox="0 0 512 512">
        <title id="footer-linkedin_title">Linkedin</title>
        <path d="M2.5,510V153.7h137.3V510H2.5z M102.5,472.7V191H39.8v281.7H102.5z"/>
        <path d="M375.4,510l0.1-158.1c0.5-23.6-8.8-42.9-24.9-51.7c-5.4-3-11.2-4.5-17.3-4.5c-5.2,0-10.4,1.1-15.5,3.3l-1.1,211H176.1
            V153.7h140.6V166c16.6-6,33.6-9.1,50.6-9.1c24.7,0,48.3,6.4,70.2,18.9c44,25.2,72.5,71.8,72.5,118.8V510H375.4z M472.7,472.7V294.6
            c0-33.8-21.1-67.7-53.7-86.4c-15.9-9.1-33.8-13.9-51.7-14h-0.3c-20.1,0-40.1,5.8-59.6,17.3L279.4,228V191h-66.1v281.7h66.2l1-194.7
            l8.2-5.5c13.7-9.2,29.1-14.1,44.5-14.1c12.4,0,24.2,3,35.1,9c13.7,7.5,25,19.2,32.8,33.8c7.9,14.9,11.9,32.6,11.5,51.1l0,120.3
            H472.7z"/>
        <path d="M70.9,139.9C32.9,139.9,2,109,2,71c0-38,30.9-69,68.9-69c38,0,68.9,30.9,68.9,69C139.8,109,108.9,139.9,70.9,139.9z
             M70.9,39.3c-17.4,0-31.6,14.2-31.6,31.7c0,17.5,14.2,31.7,31.6,31.7c17.4,0,31.6-14.2,31.6-31.7C102.5,53.5,88.3,39.3,70.9,39.3z"
            />
    </symbol>

    <symbol id="footer-instagram" role="img" aria-labelledby="footer-instagram_title" viewBox="0 0 512 512">
        <title id="footer-instagram_title">Instagram</title>
        <path d="M373.659,0H138.341C62.06,0,0,62.06,0,138.341v235.318C0,449.94,62.06,512,138.341,512h235.318
            C449.94,512,512,449.94,512,373.659V138.341C512,62.06,449.94,0,373.659,0z M470.636,373.659
            c0,53.473-43.503,96.977-96.977,96.977H138.341c-53.473,0-96.977-43.503-96.977-96.977V138.341
            c0-53.473,43.503-96.977,96.977-96.977h235.318c53.473,0,96.977,43.503,96.977,96.977V373.659z"/>
        <path d="M370.586,238.141c-3.64-24.547-14.839-46.795-32.386-64.342c-17.547-17.546-39.795-28.746-64.341-32.385
            c-11.176-1.657-22.507-1.657-33.682,0c-30.336,4.499-57.103,20.541-75.372,45.172c-18.269,24.631-25.854,54.903-21.355,85.237
            c4.499,30.335,20.541,57.102,45.172,75.372c19.996,14.831,43.706,22.619,68.153,22.619c5.667,0,11.375-0.418,17.083-1.265
            c30.336-4.499,57.103-20.541,75.372-45.172C367.5,298.747,375.085,268.476,370.586,238.141z M267.791,327.632
            c-19.405,2.882-38.77-1.973-54.527-13.66c-15.757-11.687-26.019-28.811-28.896-48.216c-2.878-19.405,1.973-38.77,13.66-54.527
            c11.688-15.757,28.811-26.019,48.217-28.897c3.574-0.53,7.173-0.795,10.772-0.795s7.199,0.265,10.773,0.796
            c32.231,4.779,57.098,29.645,61.878,61.877C335.608,284.268,307.851,321.692,267.791,327.632z"/>
        <path d="M400.049,111.951c-3.852-3.851-9.183-6.058-14.625-6.058c-5.442,0-10.773,2.206-14.625,6.058
            c-3.851,3.852-6.058,9.174-6.058,14.625c0,5.451,2.207,10.773,6.058,14.625c3.852,3.851,9.183,6.058,14.625,6.058
            c5.442,0,10.773-2.206,14.625-6.058c3.851-3.852,6.058-9.183,6.058-14.625C406.107,121.133,403.9,115.802,400.049,111.951z"/>
    </symbol>

    <symbol id="footer-phone" role="img" aria-labelledby="footer-phone_title" viewBox="0 0 512 512">
        <title id="footer-phone_title"></title>
        <path d="M421.216,195.504c-5.092-26.101-17.723-49.836-36.526-68.64c-18.804-18.803-42.54-31.434-68.641-36.527
            c-11.21-2.189-22.073,5.128-24.261,16.339c-2.187,11.212,5.128,22.073,16.339,24.26c36.847,7.188,65.3,35.642,72.489,72.489
            c1.927,9.874,10.581,16.726,20.278,16.726c1.313,0,2.645-0.125,3.984-0.387C416.088,217.577,423.403,206.715,421.216,195.504z"/>
        <path d="M511.422,196.929c-5.629-50.096-28.373-97.304-64.042-132.927C411.712,28.378,364.475,5.694,314.371,0.128
            c-11.355-1.261-21.578,6.92-22.839,18.272c-1.261,11.353,6.919,21.578,18.272,22.84c84.961,9.438,150.966,75.36,160.512,160.31
            c1.188,10.566,10.139,18.374,20.527,18.374c0.771,0,1.552-0.043,2.336-0.131C504.53,218.516,512.698,208.281,511.422,196.929z"/>
        <path d="M432.59,312.566c-0.062-0.008-0.124-0.017-0.186-0.025c-20.013-2.639-39.751-7.557-58.619-14.596
            c-23.91-8.99-51.103-3.191-69.27,14.772c-0.028,0.028-0.056,0.055-0.083,0.083l-17.148,17.148
            c-42.633-26.924-78.756-63.047-105.679-105.679l17.149-17.149c0.027-0.028,0.054-0.055,0.082-0.083
            c17.964-18.166,23.762-45.356,14.79-69.223c-7.057-18.914-11.974-38.653-14.614-58.666c-0.007-0.063-0.017-0.127-0.026-0.19
            c-4.591-32.478-32.782-56.734-65.548-56.467H66.053c-1.943,0.002-3.912,0.091-5.853,0.267
            C24.143,26.016-2.541,58.001,0.718,94.058c0.01,0.108,0.02,0.215,0.032,0.323c7.684,72.354,32.649,142.88,72.197,203.955
            c35.892,56.461,84.701,105.269,141.162,141.164c60.792,39.406,130.99,64.369,203.013,72.196c0.127,0.015,0.254,0.027,0.38,0.038
            c1.961,0.176,3.949,0.266,5.921,0.266c0.083,0,0.165,0,0.247,0.001c36.204-0.148,65.538-29.722,65.391-65.841v-67.233
            C489.746,345.714,465.515,317.211,432.59,312.566z M447.698,378.695v67.548c0.055,13.396-10.8,24.338-24.19,24.393
            c-0.715-0.004-1.425-0.027-2.135-0.086c-65.578-7.161-129.488-29.914-184.837-65.808c-0.053-0.035-0.107-0.069-0.161-0.103
            c-51.429-32.68-95.885-77.137-128.565-128.565c-0.032-0.051-0.064-0.101-0.097-0.153C71.683,220.306,48.928,156.086,41.902,90.193
            C40.779,76.91,50.63,65.155,63.923,63.954c0.717-0.064,1.443-0.098,2.145-0.098h67.463c0.146-0.001,0.294-0.003,0.443-0.002
            c12.021,0,22.322,8.905,24.044,20.819c3.05,23.063,8.721,45.806,16.871,67.649c3.319,8.832,1.189,18.869-5.427,25.591
            l-28.517,28.517c-6.583,6.582-7.956,16.753-3.354,24.847c33.837,59.508,83.177,108.847,142.685,142.685
            c8.094,4.6,18.264,3.23,24.848-3.355l28.512-28.512c6.72-6.621,16.765-8.752,25.642-5.415
            c21.799,8.134,44.547,13.805,67.61,16.855c12.18,1.757,21.122,12.339,20.816,24.647
            C447.7,378.353,447.698,378.524,447.698,378.695z"/>
    </symbol>    

    <symbol id="footer-mail" role="img" aria-labelledby="footer-mail_title" viewBox="0 0 512 512">
        <title id="footer-mail_title"></title>
        <path d="M256,141.176c-63.306,0-114.809,51.503-114.809,114.809S192.694,370.795,256,370.795s114.809-51.503,114.809-114.809
            S319.306,141.176,256,141.176z M256,329.43c-40.498,0-73.445-32.947-73.445-73.445c0-40.498,32.947-73.445,73.445-73.445
            c40.499,0,73.445,32.947,73.445,73.445C329.445,296.483,296.499,329.43,256,329.43z"/>
        <path d="M437.008,74.97C388.656,26.623,324.375,0,256,0c-0.005,0-0.013,0-0.017,0C187.603,0.004,123.318,26.637,74.97,74.992
            C26.62,123.347-0.005,187.637,0,256.017c0.004,68.379,26.637,132.666,74.992,181.014C123.344,485.377,187.625,512.001,256,512
            c0.004,0,0.012,0,0.017,0c55.945-0.004,111.216-18.738,155.631-52.752c9.07-6.945,10.792-19.927,3.846-28.995
            c-6.945-9.069-19.926-10.794-28.995-3.846c-37.24,28.518-83.58,44.224-130.486,44.228c-0.006,0-0.006,0-0.014,0
            c-57.324,0-111.224-22.324-151.761-62.856c-40.542-40.536-62.871-94.435-62.875-151.766
            C41.357,137.663,137.636,41.372,255.986,41.364c0.007,0,0.006,0,0.014,0c118.34,0,214.628,96.279,214.636,214.622v23.532
            c0,27.523-22.39,49.913-49.913,49.913c-27.523,0-49.913-22.391-49.913-49.913v-23.532c0-11.422-9.259-20.682-20.682-20.682
            s-20.682,9.26-20.682,20.682v23.532c0,50.33,40.947,91.278,91.278,91.278S512,329.848,512,279.518v-23.534
            C511.995,187.604,485.362,123.318,437.008,74.97z"/>
    </symbol>

    <symbol id="footer-location" role="img" aria-labelledby="footer-location_title" viewBox="0 0 512 512">
        <title id="footer-location_title"></title>
        <path d="M406.766,62.449C366.495,22.178,312.951,0,256,0S145.505,22.178,105.234,62.449
            c-40.272,40.271-62.449,93.814-62.449,150.766c0,37.656,10.972,76.863,32.609,116.532c16.825,30.846,40.15,62.102,69.326,92.898
            c49.17,51.903,97.763,84.519,99.808,85.881C248.001,510.842,252,512,256,512c4,0,7.999-1.158,11.473-3.474
            c2.045-1.363,50.638-33.978,99.808-85.881c29.176-30.795,52.501-62.051,69.326-92.898c21.637-39.669,32.609-78.876,32.609-116.532
            C469.215,156.263,447.038,102.72,406.766,62.449z M256.001,465.903C215.826,436.156,84.15,329.739,84.15,213.215
            c0-94.759,77.091-171.851,171.85-171.851s171.85,77.092,171.851,171.851C427.851,329.748,296.159,436.168,256.001,465.903z"/>
        <path d="M256,128.355c-46.791,0-84.86,38.068-84.86,84.86c0,46.791,38.068,84.86,84.86,84.86c46.792,0,84.861-38.068,84.86-84.86
            C340.86,166.423,302.791,128.355,256,128.355z M256,256.71c-23.983,0-43.495-19.512-43.495-43.495
            c0-23.983,19.512-43.495,43.495-43.495c23.984,0,43.495,19.512,43.495,43.495C299.495,237.198,279.984,256.71,256,256.71z"/>
        </symbol>

    <symbol id="footer-time" role="img" aria-labelledby="footer-time_title" viewBox="0 0 512 512">
        <title id="footer-time_title"></title>
        <path d="M437.019,74.981C388.667,26.629,324.38,0,256,0S123.333,26.63,74.981,74.981S0,187.62,0,256
            s26.629,132.667,74.981,181.019C123.332,485.371,187.62,512,256,512s132.667-26.629,181.019-74.981
            C485.371,388.667,512,324.38,512,256S485.371,123.332,437.019,74.981z M256,470.636C137.65,470.636,41.364,374.35,41.364,256
            S137.65,41.364,256,41.364S470.636,137.65,470.636,256S374.35,470.636,256,470.636z"/>
        <path d="M341.221,311.97l-64.538-64.537V114.809c0-11.422-9.259-20.682-20.682-20.682c-11.422,0-20.682,9.26-20.682,20.682V256
            c0,5.486,2.179,10.746,6.058,14.625l70.594,70.595c4.038,4.039,9.332,6.058,14.625,6.058c5.293,0,10.586-2.019,14.626-6.058
            C349.297,333.142,349.297,320.047,341.221,311.97z"/>
    </symbol>

</svg>