<svg xmlns="http://www.w3.org/2000/svg" xmlns:xlink="http://www.w3.org/1999/xlink">

    <symbol id="soccer-ball-01" role="img" aria-labelledby="soccer-ball-01_title" viewBox="0 0 480 480">
        <title id="soccer-ball-01_title"></title>
        <path fill="#F2F2F2" d="M480,240c0,132.5-107.5,240-240,240S0,372.5,0,240S107.5,0,240,0S480,107.5,480,240z"/>
        <path d="M448.9,121.8L448.9,121.8c-3.1-5.3-6.2-10.6-9.7-15.8l-17.8,75.8l-93.9,31.3L248.6,150V57.1l89.9-36l-1.8-0.8
            c-2-0.9-4-1.7-6-2.5C272.8-5.8,208-5.9,150,17.5c-2.4,1-4.7,1.9-7,3l-2,0.9l90.4,35.7V150l-78.9,63.1l-93.9-31.3l-17.8-75.8
            c-3.1,4.6-6,9.4-8.8,14.2v-0.1C11,156.6,0,197.9,0,239.9c0,7.5,0.4,15,1.1,22.3l53.2-63.9l92.8,30.9l23.6,94.3l-45.9,61.2
            l-85.4-13.5c1.5,2.2,3,4.4,4.6,6.6l-0.3,0c30.8,43.9,75.4,76.2,126.7,91.8l-0.2-0.3c6.5,2,13.2,3.8,19.9,5.2L139,394.5l45.3-60.4
            h111.4l46,60.7L297.1,473c5.7-1.4,11.3-3.1,16.9-4.9l-0.2,0.3c49.6-16.1,92.6-47.8,122.5-90.4l-0.3,0c1.5-2.2,3.1-4.4,4.6-6.6
            l-85,13.4l-46.3-61.1l23.6-94.3l92.8-31l53.2,63.8c0.5-5.1,0.7-10.3,0.9-15.4c0.1-2.3,0.2-4.5,0.2-6.8
            C480,198.6,469.3,157.8,448.9,121.8z"/>
        <path d="M240,480C107.5,480,0,372.5,0,240S107.5,0,240,0s240,107.5,240,240C479.9,372.5,372.5,479.9,240,480z M240,16
            C116.3,16,16,116.3,16,240s100.3,224,224,224s224-100.3,224-224C463.9,116.3,363.7,16.1,240,16z"/>
    </symbol>

    <symbol id="yellow-card-01" role="img" aria-labelledby="yellow-card-01_title" viewBox="0 0 480 480">
        <title id="yellow-card-01_title"></title>
        <path fill="#FFCB47" d="M281.6,0H15C6.7,0,0,6.7,0,15v378c0,8.3,6.7,15,15,15h266.6c8.3,0,15-6.7,15-15V15C296.6,6.7,289.9,0,281.6,0z" />
        <path fill="#FFE369" d="M148.3,0H15C6.7,0,0,6.7,0,15v378c0,8.3,6.7,15,15,15h133.3V0z"/>
    </symbol>

</svg>