<svg xmlns="http://www.w3.org/2000/svg" xmlns:xlink="http://www.w3.org/1999/xlink">	

	<symbol id="affiliates-advantages01" role="img" aria-labelledby="affiliates-advantages01_title" viewBox="0 0 511.99734 511">
        <title id="affiliates-advantages01_title"></title>
        <path d="m452.527344 49.414062c-.050782 0-.097656 0-.148438 0-15.972656 0-30.996094 6.203126-42.320312 17.476563-3.257813 3.242187-6.085938 6.804687-8.480469 10.601563-5.914063-8.691407-12.664063-16.949219-20.25-24.644532-68.136719-69.105468-179.789063-69.894531-248.894531-1.757812-8.132813 8.015625-15.421875 16.78125-21.796875 26.132812-2.359375-3.695312-5.125-7.164062-8.308594-10.332031-11.359375-11.304687-26.417969-17.523437-42.46875-17.476563-33.082031.078126-59.9335938 27.058594-59.859375 60.132813v249.980469c.0625 27.164062 11.085938 52.777344 30.160156 72.125l79.628906 80.761718h56.175782l-107.320313-108.847656c-11.671875-11.835937-18.605469-27.507812-18.644531-44.125v-249.976562c-.023438-11.03125 8.925781-20.023438 19.953125-20.050782h.050781c5.324219 0 10.332032 2.070313 14.105469 5.824219 3.785156 3.769531 5.878906 8.789063 5.890625 14.117188v178.058593l.351562-.011718c-.660156 5.503906-.515624 11.140625.503907 16.742187 1.171875 6.433594 4.0625 18.589844 10.269531 27.730469 3.519531 5.1875 70.175781 88.863281 98.667969 124.601562l31.273437-24.9375c-36.578125-45.875-92.28125-115.925781-96.921875-122.242187-.945312-1.484375-2.785156-5.988281-3.9375-12.320313-.949219-5.226562.730469-10.566406 4.503907-14.285156 3.042968-3 7.105468-4.601562 11.347656-4.605468 4.273437.03125 8.28125 1.722656 11.285156 4.769531l97.167969 98.476562c.585937.59375 1.164062 1.191407 1.742187 1.789063 28.097656 29.195312 46.300782 65.78125 52.644532 105.800781l3.726562 23.496094h40.378906l-.621094-4.667969-3.976562-25.089844c-6.945312-43.804687-25.707031-84.191406-54.492188-117.570312l80.816407-81.90625c3-3.042969 7.007812-4.734375 11.28125-4.765625 4.234375-.03125 8.300781 1.605469 11.34375 4.605469 3.773437 3.71875 5.457031 9.058593 4.503906 14.289062-1.148437 6.320312-2.984375 10.824219-3.9375 12.316406-1.28125 1.738282-8.855469 11.539063-49.546875 62.730469 7.800781 12.355469 14.59375 25.289063 20.332031 38.703125 2.316407-2.914062 4.675781-5.878906 7.050781-8.867188 52.5-66.03125 54.246094-68.605468 55.183594-69.988281 6.207032-9.140625 9.101563-21.300781 10.273438-27.730469.835937-4.59375 1.085937-9.214843.785156-13.765624v-110.152344c.058594-2.652344.058594-5.300782 0-7.953125v-63.234375c.011719-5.34375 2.488281-10.359375 6.273438-14.128906 3.773437-3.757813 8.78125-5.824219 14.109374-5.824219h.046876c11.027343.023437 19.59375 9.019531 19.570312 20.054687v249.964844c-.039062 16.621094-6.589844 32.292969-18.261719 44.132812l-107.320312 108.847657h56.175781l79.628906-80.765625c19.074219-19.34375 29.710938-44.957032 29.773438-72.128906v-249.96875c.078125-33.082032-26.386719-60.0625-59.46875-60.140626zm-116.273438 205.679688-54.058594 54.785156c-17.074218 3.324219-34.824218 3.34375-51.914062.082032l-54.460938-55.191407c-10.5-10.652343-24.519531-16.578125-39.480468-16.683593-.527344-.003907-1.050782.015624-1.574219.027343-26.433594-52.023437-16.449219-116.9375 25.75-158.542969 53.398437-52.648437 139.675781-52.039062 192.328125 1.359376 41.449219 42.042968 50.871094 105.65625 24.238281 157.511718-.453125-.007812-.902343-.027344-1.355469-.027344-14.953124.109376-28.976562 6.03125-39.472656 16.679688zm-27.253906-47.242188c0 20.847657-13.398438 39.269532-32 47.1875v25.375h-40v-25.226562c-5.933594-2.460938-11.4375-6.015625-16.230469-10.582031-10.167969-9.6875-15.769531-22.539063-15.769531-36.191407h40c0 5.621094 5.683594 10.742188 11.925781 10.742188 6.09375 0 12.074219-5.601562 12.074219-11.308594 0-3.953125-11.492188-9.878906-19.882812-14.207031l-1.371094-.703125c-13.191406-6.816406-37.746094-19.5-37.746094-50.972656 0-18.371094 11.0625-34.253906 27-41.605469v-26.945313h40v26.929688c15.941406 7.285156 27 22.953125 27 41.070312h-40c0-2.835937-3.371094-5.417968-7.074219-5.417968-3.558593 0-6.925781 2.898437-6.925781 5.96875 0 5.054687 1.457031 7.867187 16.105469 15.433594l1.34375.691406c8.617187 4.445312 17.527343 9.039062 25.082031 15.589844 10.929688 9.46875 16.46875 20.964843 16.46875 34.171874zm0 0"/>
    </symbol>

    <symbol id="affiliates-advantages02" role="img" aria-labelledby="affiliates-advantages02_title" viewBox="-10 0 512 512">
        <title id="affiliates-advantages02_title"></title>
        <path d="m451.910156 307.378906v-102.859375c23.269532-8.253906 39.988282-30.480469 39.988282-56.550781 0-33.074219-26.910157-59.988281-59.984376-59.988281-15.136718 0-28.972656 5.648437-39.535156 14.929687l-86.613281-47.226562c-2.214844-31.074219-28.1875-55.683594-59.816406-55.683594-31.824219 0-57.925781 24.914062-59.859375 56.261719l-86.378906 46.8125c-10.589844-9.382813-24.5-15.09375-39.722657-15.09375-33.078125 0-59.988281 26.914062-59.988281 59.988281 0 26.070312 16.71875 48.292969 39.992188 56.550781v102.859375c-23.273438 8.253906-39.992188 30.480469-39.992188 56.546875 0 33.078125 26.910156 59.988281 59.988281 59.988281 15.1875 0 29.070313-5.6875 39.648438-15.027343l86.453125 46.851562c1.933594 31.347657 28.035156 56.261719 59.859375 56.261719 31.628906 0 57.601562-24.609375 59.820312-55.683594l86.683594-47.265625c10.554687 9.242188 24.359375 14.863281 39.460937 14.863281 33.078126 0 59.988282-26.910156 59.988282-59.988281-.003906-26.066406-16.722656-48.292969-39.992188-56.546875zm-79.984375 56.546875c0 3.503907.316407 6.933594.898438 10.273438l-78.289063 42.6875c-10.910156-15.046875-28.617187-24.863281-48.585937-24.863281-19.800781 0-37.382813 9.648437-48.3125 24.484374l-78.515625-42.546874c.550781-3.265626.855468-6.613282.855468-10.035157 0-26.066406-16.71875-48.292969-39.992187-56.546875v-102.859375c23.273437-8.253906 39.992187-30.480469 39.992187-56.550781 0-3.386719-.300781-6.703125-.839843-9.9375l78.496093-42.539062c10.933594 14.835937 28.515626 24.484374 48.316407 24.484374 19.96875 0 37.675781-9.816406 48.585937-24.863281l78.269532 42.675781c-.566407 3.3125-.878907 6.710938-.878907 10.179688 0 26.070312 16.71875 48.292969 39.992188 56.550781v102.859375c-23.273438 8.253906-39.992188 30.480469-39.992188 56.546875zm59.988281-235.953125c11.023438 0 19.996094 8.972656 19.996094 19.996094 0 11.027344-8.972656 19.996094-19.996094 19.996094-11.027343 0-19.996093-8.96875-19.996093-19.996094 0-11.023438 8.96875-19.996094 19.996093-19.996094zm-185.964843-87.980468c11.027343 0 19.996093 8.96875 19.996093 19.996093 0 11.023438-8.96875 19.996094-19.996093 19.996094-11.023438 0-19.996094-8.972656-19.996094-19.996094 0-11.027343 8.972656-19.996093 19.996094-19.996093zm-185.960938 87.980468c11.023438 0 19.996094 8.972656 19.996094 19.996094 0 11.027344-8.972656 19.996094-19.996094 19.996094-11.027343 0-19.996093-8.96875-19.996093-19.996094 0-11.023438 8.96875-19.996094 19.996093-19.996094zm0 255.949219c-11.027343 0-19.996093-8.96875-19.996093-19.996094 0-11.027343 8.96875-19.996093 19.996093-19.996093 11.023438 0 19.996094 8.96875 19.996094 19.996093 0 11.027344-8.972656 19.996094-19.996094 19.996094zm185.960938 88.085937c-11.023438 0-19.996094-8.96875-19.996094-19.996093 0-11.023438 8.972656-19.996094 19.996094-19.996094 11.027343 0 19.996093 8.972656 19.996093 19.996094 0 11.027343-8.96875 19.996093-19.996093 19.996093zm185.964843-88.085937c-11.027343 0-19.996093-8.96875-19.996093-19.996094 0-11.027343 8.96875-19.996093 19.996093-19.996093 11.023438 0 19.996094 8.96875 19.996094 19.996093 0 11.027344-8.972656 19.996094-19.996094 19.996094zm-134.65625-129.769531c8.5625-11.007813 13.679688-24.820313 13.679688-39.8125 0-35.835938-29.152344-64.988282-64.988281-64.988282-35.832031 0-64.984375 29.152344-64.984375 64.988282 0 14.992187 5.117187 28.804687 13.675781 39.8125-29.132813 17.492187-48.671875 49.394531-48.671875 85.777344h39.992188c0-33.074219 26.910156-59.988282 59.988281-59.988282s59.988281 26.914063 59.988281 59.988282h39.992188c0-36.382813-19.539063-68.285157-48.671876-85.777344zm-51.308593-64.808594c13.78125 0 24.996093 11.210938 24.996093 24.996094 0 13.78125-11.214843 24.992187-24.996093 24.992187s-24.992188-11.210937-24.992188-24.992187c0-13.785156 11.210938-24.996094 24.992188-24.996094zm0 0"/>
    </symbol>

    <symbol id="affiliates-advantages03" role="img" aria-labelledby="affiliates-advantages03_title" viewBox="0 0 512 512">
        <title id="affiliates-advantages03_title"></title>
        <path d="m423.8125 259.429688-28.25 28.25 39.953125 39.957031h-72.898437c-8.222657-49.078125-55.351563-73.652344-97.382813-95.5625-37.574219-19.585938-64.171875-36.582031-64.171875-77.09375 0-29.828125 24.644531-54.09375 54.9375-54.09375s54.9375 24.199219 54.9375 53.941406v19.976563h39.957031v-19.976563c0-44.996094-32.152343-82.691406-74.917969-91.796875v-63.03125h-39.953124v63.035156c-37.546876 8.007813-66.90625 38.085938-73.515626 75.8125h-86.023437l39.953125-39.957031-28.25-28.253906-88.1875 88.1875 88.1875 88.1875 28.25-28.253907-39.953125-39.957031h86.925781c3.859375 18.886719 12.589844 35.300781 26.390625 49.746094 16.28125 17.039063 37.066407 28.585937 56.964844 38.960937 48.007813 25.023438 77.15625 42.601563 77.15625 75.613282 0 37.089844-31.105469 68.421875-67.921875 68.421875-36.820312 0-67.925781-31.5625-67.925781-68.921875v-19.980469h-39.957031v19.980469c0 28.683594 11.21875 55.875 31.59375 76.566406 15.671874 15.917969 35.183593 26.363281 56.308593 30.414062v61.828126h39.957031v-61.8125c21.117188-4.011719 40.613282-14.359376 56.257813-30.125 14.480469-14.59375 24.335937-32.488282 28.84375-51.902344h74.4375l-39.953125 39.957031 28.25 28.253906 88.1875-88.1875zm0 0"/>
    </symbol>

    <symbol id="affiliates-advantages04" role="img" aria-labelledby="affiliates-advantages04_title" viewBox="0 0 512 512">
        <title id="affiliates-advantages04_title"></title>
        <path d="M443.804,307.88c-4.252,15.397-10.406,30.188-18.388,44.19l34.875,60.573l-47.646,47.647l-60.574-34.876  c-14.004,7.982-28.794,14.137-44.192,18.389L289.739,512h-67.479l-18.14-68.196c-15.398-4.252-30.188-10.406-44.192-18.389  l-60.574,34.876l-47.646-47.647l34.876-60.573c-7.982-14.003-14.137-28.793-18.389-44.191L0,289.74v-67.48l68.196-18.139  c4.251-15.397,10.406-30.188,18.389-44.191L51.709,99.355l47.646-47.647l60.575,34.877c14.004-7.982,28.793-14.137,44.191-18.389  L222.261,0h67.479l18.14,68.196c18.468,5.1,36.059,12.94,52.469,23.386l-27.195,30.279c-14.283-8.264-29.581-14.126-45.599-17.442  l-12.098-2.504L258.988,40h-5.977l-16.468,61.915l-12.098,2.504c-18.907,3.914-36.817,11.362-53.232,22.14l-10.289,6.755  l-54.961-31.645l-4.293,4.294l31.645,54.961l-6.755,10.289c-10.778,16.416-18.227,34.325-22.14,53.231l-2.504,12.099L40,253.012  v5.977l61.915,16.469l2.504,12.099c3.914,18.907,11.363,36.817,22.14,53.231l6.755,10.289l-31.644,54.96l4.293,4.294l54.96-31.644  l10.289,6.755c16.415,10.777,34.325,18.227,53.232,22.14l12.099,2.504L253.012,472h5.977l16.468-61.915l12.099-2.504  c18.907-3.913,36.817-11.362,53.232-22.14l10.289-6.755l54.96,31.644l4.294-4.294l-31.644-54.96l6.755-10.289  c10.776-16.414,18.226-34.324,22.14-53.232l2.505-12.098L472,258.988v-5.977l-61.914-16.469l-2.504-12.099  c-0.325-1.571-0.684-3.132-1.058-4.689l30.981-34.494c2.418,6.175,4.533,12.461,6.3,18.86L512,222.26v67.48L443.804,307.88z   M172.777,204.677l-27.555,28.996l105.227,99.995L472.36,86.592l-29.759-26.729l-194.42,216.469L172.777,204.677z"/>
    </symbol>

    <symbol id="affiliates-advantages05" role="img" aria-labelledby="affiliates-advantages05_title" viewBox="0 0 512 512">
        <title id="affiliates-advantages05_title"></title>
        <path d="m236.308594 231.382812h59.074218c8.160157 0 14.769532-6.609374 14.769532-14.765624 0-8.160157-6.609375-14.769532-14.769532-14.769532h-24.613281v-14.769531c0-8.15625-6.613281-14.769531-14.769531-14.769531s-14.769531 6.613281-14.769531 14.769531v14.769531h-4.921875c-19.003906 0-34.460938 15.457032-34.460938 34.460938 0 19 15.457032 34.460937 34.460938 34.460937h39.382812c2.714844 0 4.925782 2.207031 4.925782 4.921875s-2.210938 4.925782-4.925782 4.925782h-59.074218c-8.160157 0-14.769532 6.609374-14.769532 14.765624 0 8.160157 6.609375 14.769532 14.769532 14.769532h24.613281v14.769531c0 8.15625 6.613281 14.769531 14.769531 14.769531s14.769531-6.613281 14.769531-14.769531v-14.769531h4.921875c19.003906 0 34.460938-15.457032 34.460938-34.460938 0-19-15.457032-34.460937-34.460938-34.460937h-39.382812c-2.714844 0-4.925782-2.207031-4.925782-4.921875s2.210938-4.925782 4.925782-4.925782zm0 0"/>
        <path d="m437.019531 74.980469c-48.351562-48.351563-112.640625-74.980469-181.019531-74.980469s-132.667969 26.628906-181.019531 74.980469c-48.351563 48.351562-74.980469 112.640625-74.980469 181.019531s26.628906 132.667969 74.980469 181.019531c48.351562 48.351563 112.640625 74.980469 181.019531 74.980469s132.667969-26.628906 181.019531-74.980469c48.351563-48.351562 74.980469-112.640625 74.980469-181.019531s-26.628906-132.667969-74.980469-181.019531zm44.949219 166.25h-74.058594c-2.355468-24.667969-10.613281-48.148438-24.273437-68.921875h82.789062c8.601563 21.550781 13.976563 44.726562 15.542969 68.921875zm-29.90625-98.460938h-76.457031c-8.988281-35.980469-22.164063-67.1875-38.699219-91.363281-2.257812-3.304688-4.570312-6.449219-6.921875-9.445312 51.726563 17.929687 95.003906 54.109374 122.078125 100.808593zm-181.292969-110.699219c28.007813 9.566407 53.855469 45.660157 70.296875 97.21875-4.800781-3.234374-9.78125-6.199218-14.914062-8.859374-17.15625-8.894532-36.0625-14.429688-55.382813-16.3125zm-29.539062 0v72.046876c-19.320313 1.882812-38.226563 7.421874-55.382813 16.3125-5.132812 2.660156-10.113281 5.625-14.914062 8.859374 16.441406-51.558593 42.289062-87.652343 70.296875-97.21875zm-59.214844 9.890626c-2.355469 2.996093-4.664063 6.140624-6.921875 9.445312-16.535156 24.175781-29.710938 55.382812-38.699219 91.363281h-76.457031c27.074219-46.699219 70.351562-82.878906 122.078125-100.808593zm-136.441406 130.347656h82.792969c-13.664063 20.773437-21.921876 44.253906-24.277344 68.921875h-74.058594c1.566406-24.195313 6.941406-47.371094 15.542969-68.921875zm-15.542969 98.460937h74.058594c2.355468 24.667969 10.613281 48.148438 24.277344 68.921875h-82.792969c-8.601563-21.550781-13.976563-44.726562-15.542969-68.921875zm29.90625 98.460938h76.457031c8.988281 35.980469 22.164063 67.1875 38.699219 91.363281 2.257812 3.304688 4.570312 6.449219 6.921875 9.445312-51.726563-17.929687-95.003906-54.109374-122.078125-100.808593zm181.292969 110.699219c-28.007813-9.566407-53.855469-45.660157-70.296875-97.21875 4.800781 3.234374 9.78125 6.199218 14.914062 8.859374 17.15625 8.890626 36.0625 14.429688 55.382813 16.3125zm-84.578125-151.257813c-15.523438-21.195313-23.730469-46.328125-23.730469-72.671875s8.207031-51.476562 23.726563-72.667969c23.140624-31.5625 60.28125-50.410156 99.351562-50.410156s76.210938 18.847656 99.351562 50.410156c15.519532 21.191407 23.726563 46.324219 23.726563 72.667969s-8.207031 51.476562-23.730469 72.671875c-23.136718 31.558594-60.277344 50.40625-99.347656 50.40625s-76.210938-18.847656-99.347656-50.40625zm114.117187 151.257813v-72.046876c19.320313-1.882812 38.226563-7.417968 55.382813-16.3125 5.132812-2.660156 10.113281-5.625 14.914062-8.859374-16.441406 51.558593-42.289062 87.652343-70.296875 97.21875zm59.214844-9.890626c2.355469-2.996093 4.664063-6.140624 6.921875-9.445312 16.535156-24.175781 29.710938-55.382812 38.699219-91.363281h76.457031c-27.074219 46.699219-70.351562 82.878906-122.078125 100.808593zm136.441406-130.347656h-82.792969c13.664063-20.773437 21.921876-44.253906 24.277344-68.921875h74.054688c-1.5625 24.195313-6.9375 47.371094-15.539063 68.921875zm0 0"/>
    </symbol>

    <symbol id="affiliates-advantages06" role="img" aria-labelledby="affiliates-advantages06_title" viewBox="-21 -21 682.66669 682.66669">
        <title id="affiliates-advantages06_title"></title>
        <path d="m56.25 240h-56.25v-50h56.25zm-33.21875 98.753906 22.496094 44.652344 53.046875-26.71875-22.496094-44.652344zm74.292969-269.261718-51.796875-26.089844-22.496094 44.652344 51.796875 26.09375zm444.101562 287.195312 53.046875 26.71875 22.496094-44.652344-53.046875-26.71875zm75.542969-268.632812-22.496094-44.652344-51.796875 26.089844 22.496094 44.65625zm-81.972656 125.515624h.003906l-.003906 1.429688c-.394532 85.859375-36.503906 133.375-68.386719 175.328125-26.65625 35.082031-47.722656 62.800781-47.722656 108.9375v65.734375c0 41.359375-33.644531 75-75 75h-47.777344c-41.351563 0-75-33.640625-75-75v-65.734375c0-46.136719-21.0625-73.855469-47.71875-108.9375-31.882813-41.953125-67.992187-89.46875-68.386719-175.328125h-.003906l.003906-1.429688c.773438-117.898437 96.917969-213.570312 214.996094-213.570312s214.222656 95.671875 214.996094 213.570312zm-166.109375 351.429688v-48.75h-97.777344v48.75c0 13.785156 11.214844 25 25 25h47.777344c13.789062 0 25-11.214844 25-25zm116.113281-350.632812c-.34375-90.695313-74.226562-164.367188-165-164.367188s-164.65625 73.671875-165 164.367188c.214844 69.402343 28.382812 106.472656 58.199219 145.707031 23.132812 30.441406 46.910156 61.726562 55.007812 106.175781h103.585938c8.097656-44.449219 31.875-75.734375 55.007812-106.175781 29.816407-39.234375 57.984375-76.304688 58.199219-145.707031zm98.75-24.367188v50h56.25v-50zm-251.789062 28.472656-.570313-.300781c-20.4375-10.585937-25.140625-15.125-25.140625-24.296875 0-5.742188 6.757812-11.375 13.648438-11.375 6.710937 0 12.601562 5.160156 12.601562 11.039062h50c0-24.953124-15.445312-46.445312-37.5-55.898437v-40.140625h-50v40.085938c-22.542969 9.558593-38.75 31.484374-38.75 56.285156 0 41.699218 32.648438 58.605468 52.152344 68.703125l.578125.300781c17.980469 9.308594 29.769531 15.960938 29.769531 23.277344 0 9.863281-8.984375 18.847656-18.851562 18.847656-9.933594 0-18.648438-8.765625-18.648438-18.75h-50c0 18.125 7.15625 35.304688 20.15625 48.378906 6.867188 6.902344 14.886719 12.164063 23.59375 15.609375v41.011719h50v-41.089844c8.640625-3.457031 16.617188-8.691406 23.460938-15.550781 13.082031-13.117187 20.289062-30.320313 20.289062-48.457031 0-38.28125-32.820312-55.273438-56.789062-67.679688zm0 0"/>
    </symbol>

    <symbol id="affiliates-advantages07" role="img" aria-labelledby="affiliates-advantages07_title" viewBox="-10 0 512 512">
        <title id="affiliates-advantages07_title"></title>
        <path d="m442 286.925781v-61.851562c28.882812-8.628907 50-35.425781 50-67.074219 0-38.597656-31.402344-70-70-70-20.449219 0-38.878906 8.820312-51.691406 22.851562l-55.140625-30.066406c.546875-3.519531.832031-7.121094.832031-10.785156 0-38.597656-31.402344-70-70-70s-70 31.402344-70 70c0 3.652344.28125 7.238281.824219 10.738281l-55.28125 29.957031c-12.804688-13.9375-31.167969-22.695312-51.542969-22.695312-38.597656 0-70 31.402344-70 70 0 30.914062 20.152344 57.191406 48 66.4375v63.125c-27.847656 9.246094-48 35.523438-48 66.4375 0 38.597656 31.402344 70 70 70 20.347656 0 38.691406-8.734375 51.492188-22.640625l55.28125 30.273437c-.503907 3.382813-.773438 6.84375-.773438 10.367188 0 38.597656 31.402344 70 70 70s70-31.402344 70-70c0-3.714844-.296875-7.363281-.859375-10.925781l54.710937-30.445313c12.824219 14.332032 31.449219 23.371094 52.148438 23.371094 38.597656 0 70-31.402344 70-70 0-31.648438-21.117188-58.445312-50-67.074219zm-20-158.925781c16.542969 0 30 13.457031 30 30s-13.457031 30-30 30-30-13.457031-30-30 13.457031-30 30-30zm-176-88c16.542969 0 30 13.457031 30 30s-13.457031 30-30 30-30-13.457031-30-30 13.457031-30 30-30zm-176 88c16.542969 0 30 13.457031 30 30s-13.457031 30-30 30-30-13.457031-30-30 13.457031-30 30-30zm0 256c-16.542969 0-30-13.457031-30-30s13.457031-30 30-30 30 13.457031 30 30-13.457031 30-30 30zm69.0625-18.625c.609375-3.703125.9375-7.5.9375-11.375 0-32.375-22.097656-59.679688-52-67.644531v-60.714844c29.902344-7.964844 52-35.265625 52-67.640625 0-3.851562-.324219-7.625-.925781-11.308594l55-29.804687c8.488281 9.394531 19.488281 16.46875 31.925781 20.1875v21.496093c-20.464844 7.84375-35 27.328126-35 50.085938 0 37.777344 29.78125 53.242188 45.78125 61.550781l.261719.136719c20.363281 10.570312 29.957031 16.507812 29.957031 25.230469 0 11.347656-9.8125 21.300781-21 21.300781-11.382812 0-21-9.558594-21-20.875v-8h-40v8c0 16.140625 6.386719 31.398438 17.980469 42.960938 6.636719 6.617187 14.488281 11.523437 23.019531 14.515624v21.449219c-12.550781 3.75-23.632812 10.925781-32.152344 20.449219zm106.9375 106.625c-16.542969 0-30-13.457031-30-30s13.457031-30 30-30 30 13.457031 30 30-13.457031 30-30 30zm51.789062-77.046875c-8.46875-9.316406-19.421874-16.332031-31.789062-20.027344v-21.496093c8.566406-3.042969 16.453125-8.039063 23.117188-14.78125 11.53125-11.664063 17.882812-26.960938 17.882812-43.074219 0-15.679688-6.519531-29.355469-19.378906-40.65625-9.417969-8.277344-20.972656-14.273438-32.144532-20.078125l-.261718-.132813c-19.234375-9.988281-24.214844-15.34375-24.214844-26.050781 0-7.597656 6.730469-13.78125 15-13.78125 7.371094 0 15 4.910156 15 13.125v5h40v-5c0-14.664062-5.960938-28.269531-16.78125-38.308594-5.3125-4.929687-11.503906-8.707031-18.21875-11.21875v-21.398437c12.421875-3.710938 23.410156-10.773438 31.894531-20.148438l54.992188 29.984375c-.578125 3.613282-.886719 7.316406-.886719 11.089844 0 31.648438 21.117188 58.445312 50 67.074219v61.851562c-28.882812 8.628907-50 35.425781-50 67.074219 0 3.519531.269531 6.976562.769531 10.355469zm124.210938-10.953125c-16.542969 0-30-13.457031-30-30s13.457031-30 30-30 30 13.457031 30 30-13.457031 30-30 30zm0 0"/>
    </symbol>

    <symbol id="affiliates-advantages08" role="img" aria-labelledby="affiliates-advantages08_title" viewBox="0 0 512 512">
        <title id="affiliates-advantages08_title"></title>
        <path d="M437.02,74.98C388.667,26.629,324.38,0,256,0S123.333,26.629,74.98,74.98C26.629,123.333,0,187.62,0,256
			s26.629,132.667,74.98,181.02C123.333,485.371,187.62,512,256,512s132.667-26.629,181.02-74.98
			C485.371,388.667,512,324.38,512,256S485.371,123.333,437.02,74.98z M471.687,244.413l-99.495,99.495l-11.839-11.839
			c11.786-16.278,19.902-35.378,23.11-56.082l80.036-80.036C467.995,211.464,470.799,227.688,471.687,244.413z M447.227,155.655
			l-66.662,66.662c-3.854-14.354-10.108-27.735-18.307-39.684l61.959-61.959C432.964,131.524,440.683,143.233,447.227,155.655z
			 M396.361,91.961l-61.519,61.518c-11.013-8.596-23.443-15.455-36.873-20.172l64.948-64.936
			C374.82,75.181,386.011,83.092,396.361,91.961z M276,40.934c16.542,1.526,32.548,4.921,47.806,9.979L276,98.71V40.934z M345,256
			c0,49.626-40.374,90-90,90c-49.626,0-90-40.374-90-90c0-49.626,40.374-90,90-90C304.626,166,345,206.374,345,256z M256,472
			c-119.103,0-216-96.897-216-216c0-112.359,86.24-204.94,196-215.066v86.458C173.292,136.616,125,190.771,125,256
			c0,71.683,58.318,130,130,130c28.896,0,55.617-9.481,77.225-25.49l61.641,61.64C356.433,453.264,308.365,472,256,472z
			 M422.15,393.866l-21.672-21.672l65.499-65.499C458.122,339.227,442.892,368.911,422.15,393.866z"/>
    </symbol>
    
</svg>