<svg xmlns="http://www.w3.org/2000/svg" xmlns:xlink="http://www.w3.org/1999/xlink">

	<symbol id="services01" role="img" aria-labelledby="services01_title" viewBox="0 0 512 512">
        <title id="services01_title"></title>
        <path style="fill:#F4D2F7;" d="M475.567,117.75c-0.233-1.366-0.78-2.664-1.603-3.776c-1.444-1.953-15.163-18.99-59.725-26.782
            l-27.283-25.748c-13.064-36.07-42.523-55.63-43.794-56.462c-0.538-0.349-1.112-0.642-1.716-0.866
            c-1.668-0.633-40.717-14.848-77.81,13.53L96.682,61.732c-39.036,4.685-65.987,32.459-67.12,33.644
            c-0.647,0.676-1.185,1.452-1.586,2.297c-0.746,1.556-17.719,38.066,1.746,79.633l-2.56,101.942
            c-13.218,29.658-18.649,65.405-18.878,66.94c-0.285,1.909,0.07,3.862,0.995,5.556c2.858,5.194,28.407,49.889,62.255,51.82
            l149.839,76.762c29.076,22.326,62.047,31.032,63.448,31.394c0.724,0.185,1.465,0.28,2.211,0.28c0.517,0,1.031-0.043,1.543-0.138
            c10.918-1.935,35.433-19.52,54.014-51.199l26.873-21.762c35.498,1.927,66.207-8.486,67.543-8.943
            c1.198-0.409,2.293-1.074,3.211-1.949c8.84-8.391,20.24-36.321,18.158-72.348l20.434-162.726
            C482.027,156.739,475.829,119.322,475.567,117.75z"/>
        <path style="fill:#F0B8E5;" d="M429.203,132.253L331.14,48.577C271.275,1.943,163.058,7.262,158.467,7.499
            c-1.547,0.086-3.048,0.574-4.345,1.422c-3.706,2.417-90.904,60.086-99.204,134.107l-8.185,165.635c0,0.073-0.004,0.142-0.004,0.215
            c-1.875,74.943,66.922,153.606,69.854,156.921c1.078,1.216,2.465,2.112,4.022,2.591c2.483,0.762,38.643,11.624,80.96,11.624
            c28.17,0,59.078-4.818,84.568-20.641l103.385-46.76c68.909-29.524,111.746-124.845,113.539-128.887
            c0.625-1.413,0.866-2.966,0.707-4.504C503.307,274.925,491.902,173.785,429.203,132.253z"/>
        <path style="fill:#EDA0D3;" d="M404.558,300.823c-1.444,0.065-36.136,1.94-99.799,29.861
            c-63.263,27.752-120.591,74.236-123.001,76.202c-3.104,2.53-4.116,6.828-2.469,10.473c17.227,38.144,89.783,44.277,134.659,44.277
            c17.491,0,30.782-0.936,34.942-1.263c2.202-0.177,4.254-1.168,5.758-2.784c3.694-3.966,90.063-97.701,57.927-152.417
            C410.916,302.349,407.951,300.78,404.558,300.823z"/>
        <path style="fill:#EDA0D3;" d="M143.274,93.402C76.511,88.653,12.072,200.395,9.352,205.153c-1.043,1.827-1.401,3.966-1.008,6.034
            c1.013,5.318,25.524,130.405,88.654,136.848c0.301,0.034,0.599,0.047,0.897,0.047c2.788,0,5.431-1.319,7.107-3.59
            c1.022-1.392,25.249-34.778,37.627-96.674c12.207-61.027,8.995-142.538,8.852-145.978C151.295,97.35,147.761,93.712,143.274,93.402
            z"/>
        <path style="fill:#EDA0D3;" d="M403.205,68.784c-1.056-1.888-2.763-3.319-4.802-4.03c-12.538-4.37-123.241-41.311-152.313,5.84
            c-1.004,1.63-1.452,3.543-1.276,5.448c0.125,1.388,3.719,34.528,54.014,83.676c49.937,48.802,117.466,60.905,120.315,61.397
            c0.504,0.086,1.004,0.129,1.504,0.129c3.125,0,6.069-1.668,7.659-4.448C457.119,166.376,405.416,72.745,403.205,68.784z"/>
        <path style="fill:#E985C0;" d="M198.098,54.892c-2.026-0.289-4.151,0.129-5.926,1.212c-9.677,5.953-93.825,59.474-69.44,106.225
            c1.203,2.302,3.353,3.957,5.883,4.529c5.499,1.241,40.346,8.818,71.78,8.818c14.965,0,29.162-1.72,39.036-6.654
            c28.986-14.495,65.077-40.364,66.599-41.458c2.125-1.526,3.466-3.918,3.655-6.53C313.133,73.442,209.882,56.651,198.098,54.892z"/>
        <path style="fill:#E985C0;" d="M181.655,289.859c-61.28-26.873-79.947-19.701-85.141-15.379c-0.561,0.47-1.065,1.008-1.492,1.603
            c-21.878,30.235,11.081,114.867,17.908,131.526c1.133,2.763,3.59,4.767,6.525,5.323c13.955,2.646,43.807,7.586,71.835,7.586
            c28.446,0,55.018-5.09,61.156-22.83c0.366-1.056,0.53-2.168,0.479-3.285C252.789,391.352,248.801,319.309,181.655,289.859z"/>
        <path style="fill:#E985C0;" d="M441.677,249.943c-3.414-9.741-34.778-95.295-83.085-100.472c-3.396-0.366-6.797,1.314-8.556,4.31
            c-1.728,2.948-42.191,72.719-30.447,120.876c11.094,45.489,20.154,66.103,20.537,66.957c1.189,2.677,3.625,4.586,6.508,5.103
            c3.091,0.552,6.107,0.814,9.06,0.814c53.979,0,84.662-87.874,86.007-91.813C442.345,253.844,442.336,251.81,441.677,249.943z"/>
        <path style="fill:#E168A9;" d="M223.885,164.346c-6.374-15.477-16.856-24.951-31.157-28.161
            c-44.251-9.969-108.264,46.876-115.415,53.38c-2.112,1.922-3.163,4.746-2.824,7.577c1.332,11.129,14.305,109.277,59.117,128.78
            c5.266,2.293,10.681,3.435,16.232,3.435c10.633,0,21.757-4.203,33.239-12.585c1.63-1.189,2.801-2.905,3.323-4.853l37.851-141.935
            C224.748,168.113,224.622,166.134,223.885,164.346z"/>
        <path style="fill:#E168A9;" d="M367.371,285.049c-3.966-15.266-15.999-25.769-35.756-31.227c-1.858-0.513-3.836-0.405-5.629,0.31
            l-141.93,56.772c-2.323,0.931-4.146,2.81-5.008,5.159c-7.211,19.684-5.75,36.778,4.345,50.811
            c24.887,34.593,96.166,36.791,113.846,36.791c2.138,0,3.491-0.03,3.887-0.043c2.232-0.061,4.362-0.97,5.953-2.539
            C314.449,393.822,378.759,328.83,367.371,285.049z"/>
        <path style="fill:#E168A9;" d="M356.656,136.822c-0.78-2.638-2.736-4.759-5.302-5.741c-8.219-3.155-81.383-30.101-116.777-4.956
            c-12.667,9.004-18.8,23.085-18.219,41.855c0.077,2.552,1.259,4.943,3.233,6.56l104.084,85.158c1.59,1.302,3.568,1.996,5.59,1.996
            c0.552,0,1.103-0.052,1.651-0.156c11.305-2.155,20.115-8.289,26.18-18.231C377.758,209.428,357.527,139.77,356.656,136.822z"/>
        <path style="fill:#D25397;" d="M329.226,252.839c0,45.547-35.661,82.709-80.59,85.092c19.331-10.063,38.751-31.424,40.957-56.14
            c1.677-18.095-5.914-38.044-29.747-56.669c-4.502-3.531-7.856-7.238-10.239-11.034c-12.27-18.801-0.883-39.28,15.271-43.782
            C301.862,179.574,329.226,213.029,329.226,252.839z"/>
        <path style="fill:#D75A9D;" d="M249.607,214.088c-15.182,22.421-50.226,2.913-57.817,60.288
            c-14.123-9.798-24.627-24.539-29.747-44.223c9.886-35.926,42.899-62.407,82.091-62.407c7.15,0,14.123,0.883,20.743,2.56
            C248.724,174.808,237.337,195.287,249.607,214.088z"/>
        <path style="fill:#DC60A3;" d="M289.593,281.791c-2.207,24.716-21.626,46.077-40.957,56.14c-0.088,0-0.088,0-0.088,0
            c-1.501,0.088-2.913,0.088-4.413,0.088c-47.048,0-85.181-38.133-85.181-85.181c0-7.856,1.059-15.447,3.089-22.685
            c5.12,19.684,15.624,34.425,29.747,44.223C216.505,291.677,252.255,293.884,289.593,281.791z"/>
        <path style="fill:#C9478D;" d="M289.593,281.791c-37.338,12.093-73.088,9.886-97.803-7.415
            c7.591-57.375,42.634-37.868,57.817-60.288c2.383,3.796,5.738,7.503,10.239,11.034C283.679,243.747,291.27,263.696,289.593,281.791z
            "/>
    </symbol>

    <symbol id="services02" role="img" aria-labelledby="services02_title" viewBox="0 0 64 64">
        <title id="services02_title"></title>
        <path d="m6 5h2v2h-2z"/>
        <path d="m10 5h2v2h-2z"/>
        <path d="m14 5h2v2h-2z"/>
        <path d="m59 2h-54a3 3 0 0 0 -3 3v44a3 3 0 0 0 3 3h10v-2h-10a1 1 0 0 1 -1-1v-39h56v39a1 1 0 0 1 -1 1h-10v2h10a3 3 0 0 0 3-3v-44a3 3 0 0 0 -3-3zm-55 6v-3a1 1 0 0 1 1-1h54a1 1 0 0 1 1 1v3z"/>
        <path d="m35 62h-6a1 1 0 0 1 -1-1v-3.538a14.886 14.886 0 0 1 -3.4-1.411l-2.5 2.506a1 1 0 0 1 -.707.293 1 1 0 0 1 -.707-.293l-4.24-4.24a1 1 0 0 1 0-1.414l2.503-2.503a14.885 14.885 0 0 1 -1.411-3.4h-3.538a1 1 0 0 1 -1-1v-6a1 1 0 0 1 1-1h3.538a14.885 14.885 0 0 1 1.411-3.4l-2.506-2.5a1 1 0 0 1 0-1.414l4.24-4.24a1.028 1.028 0 0 1 1.414 0l2.503 2.503a14.886 14.886 0 0 1 3.4-1.411v-3.538a1 1 0 0 1 1-1h6a1 1 0 0 1 1 1v3.538a14.9 14.9 0 0 1 3.4 1.411l2.5-2.506a1 1 0 0 1 .707-.293 1 1 0 0 1 .707.293l4.24 4.24a1 1 0 0 1 0 1.414l-2.503 2.503a14.885 14.885 0 0 1 1.411 3.4h3.538a1 1 0 0 1 1 1v6a1 1 0 0 1 -1 1h-3.538a14.885 14.885 0 0 1 -1.411 3.4l2.506 2.5a1 1 0 0 1 0 1.414l-4.24 4.24a1.029 1.029 0 0 1 -1.414 0l-2.503-2.503a14.9 14.9 0 0 1 -3.4 1.411v3.538a1 1 0 0 1 -1 1zm-5-2h4v-3.32a1 1 0 0 1 .785-.976 12.96 12.96 0 0 0 4.225-1.755 1 1 0 0 1 1.247.134l2.353 2.353 2.826-2.826-2.353-2.353a1 1 0 0 1 -.135-1.248 12.9 12.9 0 0 0 1.752-4.223 1 1 0 0 1 .98-.786h3.32v-4h-3.32a1 1 0 0 1 -.977-.786 12.9 12.9 0 0 0 -1.755-4.223 1 1 0 0 1 .135-1.248l2.353-2.353-2.826-2.826-2.353 2.353a1 1 0 0 1 -1.247.134 12.96 12.96 0 0 0 -4.225-1.751 1 1 0 0 1 -.785-.98v-3.32h-4v3.32a1 1 0 0 1 -.785.976 12.96 12.96 0 0 0 -4.225 1.755 1 1 0 0 1 -1.247-.134l-2.353-2.353-2.826 2.826 2.353 2.353a1 1 0 0 1 .135 1.248 12.9 12.9 0 0 0 -1.752 4.223 1 1 0 0 1 -.98.786h-3.32v4h3.32a1 1 0 0 1 .977.786 12.9 12.9 0 0 0 1.755 4.223 1 1 0 0 1 -.135 1.248l-2.353 2.353 2.826 2.826 2.353-2.353a1 1 0 0 1 1.247-.134 12.96 12.96 0 0 0 4.225 1.751 1 1 0 0 1 .785.98z"/>
        <path d="m32 54a11 11 0 1 1 11-11 11.013 11.013 0 0 1 -11 11zm0-20a9 9 0 1 0 9 9 9.01 9.01 0 0 0 -9-9z"/>
        <path d="m28 47a1 1 0 0 1 -.707-.293l-3-3a1 1 0 0 1 0-1.414l3-3a1 1 0 0 1 1.414 1.414l-2.293 2.293 2.293 2.293a1 1 0 0 1 -.707 1.707z"/>
        <path d="m36 47a1 1 0 0 1 -.707-1.707l2.293-2.293-2.293-2.293a1 1 0 0 1 1.414-1.414l3 3a1 1 0 0 1 0 1.414l-3 3a1 1 0 0 1 -.707.293z"/>
        <path d="m31 49a.948.948 0 0 1 -.2-.02 1 1 0 0 1 -.78-1.18l2-10a1 1 0 1 1 1.96.392l-2 10a1 1 0 0 1 -.98.808z"/>
        <path d="m21 26h-14a1 1 0 0 1 -1-1v-12a1 1 0 0 1 1-1h14a1 1 0 0 1 1 1v12a1 1 0 0 1 -1 1zm-13-2h12v-10h-12z"/>
        <path d="m13 32h-6a1 1 0 0 1 0-2h6a1 1 0 0 1 0 2z"/>
        <path d="m13 38h-6a1 1 0 0 1 0-2h6a1 1 0 0 1 0 2z"/>
        <path d="m57 22h-32a1 1 0 0 1 -1-1v-8a1 1 0 0 1 1-1h32a1 1 0 0 1 1 1v8a1 1 0 0 1 -1 1zm-31-2h30v-6h-30z"/>
        <path d="m57 28h-9a1 1 0 0 1 0-2h9a1 1 0 0 1 0 2z"/>
        <path d="m57 34h-6a1 1 0 0 1 0-2h6a1 1 0 0 1 0 2z"/>
        <path d="m57 40h-3a1 1 0 0 1 0-2h3a1 1 0 0 1 0 2z"/>
        <path d="m57 46h-3a1 1 0 0 1 0-2h3a1 1 0 0 1 0 2z"/>
        <path d="m10 44h-3a1 1 0 0 1 0-2h3a1 1 0 0 1 0 2z"/>
    </symbol>

    <symbol id="services03" role="img" aria-labelledby="services03_title" viewBox="0 0 480 480">
        <title id="services03_title"></title>
        <path d="m32 24h16v16h-16zm0 0"/>
        <path d="m64 24h16v16h-16zm0 0"/>
        <path d="m96 24h16v16h-16zm0 0"/>
        <path d="m280 200h-80v64h80zm-16 48h-48v-32h48zm0 0"/>
        <path d="m328 304v-16h-16v-113.472656c9.554688-3.378906 15.957031-12.394532 16-22.527344v-32c0-13.253906-10.746094-24-24-24h-192c-13.253906 0-24 10.746094-24 24v32c.042969 10.132812 6.445312 19.148438 16 22.527344v113.472656h-16v16zm-160-16h-24v-64c0-4.417969 3.582031-8 8-8h8c4.417969 0 8 3.582031 8 8zm128-176h8c4.417969 0 8 3.582031 8 8v32c0 4.417969-3.582031 8-8 8s-8-3.582031-8-8zm-32 0h16v40c0 4.417969-3.582031 8-8 8s-8-3.582031-8-8zm-32 0h16v40c0 4.417969-3.582031 8-8 8s-8-3.582031-8-8zm-32 0h16v40c0 4.417969-3.582031 8-8 8s-8-3.582031-8-8zm-32 0h16v40c0 4.417969-3.582031 8-8 8s-8-3.582031-8-8zm-32 0h16v40c0 4.417969-3.582031 8-8 8s-8-3.582031-8-8zm-8 57.761719c9.042969 8.320312 22.957031 8.320312 32 0 9.042969 8.320312 22.957031 8.320312 32 0 9.042969 8.320312 22.957031 8.320312 32 0 9.042969 8.320312 22.957031 8.320312 32 0 9.042969 8.320312 22.957031 8.320312 32 0 2.328125 2.105469 5.046875 3.734375 8 4.796875v113.441406h-112v-64c0-13.253906-10.746094-24-24-24h-8c-13.253906 0-24 10.746094-24 24v64h-8v-113.472656c2.953125-1.050782 5.671875-2.667969 8-4.765625zm-24-49.761719c0-4.417969 3.582031-8 8-8h8v40c0 4.417969-3.582031 8-8 8s-8-3.582031-8-8zm0 0"/>
        <path d="m360 368h-320c-4.417969 0-8 3.582031-8 8v96c0 4.417969 3.582031 8 8 8h320c4.417969 0 8-3.582031 8-8v-96c0-4.417969-3.582031-8-8-8zm-8 96h-304v-80h304zm0 0"/>
        <path d="m64 392h16v16h-16zm0 0"/>
        <path d="m96 392h16v16h-16zm0 0"/>
        <path d="m128 392h16v16h-16zm0 0"/>
        <path d="m160 392h16v16h-16zm0 0"/>
        <path d="m192 392h16v16h-16zm0 0"/>
        <path d="m224 392h16v16h-16zm0 0"/>
        <path d="m256 392h16v16h-16zm0 0"/>
        <path d="m288 392h16v16h-16zm0 0"/>
        <path d="m64 416h16v16h-16zm0 0"/>
        <path d="m96 416h16v16h-16zm0 0"/>
        <path d="m128 416h16v16h-16zm0 0"/>
        <path d="m160 416h16v16h-16zm0 0"/>
        <path d="m192 416h16v16h-16zm0 0"/>
        <path d="m224 416h16v16h-16zm0 0"/>
        <path d="m256 416h16v16h-16zm0 0"/>
        <path d="m288 416h16v16h-16zm0 0"/>
        <path d="m64 440h16v16h-16zm0 0"/>
        <path d="m96 440h16v16h-16zm0 0"/>
        <path d="m128 440h144v16h-144zm0 0"/>
        <path d="m288 440h16v16h-16zm0 0"/>
        <path d="m320 392h16v16h-16zm0 0"/>
        <path d="m320 416h16v16h-16zm0 0"/>
        <path d="m320 440h16v16h-16zm0 0"/>
        <path d="m440 120h-24v-96c0-13.253906-10.746094-24-24-24h-368c-13.253906 0-24 10.746094-24 24v288c0 13.253906 10.746094 24 24 24h368c13.253906 0 24-10.746094 24-24v-176h24c13.253906 0 24 10.746094 24 24v160c0 13.253906-10.746094 24-24 24h-8c-13.253906 0-24 10.746094-24 24v16c-13.253906 0-24 10.746094-24 24v48c0 13.253906 10.746094 24 24 24h16c13.253906 0 24-10.746094 24-24v-48c0-13.253906-10.746094-24-24-24v-16c0-4.417969 3.582031-8 8-8h8c22.082031-.027344 39.972656-17.917969 40-40v-160c-.027344-22.082031-17.917969-39.972656-40-40zm-40 192c0 4.417969-3.582031 8-8 8h-368c-4.417969 0-8-3.582031-8-8v-248h384zm0-264h-384v-24c0-4.417969 3.582031-8 8-8h368c4.417969 0 8 3.582031 8 8zm32 360v48c0 4.417969-3.582031 8-8 8h-16c-4.417969 0-8-3.582031-8-8v-48c0-4.417969 3.582031-8 8-8h16c4.417969 0 8 3.582031 8 8zm0 0"/>
        <path d="m408 408h16v16h-16zm0 0"/>
    </symbol>

    <symbol id="services04" role="img" aria-labelledby="services04_title" viewBox="0 0 480 480">
        <title id="services04_title"></title>
        <path d="m196.558594 298.398438c-1.832032 4.914062-1.144532 10.414062 1.84375 14.722656 2.988281 4.308594 7.898437 6.878906 13.140625 6.878906h32.175781l13.601562 20.441406c1.488282 2.230469 3.996094 3.566406 6.679688 3.558594h48c2.675781 0 5.171875-1.335938 6.65625-3.558594l13.625-20.441406h32.175781c5.242188 0 10.152344-2.570312 13.140625-6.878906 2.988282-4.308594 3.675782-9.808594 1.84375-14.722656l-12.160156-32.421876c-5.105469-13.488281-17.039062-23.214843-31.28125-25.488281v-31.007812c.027344-8.007813-2.371094-15.835938-6.886719-22.449219-23.960937-35.03125-36.875-35.03125-41.113281-35.03125s-17.152344 0-41.113281 35.023438c-4.511719 6.617187-6.914063 14.445312-6.886719 22.457031v31.007812c-14.238281 2.273438-26.171875 11.988281-31.28125 25.472657zm111.203125 29.601562h-39.441407l-5.335937-8h50.113281zm44.574219-56.425781 12.121093 32.425781h-28.457031v-47.121094c7.476562 1.996094 13.539062 7.464844 16.296875 14.695313zm-96.335938-62.09375c-.023438-4.78125 1.402344-9.460938 4.089844-13.417969 15.191406-22.199219 24.902344-28.0625 27.910156-28.0625s12.71875 5.863281 27.910156 28.0625c2.6875 3.957031 4.113282 8.636719 4.089844 13.417969v94.519531h-64zm-32.296875 62.09375c2.757813-7.230469 8.820313-12.699219 16.296875-14.695313v47.121094h-28.457031zm0 0"/>
        <path d="m288 360c-17.671875 0-32 14.328125-32 32 0 16.480469 12.464844 48 32 48s32-31.519531 32-48c0-17.671875-14.328125-32-32-32zm0 64c-5.984375 0-16-20.039062-16-32 0-8.835938 7.164062-16 16-16s16 7.164062 16 16c0 12-10.015625 32-16 32zm0 0"/>
        <path d="m392 456c-.054688-6.582031-2.789062-12.855469-7.574219-17.378906-4.785156-4.519532-11.203125-6.898438-17.777343-6.582032-3.875-11.042968-15.148438-17.683593-26.683594-15.714843-11.539063 1.96875-19.972656 11.972656-19.964844 23.675781h16c0-4.417969 3.582031-8 8-8s8 3.582031 8 8c-.007812.449219-.042969.894531-.113281 1.335938-.34375 3.027343 1.058593 5.984374 3.617187 7.632812 2.5625 1.648438 5.835938 1.703125 8.449219.136719 1.222656-.734375 2.621094-1.113281 4.046875-1.105469 4.417969 0 8 3.582031 8 8s-3.582031 8-8 8h-160c-4.417969 0-8-3.582031-8-8s3.582031-8 8-8c1.425781-.007812 2.824219.371094 4.046875 1.105469 2.613281 1.566406 5.886719 1.511719 8.449219-.136719 2.558594-1.648438 3.960937-4.605469 3.617187-7.632812-.070312-.441407-.105469-.886719-.113281-1.335938 0-4.417969 3.582031-8 8-8s8 3.582031 8 8h16c.007812-11.703125-8.425781-21.707031-19.964844-23.675781-11.535156-1.96875-22.808594 4.671875-26.683594 15.714843-6.574218-.320312-13 2.050782-17.785156 6.574219-4.785156 4.523438-7.519531 10.800781-7.566406 17.386719.027344 2.730469.523438 5.4375 1.472656 8h-25.472656v16h256v-16h-25.472656c.949218-2.5625 1.445312-5.269531 1.472656-8zm0 0"/>
        <path d="m288 184c-13.253906 0-24 10.746094-24 24s10.746094 24 24 24 24-10.746094 24-24-10.746094-24-24-24zm0 32c-4.417969 0-8-3.582031-8-8s3.582031-8 8-8 8 3.582031 8 8-3.582031 8-8 8zm0 0"/>
        <path d="m376 328h16v32h-16zm0 0"/>
        <path d="m376 376h16v16h-16zm0 0"/>
        <path d="m408 344h16v32h-16zm0 0"/>
        <path d="m408 392h16v16h-16zm0 0"/>
        <path d="m184 328h16v32h-16zm0 0"/>
        <path d="m184 376h16v16h-16zm0 0"/>
        <path d="m152 344h16v32h-16zm0 0"/>
        <path d="m152 392h16v16h-16zm0 0"/>
        <path d="m456 0h-432c-13.253906 0-24 10.746094-24 24v400c0 13.253906 10.746094 24 24 24h144v-16h-144c-4.417969 0-8-3.582031-8-8v-344h448v344c0 4.417969-3.582031 8-8 8h-48v16h48c13.253906 0 24-10.746094 24-24v-400c0-13.253906-10.746094-24-24-24zm-440 64v-40c0-4.417969 3.582031-8 8-8h432c4.417969 0 8 3.582031 8 8v40zm0 0"/>
        <path d="m48 32h16v16h-16zm0 0"/>
        <path d="m80 32h16v16h-16zm0 0"/>
        <path d="m112 32h16v16h-16zm0 0"/>
        <path d="m184 112h16v16h-16zm0 0"/>
        <path d="m216 112h16v16h-16zm0 0"/>
        <path d="m248 112h16v16h-16zm0 0"/>
        <path d="m280 112h16v16h-16zm0 0"/>
        <path d="m176 32h176v16h-176zm0 0"/>
        <path d="m56 160h112v16h-112zm0 0"/>
        <path d="m56 192h112v16h-112zm0 0"/>
        <path d="m56 224h112v16h-112zm0 0"/>
    </symbol>

    <symbol id="footer-facebook" role="img" aria-labelledby="footer-facebook_title" viewBox="0 0 512 512">
        <title id="footer-facebook_title">Facebook</title>
        <path d="M314.829,135.492h70.595c11.423,0,20.682-9.26,20.682-20.682V20.682C406.107,9.26,396.848,0,385.425,0h-70.595
            c-76.282,0-138.341,62.06-138.341,138.341v49.913h-49.913c-11.422,0-20.682,9.26-20.682,20.682v94.127
            c0,11.423,9.26,20.682,20.682,20.682h49.913v167.572c0,11.423,9.26,20.682,20.682,20.682h94.127
            c11.423,0,20.682-9.259,20.682-20.682V323.746h49.913c9.49,0,17.763-6.458,20.065-15.666l23.532-94.127
            c1.544-6.179,0.156-12.725-3.763-17.744c-3.919-5.02-9.932-7.954-16.301-7.954H311.98v-49.913
            C311.98,136.77,313.258,135.492,314.829,135.492z M291.298,229.619h67.637l-13.191,52.763h-54.447
            c-11.423,0-20.682,9.259-20.682,20.682v167.572h-52.763V303.064c0-11.423-9.26-20.682-20.682-20.682h-49.913v-52.763h49.913
            c11.422,0,20.682-9.26,20.682-20.682v-70.595c0-53.473,43.503-96.977,96.977-96.977h49.913v52.763h-49.913
            c-24.38,0-44.214,19.835-44.214,44.214v70.595C270.615,220.359,279.875,229.619,291.298,229.619z"/>
    </symbol>

    <symbol id="footer-twitter" role="img" aria-labelledby="footer-twitter_title" viewBox="0 0 512 512">
        <title id="footer-twitter_title">Twitter</title>
        <path d="M502.954,47.189c-7.126-4.852-16.515-4.774-23.559,0.196c-15.351,10.828-31.974,19.528-49.557,25.948
            c-19.253-17.414-43.615-27.826-69.915-29.656c-31.056-2.16-61.081,7.9-84.561,28.326c-25.59,22.259-40.174,54.444-40.046,88.349
            c-85.248-7.609-139.14-61.55-177.09-108.986c-4.598-5.746-11.901-8.619-19.182-7.538c-7.279,1.078-13.438,5.944-16.171,12.777
            c-0.948,2.369-23.141,58.799-17.453,127.057c4.761,57.133,30.23,131.964,120.039,181.717
            c-32.436,14.756-68.282,21.939-103.953,20.519c-9.576-0.378-18.15,5.859-20.736,15.08c-2.587,9.221,1.497,19.013,9.869,23.665
            c51.359,28.532,108.03,43.736,163.889,43.965c0.432,0.002,0.861,0.003,1.294,0.003c54.105-0.001,106.379-13.938,151.246-40.336
            c42.898-25.241,78.416-61.759,102.715-105.603c26.162-47.206,39.427-101.75,39.427-162.186c-0.011-3.544-0.186-7.098-0.52-10.638
            c20.7-22.885,35.388-50.567,42.719-80.667C513.451,60.803,510.081,52.04,502.954,47.189z M432.297,128.07
            c-4.916,4.847-7.088,11.827-5.793,18.607c0.877,4.588,1.329,9.278,1.344,13.874c0,101.956-44.378,186.544-121.756,232.072
            c-60.586,35.649-133.037,43.933-203.609,25.057c0.729-0.201,1.459-0.407,2.185-0.615c27.596-7.885,53.63-20.055,77.377-36.174
            c6.329-4.296,9.77-11.734,8.946-19.34c-0.825-7.605-5.778-14.134-12.881-16.975C97.757,312.434,53.563,257.594,46.757,181.575
            c-2.536-28.334,0.707-54.721,4.766-74.501c16.638,17.909,37.384,37.227,62.129,53.407c42.771,27.966,90.663,42.146,142.346,42.146
            c11.423,0,20.682-9.26,20.682-20.682v-21.393c0-0.045,0-0.091,0-0.137c-0.146-21.948,9.268-42.797,25.829-57.202
            c15.146-13.175,34.51-19.665,54.543-18.27c20.026,1.393,38.311,10.502,51.487,25.648c5.339,6.138,13.783,8.577,21.567,6.229
            c5.725-1.724,11.375-3.645,16.941-5.757C442.599,117.081,437.672,122.769,432.297,128.07z"/>
    </symbol>    

    <symbol id="footer-linkedin" role="img" aria-labelledby="footer-linkedin_title" viewBox="0 0 512 512">
        <title id="footer-linkedin_title">Linkedin</title>
        <path d="M2.5,510V153.7h137.3V510H2.5z M102.5,472.7V191H39.8v281.7H102.5z"/>
        <path d="M375.4,510l0.1-158.1c0.5-23.6-8.8-42.9-24.9-51.7c-5.4-3-11.2-4.5-17.3-4.5c-5.2,0-10.4,1.1-15.5,3.3l-1.1,211H176.1
            V153.7h140.6V166c16.6-6,33.6-9.1,50.6-9.1c24.7,0,48.3,6.4,70.2,18.9c44,25.2,72.5,71.8,72.5,118.8V510H375.4z M472.7,472.7V294.6
            c0-33.8-21.1-67.7-53.7-86.4c-15.9-9.1-33.8-13.9-51.7-14h-0.3c-20.1,0-40.1,5.8-59.6,17.3L279.4,228V191h-66.1v281.7h66.2l1-194.7
            l8.2-5.5c13.7-9.2,29.1-14.1,44.5-14.1c12.4,0,24.2,3,35.1,9c13.7,7.5,25,19.2,32.8,33.8c7.9,14.9,11.9,32.6,11.5,51.1l0,120.3
            H472.7z"/>
        <path d="M70.9,139.9C32.9,139.9,2,109,2,71c0-38,30.9-69,68.9-69c38,0,68.9,30.9,68.9,69C139.8,109,108.9,139.9,70.9,139.9z
             M70.9,39.3c-17.4,0-31.6,14.2-31.6,31.7c0,17.5,14.2,31.7,31.6,31.7c17.4,0,31.6-14.2,31.6-31.7C102.5,53.5,88.3,39.3,70.9,39.3z"
            />
    </symbol>

    <symbol id="footer-instagram" role="img" aria-labelledby="footer-instagram_title" viewBox="0 0 512 512">
        <title id="footer-instagram_title">Instagram</title>
        <path d="M373.659,0H138.341C62.06,0,0,62.06,0,138.341v235.318C0,449.94,62.06,512,138.341,512h235.318
            C449.94,512,512,449.94,512,373.659V138.341C512,62.06,449.94,0,373.659,0z M470.636,373.659
            c0,53.473-43.503,96.977-96.977,96.977H138.341c-53.473,0-96.977-43.503-96.977-96.977V138.341
            c0-53.473,43.503-96.977,96.977-96.977h235.318c53.473,0,96.977,43.503,96.977,96.977V373.659z"/>
        <path d="M370.586,238.141c-3.64-24.547-14.839-46.795-32.386-64.342c-17.547-17.546-39.795-28.746-64.341-32.385
            c-11.176-1.657-22.507-1.657-33.682,0c-30.336,4.499-57.103,20.541-75.372,45.172c-18.269,24.631-25.854,54.903-21.355,85.237
            c4.499,30.335,20.541,57.102,45.172,75.372c19.996,14.831,43.706,22.619,68.153,22.619c5.667,0,11.375-0.418,17.083-1.265
            c30.336-4.499,57.103-20.541,75.372-45.172C367.5,298.747,375.085,268.476,370.586,238.141z M267.791,327.632
            c-19.405,2.882-38.77-1.973-54.527-13.66c-15.757-11.687-26.019-28.811-28.896-48.216c-2.878-19.405,1.973-38.77,13.66-54.527
            c11.688-15.757,28.811-26.019,48.217-28.897c3.574-0.53,7.173-0.795,10.772-0.795s7.199,0.265,10.773,0.796
            c32.231,4.779,57.098,29.645,61.878,61.877C335.608,284.268,307.851,321.692,267.791,327.632z"/>
        <path d="M400.049,111.951c-3.852-3.851-9.183-6.058-14.625-6.058c-5.442,0-10.773,2.206-14.625,6.058
            c-3.851,3.852-6.058,9.174-6.058,14.625c0,5.451,2.207,10.773,6.058,14.625c3.852,3.851,9.183,6.058,14.625,6.058
            c5.442,0,10.773-2.206,14.625-6.058c3.851-3.852,6.058-9.183,6.058-14.625C406.107,121.133,403.9,115.802,400.049,111.951z"/>
    </symbol>

    <symbol id="footer-phone" role="img" aria-labelledby="footer-phone_title" viewBox="0 0 512 512">
        <title id="footer-phone_title"></title>
        <path d="M421.216,195.504c-5.092-26.101-17.723-49.836-36.526-68.64c-18.804-18.803-42.54-31.434-68.641-36.527
			c-11.21-2.189-22.073,5.128-24.261,16.339c-2.187,11.212,5.128,22.073,16.339,24.26c36.847,7.188,65.3,35.642,72.489,72.489
			c1.927,9.874,10.581,16.726,20.278,16.726c1.313,0,2.645-0.125,3.984-0.387C416.088,217.577,423.403,206.715,421.216,195.504z"/>
		<path d="M511.422,196.929c-5.629-50.096-28.373-97.304-64.042-132.927C411.712,28.378,364.475,5.694,314.371,0.128
			c-11.355-1.261-21.578,6.92-22.839,18.272c-1.261,11.353,6.919,21.578,18.272,22.84c84.961,9.438,150.966,75.36,160.512,160.31
			c1.188,10.566,10.139,18.374,20.527,18.374c0.771,0,1.552-0.043,2.336-0.131C504.53,218.516,512.698,208.281,511.422,196.929z"/>
		<path d="M432.59,312.566c-0.062-0.008-0.124-0.017-0.186-0.025c-20.013-2.639-39.751-7.557-58.619-14.596
			c-23.91-8.99-51.103-3.191-69.27,14.772c-0.028,0.028-0.056,0.055-0.083,0.083l-17.148,17.148
			c-42.633-26.924-78.756-63.047-105.679-105.679l17.149-17.149c0.027-0.028,0.054-0.055,0.082-0.083
			c17.964-18.166,23.762-45.356,14.79-69.223c-7.057-18.914-11.974-38.653-14.614-58.666c-0.007-0.063-0.017-0.127-0.026-0.19
			c-4.591-32.478-32.782-56.734-65.548-56.467H66.053c-1.943,0.002-3.912,0.091-5.853,0.267
			C24.143,26.016-2.541,58.001,0.718,94.058c0.01,0.108,0.02,0.215,0.032,0.323c7.684,72.354,32.649,142.88,72.197,203.955
			c35.892,56.461,84.701,105.269,141.162,141.164c60.792,39.406,130.99,64.369,203.013,72.196c0.127,0.015,0.254,0.027,0.38,0.038
			c1.961,0.176,3.949,0.266,5.921,0.266c0.083,0,0.165,0,0.247,0.001c36.204-0.148,65.538-29.722,65.391-65.841v-67.233
			C489.746,345.714,465.515,317.211,432.59,312.566z M447.698,378.695v67.548c0.055,13.396-10.8,24.338-24.19,24.393
			c-0.715-0.004-1.425-0.027-2.135-0.086c-65.578-7.161-129.488-29.914-184.837-65.808c-0.053-0.035-0.107-0.069-0.161-0.103
			c-51.429-32.68-95.885-77.137-128.565-128.565c-0.032-0.051-0.064-0.101-0.097-0.153C71.683,220.306,48.928,156.086,41.902,90.193
			C40.779,76.91,50.63,65.155,63.923,63.954c0.717-0.064,1.443-0.098,2.145-0.098h67.463c0.146-0.001,0.294-0.003,0.443-0.002
			c12.021,0,22.322,8.905,24.044,20.819c3.05,23.063,8.721,45.806,16.871,67.649c3.319,8.832,1.189,18.869-5.427,25.591
			l-28.517,28.517c-6.583,6.582-7.956,16.753-3.354,24.847c33.837,59.508,83.177,108.847,142.685,142.685
			c8.094,4.6,18.264,3.23,24.848-3.355l28.512-28.512c6.72-6.621,16.765-8.752,25.642-5.415
			c21.799,8.134,44.547,13.805,67.61,16.855c12.18,1.757,21.122,12.339,20.816,24.647
			C447.7,378.353,447.698,378.524,447.698,378.695z"/>
    </symbol>    

	<symbol id="footer-mail" role="img" aria-labelledby="footer-mail_title" viewBox="0 0 512 512">
        <title id="footer-mail_title"></title>
        <path d="M256,141.176c-63.306,0-114.809,51.503-114.809,114.809S192.694,370.795,256,370.795s114.809-51.503,114.809-114.809
			S319.306,141.176,256,141.176z M256,329.43c-40.498,0-73.445-32.947-73.445-73.445c0-40.498,32.947-73.445,73.445-73.445
			c40.499,0,73.445,32.947,73.445,73.445C329.445,296.483,296.499,329.43,256,329.43z"/>
		<path d="M437.008,74.97C388.656,26.623,324.375,0,256,0c-0.005,0-0.013,0-0.017,0C187.603,0.004,123.318,26.637,74.97,74.992
			C26.62,123.347-0.005,187.637,0,256.017c0.004,68.379,26.637,132.666,74.992,181.014C123.344,485.377,187.625,512.001,256,512
			c0.004,0,0.012,0,0.017,0c55.945-0.004,111.216-18.738,155.631-52.752c9.07-6.945,10.792-19.927,3.846-28.995
			c-6.945-9.069-19.926-10.794-28.995-3.846c-37.24,28.518-83.58,44.224-130.486,44.228c-0.006,0-0.006,0-0.014,0
			c-57.324,0-111.224-22.324-151.761-62.856c-40.542-40.536-62.871-94.435-62.875-151.766
			C41.357,137.663,137.636,41.372,255.986,41.364c0.007,0,0.006,0,0.014,0c118.34,0,214.628,96.279,214.636,214.622v23.532
			c0,27.523-22.39,49.913-49.913,49.913c-27.523,0-49.913-22.391-49.913-49.913v-23.532c0-11.422-9.259-20.682-20.682-20.682
			s-20.682,9.26-20.682,20.682v23.532c0,50.33,40.947,91.278,91.278,91.278S512,329.848,512,279.518v-23.534
			C511.995,187.604,485.362,123.318,437.008,74.97z"/>
    </symbol>

    <symbol id="footer-location" role="img" aria-labelledby="footer-location_title" viewBox="0 0 512 512">
        <title id="footer-location_title"></title>
        <path d="M406.766,62.449C366.495,22.178,312.951,0,256,0S145.505,22.178,105.234,62.449
			c-40.272,40.271-62.449,93.814-62.449,150.766c0,37.656,10.972,76.863,32.609,116.532c16.825,30.846,40.15,62.102,69.326,92.898
			c49.17,51.903,97.763,84.519,99.808,85.881C248.001,510.842,252,512,256,512c4,0,7.999-1.158,11.473-3.474
			c2.045-1.363,50.638-33.978,99.808-85.881c29.176-30.795,52.501-62.051,69.326-92.898c21.637-39.669,32.609-78.876,32.609-116.532
			C469.215,156.263,447.038,102.72,406.766,62.449z M256.001,465.903C215.826,436.156,84.15,329.739,84.15,213.215
			c0-94.759,77.091-171.851,171.85-171.851s171.85,77.092,171.851,171.851C427.851,329.748,296.159,436.168,256.001,465.903z"/>
		<path d="M256,128.355c-46.791,0-84.86,38.068-84.86,84.86c0,46.791,38.068,84.86,84.86,84.86c46.792,0,84.861-38.068,84.86-84.86
			C340.86,166.423,302.791,128.355,256,128.355z M256,256.71c-23.983,0-43.495-19.512-43.495-43.495
			c0-23.983,19.512-43.495,43.495-43.495c23.984,0,43.495,19.512,43.495,43.495C299.495,237.198,279.984,256.71,256,256.71z"/>
		</symbol>

	<symbol id="footer-time" role="img" aria-labelledby="footer-time_title" viewBox="0 0 512 512">
        <title id="footer-time_title"></title>
        <path d="M437.019,74.981C388.667,26.629,324.38,0,256,0S123.333,26.63,74.981,74.981S0,187.62,0,256
			s26.629,132.667,74.981,181.019C123.332,485.371,187.62,512,256,512s132.667-26.629,181.019-74.981
			C485.371,388.667,512,324.38,512,256S485.371,123.332,437.019,74.981z M256,470.636C137.65,470.636,41.364,374.35,41.364,256
			S137.65,41.364,256,41.364S470.636,137.65,470.636,256S374.35,470.636,256,470.636z"/>
		<path d="M341.221,311.97l-64.538-64.537V114.809c0-11.422-9.259-20.682-20.682-20.682c-11.422,0-20.682,9.26-20.682,20.682V256
			c0,5.486,2.179,10.746,6.058,14.625l70.594,70.595c4.038,4.039,9.332,6.058,14.625,6.058c5.293,0,10.586-2.019,14.626-6.058
			C349.297,333.142,349.297,320.047,341.221,311.97z"/>
	</symbol>

</svg>