<svg xmlns="http://www.w3.org/2000/svg" xmlns:xlink="http://www.w3.org/1999/xlink">
  
    <symbol id="about01" role="img" aria-labelledby="about01_title" viewBox="0 0 512 512">
        <title id="about01_title"></title>
        <path d="M508.14,56.775c-2.438-1.895-5.613-2.558-8.603-1.797l-47.576,12.097c-7.64,1.941-15.509,2.926-23.389,2.926h-69.819
			c-22.649,0-41.568,16.251-44.984,38.643c-1.914,12.55-12.519,21.658-25.213,21.658h-2.555v-20.889
			c17.247-10.268,28.832-29.093,28.832-50.581C314.834,26.392,288.442,0,256.001,0c-32.441,0-58.832,26.392-58.832,58.832
			c0,21.488,11.585,40.313,28.832,50.581v20.889h-2.555c-12.694,0-23.299-9.108-25.213-21.658
			c-3.416-22.392-22.335-38.643-44.984-38.643H83.43c-7.88,0-15.749-0.984-23.388-2.926L12.465,54.979
			c-2.988-0.76-6.165-0.098-8.603,1.797c-2.436,1.894-3.861,4.808-3.861,7.894c0,21.109,8.144,40.346,21.442,54.758
			c0.292,24.269,11.791,45.877,29.554,59.903l9.407,12.572c21.449,28.668,55.632,45.784,91.438,45.784
			c27.466,0,53.495-9.655,74.159-27.348v35.663h-8.969c-35.657,0-64.667,29.01-64.667,64.667c0,10.896,2.765,21.672,7.994,31.164
			c1.822,3.308,5.241,5.177,8.768,5.177c1.632,0,3.287-0.4,4.816-1.243c4.838-2.665,6.599-8.747,3.934-13.584
			c-3.605-6.545-5.512-13.984-5.512-21.514c0-24.63,20.037-44.667,44.667-44.667h8.969v89.333h-23.5
			c-26.375,0-47.833,21.458-47.833,47.834c0,26.375,21.458,47.833,47.833,47.833h27.804c3.467,18.778,9.012,37.144,16.631,54.937
			c1.575,3.679,5.191,6.063,9.192,6.063h0.018c4.008-0.007,7.625-2.406,9.189-6.097l0.197-0.465
			c7.458-17.64,12.884-35.84,16.273-54.438h11.363c11.304,0,20.5,9.196,20.5,20.5c0,11.304-9.196,20.5-20.5,20.5h-0.679
			c-5.522,0-10,4.478-10,10c0,5.522,4.478,10,10,10h0.679c22.332,0,40.5-18.168,40.5-40.5c0-22.332-18.168-40.5-40.5-40.5h-8.519
			c0.896-8.775,1.352-17.624,1.352-26.533v-29.134h6.667c35.657,0,64.666-29.009,64.666-64.666
			c0-35.657-29.009-64.667-64.666-64.667h-6.667v-35.663c20.665,17.694,46.693,27.348,74.159,27.348
			c35.805,0,69.986-17.115,91.438-45.784l9.407-12.572c17.764-14.026,29.262-35.635,29.554-59.904
			c13.299-14.411,21.442-33.648,21.442-54.757C512.001,61.584,510.576,58.67,508.14,56.775z M218.084,190.46
			c-17.751,17.558-41.276,27.227-66.242,27.227c-22.243,0-43.724-8.01-60.533-22.065c2.51,0.246,5.053,0.379,7.627,0.379h16.746
			c5.522,0,10-4.478,10-10c0-5.522-4.478-10-10-10H98.936c-25.309,0-46.838-16.442-54.507-39.2
			c10.945,5.546,23.303,8.694,36.389,8.696l20.683,0.003h0.001c5.521,0,9.999-4.477,10-9.999c0.001-5.522-4.476-10-9.999-10.001
			l-20.683-0.003c-28.993-0.004-53.313-20.401-59.369-47.598l33.665,8.559c9.248,2.352,18.774,3.543,28.314,3.543h69.819
			c12.695,0,23.299,9.108,25.213,21.658c3.416,22.392,22.335,38.643,44.984,38.643h2.555v32.328L218.084,190.46z M202.501,431.001
			c-15.347,0-27.833-12.486-27.833-27.833c0-15.348,12.486-27.834,27.833-27.834h23.5v28.539c0,9.112,0.479,18.159,1.415,27.128
			H202.501z M266.001,404.468c0,23.284-3.327,46.135-9.911,68.213c-6.703-22.261-10.089-45.307-10.089-68.808v-28.539h20V404.468z
			 M266.001,355.334h-20V116.797c3.252,0.56,6.59,0.868,10,0.868c3.41,0,6.748-0.308,10-0.868V355.334z M292.668,266.001
			c24.629,0,44.666,20.037,44.666,44.667c0,24.629-20.037,44.666-44.666,44.666h-6.667v-89.333H292.668z M256.001,97.664
			c-21.413,0-38.832-17.42-38.832-38.832c0-21.412,17.42-38.832,38.832-38.832s38.832,17.42,38.832,38.832
			C294.833,80.244,277.414,97.664,256.001,97.664z M431.182,125.497l-20.681,0.003c-5.523,0.001-10,4.479-9.999,10.001
			c0.001,5.523,4.479,10,10.001,9.999l20.683-0.003c13.086-0.002,25.444-3.149,36.389-8.696c-7.669,22.758-29.199,39.2-54.507,39.2
			h-16.747c-5.522,0-10,4.478-10,10c0,5.522,4.478,10,10,10h16.746c2.574,0,5.116-0.133,7.626-0.379
			c-16.81,14.055-38.29,22.065-60.532,22.065c-24.966,0-48.491-9.669-66.242-27.226l-7.918-7.831v-32.328h2.555
			c22.649,0,41.568-16.251,44.984-38.643c1.914-12.55,12.518-21.658,25.213-21.658h69.819c9.54,0,19.066-1.191,28.315-3.543
			l33.664-8.559C484.495,105.095,460.175,125.493,431.182,125.497z"/>
    </symbol>

    <symbol id="about02" role="img" aria-labelledby="about02_title" viewBox="-56 0 511 512">
        <title id="about02_title"></title>
        <path d="m130.5 232c5.519531 0 10-4.480469 10-10 0-5.492188-4.449219-10-10-10-5.519531 0-10 4.480469-10 10 0 5.496094 4.457031 10 10 10zm0 0"/>
        <path d="m20.5 332c0 99.253906 80.75 180 180 180 99.253906 0 180-80.746094 180-180 0-90.867188-67.683594-166.214844-155.285156-178.296875l91.863281-80.167969c3.875-3.382812 4.527344-9.195312 1.5625-13.347656l-40-56c-1.878906-2.628906-4.910156-4.1875-8.140625-4.1875-16.378906 0-127.441406 0-140 0-3.226562 0-6.257812 1.558594-8.136719 4.1875-7.332031 10.265625-39.570312 55.390625-40.066406 56.101562-2.9375 4.214844-2.144531 9.953126 1.628906 13.246094l91.863281 80.167969c-87.601562 12.082031-155.289062 87.429687-155.289062 178.296875zm123.933594-256 22.722656 43.625-49.988281-43.625zm70.082031-56 19.285156 36h-66.597656l19.285156-36zm69.316406 56-49.988281 43.625 22.722656-43.625zm-49.8125 0-33.519531 64.351562-33.515625-64.351562zm57.050781-20h-34.582031l-19.285156-36h28.152344zm-155.421874-36h28.152343l-19.289062 36h-34.578125zm64.851562 152c88.226562 0 160 71.777344 160 160s-71.773438 160-160 160c-88.222656 0-160-71.777344-160-160s71.777344-160 160-160zm0 0"/>
        <path d="m200.5 472c77.195312 0 140-62.804688 140-140s-62.804688-140-140-140c-12.066406 0-23.75 1.511719-35.722656 4.621094-5.347656 1.386718-8.554688 6.847656-7.164063 12.191406 1.386719 5.347656 6.847657 8.558594 12.191407 7.167969 10.449218-2.714844 20.207031-3.980469 30.695312-3.980469 66.167969 0 120 53.832031 120 120s-53.832031 120-120 120-120-53.832031-120-120c0-28.347656 9.898438-55.625 27.875-76.808594 3.574219-4.210937 3.058594-10.523437-1.152344-14.097656-4.210937-3.570312-10.523437-3.054688-14.097656 1.15625-21.039062 24.796875-32.625 56.667969-32.625 89.75 0 77.195312 62.804688 140 140 140zm0 0"/>
        <path d="m366.046875 54.320312 30-20c4.597656-3.0625 5.839844-9.273437 2.773437-13.867187-3.0625-4.59375-9.269531-5.835937-13.867187-2.773437l-30 20c-4.59375 3.0625-5.835937 9.273437-2.773437 13.867187 3.070312 4.609375 9.285156 5.828125 13.867187 2.773437zm0 0"/>
        <path d="m354.953125 94.320312 30 20c4.574219 3.050782 10.792969 1.839844 13.867187-2.773437 3.0625-4.59375 1.824219-10.804687-2.773437-13.867187l-30-20c-4.59375-3.0625-10.804687-1.820313-13.867187 2.773437s-1.820313 10.804687 2.773437 13.867187zm0 0"/>
        <path d="m4.953125 34.320312 30 20c4.574219 3.050782 10.792969 1.839844 13.867187-2.773437 3.0625-4.59375 1.824219-10.804687-2.773437-13.867187l-30-20c-4.59375-3.0625-10.804687-1.820313-13.867187 2.773437-3.0625 4.59375-1.820313 10.804687 2.773437 13.867187zm0 0"/>
        <path d="m2.179688 111.546875c3.074218 4.609375 9.285156 5.828125 13.867187 2.773437l30-20c4.597656-3.0625 5.839844-9.273437 2.773437-13.867187-3.0625-4.597656-9.273437-5.835937-13.867187-2.773437l-30 20c-4.59375 3.0625-5.835937 9.273437-2.773437 13.867187zm0 0"/>
    </symbol>

    <symbol id="about03" role="img" aria-labelledby="about03_title" viewBox="0 0 512 512">
        <title id="about03_title"></title>
        <path d="M336,160c-5.52,0-10,4.48-10,10s4.48,10,10,10s10-4.48,10-10S341.52,160,336,160z"/>
		<path d="M176,160c-5.52,0-10,4.48-10,10s4.48,10,10,10s10-4.48,10-10S181.52,160,176,160z"/>
		<path d="M47.056,437.528C46.374,438.893,46,440.446,46,442v60c0,5.523,4.477,10,10,10h60c4.168,0,7.899-2.585,9.363-6.489   L130.43,492h251.14l5.067,13.511c1.464,3.903,5.195,6.489,9.363,6.489h60c5.523,0,10-4.477,10-10v-60   c0-1.572-0.387-3.134-1.056-4.472L446,399.639V52.361l18.944-37.889c1.55-3.1,1.384-6.781-0.438-9.729   C462.685,1.794,459.466,0,456,0H56c-3.466,0-6.685,1.794-8.506,4.743c-1.822,2.948-1.988,6.629-0.438,9.729L66,52.361v347.278   L47.056,437.528z M246,60v332H86V60H246z M426,60v332H266V60H426z M82.18,412H429.82l10,20H72.18L82.18,412z M402.93,492   l-5.067-13.511c-1.464-3.903-5.195-6.489-9.363-6.489h-265c-4.168,0-7.899,2.585-9.363,6.489L109.07,492H66v-40h380v40H402.93z    M439.82,20l-10,20H82.18l-10-20H439.82z"/>
		<path d="M296,372h100c5.523,0,10-4.477,10-10V90c0-5.523-4.477-10-10-10H296c-5.523,0-10,4.477-10,10v272   C286,367.523,290.477,372,296,372z M306,100h80v252h-80V100z"/>
		<path d="M116,372h100c5.523,0,10-4.477,10-10V90c0-5.523-4.477-10-10-10H116c-5.523,0-10,4.477-10,10v272   C106,367.523,110.477,372,116,372z M126,100h80v252h-80V100z"/>
		<path d="M336,200c-5.523,0-10,4.477-10,10v72c0,5.523,4.477,10,10,10s10-4.477,10-10v-72C346,204.477,341.523,200,336,200z"/>
		<path d="M176,200c-5.523,0-10,4.477-10,10v72c0,5.523,4.477,10,10,10s10-4.477,10-10v-72C186,204.477,181.523,200,176,200z"/>
    </symbol>

    <symbol id="about04" role="img" aria-labelledby="about04_title" viewBox="0 0 512 512">
        <title id="about04_title"></title>
        <path d="M256,392c5.52,0,10-4.48,10-10s-4.48-10-10-10s-10,4.48-10,10S250.48,392,256,392z"/>
		<path d="M426,482c0,16.542,13.458,30,30,30s30-13.458,30-30c0-13.036-8.361-24.152-20-28.28V442c0-13.036-8.361-24.152-20-28.28   V402c0-13.036-8.361-24.152-20-28.28V58.28c11.639-4.128,20-15.243,20-28.28c0-16.542-13.458-30-30-30s-30,13.458-30,30   c0,2.87,0.414,5.644,1.17,8.274c-18.956-3.04-38.588-10.113-58.614-21.177C308.602,6.071,282.834,0,256,0   c-26.833,0-52.601,6.071-72.556,17.097c-20.026,11.064-39.657,18.137-58.613,21.177C125.586,35.644,126,32.87,126,30   c0-16.542-13.458-30-30-30S66,13.458,66,30c0,13.036,8.361,24.152,20,28.28v315.44c-11.639,4.128-20,15.243-20,28.28v11.72   c-11.639,4.128-20,15.243-20,28.28v11.72c-11.639,4.128-20,15.243-20,28.28c0,16.542,13.458,30,30,30s30-13.458,30-30   c0-13.036-8.361-24.152-20-28.28V442c0-5.514,4.486-10,10-10h360c5.514,0,10,4.486,10,10v11.72   C434.361,457.848,426,468.964,426,482z M56,492c-5.514,0-10-4.486-10-10s4.486-10,10-10s10,4.486,10,10S61.514,492,56,492z    M456,492c-5.514,0-10-4.486-10-10s4.486-10,10-10s10,4.486,10,10S461.514,492,456,492z M416,20c5.514,0,10,4.486,10,10   s-4.486,10-10,10s-10-4.486-10-10S410.486,20,416,20z M193.116,34.603C210.16,25.186,232.492,20,256,20s45.84,5.186,62.884,14.603   c29.755,16.439,59.05,24.949,87.116,25.358V80H106V59.961C134.067,59.552,163.361,51.041,193.116,34.603z M306,110   c0,3.726-2.054,7.121-5.365,8.864c-7.771,4.098-12.996,11.962-14.304,21.136c-11.798,0-38.883,0-59.367,0   c0.698-1.537,1.731-2.775,2.996-3.442C239.854,131.348,246,121.171,246,110c0-3.506-0.61-6.88-1.72-10.01h23.44   c-1.11,3.13-1.72,6.504-1.72,10.01c0,5.522,4.478,10,10,10s10-4.478,10-10c0-5.514,4.486-10,10-10S306,104.486,306,110z M166,180   h-20v-10c0-5.514,4.486-10,10-10h120c5.514,0,10,4.486,10,10v10h-20c-5.522,0-10,4.478-10,10v96h-80v-96   C176,184.478,171.523,180,166,180z M276,200h20c5.522,0,10-4.478,10-10v-20c0-3.506-0.61-6.87-1.72-10H356c5.514,0,10,4.486,10,10   v10h-20c-5.522,0-10,4.478-10,10v96h-60V200z M96,20c5.514,0,10,4.486,10,10s-4.486,10-10,10s-10-4.486-10-10S90.486,20,96,20z    M96,392h120c5.523,0,10-4.478,10-10s-4.477-10-10-10H106V99.99h81.72c-1.11,3.13-1.72,6.504-1.72,10.01c0,5.522,4.477,10,10,10   s10-4.478,10-10c0-5.514,4.486-10.01,10-10.01s10,4.496,10,10.01c0,3.726-2.054,7.121-5.365,8.864   c-7.771,4.098-12.997,11.962-14.304,21.136H156c-16.542,0-30,13.458-30,30v20c0,5.522,4.477,10,10,10h20v96c0,5.522,4.477,10,10,10   c37.951,0,142.049,0,180,0c5.522,0,10-4.478,10-10v-96h20c5.522,0,10-4.478,10-10v-20c0-16.542-13.458-30-30-30h-49.036   c0.698-1.537,1.731-2.775,2.996-3.442C319.854,131.348,326,121.171,326,110c0-3.506-0.61-6.87-1.72-10H406v272H296   c-5.522,0-10,4.478-10,10s4.478,10,10,10h120c5.514,0,10,4.486,10,10v10H86v-10C86,396.486,90.486,392,96,392z"/>
    </symbol>

    <symbol id="about05" role="img" aria-labelledby="about05_title" viewBox="0 0 512 512">
        <title id="about05_title"></title>
        <path d="M58,279.937h124c5.523,0,10-4.477,10-10V58.123c0-5.523-4.477-10-10-10H58c-5.523,0-10,4.477-10,10    v211.813C48,275.459,52.477,279.937,58,279.937z M172,140.46l-104,104v-56.715l104-104V140.46z M80.809,259.937L172,168.746    v91.191H80.809z M159.337,68.123L68,159.46V68.123H159.337z"/>
		<path d="M310,403.937c-5.523,0-10,4.477-10,10s4.477,10,10,10h44c5.523,0,10-4.477,10-10v-96    c0-5.523-4.477-10-10-10H58c-5.523,0-10,4.477-10,10v96c0,5.523,4.477,10,10,10h172c5.523,0,10-4.477,10-10s-4.477-10-10-10H68    v-76h276v76H310z"/>
		<path d="M182,355.937c-5.523,0-10,4.477-10,10s4.477,10,10,10h48c5.523,0,10-4.477,10-10s-4.477-10-10-10H182z"/>
		<path d="M452.44,186.358c0-16.571-13.481-30.052-30.052-30.052s-30.052,13.481-30.052,30.052    s13.481,30.052,30.052,30.052S452.44,202.929,452.44,186.358z M412.337,186.358c0-5.542,4.509-10.052,10.052-10.052    s10.052,4.509,10.052,10.052c0,5.543-4.509,10.052-10.052,10.052S412.337,191.901,412.337,186.358z"/>
		<path d="M464.274,359.914v-72.415C492.637,272.437,512,242.589,512,208.299c0-49.412-40.2-89.611-89.611-89.611    c-3.514,0-6.979,0.21-10.389,0.606V10.063c0-5.523-4.477-10-10-10H222c-5.523,0-10,4.477-10,10s4.477,10,10,10h170v103.933    c-10.347,3.741-19.815,9.335-28,16.381V58.123c0-5.523-4.477-10-10-10H230c-5.523,0-10,4.477-10,10v211.813    c0,5.523,4.477,10,10,10h124c3.673,0,6.875-1.986,8.613-4.937c5.38,4.827,11.346,9.013,17.775,12.439v186.72    c0,2.652,1.054,5.196,2.929,7.071l8.729,8.729c-0.027,0.302-0.046,0.606-0.046,0.915V492h-19.402l-26.027-35.987    c-1.88-2.6-4.895-4.14-8.103-4.14H73.532c-3.208,0-6.223,1.54-8.103,4.14L39.402,492H20V20h122c5.523,0,10-4.477,10-10    s-4.477-10-10-10H10C4.477,0,0,4.477,0,10v492c0,5.523,4.477,10,10,10h34.511c3.208,0,6.223-1.54,8.103-4.14l26.027-35.987    h254.718l26.027,35.987c1.88,2.6,4.895,4.14,8.103,4.14H402c3.295,0,6.208-1.6,8.03-4.058l1.066,1.066    c1.953,1.953,4.512,2.929,7.071,2.929s5.119-0.976,7.071-2.929l36.221-36.221c3.905-3.905,3.905-10.237,0-14.142l-10.553-10.553    l10.477-10.477c3.905-3.905,3.905-10.237,0-14.143l-10.948-10.948l10.636-10.635c3.905-3.905,3.905-10.237,0-14.143    l-10.244-10.244l10.518-10.519C463.221,365.109,464.274,362.566,464.274,359.914z M240,186.266l104-104v65.862l-104,104V186.266z     M329.857,68.123L240,157.98V68.123H329.857z M344,259.937h-83.524l75.545-75.545c-2.11,7.614-3.243,15.631-3.243,23.908    c0,15.735,4.082,30.533,11.235,43.399c-0.002,0.08-0.012,0.158-0.012,0.238V259.937z M352.777,208.299    c0-38.384,31.228-69.611,69.611-69.611S492,169.916,492,208.299s-31.228,69.611-69.611,69.611S352.777,246.683,352.777,208.299z     M429.614,384.574l10.244,10.244l-10.636,10.635c-3.905,3.905-3.905,10.237,0,14.143l10.948,10.948l-10.477,10.477    c-3.905,3.905-3.905,10.237,0,14.142l10.553,10.553l-22.079,22.079l-17.779-17.779V295.175c7.042,1.784,14.412,2.736,22,2.736    c7.548,0,14.878-0.942,21.886-2.708v60.569l-14.66,14.661C425.709,374.337,425.709,380.669,429.614,384.574z"/>
		<path d="M182,20c2.63,0,5.21-1.07,7.07-2.93S192,12.63,192,10c0-2.63-1.07-5.21-2.93-7.07    C187.21,1.07,184.63,0,182,0c-2.63,0-5.21,1.07-7.07,2.93C173.07,4.79,172,7.37,172,10c0,2.63,1.07,5.21,2.93,7.07    C176.79,18.93,179.37,20,182,20z"/>
		<path d="M262.93,406.87c-1.86,1.86-2.93,4.43-2.93,7.07c0,2.63,1.07,5.21,2.93,7.07    c1.86,1.86,4.44,2.93,7.07,2.93c2.63,0,5.21-1.07,7.07-2.93s2.93-4.44,2.93-7.07c0-2.64-1.07-5.21-2.93-7.07    c-1.86-1.87-4.44-2.93-7.07-2.93C267.37,403.94,264.79,405,262.93,406.87z"/>
    </symbol>

    <symbol id="footer-phone" role="img" aria-labelledby="footer-phone_title" viewBox="0 0 512 512">
        <title id="footer-phone_title"></title>
        <path d="M421.216,195.504c-5.092-26.101-17.723-49.836-36.526-68.64c-18.804-18.803-42.54-31.434-68.641-36.527
			c-11.21-2.189-22.073,5.128-24.261,16.339c-2.187,11.212,5.128,22.073,16.339,24.26c36.847,7.188,65.3,35.642,72.489,72.489
			c1.927,9.874,10.581,16.726,20.278,16.726c1.313,0,2.645-0.125,3.984-0.387C416.088,217.577,423.403,206.715,421.216,195.504z"/>
		<path d="M511.422,196.929c-5.629-50.096-28.373-97.304-64.042-132.927C411.712,28.378,364.475,5.694,314.371,0.128
			c-11.355-1.261-21.578,6.92-22.839,18.272c-1.261,11.353,6.919,21.578,18.272,22.84c84.961,9.438,150.966,75.36,160.512,160.31
			c1.188,10.566,10.139,18.374,20.527,18.374c0.771,0,1.552-0.043,2.336-0.131C504.53,218.516,512.698,208.281,511.422,196.929z"/>
		<path d="M432.59,312.566c-0.062-0.008-0.124-0.017-0.186-0.025c-20.013-2.639-39.751-7.557-58.619-14.596
			c-23.91-8.99-51.103-3.191-69.27,14.772c-0.028,0.028-0.056,0.055-0.083,0.083l-17.148,17.148
			c-42.633-26.924-78.756-63.047-105.679-105.679l17.149-17.149c0.027-0.028,0.054-0.055,0.082-0.083
			c17.964-18.166,23.762-45.356,14.79-69.223c-7.057-18.914-11.974-38.653-14.614-58.666c-0.007-0.063-0.017-0.127-0.026-0.19
			c-4.591-32.478-32.782-56.734-65.548-56.467H66.053c-1.943,0.002-3.912,0.091-5.853,0.267
			C24.143,26.016-2.541,58.001,0.718,94.058c0.01,0.108,0.02,0.215,0.032,0.323c7.684,72.354,32.649,142.88,72.197,203.955
			c35.892,56.461,84.701,105.269,141.162,141.164c60.792,39.406,130.99,64.369,203.013,72.196c0.127,0.015,0.254,0.027,0.38,0.038
			c1.961,0.176,3.949,0.266,5.921,0.266c0.083,0,0.165,0,0.247,0.001c36.204-0.148,65.538-29.722,65.391-65.841v-67.233
			C489.746,345.714,465.515,317.211,432.59,312.566z M447.698,378.695v67.548c0.055,13.396-10.8,24.338-24.19,24.393
			c-0.715-0.004-1.425-0.027-2.135-0.086c-65.578-7.161-129.488-29.914-184.837-65.808c-0.053-0.035-0.107-0.069-0.161-0.103
			c-51.429-32.68-95.885-77.137-128.565-128.565c-0.032-0.051-0.064-0.101-0.097-0.153C71.683,220.306,48.928,156.086,41.902,90.193
			C40.779,76.91,50.63,65.155,63.923,63.954c0.717-0.064,1.443-0.098,2.145-0.098h67.463c0.146-0.001,0.294-0.003,0.443-0.002
			c12.021,0,22.322,8.905,24.044,20.819c3.05,23.063,8.721,45.806,16.871,67.649c3.319,8.832,1.189,18.869-5.427,25.591
			l-28.517,28.517c-6.583,6.582-7.956,16.753-3.354,24.847c33.837,59.508,83.177,108.847,142.685,142.685
			c8.094,4.6,18.264,3.23,24.848-3.355l28.512-28.512c6.72-6.621,16.765-8.752,25.642-5.415
			c21.799,8.134,44.547,13.805,67.61,16.855c12.18,1.757,21.122,12.339,20.816,24.647
			C447.7,378.353,447.698,378.524,447.698,378.695z"/>
    </symbol>    

	<symbol id="footer-mail" role="img" aria-labelledby="footer-mail_title" viewBox="0 0 512 512">
        <title id="footer-mail_title"></title>
        <path d="M256,141.176c-63.306,0-114.809,51.503-114.809,114.809S192.694,370.795,256,370.795s114.809-51.503,114.809-114.809
			S319.306,141.176,256,141.176z M256,329.43c-40.498,0-73.445-32.947-73.445-73.445c0-40.498,32.947-73.445,73.445-73.445
			c40.499,0,73.445,32.947,73.445,73.445C329.445,296.483,296.499,329.43,256,329.43z"/>
		<path d="M437.008,74.97C388.656,26.623,324.375,0,256,0c-0.005,0-0.013,0-0.017,0C187.603,0.004,123.318,26.637,74.97,74.992
			C26.62,123.347-0.005,187.637,0,256.017c0.004,68.379,26.637,132.666,74.992,181.014C123.344,485.377,187.625,512.001,256,512
			c0.004,0,0.012,0,0.017,0c55.945-0.004,111.216-18.738,155.631-52.752c9.07-6.945,10.792-19.927,3.846-28.995
			c-6.945-9.069-19.926-10.794-28.995-3.846c-37.24,28.518-83.58,44.224-130.486,44.228c-0.006,0-0.006,0-0.014,0
			c-57.324,0-111.224-22.324-151.761-62.856c-40.542-40.536-62.871-94.435-62.875-151.766
			C41.357,137.663,137.636,41.372,255.986,41.364c0.007,0,0.006,0,0.014,0c118.34,0,214.628,96.279,214.636,214.622v23.532
			c0,27.523-22.39,49.913-49.913,49.913c-27.523,0-49.913-22.391-49.913-49.913v-23.532c0-11.422-9.259-20.682-20.682-20.682
			s-20.682,9.26-20.682,20.682v23.532c0,50.33,40.947,91.278,91.278,91.278S512,329.848,512,279.518v-23.534
			C511.995,187.604,485.362,123.318,437.008,74.97z"/>
    </symbol>

    <symbol id="footer-location" role="img" aria-labelledby="footer-location_title" viewBox="0 0 512 512">
        <title id="footer-location_title"></title>
        <path d="M406.766,62.449C366.495,22.178,312.951,0,256,0S145.505,22.178,105.234,62.449
			c-40.272,40.271-62.449,93.814-62.449,150.766c0,37.656,10.972,76.863,32.609,116.532c16.825,30.846,40.15,62.102,69.326,92.898
			c49.17,51.903,97.763,84.519,99.808,85.881C248.001,510.842,252,512,256,512c4,0,7.999-1.158,11.473-3.474
			c2.045-1.363,50.638-33.978,99.808-85.881c29.176-30.795,52.501-62.051,69.326-92.898c21.637-39.669,32.609-78.876,32.609-116.532
			C469.215,156.263,447.038,102.72,406.766,62.449z M256.001,465.903C215.826,436.156,84.15,329.739,84.15,213.215
			c0-94.759,77.091-171.851,171.85-171.851s171.85,77.092,171.851,171.851C427.851,329.748,296.159,436.168,256.001,465.903z"/>
		<path d="M256,128.355c-46.791,0-84.86,38.068-84.86,84.86c0,46.791,38.068,84.86,84.86,84.86c46.792,0,84.861-38.068,84.86-84.86
			C340.86,166.423,302.791,128.355,256,128.355z M256,256.71c-23.983,0-43.495-19.512-43.495-43.495
			c0-23.983,19.512-43.495,43.495-43.495c23.984,0,43.495,19.512,43.495,43.495C299.495,237.198,279.984,256.71,256,256.71z"/>
	</symbol>

	<symbol id="footer-facebook" role="img" aria-labelledby="footer-facebook_title" viewBox="0 0 512 512">
        <title id="footer-facebook_title"></title>
        <path d="M314.829,135.492h70.595c11.423,0,20.682-9.26,20.682-20.682V20.682C406.107,9.26,396.848,0,385.425,0h-70.595
			c-76.282,0-138.341,62.06-138.341,138.341v49.913h-49.913c-11.422,0-20.682,9.26-20.682,20.682v94.127
			c0,11.423,9.26,20.682,20.682,20.682h49.913v167.572c0,11.423,9.26,20.682,20.682,20.682h94.127
			c11.423,0,20.682-9.259,20.682-20.682V323.746h49.913c9.49,0,17.763-6.458,20.065-15.666l23.532-94.127
			c1.544-6.179,0.156-12.725-3.763-17.744c-3.919-5.02-9.932-7.954-16.301-7.954H311.98v-49.913
			C311.98,136.77,313.258,135.492,314.829,135.492z M291.298,229.619h67.637l-13.191,52.763h-54.447
			c-11.423,0-20.682,9.259-20.682,20.682v167.572h-52.763V303.064c0-11.423-9.26-20.682-20.682-20.682h-49.913v-52.763h49.913
			c11.422,0,20.682-9.26,20.682-20.682v-70.595c0-53.473,43.503-96.977,96.977-96.977h49.913v52.763h-49.913
			c-24.38,0-44.214,19.835-44.214,44.214v70.595C270.615,220.359,279.875,229.619,291.298,229.619z"/>
	</symbol>

	<symbol id="footer-twitter" role="img" aria-labelledby="footer-twitter_title" viewBox="0 0 512 512">
        <title id="footer-twitter_title"></title>
        <path d="M502.954,47.189c-7.126-4.852-16.515-4.774-23.559,0.196c-15.351,10.828-31.974,19.528-49.557,25.948
			c-19.253-17.414-43.615-27.826-69.915-29.656c-31.056-2.16-61.081,7.9-84.561,28.326c-25.59,22.259-40.174,54.444-40.046,88.349
			c-85.248-7.609-139.14-61.55-177.09-108.986c-4.598-5.746-11.901-8.619-19.182-7.538c-7.279,1.078-13.438,5.944-16.171,12.777
			c-0.948,2.369-23.141,58.799-17.453,127.057c4.761,57.133,30.23,131.964,120.039,181.717
			c-32.436,14.756-68.282,21.939-103.953,20.519c-9.576-0.378-18.15,5.859-20.736,15.08c-2.587,9.221,1.497,19.013,9.869,23.665
			c51.359,28.532,108.03,43.736,163.889,43.965c0.432,0.002,0.861,0.003,1.294,0.003c54.105-0.001,106.379-13.938,151.246-40.336
			c42.898-25.241,78.416-61.759,102.715-105.603c26.162-47.206,39.427-101.75,39.427-162.186c-0.011-3.544-0.186-7.098-0.52-10.638
			c20.7-22.885,35.388-50.567,42.719-80.667C513.451,60.803,510.081,52.04,502.954,47.189z M432.297,128.07
			c-4.916,4.847-7.088,11.827-5.793,18.607c0.877,4.588,1.329,9.278,1.344,13.874c0,101.956-44.378,186.544-121.756,232.072
			c-60.586,35.649-133.037,43.933-203.609,25.057c0.729-0.201,1.459-0.407,2.185-0.615c27.596-7.885,53.63-20.055,77.377-36.174
			c6.329-4.296,9.77-11.734,8.946-19.34c-0.825-7.605-5.778-14.134-12.881-16.975C97.757,312.434,53.563,257.594,46.757,181.575
			c-2.536-28.334,0.707-54.721,4.766-74.501c16.638,17.909,37.384,37.227,62.129,53.407c42.771,27.966,90.663,42.146,142.346,42.146
			c11.423,0,20.682-9.26,20.682-20.682v-21.393c0-0.045,0-0.091,0-0.137c-0.146-21.948,9.268-42.797,25.829-57.202
			c15.146-13.175,34.51-19.665,54.543-18.27c20.026,1.393,38.311,10.502,51.487,25.648c5.339,6.138,13.783,8.577,21.567,6.229
			c5.725-1.724,11.375-3.645,16.941-5.757C442.599,117.081,437.672,122.769,432.297,128.07z"/>
	</symbol>

	<symbol id="footer-instagram" role="img" aria-labelledby="footer-instagram_title" viewBox="0 0 512 512">
        <title id="footer-instagram_title"></title>
        <path d="M373.659,0H138.341C62.06,0,0,62.06,0,138.341v235.318C0,449.94,62.06,512,138.341,512h235.318
			C449.94,512,512,449.94,512,373.659V138.341C512,62.06,449.94,0,373.659,0z M470.636,373.659
			c0,53.473-43.503,96.977-96.977,96.977H138.341c-53.473,0-96.977-43.503-96.977-96.977V138.341
			c0-53.473,43.503-96.977,96.977-96.977h235.318c53.473,0,96.977,43.503,96.977,96.977V373.659z"/>
		<path d="M370.586,238.141c-3.64-24.547-14.839-46.795-32.386-64.342c-17.547-17.546-39.795-28.746-64.341-32.385
			c-11.176-1.657-22.507-1.657-33.682,0c-30.336,4.499-57.103,20.541-75.372,45.172c-18.269,24.631-25.854,54.903-21.355,85.237
			c4.499,30.335,20.541,57.102,45.172,75.372c19.996,14.831,43.706,22.619,68.153,22.619c5.667,0,11.375-0.418,17.083-1.265
			c30.336-4.499,57.103-20.541,75.372-45.172C367.5,298.747,375.085,268.476,370.586,238.141z M267.791,327.632
			c-19.405,2.882-38.77-1.973-54.527-13.66c-15.757-11.687-26.019-28.811-28.896-48.216c-2.878-19.405,1.973-38.77,13.66-54.527
			c11.688-15.757,28.811-26.019,48.217-28.897c3.574-0.53,7.173-0.795,10.772-0.795s7.199,0.265,10.773,0.796
			c32.231,4.779,57.098,29.645,61.878,61.877C335.608,284.268,307.851,321.692,267.791,327.632z"/>
		<path d="M400.049,111.951c-3.852-3.851-9.183-6.058-14.625-6.058c-5.442,0-10.773,2.206-14.625,6.058
			c-3.851,3.852-6.058,9.174-6.058,14.625c0,5.451,2.207,10.773,6.058,14.625c3.852,3.851,9.183,6.058,14.625,6.058
			c5.442,0,10.773-2.206,14.625-6.058c3.851-3.852,6.058-9.183,6.058-14.625C406.107,121.133,403.9,115.802,400.049,111.951z"/>
	</symbol>

</svg>