<svg xmlns="http://www.w3.org/2000/svg" xmlns:xlink="http://www.w3.org/1999/xlink">

	<symbol id="services01" role="img" aria-labelledby="services01_title" viewBox="0 0 512 512">
        <title id="services01_title"></title>
        <path d="M263.046,2.936c-1.86-1.86-4.44-2.93-7.07-2.93s-5.21,1.07-7.07,2.93c-1.859,1.86-2.93,4.44-2.93,7.07
            s1.07,5.21,2.93,7.07c1.86,1.86,4.441,2.93,7.07,2.93c2.63,0,5.21-1.07,7.07-2.93c1.859-1.86,2.93-4.44,2.93-7.07
            S264.906,4.796,263.046,2.936z"/>
        <path d="M196.228,137.523c-1.87-1.86-4.439-2.93-7.07-2.93c-2.63,0-5.21,1.07-7.08,2.93c-1.859,1.86-2.92,4.44-2.92,7.07
            c0,2.63,1.061,5.21,2.92,7.08c1.87,1.86,4.44,2.92,7.08,2.92c2.631,0,5.21-1.06,7.07-2.92c1.86-1.87,2.93-4.45,2.93-7.08
            C199.158,141.963,198.089,139.383,196.228,137.523z"/>
        <path d="M168.601,165.15c-3.906-3.906-10.236-3.906-14.142,0l-89.123,89.123c-3.905,3.905-3.905,10.237,0,14.143
            c1.953,1.952,4.512,2.929,7.071,2.929s5.118-0.977,7.071-2.929l89.123-89.123C172.506,175.388,172.506,169.056,168.601,165.15z"/>
        <path d="M472.001,471.932H502c5.522,0,10-4.478,10-10V66.005c0-0.091-0.011-0.18-0.014-0.271V10.006c0-5.523-4.478-10-10-10
            h-195.01c-5.522,0-10,4.477-10,10c0,5.523,4.478,10,10,10h185.01v35.999H19.999V20.006h188.619c5.522,0,10-4.477,10-10
            c0-5.523-4.478-10-10-10H10c-5.522,0-10,4.477-10,10v55.998v395.927c0,5.522,4.478,10,10,10h338.005v18.313
            c0,0.59,0.03,1.172,0.077,1.75H144.593c-5.522,0-10,4.478-10,10s4.478,10,10,10H502c5.522,0,10-4.478,10-10s-4.478-10-10-10
            h-30.076c0.046-0.578,0.077-1.16,0.077-1.75V471.932z M246.007,451.932H19.999v-25.083l186.304-186.304
            c3.905-3.905,3.905-10.237,0-14.143c-3.906-3.905-10.236-3.905-14.143,0L19.999,398.564V76.004h226.008V451.932z M452.002,490.243
            c0,0.965-0.785,1.75-1.75,1.75h-80.498c-0.965,0-1.75-0.785-1.75-1.75v-98.247h83.998V490.243z M391.884,371.996h-8.948
            c-2.692-13.068-6.387-25.833-10.991-37.945C382.532,343.693,389.751,357.308,391.884,371.996z M380.057,275.024
            c18.758,13.458,30.461,35.328,30.823,58.778c-1.576,5.846-2.833,11.792-3.754,17.812c-2.549-6.754-5.936-13.152-10.05-18.995
            C393.514,312.783,387.823,293.504,380.057,275.024z M427.63,293.702c-1.228,2.105-2.396,4.244-3.529,6.401
            c-1.425-3.532-3.063-6.969-4.899-10.295c0.024-0.226,0.053-0.451,0.062-0.682c0.036-0.901,0.867-17.632,12.111-30.493
            c-2.562,10.987-3.881,22.27-3.881,33.499C427.495,292.667,427.549,293.189,427.63,293.702z M449.949,295.737
            c-7.215,24.608-11.948,51.803-12.91,76.259H425.33C426.136,344.54,434.854,318.091,449.949,295.737z M462.001,371.996h-4.945
            c1.702-39.2,14.039-87.071,30.032-114.952c0.136-0.236,0.292-0.542,0.408-0.789c1.94-4.132,0.836-9.055-2.684-11.962
            c-3.521-2.908-8.563-3.062-12.253-0.375c-7.804,5.681-15.023,12.008-21.609,18.873c1.948-8.237,4.693-16.283,8.216-23.934
            c1.775-3.857,0.921-8.416-2.131-11.369c-3.053-2.952-7.636-3.656-11.434-1.753l-10.739,5.382
            c-18.435,9.248-27.317,24.87-31.603,37.486c-7.357-7.355-15.972-13.545-25.612-18.153l-15.632-7.471
            c-3.92-1.874-8.6-1.002-11.583,2.156c-2.982,3.158-3.585,7.881-1.491,11.687l1.044,1.897c8.791,15.977,15.784,32.76,20.934,50.138
            c-1.294-0.719-2.603-1.41-3.941-2.049l-13.109-6.265c-3.92-1.872-8.602-1.001-11.583,2.158c-2.982,3.159-3.584,7.882-1.488,11.688
            l0.874,1.588c9.184,16.695,16.29,35.88,20.808,56.017h-4.479c-5.522,0-10,4.478-10,10v69.936h-81.998V76.004h225.994v375.928
            h-19.999v-69.936C472.001,376.474,467.523,371.996,462.001,371.996z"/>
        <path d="M105.211,494.923c-1.87-1.861-4.441-2.93-7.07-2.93c-2.63,0-5.21,1.069-7.07,2.93c-1.87,1.86-2.93,4.44-2.93,7.07
            s1.06,5.21,2.93,7.069c1.86,1.86,4.44,2.931,7.07,2.931c2.63,0,5.21-1.07,7.07-2.931c1.859-1.859,2.93-4.439,2.93-7.069
            C108.141,499.363,107.071,496.783,105.211,494.923z"/>
    </symbol>

    <symbol id="services02" role="img" aria-labelledby="services02_title" viewBox="0 0 512 512">
        <title id="services02_title"></title>
        <path d="m462 452c-5.519531 0-10 4.480469-10 10s4.480469 10 10 10 10-4.480469 10-10-4.480469-10-10-10zm0 0"/>
        <path d="m502 40h-176v-30c0-5.523438-4.476562-10-10-10h-306c-5.523438 0-10 4.476562-10 10v492c0 5.523438 4.476562 10 10 10h492c5.523438 0 10-4.476562 10-10v-452c0-5.523438-4.476562-10-10-10zm-482-20h286v20h-256c-5.523438 0-10 4.476562-10 10v442h-20zm246 472h-206v-432h206zm226 0h-206v-432h206zm0 0"/>
        <path d="m306 110v80c0 5.523438 4.476562 10 10 10h146c5.523438 0 10-4.476562 10-10v-80c0-5.523438-4.476562-10-10-10h-146c-5.523438 0-10 4.476562-10 10zm20 10h126v60h-126zm0 0"/>
        <path d="m442 240c-13.035156 0-24.152344 8.359375-28.28125 20h-31.71875c-5.523438 0-10 4.476562-10 10s4.476562 10 10 10h31.71875c4.128906 11.640625 15.246094 20 28.28125 20 16.542969 0 30-13.457031 30-30s-13.457031-30-30-30zm0 40c-5.515625 0-10-4.484375-10-10s4.484375-10 10-10 10 4.484375 10 10-4.484375 10-10 10zm0 0"/>
        <path d="m422 452h-106c-5.523438 0-10 4.476562-10 10s4.476562 10 10 10h106c5.523438 0 10-4.476562 10-10s-4.476562-10-10-10zm0 0"/>
    </symbol>

    <symbol id="services03" role="img" aria-labelledby="services03_title" viewBox="0 0 512 512">
        <title id="services03_title"></title>
        <path d="M463.5,48.5H336.8V21.6h123.4c6,0,10.8-4.8,10.8-10.8S466.2,0,460.3,0H51.7C45.8,0,41,4.8,41,10.8s4.8,10.8,10.8,10.8
            h123.4v26.9H48.5c-6,0-10.8,4.8-10.8,10.8v441.9c0,6,4.8,10.8,10.8,10.8h415c6,0,10.8-4.8,10.8-10.8V59.3
            C474.3,53.3,469.4,48.5,463.5,48.5z M196.7,21.6h118.6v26.9H196.7V21.6z M245.2,490.4H59.3v-28.6h185.9V490.4z M245.2,124.9
            l-65.3,65.3c-4.2,4.2-4.2,11,0,15.2c2.1,2.1,4.9,3.2,7.6,3.2c2.8,0,5.5-1.1,7.6-3.2l50-50v284.9H59.3v-99L78.6,322
            c4.2-4.2,4.2-11,0-15.2c-4.2-4.2-11-4.2-15.2,0l-4.1,4.1V70.1H230l-59.6,59.6c-4.2,4.2-4.2,11,0,15.2c2.1,2.1,4.9,3.2,7.6,3.2
            c2.8,0,5.5-1.1,7.6-3.2l59.6-59.6L245.2,124.9L245.2,124.9z M452.7,490.4H266.8v-28.6h185.9V490.4z M452.7,124.1l-66.1,66.1
            c-4.2,4.2-4.2,11,0,15.2c2.1,2.1,4.9,3.2,7.6,3.2s5.5-1.1,7.6-3.2l50.9-50.9v285.8H266.8v-99.8l19.6-19.6c4.2-4.2,4.2-11,0-15.2
            c-4.2-4.2-11-4.2-15.2,0l-4.4,4.4V70.1h169.9L377,129.7c-4.2,4.2-4.2,11,0,15.2c2.1,2.1,4.9,3.2,7.6,3.2s5.5-1.1,7.6-3.2
            l60.4-60.4L452.7,124.1L452.7,124.1z"/>
        <path d="M142.1,183.9c2.8,0,5.5-1.1,7.6-3.2l1.2-1.2c4.2-4.2,4.2-11,0-15.2c-4.2-4.2-11-4.2-15.2,0l-1.2,1.2
            c-4.2,4.2-4.2,11,0,15.2C136.6,182.9,139.4,183.9,142.1,183.9z"/>
        <path d="M348.8,183.9c2.8,0,5.5-1.1,7.6-3.2l1.2-1.2c4.2-4.2,4.2-11,0-15.2c-4.2-4.2-11-4.2-15.2,0l-1.2,1.2
            c-4.2,4.2-4.2,11,0,15.2C343.3,182.9,346.1,183.9,348.8,183.9z"/>
    </symbol>

    <symbol id="services04" role="img" aria-labelledby="services04_title" viewBox="0 0 512 512">
        <title id="services04_title"></title>
        <path d="M333.054,198.948c-1.86-1.86-4.44-2.93-7.071-2.93c-2.63,0-5.211,1.069-7.071,2.93c-1.86,1.86-2.93,4.44-2.93,7.071
            s1.07,5.211,2.93,7.07c1.86,1.86,4.44,2.931,7.071,2.931c2.63,0,5.21-1.07,7.071-2.931c1.86-1.859,2.93-4.439,2.93-7.07
            C335.984,203.377,334.914,200.808,333.054,198.948z"/>
        <path d="M499.488,5.648c-0.112-0.086-0.229-0.164-0.344-0.245C494.28,2.003,488.37,0,481.997,0H201.972
            c-5.974,0-11.539,1.761-16.22,4.782c-0.372,0.218-0.731,0.46-1.077,0.728c-7.679,5.44-12.706,14.386-12.706,24.492v156.014
            c0,16.543,13.459,30.003,30.003,30.003h74.007c5.524,0,10.001-4.478,10.001-10.001c0-5.522-4.477-10.001-10.001-10.001h-64.197
            l82.079-95.902l42.271,30.505c1.747,1.26,3.799,1.891,5.853,1.891c2.048,0,4.096-0.628,5.841-1.883l42.332-30.455l82.031,95.844
            h-102.2c-5.523,0-10.001,4.478-10.001,10.001c0,5.523,4.477,10.001,10.001,10.001h112.01c16.544,0,30.003-13.459,30.003-30.003
            V30.003C512,19.983,507.057,11.101,499.488,5.648z M192.202,188.136c-0.148-0.684-0.231-1.391-0.231-2.119V30.003
            c0-1.07,0.173-2.099,0.486-3.067l85.131,61.436L192.202,188.136z M341.995,110.185L217.03,20.002h250.318L341.995,110.185z
             M491.998,186.017c0,0.727-0.083,1.435-0.231,2.119L406.45,88.452l85.141-61.253c0.261,0.891,0.407,1.83,0.407,2.803V186.017z"/>
        <path d="M447.994,437.118c-1.499,0-2.921,0.33-4.197,0.921h-4.882c-5.523,0-10.001,4.478-10.001,10.001
            c0,5.522,4.477,10.001,10.001,10.001h9.08c5.523,0,10.001-4.478,10.001-10.001v-0.921
            C457.995,441.597,453.518,437.118,447.994,437.118z"/>
        <path d="M447.994,387.114c-5.523,0-10.001,4.478-10.001,10.001v10.001c0,5.523,4.477,10.001,10.001,10.001
            s10.001-4.478,10.001-10.001v-10.001C457.995,391.592,453.518,387.114,447.994,387.114z"/>
        <path d="M398.911,438.039H388.91c-5.523,0-10.001,4.478-10.001,10.001c0,5.522,4.477,10.001,10.001,10.001h10.001
            c5.524,0,10.001-4.478,10.001-10.001C408.912,442.518,404.434,438.039,398.911,438.039z"/>
        <path d="M447.994,237.1c-5.523,0-10.001,4.478-10.001,10.001v10.001c0,5.522,4.477,10.001,10.001,10.001
            s10.001-4.478,10.001-10.001v-10.001C457.995,241.579,453.518,237.1,447.994,237.1z"/>
        <path d="M447.994,287.105c-5.523,0-10.001,4.478-10.001,10.001v10.001c0,5.522,4.477,10.001,10.001,10.001
            s10.001-4.478,10.001-10.001v-10.001C457.995,291.583,453.518,287.105,447.994,287.105z"/>
        <path d="M447.994,337.109c-5.523,0-10.001,4.478-10.001,10.001v10.001c0,5.523,4.477,10.001,10.001,10.001
            s10.001-4.478,10.001-10.001V347.11C457.995,341.588,453.518,337.109,447.994,337.109z"/>
        <path d="M73.961,54.005H63.96c-5.523,0-10.001,4.478-10.001,10.001c0,5.523,4.478,10.001,10.001,10.001h10.001
            c5.523,0,10.001-4.478,10.001-10.001C83.961,58.483,79.484,54.005,73.961,54.005z"/>
        <path d="M123.965,54.005h-10.001c-5.523,0-10.001,4.478-10.001,10.001c0,5.523,4.478,10.001,10.001,10.001h10.001
            c5.523,0,10.001-4.478,10.001-10.001C133.966,58.483,129.489,54.005,123.965,54.005z"/>
        <path d="M63.96,94.008c-5.523,0-10.001,4.478-10.001,10.001v10.001c0,5.523,4.478,10.001,10.001,10.001
            c5.523,0,10.001-4.478,10.001-10.001v-10.001C73.961,98.487,69.483,94.008,63.96,94.008z"/>
        <path d="M63.96,144.013c-5.523,0-10.001,4.478-10.001,10.001v10.001c0,5.523,4.478,10.001,10.001,10.001
            c5.523,0,10.001-4.478,10.001-10.001v-10.001C73.961,148.491,69.483,144.013,63.96,144.013z"/>
        <path d="M110.604,405.356c-1.86-1.86-4.44-2.93-7.071-2.93c-2.64,0-5.211,1.07-7.081,2.93c-1.86,1.86-2.92,4.44-2.92,7.071
            s1.06,5.21,2.92,7.071c1.87,1.859,4.45,2.93,7.081,2.93s5.2-1.07,7.071-2.93c1.86-1.86,2.93-4.44,2.93-7.071
            S112.464,407.217,110.604,405.356z"/>
        <path d="M311.293,415.936l-52.694-52.694c-15.122-15.121-39.729-15.122-54.853,0.001l-3.433,3.434
            c-4.768,4.77-12.528,4.769-17.297,0l-37.692-37.692c-2.31-2.31-3.582-5.381-3.582-8.648s1.272-6.338,3.583-8.648l3.433-3.434
            c15.123-15.123,15.123-39.73,0-54.853l-52.695-52.695c-15.123-15.122-39.731-15.122-54.852,0l-12.609,12.608
            c-38.136,38.137-38.136,100.19,0,138.326l34.375,34.375c3.905,3.904,10.238,3.904,14.144,0c3.905-3.905,3.905-10.238,0-14.144
            l-34.375-34.375c-30.338-30.338-30.338-79.701,0-110.039l12.608-12.608c7.324-7.325,19.241-7.325,26.565,0l52.694,52.694
            c7.325,7.324,7.325,19.241,0,26.565l-3.433,3.434c-1.261,1.261-2.397,2.612-3.418,4.032l-41.621-41.621
            c-3.905-3.904-10.238-3.904-14.144,0c-3.905,3.905-3.905,10.238,0,14.144l49.963,49.962c0.824,7.199,4.019,13.865,9.22,19.066
            l37.692,37.692c12.568,12.566,33.016,12.567,45.584-0.001l3.434-3.434c7.324-7.325,19.241-7.325,26.565,0l52.695,52.694
            c3.547,3.548,5.502,8.266,5.502,13.282c0,5.016-1.954,9.734-5.503,13.282l-7.16,7.16l-47.961-47.961
            c-3.905-3.904-10.238-3.904-14.144,0c-3.905,3.905-3.905,10.238,0,14.144l47.268,47.268
            c-30.403,22.039-73.274,19.378-100.652-8.002l-25.898-25.898c-3.905-3.903-10.238-3.904-14.143,0
            c-3.905,3.905-3.905,10.238,0,14.144l25.898,25.898C179.425,502.465,204.473,512,229.521,512s50.095-9.534,69.164-28.603
            l12.607-12.608c7.327-7.326,11.361-17.065,11.361-27.426S318.618,423.262,311.293,415.936z"/>
    </symbol>

    <symbol id="services05" role="img" aria-labelledby="services05_title" viewBox="0 0 512 512">
        <title id="services05_title"></title>
        <path d="M484.958,243.114c-0.004-5.517-4.481-9.993-10.002-9.993h-26.561c-4.625-17.943-11.698-35.026-21.101-50.966
            l18.782-18.784c3.905-3.905,3.905-10.237,0-14.142l-28.29-28.29c-3.906-3.905-10.236-3.905-14.143,0
            c-3.905,3.905-3.905,10.237,0,14.142l21.22,21.219l-17.307,17.307c-3.333,3.333-3.886,8.54-1.327,12.499
            c11.704,18.11,19.939,37.999,24.477,59.115c0.99,4.608,5.063,7.899,9.776,7.899h24.476l0.021,59.611h-24.497
            c-4.713,0-8.787,3.291-9.776,7.899c-4.538,21.118-12.773,41.008-24.476,59.117c-2.559,3.958-2.006,9.166,1.327,12.499
            l17.375,17.375l-42.129,42.175l-17.397-17.397c-3.334-3.333-8.542-3.886-12.499-1.327c-18.108,11.704-37.998,19.939-59.117,24.477
            c-4.607,0.99-7.898,5.063-7.898,9.777v24.636l-59.612,0.021v-24.657c0-4.713-3.291-8.787-7.899-9.777
            c-21.117-4.538-41.008-12.773-59.117-24.477c-3.958-2.559-9.165-2.006-12.499,1.327l-17.466,17.466L87.15,409.713l17.466-17.466
            c3.333-3.333,3.886-8.541,1.327-12.5c-11.704-18.109-19.94-38-24.477-59.118c-0.99-4.608-5.064-7.899-9.777-7.899H47.031
            l0.021-59.611h24.636c4.713,0,8.787-3.291,9.776-7.899c4.538-21.117,12.773-41.007,24.478-59.116
            c2.559-3.959,2.006-9.167-1.327-12.5l-17.401-17.401l15.578-15.579c3.905-3.905,3.905-10.237,0-14.142
            c-3.906-3.905-10.236-3.905-14.143,0l-22.648,22.648c-1.875,1.875-2.929,4.419-2.929,7.071s1.054,5.196,2.929,7.071l18.878,18.878
            c-9.404,15.94-16.479,33.024-21.102,50.967h-26.72c-5.521,0-9.998,4.475-10,9.997l-0.029,79.61
            c-0.001,2.653,1.052,5.198,2.928,7.074c1.875,1.876,4.42,2.93,7.072,2.93h26.749c4.624,17.943,11.698,35.028,21.102,50.969
            l-18.943,18.943c-3.905,3.905-3.905,10.237,0,14.143l56.294,56.294c3.906,3.904,10.236,3.904,14.143,0l18.943-18.943
            c15.939,9.404,33.024,16.478,50.968,21.101v26.749c0,2.653,1.054,5.197,2.931,7.072c1.875,1.875,4.418,2.928,7.069,2.928
            c0.001,0,0.003,0,0.003,0l79.612-0.029c5.521-0.002,9.996-4.479,9.996-10v-26.721c17.946-4.625,35.027-11.698,50.967-21.102
            l18.878,18.878c1.876,1.875,4.419,2.929,7.071,2.929h0.003c2.653,0,5.197-1.056,7.072-2.933l56.263-56.325
            c3.901-3.906,3.899-10.235-0.004-14.138l-18.848-18.849c9.403-15.939,16.477-33.022,21.1-50.966h26.59
            c2.652,0,5.197-1.054,7.072-2.93c1.876-1.876,2.929-4.421,2.928-7.074L484.958,243.114z"/>
        <path d="M356.611,182.799l-0.228-0.228c-3.924-3.888-10.254-3.861-14.144,0.062c-3.888,3.922-3.859,10.254,0.063,14.142
            l0.103,0.103c1.955,1.973,4.528,2.96,7.103,2.96c2.545,0,5.09-0.965,7.04-2.897C360.47,193.053,360.498,186.721,356.611,182.799z"
            />
        <path d="M502,40.015H377.997V10.015c0-5.523-4.478-10-10-10H144.003c-5.522,0-10,4.477-10,10v29.999H10c-5.522,0-10,4.477-10,10
            v39.999c0,5.523,4.478,10,10,10h124.004v6c0,2.79,1.145,5.31,2.987,7.124l70.183,70.183c1.461,1.46,3.328,2.414,5.334,2.768
            v37.906c0,3.519,1.85,6.779,4.871,8.584l28.628,17.106v38.337c0,18.746,15.251,33.995,33.995,33.995h24.003
            c7.718,0,13.996,6.279,13.996,13.996c0,7.717-6.278,13.996-13.996,13.996h-61.998c-18.745,0-33.995,15.25-33.995,33.995v11.229
            c-14.114-6.039-27.087-14.775-38.27-25.957c-23.042-23.041-35.732-53.679-35.732-86.265s12.69-63.222,35.732-86.265
            c3.905-3.905,3.905-10.237,0-14.142c-3.905-3.905-10.235-3.905-14.143,0c-26.819,26.819-41.59,62.478-41.59,100.406
            c0,37.929,14.771,73.587,41.59,100.406c26.819,26.82,62.477,41.59,100.406,41.59s73.587-14.771,100.406-41.59
            c45.265-45.265,54.643-115.605,22.804-171.057c-2.749-4.789-8.861-6.442-13.651-3.693c-4.789,2.75-6.442,8.862-3.692,13.651
            c27.35,47.635,19.289,108.065-19.603,146.956c-23.041,23.041-53.679,35.732-86.265,35.732c-9.548,0-18.924-1.098-27.995-3.217
            v-17.786c0-7.717,6.278-13.996,13.996-13.996h61.998c18.745,0,33.995-15.25,33.995-33.995c0-18.745-15.251-33.995-33.995-33.995
            h-24.003c-7.718,0-13.996-6.279-13.996-13.996v-38.337l28.628-17.106c3.021-1.805,4.871-5.065,4.871-8.584v-37.906
            c2.006-0.354,3.873-1.308,5.334-2.768l70.235-70.235c0.017-0.017,0.024-0.034,0.04-0.051c1.782-1.806,2.883-4.284,2.883-7.021v-6
            h124.003c5.522,0,10-4.477,10-10V50.014C512,44.491,507.522,40.015,502,40.015z M134.004,80.013H20v-20h114.004V80.013z
             M279.506,218.32l-23.499,14.042l-23.499-14.042v-32.071h46.999V218.32z M293.626,166.248h-4.12h-66.998h-4.12l-50.236-50.236
            h175.71L293.626,166.248z M357.998,96.013H154.003V68.014h116.17c5.522,0,10-4.477,10-10c0-5.523-4.478-10-10-10h-116.17V20.015
            h203.995V96.013z M492,80.013H377.997v-20H492V80.013z"/>
        <path d="M312.69,48.014h-0.148c-5.522,0-10,4.477-10,10c0,5.523,4.477,10,10,10h0.148c5.522,0,10-4.477,10-10
            C322.69,52.491,318.212,48.014,312.69,48.014z"/>
    </symbol>

    <symbol id="services06" role="img" aria-labelledby="services06_title" viewBox="0 0 512 512">
        <title id="services06_title"></title>
        <path d="M356,429c-5.52,0-10,4.48-10,10c0,5.52,4.48,10,10,10c5.52,0,10-4.48,10-10C366,433.48,361.52,429,356,429z"/>
        <path d="M156,429c-5.52,0-10,4.48-10,10c0,5.52,4.48,10,10,10s10-4.48,10-10C166,433.48,161.52,429,156,429z"/>
        <path d="M447.645,377.21c-11.257-17.424-26.726-31.269-44.847-40.21c-1.528-1.419-3.493-2.37-5.678-2.613
            C384.013,328.823,370.197,326,356,326h-30v-26.383c17.361-14.896,29.842-34.626,35.894-56.617H366c22.056,0,40-17.944,40-40
            c0-10.452-4.034-19.976-10.622-27.11c0.629-0.534,1.243-1.09,1.833-1.679C402.879,168.543,406,161.01,406,153
            c0-13.163-8.526-24.366-20.343-28.396c-3.533-45.984-35.806-85.28-80.241-97.596C302.783,13.256,291.434,0,276,0h-40
            c-15.434,0-26.783,13.256-29.416,27.008c-44.431,12.315-76.701,51.604-80.24,97.582c-4.302,1.459-8.247,3.892-11.555,7.199
            C109.121,137.457,106,144.99,106,153c0,9.163,4.134,17.375,10.63,22.882C110.038,183.016,106,192.544,106,203
            c0,22.056,17.944,40,40,40h4.078c5.052,18.357,14.631,35.21,27.994,49.131c2.511,2.618,5.173,5.112,7.928,7.478V326h-30
            c-14.198,0-28.014,2.823-41.12,8.386c-2.184,0.244-4.15,1.194-5.677,2.613c-18.123,8.942-33.591,22.787-44.848,40.21
            C52.347,395.796,46,417.163,46,439v63c0,5.522,4.477,10,10,10h400c5.523,0,10-4.478,10-10v-63
            C466,417.163,459.653,395.796,447.645,377.21z M106,492H66v-53c0-30.417,15.582-59.571,40-76.878V492z M366,223h-0.456
            c0.298-3.327,0.456-6.666,0.456-10v-30c11.028,0,20,8.972,20,20S377.028,223,366,223z M206,48.139V93c0,5.523,4.477,10,10,10
            s10-4.477,10-10V35.063c0-0.026,0-0.052,0-0.078V33c0-6.196,5.234-13,10-13h40c4.766,0,10,6.804,10,13v1.985
            c0,0.026,0,0.052,0,0.078V93c0,5.523,4.477,10,10,10s10-4.477,10-10V48.139c32.29,11.427,55.6,40.647,59.441,74.861H146.559
            C150.4,88.786,173.71,59.566,206,48.139z M146,223c-11.028,0-20-8.972-20-20s8.972-20,20-20v30c0,3.334,0.158,6.674,0.456,10H146z
             M146,163h-10c-5.514,0-10-4.486-10-10c0-2.668,1.041-5.179,2.931-7.068c1.891-1.891,4.401-2.932,7.069-2.932h240
            c5.514,0,10,4.486,10,10c0,2.668-1.041,5.179-2.931,7.068c-1.89,1.891-4.401,2.932-7.069,2.932h-10h-10H156H146z M167.817,231.183
            c-0.02-0.109-0.039-0.217-0.063-0.324C166.593,224.99,166,218.983,166,213v-30h180v30c0,5.978-0.593,11.981-1.754,17.855
            c-0.024,0.108-0.043,0.217-0.063,0.326c-4.469,22.307-16.837,42.275-34.847,56.241C293.69,299.576,275.247,306,256,306
            s-37.69-6.424-53.351-18.589c-3.585-2.774-6.997-5.843-10.145-9.126C179.889,265.143,171.357,248.862,167.817,231.183z M246,492
            h-80v-23c0-5.523-4.477-10-10-10s-10,4.477-10,10v23h-20V351.474c6.49-2.447,13.176-4.078,20-4.882V409c0,5.523,4.477,10,10,10
            s10-4.477,10-10v-63h25.715L246,403V492z M206,332v-18.626C221.431,321.669,238.427,326,256,326c17.574,0,34.571-4.332,50-12.625
            V332l-50,52.5L206,332z M386,492h-20v-23c0-5.523-4.477-10-10-10s-10,4.477-10,10v23h-80v-89l54.285-57H346v63
            c0,5.523,4.477,10,10,10s10-4.477,10-10v-62.408c6.824,0.804,13.509,2.436,20,4.883V492z M446,492h-40V362.121
            c24.418,17.307,40,46.461,40,76.879V492z"/>
    </symbol>

    <symbol id="check" role="img" aria-labelledby="check_title" viewBox="0 0 459 459">
        <title id="check_title"></title>
        <path d="M124.9,181.1l-35.7,35.7L204,331.5l255-255l-35.7-35.7L204,260.1L124.9,181.1z M408,408H51V51h255V0H0v459h459V204h-51
            V408z"/>
    </symbol>

    <symbol id="footer-facebook" role="img" aria-labelledby="footer-facebook_title" viewBox="0 0 512 512">
        <title id="footer-facebook_title">Facebook</title>
        <path d="M314.829,135.492h70.595c11.423,0,20.682-9.26,20.682-20.682V20.682C406.107,9.26,396.848,0,385.425,0h-70.595
            c-76.282,0-138.341,62.06-138.341,138.341v49.913h-49.913c-11.422,0-20.682,9.26-20.682,20.682v94.127
            c0,11.423,9.26,20.682,20.682,20.682h49.913v167.572c0,11.423,9.26,20.682,20.682,20.682h94.127
            c11.423,0,20.682-9.259,20.682-20.682V323.746h49.913c9.49,0,17.763-6.458,20.065-15.666l23.532-94.127
            c1.544-6.179,0.156-12.725-3.763-17.744c-3.919-5.02-9.932-7.954-16.301-7.954H311.98v-49.913
            C311.98,136.77,313.258,135.492,314.829,135.492z M291.298,229.619h67.637l-13.191,52.763h-54.447
            c-11.423,0-20.682,9.259-20.682,20.682v167.572h-52.763V303.064c0-11.423-9.26-20.682-20.682-20.682h-49.913v-52.763h49.913
            c11.422,0,20.682-9.26,20.682-20.682v-70.595c0-53.473,43.503-96.977,96.977-96.977h49.913v52.763h-49.913
            c-24.38,0-44.214,19.835-44.214,44.214v70.595C270.615,220.359,279.875,229.619,291.298,229.619z"/>
    </symbol>

    <symbol id="footer-twitter" role="img" aria-labelledby="footer-twitter_title" viewBox="0 0 512 512">
        <title id="footer-twitter_title">Twitter</title>
        <path d="M502.954,47.189c-7.126-4.852-16.515-4.774-23.559,0.196c-15.351,10.828-31.974,19.528-49.557,25.948
            c-19.253-17.414-43.615-27.826-69.915-29.656c-31.056-2.16-61.081,7.9-84.561,28.326c-25.59,22.259-40.174,54.444-40.046,88.349
            c-85.248-7.609-139.14-61.55-177.09-108.986c-4.598-5.746-11.901-8.619-19.182-7.538c-7.279,1.078-13.438,5.944-16.171,12.777
            c-0.948,2.369-23.141,58.799-17.453,127.057c4.761,57.133,30.23,131.964,120.039,181.717
            c-32.436,14.756-68.282,21.939-103.953,20.519c-9.576-0.378-18.15,5.859-20.736,15.08c-2.587,9.221,1.497,19.013,9.869,23.665
            c51.359,28.532,108.03,43.736,163.889,43.965c0.432,0.002,0.861,0.003,1.294,0.003c54.105-0.001,106.379-13.938,151.246-40.336
            c42.898-25.241,78.416-61.759,102.715-105.603c26.162-47.206,39.427-101.75,39.427-162.186c-0.011-3.544-0.186-7.098-0.52-10.638
            c20.7-22.885,35.388-50.567,42.719-80.667C513.451,60.803,510.081,52.04,502.954,47.189z M432.297,128.07
            c-4.916,4.847-7.088,11.827-5.793,18.607c0.877,4.588,1.329,9.278,1.344,13.874c0,101.956-44.378,186.544-121.756,232.072
            c-60.586,35.649-133.037,43.933-203.609,25.057c0.729-0.201,1.459-0.407,2.185-0.615c27.596-7.885,53.63-20.055,77.377-36.174
            c6.329-4.296,9.77-11.734,8.946-19.34c-0.825-7.605-5.778-14.134-12.881-16.975C97.757,312.434,53.563,257.594,46.757,181.575
            c-2.536-28.334,0.707-54.721,4.766-74.501c16.638,17.909,37.384,37.227,62.129,53.407c42.771,27.966,90.663,42.146,142.346,42.146
            c11.423,0,20.682-9.26,20.682-20.682v-21.393c0-0.045,0-0.091,0-0.137c-0.146-21.948,9.268-42.797,25.829-57.202
            c15.146-13.175,34.51-19.665,54.543-18.27c20.026,1.393,38.311,10.502,51.487,25.648c5.339,6.138,13.783,8.577,21.567,6.229
            c5.725-1.724,11.375-3.645,16.941-5.757C442.599,117.081,437.672,122.769,432.297,128.07z"/>
    </symbol>    

    <symbol id="footer-linkedin" role="img" aria-labelledby="footer-linkedin_title" viewBox="0 0 512 512">
        <title id="footer-linkedin_title">Linkedin</title>
        <path d="M2.5,510V153.7h137.3V510H2.5z M102.5,472.7V191H39.8v281.7H102.5z"/>
        <path d="M375.4,510l0.1-158.1c0.5-23.6-8.8-42.9-24.9-51.7c-5.4-3-11.2-4.5-17.3-4.5c-5.2,0-10.4,1.1-15.5,3.3l-1.1,211H176.1
            V153.7h140.6V166c16.6-6,33.6-9.1,50.6-9.1c24.7,0,48.3,6.4,70.2,18.9c44,25.2,72.5,71.8,72.5,118.8V510H375.4z M472.7,472.7V294.6
            c0-33.8-21.1-67.7-53.7-86.4c-15.9-9.1-33.8-13.9-51.7-14h-0.3c-20.1,0-40.1,5.8-59.6,17.3L279.4,228V191h-66.1v281.7h66.2l1-194.7
            l8.2-5.5c13.7-9.2,29.1-14.1,44.5-14.1c12.4,0,24.2,3,35.1,9c13.7,7.5,25,19.2,32.8,33.8c7.9,14.9,11.9,32.6,11.5,51.1l0,120.3
            H472.7z"/>
        <path d="M70.9,139.9C32.9,139.9,2,109,2,71c0-38,30.9-69,68.9-69c38,0,68.9,30.9,68.9,69C139.8,109,108.9,139.9,70.9,139.9z
             M70.9,39.3c-17.4,0-31.6,14.2-31.6,31.7c0,17.5,14.2,31.7,31.6,31.7c17.4,0,31.6-14.2,31.6-31.7C102.5,53.5,88.3,39.3,70.9,39.3z"
            />
    </symbol>

    <symbol id="footer-instagram" role="img" aria-labelledby="footer-instagram_title" viewBox="0 0 512 512">
        <title id="footer-instagram_title">Instagram</title>
        <path d="M373.659,0H138.341C62.06,0,0,62.06,0,138.341v235.318C0,449.94,62.06,512,138.341,512h235.318
            C449.94,512,512,449.94,512,373.659V138.341C512,62.06,449.94,0,373.659,0z M470.636,373.659
            c0,53.473-43.503,96.977-96.977,96.977H138.341c-53.473,0-96.977-43.503-96.977-96.977V138.341
            c0-53.473,43.503-96.977,96.977-96.977h235.318c53.473,0,96.977,43.503,96.977,96.977V373.659z"/>
        <path d="M370.586,238.141c-3.64-24.547-14.839-46.795-32.386-64.342c-17.547-17.546-39.795-28.746-64.341-32.385
            c-11.176-1.657-22.507-1.657-33.682,0c-30.336,4.499-57.103,20.541-75.372,45.172c-18.269,24.631-25.854,54.903-21.355,85.237
            c4.499,30.335,20.541,57.102,45.172,75.372c19.996,14.831,43.706,22.619,68.153,22.619c5.667,0,11.375-0.418,17.083-1.265
            c30.336-4.499,57.103-20.541,75.372-45.172C367.5,298.747,375.085,268.476,370.586,238.141z M267.791,327.632
            c-19.405,2.882-38.77-1.973-54.527-13.66c-15.757-11.687-26.019-28.811-28.896-48.216c-2.878-19.405,1.973-38.77,13.66-54.527
            c11.688-15.757,28.811-26.019,48.217-28.897c3.574-0.53,7.173-0.795,10.772-0.795s7.199,0.265,10.773,0.796
            c32.231,4.779,57.098,29.645,61.878,61.877C335.608,284.268,307.851,321.692,267.791,327.632z"/>
        <path d="M400.049,111.951c-3.852-3.851-9.183-6.058-14.625-6.058c-5.442,0-10.773,2.206-14.625,6.058
            c-3.851,3.852-6.058,9.174-6.058,14.625c0,5.451,2.207,10.773,6.058,14.625c3.852,3.851,9.183,6.058,14.625,6.058
            c5.442,0,10.773-2.206,14.625-6.058c3.851-3.852,6.058-9.183,6.058-14.625C406.107,121.133,403.9,115.802,400.049,111.951z"/>
    </symbol>

    <symbol id="footer-phone" role="img" aria-labelledby="footer-phone_title" viewBox="0 0 512 512">
        <title id="footer-phone_title"></title>
        <path d="M421.216,195.504c-5.092-26.101-17.723-49.836-36.526-68.64c-18.804-18.803-42.54-31.434-68.641-36.527
			c-11.21-2.189-22.073,5.128-24.261,16.339c-2.187,11.212,5.128,22.073,16.339,24.26c36.847,7.188,65.3,35.642,72.489,72.489
			c1.927,9.874,10.581,16.726,20.278,16.726c1.313,0,2.645-0.125,3.984-0.387C416.088,217.577,423.403,206.715,421.216,195.504z"/>
		<path d="M511.422,196.929c-5.629-50.096-28.373-97.304-64.042-132.927C411.712,28.378,364.475,5.694,314.371,0.128
			c-11.355-1.261-21.578,6.92-22.839,18.272c-1.261,11.353,6.919,21.578,18.272,22.84c84.961,9.438,150.966,75.36,160.512,160.31
			c1.188,10.566,10.139,18.374,20.527,18.374c0.771,0,1.552-0.043,2.336-0.131C504.53,218.516,512.698,208.281,511.422,196.929z"/>
		<path d="M432.59,312.566c-0.062-0.008-0.124-0.017-0.186-0.025c-20.013-2.639-39.751-7.557-58.619-14.596
			c-23.91-8.99-51.103-3.191-69.27,14.772c-0.028,0.028-0.056,0.055-0.083,0.083l-17.148,17.148
			c-42.633-26.924-78.756-63.047-105.679-105.679l17.149-17.149c0.027-0.028,0.054-0.055,0.082-0.083
			c17.964-18.166,23.762-45.356,14.79-69.223c-7.057-18.914-11.974-38.653-14.614-58.666c-0.007-0.063-0.017-0.127-0.026-0.19
			c-4.591-32.478-32.782-56.734-65.548-56.467H66.053c-1.943,0.002-3.912,0.091-5.853,0.267
			C24.143,26.016-2.541,58.001,0.718,94.058c0.01,0.108,0.02,0.215,0.032,0.323c7.684,72.354,32.649,142.88,72.197,203.955
			c35.892,56.461,84.701,105.269,141.162,141.164c60.792,39.406,130.99,64.369,203.013,72.196c0.127,0.015,0.254,0.027,0.38,0.038
			c1.961,0.176,3.949,0.266,5.921,0.266c0.083,0,0.165,0,0.247,0.001c36.204-0.148,65.538-29.722,65.391-65.841v-67.233
			C489.746,345.714,465.515,317.211,432.59,312.566z M447.698,378.695v67.548c0.055,13.396-10.8,24.338-24.19,24.393
			c-0.715-0.004-1.425-0.027-2.135-0.086c-65.578-7.161-129.488-29.914-184.837-65.808c-0.053-0.035-0.107-0.069-0.161-0.103
			c-51.429-32.68-95.885-77.137-128.565-128.565c-0.032-0.051-0.064-0.101-0.097-0.153C71.683,220.306,48.928,156.086,41.902,90.193
			C40.779,76.91,50.63,65.155,63.923,63.954c0.717-0.064,1.443-0.098,2.145-0.098h67.463c0.146-0.001,0.294-0.003,0.443-0.002
			c12.021,0,22.322,8.905,24.044,20.819c3.05,23.063,8.721,45.806,16.871,67.649c3.319,8.832,1.189,18.869-5.427,25.591
			l-28.517,28.517c-6.583,6.582-7.956,16.753-3.354,24.847c33.837,59.508,83.177,108.847,142.685,142.685
			c8.094,4.6,18.264,3.23,24.848-3.355l28.512-28.512c6.72-6.621,16.765-8.752,25.642-5.415
			c21.799,8.134,44.547,13.805,67.61,16.855c12.18,1.757,21.122,12.339,20.816,24.647
			C447.7,378.353,447.698,378.524,447.698,378.695z"/>
    </symbol>    

	<symbol id="footer-mail" role="img" aria-labelledby="footer-mail_title" viewBox="0 0 512 512">
        <title id="footer-mail_title"></title>
        <path d="M256,141.176c-63.306,0-114.809,51.503-114.809,114.809S192.694,370.795,256,370.795s114.809-51.503,114.809-114.809
			S319.306,141.176,256,141.176z M256,329.43c-40.498,0-73.445-32.947-73.445-73.445c0-40.498,32.947-73.445,73.445-73.445
			c40.499,0,73.445,32.947,73.445,73.445C329.445,296.483,296.499,329.43,256,329.43z"/>
		<path d="M437.008,74.97C388.656,26.623,324.375,0,256,0c-0.005,0-0.013,0-0.017,0C187.603,0.004,123.318,26.637,74.97,74.992
			C26.62,123.347-0.005,187.637,0,256.017c0.004,68.379,26.637,132.666,74.992,181.014C123.344,485.377,187.625,512.001,256,512
			c0.004,0,0.012,0,0.017,0c55.945-0.004,111.216-18.738,155.631-52.752c9.07-6.945,10.792-19.927,3.846-28.995
			c-6.945-9.069-19.926-10.794-28.995-3.846c-37.24,28.518-83.58,44.224-130.486,44.228c-0.006,0-0.006,0-0.014,0
			c-57.324,0-111.224-22.324-151.761-62.856c-40.542-40.536-62.871-94.435-62.875-151.766
			C41.357,137.663,137.636,41.372,255.986,41.364c0.007,0,0.006,0,0.014,0c118.34,0,214.628,96.279,214.636,214.622v23.532
			c0,27.523-22.39,49.913-49.913,49.913c-27.523,0-49.913-22.391-49.913-49.913v-23.532c0-11.422-9.259-20.682-20.682-20.682
			s-20.682,9.26-20.682,20.682v23.532c0,50.33,40.947,91.278,91.278,91.278S512,329.848,512,279.518v-23.534
			C511.995,187.604,485.362,123.318,437.008,74.97z"/>
    </symbol>

    <symbol id="footer-location" role="img" aria-labelledby="footer-location_title" viewBox="0 0 512 512">
        <title id="footer-location_title"></title>
        <path d="M406.766,62.449C366.495,22.178,312.951,0,256,0S145.505,22.178,105.234,62.449
			c-40.272,40.271-62.449,93.814-62.449,150.766c0,37.656,10.972,76.863,32.609,116.532c16.825,30.846,40.15,62.102,69.326,92.898
			c49.17,51.903,97.763,84.519,99.808,85.881C248.001,510.842,252,512,256,512c4,0,7.999-1.158,11.473-3.474
			c2.045-1.363,50.638-33.978,99.808-85.881c29.176-30.795,52.501-62.051,69.326-92.898c21.637-39.669,32.609-78.876,32.609-116.532
			C469.215,156.263,447.038,102.72,406.766,62.449z M256.001,465.903C215.826,436.156,84.15,329.739,84.15,213.215
			c0-94.759,77.091-171.851,171.85-171.851s171.85,77.092,171.851,171.851C427.851,329.748,296.159,436.168,256.001,465.903z"/>
		<path d="M256,128.355c-46.791,0-84.86,38.068-84.86,84.86c0,46.791,38.068,84.86,84.86,84.86c46.792,0,84.861-38.068,84.86-84.86
			C340.86,166.423,302.791,128.355,256,128.355z M256,256.71c-23.983,0-43.495-19.512-43.495-43.495
			c0-23.983,19.512-43.495,43.495-43.495c23.984,0,43.495,19.512,43.495,43.495C299.495,237.198,279.984,256.71,256,256.71z"/>
		</symbol>

	<symbol id="footer-time" role="img" aria-labelledby="footer-time_title" viewBox="0 0 512 512">
        <title id="footer-time_title"></title>
        <path d="M437.019,74.981C388.667,26.629,324.38,0,256,0S123.333,26.63,74.981,74.981S0,187.62,0,256
			s26.629,132.667,74.981,181.019C123.332,485.371,187.62,512,256,512s132.667-26.629,181.019-74.981
			C485.371,388.667,512,324.38,512,256S485.371,123.332,437.019,74.981z M256,470.636C137.65,470.636,41.364,374.35,41.364,256
			S137.65,41.364,256,41.364S470.636,137.65,470.636,256S374.35,470.636,256,470.636z"/>
		<path d="M341.221,311.97l-64.538-64.537V114.809c0-11.422-9.259-20.682-20.682-20.682c-11.422,0-20.682,9.26-20.682,20.682V256
			c0,5.486,2.179,10.746,6.058,14.625l70.594,70.595c4.038,4.039,9.332,6.058,14.625,6.058c5.293,0,10.586-2.019,14.626-6.058
			C349.297,333.142,349.297,320.047,341.221,311.97z"/>
	</symbol>

</svg>