<svg xmlns="http://www.w3.org/2000/svg" xmlns:xlink="http://www.w3.org/1999/xlink">

    <symbol id="question" role="img" aria-labelledby="question_title" viewBox="0 0 512 512">
        <title id="question_title"></title>
        <path d="M213.5,437.6h85V512h-85V437.6z"/>
        <path d="M256,0C164.5,0,90.4,74.2,90.4,165.6h85c0-44.5,36.2-80.7,80.7-80.7s80.7,36.2,80.7,80.7s-36.2,80.7-80.7,80.7h-42.5V379h85
            v-53.2c70.9-18.8,123.1-83.3,123.1-160.1C421.6,74.2,347.5,0,256,0z"/>
    </symbol>

    <symbol id="home-play" role="img" aria-labelledby="home-play_title" viewBox="0 0 512 512">
        <title id="home-play_title"></title>
        <path d="M47.127,0v512l417.745-254.837L47.127,0z M87.172,71.676l301.06,185.333L87.172,440.664V71.676z"/>
    </symbol>

	<symbol id="services01" role="img" aria-labelledby="services01_title" viewBox="0 0 512 512">
        <title id="services01_title"></title>
        <path d="M461.85,0H50.151C22.601,0,0.188,22.414,0.188,49.963v357.738c0,27.55,22.414,49.963,49.963,49.963h31.977
            c5.519,0,9.993-4.474,9.993-9.993s-4.474-9.993-9.993-9.993H50.151c-16.53,0-29.978-13.448-29.978-29.978V91.882
            c0.33,0.033,0.664,0.051,1.002,0.051h470.651v315.769c0,16.53-13.448,29.978-29.978,29.978h-40.97
            c-5.519,0-9.993,4.474-9.993,9.993s4.474,9.993,9.993,9.993h40.97c27.55,0,49.963-22.414,49.963-49.963V49.963
            C511.813,22.414,489.4,0,461.85,0z M491.827,71.947H21.175c-0.339,0-0.673,0.018-1.003,0.051V49.963
            c0-16.53,13.448-29.978,29.978-29.978h411.698c16.53,0,29.978,13.448,29.978,29.978V71.947z"/>
        <path d="M447.86,35.974H222.089c-5.519,0-9.993,4.474-9.993,9.993c0,5.519,4.474,9.993,9.993,9.993h225.77
            c5.519,0,9.993-4.474,9.993-9.993C457.852,40.447,453.378,35.974,447.86,35.974z"/>
        <path d="M111.177,38.901c-1.86-1.859-4.438-2.928-7.065-2.928c-2.628,0-5.206,1.069-7.065,2.928s-2.928,4.437-2.928,7.065
            c0,2.628,1.069,5.206,2.928,7.065c1.859,1.859,4.437,2.928,7.065,2.928s5.206-1.069,7.065-2.928
            c1.859-1.859,2.928-4.437,2.928-7.065C114.104,43.338,113.035,40.76,111.177,38.901z"/>
        <path d="M71.206,38.901c-1.86-1.859-4.438-2.928-7.065-2.928c-2.628,0-5.206,1.069-7.065,2.928
            c-1.859,1.859-2.928,4.437-2.928,7.065c0,2.628,1.069,5.206,2.928,7.065c1.859,1.859,4.437,2.928,7.065,2.928
            c2.628,0,5.206-1.069,7.065-2.928c1.859-1.859,2.928-4.437,2.928-7.065C74.134,43.338,73.065,40.76,71.206,38.901z"/>
        <path d="M151.147,38.901c-1.86-1.859-4.438-2.928-7.065-2.928c-2.628,0-5.206,1.069-7.065,2.928s-2.928,4.437-2.928,7.065
            c0,2.628,1.069,5.206,2.928,7.065c1.859,1.859,4.437,2.928,7.065,2.928c2.628,0,5.206-1.069,7.065-2.928
            c1.859-1.859,2.928-4.437,2.928-7.065C154.075,43.338,153.006,40.76,151.147,38.901z"/>
        <path d="M321.963,307.245l-1.658-2.319c-0.386-0.54-0.823-1.039-1.308-1.492c-17.136-16.009-39.497-24.827-62.961-24.827
            c-50.865,0-92.246,41.382-92.246,92.246c0,5.519,4.474,9.993,9.993,9.993c5.519,0,9.993-4.474,9.993-9.993
            c0-39.845,32.416-72.261,72.261-72.261c15.847,0,31.051,5.134,43.544,14.585l-29.227,29.227c-5.766-2.901-12.372-4.02-19.1-3.041
            c-14.037,2.044-24.841,12.849-26.885,26.885c-1.667,11.446,2.701,22.563,11.683,29.738c5.759,4.601,12.745,6.974,19.942,6.974
            c4.075,0,8.219-0.761,12.245-2.31c7.992-3.076,14.341-9.424,17.416-17.417c3.469-9.011,2.985-18.61-1.144-26.724l36.388-36.388
            C324.355,316.666,324.804,311.22,321.963,307.245z M267.004,376.058c-1.05,2.727-3.216,4.893-5.943,5.943
            c-4.503,1.734-9.072,1.14-12.536-1.626c-3.376-2.697-5.013-6.9-4.381-11.243c0.759-5.215,4.774-9.23,9.99-9.99
            c0.616-0.09,1.228-0.134,1.834-0.134c3.67,0,7.095,1.617,9.409,4.515C268.145,366.985,268.738,371.555,267.004,376.058z"/>
        <path d="M371.893,290.78l2.539-2.537c11.282-11.282,11.282-29.639,0-40.921c-11.282-11.282-29.639-11.281-40.921,0l-3.627,3.627
            c-18.831-11.633-40.587-18.959-63.891-20.599v-8.78h4.247c14.739,0,26.73-11.991,26.73-26.73s-11.991-26.73-26.73-26.73H241.76
            c-14.739,0-26.73,11.991-26.73,26.73s11.991,26.73,26.73,26.73h4.247v8.78c-23.303,1.64-45.06,8.966-63.891,20.599l-3.627-3.627
            c-11.282-11.281-29.638-11.282-40.921,0c-11.282,11.282-11.282,29.639,0,40.921l2.537,2.537
            c-15.82,22.787-25.11,50.436-25.11,80.216c0,77.75,63.255,141.004,141.004,141.004s141.004-63.254,141.004-141.004
            C397.002,341.215,387.714,313.567,371.893,290.78z M347.643,261.455c3.489-3.49,9.168-3.49,12.657,0
            c3.49,3.489,3.49,9.167,0,12.657l-1.01,1.01c-4.064-4.376-8.401-8.495-12.986-12.327L347.643,261.455z M241.761,201.585
            c-3.72,0-6.745-3.026-6.745-6.745c0-3.719,3.026-6.745,6.745-6.745h28.479c3.719,0,6.745,3.026,6.745,6.745
            c0,3.719-3.026,6.745-6.745,6.745H241.761z M151.701,261.454c3.488-3.49,9.167-3.49,12.657,0l1.339,1.339
            c-4.585,3.832-8.92,7.951-12.986,12.327l-1.01-1.009C148.211,270.621,148.211,264.943,151.701,261.454z M256.001,492.015
            c-66.73,0-121.018-54.288-121.018-121.018s54.289-121.018,121.018-121.018s121.018,54.289,121.018,121.018
            S322.73,492.015,256.001,492.015z"/>
        <path d="M210.523,145.821l-15.074-15.074c-3.902-3.902-10.229-3.902-14.133,0c-3.295,3.295-3.796,8.314-1.527,12.147h-60.024
            c-5.518,0.001-9.992,4.475-9.992,9.994c0,5.519,4.474,9.993,9.993,9.993h60.024c-2.269,3.833-1.768,8.853,1.527,12.147
            c1.952,1.952,4.509,2.927,7.066,2.927s5.115-0.975,7.066-2.927l15.074-15.074C214.425,156.052,214.425,149.724,210.523,145.821z"
            />
        <path d="M80.462,142.895H64.141c-5.519,0-9.993,4.474-9.993,9.993c0,5.519,4.474,9.993,9.993,9.993h16.321
            c5.519,0,9.993-4.474,9.993-9.993C90.455,147.369,85.981,142.895,80.462,142.895z"/>
        <path d="M152.743,184.848H64.141c-5.519,0-9.993,4.474-9.993,9.993c0,5.519,4.474,9.993,9.993,9.993h88.602
            c5.519,0,9.993-4.474,9.993-9.993C162.736,189.321,158.262,184.848,152.743,184.848z"/>
        <path d="M469,145.821l-15.074-15.074c-3.902-3.902-10.229-3.902-14.133,0c-3.295,3.295-3.796,8.314-1.527,12.147h-75.179
            c-5.518,0.001-9.992,4.475-9.992,9.994c0,5.519,4.474,9.993,9.993,9.993h75.179c-2.269,3.833-1.768,8.853,1.527,12.147
            c1.952,1.952,4.509,2.927,7.066,2.927c2.557,0,5.115-0.975,7.066-2.927L469,159.954C472.902,156.052,472.902,149.724,469,145.821z
            "/>
        <path d="M329.686,145.823c-1.859-1.859-4.437-2.928-7.065-2.928c-2.638,0-5.206,1.069-7.065,2.928
            c-1.869,1.859-2.928,4.437-2.928,7.065c0,2.628,1.059,5.206,2.928,7.065c1.859,1.859,4.427,2.928,7.065,2.928
            c2.628,0,5.206-1.069,7.065-2.928c1.859-1.859,2.928-4.437,2.928-7.065C332.613,150.26,331.544,147.682,329.686,145.823z"/>
        <path d="M411.22,184.848h-88.602c-5.519,0-9.993,4.474-9.993,9.993c0,5.519,4.474,9.993,9.993,9.993h88.602
            c5.519,0,9.993-4.474,9.993-9.993C421.212,189.321,416.739,184.848,411.22,184.848z"/>
    </symbol>

    <symbol id="services02" role="img" aria-labelledby="services02_title" viewBox="0 0 512 512">
        <title id="services02_title"></title>
        <path d="M367.743,276.93c-1.86-1.86-4.44-2.93-7.07-2.93c-2.64,0-5.21,1.069-7.07,2.93c-1.87,1.86-2.93,4.44-2.93,7.07
            s1.06,5.2,2.93,7.069c1.86,1.86,4.431,2.931,7.07,2.931c2.63,0,5.21-1.07,7.07-2.931c1.859-1.859,2.93-4.439,2.93-7.069
            S369.603,278.789,367.743,276.93z"/>
        <path d="M415.533,101.065c-6.224,0-12.396,0.592-18.449,1.765c-8.023-27.499-24.355-52.276-46.706-70.577
            c-25.396-20.796-57.492-32.248-90.373-32.248c-29.436,0-57.7,8.889-81.737,25.706c-20.711,14.49-37.02,33.912-47.61,56.58
            c-6.916-2.171-14.12-3.268-21.518-3.268c-39.68,0-71.962,32.282-71.962,71.961c0,2.602,0.145,5.213,0.431,7.817
            C14.53,171.296,0.012,195.323,0.012,222.036c0,37.387,28.663,68.195,65.166,71.632v9.176c0,4.592,3.127,8.594,7.583,9.703
            l17.307,4.313l8.584,20.714l-9.183,15.277c-2.366,3.936-1.748,8.977,1.499,12.224l26.656,26.656
            c3.247,3.247,8.288,3.864,12.224,1.499l15.277-9.183l20.714,8.584l4.313,17.307c1.109,4.456,5.111,7.583,9.703,7.583h37.691
            c4.592,0,8.594-3.127,9.703-7.583l4.313-17.307l20.713-8.584l15.277,9.183c3.938,2.368,8.977,1.749,12.224-1.499l26.657-26.656
            c3.247-3.247,3.865-8.288,1.499-12.224l-9.184-15.277l8.585-20.714l17.307-4.313c4.456-1.109,7.583-5.111,7.583-9.703v-37.691
            c0-4.592-3.127-8.594-7.583-9.704l-17.307-4.311l-8.585-20.714l9.184-15.277c2.366-3.936,1.748-8.977-1.499-12.224l-26.657-26.657
            c-3.249-3.247-8.289-3.865-12.224-1.5l-15.277,9.184l-20.713-8.584l-4.313-17.307c-1.109-4.456-5.111-7.583-9.703-7.583h-37.691
            c-4.592,0-8.594,3.127-9.703,7.583l-4.313,17.307l-20.714,8.585l-15.277-9.184c-3.936-2.364-8.976-1.748-12.224,1.5
            l-26.656,26.656c-3.247,3.247-3.865,8.287-1.499,12.223l9.183,15.277l-8.584,20.714l-17.307,4.311
            c-4.456,1.11-7.583,5.112-7.583,9.704v8.388c-25.451-3.341-45.167-25.156-45.167-51.504c0-21.259,12.736-40.162,32.447-48.159
            c4.531-1.839,7.068-6.685,5.998-11.456c-0.849-3.782-1.279-7.629-1.279-11.437c0-28.652,23.31-51.962,51.963-51.962
            c7.909,0,15.499,1.729,22.56,5.139c2.518,1.216,5.43,1.322,8.03,0.293c2.6-1.03,4.649-3.101,5.653-5.711
            c18.099-47.097,64.161-78.739,114.622-78.739c54.68,0,102.964,36.81,117.949,88.673c-9.312,3.953-18.033,9.376-25.678,16.022
            c-4.249,3.693-8.2,7.784-11.744,12.16c-3.477,4.292-2.815,10.589,1.477,14.065c1.853,1.5,4.077,2.229,6.288,2.229
            c2.912,0,5.801-1.267,7.776-3.707c2.813-3.474,5.95-6.721,9.323-9.652c8.046-6.994,17.586-12.278,27.726-15.39
            c0.793-0.243,1.589-0.477,2.389-0.693c0.021-0.006,0.042-0.012,0.063-0.018c6.476-1.745,13.176-2.629,19.959-2.629
            c42.164,0,76.467,34.303,76.467,76.467c0,42.165-34.303,76.467-76.467,76.467H392.67c-5.522,0-10,4.478-10,10
            c0,5.522,4.478,10,10,10h22.863c53.192,0,96.467-43.275,96.467-96.467S468.725,101.065,415.533,101.065z M85.178,272.967
            l14.615-3.641c3.076-0.766,5.607-2.946,6.821-5.875l12.444-30.029c1.214-2.93,0.967-6.262-0.668-8.98l-7.755-12.902l15.606-15.606
            l12.901,7.756c2.719,1.634,6.051,1.883,8.98,0.667l30.028-12.445c2.929-1.214,5.109-3.745,5.875-6.821l3.642-14.616h22.063
            l3.642,14.616c0.767,3.076,2.945,5.607,5.875,6.821l30.027,12.445c2.929,1.214,6.263,0.965,8.98-0.667l12.902-7.756l15.606,15.606
            l-7.756,12.901c-1.635,2.718-1.882,6.051-0.668,8.981l12.445,30.028c1.214,2.93,3.745,5.109,6.821,5.875l14.615,3.641v22.063
            l-14.615,3.642c-3.077,0.766-5.607,2.946-6.821,5.875l-12.445,30.028c-1.214,2.93-0.967,6.262,0.668,8.98l7.756,12.901
            l-15.607,15.606l-12.902-7.756c-2.716-1.632-6.05-1.881-8.979-0.667l-30.027,12.444c-2.929,1.214-5.108,3.744-5.875,6.821
            l-3.642,14.615h-22.063l-3.642-14.615c-0.767-3.077-2.946-5.607-5.875-6.821l-30.028-12.444c-2.931-1.215-6.264-0.966-8.979,0.667
            l-12.902,7.756l-15.606-15.606l7.756-12.902c1.634-2.718,1.881-6.05,0.667-8.979l-12.444-30.028
            c-1.214-2.929-3.744-5.108-6.821-5.875l-14.615-3.642V272.967z"/>
        <path d="M198.216,94.032l13.851-13.85c3.907-3.906,3.907-10.237,0.001-14.142c-3.904-3.905-10.234-3.905-14.143,0l-20.922,20.92
            c-1.875,1.875-2.929,4.419-2.929,7.071c0,2.652,1.054,5.196,2.929,7.071l20.922,20.921c1.953,1.953,4.512,2.929,7.071,2.929
            c2.559,0,5.118-0.977,7.071-2.929c3.905-3.905,3.905-10.237,0-14.142L198.216,94.032z"/>
        <path d="M334.835,86.961l-20.922-20.92c-3.906-3.905-10.236-3.905-14.143,0c-3.905,3.905-3.905,10.237,0,14.142l13.851,13.85
            l-13.851,13.85c-3.904,3.905-3.904,10.237,0.001,14.142c1.953,1.953,4.512,2.929,7.071,2.929s5.118-0.977,7.071-2.929
            l20.922-20.921c1.875-1.875,2.929-4.419,2.929-7.071S336.71,88.836,334.835,86.961z"/>
        <path d="M278.214,60.278c-4.763-2.799-10.891-1.207-13.688,3.555l-29.539,50.266c-2.799,4.761-1.207,10.89,3.555,13.688
            c1.592,0.936,3.335,1.38,5.057,1.38c3.429,0,6.769-1.765,8.631-4.935l29.539-50.266C284.568,69.204,282.976,63.076,278.214,60.278
            z"/>
        <path d="M471.78,440.138l-11.741-10.604c0.148-1.884,0.223-3.774,0.223-5.659c0-1.885-0.074-3.775-0.223-5.659l11.741-10.604
            c3.501-3.163,4.315-8.343,1.953-12.428l-17.783-30.747c-2.359-4.079-7.248-5.959-11.73-4.509l-15.028,4.855
            c-3.118-2.149-6.394-4.043-9.805-5.67l-3.311-15.452c-0.988-4.611-5.063-7.905-9.778-7.905h-35.517
            c-4.716,0-8.79,3.294-9.778,7.905l-3.311,15.452c-3.411,1.627-6.687,3.521-9.805,5.67l-15.028-4.855
            c-4.482-1.45-9.371,0.43-11.73,4.509l-17.783,30.747c-2.362,4.085-1.548,9.265,1.953,12.428l11.741,10.604
            c-0.148,1.884-0.223,3.774-0.223,5.659s0.074,3.775,0.223,5.659l-11.741,10.604c-3.501,3.163-4.315,8.343-1.953,12.428
            l17.783,30.748c2.359,4.079,7.245,5.959,11.731,4.509l15.028-4.856c3.117,2.148,6.394,4.044,9.804,5.67l3.311,15.452
            c0.988,4.611,5.063,7.905,9.778,7.905h35.517c4.716,0,8.79-3.294,9.778-7.905l3.311-15.452c3.41-1.626,6.687-3.521,9.804-5.67
            l15.028,4.856c4.487,1.45,9.372-0.43,11.731-4.509l17.783-30.748C476.095,448.481,475.281,443.301,471.78,440.138z M439.635,415.8
            c0.417,2.656,0.628,5.374,0.628,8.076c0,2.702-0.211,5.42-0.628,8.076c-0.523,3.334,0.671,6.708,3.176,8.971l9.561,8.636
            l-9.688,16.751l-12.254-3.96c-3.216-1.038-6.74-0.384-9.368,1.744c-4.222,3.418-8.919,6.135-13.96,8.073
            c-3.153,1.213-5.481,3.936-6.189,7.239l-2.697,12.59h-19.348l-2.697-12.59c-0.708-3.304-3.036-6.026-6.189-7.239
            c-5.041-1.938-9.738-4.655-13.96-8.073c-2.628-2.129-6.153-2.784-9.368-1.744l-12.254,3.96l-9.688-16.751l9.561-8.636
            c2.505-2.263,3.699-5.637,3.176-8.971c-0.417-2.656-0.628-5.374-0.628-8.076c0-2.702,0.211-5.42,0.628-8.076
            c0.523-3.334-0.671-6.708-3.176-8.971l-9.561-8.635l9.688-16.752l12.255,3.96c3.218,1.039,6.74,0.385,9.367-1.744
            c4.222-3.418,8.919-6.135,13.96-8.073c3.153-1.213,5.481-3.936,6.189-7.239l2.697-12.59h19.348l2.697,12.59
            c0.708,3.304,3.036,6.026,6.189,7.239c5.041,1.938,9.738,4.655,13.96,8.073c2.626,2.128,6.153,2.782,9.367,1.744l12.255-3.96
            l9.688,16.752l-9.561,8.635C440.305,409.092,439.111,412.466,439.635,415.8z"/>
        <path d="M198.698,218.831c-35.934,0-65.167,29.234-65.167,65.167s29.234,65.167,65.167,65.167
            c35.934,0,65.168-29.233,65.168-65.167S234.632,218.831,198.698,218.831z M198.698,329.165c-24.905,0-45.168-20.263-45.168-45.168
            c0-24.905,20.263-45.168,45.168-45.168c24.906,0,45.169,20.263,45.169,45.168S223.605,329.165,198.698,329.165z"/>
        <path d="M48.519,395.996H10c-5.522,0-10,4.478-10,10c0,5.522,4.478,10,10,10h38.519c5.522,0,10-4.478,10-10
            C58.519,400.474,54.041,395.996,48.519,395.996z"/>
        <path d="M94,398.927c-1.86-1.86-4.44-2.93-7.07-2.93c-2.63,0-5.21,1.069-7.07,2.93c-1.859,1.86-2.93,4.44-2.93,7.07
            s1.07,5.21,2.93,7.069c1.86,1.86,4.44,2.931,7.07,2.931c2.63,0,5.21-1.07,7.07-2.931c1.859-1.859,2.93-4.439,2.93-7.069
            S95.86,400.787,94,398.927z"/>
        <path d="M289.068,491.983h-51.682c-5.522,0-10,4.478-10,10c0,5.522,4.478,10,10,10h51.682c5.522,0,10-4.478,10-10
            C299.068,496.461,294.591,491.983,289.068,491.983z"/>
        <path d="M197.513,491.996H10c-5.522,0-10,4.478-10,10c0,5.522,4.478,10,10,10h187.514c5.522,0,10-4.478,10-10
            C207.513,496.474,203.035,491.996,197.513,491.996z"/>
        <path d="M75.178,443.993H10c-5.522,0-10,4.478-10,10c0,5.522,4.478,10,10,10h65.178c5.522,0,10-4.478,10-10
            C85.178,448.47,80.7,443.993,75.178,443.993z"/>
        <path d="M256.006,443.993H123.201c-5.522,0-10,4.478-10,10c0,5.522,4.478,10,10,10h132.805c5.522,0,10-4.478,10-10
            C266.006,448.47,261.528,443.993,256.006,443.993z"/>
        <path d="M388.541,392.497c-17.303,0-31.379,14.077-31.379,31.379c0,17.303,14.077,31.379,31.379,31.379
            c17.303,0,31.379-14.077,31.379-31.379C419.92,406.573,405.843,392.497,388.541,392.497z M388.541,435.256
            c-6.274,0-11.38-5.105-11.38-11.38s5.105-11.38,11.38-11.38c6.275,0,11.38,5.105,11.38,11.38S394.815,435.256,388.541,435.256z"/>
        <path d="M461.668,187.292c-5.522,0-10,4.477-10,10c0,20.057-16.318,36.374-36.375,36.374c-5.522,0-10,4.477-10,10s4.478,10,10,10
            c31.085,0,56.375-25.289,56.375-56.374C471.668,191.768,467.19,187.292,461.668,187.292z"/>
    </symbol>

    <symbol id="services03" role="img" aria-labelledby="services03_title" viewBox="0 0 512 512">
        <title id="services03_title"></title>
        <path d="M412.39,36H204.824c-5.523,0-10,4.478-10,10s4.477,10,10,10H412.39c5.523,0,10-4.478,10-10S417.913,36,412.39,36z"/>
        <path d="M103.43,38.93c-1.86-1.86-4.44-2.93-7.07-2.93s-5.21,1.069-7.07,2.93c-1.86,1.86-2.93,4.44-2.93,7.07
            s1.07,5.21,2.93,7.069C91.15,54.93,93.73,56,96.36,56s5.21-1.07,7.07-2.931c1.86-1.859,2.93-4.439,2.93-7.069
            S105.29,40.79,103.43,38.93z"/>
        <path d="M66.68,38.93C64.82,37.07,62.25,36,59.61,36c-2.63,0-5.21,1.069-7.07,2.93c-1.86,1.86-2.93,4.44-2.93,7.07
            s1.07,5.21,2.93,7.069C54.4,54.93,56.98,56,59.61,56s5.21-1.07,7.07-2.931c1.86-1.859,2.93-4.439,2.93-7.069
            S68.54,40.79,66.68,38.93z"/>
        <path d="M140.18,38.93c-1.86-1.86-4.44-2.93-7.07-2.93c-2.64,0-5.21,1.069-7.07,2.93c-1.87,1.86-2.93,4.44-2.93,7.07
            s1.06,5.21,2.93,7.069C127.9,54.93,130.47,56,133.11,56c2.63,0,5.21-1.07,7.07-2.931c1.86-1.859,2.92-4.439,2.92-7.069
            S142.04,40.79,140.18,38.93z"/>
        <path d="M430,0H42C18.841,0,0,18.841,0,42v310c0,23.159,18.841,42,42,42h145.5c5.523,0,10-4.478,10-10c0-5.522-4.477-10-10-10H42
            c-12.131,0-22-9.869-22-22V91.995c0.037,0,0.073,0.005,0.109,0.005H452v112.005c0,5.522,4.477,10,10,10s10-4.478,10-10V42
            C472,18.841,453.159,0,430,0z M452,72H20.109c-0.037,0-0.073,0.005-0.109,0.005V42c0-12.131,9.869-22,22-22h388
            c12.131,0,22,9.869,22,22V72z"/>
        <path d="M232.88,376.93c-1.86-1.86-4.44-2.93-7.08-2.93c-2.63,0-5.21,1.069-7.07,2.93c-1.86,1.86-2.93,4.44-2.93,7.07
            s1.07,5.21,2.93,7.069c1.87,1.86,4.44,2.931,7.07,2.931c2.64,0,5.21-1.07,7.08-2.931c1.86-1.859,2.93-4.439,2.93-7.069
            S234.74,378.79,232.88,376.93z"/>
        <path d="M506.475,257.882l-119.96-60.025c-1.132-0.566-2.412-0.911-3.688-1.02c-0.002,0-0.005-0.001-0.007-0.001
            c-0.271-0.022-0.544-0.035-0.821-0.036c-0.005-0.001-0.012,0-0.017,0c-0.01,0-0.014,0-0.021,0c-0.007,0-0.01,0-0.021,0
            c-0.005,0-0.01,0-0.017,0c-1.666,0.007-3.237,0.42-4.616,1.146l-119.781,59.936c-3.387,1.695-5.525,5.157-5.525,8.943v114.507
            c0,48.946,31.159,74.406,64.832,94.629c30.003,18.018,59.988,34.623,60.287,34.789c1.482,0.82,3.227,1.25,4.92,1.25
            c1.693,0,3.359-0.43,4.841-1.25c0.299-0.166,30.284-16.771,60.288-34.789C480.841,455.738,512,430.278,512,381.332V266.825
            C512,263.039,509.861,259.577,506.475,257.882z M492,381.332c0,36.952-21.094,57.043-55.128,77.482
            c-22.629,13.59-45.258,26.374-54.872,31.758c-9.611-5.383-32.233-18.163-54.872-31.758C293.094,438.375,272,418.284,272,381.332
            V273.004l110-55.042l110,55.042V381.332z"/>
        <path d="M418.857,330.735c-3.905-3.904-10.237-3.904-14.142,0l-28.311,28.312l-10.62-10.62c-3.906-3.903-10.237-3.904-14.142,0
            c-3.905,3.905-3.906,10.237,0,14.143l17.691,17.691c1.875,1.875,4.419,2.929,7.071,2.929c2.652,0,5.196-1.054,7.071-2.929
            l35.382-35.383C422.762,340.973,422.762,334.641,418.857,330.735z"/>
        <path d="M382,280.4c-40.804,0-74,33.197-74,74c0,40.804,33.196,74,74,74s74-33.196,74-74C456,313.596,422.804,280.4,382,280.4z
             M382,408.4c-29.776,0-54-24.225-54-54c0-29.775,24.224-54,54-54s54,24.225,54,54C436,384.175,411.776,408.4,382,408.4z"/>
        <path d="M269.217,149.9l16.096-16.096c3.905-3.905,3.904-10.237-0.001-14.142c-3.905-3.904-10.237-3.904-14.142,0l-23.167,23.167
            c-1.875,1.876-2.929,4.419-2.929,7.071c0,2.652,1.054,5.196,2.929,7.071l23.167,23.166c1.953,1.952,4.512,2.929,7.071,2.929
            s5.119-0.977,7.071-2.929c3.905-3.905,3.905-10.237,0-14.143L269.217,149.9z"/>
        <path d="M424.795,142.83l-23.167-23.167c-3.906-3.903-10.237-3.903-14.142,0c-3.905,3.905-3.906,10.237,0,14.143l16.096,16.096
            l-16.095,16.095c-3.905,3.903-3.906,10.235-0.001,14.141c1.953,1.952,4.512,2.929,7.071,2.929s5.119-0.977,7.071-2.929
            l23.167-23.166c1.875-1.875,2.929-4.419,2.929-7.071S426.67,144.706,424.795,142.83z"/>
        <path d="M357.822,113.448c-4.763-2.8-10.89-1.207-13.689,3.555l-32.711,55.661c-2.798,4.762-1.207,10.89,3.555,13.688
            c1.592,0.936,3.336,1.381,5.058,1.381c3.429,0,6.768-1.766,8.631-4.936l32.711-55.661
            C364.175,122.374,362.584,116.246,357.822,113.448z"/>
        <path d="M92.784,250.003H69.462c-5.523,0-10,4.478-10,10c0,5.522,4.477,10,10,10h23.322c5.523,0,10-4.478,10-10
            C102.784,254.481,98.307,250.003,92.784,250.003z"/>
        <path d="M225.805,250.003h-95.271c-5.523,0-10,4.478-10,10c0,5.522,4.477,10,10,10h95.271c5.523,0,10-4.478,10-10
            C235.805,254.481,231.328,250.003,225.805,250.003z"/>
        <path d="M169.06,306H69.462c-5.523,0-10,4.478-10,10c0,5.522,4.477,10,10,10h99.598c5.523,0,10-4.478,10-10
            C179.06,310.478,174.583,306,169.06,306z"/>
        <path d="M225.805,306h-16.383c-5.523,0-10,4.478-10,10c0,5.522,4.477,10,10,10h16.383c5.523,0,10-4.478,10-10
            C235.805,310.478,231.328,306,225.805,306z"/>
        <path d="M204.855,138.015h-31.228c-5.523,0-10,4.478-10,10c0,5.522,4.477,10,10,10h31.228c5.523,0,10-4.478,10-10
            C214.855,142.493,210.378,138.015,204.855,138.015z"/>
        <path d="M130.28,138H69.462c-5.523,0-10,4.478-10,10c0,5.522,4.477,10,10,10h60.818c5.523,0,10-4.478,10-10
            C140.28,142.478,135.803,138,130.28,138z"/>
        <path d="M99.871,194.005H69.462c-5.523,0-10,4.478-10,10c0,5.522,4.477,10,10,10h30.409c5.523,0,10-4.478,10-10
            C109.871,198.483,105.394,194.005,99.871,194.005z"/>
        <path d="M238.555,194.005h-70.888c-5.523,0-10,4.478-10,10c0,5.522,4.477,10,10,10h70.888c5.523,0,10-4.478,10-10
            C248.555,198.483,244.078,194.005,238.555,194.005z"/>
        <path d="M141.3,196.93c-1.86-1.861-4.44-2.92-7.07-2.92s-5.21,1.06-7.07,2.92c-1.86,1.87-2.93,4.44-2.93,7.08
            c0,2.63,1.07,5.2,2.93,7.06c1.86,1.87,4.44,2.94,7.07,2.94s5.21-1.07,7.07-2.94c1.86-1.859,2.93-4.43,2.93-7.06
            C144.23,201.37,143.16,198.8,141.3,196.93z"/>
    </symbol>

    <symbol id="services04" role="img" aria-labelledby="services04_title" viewBox="0 0 512 512">
        <title id="services04_title"></title>
        <path d="M450.372,222.019l-29.615-7.379l-15.484-37.364l15.716-26.145c2.366-3.936,1.748-8.977-1.499-12.224L378.05,97.469
            c-3.249-3.247-8.289-3.864-12.224-1.499l-26.145,15.716l-37.364-15.484l-7.379-29.615c-1.109-4.455-5.111-7.582-9.703-7.582
            h-58.59c-4.592,0-8.594,3.127-9.703,7.582l-7.379,29.615L172.2,111.686L146.055,95.97c-3.935-2.365-8.978-1.748-12.224,1.499
            l-41.438,41.438c-3.247,3.247-3.865,8.288-1.499,12.224l15.716,26.145L91.125,214.64l-29.615,7.379
            c-4.456,1.109-7.583,5.111-7.583,9.703v58.591c0,4.592,3.127,8.594,7.583,9.703l29.615,7.379l15.484,37.363l-15.716,26.145
            c-2.366,3.936-1.748,8.977,1.499,12.224l41.438,41.438c3.248,3.247,8.289,3.865,12.224,1.499l26.145-15.716l17.938,7.434
            c0.116,2.048,0.182,4.106,0.182,6.176v1.417v53.482c0,18.275,14.868,33.144,33.144,33.144h65.182
            c18.275,0,33.144-14.868,33.144-33.144v-53.482v-1.415c0-2.099,0.071-4.192,0.197-6.277l17.696-7.334l26.145,15.716
            c1.599,0.962,3.38,1.43,5.149,1.43c2.586,0,5.146-1.001,7.074-2.929l41.438-41.438c3.247-3.247,3.865-8.288,1.499-12.224
            l-15.716-26.145l15.484-37.363l29.615-7.379c4.456-1.109,7.583-5.111,7.583-9.703v-58.591
            C457.955,227.13,454.828,223.128,450.372,222.019z M288.644,492h-65.182c-7.247,0-13.144-5.896-13.144-13.144V472h33.121
            c5.522,0,10-4.478,10-10c0-5.522-4.478-10-10-10h-33.121v-16.626h91.469v43.482h0.001C301.789,486.103,295.893,492,288.644,492z
             M302.086,415.374h-92.05c-1.953-29.413-13.928-56.808-34.213-77.898c-20.829-21.654-31.85-50.154-31.031-80.25
            c1.611-59.238,51.162-107.773,110.457-108.192c0.271-0.002,0.54-0.003,0.81-0.003c29.589,0,57.411,11.46,78.42,32.321
            c21.204,21.055,32.881,49.104,32.881,78.983c0,28.536-10.786,55.671-30.372,76.405
            C316.313,358.628,304.099,386.275,302.086,415.374z M437.956,282.498h-0.001l-26.924,6.708c-3.077,0.767-5.607,2.946-6.821,5.875
            l-19.345,46.679c-1.214,2.93-0.967,6.262,0.668,8.98l14.288,23.769l-30.388,30.388l-23.769-14.288
            c-2.717-1.633-6.049-1.882-8.981-0.668l-10.591,4.389c4.769-16.107,13.405-31.121,25.434-43.855
            c23.107-24.464,35.833-56.476,35.833-90.14c0-35.248-13.775-68.338-38.788-93.175c-25.011-24.835-58.163-38.402-93.463-38.127
            c-34.081,0.241-66.348,13.593-90.856,37.595c-24.515,24.009-38.525,55.99-39.452,90.055
            c-0.966,35.494,12.036,69.111,36.609,94.658c11.768,12.235,20.194,27.023,24.812,43.168l-11.023-4.568
            c-2.931-1.215-6.263-0.966-8.98,0.668l-23.769,14.288l-30.388-30.388l14.288-23.769c1.635-2.719,1.882-6.051,0.668-8.98
            l-19.345-46.679c-1.214-2.929-3.744-5.108-6.821-5.875l-26.924-6.708v-42.962l26.924-6.708c3.077-0.767,5.607-2.946,6.821-5.875
            l19.345-46.68c1.214-2.93,0.967-6.262-0.668-8.98l-14.288-23.769l30.388-30.388l23.769,14.288c2.718,1.634,6.051,1.883,8.98,0.668
            l46.68-19.345c2.929-1.214,5.108-3.744,5.875-6.82l6.708-26.924h42.961l6.708,26.924c0.767,3.076,2.946,5.606,5.875,6.82
            l46.68,19.345c2.93,1.214,6.262,0.966,8.98-0.668l23.769-14.288l30.388,30.388l-14.288,23.769
            c-1.635,2.719-1.882,6.051-0.668,8.98l19.345,46.68c1.214,2.929,3.744,5.108,6.821,5.875l26.924,6.708V282.498z"/>
        <path d="M209.951,250.27c-1.86-1.871-4.44-2.93-7.07-2.93s-5.21,1.06-7.069,2.93c-1.86,1.86-2.931,4.431-2.931,7.07
            c0,2.63,1.07,5.21,2.931,7.07c1.859,1.859,4.439,2.93,7.069,2.93s5.21-1.07,7.07-2.93c1.86-1.87,2.93-4.44,2.93-7.07
            S211.812,252.13,209.951,250.27z"/>
        <path d="M263.01,250.27c-1.859-1.871-4.439-2.93-7.069-2.93s-5.21,1.06-7.07,2.93c-1.86,1.86-2.93,4.44-2.93,7.07
            s1.069,5.21,2.93,7.07c1.86,1.859,4.44,2.93,7.07,2.93s5.21-1.07,7.069-2.93c1.86-1.86,2.931-4.44,2.931-7.07
            S264.87,252.13,263.01,250.27z"/>
        <path d="M316.07,250.27c-1.86-1.871-4.44-2.93-7.07-2.93s-5.21,1.06-7.069,2.93c-1.86,1.851-2.931,4.431-2.931,7.07
            c0,2.63,1.07,5.21,2.931,7.07c1.859,1.859,4.439,2.93,7.069,2.93s5.21-1.07,7.07-2.93c1.86-1.87,2.93-4.44,2.93-7.07
            S317.932,252.13,316.07,250.27z"/>
        <path d="M255.94,0c-5.522,0-10,4.478-10,10v24.487c0,5.523,4.478,10,10,10c5.522,0,10-4.478,10-10V10
            C265.94,4.478,261.463,0,255.94,0z"/>
        <path d="M98.164,84.079L66.164,52.081c-3.906-3.904-10.236-3.904-14.143,0c-3.905,3.905-3.905,10.237,0,14.143l31.999,31.999
            c1.954,1.952,4.512,2.928,7.072,2.928s5.118-0.977,7.071-2.929C102.068,94.317,102.068,87.985,98.164,84.079z"/>
        <path d="M459.979,51.962c-3.906-3.904-10.236-3.904-14.143,0l-32,32c-3.905,3.905-3.905,10.237,0,14.143
            c1.953,1.952,4.512,2.929,7.071,2.929s5.118-0.977,7.071-2.929l32-32C463.885,62.199,463.885,55.867,459.979,51.962z"/>
        <path d="M284.51,454.93c-1.859-1.86-4.439-2.93-7.069-2.93s-5.21,1.069-7.07,2.93c-1.86,1.861-2.93,4.44-2.93,7.07
            s1.069,5.21,2.93,7.069c1.86,1.861,4.441,2.931,7.07,2.931c2.63,0,5.21-1.07,7.069-2.931c1.86-1.859,2.931-4.439,2.931-7.069
            S286.37,456.79,284.51,454.93z"/>
        <path d="M255.569,166c-0.025,0-0.052,0-0.077,0l-0.389,0.002c-5.522,0.042-9.966,4.553-9.925,10.075
            c0.042,5.497,4.51,9.925,9.998,9.925c0.025,0,0.052,0,0.077,0l0.389-0.002c5.522-0.042,9.966-4.553,9.925-10.075
            C265.526,170.428,261.057,166,255.569,166z"/>
        <path d="M340.938,219.69c-9.921-20.751-27.027-37.145-48.168-46.162c-5.082-2.167-10.955,0.194-13.122,5.274
            c-2.167,5.08,0.194,10.955,5.274,13.122c16.665,7.108,30.15,20.032,37.973,36.393c1.717,3.591,5.297,5.688,9.028,5.688
            c1.446,0,2.915-0.314,4.307-0.98C341.214,230.644,343.322,224.673,340.938,219.69z"/>
    </symbol>

    <symbol id="services05" role="img" aria-labelledby="services05_title" viewBox="0 0 512 512">
        <title id="services05_title"></title>
        <path d="M477.083,440.502c19.253,0,34.917-15.664,34.917-34.918V50c0-27.57-22.43-50-50-50H50C22.43,0,0,22.43,0,50v355.584
            c0,19.254,15.664,34.918,34.917,34.918H46V492H10c-5.523,0-10,4.478-10,10c0,5.522,4.477,10,10,10h492c5.523,0,10-4.478,10-10
            c0-5.522-4.477-10-10-10h-36v-51.498H477.083z M20,50c0-16.542,13.458-30,30-30h412c16.542,0,30,13.458,30,30v22H21.004
            c-0.339,0-0.674,0.018-1.004,0.051V50z M110,492H66v-90h44V492z M222,492h-44V291.432h44V492z M334,492h-44V376h44V492z
             M456,256.5h-64c-5.523,0-10,4.478-10,10v50.499c0,5.522,4.477,10,10,10s10-4.478,10-10V276.5h44V492h-44V384.25
            c0-5.522-4.477-10-10-10s-10,4.478-10,10V492h-28V366c0-5.522-4.477-10-10-10h-64c-5.523,0-10,4.478-10,10v126h-28V281.432
            c0-5.522-4.477-10-10-10h-64c-5.523,0-10,4.478-10,10V492h-28V392c0-5.522-4.477-10-10-10H56c-5.523,0-10,4.478-10,10v28.502
            H34.917c-8.226,0-14.917-6.692-14.917-14.918V91.949C20.33,91.982,20.665,92,21.004,92H492v313.584
            c0,8.226-6.692,14.918-14.917,14.918H466V266.5C466,260.978,461.523,256.5,456,256.5z"/>
        <path d="M448,36H222.065c-5.523,0-10,4.478-10,10s4.477,10,10,10H448c5.523,0,10-4.478,10-10S453.523,36,448,36z"/>
        <path d="M111.07,38.93C109.21,37.07,106.63,36,104,36s-5.21,1.069-7.07,2.93C95.07,40.79,94,43.37,94,46s1.07,5.21,2.93,7.069
            C98.79,54.93,101.37,56,104,56s5.21-1.07,7.07-2.931C112.93,51.21,114,48.63,114,46S112.93,40.79,111.07,38.93z"/>
        <path d="M71.07,38.93C69.21,37.07,66.63,36,64,36s-5.21,1.069-7.07,2.93C55.07,40.79,54,43.37,54,46s1.07,5.21,2.93,7.069
            C58.79,54.93,61.37,56,64,56s5.21-1.07,7.07-2.931C72.93,51.21,74,48.63,74,46S72.93,40.79,71.07,38.93z"/>
        <path d="M151.07,38.93C149.21,37.07,146.64,36,144,36c-2.63,0-5.21,1.069-7.07,2.93C135.07,40.79,134,43.37,134,46
            s1.07,5.21,2.93,7.069C138.79,54.93,141.37,56,144,56s5.21-1.07,7.07-2.931C152.93,51.21,154,48.63,154,46
            S152.93,40.79,151.07,38.93z"/>
        <path d="M399.07,345.57c-1.86-1.87-4.44-2.93-7.07-2.93s-5.21,1.061-7.07,2.93c-1.86,1.86-2.93,4.44-2.93,7.07
            s1.07,5.21,2.93,7.07c1.86,1.859,4.44,2.93,7.07,2.93s5.21-1.07,7.07-2.93s2.93-4.44,2.93-7.07
            C402,350,400.93,347.43,399.07,345.57z"/>
        <path d="M424,135.939c-19.851,0-36,16.149-36,36c0,7.885,2.555,15.181,6.871,21.118l-66.425,66.425
            c-5.155-2.853-11.077-4.483-17.375-4.483c-5.675,0-11.045,1.325-15.824,3.674l-69.359-69.359
            c2.853-5.155,4.483-11.077,4.483-17.375c0-19.851-16.149-36-36-36s-36,16.149-36,36c0,6.938,1.978,13.42,5.392,18.922
            l-59.053,59.052c-5.155-2.853-11.077-4.483-17.374-4.483c-19.851,0-36,16.149-36,36s16.149,36,36,36c19.851,0,36-16.149,36-36
            c0-6.298-1.63-12.22-4.483-17.375l59.758-59.758c4.763,2.329,10.111,3.641,15.76,3.641c6.297,0,12.219-1.63,17.374-4.483
            l68.68,68.679c-3.391,5.49-5.354,11.95-5.354,18.863c0,19.851,16.149,36,36,36s36-16.149,36-36c0-6.298-1.63-12.22-4.483-17.375
            l68.205-68.205c4.093,1.622,8.546,2.522,13.207,2.522c19.851,0,36-16.149,36-36C460,152.088,443.851,135.939,424,135.939z
             M87.337,297.432c-8.822,0-16-7.178-16-16c0-8.822,7.178-16,16-16c8.822,0,16,7.178,16,16
            C103.337,290.254,96.159,297.432,87.337,297.432z M194.372,187.939c-8.822,0-16-7.178-16-16c0-8.822,7.178-16,16-16
            s16,7.178,16,16C210.372,180.761,203.194,187.939,194.372,187.939z M311.072,306.999c-8.822,0-16-7.178-16-16
            c0-8.822,7.178-16,16-16c8.822,0,16,7.178,16,16C327.072,299.821,319.894,306.999,311.072,306.999z M424,187.939
            c-8.822,0-16-7.178-16-16c0-8.822,7.178-16,16-16c8.822,0,16,7.178,16,16C440,180.761,432.822,187.939,424,187.939z"/>
        <path d="M148.33,128.951c-1.87-1.86-4.44-2.931-7.07-2.931c-2.64,0-5.22,1.07-7.08,2.931c-1.86,1.859-2.92,4.439-2.92,7.069
            s1.06,5.21,2.92,7.07c1.87,1.86,4.44,2.93,7.08,2.93c2.63,0,5.2-1.069,7.07-2.93c1.86-1.86,2.93-4.44,2.93-7.07
            S150.19,130.81,148.33,128.951z"/>
        <path d="M104,126.021H56c-5.523,0-10,4.478-10,10c0,5.522,4.477,10,10,10h48c5.523,0,10-4.478,10-10
            C114,130.499,109.523,126.021,104,126.021z"/>
        <path d="M104,174.021H56c-5.523,0-10,4.478-10,10c0,5.522,4.477,10,10,10h48c5.523,0,10-4.478,10-10
            C114,178.499,109.523,174.021,104,174.021z"/>
    </symbol>

    <symbol id="services06" role="img" aria-labelledby="services06_title" viewBox="0 0 512 512">
        <title id="services06_title"></title>
        <path d="M504.417,208.764l-39.317-9.795l-20.923-50.488l20.865-34.711c2.366-3.935,1.748-8.976-1.499-12.223l-53.09-53.089
            c-3.248-3.247-8.289-3.865-12.224-1.5l-34.71,20.866L313.031,46.9l-9.796-39.317C302.126,3.127,298.124,0,293.532,0h-75.064
            c-4.592,0-8.594,3.127-9.703,7.583L198.969,46.9L148.48,67.823l-34.71-20.866c-3.936-2.366-8.978-1.748-12.224,1.5l-53.09,53.089
            c-3.247,3.247-3.865,8.288-1.499,12.223l20.865,34.711L46.9,198.969l-39.317,9.795C3.127,209.875,0,213.876,0,218.468v75.064
            c0,4.592,3.127,8.593,7.583,9.704l39.316,9.794l20.924,50.489L46.958,398.23c-2.366,3.935-1.748,8.976,1.499,12.223l53.09,53.089
            c3.248,3.247,8.289,3.864,12.224,1.5l34.71-20.866l50.488,20.924l9.796,39.317c1.109,4.456,5.111,7.583,9.703,7.583h75.064
            c4.592,0,8.594-3.127,9.703-7.583l9.796-39.317l50.488-20.924l34.71,20.866c3.934,2.364,8.976,1.747,12.224-1.5l53.09-53.089
            c3.247-3.247,3.865-8.288,1.499-12.223l-20.865-34.711l20.924-50.489l39.316-9.794c4.456-1.11,7.583-5.112,7.583-9.704v-75.064
            C512,213.876,508.873,209.875,504.417,208.764z M492,285.718l-36.625,9.124c-3.076,0.767-5.607,2.946-6.821,5.875l-24.784,59.804
            c-1.214,2.93-0.967,6.262,0.668,8.98l19.438,32.336l-42.038,42.038l-32.335-19.438c-2.718-1.634-6.052-1.882-8.98-0.667
            l-59.804,24.784c-2.929,1.214-5.108,3.745-5.875,6.821L285.718,492h-59.436l-9.125-36.626c-0.767-3.076-2.946-5.607-5.875-6.821
            l-59.804-24.784c-2.927-1.213-6.261-0.967-8.98,0.667l-32.335,19.438l-42.038-42.038L87.563,369.5
            c1.635-2.718,1.882-6.05,0.668-8.98l-24.784-59.804c-1.214-2.929-3.745-5.108-6.821-5.875L20,285.718v-59.436l36.626-9.125
            c3.077-0.767,5.607-2.946,6.821-5.875l24.783-59.803c1.214-2.93,0.967-6.262-0.668-8.98l-19.438-32.336l42.038-42.038
            l32.335,19.438c2.719,1.633,6.052,1.882,8.98,0.667l59.804-24.784c2.929-1.214,5.108-3.745,5.875-6.821L226.282,20h59.436
            l9.125,36.626c0.767,3.076,2.946,5.607,5.875,6.821l59.804,24.784c2.928,1.214,6.262,0.967,8.98-0.667l32.335-19.438
            l42.038,42.038L424.437,142.5c-1.635,2.718-1.882,6.05-0.668,8.98l24.783,59.803c1.214,2.929,3.744,5.108,6.821,5.875L492,226.282
            V285.718z"/>
        <path d="M296.388,99.077c-5.354-1.375-10.8,1.851-12.173,7.2c-1.372,5.349,1.851,10.799,7.2,12.172
            C354.171,134.556,398,191.119,398,256c0,34.062-12.06,65.359-32.128,89.853c-1.303-12.098-6.051-23.697-13.72-33.224
            c-9.093-11.294-21.9-19.22-36.065-22.317l-17.855-3.904c-4.792-1.048-8.408-5.007-9.152-9.793
            c15.616-10.62,25.895-28.529,25.895-48.796V194.64c0-32.518-26.455-58.973-58.974-58.973c-32.519,0-58.974,26.455-58.974,58.973
            v33.179c0,20.168,10.182,37.997,25.669,48.636c-0.667,4.834-4.313,8.898-9.172,9.964l-17.654,3.873
            c-14.154,3.105-26.952,11.033-36.035,22.325c-7.666,9.53-12.411,21.134-13.709,33.234C126.059,321.356,114,290.061,114,256
            c0-63.948,43.045-120.304,104.676-137.046c5.33-1.448,8.477-6.942,7.029-12.272c-1.448-5.329-6.943-8.477-12.271-7.029
            C143.112,118.756,94,183.048,94,256c0,89.327,72.673,162,162,162s162-72.673,162-162C418,181.984,367.991,117.455,296.388,99.077z
             M217.026,194.64c0-21.49,17.484-38.973,38.974-38.973s38.974,17.483,38.974,38.973v0.884c-5.944-1.535-11.411-4.602-15.899-9.011
            l-8.896-8.736c-2.187-2.146-5.235-3.17-8.275-2.784c-3.04,0.389-5.733,2.149-7.309,4.777
            c-6.243,10.416-17.665,16.886-29.809,16.886h-7.76V194.64z M217.026,227.818v-11.163h7.76c14.935,0,29.178-6.213,39.387-16.745
            l0.887,0.871c8.273,8.127,18.671,13.342,29.914,15.152v11.885c0,21.49-17.483,38.973-38.974,38.973
            C234.509,266.791,217.026,249.308,217.026,227.818z M275.676,294.351c-11.702,8.647-27.845,8.605-39.507-0.119
            c2.155-2.8,3.852-5.952,4.991-9.334c4.744,1.234,9.716,1.894,14.84,1.894c5.041,0,9.936-0.638,14.609-1.834
            C271.766,288.366,273.489,291.539,275.676,294.351z M346.251,365.551C321.698,385.814,290.246,398,256,398
            c-34.246,0-65.698-12.186-90.251-32.449v-12.954c0-20.41,14.47-38.398,34.405-42.771l17.654-3.873
            c0.36-0.079,0.716-0.169,1.072-0.26C229.182,315.758,242.587,320.8,256,320.8c13.395,0,26.782-5.03,37.078-15.068
            c0.293,0.073,0.585,0.148,0.881,0.213l17.856,3.904c19.953,4.363,34.436,22.353,34.436,42.778V365.551z"/>
        <path d="M256.673,94.001L256,94c-5.522,0-10,4.477-10,10s4.478,10,10,10l0.579,0.001c0.016,0,0.031,0,0.048,0
            c5.501,0,9.973-4.446,9.999-9.953C266.651,98.525,262.195,94.027,256.673,94.001z"/>
        <path d="M208.423,357.875l9.877-9.877c3.906-3.905,3.906-10.237,0.001-14.142c-3.906-3.905-10.236-3.905-14.143,0l-16.947,16.948
            c-3.905,3.905-3.905,10.236,0,14.142l16.947,16.948c1.953,1.953,4.512,2.929,7.071,2.929s5.118-0.977,7.071-2.929
            c3.905-3.905,3.905-10.237,0-14.142L208.423,357.875z"/>
        <path d="M327.891,350.804l-16.946-16.948c-3.905-3.905-10.235-3.905-14.143,0c-3.905,3.905-3.905,10.237,0,14.142l9.877,9.877
            l-9.877,9.877c-3.905,3.905-3.905,10.237,0,14.142c1.953,1.953,4.512,2.929,7.071,2.929s5.118-0.977,7.071-2.929l16.947-16.948
            C331.796,361.041,331.796,354.71,327.891,350.804z"/>
        <path d="M273.115,328.894c-4.763-2.799-10.891-1.207-13.688,3.555l-23.93,40.72c-2.799,4.761-1.207,10.89,3.555,13.688
            c1.592,0.936,3.335,1.38,5.057,1.38c3.429,0,6.769-1.765,8.631-4.935l23.93-40.72C279.469,337.82,277.877,331.692,273.115,328.894
            z"/>
    </symbol>

    <symbol id="footer-facebook" role="img" aria-labelledby="footer-facebook_title" viewBox="0 0 512 512">
        <title id="footer-facebook_title">Facebook</title>
        <path d="M314.829,135.492h70.595c11.423,0,20.682-9.26,20.682-20.682V20.682C406.107,9.26,396.848,0,385.425,0h-70.595
            c-76.282,0-138.341,62.06-138.341,138.341v49.913h-49.913c-11.422,0-20.682,9.26-20.682,20.682v94.127
            c0,11.423,9.26,20.682,20.682,20.682h49.913v167.572c0,11.423,9.26,20.682,20.682,20.682h94.127
            c11.423,0,20.682-9.259,20.682-20.682V323.746h49.913c9.49,0,17.763-6.458,20.065-15.666l23.532-94.127
            c1.544-6.179,0.156-12.725-3.763-17.744c-3.919-5.02-9.932-7.954-16.301-7.954H311.98v-49.913
            C311.98,136.77,313.258,135.492,314.829,135.492z M291.298,229.619h67.637l-13.191,52.763h-54.447
            c-11.423,0-20.682,9.259-20.682,20.682v167.572h-52.763V303.064c0-11.423-9.26-20.682-20.682-20.682h-49.913v-52.763h49.913
            c11.422,0,20.682-9.26,20.682-20.682v-70.595c0-53.473,43.503-96.977,96.977-96.977h49.913v52.763h-49.913
            c-24.38,0-44.214,19.835-44.214,44.214v70.595C270.615,220.359,279.875,229.619,291.298,229.619z"/>
    </symbol>

    <symbol id="footer-twitter" role="img" aria-labelledby="footer-twitter_title" viewBox="0 0 512 512">
        <title id="footer-twitter_title">Twitter</title>
        <path d="M502.954,47.189c-7.126-4.852-16.515-4.774-23.559,0.196c-15.351,10.828-31.974,19.528-49.557,25.948
            c-19.253-17.414-43.615-27.826-69.915-29.656c-31.056-2.16-61.081,7.9-84.561,28.326c-25.59,22.259-40.174,54.444-40.046,88.349
            c-85.248-7.609-139.14-61.55-177.09-108.986c-4.598-5.746-11.901-8.619-19.182-7.538c-7.279,1.078-13.438,5.944-16.171,12.777
            c-0.948,2.369-23.141,58.799-17.453,127.057c4.761,57.133,30.23,131.964,120.039,181.717
            c-32.436,14.756-68.282,21.939-103.953,20.519c-9.576-0.378-18.15,5.859-20.736,15.08c-2.587,9.221,1.497,19.013,9.869,23.665
            c51.359,28.532,108.03,43.736,163.889,43.965c0.432,0.002,0.861,0.003,1.294,0.003c54.105-0.001,106.379-13.938,151.246-40.336
            c42.898-25.241,78.416-61.759,102.715-105.603c26.162-47.206,39.427-101.75,39.427-162.186c-0.011-3.544-0.186-7.098-0.52-10.638
            c20.7-22.885,35.388-50.567,42.719-80.667C513.451,60.803,510.081,52.04,502.954,47.189z M432.297,128.07
            c-4.916,4.847-7.088,11.827-5.793,18.607c0.877,4.588,1.329,9.278,1.344,13.874c0,101.956-44.378,186.544-121.756,232.072
            c-60.586,35.649-133.037,43.933-203.609,25.057c0.729-0.201,1.459-0.407,2.185-0.615c27.596-7.885,53.63-20.055,77.377-36.174
            c6.329-4.296,9.77-11.734,8.946-19.34c-0.825-7.605-5.778-14.134-12.881-16.975C97.757,312.434,53.563,257.594,46.757,181.575
            c-2.536-28.334,0.707-54.721,4.766-74.501c16.638,17.909,37.384,37.227,62.129,53.407c42.771,27.966,90.663,42.146,142.346,42.146
            c11.423,0,20.682-9.26,20.682-20.682v-21.393c0-0.045,0-0.091,0-0.137c-0.146-21.948,9.268-42.797,25.829-57.202
            c15.146-13.175,34.51-19.665,54.543-18.27c20.026,1.393,38.311,10.502,51.487,25.648c5.339,6.138,13.783,8.577,21.567,6.229
            c5.725-1.724,11.375-3.645,16.941-5.757C442.599,117.081,437.672,122.769,432.297,128.07z"/>
    </symbol>    

    <symbol id="footer-linkedin" role="img" aria-labelledby="footer-linkedin_title" viewBox="0 0 512 512">
        <title id="footer-linkedin_title">Linkedin</title>
        <path d="M2.5,510V153.7h137.3V510H2.5z M102.5,472.7V191H39.8v281.7H102.5z"/>
        <path d="M375.4,510l0.1-158.1c0.5-23.6-8.8-42.9-24.9-51.7c-5.4-3-11.2-4.5-17.3-4.5c-5.2,0-10.4,1.1-15.5,3.3l-1.1,211H176.1
            V153.7h140.6V166c16.6-6,33.6-9.1,50.6-9.1c24.7,0,48.3,6.4,70.2,18.9c44,25.2,72.5,71.8,72.5,118.8V510H375.4z M472.7,472.7V294.6
            c0-33.8-21.1-67.7-53.7-86.4c-15.9-9.1-33.8-13.9-51.7-14h-0.3c-20.1,0-40.1,5.8-59.6,17.3L279.4,228V191h-66.1v281.7h66.2l1-194.7
            l8.2-5.5c13.7-9.2,29.1-14.1,44.5-14.1c12.4,0,24.2,3,35.1,9c13.7,7.5,25,19.2,32.8,33.8c7.9,14.9,11.9,32.6,11.5,51.1l0,120.3
            H472.7z"/>
        <path d="M70.9,139.9C32.9,139.9,2,109,2,71c0-38,30.9-69,68.9-69c38,0,68.9,30.9,68.9,69C139.8,109,108.9,139.9,70.9,139.9z
             M70.9,39.3c-17.4,0-31.6,14.2-31.6,31.7c0,17.5,14.2,31.7,31.6,31.7c17.4,0,31.6-14.2,31.6-31.7C102.5,53.5,88.3,39.3,70.9,39.3z"
            />
    </symbol>

    <symbol id="footer-instagram" role="img" aria-labelledby="footer-instagram_title" viewBox="0 0 512 512">
        <title id="footer-instagram_title">Instagram</title>
        <path d="M373.659,0H138.341C62.06,0,0,62.06,0,138.341v235.318C0,449.94,62.06,512,138.341,512h235.318
            C449.94,512,512,449.94,512,373.659V138.341C512,62.06,449.94,0,373.659,0z M470.636,373.659
            c0,53.473-43.503,96.977-96.977,96.977H138.341c-53.473,0-96.977-43.503-96.977-96.977V138.341
            c0-53.473,43.503-96.977,96.977-96.977h235.318c53.473,0,96.977,43.503,96.977,96.977V373.659z"/>
        <path d="M370.586,238.141c-3.64-24.547-14.839-46.795-32.386-64.342c-17.547-17.546-39.795-28.746-64.341-32.385
            c-11.176-1.657-22.507-1.657-33.682,0c-30.336,4.499-57.103,20.541-75.372,45.172c-18.269,24.631-25.854,54.903-21.355,85.237
            c4.499,30.335,20.541,57.102,45.172,75.372c19.996,14.831,43.706,22.619,68.153,22.619c5.667,0,11.375-0.418,17.083-1.265
            c30.336-4.499,57.103-20.541,75.372-45.172C367.5,298.747,375.085,268.476,370.586,238.141z M267.791,327.632
            c-19.405,2.882-38.77-1.973-54.527-13.66c-15.757-11.687-26.019-28.811-28.896-48.216c-2.878-19.405,1.973-38.77,13.66-54.527
            c11.688-15.757,28.811-26.019,48.217-28.897c3.574-0.53,7.173-0.795,10.772-0.795s7.199,0.265,10.773,0.796
            c32.231,4.779,57.098,29.645,61.878,61.877C335.608,284.268,307.851,321.692,267.791,327.632z"/>
        <path d="M400.049,111.951c-3.852-3.851-9.183-6.058-14.625-6.058c-5.442,0-10.773,2.206-14.625,6.058
            c-3.851,3.852-6.058,9.174-6.058,14.625c0,5.451,2.207,10.773,6.058,14.625c3.852,3.851,9.183,6.058,14.625,6.058
            c5.442,0,10.773-2.206,14.625-6.058c3.851-3.852,6.058-9.183,6.058-14.625C406.107,121.133,403.9,115.802,400.049,111.951z"/>
    </symbol>

    <symbol id="footer-phone" role="img" aria-labelledby="footer-phone_title" viewBox="0 0 512 512">
        <title id="footer-phone_title"></title>
        <path d="M421.216,195.504c-5.092-26.101-17.723-49.836-36.526-68.64c-18.804-18.803-42.54-31.434-68.641-36.527
			c-11.21-2.189-22.073,5.128-24.261,16.339c-2.187,11.212,5.128,22.073,16.339,24.26c36.847,7.188,65.3,35.642,72.489,72.489
			c1.927,9.874,10.581,16.726,20.278,16.726c1.313,0,2.645-0.125,3.984-0.387C416.088,217.577,423.403,206.715,421.216,195.504z"/>
		<path d="M511.422,196.929c-5.629-50.096-28.373-97.304-64.042-132.927C411.712,28.378,364.475,5.694,314.371,0.128
			c-11.355-1.261-21.578,6.92-22.839,18.272c-1.261,11.353,6.919,21.578,18.272,22.84c84.961,9.438,150.966,75.36,160.512,160.31
			c1.188,10.566,10.139,18.374,20.527,18.374c0.771,0,1.552-0.043,2.336-0.131C504.53,218.516,512.698,208.281,511.422,196.929z"/>
		<path d="M432.59,312.566c-0.062-0.008-0.124-0.017-0.186-0.025c-20.013-2.639-39.751-7.557-58.619-14.596
			c-23.91-8.99-51.103-3.191-69.27,14.772c-0.028,0.028-0.056,0.055-0.083,0.083l-17.148,17.148
			c-42.633-26.924-78.756-63.047-105.679-105.679l17.149-17.149c0.027-0.028,0.054-0.055,0.082-0.083
			c17.964-18.166,23.762-45.356,14.79-69.223c-7.057-18.914-11.974-38.653-14.614-58.666c-0.007-0.063-0.017-0.127-0.026-0.19
			c-4.591-32.478-32.782-56.734-65.548-56.467H66.053c-1.943,0.002-3.912,0.091-5.853,0.267
			C24.143,26.016-2.541,58.001,0.718,94.058c0.01,0.108,0.02,0.215,0.032,0.323c7.684,72.354,32.649,142.88,72.197,203.955
			c35.892,56.461,84.701,105.269,141.162,141.164c60.792,39.406,130.99,64.369,203.013,72.196c0.127,0.015,0.254,0.027,0.38,0.038
			c1.961,0.176,3.949,0.266,5.921,0.266c0.083,0,0.165,0,0.247,0.001c36.204-0.148,65.538-29.722,65.391-65.841v-67.233
			C489.746,345.714,465.515,317.211,432.59,312.566z M447.698,378.695v67.548c0.055,13.396-10.8,24.338-24.19,24.393
			c-0.715-0.004-1.425-0.027-2.135-0.086c-65.578-7.161-129.488-29.914-184.837-65.808c-0.053-0.035-0.107-0.069-0.161-0.103
			c-51.429-32.68-95.885-77.137-128.565-128.565c-0.032-0.051-0.064-0.101-0.097-0.153C71.683,220.306,48.928,156.086,41.902,90.193
			C40.779,76.91,50.63,65.155,63.923,63.954c0.717-0.064,1.443-0.098,2.145-0.098h67.463c0.146-0.001,0.294-0.003,0.443-0.002
			c12.021,0,22.322,8.905,24.044,20.819c3.05,23.063,8.721,45.806,16.871,67.649c3.319,8.832,1.189,18.869-5.427,25.591
			l-28.517,28.517c-6.583,6.582-7.956,16.753-3.354,24.847c33.837,59.508,83.177,108.847,142.685,142.685
			c8.094,4.6,18.264,3.23,24.848-3.355l28.512-28.512c6.72-6.621,16.765-8.752,25.642-5.415
			c21.799,8.134,44.547,13.805,67.61,16.855c12.18,1.757,21.122,12.339,20.816,24.647
			C447.7,378.353,447.698,378.524,447.698,378.695z"/>
    </symbol>    

	<symbol id="footer-mail" role="img" aria-labelledby="footer-mail_title" viewBox="0 0 512 512">
        <title id="footer-mail_title"></title>
        <path d="M256,141.176c-63.306,0-114.809,51.503-114.809,114.809S192.694,370.795,256,370.795s114.809-51.503,114.809-114.809
			S319.306,141.176,256,141.176z M256,329.43c-40.498,0-73.445-32.947-73.445-73.445c0-40.498,32.947-73.445,73.445-73.445
			c40.499,0,73.445,32.947,73.445,73.445C329.445,296.483,296.499,329.43,256,329.43z"/>
		<path d="M437.008,74.97C388.656,26.623,324.375,0,256,0c-0.005,0-0.013,0-0.017,0C187.603,0.004,123.318,26.637,74.97,74.992
			C26.62,123.347-0.005,187.637,0,256.017c0.004,68.379,26.637,132.666,74.992,181.014C123.344,485.377,187.625,512.001,256,512
			c0.004,0,0.012,0,0.017,0c55.945-0.004,111.216-18.738,155.631-52.752c9.07-6.945,10.792-19.927,3.846-28.995
			c-6.945-9.069-19.926-10.794-28.995-3.846c-37.24,28.518-83.58,44.224-130.486,44.228c-0.006,0-0.006,0-0.014,0
			c-57.324,0-111.224-22.324-151.761-62.856c-40.542-40.536-62.871-94.435-62.875-151.766
			C41.357,137.663,137.636,41.372,255.986,41.364c0.007,0,0.006,0,0.014,0c118.34,0,214.628,96.279,214.636,214.622v23.532
			c0,27.523-22.39,49.913-49.913,49.913c-27.523,0-49.913-22.391-49.913-49.913v-23.532c0-11.422-9.259-20.682-20.682-20.682
			s-20.682,9.26-20.682,20.682v23.532c0,50.33,40.947,91.278,91.278,91.278S512,329.848,512,279.518v-23.534
			C511.995,187.604,485.362,123.318,437.008,74.97z"/>
    </symbol>

    <symbol id="footer-location" role="img" aria-labelledby="footer-location_title" viewBox="0 0 512 512">
        <title id="footer-location_title"></title>
        <path d="M406.766,62.449C366.495,22.178,312.951,0,256,0S145.505,22.178,105.234,62.449
			c-40.272,40.271-62.449,93.814-62.449,150.766c0,37.656,10.972,76.863,32.609,116.532c16.825,30.846,40.15,62.102,69.326,92.898
			c49.17,51.903,97.763,84.519,99.808,85.881C248.001,510.842,252,512,256,512c4,0,7.999-1.158,11.473-3.474
			c2.045-1.363,50.638-33.978,99.808-85.881c29.176-30.795,52.501-62.051,69.326-92.898c21.637-39.669,32.609-78.876,32.609-116.532
			C469.215,156.263,447.038,102.72,406.766,62.449z M256.001,465.903C215.826,436.156,84.15,329.739,84.15,213.215
			c0-94.759,77.091-171.851,171.85-171.851s171.85,77.092,171.851,171.851C427.851,329.748,296.159,436.168,256.001,465.903z"/>
		<path d="M256,128.355c-46.791,0-84.86,38.068-84.86,84.86c0,46.791,38.068,84.86,84.86,84.86c46.792,0,84.861-38.068,84.86-84.86
			C340.86,166.423,302.791,128.355,256,128.355z M256,256.71c-23.983,0-43.495-19.512-43.495-43.495
			c0-23.983,19.512-43.495,43.495-43.495c23.984,0,43.495,19.512,43.495,43.495C299.495,237.198,279.984,256.71,256,256.71z"/>
		</symbol>

	<symbol id="footer-time" role="img" aria-labelledby="footer-time_title" viewBox="0 0 512 512">
        <title id="footer-time_title"></title>
        <path d="M437.019,74.981C388.667,26.629,324.38,0,256,0S123.333,26.63,74.981,74.981S0,187.62,0,256
			s26.629,132.667,74.981,181.019C123.332,485.371,187.62,512,256,512s132.667-26.629,181.019-74.981
			C485.371,388.667,512,324.38,512,256S485.371,123.332,437.019,74.981z M256,470.636C137.65,470.636,41.364,374.35,41.364,256
			S137.65,41.364,256,41.364S470.636,137.65,470.636,256S374.35,470.636,256,470.636z"/>
		<path d="M341.221,311.97l-64.538-64.537V114.809c0-11.422-9.259-20.682-20.682-20.682c-11.422,0-20.682,9.26-20.682,20.682V256
			c0,5.486,2.179,10.746,6.058,14.625l70.594,70.595c4.038,4.039,9.332,6.058,14.625,6.058c5.293,0,10.586-2.019,14.626-6.058
			C349.297,333.142,349.297,320.047,341.221,311.97z"/>
	</symbol>

</svg>