<svg xmlns="http://www.w3.org/2000/svg" xmlns:xlink="http://www.w3.org/1999/xlink">

    <symbol id="home-play" role="img" aria-labelledby="home-play_title" viewBox="0 0 512 512">
        <title id="home-play_title"></title>
        <path d="M47.127,0v512l417.745-254.837L47.127,0z M87.172,71.676l301.06,185.333L87.172,440.664V71.676z"/>
    </symbol>

    <symbol id="home-cart" role="img" aria-labelledby="home-cart_title" viewBox="0 0 512 512">
        <title id="home-cart_title"></title>
        <path d="M221.998,149.001h55v55c0,11.046,8.954,20,20,20s20-8.954,20-20v-55h55c11.046,0,20-8.954,20-20s-8.954-20-20-20h-55v-55
            c0-11.046-8.954-20-20-20s-20,8.954-20,20v55h-55c-11.046,0-20,8.954-20,20S210.952,149.001,221.998,149.001z"/>
        <path d="M496.303,109.472c-10.785-2.378-21.459,4.436-23.838,15.222L437.85,281.618c-4.076,18.478-20.054,31.383-38.854,31.383
            c-11.046,0-20,8.954-20,20s8.954,20,20,20c18.161,0,35.933-6.274,50.041-17.667C463.1,323.976,473,307.961,476.91,290.233
            l34.616-156.924C513.906,122.523,507.091,111.85,496.303,109.472z"/>
        <path d="M398.997,394H136.999c-11.028,0-20-8.972-20-20c0-0.169-0.021-0.332-0.025-0.5c0.004-0.168,0.025-0.331,0.025-0.5
            c0-11.028,8.972-20,20-20h161.999c11.046,0,20-8.954,20-20s-8.954-20-20-20H151.94L128.251,95.37l-0.053-0.438
            C121.098,40.813,74.582,0.002,20,0.002c-11.046,0-20,8.954-20,20s8.954,20,20,20c34.506,0,63.923,25.749,68.511,59.927
            l23.775,218.418c-20.787,9.437-35.287,30.376-35.287,54.652c0,0.169,0.021,0.332,0.025,0.5c-0.004,0.168-0.025,0.331-0.025,0.5
            c0,33.084,26.916,60,60,60h8.157c-2.036,5.967-3.157,12.353-3.157,19c0,32.533,26.467,59,59,59c32.533,0,59-26.467,59-59
            c0-6.647-1.121-13.033-3.157-19h86.313c-2.036,5.967-3.157,12.353-3.157,19c0,32.533,26.467,59,59,59c32.533,0,59-26.467,59-59
            C457.996,420.466,431.53,393.999,398.997,394z M200.998,471.998c-10.477,0-19-8.523-19-19c0-10.477,8.523-19,19-19
            s19,8.523,19,19C219.998,463.475,211.475,471.998,200.998,471.998z M398.997,471.998c-10.477,0-19-8.523-19-19
            c0-10.477,8.523-19,19-19c10.477,0,19,8.523,19,19C417.997,463.475,409.474,471.998,398.997,471.998z"/>
    </symbol>

	<symbol id="services01" role="img" aria-labelledby="services01_title" viewBox="0 0 512 512">
        <title id="services01_title"></title>
        <path d="m334.226562 263.515625c-.953124-7.125-4.6875-13.453125-10.507812-17.824219l-.5625-.417968-39.984375-24.558594 7.148437-29.144532c4.285157-10.640624.835938-23.042968-8.636718-30.144531l-.398438-.289062c-10.378906-7.265625-24.144531-5.960938-32.84375 3.066406l-63.042968 63.042969c-5.433594 5.121094-8.242188 12.476562-7.722657 20.25l.097657.988281c.953124 7.121094 4.6875 13.453125 10.507812 17.820313l.5625.421874 39.984375 24.554688-7.148437 29.144531c-4.285157 10.644531-.835938 23.046875 8.636718 30.152344l.398438.289063c4.496094 3.144531 9.625 4.683593 14.703125 4.683593 6.644531 0 13.207031-2.636719 18.136719-7.75l63.046874-63.046875c5.433594-5.121094 8.242188-12.472656 7.722657-20.25zm-80.335937 51.519531 5.683594-23.164062c2.160156-8.792969-1.574219-17.878906-9.285157-22.613282l-39.941406-24.53125 47.761719-47.761718-5.683594 23.164062c-2.15625 8.789063 1.574219 17.878906 9.289063 22.613282l39.941406 24.53125zm0 0"/>
        <path d="m441.117188 185.117188h-3.394532c-.074218 0-.195312-.097657-.261718-.273438-3.984376-10.144531-8.835938-19.972656-14.476563-29.335938 9.683594-17.140624 7.230469-39.335937-7.359375-53.925781-14.128906-14.128906-35.390625-16.875-52.285156-8.242187-11.375-7.519532-23.507813-13.824219-36.1875-18.800782-.175782-.070312-.269532-.1875-.269532-.265624v-3.390626c0-39.085937-31.796874-70.882812-70.882812-70.882812s-70.882812 31.796875-70.882812 70.882812v3.394532c0 .074218-.097657.195312-.273438.261718-50.34375 19.757813-90.546875 59.960938-110.304688 110.308594-.066406.175782-.1875.269532-.261718.269532h-3.394532c-39.082031 0-70.882812 31.796874-70.882812 70.882812s31.800781 70.882812 70.882812 70.882812h3.394532c.078125 0 .195312.097657.265625.269532 4.492187 11.457031 10.085937 22.488281 16.679687 32.910156-9.15625 17.023438-6.558594 38.757812 7.804688 53.121094 8.769531 8.769531 20.285156 13.152344 31.804687 13.152344 7.367188 0 14.734375-1.796876 21.382813-5.386719 10.339844 6.519531 21.277344 12.054687 32.632812 16.511719.175782.066406.269532.1875.269532.261718v3.394532c0 39.082031 31.796874 70.882812 70.882812 70.882812s70.882812-31.800781 70.882812-70.882812v-3.394532c0-.074218.097657-.195312.273438-.261718 50.34375-19.757813 90.546875-59.960938 110.304688-110.308594.066406-.175782.1875-.269532.265624-.269532h3.390626c39.082031 0 70.882812-31.796874 70.882812-70.882812s-31.800781-70.882812-70.882812-70.882812zm-57.296876-66.703126c3.835938 0 7.671876 1.460938 10.59375 4.382813 5.835938 5.835937 5.839844 15.324219.011719 21.152344s-15.316406 5.820312-21.152343-.011719c-5.835938-5.835938-5.84375-15.328125-.015626-21.15625 2.914063-2.910156 6.738282-4.367188 10.5625-4.367188zm-263.582031 273.554688c-5.835937-5.835938-5.839843-15.324219-.011719-21.152344 2.910157-2.914062 6.734376-4.367187 10.5625-4.367187 3.832032 0 7.667969 1.460937 10.589844 4.378906 5.835938 5.835937 5.84375 15.328125.015625 21.15625-5.832031 5.828125-15.320312 5.820313-21.15625-.015625zm320.878907-95.085938h-3.394532c-12.519531 0-23.585937 7.582032-28.191406 19.3125-16.714844 42.605469-50.734375 76.621094-93.332031 93.335938-11.734375 4.605469-19.316407 15.667969-19.316407 28.191406v3.394532c0 22.542968-18.339843 40.882812-40.882812 40.882812s-40.882812-18.339844-40.882812-40.882812v-3.394532c0-12.523437-7.582032-23.589844-19.3125-28.191406-8.039063-3.152344-15.832032-6.949219-23.289063-11.335938 6.496094-16.207031 3.1875-35.464843-9.921875-48.578124-13.132812-13.132813-32.429688-16.433594-48.652344-9.898438-4.445312-7.53125-8.289062-15.402344-11.472656-23.523438-4.605469-11.730468-15.671875-19.3125-28.191406-19.3125h-3.394532c-22.542968 0-40.882812-18.339843-40.882812-40.882812s18.339844-40.882812 40.882812-40.882812h3.394532c12.523437 0 23.589844-7.582032 28.191406-19.3125 16.714844-42.601563 50.734375-76.621094 93.332031-93.335938 11.734375-4.605469 19.316407-15.667969 19.316407-28.191406v-3.394532c0-22.542968 18.339843-40.882812 40.882812-40.882812s40.882812 18.339844 40.882812 40.882812v3.394532c0 12.523437 7.582032 23.589844 19.3125 28.191406 9.148438 3.585938 17.957032 7.996094 26.324219 13.167969-7.003906 16.394531-3.824219 36.148437 9.539063 49.511719 8.769531 8.773437 20.285156 13.15625 31.804687 13.15625 5.421875 0 10.847657-.972657 15.980469-2.917969 3.699219 6.582031 6.941406 13.410156 9.6875 20.414062 4.605469 11.734375 15.667969 19.316407 28.191406 19.316407h3.394532c22.542968 0 40.882812 18.339843 40.882812 40.882812s-18.339844 40.882812-40.882812 40.882812zm0 0"/>
        <path d="m118.851562 241h-49.304687c-8.28125 0-15 6.714844-15 15s6.71875 15 15 15h49.304687c8.285157 0 15-6.714844 15-15s-6.714843-15-15-15zm0 0"/>
        <path d="m442.453125 241h-49.304687c-8.285157 0-15 6.714844-15 15s6.714843 15 15 15h49.304687c8.28125 0 15-6.714844 15-15s-6.71875-15-15-15zm0 0"/>
        <path d="m256 378.148438c-8.285156 0-15 6.714843-15 15v49.304687c0 8.28125 6.714844 15 15 15s15-6.71875 15-15v-49.304687c0-8.285157-6.714844-15-15-15zm0 0"/>
        <path d="m256 133.851562c8.285156 0 15-6.714843 15-15v-49.304687c0-8.28125-6.714844-15-15-15s-15 6.71875-15 15v49.304687c0 8.285157 6.714844 15 15 15zm0 0"/>
    </symbol>

    <symbol id="services02" role="img" aria-labelledby="services02_title" viewBox="0 0 512 512">
        <title id="services02_title"></title>
        <path d="M437,0H75C33.645,0,0,33.645,0,75v362c0,41.355,33.645,75,75,75h362c41.355,0,75-33.645,75-75V75
            C512,33.645,478.355,0,437,0z M482,437c0,24.813-20.187,45-45,45H75c-24.813,0-45-20.187-45-45V75c0-24.813,20.187-45,45-45h362
            c24.813,0,45,20.187,45,45V437z"/>
        <path d="M136,362c-24.813,0-45,20.187-45,45s20.187,45,45,45s45-20.187,45-45S160.813,362,136,362z M136,422
            c-8.271,0-15-6.729-15-15s6.729-15,15-15s15,6.729,15,15S144.271,422,136,422z"/>
        <path d="M256,362c-24.813,0-45,20.187-45,45s20.187,45,45,45s45-20.187,45-45S280.813,362,256,362z M256,422
            c-8.271,0-15-6.729-15-15s6.729-15,15-15s15,6.729,15,15S264.271,422,256,422z"/>
        <path d="M376,362c-24.813,0-45,20.187-45,45s20.187,45,45,45s45-20.187,45-45S400.813,362,376,362z M376,422
            c-8.271,0-15-6.729-15-15s6.729-15,15-15s15,6.729,15,15S384.271,422,376,422z"/>
        <path d="M437,60H75c-8.284,0-15,6.716-15,15v242c0,8.284,6.716,15,15,15h362c8.284,0,15-6.716,15-15V75
            C452,66.716,445.284,60,437,60z M213.58,302c6.192-17.458,22.865-30,42.42-30s36.228,12.542,42.42,30H213.58z M422,302h-92.509
            c-6.968-34.192-37.271-60-73.491-60c-8.258,0-16.2,1.361-23.636,3.838l-45.694-80.666c58.376-27.125,129.076-18.188,179.32,26.829
            c6.171,5.529,15.654,5.006,21.182-1.162c5.528-6.17,5.008-15.653-1.162-21.182C350.27,137.635,304.098,120,256,120
            c-48.098,0-94.27,17.635-130.01,49.657c-6.17,5.528-6.69,15.011-1.162,21.182c5.527,6.169,15.012,6.689,21.182,1.162
            c4.733-4.241,9.651-8.156,14.719-11.756l45.648,80.586c-11.974,10.591-20.559,24.928-23.868,41.169H90V90h332V302z"/>
    </symbol>

    <symbol id="services03" role="img" aria-labelledby="services03_title" viewBox="0 0 512 512">
        <title id="services03_title"></title>
        <path d="m256 0c-141.160156 0-256 114.839844-256 256s114.839844 256 256 256 256-114.839844 256-256-114.839844-256-256-256zm0 482c-124.617188 0-226-101.382812-226-226s101.382812-226 226-226 226 101.382812 226 226-101.382812 226-226 226zm0 0"/><path d="m384.53125 208.867188h-79.40625l13.960938-111.671876c1.804687-14.453124-16.09375-22.746093-25.941407-11.996093l-176.734375 192.796875c-8.796875 9.597656-1.976562 25.136718 11.058594 25.136718h79.40625l-13.957031 111.675782c-1.816407 14.496094 16.121093 22.703125 25.941406 11.996094l176.730469-192.800782c8.796875-9.597656 1.976562-25.136718-11.058594-25.136718zm-156.015625 163 10.234375-81.875c.535156-4.269532-.789062-8.5625-3.640625-11.789063-2.847656-3.222656-6.941406-5.070313-11.242187-5.070313h-62.300782l121.917969-133-10.234375 81.875c-.535156 4.265626.789062 8.558594 3.640625 11.785157 2.847656 3.226562 6.941406 5.074219 11.242187 5.074219h62.300782zm0 0"/>
    </symbol>

    <symbol id="services04" role="img" aria-labelledby="services04_title" viewBox="0 0 512 512">
        <title id="services04_title"></title>
        <path d="M467,181.007h-15v-15c0-24.813-20.187-45-45-45H262.297l8.412-42.058c3.191-15.959-18.091-24.916-27.189-11.262
            l-35.547,53.32H45c-24.813,0-45,20.187-45,45v180c0,24.813,20.187,45,45,45h144.703l-8.412,42.058
            c-3.218,16.095,18.158,24.814,27.189,11.262l35.547-53.32H407c24.813,0,45-20.187,45-45v-15h15c24.813,0,45-20.187,45-45v-60
            C512,201.194,491.813,181.007,467,181.007z M244.297,211.007H362v90h-57.973l24.453-36.68c5.484-8.225,1.635-19.426-7.737-22.551
            l-77.438-25.813L244.297,211.007z M195.703,361.007H45c-8.271,0-15-6.729-15-15v-180c0-8.271,6.729-15,15-15h142.973l-20,30H75
            c-8.284,0-15,6.716-15,15v120c0,8.284,6.716,15,15,15h126.703L195.703,361.007z M207.703,301.007H90v-90h57.973l-24.453,36.68
            c-5.484,8.225-1.635,19.426,7.737,22.551l77.438,25.813L207.703,301.007z M225.918,364.089c-0.092,0.07-0.188,0.136-0.279,0.208
            l15.07-75.349c1.483-7.418-2.789-14.78-9.966-17.172l-71.369-23.79c2.499-3.748,64.574-96.859,67.047-100.569l-15.13,75.648
            c-1.483,7.418,2.789,14.78,9.966,17.172l71.369,23.79L225.918,364.089z M422,346.007c0,8.271-6.729,15-15,15H264.027l20-30H377
            c8.284,0,15-6.716,15-15v-120c0-8.284-6.716-15-15-15H250.297l6-30H407c8.271,0,15,6.729,15,15
            C422,173.154,422,338.858,422,346.007z M482,286.007c0,8.271-6.729,15-15,15h-15v-90h15c8.271,0,15,6.729,15,15V286.007z"/>
    </symbol>

    <symbol id="services05" role="img" aria-labelledby="services05_title" viewBox="0 0 512 512">
        <title id="services05_title"></title>
        <path d="M166,301h-15v-15c0-8.284-6.716-15-15-15s-15,6.716-15,15v15h-15c-8.284,0-15,6.716-15,15s6.716,15,15,15h15v15
            c0,8.284,6.716,15,15,15s15-6.716,15-15v-15h15c8.284,0,15-6.716,15-15S174.284,301,166,301z"/>
        <path d="M406,301h-60c-8.284,0-15,6.716-15,15s6.716,15,15,15h60c8.284,0,15-6.716,15-15S414.284,301,406,301z"/>
        <path d="M298.733,308.072C295.995,303.674,291.181,301,286,301h-35.729l19.146-38.292c3.705-7.41,0.702-16.419-6.708-20.125
            c-7.41-3.706-16.419-0.701-20.124,6.708l-30,60c-2.325,4.649-2.077,10.172,0.656,14.594C215.974,328.308,220.802,331,226,331
            h35.907l-19.367,39.38c-3.656,7.434-0.594,16.424,6.84,20.08c7.441,3.657,16.427,0.588,20.08-6.841l30-61
            C301.747,317.97,301.472,312.47,298.733,308.072z"/>
        <path d="M497,211c8.284,0,15-6.716,15-15v-30c0-19.555-12.541-36.228-30-42.42V76c0-8.284-6.716-15-15-15h-15V15
            c0-8.284-6.716-15-15-15h-61c-8.284,0-15,6.716-15,15v46h-15c-8.284,0-15,6.716-15,15v45H181V76c0-8.284-6.716-15-15-15h-15V15
            c0-8.284-6.716-15-15-15H75c-8.284,0-15,6.716-15,15v46H45c-8.284,0-15,6.716-15,15v47.58C12.541,129.772,0,146.445,0,166v30
            c0,8.284,6.716,15,15,15h15v213.58C12.541,430.772,0,447.445,0,467v30c0,8.284,6.716,15,15,15h482c8.284,0,15-6.716,15-15v-30
            c0-19.555-12.541-36.228-30-42.42V211H497z M391,30h31v31h-31V30z M361,91c9.255,0,81.806,0,91,0v30h-91V91z M90,30h31v31H90V30z
             M60,91c9.255,0,81.806,0,91,0v30H60V91z M482,482H30v-15c0-8.271,6.729-15,15-15h422c8.271,0,15,6.729,15,15V482z M60,422V211
            h392v211H60z M30,181v-15c0-8.271,6.729-15,15-15c18.21,0,416.552,0,422,0c8.271,0,15,6.729,15,15v15H30z"/>
    </symbol>

    <symbol id="services06" role="img" aria-labelledby="services06_title" viewBox="0 0 512 512">
        <title id="services06_title"></title>
        <path d="M500.539,211.424l-25.45-6.179c-5.596-24.371-15.078-47.303-28.282-68.396l12.975-21.624
            c3.541-5.902,2.611-13.457-2.256-18.324L415.1,54.475c-4.867-4.867-12.423-5.797-18.323-2.256L375.15,65.193
            c-21.091-13.203-44.022-22.686-68.396-28.283l-6.179-25.45C298.943,4.735,292.921,0,286,0h-60
            c-6.921,0-12.943,4.735-14.576,11.461l-6.179,25.45c-24.373,5.597-47.305,15.079-68.396,28.283l-21.626-12.975
            c-5.901-3.54-13.456-2.611-18.323,2.256L54.475,96.9c-4.867,4.867-5.797,12.422-2.256,18.324l12.975,21.624
            c-13.204,21.093-22.687,44.025-28.282,68.396l-25.45,6.179C4.735,213.056,0,219.079,0,226v60c0,6.921,4.735,12.944,11.461,14.577
            l25.45,6.179c5.597,24.373,15.079,47.304,28.282,68.395l-12.975,21.623c-3.541,5.902-2.611,13.457,2.256,18.324L96.9,457.525
            c4.866,4.868,12.422,5.797,18.324,2.256l21.623-12.974c21.093,13.204,44.025,22.686,68.397,28.283l6.179,25.45
            C213.057,507.265,219.079,512,226,512h60c6.921,0,12.943-4.735,14.576-11.461l6.179-25.45
            c24.372-5.597,47.305-15.079,68.397-28.283l21.623,12.974c5.901,3.541,13.457,2.611,18.324-2.256l42.426-42.427
            c4.867-4.867,5.797-12.422,2.256-18.324l-12.975-21.623c13.203-21.091,22.686-44.022,28.282-68.395l25.45-6.179
            C507.265,298.944,512,292.921,512,286v-60C512,219.079,507.265,213.056,500.539,211.424z M482,274.206l-23.209,5.635
            c-5.744,1.395-10.135,6.033-11.21,11.846c-5.003,27.023-15.379,52.125-30.84,74.609c-3.329,4.841-3.525,11.179-0.503,16.217
            l11.793,19.654l-25.863,25.864l-19.653-11.792c-5.039-3.023-11.376-2.826-16.217,0.502
            c-22.485,15.462-47.589,25.838-74.611,30.841c-5.813,1.076-10.451,5.466-11.846,11.21L274.206,482h-36.412l-5.635-23.208
            c-1.395-5.745-6.033-10.135-11.846-11.21c-27.022-5.003-52.126-15.379-74.611-30.841c-4.841-3.328-11.177-3.526-16.217-0.502
            l-19.653,11.792l-25.863-25.864l11.793-19.654c3.022-5.038,2.826-11.376-0.503-16.217c-15.461-22.484-25.837-47.585-30.84-74.609
            c-1.075-5.813-5.466-10.452-11.21-11.846L30,274.206v-36.412l23.209-5.635c5.745-1.395,10.135-6.034,11.21-11.847
            c5.002-27.021,15.378-52.124,30.841-74.61c3.328-4.841,3.524-11.179,0.502-16.217l-11.793-19.653l25.863-25.863l19.656,11.793
            c5.037,3.023,11.376,2.826,16.217-0.503c22.482-15.461,47.585-25.837,74.608-30.84c5.813-1.076,10.451-5.466,11.846-11.211
            L237.794,30h36.412l5.635,23.208c1.395,5.745,6.033,10.135,11.846,11.211c27.023,5.003,52.126,15.379,74.608,30.84
            c4.842,3.328,11.18,3.526,16.217,0.503l19.656-11.793l25.863,25.863l-11.793,19.653c-3.022,5.038-2.826,11.376,0.502,16.217
            c15.463,22.486,25.839,47.589,30.841,74.61c1.075,5.813,5.465,10.452,11.21,11.847L482,237.794V274.206z"/>
        <path d="M256,91c-90.981,0-165,74.019-165,165s74.019,165,165,165s165-74.019,165-165S346.981,91,256,91z M211,256v-15h90v15
            c0,24.813-20.187,45-45,45S211,280.813,211,256z M271,390.162v-60.671c34.192-6.968,60-37.271,60-73.491v-30
            c0-8.284-6.716-15-15-15h-15v-45c0-8.284-6.716-15-15-15s-15,6.716-15,15v45h-30v-45c0-8.284-6.716-15-15-15s-15,6.716-15,15v45
            h-15c-8.284,0-15,6.716-15,15v30c0,36.22,25.808,66.522,60,73.491v60.671C173.594,382.676,121,325.369,121,256
            c0-74.439,60.561-135,135-135s135,60.561,135,135C391,325.369,338.406,382.676,271,390.162z"/>
    </symbol>

    <symbol id="footer-facebook" role="img" aria-labelledby="footer-facebook_title" viewBox="0 0 512 512">
        <title id="footer-facebook_title">Facebook</title>
        <path d="M314.829,135.492h70.595c11.423,0,20.682-9.26,20.682-20.682V20.682C406.107,9.26,396.848,0,385.425,0h-70.595
            c-76.282,0-138.341,62.06-138.341,138.341v49.913h-49.913c-11.422,0-20.682,9.26-20.682,20.682v94.127
            c0,11.423,9.26,20.682,20.682,20.682h49.913v167.572c0,11.423,9.26,20.682,20.682,20.682h94.127
            c11.423,0,20.682-9.259,20.682-20.682V323.746h49.913c9.49,0,17.763-6.458,20.065-15.666l23.532-94.127
            c1.544-6.179,0.156-12.725-3.763-17.744c-3.919-5.02-9.932-7.954-16.301-7.954H311.98v-49.913
            C311.98,136.77,313.258,135.492,314.829,135.492z M291.298,229.619h67.637l-13.191,52.763h-54.447
            c-11.423,0-20.682,9.259-20.682,20.682v167.572h-52.763V303.064c0-11.423-9.26-20.682-20.682-20.682h-49.913v-52.763h49.913
            c11.422,0,20.682-9.26,20.682-20.682v-70.595c0-53.473,43.503-96.977,96.977-96.977h49.913v52.763h-49.913
            c-24.38,0-44.214,19.835-44.214,44.214v70.595C270.615,220.359,279.875,229.619,291.298,229.619z"/>
    </symbol>

    <symbol id="footer-twitter" role="img" aria-labelledby="footer-twitter_title" viewBox="0 0 512 512">
        <title id="footer-twitter_title">Twitter</title>
        <path d="M502.954,47.189c-7.126-4.852-16.515-4.774-23.559,0.196c-15.351,10.828-31.974,19.528-49.557,25.948
            c-19.253-17.414-43.615-27.826-69.915-29.656c-31.056-2.16-61.081,7.9-84.561,28.326c-25.59,22.259-40.174,54.444-40.046,88.349
            c-85.248-7.609-139.14-61.55-177.09-108.986c-4.598-5.746-11.901-8.619-19.182-7.538c-7.279,1.078-13.438,5.944-16.171,12.777
            c-0.948,2.369-23.141,58.799-17.453,127.057c4.761,57.133,30.23,131.964,120.039,181.717
            c-32.436,14.756-68.282,21.939-103.953,20.519c-9.576-0.378-18.15,5.859-20.736,15.08c-2.587,9.221,1.497,19.013,9.869,23.665
            c51.359,28.532,108.03,43.736,163.889,43.965c0.432,0.002,0.861,0.003,1.294,0.003c54.105-0.001,106.379-13.938,151.246-40.336
            c42.898-25.241,78.416-61.759,102.715-105.603c26.162-47.206,39.427-101.75,39.427-162.186c-0.011-3.544-0.186-7.098-0.52-10.638
            c20.7-22.885,35.388-50.567,42.719-80.667C513.451,60.803,510.081,52.04,502.954,47.189z M432.297,128.07
            c-4.916,4.847-7.088,11.827-5.793,18.607c0.877,4.588,1.329,9.278,1.344,13.874c0,101.956-44.378,186.544-121.756,232.072
            c-60.586,35.649-133.037,43.933-203.609,25.057c0.729-0.201,1.459-0.407,2.185-0.615c27.596-7.885,53.63-20.055,77.377-36.174
            c6.329-4.296,9.77-11.734,8.946-19.34c-0.825-7.605-5.778-14.134-12.881-16.975C97.757,312.434,53.563,257.594,46.757,181.575
            c-2.536-28.334,0.707-54.721,4.766-74.501c16.638,17.909,37.384,37.227,62.129,53.407c42.771,27.966,90.663,42.146,142.346,42.146
            c11.423,0,20.682-9.26,20.682-20.682v-21.393c0-0.045,0-0.091,0-0.137c-0.146-21.948,9.268-42.797,25.829-57.202
            c15.146-13.175,34.51-19.665,54.543-18.27c20.026,1.393,38.311,10.502,51.487,25.648c5.339,6.138,13.783,8.577,21.567,6.229
            c5.725-1.724,11.375-3.645,16.941-5.757C442.599,117.081,437.672,122.769,432.297,128.07z"/>
    </symbol>    

    <symbol id="footer-linkedin" role="img" aria-labelledby="footer-linkedin_title" viewBox="0 0 512 512">
        <title id="footer-linkedin_title">Linkedin</title>
        <path d="M2.5,510V153.7h137.3V510H2.5z M102.5,472.7V191H39.8v281.7H102.5z"/>
        <path d="M375.4,510l0.1-158.1c0.5-23.6-8.8-42.9-24.9-51.7c-5.4-3-11.2-4.5-17.3-4.5c-5.2,0-10.4,1.1-15.5,3.3l-1.1,211H176.1
            V153.7h140.6V166c16.6-6,33.6-9.1,50.6-9.1c24.7,0,48.3,6.4,70.2,18.9c44,25.2,72.5,71.8,72.5,118.8V510H375.4z M472.7,472.7V294.6
            c0-33.8-21.1-67.7-53.7-86.4c-15.9-9.1-33.8-13.9-51.7-14h-0.3c-20.1,0-40.1,5.8-59.6,17.3L279.4,228V191h-66.1v281.7h66.2l1-194.7
            l8.2-5.5c13.7-9.2,29.1-14.1,44.5-14.1c12.4,0,24.2,3,35.1,9c13.7,7.5,25,19.2,32.8,33.8c7.9,14.9,11.9,32.6,11.5,51.1l0,120.3
            H472.7z"/>
        <path d="M70.9,139.9C32.9,139.9,2,109,2,71c0-38,30.9-69,68.9-69c38,0,68.9,30.9,68.9,69C139.8,109,108.9,139.9,70.9,139.9z
             M70.9,39.3c-17.4,0-31.6,14.2-31.6,31.7c0,17.5,14.2,31.7,31.6,31.7c17.4,0,31.6-14.2,31.6-31.7C102.5,53.5,88.3,39.3,70.9,39.3z"
            />
    </symbol>

    <symbol id="footer-instagram" role="img" aria-labelledby="footer-instagram_title" viewBox="0 0 512 512">
        <title id="footer-instagram_title">Instagram</title>
        <path d="M373.659,0H138.341C62.06,0,0,62.06,0,138.341v235.318C0,449.94,62.06,512,138.341,512h235.318
            C449.94,512,512,449.94,512,373.659V138.341C512,62.06,449.94,0,373.659,0z M470.636,373.659
            c0,53.473-43.503,96.977-96.977,96.977H138.341c-53.473,0-96.977-43.503-96.977-96.977V138.341
            c0-53.473,43.503-96.977,96.977-96.977h235.318c53.473,0,96.977,43.503,96.977,96.977V373.659z"/>
        <path d="M370.586,238.141c-3.64-24.547-14.839-46.795-32.386-64.342c-17.547-17.546-39.795-28.746-64.341-32.385
            c-11.176-1.657-22.507-1.657-33.682,0c-30.336,4.499-57.103,20.541-75.372,45.172c-18.269,24.631-25.854,54.903-21.355,85.237
            c4.499,30.335,20.541,57.102,45.172,75.372c19.996,14.831,43.706,22.619,68.153,22.619c5.667,0,11.375-0.418,17.083-1.265
            c30.336-4.499,57.103-20.541,75.372-45.172C367.5,298.747,375.085,268.476,370.586,238.141z M267.791,327.632
            c-19.405,2.882-38.77-1.973-54.527-13.66c-15.757-11.687-26.019-28.811-28.896-48.216c-2.878-19.405,1.973-38.77,13.66-54.527
            c11.688-15.757,28.811-26.019,48.217-28.897c3.574-0.53,7.173-0.795,10.772-0.795s7.199,0.265,10.773,0.796
            c32.231,4.779,57.098,29.645,61.878,61.877C335.608,284.268,307.851,321.692,267.791,327.632z"/>
        <path d="M400.049,111.951c-3.852-3.851-9.183-6.058-14.625-6.058c-5.442,0-10.773,2.206-14.625,6.058
            c-3.851,3.852-6.058,9.174-6.058,14.625c0,5.451,2.207,10.773,6.058,14.625c3.852,3.851,9.183,6.058,14.625,6.058
            c5.442,0,10.773-2.206,14.625-6.058c3.851-3.852,6.058-9.183,6.058-14.625C406.107,121.133,403.9,115.802,400.049,111.951z"/>
    </symbol>

    <symbol id="footer-phone" role="img" aria-labelledby="footer-phone_title" viewBox="0 0 512 512">
        <title id="footer-phone_title"></title>
        <path d="M421.216,195.504c-5.092-26.101-17.723-49.836-36.526-68.64c-18.804-18.803-42.54-31.434-68.641-36.527
			c-11.21-2.189-22.073,5.128-24.261,16.339c-2.187,11.212,5.128,22.073,16.339,24.26c36.847,7.188,65.3,35.642,72.489,72.489
			c1.927,9.874,10.581,16.726,20.278,16.726c1.313,0,2.645-0.125,3.984-0.387C416.088,217.577,423.403,206.715,421.216,195.504z"/>
		<path d="M511.422,196.929c-5.629-50.096-28.373-97.304-64.042-132.927C411.712,28.378,364.475,5.694,314.371,0.128
			c-11.355-1.261-21.578,6.92-22.839,18.272c-1.261,11.353,6.919,21.578,18.272,22.84c84.961,9.438,150.966,75.36,160.512,160.31
			c1.188,10.566,10.139,18.374,20.527,18.374c0.771,0,1.552-0.043,2.336-0.131C504.53,218.516,512.698,208.281,511.422,196.929z"/>
		<path d="M432.59,312.566c-0.062-0.008-0.124-0.017-0.186-0.025c-20.013-2.639-39.751-7.557-58.619-14.596
			c-23.91-8.99-51.103-3.191-69.27,14.772c-0.028,0.028-0.056,0.055-0.083,0.083l-17.148,17.148
			c-42.633-26.924-78.756-63.047-105.679-105.679l17.149-17.149c0.027-0.028,0.054-0.055,0.082-0.083
			c17.964-18.166,23.762-45.356,14.79-69.223c-7.057-18.914-11.974-38.653-14.614-58.666c-0.007-0.063-0.017-0.127-0.026-0.19
			c-4.591-32.478-32.782-56.734-65.548-56.467H66.053c-1.943,0.002-3.912,0.091-5.853,0.267
			C24.143,26.016-2.541,58.001,0.718,94.058c0.01,0.108,0.02,0.215,0.032,0.323c7.684,72.354,32.649,142.88,72.197,203.955
			c35.892,56.461,84.701,105.269,141.162,141.164c60.792,39.406,130.99,64.369,203.013,72.196c0.127,0.015,0.254,0.027,0.38,0.038
			c1.961,0.176,3.949,0.266,5.921,0.266c0.083,0,0.165,0,0.247,0.001c36.204-0.148,65.538-29.722,65.391-65.841v-67.233
			C489.746,345.714,465.515,317.211,432.59,312.566z M447.698,378.695v67.548c0.055,13.396-10.8,24.338-24.19,24.393
			c-0.715-0.004-1.425-0.027-2.135-0.086c-65.578-7.161-129.488-29.914-184.837-65.808c-0.053-0.035-0.107-0.069-0.161-0.103
			c-51.429-32.68-95.885-77.137-128.565-128.565c-0.032-0.051-0.064-0.101-0.097-0.153C71.683,220.306,48.928,156.086,41.902,90.193
			C40.779,76.91,50.63,65.155,63.923,63.954c0.717-0.064,1.443-0.098,2.145-0.098h67.463c0.146-0.001,0.294-0.003,0.443-0.002
			c12.021,0,22.322,8.905,24.044,20.819c3.05,23.063,8.721,45.806,16.871,67.649c3.319,8.832,1.189,18.869-5.427,25.591
			l-28.517,28.517c-6.583,6.582-7.956,16.753-3.354,24.847c33.837,59.508,83.177,108.847,142.685,142.685
			c8.094,4.6,18.264,3.23,24.848-3.355l28.512-28.512c6.72-6.621,16.765-8.752,25.642-5.415
			c21.799,8.134,44.547,13.805,67.61,16.855c12.18,1.757,21.122,12.339,20.816,24.647
			C447.7,378.353,447.698,378.524,447.698,378.695z"/>
    </symbol>    

	<symbol id="footer-mail" role="img" aria-labelledby="footer-mail_title" viewBox="0 0 512 512">
        <title id="footer-mail_title"></title>
        <path d="M256,141.176c-63.306,0-114.809,51.503-114.809,114.809S192.694,370.795,256,370.795s114.809-51.503,114.809-114.809
			S319.306,141.176,256,141.176z M256,329.43c-40.498,0-73.445-32.947-73.445-73.445c0-40.498,32.947-73.445,73.445-73.445
			c40.499,0,73.445,32.947,73.445,73.445C329.445,296.483,296.499,329.43,256,329.43z"/>
		<path d="M437.008,74.97C388.656,26.623,324.375,0,256,0c-0.005,0-0.013,0-0.017,0C187.603,0.004,123.318,26.637,74.97,74.992
			C26.62,123.347-0.005,187.637,0,256.017c0.004,68.379,26.637,132.666,74.992,181.014C123.344,485.377,187.625,512.001,256,512
			c0.004,0,0.012,0,0.017,0c55.945-0.004,111.216-18.738,155.631-52.752c9.07-6.945,10.792-19.927,3.846-28.995
			c-6.945-9.069-19.926-10.794-28.995-3.846c-37.24,28.518-83.58,44.224-130.486,44.228c-0.006,0-0.006,0-0.014,0
			c-57.324,0-111.224-22.324-151.761-62.856c-40.542-40.536-62.871-94.435-62.875-151.766
			C41.357,137.663,137.636,41.372,255.986,41.364c0.007,0,0.006,0,0.014,0c118.34,0,214.628,96.279,214.636,214.622v23.532
			c0,27.523-22.39,49.913-49.913,49.913c-27.523,0-49.913-22.391-49.913-49.913v-23.532c0-11.422-9.259-20.682-20.682-20.682
			s-20.682,9.26-20.682,20.682v23.532c0,50.33,40.947,91.278,91.278,91.278S512,329.848,512,279.518v-23.534
			C511.995,187.604,485.362,123.318,437.008,74.97z"/>
    </symbol>

    <symbol id="footer-location" role="img" aria-labelledby="footer-location_title" viewBox="0 0 512 512">
        <title id="footer-location_title"></title>
        <path d="M406.766,62.449C366.495,22.178,312.951,0,256,0S145.505,22.178,105.234,62.449
			c-40.272,40.271-62.449,93.814-62.449,150.766c0,37.656,10.972,76.863,32.609,116.532c16.825,30.846,40.15,62.102,69.326,92.898
			c49.17,51.903,97.763,84.519,99.808,85.881C248.001,510.842,252,512,256,512c4,0,7.999-1.158,11.473-3.474
			c2.045-1.363,50.638-33.978,99.808-85.881c29.176-30.795,52.501-62.051,69.326-92.898c21.637-39.669,32.609-78.876,32.609-116.532
			C469.215,156.263,447.038,102.72,406.766,62.449z M256.001,465.903C215.826,436.156,84.15,329.739,84.15,213.215
			c0-94.759,77.091-171.851,171.85-171.851s171.85,77.092,171.851,171.851C427.851,329.748,296.159,436.168,256.001,465.903z"/>
		<path d="M256,128.355c-46.791,0-84.86,38.068-84.86,84.86c0,46.791,38.068,84.86,84.86,84.86c46.792,0,84.861-38.068,84.86-84.86
			C340.86,166.423,302.791,128.355,256,128.355z M256,256.71c-23.983,0-43.495-19.512-43.495-43.495
			c0-23.983,19.512-43.495,43.495-43.495c23.984,0,43.495,19.512,43.495,43.495C299.495,237.198,279.984,256.71,256,256.71z"/>
		</symbol>

	<symbol id="footer-time" role="img" aria-labelledby="footer-time_title" viewBox="0 0 512 512">
        <title id="footer-time_title"></title>
        <path d="M437.019,74.981C388.667,26.629,324.38,0,256,0S123.333,26.63,74.981,74.981S0,187.62,0,256
			s26.629,132.667,74.981,181.019C123.332,485.371,187.62,512,256,512s132.667-26.629,181.019-74.981
			C485.371,388.667,512,324.38,512,256S485.371,123.332,437.019,74.981z M256,470.636C137.65,470.636,41.364,374.35,41.364,256
			S137.65,41.364,256,41.364S470.636,137.65,470.636,256S374.35,470.636,256,470.636z"/>
		<path d="M341.221,311.97l-64.538-64.537V114.809c0-11.422-9.259-20.682-20.682-20.682c-11.422,0-20.682,9.26-20.682,20.682V256
			c0,5.486,2.179,10.746,6.058,14.625l70.594,70.595c4.038,4.039,9.332,6.058,14.625,6.058c5.293,0,10.586-2.019,14.626-6.058
			C349.297,333.142,349.297,320.047,341.221,311.97z"/>
	</symbol>

</svg>