<svg xmlns="http://www.w3.org/2000/svg" xmlns:xlink="http://www.w3.org/1999/xlink">

    <symbol id="header-contact" role="img" aria-labelledby="header-contact_title" viewBox="0 0 220.7 220.7">
        <title id="header-contact_title"></title>
        <polygon points="107.7,51.2 166.9,110.3 107.7,169.5 131.1,192.9 213.7,110.3 131.1,27.8  "/>
        <polygon points="31.4,192.9 113.9,110.3 31.4,27.8 8,51.2 67.1,110.3 8,169.5     "/>
    </symbol>

    <symbol id="about01" role="img" aria-labelledby="about01_title" viewBox="0 0 64 64">
        <title id="about01_title"></title>
        <path d="m33.82 21.01a2.01 2.01 0 0 1 2.18 1.99v3.59a5 5 0 1 0 -4 0v-3.48a2.076 2.076 0 0 1 1.82-2.1z" fill="#7dd4fd"/>
        <path d="m40.27 31h-.27v1a2 2 0 0 1 .27-1z" fill="#7dd4fd"/>
        <path d="m19 6h39v23h3v-26h-42z" fill="#7dd4fd"/>
        <path d="m19 6h-3v3h39v23h3v-3-23z" fill="#7dd4fd"/>
        <path d="m49 55v-6h-22v6z" fill="#7dd4fd"/>
        <path d="m29 55h18v6h-18z" fill="#7dd4fd"/>
        <circle cx="13" cy="42" fill="#7dd4fd" r="10"/>
        <path d="m39 22a5 5 0 1 0 -7 4.578v-3.468a2.076 2.076 0 0 1 1.82-2.1 2.01 2.01 0 0 1 2.18 1.99v3.578a5 5 0 0 0 3-4.578z" fill="#7dd4fd"/>
        <path d="m16 9h-3v26h15.27a2 2 0 0 1 1.73-1h2v-3h-12a3 3 0 0 0 -3-3v-12a3 3 0 0 0 3-3h28a3 3 0 0 0 3 3v12a3 3 0 0 0 -3 3h-4.27a2 2 0 0 1 .27 1v2a2.006 2.006 0 0 1 2-2 2.015 2.015 0 0 1 2 2v1h7v-26z" fill="#7dd4fd"/>
        <path d="m40.27 31h-.27v1a2 2 0 0 1 .27-1z" fill="#7dd4fd"/>
        <path d="m32 34h-2a2 2 0 0 0 -1.73 1h3.73z" fill="#7dd4fd"/>
        <path d="m42 30a2 2 0 0 0 -1.73 1h3.46a1.813 1.813 0 0 0 -.32-.41 1.955 1.955 0 0 0 -1.41-.59z" fill="#7dd4fd"/>
        <path fill="#1c9cd9" d="m47.314 29.442a1 1 0 0 0 1.843.778 1.994 1.994 0 0 1 1.843-1.22 1 1 0 0 0 1-1v-12a1 1 0 0 0 -1-1 2 2 0 0 1 -2-2 1 1 0 0 0 -1-1h-28a1 1 0 0 0 -1 1 2 2 0 0 1 -2 2 1 1 0 0 0 -1 1v12a1 1 0 0 0 1 1 2 2 0 0 1 2 2 1 1 0 0 0 1 1h9a1 1 0 0 0 0-2h-8.126a4.016 4.016 0 0 0 -2.874-2.874v-10.252a4.016 4.016 0 0 0 2.874-2.874h26.252a4.016 4.016 0 0 0 2.874 2.874v10.252a3.987 3.987 0 0 0 -2.686 2.316z"/>
        <path fill="#1c9cd9" d="m44 21a1 1 0 0 0 0 2h2a1 1 0 0 0 0-2z"/>
        <path fill="#1c9cd9" d="m22 21a1 1 0 0 0 0 2h2a1 1 0 0 0 0-2z"/>
        <path fill="#1c9cd9" d="m61 2h-42a1 1 0 0 0 -1 1v2h-2a1 1 0 0 0 -1 1v2h-2a1 1 0 0 0 -1 1v20a1 1 0 0 0 2 0v-19h40v24h-3a1 1 0 0 0 0 2h4a1 1 0 0 0 1-1v-2h2a1 1 0 0 0 1-1v-2h2a1 1 0 0 0 1-1v-26a1 1 0 0 0 -1-1zm-4 29h-1v-22a1 1 0 0 0 -1-1h-38v-1h40zm3-3h-1v-22a1 1 0 0 0 -1-1h-38v-1h40z"/>
        <path fill="#1c9cd9" d="m49 48h-.614l.35-1.057a4.91 4.91 0 0 0 .264-1.593v-11.35a2.928 2.928 0 0 0 -.874-2.108 3.062 3.062 0 0 0 -3.232-.681 3.012 3.012 0 0 0 -.306-.725 2.659 2.659 0 0 0 -.462-.594 3.065 3.065 0 0 0 -3.6-.509 2.774 2.774 0 0 0 -.4-.491 3.057 3.057 0 0 0 -3.126-.721v-.984a6 6 0 1 0 -6 0v5.813h-1a3.005 3.005 0 0 0 -3 3v8.79a4.987 4.987 0 0 0 .838 2.775l.291.435h-1.129a1 1 0 0 0 -1 1v6a1 1 0 0 0 1 1h1v5a1 1 0 0 0 1 1h18a1 1 0 0 0 1-1v-5h1a1 1 0 0 0 1-1v-6a1 1 0 0 0 -1-1zm-19-26a4 4 0 1 1 7 2.644v-1.644a3.01 3.01 0 0 0 -3.266-2.986 3.075 3.075 0 0 0 -2.734 3.096v1.534a4.008 4.008 0 0 1 -1-2.644zm-.5 24.455a2.987 2.987 0 0 1 -.5-1.665v-8.79a1.006 1.006 0 0 1 1-1h1v7a1 1 0 0 0 2 0v-18.89a1.081 1.081 0 0 1 .916-1.105 1.01 1.01 0 0 1 1.084.995v14a1 1 0 0 0 2 0v-6a1 1 0 0 1 1-1 .974.974 0 0 1 .712.306.957.957 0 0 1 .288.694v6a1 1 0 0 0 2 0v-5a1 1 0 0 1 1.731-.676.842.842 0 0 1 .136.181.992.992 0 0 1 .133.495v5a1 1 0 0 0 2 0v-3a1 1 0 0 1 1-1 .974.974 0 0 1 .712.306.957.957 0 0 1 .288.694v11.35a2.948 2.948 0 0 1 -.159.955l-.563 1.695h-15.743zm16.5 13.545h-16v-4h16zm2-6h-20v-4h20z"/>
        <path fill="#1c9cd9" d="m43 51h3v2h-3z"/>
        <path fill="#1c9cd9" d="m13 31a11 11 0 1 0 11 11 11.013 11.013 0 0 0 -11-11zm0 20a9 9 0 1 1 9-9 9.011 9.011 0 0 1 -9 9z"/>
        <path fill="#1c9cd9" d="m14 37h-.006l.006-2h-2l-.006 2a2 2 0 0 0 -1.994 2v2a2 2 0 0 0 2 2h2v2h-2v-1h-2v1a2 2 0 0 0 1.994 2l.006 2h2l-.006-2h.006a2 2 0 0 0 2-2v-2a2 2 0 0 0 -2-2h-2v-2h2v1h2v-1a2 2 0 0 0 -2-2z"/>
        <path fill="#1c9cd9" d="m25 34h-1a1 1 0 0 0 0 2h1a1 1 0 0 0 0-2z"/>
    </symbol>

    <symbol id="about02" role="img" aria-labelledby="about02_title" viewBox="0 0 64 64">
        <title id="about02_title"></title>
        <path d="m19 10h-3v3h39v23h3v-3-23z" fill="#7dd4fd"/>
        <path d="m19 10h39v23h3v-26h-42z" fill="#7dd4fd"/>
        <path d="m11 61h9v-4-9-5h-9v2 14z" fill="#7dd4fd"/>
        <path d="m3 45h8v14h-8z" fill="#7dd4fd"/>
        <path d="m16 13h-3v26h42v-26zm35 19a3 3 0 0 0 -3 3h-28a3 3 0 0 0 -3-3v-12a3 3 0 0 0 3-3h28a3 3 0 0 0 3 3z" fill="#7dd4fd"/>
        <circle cx="34" cy="26" r="5" fill="#7dd4fd"/>
        <path fill="#1c9cd9" d="m59.751 43.337a4 4 0 0 0 -3.8.1l-10.037 5.79a3.967 3.967 0 0 0 -1.258-2.227 4.056 4.056 0 0 0 -2.666-1h-6.162a1.009 1.009 0 0 1 -.707-.293l-.244-.244a4.964 4.964 0 0 0 -3.532-1.463h-6.688a4.966 4.966 0 0 0 -3.535 1.464l-.122.122v-2.586a1 1 0 0 0 -1-1h-9a1 1 0 0 0 -1 1v1h-7a1 1 0 0 0 -1 1v14a1 1 0 0 0 1 1h7v1a1 1 0 0 0 1 1h9a1 1 0 0 0 1-1v-2.132l.437.292a4.992 4.992 0 0 0 2.774.84h17.719a4.93 4.93 0 0 0 2.5-.674l15.52-8.96a3.962 3.962 0 0 0 2-3.466 4.012 4.012 0 0 0 -.534-2 3.921 3.921 0 0 0 -1.665-1.563zm-55.751 14.663v-12h6v12zm15 2h-7v-16h7zm39.95-11.366-15.529 8.966a2.935 2.935 0 0 1 -1.491.4h-17.719a2.989 2.989 0 0 1 -1.664-.5l-1.547-1.035v-8.051l1.536-1.536a3.02 3.02 0 0 1 2.121-.878h6.688a2.979 2.979 0 0 1 2.118.877l.244.244a2.978 2.978 0 0 0 2.121.879h6.162a2.053 2.053 0 0 1 1.345.5 1.965 1.965 0 0 1 .659 1.288 1.871 1.871 0 0 1 -.134.92 1.81 1.81 0 0 1 -.447.708 1.986 1.986 0 0 1 -1.413.584h-6.58a1 1 0 0 0 0 2h6.58a3.979 3.979 0 0 0 2.828-1.173 3.846 3.846 0 0 0 .78-1.113l11.338-6.546a2.009 2.009 0 0 1 1.913-.04 1.926 1.926 0 0 1 .824.77 2.025 2.025 0 0 1 .267 1 1.983 1.983 0 0 1 -1 1.736z"/>
        <path fill="#1c9cd9" d="m51 19a2 2 0 0 1 -2-2 1 1 0 0 0 -1-1h-28a1 1 0 0 0 -1 1 2 2 0 0 1 -2 2 1 1 0 0 0 -1 1v12a1 1 0 0 0 1 1 2 2 0 0 1 2 2 1 1 0 0 0 1 1h28a1 1 0 0 0 1-1 2 2 0 0 1 2-2 1 1 0 0 0 1-1v-12a1 1 0 0 0 -1-1zm-1 12.126a4.015 4.015 0 0 0 -2.873 2.874h-26.253a4.016 4.016 0 0 0 -2.874-2.874v-10.252a4.016 4.016 0 0 0 2.874-2.874h26.253a4.015 4.015 0 0 0 2.873 2.874z"/>
        <path fill="#1c9cd9" d="m46 25h-2a1 1 0 0 0 0 2h2a1 1 0 0 0 0-2z"/>
        <path fill="#1c9cd9" d="m24 25h-2a1 1 0 0 0 0 2h2a1 1 0 0 0 0-2z"/>
        <path fill="#1c9cd9" d="m34 20a6 6 0 1 0 6 6 6.006 6.006 0 0 0 -6-6zm0 10a4 4 0 1 1 4-4 4 4 0 0 1 -4 4z"/>
        <path fill="#1c9cd9" d="m61 6h-42a1 1 0 0 0 -1 1v2h-2a1 1 0 0 0 -1 1v2h-2a1 1 0 0 0 -1 1v26a1 1 0 0 0 1 1h42a1 1 0 0 0 1-1v-2h2a1 1 0 0 0 1-1v-2h2a1 1 0 0 0 1-1v-26a1 1 0 0 0 -1-1zm-7 32h-40v-24h40zm3-3h-1v-22a1 1 0 0 0 -1-1h-38v-1h40zm3-3h-1v-22a1 1 0 0 0 -1-1h-38v-1h40z"/>
    </symbol>

    <symbol id="about03" role="img" aria-labelledby="about03_title" viewBox="0 0 480.23973 480">
        <title id="about03_title"></title>
        <path d="m408.121094 128.121094v-24h-400v208h400zm-32 128c-13.257813 0-24 10.742187-24 24h-288c0-13.257813-10.746094-24-24-24v-96c13.253906 0 24-10.746094 24-24h288c0 13.253906 10.742187 24 24 24zm0 0" fill="#7dd4fd"/>
        <path d="m56.121094 32.121094c0 13.253906-10.746094 24-24 24-13.257813 0-24-10.746094-24-24 0-13.257813 10.742187-24 24-24 13.253906 0 24 10.742187 24 24zm0 0" fill="#7dd4fd"/>
        <path d="m472.121094 32.121094c0 13.253906-10.746094 24-24 24-13.257813 0-24-10.746094-24-24 0-13.257813 10.742187-24 24-24 13.253906 0 24 10.742187 24 24zm0 0" fill="#7dd4fd"/>
        <path d="m56.121094 448.121094c0 13.253906-10.746094 24-24 24-13.257813 0-24-10.746094-24-24 0-13.257813 10.742187-24 24-24 13.253906 0 24 10.742187 24 24zm0 0" fill="#7dd4fd"/>
        <path d="m472.121094 448.121094c0 13.253906-10.746094 24-24 24-13.257813 0-24-10.746094-24-24 0-13.257813 10.742187-24 24-24 13.253906 0 24 10.742187 24 24zm0 0" fill="#7dd4fd"/>
        <path d="m352.121094 136.121094h-288c0 13.253906-10.746094 24-24 24v96c13.253906 0 24 10.742187 24 24h288c0-13.257813 10.742187-24 24-24v-96c-13.257813 0-24-10.746094-24-24zm-144 112c-22.09375 0-40-17.910156-40-40 0-22.09375 17.90625-40 40-40 22.089844 0 40 17.90625 40 40 0 22.089844-17.910156 40-40 40zm0 0" fill="#7dd4fd"/>
        <path d="m248.121094 208.121094c0 22.089844-17.910156 40-40 40-22.09375 0-40-17.910156-40-40 0-22.09375 17.90625-40 40-40 22.089844 0 40 17.90625 40 40zm0 0" fill="#7dd4fd"/>
        <path fill="#1c9cd9" d="m448.121094 120.121094h-32v-24h-168v-8h-16v8h-72v-72h-97.136719c-4.027344-15.605469-19.03125-25.777344-35.015625-23.746094-15.988281 2.03125-27.96875 15.628906-27.96875 31.746094 0 16.113281 11.980469 29.714844 27.96875 31.742187 15.984375 2.03125 30.988281-8.140625 35.015625-23.742187h81.136719v56h-144v224h40v32h32v32h160v8h16v-8h72v72h97.136718c4.027344 15.601562 19.027344 25.773437 35.015626 23.742187 15.984374-2.027343 27.964843-15.628906 27.964843-31.742187 0-16.117188-11.980469-29.714844-27.964843-31.746094-15.988282-2.03125-30.988282 8.140625-35.015626 23.746094h-81.136718v-56h144v-232h-32zm-416-72c-8.835938 0-16-7.164063-16-16 0-8.835938 7.164062-16 16-16 8.835937 0 16 7.164062 16 16 0 8.835937-7.164063 16-16 16zm416 384c8.835937 0 16 7.164062 16 16 0 8.835937-7.164063 16-16 16-8.835938 0-16-7.164063-16-16 0-8.835938 7.164062-16 16-16zm-432-320h384v192h-384zm40 208h360v-184h16v200h-376zm408-152v200h-376v-16h360v-184zm0 0"/>
        <path fill="#1c9cd9" d="m448.121094 64.121094c17.671875 0 32-14.328125 32-32 0-17.675782-14.328125-32-32-32-17.675782 0-32 14.324218-32 32 0 17.671875 14.324218 32 32 32zm0-48c8.835937 0 16 7.164062 16 16 0 8.835937-7.164063 16-16 16-8.835938 0-16-7.164063-16-16 0-8.835938 7.164062-16 16-16zm0 0"/>
        <path fill="#1c9cd9" d="m32.121094 416.121094c-17.675782 0-32 14.324218-32 32 0 17.671875 14.324218 32 32 32 17.671875 0 32-14.328125 32-32 0-17.675782-14.328125-32-32-32zm0 48c-8.835938 0-16-7.164063-16-16 0-8.835938 7.164062-16 16-16 8.835937 0 16 7.164062 16 16 0 8.835937-7.164063 16-16 16zm0 0"/>
        <path fill="#1c9cd9" d="m360.121094 136.121094v-8h-304v8c0 8.835937-7.164063 16-16 16h-8v112h8c8.835937 0 16 7.164062 16 16v8h304v-8c0-8.835938 7.164062-16 16-16h8v-112h-8c-8.835938 0-16-7.164063-16-16zm8 113.015625c-11.261719 2.929687-20.054688 11.722656-22.984375 22.984375h-274.03125c-2.933594-11.261719-11.726563-20.054688-22.984375-22.984375v-82.03125c11.257812-2.933594 20.050781-11.726563 22.984375-22.984375h274.03125c2.929687 11.257812 11.722656 20.050781 22.984375 22.984375zm0 0"/>
        <path fill="#1c9cd9" d="m208.121094 160.121094c-26.511719 0-48 21.488281-48 48 0 26.507812 21.488281 48 48 48 26.507812 0 48-21.492188 48-48-.027344-26.5-21.503906-47.976563-48-48zm0 80c-17.675782 0-32-14.328125-32-32 0-17.675782 14.324218-32 32-32 17.671875 0 32 14.324218 32 32 0 17.671875-14.328125 32-32 32zm0 0"/>
        <path fill="#1c9cd9" d="m232.121094 56.121094h16v16h-16zm0 0"/>
        <path fill="#1c9cd9" d="m232.121094 24.121094h16v16h-16zm0 0"/>
        <path fill="#1c9cd9" d="m296.121094 24.121094h16v16h-16zm0 0"/>
        <path fill="#1c9cd9" d="m264.121094 24.121094h16v16h-16zm0 0"/>
        <path fill="#1c9cd9" d="m328.121094 24.121094h16v16h-16zm0 0"/>
        <path fill="#1c9cd9" d="m360.121094 24.121094h16v16h-16zm0 0"/>
        <path fill="#1c9cd9" d="m392.121094 24.121094h16v16h-16zm0 0"/>
        <path fill="#1c9cd9" d="m72.121094 440.121094h16v16h-16zm0 0"/>
        <path fill="#1c9cd9" d="m104.121094 440.121094h16v16h-16zm0 0"/>
        <path fill="#1c9cd9" d="m136.121094 440.121094h16v16h-16zm0 0"/>
        <path fill="#1c9cd9" d="m168.121094 440.121094h16v16h-16zm0 0"/>
        <path fill="#1c9cd9" d="m200.121094 440.121094h16v16h-16zm0 0"/>
        <path fill="#1c9cd9" d="m232.121094 440.121094h16v16h-16zm0 0"/>
        <path fill="#1c9cd9" d="m232.121094 408.121094h16v16h-16zm0 0"/>
        <path fill="#1c9cd9" d="m288.121094 200.121094h48v16h-48zm0 0"/>
        <path fill="#1c9cd9" d="m80.121094 200.121094h48v16h-48zm0 0"/>
    </symbol>

    <symbol id="about04" role="img" aria-labelledby="about04_title" viewBox="-41 0 482 482.544">
        <title id="about04_title"></title>
        <path d="m132.097656 439.511719 68.175782 34.089843 68.175781-34.089843c75.875-37.9375 123.808593-115.480469 123.824219-200.3125v-165.597657h-3.960938c-60.015625-.003906-118.6875-17.765624-168.625-51.058593l-19.414062-12.941407-19.121094 12.796876c-49.652344 33.167968-107.976563 50.976562-167.6875 51.203124h-5.191406v165.597657c.015624 84.832031 47.949218 162.375 123.824218 200.3125zm-75.824218-320.671875c51.214843-6.398438 100.386718-24.035156 144-51.640625 43.609374 27.621093 92.78125 45.265625 144 51.679687v120.320313c.210937 66.714843-37.515626 127.746093-97.289063 157.375l-46.710937 23.363281-46.710938-23.363281c-59.773438-29.628907-97.5-90.660157-97.289062-157.375zm0 0" fill="#7dd4fd"/>
        <path fill="#1c9cd9" d="m200.273438 482.542969-71.761719-35.878907c-78.789063-39.066406-128.5195315-119.523437-128.238281-207.464843v-173.597657h13.160156c58.148437-.183593 114.949218-17.535156 163.273437-49.882812l23.566407-15.71875 23.855468 15.902344c48.601563 32.460937 105.75 49.757812 164.191406 49.699218h11.953126v173.597657c.28125 87.941406-49.453126 168.398437-128.242188 207.464843zm-184-400.941407v157.597657c-.261719 81.878906 46.042968 156.785156 119.398437 193.152343l64.601563 32.304688 64.601562-32.304688c73.355469-36.367187 119.660156-111.273437 119.398438-193.152343v-157.597657c-60.226563-.734374-118.945313-18.9375-169.023438-52.402343l-14.976562-10-14.679688 9.824219c-50.144531 33.582031-108.976562 51.847656-169.320312 52.578124zm0 0"/>
        <path fill="#1c9cd9" d="m200.273438 428.878906-50.289063-25.144531c-62.488281-30.980469-101.929687-94.789063-101.710937-164.535156v-127.421875l7.007812-.875c50.070312-6.203125 98.140625-23.445313 140.734375-50.488282l4.257813-2.703124 4.273437 2.703124c42.582031 27.042969 90.640625 44.292969 140.703125 50.507813l7.007812.878906v127.398438c.222657 69.742187-39.214843 133.550781-101.695312 164.535156zm-136-303.046875v113.367188c-.199219 63.679687 35.8125 121.9375 92.863281 150.226562l43.136719 21.566407 43.136718-21.601563c57.039063-28.28125 93.050782-86.523437 92.863282-150.191406v-113.351563c-48.222657-6.941406-94.511719-23.703125-136-49.246094-41.488282 25.542969-87.777344 42.296876-136 49.230469zm0 0"/>
        <path fill="#1c9cd9" d="m200.273438 233.601562c-30.871094 0-56-17.945312-56-40 0-22.058593 25.128906-40 56-40 30.871093 0 56 17.941407 56 40h16c0-28.800781-28.054688-52.53125-64-55.632812v-24.367188h-16v24.367188c-35.945313 3.101562-64 26.855469-64 55.632812 0 30.878907 32.296874 56 72 56 30.871093 0 56 17.941407 56 40 0 22.054688-25.128907 40-56 40-30.871094 0-56-17.945312-56-40h-16c0 28.796876 28.054687 52.527344 64 55.628907v24.371093h16v-24.371093c35.945312-3.101563 64-26.855469 64-55.628907 0-30.882812-32.296876-56-72-56zm0 0"/>
    </symbol>

    <symbol id="buy01" role="img" aria-labelledby="buy01_title" viewBox="0 0 64 64">
        <title id="buy01_title"></title>
        <path d="M52,22.95v7.97A24.082,24.082,0,0,1,40.09,51.65L32,56.37l-8.09-4.72A24.082,24.082,0,0,1,12,30.92V13.88L32,7.22l9.364,3.118a9.985,9.985,0,0,1,1.844-3.6l0,0L32,3,8,11V30.92A27.982,27.982,0,0,0,21.89,55.1L32,61l10.11-5.9A27.982,27.982,0,0,0,56,30.92V21.651A9.927,9.927,0,0,1,52,22.95Z" style="fill:#7dd4fd"/>
        <path d="M31,22v2.1A5,5,0,0,0,32,34a2,2,0,1,1-2,2H27a5.029,5.029,0,0,0,3,4.59V43h3V40.9A5,5,0,0,0,32,31a2,2,0,1,1,2-2h3a5.029,5.029,0,0,0-3-4.59V22Z" style="fill:#7dd4fd"/>
        <path fill="#1c9cd9" d="M62,13A10.983,10.983,0,0,0,42.9,5.585L32.317,2.051a1.008,1.008,0,0,0-.633,0l-24,8A1,1,0,0,0,7,11V30.92A29.078,29.078,0,0,0,21.386,55.964l10.11,5.9a1,1,0,0,0,1.008,0l10.109-5.9A29.077,29.077,0,0,0,57,30.92V22.208A11,11,0,0,0,62,13ZM51,24v6.92A23.084,23.084,0,0,1,39.586,50.786L32,55.212l-7.586-4.426A23.086,23.086,0,0,1,13,30.92V14.6L32,8.274,40.19,11A10.963,10.963,0,0,0,51,24Zm4,6.92A27.069,27.069,0,0,1,41.606,54.236L32,59.842l-9.606-5.606A27.069,27.069,0,0,1,9,30.92v-19.2L32,4.054,41.628,7.27a10.914,10.914,0,0,0-.892,1.807l-8.42-2.806a1,1,0,0,0-.632,0l-20,6.66A1,1,0,0,0,11,13.88V30.92A25.094,25.094,0,0,0,23.406,52.514l8.09,4.72a1,1,0,0,0,1.008,0l8.09-4.72A25.094,25.094,0,0,0,53,30.92V23.809a10.908,10.908,0,0,0,2-.573ZM51,22a9,9,0,1,1,9-9A9.01,9.01,0,0,1,51,22Z"/>
        <path fill="#1c9cd9" d="M55.364,9.222,49,15.586l-2.293-2.293a1,1,0,0,0-1.414,1.414l3,3a1,1,0,0,0,1.414,0l7.071-7.071a1,1,0,1,0-1.414-1.414Z"/>
        <path fill="#1c9cd9" d="M33,44H30a1,1,0,0,1-1-1V41.2A6.025,6.025,0,0,1,26,36a1,1,0,0,1,1-1h3a1,1,0,0,1,1,1,1,1,0,1,0,1-1,6,6,0,0,1-2-11.659V22a1,1,0,0,1,1-1h3a1,1,0,0,1,1,1v1.8A6.025,6.025,0,0,1,38,29a1,1,0,0,1-1,1H34a1,1,0,0,1-1-1,1,1,0,1,0-1,1,6.033,6.033,0,0,1,4.287,1.793l.008.008A6.01,6.01,0,0,1,34,41.659V43A1,1,0,0,1,33,44Zm-2-2h1V40.9a1,1,0,0,1,.8-.981A4.008,4.008,0,0,0,34.869,33.2,4.045,4.045,0,0,0,32,32a3,3,0,1,1,2.829-4h1.043A4.046,4.046,0,0,0,33.6,25.324,1,1,0,0,1,33,24.41V23H32v1.1a1,1,0,0,1-.8.981A4,4,0,0,0,32,33a3,3,0,1,1-2.829,4H28.127a4.047,4.047,0,0,0,2.278,2.676A1,1,0,0,1,31,40.59Z"/>
    </symbol>

    <symbol id="buy02" role="img" aria-labelledby="buy02_title" viewBox="0 0 480 480">
        <title id="buy02_title"></title>
        <path d="m320 136h96l-96-96zm0 0" fill="#7dd4fd"/>
        <path d="m256 368c0 39.765625-32.234375 72-72 72s-72-32.234375-72-72 32.234375-72 72-72 72 32.234375 72 72zm0 0" fill="#7dd4fd"/>
        <path d="m24 264h176c8.835938 0 16-7.164062 16-16v-224c0-8.835938-7.164062-16-16-16h-176c-8.835938 0-16 7.164062-16 16v224c0 8.835938 7.164062 16 16 16zm48-32c0 4.417969-3.582031 8-8 8h-16c-4.417969 0-8-3.582031-8-8v-16c0-4.417969 3.582031-8 8-8h16c4.417969 0 8 3.582031 8 8zm0-56c0 4.417969-3.582031 8-8 8h-16c-4.417969 0-8-3.582031-8-8v-16c0-4.417969 3.582031-8 8-8h16c4.417969 0 8 3.582031 8 8zm0-56c0 4.417969-3.582031 8-8 8h-16c-4.417969 0-8-3.582031-8-8v-16c0-4.417969 3.582031-8 8-8h16c4.417969 0 8 3.582031 8 8zm56 112c0 4.417969-3.582031 8-8 8h-16c-4.417969 0-8-3.582031-8-8v-16c0-4.417969 3.582031-8 8-8h16c4.417969 0 8 3.582031 8 8zm0-56c0 4.417969-3.582031 8-8 8h-16c-4.417969 0-8-3.582031-8-8v-16c0-4.417969 3.582031-8 8-8h16c4.417969 0 8 3.582031 8 8zm0-56c0 4.417969-3.582031 8-8 8h-16c-4.417969 0-8-3.582031-8-8v-16c0-4.417969 3.582031-8 8-8h16c4.417969 0 8 3.582031 8 8zm56 112c0 4.417969-3.582031 8-8 8h-16c-4.417969 0-8-3.582031-8-8v-16c0-4.417969 3.582031-8 8-8h16c4.417969 0 8 3.582031 8 8zm0-56c0 4.417969-3.582031 8-8 8h-16c-4.417969 0-8-3.582031-8-8v-16c0-4.417969 3.582031-8 8-8h16c4.417969 0 8 3.582031 8 8zm0-56c0 4.417969-3.582031 8-8 8h-16c-4.417969 0-8-3.582031-8-8v-16c0-4.417969 3.582031-8 8-8h16c4.417969 0 8 3.582031 8 8zm-152-88h160v40h-160zm0 0" fill="#7dd4fd"/>
        <path d="m467.078125 283.550781c6.25-6.25 6.25-16.382812 0-22.628906-6.246094-6.25-16.378906-6.25-22.628906 0l-11.3125 11.308594 22.632812 22.632812zm0 0" fill="#7dd4fd"/>
        <path d="m329.945312 420.6875 125.824219-125.824219-22.632812-22.632812-125.824219 125.824219-19.3125 41.945312zm108.917969-108.925781-22.625-22.625zm0 0" fill="#7dd4fd"/>
        <path fill="#1c9cd9" d="m184 288c-44.183594 0-80 35.816406-80 80s35.816406 80 80 80 80-35.816406 80-80c-.046875-44.164062-35.835938-79.953125-80-80zm0 144c-35.347656 0-64-28.652344-64-64s28.652344-64 64-64 64 28.652344 64 64c-.039062 35.328125-28.671875 63.960938-64 64zm0 0"/>
        <path fill="#1c9cd9" d="m184 344c9.769531 0 16 4.734375 16 8h16c0-11.367188-10.070312-20.574219-24-23.199219v-8.800781h-16v8.800781c-13.929688 2.605469-24 11.816407-24 23.199219 0 13.464844 14.054688 24 32 24 9.769531 0 16 4.734375 16 8s-6.230469 8-16 8-16-4.734375-16-8h-16c0 11.367188 10.070312 20.574219 24 23.199219v8.800781h16v-8.800781c13.929688-2.605469 24-11.816407 24-23.199219 0-13.464844-14.054688-24-32-24-9.769531 0-16-4.734375-16-8s6.230469-8 16-8zm0 0"/>
        <path fill="#1c9cd9" d="m408 464h-336v-192h128c13.253906 0 24-10.746094 24-24v-200h88v96h96v112h16v-123.3125l-100.6875-100.6875h-99.3125v-8c0-13.253906-10.746094-24-24-24h-176c-13.253906 0-24 10.746094-24 24v224c0 13.253906 10.746094 24 24 24h32v208h368v-112h-16zm-80-404.6875 68.6875 68.6875h-68.6875zm-312 188.6875v-224c0-4.417969 3.582031-8 8-8h176c4.417969 0 8 3.582031 8 8v224c0 4.417969-3.582031 8-8 8h-176c-4.417969 0-8-3.582031-8-8zm0 0"/>
        <path fill="#1c9cd9" d="m256 200h16v16h-16zm0 0"/>
        <path fill="#1c9cd9" d="m288 200h96v16h-96zm0 0"/>
        <path fill="#1c9cd9" d="m256 168h16v16h-16zm0 0"/>
        <path fill="#1c9cd9" d="m288 168h96v16h-96zm0 0"/>
        <path fill="#1c9cd9" d="m256 232h16v16h-16zm0 0"/>
        <path fill="#1c9cd9" d="m288 232h96v16h-96zm0 0"/>
        <path fill="#1c9cd9" d="m256 264h16v16h-16zm0 0"/>
        <path fill="#1c9cd9" d="m288 264h96v16h-96zm0 0"/>
        <path fill="#1c9cd9" d="m200 24h-176v56h176zm-16 40h-144v-24h144zm0 0"/>
        <path fill="#1c9cd9" d="m64 88h-16c-8.835938 0-16 7.164062-16 16v16c0 8.835938 7.164062 16 16 16h16c8.835938 0 16-7.164062 16-16v-16c0-8.835938-7.164062-16-16-16zm-16 32v-16h16v16zm0 0"/>
        <path fill="#1c9cd9" d="m120 88h-16c-8.835938 0-16 7.164062-16 16v16c0 8.835938 7.164062 16 16 16h16c8.835938 0 16-7.164062 16-16v-16c0-8.835938-7.164062-16-16-16zm-16 32v-16h16v16zm0 0"/>
        <path fill="#1c9cd9" d="m176 88h-16c-8.835938 0-16 7.164062-16 16v16c0 8.835938 7.164062 16 16 16h16c8.835938 0 16-7.164062 16-16v-16c0-8.835938-7.164062-16-16-16zm-16 32v-16h16v16zm0 0"/>
        <path fill="#1c9cd9" d="m64 144h-16c-8.835938 0-16 7.164062-16 16v16c0 8.835938 7.164062 16 16 16h16c8.835938 0 16-7.164062 16-16v-16c0-8.835938-7.164062-16-16-16zm-16 32v-16h16v16zm0 0"/>
        <path fill="#1c9cd9" d="m120 144h-16c-8.835938 0-16 7.164062-16 16v16c0 8.835938 7.164062 16 16 16h16c8.835938 0 16-7.164062 16-16v-16c0-8.835938-7.164062-16-16-16zm-16 32v-16h16v16zm0 0"/>
        <path fill="#1c9cd9" d="m176 144h-16c-8.835938 0-16 7.164062-16 16v16c0 8.835938 7.164062 16 16 16h16c8.835938 0 16-7.164062 16-16v-16c0-8.835938-7.164062-16-16-16zm-16 32v-16h16v16zm0 0"/>
        <path fill="#1c9cd9" d="m64 200h-16c-8.835938 0-16 7.164062-16 16v16c0 8.835938 7.164062 16 16 16h16c8.835938 0 16-7.164062 16-16v-16c0-8.835938-7.164062-16-16-16zm-16 32v-16h16v16zm0 0"/>
        <path fill="#1c9cd9" d="m120 200h-16c-8.835938 0-16 7.164062-16 16v16c0 8.835938 7.164062 16 16 16h16c8.835938 0 16-7.164062 16-16v-16c0-8.835938-7.164062-16-16-16zm-16 32v-16h16v16zm0 0"/>
        <path fill="#1c9cd9" d="m176 200h-16c-8.835938 0-16 7.164062-16 16v16c0 8.835938 7.164062 16 16 16h16c8.835938 0 16-7.164062 16-16v-16c0-8.835938-7.164062-16-16-16zm-16 32v-16h16v16zm0 0"/>
        <path fill="#1c9cd9" d="m472.734375 255.265625c-9.496094-9.066406-24.4375-9.066406-33.933594 0l-137.144531 137.140625c-.664062.671875-1.207031 1.453125-1.601562 2.3125l-19.3125 41.9375c-1.394532 3.039062-.75 6.628906 1.617187 8.992188 2.363281 2.367187 5.953125 3.011718 8.992187 1.617187l41.9375-19.3125c.859376-.394531 1.640626-.933594 2.3125-1.601563l137.132813-137.144531c9.375-9.371093 9.375-24.570312 0-33.941406zm-147.445313 158.75-20.960937 9.65625 9.65625-20.960937 102.253906-102.261719 11.3125 11.3125zm113.597657-113.601563-11.3125-11.308593 5.601562-5.601563 11.3125 11.3125zm22.5625-22.558593-5.65625 5.65625-11.3125-11.3125 5.664062-5.65625c3.160157-3.023438 8.140625-3.023438 11.304688 0 3.121093 3.125 3.121093 8.1875 0 11.3125zm0 0"/>
    </symbol>

    <symbol id="buy03" role="img" aria-labelledby="buy03_title" viewBox="-3 0 480 480">
        <title id="buy03_title"></title>
        <path d="m370.488281 88c0 8.835938 7.164063 16 16 16h80l-96-96zm0 0" fill="#7dd4fd"/>
        <path d="m228.808594 359.601562c18.316406-11.488281 33.792968-26.96875 45.28125-45.28125 27.898437-44.375 29.476562-100.40625 4.125-146.285156-25.351563-45.878906-73.628906-74.359375-126.046875-74.355468-79.527344 0-144 64.472656-144 144 0 79.53125 64.472656 144 144 144 27.128906.089843 53.71875-7.570313 76.640625-22.078126zm-130.320313-23.601562c-54.257812-29.582031-74.304687-97.515625-44.796875-151.816406 29.507813-54.296875 97.417969-74.433594 151.753906-45 54.339844 29.4375 74.566407 97.320312 45.203126 151.695312-10.28125 19.242188-26.039063 35-45.277344 45.28125-33.371094 17.988282-73.566406 17.929688-106.882813-.160156zm0 0" fill="#7dd4fd"/>
        <path d="m228.808594 359.601562 75.121094 75.039063c12.644531 11.453125 32.050781 10.976563 44.113281-1.085937 12.0625-12.066407 12.542969-31.472657 1.085937-44.113282l-75.039062-75.121094c-11.488282 18.3125-26.964844 33.792969-45.28125 45.28125zm0 0" fill="#7dd4fd"/>
        <path fill="#1c9cd9" d="m474.386719 103.496094c-.042969-.699219-.179688-1.394532-.410157-2.054688-.085937-.257812-.152343-.503906-.261718-.753906-.390625-.871094-.933594-1.664062-1.601563-2.34375l-96-96c-.679687-.671875-1.476562-1.214844-2.351562-1.601562-.238281-.109376-.480469-.175782-.726563-.261719-.679687-.234375-1.382812-.375-2.097656-.417969-.136719.0273438-.28125-.0625-.449219-.0625h-240c-22.078125.0273438-39.972656 17.917969-40 40v58.878906c-54.996093 24.253906-90.488281 78.691406-90.488281 138.800782 0 60.109374 35.492188 114.546874 90.488281 138.800781v63.519531c.027344 22.082031 17.921875 39.972656 40 40h304c22.082031-.027344 39.976563-17.917969 40-40v-336c0-.175781-.085937-.328125-.101562-.503906zm-27.210938-7.496094h-60.6875c-4.417969 0-8-3.582031-8-8v-60.6875zm-431.007812 141.679688c-.046875-36.085938 14.265625-70.703126 39.78125-96.21875 25.515625-25.515626 60.136719-39.828126 96.21875-39.78125 4.546875 0 9.058593.222656 13.511719.65625 61.859374 6.113281 111.644531 53.496093 120.808593 114.976562 1.0625 6.738281 1.621094 13.546875 1.671875 20.367188.058594 25.621093-7.183594 50.726562-20.871094 72.382812-10.855468 17.304688-25.484374 31.929688-42.792968 42.777344-41.910156 26.320312-94.808594 27.796875-138.121094 3.851562-43.3125-23.941406-70.199219-69.523437-70.207031-119.011718zm228.914062 120.175781c1.09375-.847657 2.175781-1.6875 3.246094-2.558594 3.949219-3.179687 7.730469-6.558594 11.335937-10.121094 3.5625-3.605469 6.941407-7.382812 10.121094-11.328125.871094-1.070312 1.710938-2.160156 2.558594-3.253906.96875-1.265625 2.019531-2.464844 2.945312-3.753906l68.199219 68.28125c4.515625 4.472656 7.058594 10.566406 7.058594 16.921875 0 6.359375-2.542969 12.449219-7.058594 16.925781-9.445312 9.128906-24.425781 9.128906-33.871093 0l-68.289063-68.167969c1.289063-.9375 2.496094-1.976562 3.753906-2.945312zm189.40625 106.144531h-304c-13.253906 0-24-10.746094-24-24v-57.273438c.496094.160157 1.015625.265626 1.519531.417969 1.28125.390625 2.578126.703125 3.875 1.0625 2.992188.800781 6.007813 1.601563 9.054688 2.199219 1.496094.3125 2.992188.601562 4.503906.867188 3.046875.535156 6.121094.957031 9.207032 1.3125 1.378906.15625 2.738281.351562 4.121093.46875 4.433594.378906 8.894531.625 13.398438.625 26.445312.019531 52.429687-6.902344 75.355469-20.078126l70.734374 70.664063c9.925782 10.863281 25.019532 15.402344 39.289063 11.808594 14.273437-3.589844 25.421875-14.726563 29.023437-28.996094 3.605469-14.269531-.917968-29.367187-11.777343-39.300781l-70.703125-70.746094c13.175781-22.925781 20.101562-48.910156 20.078125-75.351562 0-5.066407-.242188-10.09375-.734375-15.078126-3.414063-34.953124-18.886719-67.625-43.761719-92.410156-28.449219-28.601562-67.160156-44.628906-107.503906-44.511718-4.503907 0-8.964844.25-13.398438.625-1.382812.121093-2.753906.3125-4.128906.472656-3.078125.34375-6.136719.78125-9.183594 1.3125-1.519531.265625-3.035156.554687-4.542969.871094-3.007812.625-5.992187 1.359374-8.953124 2.175781-1.328126.359375-2.65625.679687-4 1.078125-.496094.152344-1 .257812-1.496094.417968v-52.632812c0-13.253906 10.746094-24 24-24h232.023437v72c0 13.253906 10.746094 24 24 24h72v328c0 13.253906-10.742187 24-24 24zm0 0"/>
        <path fill="#1c9cd9" d="m330.488281 56c0-4.417969-3.582031-8-8-8h-176c-4.417969 0-8 3.582031-8 8s3.582031 8 8 8h176c4.417969 0 8-3.582031 8-8zm0 0"/>
        <path fill="#1c9cd9" d="m418.488281 192h-96c-4.417969 0-8 3.582031-8 8s3.582031 8 8 8h96c4.417969 0 8-3.582031 8-8s-3.582031-8-8-8zm0 0"/>
        <path fill="#1c9cd9" d="m418.488281 240h-96c-4.417969 0-8 3.582031-8 8s3.582031 8 8 8h96c4.417969 0 8-3.582031 8-8s-3.582031-8-8-8zm0 0"/>
        <path fill="#1c9cd9" d="m426.488281 296c0-4.417969-3.582031-8-8-8h-104c-4.417969 0-8 3.582031-8 8s3.582031 8 8 8h104c4.417969 0 8-3.582031 8-8zm0 0"/>
        <path fill="#1c9cd9" d="m426.488281 344c0-4.417969-3.582031-8-8-8h-72c-4.417969 0-8 3.582031-8 8s3.582031 8 8 8h72c4.417969 0 8-3.582031 8-8zm0 0"/>
        <path fill="#1c9cd9" d="m330.488281 104c0-4.417969-3.582031-8-8-8h-64c-4.417969 0-8 3.582031-8 8s3.582031 8 8 8h64c4.417969 0 8-3.582031 8-8zm0 0"/>
        <path fill="#1c9cd9" d="m426.488281 152c0-4.417969-3.582031-8-8-8h-120c-4.417969 0-8 3.582031-8 8s3.582031 8 8 8h120c4.417969 0 8-3.582031 8-8zm0 0"/>
        <path fill="#1c9cd9" d="m122.488281 200h56c4.417969 0 8-3.582031 8-8s-3.582031-8-8-8h-56c-4.417969 0-8 3.582031-8 8s3.582031 8 8 8zm0 0"/>
        <path fill="#1c9cd9" d="m218.488281 240c0-4.417969-3.582031-8-8-8h-120c-4.417969 0-8 3.582031-8 8s3.582031 8 8 8h120c4.417969 0 8-3.582031 8-8zm0 0"/>
        <path fill="#1c9cd9" d="m178.488281 280h-56c-4.417969 0-8 3.582031-8 8s3.582031 8 8 8h56c4.417969 0 8-3.582031 8-8s-3.582031-8-8-8zm0 0"/>
        <path fill="#1c9cd9" d="m209.113281 343.199219c19.511719-10.390625 35.691407-26.085938 46.671875-45.269531.632813-1.105469 1.320313-2.175782 1.914063-3.296876.308593-.578124.550781-1.175781.847656-1.753906 1.214844-2.335937 2.398437-4.671875 3.445313-7.0625 1.050781-2.390625 1.875-4.664062 2.730468-7.015625.246094-.679687.558594-1.34375.800782-2.03125 20.34375-59.160156-8.171876-124.027343-65.515626-149.03125-57.347656-25.003906-124.28125-1.753906-153.78125 53.414063-9.285156 17.378906-14.121093 36.789062-14.074218 56.496094-.074219 42.28125 22.132812 81.472656 58.441406 103.136718 36.308594 21.667969 81.34375 22.601563 118.519531 2.460938zm-106.800781-14.253907c-8.707031-4.746093-16.683594-10.722656-23.6875-17.746093-4.859375-4.855469-9.230469-10.171875-13.054688-15.878907-1.890624-2.828124-3.628906-5.730468-5.226562-8.710937-24.078125-45.464844-11.320312-101.703125 30.019531-132.324219 41.339844-30.621094 98.855469-26.433594 135.328125 9.851563 32.300782 32.605469 39.566406 82.464843 17.917969 122.933593v.066407c-9.539063 17.847656-24.164063 32.460937-42.015625 41.992187-30.96875 16.824219-68.363281 16.765625-99.28125-.152344zm0 0"/>
        <path fill="#1c9cd9" d="m434.488281 384c-4.417969 0-8 3.582031-8 8v32c0 4.417969-3.582031 8-8 8h-32c-4.417969 0-8 3.582031-8 8s3.582031 8 8 8h32c13.257813 0 24-10.746094 24-24v-32c0-4.417969-3.582031-8-8-8zm0 0"/>
    </symbol>

    <symbol id="buy04" role="img" aria-labelledby="buy04_title" viewBox="0 0 483 483">
        <title id="buy04_title"></title>
        <path d="M89.1,184.9h32v80h47.6l0.4-56h32v56h48v-80h32l-96-80L89.1,184.9z" fill="#7dd4fd"/>
        <path d="M330,284.7c51.6-75,37.6-177-32.5-235.3C227.6-8.8,124.7-4.1,60.3,60.3S-8.8,227.6,49.4,297.6
            c58.3,70,160.3,84.1,235.3,32.5C302.4,317.8,317.8,302.4,330,284.7z M185.1,329.1c-79.5,0-144-64.5-144-144
            c0-79.5,64.5-144,144-144c79.5,0,144,64.5,144,144C329,264.6,264.6,329.1,185.1,329.1z" fill="#7dd4fd"/>
        <path d="M330,284.7c-12.2,17.7-27.6,33-45.3,45.3l135.6,135.6c12.5,12.5,32.8,12.5,45.3,0c12.5-12.5,12.5-32.8,0-45.3
            L330,284.7z" fill="#7dd4fd"/>
        <path fill="#1c9cd9" d="M249.1,169.9c-4.4,0-8,3.6-8,8v72h-32v-48c0-4.4-3.6-8-8-8h-32c-4.4,0-8,3.5-8,7.9l-0.3,48.1h-31.7v-72
            c0-4.4-3.6-8-8-8h-9.9l73.9-61.6l73.9,61.6H249.1z M286.2,171.7l-96-80c-3-2.5-7.3-2.5-10.2,0l-96,80c-2.6,2.2-3.6,5.7-2.4,8.9
            c1.1,3.2,4.2,5.3,7.5,5.3h24v72c0,4.4,3.6,8,8,8h47.6c4.4,0,8-3.5,8-7.9l0.3-48.1h16.1v48c0,4.4,3.6,8,8,8h48c4.4,0,8-3.6,8-8v-72
            h24c3.4,0,6.4-2.1,7.5-5.3C289.7,177.4,288.8,173.9,286.2,171.7z"/>
        <path fill="#1c9cd9" d="M337,185.1c0-83.9-68-152-152-152c-83.9,0-152,68.1-152,152c0,83.9,68.1,152,152,152C269,337,337,269,337,185.1
            z M49.1,185.1c0-75.1,60.9-136,136-136c75.1,0,136,60.9,136,136c0,75.1-60.9,136-136,136C110,321,49.1,260.1,49.1,185.1z"/>
        <path fill="#1c9cd9" d="M471.3,414.7l-131.1-131c50.5-79.4,33.2-184.1-40.2-243C226.6-18.3,120.6-12.5,54,54.1S-18.3,226.6,40.6,300
            c58.9,73.4,163.6,90.7,243,40.2l131.1,131.1c15.6,15.6,41,15.6,56.6,0C486.9,455.6,486.9,430.3,471.3,414.7z M17.1,185.1
            c0-72.3,46.1-136.5,114.7-159.4s144,0.5,187.5,58.2c43.5,57.7,45.2,136.8,4.2,196.3c-11.7,16.9-26.4,31.6-43.3,43.3
            c-51.4,35.4-118.2,39.4-173.4,10.3C51.6,304.7,17,247.5,17.1,185.1z M460,460c-9.4,9.3-24.6,9.3-34,0L297,331c1.3-1,2.5-2.1,3.7-3.1
            c1.1-0.9,2.2-1.8,3.3-2.7c3.8-3.2,7.5-6.5,11-10l0.2-0.2c3.5-3.5,6.8-7.2,10-11c0.9-1.1,1.8-2.2,2.7-3.3c1-1.3,2.1-2.4,3.1-3.7
            l129,129C469.3,435.4,469.3,450.6,460,460z"/>
    </symbol>

	<symbol id="quote01" role="img" aria-labelledby="quote01_title" viewBox="0 0 480 480">
        <title id="quote01_title"></title>
        <path fill="#7dd4fd" d="m456 312c-2.601562-1.96875-5.453125-3.582031-8.480469-4.800781 10.058594-14.691407 11.167969-33.738281 2.882813-49.5-8.28125-15.757813-24.597656-25.648438-42.402344-25.699219-2.683594-.003906-5.359375.238281-8 .722656v-.722656c0-26.507812-21.488281-48-48-48-26.507812 0-48 21.492188-48 48v.800781c-18.625 3.800781-32.003906 20.191407-32 39.199219-.019531 3.878906.546875 7.734375 1.679688 11.441406-10.847657 5.378906-17.703126 16.449219-17.679688 28.558594.007812 5.308594 1.328125 10.527344 3.839844 15.199219-7.515625 6.035156-11.871094 15.164062-11.839844 24.800781 0 17.675781 14.328125 32 32 32h64v-40h32v40h56c2.6875.019531 5.371094-.246094 8-.800781 15.433594-3.144531 27.582031-15.054688 31.035156-30.421875 3.453125-15.367188-2.433594-31.328125-15.035156-40.777344zm0 0"/>
        <path fill="#7dd4fd" d="m120 82.480469-32 19.839843-32 19.921876-48 29.757812v48l32-19.839844 45.359375-28.160156 154.640625-96 154.640625 96 45.359375 28.160156 32 19.839844v-48l-232-144zm0 0"/>
        <path fill="#7dd4fd" d="m376 344h-32v128h32zm0 0"/>
        <path fill="#7dd4fd" d="m88 248h112v224h-112zm0 0"/>
        <path fill="#7dd4fd" d="m120 48h-32v54.320312l32-19.839843zm0 0"/>
        <path fill="#7dd4fd" d="m240 112c-22.089844 0-40 17.910156-40 40h40zm0 0"/>
        <path fill="#7dd4fd" d="m240 192c22.09375 0 40-17.90625 40-40h-40zm0 0"/>
        <path fill="#7dd4fd" d="m200 152c0 22.09375 17.910156 40 40 40v-40zm0 0"/>
        <path fill="#7dd4fd" d="m240 112v40h40c0-22.089844-17.90625-40-40-40zm0 0"/>
        <path fill="#1c9cd9" d="m467.785156 206.800781c2.46875 1.53125 5.570313 1.601563 8.105469.191407 2.539063-1.414063 4.109375-4.085938 4.109375-6.992188v-48c0-2.769531-1.429688-5.339844-3.785156-6.800781l-232-144c-2.582032-1.597657-5.847656-1.597657-8.429688 0l-107.785156 66.90625v-20.105469c0-4.417969-3.582031-8-8-8h-32c-4.417969 0-8 3.582031-8 8v49.898438l-76.214844 47.300781c-2.355468 1.460937-3.785156 4.03125-3.785156 6.800781v48c0 2.90625 1.574219 5.578125 4.109375 6.992188 2.535156 1.410156 5.640625 1.339843 8.105469-.191407l19.785156-12.28125v277.480469c0 4.417969 3.582031 8 8 8h400c4.417969 0 8-3.582031 8-8v-82.855469c16.679688-5.875 28.765625-20.457031 31.445312-37.933593 2.675782-17.480469-4.492187-35.011719-18.644531-45.609376-.753906-.558593-1.519531-.992187-2.28125-1.496093 10.15625-21.152344 5.949219-46.40625-10.519531-63.121094v-46.464844zm-371.785156-150.800781h16v22.023438l-16 9.929687zm-80 100.457031 224-139.039062 224 139.03125v29.152343l-219.785156-136.402343c-2.582032-1.597657-5.847656-1.597657-8.429688 0l-219.785156 136.402343zm80 307.542969v-208h96v208zm256 0v-112h16v112zm80 0h-48v-72h48zm32-120c-.027344 15.238281-10.769531 28.355469-25.703125 31.386719-2.070313.425781-4.183594.632812-6.296875.613281h-48v-32c0-4.417969-3.582031-8-8-8h-32c-4.417969 0-8 3.582031-8 8v32h-56c-13.253906 0-24-10.742188-24-24 .03125-4.257812 1.207031-8.425781 3.410156-12.070312 7.515625 7.707031 17.824219 12.058593 28.589844 12.070312.988281.019531 1.972656-.082031 2.9375-.304688 4.15625-.996093 6.792969-5.085937 5.988281-9.285156-.808593-4.199218-4.773437-7.023437-9.003906-6.410156-13.226563-.042969-23.921875-10.773438-23.921875-24 0-1.128906.078125-2.257812.234375-3.375 1.09375-7.835938 6.019531-14.613281 13.132813-18.078125 1.695312-.875 3.492187-1.527344 5.351562-1.9375h.074219c5.679687-1.253906 11.621093-.398437 16.71875 2.398437 3.855469 2.167969 8.734375.800782 10.902343-3.050781 2.164063-3.851562.800782-8.734375-3.054687-10.898437-5.765625-3.160156-12.222656-4.847656-18.800781-4.914063-.191406 0-.359375-.113281-.558594-.113281-.75 0-1.472656.1875-2.214844.226562-1.359375.070313-2.703125.207032-4 .40625-.5625.089844-1.136718.058594-1.6875.167969 0-.269531-.058594-.527343-.058594-.800781.03125-15.242188 10.78125-28.359375 25.722657-31.382812 2.050781-.4375 4.140625-.65625 6.238281-.648438 6.816406-.019531 13.457031 2.160156 18.9375 6.210938 3.558594 2.617187 8.566406 1.855468 11.1875-1.703126 2.621094-3.558593 1.859375-8.566406-1.699219-11.1875-7.988281-5.875-17.609375-9.109374-27.519531-9.246093h-.097656c.046875-.226563.144531-.433594.191406-.648438.488281-2.1875 1.15625-4.328125 2-6.402343.320312-.796876.753906-1.488282 1.113281-2.238282.679688-1.453125 1.445313-2.863281 2.296875-4.222656.511719-.800781 1.09375-1.539062 1.664063-2.289062.875-1.191407 1.820312-2.335938 2.824219-3.425782.671874-.710937 1.375-1.382812 2.09375-2.046875 1.070312-.984375 2.195312-1.914062 3.367187-2.777343.800781-.582032 1.601563-1.148438 2.402344-1.679688 1.273437-.785156 2.589843-1.5 3.941406-2.144531.847656-.40625 1.679687-.847657 2.570313-1.199219 1.550781-.589844 3.136718-1.082031 4.75-1.480469.800781-.199219 1.554687-.476562 2.402343-.636719 5.132813-1.078124 10.429688-1.105468 15.574219-.082031.847656.167969 1.601562.527344 2.402344.753907 1.714844.417968 3.402344.953124 5.046875 1.597656.878906.375 1.648437.921875 2.488281 1.34375 1.476562.695312 2.910156 1.472656 4.296875 2.335937.796875.5625 1.535156 1.289063 2.324219 1.90625 1.25.917969 2.449218 1.910157 3.585937 2.964844.761719.753906 1.351563 1.648437 2.046875 2.457031 1.011719 1.09375 1.957032 2.242188 2.839844 3.441406.632812.925782 1.074219 1.976563 1.601562 2.960938.765626 1.226562 1.457032 2.496094 2.070313 3.804688.457031 1.066406.707031 2.234374 1.066406 3.355468.503907 1.347656.929688 2.722656 1.277344 4.117188.25 1.160156.257813 2.402344.394531 3.59375.238282 1.472656.386719 2.957031.445313 4.449218-.035157.289063-.058594.578126-.0625.871094-.046875 7.355469-2.195313 14.546875-6.191407 20.726563-2.371093 3.746093-1.253906 8.707031 2.492188 11.078125 3.746094 2.367187 8.707031 1.253906 11.074219-2.492188 4.246093-6.671875 7.015625-14.175781 8.113281-22.007812.230469 0 .433594-.058594.664062-.058594 13.792969.007812 26.605469 7.117188 33.910157 18.816406 7.304687 11.699219 8.066406 26.335938 2.019531 38.730469-.738281-.1875-1.480469-.425781-2.210938-.554687-3.1875-.675782-6.4375-1.007813-9.695312-.992188-15.144531-.058594-29.417969 7.085938-38.449219 19.25-2.648437 3.535156-1.933593 8.546875 1.601563 11.199219 3.535156 2.652343 8.550781 1.933593 11.199218-1.601563 6.019532-8.117187 15.542969-12.890625 25.648438-12.847656 2.207031-.015625 4.410156.210938 6.570312.671875 2.082032.390625 4.101563 1.054687 6.015626 1.96875 2.355468.953125 4.574218 2.214844 6.597656 3.753906 8.039062 6.0625 12.78125 15.535157 12.816406 25.605469zm-32-159.390625v44.800781c-.34375-.167968-.710938-.28125-1.054688-.441406-1.304687-.582031-2.625-1.136719-4-1.601562-.6875-.253907-1.386718-.46875-2.089843-.695313-1.09375-.351563-2.207031-.664063-3.328125-.941406-.847656-.21875-1.695313-.425781-2.550782-.601563-.992187-.199218-2-.34375-3-.488281s-1.839843-.296875-2.769531-.382813c-1.710937-.167968-3.453125-.257812-5.207031-.257812h-.207031c-.121094 0-.242188 0-.359375 0-.089844-.605469-.242188-1.199219-.34375-1.808594-.136719-.796875-.273438-1.527344-.441406-2.277344-.222657-1.015624-.496094-2.007812-.800782-2.992187-.199218-.710937-.382812-1.433594-.605468-2.128906-.335938-1.03125-.730469-2.039063-1.121094-3.046875-.25-.617188-.457032-1.25-.71875-1.855469-.503906-1.160156-1.066406-2.28125-1.640625-3.394531-.21875-.429688-.410157-.871094-.632813-1.285156-.800781-1.523438-1.738281-3-2.695312-4.425782-.191406-.296875-.425782-.558594-.625-.847656-.800782-1.128906-1.601563-2.234375-2.464844-3.296875-.382812-.472656-.800781-.910156-1.207031-1.367187-.726563-.839844-1.464844-1.671876-2.238281-2.472657-.480469-.480469-.984376-.9375-1.480469-1.40625-.753907-.714843-1.511719-1.425781-2.3125-2.097656-.546875-.464844-1.105469-.894531-1.664063-1.335937-.800781-.625-1.601562-1.230469-2.402344-1.816407-.605468-.421875-1.214843-.800781-1.839843-1.222656-.796875-.535156-1.679688-1.058594-2.542969-1.554687-.648438-.367188-1.304688-.71875-1.96875-1.0625-.886719-.464844-1.789062-.894532-2.703125-1.3125-.679687-.304688-1.351563-.605469-2.039063-.886719-.953124-.382813-1.921874-.726563-2.898437-1.054688-.6875-.242187-1.367187-.488281-2.070313-.699219-1.03125-.300781-2.078124-.550781-3.128906-.796874-.679687-.160157-1.351562-.335938-2.039062-.472657-1.175782-.234375-2.398438-.394531-3.566406-.554687-.59375-.070313-1.167969-.183594-1.769532-.238282-1.792968-.183593-3.625-.289062-5.472656-.289062s-3.726562.105469-5.597656.28125c-.609375.0625-1.203125.183594-1.800782.265625-1.210937.15625-2.402343.308594-3.601562.550781-.703125.136719-1.382812.335938-2.070312.496094-1.066407.253906-2.121094.503906-3.199219.800781-.714844.214844-1.410157.480469-2.113281.726563-.976563.335937-1.953126.671875-2.90625 1.0625-.710938.296875-1.398438.625-2.09375.945312-.90625.417969-1.808594.800782-2.6875 1.296875-.695313.367188-1.359376.757813-2.03125 1.152344-.851563.496094-1.691407.992187-2.507813 1.519531-.652344.429688-1.285156.878906-1.925781 1.335938-.800782.566406-1.601563 1.136718-2.3125 1.734375-.617188.488281-1.214844.992187-1.808594 1.503906-.722656.636719-1.4375 1.285156-2.136719 1.945313-.566406.542968-1.117187 1.097656-1.664062 1.664062-.664063.695312-1.300781 1.398438-1.933594 2.128906-.511719.597656-1.023437 1.199219-1.511719 1.816406-.601562.75-1.167968 1.519532-1.722656 2.300782-.460938.640625-.917969 1.289062-1.351562 1.945312-.527344.800782-1.015626 1.601563-1.496094 2.472656-.398438.679688-.796875 1.367188-1.175782 2.070313-.445312.859375-.855468 1.738281-1.261718 2.617187-.335938.71875-.679688 1.441407-.984375 2.175782-.367188.90625-.6875 1.839844-1.007813 2.769531-.265625.75-.554687 1.496094-.800781 2.261719-.296875.960937-.519531 1.953125-.761719 2.9375-.183594.800781-.398437 1.511718-.550781 2.289062-.207031 1.046875-.34375 2.117188-.488281 3.199219-.105469.742187-.246094 1.472656-.320313 2.222656v.144531c-.335937.121094-.640625.304688-.976562.425782-1.03125.390625-2.007813.863281-3 1.320312-1.40625.628906-2.789063 1.285156-4.117188 2.046875-.960937.558594-1.875 1.167969-2.792969 1.792969-1.25.796875-2.457031 1.703125-3.617187 2.644531-.855469.707031-1.671875 1.433594-2.480469 2.195313-1.085937 1.023437-2.109375 2.085937-3.09375 3.199218-.730468.800782-1.441406 1.597657-2.113281 2.511719-.917969 1.199219-1.75 2.457031-2.558594 3.734375-.570312.90625-1.152343 1.800782-1.664062 2.746094-.734375 1.394531-1.398438 2.824219-1.984375 4.285156-.402344.945313-.800782 1.859375-1.167969 2.824219-.550781 1.664063-1.007813 3.359375-1.367187 5.074219-.195313.855468-.464844 1.679687-.617188 2.542968-.894531 5.074219-.9375 10.261719-.128906 15.351563v.25c-1.207032.867187-2.363282 1.804687-3.464844 2.808594-.109375.09375-.222656.183593-.328125.285156-1.214844 1.121094-2.359375 2.3125-3.421875 3.578125-.367188.4375-.6875.902344-1.03125 1.351562-.699219.902344-1.378906 1.816407-1.992188 2.765626-.351562.554687-.671874 1.121093-1 1.691406-.527343.917968-1.023437 1.847656-1.480468 2.804687-.289063.609375-.554688 1.226563-.800782 1.851563-.40625.980468-.761718 1.988281-1.089843 3.015625-.199219.621093-.40625 1.238281-.574219 1.871093-.304688 1.136719-.527344 2.289063-.726562 3.449219-.097657.550781-.226563 1.09375-.296876 1.652344-.535156 3.753906-.488281 7.5625.144532 11.296875.085937.578125.214844 1.144531.328125 1.714844.300781 1.519531.691406 3.023437 1.167969 4.503906.109374.335938.152343.6875.261718 1.023438-.152344.167968-.253906.367187-.40625.535156-1.453125 1.632812-2.769531 3.382812-3.9375 5.230468-.054687.089844-.09375.175782-.144531.265626-1.078125 1.789062-2.011719 3.660156-2.789063 5.601562-.152343.367188-.3125.726562-.449218 1.09375-.738282 1.980469-1.3125 4.015625-1.71875 6.089844-.089844.414062-.144532.796875-.21875 1.246094-.359375 2.214843-.535156 4.453124-.527344 6.695312.027344 22.082031 17.921875 39.976562 40 40h56v72h-128v-216c0-4.417969-3.582031-8-8-8h-112c-4.417969 0-8 3.582031-8 8v216h-32v-279.390625l192-119.199219zm0 0"/>
        <path fill="#1c9cd9" d="m240 200c26.511719 0 48-21.488281 48-48 0-26.507812-21.488281-48-48-48-26.507812 0-48 21.492188-48 48 .027344 26.5 21.5 47.976562 48 48zm-30.863281-40h22.863281v22.863281c-11.195312-2.925781-19.9375-11.667969-22.863281-22.863281zm38.863281 22.863281v-22.863281h22.863281c-2.925781 11.195312-11.667969 19.9375-22.863281 22.863281zm22.863281-38.863281h-22.863281v-22.863281c11.195312 2.925781 19.9375 11.667969 22.863281 22.863281zm-38.863281-22.863281v22.863281h-22.863281c2.925781-11.195312 11.667969-19.9375 22.863281-22.863281zm0 0"/>
    </symbol>

    <symbol id="quote02" role="img" aria-labelledby="quote02_title" viewBox="0 -19 480 480">
        <title id="quote02_title"></title>
        <path d="m360 369.394531v-48h-48v48zm-192-48h-48v48h48zm120-16h-96v128h-64c.003906-19.011719-13.375-35.398437-32-39.199219v-200.800781h288v172.320313c-9.914062 5.6875-16.019531 16.25-16 27.679687.027344 2.734375.433594 5.453125 1.199219 8.082031-.398438 0-.800781-.082031-1.199219-.082031-17.671875 0-32 14.328125-32 32h-48zm-88-24h80c4.417969 0 8-3.582031 8-8v-32c0-4.417969-3.582031-8-8-8h-80c-4.417969 0-8 3.582031-8 8v32c0 4.417969 3.582031 8 8 8zm0 0" fill="#7dd4fd"/>
        <path d="m275.28125 92.675781c-2.964844 3.039063-7.035156 4.742188-11.28125 4.71875h-16v-32h16c8.824219.027344 15.972656 7.175781 16 16 .023438 4.246094-1.679688 8.316407-4.71875 11.28125zm0 0" fill="#7dd4fd"/>
        <path d="m352 161.394531h-112c-8.824219-.027343-15.972656-7.175781-16-16v-96c.027344-8.824219 7.175781-15.972656 16-16h208c8.824219.027344 15.972656 7.175781 16 16v96c-.027344 8.824219-7.175781 15.972657-16 16zm-88-64c8.808594-.066406 15.933594-7.191406 16-16-.027344-8.824219-7.175781-15.972656-16-16h-16v32zm0 0" fill="#7dd4fd"/>
        <path fill="#1c9cd9" d="m168 313.394531h-48c-4.417969 0-8 3.582031-8 8v48c0 4.417969 3.582031 8 8 8h48c4.417969 0 8-3.582031 8-8v-48c0-4.417969-3.582031-8-8-8zm-8 48h-32v-32h32zm0 0"/>
        <path fill="#1c9cd9" d="m280 225.394531h-80c-8.835938 0-16 7.164063-16 16v32c0 8.835938 7.164062 16 16 16h80c8.835938 0 16-7.164062 16-16v-32c0-8.835937-7.164062-16-16-16zm0 24h-32v-8h32zm-48-8v8h-32v-8zm-32 24h32v8h-32zm48 8v-8h32v8zm0 0"/>
        <path fill="#1c9cd9" d="m439.304688 385.945312c-1.992188-10.519531-8.117188-19.804687-17.011719-25.769531-8.890625-5.96875-19.800781-8.121093-30.292969-5.980469v-141.488281l14.34375 14.34375c9.75 9.75 25.5625 9.75 35.3125 0s9.75-25.5625 0-35.3125l-22.34375-22.34375h28.6875c13.253906 0 24-10.746093 24-24v-96c0-13.253906-10.746094-24-24-24h-172.6875l-18.402344-18.398437c-9.363281-9.328125-24.503906-9.328125-33.871094 0l-184.695312 184.742187c-9.75 9.75-9.75 25.5625 0 35.3125s25.5625 9.75 35.3125 0l14.34375-14.34375v167.742188c-8.710938-10.105469-22.800781-13.714844-35.296875-9.039063-12.5 4.671875-20.761719 16.640625-20.703125 29.984375-17.671875 0-32 14.328125-32 32 0 4.417969 3.582031 8 8 8h464c4.417969 0 8-3.582031 8-8-.03125-23.679687-17.296875-43.8125-40.695312-47.449219zm-71.367188-16.222656c0-.113281.0625-.207031.0625-.328125v-48c0-4.417969-3.582031-8-8-8h-48c-4.417969 0-8 3.582031-8 8v48c0 4.417969 3.582031 8 8 8h48c1.457031-.035156 2.875-.484375 4.089844-1.289062-2.660156 5.378906-4.058594 11.292969-4.089844 17.289062v.800781c-15.675781 3.246094-27.914062 15.515626-31.121094 31.199219h-32.878906v-120c0-4.417969-3.582031-8-8-8h-96c-4.417969 0-8 3.582031-8 8v120h-48.710938c-2.933593-17.152343-14.898437-31.382812-31.289062-37.214843v-186.785157h272v160.207031c-3.0625 2.308594-5.777344 5.042969-8.0625 8.121094zm-15.9375-40.328125v32h-32v-32zm78.34375-126.34375c3.496094 3.507813 3.496094 9.183594 0 12.6875-3.511719 3.488281-9.175781 3.488281-12.6875 0l-46.34375-46.34375h25.375zm25.65625-153.65625v96c0 4.417969-3.582031 8-8 8h-208c-4.417969 0-8-3.582031-8-8v-96c0-4.417969 3.582031-8 8-8h208c4.417969 0 8 3.582031 8 8zm-393.65625 166.34375c-3.507812 3.496094-9.179688 3.496094-12.6875 0-3.488281-3.507812-3.488281-9.175781 0-12.6875l184.742188-184.71875c3.117187-3.082031 8.132812-3.082031 11.25 0l7.0625 7.0625h-12.710938c-13.253906 0-24 10.746094-24 24v12.6875zm153.65625-131.03125v60.6875c0 13.253907 10.746094 24 24 24h108.6875l16 16h-249.375zm-197.847656 340.6875c4.207031-7.230469 13.289062-9.980469 20.800781-6.296875 3.070313 1.519532 6.769531.910156 9.191406-1.511718 2.425781-2.421876 3.039063-6.117188 1.527344-9.191407-1.089844-2.171875-1.660156-4.570312-1.671875-7-.023438-7.800781 5.601562-14.472656 13.296875-15.769531 7.691406-1.296875 15.195313 3.167969 17.726563 10.546875 1.101562 3.367187 4.335937 5.570313 7.871093 5.359375.375.003906.746094-.039062 1.105469-.136719 14.585938.015625 27.320312 9.882813 30.984375 24zm181.847656 0v-112h80v112zm145.367188 0c3.285156-9.453125 12.128906-15.847656 22.136718-16 .273438 0 1.082032.121094 1.351563.128907 2.535156.097656 4.96875-1.011719 6.558593-2.992188 1.585938-1.980469 2.140626-4.59375 1.488282-7.046875-.5625-1.984375-.867188-4.03125-.902344-6.089844 0-13.253906 10.746094-24 24-24s24 10.746094 24 24c0 4.417969 3.582031 8 8 8 14.585938.015625 27.320312 9.882813 30.984375 24zm0 0"/>
        <path fill="#1c9cd9" d="m224 337.394531h-16v16h8v16h-8v16h16c4.417969 0 8-3.582031 8-8v-32c0-4.417969-3.582031-8-8-8zm0 0"/>
        <path fill="#1c9cd9" d="m240 137.394531h16v-32c9.011719.667969 15.988281 8.171875 16 17.207031v14.792969h16v-14.75c-.015625-8.421875-3.246094-16.515625-9.03125-22.632812 7.96875-6.335938 11.050781-17.027344 7.679688-26.632813-3.375-9.609375-12.464844-16.023437-22.648438-15.984375h-16c-4.417969 0-8 3.582031-8 8zm16-64h8c4.417969 0 8 3.582031 8 8s-3.582031 8-8 8h-8zm0 0"/>
        <path fill="#1c9cd9" d="m304 137.394531h32v-16h-24v-16h16v-16h-16v-16h24v-16h-32c-4.417969 0-8 3.582031-8 8v64c0 4.417969 3.582031 8 8 8zm0 0"/>
        <path fill="#1c9cd9" d="m360 99.28125 16.800781 33.691406c1.632813 3.371094 5.386719 5.15625 9.03125 4.300782 3.648438-.859376 6.210938-4.132813 6.167969-7.878907v-72h-16v38.113281l-16.800781-33.6875c-1.632813-3.375-5.386719-5.160156-9.03125-4.300781-3.648438.855469-6.210938 4.128907-6.167969 7.875v72h16zm0 0"/>
        <path fill="#1c9cd9" d="m416 137.394531h16v-64h16v-16h-48v16h16zm0 0"/>
    </symbol>

    <symbol id="quote03" role="img" aria-labelledby="quote03_title" viewBox="0 0 64 64">
        <title id="quote03_title"></title>
        <path d="m31 45a2 2 0 0 1 -2-2h-19.53a4 4 0 0 0 -3.96 3.43l-.86 6a4.008 4.008 0 0 0 3.96 4.57h32.78a4.008 4.008 0 0 0 3.96-4.57l-.86-6a3.7 3.7 0 0 0 -.5-1.43zm-18 7a2 2 0 1 1 2-2 2 2 0 0 1 -2 2zm17 0h-10l-1-3h12zm7 0a2 2 0 1 1 2-2 2 2 0 0 1 -2 2z" fill="#7dd4fd"/>
        <path d="m45 31h16v-14h-16zm12-5a1 1 0 1 1 -1-1 1 1 0 0 1 1 1zm-7 1 6-6zm0-6a1 1 0 1 1 -1 1 1 1 0 0 1 1-1z" fill="#7dd4fd"/>
        <path d="m29 31v12a2 2 0 0 0 2 2h8v-14z" fill="#7dd4fd"/>
        <path d="m31 3a2 2 0 0 0 -2 2v12h10v-14z" fill="#7dd4fd"/>
        <circle cx="50" cy="22" fill="#7dd4fd" r="1"/>
        <circle cx="56" cy="26" fill="#7dd4fd" r="1"/>
        <path d="m9.245 37.717a2 2 0 0 0 -1.98-1.717h-2.265a2 2 0 0 0 -2 2v1a2 2 0 0 0 2 2h2l2 2h1z" fill="#7dd4fd"/>
        <path d="m9 59a2 2 0 0 0 2 2h4a2 2 0 0 0 2-2v-2h-8z" fill="#7dd4fd"/>
        <path d="m33 59a2 2 0 0 0 2 2h4a2 2 0 0 0 2-2v-2h-8z" fill="#7dd4fd"/>
        <path fill="#1c9cd9" d="m33 5v1a2 2 0 0 0 -2 2v1a2 2 0 0 0 2 2h2v1h-3a1 1 0 0 0 0 2h1v1a1 1 0 0 0 2 0v-1a2 2 0 0 0 2-2v-1a2 2 0 0 0 -2-2h-2v-1h3a1 1 0 0 0 0-2h-1v-1a1 1 0 0 0 -2 0z"/>
        <path fill="#1c9cd9" d="m42.586 10-.707.707a1 1 0 1 0 1.414 1.414l.707-.707.707.707a1 1 0 1 0 1.414-1.414l-.707-.707.707-.707a1 1 0 1 0 -1.414-1.414l-.707.707-.707-.707a1 1 0 1 0 -1.414 1.414z"/>
        <path fill="#1c9cd9" d="m47.879 12.121a1 1 0 0 0 1.414 0l.707-.707.707.707a1 1 0 1 0 1.414-1.414l-.707-.707.707-.707a1 1 0 1 0 -1.414-1.414l-.707.707-.707-.707a1 1 0 1 0 -1.414 1.414l.707.707-.707.707a1 1 0 0 0 0 1.414z"/>
        <path fill="#1c9cd9" d="m35 43v-1a2 2 0 0 0 2-2v-1a2 2 0 0 0 -2-2h-2v-1h3a1 1 0 0 0 0-2h-1v-1a1 1 0 0 0 -2 0v1a2 2 0 0 0 -2 2v1a2 2 0 0 0 2 2h2v1h-3a1 1 0 0 0 0 2h1v1a1 1 0 0 0 2 0z"/>
        <path fill="#1c9cd9" d="m42.586 38-.707.707a1 1 0 1 0 1.414 1.414l.707-.707.707.707a1 1 0 0 0 1.414-1.414l-.707-.707.707-.707a1 1 0 0 0 -1.414-1.414l-.707.707-.707-.707a1 1 0 0 0 -1.414 1.414z"/>
        <path fill="#1c9cd9" d="m47.879 40.121a1 1 0 0 0 1.414 0l.707-.707.707.707a1 1 0 0 0 1.414-1.414l-.707-.707.707-.707a1 1 0 0 0 -1.414-1.414l-.707.707-.707-.707a1 1 0 0 0 -1.414 1.414l.707.707-.707.707a1 1 0 0 0 0 1.414z"/>
        <path fill="#1c9cd9" d="m53.879 40.121a1 1 0 0 0 1.414 0l.707-.707.707.707a1 1 0 0 0 1.414-1.414l-.707-.707.707-.707a1 1 0 0 0 -1.414-1.414l-.707.707-.707-.707a1 1 0 0 0 -1.414 1.414l.707.707-.707.707a1 1 0 0 0 0 1.414z"/>
        <path fill="#1c9cd9" d="m59 2h-28a3 3 0 0 0 -3 3v23h-7.33a11.067 11.067 0 0 0 -10.737 8.648 3.01 3.01 0 0 0 -2.667-1.648h-2.266a3 3 0 0 0 -3 3v1a3 3 0 0 0 3 3h1.586l.585.585a4.99 4.99 0 0 0 -2.651 3.7l-.86 6a5 5 0 0 0 4.34 5.674v1.041a3 3 0 0 0 3 3h4a3 3 0 0 0 3-3v-1h14v1a3 3 0 0 0 3 3h4a3 3 0 0 0 3-3v-1.041a5 5 0 0 0 4.34-5.67l-.859-5.989c-.013-.1-.05-.2-.07-.3h13.589a3 3 0 0 0 3-3v-38a3 3 0 0 0 -3-3zm-25 42h-3a1 1 0 0 1 -1-1v-11h8v12zm-4-14v-12h14v12zm16-12h14v12h-14zm14-13v11h-20v-12h19a1 1 0 0 1 1 1zm-30 0a1 1 0 0 1 1-1h7v12h-8zm-18.24 32.732a9.056 9.056 0 0 1 8.91-7.732h7.33v12h-16.848zm-6.76 2.268a1 1 0 0 1 -1-1v-1a1 1 0 0 1 1-1h2.266a1 1 0 0 1 .989.859l.5 3.479-1.048-1.045a1 1 0 0 0 -.707-.293zm11 19a1 1 0 0 1 -1 1h-4a1 1 0 0 1 -1-1v-1h6zm24 0a1 1 0 0 1 -1 1h-4a1 1 0 0 1 -1-1v-1h6zm3.5-12.428.859 6a3.007 3.007 0 0 1 -2.969 3.428h-32.78a3.007 3.007 0 0 1 -2.969-3.428l.859-6a3.01 3.01 0 0 1 2.97-2.572h18.714a3 3 0 0 0 2.816 2h12.361a2.88 2.88 0 0 1 .139.572zm16.5-3.572a1 1 0 0 1 -1 1h-19v-12h20z"/>
        <path fill="#1c9cd9" d="m56.707 20.293a1 1 0 0 0 -1.414 0l-6 6a1 1 0 1 0 1.414 1.414l6-6a1 1 0 0 0 0-1.414z"/>
        <circle fill="#1c9cd9" cx="50" cy="22" r="2"/>
        <circle fill="#1c9cd9" cx="56" cy="26" r="2"/>
        <path fill="#1c9cd9" d="m13 47a3 3 0 1 0 3 3 3 3 0 0 0 -3-3zm0 4a1 1 0 1 1 1-1 1 1 0 0 1 -1 1z"/>
        <path fill="#1c9cd9" d="m37 53a3 3 0 1 0 -3-3 3 3 0 0 0 3 3zm0-4a1 1 0 1 1 -1 1 1 1 0 0 1 1-1z"/>
        <path fill="#1c9cd9" d="m19 48a1 1 0 0 0 -.948 1.316l1 3a1 1 0 0 0 .948.684h10a1 1 0 0 0 .948-.684l1-3a1 1 0 0 0 -.948-1.316zm10.279 3h-8.558l-.333-1h9.224z"/>
        <path fill="#1c9cd9" d="m20.707 32.293a1 1 0 0 0 -1.414 0l-5 5a1 1 0 1 0 1.414 1.414l5-5a1 1 0 0 0 0-1.414z"/>
        <path fill="#1c9cd9" d="m25.707 32.293a1 1 0 0 0 -1.414 0l-5 5a1 1 0 1 0 1.414 1.414l5-5a1 1 0 0 0 0-1.414z"/>
        <path fill="#1c9cd9" d="m19 16a7 7 0 1 0 -7-7 7.008 7.008 0 0 0 7 7zm0-12a5 5 0 1 1 -5 5 5.006 5.006 0 0 1 5-5z"/>
        <path fill="#1c9cd9" d="m18 12a1 1 0 0 0 .707-.293l3.535-3.536a1 1 0 1 0 -1.414-1.414l-2.828 2.829-1.414-1.414a1 1 0 0 0 -1.414 1.414l2.121 2.121a1 1 0 0 0 .707.293z"/>
        <path fill="#1c9cd9" d="m36.121 21.879a1 1 0 0 0 -1.414 0l-.707.707-.707-.707a1 1 0 1 0 -1.414 1.414l.707.707-.707.707a1 1 0 1 0 1.414 1.414l.707-.707.707.707a1 1 0 1 0 1.414-1.414l-.707-.707.707-.707a1 1 0 0 0 0-1.414z"/>
        <path fill="#1c9cd9" d="m41.414 24 .707-.707a1 1 0 1 0 -1.414-1.414l-.707.707-.707-.707a1 1 0 1 0 -1.414 1.414l.707.707-.707.707a1 1 0 1 0 1.414 1.414l.707-.707.707.707a1 1 0 1 0 1.414-1.414z"/>
    </symbol>

    <symbol id="quote04" role="img" aria-labelledby="quote04_title" viewBox="-48 0 480 480">
        <title id="quote04_title"></title>
        <path d="m376 56h-80v32h48v352h-304v-352h48v-32h-80v416h368zm0 0" fill="#7dd4fd"/>
        <path d="m208 296h-32v40h-40v32h40v40h32v-40h40v-32h-40zm0 0" fill="#7dd4fd"/>
        <path d="m88 104h208v-48c-.027344-8.824219-7.175781-15.972656-16-16h-48c.011719-8.488281-3.355469-16.636719-9.359375-22.640625s-14.152344-9.371094-22.640625-9.359375h-16c-17.671875 0-32 14.328125-32 32h-48c-8.824219.027344-15.972656 7.175781-16 16zm104-56c8.835938 0 16 7.164062 16 16s-7.164062 16-16 16-16-7.164062-16-16c.027344-8.824219 7.175781-15.972656 16-16zm0 0" fill="#7dd4fd"/>
        <path fill="#1c9cd9" d="m216 416h-48v-40h-40v-48h40v-40h48v40h40v48h-40zm-32-16h16v-40h40v-16h-40v-40h-16v40h-40v16h40zm0 0"/>
        <path fill="#1c9cd9" d="m104 192h-16c-4.417969 0-8-3.582031-8-8s3.582031-8 8-8h16c4.417969 0 8 3.582031 8 8s-3.582031 8-8 8zm0 0"/>
        <path fill="#1c9cd9" d="m296 192h-168c-4.417969 0-8-3.582031-8-8s3.582031-8 8-8h168c4.417969 0 8 3.582031 8 8s-3.582031 8-8 8zm0 0"/>
        <path fill="#1c9cd9" d="m128 256h-40c-4.417969 0-8-3.582031-8-8s3.582031-8 8-8h40c4.417969 0 8 3.582031 8 8s-3.582031 8-8 8zm0 0"/>
        <path fill="#1c9cd9" d="m296 256h-144c-4.417969 0-8-3.582031-8-8s3.582031-8 8-8h144c4.417969 0 8 3.582031 8 8s-3.582031 8-8 8zm0 0"/>
        <path fill="#1c9cd9" d="m248 224h-160c-4.417969 0-8-3.582031-8-8s3.582031-8 8-8h160c4.417969 0 8 3.582031 8 8s-3.582031 8-8 8zm0 0"/>
        <path fill="#1c9cd9" d="m296 224h-24c-4.417969 0-8-3.582031-8-8s3.582031-8 8-8h24c4.417969 0 8 3.582031 8 8s-3.582031 8-8 8zm0 0"/>
        <path fill="#1c9cd9" d="m224 160h-136c-4.417969 0-8-3.582031-8-8s3.582031-8 8-8h136c4.417969 0 8 3.582031 8 8s-3.582031 8-8 8zm0 0"/>
        <path fill="#1c9cd9" d="m296 160h-48c-4.417969 0-8-3.582031-8-8s3.582031-8 8-8h48c4.417969 0 8 3.582031 8 8s-3.582031 8-8 8zm0 0"/>
        <path fill="#1c9cd9" d="m376 48h-73.472656c-3.378906-9.554688-12.394532-15.957031-22.527344-16h-40.800781c-3.78125-18.636719-20.179688-32.0273438-39.199219-32h-16c-19 .0195312-35.375 13.386719-39.199219 32h-40.800781c-10.132812.042969-19.148438 6.445312-22.527344 16h-73.472656c-4.417969 0-8 3.582031-8 8v416c0 4.417969 3.582031 8 8 8h368c4.417969 0 8-3.582031 8-8v-416c0-4.417969-3.582031-8-8-8zm-280 8c0-4.417969 3.582031-8 8-8h48c4.417969 0 8-3.582031 8-8 0-13.253906 10.746094-24 24-24h16c6.367188-.011719 12.480469 2.511719 16.984375 7.015625s7.027344 10.617187 7.015625 16.984375c0 4.417969 3.582031 8 8 8h48c4.417969 0 8 3.582031 8 8v40h-192zm-8 56h208c4.417969 0 8-3.582031 8-8v-8h32v260.6875l-75.3125 75.3125h-137.375l-75.3125-75.3125v-260.6875h32v8c0 4.417969 3.582031 8 8 8zm248 267.3125v52.6875h-52.6875zm-235.3125 52.6875h-52.6875v-52.6875zm267.3125 32h-352v-400h64v16h-40c-4.417969 0-8 3.582031-8 8v352c0 4.417969 3.582031 8 8 8h304c4.417969 0 8-3.582031 8-8v-352c0-4.417969-3.582031-8-8-8h-40v-16h64zm0 0"/>
        <path fill="#1c9cd9" d="m192 88c13.253906 0 24-10.746094 24-24s-10.746094-24-24-24-24 10.746094-24 24 10.746094 24 24 24zm0-32c4.417969 0 8 3.582031 8 8s-3.582031 8-8 8-8-3.582031-8-8 3.582031-8 8-8zm0 0"/>
    </symbol>

    <symbol id="quote05" role="img" aria-labelledby="quote05_title" viewBox="0 0 479.97 479">
        <title id="quote05_title"></title>
        <path d="m109.761719 134.246094-45.441407-45.441406c-32.875 37.910156-52.457031 85.527343-55.761718 135.601562h64.160156c3.140625-33.0625 16.03125-64.441406 37.042969-90.160156zm0 0" fill="#7dd4fd"/>
        <path d="m255.921875 9.046875v64.15625c86.027344 8.425781 151.621094 80.761719 151.621094 167.203125s-65.59375 158.773438-151.621094 167.199219v64.160156c121.628906-8.347656 216.027344-109.445313 216.027344-231.359375 0-121.917969-94.398438-223.015625-216.027344-231.359375zm0 0" fill="#7dd4fd"/>
        <path d="m127.921875 256.40625h48v64h-48zm0 0" fill="#7dd4fd"/>
        <path d="m215.921875 208.40625h48v112h-48zm0 0" fill="#7dd4fd"/>
        <path d="m303.921875 160.40625h48v160h-48zm0 0" fill="#7dd4fd"/>
        <path fill="#1c9cd9" d="m133.214844 121.011719-56.628906-56.605469 6.503906-5.601562c39.175781-34.089844 88.472656-54.359376 140.300781-57.679688l8.53125-.632812v80l-7.25.6875c-31.488281 2.964843-61.378906 15.246093-85.855469 35.273437zm-33.046875-55.671875 34.246093 34.242187c23.867188-17.941406 51.925782-29.472656 81.507813-33.503906v-48.320313c-42.371094 4.351563-82.574219 20.878907-115.753906 47.582032zm0 0"/>
        <path fill="#1c9cd9" d="m80 232.40625h-80l.574219-8.527344c3.332031-51.820312 23.601562-101.105468 57.691406-140.273437l5.597656-6.503907 56.632813 56.632813-4.566406 5.597656c-20 24.476563-32.257813 54.355469-35.210938 85.824219zm-62.726562-16h48.320312c4.035156-29.585938 15.578125-57.644531 33.527344-81.503906l-34.242188-34.25c-26.714844 33.175781-43.25 73.378906-47.605468 115.753906zm0 0"/>
        <path fill="#1c9cd9" d="m247.921875 480.324219v-80l7.238281-.6875c82.09375-7.816407 144.792969-76.765625 144.792969-159.230469 0-82.46875-62.699219-151.417969-144.792969-159.234375l-7.238281-.6875v-80l8.535156.585937c125.835938 8.613282 223.511719 113.203126 223.511719 239.335938s-97.675781 230.722656-223.511719 239.335938zm16-65.597657v48.320313c113.757813-12.21875 200.011719-108.226563 200.011719-222.640625s-86.253906-210.425781-200.011719-222.640625v48.3125c87.015625 12.078125 151.796875 86.476563 151.796875 174.328125 0 87.847656-64.78125 162.246094-151.796875 174.328125zm0 0"/>
        <path fill="#1c9cd9" d="m231.921875 480.316406-8.539063-.574218c-119.40625-8.375-214.425781-103.394532-222.796874-222.800782l-.5781255-8.535156h79.9999995l.6875 7.246094c7.234376 76.332031 67.667969 136.765625 144 144l7.226563.671875zm-214.640625-215.910156c11.410156 104.613281 94.023438 187.226562 198.640625 198.640625v-48.304687c-78.160156-10.722657-139.617187-72.179688-150.335937-150.335938zm0 0"/>
        <path fill="#1c9cd9" d="m183.921875 328.40625h-64v-80h64zm-48-16h32v-48h-32zm0 0"/>
        <path fill="#1c9cd9" d="m271.921875 328.40625h-64v-128h64zm-48-16h32v-96h-32zm0 0"/>
        <path fill="#1c9cd9" d="m359.921875 328.40625h-64v-176h64zm-48-16h32v-144h-32zm0 0"/>
    </symbol>

    <symbol id="quote06" role="img" aria-labelledby="quote06_title" viewBox="0 -3 486.624 486">
        <title id="quote06_title"></title>
        <path d="m283.3125 48.3125c0 22.089844-17.910156 40-40 40-22.09375 0-40-17.910156-40-40 0-22.09375 17.90625-40 40-40 22.089844 0 40 17.90625 40 40zm0 0" fill="#7dd4fd"/>
        <path d="m275.3125 120.3125h-64c-35.347656 0-64 28.652344-64 64v64c0 26.507812 21.488281 48 48 48v184h96v-184c26.507812 0 48-21.492188 48-48v-64c0-35.347656-28.652344-64-64-64zm0 0" fill="#7dd4fd"/>
        <path fill="#1c9cd9" d="m243.3125 96.3125c26.507812 0 48-21.492188 48-48 0-26.511719-21.492188-48-48-48-26.511719 0-48 21.488281-48 48 .027344 26.5 21.5 47.972656 48 48zm0-80c17.671875 0 32 14.328125 32 32s-14.328125 32-32 32-32-14.328125-32-32 14.328125-32 32-32zm0 0"/>
        <path fill="#1c9cd9" d="m347.3125 184.3125c-.011719-23.808594-11.789062-46.070312-31.464844-59.472656-11.925781-8.199219-26.066406-12.566406-40.535156-12.527344h-64c-39.746094.046875-71.953125 32.253906-72 72v64c.03125 27.8125 20.472656 51.386719 48 55.359375v176.640625h16v-320h-16v127.199219c-18.613281-3.828125-31.976562-20.199219-32-39.199219v-64c.035156-30.914062 25.085938-55.964844 56-56h64c11.242188-.035156 22.230469 3.359375 31.496094 9.726562 15.3125 10.425782 24.484375 27.746094 24.503906 46.273438v64c-.015625 15.664062-9.167969 29.875-23.425781 36.367188-2.730469 1.289062-5.609375 2.242187-8.574219 2.832031v-127.199219h-16v320h16v-176.625c5.292969-.710938 10.445312-2.222656 15.289062-4.480469 19.917969-9.105469 32.699219-28.992187 32.710938-50.894531zm0 0"/>
        <path fill="#1c9cd9" d="m235.3125 296.3125h16v184h-16zm0 0"/>
        <path fill="#1c9cd9" d="m30.625 248.3125h92.6875v-16h-92.6875l20.285156-20.289062-11.308594-11.3125-39.601562 39.601562 39.601562 39.597656 11.308594-11.308594zm0 0"/>
        <path fill="#1c9cd9" d="m447.023438 200.710938-11.3125 11.3125 20.289062 20.289062h-92.6875v16h92.6875l-20.289062 20.289062 11.3125 11.308594 39.601562-39.597656zm0 0"/>
        <path fill="#1c9cd9" d="m59.3125 67.625 74.34375 74.34375 11.3125-11.3125-74.34375-74.34375h28.6875v-16h-56v56h16zm0 0"/>
        <path fill="#1c9cd9" d="m352.96875 141.96875 74.34375-74.34375v28.6875h16v-56h-56v16h28.6875l-74.34375 74.34375zm0 0"/>
        <path fill="#1c9cd9" d="m133.65625 338.65625-74.34375 74.34375v-28.6875h-16v56h56v-16h-28.6875l74.34375-74.34375zm0 0"/>
        <path fill="#1c9cd9" d="m427.3125 413-74.34375-74.34375-11.3125 11.3125 74.34375 74.34375h-28.6875v16h56v-56h-16zm0 0"/>
    </symbol>

    <symbol id="footer-facebook" role="img" aria-labelledby="footer-facebook_title" viewBox="0 0 512 512">
        <title id="footer-facebook_title">Facebook</title>
        <path d="M314.829,135.492h70.595c11.423,0,20.682-9.26,20.682-20.682V20.682C406.107,9.26,396.848,0,385.425,0h-70.595
            c-76.282,0-138.341,62.06-138.341,138.341v49.913h-49.913c-11.422,0-20.682,9.26-20.682,20.682v94.127
            c0,11.423,9.26,20.682,20.682,20.682h49.913v167.572c0,11.423,9.26,20.682,20.682,20.682h94.127
            c11.423,0,20.682-9.259,20.682-20.682V323.746h49.913c9.49,0,17.763-6.458,20.065-15.666l23.532-94.127
            c1.544-6.179,0.156-12.725-3.763-17.744c-3.919-5.02-9.932-7.954-16.301-7.954H311.98v-49.913
            C311.98,136.77,313.258,135.492,314.829,135.492z M291.298,229.619h67.637l-13.191,52.763h-54.447
            c-11.423,0-20.682,9.259-20.682,20.682v167.572h-52.763V303.064c0-11.423-9.26-20.682-20.682-20.682h-49.913v-52.763h49.913
            c11.422,0,20.682-9.26,20.682-20.682v-70.595c0-53.473,43.503-96.977,96.977-96.977h49.913v52.763h-49.913
            c-24.38,0-44.214,19.835-44.214,44.214v70.595C270.615,220.359,279.875,229.619,291.298,229.619z"/>
    </symbol>

    <symbol id="footer-twitter" role="img" aria-labelledby="footer-twitter_title" viewBox="0 0 512 512">
        <title id="footer-twitter_title">Twitter</title>
        <path d="M502.954,47.189c-7.126-4.852-16.515-4.774-23.559,0.196c-15.351,10.828-31.974,19.528-49.557,25.948
            c-19.253-17.414-43.615-27.826-69.915-29.656c-31.056-2.16-61.081,7.9-84.561,28.326c-25.59,22.259-40.174,54.444-40.046,88.349
            c-85.248-7.609-139.14-61.55-177.09-108.986c-4.598-5.746-11.901-8.619-19.182-7.538c-7.279,1.078-13.438,5.944-16.171,12.777
            c-0.948,2.369-23.141,58.799-17.453,127.057c4.761,57.133,30.23,131.964,120.039,181.717
            c-32.436,14.756-68.282,21.939-103.953,20.519c-9.576-0.378-18.15,5.859-20.736,15.08c-2.587,9.221,1.497,19.013,9.869,23.665
            c51.359,28.532,108.03,43.736,163.889,43.965c0.432,0.002,0.861,0.003,1.294,0.003c54.105-0.001,106.379-13.938,151.246-40.336
            c42.898-25.241,78.416-61.759,102.715-105.603c26.162-47.206,39.427-101.75,39.427-162.186c-0.011-3.544-0.186-7.098-0.52-10.638
            c20.7-22.885,35.388-50.567,42.719-80.667C513.451,60.803,510.081,52.04,502.954,47.189z M432.297,128.07
            c-4.916,4.847-7.088,11.827-5.793,18.607c0.877,4.588,1.329,9.278,1.344,13.874c0,101.956-44.378,186.544-121.756,232.072
            c-60.586,35.649-133.037,43.933-203.609,25.057c0.729-0.201,1.459-0.407,2.185-0.615c27.596-7.885,53.63-20.055,77.377-36.174
            c6.329-4.296,9.77-11.734,8.946-19.34c-0.825-7.605-5.778-14.134-12.881-16.975C97.757,312.434,53.563,257.594,46.757,181.575
            c-2.536-28.334,0.707-54.721,4.766-74.501c16.638,17.909,37.384,37.227,62.129,53.407c42.771,27.966,90.663,42.146,142.346,42.146
            c11.423,0,20.682-9.26,20.682-20.682v-21.393c0-0.045,0-0.091,0-0.137c-0.146-21.948,9.268-42.797,25.829-57.202
            c15.146-13.175,34.51-19.665,54.543-18.27c20.026,1.393,38.311,10.502,51.487,25.648c5.339,6.138,13.783,8.577,21.567,6.229
            c5.725-1.724,11.375-3.645,16.941-5.757C442.599,117.081,437.672,122.769,432.297,128.07z"/>
    </symbol>    

    <symbol id="footer-linkedin" role="img" aria-labelledby="footer-linkedin_title" viewBox="0 0 512 512">
        <title id="footer-linkedin_title">Linkedin</title>
        <path d="M2.5,510V153.7h137.3V510H2.5z M102.5,472.7V191H39.8v281.7H102.5z"/>
        <path d="M375.4,510l0.1-158.1c0.5-23.6-8.8-42.9-24.9-51.7c-5.4-3-11.2-4.5-17.3-4.5c-5.2,0-10.4,1.1-15.5,3.3l-1.1,211H176.1
            V153.7h140.6V166c16.6-6,33.6-9.1,50.6-9.1c24.7,0,48.3,6.4,70.2,18.9c44,25.2,72.5,71.8,72.5,118.8V510H375.4z M472.7,472.7V294.6
            c0-33.8-21.1-67.7-53.7-86.4c-15.9-9.1-33.8-13.9-51.7-14h-0.3c-20.1,0-40.1,5.8-59.6,17.3L279.4,228V191h-66.1v281.7h66.2l1-194.7
            l8.2-5.5c13.7-9.2,29.1-14.1,44.5-14.1c12.4,0,24.2,3,35.1,9c13.7,7.5,25,19.2,32.8,33.8c7.9,14.9,11.9,32.6,11.5,51.1l0,120.3
            H472.7z"/>
        <path d="M70.9,139.9C32.9,139.9,2,109,2,71c0-38,30.9-69,68.9-69c38,0,68.9,30.9,68.9,69C139.8,109,108.9,139.9,70.9,139.9z
             M70.9,39.3c-17.4,0-31.6,14.2-31.6,31.7c0,17.5,14.2,31.7,31.6,31.7c17.4,0,31.6-14.2,31.6-31.7C102.5,53.5,88.3,39.3,70.9,39.3z"
            />
    </symbol>

    <symbol id="footer-instagram" role="img" aria-labelledby="footer-instagram_title" viewBox="0 0 512 512">
        <title id="footer-instagram_title">Instagram</title>
        <path d="M373.659,0H138.341C62.06,0,0,62.06,0,138.341v235.318C0,449.94,62.06,512,138.341,512h235.318
            C449.94,512,512,449.94,512,373.659V138.341C512,62.06,449.94,0,373.659,0z M470.636,373.659
            c0,53.473-43.503,96.977-96.977,96.977H138.341c-53.473,0-96.977-43.503-96.977-96.977V138.341
            c0-53.473,43.503-96.977,96.977-96.977h235.318c53.473,0,96.977,43.503,96.977,96.977V373.659z"/>
        <path d="M370.586,238.141c-3.64-24.547-14.839-46.795-32.386-64.342c-17.547-17.546-39.795-28.746-64.341-32.385
            c-11.176-1.657-22.507-1.657-33.682,0c-30.336,4.499-57.103,20.541-75.372,45.172c-18.269,24.631-25.854,54.903-21.355,85.237
            c4.499,30.335,20.541,57.102,45.172,75.372c19.996,14.831,43.706,22.619,68.153,22.619c5.667,0,11.375-0.418,17.083-1.265
            c30.336-4.499,57.103-20.541,75.372-45.172C367.5,298.747,375.085,268.476,370.586,238.141z M267.791,327.632
            c-19.405,2.882-38.77-1.973-54.527-13.66c-15.757-11.687-26.019-28.811-28.896-48.216c-2.878-19.405,1.973-38.77,13.66-54.527
            c11.688-15.757,28.811-26.019,48.217-28.897c3.574-0.53,7.173-0.795,10.772-0.795s7.199,0.265,10.773,0.796
            c32.231,4.779,57.098,29.645,61.878,61.877C335.608,284.268,307.851,321.692,267.791,327.632z"/>
        <path d="M400.049,111.951c-3.852-3.851-9.183-6.058-14.625-6.058c-5.442,0-10.773,2.206-14.625,6.058
            c-3.851,3.852-6.058,9.174-6.058,14.625c0,5.451,2.207,10.773,6.058,14.625c3.852,3.851,9.183,6.058,14.625,6.058
            c5.442,0,10.773-2.206,14.625-6.058c3.851-3.852,6.058-9.183,6.058-14.625C406.107,121.133,403.9,115.802,400.049,111.951z"/>
    </symbol>

    <symbol id="footer-phone" role="img" aria-labelledby="footer-phone_title" viewBox="0 0 512 512">
        <title id="footer-phone_title"></title>
        <path d="M421.216,195.504c-5.092-26.101-17.723-49.836-36.526-68.64c-18.804-18.803-42.54-31.434-68.641-36.527
			c-11.21-2.189-22.073,5.128-24.261,16.339c-2.187,11.212,5.128,22.073,16.339,24.26c36.847,7.188,65.3,35.642,72.489,72.489
			c1.927,9.874,10.581,16.726,20.278,16.726c1.313,0,2.645-0.125,3.984-0.387C416.088,217.577,423.403,206.715,421.216,195.504z"/>
		<path d="M511.422,196.929c-5.629-50.096-28.373-97.304-64.042-132.927C411.712,28.378,364.475,5.694,314.371,0.128
			c-11.355-1.261-21.578,6.92-22.839,18.272c-1.261,11.353,6.919,21.578,18.272,22.84c84.961,9.438,150.966,75.36,160.512,160.31
			c1.188,10.566,10.139,18.374,20.527,18.374c0.771,0,1.552-0.043,2.336-0.131C504.53,218.516,512.698,208.281,511.422,196.929z"/>
		<path d="M432.59,312.566c-0.062-0.008-0.124-0.017-0.186-0.025c-20.013-2.639-39.751-7.557-58.619-14.596
			c-23.91-8.99-51.103-3.191-69.27,14.772c-0.028,0.028-0.056,0.055-0.083,0.083l-17.148,17.148
			c-42.633-26.924-78.756-63.047-105.679-105.679l17.149-17.149c0.027-0.028,0.054-0.055,0.082-0.083
			c17.964-18.166,23.762-45.356,14.79-69.223c-7.057-18.914-11.974-38.653-14.614-58.666c-0.007-0.063-0.017-0.127-0.026-0.19
			c-4.591-32.478-32.782-56.734-65.548-56.467H66.053c-1.943,0.002-3.912,0.091-5.853,0.267
			C24.143,26.016-2.541,58.001,0.718,94.058c0.01,0.108,0.02,0.215,0.032,0.323c7.684,72.354,32.649,142.88,72.197,203.955
			c35.892,56.461,84.701,105.269,141.162,141.164c60.792,39.406,130.99,64.369,203.013,72.196c0.127,0.015,0.254,0.027,0.38,0.038
			c1.961,0.176,3.949,0.266,5.921,0.266c0.083,0,0.165,0,0.247,0.001c36.204-0.148,65.538-29.722,65.391-65.841v-67.233
			C489.746,345.714,465.515,317.211,432.59,312.566z M447.698,378.695v67.548c0.055,13.396-10.8,24.338-24.19,24.393
			c-0.715-0.004-1.425-0.027-2.135-0.086c-65.578-7.161-129.488-29.914-184.837-65.808c-0.053-0.035-0.107-0.069-0.161-0.103
			c-51.429-32.68-95.885-77.137-128.565-128.565c-0.032-0.051-0.064-0.101-0.097-0.153C71.683,220.306,48.928,156.086,41.902,90.193
			C40.779,76.91,50.63,65.155,63.923,63.954c0.717-0.064,1.443-0.098,2.145-0.098h67.463c0.146-0.001,0.294-0.003,0.443-0.002
			c12.021,0,22.322,8.905,24.044,20.819c3.05,23.063,8.721,45.806,16.871,67.649c3.319,8.832,1.189,18.869-5.427,25.591
			l-28.517,28.517c-6.583,6.582-7.956,16.753-3.354,24.847c33.837,59.508,83.177,108.847,142.685,142.685
			c8.094,4.6,18.264,3.23,24.848-3.355l28.512-28.512c6.72-6.621,16.765-8.752,25.642-5.415
			c21.799,8.134,44.547,13.805,67.61,16.855c12.18,1.757,21.122,12.339,20.816,24.647
			C447.7,378.353,447.698,378.524,447.698,378.695z"/>
    </symbol>    

	<symbol id="footer-mail" role="img" aria-labelledby="footer-mail_title" viewBox="0 0 512 512">
        <title id="footer-mail_title"></title>
        <path d="M256,141.176c-63.306,0-114.809,51.503-114.809,114.809S192.694,370.795,256,370.795s114.809-51.503,114.809-114.809
			S319.306,141.176,256,141.176z M256,329.43c-40.498,0-73.445-32.947-73.445-73.445c0-40.498,32.947-73.445,73.445-73.445
			c40.499,0,73.445,32.947,73.445,73.445C329.445,296.483,296.499,329.43,256,329.43z"/>
		<path d="M437.008,74.97C388.656,26.623,324.375,0,256,0c-0.005,0-0.013,0-0.017,0C187.603,0.004,123.318,26.637,74.97,74.992
			C26.62,123.347-0.005,187.637,0,256.017c0.004,68.379,26.637,132.666,74.992,181.014C123.344,485.377,187.625,512.001,256,512
			c0.004,0,0.012,0,0.017,0c55.945-0.004,111.216-18.738,155.631-52.752c9.07-6.945,10.792-19.927,3.846-28.995
			c-6.945-9.069-19.926-10.794-28.995-3.846c-37.24,28.518-83.58,44.224-130.486,44.228c-0.006,0-0.006,0-0.014,0
			c-57.324,0-111.224-22.324-151.761-62.856c-40.542-40.536-62.871-94.435-62.875-151.766
			C41.357,137.663,137.636,41.372,255.986,41.364c0.007,0,0.006,0,0.014,0c118.34,0,214.628,96.279,214.636,214.622v23.532
			c0,27.523-22.39,49.913-49.913,49.913c-27.523,0-49.913-22.391-49.913-49.913v-23.532c0-11.422-9.259-20.682-20.682-20.682
			s-20.682,9.26-20.682,20.682v23.532c0,50.33,40.947,91.278,91.278,91.278S512,329.848,512,279.518v-23.534
			C511.995,187.604,485.362,123.318,437.008,74.97z"/>
    </symbol>

    <symbol id="footer-location" role="img" aria-labelledby="footer-location_title" viewBox="0 0 512 512">
        <title id="footer-location_title"></title>
        <path d="M406.766,62.449C366.495,22.178,312.951,0,256,0S145.505,22.178,105.234,62.449
			c-40.272,40.271-62.449,93.814-62.449,150.766c0,37.656,10.972,76.863,32.609,116.532c16.825,30.846,40.15,62.102,69.326,92.898
			c49.17,51.903,97.763,84.519,99.808,85.881C248.001,510.842,252,512,256,512c4,0,7.999-1.158,11.473-3.474
			c2.045-1.363,50.638-33.978,99.808-85.881c29.176-30.795,52.501-62.051,69.326-92.898c21.637-39.669,32.609-78.876,32.609-116.532
			C469.215,156.263,447.038,102.72,406.766,62.449z M256.001,465.903C215.826,436.156,84.15,329.739,84.15,213.215
			c0-94.759,77.091-171.851,171.85-171.851s171.85,77.092,171.851,171.851C427.851,329.748,296.159,436.168,256.001,465.903z"/>
		<path d="M256,128.355c-46.791,0-84.86,38.068-84.86,84.86c0,46.791,38.068,84.86,84.86,84.86c46.792,0,84.861-38.068,84.86-84.86
			C340.86,166.423,302.791,128.355,256,128.355z M256,256.71c-23.983,0-43.495-19.512-43.495-43.495
			c0-23.983,19.512-43.495,43.495-43.495c23.984,0,43.495,19.512,43.495,43.495C299.495,237.198,279.984,256.71,256,256.71z"/>
		</symbol>

	<symbol id="footer-time" role="img" aria-labelledby="footer-time_title" viewBox="0 0 512 512">
        <title id="footer-time_title"></title>
        <path d="M437.019,74.981C388.667,26.629,324.38,0,256,0S123.333,26.63,74.981,74.981S0,187.62,0,256
			s26.629,132.667,74.981,181.019C123.332,485.371,187.62,512,256,512s132.667-26.629,181.019-74.981
			C485.371,388.667,512,324.38,512,256S485.371,123.332,437.019,74.981z M256,470.636C137.65,470.636,41.364,374.35,41.364,256
			S137.65,41.364,256,41.364S470.636,137.65,470.636,256S374.35,470.636,256,470.636z"/>
		<path d="M341.221,311.97l-64.538-64.537V114.809c0-11.422-9.259-20.682-20.682-20.682c-11.422,0-20.682,9.26-20.682,20.682V256
			c0,5.486,2.179,10.746,6.058,14.625l70.594,70.595c4.038,4.039,9.332,6.058,14.625,6.058c5.293,0,10.586-2.019,14.626-6.058
			C349.297,333.142,349.297,320.047,341.221,311.97z"/>
	</symbol>

</svg>