<svg xmlns="http://www.w3.org/2000/svg" xmlns:xlink="http://www.w3.org/1999/xlink">

	<symbol id="home-play" role="img" aria-labelledby="home-play_title" viewBox="0 0 512 512">
        <title id="home-play_title"></title>
        <path d="M47.127,0v512l417.745-254.837L47.127,0z M87.172,71.676l301.06,185.333L87.172,440.664V71.676z"/>
    </symbol>

    <symbol id="home-checked" role="img" aria-labelledby="home-checked_title" viewBox="0 0 448 448">
        <title id="home-checked_title"></title>
        <polygon points="417.5,24.2 186,234.6 113.5,162.2 85.3,190.4 187.9,293 448,54.1         "/>
        <polygon points="341.7,235.5 341.3,235.5 341.3,381.1 42.7,381.1 42.7,82.5 271,82.5 313.7,39.8 0,39.8 0,423.8 384,423.8 
            384,193.1   "/>
    </symbol>

    <symbol id="services01" role="img" aria-labelledby="services01_title" viewBox="0 0 512 512">
        <title id="services01_title"></title>
        <path d="M11.6,101.6v8.6c0,23.9,12.3,44.9,30.9,57.1c-18.6,13.1-30.9,34.8-30.9,59.3v0.5c0,25.1,12.8,47.2,32.2,60.2
            c-19.4,13-32.2,35.1-32.2,60.2v0.5c0,40,32.5,72.5,72.5,72.5h197.1c6.8,0,12.3-5.5,12.3-12.3s-5.5-12.3-12.3-12.3H84
            c-26.5,0-48-21.5-48-48v-0.5c0-26.5,21.5-48,48-48h219.2c6.8,0,12.3-5.5,12.3-12.3c0-6.8-5.5-12.3-12.3-12.3H84
            c-26.5,0-48-21.5-48-48v-0.5c0-26.5,21.5-48,48-48h287.7c26.5,0,48,21.5,48,48v0.5c0,6.8,5.5,12.3,12.3,12.3s12.3-5.5,12.3-12.3
            v-0.5c0-24.5-12.2-46.1-30.9-59.3c18.6-12.2,30.9-33.3,30.9-57.1v-8.6c0-37.7-30.7-68.4-68.4-68.4H80
            C42.3,33.1,11.6,63.8,11.6,101.6z M419.8,101.6v8.6c0,24.2-19.7,43.9-43.9,43.9h-4.1H84H80c-24.2,0-43.9-19.7-43.9-43.9v-8.6
            c0-24.2,19.7-43.9,43.9-43.9h295.9C400.1,57.6,419.8,77.3,419.8,101.6z"/>
        <path d="M223.6,118.1h122.1c6.8,0,12.3-5.5,12.3-12.3c0-6.8-5.5-12.3-12.3-12.3H223.6c-6.8,0-12.3,5.5-12.3,12.3
            C211.4,112.6,216.9,118.1,223.6,118.1z"/>
        <circle cx="123.9" cy="105.9" r="13.8"/>
        <path d="M358,226.8c0-6.8-5.5-12.3-12.3-12.3H223.6c-6.8,0-12.3,5.5-12.3,12.3c0,6.8,5.5,12.3,12.3,12.3h122.1
            C352.5,239.1,358,233.6,358,226.8z"/>
        <circle cx="123.9" cy="226.8" r="13.8"/>
        <path d="M223.6,335.5c-6.8,0-12.3,5.5-12.3,12.3s5.5,12.3,12.3,12.3h55.3c6.8,0,12.3-5.5,12.3-12.3s-5.5-12.3-12.3-12.3H223.6z"/>
        <circle cx="123.9" cy="347.8" r="13.8"/>
        <path d="M500.4,454.8v-78.4c0-13.3-10.8-24.1-24.1-24.1h-1.7v-28.7c0-35.9-29.2-65.2-65.2-65.2c-35.9,0-65.2,29.2-65.2,65.2v28.7
            h-1.7c-13.3,0-24.1,10.8-24.1,24.1v78.4c0,13.3,10.8,24.1,24.1,24.1h133.8C489.6,478.9,500.4,468.1,500.4,454.8z M368.8,323.6
            c0-22.4,18.3-40.7,40.7-40.7c22.4,0,40.7,18.3,40.7,40.7v28.7h-81.4V323.6z M475.9,454.4H343.1v-77.5h132.9V454.4z"/>
    </symbol>

    <symbol id="services02" role="img" aria-labelledby="services02_title" viewBox="0 0 512 512">
        <title id="services02_title"></title>
        <path d="M397.4,259.4c-56.8,0-103.1,46.2-103.1,103.1s46.2,103.1,103.1,103.1s103.1-46.2,103.1-103.1S454.2,259.4,397.4,259.4z
             M397.4,441c-43.3,0-78.6-35.3-78.6-78.6s35.3-78.6,78.6-78.6s78.6,35.3,78.6,78.6S440.7,441,397.4,441z"/>
        <path d="M405.6,313.1c-4.7-4.3-11.8-4.3-16.5,0L360.8,339c-5,4.6-5.4,12.3-0.8,17.3c4.6,5,12.3,5.4,17.3,0.8l7.8-7.1v51.2
            c0,6.8,5.5,12.3,12.3,12.3s12.3-5.5,12.3-12.3v-51.1l7.8,7.1c2.3,2.1,5.3,3.2,8.3,3.2c3.3,0,6.6-1.3,9.1-4c4.6-5,4.2-12.7-0.8-17.3
            L405.6,313.1z"/>
        <path d="M325.3,103.1H211c-6.8,0-12.3,5.5-12.3,12.3s5.5,12.3,12.3,12.3h114.4c6.8,0,12.3-5.5,12.3-12.3S332.1,103.1,325.3,103.1z"
            />
        <circle cx="117.5" cy="115.4" r="13"/>
        <path d="M337.6,228.7c0-6.8-5.5-12.3-12.3-12.3H211c-6.8,0-12.3,5.5-12.3,12.3c0,6.8,5.5,12.3,12.3,12.3h114.4
            C332.1,240.9,337.6,235.4,337.6,228.7z"/>
        <circle cx="117.5" cy="228.7" r="13"/>
        <path d="M11.5,342.2c0,37.9,30.8,68.7,68.7,68.7h184.6c6.8,0,12.3-5.5,12.3-12.3c0-6.8-5.5-12.3-12.3-12.3H80.2
            c-24.4,0-44.2-19.8-44.2-44.6c0-24.4,19.8-44.2,44.2-44.2h205.3c6.8,0,12.3-5.5,12.3-12.3s-5.5-12.3-12.3-12.3H80.2
            c-24.4,0-44.2-19.8-44.2-44.6c0-24.4,19.8-44.2,44.2-44.2h269.5c24.4,0,44.2,19.8,44.2,44.6c0,6.8,5.5,12,12.3,12
            s12.3-5.7,12.3-12.5c0-23.3-11.7-43.9-29.5-56.3c17.8-12.4,29.5-32.9,29.5-56.2v-1c0-37.7-30.7-68.4-68.4-68.4h-270
            c-37.7,0-68.4,30.7-68.4,68.4v1c0,23.3,11.7,43.9,29.6,56.2c-17.8,12.5-29.6,33.2-29.6,56.8c0,23.4,11.8,44,29.6,56.4
            C23.3,297.8,11.5,318.5,11.5,342.2z M79.9,159.8c-24.2,0-43.9-19.7-43.9-43.9v-1C36,90.7,55.7,71,79.9,71h270
            c24.2,0,43.9,19.7,43.9,43.9v1c0,24.2-19.7,43.9-43.9,43.9h-0.3H80.2H79.9z"/>
        <path d="M211,329.7c-6.8,0-12.3,5.5-12.3,12.3s5.5,12.3,12.3,12.3h51.8c6.8,0,12.3-5.5,12.3-12.3s-5.5-12.3-12.3-12.3H211z"/>
        <circle cx="117.5" cy="342" r="13"/>
    </symbol>

    <symbol id="services03" role="img" aria-labelledby="services03_title" viewBox="0 0 512 512">
        <title id="services03_title"></title>
        <path d="M325.3,103.1H211c-6.8,0-12.3,5.5-12.3,12.3s5.5,12.3,12.3,12.3h114.4c6.8,0,12.3-5.5,12.3-12.3S332.1,103.1,325.3,103.1z"
            />
        <circle cx="117.5" cy="115.4" r="13"/>
        <path d="M337.6,228.7c0-6.8-5.5-12.3-12.3-12.3H211c-6.8,0-12.3,5.5-12.3,12.3c0,6.8,5.5,12.3,12.3,12.3h114.4
            C332.1,240.9,337.6,235.4,337.6,228.7z"/>
        <circle cx="117.5" cy="228.7" r="13"/>
        <path d="M11.5,342.2c0,37.9,30.8,68.7,68.7,68.7h184.6c6.8,0,12.3-5.5,12.3-12.3c0-6.8-5.5-12.3-12.3-12.3H80.2
            c-24.4,0-44.2-19.8-44.2-44.6c0-24.4,19.8-44.2,44.2-44.2h205.3c6.8,0,12.3-5.5,12.3-12.3s-5.5-12.3-12.3-12.3H80.2
            c-24.4,0-44.2-19.8-44.2-44.6c0-24.4,19.8-44.2,44.2-44.2h269.5c24.4,0,44.2,19.8,44.2,44.6c0,6.8,5.5,12,12.3,12
            s12.3-5.7,12.3-12.5c0-23.3-11.7-43.9-29.5-56.3c17.8-12.4,29.5-32.9,29.5-56.2v-1c0-37.7-30.7-68.4-68.4-68.4h-270
            c-37.7,0-68.4,30.7-68.4,68.4v1c0,23.3,11.7,43.9,29.6,56.2c-17.8,12.5-29.6,33.2-29.6,56.8c0,23.4,11.8,44,29.6,56.4
            C23.3,297.8,11.5,318.5,11.5,342.2z M79.9,159.8c-24.2,0-43.9-19.7-43.9-43.9v-1C36,90.7,55.7,71,79.9,71h270
            c24.2,0,43.9,19.7,43.9,43.9v1c0,24.2-19.7,43.9-43.9,43.9h-0.3H80.2H79.9z"/>
        <path d="M211,329.7c-6.8,0-12.3,5.5-12.3,12.3s5.5,12.3,12.3,12.3h51.8c6.8,0,12.3-5.5,12.3-12.3s-5.5-12.3-12.3-12.3H211z"/>
        <circle cx="117.5" cy="342" r="13"/>
        <path d="M397.4,465.5c56.8,0,103.1-46.2,103.1-103.1s-46.2-103.1-103.1-103.1c-56.8,0-103.1,46.2-103.1,103.1
            S340.5,465.5,397.4,465.5z M397.4,283.9c43.3,0,78.6,35.3,78.6,78.6S440.7,441,397.4,441c-43.3,0-78.6-35.3-78.6-78.6
            S354.1,283.9,397.4,283.9z"/>
        <path d="M376.2,392.4c2.3,2.3,5.4,3.6,8.7,3.6c0,0,0,0,0,0c3.2,0,6.3-1.3,8.6-3.6l42.9-42.6c4.8-4.8,4.8-12.5,0-17.3
            c-4.8-4.8-12.5-4.8-17.3,0l-34.2,34l-9.3-9.3c-4.8-4.8-12.5-4.8-17.3,0c-4.8,4.8-4.8,12.5,0,17.3L376.2,392.4z"/>
    </symbol>

    <symbol id="services04" role="img" aria-labelledby="services04_title" viewBox="0 0 512 512">
        <title id="services04_title"></title>
        <path d="M325.7,103.5H211.3c-6.8,0-12.3,5.5-12.3,12.3s5.5,12.3,12.3,12.3h114.4c6.8,0,12.3-5.5,12.3-12.3S332.5,103.5,325.7,103.5
            z"/>
        <circle cx="117.9" cy="115.7" r="13"/>
        <path d="M211.3,216.8c-6.8,0-12.3,5.5-12.3,12.3c0,6.8,5.5,12.3,12.3,12.3h114.4c6.8,0,12.3-5.5,12.3-12.3
            c0-6.8-5.5-12.3-12.3-12.3H211.3z"/>
        <circle cx="117.9" cy="229" r="13"/>
        <path d="M298.2,285.7c0-6.8-5.5-12.3-12.3-12.3H80.6c-24.4,0-44.2-19.8-44.2-44.6c0-24.4,19.8-44.2,44.2-44.2h269.5
            c24.4,0,44.2,19.8,44.2,44.6c0,6.8,5.5,12,12.3,12s12.3-5.7,12.3-12.5c0-23.3-11.7-43.9-29.5-56.3c17.8-12.4,29.5-32.9,29.5-56.2
            v-1c0-37.7-30.7-68.4-68.4-68.4h-270c-37.7,0-68.4,30.7-68.4,68.4v1c0,23.3,11.7,43.9,29.6,56.2c-17.8,12.5-29.6,33.2-29.6,56.8
            c0,23.4,11.8,44,29.6,56.4c-17.9,12.4-29.6,33.2-29.6,56.9c0,37.9,30.8,68.7,68.7,68.7h184.6c6.8,0,12.3-5.5,12.3-12.3
            s-5.5-12.3-12.3-12.3H80.6c-24.4,0-44.2-19.8-44.2-44.6c0-24.4,19.8-44.2,44.2-44.2h205.3C292.7,297.9,298.2,292.4,298.2,285.7z
             M80.3,160.1c-24.2,0-43.9-19.7-43.9-43.9v-1c0-24.2,19.7-43.9,43.9-43.9h270c24.2,0,43.9,19.7,43.9,43.9v1
            c0,24.2-19.7,43.9-43.9,43.9h-0.3H80.6H80.3z"/>
        <path d="M211.3,330.1c-6.8,0-12.3,5.5-12.3,12.3c0,6.8,5.5,12.3,12.3,12.3h51.8c6.8,0,12.3-5.5,12.3-12.3c0-6.8-5.5-12.3-12.3-12.3
            H211.3z"/>
        <circle cx="117.9" cy="342.3" r="13"/>
        <path d="M397.7,465.2c56.4,0,102.3-45.9,102.3-102.3c0-56.4-45.9-102.3-102.3-102.3s-102.3,45.9-102.3,102.3
            C295.4,419.2,341.3,465.2,397.7,465.2z M397.7,285c42.9,0,77.8,34.9,77.8,77.8c0,42.9-34.9,77.8-77.8,77.8s-77.8-34.9-77.8-77.8
            C319.9,319.9,354.8,285,397.7,285z"/>
        <path d="M397.7,375.1h45c6.8,0,12.3-5.5,12.3-12.3s-5.5-12.3-12.3-12.3H410v-32.8c0-6.8-5.5-12.3-12.3-12.3s-12.3,5.5-12.3,12.3v45
            C385.5,369.6,391,375.1,397.7,375.1z"/>
    </symbol>

    <symbol id="services05" role="img" aria-labelledby="services05_title" viewBox="0 0 512 512">
        <title id="services05_title"></title>
        <path d="M325.3,103.1H211c-6.8,0-12.3,5.5-12.3,12.3s5.5,12.3,12.3,12.3h114.4c6.8,0,12.3-5.5,12.3-12.3S332.1,103.1,325.3,103.1z"
            />
        <circle cx="117.5" cy="115.4" r="13"/>
        <path d="M337.6,228.7c0-6.8-5.5-12.3-12.3-12.3H211c-6.8,0-12.3,5.5-12.3,12.3c0,6.8,5.5,12.3,12.3,12.3h114.4
            C332.1,240.9,337.6,235.4,337.6,228.7z"/>
        <circle cx="117.5" cy="228.7" r="13"/>
        <path d="M11.5,342.2c0,37.9,30.8,68.7,68.7,68.7h184.6c6.8,0,12.3-5.5,12.3-12.3c0-6.8-5.5-12.3-12.3-12.3H80.2
            c-24.4,0-44.2-19.8-44.2-44.6c0-24.4,19.8-44.2,44.2-44.2h205.3c6.8,0,12.3-5.5,12.3-12.3s-5.5-12.3-12.3-12.3H80.2
            c-24.4,0-44.2-19.8-44.2-44.6c0-24.4,19.8-44.2,44.2-44.2h269.5c24.4,0,44.2,19.8,44.2,44.6c0,6.8,5.5,12,12.3,12
            s12.3-5.7,12.3-12.5c0-23.3-11.7-43.9-29.5-56.3c17.8-12.4,29.5-32.9,29.5-56.2v-1c0-37.7-30.7-68.4-68.4-68.4h-270
            c-37.7,0-68.4,30.7-68.4,68.4v1c0,23.3,11.7,43.9,29.6,56.2c-17.8,12.5-29.6,33.2-29.6,56.8c0,23.4,11.8,44,29.6,56.4
            C23.3,297.8,11.5,318.5,11.5,342.2z M79.9,159.8c-24.2,0-43.9-19.7-43.9-43.9v-1C36,90.7,55.7,71,79.9,71h270
            c24.2,0,43.9,19.7,43.9,43.9v1c0,24.2-19.7,43.9-43.9,43.9h-0.3H80.2H79.9z"/>
        <path d="M211,329.7c-6.8,0-12.3,5.5-12.3,12.3s5.5,12.3,12.3,12.3h51.8c6.8,0,12.3-5.5,12.3-12.3s-5.5-12.3-12.3-12.3H211z"/>
        <circle cx="117.5" cy="342" r="13"/>
        <path d="M397.4,259.4c-56.8,0-103.1,46.2-103.1,103.1s46.2,103.1,103.1,103.1s103.1-46.2,103.1-103.1S454.2,259.4,397.4,259.4z
             M397.4,441c-43.3,0-78.6-35.3-78.6-78.6s35.3-78.6,78.6-78.6s78.6,35.3,78.6,78.6S440.7,441,397.4,441z"/>
        <path d="M431.2,350.2h-21.6v-21.6c0-6.8-5.5-12.3-12.3-12.3s-12.3,5.5-12.3,12.3v21.6h-21.6c-6.8,0-12.3,5.5-12.3,12.3
            s5.5,12.3,12.3,12.3h21.6v21.6c0,6.8,5.5,12.3,12.3,12.3s12.3-5.5,12.3-12.3v-21.6h21.6c6.8,0,12.3-5.5,12.3-12.3
            S438,350.2,431.2,350.2z"/>
    </symbol>

    <symbol id="services06" role="img" aria-labelledby="services06_title" viewBox="0 0 512 512">
        <title id="services06_title"></title>
        <path d="M331.9,103.3H214.9c-6.8,0-12.3,5.5-12.3,12.3s5.5,12.3,12.3,12.3h116.9c6.8,0,12.3-5.5,12.3-12.3S338.6,103.3,331.9,103.3
            z"/>
        <circle cx="119.4" cy="115.6" r="13.3"/>
        <path d="M344.1,231.4c0-6.8-5.5-12.3-12.3-12.3H214.9c-6.8,0-12.3,5.5-12.3,12.3c0,6.8,5.5,12.3,12.3,12.3h116.9
            C338.6,243.7,344.1,238.2,344.1,231.4z"/>
        <circle cx="119.4" cy="231.4" r="13.3"/>
        <path d="M11.3,347.5c0,38.6,31.4,69.9,69.9,69.9h188.7c6.8,0,12.3-5.5,12.3-12.3c0-6.8-5.5-12.3-12.3-12.3H81.2
            c-25,0-45.4-20.4-45.4-45.9c0-25,20.4-45.4,45.4-45.4h209.9c6.8,0,12.3-5.5,12.3-12.3c0-6.8-5.5-12.3-12.3-12.3H81.2
            c-25,0-45.4-20.4-45.4-45.9c0-25,20.4-45.4,45.4-45.4h275.5c25,0,45.4,20.4,45.4,45.9c0,6.8,5.5,12,12.3,12s12.3-5.7,12.3-12.5
            c0-23.7-11.9-44.6-30-57.3c18.1-12.3,30-33.1,30-56.5v-3.5c0-37.7-30.7-68.4-68.4-68.4H79.7c-37.7,0-68.4,30.7-68.4,68.4v3.5
            c0,23.5,11.9,44.2,30,56.5c-18.1,12.7-30,33.8-30,57.8c0,23.9,12.1,45.1,30.5,57.7C23.4,302,11.3,323.2,11.3,347.5z M79.7,161.2
            c-24.2,0-43.9-19.7-43.9-43.9v-3.5c0-24.2,19.7-43.9,43.9-43.9h278.6c24.2,0,43.9,19.7,43.9,43.9v3.5c0,24.2-19.7,43.9-43.9,43.9
            h-1.5H81.2H79.7z"/>
        <path d="M214.9,335c-6.8,0-12.3,5.5-12.3,12.3s5.5,12.3,12.3,12.3h52.9c6.8,0,12.3-5.5,12.3-12.3s-5.5-12.3-12.3-12.3H214.9z"/>
        <circle cx="119.4" cy="347.2" r="13.3"/>
        <path d="M407.7,461.1c19,0,37.1-5.7,52.5-16.3l-1.4,7.1c-1.3,6.6,3,13.1,9.6,14.4c0.8,0.2,1.6,0.2,2.4,0.2c5.7,0,10.8-4,12-9.9
            l8.2-41.4c0.7-3.5-0.2-7.1-2.3-9.9c-2.2-2.8-5.5-4.5-9-4.7l-41.8-2.1c-6.8-0.4-12.5,4.9-12.9,11.6s4.9,12.5,11.6,12.9l11.1,0.6
            c-11.6,8.4-25.4,13-40,13c-18.3,0-35.5-7.1-48.4-20c-12.9-12.9-20-30.1-20-48.4c0-6.8-5.5-12.2-12.3-12.2c0,0,0,0,0,0
            c-6.8,0-12.2,5.5-12.2,12.3c0,24.8,9.7,48.2,27.2,65.7C359.6,451.5,382.9,461.1,407.7,461.1z"/>
        <path d="M407.7,275.3c-17.6,0-34.3,4.9-48.9,14l1.5-7.7c1.3-6.6-3-13.1-9.6-14.4c-6.6-1.3-13.1,3-14.4,9.6l-8.2,41.4
            c-0.7,3.5,0.2,7.1,2.3,9.9c2.2,2.8,5.5,4.5,9,4.7l41.8,2.1c0.2,0,0.4,0,0.6,0c6.5,0,11.9-5.1,12.2-11.6c0.3-6.8-4.9-12.5-11.6-12.9
            l-10.4-0.5c10.6-6.5,22.8-10,35.6-10c18.3,0,35.5,7.1,48.4,20c12.9,12.9,20,30.1,20,48.4c0,6.8,5.5,12.2,12.3,12.2c0,0,0,0,0,0
            c6.8,0,12.2-5.5,12.2-12.3c0-24.8-9.7-48.1-27.2-65.7C455.9,284.9,432.6,275.3,407.7,275.3C407.7,275.3,407.7,275.3,407.7,275.3z"
        />
    </symbol>

    <symbol id="footer-facebook" role="img" aria-labelledby="footer-facebook_title" viewBox="0 0 512 512">
        <title id="footer-facebook_title">Facebook</title>
        <path d="M314.829,135.492h70.595c11.423,0,20.682-9.26,20.682-20.682V20.682C406.107,9.26,396.848,0,385.425,0h-70.595
            c-76.282,0-138.341,62.06-138.341,138.341v49.913h-49.913c-11.422,0-20.682,9.26-20.682,20.682v94.127
            c0,11.423,9.26,20.682,20.682,20.682h49.913v167.572c0,11.423,9.26,20.682,20.682,20.682h94.127
            c11.423,0,20.682-9.259,20.682-20.682V323.746h49.913c9.49,0,17.763-6.458,20.065-15.666l23.532-94.127
            c1.544-6.179,0.156-12.725-3.763-17.744c-3.919-5.02-9.932-7.954-16.301-7.954H311.98v-49.913
            C311.98,136.77,313.258,135.492,314.829,135.492z M291.298,229.619h67.637l-13.191,52.763h-54.447
            c-11.423,0-20.682,9.259-20.682,20.682v167.572h-52.763V303.064c0-11.423-9.26-20.682-20.682-20.682h-49.913v-52.763h49.913
            c11.422,0,20.682-9.26,20.682-20.682v-70.595c0-53.473,43.503-96.977,96.977-96.977h49.913v52.763h-49.913
            c-24.38,0-44.214,19.835-44.214,44.214v70.595C270.615,220.359,279.875,229.619,291.298,229.619z"/>
    </symbol>

    <symbol id="footer-twitter" role="img" aria-labelledby="footer-twitter_title" viewBox="0 0 512 512">
        <title id="footer-twitter_title">Twitter</title>
        <path d="M502.954,47.189c-7.126-4.852-16.515-4.774-23.559,0.196c-15.351,10.828-31.974,19.528-49.557,25.948
            c-19.253-17.414-43.615-27.826-69.915-29.656c-31.056-2.16-61.081,7.9-84.561,28.326c-25.59,22.259-40.174,54.444-40.046,88.349
            c-85.248-7.609-139.14-61.55-177.09-108.986c-4.598-5.746-11.901-8.619-19.182-7.538c-7.279,1.078-13.438,5.944-16.171,12.777
            c-0.948,2.369-23.141,58.799-17.453,127.057c4.761,57.133,30.23,131.964,120.039,181.717
            c-32.436,14.756-68.282,21.939-103.953,20.519c-9.576-0.378-18.15,5.859-20.736,15.08c-2.587,9.221,1.497,19.013,9.869,23.665
            c51.359,28.532,108.03,43.736,163.889,43.965c0.432,0.002,0.861,0.003,1.294,0.003c54.105-0.001,106.379-13.938,151.246-40.336
            c42.898-25.241,78.416-61.759,102.715-105.603c26.162-47.206,39.427-101.75,39.427-162.186c-0.011-3.544-0.186-7.098-0.52-10.638
            c20.7-22.885,35.388-50.567,42.719-80.667C513.451,60.803,510.081,52.04,502.954,47.189z M432.297,128.07
            c-4.916,4.847-7.088,11.827-5.793,18.607c0.877,4.588,1.329,9.278,1.344,13.874c0,101.956-44.378,186.544-121.756,232.072
            c-60.586,35.649-133.037,43.933-203.609,25.057c0.729-0.201,1.459-0.407,2.185-0.615c27.596-7.885,53.63-20.055,77.377-36.174
            c6.329-4.296,9.77-11.734,8.946-19.34c-0.825-7.605-5.778-14.134-12.881-16.975C97.757,312.434,53.563,257.594,46.757,181.575
            c-2.536-28.334,0.707-54.721,4.766-74.501c16.638,17.909,37.384,37.227,62.129,53.407c42.771,27.966,90.663,42.146,142.346,42.146
            c11.423,0,20.682-9.26,20.682-20.682v-21.393c0-0.045,0-0.091,0-0.137c-0.146-21.948,9.268-42.797,25.829-57.202
            c15.146-13.175,34.51-19.665,54.543-18.27c20.026,1.393,38.311,10.502,51.487,25.648c5.339,6.138,13.783,8.577,21.567,6.229
            c5.725-1.724,11.375-3.645,16.941-5.757C442.599,117.081,437.672,122.769,432.297,128.07z"/>
    </symbol>    

    <symbol id="footer-linkedin" role="img" aria-labelledby="footer-linkedin_title" viewBox="0 0 512 512">
        <title id="footer-linkedin_title">Linkedin</title>
        <path d="M2.5,510V153.7h137.3V510H2.5z M102.5,472.7V191H39.8v281.7H102.5z"/>
        <path d="M375.4,510l0.1-158.1c0.5-23.6-8.8-42.9-24.9-51.7c-5.4-3-11.2-4.5-17.3-4.5c-5.2,0-10.4,1.1-15.5,3.3l-1.1,211H176.1
            V153.7h140.6V166c16.6-6,33.6-9.1,50.6-9.1c24.7,0,48.3,6.4,70.2,18.9c44,25.2,72.5,71.8,72.5,118.8V510H375.4z M472.7,472.7V294.6
            c0-33.8-21.1-67.7-53.7-86.4c-15.9-9.1-33.8-13.9-51.7-14h-0.3c-20.1,0-40.1,5.8-59.6,17.3L279.4,228V191h-66.1v281.7h66.2l1-194.7
            l8.2-5.5c13.7-9.2,29.1-14.1,44.5-14.1c12.4,0,24.2,3,35.1,9c13.7,7.5,25,19.2,32.8,33.8c7.9,14.9,11.9,32.6,11.5,51.1l0,120.3
            H472.7z"/>
        <path d="M70.9,139.9C32.9,139.9,2,109,2,71c0-38,30.9-69,68.9-69c38,0,68.9,30.9,68.9,69C139.8,109,108.9,139.9,70.9,139.9z
             M70.9,39.3c-17.4,0-31.6,14.2-31.6,31.7c0,17.5,14.2,31.7,31.6,31.7c17.4,0,31.6-14.2,31.6-31.7C102.5,53.5,88.3,39.3,70.9,39.3z"
            />
    </symbol>

    <symbol id="footer-instagram" role="img" aria-labelledby="footer-instagram_title" viewBox="0 0 512 512">
        <title id="footer-instagram_title">Instagram</title>
        <path d="M373.659,0H138.341C62.06,0,0,62.06,0,138.341v235.318C0,449.94,62.06,512,138.341,512h235.318
            C449.94,512,512,449.94,512,373.659V138.341C512,62.06,449.94,0,373.659,0z M470.636,373.659
            c0,53.473-43.503,96.977-96.977,96.977H138.341c-53.473,0-96.977-43.503-96.977-96.977V138.341
            c0-53.473,43.503-96.977,96.977-96.977h235.318c53.473,0,96.977,43.503,96.977,96.977V373.659z"/>
        <path d="M370.586,238.141c-3.64-24.547-14.839-46.795-32.386-64.342c-17.547-17.546-39.795-28.746-64.341-32.385
            c-11.176-1.657-22.507-1.657-33.682,0c-30.336,4.499-57.103,20.541-75.372,45.172c-18.269,24.631-25.854,54.903-21.355,85.237
            c4.499,30.335,20.541,57.102,45.172,75.372c19.996,14.831,43.706,22.619,68.153,22.619c5.667,0,11.375-0.418,17.083-1.265
            c30.336-4.499,57.103-20.541,75.372-45.172C367.5,298.747,375.085,268.476,370.586,238.141z M267.791,327.632
            c-19.405,2.882-38.77-1.973-54.527-13.66c-15.757-11.687-26.019-28.811-28.896-48.216c-2.878-19.405,1.973-38.77,13.66-54.527
            c11.688-15.757,28.811-26.019,48.217-28.897c3.574-0.53,7.173-0.795,10.772-0.795s7.199,0.265,10.773,0.796
            c32.231,4.779,57.098,29.645,61.878,61.877C335.608,284.268,307.851,321.692,267.791,327.632z"/>
        <path d="M400.049,111.951c-3.852-3.851-9.183-6.058-14.625-6.058c-5.442,0-10.773,2.206-14.625,6.058
            c-3.851,3.852-6.058,9.174-6.058,14.625c0,5.451,2.207,10.773,6.058,14.625c3.852,3.851,9.183,6.058,14.625,6.058
            c5.442,0,10.773-2.206,14.625-6.058c3.851-3.852,6.058-9.183,6.058-14.625C406.107,121.133,403.9,115.802,400.049,111.951z"/>
    </symbol>

    <symbol id="footer-phone" role="img" aria-labelledby="footer-phone_title" viewBox="0 0 512 512">
        <title id="footer-phone_title"></title>
        <path d="M421.216,195.504c-5.092-26.101-17.723-49.836-36.526-68.64c-18.804-18.803-42.54-31.434-68.641-36.527
			c-11.21-2.189-22.073,5.128-24.261,16.339c-2.187,11.212,5.128,22.073,16.339,24.26c36.847,7.188,65.3,35.642,72.489,72.489
			c1.927,9.874,10.581,16.726,20.278,16.726c1.313,0,2.645-0.125,3.984-0.387C416.088,217.577,423.403,206.715,421.216,195.504z"/>
		<path d="M511.422,196.929c-5.629-50.096-28.373-97.304-64.042-132.927C411.712,28.378,364.475,5.694,314.371,0.128
			c-11.355-1.261-21.578,6.92-22.839,18.272c-1.261,11.353,6.919,21.578,18.272,22.84c84.961,9.438,150.966,75.36,160.512,160.31
			c1.188,10.566,10.139,18.374,20.527,18.374c0.771,0,1.552-0.043,2.336-0.131C504.53,218.516,512.698,208.281,511.422,196.929z"/>
		<path d="M432.59,312.566c-0.062-0.008-0.124-0.017-0.186-0.025c-20.013-2.639-39.751-7.557-58.619-14.596
			c-23.91-8.99-51.103-3.191-69.27,14.772c-0.028,0.028-0.056,0.055-0.083,0.083l-17.148,17.148
			c-42.633-26.924-78.756-63.047-105.679-105.679l17.149-17.149c0.027-0.028,0.054-0.055,0.082-0.083
			c17.964-18.166,23.762-45.356,14.79-69.223c-7.057-18.914-11.974-38.653-14.614-58.666c-0.007-0.063-0.017-0.127-0.026-0.19
			c-4.591-32.478-32.782-56.734-65.548-56.467H66.053c-1.943,0.002-3.912,0.091-5.853,0.267
			C24.143,26.016-2.541,58.001,0.718,94.058c0.01,0.108,0.02,0.215,0.032,0.323c7.684,72.354,32.649,142.88,72.197,203.955
			c35.892,56.461,84.701,105.269,141.162,141.164c60.792,39.406,130.99,64.369,203.013,72.196c0.127,0.015,0.254,0.027,0.38,0.038
			c1.961,0.176,3.949,0.266,5.921,0.266c0.083,0,0.165,0,0.247,0.001c36.204-0.148,65.538-29.722,65.391-65.841v-67.233
			C489.746,345.714,465.515,317.211,432.59,312.566z M447.698,378.695v67.548c0.055,13.396-10.8,24.338-24.19,24.393
			c-0.715-0.004-1.425-0.027-2.135-0.086c-65.578-7.161-129.488-29.914-184.837-65.808c-0.053-0.035-0.107-0.069-0.161-0.103
			c-51.429-32.68-95.885-77.137-128.565-128.565c-0.032-0.051-0.064-0.101-0.097-0.153C71.683,220.306,48.928,156.086,41.902,90.193
			C40.779,76.91,50.63,65.155,63.923,63.954c0.717-0.064,1.443-0.098,2.145-0.098h67.463c0.146-0.001,0.294-0.003,0.443-0.002
			c12.021,0,22.322,8.905,24.044,20.819c3.05,23.063,8.721,45.806,16.871,67.649c3.319,8.832,1.189,18.869-5.427,25.591
			l-28.517,28.517c-6.583,6.582-7.956,16.753-3.354,24.847c33.837,59.508,83.177,108.847,142.685,142.685
			c8.094,4.6,18.264,3.23,24.848-3.355l28.512-28.512c6.72-6.621,16.765-8.752,25.642-5.415
			c21.799,8.134,44.547,13.805,67.61,16.855c12.18,1.757,21.122,12.339,20.816,24.647
			C447.7,378.353,447.698,378.524,447.698,378.695z"/>
    </symbol>    

	<symbol id="footer-mail" role="img" aria-labelledby="footer-mail_title" viewBox="0 0 512 512">
        <title id="footer-mail_title"></title>
        <path d="M256,141.176c-63.306,0-114.809,51.503-114.809,114.809S192.694,370.795,256,370.795s114.809-51.503,114.809-114.809
			S319.306,141.176,256,141.176z M256,329.43c-40.498,0-73.445-32.947-73.445-73.445c0-40.498,32.947-73.445,73.445-73.445
			c40.499,0,73.445,32.947,73.445,73.445C329.445,296.483,296.499,329.43,256,329.43z"/>
		<path d="M437.008,74.97C388.656,26.623,324.375,0,256,0c-0.005,0-0.013,0-0.017,0C187.603,0.004,123.318,26.637,74.97,74.992
			C26.62,123.347-0.005,187.637,0,256.017c0.004,68.379,26.637,132.666,74.992,181.014C123.344,485.377,187.625,512.001,256,512
			c0.004,0,0.012,0,0.017,0c55.945-0.004,111.216-18.738,155.631-52.752c9.07-6.945,10.792-19.927,3.846-28.995
			c-6.945-9.069-19.926-10.794-28.995-3.846c-37.24,28.518-83.58,44.224-130.486,44.228c-0.006,0-0.006,0-0.014,0
			c-57.324,0-111.224-22.324-151.761-62.856c-40.542-40.536-62.871-94.435-62.875-151.766
			C41.357,137.663,137.636,41.372,255.986,41.364c0.007,0,0.006,0,0.014,0c118.34,0,214.628,96.279,214.636,214.622v23.532
			c0,27.523-22.39,49.913-49.913,49.913c-27.523,0-49.913-22.391-49.913-49.913v-23.532c0-11.422-9.259-20.682-20.682-20.682
			s-20.682,9.26-20.682,20.682v23.532c0,50.33,40.947,91.278,91.278,91.278S512,329.848,512,279.518v-23.534
			C511.995,187.604,485.362,123.318,437.008,74.97z"/>
    </symbol>

    <symbol id="footer-location" role="img" aria-labelledby="footer-location_title" viewBox="0 0 512 512">
        <title id="footer-location_title"></title>
        <path d="M406.766,62.449C366.495,22.178,312.951,0,256,0S145.505,22.178,105.234,62.449
			c-40.272,40.271-62.449,93.814-62.449,150.766c0,37.656,10.972,76.863,32.609,116.532c16.825,30.846,40.15,62.102,69.326,92.898
			c49.17,51.903,97.763,84.519,99.808,85.881C248.001,510.842,252,512,256,512c4,0,7.999-1.158,11.473-3.474
			c2.045-1.363,50.638-33.978,99.808-85.881c29.176-30.795,52.501-62.051,69.326-92.898c21.637-39.669,32.609-78.876,32.609-116.532
			C469.215,156.263,447.038,102.72,406.766,62.449z M256.001,465.903C215.826,436.156,84.15,329.739,84.15,213.215
			c0-94.759,77.091-171.851,171.85-171.851s171.85,77.092,171.851,171.851C427.851,329.748,296.159,436.168,256.001,465.903z"/>
		<path d="M256,128.355c-46.791,0-84.86,38.068-84.86,84.86c0,46.791,38.068,84.86,84.86,84.86c46.792,0,84.861-38.068,84.86-84.86
			C340.86,166.423,302.791,128.355,256,128.355z M256,256.71c-23.983,0-43.495-19.512-43.495-43.495
			c0-23.983,19.512-43.495,43.495-43.495c23.984,0,43.495,19.512,43.495,43.495C299.495,237.198,279.984,256.71,256,256.71z"/>
		</symbol>

	<symbol id="footer-time" role="img" aria-labelledby="footer-time_title" viewBox="0 0 512 512">
        <title id="footer-time_title"></title>
        <path d="M437.019,74.981C388.667,26.629,324.38,0,256,0S123.333,26.63,74.981,74.981S0,187.62,0,256
			s26.629,132.667,74.981,181.019C123.332,485.371,187.62,512,256,512s132.667-26.629,181.019-74.981
			C485.371,388.667,512,324.38,512,256S485.371,123.332,437.019,74.981z M256,470.636C137.65,470.636,41.364,374.35,41.364,256
			S137.65,41.364,256,41.364S470.636,137.65,470.636,256S374.35,470.636,256,470.636z"/>
		<path d="M341.221,311.97l-64.538-64.537V114.809c0-11.422-9.259-20.682-20.682-20.682c-11.422,0-20.682,9.26-20.682,20.682V256
			c0,5.486,2.179,10.746,6.058,14.625l70.594,70.595c4.038,4.039,9.332,6.058,14.625,6.058c5.293,0,10.586-2.019,14.626-6.058
			C349.297,333.142,349.297,320.047,341.221,311.97z"/>
	</symbol>

</svg>