<?xml version="1.0" encoding="utf-8"?>
<!-- Generator: Adobe Illustrator 20.1.0, SVG Export Plug-In . SVG Version: 6.00 Build 0)  -->
<svg version="1.1" id="Layer_1" xmlns="http://www.w3.org/2000/svg" xmlns:xlink="http://www.w3.org/1999/xlink" x="0px" y="0px"
	 viewBox="0 0 228.4 43.3" style="enable-background:new 0 0 228.4 43.3;" xml:space="preserve">
<style type="text/css">
	.st0{fill:#75AC50;}
	.st1{fill:#757574;}
</style>
<g>
	<g>
		<g>
			<path class="st0" d="M59.2,28.3c-4.8,0-8.4-3.8-8.4-8.7c0-4.8,3.6-8.7,8.5-8.7c3,0,4.9,1.1,6.6,2.7L64.6,15
				c-1.4-1.3-3-2.3-5.3-2.3c-3.7,0-6.5,3-6.5,6.9s2.8,7,6.5,7c2.3,0,3.8-0.9,5.4-2.4l1.2,1.2C64.2,27.1,62.2,28.3,59.2,28.3z"/>
			<path class="st0" d="M80.8,28l-4.9-6.5h-4.8V28h-1.9V11.2h7.2c3.7,0,6.1,2,6.1,5c0,2.8-1.9,4.4-4.6,4.9l5.2,6.9H80.8z M76.3,12.9
				h-5.2v6.8h5.2c2.5,0,4.3-1.3,4.3-3.5C80.6,14.2,79,12.9,76.3,12.9z"/>
			<path class="st0" d="M98.7,12.9H88.5v5.7h9.2v1.7h-9.2v5.9h10.4V28H86.6V11.2h12.1V12.9z"/>
			<path class="st0" d="M108.5,28h-5.8V11.2h5.8c5.3,0,8.9,3.6,8.9,8.4S113.8,28,108.5,28z M108.5,12.9h-3.9v13.3h3.9
				c4.2,0,7-2.9,7-6.6C115.4,15.8,112.7,12.9,108.5,12.9z"/>
			<path class="st0" d="M123.5,11.2V28h-1.9V11.2H123.5z"/>
			<path class="st0" d="M134.8,28h-1.9V13h-5.6v-1.8h13.2V13h-5.6v15H134.8z"/>
			<path class="st1" d="M142.2,11.2h4.1l4.4,11.8l4.4-11.8h4l-6.8,16.9H149L142.2,11.2z"/>
			<path class="st1" d="M161.8,11.2h3.7V28h-3.7V11.2z"/>
			<path class="st1" d="M175.7,28.2c-1.3,0-2.5-0.2-3.8-0.7s-2.4-1.1-3.4-2l2.2-2.6c0.8,0.6,1.6,1.1,2.4,1.5
				c0.8,0.4,1.7,0.6,2.7,0.6c0.8,0,1.4-0.1,1.8-0.4s0.6-0.7,0.6-1.2l0,0c0-0.2,0-0.5-0.1-0.6c-0.1-0.2-0.3-0.4-0.5-0.5
				c-0.2-0.2-0.6-0.3-1-0.5s-1-0.3-1.7-0.5c-0.9-0.2-1.6-0.4-2.3-0.7c-0.7-0.3-1.3-0.6-1.8-0.9c-0.5-0.4-0.9-0.8-1.1-1.4
				s-0.4-1.3-0.4-2.1l0,0c0-0.8,0.1-1.5,0.4-2.1c0.3-0.6,0.7-1.1,1.2-1.6c0.5-0.4,1.1-0.8,1.9-1c0.7-0.2,1.5-0.4,2.4-0.4
				c1.2,0,2.4,0.2,3.4,0.6s2,0.9,2.8,1.6l-1.9,2.8c-0.8-0.5-1.5-0.9-2.2-1.2s-1.4-0.4-2.2-0.4c-0.7,0-1.3,0.1-1.6,0.4
				c-0.4,0.3-0.5,0.6-0.5,1l0,0c0,0.3,0.1,0.5,0.2,0.7c0.1,0.2,0.3,0.4,0.6,0.5c0.3,0.2,0.6,0.3,1.1,0.5c0.5,0.1,1.1,0.3,1.8,0.5
				c0.8,0.2,1.6,0.5,2.3,0.8s1.2,0.6,1.7,1s0.8,0.9,1,1.4s0.3,1.2,0.3,1.9l0,0c0,0.8-0.2,1.6-0.5,2.2s-0.7,1.2-1.3,1.6
				c-0.5,0.4-1.2,0.8-1.9,1C177.4,28.1,176.6,28.2,175.7,28.2z"/>
			<path class="st1" d="M185.2,11.2h3.7V28h-3.7V11.2z"/>
			<path class="st1" d="M201.2,28.3c-1.3,0-2.5-0.2-3.6-0.7s-2-1.1-2.8-1.8c-0.8-0.8-1.4-1.7-1.8-2.7c-0.4-1-0.7-2.2-0.7-3.4l0,0
				c0-1.2,0.2-2.3,0.7-3.4c0.4-1,1.1-2,1.9-2.8s1.7-1.4,2.8-1.9s2.3-0.7,3.6-0.7s2.5,0.2,3.6,0.7s2,1.1,2.8,1.8
				c0.8,0.8,1.4,1.7,1.8,2.7c0.4,1,0.7,2.2,0.7,3.4l0,0c0,1.2-0.2,2.3-0.7,3.4c-0.4,1-1.1,2-1.9,2.8s-1.7,1.4-2.8,1.9
				S202.5,28.3,201.2,28.3z M201.3,24.8c0.7,0,1.4-0.1,2-0.4s1.2-0.6,1.6-1.1c0.4-0.5,0.8-1,1-1.7c0.2-0.6,0.4-1.3,0.4-2l0,0
				c0-0.7-0.1-1.4-0.4-2c-0.2-0.6-0.6-1.2-1.1-1.7s-1-0.9-1.6-1.1s-1.3-0.4-2-0.4c-0.8,0-1.4,0.1-2.1,0.4c-0.6,0.3-1.1,0.6-1.6,1.1
				c-0.4,0.5-0.8,1-1,1.7c-0.2,0.6-0.4,1.3-0.4,2l0,0c0,0.7,0.1,1.4,0.4,2c0.2,0.6,0.6,1.2,1.1,1.7s1,0.9,1.6,1.1
				C199.9,24.7,200.5,24.8,201.3,24.8z"/>
			<path class="st1" d="M213.5,11.2h3.4l7.9,10.3V11.2h3.6V28h-3.1l-8.1-10.7V28h-3.6L213.5,11.2L213.5,11.2z"/>
		</g>
		<g>
			<path class="st1" d="M51.8,36l75.4-0.8v1.6L51.8,36L51.8,36z"/>
			<g>
				<path class="st0" d="M132.3,39.2v-6.3h1v6.3H132.3z"/>
				<path class="st0" d="M141.1,37.3v-4.5h1v6.3h-0.8l-3.6-4.4v4.4h-1v-6.3h0.8L141.1,37.3z"/>
				<path class="st0" d="M148.4,39.2h-1.1l-2.6-6.3h1.1l2,5.1l2-5.1h1.1L148.4,39.2z"/>
				<path class="st0" d="M158.4,39.2h-4.7c0-2.1,0-4.2,0-6.3h4.6v1h-3.6v1.7h3.5v0.9h-3.5v1.7h3.6L158.4,39.2L158.4,39.2z"/>
				<path class="st0" d="M165.3,34.2c-0.3-0.4-0.9-0.7-1.6-0.7c-0.8,0-1.5,0.4-1.5,1s0.7,0.8,1.5,0.9c1.3,0.2,2.5,0.5,2.5,2
					c0,1.4-1.3,1.9-2.6,1.9c-1.2,0-2.1-0.4-2.7-1.4l0.8-0.5c0.5,0.8,1.2,1,2,1s1.6-0.3,1.6-1s-0.7-0.9-1.6-1
					c-1.3-0.2-2.4-0.5-2.4-1.8s1.3-1.8,2.4-1.8c0.9,0,1.8,0.2,2.3,1.1L165.3,34.2z"/>
				<path class="st0" d="M170.7,33.8h-2.1v-0.9c1.8,0,3.3,0,5.1,0v0.9h-2.1v5.4h-1v-5.4H170.7z"/>
				<path class="st0" d="M176.5,39.2v-6.3h1v6.3H176.5z"/>
				<path class="st0" d="M185.5,34.3c-0.5-0.4-1.1-0.7-1.7-0.7c-1.5,0-2.3,1.1-2.3,2.4c0,1.2,0.7,2.3,2.3,2.3c0.5,0,1-0.1,1.5-0.6
					v-1.3h-1.8v-0.9h2.7v2.6c-0.6,0.7-1.4,1.1-2.5,1.1c-2.3,0-3.3-1.5-3.3-3.2c0-1.8,1.2-3.4,3.3-3.4c0.8,0,1.7,0.3,2.3,1
					L185.5,34.3z"/>
				<path class="st0" d="M193.6,37.8h-3.4l-0.6,1.3h-1.1l2.8-6.3h1.1l2.8,6.3h-1.1L193.6,37.8z M191.9,33.9l-1.3,3h2.7L191.9,33.9z"
					/>
				<path class="st0" d="M197.7,32.9h4.6v0.5l-3.5,4.9h3.5v1h-4.9v-0.6l3.4-4.8h-3.1V32.9z"/>
				<path class="st0" d="M205.2,39.2v-6.3h1v6.3H205.2z"/>
				<path class="st0" d="M215.7,36c0,1.7-1,3.3-3.2,3.3s-3.2-1.6-3.2-3.3c0-1.9,1.3-3.3,3.2-3.3C214.6,32.7,215.7,34.3,215.7,36z
					 M212.5,38.4c1.6,0,2.2-1.1,2.2-2.3s-0.7-2.4-2.2-2.4s-2.2,1-2.2,2.4C210.2,37.2,210.9,38.4,212.5,38.4z"/>
				<path class="st0" d="M223,37.3v-4.5h1v6.3h-0.8l-3.6-4.4v4.4h-1v-6.3h0.8L223,37.3z"/>
				<path class="st0" d="M227.4,39.2v-6.3h1v6.3H227.4z"/>
			</g>
		</g>
	</g>
	<g>
		<g>
			<path class="st0" d="M35.7,38.3H5V7.6h30.8v3.1h5V6.3c0-2.1-1.7-3.7-3.8-3.7H3.8C1.7,2.6,0,4.3,0,6.3v33.2c0,2.1,1.7,3.7,3.8,3.7
				H37c2.1,0,3.8-1.7,3.8-3.7v-4.3h-5L35.7,38.3L35.7,38.3z"/>
		</g>
		<g>
			<polygon class="st1" points="32.1,36.2 14,13.7 20.5,13.7 31.8,27.9 51.5,0 57.6,0 			"/>
		</g>
	</g>
</g>
</svg>
