<svg xmlns="http://www.w3.org/2000/svg" xmlns:xlink="http://www.w3.org/1999/xlink">

	<symbol id="services01" role="img" aria-labelledby="services01_title" viewBox="0 0 480 480">
        <title id="services01_title"></title>
        <path d="M304,360H16v-88c0-13.255,10.745-24,24-24h136v-16H60.944l51.576-103.16c2.699-5.431,8.247-8.858,14.312-8.84H296v-16
            H126.832c-12.133-0.041-23.233,6.819-28.624,17.688L43.056,232H40c-22.08,0.026-39.974,17.92-40,40v184c0,13.255,10.745,24,24,24
            h64c13.255,0,24-10.745,24-24v-48h192v-16H40c-1.48-0.01-2.956-0.16-4.408-0.448c-0.44-0.08-0.872-0.208-1.312-0.312
            c-0.98-0.243-1.944-0.545-2.888-0.904c-0.448-0.176-0.896-0.352-1.328-0.552c-0.935-0.432-1.841-0.924-2.712-1.472
            c-0.328-0.208-0.68-0.392-1-0.608c-1.14-0.795-2.211-1.687-3.2-2.664c-0.168-0.168-0.312-0.368-0.48-0.544
            c-0.796-0.842-1.534-1.737-2.208-2.68c-0.264-0.376-0.504-0.8-0.744-1.16c-0.519-0.833-0.99-1.696-1.408-2.584
            c-0.192-0.424-0.4-0.856-0.568-1.296c-0.104-0.248-0.152-0.52-0.248-0.8H304V360z M80,408h16v48c0,4.418-3.582,8-8,8h-8V408z
             M48,408h16v56H48V408z M19.04,401.928c1.341,0.836,2.73,1.592,4.16,2.264c0.8,0.368,1.6,0.712,2.4,1.032
            c1.55,0.587,3.134,1.078,4.744,1.472c0.568,0.144,1.088,0.392,1.672,0.512V464H24c-4.418,0-8-3.582-8-8v-56
            c0.304,0.224,0.664,0.392,0.976,0.616C17.64,401.088,18.344,401.496,19.04,401.928z"/>
        <path d="M168,280h136v-16H168c-13.255,0-24,10.745-24,24v32c0,13.255,10.745,24,24,24h136v-16H168c-4.418,0-8-3.582-8-8v-8h144
            v-16H160v-8C160,283.582,163.582,280,168,280z"/>
        <path d="M104,264H56c-13.255,0-24,10.745-24,24v32c0,13.255,10.745,24,24,24h48c13.255,0,24-10.745,24-24v-32
            C128,274.745,117.255,264,104,264z M112,320c0,4.418-3.582,8-8,8H56c-4.418,0-8-3.582-8-8v-32c0-4.418,3.582-8,8-8h48
            c4.418,0,8,3.582,8,8V320z"/>
        <path d="M480,224v-24c0-4.418-3.582-8-8-8h-34.232l-6.176-18.528c-1.089-3.268-4.147-5.473-7.592-5.472h-24v-12.688
            c24.091-9.874,39.873-33.276,40-59.312V8c0-4.418-3.582-8-8-8H320c-4.418,0-8,3.582-8,8v88c0.127,26.036,15.909,49.438,40,59.312
            V168h-48v-8h-16v11.056l-27.576,13.784c-2.712,1.355-4.425,4.128-4.424,7.16v16c-0.001,3.032,1.712,5.805,4.424,7.16L288,228.944
            V240h16v-8h45.392l-8.688,30.4c-1.634,5.665-6.808,9.575-12.704,9.6v16c13.028-0.041,24.468-8.669,28.088-21.184l0.8-2.816h26.952
            l14.4,72H376v16h25.44l6.72,33.6c0.76,3.725,4.038,6.401,7.84,6.4h16v16c0,4.418-3.582,8-8,8h-72c-17.673,0-32,14.327-32,32
            c0,17.673,14.327,32,32,32h128v-16H352c-8.837,0-16-7.163-16-16s7.163-16,16-16h72c13.255,0,24-10.745,24-24v-16h16
            c4.418-0.001,7.999-3.584,7.998-8.002c0-0.441-0.037-0.882-0.11-1.318l-23.024-138.168l26.712-13.312
            C478.301,229.838,480.017,227.047,480,224z M288,211.056l-16-8v-6.112l16-8V211.056z M328,16h96v16h-96V16z M328,96V48h96v48
            c-0.096,21.193-14.004,39.845-34.288,45.984c-3.389,1.011-5.711,4.128-5.712,7.664V168h-16v-18.352
            c-0.001-3.536-2.323-6.653-5.712-7.664C342.004,135.845,328.096,117.193,328,96z M361.464,248l4.568-16h11.408l3.2,16H361.464z
             M464,219.056l-27.576,13.784c-3.144,1.572-4.894,5.013-4.312,8.48l1.112,6.68H416v16h19.888l2.672,16H424v16h17.224l2.664,16H432
            v16h14.552l2.672,16H440v16h11.888l2.664,16h-32L391.84,222.4c-0.76-3.725-4.038-6.401-7.84-6.4h-80v-32h114.232l6.176,18.528
            c1.089,3.268,4.147,5.473,7.592,5.472h32V219.056z"/>
        <rect x="184" y="192" width="56" height="16"/>
        <rect x="208.027" y="137.212" transform="matrix(0.4472 -0.8944 0.8944 0.4472 -27.3089 283.9022)" width="16" height="53.664"/>
        <rect x="189.133" y="228.004" transform="matrix(0.8944 -0.4472 0.4472 0.8944 -82.7435 121.4966)" width="53.664" height="16"/>
        <rect x="152" y="192" width="16" height="16"/>
        <rect x="160" y="136" width="16" height="16"/>
        <rect x="136" y="160" width="16" height="16"/>
        <path d="M360,96h-16c0,17.673,14.327,32,32,32v-16C367.163,112,360,104.837,360,96z"/>
        <rect x="344" y="64" width="16" height="16"/>
    </symbol>

    <symbol id="services02" role="img" aria-labelledby="services02_title" viewBox="0 0 64 64">
        <title id="services02_title"></title>
        <path d="M55.991,28.977l2,.046q.009-.39.009-.783V11a1,1,0,0,0-1-1A41.861,41.861,0,0,1,33.736,2.959l-1.179-.79a1,1,0,0,0-1.114,0l-1.176.789A42.168,42.168,0,0,1,19.151,8.2,42.026,42.026,0,0,1,7,10a1,1,0,0,0-1,1V29H8V11.988a44.031,44.031,0,0,0,11.73-1.871,44.124,44.124,0,0,0,11.647-5.5L32,4.2l.626.419A43.831,43.831,0,0,0,56,11.988V28.24C56,28.486,56,28.731,55.991,28.977Z"/><path d="M40.151,55.288,32,59.854l-8.15-4.566a30.987,30.987,0,0,1-7.581-5.968L14.8,50.68a32.968,32.968,0,0,0,8.07,6.352l8.64,4.84a.994.994,0,0,0,.976,0l8.64-4.84a32.894,32.894,0,0,0,7.591-5.844L47.281,49.8A30.863,30.863,0,0,1,40.151,55.288Z"/>
        <path d="M18.285,48.536a28.726,28.726,0,0,0,6.546,5.006l6.68,3.75a1,1,0,0,0,.978,0l6.679-3.749a28.828,28.828,0,0,0,5.512-4l-1.36-1.467A26.844,26.844,0,0,1,38.19,51.8L32,55.273,25.808,51.8a26.756,26.756,0,0,1-6.093-4.659Z"/>
        <path d="M51.989,28.973l2,.054Q54,28.634,54,28.24V14.83a1,1,0,0,0-.916-1A46.02,46.02,0,0,1,32.532,6.943a1,1,0,0,0-1.064,0,46.02,46.02,0,0,1-20.552,6.891,1,1,0,0,0-.916,1V28.24q0,.395.011.787l2-.054Q12,28.607,12,28.24V15.74A48.057,48.057,0,0,0,32,8.967,48.057,48.057,0,0,0,52,15.74v12.5Q52,28.608,51.989,28.973Z"/>
        <rect x="31" y="12" width="2" height="2"/>
        <rect x="14" y="17" width="2" height="2"/>
        <rect x="48" y="17" width="2" height="2"/>
        <rect x="14" y="25" width="2" height="2"/>
        <rect x="31" y="50" width="2" height="2"/>
        <path d="M57,31H51.481l-3.2-4H50V25H48v1.649l-3.019-3.773A4.978,4.978,0,0,0,41.077,21H23.923a4.981,4.981,0,0,0-3.9,1.876L13.519,31H7a5.006,5.006,0,0,0-5,5v8a1,1,0,0,0,1,1H6.35a5.99,5.99,0,0,0,11.3,0h26.7a5.99,5.99,0,0,0,11.3,0H61a1,1,0,0,0,1-1V36A5.006,5.006,0,0,0,57,31ZM33,23h8.077a2.985,2.985,0,0,1,2.343,1.126L48.92,31H33ZM12,47a4,4,0,1,1,4-4A4,4,0,0,1,12,47Zm19-4H18A6,6,0,0,0,6,43H4V36a3,3,0,0,1,3-3H31Zm0-12H16.08l5.5-6.874A2.988,2.988,0,0,1,23.923,23H31ZM50,47a4,4,0,1,1,4-4A4,4,0,0,1,50,47Zm10-4H56a6,6,0,0,0-12,0H33V33H57a3,3,0,0,1,3,3Z"/>
        <circle cx="12" cy="43" r="2"/>
        <circle cx="50" cy="43" r="2"/>
        <rect x="25" y="35" width="4" height="2"/>
        <rect x="41" y="35" width="4" height="2"/>
        <rect x="23" y="15" width="2" height="2"/>
        <rect x="39" y="15" width="2" height="2"/>
        <rect x="24" y="47" width="2" height="2"/>
        <rect x="38" y="47" width="2" height="2"/>
    </symbol>

    <symbol id="services03" role="img" aria-labelledby="services03_title" viewBox="0 0 480 480">
        <title id="services03_title"></title>
        <path d="M348.583,81.448l-76.584-53.616V0h-16v24h-32V0h-16v27.832l-76.584,53.6c-3.627,2.523-4.523,7.508-2.001,11.135
            c1.499,2.155,3.959,3.438,6.585,3.433h208c4.418-0.003,7.997-3.588,7.994-8.006C351.991,85.387,350.718,82.944,348.583,81.448z
             M161.375,80l57.144-40h42.96l57.144,40H161.375z"/>
        <path d="M103.999,312h-16c-13.255,0-24,10.745-24,24v8c0,13.255,10.745,24,24,24h16c13.255,0,24-10.745,24-24v-8
            C127.999,322.745,117.254,312,103.999,312z M111.999,344c0,4.418-3.582,8-8,8h-16c-4.418,0-8-3.582-8-8v-8c0-4.418,3.582-8,8-8h16
            c4.418,0,8,3.582,8,8V344z"/>
        <path d="M391.999,312h-16c-13.255,0-24,10.745-24,24v8c0,13.255,10.745,24,24,24h16c13.255,0,24-10.745,24-24v-8
            C415.999,322.745,405.254,312,391.999,312z M399.999,344c0,4.418-3.582,8-8,8h-16c-4.418,0-8-3.582-8-8v-8c0-4.418,3.582-8,8-8h16
            c4.418,0,8,3.582,8,8V344z"/>
        <path d="M311.999,312h-144c-13.255,0-24,10.745-24,24v8c0,13.255,10.745,24,24,24h144c13.255,0,24-10.745,24-24v-8
            C335.999,322.745,325.254,312,311.999,312z M319.999,344c0,4.418-3.582,8-8,8h-144c-4.418,0-8-3.582-8-8v-8c0-4.418,3.582-8,8-8
            h144c4.418,0,8,3.582,8,8V344z"/>
        <path d="M422.847,288.52l-17.736-7.096l-53.056-72.952c-7.542-10.334-19.559-16.452-32.352-16.472H160.295
            c-12.793,0.02-24.81,6.138-32.352,16.472l-53.056,72.952l-17.736,7.096c-15.225,6.031-25.204,20.768-25.152,37.144V464
            c0,8.837,7.163,16,16,16h48c8.837,0,16-7.163,16-16v-32h256v32c0,8.837,7.163,16,16,16h48c8.837,0,16-7.163,16-16V325.664
            C448.051,309.288,438.072,294.551,422.847,288.52z M140.879,217.888c4.525-6.203,11.738-9.876,19.416-9.888h159.408
            c7.678,0.012,14.891,3.685,19.416,9.888L384.287,280H95.711L140.879,217.888z M95.999,464h-48v-33.368
            c0.672,0.24,1.4,0.368,2.104,0.544c0.464,0.12,0.912,0.28,1.392,0.368c1.483,0.294,2.992,0.447,4.504,0.456h40V464z M431.999,464
            h-48v-32h40c1.512-0.009,3.021-0.162,4.504-0.456c0.48-0.088,0.928-0.248,1.4-0.368c0.696-0.176,1.424-0.304,2.096-0.544V464z
             M431.999,408c0,4.418-3.582,8-8,8h-320h-48c-4.418,0-8-3.582-8-8v-8h384V408z M431.999,384h-384v-58.336
            c-0.034-9.824,5.953-18.665,15.088-22.28L81.535,296h316.928l18.448,7.384c9.135,3.615,15.122,12.456,15.088,22.28V384z"/>
        <rect x="231.999" y="112" width="16" height="24"/>
        <rect x="231.999" y="152" width="16" height="24"/>
        <rect x="140.399" y="113.277" transform="matrix(0.6337 -0.7736 0.7736 0.6337 -37.9929 162.3215)" width="24" height="16"/>
        <rect x="115.061" y="144.239" transform="matrix(0.6338 -0.7735 0.7735 0.6338 -71.2264 154.0246)" width="24" height="16"/>
        <rect x="89.71" y="175.178" transform="matrix(0.6338 -0.7735 0.7735 0.6338 -104.4402 145.7453)" width="24" height="16"/>
        <rect x="64.347" y="206.153" transform="matrix(0.6338 -0.7735 0.7735 0.6338 -137.6858 137.47)" width="24" height="16"/>
        <rect x="184.634" y="115.545" transform="matrix(0.2803 -0.9599 0.9599 0.2803 22.9315 277.6729)" width="24" height="16"/>
        <rect x="173.421" y="153.899" transform="matrix(0.2807 -0.9598 0.9598 0.2807 -22.0193 294.4154)" width="24" height="16"/>
        <rect x="93.017" y="110.498" transform="matrix(0.7351 -0.678 0.678 0.7351 -52.5152 102.5853)" width="24" height="15.992"/>
        <rect x="63.604" y="137.642" transform="matrix(0.7351 -0.678 0.678 0.7351 -78.7088 89.8351)" width="24" height="15.992"/>
        <rect x="34.218" y="164.743" transform="matrix(0.7351 -0.678 0.678 0.7351 -104.8662 77.0916)" width="24" height="15.992"/>
        <rect x="4.822" y="191.862" transform="matrix(0.7351 -0.678 0.678 0.7351 -131.0382 64.3462)" width="24" height="15.992"/>
        <rect x="319.604" y="110.965" transform="matrix(0.7738 -0.6335 0.6335 0.7738 -3.7822 235.3394)" width="15.992" height="24"/>
        <rect x="344.916" y="141.866" transform="matrix(0.7736 -0.6337 0.6337 0.7736 -17.6022 258.4628)" width="16" height="24"/>
        <rect x="370.31" y="172.805" transform="matrix(0.7735 -0.6337 0.6337 0.7735 -31.4475 281.6047)" width="16" height="24"/>
        <rect x="395.603" y="203.784" transform="matrix(0.7735 -0.6337 0.6337 0.7735 -45.3525 304.6502)" width="16" height="24"/>
        <rect x="275.353" y="113.291" transform="matrix(0.96 -0.28 0.28 0.96 -23.7474 84.3501)" width="16" height="24"/>
        <rect x="286.571" y="151.573" transform="matrix(0.9598 -0.2806 0.2806 0.9598 -34.0644 89.2291)" width="16" height="24"/>
        <rect x="366.98" y="108.133" transform="matrix(0.678 -0.735 0.735 0.678 32.4261 314.2939)" width="15.992" height="24"/>
        <rect x="396.395" y="135.268" transform="matrix(0.6781 -0.7349 0.7349 0.6781 21.9275 344.605)" width="15.992" height="24"/>
        <rect x="425.765" y="162.401" transform="matrix(0.6781 -0.7349 0.7349 0.6781 11.44 374.9243)" width="15.992" height="24"/>
        <rect x="455.182" y="189.507" transform="matrix(0.678 -0.735 0.735 0.678 1.0106 405.3212)" width="15.992" height="24"/>
    </symbol>

    <symbol id="services04" role="img" aria-labelledby="services04_title" viewBox="0 0 480 480">
        <title id="services04_title"></title>
        <path d="m196.558594 298.398438c-1.832032 4.914062-1.144532 10.414062 1.84375 14.722656 2.988281 4.308594 7.898437 6.878906 13.140625 6.878906h32.175781l13.601562 20.441406c1.488282 2.230469 3.996094 3.566406 6.679688 3.558594h48c2.675781 0 5.171875-1.335938 6.65625-3.558594l13.625-20.441406h32.175781c5.242188 0 10.152344-2.570312 13.140625-6.878906 2.988282-4.308594 3.675782-9.808594 1.84375-14.722656l-12.160156-32.421876c-5.105469-13.488281-17.039062-23.214843-31.28125-25.488281v-31.007812c.027344-8.007813-2.371094-15.835938-6.886719-22.449219-23.960937-35.03125-36.875-35.03125-41.113281-35.03125s-17.152344 0-41.113281 35.023438c-4.511719 6.617187-6.914063 14.445312-6.886719 22.457031v31.007812c-14.238281 2.273438-26.171875 11.988281-31.28125 25.472657zm111.203125 29.601562h-39.441407l-5.335937-8h50.113281zm44.574219-56.425781 12.121093 32.425781h-28.457031v-47.121094c7.476562 1.996094 13.539062 7.464844 16.296875 14.695313zm-96.335938-62.09375c-.023438-4.78125 1.402344-9.460938 4.089844-13.417969 15.191406-22.199219 24.902344-28.0625 27.910156-28.0625s12.71875 5.863281 27.910156 28.0625c2.6875 3.957031 4.113282 8.636719 4.089844 13.417969v94.519531h-64zm-32.296875 62.09375c2.757813-7.230469 8.820313-12.699219 16.296875-14.695313v47.121094h-28.457031zm0 0"/>
        <path d="m288 360c-17.671875 0-32 14.328125-32 32 0 16.480469 12.464844 48 32 48s32-31.519531 32-48c0-17.671875-14.328125-32-32-32zm0 64c-5.984375 0-16-20.039062-16-32 0-8.835938 7.164062-16 16-16s16 7.164062 16 16c0 12-10.015625 32-16 32zm0 0"/>
        <path d="m392 456c-.054688-6.582031-2.789062-12.855469-7.574219-17.378906-4.785156-4.519532-11.203125-6.898438-17.777343-6.582032-3.875-11.042968-15.148438-17.683593-26.683594-15.714843-11.539063 1.96875-19.972656 11.972656-19.964844 23.675781h16c0-4.417969 3.582031-8 8-8s8 3.582031 8 8c-.007812.449219-.042969.894531-.113281 1.335938-.34375 3.027343 1.058593 5.984374 3.617187 7.632812 2.5625 1.648438 5.835938 1.703125 8.449219.136719 1.222656-.734375 2.621094-1.113281 4.046875-1.105469 4.417969 0 8 3.582031 8 8s-3.582031 8-8 8h-160c-4.417969 0-8-3.582031-8-8s3.582031-8 8-8c1.425781-.007812 2.824219.371094 4.046875 1.105469 2.613281 1.566406 5.886719 1.511719 8.449219-.136719 2.558594-1.648438 3.960937-4.605469 3.617187-7.632812-.070312-.441407-.105469-.886719-.113281-1.335938 0-4.417969 3.582031-8 8-8s8 3.582031 8 8h16c.007812-11.703125-8.425781-21.707031-19.964844-23.675781-11.535156-1.96875-22.808594 4.671875-26.683594 15.714843-6.574218-.320312-13 2.050782-17.785156 6.574219-4.785156 4.523438-7.519531 10.800781-7.566406 17.386719.027344 2.730469.523438 5.4375 1.472656 8h-25.472656v16h256v-16h-25.472656c.949218-2.5625 1.445312-5.269531 1.472656-8zm0 0"/>
        <path d="m288 184c-13.253906 0-24 10.746094-24 24s10.746094 24 24 24 24-10.746094 24-24-10.746094-24-24-24zm0 32c-4.417969 0-8-3.582031-8-8s3.582031-8 8-8 8 3.582031 8 8-3.582031 8-8 8zm0 0"/>
        <path d="m376 328h16v32h-16zm0 0"/>
        <path d="m376 376h16v16h-16zm0 0"/>
        <path d="m408 344h16v32h-16zm0 0"/>
        <path d="m408 392h16v16h-16zm0 0"/>
        <path d="m184 328h16v32h-16zm0 0"/>
        <path d="m184 376h16v16h-16zm0 0"/>
        <path d="m152 344h16v32h-16zm0 0"/>
        <path d="m152 392h16v16h-16zm0 0"/>
        <path d="m456 0h-432c-13.253906 0-24 10.746094-24 24v400c0 13.253906 10.746094 24 24 24h144v-16h-144c-4.417969 0-8-3.582031-8-8v-344h448v344c0 4.417969-3.582031 8-8 8h-48v16h48c13.253906 0 24-10.746094 24-24v-400c0-13.253906-10.746094-24-24-24zm-440 64v-40c0-4.417969 3.582031-8 8-8h432c4.417969 0 8 3.582031 8 8v40zm0 0"/>
        <path d="m48 32h16v16h-16zm0 0"/>
        <path d="m80 32h16v16h-16zm0 0"/>
        <path d="m112 32h16v16h-16zm0 0"/>
        <path d="m184 112h16v16h-16zm0 0"/>
        <path d="m216 112h16v16h-16zm0 0"/>
        <path d="m248 112h16v16h-16zm0 0"/>
        <path d="m280 112h16v16h-16zm0 0"/>
        <path d="m176 32h176v16h-176zm0 0"/>
        <path d="m56 160h112v16h-112zm0 0"/>
        <path d="m56 192h112v16h-112zm0 0"/>
        <path d="m56 224h112v16h-112zm0 0"/>
    </symbol>

    <symbol id="footer-facebook" role="img" aria-labelledby="footer-facebook_title" viewBox="0 0 512 512">
        <title id="footer-facebook_title">Facebook</title>
        <path d="M314.829,135.492h70.595c11.423,0,20.682-9.26,20.682-20.682V20.682C406.107,9.26,396.848,0,385.425,0h-70.595
            c-76.282,0-138.341,62.06-138.341,138.341v49.913h-49.913c-11.422,0-20.682,9.26-20.682,20.682v94.127
            c0,11.423,9.26,20.682,20.682,20.682h49.913v167.572c0,11.423,9.26,20.682,20.682,20.682h94.127
            c11.423,0,20.682-9.259,20.682-20.682V323.746h49.913c9.49,0,17.763-6.458,20.065-15.666l23.532-94.127
            c1.544-6.179,0.156-12.725-3.763-17.744c-3.919-5.02-9.932-7.954-16.301-7.954H311.98v-49.913
            C311.98,136.77,313.258,135.492,314.829,135.492z M291.298,229.619h67.637l-13.191,52.763h-54.447
            c-11.423,0-20.682,9.259-20.682,20.682v167.572h-52.763V303.064c0-11.423-9.26-20.682-20.682-20.682h-49.913v-52.763h49.913
            c11.422,0,20.682-9.26,20.682-20.682v-70.595c0-53.473,43.503-96.977,96.977-96.977h49.913v52.763h-49.913
            c-24.38,0-44.214,19.835-44.214,44.214v70.595C270.615,220.359,279.875,229.619,291.298,229.619z"/>
    </symbol>

    <symbol id="footer-twitter" role="img" aria-labelledby="footer-twitter_title" viewBox="0 0 512 512">
        <title id="footer-twitter_title">Twitter</title>
        <path d="M502.954,47.189c-7.126-4.852-16.515-4.774-23.559,0.196c-15.351,10.828-31.974,19.528-49.557,25.948
            c-19.253-17.414-43.615-27.826-69.915-29.656c-31.056-2.16-61.081,7.9-84.561,28.326c-25.59,22.259-40.174,54.444-40.046,88.349
            c-85.248-7.609-139.14-61.55-177.09-108.986c-4.598-5.746-11.901-8.619-19.182-7.538c-7.279,1.078-13.438,5.944-16.171,12.777
            c-0.948,2.369-23.141,58.799-17.453,127.057c4.761,57.133,30.23,131.964,120.039,181.717
            c-32.436,14.756-68.282,21.939-103.953,20.519c-9.576-0.378-18.15,5.859-20.736,15.08c-2.587,9.221,1.497,19.013,9.869,23.665
            c51.359,28.532,108.03,43.736,163.889,43.965c0.432,0.002,0.861,0.003,1.294,0.003c54.105-0.001,106.379-13.938,151.246-40.336
            c42.898-25.241,78.416-61.759,102.715-105.603c26.162-47.206,39.427-101.75,39.427-162.186c-0.011-3.544-0.186-7.098-0.52-10.638
            c20.7-22.885,35.388-50.567,42.719-80.667C513.451,60.803,510.081,52.04,502.954,47.189z M432.297,128.07
            c-4.916,4.847-7.088,11.827-5.793,18.607c0.877,4.588,1.329,9.278,1.344,13.874c0,101.956-44.378,186.544-121.756,232.072
            c-60.586,35.649-133.037,43.933-203.609,25.057c0.729-0.201,1.459-0.407,2.185-0.615c27.596-7.885,53.63-20.055,77.377-36.174
            c6.329-4.296,9.77-11.734,8.946-19.34c-0.825-7.605-5.778-14.134-12.881-16.975C97.757,312.434,53.563,257.594,46.757,181.575
            c-2.536-28.334,0.707-54.721,4.766-74.501c16.638,17.909,37.384,37.227,62.129,53.407c42.771,27.966,90.663,42.146,142.346,42.146
            c11.423,0,20.682-9.26,20.682-20.682v-21.393c0-0.045,0-0.091,0-0.137c-0.146-21.948,9.268-42.797,25.829-57.202
            c15.146-13.175,34.51-19.665,54.543-18.27c20.026,1.393,38.311,10.502,51.487,25.648c5.339,6.138,13.783,8.577,21.567,6.229
            c5.725-1.724,11.375-3.645,16.941-5.757C442.599,117.081,437.672,122.769,432.297,128.07z"/>
    </symbol>    

    <symbol id="footer-linkedin" role="img" aria-labelledby="footer-linkedin_title" viewBox="0 0 512 512">
        <title id="footer-linkedin_title">Linkedin</title>
        <path d="M2.5,510V153.7h137.3V510H2.5z M102.5,472.7V191H39.8v281.7H102.5z"/>
        <path d="M375.4,510l0.1-158.1c0.5-23.6-8.8-42.9-24.9-51.7c-5.4-3-11.2-4.5-17.3-4.5c-5.2,0-10.4,1.1-15.5,3.3l-1.1,211H176.1
            V153.7h140.6V166c16.6-6,33.6-9.1,50.6-9.1c24.7,0,48.3,6.4,70.2,18.9c44,25.2,72.5,71.8,72.5,118.8V510H375.4z M472.7,472.7V294.6
            c0-33.8-21.1-67.7-53.7-86.4c-15.9-9.1-33.8-13.9-51.7-14h-0.3c-20.1,0-40.1,5.8-59.6,17.3L279.4,228V191h-66.1v281.7h66.2l1-194.7
            l8.2-5.5c13.7-9.2,29.1-14.1,44.5-14.1c12.4,0,24.2,3,35.1,9c13.7,7.5,25,19.2,32.8,33.8c7.9,14.9,11.9,32.6,11.5,51.1l0,120.3
            H472.7z"/>
        <path d="M70.9,139.9C32.9,139.9,2,109,2,71c0-38,30.9-69,68.9-69c38,0,68.9,30.9,68.9,69C139.8,109,108.9,139.9,70.9,139.9z
             M70.9,39.3c-17.4,0-31.6,14.2-31.6,31.7c0,17.5,14.2,31.7,31.6,31.7c17.4,0,31.6-14.2,31.6-31.7C102.5,53.5,88.3,39.3,70.9,39.3z"
            />
    </symbol>

    <symbol id="footer-instagram" role="img" aria-labelledby="footer-instagram_title" viewBox="0 0 512 512">
        <title id="footer-instagram_title">Instagram</title>
        <path d="M373.659,0H138.341C62.06,0,0,62.06,0,138.341v235.318C0,449.94,62.06,512,138.341,512h235.318
            C449.94,512,512,449.94,512,373.659V138.341C512,62.06,449.94,0,373.659,0z M470.636,373.659
            c0,53.473-43.503,96.977-96.977,96.977H138.341c-53.473,0-96.977-43.503-96.977-96.977V138.341
            c0-53.473,43.503-96.977,96.977-96.977h235.318c53.473,0,96.977,43.503,96.977,96.977V373.659z"/>
        <path d="M370.586,238.141c-3.64-24.547-14.839-46.795-32.386-64.342c-17.547-17.546-39.795-28.746-64.341-32.385
            c-11.176-1.657-22.507-1.657-33.682,0c-30.336,4.499-57.103,20.541-75.372,45.172c-18.269,24.631-25.854,54.903-21.355,85.237
            c4.499,30.335,20.541,57.102,45.172,75.372c19.996,14.831,43.706,22.619,68.153,22.619c5.667,0,11.375-0.418,17.083-1.265
            c30.336-4.499,57.103-20.541,75.372-45.172C367.5,298.747,375.085,268.476,370.586,238.141z M267.791,327.632
            c-19.405,2.882-38.77-1.973-54.527-13.66c-15.757-11.687-26.019-28.811-28.896-48.216c-2.878-19.405,1.973-38.77,13.66-54.527
            c11.688-15.757,28.811-26.019,48.217-28.897c3.574-0.53,7.173-0.795,10.772-0.795s7.199,0.265,10.773,0.796
            c32.231,4.779,57.098,29.645,61.878,61.877C335.608,284.268,307.851,321.692,267.791,327.632z"/>
        <path d="M400.049,111.951c-3.852-3.851-9.183-6.058-14.625-6.058c-5.442,0-10.773,2.206-14.625,6.058
            c-3.851,3.852-6.058,9.174-6.058,14.625c0,5.451,2.207,10.773,6.058,14.625c3.852,3.851,9.183,6.058,14.625,6.058
            c5.442,0,10.773-2.206,14.625-6.058c3.851-3.852,6.058-9.183,6.058-14.625C406.107,121.133,403.9,115.802,400.049,111.951z"/>
    </symbol>

    <symbol id="footer-phone" role="img" aria-labelledby="footer-phone_title" viewBox="0 0 512 512">
        <title id="footer-phone_title"></title>
        <path d="M421.216,195.504c-5.092-26.101-17.723-49.836-36.526-68.64c-18.804-18.803-42.54-31.434-68.641-36.527
			c-11.21-2.189-22.073,5.128-24.261,16.339c-2.187,11.212,5.128,22.073,16.339,24.26c36.847,7.188,65.3,35.642,72.489,72.489
			c1.927,9.874,10.581,16.726,20.278,16.726c1.313,0,2.645-0.125,3.984-0.387C416.088,217.577,423.403,206.715,421.216,195.504z"/>
		<path d="M511.422,196.929c-5.629-50.096-28.373-97.304-64.042-132.927C411.712,28.378,364.475,5.694,314.371,0.128
			c-11.355-1.261-21.578,6.92-22.839,18.272c-1.261,11.353,6.919,21.578,18.272,22.84c84.961,9.438,150.966,75.36,160.512,160.31
			c1.188,10.566,10.139,18.374,20.527,18.374c0.771,0,1.552-0.043,2.336-0.131C504.53,218.516,512.698,208.281,511.422,196.929z"/>
		<path d="M432.59,312.566c-0.062-0.008-0.124-0.017-0.186-0.025c-20.013-2.639-39.751-7.557-58.619-14.596
			c-23.91-8.99-51.103-3.191-69.27,14.772c-0.028,0.028-0.056,0.055-0.083,0.083l-17.148,17.148
			c-42.633-26.924-78.756-63.047-105.679-105.679l17.149-17.149c0.027-0.028,0.054-0.055,0.082-0.083
			c17.964-18.166,23.762-45.356,14.79-69.223c-7.057-18.914-11.974-38.653-14.614-58.666c-0.007-0.063-0.017-0.127-0.026-0.19
			c-4.591-32.478-32.782-56.734-65.548-56.467H66.053c-1.943,0.002-3.912,0.091-5.853,0.267
			C24.143,26.016-2.541,58.001,0.718,94.058c0.01,0.108,0.02,0.215,0.032,0.323c7.684,72.354,32.649,142.88,72.197,203.955
			c35.892,56.461,84.701,105.269,141.162,141.164c60.792,39.406,130.99,64.369,203.013,72.196c0.127,0.015,0.254,0.027,0.38,0.038
			c1.961,0.176,3.949,0.266,5.921,0.266c0.083,0,0.165,0,0.247,0.001c36.204-0.148,65.538-29.722,65.391-65.841v-67.233
			C489.746,345.714,465.515,317.211,432.59,312.566z M447.698,378.695v67.548c0.055,13.396-10.8,24.338-24.19,24.393
			c-0.715-0.004-1.425-0.027-2.135-0.086c-65.578-7.161-129.488-29.914-184.837-65.808c-0.053-0.035-0.107-0.069-0.161-0.103
			c-51.429-32.68-95.885-77.137-128.565-128.565c-0.032-0.051-0.064-0.101-0.097-0.153C71.683,220.306,48.928,156.086,41.902,90.193
			C40.779,76.91,50.63,65.155,63.923,63.954c0.717-0.064,1.443-0.098,2.145-0.098h67.463c0.146-0.001,0.294-0.003,0.443-0.002
			c12.021,0,22.322,8.905,24.044,20.819c3.05,23.063,8.721,45.806,16.871,67.649c3.319,8.832,1.189,18.869-5.427,25.591
			l-28.517,28.517c-6.583,6.582-7.956,16.753-3.354,24.847c33.837,59.508,83.177,108.847,142.685,142.685
			c8.094,4.6,18.264,3.23,24.848-3.355l28.512-28.512c6.72-6.621,16.765-8.752,25.642-5.415
			c21.799,8.134,44.547,13.805,67.61,16.855c12.18,1.757,21.122,12.339,20.816,24.647
			C447.7,378.353,447.698,378.524,447.698,378.695z"/>
    </symbol>    

	<symbol id="footer-mail" role="img" aria-labelledby="footer-mail_title" viewBox="0 0 512 512">
        <title id="footer-mail_title"></title>
        <path d="M256,141.176c-63.306,0-114.809,51.503-114.809,114.809S192.694,370.795,256,370.795s114.809-51.503,114.809-114.809
			S319.306,141.176,256,141.176z M256,329.43c-40.498,0-73.445-32.947-73.445-73.445c0-40.498,32.947-73.445,73.445-73.445
			c40.499,0,73.445,32.947,73.445,73.445C329.445,296.483,296.499,329.43,256,329.43z"/>
		<path d="M437.008,74.97C388.656,26.623,324.375,0,256,0c-0.005,0-0.013,0-0.017,0C187.603,0.004,123.318,26.637,74.97,74.992
			C26.62,123.347-0.005,187.637,0,256.017c0.004,68.379,26.637,132.666,74.992,181.014C123.344,485.377,187.625,512.001,256,512
			c0.004,0,0.012,0,0.017,0c55.945-0.004,111.216-18.738,155.631-52.752c9.07-6.945,10.792-19.927,3.846-28.995
			c-6.945-9.069-19.926-10.794-28.995-3.846c-37.24,28.518-83.58,44.224-130.486,44.228c-0.006,0-0.006,0-0.014,0
			c-57.324,0-111.224-22.324-151.761-62.856c-40.542-40.536-62.871-94.435-62.875-151.766
			C41.357,137.663,137.636,41.372,255.986,41.364c0.007,0,0.006,0,0.014,0c118.34,0,214.628,96.279,214.636,214.622v23.532
			c0,27.523-22.39,49.913-49.913,49.913c-27.523,0-49.913-22.391-49.913-49.913v-23.532c0-11.422-9.259-20.682-20.682-20.682
			s-20.682,9.26-20.682,20.682v23.532c0,50.33,40.947,91.278,91.278,91.278S512,329.848,512,279.518v-23.534
			C511.995,187.604,485.362,123.318,437.008,74.97z"/>
    </symbol>

    <symbol id="footer-location" role="img" aria-labelledby="footer-location_title" viewBox="0 0 512 512">
        <title id="footer-location_title"></title>
        <path d="M406.766,62.449C366.495,22.178,312.951,0,256,0S145.505,22.178,105.234,62.449
			c-40.272,40.271-62.449,93.814-62.449,150.766c0,37.656,10.972,76.863,32.609,116.532c16.825,30.846,40.15,62.102,69.326,92.898
			c49.17,51.903,97.763,84.519,99.808,85.881C248.001,510.842,252,512,256,512c4,0,7.999-1.158,11.473-3.474
			c2.045-1.363,50.638-33.978,99.808-85.881c29.176-30.795,52.501-62.051,69.326-92.898c21.637-39.669,32.609-78.876,32.609-116.532
			C469.215,156.263,447.038,102.72,406.766,62.449z M256.001,465.903C215.826,436.156,84.15,329.739,84.15,213.215
			c0-94.759,77.091-171.851,171.85-171.851s171.85,77.092,171.851,171.851C427.851,329.748,296.159,436.168,256.001,465.903z"/>
		<path d="M256,128.355c-46.791,0-84.86,38.068-84.86,84.86c0,46.791,38.068,84.86,84.86,84.86c46.792,0,84.861-38.068,84.86-84.86
			C340.86,166.423,302.791,128.355,256,128.355z M256,256.71c-23.983,0-43.495-19.512-43.495-43.495
			c0-23.983,19.512-43.495,43.495-43.495c23.984,0,43.495,19.512,43.495,43.495C299.495,237.198,279.984,256.71,256,256.71z"/>
		</symbol>

	<symbol id="footer-time" role="img" aria-labelledby="footer-time_title" viewBox="0 0 512 512">
        <title id="footer-time_title"></title>
        <path d="M437.019,74.981C388.667,26.629,324.38,0,256,0S123.333,26.63,74.981,74.981S0,187.62,0,256
			s26.629,132.667,74.981,181.019C123.332,485.371,187.62,512,256,512s132.667-26.629,181.019-74.981
			C485.371,388.667,512,324.38,512,256S485.371,123.332,437.019,74.981z M256,470.636C137.65,470.636,41.364,374.35,41.364,256
			S137.65,41.364,256,41.364S470.636,137.65,470.636,256S374.35,470.636,256,470.636z"/>
		<path d="M341.221,311.97l-64.538-64.537V114.809c0-11.422-9.259-20.682-20.682-20.682c-11.422,0-20.682,9.26-20.682,20.682V256
			c0,5.486,2.179,10.746,6.058,14.625l70.594,70.595c4.038,4.039,9.332,6.058,14.625,6.058c5.293,0,10.586-2.019,14.626-6.058
			C349.297,333.142,349.297,320.047,341.221,311.97z"/>
	</symbol>

</svg>