<svg xmlns="http://www.w3.org/2000/svg" xmlns:xlink="http://www.w3.org/1999/xlink">

    <symbol id="home-play" role="img" aria-labelledby="home-play_title" viewBox="0 0 512 512">
        <title id="home-play_title"></title>
        <path d="M47.127,0v512l417.745-254.837L47.127,0z M87.172,71.676l301.06,185.333L87.172,440.664V71.676z"/>
    </symbol>

	<symbol id="services01" role="img" aria-labelledby="services01_title" viewBox="0 0 64 64">
        <title id="services01_title"></title>
        <path d="m30 1h-26c-1.654 0-3 1.346-3 3v22c0 1.654 1.346 3 3 3h26c1.654 0 3-1.346 3-3v-22c0-1.654-1.346-3-3-3zm-26 2h26c.552 0 1 .449 1 1v5h-28v-5c0-.551.448-1 1-1zm26 24h-26c-.552 0-1-.449-1-1v-15h28v15c0 .551-.448 1-1 1z"/>
        <path d="m5 5h2v2h-2z"/>
        <path d="m13 5h2v2h-2z"/>
        <path d="m9 5h2v2h-2z"/>
        <path d="m19 13h-14v8h10v4h14v-8h-10zm-12 6v-4h10v2h-2v2zm20 4h-10v-4h10z"/>
        <path d="m30 35h-26c-1.654 0-3 1.346-3 3v22c0 1.654 1.346 3 3 3h26c1.654 0 3-1.346 3-3v-22c0-1.654-1.346-3-3-3zm-26 2h26c.552 0 1 .449 1 1v5h-28v-5c0-.551.448-1 1-1zm26 24h-26c-.552 0-1-.449-1-1v-15h28v15c0 .551-.448 1-1 1z"/>
        <path d="m5 39h2v2h-2z"/>
        <path d="m9 39h2v2h-2z"/>
        <path d="m13 39h2v2h-2z"/>
        <path d="m19 47h-14v8h10v4h14v-8h-10zm-12 2h10v4h-10zm20 4v4h-10v-2h2v-2z"/>
        <path d="m58 14h-13v-5l-10.667 8 10.667 8v-5h12v4.525c-.94-.334-1.947-.525-3-.525-4.963 0-9 4.038-9 9v4.142c-.795.432-1.534.979-2.192 1.637l-5.029 5.029c-1.793 1.791-2.779 4.172-2.779 6.707 0 5.23 4.255 9.485 9.485 9.485 2.533 0 4.915-.987 6.707-2.778l5.029-5.029c1.532-1.531 2.478-3.531 2.713-5.674 2.446-1.612 4.066-4.378 4.066-7.519v-4-2-14c0-2.757-2.243-5-5-5zm-3.192 36.778-5.029 5.029c-1.415 1.414-3.295 2.193-5.294 2.193-4.127 0-7.485-3.358-7.485-7.485 0-2 .778-3.879 2.192-5.293l5.029-5.029c1.415-1.414 3.295-2.193 5.294-2.193 2.556 0 4.886 1.294 6.26 3.406-.499.368-1.109.594-1.775.594-.724 0-1.422-.262-2.03-.788l-1.641-1.212h-.814c-1.465 0-2.842.57-3.878 1.606l-5.03 5.03c-1.037 1.036-1.607 2.414-1.607 3.879 0 3.025 2.461 5.485 5.485 5.485 1.465 0 2.842-.57 3.878-1.606l5.03-5.03c.403-.403.739-.874 1-1.383.796-.035 1.568-.163 2.297-.392-.349 1.195-.987 2.294-1.882 3.189zm2.192-11.778c0 .209-.022.412-.063.609-1.474-1.866-3.58-3.113-5.937-3.483v-3.126c0-1.654 1.346-3 3-3s3 1.346 3 3zm-10.657 4.729c1.291 2.094 3.383 3.539 5.774 4.05-.049.055-.085.119-.137.171l-5.03 5.03c-.659.658-1.534 1.02-2.465 1.02-1.922 0-3.485-1.563-3.485-3.485 0-.917.372-1.816 1.021-2.464zm14.657-4.729c0 3.86-3.141 7-7 7-2.56 0-4.869-1.391-6.098-3.588.494-.259 1.039-.412 1.613-.412h.157l1.046.77c.91.793 2.076 1.23 3.282 1.23 2.757 0 5-2.243 5-5v-6c0-2.757-2.243-5-5-5s-5 2.243-5 5v3.025c-.683.036-1.352.142-2 .32v-3.345c0-3.86 3.141-7 7-7s7 3.14 7 7v2zm-2-13.478v-5.522c0-1.103-.897-2-2-2h-14v3l-5.333-4 5.333-4v3h15c1.654 0 3 1.346 3 3v8.356c-.571-.707-1.244-1.327-2-1.834z"/>
    </symbol>

    <symbol id="services02" role="img" aria-labelledby="services02_title" viewBox="0 0 512 512">
        <title id="services02_title"></title>
        <path d="M411.612,56.377H204.438c-5.512,0-9.981,4.47-9.981,9.981c0,5.512,4.47,9.981,9.981,9.981h207.174
            c5.512,0,9.981-4.47,9.981-9.981C421.593,60.847,417.123,56.377,411.612,56.377z"/>
        <path d="M103.234,59.302c-1.857-1.857-4.431-2.924-7.057-2.924c-2.625,0-5.2,1.067-7.056,2.924
            c-1.857,1.857-2.925,4.422-2.925,7.057c0,2.625,1.068,5.2,2.925,7.056c1.855,1.857,4.431,2.925,7.056,2.925
            c2.626,0,5.2-1.068,7.057-2.925c1.857-1.855,2.924-4.431,2.924-7.056C106.158,63.733,105.091,61.158,103.234,59.302z"/>
        <path d="M66.553,59.302c-1.857-1.857-4.431-2.924-7.057-2.924c-2.625,0-5.2,1.067-7.056,2.924
            c-1.857,1.857-2.925,4.432-2.925,7.057c0,2.625,1.068,5.2,2.925,7.056c1.855,1.857,4.431,2.925,7.056,2.925
            c2.626,0,5.2-1.068,7.057-2.925c1.857-1.855,2.924-4.431,2.924-7.056C69.478,63.733,68.411,61.158,66.553,59.302z"/>
        <path d="M139.915,59.302c-1.866-1.857-4.431-2.924-7.067-2.924c-2.625,0-5.19,1.067-7.056,2.924
            c-1.856,1.857-2.925,4.432-2.925,7.057c0,2.625,1.068,5.2,2.925,7.056c1.865,1.857,4.431,2.925,7.056,2.925
            c2.636,0,5.2-1.068,7.067-2.925c1.857-1.855,2.914-4.431,2.914-7.056C142.83,63.733,141.772,61.158,139.915,59.302z"/>
        <path d="M509.077,436.161l-78.575-78.574l12.327-12.327c0.003-0.003,0.007-0.006,0.01-0.009s0.006-0.007,0.009-0.01l12.324-12.324
            l38.817,38.818c3.899,3.897,10.217,3.897,14.116,0c3.898-3.898,3.898-10.218,0-14.116l-45.874-45.874
            c-3.897-3.896-10.215-3.898-14.116,0l-12.334,12.333l-5.975-5.975c17.162-20.347,27.521-46.61,27.521-75.25
            c0-64.451-52.435-116.886-116.886-116.886c-33.204,0-63.219,13.918-84.517,36.225c-0.094-0.003-0.185-0.014-0.279-0.014H63.879
            c-5.512,0-9.981,4.47-9.981,9.981v139.736c0,5.512,4.47,9.981,9.981,9.981h190.515c21.38,23.261,52.038,37.864,86.046,37.864
            c28.64,0,54.901-10.36,75.25-27.521l5.975,5.975l-12.337,12.337c-1.871,1.871-2.923,4.411-2.923,7.058
            c0,2.647,1.052,5.185,2.923,7.058l41.819,41.819v43.169c0,12.108-9.85,21.958-21.958,21.958H41.921
            c-12.108,0-21.958-9.85-21.958-21.958V112.266c0.037,0,0.073,0.006,0.109,0.006h431.076v44.988c0,5.512,4.47,9.981,9.981,9.981
            s9.981-4.47,9.981-9.981V62.366c0-23.115-18.805-41.921-41.921-41.921H41.921C18.805,20.445,0,39.251,0,62.366v387.268
            c0,23.115,18.805,41.921,41.921,41.921h387.268c23.115,0,41.921-18.805,41.921-41.921v-23.208l23.851,23.851
            c1.949,1.948,4.503,2.923,7.058,2.923s5.108-0.975,7.058-2.923C512.974,446.379,512.974,440.059,509.077,436.161z
             M223.592,245.891l-12.578-24.297c-2.534-4.896-8.559-6.809-13.454-4.275c-4.895,2.534-6.809,8.557-4.275,13.454l23.438,45.275
            c1.775,3.429,5.261,5.394,8.872,5.394c1.406,0,2.829-0.314,4.179-0.94c2.561,7.509,5.872,14.673,9.834,21.411H73.86V182.139
            h166.733c-10.807,17.707-17.04,38.495-17.04,60.713C223.553,243.869,223.566,244.882,223.592,245.891z M340.44,339.775
            c-53.443,0-96.924-43.479-96.924-96.923c0-0.761,0.011-1.519,0.029-2.276l18.361,35.47c1.717,3.317,5.137,5.393,8.863,5.393
            c0.05,0,0.101,0,0.15-0.001c3.784-0.057,7.21-2.248,8.848-5.659l21.745-45.275c2.386-4.97,0.292-10.931-4.677-13.319
            c-4.965-2.385-10.931-0.292-13.319,4.677l-13.081,27.239l-14.239-27.506c-1.789-3.455-5.316-5.416-8.956-5.386
            c11.604-40.53,48.992-70.281,93.2-70.281c53.444,0,96.924,43.481,96.924,96.924C437.364,296.295,393.883,339.775,340.44,339.775z
             M19.962,62.366c0-12.108,9.85-21.958,21.958-21.958h387.268c12.108,0,21.958,9.85,21.958,21.958v29.943H20.071
            c-0.037,0-0.073,0.005-0.109,0.006V62.366z"/>
        <path d="M182.476,217.185c-4.965-2.384-10.931-0.292-13.319,4.677l-13.081,27.238l-14.239-27.506
            c-1.739-3.362-5.215-5.46-9.013-5.392c-3.784,0.057-7.21,2.248-8.848,5.659l-13.081,27.238l-14.239-27.506
            c-2.534-4.897-8.561-6.81-13.453-4.276c-4.896,2.534-6.81,8.557-4.276,13.453l23.437,45.275c1.74,3.362,5.242,5.45,9.013,5.392
            c3.784-0.057,7.21-2.248,8.848-5.659l13.081-27.239l14.239,27.506c1.717,3.317,5.137,5.393,8.863,5.393c0.05,0,0.101,0,0.15-0.001
            c3.784-0.057,7.21-2.248,8.848-5.659l21.745-45.275C189.539,225.535,187.446,219.573,182.476,217.185z"/>
        <path d="M411.197,217.185c-4.97-2.384-10.931-0.292-13.319,4.677l-13.081,27.238l-14.239-27.507
            c-1.739-3.36-5.258-5.437-9.013-5.391c-3.784,0.057-7.21,2.248-8.848,5.659l-13.081,27.239l-14.239-27.507
            c-2.534-4.894-8.555-6.809-13.454-4.275c-4.895,2.534-6.809,8.557-4.275,13.454l23.438,45.275
            c1.717,3.315,5.137,5.392,8.863,5.392c0.051,0,0.101,0,0.15-0.001c3.784-0.057,7.21-2.248,8.848-5.659l13.081-27.238
            l14.239,27.507c1.717,3.315,5.137,5.392,8.863,5.392c0.051,0,0.101,0,0.15-0.001c3.784-0.057,7.21-2.248,8.848-5.659
            l21.744-45.275C418.259,225.535,416.165,219.573,411.197,217.185z"/>
        <path d="M70.935,400.656c-1.855-1.866-4.431-2.924-7.056-2.924c-2.625,0-5.2,1.058-7.057,2.924
            c-1.857,1.857-2.924,4.432-2.924,7.057c0,2.625,1.067,5.2,2.924,7.056c1.857,1.857,4.432,2.925,7.057,2.925
            c2.625,0,5.2-1.068,7.056-2.925c1.857-1.855,2.925-4.431,2.925-7.056C73.86,405.088,72.792,402.513,70.935,400.656z"/>
        <path d="M292.515,397.742H98.147c-5.512,0-9.981,4.469-9.981,9.981c0,5.512,4.47,9.981,9.981,9.981h194.367
            c5.512,0,9.981-4.47,9.981-9.981C302.496,402.211,298.027,397.742,292.515,397.742z"/>
        <path d="M255.517,349.827h-58.889c-5.512,0-9.981,4.47-9.981,9.981c0,5.512,4.47,9.981,9.981,9.981h58.889
            c5.512,0,9.981-4.47,9.981-9.981C265.498,354.297,261.029,349.827,255.517,349.827z"/>
        <path d="M151.804,349.827H63.879c-5.512,0-9.981,4.47-9.981,9.981c0,5.512,4.47,9.981,9.981,9.981h87.925
            c5.512,0,9.981-4.47,9.981-9.981C161.785,354.297,157.316,349.827,151.804,349.827z"/>
    </symbol>

    <symbol id="services03" role="img" aria-labelledby="services03_title" viewBox="0 0 512 512">
        <title id="services03_title"></title>
        <path d="M462,0H50C22.43,0,0,22.43,0,50v412c0,27.57,22.43,50,50,50h412c27.57,0,50-22.43,50-50V50C512,22.43,489.57,0,462,0z
             M492,462c0,16.542-13.458,30-30,30H50c-16.542,0-30-13.458-30-30V91.949C20.33,91.982,20.665,92,21.004,92H492V462z M492,72
            H21.004c-0.339,0-0.674,0.018-1.004,0.051V50c0-16.542,13.458-30,30-30h412c16.542,0,30,13.458,30,30V72z"/>
        <path d="M448,36H222.065c-5.522,0-10,4.478-10,10s4.478,10,10,10H448c5.522,0,10-4.478,10-10S453.522,36,448,36z"/>
        <path d="M111.069,38.93C109.21,37.069,106.63,36,104,36c-2.641,0-5.21,1.069-7.07,2.93S94,43.37,94,46s1.069,5.21,2.93,7.069
            C98.79,54.93,101.37,56,104,56s5.21-1.07,7.069-2.931C112.93,51.21,114,48.63,114,46S112.93,40.79,111.069,38.93z"/>
        <path d="M71.069,38.93C69.21,37.069,66.63,36,64,36s-5.21,1.069-7.07,2.93S54,43.37,54,46s1.069,5.21,2.93,7.069
            C58.79,54.93,61.37,56,64,56s5.21-1.07,7.069-2.931C72.93,51.21,74,48.63,74,46S72.93,40.79,71.069,38.93z"/>
        <path d="M151.069,38.93C149.21,37.069,146.63,36,144,36s-5.21,1.069-7.07,2.93S134,43.37,134,46s1.069,5.21,2.93,7.069
            C138.79,54.93,141.37,56,144,56s5.21-1.07,7.069-2.931C152.93,51.21,154,48.63,154,46S152.93,40.79,151.069,38.93z"/>
        <path d="M239.667,114H199c-5.522,0-10,4.478-10,10c0,5.522,4.478,10,10,10h40.667c3.492,0,6.333,2.841,6.333,6.333v77.945
            l-16.969-22.205c-5.203-6.809-13.423-10.557-21.966-9.993c-8.551,0.552-16.215,5.312-20.499,12.733l-31.569,54.678l-16.282-24.738
            c-3.9-5.925-10.464-9.521-17.557-9.62c-7.04-0.107-13.753,3.314-17.816,9.13L74,270.26V140.333c0-3.492,2.841-6.333,6.333-6.333
            H112c5.522,0,10-4.478,10-10c0-5.522-4.478-10-10-10H80.333C65.813,114,54,125.813,54,140.333v159.334
            C54,314.188,65.813,326,80.333,326h159.334C254.188,326,266,314.188,266,299.667V140.333C266,125.813,254.188,114,239.667,114z
             M80.333,306c-2.091,0-3.942-1.023-5.097-2.589l44.5-63.692c0.103-0.146,0.41-0.587,1.12-0.587c0.009,0,0.017,0,0.024,0
            c0.728,0.011,1.028,0.468,1.128,0.618L165.613,306H80.333z M246,299.667c0,3.492-2.841,6.333-6.333,6.333h-50.109L167.3,272.183
            l36.587-63.37c1.346-2.331,3.572-2.717,4.467-2.774c0.895-0.062,3.15,0.037,4.786,2.178l30.664,40.126
            c0.637,0.834,1.381,1.538,2.196,2.111V299.667z"/>
        <path d="M167.069,116.93C165.21,115.07,162.63,114,160,114s-5.21,1.069-7.07,2.93S150,121.37,150,124s1.069,5.21,2.93,7.069
            c1.86,1.861,4.44,2.931,7.07,2.931s5.21-1.07,7.069-2.931C168.93,129.21,170,126.63,170,124S168.93,118.79,167.069,116.93z"/>
        <path d="M256,394H64c-5.522,0-10,4.478-10,10c0,5.522,4.478,10,10,10h192c5.522,0,10-4.478,10-10C266,398.478,261.522,394,256,394
            z"/>
        <path d="M256,354H64c-5.522,0-10,4.478-10,10c0,5.522,4.478,10,10,10h192c5.522,0,10-4.478,10-10C266,358.478,261.522,354,256,354
            z"/>
        <path d="M206.069,436.93C204.21,435.069,201.63,434,199,434s-5.21,1.069-7.07,2.93c-1.86,1.861-2.93,4.44-2.93,7.07
            s1.069,5.21,2.93,7.069c1.86,1.86,4.44,2.931,7.07,2.931s5.21-1.07,7.069-2.931C207.93,449.21,209,446.63,209,444
            S207.93,438.79,206.069,436.93z"/>
        <path d="M160,434H64c-5.522,0-10,4.478-10,10c0,5.522,4.478,10,10,10h96c5.522,0,10-4.478,10-10C170,438.478,165.522,434,160,434z
            "/>
        <path d="M436.333,114H327.667C315.72,114,306,123.72,306,135.667v108.666C306,256.28,315.72,266,327.667,266h108.666
            C448.28,266,458,256.28,458,244.333V135.667C458,123.72,448.28,114,436.333,114z M438,244.333c0,0.919-0.748,1.667-1.667,1.667
            H327.667c-0.919,0-1.667-0.748-1.667-1.667V135.667c0-0.919,0.748-1.667,1.667-1.667h108.666c0.919,0,1.667,0.748,1.667,1.667
            V244.333z"/>
        <path d="M436.333,306H327.667C315.72,306,306,315.72,306,327.667v108.666C306,448.28,315.72,458,327.667,458h108.666
            C448.28,458,458,448.28,458,436.333V327.667C458,315.72,448.28,306,436.333,306z M438,436.333c0,0.919-0.748,1.667-1.667,1.667
            H327.667c-0.919,0-1.667-0.748-1.667-1.667V327.667c0-0.919,0.748-1.667,1.667-1.667h108.666c0.919,0,1.667,0.748,1.667,1.667
            V436.333z"/>
        <path d="M405.34,366.244l-24.499-14.131c-5.696-3.287-12.497-3.284-18.191,0.005c-5.694,3.289-9.094,9.179-9.094,15.755v28.254
            c0,6.575,3.398,12.464,9.091,15.753c2.85,1.647,5.977,2.471,9.104,2.471c3.12,0,6.24-0.82,9.085-2.46h0.001l24.502-14.124
            c5.701-3.287,9.105-9.179,9.106-15.761C414.444,375.424,411.041,369.531,405.34,366.244z M373.556,393.002V371l19.079,11.004
            L373.556,393.002z"/>
        <path d="M405.34,174.244l-24.499-14.131c-5.696-3.286-12.497-3.285-18.191,0.005c-5.694,3.289-9.094,9.179-9.094,15.755v28.254
            c0,6.575,3.398,12.464,9.091,15.753c2.85,1.647,5.976,2.471,9.103,2.471c3.12,0,6.241-0.82,9.087-2.46l24.502-14.124
            c5.701-3.287,9.105-9.179,9.106-15.761C414.444,183.424,411.041,177.531,405.34,174.244z M373.556,201.002V179l19.079,11.004
            L373.556,201.002z"/>
    </symbol>

    <symbol id="services04" role="img" aria-labelledby="services04_title" viewBox="0 0 480 480">
        <title id="services04_title"></title>
        <path d="m196.558594 298.398438c-1.832032 4.914062-1.144532 10.414062 1.84375 14.722656 2.988281 4.308594 7.898437 6.878906 13.140625 6.878906h32.175781l13.601562 20.441406c1.488282 2.230469 3.996094 3.566406 6.679688 3.558594h48c2.675781 0 5.171875-1.335938 6.65625-3.558594l13.625-20.441406h32.175781c5.242188 0 10.152344-2.570312 13.140625-6.878906 2.988282-4.308594 3.675782-9.808594 1.84375-14.722656l-12.160156-32.421876c-5.105469-13.488281-17.039062-23.214843-31.28125-25.488281v-31.007812c.027344-8.007813-2.371094-15.835938-6.886719-22.449219-23.960937-35.03125-36.875-35.03125-41.113281-35.03125s-17.152344 0-41.113281 35.023438c-4.511719 6.617187-6.914063 14.445312-6.886719 22.457031v31.007812c-14.238281 2.273438-26.171875 11.988281-31.28125 25.472657zm111.203125 29.601562h-39.441407l-5.335937-8h50.113281zm44.574219-56.425781 12.121093 32.425781h-28.457031v-47.121094c7.476562 1.996094 13.539062 7.464844 16.296875 14.695313zm-96.335938-62.09375c-.023438-4.78125 1.402344-9.460938 4.089844-13.417969 15.191406-22.199219 24.902344-28.0625 27.910156-28.0625s12.71875 5.863281 27.910156 28.0625c2.6875 3.957031 4.113282 8.636719 4.089844 13.417969v94.519531h-64zm-32.296875 62.09375c2.757813-7.230469 8.820313-12.699219 16.296875-14.695313v47.121094h-28.457031zm0 0"/>
        <path d="m288 360c-17.671875 0-32 14.328125-32 32 0 16.480469 12.464844 48 32 48s32-31.519531 32-48c0-17.671875-14.328125-32-32-32zm0 64c-5.984375 0-16-20.039062-16-32 0-8.835938 7.164062-16 16-16s16 7.164062 16 16c0 12-10.015625 32-16 32zm0 0"/>
        <path d="m392 456c-.054688-6.582031-2.789062-12.855469-7.574219-17.378906-4.785156-4.519532-11.203125-6.898438-17.777343-6.582032-3.875-11.042968-15.148438-17.683593-26.683594-15.714843-11.539063 1.96875-19.972656 11.972656-19.964844 23.675781h16c0-4.417969 3.582031-8 8-8s8 3.582031 8 8c-.007812.449219-.042969.894531-.113281 1.335938-.34375 3.027343 1.058593 5.984374 3.617187 7.632812 2.5625 1.648438 5.835938 1.703125 8.449219.136719 1.222656-.734375 2.621094-1.113281 4.046875-1.105469 4.417969 0 8 3.582031 8 8s-3.582031 8-8 8h-160c-4.417969 0-8-3.582031-8-8s3.582031-8 8-8c1.425781-.007812 2.824219.371094 4.046875 1.105469 2.613281 1.566406 5.886719 1.511719 8.449219-.136719 2.558594-1.648438 3.960937-4.605469 3.617187-7.632812-.070312-.441407-.105469-.886719-.113281-1.335938 0-4.417969 3.582031-8 8-8s8 3.582031 8 8h16c.007812-11.703125-8.425781-21.707031-19.964844-23.675781-11.535156-1.96875-22.808594 4.671875-26.683594 15.714843-6.574218-.320312-13 2.050782-17.785156 6.574219-4.785156 4.523438-7.519531 10.800781-7.566406 17.386719.027344 2.730469.523438 5.4375 1.472656 8h-25.472656v16h256v-16h-25.472656c.949218-2.5625 1.445312-5.269531 1.472656-8zm0 0"/>
        <path d="m288 184c-13.253906 0-24 10.746094-24 24s10.746094 24 24 24 24-10.746094 24-24-10.746094-24-24-24zm0 32c-4.417969 0-8-3.582031-8-8s3.582031-8 8-8 8 3.582031 8 8-3.582031 8-8 8zm0 0"/>
        <path d="m376 328h16v32h-16zm0 0"/>
        <path d="m376 376h16v16h-16zm0 0"/>
        <path d="m408 344h16v32h-16zm0 0"/>
        <path d="m408 392h16v16h-16zm0 0"/>
        <path d="m184 328h16v32h-16zm0 0"/>
        <path d="m184 376h16v16h-16zm0 0"/>
        <path d="m152 344h16v32h-16zm0 0"/>
        <path d="m152 392h16v16h-16zm0 0"/>
        <path d="m456 0h-432c-13.253906 0-24 10.746094-24 24v400c0 13.253906 10.746094 24 24 24h144v-16h-144c-4.417969 0-8-3.582031-8-8v-344h448v344c0 4.417969-3.582031 8-8 8h-48v16h48c13.253906 0 24-10.746094 24-24v-400c0-13.253906-10.746094-24-24-24zm-440 64v-40c0-4.417969 3.582031-8 8-8h432c4.417969 0 8 3.582031 8 8v40zm0 0"/>
        <path d="m48 32h16v16h-16zm0 0"/>
        <path d="m80 32h16v16h-16zm0 0"/>
        <path d="m112 32h16v16h-16zm0 0"/>
        <path d="m184 112h16v16h-16zm0 0"/>
        <path d="m216 112h16v16h-16zm0 0"/>
        <path d="m248 112h16v16h-16zm0 0"/>
        <path d="m280 112h16v16h-16zm0 0"/>
        <path d="m176 32h176v16h-176zm0 0"/>
        <path d="m56 160h112v16h-112zm0 0"/>
        <path d="m56 192h112v16h-112zm0 0"/>
        <path d="m56 224h112v16h-112zm0 0"/>
    </symbol>

    <symbol id="footer-facebook" role="img" aria-labelledby="footer-facebook_title" viewBox="0 0 512 512">
        <title id="footer-facebook_title">Facebook</title>
        <path d="M314.829,135.492h70.595c11.423,0,20.682-9.26,20.682-20.682V20.682C406.107,9.26,396.848,0,385.425,0h-70.595
            c-76.282,0-138.341,62.06-138.341,138.341v49.913h-49.913c-11.422,0-20.682,9.26-20.682,20.682v94.127
            c0,11.423,9.26,20.682,20.682,20.682h49.913v167.572c0,11.423,9.26,20.682,20.682,20.682h94.127
            c11.423,0,20.682-9.259,20.682-20.682V323.746h49.913c9.49,0,17.763-6.458,20.065-15.666l23.532-94.127
            c1.544-6.179,0.156-12.725-3.763-17.744c-3.919-5.02-9.932-7.954-16.301-7.954H311.98v-49.913
            C311.98,136.77,313.258,135.492,314.829,135.492z M291.298,229.619h67.637l-13.191,52.763h-54.447
            c-11.423,0-20.682,9.259-20.682,20.682v167.572h-52.763V303.064c0-11.423-9.26-20.682-20.682-20.682h-49.913v-52.763h49.913
            c11.422,0,20.682-9.26,20.682-20.682v-70.595c0-53.473,43.503-96.977,96.977-96.977h49.913v52.763h-49.913
            c-24.38,0-44.214,19.835-44.214,44.214v70.595C270.615,220.359,279.875,229.619,291.298,229.619z"/>
    </symbol>

    <symbol id="footer-twitter" role="img" aria-labelledby="footer-twitter_title" viewBox="0 0 512 512">
        <title id="footer-twitter_title">Twitter</title>
        <path d="M502.954,47.189c-7.126-4.852-16.515-4.774-23.559,0.196c-15.351,10.828-31.974,19.528-49.557,25.948
            c-19.253-17.414-43.615-27.826-69.915-29.656c-31.056-2.16-61.081,7.9-84.561,28.326c-25.59,22.259-40.174,54.444-40.046,88.349
            c-85.248-7.609-139.14-61.55-177.09-108.986c-4.598-5.746-11.901-8.619-19.182-7.538c-7.279,1.078-13.438,5.944-16.171,12.777
            c-0.948,2.369-23.141,58.799-17.453,127.057c4.761,57.133,30.23,131.964,120.039,181.717
            c-32.436,14.756-68.282,21.939-103.953,20.519c-9.576-0.378-18.15,5.859-20.736,15.08c-2.587,9.221,1.497,19.013,9.869,23.665
            c51.359,28.532,108.03,43.736,163.889,43.965c0.432,0.002,0.861,0.003,1.294,0.003c54.105-0.001,106.379-13.938,151.246-40.336
            c42.898-25.241,78.416-61.759,102.715-105.603c26.162-47.206,39.427-101.75,39.427-162.186c-0.011-3.544-0.186-7.098-0.52-10.638
            c20.7-22.885,35.388-50.567,42.719-80.667C513.451,60.803,510.081,52.04,502.954,47.189z M432.297,128.07
            c-4.916,4.847-7.088,11.827-5.793,18.607c0.877,4.588,1.329,9.278,1.344,13.874c0,101.956-44.378,186.544-121.756,232.072
            c-60.586,35.649-133.037,43.933-203.609,25.057c0.729-0.201,1.459-0.407,2.185-0.615c27.596-7.885,53.63-20.055,77.377-36.174
            c6.329-4.296,9.77-11.734,8.946-19.34c-0.825-7.605-5.778-14.134-12.881-16.975C97.757,312.434,53.563,257.594,46.757,181.575
            c-2.536-28.334,0.707-54.721,4.766-74.501c16.638,17.909,37.384,37.227,62.129,53.407c42.771,27.966,90.663,42.146,142.346,42.146
            c11.423,0,20.682-9.26,20.682-20.682v-21.393c0-0.045,0-0.091,0-0.137c-0.146-21.948,9.268-42.797,25.829-57.202
            c15.146-13.175,34.51-19.665,54.543-18.27c20.026,1.393,38.311,10.502,51.487,25.648c5.339,6.138,13.783,8.577,21.567,6.229
            c5.725-1.724,11.375-3.645,16.941-5.757C442.599,117.081,437.672,122.769,432.297,128.07z"/>
    </symbol>    

    <symbol id="footer-linkedin" role="img" aria-labelledby="footer-linkedin_title" viewBox="0 0 512 512">
        <title id="footer-linkedin_title">Linkedin</title>
        <path d="M2.5,510V153.7h137.3V510H2.5z M102.5,472.7V191H39.8v281.7H102.5z"/>
        <path d="M375.4,510l0.1-158.1c0.5-23.6-8.8-42.9-24.9-51.7c-5.4-3-11.2-4.5-17.3-4.5c-5.2,0-10.4,1.1-15.5,3.3l-1.1,211H176.1
            V153.7h140.6V166c16.6-6,33.6-9.1,50.6-9.1c24.7,0,48.3,6.4,70.2,18.9c44,25.2,72.5,71.8,72.5,118.8V510H375.4z M472.7,472.7V294.6
            c0-33.8-21.1-67.7-53.7-86.4c-15.9-9.1-33.8-13.9-51.7-14h-0.3c-20.1,0-40.1,5.8-59.6,17.3L279.4,228V191h-66.1v281.7h66.2l1-194.7
            l8.2-5.5c13.7-9.2,29.1-14.1,44.5-14.1c12.4,0,24.2,3,35.1,9c13.7,7.5,25,19.2,32.8,33.8c7.9,14.9,11.9,32.6,11.5,51.1l0,120.3
            H472.7z"/>
        <path d="M70.9,139.9C32.9,139.9,2,109,2,71c0-38,30.9-69,68.9-69c38,0,68.9,30.9,68.9,69C139.8,109,108.9,139.9,70.9,139.9z
             M70.9,39.3c-17.4,0-31.6,14.2-31.6,31.7c0,17.5,14.2,31.7,31.6,31.7c17.4,0,31.6-14.2,31.6-31.7C102.5,53.5,88.3,39.3,70.9,39.3z"
            />
    </symbol>

    <symbol id="footer-instagram" role="img" aria-labelledby="footer-instagram_title" viewBox="0 0 512 512">
        <title id="footer-instagram_title">Instagram</title>
        <path d="M373.659,0H138.341C62.06,0,0,62.06,0,138.341v235.318C0,449.94,62.06,512,138.341,512h235.318
            C449.94,512,512,449.94,512,373.659V138.341C512,62.06,449.94,0,373.659,0z M470.636,373.659
            c0,53.473-43.503,96.977-96.977,96.977H138.341c-53.473,0-96.977-43.503-96.977-96.977V138.341
            c0-53.473,43.503-96.977,96.977-96.977h235.318c53.473,0,96.977,43.503,96.977,96.977V373.659z"/>
        <path d="M370.586,238.141c-3.64-24.547-14.839-46.795-32.386-64.342c-17.547-17.546-39.795-28.746-64.341-32.385
            c-11.176-1.657-22.507-1.657-33.682,0c-30.336,4.499-57.103,20.541-75.372,45.172c-18.269,24.631-25.854,54.903-21.355,85.237
            c4.499,30.335,20.541,57.102,45.172,75.372c19.996,14.831,43.706,22.619,68.153,22.619c5.667,0,11.375-0.418,17.083-1.265
            c30.336-4.499,57.103-20.541,75.372-45.172C367.5,298.747,375.085,268.476,370.586,238.141z M267.791,327.632
            c-19.405,2.882-38.77-1.973-54.527-13.66c-15.757-11.687-26.019-28.811-28.896-48.216c-2.878-19.405,1.973-38.77,13.66-54.527
            c11.688-15.757,28.811-26.019,48.217-28.897c3.574-0.53,7.173-0.795,10.772-0.795s7.199,0.265,10.773,0.796
            c32.231,4.779,57.098,29.645,61.878,61.877C335.608,284.268,307.851,321.692,267.791,327.632z"/>
        <path d="M400.049,111.951c-3.852-3.851-9.183-6.058-14.625-6.058c-5.442,0-10.773,2.206-14.625,6.058
            c-3.851,3.852-6.058,9.174-6.058,14.625c0,5.451,2.207,10.773,6.058,14.625c3.852,3.851,9.183,6.058,14.625,6.058
            c5.442,0,10.773-2.206,14.625-6.058c3.851-3.852,6.058-9.183,6.058-14.625C406.107,121.133,403.9,115.802,400.049,111.951z"/>
    </symbol>

    <symbol id="footer-phone" role="img" aria-labelledby="footer-phone_title" viewBox="0 0 512 512">
        <title id="footer-phone_title"></title>
        <path d="M421.216,195.504c-5.092-26.101-17.723-49.836-36.526-68.64c-18.804-18.803-42.54-31.434-68.641-36.527
			c-11.21-2.189-22.073,5.128-24.261,16.339c-2.187,11.212,5.128,22.073,16.339,24.26c36.847,7.188,65.3,35.642,72.489,72.489
			c1.927,9.874,10.581,16.726,20.278,16.726c1.313,0,2.645-0.125,3.984-0.387C416.088,217.577,423.403,206.715,421.216,195.504z"/>
		<path d="M511.422,196.929c-5.629-50.096-28.373-97.304-64.042-132.927C411.712,28.378,364.475,5.694,314.371,0.128
			c-11.355-1.261-21.578,6.92-22.839,18.272c-1.261,11.353,6.919,21.578,18.272,22.84c84.961,9.438,150.966,75.36,160.512,160.31
			c1.188,10.566,10.139,18.374,20.527,18.374c0.771,0,1.552-0.043,2.336-0.131C504.53,218.516,512.698,208.281,511.422,196.929z"/>
		<path d="M432.59,312.566c-0.062-0.008-0.124-0.017-0.186-0.025c-20.013-2.639-39.751-7.557-58.619-14.596
			c-23.91-8.99-51.103-3.191-69.27,14.772c-0.028,0.028-0.056,0.055-0.083,0.083l-17.148,17.148
			c-42.633-26.924-78.756-63.047-105.679-105.679l17.149-17.149c0.027-0.028,0.054-0.055,0.082-0.083
			c17.964-18.166,23.762-45.356,14.79-69.223c-7.057-18.914-11.974-38.653-14.614-58.666c-0.007-0.063-0.017-0.127-0.026-0.19
			c-4.591-32.478-32.782-56.734-65.548-56.467H66.053c-1.943,0.002-3.912,0.091-5.853,0.267
			C24.143,26.016-2.541,58.001,0.718,94.058c0.01,0.108,0.02,0.215,0.032,0.323c7.684,72.354,32.649,142.88,72.197,203.955
			c35.892,56.461,84.701,105.269,141.162,141.164c60.792,39.406,130.99,64.369,203.013,72.196c0.127,0.015,0.254,0.027,0.38,0.038
			c1.961,0.176,3.949,0.266,5.921,0.266c0.083,0,0.165,0,0.247,0.001c36.204-0.148,65.538-29.722,65.391-65.841v-67.233
			C489.746,345.714,465.515,317.211,432.59,312.566z M447.698,378.695v67.548c0.055,13.396-10.8,24.338-24.19,24.393
			c-0.715-0.004-1.425-0.027-2.135-0.086c-65.578-7.161-129.488-29.914-184.837-65.808c-0.053-0.035-0.107-0.069-0.161-0.103
			c-51.429-32.68-95.885-77.137-128.565-128.565c-0.032-0.051-0.064-0.101-0.097-0.153C71.683,220.306,48.928,156.086,41.902,90.193
			C40.779,76.91,50.63,65.155,63.923,63.954c0.717-0.064,1.443-0.098,2.145-0.098h67.463c0.146-0.001,0.294-0.003,0.443-0.002
			c12.021,0,22.322,8.905,24.044,20.819c3.05,23.063,8.721,45.806,16.871,67.649c3.319,8.832,1.189,18.869-5.427,25.591
			l-28.517,28.517c-6.583,6.582-7.956,16.753-3.354,24.847c33.837,59.508,83.177,108.847,142.685,142.685
			c8.094,4.6,18.264,3.23,24.848-3.355l28.512-28.512c6.72-6.621,16.765-8.752,25.642-5.415
			c21.799,8.134,44.547,13.805,67.61,16.855c12.18,1.757,21.122,12.339,20.816,24.647
			C447.7,378.353,447.698,378.524,447.698,378.695z"/>
    </symbol>    

	<symbol id="footer-mail" role="img" aria-labelledby="footer-mail_title" viewBox="0 0 512 512">
        <title id="footer-mail_title"></title>
        <path d="M256,141.176c-63.306,0-114.809,51.503-114.809,114.809S192.694,370.795,256,370.795s114.809-51.503,114.809-114.809
			S319.306,141.176,256,141.176z M256,329.43c-40.498,0-73.445-32.947-73.445-73.445c0-40.498,32.947-73.445,73.445-73.445
			c40.499,0,73.445,32.947,73.445,73.445C329.445,296.483,296.499,329.43,256,329.43z"/>
		<path d="M437.008,74.97C388.656,26.623,324.375,0,256,0c-0.005,0-0.013,0-0.017,0C187.603,0.004,123.318,26.637,74.97,74.992
			C26.62,123.347-0.005,187.637,0,256.017c0.004,68.379,26.637,132.666,74.992,181.014C123.344,485.377,187.625,512.001,256,512
			c0.004,0,0.012,0,0.017,0c55.945-0.004,111.216-18.738,155.631-52.752c9.07-6.945,10.792-19.927,3.846-28.995
			c-6.945-9.069-19.926-10.794-28.995-3.846c-37.24,28.518-83.58,44.224-130.486,44.228c-0.006,0-0.006,0-0.014,0
			c-57.324,0-111.224-22.324-151.761-62.856c-40.542-40.536-62.871-94.435-62.875-151.766
			C41.357,137.663,137.636,41.372,255.986,41.364c0.007,0,0.006,0,0.014,0c118.34,0,214.628,96.279,214.636,214.622v23.532
			c0,27.523-22.39,49.913-49.913,49.913c-27.523,0-49.913-22.391-49.913-49.913v-23.532c0-11.422-9.259-20.682-20.682-20.682
			s-20.682,9.26-20.682,20.682v23.532c0,50.33,40.947,91.278,91.278,91.278S512,329.848,512,279.518v-23.534
			C511.995,187.604,485.362,123.318,437.008,74.97z"/>
    </symbol>

    <symbol id="footer-location" role="img" aria-labelledby="footer-location_title" viewBox="0 0 512 512">
        <title id="footer-location_title"></title>
        <path d="M406.766,62.449C366.495,22.178,312.951,0,256,0S145.505,22.178,105.234,62.449
			c-40.272,40.271-62.449,93.814-62.449,150.766c0,37.656,10.972,76.863,32.609,116.532c16.825,30.846,40.15,62.102,69.326,92.898
			c49.17,51.903,97.763,84.519,99.808,85.881C248.001,510.842,252,512,256,512c4,0,7.999-1.158,11.473-3.474
			c2.045-1.363,50.638-33.978,99.808-85.881c29.176-30.795,52.501-62.051,69.326-92.898c21.637-39.669,32.609-78.876,32.609-116.532
			C469.215,156.263,447.038,102.72,406.766,62.449z M256.001,465.903C215.826,436.156,84.15,329.739,84.15,213.215
			c0-94.759,77.091-171.851,171.85-171.851s171.85,77.092,171.851,171.851C427.851,329.748,296.159,436.168,256.001,465.903z"/>
		<path d="M256,128.355c-46.791,0-84.86,38.068-84.86,84.86c0,46.791,38.068,84.86,84.86,84.86c46.792,0,84.861-38.068,84.86-84.86
			C340.86,166.423,302.791,128.355,256,128.355z M256,256.71c-23.983,0-43.495-19.512-43.495-43.495
			c0-23.983,19.512-43.495,43.495-43.495c23.984,0,43.495,19.512,43.495,43.495C299.495,237.198,279.984,256.71,256,256.71z"/>
		</symbol>

	<symbol id="footer-time" role="img" aria-labelledby="footer-time_title" viewBox="0 0 512 512">
        <title id="footer-time_title"></title>
        <path d="M437.019,74.981C388.667,26.629,324.38,0,256,0S123.333,26.63,74.981,74.981S0,187.62,0,256
			s26.629,132.667,74.981,181.019C123.332,485.371,187.62,512,256,512s132.667-26.629,181.019-74.981
			C485.371,388.667,512,324.38,512,256S485.371,123.332,437.019,74.981z M256,470.636C137.65,470.636,41.364,374.35,41.364,256
			S137.65,41.364,256,41.364S470.636,137.65,470.636,256S374.35,470.636,256,470.636z"/>
		<path d="M341.221,311.97l-64.538-64.537V114.809c0-11.422-9.259-20.682-20.682-20.682c-11.422,0-20.682,9.26-20.682,20.682V256
			c0,5.486,2.179,10.746,6.058,14.625l70.594,70.595c4.038,4.039,9.332,6.058,14.625,6.058c5.293,0,10.586-2.019,14.626-6.058
			C349.297,333.142,349.297,320.047,341.221,311.97z"/>
	</symbol>

</svg>