<svg xmlns="http://www.w3.org/2000/svg" xmlns:xlink="http://www.w3.org/1999/xlink">

    <symbol id="facebook" role="img" aria-labelledby="facebook_title" viewBox="0 0 161.7 161.7">
        <title id="facebook_title">Facebook</title>
        <path d="M106.5,31.8l17.6,0V1.4l-2.6-0.3C119.3,0.8,110.6,0,99.8,0C76.1,0,61.4,15.1,61.4,39.5v17.3H37.6v33.6h23.8v70.8h34.5V90.4
			h23.4l4.3-33.6H95.8V42.2C95.8,35.1,97.4,31.8,106.5,31.8z"/>
    </symbol>

    <symbol id="twitter" role="img" aria-labelledby="twitter_title" viewBox="0 0 512 512">
        <title id="twitter_title">Twitter</title>
        <path d="M512,97.248c-19.04,8.352-39.328,13.888-60.48,16.576c21.76-12.992,38.368-33.408,46.176-58.016
            c-20.288,12.096-42.688,20.64-66.56,25.408C411.872,60.704,384.416,48,354.464,48c-58.112,0-104.896,47.168-104.896,104.992
            c0,8.32,0.704,16.32,2.432,23.936c-87.264-4.256-164.48-46.08-216.352-109.792c-9.056,15.712-14.368,33.696-14.368,53.056
            c0,36.352,18.72,68.576,46.624,87.232c-16.864-0.32-33.408-5.216-47.424-12.928c0,0.32,0,0.736,0,1.152
            c0,51.008,36.384,93.376,84.096,103.136c-8.544,2.336-17.856,3.456-27.52,3.456c-6.72,0-13.504-0.384-19.872-1.792
            c13.6,41.568,52.192,72.128,98.08,73.12c-35.712,27.936-81.056,44.768-130.144,44.768c-8.608,0-16.864-0.384-25.12-1.44
            C46.496,446.88,101.6,464,161.024,464c193.152,0,298.752-160,298.752-298.688c0-4.64-0.16-9.12-0.384-13.568
            C480.224,136.96,497.728,118.496,512,97.248z"/>
    </symbol>    

    <symbol id="youtube" role="img" aria-labelledby="youtube_title" viewBox="-21 -117 682.66672 682">
        <title id="youtube_title">Youtube</title>
        <path d="m626.8125 64.035156c-7.375-27.417968-28.992188-49.03125-56.40625-56.414062-50.082031-13.703125-250.414062-13.703125-250.414062-13.703125s-200.324219 0-250.40625 13.183593c-26.886719 7.375-49.03125 29.519532-56.40625 56.933594-13.179688 50.078125-13.179688 153.933594-13.179688 153.933594s0 104.378906 13.179688 153.933594c7.382812 27.414062 28.992187 49.027344 56.410156 56.410156 50.605468 13.707031 250.410156 13.707031 250.410156 13.707031s200.324219 0 250.40625-13.183593c27.417969-7.378907 49.03125-28.992188 56.414062-56.40625 13.175782-50.082032 13.175782-153.933594 13.175782-153.933594s.527344-104.382813-13.183594-154.460938zm-370.601562 249.878906v-191.890624l166.585937 95.945312zm0 0"/>
    </symbol>

</svg>