<svg xmlns="http://www.w3.org/2000/svg" xmlns:xlink="http://www.w3.org/1999/xlink">
  
    <symbol id="aside-menu01" role="img" aria-labelledby="aside-menu01_title" viewBox="0 0 512 512">
        <title id="aside-menu01_title"></title>
        <path d="M256,11.96L0,234.276l26.206,30.176l23.967-20.814V440.09c0,33.056,26.893,59.95,59.95,59.95h111.906V304.204h69.941
			V500.04h109.908c33.056,0,59.95-26.893,59.95-59.95V243.639l23.967,20.814L512,234.277L256,11.96z M421.861,440.09
			c0,11.019-8.964,19.983-19.983,19.983h-69.941V264.238H182.062v195.836h-71.94c-11.019,0-19.983-8.964-19.983-19.983V208.931
			L256,64.894l165.861,144.037V440.09z"/>
    </symbol>

    <symbol id="aside-menu02" role="img" aria-labelledby="aside-menu02_title" viewBox="0 0 512 512">
        <title id="aside-menu02_title"></title>
        <path d="m512 428h-84v84h-40v-84h-84v-40h84v-84h40v84h84zm-212.695312-204.5625c1.757812 7.910156 2.695312 16.128906 2.695312 24.5625 0 34.550781-15.59375 65.527344-40.105469 86.269531.699219.277344 1.40625.546875 2.105469.832031v44.199219c-21.414062-11.667969-45.945312-18.300781-72-18.300781v-.039062c-.332031.007812-.667969.007812-1 .015624v.023438c-83.261719 0-151 67.738281-151 151h-40c0-79.371094 48.671875-147.582031 117.730469-176.378906-25.449219-20.734375-41.730469-52.3125-41.730469-87.621094 0-62.308594 50.691406-113 113-113 7.40625 0 14.644531.722656 21.65625 2.089844-1.734375-7.84375-2.65625-15.988282-2.65625-24.34375 0-62.167969 50.578125-112.746094 112.746094-112.746094 62.167968 0 112.746094 50.578125 112.746094 112.746094 0 34.894531-15.9375 66.136718-40.910157 86.832031 33.011719 13.109375 61.464844 35.117187 82.304688 63.421875h-53.847657c-24.847656-22.023438-56.976562-36-92.273437-37.796875-2.652344.1875-5.324219.289063-8.019531.289063-7.332032 0-14.5-.710938-21.441406-2.054688zm-51.304688-110.691406c0 40.113281 32.632812 72.746094 72.746094 72.746094 40.109375 0 72.746094-32.632813 72.746094-72.746094 0-40.113282-32.636719-72.746094-72.746094-72.746094-40.113282 0-72.746094 32.632812-72.746094 72.746094zm14 135.253906c0-40.253906-32.746094-73-73-73s-73 32.746094-73 73 32.746094 73 73 73 73-32.746094 73-73zm0 0"/>
    </symbol>

    <symbol id="aside-menu03" role="img" aria-labelledby="aside-menu03_title" viewBox="0 0 512 512">
        <title id="aside-menu03_title"></title>
        <path d="M239.911,132.588c0-13.807,11.193-25,25-25c13.807,0,25,11.193,25,25s-11.193,25-25,25  C251.104,157.588,239.911,146.396,239.911,132.588z M278.529,316.583c-4.023,1.963-7.224,0.347-8.772-0.793  c-1.464-1.077-3.776-3.434-3.448-7.43l15.876-63.147c0.154-0.614,0.279-1.235,0.375-1.861c2.728-17.888-4.634-35.66-19.212-46.381  c-14.582-10.724-33.746-12.454-50.01-4.517c-13.556,6.614-16.368,7.984-16.378,7.989l17.517,35.961c0,0,2.803-1.365,16.402-8.001  c4.024-1.962,7.223-0.345,8.771,0.793c1.464,1.077,3.776,3.435,3.449,7.431l-15.876,63.147c-0.154,0.614-0.279,1.235-0.375,1.86  c-2.729,17.887,4.633,35.659,19.21,46.38c8.508,6.257,18.575,9.453,28.718,9.453c7.24,0,14.519-1.628,21.294-4.934l13.588-6.631  l-17.541-35.949L278.529,316.583z M512,235.5c0,36.195-6.923,68.709-20.578,96.641c-13.008,26.609-32.129,49.15-56.832,66.999  C390.803,430.777,329.047,447.5,256,447.5c-20.442,0-40.185-1.313-58.845-3.909c-42.33,42.462-94.389,44.91-105.736,44.91  c-0.11,0-0.216,0-0.318,0l-0.105,0l-35.955-0.053l18.983-30.52c0.099-0.162,11.108-18.301,19.591-48.232  C32.285,373.671,0,313.784,0,235.5c0-36.195,6.923-68.709,20.578-96.641C33.586,112.25,52.708,89.708,77.41,71.86  C121.197,40.222,182.953,23.5,256,23.5s134.803,16.723,178.59,48.36c24.702,17.848,43.823,40.39,56.832,66.999  C505.077,166.79,512,199.305,512,235.5z M472,235.5c0-57.903-20.468-102.051-60.836-131.217C374.238,77.602,320.583,63.5,256,63.5  s-118.238,14.103-155.164,40.783C60.468,133.449,40,177.597,40,235.5c0,68.877,28.818,118.016,85.654,146.051l14.073,6.941  l-3.394,15.32c-3.293,14.867-7.375,27.915-11.404,38.786c15.517-5.229,33.798-15.049,49.632-33.439l7.369-8.56l11.136,1.891  c19.571,3.324,40.745,5.009,62.935,5.009c64.583,0,118.238-14.103,155.164-40.783C451.532,337.55,472,293.402,472,235.5z"/>
    </symbol>

    <symbol id="aside-menu04" role="img" aria-labelledby="aside-menu04_title" viewBox="0 0 512 512">
        <title id="aside-menu04_title"></title>
        <path d="m512 289.738281v-67.476562l-68.195312-18.140625c-4.25-15.398438-10.40625-30.1875-18.390626-44.191406l34.875-60.574219-47.644531-47.644531-60.574219 34.875c-14.003906-7.980469-28.792968-14.136719-44.191406-18.390626l-18.140625-68.195312h-67.476562l-18.140625 68.195312c-15.398438 4.253907-30.1875 10.40625-44.191406 18.390626l-60.574219-34.878907-47.644531 47.648438 34.875 60.574219c-7.984376 14.003906-14.140626 28.792968-18.390626 44.191406l-68.195312 18.140625v67.476562l68.195312 18.140625c4.253907 15.398438 10.40625 30.1875 18.390626 44.191406l-34.875 60.574219 47.644531 47.644531 60.574219-34.875c14.003906 7.980469 28.792968 14.136719 44.191406 18.390626l18.140625 68.195312h67.476562l18.140625-68.195312c15.398438-4.253907 30.1875-10.40625 44.191406-18.390626l60.574219 34.875 47.644531-47.644531-34.875-60.574219c7.980469-14.003906 14.136719-28.792968 18.390626-44.191406zm-101.914062-14.28125-2.503907 12.097657c-3.914062 18.910156-11.363281 36.816406-22.140625 53.230468l-6.753906 10.289063 31.640625 54.960937-4.292969 4.292969-54.960937-31.640625-10.289063 6.753906c-16.414062 10.777344-34.320312 18.226563-53.230468 22.140625l-12.097657 2.503907-16.46875 61.914062h-5.976562l-16.46875-61.914062-12.101563-2.503907c-18.90625-3.914062-36.8125-11.363281-53.230468-22.140625l-10.289063-6.753906-54.960937 31.640625-4.292969-4.292969 31.644531-54.960937-6.753906-10.289063c-10.777344-16.414062-18.226563-34.320312-22.140625-53.230468l-2.503907-12.097657-61.914062-16.46875v-5.976562l61.914062-16.46875 2.503907-12.101563c3.914062-18.902344 11.363281-36.8125 22.140625-53.230468l6.753906-10.289063-31.640625-54.960937 4.292969-4.292969 54.960937 31.644531 10.289063-6.753906c16.414062-10.777344 34.320312-18.226563 53.230468-22.140625l12.097657-2.503907 16.46875-61.914062h5.976562l16.46875 61.914062 12.101563 2.503907c18.90625 3.914062 36.8125 11.363281 53.226562 22.140625l10.289063 6.757812 54.964843-31.648437 4.292969 4.296875-31.644531 54.960937 6.753906 10.289063c10.777344 16.414062 18.226563 34.324218 22.140625 53.230468l2.503907 12.097657 61.914062 16.46875v5.976562zm-78.964844-102.820312 29.757812 26.726562-131.683594 146.617188-86.984374-82.796875 27.578124-28.972656 57.160157 54.40625zm0 0"/>
    </symbol>

    <symbol id="aside-menu05" role="img" aria-labelledby="aside-menu05_title" viewBox="0 -7 512 511">
        <title id="aside-menu05_title"></title>
        <path d="m511.882812 375.957031-151.882812-123.066406v206l52.664062-49.109375 42.089844 87.136719 36.015625-17.398438-42.566406-88.125.132813-.0625zm-111.882812-39.171875 25.855469 20.953125-25.855469 12.339844zm52-336.285156h-392c-33.085938 0-60 26.914062-60 60v360c0 33.085938 26.914062 60 60 60h259.882812v-40h-259.882812c-11.027344 0-20-8.972656-20-20v-260h432v131.699219l40 32.386719v-264.085938c0-33.085938-26.914062-60-60-60zm-412 120v-60c0-11.027344 8.972656-20 20-20h392c11.027344 0 20 8.972656 20 20v60zm70-40c0 11.046875-8.953125 20-20 20s-20-8.953125-20-20 8.953125-20 20-20 20 8.953125 20 20zm70 0c0 11.046875-8.953125 20-20 20s-20-8.953125-20-20 8.953125-20 20-20 20 8.953125 20 20zm56 340v-22.523438c-8.53125-2.992187-16.382812-7.898437-23.019531-14.515624-11.59375-11.5625-17.980469-26.820313-17.980469-42.960938v-8h40v8c0 11.316406 9.617188 20.875 21 20.875 11.1875 0 21-9.953125 21-21.300781 0-8.726563-9.59375-14.660157-29.957031-25.230469l-.257813-.136719c-16.003906-8.308593-45.785156-23.769531-45.785156-61.550781 0-22.757812 14.535156-42.242188 35-50.085938v-22.570312h40v22.472656c6.714844 2.511719 12.90625 6.289063 18.21875 11.21875 10.820312 10.039063 16.78125 23.648438 16.78125 38.308594v5h-40v-5c0-8.214844-7.628906-13.125-15-13.125-8.269531 0-15 6.183594-15 13.78125 0 10.707031 4.980469 16.0625 24.214844 26.050781l.261718.136719c11.171876 5.800781 22.726563 11.800781 32.144532 20.074219 12.859375 11.300781 19.378906 24.976562 19.378906 40.65625 0 16.109375-6.351562 31.410156-17.878906 43.074219-6.667969 6.742187-14.554688 11.738281-23.121094 14.78125v22.570312zm0 0"/>
    </symbol>

    <symbol id="aside-menu06" role="img" aria-labelledby="aside-menu06_title" viewBox="0 0 512 512">
        <title id="aside-menu06_title"></title>
        <rect y="152" width="45" height="40"/>
		<rect x="24.874" y="258.173" transform="matrix(0.8931 -0.4498 0.4498 0.8931 -119.9274 51.6053)" width="47.517" height="39.999"/>
		<rect x="28.142" y="39.82" transform="matrix(0.4498 -0.8931 0.8931 0.4498 -29.7974 77.6684)" width="39.999" height="46.399"/>
		<rect x="467" y="152" width="45" height="40"/>
		<rect x="443.39" y="254.41" transform="matrix(0.4498 -0.8931 0.8931 0.4498 6.5125 566.909)" width="39.999" height="47.517"/>
		<rect x="440.67" y="43.011" transform="matrix(0.8931 -0.4498 0.4498 0.8931 21.2339 215.3884)" width="46.399" height="39.999"/>
		<path d="M427.996,170.857C427.378,76.541,350.459,0,256,0S84.622,76.541,84.004,170.857L84,172h0.002
			c0.317,68.687,29.205,106.7,54.708,140.261c21.331,28.07,38.178,50.241,38.178,87.151V452c0,33.084,26.916,60,60,60h38.223
			c33.084,0,60-26.916,60-60v-52.587c0-36.911,16.848-59.082,38.178-87.151C398.793,278.7,427.681,240.687,427.998,172l0.002-1.143
			H427.996z M295.111,452c0,11.028-8.972,20-20,20h-38.223c-11.028,0-20-8.972-20-20v-39h78.223V452z M341.441,288.06
			c-18.507,24.355-37.527,49.383-44.007,84.94h-82.869c-6.48-35.557-25.5-60.585-44.007-84.94
			c-23.853-31.389-46.387-61.044-46.558-116.569C124.275,98.938,183.384,40,256,40s131.725,58.938,131.999,131.491
			C387.829,227.016,365.294,256.671,341.441,288.06z"/>
    </symbol>

    <symbol id="aside-menu07" role="img" aria-labelledby="aside-menu07_title" viewBox="0 0 512 512">
        <title id="aside-menu07_title"></title>
        <rect x="180" y="340" width="122" height="40"/>
		<rect x="180" y="260" width="232" height="40"/>
		<path d="M452,80h-20V60c0-33.084-26.916-60-60-60H60C26.916,0,0,26.916,0,60v312c0,33.084,26.916,60,60,60h20v20
			c0,33.084,26.916,60,60,60h229.828L512,369.145V140C512,106.916,485.084,80,452,80z M80,140v252H60c-11.028,0-20-8.972-20-20V60
			c0-11.028,8.972-20,20-20h312c11.028,0,20,8.972,20,20v20H140C106.916,80,80,106.916,80,140z M381.889,443.177v-42.288
			c0-11.028,8.972-20,20-20h41.99L381.889,443.177z M472,340.889h-70.111c-33.084,0-60,26.916-60,60V472H140
			c-11.028,0-20-8.972-20-20V140c0-11.028,8.972-20,20-20h312c11.028,0,20,8.972,20,20V340.889z"/>
		<rect x="180" y="180" width="232" height="40"/>
    </symbol>

    <symbol id="header-panel01" role="img" aria-labelledby="header-panel01_title" viewBox="0 0 512 512">
        <title id="header-panel01_title"></title>
        <path d="M477.187,120.776l-7.224-18.65l-37.3,14.448l7.225,18.649C447.925,155.974,452,177.768,452,200v92h40v-92
			C492,172.807,487.017,146.152,477.187,120.776z"/>
		<path d="M42.037,102.127l-7.224,18.65C24.983,146.152,20,172.807,20,200v92h40v-92c0-22.232,4.075-44.026,12.112-64.776
			l7.225-18.649L42.037,102.127z"/>
		<path d="M468,392h-20c-10.384,0-18.709-3.609-24.745-10.728C415.892,372.588,412,358.886,412,341.646V204
			c0-78.818-59.543-144.777-136-154.699V0h-40v49.301C159.543,59.223,100,125.181,100,204v144c0,14.175-3.734,25.775-10.799,33.546
			C82.984,388.385,74.27,392,64,392H44v56h161.413c-0.915,3.855-1.413,7.869-1.413,12c0,28.673,23.327,52,52,52
			c28.673,0,52-23.327,52-52c0-4.131-0.499-8.145-1.413-12H468V392z M256,472c-6.617,0-12-5.383-12-12s5.383-12,12-12
			s12,5.383,12,12S262.617,472,256,472z M119.208,408C132.813,392.784,140,372.052,140,348V204
			c0-63.067,51.263-115.072,114.302-115.987h3.396C320.737,88.928,372,140.933,372,204v137.646c0,26.84,7.174,49.488,20.745,65.494
			c0.245,0.289,0.492,0.576,0.741,0.86H119.208z"/>
    </symbol>

    <symbol id="header-panel02" role="img" aria-labelledby="header-panel02_title" viewBox="0 0 512 512">
        <title id="header-panel02_title"></title>
        <path d="m256 0-256 190.933594v261.03125c0 33.085937 26.914062 60 60 60h392c33.085938 0 60-26.914063 60-60v-261.03125zm200.8125 199.671875-200.8125 149.367187-200.8125-149.367187 200.8125-149.773437zm-4.8125 272.292969h-392c-11.027344 0-20-8.972656-20-20v-213.734375l216 160.660156 216-160.660156v213.734375c0 11.027344-8.972656 20-20 20zm-217-190v-40h40v40zm40-70h-40v-95h40zm0 0"/>
    </symbol>

    <symbol id="header-panel04" role="img" aria-labelledby="header-panel04_title" viewBox="0 0 512 512">
        <title id="header-panel04_title"></title>
        <path d="M302.058,0C186.296,0,92.116,94.18,92.116,209.942c0,50.697,18.064,97.253,48.092,133.574L0,483.724L28.276,512
			l140.208-140.208c36.321,30.028,82.877,48.092,133.574,48.092C417.82,419.884,512,325.704,512,209.942S417.821,0,302.058,0z
			 M302.058,379.895c-93.712,0-169.953-76.241-169.953-169.953S208.346,39.989,302.058,39.989s169.953,76.241,169.953,169.953
			S395.77,379.895,302.058,379.895z"/>
    </symbol>

    <symbol id="numbers01" role="img" aria-labelledby="numbers01_title" viewBox="0 0 512 512">
        <title id="numbers01_title"></title>
        <path d="m197.573 188.379h-6.15c-35.801 0-65.108 28.328-66.681 63.748h139.512c-1.577-35.416-30.883-63.748-66.681-63.748z"/>
        <path d="m428.513 0h-348.031c-44.366 0-80.461 39.036-80.461 87.019v219.758c0 47.982 36.095 87.018 80.461 87.018h104.492l56.241 107.171c2.591 4.937 7.706 8.03 13.282 8.03s10.691-3.093 13.282-8.03l56.241-107.171h104.492c44.366 0 80.461-39.036 80.461-87.018v-219.758c.001-47.983-36.094-87.019-80.46-87.019zm-161.193 282.128h-145.645c-14.888 0-27-12.112-27-27 0-40.134 24.565-74.635 59.448-89.266-10.311-10.331-16.695-24.581-16.695-40.295 0-31.468 25.601-57.07 57.069-57.07s57.069 25.602 57.069 57.07c0 15.714-6.385 29.964-16.695 40.295 34.883 14.63 59.448 49.131 59.448 89.265.001 14.888-12.111 27.001-26.999 27.001zm129.796-24.774c0 6.353-7.742 9.529-15.485 9.529-7.742 0-15.485-3.177-15.485-9.529v-101.053l-5.758 3.574c-1.786 1.191-3.573 1.588-4.963 1.588-5.758 0-9.729-6.155-9.729-12.309 0-4.169 1.787-8.14 5.758-10.522l26.206-15.882c1.589-.993 3.574-1.39 5.758-1.39 6.353 0 13.698 3.772 13.698 9.728z"/>
        <path d="m194.498 152.637c14.926 0 27.069-12.143 27.069-27.07 0-14.926-12.144-27.07-27.069-27.07s-27.069 12.144-27.069 27.07c-.001 14.927 12.143 27.07 27.069 27.07z"/>
    </symbol>

    <symbol id="numbers02" role="img" aria-labelledby="numbers02_title" viewBox="0 0 512 512">
        <title id="numbers02_title"></title>
        <path d="m101.84375 312.390625v-97.808594c0-7.058593 1.011719-13.941406 2.90625-20.511719h-65.953125c-10.695313 0-20.394531 4.351563-27.417969 11.375-7.023437 7.023438-11.378906 16.726563-11.378906 27.417969v77.828125c0 9.472656 3.457031 18.195313 9.183594 24.980469 2.976562 3.53125 6.578125 6.523437 10.632812 8.8125v113.121094c0 8.269531 6.703125 14.972656 14.96875 14.972656h91.960938v-104.574219c-15.722656-14.195312-24.902344-34.417968-24.902344-55.613281zm0 0"/>
        <path d="m80.847656 176.363281c32.339844 0 58.648438-26.308593 58.648438-58.648437s-26.308594-58.648438-58.648438-58.648438-58.648437 26.308594-58.648437 58.648438 26.308593 58.648437 58.648437 58.648437zm0 0"/>
        <path d="m282.441406 169.667969h-105.746094c-12.375 0-23.605468 5.042969-31.738281 13.171875-8.132812 8.132812-13.171875 19.363281-13.171875 31.742187v97.808594c0 10.96875 4 21.070313 10.621094 28.917969 3.925781 4.652344 8.785156 8.5 14.28125 11.25v144.46875c0 8.269531 6.703125 14.972656 14.972656 14.972656h115.820313c8.269531 0 14.972656-6.703125 14.972656-14.972656v-144.46875c5.496094-2.75 10.355469-6.597656 14.277344-11.25 6.625-7.847656 10.625-17.945313 10.625-28.917969v-97.808594c0-12.378906-5.039063-23.609375-13.171875-31.738281-8.132813-8.132812-19.363282-13.175781-31.742188-13.175781zm0 0"/>
        <path d="m229.546875 139.726562c38.523437 0 69.863281-31.339843 69.863281-69.863281 0-38.523437-31.339844-69.863281-69.863281-69.863281s-69.863281 31.339844-69.863281 69.863281c0 38.523438 31.339844 69.863281 69.863281 69.863281zm0 0"/>
        <path d="m449.769531 205.445312c-7.023437-7.023437-16.722656-11.375-27.417969-11.375h-67.960937c1.890625 6.570313 2.90625 13.453126 2.90625 20.511719v97.808594c0 21.191406-9.179687 41.417969-24.902344 55.613281v104.464844c.589844.070312 1.195313.109375 1.808594.109375h92.15625c8.269531 0 14.972656-6.703125 14.972656-14.972656v-113.121094c4.050781-2.285156 7.652344-5.28125 10.632813-8.8125 5.726562-6.785156 9.183594-15.507813 9.183594-24.980469v-77.828125c0-10.691406-4.355469-20.394531-11.378907-27.417969zm0 0"/>
        <path d="m380.261719 176.363281c32.339843 0 58.648437-26.308593 58.648437-58.648437s-26.308594-58.648438-58.648437-58.648438c-32.335938 0-58.648438 26.308594-58.648438 58.648438s26.3125 58.648437 58.648438 58.648437zm0 0"/>
    </symbol>

    <symbol id="numbers03" role="img" aria-labelledby="numbers03_title" viewBox="0 0 512 512">
        <title id="numbers03_title"></title>
        <path d="m512 128v-29.539062c0-8.15625-6.613281-14.769532-14.769531-14.769532h-14.769531v-68.921875c0-8.15625-6.613282-14.769531-14.769532-14.769531h-59.074218c-8.160157 0-14.769532 6.613281-14.769532 14.769531v68.921875h-14.769531c-8.15625 0-14.769531 6.613282-14.769531 14.769532v29.539062c0 4.140625 1.738281 8.089844 4.789062 10.886719l31.085938 28.496093h-106.214844l31.085938-28.496093c3.054687-2.796875 4.789062-6.746094 4.789062-10.886719v-29.539062c0-8.15625-6.609375-14.769532-14.769531-14.769532h-14.765625v-68.921875c0-8.15625-6.613282-14.769531-14.769532-14.769531h-59.078124c-8.15625 0-14.769532 6.613281-14.769532 14.769531v68.921875h-14.769531c-8.15625 0-14.769531 6.613282-14.769531 14.769532v29.539062c0 4.140625 1.738281 8.089844 4.789062 10.886719l31.089844 28.496093h-106.214844l31.085938-28.496093c3.050781-2.796875 4.789062-6.746094 4.789062-10.886719v-29.539062c0-8.15625-6.613281-14.769532-14.769531-14.769532h-14.769531v-68.921875c0-8.15625-6.613282-14.769531-14.769532-14.769531h-59.074218c-8.15625 0-14.769532 6.613281-14.769532 14.769531v68.921875h-14.769531c-8.15625 0-14.769531 6.613282-14.769531 14.769532v29.539062c0 4.140625 1.738281 8.089844 4.789062 10.886719l31.089844 28.496093h-21.109375c-8.15625 0-14.769531 6.613282-14.769531 14.769532v315.078125c0 8.15625 6.613281 14.769531 14.769531 14.769531h482.460938c8.15625 0 14.769531-6.613281 14.769531-14.769531v-315.078125c0-8.15625-6.613281-14.769532-14.769531-14.769532h-21.109375l31.089844-28.496093c3.050781-2.796875 4.789062-6.746094 4.789062-10.886719zm-391.1875 295.382812h36.726562c8.15625 0 14.769532 6.613282 14.769532 14.769532s-6.613282 14.769531-14.769532 14.769531h-49.230468c-8.15625 0-14.769532-6.613281-14.769532-14.769531 0-10.855469-8.835937-19.691406-19.691406-19.691406-8.15625 0-14.769531-6.613282-14.769531-14.769532v-128c0-8.15625 6.613281-14.769531 14.769531-14.769531 10.855469 0 19.691406-8.832031 19.691406-19.691406 0-8.15625 6.613282-14.769531 14.769532-14.769531h49.230468c8.15625 0 14.769532 6.613281 14.769532 14.769531s-6.613282 14.769531-14.769532 14.769531h-36.726562c-4.816406 15.289062-16.90625 27.382812-32.195312 32.199219v102.988281c15.289062 4.816406 27.378906 16.90625 32.195312 32.195312zm120.417969-98.460937h29.539062c21.714844 0 39.382813 17.667969 39.382813 39.386719 0 21.714844-17.667969 39.382812-39.382813 39.382812v24.617188c0 8.15625-6.613281 14.769531-14.769531 14.769531s-14.769531-6.613281-14.769531-14.769531v-24.617188h-24.613281c-8.160157 0-14.769532-6.613281-14.769532-14.769531s6.609375-14.769531 14.769532-14.769531h54.152343c5.429688 0 9.847657-4.414063 9.847657-9.84375 0-5.429688-4.417969-9.847656-9.847657-9.847656h-29.539062c-21.714844 0-39.382813-17.667969-39.382813-39.382813 0-21.71875 17.667969-39.386719 39.382813-39.386719v-24.613281c0-8.15625 6.613281-14.769531 14.769531-14.769531s14.769531 6.613281 14.769531 14.769531v24.613281h24.613281c8.160157 0 14.769532 6.613282 14.769532 14.769532s-6.609375 14.769531-14.769532 14.769531h-54.152343c-5.429688 0-9.847657 4.417969-9.847657 9.847656s4.417969 9.84375 9.847657 9.84375zm211.691406 78.769531c0 8.15625-6.613281 14.769532-14.769531 14.769532-10.855469 0-19.691406 8.835937-19.691406 19.691406 0 8.15625-6.613282 14.769531-14.769532 14.769531h-49.230468c-8.15625 0-14.769532-6.613281-14.769532-14.769531s6.613282-14.769532 14.769532-14.769532h36.726562c4.816406-15.289062 16.90625-27.378906 32.195312-32.195312v-102.988281c-15.289062-4.820313-27.378906-16.910157-32.195312-32.199219h-36.726562c-8.15625 0-14.769532-6.613281-14.769532-14.769531s6.613282-14.769531 14.769532-14.769531h49.230468c8.15625 0 14.769532 6.613281 14.769532 14.769531 0 10.859375 8.835937 19.691406 19.691406 19.691406 8.15625 0 14.769531 6.613281 14.769531 14.769531zm0 0"/>
    </symbol>

    <symbol id="numbers04" role="img" aria-labelledby="numbers04_title" viewBox="0 0 512 512">
        <title id="numbers04_title"></title>
        <path d="m510.855469 266.945312c-2.320313-5.605468-7.789063-9.257812-13.859375-9.257812h-65.332032v-202.519531c0-30.421875-24.746093-55.167969-55.164062-55.167969h-241.003906c-30.417969 0-55.164063 24.746094-55.164063 55.167969v202.519531h-65.332031c-6.066406 0-11.535156 3.65625-13.859375 9.261719-2.320313 5.605469-1.035156 12.058593 3.253906 16.347656l212.59375 212.597656c10.386719 10.386719 24.242188 16.105469 39.007813 16.105469 14.769531 0 28.625-5.722656 39.007812-16.109375l212.601563-212.597656c4.289062-4.289063 5.574219-10.742188 3.25-16.347657zm-345.742188-133.652343c12.546875-12.550781 32.890625-12.550781 45.441407 0 12.546874 12.546875 12.546874 32.890625 0 45.441406-12.550782 12.550781-32.894532 12.546875-45.441407 0-12.550781-12.550781-12.550781-32.894531 0-45.441406zm56.800781 170.410156c-12.546874 12.550781-32.894531 12.550781-45.441406 0-12.550781-12.546875-12.550781-32.894531 0-45.441406l113.609375-113.609375c12.546875-12.550782 32.894531-12.546875 45.441407 0 12.546874 12.546875 12.550781 32.894531 0 45.445312zm124.972657 11.359375c-12.550781 12.550781-32.894531 12.550781-45.441407 0-12.550781-12.546875-12.550781-32.894531 0-45.441406 12.546876-12.546875 32.890626-12.546875 45.441407 0s12.546875 32.894531 0 45.441406zm0 0"/>
    </symbol>

    <symbol id="activities01" role="img" aria-labelledby="activities01_title" viewBox="0 0 512 512">
        <title id="activities01_title"></title>
        <path d="M482.104,17.321c-1.75,0.996-174.858,98.783-294.107,100.481c-0.657-0.065-1.323-0.101-1.997-0.101H60
			c-33.084,0-60,26.916-60,60v69c0,26.073,16.722,48.303,40,56.56v108.44c0,55.141,44.86,100,100,100h20v-127h40v-48h-40v-30h26
			c0.943,0,1.863-0.088,2.771-0.214c119.434,1.946,292.173,91.998,293.92,92.915L512,414.815V0.299L482.104,17.321z M120,468.274
			c-23.281-8.255-40-30.498-40-56.573v-105h40V468.274z M166,266.701H60c-11.028,0-20-8.972-20-20v-69c0-11.028,8.972-20,20-20h106
			V266.701z M472,349.495c-53.451-25.371-169.574-75.459-266-82.263V156.984c96.352-7.335,212.222-61.303,266-88.898V349.495z"/>
    </symbol>

    <symbol id="activities02" role="img" aria-labelledby="activities02_title" viewBox="0 0 512 512">
        <title id="activities02_title"></title>
        <path d="M0,216.007v30.187l116.611,48.501l51.31,172.678l31.417,21.992l74.259-96.762l131.384,91.398h27.123L512,22.635L0,216.007
			z M70.497,232.167l243.818-92.087l-183.21,117.295L70.497,232.167z M184.985,310.423l-5.647,54.854l-22.782-76.67L318.696,184.8
			L184.985,310.423z M215.773,402.206l4.786-46.499l20.145,14.014L215.773,402.206z M400.47,432.105L235.829,317.572l220.319-206.99
			L400.47,432.105z"/>
    </symbol>

    <symbol id="activities03" role="img" aria-labelledby="activities03_title" viewBox="0 0 512 512">
        <title id="activities03_title"></title>
        <path d="m199.945312 359.898438h67.980469v39.988281h-67.980469zm-74.980468-4.996094c-13.804688 0-24.992188 11.1875-24.992188 24.992187 0 13.800781 11.1875 24.992188 24.992188 24.992188 13.804687 0 24.992187-11.191407 24.992187-24.992188 0-13.804687-11.1875-24.992187-24.992187-24.992187zm276.921875-121.96875h-201.941407v39.988281h201.941407zm-276.921875-4.996094c-13.804688 0-24.992188 11.1875-24.992188 24.992188 0 13.804687 11.1875 24.992187 24.992188 24.992187 13.804687 0 24.992187-11.1875 24.992187-24.992187 0-13.804688-11.1875-24.992188-24.992187-24.992188zm276.921875-114.96875h-201.941407v39.988281h201.941407zm-276.921875-5c-13.804688 0-24.992188 11.191406-24.992188 24.992188 0 13.804687 11.1875 24.996093 24.992188 24.996093 13.804687 0 24.992187-11.191406 24.992187-24.996093 0-13.800782-11.1875-24.992188-24.992187-24.992188zm-84.976563 343.90625v-391.890625c0-11.027344 8.96875-19.996094 19.996094-19.996094h391.890625c11.023438 0 19.992188 8.96875 19.992188 19.996094v225.9375h39.988281v-225.9375c0-33.074219-26.90625-59.984375-59.980469-59.984375h-391.890625c-33.074219 0-59.984375 26.910156-59.984375 59.984375v391.890625c0 33.074219 26.910156 59.980469 59.984375 59.980469h230.933594v-39.988281h-230.933594c-11.027344 0-19.996094-8.96875-19.996094-19.992188zm443.734375 60.125-39.820312-39.820312c-13.472656 8.050781-29.210938 12.683593-46.011719 12.683593-49.613281 0-89.976563-40.363281-89.976563-89.972656 0-49.613281 40.363282-89.976563 89.976563-89.976563 49.609375 0 89.972656 40.363282 89.972656 89.976563 0 18.355469-5.53125 35.441406-15.003906 49.691406l39.140625 39.140625zm-85.832031-67.125c27.5625 0 49.984375-22.421875 49.984375-49.984375s-22.421875-49.988281-49.984375-49.988281-49.988281 22.425781-49.988281 49.988281 22.425781 49.984375 49.988281 49.984375zm0 0"/>
    </symbol>

    <symbol id="activities04" role="img" aria-labelledby="activities04_title" viewBox="0 0 512 512">
        <title id="activities04_title"></title>
        <path d="m512 474.539062-51.105469-51.105468c8.75-13.871094 13.820313-30.28125 13.820313-47.855469 0-49.597656-40.347656-89.949219-89.945313-89.949219-49.597656 0-89.945312 40.351563-89.945312 89.949219 0 49.59375 40.347656 89.945313 89.945312 89.945313 17.574219 0 33.988281-5.074219 47.855469-13.824219l51.105469 51.105469zm-127.230469-48.992187c-27.554687 0-49.96875-22.417969-49.96875-49.96875 0-27.554687 22.414063-49.972656 49.96875-49.972656 27.554688 0 49.96875 22.417969 49.96875 49.972656 0 27.550781-22.414062 49.96875-49.96875 49.96875zm-105.949219 25.148437h-218.855468c-11.023438 0-19.988282-8.96875-19.988282-19.988281v-211.875h195.882813v49.96875h39.976563v-49.96875h195.882812v60.292969c19.796875 17.863281 34.082031 41.71875 39.976562 68.679688v-207.886719c0-33.066407-26.902343-59.964844-59.964843-59.964844h-106.011719v-19.988281c0-33.066406-26.898438-59.964844-59.964844-59.964844h-59.816406c-33.0625 0-59.960938 26.898438-59.960938 59.964844v19.988281h-106.011718c-33.066406 0-59.964844 26.898437-59.964844 59.964844v290.789062c0 33.0625 26.898438 59.960938 59.964844 59.960938h264.585937c-18.207031-9.5625-33.882812-23.3125-45.730469-39.972657zm-72.871093-390.730468c0-11.023438 8.96875-19.988282 19.988281-19.988282h59.816406c11.023438 0 19.988282 8.964844 19.988282 19.988282v19.988281h-99.792969zm-165.972657 79.953125c0-11.023438 8.964844-20.027344 19.988282-20.027344h391.765625c11.019531 0 19.988281 9.003906 19.988281 20.027344v38.9375h-431.742188zm0 0"/>
    </symbol>

    <symbol id="activities05" role="img" aria-labelledby="activities05_title" viewBox="0 0 512 512">
        <title id="activities05_title"></title>
        <path d="m512 428h-84v84h-40v-84h-84v-40h84v-84h40v84h84zm-212.695312-204.5625c1.757812 7.910156 2.695312 16.128906 2.695312 24.5625 0 34.550781-15.59375 65.527344-40.105469 86.269531.699219.277344 1.40625.546875 2.105469.832031v44.199219c-21.414062-11.667969-45.945312-18.300781-72-18.300781v-.039062c-.332031.007812-.667969.007812-1 .015624v.023438c-83.261719 0-151 67.738281-151 151h-40c0-79.371094 48.671875-147.582031 117.730469-176.378906-25.449219-20.734375-41.730469-52.3125-41.730469-87.621094 0-62.308594 50.691406-113 113-113 7.40625 0 14.644531.722656 21.65625 2.089844-1.734375-7.84375-2.65625-15.988282-2.65625-24.34375 0-62.167969 50.578125-112.746094 112.746094-112.746094 62.167968 0 112.746094 50.578125 112.746094 112.746094 0 34.894531-15.9375 66.136718-40.910157 86.832031 33.011719 13.109375 61.464844 35.117187 82.304688 63.421875h-53.847657c-24.847656-22.023438-56.976562-36-92.273437-37.796875-2.652344.1875-5.324219.289063-8.019531.289063-7.332032 0-14.5-.710938-21.441406-2.054688zm-51.304688-110.691406c0 40.113281 32.632812 72.746094 72.746094 72.746094 40.109375 0 72.746094-32.632813 72.746094-72.746094 0-40.113282-32.636719-72.746094-72.746094-72.746094-40.113282 0-72.746094 32.632812-72.746094 72.746094zm14 135.253906c0-40.253906-32.746094-73-73-73s-73 32.746094-73 73 32.746094 73 73 73 73-32.746094 73-73zm0 0"/>
    </symbol>

    <symbol id="arrow" role="img" aria-labelledby="arrow_title" viewBox="0 0 451.846 451.847">
        <title id="arrow_title"></title>
        <path d="M345.441,248.292L151.154,442.573c-12.359,12.365-32.397,12.365-44.75,0c-12.354-12.354-12.354-32.391,0-44.744
		L278.318,225.92L106.409,54.017c-12.354-12.359-12.354-32.394,0-44.748c12.354-12.359,32.391-12.359,44.75,0l194.287,194.284
		c6.177,6.18,9.262,14.271,9.262,22.366C354.708,234.018,351.617,242.115,345.441,248.292z"/>
    </symbol>

    <symbol id="footer-facebook" role="img" aria-labelledby="footer-facebook_title" viewBox="0 0 512 512">
        <title id="footer-facebook_title">Facebook</title>
        <path d="M314.829,135.492h70.595c11.423,0,20.682-9.26,20.682-20.682V20.682C406.107,9.26,396.848,0,385.425,0h-70.595
            c-76.282,0-138.341,62.06-138.341,138.341v49.913h-49.913c-11.422,0-20.682,9.26-20.682,20.682v94.127
            c0,11.423,9.26,20.682,20.682,20.682h49.913v167.572c0,11.423,9.26,20.682,20.682,20.682h94.127
            c11.423,0,20.682-9.259,20.682-20.682V323.746h49.913c9.49,0,17.763-6.458,20.065-15.666l23.532-94.127
            c1.544-6.179,0.156-12.725-3.763-17.744c-3.919-5.02-9.932-7.954-16.301-7.954H311.98v-49.913
            C311.98,136.77,313.258,135.492,314.829,135.492z M291.298,229.619h67.637l-13.191,52.763h-54.447
            c-11.423,0-20.682,9.259-20.682,20.682v167.572h-52.763V303.064c0-11.423-9.26-20.682-20.682-20.682h-49.913v-52.763h49.913
            c11.422,0,20.682-9.26,20.682-20.682v-70.595c0-53.473,43.503-96.977,96.977-96.977h49.913v52.763h-49.913
            c-24.38,0-44.214,19.835-44.214,44.214v70.595C270.615,220.359,279.875,229.619,291.298,229.619z"/>
    </symbol>

    <symbol id="footer-twitter" role="img" aria-labelledby="footer-twitter_title" viewBox="0 0 512 512">
        <title id="footer-twitter_title">Twitter</title>
        <path d="M502.954,47.189c-7.126-4.852-16.515-4.774-23.559,0.196c-15.351,10.828-31.974,19.528-49.557,25.948
            c-19.253-17.414-43.615-27.826-69.915-29.656c-31.056-2.16-61.081,7.9-84.561,28.326c-25.59,22.259-40.174,54.444-40.046,88.349
            c-85.248-7.609-139.14-61.55-177.09-108.986c-4.598-5.746-11.901-8.619-19.182-7.538c-7.279,1.078-13.438,5.944-16.171,12.777
            c-0.948,2.369-23.141,58.799-17.453,127.057c4.761,57.133,30.23,131.964,120.039,181.717
            c-32.436,14.756-68.282,21.939-103.953,20.519c-9.576-0.378-18.15,5.859-20.736,15.08c-2.587,9.221,1.497,19.013,9.869,23.665
            c51.359,28.532,108.03,43.736,163.889,43.965c0.432,0.002,0.861,0.003,1.294,0.003c54.105-0.001,106.379-13.938,151.246-40.336
            c42.898-25.241,78.416-61.759,102.715-105.603c26.162-47.206,39.427-101.75,39.427-162.186c-0.011-3.544-0.186-7.098-0.52-10.638
            c20.7-22.885,35.388-50.567,42.719-80.667C513.451,60.803,510.081,52.04,502.954,47.189z M432.297,128.07
            c-4.916,4.847-7.088,11.827-5.793,18.607c0.877,4.588,1.329,9.278,1.344,13.874c0,101.956-44.378,186.544-121.756,232.072
            c-60.586,35.649-133.037,43.933-203.609,25.057c0.729-0.201,1.459-0.407,2.185-0.615c27.596-7.885,53.63-20.055,77.377-36.174
            c6.329-4.296,9.77-11.734,8.946-19.34c-0.825-7.605-5.778-14.134-12.881-16.975C97.757,312.434,53.563,257.594,46.757,181.575
            c-2.536-28.334,0.707-54.721,4.766-74.501c16.638,17.909,37.384,37.227,62.129,53.407c42.771,27.966,90.663,42.146,142.346,42.146
            c11.423,0,20.682-9.26,20.682-20.682v-21.393c0-0.045,0-0.091,0-0.137c-0.146-21.948,9.268-42.797,25.829-57.202
            c15.146-13.175,34.51-19.665,54.543-18.27c20.026,1.393,38.311,10.502,51.487,25.648c5.339,6.138,13.783,8.577,21.567,6.229
            c5.725-1.724,11.375-3.645,16.941-5.757C442.599,117.081,437.672,122.769,432.297,128.07z"/>
    </symbol>    

    <symbol id="footer-linkedin" role="img" aria-labelledby="footer-linkedin_title" viewBox="0 0 512 512">
        <title id="footer-linkedin_title">Linkedin</title>
        <path d="M2.5,510V153.7h137.3V510H2.5z M102.5,472.7V191H39.8v281.7H102.5z"/>
        <path d="M375.4,510l0.1-158.1c0.5-23.6-8.8-42.9-24.9-51.7c-5.4-3-11.2-4.5-17.3-4.5c-5.2,0-10.4,1.1-15.5,3.3l-1.1,211H176.1
            V153.7h140.6V166c16.6-6,33.6-9.1,50.6-9.1c24.7,0,48.3,6.4,70.2,18.9c44,25.2,72.5,71.8,72.5,118.8V510H375.4z M472.7,472.7V294.6
            c0-33.8-21.1-67.7-53.7-86.4c-15.9-9.1-33.8-13.9-51.7-14h-0.3c-20.1,0-40.1,5.8-59.6,17.3L279.4,228V191h-66.1v281.7h66.2l1-194.7
            l8.2-5.5c13.7-9.2,29.1-14.1,44.5-14.1c12.4,0,24.2,3,35.1,9c13.7,7.5,25,19.2,32.8,33.8c7.9,14.9,11.9,32.6,11.5,51.1l0,120.3
            H472.7z"/>
        <path d="M70.9,139.9C32.9,139.9,2,109,2,71c0-38,30.9-69,68.9-69c38,0,68.9,30.9,68.9,69C139.8,109,108.9,139.9,70.9,139.9z
             M70.9,39.3c-17.4,0-31.6,14.2-31.6,31.7c0,17.5,14.2,31.7,31.6,31.7c17.4,0,31.6-14.2,31.6-31.7C102.5,53.5,88.3,39.3,70.9,39.3z"
            />
    </symbol>

    <symbol id="footer-instagram" role="img" aria-labelledby="footer-instagram_title" viewBox="0 0 512 512">
        <title id="footer-instagram_title">Instagram</title>
        <path d="M373.659,0H138.341C62.06,0,0,62.06,0,138.341v235.318C0,449.94,62.06,512,138.341,512h235.318
            C449.94,512,512,449.94,512,373.659V138.341C512,62.06,449.94,0,373.659,0z M470.636,373.659
            c0,53.473-43.503,96.977-96.977,96.977H138.341c-53.473,0-96.977-43.503-96.977-96.977V138.341
            c0-53.473,43.503-96.977,96.977-96.977h235.318c53.473,0,96.977,43.503,96.977,96.977V373.659z"/>
        <path d="M370.586,238.141c-3.64-24.547-14.839-46.795-32.386-64.342c-17.547-17.546-39.795-28.746-64.341-32.385
            c-11.176-1.657-22.507-1.657-33.682,0c-30.336,4.499-57.103,20.541-75.372,45.172c-18.269,24.631-25.854,54.903-21.355,85.237
            c4.499,30.335,20.541,57.102,45.172,75.372c19.996,14.831,43.706,22.619,68.153,22.619c5.667,0,11.375-0.418,17.083-1.265
            c30.336-4.499,57.103-20.541,75.372-45.172C367.5,298.747,375.085,268.476,370.586,238.141z M267.791,327.632
            c-19.405,2.882-38.77-1.973-54.527-13.66c-15.757-11.687-26.019-28.811-28.896-48.216c-2.878-19.405,1.973-38.77,13.66-54.527
            c11.688-15.757,28.811-26.019,48.217-28.897c3.574-0.53,7.173-0.795,10.772-0.795s7.199,0.265,10.773,0.796
            c32.231,4.779,57.098,29.645,61.878,61.877C335.608,284.268,307.851,321.692,267.791,327.632z"/>
        <path d="M400.049,111.951c-3.852-3.851-9.183-6.058-14.625-6.058c-5.442,0-10.773,2.206-14.625,6.058
            c-3.851,3.852-6.058,9.174-6.058,14.625c0,5.451,2.207,10.773,6.058,14.625c3.852,3.851,9.183,6.058,14.625,6.058
            c5.442,0,10.773-2.206,14.625-6.058c3.851-3.852,6.058-9.183,6.058-14.625C406.107,121.133,403.9,115.802,400.049,111.951z"/>
    </symbol>

</svg>