<svg xmlns="http://www.w3.org/2000/svg" xmlns:xlink="http://www.w3.org/1999/xlink">

	<symbol id="header-phone" role="img" aria-labelledby="header-phone_title" viewBox="0 0 480.56 480.56">
        <title id="header-phone_title"></title>
        <path d="M365.354,317.9c-15.7-15.5-35.3-15.5-50.9,0c-11.9,11.8-23.8,23.6-35.5,35.6c-3.2,3.3-5.9,4-9.8,1.8
			c-7.7-4.2-15.9-7.6-23.3-12.2c-34.5-21.7-63.4-49.6-89-81c-12.7-15.6-24-32.3-31.9-51.1c-1.6-3.8-1.3-6.3,1.8-9.4
			c11.9-11.5,23.5-23.3,35.2-35.1c16.3-16.4,16.3-35.6-0.1-52.1c-9.3-9.4-18.6-18.6-27.9-28c-9.6-9.6-19.1-19.3-28.8-28.8
			c-15.7-15.3-35.3-15.3-50.9,0.1c-12,11.8-23.5,23.9-35.7,35.5c-11.3,10.7-17,23.8-18.2,39.1c-1.9,24.9,4.2,48.4,12.8,71.3
			c17.6,47.4,44.4,89.5,76.9,128.1c43.9,52.2,96.3,93.5,157.6,123.3c27.6,13.4,56.2,23.7,87.3,25.4c21.4,1.2,40-4.2,54.9-20.9
			c10.2-11.4,21.7-21.8,32.5-32.7c16-16.2,16.1-35.8,0.2-51.8C403.554,355.9,384.454,336.9,365.354,317.9z"/>
		<path d="M346.254,238.2l36.9-6.3c-5.8-33.9-21.8-64.6-46.1-89c-25.7-25.7-58.2-41.9-94-46.9l-5.2,37.1
			c27.7,3.9,52.9,16.4,72.8,36.3C329.454,188.2,341.754,212,346.254,238.2z"/>
		<path d="M403.954,77.8c-42.6-42.6-96.5-69.5-156-77.8l-5.2,37.1c51.4,7.2,98,30.5,134.8,67.2c34.9,34.9,57.8,79,66.1,127.5
			l36.9-6.3C470.854,169.3,444.354,118.3,403.954,77.8z"/>
    </symbol>

    <symbol id="header-email" role="img" aria-labelledby="header-email_title" viewBox="0 0 490.2 490.2">
        <title id="header-email_title"></title>
        <path d="M420.95,61.8C376.25,20.6,320.65,0,254.25,0c-69.8,0-129.3,23.4-178.4,70.3s-73.7,105.2-73.7,175
		c0,66.9,23.4,124.4,70.1,172.6c46.9,48.2,109.9,72.3,189.2,72.3c47.8,0,94.7-9.8,140.7-29.5c15-6.4,22.3-23.6,16.2-38.7l0,0
		c-6.3-15.6-24.1-22.8-39.6-16.2c-40,17.2-79.2,25.8-117.4,25.8c-60.8,0-107.9-18.5-141.3-55.6c-33.3-37-50-80.5-50-130.4
		c0-54.2,17.9-99.4,53.6-135.7c35.6-36.2,79.5-54.4,131.5-54.4c47.9,0,88.4,14.9,121.4,44.7s49.5,67.3,49.5,112.5
		c0,30.9-7.6,56.7-22.7,77.2c-15.1,20.6-30.8,30.8-47.1,30.8c-8.8,0-13.2-4.7-13.2-14.2c0-7.7,0.6-16.7,1.7-27.1l18.6-152.1h-64
		l-4.1,14.9c-16.3-13.3-34.2-20-53.6-20c-30.8,0-57.2,12.3-79.1,36.8c-22,24.5-32.9,56.1-32.9,94.7c0,37.7,9.7,68.2,29.2,91.3
		c19.5,23.2,42.9,34.7,70.3,34.7c24.5,0,45.4-10.3,62.8-30.8c13.1,19.7,32.4,29.5,57.9,29.5c37.5,0,69.9-16.3,97.2-49
		c27.3-32.6,41-72,41-118.1C488.05,152.9,465.75,103,420.95,61.8z M273.55,291.9c-11.3,15.2-24.8,22.9-40.5,22.9
		c-10.7,0-19.3-5.6-25.8-16.8c-6.6-11.2-9.9-25.1-9.9-41.8c0-20.6,4.6-37.2,13.8-49.8s20.6-19,34.2-19c11.8,0,22.3,4.7,31.5,14.2
		s13.8,22.1,13.8,37.9C290.55,259.2,284.85,276.6,273.55,291.9z"/>
    </symbol>

    <symbol id="header-location" role="img" aria-labelledby="header-location_title" viewBox="0 0 512 512">
        <title id="header-location_title"></title>
        <path d="M256,0C150.112,0,64,86.112,64,192c0,133.088,173.312,307.936,180.672,315.328C247.808,510.432,251.904,512,256,512
			s8.192-1.568,11.328-4.672C274.688,499.936,448,325.088,448,192C448,86.112,361.888,0,256,0z M256,288c-52.928,0-96-43.072-96-96
			s43.072-96,96-96c52.928,0,96,43.072,96,96C352,244.928,308.928,288,256,288z"/>
    </symbol>

    <symbol id="header-login" role="img" aria-labelledby="header-login_title" viewBox="0 0 512 512">
        <title id="header-login_title"></title>
        <polygon points="240,400.704 426.064,256 240,111.296 240,192 128,192 128,224 272,224 272,176.704 373.936,256 272,335.296 
			272,288 0,288 0,320 240,320 			"/>
		<rect x="64" y="192" width="32" height="32"/>
		<rect y="192" width="32" height="32"/>
		<polygon points="0,0 0,160 32,160 32,32 480,32 480,480 32,480 32,352 0,352 0,512 512,512 512,0 			"/>
    </symbol>

    <symbol id="header-facebook" role="img" aria-labelledby="header-facebook_title" viewBox="0 0 512 512">
        <title id="header-facebook_title"></title>
        <path d="M288,176v-64c0-17.664,14.336-32,32-32h32V0h-64c-53.024,0-96,42.976-96,96v80h-64v80h64v256h96V256h64l32-80H288z"/>
    </symbol>

    <symbol id="header-twitter" role="img" aria-labelledby="header-twitter_title" viewBox="0 0 512 512">
        <title id="header-twitter_title"></title>
        <path d="M512,97.248c-19.04,8.352-39.328,13.888-60.48,16.576c21.76-12.992,38.368-33.408,46.176-58.016
			c-20.288,12.096-42.688,20.64-66.56,25.408C411.872,60.704,384.416,48,354.464,48c-58.112,0-104.896,47.168-104.896,104.992
			c0,8.32,0.704,16.32,2.432,23.936c-87.264-4.256-164.48-46.08-216.352-109.792c-9.056,15.712-14.368,33.696-14.368,53.056
			c0,36.352,18.72,68.576,46.624,87.232c-16.864-0.32-33.408-5.216-47.424-12.928c0,0.32,0,0.736,0,1.152
			c0,51.008,36.384,93.376,84.096,103.136c-8.544,2.336-17.856,3.456-27.52,3.456c-6.72,0-13.504-0.384-19.872-1.792
			c13.6,41.568,52.192,72.128,98.08,73.12c-35.712,27.936-81.056,44.768-130.144,44.768c-8.608,0-16.864-0.384-25.12-1.44
			C46.496,446.88,101.6,464,161.024,464c193.152,0,298.752-160,298.752-298.688c0-4.64-0.16-9.12-0.384-13.568
			C480.224,136.96,497.728,118.496,512,97.248z"/>
    </symbol>

    <symbol id="header-linkedin" role="img" aria-labelledby="header-linkedin_title" viewBox="0 0 512 512">
        <title id="header-linkedin_title"></title>
        <rect y="160" width="114.496" height="352"/>
		<path d="M426.368,164.128c-1.216-0.384-2.368-0.8-3.648-1.152c-1.536-0.352-3.072-0.64-4.64-0.896
			c-6.08-1.216-12.736-2.08-20.544-2.08c-66.752,0-109.088,48.544-123.04,67.296V160H160v352h114.496V320
			c0,0,86.528-120.512,123.04-32c0,79.008,0,224,0,224H512V274.464C512,221.28,475.552,176.96,426.368,164.128z"/>
		<circle cx="56" cy="56" r="56"/>
    </symbol>

    <symbol id="search-form01" role="img" aria-labelledby="search-form01_title" viewBox="0 0 530.719 530.719">
        <title id="search-form01_title"></title>
        <circle cx="265.36" cy="197.619" r="89.304"/>
		<path d="M265.36,530.719c0,0,197.627-223.944,197.627-333.09C462.987,88.482,374.507,0,265.36,0
			C156.213,0,67.731,88.482,67.731,197.628C67.731,306.774,265.36,530.719,265.36,530.719z M265.36,61.171
			c75.352,0,136.448,61.085,136.448,136.448S340.712,334.066,265.36,334.066c-75.353,0-136.447-61.085-136.447-136.447
			S190.007,61.171,265.36,61.171z"/>
    </symbol>

    <symbol id="search-form02" role="img" aria-labelledby="search-form02_title" viewBox="0 0 512 512">
        <title id="search-form02_title"></title>
        <path d="M208,224H16c-8.832,0-16,7.168-16,16v256c0,8.832,7.168,16,16,16h192c8.832,0,16-7.168,16-16V240
			C224,231.168,216.832,224,208,224z M96,384H64v-32h32V384z M96,320H64v-32h32V320z M160,384h-32v-32h32V384z M160,320h-32v-32h32
			V320z"/>
		<path d="M368,0H112c-8.832,0-16,7.168-16,16v176h139.424c11.36,0,20.576,8.736,20.576,19.552V256l32-32v-80
			c0-8.832,7.168-16,16-16h80V16C384,7.168,376.832,0,368,0z M192,160h-32v-32h32V160z M192,96h-32V64h32V96z M256,160h-32v-32h32
			V160z M256,96h-32V64h32V96z M320,96h-32V64h32V96z"/>
		<path d="M496,160H336c-8.832,0-16,7.168-16,16v55.424l-56.864,59.264C258.656,293.664,256,298.656,256,304v192
			c0,8.832,7.168,16,16,16h224c8.832,0,16-7.168,16-16V176C512,167.168,504.832,160,496,160z M448,416h-64v-64h64V416z M448,288h-64
			v-64h64V288z"/>
    </symbol>

    <symbol id="search-form03" role="img" aria-labelledby="search-form03_title" viewBox="0 0 490 490">
        <title id="search-form03_title"></title>
        <path d="M424,49.8H312.8C303.5,20.9,276.5,0,244.5,0s-59,20.9-68.3,49.8H66c-23.2,0-42,18.8-42,42V448c0,23.2,18.8,42,42,42h358
		c23.2,0,42-18.8,42-42V91.8C466,68.6,447.2,49.8,424,49.8z M244.5,46.7c13.8,0,25,11.2,25,25s-11.2,25-25,25c-13.8,0-25-11.2-25-25
		S230.7,46.7,244.5,46.7z M369.2,407.3c0,7.7-6.3,14-14,14h-93.8h-32.6H135c-7.7,0-14-6.3-14-14v-6.5c0-17.1,8-33.3,21.7-43.5
		c27.6-20.4,54-33.8,60-36.7c0.8-0.4,1.3-1.2,1.3-2v-24.1c-3.7-6.4-6.1-13.2-7.1-19.3c-2.7-0.2-6.3-4-10.1-17.5
		c-5.2-18.5,0.3-21.2,5-20.8c-0.9-2.6-1.6-5.1-2-7.6l0,0c-1.7-8.6-2.1-16.7-0.1-24.4c2.4-10.3,8-18.6,14.2-24.9
		c3.9-4.2,8.4-7.9,13.2-10.9c3.9-2.7,8.1-5,12.8-6.6l0,0c3.6-1.2,7.5-2,11.6-2.2c12.7-1.1,22.3,2.1,29.2,6.2
		c10.3,5.7,14.2,13.2,14.2,13.2s23.6,1.7,15.6,49.6c-0.5,2.5-1.1,5.1-2,7.6c4.7-0.4,10.3,2.3,5,20.8c-3.8,13.5-7.4,17.3-10.1,17.5
		c-0.9,6.1-3.3,12.7-7.1,19.1v24.3c0,0.9,0.5,1.7,1.3,2c6,2.9,32.4,16.3,60,36.7c13.7,10.2,21.7,26.4,21.7,43.5v6.5H369.2z"/>
    </symbol>

    <symbol id="button-arrow" role="img" aria-labelledby="button-arrow_title" viewBox="0 0 512 512">
        <title id="button-arrow_title"></title>
        <path d="M256,0C114.615,0,0,114.615,0,256s114.615,256,256,256s256-114.615,256-256C511.833,114.685,397.315,0.167,256,0z
			 M256,480C132.288,480,32,379.712,32,256S132.288,32,256,32s224,100.288,224,224C479.868,379.657,379.657,479.868,256,480z"/>
		<polygon points="126.88,256 208,256 208,224 196.336,224 256,154.24 315.664,224 240,224 240,288 272,288 272,256 385.12,256 
			256,104.992 			"/>
		<rect x="240" y="384" width="32" height="32"/>
		<rect x="240" y="320" width="32" height="32"/>
    </symbol>

    <symbol id="about01" role="img" aria-labelledby="about01_title" viewBox="0 0 496 496">
        <title id="about01_title"></title>
        <circle style="fill:#e99f4f;" cx="248" cy="248" r="88"/>
		<path d="M248,128c-66.168,0-120,53.832-120,120s53.832,120,120,120s120-53.832,120-120S314.168,128,248,128z M311.624,240
			c-1.048-19.064-5.624-35.824-11.928-50.12c11.736-5.04,19.456-10.672,23.232-13.808c16.216,16.888,26.76,39.2,28.656,63.928H311.624
			z M256,153.848c6.216,6.36,13.816,15.4,20.736,26.808c-6.168,1.504-13.08,2.632-20.736,3.104V153.848z M271.408,146.752
			c14.52,3.36,27.856,9.768,39.352,18.512c-3.52,2.632-9.616,6.6-18.32,10.24C285.656,163.696,278.128,154.08,271.408,146.752z
			 M240,153.904v29.848c-7.632-0.472-14.52-1.592-20.672-3.088C226.232,169.304,233.8,160.272,240,153.904z M203.56,175.504
			c-8.696-3.632-14.792-7.608-18.32-10.24c11.496-8.744,24.832-15.152,39.352-18.512C217.872,154.08,210.344,163.696,203.56,175.504z
			 M240,199.752V240h-39.616c1.08-16.992,5.384-32.008,11.216-44.808C219.848,197.472,229.288,199.176,240,199.752z M240,256v40.248
			c-10.736,0.584-20.192,2.288-28.448,4.576c-5.808-12.792-10.096-27.808-11.176-44.824L240,256L240,256z M240,312.248v29.912
			c-6.224-6.36-13.816-15.408-20.736-26.808C225.424,313.848,232.344,312.72,240,312.248z M224.592,349.248
			c-14.52-3.36-27.848-9.768-39.352-18.512c3.52-2.632,9.616-6.6,18.312-10.24C210.336,332.304,217.872,341.92,224.592,349.248z
			 M256,342.088V312.24c7.632,0.472,14.52,1.592,20.672,3.088C269.768,326.696,262.2,335.728,256,342.088z M292.44,320.496
			c8.696,3.632,14.792,7.6,18.312,10.24c-11.496,8.744-24.824,15.152-39.352,18.512C278.136,341.92,285.664,332.304,292.44,320.496z
			 M256,296.248V256h39.616c-1.08,16.992-5.384,32.008-11.224,44.808C276.152,298.528,266.712,296.824,256,296.248z M256,240v-40.248
			c10.736-0.584,20.192-2.288,28.44-4.576c5.808,12.792,10.096,27.808,11.176,44.824H256z M173.064,176.072
			c3.776,3.136,11.496,8.768,23.232,13.808c-6.304,14.296-10.872,31.056-11.928,50.12H144.4
			C146.304,215.264,156.848,192.96,173.064,176.072z M144.408,256h39.968c1.048,19.064,5.624,35.824,11.928,50.12
			c-11.736,5.04-19.456,10.672-23.232,13.808C156.848,303.04,146.304,280.728,144.408,256z M322.936,319.928
			c-3.776-3.136-11.496-8.768-23.232-13.808c6.304-14.296,10.872-31.056,11.928-50.12H351.6
			C349.696,280.728,339.152,303.04,322.936,319.928z"/>
		<path d="M456,208c-2.048,0-4.016,0.304-5.984,0.608l-29-78.72C432.36,122.824,440,110.328,440,96c0-22.056-17.944-40-40-40
			c-14.328,0-26.824,7.64-33.888,18.992l-78.72-29C287.696,44.016,288,42.048,288,40c0-22.056-17.944-40-40-40s-40,17.944-40,40
			c0,2.048,0.304,4.016,0.608,5.984l-78.72,29C122.824,63.64,110.328,56,96,56c-22.056,0-40,17.944-40,40
			c0,14.328,7.64,26.824,18.992,33.888l-29,78.72C44.016,208.304,42.048,208,40,208c-22.056,0-40,17.944-40,40s17.944,40,40,40
			c2.048,0,4.016-0.304,5.984-0.608l29,78.72C63.64,373.176,56,385.672,56,400c0,22.056,17.944,40,40,40
			c14.328,0,26.824-7.64,33.888-18.992l78.72,29C208.304,451.984,208,453.952,208,456c0,22.056,17.944,40,40,40s40-17.944,40-40
			c0-2.048-0.304-4.016-0.608-5.984l78.72-29C373.176,432.36,385.672,440,400,440c22.056,0,40-17.944,40-40
			c0-14.328-7.64-26.824-18.992-33.888l29-78.72c1.976,0.304,3.944,0.608,5.992,0.608c22.056,0,40-17.944,40-40S478.056,208,456,208z
			 M400,72c13.232,0,24,10.768,24,24s-10.768,24-24,24s-24-10.768-24-24S386.768,72,400,72z M248,16c13.232,0,24,10.768,24,24
			s-10.768,24-24,24s-24-10.768-24-24S234.768,16,248,16z M96,72c13.232,0,24,10.768,24,24s-10.768,24-24,24s-24-10.768-24-24
			S82.768,72,96,72z M16,248c0-13.232,10.768-24,24-24s24,10.768,24,24s-10.768,24-24,24S16,261.232,16,248z M96,424
			c-13.232,0-24-10.768-24-24s10.768-24,24-24s24,10.768,24,24S109.232,424,96,424z M248,480c-13.232,0-24-10.768-24-24
			s10.768-24,24-24s24,10.768,24,24S261.232,480,248,480z M400,424c-13.232,0-24-10.768-24-24s10.768-24,24-24s24,10.768,24,24
			S413.232,424,400,424z M405.984,360.608C404.016,360.304,402.048,360,400,360c-8.136,0-15.696,2.472-22.024,6.664l-22.496-22.496
			l-11.312,11.312l22.496,22.496C362.472,384.304,360,391.864,360,400c0,2.048,0.304,4.016,0.608,5.984l-78.72,29
			C276.176,425.8,266.944,419.032,256,416.8V392h-16v24.808c-10.936,2.232-20.168,9-25.888,18.184l-78.72-29
			c0.304-1.976,0.608-3.944,0.608-5.992c0-8.136-2.472-15.696-6.664-22.024l22.496-22.496l-11.312-11.312l-22.496,22.496
			C111.696,362.472,104.136,360,96,360c-2.048,0-4.016,0.304-5.984,0.608l-29-78.72C70.2,276.176,76.968,266.944,79.2,256H104v-16
			H79.192c-2.232-10.936-9-20.168-18.184-25.888l29-78.72C91.984,135.696,93.952,136,96,136c8.136,0,15.696-2.472,22.024-6.664
			l22.504,22.496l11.312-11.312l-22.504-22.496C133.528,111.704,136,104.136,136,96c0-2.048-0.304-4.016-0.608-5.984l78.72-29
			C219.824,70.2,229.056,76.968,240,79.2V104h16V79.192c10.936-2.232,20.168-9,25.888-18.184l78.72,29
			C360.304,91.984,360,93.952,360,96c0,8.136,2.472,15.704,6.664,22.024L344.16,140.52l11.312,11.312l22.504-22.496
			C384.304,133.528,391.864,136,400,136c2.048,0,4.016-0.304,5.984-0.608l29,78.72C425.8,219.824,419.032,229.056,416.8,240H392v16
			h24.808c2.232,10.936,9,20.168,18.184,25.888L405.984,360.608z M456,272c-13.232,0-24-10.768-24-24s10.768-24,24-24s24,10.768,24,24
			S469.232,272,456,272z"/>
		<circle style="fill:#e99f4f;" cx="248" cy="40" r="16"/>
		<circle style="fill:#e99f4f;" cx="400" cy="96" r="16"/>
		<circle style="fill:#e99f4f;" cx="96" cy="96" r="16"/>
		<circle style="fill:#e99f4f;" cx="400" cy="400" r="16"/>
		<circle style="fill:#e99f4f;" cx="96" cy="400" r="16"/>
		<circle style="fill:#e99f4f;" cx="40" cy="248" r="16"/>
		<circle style="fill:#e99f4f;" cx="456" cy="248" r="16"/>
		<circle style="fill:#e99f4f;" cx="248" cy="456" r="16"/>
    </symbol>

    <symbol id="about02" role="img" aria-labelledby="about02_title" viewBox="0 0 496 496">
        <title id="about02_title"></title>
        <circle style="fill:#e99f4f;" cx="392" cy="392" r="104"/>
		<polygon style="fill:#e99f4f;" points="184,136 184,104 152,104 152,72 120,72 120,40 88,40 88,8 56,8 56,200 88,200 120,200 
			152,200 184,200 216,200 216,136 	"/>
		<rect x="84.155" y="336" transform="matrix(-0.7071 0.7071 -0.7071 -0.7071 502.7901 479.7383)" width="135.767" height="16"/>
		<path d="M184,352c-13.232,0-24,10.768-24,24s10.768,24,24,24s24-10.768,24-24S197.232,352,184,352z M184,384c-4.408,0-8-3.584-8-8
			s3.592-8,8-8s8,3.584,8,8S188.408,384,184,384z"/>
		<path d="M120,336c13.232,0,24-10.768,24-24s-10.768-24-24-24s-24,10.768-24,24S106.768,336,120,336z M120,304c4.408,0,8,3.584,8,8
			s-3.592,8-8,8s-8-3.584-8-8S115.592,304,120,304z"/>
		<path d="M248,0c-42.872,0-84.64,11.104-121.672,32H96V0H48v101.496C16.64,144.216,0,194.776,0,248c0,136.752,111.256,248,248,248
			c30.456,0,60.176-5.472,88.368-16.232c-5.368-3.408-10.376-7.296-15.016-11.6c-21.056,7.016-42.984,10.76-65.352,11.512V256h223.68
			c-0.76,22.368-4.52,44.272-11.536,65.328c4.304,4.64,8.192,9.648,11.608,15.016C490.504,308.144,496,278.448,496,248
			C496,111.256,384.744,0,248,0z M479.8,240h-68.488l58.832-58.832C475.792,199.896,479.104,219.616,479.8,240z M439.488,117.2
			l-89.352,89.352l11.312,11.312l86.8-86.8c6.208,10.592,11.592,21.712,16.088,33.288L388.688,240h-49.376l10.344-10.344
			l-11.312-11.312L316.688,240h-49.376L417.496,89.816C425.48,98.376,432.848,107.512,439.488,117.2z M363.36,71.952l15.44-15.44
			c9.688,6.64,18.824,14,27.384,21.992L256,228.688v-49.376l97.224-97.224l-11.312-11.312L256,156.688v-49.376l75.648-75.648
			c11.576,4.488,22.696,9.872,33.288,16.088L352.048,60.64L363.36,71.952z M256,84.688V16.2c20.384,0.696,40.104,4.008,58.832,9.656
			L256,84.688z M192,144h16v48h-16V144z M176,128v64h-16v-80h16V128z M144,96v96h-16V80h16V96z M112,48v16v128H96V48H112z M64,16h16
			v16v160H64V16z M80,208h16h16h16h16h16h16h16h32v-80h-32V96h-32V64h-32V49.536c33.848-20.512,72.312-31.896,112-33.256V240H16.32
			c1.304-38.944,12.12-76.16,31.68-109.336V208H80z M240,479.8C118.432,475.648,20.352,377.568,16.2,256H240V479.8z"/>
		<path d="M392,352c8.824,0,16,7.176,16,16h16c0-14.872-10.24-27.288-24-30.864V320h-16v17.136c-13.76,3.576-24,15.992-24,30.864
			c0,17.648,14.352,32,32,32c8.824,0,16,7.176,16,16s-7.176,16-16,16s-16-7.176-16-16h-16c0,14.872,10.24,27.288,24,30.864V464h16
			v-17.136c13.76-3.576,24-15.992,24-30.864c0-17.648-14.352-32-32-32c-8.824,0-16-7.176-16-16S383.176,352,392,352z"/>
		<rect x="448" y="384" width="16" height="16"/>
		<rect x="320" y="384" width="16" height="16"/>
    </symbol>

    <symbol id="about03" role="img" aria-labelledby="about03_title" viewBox="0 0 496 496">
        <title id="about03_title"></title>
        <circle style="fill:#e99f4f;" cx="248" cy="248" r="112"/>
		<path d="M442.008,153.072l25.744-36.04l-38.728-38.736l4.96-4.96C440.304,77.528,447.864,80,456,80
			c22.056,0,40-17.944,40-40S478.056,0,456,0s-40,17.944-40,40c0,8.136,2.472,15.696,6.664,22.024l-4.96,4.96l-38.728-38.736
			l-36.04,25.744C334.8,50,326.464,46.536,318.048,43.648L310.776,0H185.224l-7.272,43.648c-8.424,2.896-16.76,6.36-24.888,10.344
			l-36.04-25.744L78.296,66.984l-4.96-4.96C77.528,55.696,80,48.136,80,40C80,17.944,62.056,0,40,0S0,17.944,0,40s17.944,40,40,40
			c8.136,0,15.696-2.472,22.024-6.664l4.96,4.96l-38.728,38.736L54,153.072c-3.984,8.128-7.456,16.464-10.344,24.88L0,185.224
			v125.552l43.648,7.272c2.888,8.416,6.36,16.752,10.344,24.88L28.16,379.096L116.792,464H136v-16h-12.792l-73.976-70.872
			l23.44-32.816l-2.256-4.344c-5.28-10.184-9.68-20.752-13.064-31.424l-1.48-4.664L16,297.224v-98.448l39.872-6.648l1.48-4.664
			c3.384-10.672,7.784-21.24,13.064-31.424l2.256-4.344L49.144,118.76l29.152-29.152L156.688,168H104v16h68.688l41.976,41.976
			C210.472,232.304,208,239.864,208,248c0,22.056,17.944,40,40,40s40-17.944,40-40c0-8.136-2.472-15.696-6.664-22.024L384,123.312
			V176h16v-68.688l17.704-17.704l29.152,29.152l-23.528,32.936l2.256,4.344c5.28,10.184,9.68,20.752,13.064,31.424l1.48,4.664
			L480,198.776v98.448l-39.872,6.648l-1.48,4.664c-3.384,10.672-7.784,21.24-13.064,31.424l-2.256,4.344l23.44,32.816L372.792,448
			H360v16h19.208l88.632-84.904l-25.832-36.168c3.984-8.128,7.456-16.464,10.344-24.88L496,310.776V185.224l-43.648-7.272
			C449.464,169.528,445.992,161.192,442.008,153.072z M456,16c13.232,0,24,10.768,24,24s-10.768,24-24,24s-24-10.768-24-24
			S442.768,16,456,16z M40,64c-13.232,0-24-10.768-24-24s10.768-24,24-24s24,10.768,24,24S53.232,64,40,64z M248,272
			c-13.232,0-24-10.768-24-24s10.768-24,24-24s24,10.768,24,24S261.232,272,248,272z M388.688,96H320v16h52.688L270.024,214.664
			C263.696,210.472,256.136,208,248,208s-15.696,2.472-22.024,6.664L184,172.688V104h-16v52.688L89.608,78.296l29.152-29.152
			l32.928,23.52l4.352-2.256c10.176-5.28,20.76-9.68,31.432-13.064l4.664-1.48L198.776,16h98.456l6.64,39.864l4.664,1.48
			c10.672,3.384,21.248,7.784,31.432,13.064l4.352,2.256l32.928-23.52L406.4,78.296L388.688,96z"/>
		<path d="M197.176,113.232l5.64,14.968c28.84-10.88,61.512-10.872,90.328-0.008l5.64-14.968
			C266.36,100.984,229.624,100.984,197.176,113.232z"/>
		<path d="M392,248c0-17.496-3.104-34.592-9.224-50.816l-14.968,5.648C373.24,217.24,376,232.44,376,248
			c0,44.288-22.52,84.824-60.24,108.448L312,358.8V384H184v-25.2l-3.76-2.352C142.52,332.824,120,292.288,120,248
			c0-15.568,2.76-30.768,8.192-45.176l-14.968-5.648C107.104,213.4,104,230.496,104,248c0,48.344,23.832,92.712,64,119.576V384h-16
			v16h16v16h-16v16h16v16h-16v16h16v32h160v-32h16v-16h-16v-16h16v-16h-16v-16h16v-16h-16v-16.424
			C368.168,340.712,392,296.344,392,248z M312,448h-16v16h16v16H184v-16h96.008v-16H184v-16h128V448z M312,416H184v-16h128V416z"/>
    </symbol>

    <symbol id="about04" role="img" aria-labelledby="about04_title" viewBox="0 0 496 496">
        <title id="about04_title"></title>
        <path style="fill:#e99f4f;" d="M248,112c-44.112,0-80,35.888-80,80v48h8c0-13.256,10.744-24,24-24c0-8.84,7.16-16,16-16h64
			c8.84,0,16,7.16,16,16c13.256,0,24,10.744,24,24h8v-48C328,147.888,292.112,112,248,112z"/>
		<path d="M436.448,211.536l15.72-3.024C436.264,125.888,370.104,59.696,287.52,43.8l-3.032,15.712
			C360.712,74.176,421.784,135.272,436.448,211.536z"/>
		<path d="M211.504,59.504L208.48,43.8C125.896,59.696,59.736,125.888,43.832,208.512l15.72,3.024
			C74.216,135.272,135.288,74.176,211.504,59.504z"/>
		<path d="M72.656,234.208l15.952,1.24c6.144-78.936,67.904-140.68,146.856-146.808l-1.232-15.952
			C147.368,79.432,79.416,147.36,72.656,234.208z"/>
		<path d="M72.656,261.8c0.76,9.624,2.296,19.192,4.576,28.44l15.528-3.832c-2.072-8.4-3.472-17.096-4.16-25.848L72.656,261.8z"/>
		<path d="M59.552,284.464l-15.72,3.024c15.896,82.624,82.064,148.816,164.64,164.712l3.032-15.712
			C135.288,421.824,74.216,360.728,59.552,284.464z"/>
		<path d="M436.488,284.496c-14.664,76.208-75.76,137.272-152.016,151.952l3.016,15.712c82.632-15.896,148.824-82.064,164.72-164.64
			L436.488,284.496z"/>
		<path d="M423.312,261.76l-15.952-1.232c-3.032,39.072-19.72,73.904-45.336,99.896L349.6,331.44
			c-4.888-11.424-15.008-20.04-27.064-23.056L280,297.752v-3.864c8.008-5.6,14.456-13.24,18.648-22.16
			C315.04,270.36,328,256.736,328,240c0-15.32-10.832-28.136-25.24-31.248C299.664,199.072,290.688,192,280,192h-64
			c-10.688,0-19.664,7.072-22.76,16.752C178.832,211.864,168,224.68,168,240c0,16.736,12.96,30.36,29.352,31.736
			c4.192,8.92,10.64,16.56,18.648,22.16v3.864l-42.536,10.632c-12.056,3.016-22.168,11.632-27.064,23.048l-12.32,28.736
			c-16.296-16.536-29.128-36.712-37.08-59.52l-15.112,5.264c22.984,65.904,82.784,111.984,152.344,117.384l1.232-15.952
			c-33.296-2.584-64.064-15.504-88.848-35.824l14.48-33.792c2.936-6.848,9.008-12.016,16.232-13.832l44.208-11.048L248,339.312
			l26.456-26.456l44.208,11.048c7.224,1.808,13.296,6.976,16.232,13.832l14.6,34.064c-24.488,20.04-55.112,32.952-88.944,35.584
			l1.232,15.952C348.64,416.584,416.568,348.632,423.312,261.76z M312,240c0,6.032-3.392,11.224-8.328,13.952
			c0.208-1.96,0.328-3.944,0.328-5.952v-21.776C308.76,229,312,234.104,312,240z M184,240c0-5.896,3.24-11,8-13.776V248
			c0,2.008,0.12,3.992,0.328,5.952C187.392,251.224,184,246.032,184,240z M208,248v-32c0-4.408,3.584-8,8-8h64c4.416,0,8,3.592,8,8v32
			c0,22.056-17.944,40-40,40S208,270.056,208,248z M233.288,301.976c4.696,1.28,9.616,2.024,14.712,2.024
			c5.096,0,10.016-0.744,14.712-2.024L248,316.688L233.288,301.976z"/>
		<path d="M408.024,235.448l15.952-1.232c-0.744-9.576-2.28-19.152-4.576-28.448l-15.536,3.832
			C405.952,218.048,407.352,226.744,408.024,235.448z"/>
		<path d="M399.632,195.336l15.112-5.264C391.76,124.168,331.96,78.088,262.4,72.688l-1.232,15.952
			C324.392,93.552,378.744,135.432,399.632,195.336z"/>
		<polygon style="fill:#e99f4f;" points="248,387.712 182.608,464 224,464 224,496 272,496 272,464 313.392,464 	"/>
		<polygon style="fill:#e99f4f;" points="464,224 464,182.608 387.712,248 464,313.392 464,272 496,272 496,224 	"/>
		<polygon style="fill:#e99f4f;" points="272,32 272,0 224,0 224,32 182.608,32 248,108.288 313.392,32 	"/>
		<polygon style="fill:#e99f4f;" points="108.288,248 32,182.608 32,224 0,224 0,272 32,272 32,313.392 	"/>
    </symbol>

    <symbol id="data01" role="img" aria-labelledby="data01_title" viewBox="0 0 496 496">
    	<title id="data01_title"></title>
        <path d="m304 368h96v88h-128v-56zm0 0"/>
        <path style="fill:#ffffff;" d="m384 368v80h-16v-64h-16v64h-16v-40h-16v40h-16v-16h-16v16h-16v16h128v-96zm0 0"/>
        <path style="fill:#ffffff;" d="m248 240h16v72h-16zm0 0"/>
        <path style="fill:#ffffff;" d="m328 332.6875-69.65625 69.65625 11.3125 11.3125 58.34375-58.34375 16 16 48-48v12.6875h16v-40h-40v16h12.6875l-36.6875 36.6875zm0 0"/>
        <path style="fill:#ffffff;" d="m456 168h-8v-168h-259.558594l-76.441406 84.929688v179.070312h16v-168h72v-80h232v152h-71.496094c-16.519531-43.28125-57.75-72-104.503906-72-61.761719 0-112 50.238281-112 112s50.238281 112 112 112c46.753906 0 87.984375-28.71875 104.503906-72h71.496094v232h-312v16h328v-248h8c22.054688 0 40-17.945312 40-40s-17.945312-40-40-40zm-272-88h-46.039062l46.039062-51.152344zm80 32.335938c34.671875 2.855468 64.792969 24.175781 79.175781 55.664062h-79.175781zm-8 191.664062c-52.9375 0-96-43.0625-96-96 0-50.230469 38.808594-91.503906 88-95.59375v55.59375h-10.425781l-60 40 60 40h105.59375c-15.472657 33.878906-49.191407 56-87.167969 56zm-24-113.054688v34.101563l-25.574219-17.046875zm184 9.054688h-40v16h40v16h-168v-16h112v-16h-112v-16h168zm40 32h-24v-48h24c13.230469 0 24 10.769531 24 24s-10.769531 24-24 24zm0 0"/>
        <path style="fill:#ffffff;" d="m336 32h16v16h-16zm0 0"/>
        <path style="fill:#ffffff;" d="m368 32h16v16h-16zm0 0"/>
        <path style="fill:#ffffff;" d="m400 32h16v16h-16zm0 0"/>
        <path style="fill:#ffffff;" d="m368 64h16v16h-16zm0 0"/>
        <path style="fill:#ffffff;" d="m400 64h16v16h-16zm0 0"/>
        <path style="fill:#ffffff;" d="m400 96h16v16h-16zm0 0"/>
        <path d="m120 496c-66.167969 0-120-53.832031-120-120s53.832031-120 120-120 120 53.832031 120 120-53.832031 120-120 120zm0-200c-44.113281 0-80 35.886719-80 80s35.886719 80 80 80 80-35.886719 80-80-35.886719-80-80-80zm0 0"/>
        <path style="fill:#ffffff;" d="m112 336v48h32v-16h-16v-32zm0 0"/>
        <path style="fill:#ffffff;" d="m120 288c-20.246094 0-40.023438 7.054688-55.6875 19.871094l10.136719 12.386718c10.734375-8.785156 23.847656-14.210937 37.550781-15.753906v15.496094h16v-15.527344c33.3125 3.703125 59.824219 30.214844 63.527344 63.527344h-15.527344v16h15.496094c-1.542969 13.710938-6.96875 26.816406-15.753906 37.550781l12.386718 10.136719c12.816406-15.664062 19.871094-35.441406 19.871094-55.6875 0-48.519531-39.480469-88-88-88zm0 0"/>
        <path style="fill:#ffffff;" d="m128 447.496094v-15.496094h-16v15.527344c-33.3125-3.703125-59.824219-30.214844-63.527344-63.527344h15.527344v-16h-15.496094c1.542969-13.710938 6.96875-26.816406 15.753906-37.550781l-12.386718-10.136719c-12.816406 15.664062-19.871094 35.441406-19.871094 55.6875 0 48.519531 39.480469 88 88 88 20.246094 0 40.023438-7.054688 55.6875-19.871094l-10.136719-12.386718c-10.734375 8.785156-23.839843 14.210937-37.550781 15.753906zm0 0"/>
    </symbol>

    <symbol id="data02" role="img" aria-labelledby="data02_title" viewBox="0 0 496 496">
    	<title id="data02_title"></title>
    	<circle cx="360" cy="152" r="88"/>
		<path  d="M192,112H48c-8.84,0-16-7.16-16-16V48c0-8.84,7.16-16,16-16h144c8.84,0,16,7.16,16,16v48
			C208,104.84,200.84,112,192,112z"/>
        <path style="fill:#ffffff;" d="M464,128V48H240v-8c0-22.056-17.944-40-40-40H40C17.944,0,0,17.944,0,40v256c0,19.312,13.768,35.472,32,39.192V464h192.808
			c3.72,18.232,19.872,32,39.192,32s35.48-13.768,39.192-32H496V128H464z M448,64v352H272V64H448z M240,296V64h16v352H80v-80h120
			C222.056,336,240,318.056,240,296z M16,296V40c0-13.232,10.768-24,24-24h160c13.232,0,24,10.768,24,24v256c0,13.232-10.768,24-24,24
			H40C26.768,320,16,309.232,16,296z M480,448H288v8c0,13.232-10.768,24-24,24s-24-10.768-24-24v-8H48V336h16v96h400V144h16V448z"/>
		<path style="fill:#ffffff;" d="M208,192h-48v112h48V192z M192,288h-16v-80h16V288z"/>
		<path style="fill:#ffffff;" d="M144,256H96v48h48V256z M128,288h-16v-16h16V288z"/>
		<path style="fill:#ffffff;" d="M80,256H32v48h48V256z M64,288H48v-16h16V288z"/>
		<path style="fill:#ffffff;" d="M144,192H96v48h48V192z M128,224h-16v-16h16V224z"/>
		<path style="fill:#ffffff;" d="M80,192H32v48h48V192z M64,224H48v-16h16V224z"/>
		<path style="fill:#ffffff;" d="M144,128H96v48h48V128z M128,160h-16v-16h16V160z"/>
		<path style="fill:#ffffff;" d="M208,128h-48v48h48V128z M192,160h-16v-16h16V160z"/>
		<path style="fill:#ffffff;" d="M80,128H32v48h48V128z M64,160H48v-16h16V160z"/>
		<path style="fill:#ffffff;" d="M360,192c-8.824,0-16-7.176-16-16h-16c0,14.864,10.232,27.288,24,30.864V224h16v-17.136c13.768-3.576,24-16,24-30.864
			c0-17.648-14.352-32-32-32c-8.824,0-16-7.176-16-16s7.176-16,16-16s16,7.176,16,16h16c0-14.864-10.232-27.288-24-30.864V80h-16
			v17.136c-13.768,3.576-24,16-24,30.864c0,17.648,14.352,32,32,32c8.824,0,16,7.176,16,16S368.824,192,360,192z"/>
		<rect style="fill:#ffffff;" x="288" y="256" width="144" height="16"/>
		<rect style="fill:#ffffff;" x="288" y="288" width="144" height="16"/>
		<rect style="fill:#ffffff;" x="288" y="320" width="144" height="16"/>
		<rect style="fill:#ffffff;" x="336" y="352" width="96" height="16"/>
		<rect style="fill:#ffffff;" x="288" y="352" width="32" height="16"/>
		<rect style="fill:#ffffff;" x="288" y="384" width="112" height="16"/>
		<rect style="fill:#ffffff;" x="96" y="352" width="144" height="16"/>
		<rect style="fill:#ffffff;" x="96" y="384" width="112" height="16"/>
		<rect style="fill:#ffffff;" x="224" y="384" width="16" height="16"/>
		<rect style="fill:#ffffff;" x="416" y="384" width="16" height="16"/>
		<rect style="fill:#ffffff;" x="408" y="144" width="16" height="16"/>
		<rect style="fill:#ffffff;" x="296" y="144" width="16" height="16"/>
    </symbol>

    <symbol id="data03" role="img" aria-labelledby="data03_title" viewBox="0 0 496 496">
    	<title id="data03_title"></title>
        <path d="m112 384v-264h-80v344h240v-80zm0 0"/>
        <path style="fill:#ffffff;" d="m320 496h-320v-416h168v16h-152v384h288v-120h16zm0 0"/>
        <path d="m496 222.558594v-77.117188l-30.511719-6.097656c-3.257812-11.246094-7.746093-22.070312-13.367187-32.296875l17.253906-25.878906-54.535156-54.535157-25.878906 17.253907c-10.226563-5.621094-21.050782-10.109375-32.296876-13.367188l-6.105468-30.519531h-77.117188l-6.097656 30.511719c-11.246094 3.257812-22.070312 7.746093-32.296875 13.367187l-25.878906-17.253906-54.535157 54.535156 17.253907 25.878906c-5.621094 10.226563-10.109375 21.050782-13.367188 32.296876l-30.519531 6.105468v77.125l30.511719 6.097656c3.257812 11.246094 7.746093 22.070313 13.367187 32.296876l-17.253906 25.878906 54.535156 54.535156 25.878906-17.253906c10.226563 5.621094 21.050782 10.109375 32.296876 13.367187l6.105468 30.511719h77.125l6.097656-30.511719c11.246094-3.257812 22.070313-7.746093 32.296876-13.367187l25.878906 17.253906 54.535156-54.535156-17.253906-25.878906c5.621094-10.226563 10.109375-21.050782 13.367187-32.296876zm-184 73.441406c-61.855469 0-112-50.144531-112-112s50.144531-112 112-112 112 50.144531 112 112-50.144531 112-112 112zm0 0"/>
        <path style="fill:#ffffff;" d="m304 32h16v16h-16zm0 0"/>
        <path style="fill:#ffffff;" d="m198.859375 82.175781 11.316406-11.3125 11.3125 11.3125-11.3125 11.316407zm0 0"/>
        <path style="fill:#ffffff;" d="m160 176h16v16h-16zm0 0"/>
        <path style="fill:#ffffff;" d="m198.859375 285.824219 11.3125-11.3125 11.3125 11.3125-11.3125 11.3125zm0 0"/>
        <path style="fill:#ffffff;" d="m402.503906 285.824219 11.316406-11.3125 11.3125 11.3125-11.3125 11.3125zm0 0"/>
        <path style="fill:#ffffff;" d="m448 176h16v16h-16zm0 0"/>
        <path style="fill:#ffffff;" d="m402.507812 82.179688 11.3125-11.316407 11.3125 11.316407-11.3125 11.3125zm0 0"/>
        <path style="fill:#ffffff;" d="m312 64c-66.167969 0-120 53.832031-120 120s53.832031 120 120 120 120-53.832031 120-120-53.832031-120-120-120zm0 16c57.34375 0 104 46.65625 104 104 0 20.28125-5.921875 39.160156-16 55.175781v-10.679687c0-11.03125-7.480469-20.609375-18.175781-23.289063l-45.824219-11.453125v-9.960937c9.65625-7.3125 16-18.785157 16-31.792969v-16c0-22.054688-17.945312-40-40-40s-40 17.945312-40 40v16c0 13.015625 6.34375 24.488281 16 31.792969v9.960937l-45.824219 11.453125c-10.695312 2.671875-18.175781 12.25-18.175781 23.289063v10.679687c-10.078125-16.015625-16-34.894531-16-55.175781 0-57.34375 46.65625-104 104-104zm8 116.6875-8 8-8-8v-5.496094c2.585938.527344 5.265625.808594 8 .808594s5.414062-.28125 8-.808594zm-8-20.6875c-13.230469 0-24-10.769531-24-24v-16c0-13.230469 10.769531-24 24-24s24 10.769531 24 24v16c0 13.230469-10.769531 24-24 24zm-72 82.871094v-30.382813c0-3.679687 2.496094-6.871093 6.0625-7.761719l47.488281-11.871093 18.449219 18.457031 18.457031-18.457031 47.488281 11.871093c3.566407.890626 6.0625 4.082032 6.0625 7.761719v30.382813c-18.710937 17.992187-44.0625 29.128906-72.007812 29.128906s-53.296875-11.136719-72-29.128906zm0 0"/>
        <path style="fill:#ffffff;" d="m304 320h16v16h-16zm0 0"/>
        <path style="fill:#ffffff;" d="m32 112h80v16h-80zm0 0"/>
        <path style="fill:#ffffff;" d="m32 144h80v16h-80zm0 0"/>
        <path style="fill:#ffffff;" d="m128 112h16v16h-16zm0 0"/>
        <path style="fill:#ffffff;" d="m32 192h80v16h-80zm0 0"/>
        <path style="fill:#ffffff;" d="m32 224h80v16h-80zm0 0"/>
        <path style="fill:#ffffff;" d="m32 256h80v16h-80zm0 0"/>
        <path style="fill:#ffffff;" d="m128 256h16v16h-16zm0 0"/>
        <path style="fill:#ffffff;" d="m32 288h80v16h-80zm0 0"/>
        <path style="fill:#ffffff;" d="m128 288h16v16h-16zm0 0"/>
        <path style="fill:#ffffff;" d="m32 320h80v16h-80zm0 0"/>
        <path style="fill:#ffffff;" d="m32 384h112v16h-112zm0 0"/>
        <path style="fill:#ffffff;" d="m160 384h112v16h-112zm0 0"/>
        <path style="fill:#ffffff;" d="m32 416h112v16h-112zm0 0"/>
        <path style="fill:#ffffff;" d="m160 416h112v16h-112zm0 0"/>
        <path style="fill:#ffffff;" d="m128 320h16v16h-16zm0 0"/>
        <path style="fill:#ffffff;" d="m32 448h16v16h-16zm0 0"/>
        <path style="fill:#ffffff;" d="m64 448h16v16h-16zm0 0"/>
        <path style="fill:#ffffff;" d="m96 448h16v16h-16zm0 0"/>
        <path style="fill:#ffffff;" d="m160 448h16v16h-16zm0 0"/>
        <path style="fill:#ffffff;" d="m192 448h16v16h-16zm0 0"/>
        <path style="fill:#ffffff;" d="m224 448h16v16h-16zm0 0"/>
    </symbol>

    <symbol id="data04" role="img" aria-labelledby="data04_title" viewBox="0 0 496 496">
    	<title id="data04_title"></title>
        <path d="m352 368h-352v-208h352zm0 0"/>
        <path d="m464 464h-336v-72h336zm0 0"/>
        <path d="m352 120h-152v-32h152zm0 0"/>
        <path style="fill:#ffffff;" d="m448 48v-24c0-13.230469-10.769531-24-24-24h-32c-13.230469 0-24 10.769531-24 24v24h-195.558594l-76.441406 84.929688v27.070312h16v-16h72v-80h184v186.425781l40 60 40-60v-186.425781h32v416h-368v-112h-16v128h400v-448zm-326.039062 80 46.039062-51.152344v51.152344zm270.039062-112h32c4.414062 0 8 3.59375 8 8v40h-48v-40c0-4.40625 3.585938-8 8-8zm24 224v-128h16v128zm-32-128h16v128h-16zm0-16v-16h48v16zm6.945312 160h34.101563l-17.046875 25.574219zm0 0"/>
        <path style="fill:#ffffff;" d="m200 80h152v16h-152zm0 0"/>
        <path style="fill:#ffffff;" d="m200 112h152v16h-152zm0 0"/>
        <path style="fill:#ffffff;" d="m128 384h336v16h-336zm0 0"/>
        <path style="fill:#ffffff;" d="m128 416h16v16h-16zm0 0"/><path d="m160 416h304v16h-304zm0 0"/>
        <path style="fill:#ffffff;" d="m128 448h304v16h-304zm0 0"/>
        <path style="fill:#ffffff;" d="m448 448h16v16h-16zm0 0"/>
        <path style="fill:#ffffff;" d="m144 280v8c0 14.863281 10.230469 27.289062 24 30.863281v17.136719h16v-17.136719c13.769531-3.574219 24-16 24-30.863281 0-17.648438-14.351562-32-32-32-8.824219 0-16-7.175781-16-16s7.175781-16 16-16 16 7.175781 16 16v8h16v-8c0-14.863281-10.230469-27.289062-24-30.863281v-17.136719h-16v17.136719c-13.769531 3.574219-24 16-24 30.863281 0 17.648438 14.351562 32 32 32 8.824219 0 16 7.175781 16 16s-7.175781 16-16 16-16-7.175781-16-16v-8zm0 0"/>
        <path style="fill:#ffffff;" d="m304 256h16v16h-16zm0 0"/>
        <path style="fill:#ffffff;" d="m32 256h16v16h-16zm0 0"/>
        <path style="fill:#ffffff;" d="m272 256h16v16h-16zm0 0"/>
        <path style="fill:#ffffff;" d="m240 256h16v16h-16zm0 0"/>
        <path style="fill:#ffffff;" d="m64 256h16v16h-16zm0 0"/>
        <path style="fill:#ffffff;" d="m96 256h16v16h-16zm0 0"/>
    </symbol>

    <symbol id="check" role="img" aria-labelledby="check_title" viewBox="0 0 174.239 174.239">
    	<title id="check_title"></title>
        <path d="M0,0v174.239h174.239V0H0z M159.305,159.305H14.935V14.935h144.37V159.305z"/>
		<polygon points="135.016,61.47 123.494,51.97 78.041,107.091 49.651,84.319 40.307,95.968 80.189,127.957 	"/>
    </symbol>

    <symbol id="cancel" role="img" aria-labelledby="cancel_title" viewBox="0 0 174.239 174.239">
    	<title id="cancel_title"></title>
        <path d="M0,0v174.239h174.239V0H0z M159.305,159.305H14.935V14.935h144.37V159.305z"/>
		<polygon points="58.918,125.881 87.12,97.677 115.322,125.881 125.881,115.322 97.679,87.117 125.881,58.913 115.322,48.353 
			87.12,76.558 58.918,48.353 48.358,58.913 76.561,87.117 48.358,115.322 	"/>
    </symbol>

    <symbol id="quote" role="img" aria-labelledby="quote_title" viewBox="0 0 298.667 298.667">
    	<title id="quote_title"></title>
        <polygon points="0,170.667 64,170.667 21.333,256 85.333,256 128,170.667 128,42.667 0,42.667 			"/>
		<polygon points="170.667,42.667 170.667,170.667 234.667,170.667 192,256 256,256 298.667,170.667 298.667,42.667 			"/>
    </symbol>

    <symbol id="form-name" role="img" aria-labelledby="form-name_title" viewBox="0 0 512 512">
        <title id="form-name_title">Name</title>
    	<path d="M256,314.134c-143.235,0-255.435,66.371-255.435,151.101v26.083c0,11.423,9.26,20.682,20.682,20.682
			s20.682-9.259,20.682-20.682v-26.083c0-59.484,98.032-109.737,214.071-109.737s214.071,50.253,214.071,109.737v26.083
			c0,11.423,9.259,20.682,20.682,20.682c11.423,0,20.682-9.26,20.682-20.682v-26.083C511.435,380.505,399.235,314.134,256,314.134z"
			/>
		<path d="M380.793,106.679c-3.963-26.728-16.158-50.955-35.265-70.062c-19.107-19.107-43.334-31.3-70.063-35.264
			c-12.166-1.804-24.506-1.804-36.675,0c-68.189,10.112-115.438,73.814-105.327,142.003c4.898,33.032,22.367,62.18,49.188,82.073
			c21.774,16.15,47.593,24.632,74.213,24.631c6.171,0,12.386-0.456,18.601-1.378C343.655,238.57,390.904,174.868,380.793,106.679z
			 M269.399,207.765c-22.098,3.279-44.158-2.247-62.104-15.559c-17.947-13.311-29.635-32.815-32.912-54.917
			c-6.766-45.628,24.85-88.253,70.477-95.019c4.072-0.603,8.171-0.905,12.271-0.905s8.2,0.302,12.27,0.905
			c36.712,5.444,65.034,33.767,70.478,70.478C346.642,158.375,315.026,201,269.399,207.765z"/>
    </symbol>

    <symbol id="form-date" role="img" aria-labelledby="form-date_title" viewBox="0 0 512 512">
        <title id="form-date_title">Name</title>
    	<path d="M177.56,0H46.828C21.008,0,0,21.008,0,46.828v130.733c0,25.821,21.008,46.828,46.828,46.828h130.733
			c25.821,0,46.828-21.008,46.828-46.829V46.828C224.389,21.008,203.382,0,177.56,0z M183.025,177.56
			c0,3.013-2.452,5.465-5.465,5.465H46.828c-3.012,0-5.464-2.452-5.464-5.465V46.828c0-3.012,2.452-5.464,5.464-5.464H177.56
			c3.013,0,5.465,2.451,5.465,5.464V177.56z"/>
		<path d="M465.172,0H334.439c-25.822,0-46.828,21.008-46.828,46.828V177.56c0,25.822,21.007,46.829,46.828,46.829h130.733
			c25.821,0,46.828-21.008,46.828-46.829V46.828C512,21.008,490.992,0,465.172,0z M470.636,177.56c0,3.013-2.451,5.465-5.464,5.465
			H334.439c-3.012,0-5.464-2.452-5.464-5.465V46.828c0-3.012,2.452-5.464,5.464-5.464h130.733c3.012,0,5.464,2.451,5.464,5.464
			V177.56z"/>
		<path d="M465.172,287.611H334.439c-25.821,0-46.828,21.007-46.828,46.828v130.733c0,25.821,21.007,46.828,46.828,46.828h130.733
			C490.992,512,512,490.992,512,465.172V334.439C512,308.618,490.993,287.611,465.172,287.611z M470.636,465.172
			c0,3.012-2.451,5.464-5.464,5.464H334.439c-3.012,0-5.464-2.451-5.464-5.464V334.439c0-3.012,2.452-5.464,5.464-5.464h130.733
			c3.012,0,5.464,2.452,5.464,5.464V465.172z"/>
		<path d="M177.56,287.611H46.828C21.008,287.611,0,308.617,0,334.439v130.733C0,490.992,21.008,512,46.828,512h130.733
			c25.821,0,46.828-21.008,46.828-46.828V334.439C224.389,308.618,203.382,287.611,177.56,287.611z M183.025,465.172
			c0,3.012-2.452,5.464-5.465,5.464H46.828c-3.012,0-5.464-2.451-5.464-5.464V334.439c0-3.012,2.451-5.464,5.464-5.464H177.56
			c3.013,0,5.465,2.452,5.465,5.464V465.172z"/>
    </symbol>

    <symbol id="form-email" role="img" aria-labelledby="form-email_title" viewBox="0 0 512 512">
        <title id="form-email_title">Email</title>
    	<path d="M256,141.176c-63.306,0-114.809,51.503-114.809,114.809S192.694,370.795,256,370.795s114.809-51.503,114.809-114.809
			S319.306,141.176,256,141.176z M256,329.43c-40.498,0-73.445-32.947-73.445-73.445c0-40.498,32.947-73.445,73.445-73.445
			c40.499,0,73.445,32.947,73.445,73.445C329.445,296.483,296.499,329.43,256,329.43z"/>
		<path d="M437.008,74.97C388.656,26.623,324.375,0,256,0c-0.005,0-0.013,0-0.017,0C187.603,0.004,123.318,26.637,74.97,74.992
			C26.62,123.347-0.005,187.637,0,256.017c0.004,68.379,26.637,132.666,74.992,181.014C123.344,485.377,187.625,512.001,256,512
			c0.004,0,0.012,0,0.017,0c55.945-0.004,111.216-18.738,155.631-52.752c9.07-6.945,10.792-19.927,3.846-28.995
			c-6.945-9.069-19.926-10.794-28.995-3.846c-37.24,28.518-83.58,44.224-130.486,44.228c-0.006,0-0.006,0-0.014,0
			c-57.324,0-111.224-22.324-151.761-62.856c-40.542-40.536-62.871-94.435-62.875-151.766
			C41.357,137.663,137.636,41.372,255.986,41.364c0.007,0,0.006,0,0.014,0c118.34,0,214.628,96.279,214.636,214.622v23.532
			c0,27.523-22.39,49.913-49.913,49.913c-27.523,0-49.913-22.391-49.913-49.913v-23.532c0-11.422-9.259-20.682-20.682-20.682
			s-20.682,9.26-20.682,20.682v23.532c0,50.33,40.947,91.278,91.278,91.278S512,329.848,512,279.518v-23.534
			C511.995,187.604,485.362,123.318,437.008,74.97z"/>
    </symbol>

    <symbol id="form-phone" role="img" aria-labelledby="form-phone_title" viewBox="0 0 512 512">
        <title id="form-phone_title">Phone</title>
    	<path d="M421.216,195.504c-5.092-26.101-17.723-49.836-36.526-68.64c-18.804-18.803-42.54-31.434-68.641-36.527
			c-11.21-2.189-22.073,5.128-24.261,16.339c-2.187,11.212,5.128,22.073,16.339,24.26c36.847,7.188,65.3,35.642,72.489,72.489
			c1.927,9.874,10.581,16.726,20.278,16.726c1.313,0,2.645-0.125,3.984-0.387C416.088,217.577,423.403,206.715,421.216,195.504z"/>
		<path d="M511.422,196.929c-5.629-50.096-28.373-97.304-64.042-132.927C411.712,28.378,364.475,5.694,314.371,0.128
			c-11.355-1.261-21.578,6.92-22.839,18.272c-1.261,11.353,6.919,21.578,18.272,22.84c84.961,9.438,150.966,75.36,160.512,160.31
			c1.188,10.566,10.139,18.374,20.527,18.374c0.771,0,1.552-0.043,2.336-0.131C504.53,218.516,512.698,208.281,511.422,196.929z"/>
		<path d="M432.59,312.566c-0.062-0.008-0.124-0.017-0.186-0.025c-20.013-2.639-39.751-7.557-58.619-14.596
			c-23.91-8.99-51.103-3.191-69.27,14.772c-0.028,0.028-0.056,0.055-0.083,0.083l-17.148,17.148
			c-42.633-26.924-78.756-63.047-105.679-105.679l17.149-17.149c0.027-0.028,0.054-0.055,0.082-0.083
			c17.964-18.166,23.762-45.356,14.79-69.223c-7.057-18.914-11.974-38.653-14.614-58.666c-0.007-0.063-0.017-0.127-0.026-0.19
			c-4.591-32.478-32.782-56.734-65.548-56.467H66.053c-1.943,0.002-3.912,0.091-5.853,0.267
			C24.143,26.016-2.541,58.001,0.718,94.058c0.01,0.108,0.02,0.215,0.032,0.323c7.684,72.354,32.649,142.88,72.197,203.955
			c35.892,56.461,84.701,105.269,141.162,141.164c60.792,39.406,130.99,64.369,203.013,72.196c0.127,0.015,0.254,0.027,0.38,0.038
			c1.961,0.176,3.949,0.266,5.921,0.266c0.083,0,0.165,0,0.247,0.001c36.204-0.148,65.538-29.722,65.391-65.841v-67.233
			C489.746,345.714,465.515,317.211,432.59,312.566z M447.698,378.695v67.548c0.055,13.396-10.8,24.338-24.19,24.393
			c-0.715-0.004-1.425-0.027-2.135-0.086c-65.578-7.161-129.488-29.914-184.837-65.808c-0.053-0.035-0.107-0.069-0.161-0.103
			c-51.429-32.68-95.885-77.137-128.565-128.565c-0.032-0.051-0.064-0.101-0.097-0.153C71.683,220.306,48.928,156.086,41.902,90.193
			C40.779,76.91,50.63,65.155,63.923,63.954c0.717-0.064,1.443-0.098,2.145-0.098h67.463c0.146-0.001,0.294-0.003,0.443-0.002
			c12.021,0,22.322,8.905,24.044,20.819c3.05,23.063,8.721,45.806,16.871,67.649c3.319,8.832,1.189,18.869-5.427,25.591
			l-28.517,28.517c-6.583,6.582-7.956,16.753-3.354,24.847c33.837,59.508,83.177,108.847,142.685,142.685
			c8.094,4.6,18.264,3.23,24.848-3.355l28.512-28.512c6.72-6.621,16.765-8.752,25.642-5.415
			c21.799,8.134,44.547,13.805,67.61,16.855c12.18,1.757,21.122,12.339,20.816,24.647
			C447.7,378.353,447.698,378.524,447.698,378.695z"/>
    </symbol>

    <symbol id="form-time" role="img" aria-labelledby="form-time_title" viewBox="0 0 512 512">
        <title id="form-time_title">Time</title>
    	<path d="M437.019,74.981C388.667,26.629,324.38,0,256,0S123.333,26.63,74.981,74.981S0,187.62,0,256
			s26.629,132.667,74.981,181.019C123.332,485.371,187.62,512,256,512s132.667-26.629,181.019-74.981
			C485.371,388.667,512,324.38,512,256S485.371,123.332,437.019,74.981z M256,470.636C137.65,470.636,41.364,374.35,41.364,256
			S137.65,41.364,256,41.364S470.636,137.65,470.636,256S374.35,470.636,256,470.636z"/>
		<path d="M341.221,311.97l-64.538-64.537V114.809c0-11.422-9.259-20.682-20.682-20.682c-11.422,0-20.682,9.26-20.682,20.682V256
			c0,5.486,2.179,10.746,6.058,14.625l70.594,70.595c4.038,4.039,9.332,6.058,14.625,6.058c5.293,0,10.586-2.019,14.626-6.058
			C349.297,333.142,349.297,320.047,341.221,311.97z"/>
    </symbol>

    <symbol id="footer-facebook" role="img" aria-labelledby="footer-facebook_title" viewBox="0 0 512 512">
        <title id="footer-facebook_title">Facebook</title>
        <path d="M296.296,512H200.36V256h-64v-88.225l64-0.029l-0.104-51.976C200.256,43.794,219.773,0,304.556,0h70.588v88.242h-44.115
		c-33.016,0-34.604,12.328-34.604,35.342l-0.131,44.162h79.346l-9.354,88.225L296.36,256L296.296,512z"/>
    </symbol>

    <symbol id="footer-twitter" role="img" aria-labelledby="footer-twitter_title" viewBox="0 0 512.002 512.002">
        <title id="footer-twitter_title">Twitter</title>
        <path d="M512.002,97.211c-18.84,8.354-39.082,14.001-60.33,16.54c21.686-13,38.342-33.585,46.186-58.115
		c-20.299,12.039-42.777,20.78-66.705,25.49c-19.16-20.415-46.461-33.17-76.674-33.17c-58.011,0-105.042,47.029-105.042,105.039
		c0,8.233,0.929,16.25,2.72,23.939c-87.3-4.382-164.701-46.2-216.509-109.753c-9.042,15.514-14.223,33.558-14.223,52.809
		c0,36.444,18.544,68.596,46.73,87.433c-17.219-0.546-33.416-5.271-47.577-13.139c-0.01,0.438-0.01,0.878-0.01,1.321
		c0,50.894,36.209,93.348,84.261,103c-8.813,2.399-18.094,3.687-27.674,3.687c-6.769,0-13.349-0.66-19.764-1.888
		c13.368,41.73,52.16,72.104,98.126,72.949c-35.95,28.176-81.243,44.967-130.458,44.967c-8.479,0-16.84-0.496-25.058-1.471
		c46.486,29.807,101.701,47.197,161.021,47.197c193.211,0,298.868-160.062,298.868-298.872c0-4.554-0.104-9.084-0.305-13.59
		C480.111,136.775,497.92,118.275,512.002,97.211z"/>
    </symbol>

    <symbol id="footer-instagram" role="img" aria-labelledby="footer-instagram_title" viewBox="0 0 97.395 97.395">
        <title id="footer-instagram_title">Instagram</title>
        <path d="M12.501,0h72.393c6.875,0,12.5,5.09,12.5,12.5v72.395c0,7.41-5.625,12.5-12.5,12.5H12.501C5.624,97.395,0,92.305,0,84.895
		V12.5C0,5.09,5.624,0,12.501,0L12.501,0z M70.948,10.821c-2.412,0-4.383,1.972-4.383,4.385v10.495c0,2.412,1.971,4.385,4.383,4.385
		h11.008c2.412,0,4.385-1.973,4.385-4.385V15.206c0-2.413-1.973-4.385-4.385-4.385H70.948L70.948,10.821z M86.387,41.188h-8.572
		c0.811,2.648,1.25,5.453,1.25,8.355c0,16.2-13.556,29.332-30.275,29.332c-16.718,0-30.272-13.132-30.272-29.332
		c0-2.904,0.438-5.708,1.25-8.355h-8.945v41.141c0,2.129,1.742,3.872,3.872,3.872h67.822c2.13,0,3.872-1.742,3.872-3.872V41.188
		H86.387z M48.789,29.533c-10.802,0-19.56,8.485-19.56,18.953c0,10.468,8.758,18.953,19.56,18.953
		c10.803,0,19.562-8.485,19.562-18.953C68.351,38.018,59.593,29.533,48.789,29.533z"/>
    </symbol>

    <symbol id="footer-linkedin" role="img" aria-labelledby="footer-linkedin_title" viewBox="0 0 93.06 93.06">
        <title id="footer-linkedin_title">Linkedin</title>
        <path d="M11.185,0.08C5.004,0.08,0.001,5.092,0,11.259c0,6.173,5.003,11.184,11.186,11.184c6.166,0,11.176-5.011,11.176-11.184
			C22.362,5.091,17.351,0.08,11.185,0.08z"/>
		<rect x="1.538" y="30.926" width="19.287" height="62.054"/>
		<path d="M69.925,29.383c-9.382,0-15.673,5.144-18.248,10.022h-0.258v-8.479H32.921H32.92v62.053h19.27V62.281
			c0-8.093,1.541-15.932,11.575-15.932c9.89,0,10.022,9.256,10.022,16.451v30.178H93.06V58.942
			C93.06,42.235,89.455,29.383,69.925,29.383z"/>
    </symbol>

    <symbol id="footer-google" role="img" aria-labelledby="footer-google_title" viewBox="0 90 320 320">
        <title id="footer-google_title">Google</title>
		<path d="M160,224v64h90.528c-13.216,37.248-48.8,64-90.528,64c-52.928,0-96-43.072-96-96c0-52.928,43.072-96,96-96
			c22.944,0,45.024,8.224,62.176,23.168l42.048-48.256C235.424,109.824,198.432,96,160,96C71.776,96,0,167.776,0,256
			s71.776,160,160,160s160-71.776,160-160v-32H160z"/>
    </symbol>

    <symbol id="footer-phone" role="img" aria-labelledby="footer-phone_title" viewBox="0 0 504.375 504.375">
        <title id="footer-phone_title"></title>
        <path d="M443.292,157.799l29.392-12.656c-4.539-10.491-9.81-20.65-15.776-30.4l-27.296,16.704
			C434.791,139.895,439.363,148.701,443.292,157.799z"/>
		<path d="M412.332,107.239l24.64-20.4c-7.294-8.803-15.208-17.075-23.68-24.752l-21.488,23.776
			C399.142,92.495,406.002,99.638,412.332,107.239z"/>
		<path d="M483.948,177.527l-30.896,8.304c29.815,111.067-36.053,225.274-147.12,255.088c-17.533,4.707-35.606,7.1-53.76,7.12
			c-31.242-0.006-62.073-7.119-90.16-20.8l-5.936-2.864l-90.928,31.328l19.584-92.192l-3.904-5.68
			C15.804,263.13,39.862,133.648,134.563,68.624c70.356-48.308,163.081-48.736,233.88-1.081l17.904-26.528
			C276.438-33.072,127.279-4.032,53.192,105.878c-53.686,79.645-54.717,183.627-2.62,264.32l-28.48,134.176l132.08-45.472
			c30.788,13.948,64.201,21.154,98,21.136c132.654-0.105,240.107-107.728,240.002-240.382
			C492.157,218.676,489.391,197.788,483.948,177.527z"/>
		<path d="M256.06,168.279l-79.2-79.2l-45.264,45.264c-31.188,31.264-31.188,81.872,0,113.136l113.152,113.12
			c31.24,31.231,81.88,31.231,113.12,0l45.28-45.248l-79.216-79.184l-22.624,22.624c-6.248,6.246-16.376,6.246-22.624,0
			l-45.264-45.264c-6.246-6.248-6.246-16.376,0-22.624L256.06,168.279z M256.06,281.415c18.744,18.738,49.128,18.738,67.872,0
			l33.936,33.936l-22.624,22.624c-18.993,18.127-48.879,18.127-67.872,0L154.22,224.855c-18.705-18.764-18.705-49.124,0-67.888
			l22.64-22.624l33.936,33.936c-18.738,18.744-18.738,49.128,0,67.872L256.06,281.415z"/>
    </symbol>    

	<symbol id="footer-mail" role="img" aria-labelledby="footer-mail_title" viewBox="0 0 512 512">
        <title id="footer-mail_title"></title>
        <path d="M368,34.072v32h75.2L256,190.872L68.8,66.072H208v-32H0v320h112v123.856l212.336-123.856H512v-320H368z M32,79.96
			l125.504,83.712L32,297.592V79.96z M315.664,322.072L144,422.216V322.072H52.912L184.48,181.624L256,229.272l71.52-47.68
			l131.568,140.48H315.664z M480,297.592l-125.504-133.92L480,79.96V297.592z"/>
		<rect x="304" y="34.072" width="32" height="32"/>
		<rect x="240" y="34.072" width="32" height="32"/>
    </symbol>

    <symbol id="footer-location" role="img" aria-labelledby="footer-location_title" viewBox="0 0 496.261 496.261">
        <title id="footer-location_title"></title>
        <path d="M248.118,79.989c-61.856,0-112,50.144-112,112s50.144,112,112,112s112-50.144,112-112
			C360.047,130.162,309.944,80.059,248.118,79.989z M248.118,271.989c-44.183,0-80-35.817-80-80s35.817-80,80-80s80,35.817,80,80
			C328.065,236.15,292.279,271.936,248.118,271.989z"/>
		<path d="M404.47,157.861l31.296-6.768c-2.479-11.382-5.987-22.516-10.48-33.264l-29.52,12.368
			C399.515,139.129,402.429,148.39,404.47,157.861z"/>
		<path d="M440.006,185.669l-32,1.024c0,1.76,0,3.536,0,5.296c-0.064,66.875-41.689,126.664-104.384,149.936l-5.488,2.016
			l-50.016,87.776l-50.128-87.728l-5.488-2.016c-82.839-30.76-125.057-122.85-94.297-205.689s122.85-125.057,205.689-94.297
			c13.691,5.084,26.622,12.018,38.432,20.61l18.832-25.808C275.429-25.62,155.341-6.716,92.932,79.012
			s-43.505,205.817,42.224,268.226c12.618,9.186,26.309,16.799,40.771,22.671l72.192,126.352l72.192-126.4
			c72.367-29.44,119.722-99.746,119.808-177.872C440.118,189.877,440.118,187.765,440.006,185.669z"/>
		<path d="M408.966,87.029c-6.389-9.73-13.634-18.87-21.648-27.312l-23.184,22.032c6.691,7.04,12.732,14.671,18.048,22.8
			L408.966,87.029z"/>
    </symbol>

</svg>
