<svg xmlns="http://www.w3.org/2000/svg" xmlns:xlink="http://www.w3.org/1999/xlink">

	<symbol id="services01" role="img" aria-labelledby="services01_title" viewBox="0 0 512 512">
        <title id="services01_title"></title>
        <path fill="#000000" d="M488,8c4.4,0,8,3.6,8,8c0,4.4-3.6,8-8,8h-72v32h24c4.4,0,8,3.6,8,8v64c0,4.4-3.6,8-8,8h-64c-4.4,0-8-3.6-8-8v-8h-40
			c0,13.2-10.8,24-24,24h-96c-13.2,0-24-10.8-24-24h-40v8c0,4.4-3.6,8-8,8H72c-4.4,0-8-3.6-8-8V64c0-4.4,3.6-8,8-8h24V24H24
			c-4.4,0-8-3.6-8-8c0-4.4,3.6-8,8-8h72c0-4.4,3.6-8,8-8c4.4,0,8,3.6,8,8h72c4.4,0,8,3.6,8,8c0,4.4-3.6,8-8,8h-72v32h24h49.5
			c3.3-9.3,12.1-16,22.5-16h96c10.4,0,19.2,6.7,22.5,16H376h24V24h-72c-4.4,0-8-3.6-8-8c0-4.4,3.6-8,8-8h72c0-4.4,3.6-8,8-8
			c4.4,0,8,3.6,8,8H488z M432,120V72h-48v48H432z M368,104V72h-40c0,4.4-3.6,8-8,8c-4.4,0-8-3.6-8-8v-8c0-4.4-3.6-8-8-8h-8
			c0,4.4-3.6,8-8,8c-4.4,0-8-3.6-8-8h-16c0,4.4-3.6,8-8,8c-4.4,0-8-3.6-8-8h-16c0,4.4-3.6,8-8,8c-4.4,0-8-3.6-8-8h-8
			c-4.4,0-8,3.6-8,8v8c0,4.4-3.6,8-8,8c-4.4,0-8-3.6-8-8h-40v32h40c0-4.4,3.6-8,8-8c4.4,0,8,3.6,8,8v8v8c0,4.4,3.6,8,8,8h96
			c4.4,0,8-3.6,8-8v-8v-8c0-4.4,3.6-8,8-8c4.4,0,8,3.6,8,8H368z M128,120V72H80v48H128z"/>
		<rect x="384" y="72" width="48" height="48"/>
		<rect x="80" y="72" width="48" height="48"/>
		<path fill="#ffffff" d="M192,80c4.4,0,8-3.6,8-8v-8c0-4.4,3.6-8,8-8h8c0,4.4,3.6,8,8,8c4.4,0,8-3.6,8-8h16c0,4.4,3.6,8,8,8
			c4.4,0,8-3.6,8-8h16c0,4.4,3.6,8,8,8c4.4,0,8-3.6,8-8h8c4.4,0,8,3.6,8,8v8c0,4.4,3.6,8,8,8c4.4,0,8-3.6,8-8h40v32h-40
			c0-4.4-3.6-8-8-8c-4.4,0-8,3.6-8,8v8v8c0,4.4-3.6,8-8,8h-96c-4.4,0-8-3.6-8-8v-8v-8c0-4.4-3.6-8-8-8c-4.4,0-8,3.6-8,8h-40V72h40
			C184,76.4,187.6,80,192,80z"/>
        <path fill="#ffffff" d="M232,419.7v21h-64v-21c5-6.3,8-14.5,8-23.5v-35.7h48v35.7C224,405.2,227,413.4,232,419.7z"/>
		<rect fill="#ffffff" x="112" y="235.7" width="288" height="17.9"/>
		<polygon points="403.7,271.3 409,280.3 102.9,280.3 108.3,271.3 			"/>
		<rect fill="#ffffff" x="96" y="298.1" width="320" height="8.9"/>
		<path d="M96,476.3v17.8H16v-17.8c0-4.9,3.6-8.9,8-8.9c4.4,0,8,4,8,8.9c0,4.9,3.6,8.9,8,8.9c4.4,0,8-4,8-8.9v-8.9
			c0-4.9,3.6-8.9,8-8.9s8,4,8,8.9v8.9c0,4.9,3.6,8.9,8,8.9c4.4,0,8-4,8-8.9c0-4.9,3.6-8.9,8-8.9C94.6,467.4,96,471,96,476.3z"/>
		<path d="M496,476.3v17.8h-80v-17.8c0-4.9,3.6-8.9,8-8.9c4.4,0,8,4,8,8.9c0,4.9,3.6,8.9,8,8.9c4.4,0,8-4,8-8.9v-8.9
			c0-4.9,3.6-8.9,8-8.9s8,4,8,8.9v8.9c0,4.9,3.6,8.9,8,8.9c4.4,0,8-4,8-8.9c0-4.9,3.6-8.9,8-8.9C494.6,467.4,496,471,496,476.3z"/>
		<path d="M368,360.5v133.7h-64V360.5H368z M360,476.4v-98.1c0-4.9-3.6-8.9-8-8.9h-32c-4.4,0-8,4-8,8.9v98.1
			c0,4.9,3.6,8.9,8,8.9h32C356.4,485.3,360,481.3,360,476.4z"/>
		<rect fill="#ffffff" x="328" y="387.2" width="16" height="80.2"/>
		<path d="M256,431.8v8.9h-8v-10C250.6,431.4,253.2,431.8,256,431.8z"/>
		<path d="M256,360.5V414c-3.9,0-7.4-1.6-10.2-4.1c-0.3-0.3-0.5-0.6-0.8-0.8c-3-3.2-4.9-7.8-4.9-12.9v-35.7H256z"/>
		<path d="M152,430.7v10h-8v-8.9C146.8,431.8,149.4,431.4,152,430.7z"/>
		<path d="M160,360.5v35.7c0,5-1.9,9.6-4.9,12.9c-0.3,0.3-0.6,0.5-0.8,0.8c-2.8,2.6-6.3,4.1-10.2,4.1v-53.5H160z"/>
		<path fill="#ffffff" d="M400,476.3v17.8h-16V351.6c0-4.9-3.6-8.9-8-8.9h-80c-4.4,0-8,4-8,8.9v142.6H112v-17.8V324.8h288V476.3z
			 M272,422.9c0-0.1,0-0.2,0-0.4v-71c0-4.9-3.6-8.9-8-8.9H136c-4.4,0-8,4-8,8.9v98c0,4.9,3.6,8.9,8,8.9h128c4.4,0,8-4,8-8.9v-26.4
			C272,423.1,272,423,272,422.9z"/>
		<path fill="#000000" d="M512,476.3v26.8c0,4.9-3.6,8.9-8,8.9h-96h-32h-80H104H8c-4.4,0-8-4-8-8.9v-26.8c0-14.7,10.8-26.7,24-26.7
			c4.3,0,8.3,1.3,11.8,3.4c4.3-7.4,11.7-12.4,20.2-12.4s15.9,4.9,20.2,12.4c3.5-2.2,7.5-3.4,11.8-3.4c2.9,0,5.5,0.4,8,1.2v-126h-8
			c-4.4,0-8-4-8-8.9v-26.6c0-0.3,0-0.7,0-1c0,0,0-0.1,0-0.1c0-0.3,0.1-0.5,0.1-0.7c0-0.1,0-0.2,0-0.3c0-0.2,0.1-0.4,0.1-0.6
			c0-0.1,0.1-0.2,0.1-0.3c0.1-0.2,0.1-0.3,0.2-0.5c0.1-0.2,0.1-0.3,0.2-0.5c0-0.1,0.1-0.2,0.1-0.3c0.1-0.2,0.2-0.4,0.3-0.6
			c0-0.1,0-0.1,0.1-0.1l0,0c0,0,0,0,0,0L96,259.7v-32.9c0,0,0,0,0,0v0c0-4.9,3.6-8.9,8-8.9h144v-26.8c0-4.9,3.6-8.9,8-8.9
			c4.4,0,8,4,8,8.9v26.8h144c4.4,0,8,4,8,8.9v0c0,0,0,0,0,0v32.9l14.6,24.5c0,0,0,0,0,0l0,0c0,0,0.1,0.1,0.1,0.2
			c0.1,0.2,0.2,0.4,0.3,0.6c0.1,0.1,0.1,0.3,0.2,0.4c0,0.1,0.1,0.3,0.2,0.4c0.1,0.2,0.1,0.4,0.2,0.5c0,0.1,0.1,0.2,0.1,0.3
			c0.1,0.2,0.1,0.4,0.1,0.7c0,0.1,0,0.1,0,0.2c0.1,0.3,0.1,0.5,0.1,0.8c0,0,0,0.1,0,0.1c0,0.3,0,0.7,0,1v26.6c0,4.9-3.6,8.9-8,8.9
			h-8v126.3c2.5-1,5.2-1.5,8-1.5c4.3,0,8.3,1.3,11.8,3.4c4.3-7.4,11.7-12.4,20.2-12.4s16,4.9,20.2,12.4c3.5-2.2,7.5-3.4,11.8-3.4
			C502.6,449.6,512,460.1,512,476.3z M496,494.2v-17.8c0-5.4-1.4-8.9-8-8.9c-4.4,0-8,4-8,8.9c0,4.9-3.6,8.9-8,8.9c-4.4,0-8-4-8-8.9
			v-8.9c0-4.9-3.6-8.9-8-8.9s-8,4-8,8.9v8.9c0,4.9-3.6,8.9-8,8.9c-4.4,0-8-4-8-8.9c0-4.9-3.6-8.9-8-8.9c-4.4,0-8,4-8,8.9v17.8H496z
			 M416,307v-8.9H96v8.9H416z M409,280.3l-5.3-8.9H108.3l-5.3,8.9H409z M400,494.2v-17.8V324.8H112v151.5v17.8h176V351.6
			c0-4.9,3.6-8.9,8-8.9h80c4.4,0,8,4,8,8.9v142.6H400z M400,253.5v-17.8H112v17.8H400z M368,494.2V360.5h-64v133.7H368z M96,494.2
			v-17.8c0-5.4-1.4-8.9-8-8.9c-4.4,0-8,4-8,8.9c0,4.9-3.6,8.9-8,8.9c-4.4,0-8-4-8-8.9v-8.9c0-4.9-3.6-8.9-8-8.9s-8,4-8,8.9v8.9
			c0,4.9-3.6,8.9-8,8.9c-4.4,0-8-4-8-8.9c0-4.9-3.6-8.9-8-8.9c-4.4,0-8,4-8,8.9v17.8H96z"/>
		<path fill="#000000" d="M360,378.3v98.1c0,4.9-3.6,8.9-8,8.9h-32c-4.4,0-8-4-8-8.9v-98.1c0-4.9,3.6-8.9,8-8.9h32
			C356.4,369.4,360,373.4,360,378.3z M344,467.5v-80.2h-16v80.2H344z"/>
		<path fill="#000000" d="M272,422.5c0,0.1,0,0.2,0,0.4s0,0.2,0,0.4v26.4c0,4.9-3.6,8.9-8,8.9H136c-4.4,0-8-4-8-8.9v-98
			c0-4.9,3.6-8.9,8-8.9h128c4.4,0,8,4,8,8.9V422.5z M256,440.7v-8.9c-2.8,0-5.4-0.4-8-1.1v10H256z M256,414v-53.5h-16v35.7
			c0,5,1.9,9.6,4.9,12.9c0.3,0.3,0.6,0.5,0.8,0.8C248.6,412.4,252.1,414,256,414z M232,440.7v-21c-5-6.3-8-14.5-8-23.5v-35.7h-48
			v35.7c0,9-3,17.3-8,23.5v21H232z M160,396.2v-35.7h-16V414c3.9,0,7.4-1.6,10.2-4.1c0.3-0.3,0.5-0.6,0.8-0.8
			C158.1,405.8,160,401.2,160,396.2z M152,440.7v-10c-2.6,0.7-5.2,1.1-8,1.1v8.9H152z"/>
	<path fill="#000000" d="M225.2,112H288c4.4,0,8-3.6,8-8s-3.6-8-8-8h-62.8c-4.4,0-8,3.6-8,8S220.8,112,225.2,112L225.2,112z"/>
    </symbol>

    <symbol id="services02" role="img" aria-labelledby="services02_title" viewBox="0 0 512 512">
        <title id="services02_title"></title>
        <rect fill="#ffffff" x="239" y="454.3" width="32" height="9.4"/>
		<path fill="#000000" d="M383,190.7c17.6,0,32,17,32,37.8c0,20.9-14.4,37.8-32,37.8H127.9c-0.3,0-0.6,0.1-0.9,0.1c-8.8,0-16,8.5-16,18.9
			c0,10.4,7.2,18.9,16,18.9h103.4c0.2,0,0.4,0,0.6,0c17.7,0,32,16.9,32,37.8v19.6c22.6,4.5,39.8,27.6,40,55.5c0,0.1,0,0.3,0,0.4
			v28.4c0,5.2-3.6,9.5-8,9.5h-8v9.4h32c4.4,0,8,4.2,8,9.5v18.9h8c4.4,0,8,4.2,8,9.4c0,5.2-3.6,9.5-8,9.5H175c-4.4,0-8-4.2-8-9.5
			c0-5.2,3.6-9.4,8-9.4h8v-18.9c0-5.2,3.6-9.5,8-9.5h32v-9.4h-8c-4.4,0-8-4.2-8-9.5v-28.2c0-0.1,0-0.1,0-0.2
			c0-28,17.3-51.4,40-55.9V342c0-10.3-7-18.7-15.7-18.9c-0.1,0-0.2,0-0.3,0H127c-17.7,0-32-17-32-37.8c0-20.4,13.8-37.1,31-37.8
			c0.3-0.1,0.7-0.1,1-0.1h256c8.8,0,16-8.5,16-18.9c0-10.4-7.2-18.9-16-18.9H279c-17.6,0-32-16.9-32-37.8v-28.3
			c0-5.2,3.6-9.4,8-9.4c4.4,0,8,4.2,8,9.4v28.3c0,10.4,7.2,18.9,16,18.9H383z M311,492.1v-9.5H199v9.5H311z M287,435.4v-18.7
			c0-0.1,0-0.1,0-0.2c0-20.7-14.1-37.5-31.6-37.8c-0.1,0-0.3,0-0.4,0s-0.3,0-0.4,0c-17.4,0.3-31.5,17-31.6,37.7c0,0,0,0.1,0,0.1
			v18.9H287z M271,463.8v-9.4h-32v9.4H271z"/>
		<rect x="199" y="482.6" width="112" height="9.4"/>
		<path d="M287,416.7v18.7h-64v-18.9c0,0,0-0.1,0-0.1c0.1-20.6,14.1-37.4,31.6-37.7c0.1,0,0.3,0,0.4,0s0.3,0,0.4,0
			c17.5,0.3,31.6,17.1,31.6,37.8C287,416.6,287,416.6,287,416.7z"/>
		<path fill="#000000" d="M488,8c4.4,0,8,3.6,8,8c0,4.4-3.6,8-8,8h-72v32h24c4.4,0,8,3.6,8,8v64c0,4.4-3.6,8-8,8h-64c-4.4,0-8-3.6-8-8v-8h-40
			c0,13.2-10.8,24-24,24h-96c-13.2,0-24-10.8-24-24h-40v8c0,4.4-3.6,8-8,8H72c-4.4,0-8-3.6-8-8V64c0-4.4,3.6-8,8-8h24V24H24
			c-4.4,0-8-3.6-8-8c0-4.4,3.6-8,8-8h72c0-4.4,3.6-8,8-8c4.4,0,8,3.6,8,8h72c4.4,0,8,3.6,8,8c0,4.4-3.6,8-8,8h-72v32h24h49.5
			c3.3-9.3,12.1-16,22.5-16h96c10.4,0,19.2,6.7,22.5,16H376h24V24h-72c-4.4,0-8-3.6-8-8c0-4.4,3.6-8,8-8h72c0-4.4,3.6-8,8-8
			c4.4,0,8,3.6,8,8H488z M432,120V72h-48v48H432z M368,104V72h-40c0,4.4-3.6,8-8,8c-4.4,0-8-3.6-8-8v-8c0-4.4-3.6-8-8-8h-8
			c0,4.4-3.6,8-8,8c-4.4,0-8-3.6-8-8h-16c0,4.4-3.6,8-8,8c-4.4,0-8-3.6-8-8h-16c0,4.4-3.6,8-8,8c-4.4,0-8-3.6-8-8h-8
			c-4.4,0-8,3.6-8,8v8c0,4.4-3.6,8-8,8c-4.4,0-8-3.6-8-8h-40v32h40c0-4.4,3.6-8,8-8c4.4,0,8,3.6,8,8v8v8c0,4.4,3.6,8,8,8h96
			c4.4,0,8-3.6,8-8v-8v-8c0-4.4,3.6-8,8-8c4.4,0,8,3.6,8,8H368z M128,120V72H80v48H128z"/>
		<rect x="384" y="72" width="48" height="48"/>
		<rect x="80" y="72" width="48" height="48"/>
		<path fill="#ffffff" d="M192,80c4.4,0,8-3.6,8-8v-8c0-4.4,3.6-8,8-8h8c0,4.4,3.6,8,8,8c4.4,0,8-3.6,8-8h16c0,4.4,3.6,8,8,8
			c4.4,0,8-3.6,8-8h16c0,4.4,3.6,8,8,8c4.4,0,8-3.6,8-8h8c4.4,0,8,3.6,8,8v8c0,4.4,3.6,8,8,8c4.4,0,8-3.6,8-8h40v32h-40
			c0-4.4-3.6-8-8-8c-4.4,0-8,3.6-8,8v8v8c0,4.4-3.6,8-8,8h-96c-4.4,0-8-3.6-8-8v-8v-8c0-4.4-3.6-8-8-8c-4.4,0-8,3.6-8,8h-40V72h40
			C184,76.4,187.6,80,192,80z"/>
		<path fill="#000000" d="M225.2,112H288c4.4,0,8-3.6,8-8s-3.6-8-8-8h-62.8c-4.4,0-8,3.6-8,8S220.8,112,225.2,112L225.2,112z"/>
    </symbol>

    <symbol id="services03" role="img" aria-labelledby="services03_title" viewBox="0 0 512 512">
        <title id="services03_title"></title>
        <path d="M392,192v191.6l-73.5-100.3c-0.3-0.4-0.7-0.6-1-0.9c-0.3-0.3-0.4-0.6-0.8-0.8c-0.1-0.1-0.2-0.1-0.3-0.2
			c-0.5-0.3-1.1-0.5-1.6-0.8c-0.4-0.2-0.8-0.4-1.3-0.4c-0.5-0.1-1.1-0.1-1.6-0.1c-0.5,0-1,0-1.4,0.1c-0.5,0.1-0.9,0.3-1.3,0.5
			c-0.5,0.2-1.1,0.4-1.6,0.8c-0.1,0.1-0.2,0.1-0.3,0.1c-0.3,0.2-0.4,0.5-0.7,0.8c-0.4,0.3-0.8,0.6-1.1,1l-37.4,50.9l-13.7-18.8
			c-0.3-0.4-0.7-0.6-1-1c-0.3-0.3-0.4-0.6-0.8-0.8c-0.1-0.1-0.2-0.1-0.3-0.1c-0.5-0.3-1.1-0.5-1.7-0.8c-0.4-0.2-0.8-0.4-1.2-0.4
			c-0.5-0.1-1,0-1.5-0.1c-0.5,0-1.1,0-1.6,0.1c-0.4,0.1-0.8,0.3-1.1,0.4c-0.6,0.2-1.2,0.4-1.7,0.8c-0.1,0.1-0.2,0.1-0.3,0.1
			c-0.3,0.2-0.5,0.6-0.8,0.8c-0.3,0.3-0.8,0.5-1,1L180.1,400H120V192h0H392z"/>
		<path fill="#000000" d="M246.5,312.3c0.5-0.1,1.1-0.1,1.6-0.1c0.5,0,1,0,1.5,0.1c0.4,0.1,0.8,0.3,1.2,0.4c0.6,0.2,1.2,0.4,1.7,0.8
			c0.1,0.1,0.2,0.1,0.3,0.1c0.3,0.2,0.5,0.6,0.8,0.8c0.4,0.3,0.8,0.5,1,1l13.7,18.8l37.4-50.9c0.3-0.4,0.7-0.6,1.1-1
			c0.3-0.3,0.4-0.6,0.7-0.8c0.1-0.1,0.2-0.1,0.3-0.1c0.5-0.3,1-0.5,1.6-0.8c0.5-0.2,0.9-0.4,1.3-0.5c0.5-0.1,1-0.1,1.4-0.1
			c0.5,0,1.1-0.1,1.6,0.1c0.4,0.1,0.8,0.3,1.3,0.4c0.6,0.2,1.1,0.4,1.6,0.8c0.1,0.1,0.2,0.1,0.3,0.2c0.3,0.2,0.5,0.6,0.8,0.8
			c0.3,0.3,0.7,0.5,1,0.9L392,383.6V192H120h0v208h60.1l61.5-84.5c0.3-0.4,0.7-0.6,1-1c0.3-0.3,0.4-0.6,0.8-0.8
			c0.1-0.1,0.2-0.1,0.3-0.1c0.6-0.4,1.1-0.6,1.7-0.8C245.7,312.6,246.1,312.4,246.5,312.3z M512,232v224c0,30.9-25.1,56-56,56
			c-4.4,0-8-3.6-8-8v-88h-47.4c-0.2,0-0.4,0.1-0.5,0.1c-0.1,0-0.2-0.1-0.4-0.1H224.4c-0.1,0-0.2,0.1-0.4,0.1c-0.2,0-0.4-0.1-0.5-0.1
			h-38.7c-0.2,0-0.5,0.2-0.7,0.2c-0.4,0-0.7-0.1-1.1-0.2h-71H64v88c0,4.4-3.6,8-8,8c-30.9,0-56-25.1-56-56V232c0-30.9,25.1-56,56-56
			h56h288h56C486.9,176,512,201.1,512,232z M384.2,400L312,301.6L239.9,400H384.2z M258.3,347.8L248,333.7L199.8,400v0H220
			L258.3,347.8z"/>
		<polygon fill="#ffffff" points="248,333.7 258.3,347.8 220,400 199.8,400 199.8,400 		"/>
		<polygon fill="#ffffff" points="312,301.6 384.2,400 239.9,400 		"/>
		<path d="M496,271.1V456c0,19.3-13.8,35.5-32,39.2V287.4C476.5,285.6,487.6,279.7,496,271.1z"/>
		<path d="M48,287.4v207.8c-18.2-3.7-32-19.9-32-39.2V271.1C24.4,279.7,35.5,285.6,48,287.4z"/>
		<path fill="#ffffff" d="M456,192c22.1,0,40,17.9,40,40c0,22.1-17.9,40-40,40c-4.4,0-8,3.6-8,8v120h-40V192H456z"/>
		<path fill="#ffffff" d="M456,272c-4.4,0-8,3.6-8,8v120h-40V192h48c22.1,0,40,17.9,40,40C496,254.1,478.1,272,456,272z"/>
		<path fill="#ffffff" d="M104,192v208H64V280c0-4.4-3.6-8-8-8c-22.1,0-40-17.9-40-40c0-22.1,17.9-40,40-40H104z"/>
		<path fill="#ffffff" d="M64,280c0-4.4-3.6-8-8-8c-22.1,0-40-17.9-40-40c0-22.1,17.9-40,40-40h48v208H64V280z"/>
		<path fill="#000000" d="M200,248c0-13.2-10.8-24-24-24s-24,10.8-24,24c0,13.2,10.8,24,24,24S200,261.2,200,248L200,248z"/>
		<path fill="#ffffff" d="M176,240c4.4,0,8,3.6,8,8c0,4.4-3.6,8-8,8c-4.4,0-8-3.6-8-8C168,243.6,171.6,240,176,240z"/>
		<path fill="#000000" d="M488,8c4.4,0,8,3.6,8,8c0,4.4-3.6,8-8,8h-72v32h24c4.4,0,8,3.6,8,8v64c0,4.4-3.6,8-8,8h-64c-4.4,0-8-3.6-8-8v-8h-40
			c0,13.2-10.8,24-24,24h-96c-13.2,0-24-10.8-24-24h-40v8c0,4.4-3.6,8-8,8H72c-4.4,0-8-3.6-8-8V64c0-4.4,3.6-8,8-8h24V24H24
			c-4.4,0-8-3.6-8-8c0-4.4,3.6-8,8-8h72c0-4.4,3.6-8,8-8c4.4,0,8,3.6,8,8h72c4.4,0,8,3.6,8,8c0,4.4-3.6,8-8,8h-72v32h24h49.5
			c3.3-9.3,12.1-16,22.5-16h96c10.4,0,19.2,6.7,22.5,16H376h24V24h-72c-4.4,0-8-3.6-8-8c0-4.4,3.6-8,8-8h72c0-4.4,3.6-8,8-8
			c4.4,0,8,3.6,8,8H488z M432,120V72h-48v48H432z M368,104V72h-40c0,4.4-3.6,8-8,8c-4.4,0-8-3.6-8-8v-8c0-4.4-3.6-8-8-8h-8
			c0,4.4-3.6,8-8,8c-4.4,0-8-3.6-8-8h-16c0,4.4-3.6,8-8,8c-4.4,0-8-3.6-8-8h-16c0,4.4-3.6,8-8,8c-4.4,0-8-3.6-8-8h-8
			c-4.4,0-8,3.6-8,8v8c0,4.4-3.6,8-8,8c-4.4,0-8-3.6-8-8h-40v32h40c0-4.4,3.6-8,8-8c4.4,0,8,3.6,8,8v8v8c0,4.4,3.6,8,8,8h96
			c4.4,0,8-3.6,8-8v-8v-8c0-4.4,3.6-8,8-8c4.4,0,8,3.6,8,8H368z M128,120V72H80v48H128z"/>
		<rect x="384" y="72" width="48" height="48"/>
		<path fill="#ffffff" d="M368,72v32h-40c0-4.4-3.6-8-8-8c-4.4,0-8,3.6-8,8v8v8c0,4.4-3.6,8-8,8h-96c-4.4,0-8-3.6-8-8v-8v-8
			c0-4.4-3.6-8-8-8c-4.4,0-8,3.6-8,8h-40V72h40c0,4.4,3.6,8,8,8c4.4,0,8-3.6,8-8v-8c0-4.4,3.6-8,8-8h8c0,4.4,3.6,8,8,8
			c4.4,0,8-3.6,8-8h16c0,4.4,3.6,8,8,8c4.4,0,8-3.6,8-8h16c0,4.4,3.6,8,8,8c4.4,0,8-3.6,8-8h8c4.4,0,8,3.6,8,8v8c0,4.4,3.6,8,8,8
			c4.4,0,8-3.6,8-8H368z"/>
		<rect x="80" y="72" width="48" height="48"/>
		<path fill="#ffffff" d="M192,80c4.4,0,8-3.6,8-8v-8c0-4.4,3.6-8,8-8h8c0,4.4,3.6,8,8,8c4.4,0,8-3.6,8-8h16c0,4.4,3.6,8,8,8
			c4.4,0,8-3.6,8-8h16c0,4.4,3.6,8,8,8c4.4,0,8-3.6,8-8h8c4.4,0,8,3.6,8,8v8c0,4.4,3.6,8,8,8c4.4,0,8-3.6,8-8h40v32h-40
			c0-4.4-3.6-8-8-8c-4.4,0-8,3.6-8,8v8v8c0,4.4-3.6,8-8,8h-96c-4.4,0-8-3.6-8-8v-8v-8c0-4.4-3.6-8-8-8c-4.4,0-8,3.6-8,8h-40V72h40
			C184,76.4,187.6,80,192,80z"/>
		<path fill="#000000" d="M225.2,112H288c4.4,0,8-3.6,8-8s-3.6-8-8-8h-62.8c-4.4,0-8,3.6-8,8S220.8,112,225.2,112L225.2,112z"/>
    </symbol>

    <symbol id="services04" role="img" aria-labelledby="services04_title" viewBox="0 0 512 512">
        <title id="services04_title"></title>
        <path fill="#000000" d="M488,8c4.4,0,8,3.6,8,8c0,4.4-3.6,8-8,8h-72v32h24c4.4,0,8,3.6,8,8v64c0,4.4-3.6,8-8,8h-64c-4.4,0-8-3.6-8-8v-8h-40
			c0,13.2-10.8,24-24,24h-96c-13.2,0-24-10.8-24-24h-40v8c0,4.4-3.6,8-8,8H72c-4.4,0-8-3.6-8-8V64c0-4.4,3.6-8,8-8h24V24H24
			c-4.4,0-8-3.6-8-8c0-4.4,3.6-8,8-8h72c0-4.4,3.6-8,8-8c4.4,0,8,3.6,8,8h72c4.4,0,8,3.6,8,8c0,4.4-3.6,8-8,8h-72v32h24h49.5
			c3.3-9.3,12.1-16,22.5-16h96c10.4,0,19.2,6.7,22.5,16H376h24V24h-72c-4.4,0-8-3.6-8-8c0-4.4,3.6-8,8-8h72c0-4.4,3.6-8,8-8
			c4.4,0,8,3.6,8,8H488z M432,120V72h-48v48H432z M368,104V72h-40c0,4.4-3.6,8-8,8c-4.4,0-8-3.6-8-8v-8c0-4.4-3.6-8-8-8h-8
			c0,4.4-3.6,8-8,8c-4.4,0-8-3.6-8-8h-16c0,4.4-3.6,8-8,8c-4.4,0-8-3.6-8-8h-16c0,4.4-3.6,8-8,8c-4.4,0-8-3.6-8-8h-8
			c-4.4,0-8,3.6-8,8v8c0,4.4-3.6,8-8,8c-4.4,0-8-3.6-8-8h-40v32h40c0-4.4,3.6-8,8-8c4.4,0,8,3.6,8,8v8v8c0,4.4,3.6,8,8,8h96
			c4.4,0,8-3.6,8-8v-8v-8c0-4.4,3.6-8,8-8c4.4,0,8,3.6,8,8H368z M128,120V72H80v48H128z"/>
		<rect x="384" y="72" width="48" height="48"/>
		<path fill="#ff0" d="M368,72v32h-40c0-4.4-3.6-8-8-8c-4.4,0-8,3.6-8,8v8v8c0,4.4-3.6,8-8,8h-96c-4.4,0-8-3.6-8-8v-8v-8
			c0-4.4-3.6-8-8-8c-4.4,0-8,3.6-8,8h-40V72h40c0,4.4,3.6,8,8,8c4.4,0,8-3.6,8-8v-8c0-4.4,3.6-8,8-8h8c0,4.4,3.6,8,8,8
			c4.4,0,8-3.6,8-8h16c0,4.4,3.6,8,8,8c4.4,0,8-3.6,8-8h16c0,4.4,3.6,8,8,8c4.4,0,8-3.6,8-8h8c4.4,0,8,3.6,8,8v8c0,4.4,3.6,8,8,8
			c4.4,0,8-3.6,8-8H368z"/>
		<rect x="80" y="72" width="48" height="48"/>
		<path fill="#ffffff" d="M192,80c4.4,0,8-3.6,8-8v-8c0-4.4,3.6-8,8-8h8c0,4.4,3.6,8,8,8c4.4,0,8-3.6,8-8h16c0,4.4,3.6,8,8,8
			c4.4,0,8-3.6,8-8h16c0,4.4,3.6,8,8,8c4.4,0,8-3.6,8-8h8c4.4,0,8,3.6,8,8v8c0,4.4,3.6,8,8,8c4.4,0,8-3.6,8-8h40v32h-40
			c0-4.4-3.6-8-8-8c-4.4,0-8,3.6-8,8v8v8c0,4.4-3.6,8-8,8h-96c-4.4,0-8-3.6-8-8v-8v-8c0-4.4-3.6-8-8-8c-4.4,0-8,3.6-8,8h-40V72h40
			C184,76.4,187.6,80,192,80z"/>
		<path fill="#000000" d="M504,497.7c4.4,0,8,3.2,8,7.2s-3.6,7.2-8,7.2H8c-4.4,0-8-3.2-8-7.2s3.6-7.2,8-7.2h32v-7.2
			c0-11.9,10.8-21.5,24-21.5h16V332.7c0-4,3.6-7.2,8-7.2h80c4.4,0,8,3.2,8,7.2V469h16V253.7c0-4,3.6-7.2,8-7.2h24v-21.5
			c0-4,3.6-7.2,8-7.2h16v-28.7c0-4,3.6-7.2,8-7.2c4.4,0,8,3.2,8,7.2v28.7h16c4.4,0,8,3.2,8,7.2v21.5h24c4.4,0,8,3.2,8,7.2V469h16
			V332.7c0-4,3.6-7.2,8-7.2h80c4.4,0,8,3.2,8,7.2V469h16c13.2,0,24,9.7,24,21.5v7.2H504z M456,497.7v-7.2c0-4-3.6-7.2-8-7.2H64
			c-4.4,0-8,3.2-8,7.2v7.2H456z M416,469V339.8h-64V469H416z M304,469v-208h-96v208H304z M272,246.6v-14.4h-32v14.4H272z M160,469
			V339.8H96V469H160z"/>
		<path d="M456,490.5v7.2H56v-7.2c0-4,3.6-7.2,8-7.2h384C452.4,483.3,456,486.5,456,490.5z"/>
		<path fill="#ffffff" d="M416,339.8V469h-64V339.8H416z M408,361.4c0-4-3.6-7.2-8-7.2h-32c-4.4,0-8,3.2-8,7.2c0,4,3.6,7.2,8,7.2h32
			C404.4,368.5,408,365.3,408,361.4z M408,390c0-4-3.6-7.2-8-7.2h-32c-4.4,0-8,3.2-8,7.2c0,4,3.6,7.2,8,7.2h32
			C404.4,397.2,408,394,408,390z M408,418.8c0-4-3.6-7.2-8-7.2h-32c-4.4,0-8,3.2-8,7.2s3.6,7.2,8,7.2h32
			C404.4,425.9,408,422.7,408,418.8z M408,447.5c0-4-3.6-7.2-8-7.2h-32c-4.4,0-8,3.2-8,7.2s3.6,7.2,8,7.2h32
			C404.4,454.6,408,451.4,408,447.5z"/>
		<path fill="#000000" d="M400,354.2c4.4,0,8,3.2,8,7.2c0,4-3.6,7.2-8,7.2h-32c-4.4,0-8-3.2-8-7.2c0-4,3.6-7.2,8-7.2H400z"/>
		<path fill="#000000" d="M400,382.9c4.4,0,8,3.2,8,7.2c0,4-3.6,7.2-8,7.2h-32c-4.4,0-8-3.2-8-7.2c0-4,3.6-7.2,8-7.2H400z"/>
		<path fill="#000000" d="M400,411.6c4.4,0,8,3.2,8,7.2s-3.6,7.2-8,7.2h-32c-4.4,0-8-3.2-8-7.2s3.6-7.2,8-7.2H400z"/>
		<path fill="#000000" d="M400,440.3c4.4,0,8,3.2,8,7.2s-3.6,7.2-8,7.2h-32c-4.4,0-8-3.2-8-7.2s3.6-7.2,8-7.2H400z"/>
		<path d="M304,260.9v208h-96v-208H304z M280,447.5V289.6c0-4-3.6-7.2-8-7.2s-8,3.2-8,7.2v157.8c0,4,3.6,7.2,8,7.2
			S280,451.4,280,447.5z M248,447.5V289.6c0-4-3.6-7.2-8-7.2s-8,3.2-8,7.2v157.8c0,4,3.6,7.2,8,7.2S248,451.4,248,447.5z"/>
		<path fill="#000000" d="M280,289.6v157.8c0,4-3.6,7.2-8,7.2s-8-3.2-8-7.2V289.6c0-4,3.6-7.2,8-7.2S280,285.6,280,289.6z"/>
		<rect x="240" y="232.2" width="32" height="14.4"/>
		<path fill="#000000" d="M248,289.6v157.8c0,4-3.6,7.2-8,7.2s-8-3.2-8-7.2V289.6c0-4,3.6-7.2,8-7.2S248,285.6,248,289.6z"/>
		<path fill="#ffffff" d="M160,339.8V469H96V339.8H160z M152,361.4c0-4-3.6-7.2-8-7.2h-32c-4.4,0-8,3.2-8,7.2c0,4,3.6,7.2,8,7.2h32
			C148.4,368.5,152,365.3,152,361.4z M152,390c0-4-3.6-7.2-8-7.2h-32c-4.4,0-8,3.2-8,7.2c0,4,3.6,7.2,8,7.2h32
			C148.4,397.2,152,394,152,390z M152,418.8c0-4-3.6-7.2-8-7.2h-32c-4.4,0-8,3.2-8,7.2s3.6,7.2,8,7.2h32
			C148.4,425.9,152,422.7,152,418.8z M152,447.5c0-4-3.6-7.2-8-7.2h-32c-4.4,0-8,3.2-8,7.2s3.6,7.2,8,7.2h32
			C148.4,454.6,152,451.4,152,447.5z"/>
		<path fill="#000000" d="M144,354.2c4.4,0,8,3.2,8,7.2c0,4-3.6,7.2-8,7.2h-32c-4.4,0-8-3.2-8-7.2c0-4,3.6-7.2,8-7.2H144z"/>
		<path fill="#000000" d="M144,382.9c4.4,0,8,3.2,8,7.2c0,4-3.6,7.2-8,7.2h-32c-4.4,0-8-3.2-8-7.2c0-4,3.6-7.2,8-7.2H144z"/>
		<path fill="#000000" d="M144,411.6c4.4,0,8,3.2,8,7.2s-3.6,7.2-8,7.2h-32c-4.4,0-8-3.2-8-7.2s3.6-7.2,8-7.2H144z"/>
		<path fill="#000000" d="M144,440.3c4.4,0,8,3.2,8,7.2s-3.6,7.2-8,7.2h-32c-4.4,0-8-3.2-8-7.2s3.6-7.2,8-7.2H144z"/>
		<rect x="240" y="232.2" width="32" height="14.4"/>
		<path d="M64,483.3h384c4.4,0,8,3.2,8,7.2v7.2H56v-7.2C56,486.5,59.6,483.3,64,483.3z"/>
		<path fill="#000000" d="M225.2,112H288c4.4,0,8-3.6,8-8s-3.6-8-8-8h-62.8c-4.4,0-8,3.6-8,8S220.8,112,225.2,112L225.2,112z"/>
    </symbol>

    <symbol id="check01" role="img" aria-labelledby="check01_title" viewBox="0 0 504.1 504.1">
        <title id="check01_title"></title>
        <path d="M480.1,144.7L256.4,365.9c-3.5,3.5-8.3,4.7-13,4.3c-4.7,0.4-9.5-0.8-13-4.3L98.9,235.5
			c-5.9-5.9-5.9-15.8,0-21.7l39.4-39c6.3-5.9,16.1-5.9,22.1,0l82.3,81.1L424.4,68.2C379.3,25.9,318.7,0,252.1,0
			C112.9,0,0,112.9,0,252.1s112.9,252.1,252.1,252.1s252.1-112.9,252.1-252.1C504.1,213.6,495.5,177.3,480.1,144.7z"/>
    </symbol>

    <symbol id="footer-facebook" role="img" aria-labelledby="footer-facebook_title" viewBox="0 0 512 512">
        <title id="footer-facebook_title">Facebook</title>
        <path d="M314.829,135.492h70.595c11.423,0,20.682-9.26,20.682-20.682V20.682C406.107,9.26,396.848,0,385.425,0h-70.595
            c-76.282,0-138.341,62.06-138.341,138.341v49.913h-49.913c-11.422,0-20.682,9.26-20.682,20.682v94.127
            c0,11.423,9.26,20.682,20.682,20.682h49.913v167.572c0,11.423,9.26,20.682,20.682,20.682h94.127
            c11.423,0,20.682-9.259,20.682-20.682V323.746h49.913c9.49,0,17.763-6.458,20.065-15.666l23.532-94.127
            c1.544-6.179,0.156-12.725-3.763-17.744c-3.919-5.02-9.932-7.954-16.301-7.954H311.98v-49.913
            C311.98,136.77,313.258,135.492,314.829,135.492z M291.298,229.619h67.637l-13.191,52.763h-54.447
            c-11.423,0-20.682,9.259-20.682,20.682v167.572h-52.763V303.064c0-11.423-9.26-20.682-20.682-20.682h-49.913v-52.763h49.913
            c11.422,0,20.682-9.26,20.682-20.682v-70.595c0-53.473,43.503-96.977,96.977-96.977h49.913v52.763h-49.913
            c-24.38,0-44.214,19.835-44.214,44.214v70.595C270.615,220.359,279.875,229.619,291.298,229.619z"/>
    </symbol>

    <symbol id="footer-twitter" role="img" aria-labelledby="footer-twitter_title" viewBox="0 0 512 512">
        <title id="footer-twitter_title">Twitter</title>
        <path d="M502.954,47.189c-7.126-4.852-16.515-4.774-23.559,0.196c-15.351,10.828-31.974,19.528-49.557,25.948
            c-19.253-17.414-43.615-27.826-69.915-29.656c-31.056-2.16-61.081,7.9-84.561,28.326c-25.59,22.259-40.174,54.444-40.046,88.349
            c-85.248-7.609-139.14-61.55-177.09-108.986c-4.598-5.746-11.901-8.619-19.182-7.538c-7.279,1.078-13.438,5.944-16.171,12.777
            c-0.948,2.369-23.141,58.799-17.453,127.057c4.761,57.133,30.23,131.964,120.039,181.717
            c-32.436,14.756-68.282,21.939-103.953,20.519c-9.576-0.378-18.15,5.859-20.736,15.08c-2.587,9.221,1.497,19.013,9.869,23.665
            c51.359,28.532,108.03,43.736,163.889,43.965c0.432,0.002,0.861,0.003,1.294,0.003c54.105-0.001,106.379-13.938,151.246-40.336
            c42.898-25.241,78.416-61.759,102.715-105.603c26.162-47.206,39.427-101.75,39.427-162.186c-0.011-3.544-0.186-7.098-0.52-10.638
            c20.7-22.885,35.388-50.567,42.719-80.667C513.451,60.803,510.081,52.04,502.954,47.189z M432.297,128.07
            c-4.916,4.847-7.088,11.827-5.793,18.607c0.877,4.588,1.329,9.278,1.344,13.874c0,101.956-44.378,186.544-121.756,232.072
            c-60.586,35.649-133.037,43.933-203.609,25.057c0.729-0.201,1.459-0.407,2.185-0.615c27.596-7.885,53.63-20.055,77.377-36.174
            c6.329-4.296,9.77-11.734,8.946-19.34c-0.825-7.605-5.778-14.134-12.881-16.975C97.757,312.434,53.563,257.594,46.757,181.575
            c-2.536-28.334,0.707-54.721,4.766-74.501c16.638,17.909,37.384,37.227,62.129,53.407c42.771,27.966,90.663,42.146,142.346,42.146
            c11.423,0,20.682-9.26,20.682-20.682v-21.393c0-0.045,0-0.091,0-0.137c-0.146-21.948,9.268-42.797,25.829-57.202
            c15.146-13.175,34.51-19.665,54.543-18.27c20.026,1.393,38.311,10.502,51.487,25.648c5.339,6.138,13.783,8.577,21.567,6.229
            c5.725-1.724,11.375-3.645,16.941-5.757C442.599,117.081,437.672,122.769,432.297,128.07z"/>
    </symbol>    

    <symbol id="footer-linkedin" role="img" aria-labelledby="footer-linkedin_title" viewBox="0 0 512 512">
        <title id="footer-linkedin_title">Linkedin</title>
        <path d="M2.5,510V153.7h137.3V510H2.5z M102.5,472.7V191H39.8v281.7H102.5z"/>
        <path d="M375.4,510l0.1-158.1c0.5-23.6-8.8-42.9-24.9-51.7c-5.4-3-11.2-4.5-17.3-4.5c-5.2,0-10.4,1.1-15.5,3.3l-1.1,211H176.1
            V153.7h140.6V166c16.6-6,33.6-9.1,50.6-9.1c24.7,0,48.3,6.4,70.2,18.9c44,25.2,72.5,71.8,72.5,118.8V510H375.4z M472.7,472.7V294.6
            c0-33.8-21.1-67.7-53.7-86.4c-15.9-9.1-33.8-13.9-51.7-14h-0.3c-20.1,0-40.1,5.8-59.6,17.3L279.4,228V191h-66.1v281.7h66.2l1-194.7
            l8.2-5.5c13.7-9.2,29.1-14.1,44.5-14.1c12.4,0,24.2,3,35.1,9c13.7,7.5,25,19.2,32.8,33.8c7.9,14.9,11.9,32.6,11.5,51.1l0,120.3
            H472.7z"/>
        <path d="M70.9,139.9C32.9,139.9,2,109,2,71c0-38,30.9-69,68.9-69c38,0,68.9,30.9,68.9,69C139.8,109,108.9,139.9,70.9,139.9z
             M70.9,39.3c-17.4,0-31.6,14.2-31.6,31.7c0,17.5,14.2,31.7,31.6,31.7c17.4,0,31.6-14.2,31.6-31.7C102.5,53.5,88.3,39.3,70.9,39.3z"
            />
    </symbol>

    <symbol id="footer-instagram" role="img" aria-labelledby="footer-instagram_title" viewBox="0 0 512 512">
        <title id="footer-instagram_title">Instagram</title>
        <path d="M373.659,0H138.341C62.06,0,0,62.06,0,138.341v235.318C0,449.94,62.06,512,138.341,512h235.318
            C449.94,512,512,449.94,512,373.659V138.341C512,62.06,449.94,0,373.659,0z M470.636,373.659
            c0,53.473-43.503,96.977-96.977,96.977H138.341c-53.473,0-96.977-43.503-96.977-96.977V138.341
            c0-53.473,43.503-96.977,96.977-96.977h235.318c53.473,0,96.977,43.503,96.977,96.977V373.659z"/>
        <path d="M370.586,238.141c-3.64-24.547-14.839-46.795-32.386-64.342c-17.547-17.546-39.795-28.746-64.341-32.385
            c-11.176-1.657-22.507-1.657-33.682,0c-30.336,4.499-57.103,20.541-75.372,45.172c-18.269,24.631-25.854,54.903-21.355,85.237
            c4.499,30.335,20.541,57.102,45.172,75.372c19.996,14.831,43.706,22.619,68.153,22.619c5.667,0,11.375-0.418,17.083-1.265
            c30.336-4.499,57.103-20.541,75.372-45.172C367.5,298.747,375.085,268.476,370.586,238.141z M267.791,327.632
            c-19.405,2.882-38.77-1.973-54.527-13.66c-15.757-11.687-26.019-28.811-28.896-48.216c-2.878-19.405,1.973-38.77,13.66-54.527
            c11.688-15.757,28.811-26.019,48.217-28.897c3.574-0.53,7.173-0.795,10.772-0.795s7.199,0.265,10.773,0.796
            c32.231,4.779,57.098,29.645,61.878,61.877C335.608,284.268,307.851,321.692,267.791,327.632z"/>
        <path d="M400.049,111.951c-3.852-3.851-9.183-6.058-14.625-6.058c-5.442,0-10.773,2.206-14.625,6.058
            c-3.851,3.852-6.058,9.174-6.058,14.625c0,5.451,2.207,10.773,6.058,14.625c3.852,3.851,9.183,6.058,14.625,6.058
            c5.442,0,10.773-2.206,14.625-6.058c3.851-3.852,6.058-9.183,6.058-14.625C406.107,121.133,403.9,115.802,400.049,111.951z"/>
    </symbol>

    <symbol id="footer-phone" role="img" aria-labelledby="footer-phone_title" viewBox="0 0 512 512">
        <title id="footer-phone_title"></title>
        <path d="M421.216,195.504c-5.092-26.101-17.723-49.836-36.526-68.64c-18.804-18.803-42.54-31.434-68.641-36.527
			c-11.21-2.189-22.073,5.128-24.261,16.339c-2.187,11.212,5.128,22.073,16.339,24.26c36.847,7.188,65.3,35.642,72.489,72.489
			c1.927,9.874,10.581,16.726,20.278,16.726c1.313,0,2.645-0.125,3.984-0.387C416.088,217.577,423.403,206.715,421.216,195.504z"/>
		<path d="M511.422,196.929c-5.629-50.096-28.373-97.304-64.042-132.927C411.712,28.378,364.475,5.694,314.371,0.128
			c-11.355-1.261-21.578,6.92-22.839,18.272c-1.261,11.353,6.919,21.578,18.272,22.84c84.961,9.438,150.966,75.36,160.512,160.31
			c1.188,10.566,10.139,18.374,20.527,18.374c0.771,0,1.552-0.043,2.336-0.131C504.53,218.516,512.698,208.281,511.422,196.929z"/>
		<path d="M432.59,312.566c-0.062-0.008-0.124-0.017-0.186-0.025c-20.013-2.639-39.751-7.557-58.619-14.596
			c-23.91-8.99-51.103-3.191-69.27,14.772c-0.028,0.028-0.056,0.055-0.083,0.083l-17.148,17.148
			c-42.633-26.924-78.756-63.047-105.679-105.679l17.149-17.149c0.027-0.028,0.054-0.055,0.082-0.083
			c17.964-18.166,23.762-45.356,14.79-69.223c-7.057-18.914-11.974-38.653-14.614-58.666c-0.007-0.063-0.017-0.127-0.026-0.19
			c-4.591-32.478-32.782-56.734-65.548-56.467H66.053c-1.943,0.002-3.912,0.091-5.853,0.267
			C24.143,26.016-2.541,58.001,0.718,94.058c0.01,0.108,0.02,0.215,0.032,0.323c7.684,72.354,32.649,142.88,72.197,203.955
			c35.892,56.461,84.701,105.269,141.162,141.164c60.792,39.406,130.99,64.369,203.013,72.196c0.127,0.015,0.254,0.027,0.38,0.038
			c1.961,0.176,3.949,0.266,5.921,0.266c0.083,0,0.165,0,0.247,0.001c36.204-0.148,65.538-29.722,65.391-65.841v-67.233
			C489.746,345.714,465.515,317.211,432.59,312.566z M447.698,378.695v67.548c0.055,13.396-10.8,24.338-24.19,24.393
			c-0.715-0.004-1.425-0.027-2.135-0.086c-65.578-7.161-129.488-29.914-184.837-65.808c-0.053-0.035-0.107-0.069-0.161-0.103
			c-51.429-32.68-95.885-77.137-128.565-128.565c-0.032-0.051-0.064-0.101-0.097-0.153C71.683,220.306,48.928,156.086,41.902,90.193
			C40.779,76.91,50.63,65.155,63.923,63.954c0.717-0.064,1.443-0.098,2.145-0.098h67.463c0.146-0.001,0.294-0.003,0.443-0.002
			c12.021,0,22.322,8.905,24.044,20.819c3.05,23.063,8.721,45.806,16.871,67.649c3.319,8.832,1.189,18.869-5.427,25.591
			l-28.517,28.517c-6.583,6.582-7.956,16.753-3.354,24.847c33.837,59.508,83.177,108.847,142.685,142.685
			c8.094,4.6,18.264,3.23,24.848-3.355l28.512-28.512c6.72-6.621,16.765-8.752,25.642-5.415
			c21.799,8.134,44.547,13.805,67.61,16.855c12.18,1.757,21.122,12.339,20.816,24.647
			C447.7,378.353,447.698,378.524,447.698,378.695z"/>
    </symbol>    

	<symbol id="footer-mail" role="img" aria-labelledby="footer-mail_title" viewBox="0 0 512 512">
        <title id="footer-mail_title"></title>
        <path d="M256,141.176c-63.306,0-114.809,51.503-114.809,114.809S192.694,370.795,256,370.795s114.809-51.503,114.809-114.809
			S319.306,141.176,256,141.176z M256,329.43c-40.498,0-73.445-32.947-73.445-73.445c0-40.498,32.947-73.445,73.445-73.445
			c40.499,0,73.445,32.947,73.445,73.445C329.445,296.483,296.499,329.43,256,329.43z"/>
		<path d="M437.008,74.97C388.656,26.623,324.375,0,256,0c-0.005,0-0.013,0-0.017,0C187.603,0.004,123.318,26.637,74.97,74.992
			C26.62,123.347-0.005,187.637,0,256.017c0.004,68.379,26.637,132.666,74.992,181.014C123.344,485.377,187.625,512.001,256,512
			c0.004,0,0.012,0,0.017,0c55.945-0.004,111.216-18.738,155.631-52.752c9.07-6.945,10.792-19.927,3.846-28.995
			c-6.945-9.069-19.926-10.794-28.995-3.846c-37.24,28.518-83.58,44.224-130.486,44.228c-0.006,0-0.006,0-0.014,0
			c-57.324,0-111.224-22.324-151.761-62.856c-40.542-40.536-62.871-94.435-62.875-151.766
			C41.357,137.663,137.636,41.372,255.986,41.364c0.007,0,0.006,0,0.014,0c118.34,0,214.628,96.279,214.636,214.622v23.532
			c0,27.523-22.39,49.913-49.913,49.913c-27.523,0-49.913-22.391-49.913-49.913v-23.532c0-11.422-9.259-20.682-20.682-20.682
			s-20.682,9.26-20.682,20.682v23.532c0,50.33,40.947,91.278,91.278,91.278S512,329.848,512,279.518v-23.534
			C511.995,187.604,485.362,123.318,437.008,74.97z"/>
    </symbol>

    <symbol id="footer-location" role="img" aria-labelledby="footer-location_title" viewBox="0 0 512 512">
        <title id="footer-location_title"></title>
        <path d="M406.766,62.449C366.495,22.178,312.951,0,256,0S145.505,22.178,105.234,62.449
			c-40.272,40.271-62.449,93.814-62.449,150.766c0,37.656,10.972,76.863,32.609,116.532c16.825,30.846,40.15,62.102,69.326,92.898
			c49.17,51.903,97.763,84.519,99.808,85.881C248.001,510.842,252,512,256,512c4,0,7.999-1.158,11.473-3.474
			c2.045-1.363,50.638-33.978,99.808-85.881c29.176-30.795,52.501-62.051,69.326-92.898c21.637-39.669,32.609-78.876,32.609-116.532
			C469.215,156.263,447.038,102.72,406.766,62.449z M256.001,465.903C215.826,436.156,84.15,329.739,84.15,213.215
			c0-94.759,77.091-171.851,171.85-171.851s171.85,77.092,171.851,171.851C427.851,329.748,296.159,436.168,256.001,465.903z"/>
		<path d="M256,128.355c-46.791,0-84.86,38.068-84.86,84.86c0,46.791,38.068,84.86,84.86,84.86c46.792,0,84.861-38.068,84.86-84.86
			C340.86,166.423,302.791,128.355,256,128.355z M256,256.71c-23.983,0-43.495-19.512-43.495-43.495
			c0-23.983,19.512-43.495,43.495-43.495c23.984,0,43.495,19.512,43.495,43.495C299.495,237.198,279.984,256.71,256,256.71z"/>
		</symbol>

	<symbol id="footer-time" role="img" aria-labelledby="footer-time_title" viewBox="0 0 512 512">
        <title id="footer-time_title"></title>
        <path d="M437.019,74.981C388.667,26.629,324.38,0,256,0S123.333,26.63,74.981,74.981S0,187.62,0,256
			s26.629,132.667,74.981,181.019C123.332,485.371,187.62,512,256,512s132.667-26.629,181.019-74.981
			C485.371,388.667,512,324.38,512,256S485.371,123.332,437.019,74.981z M256,470.636C137.65,470.636,41.364,374.35,41.364,256
			S137.65,41.364,256,41.364S470.636,137.65,470.636,256S374.35,470.636,256,470.636z"/>
		<path d="M341.221,311.97l-64.538-64.537V114.809c0-11.422-9.259-20.682-20.682-20.682c-11.422,0-20.682,9.26-20.682,20.682V256
			c0,5.486,2.179,10.746,6.058,14.625l70.594,70.595c4.038,4.039,9.332,6.058,14.625,6.058c5.293,0,10.586-2.019,14.626-6.058
			C349.297,333.142,349.297,320.047,341.221,311.97z"/>
	</symbol>

</svg>