<svg xmlns="http://www.w3.org/2000/svg" xmlns:xlink="http://www.w3.org/1999/xlink">
  
    <symbol id="header-nav01" role="img" aria-labelledby="header-nav01_title" viewBox="0 0 24 24">
        <title id="header-nav01_title"></title>
        <path d="M22.0100765,20.5489909 L16.5687924,15.1177834 C19.2757462,11.7569643 18.8558509,6.86045366 15.6162194,4.00957801 C12.376588,1.15870236 7.46642848,1.36476467 4.47705019,4.47705019 C1.36476467,7.46642848 1.15870236,12.376588 4.00957801,15.6162194 C6.86045366,18.8558509 11.7569643,19.2757462 15.1177834,16.5687924 L20.5489909,22 L21.9697706,20.5792203 L22.0100765,20.5489909 Z M10.2105513,16.2261931 C7.32607634,16.2287324 4.84153339,14.1932448 4.27649185,11.3646532 C3.7114503,8.5360616 5.22329881,5.70225185 7.88737688,4.59640813 C10.5514549,3.4905644 13.625701,4.42071227 15.2298777,6.81796472 C16.8340544,9.21521717 16.5213289,12.4118351 14.4829669,14.4527375 C13.3502338,15.5868824 11.8134758,16.224782 10.2105513,16.2261931 Z" />
    </symbol>

    <symbol id="header-nav02" role="img" aria-labelledby="header-nav02_title" viewBox="0 0 24 24">
        <title id="header-nav02_title"></title>
        <path d="M20.3333333,4 L3.66666667,4 C2.7475,4 2,4.74666667 2,5.66666667 L2,16.5 C2,17.4191667 2.7475,18.1666667 3.66666667,18.1666667 L11.1666667,18.1666667 L11.1666667,19.8333333 L7.83333333,19.8333333 L7.83333333,21.5 L16.1666667,21.5 L16.1666667,19.8333333 L12.8333333,19.8333333 L12.8333333,18.1666667 L20.3333333,18.1666667 C21.2525,18.1666667 22,17.4191667 22,16.5 L22,5.66666667 C22,4.74666667 21.2525,4 20.3333333,4 Z M20.3333333,5.66666667 L20.3316667,14 L3.66666667,14 L3.66666667,5.66666667 L20.3333333,5.66666667 Z M3.66666667,16.5 L3.66666667,15.6666667 L20.3308333,15.6666667 L20.3308333,16.5 L3.66666667,16.5 Z" />
    </symbol>

    <symbol id="header-nav03" role="img" aria-labelledby="header-nav03_title" viewBox="0 0 24 24">
        <title id="header-nav03_title"></title>
        <path d="M12.4763322,20.140888 L2.9536166,20.140888 C2.57435041,20.1421764 2.23062871,19.9178423 2.07913211,19.5701452 C1.9276355,19.2224481 1.99737224,18.8179642 2.25655383,18.5410718 L4.45153976,16.1756293 C3.46974779,14.8005491 2.95456888,13.2226352 2.95456888,11.570444 C2.95456888,6.84432027 7.22645908,3 12.4772844,3 C17.7281098,3 22,6.84432027 22,11.570444 C22,16.2965677 17.7271575,20.140888 12.4763322,20.140888 Z M5.13717528,18.2363449 L12.4763322,18.2363449 C16.676802,18.2363449 20.0945046,15.2462122 20.0945046,11.570444 C20.0945046,7.89562807 16.676802,4.90454311 12.4763322,4.90454311 C8.27586233,4.90454311 4.85815972,7.89562807 4.85815972,11.570444 C4.85815972,13.0340854 5.39904996,14.4272587 6.42178961,15.6004572 C6.74213832,15.9677174 6.73350834,16.5175706 6.40179191,16.8745966 L5.13717528,18.2363449 Z M9.34050193,10.897188 C9.58805119,11.1362791 9.68733123,11.4903369 9.60018368,11.8232791 C9.51303613,12.1562212 9.25302318,12.4162342 8.92008101,12.5033817 C8.58713885,12.5905293 8.23308103,12.4912493 7.99398995,12.2437 C7.6331055,11.8700487 7.63826665,11.2761114 8.00558998,10.908788 C8.3729133,10.5414647 8.96685068,10.5363036 9.34050193,10.897188 Z M13.1495882,10.897188 C13.3971374,11.1362791 13.4964175,11.4903369 13.4092699,11.8232791 C13.3221224,12.1562212 13.0621094,12.4162342 12.7291672,12.5033817 C12.3962251,12.5905293 12.0421673,12.4912493 11.8030762,12.2437 C11.4421917,11.8700487 11.4473529,11.2761114 11.8146762,10.908788 C12.1819995,10.5414647 12.7759369,10.5363036 13.1495882,10.897188 Z M16.9586744,10.897188 C17.2062236,11.1362791 17.3055037,11.4903369 17.2183561,11.8232791 C17.1312086,12.1562212 16.8711956,12.4162342 16.5382535,12.5033817 C16.2053113,12.5905293 15.8512535,12.4912493 15.6121624,12.2437 C15.2512779,11.8700487 15.2564391,11.2761114 15.6237624,10.908788 C15.9910857,10.5414647 16.5850231,10.5363036 16.9586744,10.897188 Z" />
    </symbol>

    <symbol id="header-nav04" role="img" aria-labelledby="header-nav04_title" viewBox="0 0 24 24">
        <title id="header-nav04_title"></title>
        <path d="M8.17222222,19.7777778 C8.94222222,21.1 10.36,22 12,22 C13.64,22 15.0577778,21.1 15.8277778,19.7777778 L8.17222222,19.7777778 Z M22,18.6666667 L2,18.6666667 L2,15.6433333 L2.76,15.3911111 C4.29749932,14.8793728 5.33440092,13.4404256 5.33333333,11.82 L5.33333333,8.66666667 C5.33333333,4.99 8.32333333,2 12,2 C15.6766667,2 18.6666667,4.99 18.6666667,8.66666667 L18.6666667,11.82 C18.6666667,13.4422222 19.7011111,14.8766667 21.24,15.3911111 L22,15.6433333 L22,18.6666667 Z M5.37222222,16.4444444 L18.6288889,16.4444444 C17.2442764,15.308402 16.4424841,13.6110166 16.4444444,11.82 L16.4444444,8.66666667 C16.4444444,6.21555556 14.4511111,4.22222222 12,4.22222222 C9.54888889,4.22222222 7.55555556,6.21555556 7.55555556,8.66666667 L7.55555556,11.82 C7.55555556,13.6511111 6.72777778,15.3311111 5.37222222,16.4444444 Z" />
    </symbol>

    <symbol id="header-avatar" role="img" aria-labelledby="header-avatar_title" viewBox="179.3 58.8 217.1 217.1">
        <title id="header-avatar_title"></title>
        <path fill="#dedede" d="M179.3 58.8h217.1v217.1H179.3z"/>
        <path fill="#f0f0f0" d="M241 229.4c-11.4 1.2-42.1 8.3-50.7 21.3 0 0-5.3 5-7.8 14.8-.5 1.8-1.1 5.5-2 10.3H363c-.6-5.3-1.2-10.4-2.2-14.7-3.4-14.8-36.2-24.8-47.5-29.9-7.2-3.1-8.6-9.9-5.2-19.4l.2-.6c8.2 1.8 20.8.2 24.5-15.4 5.4-22.7 5.4-71.4-9.4-93.7-19.9-29.8-78.3-21.5-87.1 15.2-8.3 34.3 10.8 56.4 17.1 72.9 4.7 12.9 2.2 37.7-12.4 39.2z" />
        <path fill="#dedede" opacity=".5" d="M274.8 196c12.3 6.6 24.9 13 33.6 15.4-2.2 8.6-2 9.7-2 9.7s-16.5-11.5-31.6-25.1z" />
    </symbol>

    <symbol id="profile-name" role="img" aria-labelledby="profile-name_title" viewBox="0 0 512 512">
        <title id="profile-name_title"></title>
        <path d="M256,0C114.8,0,0,114.8,0,256c0,141.2,114.8,256,256,256c141.2,0,256-114.8,256-256C512,114.8,397.2,0,256,0z
             M256,143.5c43.8,0,79.5,35.7,79.5,79.5s-35.7,79.5-79.5,79.5c-43.8,0-79.5-35.7-79.5-79.5S212.2,143.5,256,143.5z M256,341.5
            c57.5,0,109.4,33.7,132.8,86C350.5,457.3,304.6,473,256,473c-48.6,0-94.5-15.7-132.8-45.5C146.6,375.2,198.5,341.5,256,341.5z
             M328,317.1c29.2-22.4,46.5-57.2,46.5-94.1c0-65.3-53.2-118.5-118.5-118.5c-65.3,0-118.5,53.2-118.5,118.5
            c0,36.9,17.3,71.7,46.5,94.1c-38.8,16.4-70.7,45.5-90.6,82.5C58.3,359.9,39,309,39,256c0-119.7,97.3-217,217-217s217,97.3,217,217
            c0,53-19.3,103.9-54.4,143.6C398.7,362.5,366.7,333.5,328,317.1z"/>
    </symbol>

    <symbol id="profile-pin" role="img" aria-labelledby="profile-pin_title" viewBox="0 0 512 512">
        <title id="profile-pin_title"></title>
        <path d="M256,110.062c-52.412,0-95.053,42.641-95.053,95.053s42.641,95.053,95.053,95.053s95.053-42.641,95.053-95.053
            S308.413,110.062,256,110.062z M256,260.146c-30.344,0-55.031-24.687-55.031-55.031s24.687-55.031,55.031-55.031
            s55.031,24.687,55.031,55.031S286.344,260.146,256,260.146z"/>
        <path d="M256,0C142.899,0,50.885,92.015,50.885,205.115v5.67c0,57.2,32.794,123.856,97.474,198.113
            c46.888,53.832,93.121,91.368,95.065,92.94L256,512l12.576-10.161c1.945-1.572,48.178-39.108,95.065-92.94
            c64.679-74.258,97.474-140.913,97.474-198.113v-5.67C461.115,92.015,369.101,0,256,0z M421.093,210.786
            c0,96.665-124.551,213.68-165.093,249.202C215.447,424.455,90.907,307.444,90.907,210.786v-5.67
            c0-91.032,74.061-165.093,165.093-165.093s165.093,74.061,165.093,165.093V210.786z"/>
     </symbol>

     <symbol id="profile-zone" role="img" aria-labelledby="profile-zone_title" viewBox="0 0 512 512">
        <title id="profile-zone_title"></title>
        <path d="m256,11c-135.1,0-245,109.9-245,245 0,135.1 109.9,245 245,245 135.1,0 245-109.9 245-245 0-135.1-109.9-245-245-245zm203.1,224.6h-98.9c-2.1-65.6-14.7-129.7-37.2-172.5 73.6,25.7 128.2,92.3 136.1,172.5zm-203.1,224.6c-24.6,0-59.6-70.9-63.5-183.8h126.9c-3.8,112.8-38.8,183.8-63.4,183.8zm-63.5-224.6c3.8-112.8 38.9-183.8 63.5-183.8 24.6,0 59.6,70.9 63.5,183.8h-127zm-3.5-172.5c-22.5,42.8-35.1,106.8-37.3,172.4h-98.8c7.9-80.1 62.5-146.7 136.1-172.4zm-136.1,213.3h98.9c2.2,65.6 14.8,129.7 37.3,172.4-73.7-25.6-128.3-92.2-136.2-172.4zm270.1,172.5c22.5-42.8 35.1-106.8 37.3-172.4h98.9c-8,80.1-62.6,146.7-136.2,172.4z"/>
     </symbol>

     <symbol id="profile-member" role="img" aria-labelledby="profile-member_title" viewBox="0 0 512 512">
        <title id="profile-member_title"></title>
        <path d="M157.6,207.8c-8.5-9.2-23-9.8-32.2-1.3c-9.2,8.5-9.8,23-1.3,32.2l97.1,105.5c4.2,4.5,10.1,7.2,16.2,7.3c0.2,0,0.4,0,0.6,0
			c6,0,11.9-2.4,16.1-6.6L499.8,99.8c4.3-4.3,6.7-10,6.7-16.1c0-6.1-2.4-11.8-6.7-16.1l0,0c-4.3-4.3-10-6.7-16.1-6.7c0,0,0,0,0,0
			c-6.1,0-11.8,2.4-16.1,6.7L238.7,295.8L157.6,207.8z"/>
		<path d="M490,283.6c-12.1-2.6-24.1,5.2-26.7,17.3c-24.1,113.5-136.1,186.3-249.7,162.1C100.1,438.9,27.4,326.9,51.5,213.4
			C75.7,99.9,187.7,27.1,301.2,51.3c12.1,2.6,24.1-5.2,26.7-17.3c2.6-12.1-5.2-24.1-17.3-26.7C172.8-22,36.8,66.2,7.5,204
			c-29.3,137.8,59,273.7,196.8,303s273.7-59,303-196.8C509.9,298.2,502.2,286.2,490,283.6z"/>
     </symbol>

     <symbol id="profile-reccommendation" role="img" aria-labelledby="profile-reccommendation_title" viewBox="0 0 378.94 378.94">
        <title id="profile-reccommendation_title"></title>
        <path d="M348.151,54.514c-19.883-19.884-46.315-30.826-74.435-30.826c-28.124,0-54.559,10.942-74.449,30.826l-9.798,9.8l-9.798-9.8
        c-19.884-19.884-46.325-30.826-74.443-30.826c-28.117,0-54.56,10.942-74.442,30.826c-41.049,41.053-41.049,107.848,0,148.885
        l147.09,147.091c2.405,2.414,5.399,3.892,8.527,4.461c1.049,0.207,2.104,0.303,3.161,0.303c4.161,0,8.329-1.587,11.498-4.764
        l147.09-147.091C389.203,162.362,389.203,95.567,348.151,54.514z M325.155,180.404L189.47,316.091L53.782,180.404
        c-28.368-28.364-28.368-74.514,0-102.893c13.741-13.739,32.017-21.296,51.446-21.296c19.431,0,37.702,7.557,51.438,21.296
        l21.305,21.312c6.107,6.098,16.897,6.098,23.003,0l21.297-21.312c13.737-13.739,32.009-21.296,51.446-21.296
        c19.431,0,37.701,7.557,51.438,21.296C353.526,105.89,353.526,152.039,325.155,180.404z"/>
     </symbol>

     <symbol id="profile-verified01" role="img" aria-labelledby="profile-verified01_title" viewBox="0 0 329 329">
        <title id="profile-verified01_title"></title>
        <path d="M164.5,0C73.794,0,0,73.794,0,164.5S73.794,329,164.5,329S329,255.206,329,164.5S255.206,0,164.5,0z M179,231.519V247.5
            c0,1.657-1.343,3-3,3h-23c-1.657,0-3-1.343-3-3v-16.568c-12.122-2.911-23.325-9.124-31.031-17.265l-4.469-4.721
            c-0.547-0.578-0.842-1.35-0.82-2.145c0.022-0.795,0.359-1.549,0.937-2.097l16.706-15.81c1.205-1.139,3.105-1.084,4.241,0.117
            l4.468,4.721c5.681,6.003,15.768,10.036,25.101,10.036c7.379,0,19.867-1.949,19.867-9.256c0.053-6.313-2.682-8.848-22.011-14.702
            c-16.529-5.006-44.191-13.385-44.191-44.53c0-17.444,11.89-31.319,31.203-36.664V81.5c0-1.657,1.343-3,3-3h23c1.657,0,3,1.343,3,3
            v15.528c9.989,1.473,19.686,4.914,26.941,9.601l5.459,3.528c1.392,0.899,1.791,2.756,0.892,4.147l-12.48,19.319
            c-0.898,1.391-2.755,1.792-4.148,0.892l-5.46-3.527c-5.163-3.335-14.242-5.756-21.588-5.756c-7.733,0-20.82,2.116-20.82,10.047
            c0,7.46,3.097,10.566,23.598,16.775c17.063,5.168,42.85,12.977,42.604,42.577C213.999,213.425,200.662,227.389,179,231.519z"/>
     </symbol>

     <symbol id="profile-verified02" role="img" aria-labelledby="profile-verified02_title" viewBox="0 0 216 216">
        <title id="profile-verified02_title"></title>
        <path d="M108,0C48.353,0,0,48.353,0,108s48.353,108,108,108s108-48.353,108-108S167.647,0,108,0z M156.657,60L107.96,98.498
            L57.679,60H156.657z M161.667,156h-109V76.259l50.244,38.11c1.347,1.03,3.34,1.545,4.947,1.545c1.645,0,3.073-0.54,4.435-1.616
            l49.374-39.276V156z"/>
     </symbol>

     <symbol id="profile-verified03" role="img" aria-labelledby="profile-verified03_title" viewBox="0 0 510.4 510.4">
        <title id="profile-verified03_title"></title>
        <path fill="#ffffff" d="M175.2,383.2c-8.8,0-16-7.2-16-16c0-44.1,35.9-80,80-80h32c44.1,0,80,35.9,80,80c0,8.8-7.2,16-16,16H175.2z
                    "/>
        <path fill="#ffffff" d="M319.2,191.2c0,35.3-28.7,64-64,64c-35.3,0-64-28.7-64-64c0-35.3,28.7-64,64-64
            C290.5,127.2,319.2,155.9,319.2,191.2z"/>
        <path d="M271.2,287.2h-32c-44.1,0-80,35.9-80,80c0,8.8,7.2,16,16,16h160c8.8,0,16-7.2,16-16
            C351.2,323.1,315.3,287.2,271.2,287.2z M319.2,191.2c0-35.3-28.7-64-64-64c-35.3,0-64,28.7-64,64c0,35.3,28.7,64,64,64
            C290.5,255.2,319.2,226.5,319.2,191.2z M255.2,0c140.9,0,255.2,114.2,255.2,255.2S396.1,510.4,255.2,510.4S0,396.1,0,255.2
            C0,114.3,114.3,0,255.2,0z"/>
     </symbol>

     <symbol id="profile-verified04" role="img" aria-labelledby="profile-verified04_title" viewBox="0 0 512 512">
        <title id="profile-verified04_title"></title>
        <path d="M436.992,74.953c-99.989-99.959-262.08-99.935-362.039,0.055s-99.935,262.08,0.055,362.039s262.08,99.935,362.039-0.055
            c48.006-48.021,74.968-113.146,74.953-181.047C511.986,188.055,485.005,122.951,436.992,74.953z M387.703,356.605
            c-0.011,0.011-0.022,0.023-0.034,0.034v-0.085l-12.971,12.885c-16.775,16.987-41.206,23.976-64.427,18.432
            c-23.395-6.262-45.635-16.23-65.877-29.525c-18.806-12.019-36.234-26.069-51.968-41.899
            c-14.477-14.371-27.483-30.151-38.827-47.104c-12.408-18.242-22.229-38.114-29.184-59.051
            c-7.973-24.596-1.366-51.585,17.067-69.717l15.189-15.189c4.223-4.242,11.085-4.257,15.326-0.034
            c0.011,0.011,0.023,0.022,0.034,0.034l47.957,47.957c4.242,4.223,4.257,11.085,0.034,15.326c-0.011,0.011-0.022,0.022-0.034,0.034
            l-28.16,28.16c-8.08,7.992-9.096,20.692-2.389,29.867c10.185,13.978,21.456,27.131,33.707,39.339
            c13.659,13.718,28.508,26.197,44.373,37.291c9.167,6.394,21.595,5.316,29.525-2.56l27.221-27.648
            c4.223-4.242,11.085-4.257,15.326-0.034c0.011,0.011,0.022,0.022,0.034,0.034l48.043,48.128
            C391.911,345.502,391.926,352.363,387.703,356.605z"/>
     </symbol>

     <symbol id="profile-verified05" role="img" aria-labelledby="profile-verified05_title" viewBox="0 0 300 300">
        <title id="profile-verified05_title"></title>
        <path d="M149.997,0C67.157,0,0,67.159,0,149.997C0,232.838,67.157,300,149.997,300S300,232.838,300,149.997
            C299.997,67.159,232.838,0,149.997,0z M64.221,108.502c0-5.26,5.4-9.539,12.037-9.539H223.74c6.637,0,12.037,4.277,12.037,9.539
            v12.911H64.221V108.502z M235.777,191.501c0,5.26-5.4,9.539-12.038,9.539H76.258c-6.637,0-12.037-4.277-12.037-9.539v-54.526
            h171.556V191.501z"/>
        <rect x="78.351" y="165.562" width="28.53" height="15.562"/>
        <rect x="111.498" y="165.562" width="28.53" height="15.562"/>
     </symbol>

     <symbol id="profile-article01" role="img" aria-labelledby="profile-article01_title" viewBox="0 0 402 402">
        <title id="profile-article01_title"></title>
        <path d="M286.9,334.3c-3.6-3.6-7.9-5.4-12.8-5.4h-18.3V164.5c0-4.9-1.8-9.2-5.4-12.8c-3.6-3.6-7.9-5.4-12.8-5.4H127.9
			c-4.9,0-9.2,1.8-12.8,5.4c-3.6,3.6-5.4,7.9-5.4,12.8V201c0,4.9,1.8,9.2,5.4,12.8c3.6,3.6,7.9,5.4,12.8,5.4h18.3v109.6h-18.3
			c-4.9,0-9.2,1.8-12.8,5.4c-3.6,3.6-5.4,7.9-5.4,12.8v36.5c0,4.9,1.8,9.2,5.4,12.9c3.6,3.6,7.9,5.4,12.8,5.4h146.2
			c4.9,0,9.2-1.8,12.8-5.4c3.6-3.6,5.4-7.9,5.4-12.9v-36.5C292.4,342.2,290.6,337.9,286.9,334.3z"/>
		<circle cx="201.1" cy="54.9" r="55"/>
     </symbol>

     <symbol id="profile-article02" role="img" aria-labelledby="profile-article02_title" viewBox="0 0 488.78 488.78">
        <title id="profile-article02_title"></title>
        <path d="M141.408,119.872c12.293-13.112,29.653-20.77,47.624-20.77h247.405V47.828c0-12.569-10.468-22.652-23.036-22.652H75.397
			c-12.575,0-22.491,10.083-22.491,22.652v101.046h61.445L141.408,119.872z"/>
		<path d="M483.019,149.253c-1.709-1.924-3.717-3.55-5.923-4.78c-3.352-1.861-7.151-2.92-11.071-2.92H189.032l0,0
			c-6,0-11.735,2.409-15.983,6.601c-0.214,0.208-0.423,0.438-0.626,0.651l-9.275,9.911l-23.622,25.207
			c-0.542,0.573-1.105,1.219-1.694,1.736c-4.113,3.572-9.41,5.667-14.915,5.667h-0.005H22.768l0,0
			c-5.684,0-11.111,2.022-15.271,5.791c-0.667,0.589-1.293,1.179-1.888,1.857c-0.417,0.479-0.803,0.948-1.183,1.459
			c-3.482,4.744-5.02,10.661-4.217,16.542l26.479,194.182c3.565,26.14,23.553,46.612,48.692,51.284
			c3.592,0.667,7.288,1.163,11.058,1.163h314.261c27.761,0,51.522-19.003,58.354-45.194c0.704-2.706,1.226-5.567,1.555-8.42
			l15.265-132.289l12.772-110.674c0.067-0.647,0.108-1.293,0.125-1.929C488.947,159.299,486.909,153.623,483.019,149.253z"/>
     </symbol>

     <symbol id="profile-article03" role="img" aria-labelledby="profile-article03_title" viewBox="0 0 512 512">
        <title id="profile-article03_title"></title>
        <path d="m497.697 242.93c12.975-12.641 17.554-31.194 11.954-48.41-5.59-17.223-20.199-29.54-38.126-32.145l-110.687-16.083c-5.619-.82-10.474-4.347-12.986-9.435l-49.501-100.308c-8.015-16.235-24.244-26.32-42.352-26.32s-34.337 10.085-42.352 26.32c0 .001-49.501 100.307-49.501 100.307-2.512 5.09-7.367 8.617-12.977 9.435l-110.694 16.083c-17.928 2.606-32.537 14.923-38.124 32.137-5.603 17.225-1.024 35.779 11.947 48.416l80.098 78.084c4.063 3.959 5.917 9.662 4.96 15.249l-18.912 110.254c-3.056 17.85 4.143 35.548 18.788 46.186 14.648 10.643 33.708 12.022 49.744 3.599l99.002-52.052c5.022-2.639 11.019-2.638 16.036-.003l99.01 52.055c16.036 8.424 35.096 7.044 49.744-3.599 14.644-10.639 21.844-28.336 18.788-46.186l-18.913-110.249c-.957-5.592.896-11.295 4.962-15.257z"/>
     </symbol>

     <symbol id="profile-article04" role="img" aria-labelledby="profile-article04_title" viewBox="0 0 512 512">
        <title id="profile-article04_title"></title>
        <path d="m464.866 192.8h-10.87c-3.531-11.05-7.986-21.784-13.323-32.097l7.698-7.698c18.665-18.645 18.165-48.525.006-66.665l-22.711-22.71c-18.129-18.153-48.015-18.679-66.665-.007l-7.704 7.704c-10.313-5.336-21.048-9.792-32.097-13.323v-10.871c0-25.989-21.144-47.133-47.134-47.133h-32.133c-25.989 0-47.133 21.144-47.133 47.133v10.871c-11.049 3.53-21.784 7.986-32.097 13.323l-7.697-7.697c-18.613-18.635-48.498-18.198-66.664-.006l-22.713 22.711c-18.152 18.132-18.677 48.014-.006 66.665l7.704 7.704c-5.337 10.313-9.792 21.046-13.323 32.097h-10.87c-25.989-.001-47.134 21.143-47.134 47.132v32.134c0 25.989 21.145 47.133 47.134 47.133h10.87c3.531 11.05 7.986 21.784 13.323 32.097l-7.698 7.698c-18.665 18.645-18.165 48.525-.006 66.665l22.711 22.71c18.129 18.153 48.015 18.679 66.665.007l7.704-7.704c10.313 5.336 21.048 9.792 32.097 13.323v10.871c0 25.989 21.145 47.133 47.134 47.133h32.133c25.989 0 47.134-21.144 47.134-47.133v-10.871c11.049-3.53 21.784-7.986 32.097-13.323l7.697 7.697c18.613 18.635 48.497 18.198 66.664.006l22.713-22.712c18.152-18.132 18.677-48.014.006-66.665l-7.704-7.704c5.337-10.313 9.792-21.046 13.323-32.097h10.87c25.989 0 47.134-21.144 47.134-47.133v-32.134c-.001-25.987-21.146-47.131-47.135-47.131zm-208.866 174.6c-61.427 0-111.4-49.974-111.4-111.4s49.973-111.4 111.4-111.4 111.4 49.974 111.4 111.4-49.973 111.4-111.4 111.4z"/>
     </symbol>

    <symbol id="profile-article05" role="img" aria-labelledby="profile-article05_title" viewBox="0 0 512 512">
        <title id="profile-article05_title"></title>
        <path d="M256,356.7c-21.8,0-42.9-4.9-59.5-13.8L64.9,272.3v76.8c0,32,20.9,68.4,47.7,82.7l97.4,52.2c12.9,6.9,29.5,10.4,46.1,10.4
			c16.6,0,33.2-3.5,46.1-10.4l97.3-52.2c26.7-14.3,47.7-50.7,47.7-82.7v-76.8l-131.6,70.6C298.9,351.8,277.8,356.7,256,356.7z"/>
		<path d="M312.3,174.7c-7.5,23.7-29.9,40.9-56.3,40.9c-32.5,0-59-26.2-59-58.3S223.5,99,256,99c26.4,0,48.8,17.2,56.3,40.9h195.6
			c-4.1-8.3-11-15.6-20.4-21L302.1,11.3C289.6,4,273.2,0,256,0s-33.6,4-46.1,11.3L24.5,118.9C8.9,127.9,0,141.9,0,157.3
			c0,15.4,8.9,29.4,24.5,38.4l185.4,107.6c12.5,7.3,28.9,11.3,46.1,11.3h0c17.2,0,33.6-4,46.1-11.3L482,198.9v295.7
			c0,9.6,6.7,17.4,15,17.4s15-7.8,15-17.4V174.7H312.3z"/>
		<path d="M225,158.5c0,16.3,13.7,30,30,30c16.3,0,30-13.7,30-30c0-16.3-13.7-30-30-30C238.7,128.5,225,142.2,225,158.5z"/>
    </symbol>

    <symbol id="profile-article06" role="img" aria-labelledby="profile-article06_title" viewBox="0 0 612 612">
        <title id="profile-article06_title"></title>
        <path d="M589.105,80.63c-30.513-31.125-79.965-31.125-110.478,0L202.422,362.344l-69.061-70.438
			c-30.513-31.125-79.965-31.125-110.478,0c-30.513,31.125-30.513,81.572,0,112.678l124.29,126.776
			c30.513,31.125,79.965,31.125,110.478,0l331.453-338.033C619.619,162.202,619.619,111.755,589.105,80.63z"/>
    </symbol>

    <symbol id="profile-article07" role="img" aria-labelledby="profile-article07_title" viewBox="0 0 512 512">
        <title id="profile-article07_title"></title>
        <path d="M466.328,278.668c-13.5-12.707-31.128-19.708-49.692-19.708H369.78c-15.709,0-28.444-12.737-28.444-28.444
			c0-15.711,12.736-28.444,28.444-28.444h46.856c23.563,0,46.27,6.341,66.095,18.149c7.781-11.732,12.051-25.564,12.051-40.006
			c0-36.875-27.583-67.84-64.161-72.027c-7.809-0.895-14.901-4.98-19.593-11.291c-4.69-6.309-6.559-14.277-5.167-22.014
			c0.686-3.81,1.035-7.631,1.035-11.355C406.9,28.498,378.4,0,343.37,0c-26.139,0-49.309,15.864-58.922,39.856V472.14
			c9.614,23.994,32.783,39.86,58.922,39.86c35.03,0,63.53-28.499,63.53-63.534c0-4.007-0.393-8.078-1.164-12.096
			c-0.01-0.047-0.011-0.099-0.021-0.146c-2.416-12.396-8.435-23.694-17.419-32.675c-11.109-11.107-11.11-29.118-0.004-40.228
			c11.107-11.108,29.118-11.108,40.226-0.002c9.404,9.402,17.086,20.156,22.864,31.867c22.793-12.371,37.78-36.428,37.78-63.7
			c0-20.031-8.014-38.686-22.564-52.533C466.502,278.864,466.421,278.759,466.328,278.668z"/>
		<path d="M168.634,0c-35.03,0-63.53,28.498-63.53,63.528c0,3.717,0.349,7.538,1.037,11.355c1.392,7.737-0.478,15.705-5.167,22.014
			c-4.691,6.309-11.784,10.395-19.594,11.289c-36.578,4.187-64.161,35.152-64.161,72.029c0,14.442,4.274,28.278,12.051,40.008
			c19.831-11.81,42.538-18.151,66.101-18.151h46.856c15.709,0,28.444,12.734,28.444,28.444c0,15.707-12.736,28.444-28.444,28.444
			H95.37c-18.572,0-36.212,7.007-49.713,19.727c-0.087,0.087-0.163,0.184-0.252,0.267c-14.548,13.843-22.562,32.499-22.562,52.531
			c0,27.273,14.986,51.329,37.778,63.7c5.778-11.708,13.46-22.464,22.864-31.867c11.107-11.107,29.118-11.107,40.226,0
			c11.109,11.109,11.109,29.118,0,40.226c-8.99,8.992-15.011,20.3-17.425,32.704c-0.008,0.04-0.01,0.082-0.017,0.121
			c-0.772,4.018-1.164,8.09-1.164,12.096c0,35.034,28.499,63.534,63.53,63.534c26.139,0,49.311-15.868,58.925-39.86V39.858
			C217.945,15.866,194.772,0,168.634,0z"/>
    </symbol>

    <symbol id="profile-article08" role="img" aria-labelledby="profile-article08_title" viewBox="0 0 468.2 468.2">
        <title id="profile-article08_title"></title>
        <path d="M340.6,218.2c-27,32.5-64.7,51.4-106.5,51.4c-43,0-80.3-19.9-106.5-51.4c-56.1,33.9-93.5,93.7-93.5,161.7
			c0,20.6,11.8,49.3,68,69.1c35.1,12.3,81.9,19.1,132,19.1s96.9-6.8,132-19.1c56.2-19.8,68-48.5,68-69.1
			C434.1,311.9,396.7,252.1,340.6,218.2z"/>
		<path d="M234.1,220c62.1,0,110-50.4,110-110c0-59.6-47.9-110-110-110c-62.1,0-110,50.4-110,110C124.1,169.6,172,220,234.1,220z"
			/>
    </symbol>

    <symbol id="profile-article09" role="img" aria-labelledby="profile-article09_title" viewBox="0 0 192 192">
        <title id="profile-article09_title"></title>
        <path d="m156 68a27.952 27.952 0 0 0 -12 2.7v-26.7a4 4 0 0 0 -4-4h-22.7a28 28 0 1 0 -50.6 0h-38.7a4 4 0 0 0 -4 4v34.116a4 4 0 0 0 6.668 2.98 20 20 0 1 1 0 29.808 4 4 0 0 0 -6.668 2.98v34.116a4 4 0 0 0 4 4h38.7a28 28 0 1 0 50.6 0h22.7a4 4 0 0 0 4-4v-26.7a28 28 0 1 0 12-53.3z"/>
    </symbol>

    <symbol id="profile-reviews01" role="img" aria-labelledby="profile-reviews01_title" viewBox="0 0 512 512">
        <title id="profile-reviews01_title"></title>
        <path d="M256,0C114.8,0,0,114.8,0,256c0,141.2,114.8,256,256,256c141.2,0,256-114.8,256-256C512,114.8,397.2,0,256,0z
             M256,143.5c43.8,0,79.5,35.7,79.5,79.5s-35.7,79.5-79.5,79.5c-43.8,0-79.5-35.7-79.5-79.5S212.2,143.5,256,143.5z M256,341.5
            c57.5,0,109.4,33.7,132.8,86C350.5,457.3,304.6,473,256,473c-48.6,0-94.5-15.7-132.8-45.5C146.6,375.2,198.5,341.5,256,341.5z
             M328,317.1c29.2-22.4,46.5-57.2,46.5-94.1c0-65.3-53.2-118.5-118.5-118.5c-65.3,0-118.5,53.2-118.5,118.5
            c0,36.9,17.3,71.7,46.5,94.1c-38.8,16.4-70.7,45.5-90.6,82.5C58.3,359.9,39,309,39,256c0-119.7,97.3-217,217-217s217,97.3,217,217
            c0,53-19.3,103.9-54.4,143.6C398.7,362.5,366.7,333.5,328,317.1z"/>
    </symbol>

    <symbol id="profile-reviews02" role="img" aria-labelledby="profile-reviews02_title" viewBox="0 0 512 512">
        <title id="profile-reviews02_title"></title>
        <path d="M437.02,74.98C388.667,26.629,324.38,0,256,0S123.333,26.629,74.98,74.98C26.629,123.333,0,187.62,0,256
			s26.629,132.667,74.98,181.02C123.333,485.371,187.62,512,256,512s132.667-26.629,181.02-74.98
			C485.371,388.667,512,324.38,512,256S485.371,123.333,437.02,74.98z M256,472c-119.103,0-216-96.897-216-216S136.897,40,256,40
			s216,96.897,216,216S375.103,472,256,472z"/>
		<polygon points="276,236 276,76 236,76 236,276 388,276 388,236 		"/>
    </symbol>

    <symbol id="profile-reviews03" role="img" aria-labelledby="profile-reviews03_title" viewBox="0 0 512 512">
        <title id="profile-reviews03_title"></title>
        <path d="M510.941,196.256c-2.539-7.812-9.254-13.471-17.367-14.655l-150.876-22.036L275.169,22.913
            c-7.274-14.677-31.311-14.677-38.585,0l-67.529,136.672L18.416,181.6c-8.113,1.184-14.849,6.865-17.367,14.655
            c-2.518,7.79-0.43,16.334,5.445,22.058l108.977,106.373l-25.63,150.273c-1.399,8.07,1.915,16.226,8.565,21.046
            c3.744,2.712,8.178,4.089,12.632,4.089c3.422,0,6.865-0.818,10.071-2.496l134.8-70.908l135.037,70.929
            c7.252,3.787,16.054,3.206,22.66-1.657c6.628-4.82,9.921-12.976,8.543-21.068l-25.824-150.23l109.17-106.373
            C511.371,212.589,513.48,204.067,510.941,196.256z M358.128,301.767c-5.057,4.95-7.381,12.073-6.176,19.067l20.358,118.424
            l-106.437-55.93c-3.142-1.635-6.564-2.453-10.007-2.453c-3.465,0-6.908,0.818-10.028,2.475l-106.265,55.887l20.207-118.445
            c1.205-6.951-1.119-14.095-6.176-19.023l-85.929-83.863l118.768-17.388c6.994-0.99,13.041-5.401,16.183-11.728l53.24-107.728
            l53.24,107.707c3.142,6.327,9.189,10.738,16.183,11.75l118.919,17.388L358.128,301.767z"/>
    </symbol>

    <symbol id="profile-reviews04" role="img" aria-labelledby="profile-reviews04_title" viewBox="0 0 512 512">
        <title id="profile-reviews04_title"></title>
        <path d="M472,237V100H60c-11.028,0-20-8.972-20-20s8.972-20,20-20h372V20H60C26.916,20,0,46.916,0,80v352
			c0,33.084,26.916,60,60,60h412V357h40V237H472z M432,452H60c-11.028,0-20-8.972-20-20V136.56c6.26,2.22,12.989,3.44,20,3.44h372
			v97h-46c-33.084,0-60,26.916-60,60s26.916,60,60,60h46V452z M472,317h-86c-11.028,0-20-8.972-20-20s8.972-20,20-20h86V317z"/>
    </symbol>

    <symbol id="profile-verifications01" role="img" aria-labelledby="profile-verifications01_title" viewBox="0 0 512 512">
        <title id="profile-verifications01_title"></title>
        <path d="M256,0C114.615,0,0,114.615,0,256s114.615,256,256,256s256-114.615,256-256S397.385,0,256,0z M386.594,226.664
			L252.747,360.511c-7.551,7.551-17.795,11.794-28.475,11.794s-20.923-4.243-28.475-11.795l-70.388-70.389
			c-15.726-15.726-15.726-41.223,0.001-56.95c15.727-15.725,41.224-15.726,56.95,0.001l41.913,41.915l105.371-105.371
			c15.727-15.726,41.223-15.726,56.951,0.001C402.319,185.44,402.319,210.938,386.594,226.664z"/>
    </symbol>

    <symbol id="profile-verifications02" role="img" aria-labelledby="profile-verifications02_title" viewBox="0 0 512 512">
        <title id="profile-verifications02_title"></title>
        <path d="M256,0C114.509,0,0,114.497,0,256c0,141.491,114.497,256,256,256c141.491,0,256-114.497,256-256
			C512,114.509,397.503,0,256,0z M368.32,305.16c17.441,17.441,17.441,45.718,0,63.159c-17.441,17.441-45.718,17.442-63.159,0
			l-49.16-49.16l-49.16,49.16c-17.441,17.441-45.718,17.442-63.159,0c-17.441-17.441-17.441-45.718,0-63.159l49.16-49.16
			l-49.16-49.16c-17.441-17.441-17.441-45.718,0-63.159c17.441-17.441,45.718-17.441,63.159,0l49.16,49.16l49.16-49.16
			c17.441-17.441,45.718-17.441,63.159,0c17.441,17.441,17.441,45.718,0,63.159L319.16,256L368.32,305.16z"/>
    </symbol>

</svg>