<svg xmlns="http://www.w3.org/2000/svg" xmlns:xlink="http://www.w3.org/1999/xlink">

	<symbol id="services01" role="img" aria-labelledby="services01_title" viewBox="0 0 512 512">
        <title id="services01_title"></title>
        <path d="M511.1,188.2L455.1,12c-2.1-6.5-7.3-10.7-13.1-10.7H70c-5.8,0-11,4.3-13.1,10.7l-56,176.2c-1.6,5.1-1,10.8,1.6,15.3
			c2.6,4.5,6.9,7.1,11.5,7.1h35.1v284.9c0,9.1,6.3,16.6,14,16.6h237h89.6h59.2c7.7,0,14-7.4,14-16.6V210.6H498
			c4.6,0,8.9-2.7,11.5-7.1C512.1,199,512.7,193.3,511.1,188.2z M375.7,478.9h-61.6V292.2h61.6V478.9z M434.9,478.9h-31.2V275.7
			c0-9.1-6.3-16.6-14-16.6h-89.6c-7.7,0-14,7.4-14,16.6v203.2h-209V210.6h357.8L434.9,478.9L434.9,478.9z M448.9,177.5L448.9,177.5
			l-385.8,0H34.2L79.7,34.4h352.6l25.4,80.1H154.1c-7.7,0-14,7.4-14,16.6c0,9.1,6.3,16.6,14,16.6h314.2l9.5,29.9H448.9z"/>
		<path d="M246.6,259.1H125.5c-7.7,0-14,7.4-14,16.6v102.4c0,9.1,6.3,16.6,14,16.6h121.1c7.7,0,14-7.4,14-16.6V275.7
			C260.6,266.5,254.3,259.1,246.6,259.1z M232.6,361.5h-93.1v-69.3h93.1L232.6,361.5L232.6,361.5z"/>
		<path d="M125.8,127.8c-0.2-1.1-0.4-2.1-0.8-3.1c-0.3-1-0.8-2-1.3-2.9c-0.5-0.9-1.1-1.8-1.7-2.5c-0.7-0.8-1.4-1.5-2.1-2.1
			c-0.8-0.6-1.6-1.1-2.4-1.5c-0.8-0.4-1.7-0.7-2.6-0.9c-1.8-0.4-3.7-0.4-5.5,0c-0.9,0.2-1.8,0.5-2.6,0.9c-0.8,0.4-1.7,0.9-2.4,1.5
			c-0.8,0.6-1.5,1.3-2.1,2.1c-0.6,0.8-1.2,1.6-1.7,2.5c-0.5,0.9-0.9,1.9-1.3,2.9c-0.3,1-0.6,2-0.8,3.1c-0.2,1.1-0.3,2.2-0.3,3.2
			c0,1.1,0.1,2.2,0.3,3.2c0.2,1.1,0.4,2.1,0.8,3.1c0.3,1,0.8,2,1.3,2.8c0.5,0.9,1.1,1.8,1.7,2.5c2.6,3.1,6.2,4.9,9.9,4.9
			c0.9,0,1.8-0.1,2.7-0.3c0.9-0.2,1.8-0.5,2.6-0.9c0.8-0.4,1.7-0.9,2.4-1.5c0.8-0.6,1.5-1.3,2.1-2.1c0.6-0.8,1.2-1.6,1.7-2.5
			c0.5-0.9,0.9-1.9,1.3-2.8c0.3-1,0.6-2.1,0.8-3.1c0.2-1.1,0.3-2.2,0.3-3.2C126.1,129.9,126,128.8,125.8,127.8z"/>
    </symbol>

    <symbol id="services02" role="img" aria-labelledby="services02_title" viewBox="0 0 512 512">
        <title id="services02_title"></title>
        <path d="M451.003,60.935c-81.198-81.198-213.317-81.198-294.518,0c-69.317,69.319-79.444,175.741-30.413,255.919l-39.297,39.3
			L14.268,428.66c-19.025,19.025-19.025,49.983,0,69.012c9.216,9.216,21.471,14.292,34.505,14.292
			c13.036,0,25.291-5.076,34.507-14.292l72.506-72.506l39.259-39.259c32.393,19.896,69.726,30.543,108.701,30.543
			c55.627,0,107.923-21.662,147.258-60.996C490.34,316.12,512,263.823,512,208.196C511.999,152.566,490.337,100.27,451.003,60.935z
			 M60.592,474.984c-3.157,3.157-7.354,4.896-11.818,4.896c-4.463,0-8.66-1.739-11.817-4.894c-6.516-6.518-6.518-17.122,0-23.637
			l61.163-61.163l23.635,23.635L60.592,474.984z M144.442,391.132l-23.637-23.637l24.334-24.334c0.014,0.018,0.03,0.034,0.045,0.05
			c1.651,1.936,3.35,3.844,5.082,5.732c0.322,0.351,0.646,0.699,0.971,1.048c1.715,1.842,3.454,3.669,5.247,5.462
			c1.826,1.826,3.688,3.6,5.568,5.349c0.265,0.245,0.526,0.492,0.792,0.736c1.949,1.795,3.926,3.55,5.931,5.262L144.442,391.132z
			 M428.314,332.764c-33.273,33.275-77.513,51.6-124.57,51.6c-36.737,0-71.757-11.17-101.183-31.902
			c-0.114-0.087-0.218-0.183-0.335-0.266c-4.067-2.875-8.023-5.934-11.846-9.152c-0.059-0.051-0.12-0.101-0.181-0.152
			c-1.824-1.538-3.614-3.119-5.374-4.729c-0.191-0.175-0.379-0.353-0.568-0.528c-1.726-1.595-3.427-3.215-5.084-4.872
			c-1.617-1.615-3.194-3.276-4.75-4.957c-0.252-0.271-0.507-0.542-0.757-0.817c-1.514-1.657-3-3.343-4.452-5.06
			c-0.197-0.233-0.39-0.467-0.586-0.699c-2.95-3.521-5.761-7.158-8.421-10.886c-48.988-68.757-42.676-165.08,18.964-226.72
			c34.348-34.348,79.453-51.516,124.571-51.516c45.108,0,90.231,17.176,124.57,51.516c33.275,33.275,51.6,77.515,51.6,124.571
			C479.913,255.251,461.589,299.491,428.314,332.764z"/>
		<path d="M401.18,110.759c-33.878-33.875-82-47.629-128.71-36.78c-7.545,1.752-14.985,4.157-22.117,7.15
			c-8.169,3.428-12.012,12.831-8.584,21.001c3.428,8.17,12.826,12.009,21.001,8.584c5.466-2.294,11.17-4.137,16.955-5.48
			c35.859-8.329,72.777,2.223,98.767,28.214c41.216,41.216,41.216,108.28,0,149.496c-41.214,41.217-108.282,41.217-149.496,0
			c-20.449-20.449-31.441-47.641-30.947-76.567c0.152-8.859-6.908-16.163-15.765-16.313c-0.095-0.003-0.186-0.003-0.281-0.003
			c-8.73,0-15.883,7.002-16.034,15.768c-0.642,37.703,13.682,73.146,40.34,99.802c26.863,26.863,62.149,40.295,97.436,40.293
			c35.287,0,70.573-13.431,97.436-40.293C454.906,251.903,454.906,164.484,401.18,110.759z"/>
		<path d="M229,110.762l-0.005-0.005c-6.263-6.263-16.421-6.263-22.685,0.003c-6.264,6.265-6.263,16.424,0.002,22.69
			c3.135,3.131,7.238,4.699,11.345,4.699s8.21-1.567,11.343-4.699C235.265,127.186,235.265,117.028,229,110.762z"/>
    </symbol>

    <symbol id="services03" role="img" aria-labelledby="services03_title" viewBox="0 0 512 512">
        <title id="services03_title"></title>
        <path d="M126.722,481.641H83.207c-8.384,0-15.179,6.796-15.179,15.179c0,8.384,6.796,15.179,15.179,15.179h43.515
			c8.384,0,15.179-6.796,15.179-15.179C141.901,488.437,135.105,481.641,126.722,481.641z"/>
		<path d="M428.791,481.641h-43.515c-8.384,0-15.179,6.796-15.179,15.179c0,8.384,6.796,15.179,15.179,15.179h43.515
			c8.384,0,15.179-6.796,15.179-15.179C443.971,488.437,437.175,481.641,428.791,481.641z"/>
		<path d="M511.451,177.289c-2.719-35.195-31.394-62.917-66.692-64.485c-0.961-0.044-1.92-0.065-2.884-0.071
			c-0.094,0-0.187,0-0.281,0c-3.693,0-7.339,0.326-10.917,0.929c1.79-29.006-8.361-57.745-28.088-79.154
			C382.379,12.578,353.685,0,323.864,0H188.135c-29.821,0-58.515,12.578-78.723,34.507c-19.729,21.409-29.878,50.15-28.088,79.156
			c-3.676-0.621-7.421-0.949-11.21-0.932c-0.953,0.005-1.911,0.027-2.864,0.07c-35.307,1.57-63.981,29.292-66.7,64.487
			c-2.36,30.532,15.541,58.782,42.939,70.239v143.266v61.124c0,8.384,6.796,15.179,15.179,15.179h394.663
			c8.384,0,15.179-6.796,15.179-15.179v-61.124V247.527C495.91,236.07,513.811,207.819,511.451,177.289z M131.737,55.08
			c14.691-15.941,34.72-24.721,56.397-24.721h135.729c21.679,0,41.708,8.78,56.397,24.721c14.691,15.941,21.807,36.62,20.038,58.225
			l-1.242,15.185c-0.137,0.115-0.263,0.24-0.398,0.357c-0.595,0.518-1.184,1.044-1.762,1.585c-0.364,0.339-0.726,0.68-1.082,1.026
			c-0.172,0.167-0.351,0.323-0.521,0.493c-0.237,0.235-0.457,0.481-0.689,0.719c-0.455,0.466-0.909,0.932-1.351,1.41
			c-0.328,0.354-0.644,0.715-0.962,1.075c-0.451,0.509-0.902,1.017-1.336,1.539c-0.346,0.414-0.677,0.841-1.012,1.263
			c-0.369,0.466-0.745,0.926-1.102,1.401c-0.524,0.695-1.025,1.407-1.521,2.121c-0.146,0.209-0.301,0.413-0.443,0.625
			c-4.071,6.005-7.11,12.596-9.057,19.549c-0.014,0.049-0.027,0.097-0.041,0.146c-0.299,1.078-0.572,2.163-0.818,3.258
			c-0.029,0.126-0.058,0.25-0.085,0.376c-0.222,1.011-0.417,2.028-0.594,3.053c-0.033,0.197-0.071,0.393-0.103,0.591
			c-0.153,0.95-0.284,1.906-0.398,2.867c-0.032,0.26-0.068,0.518-0.097,0.779c-0.099,0.924-0.172,1.855-0.234,2.788
			c-0.018,0.281-0.049,0.56-0.064,0.841c-0.064,1.196-0.103,2.395-0.105,3.602l-0.132,72.445
			c-11.992-8.708-26.725-13.863-42.646-13.863H179.495c-15.922,0-30.653,5.155-42.646,13.863l-0.132-72.445
			c-0.002-1.207-0.041-2.406-0.105-3.602c-0.015-0.282-0.044-0.56-0.064-0.841c-0.062-0.934-0.135-1.862-0.234-2.788
			c-0.029-0.261-0.065-0.519-0.097-0.779c-0.114-0.961-0.244-1.916-0.398-2.867c-0.032-0.197-0.07-0.395-0.103-0.591
			c-0.175-1.025-0.372-2.042-0.594-3.053c-0.027-0.126-0.056-0.252-0.085-0.376c-0.246-1.094-0.519-2.181-0.818-3.258
			c-0.014-0.049-0.027-0.097-0.041-0.146c-1.948-6.954-4.988-13.545-9.057-19.549c-0.143-0.211-0.298-0.414-0.443-0.625
			c-0.495-0.713-0.996-1.424-1.521-2.121c-0.357-0.475-0.732-0.937-1.102-1.401c-0.336-0.422-0.666-0.849-1.013-1.263
			c-0.434-0.522-0.885-1.029-1.336-1.539c-0.319-0.36-0.635-0.721-0.962-1.075c-0.442-0.477-0.894-0.944-1.351-1.41
			c-0.232-0.238-0.454-0.484-0.689-0.719c-0.168-0.167-0.346-0.323-0.516-0.489c-0.364-0.354-0.733-0.701-1.107-1.047
			c-0.563-0.524-1.135-1.037-1.712-1.539c-0.144-0.124-0.281-0.26-0.428-0.386l-1.242-15.185
			C109.93,91.7,117.047,71.021,131.737,55.08z M260.616,312.892H137.099v-1.6c0-23.376,19.018-42.396,42.396-42.396h153.013
			c23.376,0,42.396,19.018,42.396,42.396v63.204h-0.002H137.099v-31.245h123.518c8.384,0,15.179-6.796,15.179-15.179
			S269,312.892,260.616,312.892z M61.904,221.634c-19.247-4.205-32.613-22.262-31.087-42.007
			c1.513-19.59,18.109-35.621,37.788-36.496c0.556-0.024,1.108-0.038,1.647-0.039c0.05,0,0.1,0,0.15,0
			c6.94,0,13.614,2.049,19.357,5.865c0.049,0.033,0.093,0.074,0.143,0.108c1.243,0.835,2.424,1.743,3.544,2.708
			c0.065,0.056,0.131,0.111,0.194,0.167c0.492,0.43,0.968,0.874,1.435,1.328c0.065,0.064,0.134,0.124,0.199,0.188
			c0.475,0.471,0.935,0.953,1.383,1.447c0.223,0.246,0.436,0.499,0.651,0.75c0.234,0.272,0.469,0.543,0.694,0.823
			c0.209,0.258,0.413,0.521,0.616,0.783c0.234,0.305,0.464,0.612,0.689,0.924c0.168,0.234,0.337,0.467,0.499,0.704
			c0.291,0.427,0.574,0.858,0.849,1.295c0.082,0.131,0.17,0.26,0.25,0.392c0.757,1.243,1.442,2.53,2.049,3.856
			c0.021,0.046,0.039,0.091,0.061,0.137c0.287,0.633,0.557,1.274,0.808,1.922c0.018,0.046,0.036,0.093,0.053,0.138
			c0.792,2.069,1.403,4.214,1.82,6.415c0.017,0.088,0.03,0.176,0.046,0.264c0.109,0.601,0.203,1.207,0.284,1.817
			c0.024,0.181,0.047,0.36,0.067,0.54c0.064,0.539,0.112,1.081,0.153,1.626c0.014,0.193,0.032,0.384,0.044,0.577
			c0.042,0.713,0.068,1.43,0.07,2.149l0.357,195.603H73.848V236.464C73.848,229.328,68.878,223.155,61.904,221.634z
			 M438.152,436.738H73.848v-30.766h364.305V436.738z M450.096,221.631c-6.972,1.521-11.943,7.694-11.943,14.83v139.152h-32.866
			l0.357-195.603c0.002-0.719,0.027-1.436,0.07-2.149c0.011-0.193,0.029-0.386,0.044-0.577c0.039-0.545,0.09-1.087,0.153-1.626
			c0.021-0.181,0.044-0.361,0.067-0.54c0.081-0.609,0.175-1.214,0.284-1.817c0.015-0.088,0.029-0.176,0.046-0.264
			c0.417-2.199,1.028-4.346,1.82-6.415c0.018-0.046,0.035-0.093,0.053-0.138c0.252-0.648,0.521-1.29,0.808-1.922
			c0.021-0.046,0.039-0.091,0.061-0.137c0.607-1.325,1.292-2.611,2.049-3.856c0.08-0.132,0.167-0.261,0.25-0.392
			c0.273-0.437,0.556-0.87,0.849-1.295c0.162-0.237,0.331-0.471,0.499-0.704c0.225-0.311,0.454-0.619,0.689-0.924
			c0.202-0.263,0.405-0.525,0.616-0.783c0.226-0.278,0.46-0.549,0.694-0.823c0.216-0.25,0.428-0.504,0.651-0.75
			c0.448-0.493,0.906-0.978,1.383-1.447c0.065-0.064,0.134-0.124,0.199-0.188c0.468-0.454,0.946-0.899,1.437-1.33
			c0.062-0.055,0.126-0.108,0.188-0.162c1.12-0.967,2.303-1.875,3.547-2.711c0.052-0.033,0.096-0.076,0.146-0.111
			c5.741-3.815,12.411-5.862,19.343-5.862c0.049,0,0.099,0,0.149,0c0.549,0.001,1.104,0.015,1.667,0.041
			c19.671,0.874,36.267,16.905,37.78,36.496C482.708,199.372,469.343,217.429,450.096,221.631z"/>
		<path d="M316.884,317.34c-0.698-0.698-1.472-1.336-2.307-1.882c-0.82-0.546-1.7-1.017-2.611-1.396
			c-0.926-0.38-1.882-0.668-2.854-0.865c-4.933-1.002-10.17,0.622-13.692,4.144c-2.823,2.823-4.448,6.74-4.448,10.732
			s1.624,7.908,4.448,10.732s6.74,4.448,10.732,4.448c0.987,0,1.988-0.091,2.96-0.288s1.928-0.501,2.854-0.88
			c0.911-0.38,1.791-0.85,2.611-1.397c0.835-0.546,1.609-1.184,2.307-1.882c2.823-2.823,4.448-6.74,4.448-10.732
			C321.332,324.079,319.708,320.163,316.884,317.34z"/>
    </symbol>

    <symbol id="services04" role="img" aria-labelledby="services04_title" viewBox="0 0 480 480">
        <title id="services04_title"></title>
        <path d="M416,454.3c0,4.7-3.6,8.6-8,8.6H24c-4.4,0-8-3.8-8-8.6V85.7h400v77.1h16V25.7C432,11.5,421.3,0,408,0H24
            C10.7,0,0,11.5,0,25.7v428.6C0,468.5,10.7,480,24,480h384c13.3,0,24-11.5,24-25.7v-51.4h-16V454.3z M24,16h384c4.4,0,8,3.6,8,8v40
            H16V24C16,19.6,19.6,16,24,16z"/>
        <path d="M48,32h16v16H48V32z"/>
        <path d="M80,32h16v16H80V32z"/>
        <path d="M112,32h16v16h-16V32z"/>
        <path d="M160,112h16v16h-16V112z"/>
        <path d="M192,112h16v16h-16V112z"/>
        <path d="M224,112h16v16h-16V112z"/>
        <path d="M256,112h16v16h-16V112z"/>
        <path d="M176,32h176v16H176V32z"/>
        <path d="M456,187H248c-13.3,0-24,10.7-24,24v144c0,13.3,10.7,24,24,24h40v40c0,3.2,1.9,6.2,4.9,7.4s6.4,0.6,8.7-1.7l45.7-45.7H456
            c13.3,0,24-10.7,24-24V211C480,197.7,469.3,187,456,187z M464,355c0,4.4-3.6,8-8,8H344c-2.1,0-4.2,0.8-5.7,2.3L304,399.7V371
            c0-4.4-3.6-8-8-8h-48c-4.4,0-8-3.6-8-8V211c0-4.4,3.6-8,8-8h208c4.4,0,8,3.6,8,8V355z"/>
        <path d="M298.3,325.3l96-96l11.3,11.3l-96,96L298.3,325.3z"/>
        <path d="M384,291c-13.3,0-24,10.7-24,24s10.7,24,24,24s24-10.7,24-24S397.3,291,384,291z M384,323c-4.4,0-8-3.6-8-8s3.6-8,8-8
            s8,3.6,8,8S388.4,323,384,323z"/>
        <path d="M320,275c13.3,0,24-10.7,24-24s-10.7-24-24-24s-24,10.7-24,24S306.7,275,320,275z M320,243c4.4,0,8,3.6,8,8s-3.6,8-8,8
            s-8-3.6-8-8S315.6,243,320,243z"/>
        <path d="M175,250h8c3.3,0,6.3-2.1,7.5-5.2s0.3-6.6-2.2-8.8l-64-56c-3-2.6-7.5-2.6-10.5,0l-64,56c-2.5,2.2-3.4,5.7-2.2,8.8
            s4.2,5.2,7.5,5.2h8v56c0,4.4,3.6,8,8,8h96c4.4,0,8-3.6,8-8V250z M119,196.6l42.7,37.4H76.3L119,196.6z M111,298v-16h16v16H111z
             M159,298h-16v-24c0-4.4-3.6-8-8-8h-32c-4.4,0-8,3.6-8,8v24H79v-48h80V298z"/>
        <path d="M63,330h32v16H63V330z"/>
        <path d="M111,330h64v16h-64V330z"/>
        <path d="M63,370h112v16H63V370z"/>
        <path d="M63,410h112v16H63V410z"/>
    </symbol>

    <symbol id="check" role="img" aria-labelledby="check_title" viewBox="0 0 448 448">
        <title id="check_title"></title>
        <polygon points="341.333,192.96 341.333,381.12 42.667,381.12 42.667,82.453 308.693,82.453 355.627,39.787 0,39.787 0,423.787 
            384,423.787 384,153.707         "/>
        <polygon points="417.493,24.213 186.027,234.56 113.493,162.24 85.333,190.4 187.947,293.013 448,54.08        "/>
    </symbol>

    <symbol id="footer-facebook" role="img" aria-labelledby="footer-facebook_title" viewBox="0 0 512 512">
        <title id="footer-facebook_title">Facebook</title>
        <path d="M314.829,135.492h70.595c11.423,0,20.682-9.26,20.682-20.682V20.682C406.107,9.26,396.848,0,385.425,0h-70.595
            c-76.282,0-138.341,62.06-138.341,138.341v49.913h-49.913c-11.422,0-20.682,9.26-20.682,20.682v94.127
            c0,11.423,9.26,20.682,20.682,20.682h49.913v167.572c0,11.423,9.26,20.682,20.682,20.682h94.127
            c11.423,0,20.682-9.259,20.682-20.682V323.746h49.913c9.49,0,17.763-6.458,20.065-15.666l23.532-94.127
            c1.544-6.179,0.156-12.725-3.763-17.744c-3.919-5.02-9.932-7.954-16.301-7.954H311.98v-49.913
            C311.98,136.77,313.258,135.492,314.829,135.492z M291.298,229.619h67.637l-13.191,52.763h-54.447
            c-11.423,0-20.682,9.259-20.682,20.682v167.572h-52.763V303.064c0-11.423-9.26-20.682-20.682-20.682h-49.913v-52.763h49.913
            c11.422,0,20.682-9.26,20.682-20.682v-70.595c0-53.473,43.503-96.977,96.977-96.977h49.913v52.763h-49.913
            c-24.38,0-44.214,19.835-44.214,44.214v70.595C270.615,220.359,279.875,229.619,291.298,229.619z"/>
    </symbol>

    <symbol id="footer-twitter" role="img" aria-labelledby="footer-twitter_title" viewBox="0 0 512 512">
        <title id="footer-twitter_title">Twitter</title>
        <path d="M502.954,47.189c-7.126-4.852-16.515-4.774-23.559,0.196c-15.351,10.828-31.974,19.528-49.557,25.948
            c-19.253-17.414-43.615-27.826-69.915-29.656c-31.056-2.16-61.081,7.9-84.561,28.326c-25.59,22.259-40.174,54.444-40.046,88.349
            c-85.248-7.609-139.14-61.55-177.09-108.986c-4.598-5.746-11.901-8.619-19.182-7.538c-7.279,1.078-13.438,5.944-16.171,12.777
            c-0.948,2.369-23.141,58.799-17.453,127.057c4.761,57.133,30.23,131.964,120.039,181.717
            c-32.436,14.756-68.282,21.939-103.953,20.519c-9.576-0.378-18.15,5.859-20.736,15.08c-2.587,9.221,1.497,19.013,9.869,23.665
            c51.359,28.532,108.03,43.736,163.889,43.965c0.432,0.002,0.861,0.003,1.294,0.003c54.105-0.001,106.379-13.938,151.246-40.336
            c42.898-25.241,78.416-61.759,102.715-105.603c26.162-47.206,39.427-101.75,39.427-162.186c-0.011-3.544-0.186-7.098-0.52-10.638
            c20.7-22.885,35.388-50.567,42.719-80.667C513.451,60.803,510.081,52.04,502.954,47.189z M432.297,128.07
            c-4.916,4.847-7.088,11.827-5.793,18.607c0.877,4.588,1.329,9.278,1.344,13.874c0,101.956-44.378,186.544-121.756,232.072
            c-60.586,35.649-133.037,43.933-203.609,25.057c0.729-0.201,1.459-0.407,2.185-0.615c27.596-7.885,53.63-20.055,77.377-36.174
            c6.329-4.296,9.77-11.734,8.946-19.34c-0.825-7.605-5.778-14.134-12.881-16.975C97.757,312.434,53.563,257.594,46.757,181.575
            c-2.536-28.334,0.707-54.721,4.766-74.501c16.638,17.909,37.384,37.227,62.129,53.407c42.771,27.966,90.663,42.146,142.346,42.146
            c11.423,0,20.682-9.26,20.682-20.682v-21.393c0-0.045,0-0.091,0-0.137c-0.146-21.948,9.268-42.797,25.829-57.202
            c15.146-13.175,34.51-19.665,54.543-18.27c20.026,1.393,38.311,10.502,51.487,25.648c5.339,6.138,13.783,8.577,21.567,6.229
            c5.725-1.724,11.375-3.645,16.941-5.757C442.599,117.081,437.672,122.769,432.297,128.07z"/>
    </symbol>    

    <symbol id="footer-linkedin" role="img" aria-labelledby="footer-linkedin_title" viewBox="0 0 512 512">
        <title id="footer-linkedin_title">Linkedin</title>
        <path d="M2.5,510V153.7h137.3V510H2.5z M102.5,472.7V191H39.8v281.7H102.5z"/>
        <path d="M375.4,510l0.1-158.1c0.5-23.6-8.8-42.9-24.9-51.7c-5.4-3-11.2-4.5-17.3-4.5c-5.2,0-10.4,1.1-15.5,3.3l-1.1,211H176.1
            V153.7h140.6V166c16.6-6,33.6-9.1,50.6-9.1c24.7,0,48.3,6.4,70.2,18.9c44,25.2,72.5,71.8,72.5,118.8V510H375.4z M472.7,472.7V294.6
            c0-33.8-21.1-67.7-53.7-86.4c-15.9-9.1-33.8-13.9-51.7-14h-0.3c-20.1,0-40.1,5.8-59.6,17.3L279.4,228V191h-66.1v281.7h66.2l1-194.7
            l8.2-5.5c13.7-9.2,29.1-14.1,44.5-14.1c12.4,0,24.2,3,35.1,9c13.7,7.5,25,19.2,32.8,33.8c7.9,14.9,11.9,32.6,11.5,51.1l0,120.3
            H472.7z"/>
        <path d="M70.9,139.9C32.9,139.9,2,109,2,71c0-38,30.9-69,68.9-69c38,0,68.9,30.9,68.9,69C139.8,109,108.9,139.9,70.9,139.9z
             M70.9,39.3c-17.4,0-31.6,14.2-31.6,31.7c0,17.5,14.2,31.7,31.6,31.7c17.4,0,31.6-14.2,31.6-31.7C102.5,53.5,88.3,39.3,70.9,39.3z"
            />
    </symbol>

    <symbol id="footer-instagram" role="img" aria-labelledby="footer-instagram_title" viewBox="0 0 512 512">
        <title id="footer-instagram_title">Instagram</title>
        <path d="M373.659,0H138.341C62.06,0,0,62.06,0,138.341v235.318C0,449.94,62.06,512,138.341,512h235.318
            C449.94,512,512,449.94,512,373.659V138.341C512,62.06,449.94,0,373.659,0z M470.636,373.659
            c0,53.473-43.503,96.977-96.977,96.977H138.341c-53.473,0-96.977-43.503-96.977-96.977V138.341
            c0-53.473,43.503-96.977,96.977-96.977h235.318c53.473,0,96.977,43.503,96.977,96.977V373.659z"/>
        <path d="M370.586,238.141c-3.64-24.547-14.839-46.795-32.386-64.342c-17.547-17.546-39.795-28.746-64.341-32.385
            c-11.176-1.657-22.507-1.657-33.682,0c-30.336,4.499-57.103,20.541-75.372,45.172c-18.269,24.631-25.854,54.903-21.355,85.237
            c4.499,30.335,20.541,57.102,45.172,75.372c19.996,14.831,43.706,22.619,68.153,22.619c5.667,0,11.375-0.418,17.083-1.265
            c30.336-4.499,57.103-20.541,75.372-45.172C367.5,298.747,375.085,268.476,370.586,238.141z M267.791,327.632
            c-19.405,2.882-38.77-1.973-54.527-13.66c-15.757-11.687-26.019-28.811-28.896-48.216c-2.878-19.405,1.973-38.77,13.66-54.527
            c11.688-15.757,28.811-26.019,48.217-28.897c3.574-0.53,7.173-0.795,10.772-0.795s7.199,0.265,10.773,0.796
            c32.231,4.779,57.098,29.645,61.878,61.877C335.608,284.268,307.851,321.692,267.791,327.632z"/>
        <path d="M400.049,111.951c-3.852-3.851-9.183-6.058-14.625-6.058c-5.442,0-10.773,2.206-14.625,6.058
            c-3.851,3.852-6.058,9.174-6.058,14.625c0,5.451,2.207,10.773,6.058,14.625c3.852,3.851,9.183,6.058,14.625,6.058
            c5.442,0,10.773-2.206,14.625-6.058c3.851-3.852,6.058-9.183,6.058-14.625C406.107,121.133,403.9,115.802,400.049,111.951z"/>
    </symbol>

    <symbol id="footer-phone" role="img" aria-labelledby="footer-phone_title" viewBox="0 0 512 512">
        <title id="footer-phone_title"></title>
        <path d="M421.216,195.504c-5.092-26.101-17.723-49.836-36.526-68.64c-18.804-18.803-42.54-31.434-68.641-36.527
			c-11.21-2.189-22.073,5.128-24.261,16.339c-2.187,11.212,5.128,22.073,16.339,24.26c36.847,7.188,65.3,35.642,72.489,72.489
			c1.927,9.874,10.581,16.726,20.278,16.726c1.313,0,2.645-0.125,3.984-0.387C416.088,217.577,423.403,206.715,421.216,195.504z"/>
		<path d="M511.422,196.929c-5.629-50.096-28.373-97.304-64.042-132.927C411.712,28.378,364.475,5.694,314.371,0.128
			c-11.355-1.261-21.578,6.92-22.839,18.272c-1.261,11.353,6.919,21.578,18.272,22.84c84.961,9.438,150.966,75.36,160.512,160.31
			c1.188,10.566,10.139,18.374,20.527,18.374c0.771,0,1.552-0.043,2.336-0.131C504.53,218.516,512.698,208.281,511.422,196.929z"/>
		<path d="M432.59,312.566c-0.062-0.008-0.124-0.017-0.186-0.025c-20.013-2.639-39.751-7.557-58.619-14.596
			c-23.91-8.99-51.103-3.191-69.27,14.772c-0.028,0.028-0.056,0.055-0.083,0.083l-17.148,17.148
			c-42.633-26.924-78.756-63.047-105.679-105.679l17.149-17.149c0.027-0.028,0.054-0.055,0.082-0.083
			c17.964-18.166,23.762-45.356,14.79-69.223c-7.057-18.914-11.974-38.653-14.614-58.666c-0.007-0.063-0.017-0.127-0.026-0.19
			c-4.591-32.478-32.782-56.734-65.548-56.467H66.053c-1.943,0.002-3.912,0.091-5.853,0.267
			C24.143,26.016-2.541,58.001,0.718,94.058c0.01,0.108,0.02,0.215,0.032,0.323c7.684,72.354,32.649,142.88,72.197,203.955
			c35.892,56.461,84.701,105.269,141.162,141.164c60.792,39.406,130.99,64.369,203.013,72.196c0.127,0.015,0.254,0.027,0.38,0.038
			c1.961,0.176,3.949,0.266,5.921,0.266c0.083,0,0.165,0,0.247,0.001c36.204-0.148,65.538-29.722,65.391-65.841v-67.233
			C489.746,345.714,465.515,317.211,432.59,312.566z M447.698,378.695v67.548c0.055,13.396-10.8,24.338-24.19,24.393
			c-0.715-0.004-1.425-0.027-2.135-0.086c-65.578-7.161-129.488-29.914-184.837-65.808c-0.053-0.035-0.107-0.069-0.161-0.103
			c-51.429-32.68-95.885-77.137-128.565-128.565c-0.032-0.051-0.064-0.101-0.097-0.153C71.683,220.306,48.928,156.086,41.902,90.193
			C40.779,76.91,50.63,65.155,63.923,63.954c0.717-0.064,1.443-0.098,2.145-0.098h67.463c0.146-0.001,0.294-0.003,0.443-0.002
			c12.021,0,22.322,8.905,24.044,20.819c3.05,23.063,8.721,45.806,16.871,67.649c3.319,8.832,1.189,18.869-5.427,25.591
			l-28.517,28.517c-6.583,6.582-7.956,16.753-3.354,24.847c33.837,59.508,83.177,108.847,142.685,142.685
			c8.094,4.6,18.264,3.23,24.848-3.355l28.512-28.512c6.72-6.621,16.765-8.752,25.642-5.415
			c21.799,8.134,44.547,13.805,67.61,16.855c12.18,1.757,21.122,12.339,20.816,24.647
			C447.7,378.353,447.698,378.524,447.698,378.695z"/>
    </symbol>    

	<symbol id="footer-mail" role="img" aria-labelledby="footer-mail_title" viewBox="0 0 512 512">
        <title id="footer-mail_title"></title>
        <path d="M256,141.176c-63.306,0-114.809,51.503-114.809,114.809S192.694,370.795,256,370.795s114.809-51.503,114.809-114.809
			S319.306,141.176,256,141.176z M256,329.43c-40.498,0-73.445-32.947-73.445-73.445c0-40.498,32.947-73.445,73.445-73.445
			c40.499,0,73.445,32.947,73.445,73.445C329.445,296.483,296.499,329.43,256,329.43z"/>
		<path d="M437.008,74.97C388.656,26.623,324.375,0,256,0c-0.005,0-0.013,0-0.017,0C187.603,0.004,123.318,26.637,74.97,74.992
			C26.62,123.347-0.005,187.637,0,256.017c0.004,68.379,26.637,132.666,74.992,181.014C123.344,485.377,187.625,512.001,256,512
			c0.004,0,0.012,0,0.017,0c55.945-0.004,111.216-18.738,155.631-52.752c9.07-6.945,10.792-19.927,3.846-28.995
			c-6.945-9.069-19.926-10.794-28.995-3.846c-37.24,28.518-83.58,44.224-130.486,44.228c-0.006,0-0.006,0-0.014,0
			c-57.324,0-111.224-22.324-151.761-62.856c-40.542-40.536-62.871-94.435-62.875-151.766
			C41.357,137.663,137.636,41.372,255.986,41.364c0.007,0,0.006,0,0.014,0c118.34,0,214.628,96.279,214.636,214.622v23.532
			c0,27.523-22.39,49.913-49.913,49.913c-27.523,0-49.913-22.391-49.913-49.913v-23.532c0-11.422-9.259-20.682-20.682-20.682
			s-20.682,9.26-20.682,20.682v23.532c0,50.33,40.947,91.278,91.278,91.278S512,329.848,512,279.518v-23.534
			C511.995,187.604,485.362,123.318,437.008,74.97z"/>
    </symbol>

    <symbol id="footer-location" role="img" aria-labelledby="footer-location_title" viewBox="0 0 512 512">
        <title id="footer-location_title"></title>
        <path d="M406.766,62.449C366.495,22.178,312.951,0,256,0S145.505,22.178,105.234,62.449
			c-40.272,40.271-62.449,93.814-62.449,150.766c0,37.656,10.972,76.863,32.609,116.532c16.825,30.846,40.15,62.102,69.326,92.898
			c49.17,51.903,97.763,84.519,99.808,85.881C248.001,510.842,252,512,256,512c4,0,7.999-1.158,11.473-3.474
			c2.045-1.363,50.638-33.978,99.808-85.881c29.176-30.795,52.501-62.051,69.326-92.898c21.637-39.669,32.609-78.876,32.609-116.532
			C469.215,156.263,447.038,102.72,406.766,62.449z M256.001,465.903C215.826,436.156,84.15,329.739,84.15,213.215
			c0-94.759,77.091-171.851,171.85-171.851s171.85,77.092,171.851,171.851C427.851,329.748,296.159,436.168,256.001,465.903z"/>
		<path d="M256,128.355c-46.791,0-84.86,38.068-84.86,84.86c0,46.791,38.068,84.86,84.86,84.86c46.792,0,84.861-38.068,84.86-84.86
			C340.86,166.423,302.791,128.355,256,128.355z M256,256.71c-23.983,0-43.495-19.512-43.495-43.495
			c0-23.983,19.512-43.495,43.495-43.495c23.984,0,43.495,19.512,43.495,43.495C299.495,237.198,279.984,256.71,256,256.71z"/>
		</symbol>

	<symbol id="footer-time" role="img" aria-labelledby="footer-time_title" viewBox="0 0 512 512">
        <title id="footer-time_title"></title>
        <path d="M437.019,74.981C388.667,26.629,324.38,0,256,0S123.333,26.63,74.981,74.981S0,187.62,0,256
			s26.629,132.667,74.981,181.019C123.332,485.371,187.62,512,256,512s132.667-26.629,181.019-74.981
			C485.371,388.667,512,324.38,512,256S485.371,123.332,437.019,74.981z M256,470.636C137.65,470.636,41.364,374.35,41.364,256
			S137.65,41.364,256,41.364S470.636,137.65,470.636,256S374.35,470.636,256,470.636z"/>
		<path d="M341.221,311.97l-64.538-64.537V114.809c0-11.422-9.259-20.682-20.682-20.682c-11.422,0-20.682,9.26-20.682,20.682V256
			c0,5.486,2.179,10.746,6.058,14.625l70.594,70.595c4.038,4.039,9.332,6.058,14.625,6.058c5.293,0,10.586-2.019,14.626-6.058
			C349.297,333.142,349.297,320.047,341.221,311.97z"/>
	</symbol>

</svg>