<svg xmlns="http://www.w3.org/2000/svg" xmlns:xlink="http://www.w3.org/1999/xlink">

	<symbol id="services01" role="img" aria-labelledby="services01_title" viewBox="0 0 414.225 414.225">
        <title id="services01_title"></title>
        <path id="XMLID_1557_" d="M150.612,283.386c3.584,3.443,3.7,9.141,0.257,12.726c-1.767,1.84-4.128,2.766-6.492,2.766
            c-2.243,0-4.488-0.833-6.233-2.509l-5.98-5.743c-3.585-3.443-3.7-9.141-0.257-12.726c3.444-3.585,9.14-3.699,12.726-0.257
            L150.612,283.386z M156.417,253.389c-3.476,3.553-3.415,9.251,0.138,12.728l5.923,5.796c1.751,1.714,4.023,2.567,6.294,2.567
            c2.336,0,4.67-0.904,6.433-2.705c3.476-3.553,3.415-9.251-0.138-12.728l-5.922-5.796
            C165.591,249.774,159.893,249.836,156.417,253.389z M191.285,251.966c2.358,0,4.714-0.922,6.48-2.754
            c3.45-3.578,3.345-9.276-0.233-12.726l-33.083-31.891c-0.126-0.122-0.256-0.24-0.389-0.354l-9.41-8.063
            c-8.676-7.437-22.298-6.922-30.366,1.144c-3.517,3.517-5.338,3.97-5.649,4.022c-0.542-0.229-1.689-1.344-2.317-1.953
            c-0.523-0.509-1.012-0.978-1.466-1.376c-0.027-0.024-0.055-0.048-0.083-0.072l-15.345-13.146c-3.774-3.234-9.457-2.795-12.69,0.979
            c-3.234,3.774-2.796,9.456,0.979,12.69l15.293,13.103c0.239,0.212,0.491,0.463,0.766,0.729c2.185,2.124,6.251,6.076,12.51,6.901
            c6.786,0.9,13.763-2.183,20.729-9.148c1.49-1.489,4.314-1.587,5.927-0.205l9.208,7.892l32.894,31.708
            C186.787,251.129,189.037,251.966,191.285,251.966z M287.223,179.511c-0.11,4.97,3.828,9.088,8.798,9.198
            c0.068,0.001,0.136,0.002,0.204,0.002c4.877,0,8.885-3.899,8.994-8.8l0.228-10.071c0.397-17.492,0.772-34.02,0.92-50.588
            c0.72-1.382,1.356-2.798,1.905-4.243c1.764-4.646-0.572-9.844-5.219-11.608c-4.646-1.764-9.844,0.572-11.609,5.22
            c-2.899,7.634-10.3,14.08-19.798,17.242c-4.716,1.57-7.267,6.666-5.696,11.382c1.57,4.716,6.665,7.27,11.382,5.696
            c3.823-1.272,7.438-2.93,10.779-4.91c-0.18,10.248-0.416,20.642-0.66,31.4L287.223,179.511z M236.581,14.014
            c5.4,21.552,23.046,38.435,40.172,38.435h25.325c11.292,0,23.482,5.236,31.81,13.664c10.888,11.023,13.853,21.982,12.204,45.102
            l-5.477,76.757c-0.354,4.958,3.378,9.264,8.336,9.618c0.218,0.016,0.435,0.022,0.65,0.022c4.679,0,8.63-3.62,8.968-8.359
            l5.477-76.757c1.703-23.874-0.605-42.077-17.353-59.033c-11.766-11.905-28.444-19.014-44.615-19.014h-25.325
            c-7.787,0-19.154-10.61-22.712-24.81l-0.708-2.823c-1.208-4.822-6.098-7.753-10.918-6.543c-4.821,1.209-7.75,6.097-6.542,10.918
            L236.581,14.014z M154.641,169.791c-2.55,4.267-1.159,9.793,3.107,12.343c4.265,2.55,9.792,1.159,12.343-3.106
            c7.887-13.195,22.323-21.392,37.673-21.392c20.327,0,37.855,13.772,42.625,33.491c0.997,4.12,4.681,6.886,8.74,6.886
            c0.7,0,1.413-0.082,2.124-0.254c4.831-1.169,7.8-6.033,6.631-10.864c-6.731-27.825-31.454-47.259-60.121-47.259
            C186.115,139.636,165.76,151.191,154.641,169.791z M78.655,301.313c-7.856-8.481-8.759-16.137-7.636-17.26
            c7.355-7.354,8.757-14.81,8.637-19.768c-0.324-13.435-11.379-23.47-16.692-28.292c-0.563-0.511-1.037-0.937-1.347-1.243
            l-29.775-29.774c-3.515-3.514-9.213-3.514-12.728,0c-3.515,3.515-3.515,9.214,0,12.729l29.805,29.805
            c0.482,0.478,1.148,1.088,1.946,1.812c3.189,2.896,10.657,9.675,10.795,15.399c0.019,0.781,0.076,3.159-3.37,6.604
            c-9.672,9.673-6.591,27.493,7.322,42.396c0.076,0.083,0.153,0.163,0.232,0.243c0.069,0.07,0.139,0.139,0.209,0.205l46.934,45.077
            c1.745,1.676,3.991,2.509,6.233,2.509c2.364,0,4.725-0.926,6.492-2.766c3.443-3.585,3.328-9.282-0.257-12.726L78.655,301.313z
             M146.967,137.244c1.57-4.717-0.981-9.813-5.697-11.382c-7.125-2.372-13.069-6.591-16.818-11.774
            c-0.142-0.222-0.292-0.438-0.453-0.646c-1.041-1.536-1.891-3.15-2.526-4.822c-1.764-4.646-6.962-6.985-11.608-5.22
            c-4.647,1.764-6.984,6.961-5.22,11.608c0.865,2.28,1.952,4.489,3.236,6.606c0.16,15.733,0.522,31.719,0.873,47.205
            c0.111,4.899,4.117,8.796,8.994,8.796c0.069,0,0.138-0.001,0.208-0.002c4.969-0.113,8.907-4.232,8.794-9.202
            c-0.22-9.743-0.445-19.685-0.622-29.622c2.966,1.647,6.134,3.044,9.458,4.15C140.302,144.514,145.398,141.96,146.967,137.244z
             M395.11,222.297c-3.515-3.514-9.213-3.515-12.728,0.001l-29.742,29.744c-0.34,0.336-0.814,0.761-1.376,1.271
            c-5.313,4.823-16.369,14.858-16.693,28.294c-0.12,4.958,1.281,12.412,8.637,19.769c1.123,1.122,0.222,8.77-7.624,17.244
            l-75.043,71.503c-6.37,6.01-17.398,7.464-20.255,4.964c-0.23-0.228-0.844-0.839-1.635-1.629l65.993-62.88
            c3.599-3.429,3.736-9.125,0.307-12.724c-3.428-3.599-9.126-3.738-12.724-0.308l-75.238,71.688
            c-6.353,5.995-17.344,7.456-20.286,4.931c-0.367-0.36-1.47-1.461-2.744-2.734c1.497-1.029,2.899-2.15,4.18-3.354l83.905-80.111
            c3.595-3.433,3.727-9.13,0.294-12.725c-3.432-3.596-9.129-3.728-12.725-0.295l-83.854,80.064
            c-6.088,5.721-17.593,7.238-21.217,4.024c-0.309-0.304-1.186-1.178-2.268-2.258l95.399-93.34c3.553-3.476,3.615-9.174,0.139-12.727
            c-3.477-3.553-9.175-3.617-12.727-0.139l-55.286,54.092l-5.139-3.766c-0.821-0.602-1.93-1.657-2.079-3.875
            c-0.205-3.037,1.397-6.671,4.042-9.221l84.793-80.738c1.63-1.271,4.348-1.144,5.797,0.307c6.966,6.966,13.934,10.045,20.729,9.151
            c6.258-0.825,10.325-4.777,12.51-6.901c0.275-0.267,0.528-0.519,0.768-0.73l15.292-13.104c3.774-3.234,4.212-8.916,0.978-12.69
            c-3.235-3.774-8.917-4.212-12.69-0.978l-15.343,13.147c-0.027,0.023-0.054,0.047-0.081,0.07c-0.455,0.398-0.943,0.867-1.468,1.377
            c-0.627,0.609-1.775,1.725-2.317,1.953c-0.312-0.054-2.133-0.506-5.65-4.023c-8.066-8.064-21.687-8.577-30.364-1.143
            c-0.12,0.103-0.236,0.208-0.35,0.316l-85.056,80.989c-6.543,6.307-10.114,15.065-9.549,23.429
            c0.471,6.985,3.809,13.088,9.399,17.184l2.737,2.006l-33.563,32.839c-3.452,3.377-3.623,8.875-0.389,12.461
            c0.539,0.597,9.107,9.151,9.463,9.48c6.048,5.591,14.677,7.312,23.262,6.215c0.008,0.01,0.017,0.019,0.025,0.028
            c0.536,0.593,8.604,8.643,8.915,8.927c10.245,9.417,28.666,6.809,40.859-1.785c1.487,1.481,2.659,2.645,2.692,2.676
            c4.51,4.146,10.603,5.96,17.052,5.96c9.936,0,20.718-4.309,27.852-11.04l75.271-71.719c0.124-0.118,0.245-0.24,0.362-0.365
            c13.96-14.916,17.062-32.771,7.376-42.454c-3.445-3.445-3.388-5.822-3.369-6.604c0.139-5.726,7.607-12.506,10.797-15.4
            c0.797-0.724,1.462-1.333,1.975-1.841l29.774-29.775C398.625,231.51,398.625,225.812,395.11,222.297z M147.457,337.247
            c3.449-3.579,3.342-9.277-0.237-12.726l-25.184-24.262c-3.579-3.449-9.277-3.343-12.726,0.237
            c-3.449,3.579-3.342,9.277,0.237,12.726l25.184,24.262c1.746,1.683,3.996,2.519,6.243,2.519
            C143.334,340.003,145.691,339.081,147.457,337.247z M221.609,201.005c0.998,4.12,4.681,6.886,8.74,6.885
            c0.701,0,1.414-0.082,2.125-0.255c4.831-1.169,7.799-6.033,6.63-10.864c-3.551-14.668-16.582-24.912-31.689-24.912
            c-11.409,0-22.136,6.089-27.996,15.891c-2.551,4.267-1.16,9.793,3.106,12.343c4.265,2.55,9.792,1.159,12.343-3.106
            c2.667-4.463,7.358-7.127,12.546-7.127C214.184,189.859,220.021,194.443,221.609,201.005z M54.021,166.334
            c0.338,4.74,4.289,8.359,8.968,8.359c0.215,0,0.432-0.008,0.65-0.022c4.958-0.354,8.69-4.66,8.336-9.618l-3.843-53.839
            c-1.649-23.119,1.316-34.078,12.202-45.1c8.33-8.43,20.521-13.666,31.814-13.666h25.324c17.127,0,34.772-16.883,40.169-38.429
            l0.709-2.823c1.211-4.82-1.714-9.711-6.535-10.922c-4.818-1.215-9.71,1.714-10.922,6.535l-0.711,2.83
            c-3.556,14.199-14.923,24.809-22.71,24.809h-25.324c-16.172,0-32.852,7.108-44.619,19.016
            c-16.746,16.954-19.055,35.157-17.352,59.031L54.021,166.334z"/>
    </symbol>

    <symbol id="services02" role="img" aria-labelledby="services02_title" viewBox="0 0 401.89 401.89">
        <title id="services02_title"></title>
        <path id="XMLID_1830_" d="M206.815,326.086c4.971,0,9,4.029,9,9s-4.029,9-9,9H195.39c-4.971,0-9-4.029-9-9s4.029-9,9-9H206.815z
             M241.102,167.649c2.287,0,4.575-0.866,6.329-2.602c3.534-3.496,3.564-9.194,0.068-12.729
            c-19.426-19.636-23.516-43.615-23.525-60.272c-0.003-4.97-4.031-8.995-9-8.995c-0.001,0-0.004,0-0.005,0
            c-4.97,0.003-8.998,4.035-8.995,9.005c0.017,28.315,10.22,54.213,28.729,72.923C236.464,166.758,238.782,167.649,241.102,167.649z
             M210.518,303.112h-18.829c-12.458,0-22.594-10.135-22.594-22.593c0-12.459,10.136-22.595,22.594-22.595h18.829
            c12.458,0,22.594,10.136,22.594,22.594S222.977,303.112,210.518,303.112z M215.112,280.519c0-2.49-2.104-4.595-4.594-4.595h-18.829
            c-2.49,0-4.594,2.104-4.594,4.594s2.104,4.594,4.594,4.594h18.829C213.008,285.112,215.112,283.008,215.112,280.519z
             M214.585,241.293h-26.964c-15.697,0-28.467-12.771-28.467-28.467s12.771-28.467,28.467-28.467h26.964
            c15.696,0,28.466,12.77,28.466,28.466C243.051,228.523,230.281,241.293,214.585,241.293z M225.051,212.826
            c0-5.771-4.695-10.467-10.466-10.467h-26.964c-5.771,0-10.467,4.695-10.467,10.466c0,5.772,4.696,10.468,10.467,10.468h26.964
            C220.356,223.293,225.051,218.598,225.051,212.826z M301.406,121.567c1.271-2.103,2.347-4.295,3.207-6.558
            c1.764-4.646-0.572-9.844-5.219-11.608c-4.646-1.765-9.844,0.572-11.609,5.22c-0.635,1.673-1.486,3.288-2.529,4.825
            c-0.158,0.206-0.308,0.419-0.448,0.639c-3.75,5.186-9.695,9.406-16.821,11.778c-4.716,1.569-7.267,6.665-5.697,11.382
            c1.57,4.716,6.667,7.267,11.381,5.696c3.279-1.091,6.406-2.466,9.338-4.084c-0.975,22.718-3.593,44.948-6.144,66.605
            c-5.501,46.708-11.189,95.006-0.08,147.034c0.903,4.228,4.637,7.123,8.793,7.123c0.623,0,1.255-0.065,1.888-0.2
            c4.861-1.038,7.96-5.82,6.922-10.682c-10.488-49.118-5.222-93.831,0.353-141.17C297.998,179.921,301.361,151.362,301.406,121.567z
             M314.917,326.296c-4.746-1.473-9.789,1.189-11.258,5.938s1.189,9.789,5.938,11.258c20.761,6.424,25.255,12.581,25.255,13.761
            c0,1.534-6.227,9.286-34.99,16.467c-26.27,6.559-61.343,10.171-98.759,10.171c-37.415,0-72.488-3.612-98.758-10.171
            c-28.764-7.181-34.991-14.933-34.991-16.467c0-1.18,4.494-7.337,25.254-13.761c4.749-1.469,7.407-6.51,5.938-11.258
            c-1.469-4.749-6.511-7.408-11.258-5.938c-25.171,7.788-37.934,18.203-37.934,30.956c0,14.459,16.362,25.875,48.63,33.931
            c27.655,6.904,64.277,10.707,103.119,10.707c38.843,0,75.465-3.803,103.12-10.707c32.269-8.056,48.63-19.472,48.63-33.931
            C352.852,344.499,340.089,334.084,314.917,326.296z M154.776,165.047c1.754,1.735,4.042,2.602,6.329,2.602
            c2.319,0,4.639-0.892,6.399-2.671c18.508-18.709,28.71-44.606,28.727-72.922c0.003-4.97-4.024-9.002-8.995-9.005
            c-0.002,0-0.003,0-0.005,0c-4.968,0-8.997,4.026-9,8.995c-0.01,16.658-4.099,40.638-23.524,60.273
            C151.212,155.853,151.242,161.551,154.776,165.047z M340.37,53.463c-11.763-11.906-28.442-19.015-44.616-19.015h-25.326
            c-7.787,0-19.153-10.609-22.71-24.813l-0.708-2.823c-1.209-4.821-6.102-7.748-10.92-6.539c-4.821,1.21-7.749,6.099-6.539,10.92
            l0.708,2.819c5.398,21.553,23.043,38.436,40.17,38.436h25.326c11.294,0,23.484,5.236,31.812,13.665
            c11.869,12.014,15.195,24.064,12.271,44.464l-26.868,187.425c-0.706,4.921,2.711,9.48,7.631,10.187
            c0.434,0.062,0.863,0.092,1.289,0.092c4.405,0,8.254-3.237,8.898-7.724l26.867-187.425C361.354,87.316,356.185,69.471,340.37,53.463
            z M139.913,137.244c1.57-4.716-0.98-9.812-5.696-11.382c-7.126-2.373-13.072-6.595-16.822-11.78c-0.14-0.218-0.288-0.43-0.445-0.635
            c-1.043-1.537-1.895-3.154-2.531-4.828c-1.764-4.646-6.962-6.983-11.609-5.219s-6.983,6.962-5.218,11.609
            c0.859,2.262,1.935,4.454,3.206,6.556c0.045,29.794,3.409,58.354,6.665,85.999c5.575,47.339,10.841,92.054,0.353,141.173
            c-1.038,4.861,2.062,9.644,6.922,10.682c0.634,0.135,1.265,0.2,1.888,0.2c4.155,0,7.89-2.896,8.793-7.123
            c11.109-52.029,5.421-100.328-0.08-147.037c-2.551-21.657-5.168-43.885-6.144-66.603c2.932,1.619,6.057,2.992,9.336,4.084
            C133.247,144.513,138.343,141.961,139.913,137.244z M80.003,308.28c0.425,0,0.855-0.03,1.289-0.092
            c4.92-0.706,8.337-5.266,7.632-10.187l-26.87-187.424c-2.923-20.399,0.403-32.45,12.271-44.464
            c8.329-8.43,20.52-13.666,31.814-13.666h25.324c17.127,0,34.773-16.883,40.17-38.43l0.709-2.823
            c1.21-4.821-1.716-9.711-6.537-10.921c-4.819-1.215-9.71,1.715-10.921,6.536l-0.71,2.829c-3.556,14.199-14.923,24.809-22.71,24.809
            h-25.324c-16.174,0-32.853,7.108-44.619,19.015c-15.813,16.009-20.982,33.854-17.284,59.669l26.869,187.425
            C71.748,305.044,75.598,308.28,80.003,308.28z"/>
    </symbol>

    <symbol id="services03" role="img" aria-labelledby="services03_title" viewBox="0 0 371.193 371.193">
        <title id="services03_title"></title>
        <path id="XMLID_1180_" d="M260.311,131.611c0-4.971,4.029-9,9-9h48.52c4.971,0,9,4.029,9,9s-4.029,9-9,9h-48.52
            C264.341,140.611,260.311,136.582,260.311,131.611z M222.453,343.614H31.704c-4.971,0-9,4.029-9,9s4.029,9,9,9h190.749
            c4.971,0,9-4.029,9-9S227.424,343.614,222.453,343.614z M68.433,57.062c-3.331-18.886,5.836-37.554,22.81-46.454
            c1.651-0.866,3.532-1.198,5.38-0.949c18.997,2.558,33.997,16.967,37.323,35.854c3.333,18.879-5.833,37.547-22.809,46.45
            c-1.295,0.679-2.73,1.03-4.18,1.03c-0.4,0-0.801-0.027-1.201-0.081C86.762,90.355,71.763,75.947,68.433,57.062z M86.16,53.936
            c1.792,10.165,9.314,18.128,19.127,20.586c8.382-5.667,12.727-15.722,10.933-25.883c-1.792-10.167-9.314-18.132-19.128-20.59
            C88.712,33.714,84.367,43.771,86.16,53.936z M342.052,213.839H318.78c-4.971,0-9,4.029-9,9s4.029,9,9,9h23.271c4.971,0,9-4.029,9-9
            S347.022,213.839,342.052,213.839z M362.193,167.632H211.607c-4.971,0-9,4.029-9,9s4.029,9,9,9h150.586c4.971,0,9-4.029,9-9
            S367.164,167.632,362.193,167.632z M280.27,213.839h-20.03c-2.006,0-3.954,0.67-5.535,1.903
            c-15.382,11.998-50.054,37.481-55.52,39.866c-4.732,1.96-8.769,2.009-12.697,0.152c-20.354-9.623-37.418-65.833-55.483-125.342
            c-1.041-3.427-2.092-6.889-3.155-10.382c20.067-15.529,43.184-32.619,55.041-31.201c10.21,1.22,15.556,10.509,23.147,25.664
            c3.76,7.506,7.647,15.268,12.972,21.678c3.177,3.823,8.851,4.349,12.674,1.172c3.823-3.176,4.348-8.85,1.172-12.674
            c-4.003-4.818-7.268-11.336-10.724-18.237c-7.752-15.477-16.539-33.018-37.106-35.475c-20.277-2.423-46.18,17.716-73.601,39.038
            c-20.894,16.246-46.897,36.453-59.282,34.839c-10.07-1.322-15.478-10.621-23.188-25.777c-3.798-7.466-7.726-15.188-13.032-21.575
            c-3.176-3.824-8.85-4.349-12.674-1.173c-3.824,3.176-4.349,8.851-1.173,12.674c4.021,4.84,7.331,11.347,10.835,18.235
            c7.824,15.379,16.691,32.811,36.889,35.462c1.179,0.155,2.376,0.23,3.596,0.23c16.799-0.001,37.333-14.275,59.228-31.08
            c0.387,1.275,0.772,2.546,1.157,3.811c21.739,71.612,37.446,123.354,65.013,136.387c4.377,2.069,8.902,3.104,13.541,3.104
            c4.483,0,9.073-0.966,13.739-2.899c8.74-3.621,47.038-32.632,57.214-40.398h16.981c4.971,0,9-4.029,9-9
            S285.241,213.839,280.27,213.839z M96.884,312.194c-4.97,0-9,4.029-9,8.999c0,4.971,4.028,9,8.999,9.001l20.029,0.003
            c0,0,0.001,0,0.001,0c2.797,0,5.436-1.301,7.139-3.519c1.704-2.219,2.278-5.104,1.556-7.807l-1.167-4.357
            c-7.877-29.42-12.632-47.178-11.754-56.476c0.545-5.78,2.814-8.633,16.787-16.396c4.345-2.414,5.91-7.893,3.496-12.238
            c-2.414-4.345-7.893-5.91-12.238-3.496c-14.27,7.929-24.486,14.753-25.966,30.44c-1.096,11.618,2.703,26.934,10.422,55.848
            l-8.303-0.001C96.885,312.194,96.885,312.194,96.884,312.194z"/>
    </symbol>

    <symbol id="services04" role="img" aria-labelledby="services04_title" viewBox="0 0 419.566 419.566">
        <title id="services04_title"></title>
        <path d="M28.994,152.316c-2.526-18.993,2.496-37.832,14.14-53.047c13.265-17.331,33.768-27.567,55.279-28.11
            c0.078-15.512,5.169-30.493,14.778-43.051C137.227-3.301,182.336-9.299,213.748,14.74c7.855,6.011,14.361,13.562,19.125,22.139
            c21.852-6.507,45.74-2.275,64.102,11.774c3.947,3.021,4.698,8.669,1.678,12.617c-3.021,3.945-8.67,4.697-12.617,1.678
            c-15.491-11.856-36.242-14.376-54.156-6.58c-2.227,0.968-4.749,0.996-6.995,0.08c-2.247-0.918-4.028-2.705-4.939-4.955
            c-3.585-8.858-9.511-16.624-17.136-22.458c-23.529-18.007-57.318-13.514-75.322,10.012c-8.853,11.568-12.585,25.883-10.511,40.305
            c0.4,2.781-0.521,5.59-2.492,7.593s-4.761,2.969-7.551,2.617c-18.944-2.411-37.915,5.504-49.504,20.647
            c-8.723,11.396-12.483,25.508-10.592,39.734s9.211,26.864,20.608,35.587c11.396,8.723,25.504,12.481,39.733,10.594
            c14.227-1.892,26.865-9.21,35.588-20.607c3.021-3.948,8.671-4.698,12.617-1.678c3.947,3.021,4.698,8.67,1.678,12.617
            c-11.646,15.216-28.518,24.985-47.511,27.511c-3.209,0.427-6.416,0.638-9.601,0.638c-15.657,0-30.802-5.104-43.444-14.779
            C41.29,188.181,31.519,171.308,28.994,152.316z M378.135,167.054c-4.795-5.923-10.675-10.838-17.283-14.488
            c4.266-17.655,0.166-36.512-11.448-50.863c-9.888-12.214-23.939-19.847-39.567-21.492c-15.623-1.646-30.96,2.894-43.173,12.78
            c-3.863,3.128-4.46,8.795-1.332,12.658c3.127,3.861,8.793,4.461,12.658,1.332c8.476-6.861,19.116-10.014,29.962-8.869
            c10.847,1.143,20.6,6.439,27.461,14.916c9.325,11.522,11.67,27.235,6.117,41.004c-0.908,2.252-0.868,4.774,0.111,6.996
            s2.814,3.954,5.09,4.803c6.799,2.536,12.821,6.876,17.413,12.548c14.162,17.502,11.449,43.263-6.048,57.426
            c-8.601,6.963-19.394,10.099-30.4,8.817c-2.79-0.324-5.573,0.675-7.521,2.699s-2.84,4.843-2.409,7.619
            c2.222,14.343-3.396,28.916-14.662,38.033c-17.499,14.162-43.259,11.45-57.424-6.047c-14.163-17.499-11.45-43.26,6.049-57.425
            c3.863-3.127,4.46-8.795,1.332-12.658c-3.126-3.862-8.792-4.46-12.658-1.332c-25.212,20.409-29.121,57.526-8.713,82.74
            c11.611,14.343,28.626,21.791,45.783,21.79c13.001-0.001,26.086-4.279,36.955-13.076c13.449-10.885,21.313-27.163,21.791-44.176
            c12.077-0.753,23.591-5.214,33.203-12.995C394.631,229.389,398.542,192.271,378.135,167.054z M291.88,401.564H108.168l18.679-39.839
            c8.868,0.397,18.297-3.992,23.925-15.944l65.13-138.334c2.117-4.497,0.188-9.859-4.309-11.977
            c-4.498-2.117-9.858-0.188-11.977,4.309l-65.13,138.334c-2.411,5.119-5.617,6.783-9.524,4.953c-2.356-1.105-4.421-3.538-3.616-5.262
            L217.351,132.2c1.943-4.165,5.222-3.718,7.634-2.604c0.971,0.447,5.697,2.933,3.427,7.917l-12.04,26.445
            c-1.186,0.039-2.382,0.315-3.523,0.852c-4.498,2.113-6.433,7.474-4.318,11.973c3.896,8.295,9.43,13.605,16.444,15.782
            c13.165,4.084,27.015-4.027,40.409-11.871c9.108-5.333,20.439-11.965,26.061-10.229c2.012,0.625,3.881,2.75,5.558,6.317
            c2.113,4.498,7.471,6.432,11.973,4.318c4.499-2.113,6.433-7.474,4.318-11.973c-3.915-8.335-9.472-13.669-16.514-15.854
            c-13.201-4.101-27.073,4.028-40.491,11.887c-8.835,5.173-19.779,11.571-25.499,10.338c0.236-0.367,0.45-0.756,0.636-1.165
            l13.369-29.361c6.372-13.99-1.566-26.786-12.271-31.723c-10.707-4.939-24.96-2.631-31.482,11.334l-96.005,205.604
            c-3.896,8.347-1.534,17.921,5.272,24.408l-22.021,46.967H55.219c-4.971,0-9,4.029-9,9s4.029,9,9,9h38.586
            c0.065,0.001,0.131,0.002,0.196,0.002s0.131-0.001,0.196-0.002H291.88c4.971,0,9-4.029,9-9S296.851,401.564,291.88,401.564z"/>
    </symbol>

    <symbol id="services05" role="img" aria-labelledby="services05_title" viewBox="0 0 366.836 366.836">
        <title id="services05_title"></title>
        <path d="M287.794,357.836c0,4.971-4.029,9-9,9H88.042c-4.971,0-9-4.029-9-9s4.029-9,9-9h190.752
            C283.765,348.836,287.794,352.865,287.794,357.836z M146.221,187.955c-1.028-4.863-5.805-7.962-10.667-6.943
            c-23.91,5.058-36.033,13.417-36.033,24.847c0,28.502,75.311,29.325,83.897,29.325s83.894-0.823,83.894-29.325
            c0-11.429-12.122-19.788-36.031-24.846c-4.861-1.023-9.638,2.08-10.667,6.942s2.079,9.639,6.942,10.668
            c11.962,2.53,18.046,5.471,20.62,7.28c-6.145,4.481-28.409,11.28-64.758,11.28c-36.351,0-58.616-6.799-64.762-11.279
            c2.574-1.811,8.659-4.751,20.622-7.281C144.142,197.594,147.25,192.818,146.221,187.955z M167.208,207.579
            c0.1,0.003,0.199,0.005,0.298,0.005c4.836,0,8.832-3.839,8.99-8.707c0.144-4.422,0.003-8.625-0.418-12.492l-1.616-14.835
            c-0.539-4.94-4.972-8.51-9.922-7.973c-4.941,0.538-8.511,4.98-7.973,9.922l1.616,14.835c0.33,3.029,0.438,6.379,0.322,9.957
            C158.344,203.259,162.24,207.418,167.208,207.579z M148.479,126.154c1.318,3.675,4.78,5.965,8.472,5.965
            c1.009,0,2.034-0.171,3.038-0.531c4.679-1.678,7.111-6.831,5.434-11.51C150.366,78.1,120.59,25.603,82.174,4.16
            c-4.339-2.424-9.822-0.869-12.245,3.472s-0.868,9.823,3.472,12.245C101.474,35.547,130.943,77.263,148.479,126.154z M150.155,42.211
            c0-19.177,12.27-35.97,30.531-41.786c1.777-0.566,3.686-0.566,5.463,0c18.262,5.816,30.531,22.609,30.531,41.786
            c0,19.175-12.27,35.968-30.53,41.787c-0.889,0.283-1.811,0.425-2.732,0.425s-1.844-0.142-2.732-0.425
            C162.425,78.179,150.155,61.386,150.155,42.211z M168.155,42.211c0,10.32,6.026,19.47,15.263,23.596
            c9.236-4.126,15.263-13.275,15.263-23.596c0-10.321-6.025-19.471-15.263-23.595C174.181,22.74,168.155,31.89,168.155,42.211z
             M245.826,106.285c-4.905-0.799-9.534,2.52-10.339,7.424c-0.804,4.905,2.521,9.534,7.425,10.339
            c13.28,2.178,20.662,4.564,24.643,6.299c-10.759,4.536-39.612,10.481-84.137,10.481c-44.526,0-73.379-5.945-84.135-10.482
            c4.061-1.771,11.663-4.221,25.461-6.433c4.907-0.787,8.248-5.403,7.462-10.312c-0.787-4.907-5.397-8.243-10.312-7.462
            c-30.547,4.896-44.169,12.353-44.169,24.175c0,10.684,10.961,17.66,35.539,22.62c18.831,3.801,43.745,5.894,70.153,5.894
            s51.323-2.093,70.155-5.894c24.58-4.96,35.541-11.937,35.541-22.62C289.114,118.605,275.764,111.194,245.826,106.285z
             M296.907,7.632c-2.423-4.341-7.906-5.896-12.245-3.472c-38.423,21.446-68.196,73.941-83.248,115.918
            c-1.678,4.68,0.755,9.832,5.434,11.51c1.004,0.36,2.029,0.531,3.038,0.531c3.691,0,7.154-2.29,8.472-5.965
            c17.53-48.889,47-90.604,75.078-106.277C297.775,17.455,299.33,11.973,296.907,7.632z M210.265,173.497
            c0.537-4.941-3.033-9.383-7.975-9.92c-4.944-0.54-9.383,3.033-9.92,7.975l-1.612,14.833c-0.421,3.867-0.562,8.07-0.418,12.492
            c0.158,4.868,4.154,8.707,8.99,8.707c0.099,0,0.198-0.002,0.298-0.005c4.968-0.161,8.864-4.32,8.702-9.288
            c-0.116-3.578-0.008-6.928,0.322-9.959L210.265,173.497z M153.415,252.875l-9.579,64.544h-12.269c-4.971,0-9,4.029-9,9s4.029,9,9,9
            h20.031c4.46,0,8.248-3.267,8.902-7.679l10.719-72.223c0.729-4.917-2.664-9.494-7.581-10.224
            C158.718,244.56,154.144,247.959,153.415,252.875z M223,317.419l-9.579-64.544c-0.729-4.916-5.314-8.314-10.224-7.581
            c-4.917,0.729-8.311,5.307-7.581,10.224l10.719,72.223c0.654,4.412,4.442,7.679,8.902,7.679h20.027c4.971,0,9-4.029,9-9
            s-4.029-9-9-9H223z"/>
    </symbol>

    <symbol id="services06" role="img" aria-labelledby="services06_title" viewBox="0 0 381.268 381.268">
        <title id="services06_title"></title>
        <path d="M235.461,274.238c1.756,4.649-0.591,9.843-5.241,11.599c-11.979,4.523-25.711,6.914-39.709,6.914
            c-36.22,0-67.784-16.055-76.762-39.042c-1.808-4.63,0.479-9.849,5.11-11.657c4.628-1.809,9.848,0.479,11.657,5.11
            c6.242,15.986,31.474,27.589,59.994,27.589c11.85,0,23.382-1.989,33.352-5.754C228.51,267.238,233.705,269.588,235.461,274.238z
             M80.472,225.9c-4.771-1.372-9.762,1.389-11.134,6.167c-1.407,4.901-2.121,9.944-2.121,14.988c0,22.178,13.414,42.707,37.77,57.808
            c23.016,14.27,53.432,22.128,85.646,22.128c32.215,0,62.633-7.858,85.648-22.128c24.356-15.1,37.771-35.63,37.771-57.808
            c0-4.971-4.029-9-9-9s-9,4.029-9,9c0,15.717-10.39,30.813-29.255,42.51c-20.206,12.526-47.255,19.426-76.164,19.426
            c-28.907,0-55.955-6.899-76.16-19.426c-18.865-11.696-29.255-26.793-29.255-42.51c0-3.363,0.479-6.734,1.422-10.021
            C88.011,232.257,85.25,227.272,80.472,225.9z M139.939,89.927c-3.478,3.552-3.416,9.25,0.137,12.727l5.922,5.796
            c1.751,1.715,4.023,2.568,6.294,2.568c2.336,0,4.67-0.903,6.433-2.705c3.478-3.552,3.416-9.25-0.137-12.727l-5.922-5.796
            C149.113,86.314,143.415,86.376,139.939,89.927z M130.981,173.786c3.448-3.58,3.341-9.277-0.238-12.727l-25.188-24.263
            c-3.578-3.447-9.277-3.34-12.727,0.238c-3.448,3.58-3.341,9.277,0.238,12.727l25.188,24.263c1.746,1.682,3.996,2.518,6.243,2.518
            C126.857,176.542,129.214,175.619,130.981,173.786z M71.235,35.005L86.53,48.109c0.238,0.212,0.49,0.463,0.765,0.729
            c2.186,2.123,6.252,6.075,12.511,6.9c6.796,0.893,13.763-2.185,20.728-9.15c1.489-1.488,4.315-1.586,5.926-0.203l9.208,7.891
            l32.894,31.708c1.746,1.684,3.997,2.521,6.245,2.521c2.358,0,4.715-0.922,6.48-2.754c3.45-3.578,3.346-9.276-0.233-12.726
            L147.97,41.134c-0.126-0.122-0.257-0.24-0.39-0.354l-9.407-8.061c-8.676-7.437-22.299-6.925-30.367,1.143
            c-3.517,3.517-5.337,3.969-5.648,4.022c-0.542-0.229-1.69-1.345-2.317-1.954c-0.524-0.51-1.014-0.979-1.468-1.377
            c-0.027-0.024-0.055-0.048-0.082-0.071L82.946,21.335c-3.774-3.232-9.457-2.797-12.689,0.979
            C67.023,26.089,67.461,31.77,71.235,35.005z M134.132,119.926l-5.978-5.743c-3.584-3.444-9.281-3.33-12.726,0.255
            c-3.443,3.584-3.329,9.281,0.255,12.726l5.978,5.743c1.745,1.677,3.991,2.51,6.234,2.51c2.363,0,4.724-0.926,6.491-2.765
            C137.83,129.067,137.716,123.37,134.132,119.926z M355.2,216.791c-4.71,1.588-7.241,6.693-5.653,11.403
            c2.585,7.669,3.574,15.542,2.94,23.405c-2.02,25.206-20.298,48.723-51.469,66.218c-32.461,18.22-74.562,27.508-118.596,26.151
            c-56.206-1.732-107.836-21.485-134.742-51.552c-13.752-15.365-20.288-32.623-18.902-49.906c0.632-7.906,2.898-15.746,6.736-23.303
            c2.251-4.432,0.483-9.849-3.949-12.1c-4.43-2.25-9.848-0.484-12.1,3.949c-4.906,9.66-7.811,19.76-8.631,30.017
            c-1.788,22.313,6.314,44.219,23.432,63.347c30.536,34.122,85.715,55.632,147.602,57.54c2.99,0.092,5.971,0.138,8.944,0.138
            c44.007-0.001,85.974-10.038,119.016-28.584c36.566-20.524,58.089-49.104,60.602-80.474c0.831-10.306-0.456-20.601-3.826-30.597
            C365.016,217.734,359.909,215.203,355.2,216.791z M378.631,58.835c-3.514-3.514-9.212-3.515-12.728,0.001L336.16,88.581
            c-0.34,0.337-0.814,0.762-1.377,1.271c-5.313,4.823-16.368,14.859-16.692,28.295c-0.12,4.958,1.28,12.412,8.634,19.767
            c1.124,1.123,0.223,8.775-7.629,17.253l-51.082,48.893l-23.952,22.604c-6.36,6-17.362,7.464-20.279,4.94
            c-0.251-0.246-0.85-0.843-1.613-1.604l65.993-62.883c3.599-3.429,3.736-9.126,0.308-12.724c-3.429-3.599-9.127-3.736-12.725-0.308
            l-75.235,71.688c-6.365,6.004-17.382,7.461-20.313,4.909c-0.327-0.315-1.391-1.351-2.758-2.685c1.511-1.036,2.927-2.168,4.219-3.382
            l83.906-80.111c3.596-3.433,3.728-9.13,0.295-12.725c-3.434-3.596-9.129-3.728-12.725-0.295l-83.856,80.063
            c-6.085,5.723-17.592,7.241-21.214,4.027c-0.31-0.304-1.188-1.179-2.27-2.26l95.399-93.34c3.553-3.476,3.615-9.174,0.139-12.727
            c-3.475-3.552-9.173-3.617-12.727-0.139l-55.286,54.092l-5.14-3.766c-0.82-0.602-1.93-1.658-2.079-3.877
            c-0.205-3.036,1.397-6.67,4.082-9.258l75.416-72.705l9.21-7.891c1.614-1.381,4.438-1.284,5.925,0.202
            c6.967,6.969,13.94,10.05,20.732,9.152c6.259-0.826,10.325-4.779,12.51-6.903c0.274-0.267,0.525-0.517,0.765-0.729l15.293-13.105
            c3.774-3.234,4.212-8.916,0.978-12.69s-8.916-4.213-12.69-0.978l-15.344,13.148c-0.027,0.023-0.055,0.048-0.083,0.072
            c-0.453,0.397-0.941,0.866-1.464,1.374c-0.628,0.61-1.776,1.727-2.318,1.955c-0.311-0.054-2.132-0.506-5.649-4.024
            c-8.067-8.065-21.687-8.578-30.363-1.144l-9.412,8.062c-0.134,0.114-0.264,0.233-0.391,0.355l-75.605,72.889
            c-6.543,6.307-10.113,15.065-9.549,23.428c0.471,6.986,3.809,13.089,9.399,17.186l2.737,2.006l-33.563,32.839
            c-3.447,3.372-3.623,8.861-0.4,12.448c0.662,0.737,9.423,9.446,9.477,9.495c5.995,5.541,14.531,7.279,23.041,6.239
            c3.807,3.729,9.12,8.894,9.158,8.929c10.245,9.417,28.662,6.809,40.856-1.783c1.431,1.427,2.573,2.562,2.693,2.672
            c4.512,4.149,10.609,5.965,17.062,5.965c9.93,0,20.699-4.301,27.813-11.012l24-22.647l51.314-49.116
            c0.119-0.114,0.235-0.231,0.348-0.352c13.961-14.913,17.063-32.768,7.377-42.453c-3.444-3.445-3.387-5.823-3.368-6.604
            c0.139-5.726,7.607-12.506,10.797-15.401c0.797-0.724,1.463-1.333,1.976-1.842l29.774-29.775
            C382.147,68.048,382.147,62.349,378.631,58.835z M34.389,85.86c3.188,2.895,10.655,9.674,10.793,15.397
            c0.019,0.782,0.076,3.16-3.371,6.607c-9.684,9.685-6.581,27.538,7.376,42.452c0.109,0.117,0.222,0.23,0.337,0.342l46.987,45.127
            c1.745,1.676,3.99,2.509,6.233,2.509c2.364,0,4.726-0.926,6.492-2.766c3.443-3.585,3.328-9.282-0.257-12.726L62.173,137.85
            c-7.854-8.48-8.757-16.135-7.635-17.258c7.356-7.354,8.758-14.81,8.639-19.768C62.853,87.391,51.8,77.356,46.488,72.533
            c-0.563-0.511-1.037-0.937-1.349-1.244L15.364,41.514c-3.516-3.514-9.213-3.514-12.729,0c-3.515,3.516-3.515,9.214,0.001,12.729
            l29.805,29.804C32.924,84.524,33.591,85.135,34.389,85.86z"/>
    </symbol>

    <symbol id="footer-facebook" role="img" aria-labelledby="footer-facebook_title" viewBox="0 0 512 512">
        <title id="footer-facebook_title">Facebook</title>
        <path d="M314.829,135.492h70.595c11.423,0,20.682-9.26,20.682-20.682V20.682C406.107,9.26,396.848,0,385.425,0h-70.595
            c-76.282,0-138.341,62.06-138.341,138.341v49.913h-49.913c-11.422,0-20.682,9.26-20.682,20.682v94.127
            c0,11.423,9.26,20.682,20.682,20.682h49.913v167.572c0,11.423,9.26,20.682,20.682,20.682h94.127
            c11.423,0,20.682-9.259,20.682-20.682V323.746h49.913c9.49,0,17.763-6.458,20.065-15.666l23.532-94.127
            c1.544-6.179,0.156-12.725-3.763-17.744c-3.919-5.02-9.932-7.954-16.301-7.954H311.98v-49.913
            C311.98,136.77,313.258,135.492,314.829,135.492z M291.298,229.619h67.637l-13.191,52.763h-54.447
            c-11.423,0-20.682,9.259-20.682,20.682v167.572h-52.763V303.064c0-11.423-9.26-20.682-20.682-20.682h-49.913v-52.763h49.913
            c11.422,0,20.682-9.26,20.682-20.682v-70.595c0-53.473,43.503-96.977,96.977-96.977h49.913v52.763h-49.913
            c-24.38,0-44.214,19.835-44.214,44.214v70.595C270.615,220.359,279.875,229.619,291.298,229.619z"/>
    </symbol>

    <symbol id="footer-twitter" role="img" aria-labelledby="footer-twitter_title" viewBox="0 0 512 512">
        <title id="footer-twitter_title">Twitter</title>
        <path d="M502.954,47.189c-7.126-4.852-16.515-4.774-23.559,0.196c-15.351,10.828-31.974,19.528-49.557,25.948
            c-19.253-17.414-43.615-27.826-69.915-29.656c-31.056-2.16-61.081,7.9-84.561,28.326c-25.59,22.259-40.174,54.444-40.046,88.349
            c-85.248-7.609-139.14-61.55-177.09-108.986c-4.598-5.746-11.901-8.619-19.182-7.538c-7.279,1.078-13.438,5.944-16.171,12.777
            c-0.948,2.369-23.141,58.799-17.453,127.057c4.761,57.133,30.23,131.964,120.039,181.717
            c-32.436,14.756-68.282,21.939-103.953,20.519c-9.576-0.378-18.15,5.859-20.736,15.08c-2.587,9.221,1.497,19.013,9.869,23.665
            c51.359,28.532,108.03,43.736,163.889,43.965c0.432,0.002,0.861,0.003,1.294,0.003c54.105-0.001,106.379-13.938,151.246-40.336
            c42.898-25.241,78.416-61.759,102.715-105.603c26.162-47.206,39.427-101.75,39.427-162.186c-0.011-3.544-0.186-7.098-0.52-10.638
            c20.7-22.885,35.388-50.567,42.719-80.667C513.451,60.803,510.081,52.04,502.954,47.189z M432.297,128.07
            c-4.916,4.847-7.088,11.827-5.793,18.607c0.877,4.588,1.329,9.278,1.344,13.874c0,101.956-44.378,186.544-121.756,232.072
            c-60.586,35.649-133.037,43.933-203.609,25.057c0.729-0.201,1.459-0.407,2.185-0.615c27.596-7.885,53.63-20.055,77.377-36.174
            c6.329-4.296,9.77-11.734,8.946-19.34c-0.825-7.605-5.778-14.134-12.881-16.975C97.757,312.434,53.563,257.594,46.757,181.575
            c-2.536-28.334,0.707-54.721,4.766-74.501c16.638,17.909,37.384,37.227,62.129,53.407c42.771,27.966,90.663,42.146,142.346,42.146
            c11.423,0,20.682-9.26,20.682-20.682v-21.393c0-0.045,0-0.091,0-0.137c-0.146-21.948,9.268-42.797,25.829-57.202
            c15.146-13.175,34.51-19.665,54.543-18.27c20.026,1.393,38.311,10.502,51.487,25.648c5.339,6.138,13.783,8.577,21.567,6.229
            c5.725-1.724,11.375-3.645,16.941-5.757C442.599,117.081,437.672,122.769,432.297,128.07z"/>
    </symbol>    

    <symbol id="footer-linkedin" role="img" aria-labelledby="footer-linkedin_title" viewBox="0 0 512 512">
        <title id="footer-linkedin_title">Linkedin</title>
        <path d="M2.5,510V153.7h137.3V510H2.5z M102.5,472.7V191H39.8v281.7H102.5z"/>
        <path d="M375.4,510l0.1-158.1c0.5-23.6-8.8-42.9-24.9-51.7c-5.4-3-11.2-4.5-17.3-4.5c-5.2,0-10.4,1.1-15.5,3.3l-1.1,211H176.1
            V153.7h140.6V166c16.6-6,33.6-9.1,50.6-9.1c24.7,0,48.3,6.4,70.2,18.9c44,25.2,72.5,71.8,72.5,118.8V510H375.4z M472.7,472.7V294.6
            c0-33.8-21.1-67.7-53.7-86.4c-15.9-9.1-33.8-13.9-51.7-14h-0.3c-20.1,0-40.1,5.8-59.6,17.3L279.4,228V191h-66.1v281.7h66.2l1-194.7
            l8.2-5.5c13.7-9.2,29.1-14.1,44.5-14.1c12.4,0,24.2,3,35.1,9c13.7,7.5,25,19.2,32.8,33.8c7.9,14.9,11.9,32.6,11.5,51.1l0,120.3
            H472.7z"/>
        <path d="M70.9,139.9C32.9,139.9,2,109,2,71c0-38,30.9-69,68.9-69c38,0,68.9,30.9,68.9,69C139.8,109,108.9,139.9,70.9,139.9z
             M70.9,39.3c-17.4,0-31.6,14.2-31.6,31.7c0,17.5,14.2,31.7,31.6,31.7c17.4,0,31.6-14.2,31.6-31.7C102.5,53.5,88.3,39.3,70.9,39.3z"
            />
    </symbol>

    <symbol id="footer-instagram" role="img" aria-labelledby="footer-instagram_title" viewBox="0 0 512 512">
        <title id="footer-instagram_title">Instagram</title>
        <path d="M373.659,0H138.341C62.06,0,0,62.06,0,138.341v235.318C0,449.94,62.06,512,138.341,512h235.318
            C449.94,512,512,449.94,512,373.659V138.341C512,62.06,449.94,0,373.659,0z M470.636,373.659
            c0,53.473-43.503,96.977-96.977,96.977H138.341c-53.473,0-96.977-43.503-96.977-96.977V138.341
            c0-53.473,43.503-96.977,96.977-96.977h235.318c53.473,0,96.977,43.503,96.977,96.977V373.659z"/>
        <path d="M370.586,238.141c-3.64-24.547-14.839-46.795-32.386-64.342c-17.547-17.546-39.795-28.746-64.341-32.385
            c-11.176-1.657-22.507-1.657-33.682,0c-30.336,4.499-57.103,20.541-75.372,45.172c-18.269,24.631-25.854,54.903-21.355,85.237
            c4.499,30.335,20.541,57.102,45.172,75.372c19.996,14.831,43.706,22.619,68.153,22.619c5.667,0,11.375-0.418,17.083-1.265
            c30.336-4.499,57.103-20.541,75.372-45.172C367.5,298.747,375.085,268.476,370.586,238.141z M267.791,327.632
            c-19.405,2.882-38.77-1.973-54.527-13.66c-15.757-11.687-26.019-28.811-28.896-48.216c-2.878-19.405,1.973-38.77,13.66-54.527
            c11.688-15.757,28.811-26.019,48.217-28.897c3.574-0.53,7.173-0.795,10.772-0.795s7.199,0.265,10.773,0.796
            c32.231,4.779,57.098,29.645,61.878,61.877C335.608,284.268,307.851,321.692,267.791,327.632z"/>
        <path d="M400.049,111.951c-3.852-3.851-9.183-6.058-14.625-6.058c-5.442,0-10.773,2.206-14.625,6.058
            c-3.851,3.852-6.058,9.174-6.058,14.625c0,5.451,2.207,10.773,6.058,14.625c3.852,3.851,9.183,6.058,14.625,6.058
            c5.442,0,10.773-2.206,14.625-6.058c3.851-3.852,6.058-9.183,6.058-14.625C406.107,121.133,403.9,115.802,400.049,111.951z"/>
    </symbol>

    <symbol id="footer-phone" role="img" aria-labelledby="footer-phone_title" viewBox="0 0 512 512">
        <title id="footer-phone_title"></title>
        <path d="M421.216,195.504c-5.092-26.101-17.723-49.836-36.526-68.64c-18.804-18.803-42.54-31.434-68.641-36.527
			c-11.21-2.189-22.073,5.128-24.261,16.339c-2.187,11.212,5.128,22.073,16.339,24.26c36.847,7.188,65.3,35.642,72.489,72.489
			c1.927,9.874,10.581,16.726,20.278,16.726c1.313,0,2.645-0.125,3.984-0.387C416.088,217.577,423.403,206.715,421.216,195.504z"/>
		<path d="M511.422,196.929c-5.629-50.096-28.373-97.304-64.042-132.927C411.712,28.378,364.475,5.694,314.371,0.128
			c-11.355-1.261-21.578,6.92-22.839,18.272c-1.261,11.353,6.919,21.578,18.272,22.84c84.961,9.438,150.966,75.36,160.512,160.31
			c1.188,10.566,10.139,18.374,20.527,18.374c0.771,0,1.552-0.043,2.336-0.131C504.53,218.516,512.698,208.281,511.422,196.929z"/>
		<path d="M432.59,312.566c-0.062-0.008-0.124-0.017-0.186-0.025c-20.013-2.639-39.751-7.557-58.619-14.596
			c-23.91-8.99-51.103-3.191-69.27,14.772c-0.028,0.028-0.056,0.055-0.083,0.083l-17.148,17.148
			c-42.633-26.924-78.756-63.047-105.679-105.679l17.149-17.149c0.027-0.028,0.054-0.055,0.082-0.083
			c17.964-18.166,23.762-45.356,14.79-69.223c-7.057-18.914-11.974-38.653-14.614-58.666c-0.007-0.063-0.017-0.127-0.026-0.19
			c-4.591-32.478-32.782-56.734-65.548-56.467H66.053c-1.943,0.002-3.912,0.091-5.853,0.267
			C24.143,26.016-2.541,58.001,0.718,94.058c0.01,0.108,0.02,0.215,0.032,0.323c7.684,72.354,32.649,142.88,72.197,203.955
			c35.892,56.461,84.701,105.269,141.162,141.164c60.792,39.406,130.99,64.369,203.013,72.196c0.127,0.015,0.254,0.027,0.38,0.038
			c1.961,0.176,3.949,0.266,5.921,0.266c0.083,0,0.165,0,0.247,0.001c36.204-0.148,65.538-29.722,65.391-65.841v-67.233
			C489.746,345.714,465.515,317.211,432.59,312.566z M447.698,378.695v67.548c0.055,13.396-10.8,24.338-24.19,24.393
			c-0.715-0.004-1.425-0.027-2.135-0.086c-65.578-7.161-129.488-29.914-184.837-65.808c-0.053-0.035-0.107-0.069-0.161-0.103
			c-51.429-32.68-95.885-77.137-128.565-128.565c-0.032-0.051-0.064-0.101-0.097-0.153C71.683,220.306,48.928,156.086,41.902,90.193
			C40.779,76.91,50.63,65.155,63.923,63.954c0.717-0.064,1.443-0.098,2.145-0.098h67.463c0.146-0.001,0.294-0.003,0.443-0.002
			c12.021,0,22.322,8.905,24.044,20.819c3.05,23.063,8.721,45.806,16.871,67.649c3.319,8.832,1.189,18.869-5.427,25.591
			l-28.517,28.517c-6.583,6.582-7.956,16.753-3.354,24.847c33.837,59.508,83.177,108.847,142.685,142.685
			c8.094,4.6,18.264,3.23,24.848-3.355l28.512-28.512c6.72-6.621,16.765-8.752,25.642-5.415
			c21.799,8.134,44.547,13.805,67.61,16.855c12.18,1.757,21.122,12.339,20.816,24.647
			C447.7,378.353,447.698,378.524,447.698,378.695z"/>
    </symbol>    

	<symbol id="footer-mail" role="img" aria-labelledby="footer-mail_title" viewBox="0 0 512 512">
        <title id="footer-mail_title"></title>
        <path d="M256,141.176c-63.306,0-114.809,51.503-114.809,114.809S192.694,370.795,256,370.795s114.809-51.503,114.809-114.809
			S319.306,141.176,256,141.176z M256,329.43c-40.498,0-73.445-32.947-73.445-73.445c0-40.498,32.947-73.445,73.445-73.445
			c40.499,0,73.445,32.947,73.445,73.445C329.445,296.483,296.499,329.43,256,329.43z"/>
		<path d="M437.008,74.97C388.656,26.623,324.375,0,256,0c-0.005,0-0.013,0-0.017,0C187.603,0.004,123.318,26.637,74.97,74.992
			C26.62,123.347-0.005,187.637,0,256.017c0.004,68.379,26.637,132.666,74.992,181.014C123.344,485.377,187.625,512.001,256,512
			c0.004,0,0.012,0,0.017,0c55.945-0.004,111.216-18.738,155.631-52.752c9.07-6.945,10.792-19.927,3.846-28.995
			c-6.945-9.069-19.926-10.794-28.995-3.846c-37.24,28.518-83.58,44.224-130.486,44.228c-0.006,0-0.006,0-0.014,0
			c-57.324,0-111.224-22.324-151.761-62.856c-40.542-40.536-62.871-94.435-62.875-151.766
			C41.357,137.663,137.636,41.372,255.986,41.364c0.007,0,0.006,0,0.014,0c118.34,0,214.628,96.279,214.636,214.622v23.532
			c0,27.523-22.39,49.913-49.913,49.913c-27.523,0-49.913-22.391-49.913-49.913v-23.532c0-11.422-9.259-20.682-20.682-20.682
			s-20.682,9.26-20.682,20.682v23.532c0,50.33,40.947,91.278,91.278,91.278S512,329.848,512,279.518v-23.534
			C511.995,187.604,485.362,123.318,437.008,74.97z"/>
    </symbol>

    <symbol id="footer-location" role="img" aria-labelledby="footer-location_title" viewBox="0 0 512 512">
        <title id="footer-location_title"></title>
        <path d="M406.766,62.449C366.495,22.178,312.951,0,256,0S145.505,22.178,105.234,62.449
			c-40.272,40.271-62.449,93.814-62.449,150.766c0,37.656,10.972,76.863,32.609,116.532c16.825,30.846,40.15,62.102,69.326,92.898
			c49.17,51.903,97.763,84.519,99.808,85.881C248.001,510.842,252,512,256,512c4,0,7.999-1.158,11.473-3.474
			c2.045-1.363,50.638-33.978,99.808-85.881c29.176-30.795,52.501-62.051,69.326-92.898c21.637-39.669,32.609-78.876,32.609-116.532
			C469.215,156.263,447.038,102.72,406.766,62.449z M256.001,465.903C215.826,436.156,84.15,329.739,84.15,213.215
			c0-94.759,77.091-171.851,171.85-171.851s171.85,77.092,171.851,171.851C427.851,329.748,296.159,436.168,256.001,465.903z"/>
		<path d="M256,128.355c-46.791,0-84.86,38.068-84.86,84.86c0,46.791,38.068,84.86,84.86,84.86c46.792,0,84.861-38.068,84.86-84.86
			C340.86,166.423,302.791,128.355,256,128.355z M256,256.71c-23.983,0-43.495-19.512-43.495-43.495
			c0-23.983,19.512-43.495,43.495-43.495c23.984,0,43.495,19.512,43.495,43.495C299.495,237.198,279.984,256.71,256,256.71z"/>
		</symbol>

	<symbol id="footer-time" role="img" aria-labelledby="footer-time_title" viewBox="0 0 512 512">
        <title id="footer-time_title"></title>
        <path d="M437.019,74.981C388.667,26.629,324.38,0,256,0S123.333,26.63,74.981,74.981S0,187.62,0,256
			s26.629,132.667,74.981,181.019C123.332,485.371,187.62,512,256,512s132.667-26.629,181.019-74.981
			C485.371,388.667,512,324.38,512,256S485.371,123.332,437.019,74.981z M256,470.636C137.65,470.636,41.364,374.35,41.364,256
			S137.65,41.364,256,41.364S470.636,137.65,470.636,256S374.35,470.636,256,470.636z"/>
		<path d="M341.221,311.97l-64.538-64.537V114.809c0-11.422-9.259-20.682-20.682-20.682c-11.422,0-20.682,9.26-20.682,20.682V256
			c0,5.486,2.179,10.746,6.058,14.625l70.594,70.595c4.038,4.039,9.332,6.058,14.625,6.058c5.293,0,10.586-2.019,14.626-6.058
			C349.297,333.142,349.297,320.047,341.221,311.97z"/>
	</symbol>

</svg>