<svg xmlns="http://www.w3.org/2000/svg" xmlns:xlink="http://www.w3.org/1999/xlink">

	<symbol id="services01" role="img" aria-labelledby="services01_title" viewBox="0 0 512 512">
        <title id="services01_title"></title>
        <path d="m447.867188 290.34375c-32.984376-19.238281-76.421876-33.046875-124.339844-39.742188 1.683594-1.480468 3.332031-3.011718 4.933594-4.613281 34.878906-34.882812 39.949218-89.726562 12.054687-130.410156l-76.269531-111.234375c-1.863282-2.71875-4.949219-4.34375-8.246094-4.34375s-6.382812 1.625-8.246094 4.34375l-76.269531 111.230469c-27.894531 40.6875-22.828125 95.53125 12.054687 130.410156 1.601563 1.601563 3.25 3.136719 4.933594 4.617187-47.914062 6.695313-91.351562 20.503907-124.335937 39.738282-41.359375 24.117187-64.136719 55.601562-64.136719 88.660156 0 36.839844 27.550781 70.902344 77.578125 95.917969 47.828125 23.914062 111.191406 37.082031 178.421875 37.082031s130.59375-13.167969 178.421875-37.082031c50.027344-25.015625 77.578125-59.078125 77.578125-95.917969 0-33.054688-22.777344-64.539062-64.132812-88.65625zm-259.886719-163.457031 68.019531-99.203125 68.019531 99.203125c22.453125 32.746093 18.371094 76.886719-9.703125 104.960937-15.574218 15.574219-36.285156 24.15625-58.316406 24.15625s-42.742188-8.582031-58.316406-24.160156c-28.074219-28.074219-32.15625-72.214844-9.703125-104.957031zm237.496093 330.140625c-45.101562 22.554687-105.289062 34.972656-169.476562 34.972656s-124.375-12.417969-169.476562-34.972656c-42.898438-21.449219-66.523438-49.160156-66.523438-78.027344 0-54.125 83.945312-101.855469 195.480469-111.300781 12.628906 5.441406 26.355469 8.300781 40.519531 8.300781s27.890625-2.859375 40.519531-8.300781c111.535157 9.445312 195.480469 57.179687 195.480469 111.300781 0 28.867188-23.625 56.578125-66.523438 78.027344zm0 0"/>
        <path d="m364.328125 317.246094c-29.101563-12.902344-67.570313-20.007813-108.328125-20.007813s-79.226562 7.105469-108.328125 20.007813c-31.691406 14.050781-49.140625 33.714844-49.140625 55.371094 0 36.21875 48.972656 65.765624 121.863281 73.523437.359375.039063.714844.058594 1.070313.058594 5.046875 0 9.382812-3.8125 9.929687-8.941407.585938-5.492187-3.390625-10.417968-8.882812-11.003906-30.34375-3.230468-57.675781-10.902344-76.957031-21.609375-17.425782-9.675781-27.023438-21.050781-27.023438-32.023437 0-26.195313 56.457031-55.382813 137.46875-55.382813s137.46875 29.1875 137.46875 55.382813c0 23.277344-42.570312 46.089844-99.023438 53.0625-5.480468.679687-9.375 5.671875-8.699218 11.152344.679687 5.480468 5.675781 9.367187 11.152344 8.695312 32.167968-3.972656 60.167968-12.402344 80.976562-24.375 23.285156-13.398438 35.59375-30.183594 35.59375-48.535156 0-21.660156-17.449219-41.324219-49.140625-55.375zm0 0"/>
        <path d="m256.4375 428h-.4375c-5.523438 0-10 4.476562-10 10s4.476562 10 10 10h.4375c5.523438 0 10-4.476562 10-10s-4.476562-10-10-10zm0 0"/>
        <path d="m318.339844 368.667969c0-20.382813-32.316406-29.667969-62.339844-29.667969s-62.339844 9.285156-62.339844 29.667969c0 20.382812 32.316406 29.664062 62.339844 29.664062s62.339844-9.28125 62.339844-29.664062zm-62.339844-9.667969c24.234375 0 38.46875 6.261719 41.855469 9.667969-3.386719 3.402343-17.621094 9.664062-41.855469 9.664062s-38.46875-6.261719-41.855469-9.664062c3.386719-3.40625 17.621094-9.667969 41.855469-9.667969zm0 0"/>
        <path d="m256 236c16.6875 0 32.375-6.496094 44.175781-18.296875 21.265625-21.265625 24.355469-54.703125 7.351563-79.507813-3.125-4.554687-9.351563-5.714843-13.90625-2.589843-4.554688 3.125-5.714844 9.347656-2.589844 13.902343 11.5625 16.863282 9.460938 39.59375-5 54.054688-8.019531 8.019531-18.6875 12.4375-30.03125 12.4375-5.523438 0-10 4.476562-10 10s4.476562 10 10 10zm0 0"/>
        <path d="m212.152344 218.027344c1.949218 1.914062 4.480468 2.871094 7.011718 2.871094 2.585938 0 5.171876-.996094 7.128907-2.988282 3.875-3.933594 3.824219-10.265625-.113281-14.140625l-.210938-.210937c-3.90625-3.902344-10.238281-3.902344-14.144531 0-3.902344 3.90625-3.902344 10.238281 0 14.144531zm0 0"/>
    </symbol>

    <symbol id="services02" role="img" aria-labelledby="services02_title" viewBox="0 0 512 512">
        <title id="services02_title"></title>
        <path d="M484.958,243.114c-0.004-5.517-4.481-9.993-10.002-9.993h-26.561c-4.625-17.943-11.698-35.026-21.101-50.966
			l18.782-18.784c3.905-3.905,3.905-10.237,0-14.142l-28.29-28.29c-3.906-3.905-10.236-3.905-14.143,0
			c-3.905,3.905-3.905,10.237,0,14.142l21.22,21.219l-17.307,17.307c-3.333,3.333-3.886,8.54-1.327,12.499
			c11.704,18.11,19.939,37.999,24.477,59.115c0.99,4.608,5.063,7.899,9.776,7.899h24.476l0.021,59.611h-24.497
			c-4.713,0-8.787,3.291-9.776,7.899c-4.538,21.118-12.773,41.008-24.476,59.117c-2.559,3.958-2.006,9.166,1.327,12.499
			l17.375,17.375l-42.129,42.175l-17.397-17.397c-3.334-3.333-8.542-3.886-12.499-1.327c-18.108,11.704-37.998,19.939-59.117,24.477
			c-4.607,0.99-7.898,5.063-7.898,9.777v24.636l-59.612,0.021v-24.657c0-4.713-3.291-8.787-7.899-9.777
			c-21.117-4.538-41.008-12.773-59.117-24.477c-3.958-2.559-9.165-2.006-12.499,1.327l-17.466,17.466L87.15,409.713l17.466-17.466
			c3.333-3.333,3.886-8.541,1.327-12.5c-11.704-18.109-19.94-38-24.477-59.118c-0.99-4.608-5.064-7.899-9.777-7.899H47.031
			l0.021-59.611h24.636c4.713,0,8.787-3.291,9.776-7.899c4.538-21.117,12.773-41.007,24.478-59.116
			c2.559-3.959,2.006-9.167-1.327-12.5l-17.401-17.401l15.578-15.579c3.905-3.905,3.905-10.237,0-14.142
			c-3.906-3.905-10.236-3.905-14.143,0l-22.648,22.648c-1.875,1.875-2.929,4.419-2.929,7.071s1.054,5.196,2.929,7.071l18.878,18.878
			c-9.404,15.94-16.479,33.024-21.102,50.967h-26.72c-5.521,0-9.998,4.475-10,9.997l-0.029,79.61
			c-0.001,2.653,1.052,5.198,2.928,7.074c1.875,1.876,4.42,2.93,7.072,2.93h26.749c4.624,17.943,11.698,35.028,21.102,50.969
			l-18.943,18.943c-3.905,3.905-3.905,10.237,0,14.143l56.294,56.294c3.906,3.904,10.236,3.904,14.143,0l18.943-18.943
			c15.939,9.404,33.024,16.478,50.968,21.101v26.749c0,2.653,1.054,5.197,2.931,7.072c1.875,1.875,4.418,2.928,7.069,2.928
			c0.001,0,0.003,0,0.003,0l79.612-0.029c5.521-0.002,9.996-4.479,9.996-10v-26.721c17.946-4.625,35.027-11.698,50.967-21.102
			l18.878,18.878c1.876,1.875,4.419,2.929,7.071,2.929h0.003c2.653,0,5.197-1.056,7.072-2.933l56.263-56.325
			c3.901-3.906,3.899-10.235-0.004-14.138l-18.848-18.849c9.403-15.939,16.477-33.022,21.1-50.966h26.59
			c2.652,0,5.197-1.054,7.072-2.93c1.876-1.876,2.929-4.421,2.928-7.074L484.958,243.114z"/>
		<path d="M356.611,182.799l-0.228-0.228c-3.924-3.888-10.254-3.861-14.144,0.062c-3.888,3.922-3.859,10.254,0.063,14.142
			l0.103,0.103c1.955,1.973,4.528,2.96,7.103,2.96c2.545,0,5.09-0.965,7.04-2.897C360.47,193.053,360.498,186.721,356.611,182.799z"
			/>
		<path d="M502,40.015H377.997V10.015c0-5.523-4.478-10-10-10H144.003c-5.522,0-10,4.477-10,10v29.999H10c-5.522,0-10,4.477-10,10
			v39.999c0,5.523,4.478,10,10,10h124.004v6c0,2.79,1.145,5.31,2.987,7.124l70.183,70.183c1.461,1.46,3.328,2.414,5.334,2.768
			v37.906c0,3.519,1.85,6.779,4.871,8.584l28.628,17.106v38.337c0,18.746,15.251,33.995,33.995,33.995h24.003
			c7.718,0,13.996,6.279,13.996,13.996c0,7.717-6.278,13.996-13.996,13.996h-61.998c-18.745,0-33.995,15.25-33.995,33.995v11.229
			c-14.114-6.039-27.087-14.775-38.27-25.957c-23.042-23.041-35.732-53.679-35.732-86.265s12.69-63.222,35.732-86.265
			c3.905-3.905,3.905-10.237,0-14.142c-3.905-3.905-10.235-3.905-14.143,0c-26.819,26.819-41.59,62.478-41.59,100.406
			c0,37.929,14.771,73.587,41.59,100.406c26.819,26.82,62.477,41.59,100.406,41.59s73.587-14.771,100.406-41.59
			c45.265-45.265,54.643-115.605,22.804-171.057c-2.749-4.789-8.861-6.442-13.651-3.693c-4.789,2.75-6.442,8.862-3.692,13.651
			c27.35,47.635,19.289,108.065-19.603,146.956c-23.041,23.041-53.679,35.732-86.265,35.732c-9.548,0-18.924-1.098-27.995-3.217
			v-17.786c0-7.717,6.278-13.996,13.996-13.996h61.998c18.745,0,33.995-15.25,33.995-33.995c0-18.745-15.251-33.995-33.995-33.995
			h-24.003c-7.718,0-13.996-6.279-13.996-13.996v-38.337l28.628-17.106c3.021-1.805,4.871-5.065,4.871-8.584v-37.906
			c2.006-0.354,3.873-1.308,5.334-2.768l70.235-70.235c0.017-0.017,0.024-0.034,0.04-0.051c1.782-1.806,2.883-4.284,2.883-7.021v-6
			h124.003c5.522,0,10-4.477,10-10V50.014C512,44.491,507.522,40.015,502,40.015z M134.004,80.013H20v-20h114.004V80.013z
			 M279.506,218.32l-23.499,14.042l-23.499-14.042v-32.071h46.999V218.32z M293.626,166.248h-4.12h-66.998h-4.12l-50.236-50.236
			h175.71L293.626,166.248z M357.998,96.013H154.003V68.014h116.17c5.522,0,10-4.477,10-10c0-5.523-4.478-10-10-10h-116.17V20.015
			h203.995V96.013z M492,80.013H377.997v-20H492V80.013z"/>
		<path d="M312.69,48.014h-0.148c-5.522,0-10,4.477-10,10c0,5.523,4.477,10,10,10h0.148c5.522,0,10-4.477,10-10
			C322.69,52.491,318.212,48.014,312.69,48.014z"/>
    </symbol>

    <symbol id="services03" role="img" aria-labelledby="services03_title" viewBox="0 0 512 512">
        <title id="services03_title"></title>
        <path d="M246.714,132.702c-3.491,4.655-83.782,103.564-83.782,160.582c0,62.836,47.709,90.764,93.091,90.764
			c58.182,0,93.091-33.745,93.091-90.764s-80.291-157.091-83.782-160.582C260.678,126.884,251.369,126.884,246.714,132.702z
			 M325.842,293.284c0,58.182-44.218,67.491-69.818,67.491c-32.582,0-69.818-17.455-69.818-67.491
			c0-36.073,44.218-101.236,69.818-134.982C281.624,192.047,325.842,257.211,325.842,293.284z"/>
		<path d="M93.115,279.32c0-3.491,0-6.982,0-11.636c0-73.309,48.873-137.309,119.854-157.091c5.818-1.164,9.309-8.145,8.146-13.964
			c-1.164-5.818-8.146-9.309-13.964-8.146c-81.455,22.109-137.309,95.418-137.309,179.2c0,4.655,0,8.146,0,12.8
			c1.164,19.782-8.145,39.564-25.6,51.2c-5.818-19.782-9.309-41.891-9.309-64c0-109.382,79.127-201.309,186.182-217.6v8.145
			c0,4.655,2.327,9.309,6.982,10.473c1.164,1.164,3.491,1.164,4.655,1.164c3.491,0,5.818-1.164,8.145-3.491l23.273-23.273
			c4.655-4.655,4.655-11.636,0-16.291L240.896,3.538c-3.491-3.491-8.145-4.655-12.8-2.327c-4.655,1.164-6.982,5.818-6.982,10.473
			v13.964C101.26,43.102,11.66,145.502,11.66,267.684c0,29.091,4.655,58.182,15.127,86.109c1.164,3.491,3.491,5.818,6.982,6.982
			c1.164,0,2.327,0,4.655,0c1.164,0,3.491,0,4.655-1.164C75.66,345.647,95.442,313.065,93.115,279.32z"/>
		<path d="M439.878,409.647l-4.655-3.491c-27.927-18.618-64-18.618-93.091,0c-25.6,16.291-55.855,24.436-86.109,24.436
			c-40.727,0-80.291-15.127-110.545-43.055c-4.655-4.655-11.636-4.655-16.291,1.164c-4.655,4.655-4.655,11.636,1.164,16.291
			c33.745,31.418,79.127,48.873,125.673,48.873c34.909,0,68.655-9.309,97.745-27.927c19.782-11.636,41.891-13.964,60.509-4.655
			c-40.727,43.055-97.745,67.491-158.255,67.491c-65.164,0-125.673-27.927-167.564-76.8l9.309-5.818
			c3.491-2.327,5.818-6.982,4.655-11.636c-1.164-4.655-4.655-8.146-9.309-9.309l-32.582-5.818
			c-5.818-1.164-12.8,3.491-13.964,9.309l-5.818,32.582c-1.164,4.655,1.164,9.309,4.655,11.636
			c2.327,1.164,4.655,2.327,5.818,2.327c2.327,0,4.655-1.164,6.982-2.327l10.473-6.982
			c47.709,54.691,114.036,86.109,187.345,86.109c70.982,0,139.636-31.418,186.182-84.945c2.327-2.327,3.491-5.818,2.327-9.309
			C443.369,414.302,442.205,411.974,439.878,409.647z"/>
		<path d="M493.405,361.938l-10.473-4.655c11.636-27.927,17.455-58.182,17.455-89.6c0-115.2-82.618-216.436-195.491-239.709
			c-3.491-1.164-6.982,0-9.309,2.327c-3.491,2.327-4.655,5.818-4.655,9.309v11.636c0,30.255,16.291,59.345,44.218,74.473
			c51.2,27.927,83.782,82.618,83.782,141.964c0,15.127-2.327,29.091-5.818,43.055c-1.164,5.818,2.327,12.8,8.145,13.964
			c5.818,1.164,12.8-2.327,13.964-8.146c4.655-16.291,6.982-32.582,6.982-50.036c0-67.491-37.236-130.327-96.582-162.909
			c-18.618-10.473-30.255-29.091-31.418-50.036c95.418,25.6,162.909,112.873,162.909,212.945c0,27.927-4.655,54.691-15.127,80.291
			l-10.473-4.655c-4.655-2.327-9.309-1.164-12.8,2.327s-4.655,8.145-3.491,12.8l11.636,31.418c1.164,2.327,3.491,5.818,5.818,6.982
			c1.164,0,3.491,0,4.654,0s2.327,0,3.491-1.164l31.418-11.636c4.655-1.164,6.982-5.818,8.145-10.473
			C500.387,368.92,498.06,364.265,493.405,361.938z"/>
		<path d="M232.751,290.956c0-6.982-4.655-11.636-11.636-11.636c-6.982,0-11.636,4.655-11.636,11.636
			c0,25.6,20.945,46.545,46.545,46.545c6.982,0,11.636-4.655,11.636-11.636s-4.655-11.636-11.636-11.636
			C243.224,314.229,232.751,303.756,232.751,290.956z"/>
    </symbol>

    <symbol id="services04" role="img" aria-labelledby="services04_title" viewBox="0 0 512 512">
        <title id="services04_title"></title>
        <path d="M256,0C115.2,0,0,115.2,0,256s115.2,256,256,256c6.982,0,11.636-4.655,11.636-11.636s-4.655-11.636-11.636-11.636
			C128,488.727,23.273,384,23.273,256S128,23.273,256,23.273S488.727,128,488.727,256c0,111.709-79.127,207.127-188.509,228.073
			c-5.818,1.164-10.473,6.982-9.309,13.964c1.164,5.818,6.982,10.473,13.964,9.309C424.727,484.073,512,378.182,512,256
			C512,115.2,396.8,0,256,0z"/>
		<path d="M304.873,52.364c-5.818-1.164-12.8,2.327-13.964,8.145s2.327,12.8,8.145,13.964
			c80.291,19.782,137.309,88.436,143.127,169.891h-11.636c-6.982,0-11.636,4.655-11.636,11.636s4.655,11.636,11.636,11.636h10.473
			C435.2,360.727,360.727,435.2,267.636,441.018v-10.473c0-6.982-4.655-11.636-11.636-11.636s-11.636,4.655-11.636,11.636v10.473
			C151.273,435.2,76.8,360.727,70.982,267.636h10.473c6.982,0,11.636-4.655,11.636-11.636s-4.655-11.636-11.636-11.636H69.818
			c5.818-93.091,81.455-168.727,174.545-174.545v11.636c0,6.982,4.655,11.636,11.636,11.636s11.636-4.655,11.636-11.636V58.182
			c0-6.982-4.655-11.636-11.636-11.636C140.8,46.545,46.545,140.8,46.545,256S140.8,465.455,256,465.455S465.455,371.2,465.455,256
			C465.455,159.418,399.127,75.636,304.873,52.364z"/>
		<path d="M360.727,245.527h-33.745l44.218-88.436c2.327-4.654,1.164-10.473-2.327-13.964s-9.309-4.655-13.964-2.327l-87.273,44.218
			v-33.745c0-6.982-4.655-11.636-11.636-11.636s-11.636,4.655-11.636,11.636v52.364c0,3.491,2.327,8.146,5.818,10.473
			c3.491,2.327,8.145,2.327,11.636,0l73.309-37.236l-46.545,94.255l-9.309-9.309c0-2.327,1.164-3.491,1.164-5.818
			c0-12.8-10.473-23.273-23.273-23.273c-2.327,0-3.491,0-5.818,1.164L230.4,212.945c-2.327-2.327-5.818-3.491-10.473-3.491
			c-3.491,1.164-6.982,3.491-8.145,5.818l-15.127,29.091h-45.382c-6.982,0-11.636,4.655-11.636,11.636s4.655,11.636,11.636,11.636
			h33.745L140.8,356.073c-2.327,4.655-1.164,9.309,2.327,13.964c2.327,2.327,4.655,3.491,8.145,3.491c2.327,0,3.491,0,4.655-1.164
			l88.436-44.218v32.582c0,6.982,4.655,11.636,11.636,11.636s11.636-4.655,11.636-11.636v-52.364c0-3.491-2.327-8.145-5.818-10.473
			s-8.145-2.327-11.636,0l-73.309,37.236l46.545-94.255l9.309,9.309c0,2.327-1.164,3.491-1.164,5.818
			c0,12.8,10.473,23.273,23.273,23.273c2.327,0,3.491,0,5.818-1.164l20.945,20.945c2.327,2.327,4.655,3.491,8.145,3.491
			c1.164,0,1.164,0,2.327,0c3.491-1.164,6.982-3.491,8.145-5.818l13.964-27.927h46.545c6.982,0,11.636-4.655,11.636-11.636
			S367.709,245.527,360.727,245.527z"/>
    </symbol>

    <symbol id="services05" role="img" aria-labelledby="services05_title" viewBox="0 0 512 512">
        <title id="services05_title"></title>
        <path d="M489.589,206.2l-37.614-9.324c-4.738-16.952-11.496-33.23-20.146-48.528l13.554-26.381
			c1.985-3.864,1.249-8.569-1.823-11.641l-56.702-56.703c-3.073-3.072-7.774-3.809-11.642-1.824l-26.381,13.554
			c-15.298-8.65-31.576-15.407-48.528-20.146l-9.323-37.613C289.878,3.133,285.873,0,281.278,0h-40.096c-5.523,0-10,4.477-10,10
			v19.866c-56.71,2.449-109.673,25.684-150.063,66.072c-42.754,42.754-66.3,99.599-66.3,160.062s23.546,117.308,66.3,160.063
			c40.389,40.388,93.353,63.623,150.063,66.072v19.866c0,5.523,4.477,10,10,10h40.095c4.596,0,8.601-3.133,9.706-7.594l9.324-37.614
			c16.952-4.738,33.229-11.496,48.527-20.146l26.383,13.554c3.862,1.986,8.566,1.249,11.641-1.824l56.702-56.703
			c3.072-3.072,3.809-7.776,1.823-11.641l-13.554-26.382c8.649-15.298,15.407-31.576,20.146-48.528l37.614-9.324
			c4.461-1.105,7.594-5.11,7.594-9.706v-80.189C497.182,211.31,494.049,207.305,489.589,206.2z M231.18,462.128
			C122.021,456.887,34.82,366.435,34.82,256c0-110.434,87.202-200.886,196.362-206.123v28.871c-0.66,0.037-1.316,0.09-1.975,0.134
			c-0.675,0.045-1.352,0.085-2.025,0.138c-0.8,0.063-1.595,0.14-2.392,0.213c-0.675,0.062-1.352,0.118-2.025,0.188
			c-0.787,0.081-1.569,0.178-2.353,0.27c-0.678,0.079-1.358,0.152-2.033,0.239c-0.778,0.1-1.55,0.216-2.324,0.326
			c-0.675,0.096-1.352,0.184-2.024,0.288c-0.77,0.119-1.534,0.254-2.3,0.382c-0.672,0.113-1.347,0.217-2.017,0.337
			c-0.69,0.124-1.375,0.264-2.062,0.396c-1.511,0.29-3.014,0.599-4.511,0.927c-0.619,0.136-1.241,0.263-1.858,0.405
			c-0.781,0.18-1.555,0.376-2.331,0.567c-0.62,0.152-1.243,0.297-1.861,0.455c-0.776,0.199-1.547,0.414-2.319,0.623
			c-0.611,0.166-1.225,0.325-1.833,0.497c-0.77,0.218-1.533,0.45-2.299,0.677c-0.605,0.18-1.212,0.354-1.814,0.541
			c-0.763,0.236-1.52,0.485-2.278,0.731c-0.598,0.194-1.198,0.383-1.792,0.583c-0.755,0.254-1.504,0.519-2.254,0.783
			c-0.591,0.208-1.184,0.412-1.773,0.626c-0.748,0.272-1.49,0.555-2.234,0.836c-0.583,0.221-1.168,0.439-1.748,0.666
			c-0.74,0.289-1.475,0.589-2.21,0.888c-0.576,0.234-1.153,0.466-1.727,0.707c-0.732,0.307-1.459,0.622-2.186,0.939
			c-0.568,0.247-1.137,0.493-1.703,0.746c-0.725,0.324-1.445,0.657-2.165,0.991c-0.559,0.259-1.117,0.517-1.673,0.782
			c-0.718,0.342-1.432,0.692-2.145,1.043c-0.549,0.271-1.098,0.542-1.645,0.818c-0.71,0.359-1.416,0.725-2.12,1.094
			c-0.54,0.283-1.08,0.566-1.617,0.854c-0.702,0.377-1.401,0.759-2.097,1.145c-0.531,0.294-1.06,0.589-1.587,0.888
			c-0.695,0.394-1.386,0.793-2.074,1.196c-0.519,0.304-1.037,0.61-1.553,0.919c-0.688,0.412-1.372,0.828-2.054,1.249
			c-0.509,0.314-1.015,0.631-1.52,0.95c-0.679,0.429-1.355,0.861-2.028,1.299c-0.498,0.324-0.994,0.652-1.489,0.981
			c-0.671,0.446-1.34,0.895-2.005,1.35c-0.485,0.332-0.968,0.669-1.45,1.006c-0.664,0.464-1.326,0.931-1.983,1.403
			c-0.474,0.341-0.945,0.687-1.415,1.033c-0.656,0.481-1.31,0.965-1.958,1.455c-0.461,0.349-0.918,0.702-1.376,1.055
			c-0.649,0.5-1.296,1.001-1.938,1.51c-0.446,0.354-0.888,0.714-1.331,1.072c-0.642,0.519-1.283,1.039-1.918,1.567
			c-0.432,0.36-0.859,0.725-1.287,1.089c-0.635,0.539-1.271,1.078-1.899,1.626c-0.414,0.361-0.823,0.729-1.233,1.095
			c-0.632,0.562-1.264,1.122-1.887,1.693c-0.394,0.361-0.782,0.728-1.173,1.092c-0.629,0.586-1.259,1.171-1.88,1.766
			c-0.371,0.356-0.735,0.719-1.103,1.077c-0.63,0.615-1.262,1.228-1.883,1.852c-0.337,0.339-0.667,0.684-1.002,1.026
			c-0.642,0.655-1.285,1.308-1.916,1.973c-0.281,0.295-0.554,0.597-0.833,0.895c-0.675,0.721-1.351,1.441-2.015,2.173
			c-0.154,0.171-0.304,0.345-0.458,0.516c-3.286,3.652-6.42,7.442-9.398,11.357c-0.23,0.303-0.466,0.601-0.694,0.905
			c-0.539,0.719-1.066,1.447-1.594,2.174c-0.295,0.406-0.595,0.807-0.887,1.215c-0.49,0.685-0.967,1.38-1.447,2.072
			c-0.318,0.459-0.641,0.915-0.955,1.377c-0.454,0.668-0.897,1.345-1.342,2.02c-0.327,0.496-0.659,0.989-0.981,1.489
			c-0.426,0.66-0.841,1.327-1.259,1.993c-0.328,0.524-0.66,1.045-0.983,1.573c-0.402,0.657-0.794,1.32-1.188,1.982
			c-0.324,0.546-0.651,1.089-0.97,1.639c-0.382,0.657-0.754,1.321-1.127,1.983c-0.317,0.564-0.636,1.126-0.948,1.693
			c-0.361,0.658-0.714,1.321-1.067,1.984c-0.31,0.581-0.62,1.162-0.923,1.746c-0.342,0.659-0.675,1.323-1.009,1.987
			c-0.3,0.598-0.601,1.196-0.895,1.797c-0.323,0.661-0.638,1.326-0.953,1.992c-0.29,0.612-0.578,1.225-0.861,1.841
			c-0.305,0.664-0.603,1.331-0.899,1.999c-0.279,0.627-0.555,1.255-0.827,1.887c-0.287,0.666-0.567,1.335-0.846,2.005
			c-0.266,0.64-0.529,1.281-0.788,1.925c-0.269,0.671-0.534,1.343-0.795,2.018c-0.252,0.651-0.501,1.305-0.746,1.96
			c-0.252,0.674-0.5,1.35-0.744,2.027c-0.24,0.666-0.475,1.334-0.707,2.003c-0.234,0.674-0.464,1.35-0.69,2.028
			c-0.226,0.679-0.446,1.359-0.664,2.042c-0.216,0.677-0.431,1.356-0.639,2.037c-0.212,0.691-0.417,1.385-0.62,2.08
			c-0.199,0.678-0.396,1.358-0.586,2.04c-0.197,0.704-0.386,1.411-0.575,2.119c-0.181,0.68-0.361,1.359-0.534,2.042
			c-0.182,0.718-0.355,1.439-0.528,2.16c-0.163,0.68-0.327,1.359-0.482,2.041c-0.166,0.73-0.323,1.464-0.48,2.198
			c-0.146,0.681-0.293,1.36-0.43,2.044c-0.15,0.743-0.289,1.489-0.429,2.235c-0.128,0.68-0.258,1.359-0.378,2.041
			c-0.134,0.76-0.256,1.523-0.38,2.286c-0.11,0.675-0.223,1.348-0.325,2.025c-0.117,0.777-0.221,1.558-0.328,2.339
			c-0.092,0.67-0.188,1.338-0.272,2.01c-0.1,0.798-0.186,1.6-0.275,2.401c-0.074,0.659-0.153,1.317-0.219,1.978
			c-0.083,0.826-0.15,1.657-0.221,2.486c-0.055,0.642-0.118,1.283-0.166,1.927c-0.066,0.874-0.115,1.753-0.167,2.631
			c-0.036,0.603-0.081,1.204-0.111,1.809c-0.049,0.985-0.08,1.975-0.113,2.964c-0.017,0.502-0.043,1.002-0.055,1.506
			c-0.037,1.495-0.057,2.994-0.057,4.498c0,1.504,0.02,3.003,0.057,4.498c0.013,0.503,0.039,1.003,0.055,1.506
			c0.033,0.989,0.064,1.979,0.113,2.964c0.03,0.605,0.075,1.206,0.111,1.809c0.053,0.878,0.101,1.757,0.167,2.631
			c0.048,0.644,0.111,1.284,0.166,1.927c0.071,0.829,0.139,1.66,0.221,2.486c0.066,0.661,0.146,1.319,0.219,1.978
			c0.089,0.801,0.175,1.603,0.275,2.401c0.084,0.672,0.18,1.34,0.272,2.01c0.107,0.78,0.211,1.561,0.328,2.339
			c0.102,0.677,0.215,1.351,0.325,2.025c0.124,0.763,0.246,1.526,0.38,2.286c0.12,0.683,0.251,1.362,0.378,2.042
			c0.14,0.746,0.28,1.492,0.429,2.235c0.138,0.684,0.285,1.363,0.43,2.044c0.157,0.734,0.314,1.467,0.48,2.198
			c0.155,0.682,0.319,1.362,0.482,2.041c0.173,0.721,0.347,1.442,0.528,2.16c0.173,0.683,0.353,1.362,0.534,2.042
			c0.188,0.708,0.378,1.415,0.575,2.119c0.191,0.682,0.388,1.361,0.586,2.04c0.203,0.695,0.409,1.389,0.62,2.08
			c0.208,0.681,0.423,1.359,0.639,2.037c0.218,0.682,0.438,1.363,0.664,2.042c0.226,0.678,0.456,1.354,0.69,2.028
			c0.232,0.669,0.467,1.337,0.707,2.003c0.244,0.678,0.492,1.353,0.744,2.027c0.245,0.655,0.494,1.308,0.746,1.959
			c0.262,0.675,0.526,1.349,0.796,2.02c0.258,0.643,0.521,1.283,0.787,1.923c0.279,0.671,0.56,1.34,0.847,2.007
			c0.271,0.631,0.548,1.259,0.827,1.886c0.297,0.668,0.595,1.336,0.899,2c0.283,0.616,0.571,1.229,0.861,1.841
			c0.315,0.666,0.63,1.331,0.953,1.992c0.294,0.602,0.594,1.199,0.895,1.797c0.334,0.664,0.667,1.328,1.009,1.987
			c0.303,0.585,0.613,1.165,0.923,1.747c0.353,0.663,0.705,1.326,1.067,1.984c0.311,0.567,0.63,1.13,0.948,1.693
			c0.373,0.663,0.745,1.326,1.127,1.983c0.319,0.549,0.646,1.093,0.97,1.639c0.394,0.662,0.786,1.326,1.188,1.982
			c0.323,0.527,0.654,1.049,0.983,1.573c0.417,0.666,0.833,1.333,1.259,1.993c0.322,0.5,0.654,0.993,0.981,1.489
			c0.445,0.675,0.888,1.352,1.342,2.02c0.314,0.462,0.637,0.918,0.955,1.377c0.48,0.692,0.957,1.387,1.447,2.072
			c0.292,0.408,0.592,0.81,0.887,1.215c0.529,0.727,1.055,1.456,1.594,2.174c0.228,0.304,0.464,0.602,0.694,0.905
			c2.978,3.916,6.112,7.705,9.398,11.357c0.154,0.171,0.304,0.346,0.458,0.517c0.664,0.732,1.34,1.452,2.015,2.172
			c0.279,0.297,0.552,0.599,0.833,0.895c0.632,0.665,1.274,1.318,1.916,1.973c0.335,0.341,0.664,0.687,1.002,1.026
			c0.621,0.624,1.253,1.237,1.883,1.852c0.368,0.359,0.732,0.722,1.103,1.078c0.621,0.595,1.251,1.18,1.88,1.766
			c0.391,0.364,0.779,0.732,1.173,1.092c0.624,0.57,1.256,1.131,1.887,1.693c0.411,0.365,0.819,0.733,1.233,1.095
			c0.628,0.548,1.264,1.087,1.899,1.626c0.429,0.364,0.855,0.729,1.287,1.089c0.635,0.528,1.276,1.048,1.918,1.567
			c0.443,0.358,0.885,0.718,1.331,1.072c0.642,0.509,1.289,1.01,1.938,1.51c0.458,0.353,0.914,0.707,1.376,1.055
			c0.649,0.49,1.303,0.973,1.958,1.455c0.471,0.346,0.941,0.692,1.415,1.033c0.657,0.473,1.319,0.939,1.983,1.403
			c0.482,0.337,0.964,0.673,1.45,1.006c0.665,0.455,1.334,0.904,2.005,1.35c0.495,0.329,0.991,0.657,1.489,0.981
			c0.673,0.438,1.349,0.87,2.028,1.299c0.505,0.319,1.012,0.636,1.52,0.95c0.682,0.421,1.366,0.837,2.054,1.249
			c0.516,0.309,1.033,0.615,1.553,0.919c0.689,0.403,1.38,0.802,2.074,1.196c0.527,0.299,1.057,0.595,1.587,0.888
			c0.697,0.386,1.395,0.768,2.097,1.145c0.537,0.288,1.076,0.572,1.617,0.854c0.705,0.369,1.41,0.734,2.12,1.094
			c0.546,0.276,1.094,0.547,1.643,0.818c0.714,0.352,1.43,0.703,2.149,1.046c0.553,0.263,1.109,0.521,1.666,0.779
			c0.721,0.335,1.443,0.668,2.169,0.993c0.565,0.253,1.134,0.499,1.702,0.746c0.727,0.316,1.454,0.632,2.186,0.939
			c0.573,0.24,1.15,0.472,1.727,0.707c0.735,0.299,1.47,0.598,2.21,0.888c0.58,0.227,1.165,0.445,1.748,0.666
			c0.743,0.282,1.486,0.564,2.234,0.836c0.589,0.214,1.181,0.418,1.773,0.626c0.75,0.263,1.499,0.529,2.254,0.783
			c0.595,0.2,1.195,0.389,1.792,0.583c0.758,0.246,1.515,0.495,2.278,0.731c0.602,0.186,1.209,0.361,1.814,0.541
			c0.766,0.228,1.529,0.459,2.299,0.677c0.609,0.172,1.222,0.332,1.833,0.497c0.772,0.21,1.543,0.424,2.319,0.623
			c0.618,0.158,1.24,0.303,1.861,0.455c0.777,0.19,1.551,0.387,2.331,0.567c0.617,0.142,1.239,0.27,1.858,0.405
			c1.497,0.328,3.001,0.637,4.511,0.927c0.688,0.132,1.372,0.272,2.062,0.396c0.67,0.12,1.345,0.225,2.017,0.337
			c0.766,0.129,1.531,0.264,2.3,0.382c0.672,0.104,1.349,0.192,2.024,0.288c0.774,0.11,1.547,0.226,2.324,0.326
			c0.675,0.087,1.355,0.159,2.033,0.239c0.784,0.092,1.566,0.188,2.353,0.27c0.673,0.07,1.35,0.126,2.025,0.188
			c0.797,0.073,1.592,0.15,2.392,0.213c0.673,0.053,1.35,0.093,2.025,0.138c0.659,0.044,1.315,0.098,1.975,0.135V462.128z
			 M83.651,256c0-86.863,70.668-157.53,157.53-157.53c86.863,0,157.531,70.668,157.531,157.531s-70.668,157.53-157.531,157.53
			C154.32,413.531,83.651,342.863,83.651,256z M477.182,288.272l-35.766,8.865c-3.592,0.89-6.398,3.691-7.295,7.282
			c-4.74,18.965-12.232,37.063-22.266,53.79c-1.779,2.965-1.899,6.639-0.319,9.714l12.725,24.767l-46.391,46.392l-24.768-12.725
			c-3.073-1.58-6.749-1.46-9.714,0.319c-16.726,10.035-34.823,17.526-53.788,22.265c-3.591,0.897-6.392,3.704-7.282,7.295
			l-8.866,35.766h-22.271v-19.638v-39.11c0.66-0.037,1.316-0.09,1.975-0.135c0.675-0.045,1.352-0.085,2.025-0.138
			c0.8-0.063,1.595-0.14,2.392-0.213c0.675-0.062,1.352-0.118,2.025-0.188c0.787-0.082,1.569-0.178,2.353-0.27
			c0.678-0.079,1.358-0.152,2.033-0.239c0.778-0.1,1.55-0.216,2.324-0.326c0.674-0.096,1.352-0.184,2.023-0.288
			c0.768-0.118,1.53-0.253,2.295-0.381c0.674-0.113,1.351-0.218,2.022-0.338c0.679-0.122,1.352-0.26,2.028-0.39
			c1.526-0.292,3.044-0.604,4.556-0.936c0.616-0.135,1.234-0.262,1.847-0.403c0.784-0.181,1.561-0.378,2.341-0.569
			c0.617-0.151,1.236-0.295,1.851-0.453c0.773-0.198,1.539-0.412,2.308-0.62c0.616-0.167,1.234-0.328,1.847-0.501
			c0.764-0.216,1.522-0.446,2.281-0.672c0.61-0.182,1.223-0.358,1.83-0.546c0.757-0.234,1.509-0.482,2.262-0.726
			c0.604-0.196,1.209-0.387,1.81-0.589c0.752-0.253,1.499-0.518,2.247-0.781c0.592-0.208,1.186-0.412,1.776-0.627
			c0.749-0.272,1.492-0.555,2.236-0.837c0.583-0.221,1.167-0.439,1.747-0.665c0.739-0.289,1.472-0.588,2.205-0.886
			c0.578-0.235,1.157-0.468,1.733-0.709c0.73-0.306,1.455-0.621,2.18-0.936c0.57-0.248,1.141-0.495,1.708-0.749
			c0.722-0.323,1.44-0.655,2.157-0.987c0.561-0.26,1.123-0.52,1.681-0.786c0.716-0.341,1.429-0.69,2.14-1.041
			c0.55-0.271,1.1-0.543,1.648-0.82c0.709-0.359,1.414-0.724,2.118-1.092c0.541-0.283,1.082-0.567,1.62-0.856
			c0.7-0.376,1.397-0.757,2.091-1.142c0.534-0.295,1.066-0.592,1.596-0.893c0.691-0.392,1.378-0.789,2.064-1.19
			c0.523-0.306,1.045-0.615,1.565-0.926c0.684-0.41,1.365-0.823,2.043-1.242c0.513-0.317,1.024-0.636,1.533-0.958
			c0.675-0.426,1.347-0.856,2.015-1.29c0.502-0.327,1.001-0.657,1.5-0.988c0.668-0.444,1.334-0.891,1.996-1.344
			c0.489-0.335,0.975-0.674,1.461-1.014c0.66-0.461,1.317-0.924,1.97-1.394c0.479-0.345,0.955-0.694,1.43-1.044
			c0.651-0.478,1.3-0.958,1.944-1.444c0.466-0.352,0.928-0.71,1.39-1.067c0.643-0.496,1.285-0.993,1.921-1.497
			c0.454-0.36,0.903-0.726,1.353-1.091c0.634-0.513,1.268-1.027,1.896-1.549c0.439-0.365,0.873-0.737,1.308-1.107
			c0.629-0.534,1.259-1.067,1.881-1.61c0.421-0.367,0.835-0.741,1.253-1.112c0.625-0.556,1.25-1.11,1.867-1.674
			c0.403-0.368,0.799-0.744,1.198-1.116c0.621-0.579,1.244-1.156,1.857-1.744c0.378-0.362,0.749-0.731,1.123-1.097
			c0.624-0.608,1.249-1.215,1.864-1.833c0.345-0.347,0.683-0.7,1.025-1.05c0.634-0.647,1.269-1.293,1.893-1.949
			c0.293-0.308,0.578-0.623,0.868-0.933c0.663-0.708,1.327-1.415,1.978-2.133c0.181-0.199,0.356-0.403,0.535-0.603
			c3.243-3.609,6.339-7.352,9.281-11.218c0.246-0.323,0.498-0.641,0.741-0.966c0.529-0.704,1.044-1.418,1.562-2.131
			c0.306-0.42,0.617-0.836,0.919-1.259c0.48-0.672,0.948-1.353,1.419-2.031c0.328-0.473,0.661-0.943,0.985-1.419
			c0.447-0.658,0.883-1.325,1.322-1.99c0.334-0.506,0.671-1.009,1-1.518c0.421-0.653,0.832-1.313,1.245-1.972
			c0.333-0.531,0.669-1.059,0.996-1.594c0.398-0.65,0.786-1.306,1.176-1.962c0.329-0.553,0.66-1.105,0.984-1.662
			c0.376-0.649,0.743-1.303,1.112-1.957c0.322-0.572,0.646-1.143,0.962-1.719c0.357-0.651,0.706-1.308,1.056-1.964
			c0.313-0.588,0.627-1.175,0.933-1.767c0.339-0.655,0.671-1.314,1.002-1.973c0.302-0.602,0.604-1.203,0.9-1.808
			c0.321-0.657,0.635-1.319,0.948-1.981c0.292-0.617,0.583-1.235,0.868-1.856c0.303-0.66,0.599-1.323,0.894-1.987
			c0.28-0.63,0.558-1.261,0.83-1.895c0.285-0.664,0.565-1.33,0.843-1.998c0.267-0.643,0.532-1.288,0.792-1.935
			c0.268-0.667,0.531-1.337,0.791-2.008c0.254-0.655,0.504-1.311,0.75-1.97c0.251-0.671,0.498-1.344,0.741-2.019
			c0.241-0.668,0.476-1.337,0.709-2.008c0.233-0.673,0.463-1.348,0.689-2.024c0.227-0.681,0.448-1.364,0.666-2.048
			c0.216-0.675,0.429-1.351,0.636-2.029c0.212-0.693,0.418-1.389,0.622-2.085c0.198-0.677,0.395-1.354,0.585-2.034
			c0.197-0.706,0.388-1.415,0.576-2.124c0.181-0.679,0.361-1.357,0.534-2.039c0.182-0.718,0.355-1.439,0.528-2.16
			c0.163-0.679,0.326-1.358,0.481-2.04c0.166-0.731,0.323-1.466,0.48-2.201c0.145-0.679,0.292-1.358,0.43-2.04
			c0.15-0.745,0.29-1.494,0.431-2.243c0.128-0.678,0.258-1.354,0.377-2.034c0.134-0.76,0.256-1.525,0.38-2.288
			c0.109-0.674,0.223-1.347,0.325-2.023c0.118-0.781,0.222-1.566,0.33-2.35c0.091-0.665,0.187-1.329,0.27-1.996
			c0.1-0.801,0.187-1.607,0.276-2.412c0.073-0.657,0.152-1.312,0.218-1.971c0.083-0.831,0.151-1.666,0.223-2.501
			c0.055-0.637,0.116-1.271,0.164-1.909c0.066-0.879,0.115-1.763,0.168-2.645c0.036-0.6,0.08-1.197,0.11-1.798
			c0.049-0.986,0.08-1.976,0.113-2.965c0.017-0.502,0.043-1.001,0.055-1.504c0.037-1.495,0.057-2.994,0.057-4.498
			c0-1.504-0.02-3.003-0.057-4.498c-0.013-0.503-0.039-1.003-0.055-1.504c-0.033-0.99-0.064-1.98-0.113-2.965
			c-0.03-0.601-0.074-1.198-0.11-1.798c-0.053-0.882-0.102-1.766-0.168-2.645c-0.048-0.638-0.11-1.273-0.164-1.91
			c-0.072-0.834-0.14-1.67-0.223-2.501c-0.066-0.659-0.145-1.314-0.218-1.97c-0.09-0.805-0.176-1.61-0.276-2.412
			c-0.084-0.667-0.179-1.331-0.27-1.996c-0.108-0.784-0.212-1.569-0.33-2.35c-0.102-0.677-0.215-1.349-0.325-2.023
			c-0.124-0.764-0.246-1.528-0.38-2.288c-0.12-0.68-0.25-1.357-0.377-2.035c-0.141-0.749-0.281-1.497-0.431-2.243
			c-0.137-0.682-0.284-1.361-0.43-2.04c-0.157-0.735-0.314-1.47-0.48-2.201c-0.155-0.682-0.319-1.361-0.481-2.04
			c-0.173-0.721-0.347-1.442-0.528-2.16c-0.173-0.682-0.353-1.361-0.534-2.039c-0.189-0.709-0.379-1.418-0.576-2.124
			c-0.19-0.68-0.387-1.358-0.585-2.035c-0.204-0.697-0.41-1.392-0.622-2.085c-0.208-0.679-0.421-1.354-0.636-2.029
			c-0.219-0.684-0.44-1.368-0.666-2.048c-0.225-0.677-0.455-1.351-0.689-2.024c-0.233-0.671-0.468-1.341-0.709-2.008
			c-0.243-0.675-0.49-1.348-0.741-2.019c-0.246-0.659-0.497-1.315-0.75-1.97c-0.26-0.671-0.523-1.341-0.791-2.008
			c-0.26-0.647-0.525-1.292-0.792-1.935c-0.277-0.668-0.557-1.334-0.843-1.998c-0.273-0.634-0.551-1.265-0.83-1.895
			c-0.295-0.664-0.591-1.327-0.894-1.987c-0.285-0.621-0.576-1.238-0.868-1.856c-0.313-0.662-0.627-1.323-0.948-1.981
			c-0.296-0.605-0.598-1.207-0.9-1.808c-0.331-0.659-0.663-1.318-1.002-1.973c-0.307-0.592-0.62-1.179-0.933-1.767
			c-0.35-0.656-0.698-1.312-1.056-1.964c-0.316-0.576-0.64-1.147-0.962-1.719c-0.368-0.654-0.736-1.308-1.112-1.957
			c-0.323-0.557-0.655-1.109-0.984-1.662c-0.39-0.655-0.778-1.312-1.176-1.962c-0.327-0.535-0.663-1.063-0.996-1.594
			c-0.413-0.659-0.824-1.319-1.245-1.972c-0.329-0.509-0.666-1.012-1-1.518c-0.439-0.665-0.875-1.331-1.322-1.99
			c-0.324-0.476-0.656-0.946-0.985-1.419c-0.471-0.679-0.939-1.359-1.419-2.031c-0.302-0.423-0.613-0.839-0.919-1.259
			c-0.518-0.712-1.034-1.426-1.562-2.131c-0.244-0.325-0.495-0.643-0.741-0.966c-2.943-3.866-6.038-7.609-9.281-11.218
			c-0.18-0.2-0.355-0.404-0.535-0.603c-0.651-0.718-1.315-1.425-1.978-2.133c-0.29-0.31-0.576-0.625-0.868-0.933
			c-0.624-0.657-1.259-1.302-1.893-1.949c-0.342-0.349-0.68-0.703-1.025-1.05c-0.615-0.617-1.24-1.224-1.864-1.833
			c-0.375-0.365-0.745-0.735-1.123-1.097c-0.613-0.588-1.236-1.165-1.857-1.744c-0.399-0.372-0.796-0.747-1.198-1.116
			c-0.617-0.564-1.242-1.119-1.867-1.674c-0.417-0.371-0.832-0.745-1.253-1.112c-0.622-0.543-1.251-1.076-1.881-1.61
			c-0.435-0.37-0.869-0.741-1.308-1.106c-0.627-0.522-1.261-1.035-1.896-1.549c-0.45-0.364-0.899-0.73-1.353-1.091
			c-0.636-0.505-1.278-1.001-1.921-1.497c-0.463-0.357-0.924-0.714-1.39-1.067c-0.644-0.487-1.294-0.966-1.944-1.444
			c-0.476-0.349-0.951-0.699-1.43-1.044c-0.653-0.47-1.31-0.933-1.97-1.394c-0.486-0.34-0.972-0.679-1.461-1.014
			c-0.662-0.453-1.328-0.9-1.996-1.344c-0.499-0.331-0.998-0.661-1.5-0.988c-0.668-0.435-1.341-0.864-2.015-1.29
			c-0.509-0.322-1.02-0.641-1.533-0.958c-0.678-0.419-1.359-0.832-2.043-1.242c-0.52-0.311-1.042-0.62-1.565-0.926
			c-0.685-0.401-1.373-0.798-2.064-1.19c-0.53-0.301-1.062-0.598-1.596-0.893c-0.695-0.385-1.391-0.766-2.091-1.141
			c-0.538-0.289-1.079-0.573-1.62-0.856c-0.704-0.368-1.409-0.733-2.118-1.092c-0.547-0.277-1.097-0.549-1.648-0.82
			c-0.711-0.351-1.423-0.699-2.14-1.041c-0.558-0.266-1.12-0.526-1.681-0.786c-0.717-0.333-1.435-0.664-2.157-0.987
			c-0.567-0.254-1.138-0.501-1.708-0.749c-0.725-0.315-1.45-0.63-2.18-0.936c-0.575-0.241-1.154-0.474-1.733-0.709
			c-0.734-0.298-1.467-0.597-2.205-0.886c-0.58-0.227-1.164-0.445-1.747-0.665c-0.744-0.282-1.487-0.565-2.236-0.837
			c-0.589-0.214-1.183-0.419-1.776-0.627c-0.748-0.263-1.495-0.528-2.247-0.781c-0.601-0.202-1.206-0.393-1.81-0.589
			c-0.753-0.244-1.505-0.492-2.262-0.726c-0.608-0.188-1.22-0.364-1.83-0.546c-0.76-0.226-1.517-0.456-2.281-0.672
			c-0.613-0.173-1.231-0.334-1.847-0.501c-0.769-0.208-1.535-0.422-2.308-0.62c-0.614-0.158-1.234-0.302-1.851-0.453
			c-0.78-0.191-1.557-0.388-2.341-0.569c-0.613-0.141-1.232-0.268-1.847-0.403c-1.512-0.331-3.03-0.643-4.556-0.936
			c-0.676-0.13-1.349-0.268-2.028-0.389c-0.671-0.121-1.348-0.225-2.022-0.338c-0.765-0.128-1.527-0.263-2.295-0.381
			c-0.672-0.103-1.349-0.192-2.023-0.288c-0.775-0.11-1.547-0.226-2.324-0.326c-0.676-0.087-1.355-0.16-2.033-0.239
			c-0.784-0.092-1.566-0.188-2.353-0.27c-0.673-0.07-1.35-0.126-2.025-0.188c-0.797-0.073-1.592-0.15-2.392-0.213
			c-0.673-0.053-1.349-0.093-2.025-0.138c-0.659-0.044-1.314-0.098-1.975-0.134v-39.11V20h22.271l8.865,35.765
			c0.89,3.592,3.691,6.398,7.281,7.296c18.967,4.74,37.064,12.231,53.79,22.265c2.967,1.78,6.64,1.9,9.715,0.319l24.767-12.725
			l46.391,46.392l-12.725,24.766c-1.58,3.075-1.46,6.749,0.319,9.714c10.034,16.726,17.525,34.824,22.266,53.789
			c0.896,3.59,3.703,6.392,7.295,7.282l35.766,8.865V288.272z"/>
		<path d="M130.461,256.4c-0.13-0.64-0.32-1.27-0.57-1.87c-0.25-0.6-0.559-1.18-0.92-1.73c-0.37-0.54-0.78-1.05-1.25-1.52
			c-0.46-0.46-0.97-0.88-1.52-1.24c-0.54-0.36-1.12-0.67-1.721-0.92c-0.609-0.25-1.229-0.44-1.87-0.57
			c-1.29-0.26-2.619-0.26-3.909,0c-0.641,0.13-1.271,0.32-1.87,0.57c-0.601,0.25-1.181,0.56-1.73,0.92
			c-0.55,0.37-1.06,0.78-1.52,1.24c-0.46,0.47-0.88,0.98-1.24,1.52c-0.36,0.55-0.67,1.13-0.92,1.73c-0.25,0.6-0.44,1.23-0.57,1.87
			c-0.13,0.65-0.2,1.3-0.2,1.96c0,0.65,0.07,1.3,0.2,1.95c0.13,0.64,0.32,1.27,0.57,1.87c0.25,0.6,0.56,1.18,0.92,1.73
			c0.36,0.54,0.78,1.05,1.24,1.51c0.46,0.47,0.97,0.88,1.52,1.25c0.54,0.36,1.13,0.67,1.73,0.92s1.229,0.44,1.87,0.57
			c0.64,0.13,1.3,0.19,1.949,0.19c0.66,0,1.311-0.06,1.96-0.19c0.641-0.13,1.261-0.32,1.87-0.57c0.601-0.25,1.181-0.56,1.721-0.92
			c0.55-0.37,1.06-0.78,1.52-1.25c1.87-1.86,2.94-4.43,2.94-7.06C130.661,257.7,130.591,257.05,130.461,256.4z"/>
		<path d="M241.182,125.451c-34.15,0-66.468,13.148-90.999,37.022c-3.958,3.852-4.044,10.183-0.191,14.141
			c3.851,3.958,10.181,4.044,14.141,0.192c20.775-20.22,48.14-31.355,77.05-31.355c60.957,0,110.55,49.592,110.55,110.549
			c0,60.957-49.594,110.55-110.551,110.55c-42.346,0-81.533-24.763-99.833-63.087c-2.381-4.983-8.349-7.095-13.334-4.715
			c-4.983,2.38-7.094,8.349-4.715,13.333c10.478,21.941,26.844,40.518,47.33,53.724c21.055,13.572,45.451,20.746,70.552,20.746
			c71.985,0,130.55-58.564,130.55-130.549C371.732,184.015,313.167,125.451,241.182,125.451z"/>
		<path d="M311.188,218.035c-3.69-4.109-10.014-4.446-14.122-0.755l-60.017,53.923l-33.609-23.408
			c-4.531-3.157-10.765-2.04-13.921,2.491c-3.156,4.532-2.041,10.765,2.491,13.921l40.112,27.937
			c1.726,1.202,3.723,1.794,5.713,1.794c2.403,0,4.796-0.864,6.686-2.561l65.912-59.22
			C314.541,228.466,314.879,222.143,311.188,218.035z"/>
    </symbol>

	<symbol id="pew" role="img" aria-labelledby="pew_title" viewBox="0 0 452.589 452.59">
        <title id="pew_title"></title>
        <path d="M375.786,368.016c-1.022,62.699-34.434,85.385-69.898,83.283c-35.465-2.093-60.132-18.537-85.32-18.537l-1.032,0.576
			c-25.188,0-49.854,17.021-85.319,19.114c-35.466,2.093-68.876-19.449-69.898-82.148c2.056-57.565,45.911-61.798,83.265-129.8
			c32.891-59.881,71.954-55.035,71.954-55.035h1.03c0,0,39.4-4.586,71.955,55.035C329.698,308.599,373.73,310.449,375.786,368.016z
			 M156.203,159.636c31.413-2.382,54.172-40.021,50.832-84.071c-3.34-44.049-31.514-77.828-62.927-75.446
			C112.695,2.501,89.936,40.141,93.276,84.19C96.616,128.239,124.789,162.018,156.203,159.636z M275.264,160.401
			c30.698,8.368,65.097-19.742,76.83-62.786c11.732-43.044-3.642-84.722-34.339-93.09c-30.698-8.368-65.097,19.742-76.829,62.786
			C229.193,110.354,244.566,152.033,275.264,160.401z M417.486,125.937c-26.732-7.288-56.688,17.19-66.905,54.674
			c-10.217,37.484,3.171,73.777,29.903,81.064c26.733,7.287,56.688-17.191,66.906-54.675
			C457.608,169.518,444.22,133.224,417.486,125.937z M102.008,180.608c-10.218-37.482-40.172-61.961-66.905-54.674
			s-40.122,43.581-29.904,81.064c10.218,37.482,40.173,61.961,66.906,54.674C98.837,254.386,112.225,218.092,102.008,180.608z"/>
    </symbol>

    <symbol id="what02" role="img" aria-labelledby="what02_title" viewBox="0 0 512 512">
        <title id="what02_title"></title>
        <circle cx="320" cy="128" r="21.333"/>
		<circle cx="405.333" cy="128" r="21.333"/>
		<circle cx="384" cy="192" r="21.333"/>
		<circle cx="469.333" cy="234.667" r="21.333"/>
		<circle cx="469.333" cy="21.333" r="21.333"/>
		<circle cx="383.104" cy="64" r="21.333"/>
		<circle cx="490.667" cy="128" r="21.333"/>
		<polygon points="106.667,192 0,234.667 341.333,234.667 234.667,192 			"/>
		<path d="M0,512h341.333V256H0V512z M256,341.333c11.782,0,21.333,9.551,21.333,21.333S267.782,384,256,384
			s-21.333-9.551-21.333-21.333S244.218,341.333,256,341.333z M213.333,298.667c11.782,0,21.333,9.551,21.333,21.333
			s-9.551,21.333-21.333,21.333C201.551,341.333,192,331.782,192,320S201.551,298.667,213.333,298.667z M234.667,405.333
			c0,35.346-28.654,64-64,64c-35.346,0-64-28.654-64-64c0-35.346,28.654-64,64-64C206.013,341.333,234.667,369.987,234.667,405.333
			z M128,298.667c11.782,0,21.333,9.551,21.333,21.333s-9.551,21.333-21.333,21.333c-11.782,0-21.333-9.551-21.333-21.333
			S116.218,298.667,128,298.667z M85.333,341.333c11.782,0,21.333,9.551,21.333,21.333S97.115,384,85.333,384
			C73.551,384,64,374.449,64,362.667S73.551,341.333,85.333,341.333z"/>
		<path d="M234.667,149.333H256v-42.667h-21.333V85.333c0-11.782-9.551-21.333-21.333-21.333H128
			c-11.782,0-21.333,9.551-21.333,21.333v85.333h128V149.333z"/>
    </symbol>

    <symbol id="what03" role="img" aria-labelledby="what03_title" viewBox="0 0 512 512">
        <title id="what03_title"></title>
        <path d="M490.667,53.333h-85.333V10.667h-42.667v42.667h-85.333V10.667h-42.667v42.667h-85.333V10.667h-42.667v42.667H21.333
			C9.551,53.333,0,62.885,0,74.667v64h512v-64C512,62.885,502.449,53.333,490.667,53.333z"/>
		<path d="M0,480c0,11.782,9.551,21.333,21.333,21.333h320c5.657-0.001,11.083-2.25,15.083-6.251l149.333-149.333
			c4.001-4,6.249-9.425,6.251-15.083V181.333H0V480z M341.333,245.333h85.333V288h-85.333V245.333z M341.333,352
			c0-11.782,9.551-21.333,21.333-21.333h128L341.333,480V352z M277.333,288c11.782,0,21.333,9.551,21.333,21.333
			s-9.551,21.333-21.333,21.333c-11.782,0-21.333-9.551-21.333-21.333S265.551,288,277.333,288z M234.667,245.333
			c11.782,0,21.333,9.551,21.333,21.333c0,11.782-9.551,21.333-21.333,21.333c-11.782,0-21.333-9.551-21.333-21.333
			C213.333,254.885,222.885,245.333,234.667,245.333z M256,352c0,35.346-28.654,64-64,64c-35.346,0-64-28.654-64-64
			s28.654-64,64-64C227.346,288,256,316.654,256,352z M149.333,245.333c11.782,0,21.333,9.551,21.333,21.333
			c0,11.782-9.551,21.333-21.333,21.333C137.551,288,128,278.449,128,266.667C128,254.885,137.551,245.333,149.333,245.333z
			 M106.667,288c11.782,0,21.333,9.551,21.333,21.333s-9.551,21.333-21.333,21.333c-11.782,0-21.333-9.551-21.333-21.333
			S94.885,288,106.667,288z"/>
    </symbol>

    <symbol id="what04" role="img" aria-labelledby="what04_title" viewBox="0 0 512 512">
        <title id="what04_title"></title>
        <ellipse cx="64" cy="202.667" rx="64" ry="74.667"/>
		<ellipse cx="448" cy="202.667" rx="64" ry="74.667"/>
		<ellipse cx="170.667" cy="96" rx="64" ry="74.667"/>
		<ellipse cx="341.333" cy="96" rx="64" ry="74.667"/>
		<path d="M256,192c-94.213,0.106-170.561,76.454-170.667,170.667c0,58.389,29.611,128,170.667,128s170.667-69.611,170.667-128
			C426.561,268.454,350.213,192.106,256,192z M341.333,362.667h-64v64h-42.667v-64h-64V320h64v-64h42.667v64h64V362.667z"/>
    </symbol>

    <symbol id="what05" role="img" aria-labelledby="what05_title" viewBox="0 0 512 512">
        <title id="what05_title"></title>
        <path d="M448,0h-85.333v85.333c0,11.782-9.551,21.333-21.333,21.333H170.667c-11.782,0-21.333-9.551-21.333-21.333V0H64
			C52.218,0,42.667,9.551,42.667,21.333v469.333C42.667,502.449,52.218,512,64,512h384c11.782,0,21.333-9.551,21.333-21.333V21.333
			C469.333,9.551,459.782,0,448,0z M341.333,192c11.782,0,21.333,9.551,21.333,21.333c0,11.782-9.551,21.333-21.333,21.333
			c-11.782,0-21.333-9.551-21.333-21.333C320,201.551,329.551,192,341.333,192z M298.667,149.333
			c11.782,0,21.333,9.551,21.333,21.333c0,11.782-9.551,21.333-21.333,21.333c-11.782,0-21.333-9.551-21.333-21.333
			C277.333,158.885,286.885,149.333,298.667,149.333z M320,256c0,35.346-28.654,64-64,64s-64-28.654-64-64s28.654-64,64-64
			S320,220.654,320,256z M213.333,149.333c11.782,0,21.333,9.551,21.333,21.333c0,11.782-9.551,21.333-21.333,21.333
			C201.551,192,192,182.449,192,170.667C192,158.885,201.551,149.333,213.333,149.333z M170.667,192
			c11.782,0,21.333,9.551,21.333,21.333c0,11.782-9.551,21.333-21.333,21.333c-11.782,0-21.333-9.551-21.333-21.333
			C149.333,201.551,158.885,192,170.667,192z M128,362.667h85.333v42.667H128V362.667z M341.333,469.333H170.667v-42.667h170.667
			V469.333z M384,405.333H256v-42.667h128V405.333z"/>
		<rect x="170.667" width="170.667" height="85.333"/>
    </symbol>

    <symbol id="what06" role="img" aria-labelledby="what06_title" viewBox="0 0 435.783 435.783">
        <title id="what06_title"></title>
        <path d="M428.251,275.038c-15.706-18.083-52.923-17.488-83.122,1.346c-8.643,5.388-15.771,11.689-21.19,18.356H111.84
			c-5.411-6.667-12.538-12.979-21.188-18.356c-30.186-18.834-67.402-19.429-83.116-1.346c-15.706,18.083-3.958,48.007,26.228,66.836
			c4.329,2.687,8.8,5.002,13.335,6.942c-4.524,1.949-9.006,4.25-13.335,6.951C3.585,374.597-8.175,404.521,7.536,422.594
			c15.706,18.093,52.923,17.499,83.116-1.335c8.65-5.388,15.777-11.689,21.188-18.357h212.11
			c5.408,6.668,12.527,12.97,21.186,18.357c30.193,18.834,67.41,19.428,83.121,1.335c15.69-18.072,3.95-47.997-26.243-66.826
			c-4.321-2.701-8.79-5.002-13.324-6.951c4.524-1.94,9.003-4.256,13.324-6.942C432.202,323.045,443.942,293.121,428.251,275.038z"/>
		<path d="M350.873,164.219c-11.187,0-20.266,0-20.266,0l-6.281-19.276c-3.458-10.651-9.069-10.651-12.513,0
			c-3.483,10.648-6.281,19.276-6.281,19.276H285.26c-11.187,0-12.934,5.347-3.869,11.921c9.069,6.573,16.401,11.913,16.401,11.913
			l-6.281,19.284c-3.438,10.656,1.097,13.952,10.166,7.371c9.044-6.581,16.387-11.92,16.387-11.92l16.397,11.92
			c9.063,6.582,13.599,3.286,10.15-7.371c-3.474-10.656-6.276-19.284-6.276-19.284l16.412-11.913
			C363.801,169.559,362.055,164.219,350.873,164.219z"/>
		<path d="M145.471,164.219c-11.187,0-20.264,0-20.264,0l-6.281-19.276c-3.461-10.651-9.069-10.651-12.512,0
			c-3.486,10.648-6.282,19.276-6.282,19.276H79.861c-11.187,0-12.934,5.347-3.872,11.921c9.069,6.573,16.402,11.913,16.402,11.913
			l-6.281,19.284c-3.445,10.656,1.097,13.952,10.166,7.371c9.046-6.581,16.387-11.92,16.387-11.92l16.399,11.92
			c9.062,6.582,13.596,3.286,10.151-7.371c-3.476-10.656-6.279-19.284-6.279-19.284l16.414-11.913
			C158.402,169.559,156.656,164.219,145.471,164.219z"/>
		<path d="M393.299,250.699c7.673,0,14.848,1.021,21.389,2.931c4.164-16.321,6.357-33.241,6.357-50.48
			C421.045,91.126,329.911,0,217.898,0C105.883,0,14.749,91.126,14.749,203.149c0,17.295,2.14,34.221,6.281,50.506
			c6.563-1.93,13.761-2.956,21.465-2.956c6.391,0,12.9,0.741,19.393,2.062c-5.009-15.812-7.64-32.483-7.64-49.604
			c0-90.233,73.415-163.648,163.65-163.648c90.233,0,163.645,73.415,163.645,163.648c0,17.08-2.747,33.756-7.789,49.635
			C380.315,251.451,386.871,250.699,393.299,250.699z"/>
		<path d="M262.313,133.952c-15.163,0-27.432,0-27.432,0l-8.5-26.108c-4.677-14.409-12.284-14.409-16.953,0
			c-4.707,14.424-8.485,26.108-8.485,26.108h-27.467c-15.145,0-17.499,7.239-5.23,16.132c12.284,8.904,22.213,16.133,22.213,16.133
			l-8.5,26.108c-4.674,14.427,1.47,18.891,13.749,9.986c12.251-8.912,22.191-16.133,22.191-16.133l22.199,16.133
			c12.258,8.904,18.392,4.44,13.721-9.986c-4.683-14.416-8.476-26.108-8.476-26.108l22.217-16.133
			C279.812,141.19,277.465,133.952,262.313,133.952z"/>
    </symbol>

	<symbol id="process02" role="img" aria-labelledby="process02_title" viewBox="0 0 512 512">
        <title id="process02_title"></title>
        <path style="fill:#CFF09E;" d="M328.974,321.875c21.174,0,38.38-19.288,38.38-43.007s-17.208-43.01-38.38-43.01
			c-21.171,0-38.377,19.291-38.377,43.01C290.595,302.587,307.803,321.875,328.974,321.875L328.974,321.875z"/>
		<path style="fill:#507C5C;" d="M328.974,336.563c-29.261,0-53.068-25.883-53.068-57.696c0-31.814,23.806-57.697,53.068-57.697
			c29.263,0,53.069,25.883,53.069,57.697C382.043,310.68,358.237,336.563,328.974,336.563z M328.974,250.546
			c-13.063,0-23.69,12.704-23.69,28.32s10.627,28.318,23.69,28.318c13.064,0,23.691-12.703,23.691-28.318
			C352.666,263.25,342.037,250.546,328.974,250.546z"/>
		<path style="fill:#CFF09E;" d="M410.839,321.875c21.137,0,38.377-19.288,38.377-43.007s-17.23-43.01-38.377-43.01
			c-21.171,0-38.392,19.291-38.392,43.01C372.448,302.587,389.669,321.875,410.839,321.875L410.839,321.875z"/>
		<path style="fill:#507C5C;" d="M410.839,336.563c-29.269,0-53.081-25.883-53.081-57.696c0-31.814,23.812-57.697,53.081-57.697
			c29.261,0,53.068,25.883,53.068,57.697C463.906,310.68,440.1,336.563,410.839,336.563z M410.839,250.546
			c-13.069,0-23.703,12.704-23.703,28.32s10.633,28.318,23.703,28.318c13.063,0,23.69-12.703,23.69-28.318
			C434.529,263.25,423.902,250.546,410.839,250.546z"/>
		<path style="fill:#CFF09E;" d="M472.971,307.784c-16.651-2.606-33.073,9.036-37.408,26.521
			c-4.346,17.465,5.284,33.175,21.936,35.772c16.629,2.597,33.073-9.045,37.417-26.512C499.252,326.09,489.6,310.37,472.971,307.784
			L472.971,307.784z"/>
		<path style="fill:#507C5C;" d="M462.166,385.124C462.164,385.124,462.166,385.124,462.166,385.124c-2.315,0-4.648-0.181-6.932-0.538
			c-11.81-1.84-21.863-8.195-28.299-17.891c-6.833-10.294-8.832-23.057-5.626-35.94c5.463-22.029,25.221-38.028,46.981-38.028
			c2.319,0,4.659,0.182,6.951,0.541c11.789,1.836,21.836,8.186,28.277,17.879c6.843,10.297,8.851,23.064,5.655,35.952
			C503.694,369.137,483.924,385.124,462.166,385.124z M468.291,322.107c-8.442,0-16.209,6.617-18.47,15.732
			c-1.194,4.797-0.629,9.27,1.588,12.609c1.848,2.782,4.737,4.551,8.355,5.113c0.793,0.125,1.601,0.187,2.403,0.187
			c8.45,0.001,16.231-6.614,18.498-15.729c1.187-4.781,0.615-9.263-1.61-12.609c-1.851-2.785-4.736-4.552-8.342-5.113
			C469.905,322.17,469.094,322.107,468.291,322.107z"/>
		<path style="fill:#CFF09E;" d="M304.253,334.303c-4.343-17.484-20.766-29.126-37.417-26.521
			c-16.62,2.588-26.283,18.298-21.936,35.78c4.335,17.466,20.779,29.109,37.408,26.512
			C298.959,367.477,308.589,351.768,304.253,334.303L304.253,334.303z"/>
		<path style="fill:#507C5C;" d="M277.647,385.124c0,0-0.001,0-0.003,0c-21.764-0.001-41.531-15.993-47-38.023
			c-3.202-12.882-1.199-25.648,5.64-35.945c6.441-9.698,16.49-16.05,28.293-17.889c2.283-0.357,4.621-0.539,6.942-0.539
			c21.753,0,41.515,15.996,46.991,38.032c3.199,12.889,1.194,25.652-5.642,35.943c-6.44,9.692-16.488,16.043-28.296,17.885
			C282.29,384.944,279.959,385.124,277.647,385.124z M271.519,322.107c-0.805,0-1.616,0.063-2.41,0.188
			c-3.619,0.564-6.504,2.333-8.353,5.116c-2.222,3.343-2.789,7.822-1.6,12.609c2.262,9.114,10.037,15.727,18.489,15.727
			c0.001,0,0.001,0,0.001,0c0.801,0,1.605-0.062,2.396-0.185c3.621-0.566,6.509-2.334,8.355-5.115
			c2.221-3.34,2.788-7.817,1.601-12.604C287.732,328.727,279.961,322.107,271.519,322.107z"/>
		<path style="fill:#507C5C;" d="M409.983,512c-13.449,0-26.415-3.337-38.02-9.728C360.35,508.663,347.386,512,333.947,512
			c-43.725,0-79.296-35.567-79.296-79.285c0-28.899,15.729-55.29,40.666-69.224c9.088-34.591,40.18-58.955,76.652-58.955
			c36.469,0,67.555,24.369,76.639,58.965c16.25,9.12,29.019,23.852,35.614,41.362c2.858,7.591-0.977,16.064-8.569,18.924
			c-7.59,2.857-16.065-0.977-18.924-8.569c-4.739-12.581-14.537-22.888-26.885-28.279c-4.577-1.998-7.825-6.185-8.622-11.113
			c-3.87-23.893-25.044-41.91-49.253-41.91c-24.217,0-45.398,18.019-49.269,41.91c-0.798,4.928-4.045,9.114-8.621,11.112
			c-18.255,7.972-30.049,25.939-30.049,45.777c0,27.518,22.393,49.908,49.918,49.908c10.617,0,20.765-3.318,29.351-9.593
			c5.165-3.778,12.181-3.775,17.346,0.006c8.568,6.274,18.712,9.587,29.339,9.587c12.272,0,24.081-4.517,33.247-12.72
			c6.046-5.407,15.331-4.896,20.742,1.15c5.41,6.046,4.894,15.332-1.15,20.742C448.26,504.825,429.494,512,409.983,512z"/>
		<path style="fill:#CFF09E;" d="M101.162,100.706c21.174,0,38.38-19.288,38.38-43.007s-17.206-43.01-38.38-43.01
			c-21.171,0-38.377,19.291-38.377,43.01C62.784,81.418,79.991,100.706,101.162,100.706L101.162,100.706z"/>
		<path style="fill:#507C5C;" d="M101.162,115.396c-29.261,0-53.068-25.883-53.068-57.696C48.094,25.883,71.9,0,101.162,0
			c29.263,0,53.069,25.883,53.069,57.699C154.231,89.512,130.425,115.396,101.162,115.396z M101.162,29.378
			c-13.063,0-23.69,12.704-23.69,28.321c0,15.616,10.627,28.318,23.69,28.318c13.064,0,23.691-12.703,23.691-28.318
			C124.853,42.082,114.226,29.378,101.162,29.378z"/>
		<path style="fill:#CFF09E;" d="M183.028,100.706c21.137,0,38.377-19.288,38.377-43.007s-17.23-43.01-38.377-43.01
			c-21.171,0-38.392,19.291-38.392,43.01S161.857,100.706,183.028,100.706L183.028,100.706z"/>
		<path style="fill:#507C5C;" d="M183.028,115.396c-29.269,0-53.081-25.883-53.081-57.696c0-31.817,23.812-57.7,53.081-57.7
			c29.261,0,53.068,25.883,53.068,57.699C236.094,89.512,212.288,115.396,183.028,115.396z M183.028,29.378
			c-13.069,0-23.703,12.704-23.703,28.321c0,15.616,10.633,28.318,23.703,28.318c13.063,0,23.69-12.703,23.69-28.318
			C206.717,42.082,196.089,29.378,183.028,29.378z"/>
		<path style="fill:#CFF09E;" d="M245.16,86.615c-16.651-2.606-33.073,9.037-37.408,26.521c-4.346,17.465,5.284,33.175,21.936,35.772
			c16.629,2.597,33.073-9.045,37.417-26.512C271.44,104.922,261.788,89.203,245.16,86.615L245.16,86.615z"/>
		<path style="fill:#507C5C;" d="M234.354,163.957c-0.001,0-0.001,0-0.003,0c-2.312,0-4.645-0.181-6.929-0.538
			c-11.811-1.842-21.863-8.196-28.301-17.894c-6.833-10.292-8.831-23.055-5.624-35.939c5.461-22.027,25.221-38.026,46.979-38.026
			c2.321,0,4.661,0.182,6.952,0.541c11.788,1.835,21.835,8.183,28.277,17.876c6.843,10.297,8.851,23.064,5.655,35.954
			C275.882,147.967,256.11,163.957,234.354,163.957z M240.477,100.94c-8.442,0-16.209,6.616-18.468,15.73
			c-1.194,4.797-0.629,9.27,1.588,12.609c1.848,2.784,4.737,4.552,8.355,5.115c0.792,0.125,1.6,0.187,2.4,0.187
			c8.452,0,16.231-6.616,18.499-15.73c1.187-4.783,0.615-9.263-1.61-12.609c-1.849-2.784-4.734-4.551-8.34-5.112
			C242.093,101.003,241.282,100.94,240.477,100.94z"/>
		<path style="fill:#CFF09E;" d="M76.442,113.136C72.099,95.652,55.677,84.01,39.025,86.615c-16.62,2.588-26.283,18.298-21.936,35.78
			c4.335,17.466,20.78,29.109,37.408,26.512C71.148,146.31,80.777,130.601,76.442,113.136L76.442,113.136z"/>
		<path style="fill:#507C5C;" d="M49.835,163.957L49.835,163.957C28.066,163.956,8.3,147.964,2.832,125.931
			c-3.202-12.879-1.199-25.647,5.64-35.943c6.442-9.698,16.491-16.05,28.295-17.888c2.281-0.357,4.621-0.539,6.942-0.539
			c21.754,0,41.516,15.996,46.989,38.032c3.199,12.886,1.194,25.651-5.642,35.942c-6.438,9.692-16.487,16.043-28.296,17.886
			C54.478,163.777,52.147,163.957,49.835,163.957z M43.708,100.94c-0.805,0-1.617,0.063-2.412,0.188
			c-3.619,0.564-6.504,2.333-8.353,5.115c-2.222,3.345-2.789,7.822-1.601,12.607c2.264,9.117,10.038,15.73,18.492,15.73l0,0
			c0.801,0,1.607-0.062,2.396-0.185c3.619-0.566,6.509-2.334,8.356-5.116c2.219-3.34,2.786-7.817,1.6-12.604
			C59.922,107.558,52.15,100.94,43.708,100.94z"/>
		<path style="fill:#507C5C;" d="M182.172,290.831c-13.449,0-26.415-3.337-38.02-9.727c-11.61,6.39-24.574,9.727-38.014,9.727
			c-43.725,0-79.297-35.567-79.297-79.285c0-28.9,15.729-55.291,40.666-69.224c9.089-34.589,40.18-58.953,76.652-58.953
			c36.469,0,67.555,24.369,76.639,58.965c16.25,9.12,29.019,23.852,35.614,41.362c2.858,7.591-0.977,16.064-8.569,18.924
			c-7.588,2.857-16.065-0.977-18.924-8.569c-4.739-12.581-14.537-22.888-26.885-28.279c-4.577-1.998-7.825-6.185-8.622-11.114
			c-3.87-23.893-25.044-41.91-49.253-41.91c-24.217,0-45.399,18.019-49.269,41.91c-0.798,4.93-4.047,9.116-8.622,11.114
			c-18.254,7.969-30.047,25.936-30.047,45.775c0,27.518,22.394,49.908,49.92,49.908c10.618,0,20.767-3.317,29.348-9.592
			c5.167-3.776,12.183-3.776,17.347,0.006c8.566,6.272,18.711,9.586,29.339,9.586c12.299,0,24.126-4.534,33.299-12.765
			c6.036-5.417,15.326-4.918,20.742,1.122c5.419,6.037,4.916,15.325-1.122,20.742C220.518,283.631,201.724,290.831,182.172,290.831z"
		/>
    </symbol>

	<symbol id="how01" role="img" aria-labelledby="how01_title" viewBox="0 0 512 512">
        <title id="how01_title"></title>
        <polygon style="fill:#B8860B;" points="385.518,289.025 385.518,311.609 319.82,358.012 256.662,294.854 255.338,294.854 
			192.18,358.012 126.482,311.609 126.482,289.025 192.445,191.901 255.999,98.348 319.555,191.901 "/>
		<path style="fill:#271613;" d="M255.999,0C114.842,0,0,114.842,0,255.999s114.842,255.999,255.999,255.999
			c48.979,0,96.587-13.88,137.676-40.137c5.181-3.31,6.554-9.874,6.532-15.024V311.614c0-0.028-0.006-0.054-0.006-0.082v-22.507
			c0-2.941-0.884-5.817-2.537-8.25l-65.889-97.004c-0.026-0.04-0.047-0.081-0.073-0.12l-63.555-93.555
			c-2.734-4.024-7.282-6.433-12.147-6.433s-9.413,2.41-12.147,6.433l-63.555,93.555c-0.023,0.035-0.041,0.072-0.065,0.106
			l-65.9,97.018c-1.652,2.435-2.537,5.308-2.537,8.251v22.507c0,0.028-0.006,0.054-0.006,0.082v119.087
			c-50.309-41.6-82.421-104.47-82.421-174.701c0-124.964,101.667-226.63,226.63-226.63s226.63,101.667,226.63,226.63
			c0,18.676-2.275,37.24-6.761,55.176c-1.968,7.866,2.815,15.84,10.683,17.808c7.864,1.968,15.84-2.814,17.808-10.683
			c5.069-20.263,7.639-41.225,7.639-62.302C512,114.842,397.158,0,255.999,0z M321.56,372.585c0.2-0.024,0.401-0.046,0.599-0.078
			c0.204-0.032,0.405-0.075,0.608-0.116c0.184-0.038,0.369-0.076,0.551-0.12c0.209-0.051,0.417-0.109,0.624-0.169
			c0.173-0.05,0.344-0.104,0.515-0.162c0.211-0.07,0.423-0.144,0.633-0.225c0.16-0.062,0.319-0.129,0.476-0.197
			c0.216-0.093,0.432-0.184,0.645-0.288c0.138-0.068,0.273-0.142,0.41-0.213c0.228-0.119,0.455-0.236,0.678-0.367
			c0.06-0.037,0.119-0.078,0.179-0.115c0.275-0.169,0.551-0.335,0.816-0.523l42.542-30.046v111.457
			c-30.511,17.968-64.744,28.441-100.154,30.717V329.646l38.751,38.751c0.101,0.101,0.211,0.186,0.314,0.283
			c0.236,0.223,0.471,0.445,0.718,0.649c0.157,0.131,0.323,0.247,0.485,0.369c0.21,0.16,0.419,0.32,0.634,0.467
			c0.172,0.117,0.349,0.222,0.526,0.332c0.217,0.134,0.433,0.267,0.656,0.388c0.181,0.098,0.363,0.189,0.546,0.28
			c0.229,0.113,0.458,0.222,0.692,0.322c0.184,0.079,0.367,0.154,0.552,0.225c0.244,0.094,0.49,0.179,0.739,0.26
			c0.179,0.059,0.36,0.116,0.54,0.167c0.267,0.075,0.537,0.138,0.808,0.198c0.166,0.037,0.33,0.078,0.498,0.109
			c0.314,0.059,0.63,0.1,0.947,0.138c0.126,0.015,0.253,0.037,0.38,0.048c0.579,0.053,1.16,0.066,1.742,0.05
			c0.257-0.007,0.515-0.013,0.772-0.034C321.178,372.635,321.369,372.607,321.56,372.585z M299.034,187.835
			c-13.109,7.209-27.758,10.968-43.033,10.968c-15.275,0-29.924-3.761-43.033-10.969l43.033-63.355L299.034,187.835z M141.166,293.54
			l55.247-81.337c18.027,10.479,38.35,15.969,59.585,15.969s41.559-5.491,59.585-15.969l55.247,81.337v10.463l-49.378,34.876
			l-54.41-54.41c-2.753-2.753-6.489-4.301-10.383-4.301h-1.323c-3.894,0-7.63,1.548-10.383,4.301l-54.41,54.41l-49.378-34.876V293.54
			H141.166z M141.161,339.964l42.542,30.046c4.38,3.093,9.953,3.483,14.599,1.352c1.551-0.711,2.997-1.7,4.261-2.965l38.751-38.751
			v152.497c-36.369-2.338-70.425-13.288-100.154-30.836L141.161,339.964L141.161,339.964z"/>
    </symbol>

    <symbol id="how02" role="img" aria-labelledby="how02_title" viewBox="0 0 512 512">
        <title id="how02_title"></title>
        <path style="fill:#271613;" d="M497.497,512H14.503c-8.009,0-14.502-6.493-14.502-14.502V14.502C0.001,6.493,6.495,0,14.503,0
			h482.995c8.009,0,14.502,6.493,14.502,14.502v385.151c0,8.009-6.493,14.502-14.502,14.502s-14.502-6.493-14.502-14.502V29.004
			H29.005v453.992h468.493c8.009,0,14.502,6.493,14.502,14.502S505.507,512,497.497,512z"/>
		<path style="fill:#271613;" d="M427.065,441.568H84.935c-8.009,0-14.502-6.493-14.502-14.502V154.242
			c0-8.009,6.493-14.502,14.502-14.502c8.009,0,14.502,6.493,14.502,14.502v258.323h313.127V99.436H84.935
			c-8.009,0-14.502-6.493-14.502-14.502s6.493-14.502,14.502-14.502h342.131c8.009,0,14.502,6.493,14.502,14.502v342.132
			C441.567,435.076,435.075,441.568,427.065,441.568z"/>
		<path style="fill:#B8860B;" d="M157.444,354.556h197.111V157.444H157.444V354.556z"/>
		<path style="fill:#271613;" d="M354.556,369.058H157.444c-8.009,0-14.502-6.493-14.502-14.502V157.444
			c0-8.009,6.493-14.502,14.502-14.502h197.111c8.009,0,14.502,6.493,14.502,14.502v197.113
			C369.058,362.566,362.565,369.058,354.556,369.058z M171.946,340.054h168.107V171.946H171.946V340.054z"/>
    </symbol>

    <symbol id="how03" role="img" aria-labelledby="how03_title" viewBox="0 0 512 512">
        <title id="how03_title"></title>
        <circle style="fill:#B8860B;" cx="255.999" cy="256" r="112.533"/>
		<path style="fill:#271613;" d="M256.001,382.601c-69.807,0-126.6-56.793-126.6-126.6s56.793-126.6,126.6-126.6
			s126.6,56.793,126.6,126.6S325.808,382.601,256.001,382.601z M256.001,157.535c-54.295,0-98.467,44.172-98.467,98.467
			s44.172,98.467,98.467,98.467s98.467-44.172,98.467-98.467S310.295,157.535,256.001,157.535z"/>
		<path style="fill:#271613;" d="M279.385,512.001h-46.77c-16.208,0-29.394-13.186-29.394-29.394v-19.214
			c-19.925-5.042-38.866-12.891-56.545-23.432l-13.593,13.594c-5.493,5.493-14.4,5.493-19.894,0c-5.494-5.493-5.493-14.4,0-19.895
			l21.552-21.552c4.755-4.753,12.207-5.48,17.79-1.73c20.54,13.797,43.238,23.202,67.465,27.956
			c6.599,1.296,11.357,7.08,11.357,13.804v30.468c0,0.695,0.565,1.26,1.26,1.26h46.77c0.695,0,1.26-0.565,1.26-1.26v-30.468
			c0-6.724,4.759-12.508,11.357-13.804c24.227-4.755,46.926-14.16,67.465-27.956c5.583-3.749,13.037-3.023,17.79,1.73l21.552,21.552
			c0.491,0.492,1.29,0.491,1.781,0l33.072-33.072c0.491-0.491,0.491-1.29,0-1.781l-21.552-21.552
			c-4.753-4.755-5.479-12.208-1.73-17.79c13.797-20.54,23.202-43.238,27.956-67.465c1.296-6.599,7.08-11.357,13.804-11.357h30.468
			c0.695,0,1.26-0.565,1.26-1.26v-46.77c0-0.695-0.565-1.26-1.26-1.26h-30.468c-6.724,0-12.508-4.759-13.804-11.357
			c-4.755-24.227-14.16-46.926-27.956-67.465c-3.749-5.582-3.023-13.036,1.73-17.79l21.552-21.552c5.493-5.493,14.4-5.493,19.895,0
			c5.494,5.493,5.493,14.4,0,19.894l-13.594,13.593c10.542,17.678,18.389,36.62,23.432,56.545h19.214
			c16.208,0,29.394,13.186,29.394,29.394v46.77c0,16.208-13.186,29.394-29.394,29.394h-19.214
			c-5.042,19.925-12.891,38.866-23.432,56.545l13.594,13.593c11.46,11.46,11.46,30.107,0,41.568l-33.072,33.072
			c-11.46,11.46-30.107,11.459-41.568,0l-13.593-13.594c-17.678,10.542-36.62,18.389-56.545,23.432v19.214
			C308.779,498.816,295.593,512.001,279.385,512.001z"/>
		<path style="fill:#271613;" d="M68.392,402.931c-3.6,0-7.201-1.373-9.947-4.12c-5.493-5.493-5.493-14.4,0-19.895l13.594-13.593
			c-10.542-17.678-18.389-36.62-23.432-56.545H29.394C13.186,308.78,0,295.593,0,279.386v-46.77
			c0-16.208,13.186-29.394,29.394-29.394h19.214c5.041-19.925,12.891-38.866,23.432-56.545l-13.594-13.593
			c-11.46-11.46-11.46-30.107,0-41.568l33.072-33.072c11.46-11.46,30.107-11.459,41.568,0l13.593,13.594
			c17.678-10.54,36.618-18.389,56.545-23.432V29.394c-0.001-16.208,13.183-29.394,29.391-29.394h46.77
			c16.208,0,29.394,13.186,29.394,29.394v19.214c19.927,5.043,38.868,12.892,56.545,23.432l13.593-13.594
			c5.493-5.493,14.4-5.493,19.895,0s5.493,14.4,0,19.894L377.26,99.892c-4.755,4.753-12.208,5.48-17.79,1.73
			c-20.539-13.795-43.237-23.2-67.465-27.956c-6.599-1.296-11.357-7.08-11.357-13.804V29.394c0-0.695-0.565-1.26-1.26-1.26h-46.77
			c-0.695,0-1.26,0.565-1.26,1.26v30.468c0,6.724-4.759,12.508-11.357,13.804c-24.228,4.755-46.928,14.161-67.465,27.956
			c-5.582,3.75-13.036,3.024-17.79-1.73L113.19,78.339c-0.491-0.494-1.29-0.492-1.781,0l-33.071,33.072
			c-0.491,0.491-0.491,1.29,0,1.781l21.552,21.552c4.753,4.755,5.479,12.208,1.73,17.79c-13.797,20.54-23.202,43.238-27.956,67.465
			c-1.296,6.599-7.08,11.357-13.804,11.357H29.392c-0.695,0-1.26,0.565-1.26,1.26v46.77c0,0.695,0.565,1.26,1.26,1.26h30.468
			c6.724,0,12.508,4.759,13.804,11.357c4.755,24.227,14.16,46.926,27.956,67.465c3.749,5.582,3.023,13.036-1.73,17.79l-21.552,21.552
			C75.591,401.558,71.992,402.931,68.392,402.931z"/>
    </symbol>

    <symbol id="how04" role="img" aria-labelledby="how04_title" viewBox="0 0 512 512">
        <title id="how04_title"></title>
        <path style="fill:#271613;" d="M256.001,125.572c-34.621,0-62.786-28.165-62.786-62.786S221.38,0,256.001,0
			s62.786,28.165,62.786,62.786S290.62,125.572,256.001,125.572z M256.001,28.539c-18.883,0-34.247,15.364-34.247,34.247
			s15.364,34.247,34.247,34.247s34.247-15.364,34.247-34.247S274.884,28.539,256.001,28.539z"/>
		<path style="fill:#271613;" d="M430.463,512H42.231c-19.71,0-35.745-16.035-35.745-35.747V105.943
			c0-19.71,16.035-35.745,35.745-35.745h427.539c19.71,0,35.745,16.035,35.745,35.745v310.335c0,7.88-6.39,14.27-14.27,14.27
			c-7.88,0-14.27-6.39-14.27-14.27V105.943c0-3.973-3.233-7.206-7.206-7.206H42.231c-3.974,0-7.206,3.233-7.206,7.206v370.311
			c0,3.974,3.233,7.208,7.206,7.208h388.232c7.88,0,14.27,6.39,14.27,14.27S438.344,512,430.463,512z"/>
		<path style="fill:#B8860B;" d="M491.245,157.286v-51.343c0-11.861-9.615-21.476-21.476-21.476H42.231
			c-11.861,0-21.476,9.615-21.476,21.476v51.343L491.245,157.286L491.245,157.286z"/>
		<path style="fill:#271613;" d="M491.245,171.557H20.755c-7.881,0-14.27-6.39-14.27-14.27v-51.345
			c0-19.71,16.036-35.745,35.745-35.745h427.539c19.71,0,35.745,16.035,35.745,35.745v51.343
			C505.514,165.167,499.125,171.557,491.245,171.557z M35.025,143.018h441.951v-37.075c0-3.973-3.233-7.206-7.206-7.206H42.231
			c-3.974,0-7.206,3.233-7.206,7.206C35.025,105.943,35.025,143.018,35.025,143.018z"/>
		<path style="fill:#B8860B;" d="M123.416,284.998h-7.61c-17.206,0-31.155-13.948-31.155-31.155l0,0
			c0-17.206,13.948-31.155,31.155-31.155h7.61c17.206,0,31.155,13.948,31.155,31.155l0,0
			C154.572,271.049,140.623,284.998,123.416,284.998z"/>
		<path style="fill:#271613;" d="M123.417,299.269h-7.61c-25.047,0-45.424-20.377-45.424-45.426
			c0-25.047,20.377-45.424,45.424-45.424h7.61c25.047,0,45.424,20.377,45.424,45.424S148.463,299.269,123.417,299.269z
			 M115.806,236.958c-9.311,0-16.885,7.576-16.885,16.885c0,9.311,7.576,16.887,16.885,16.887h7.61
			c9.311,0,16.885-7.576,16.885-16.887c0-9.309-7.574-16.885-16.885-16.885L115.806,236.958L115.806,236.958z"/>
		<path style="fill:#271613;" d="M290.961,299.269c-7.88,0-14.27-6.39-14.27-14.27v-48.041H235.31v48.041
			c0,7.88-6.388,14.27-14.27,14.27s-14.27-6.39-14.27-14.27v-62.311c0-7.88,6.388-14.27,14.27-14.27h69.921
			c7.88,0,14.27,6.39,14.27,14.27v62.311C305.231,292.879,298.841,299.269,290.961,299.269z"/>
		<rect x="357.423" y="222.69" style="fill:#B8860B;" width="69.921" height="62.311"/>
		<path style="fill:#271613;" d="M427.35,299.269H357.43c-7.88,0-14.27-6.39-14.27-14.27v-62.311c0-7.88,6.39-14.27,14.27-14.27
			h69.921c7.88,0,14.27,6.39,14.27,14.27v62.311C441.62,292.879,435.23,299.269,427.35,299.269z M371.699,270.73h41.382v-33.772
			h-41.382V270.73z"/>
		<rect x="84.647" y="353.969" style="fill:#B8860B;" width="69.921" height="62.311"/>
		<path style="fill:#271613;" d="M154.572,430.548H84.651c-7.881,0-14.27-6.39-14.27-14.27v-62.311c0-7.88,6.388-14.27,14.27-14.27
			h69.921c7.881,0,14.27,6.39,14.27,14.27v62.311C168.841,424.158,162.451,430.548,154.572,430.548z M98.921,402.009h41.382v-33.772
			H98.921V402.009z"/>
		<path style="fill:#B8860B;" d="M259.805,416.277h-7.61c-17.206,0-31.155-13.948-31.155-31.155l0,0
			c0-17.206,13.948-31.155,31.155-31.155h7.61c17.206,0,31.155,13.948,31.155,31.155l0,0
			C290.961,402.329,277.011,416.277,259.805,416.277z"/>
		<path style="fill:#271613;" d="M259.806,430.548h-7.61c-25.047,0-45.424-20.377-45.424-45.426
			c0-25.047,20.377-45.424,45.424-45.424h7.61c25.047,0,45.424,20.377,45.424,45.424C305.231,410.17,284.852,430.548,259.806,430.548
			z M252.195,368.238c-9.311,0-16.885,7.576-16.885,16.885c0,9.311,7.576,16.887,16.885,16.887h7.61
			c9.309,0,16.885-7.576,16.885-16.887c0-9.309-7.576-16.885-16.885-16.885L252.195,368.238L252.195,368.238z"/>
		<path style="fill:#271613;" d="M427.35,430.548c-7.88,0-14.27-6.39-14.27-14.27v-48.041h-41.382v48.041
			c0,7.88-6.39,14.27-14.27,14.27c-7.88,0-14.27-6.39-14.27-14.27v-62.311c0-7.88,6.39-14.27,14.27-14.27h69.921
			c7.88,0,14.27,6.39,14.27,14.27v62.311C441.62,424.158,435.23,430.548,427.35,430.548z"/>
    </symbol>

    <symbol id="how05" role="img" aria-labelledby="how05_title" viewBox="0 0 512 512">
        <title id="how05_title"></title>
        <path style="fill:#271613;" d="M342.844,338.234c-43.316,0-86.635-16.489-119.612-49.465c-65.953-65.954-65.953-173.271,0-239.225
			c23.06-23.06,52.029-38.868,83.776-45.717c30.896-6.663,62.932-4.595,92.651,5.978c4.957,1.764,8.666,5.945,9.822,11.081
			c1.158,5.134-0.397,10.502-4.118,14.224L358.9,81.574c-5.993,5.991-15.705,5.993-21.699,0c-5.991-5.991-5.991-15.706,0-21.698
			l27.439-27.439c-43.262-6.788-88.19,7.285-119.709,38.805c-53.99,53.99-53.99,141.838,0,195.828
			c53.991,53.993,141.84,53.988,195.829,0c31.522-31.522,45.591-76.459,38.805-119.709l-82.721,82.721
			c-5.993,5.991-15.705,5.991-21.699,0l-93.226-93.226c-5.991-5.991-5.991-15.706,0-21.699c5.993-5.991,15.705-5.991,21.699,0
			l82.375,82.377l90.897-90.897c3.722-3.722,9.097-5.278,14.224-4.118c5.135,1.157,9.316,4.865,11.081,9.824
			c10.576,29.719,12.642,61.756,5.978,92.651c-6.849,31.746-22.657,60.715-45.715,83.775
			C429.48,321.745,386.161,338.234,342.844,338.234z"/>
		<path style="fill:#B8860B;" d="M234.082,277.919c-16.684-16.684-28.716-36.252-36.132-57.094l-163.3,163.3
			c-25.744,25.744-25.744,67.482,0,93.226l0,0c25.744,25.744,67.482,25.744,93.226,0l163.3-163.3
			C270.332,306.636,250.766,294.602,234.082,277.919z"/>
		<path style="fill:#271613;" d="M81.263,512.001c-21.707,0-42.113-8.454-57.462-23.803C8.452,472.851-0.002,452.445,0,430.738
			c-0.002-21.705,8.452-42.113,23.801-57.462l163.3-163.3c3.722-3.722,9.089-5.278,14.224-4.118c5.135,1.157,9.316,4.865,11.081,9.822
			c6.915,19.432,17.859,36.721,32.527,51.389c14.669,14.669,31.959,25.612,51.388,32.527c4.957,1.764,8.666,5.947,9.822,11.081
			c1.158,5.134-0.397,10.502-4.118,14.224l-163.3,163.298C123.376,503.548,102.969,512.001,81.263,512.001z M192.907,247.565
			L45.499,394.974c-9.552,9.554-14.813,22.255-14.813,35.764c0,13.509,5.261,26.21,14.813,35.764
			c9.552,9.554,22.253,14.815,35.764,14.815c13.509,0,26.21-5.261,35.764-14.815l147.409-147.408
			c-15.119-7.891-28.918-18.039-41.203-30.325C210.947,276.483,200.797,262.685,192.907,247.565z"/>
    </symbol>

    <symbol id="how06" role="img" aria-labelledby="how06_title" viewBox="0 0 512 512">
        <title id="how06_title"></title>
        <path style="fill:#B8860B;" d="M293.603,448.684H82.471c-37.966,0-68.744-30.777-68.744-68.743l0,0
			c0-37.966,30.777-68.744,68.744-68.744h211.132c37.966,0,68.744,30.777,68.744,68.744l0,0
			C362.346,417.906,331.568,448.684,293.603,448.684z"/>
		<path style="fill:#B8860B;" d="M266.563,407.466c-15.202,0-27.525-12.324-27.525-27.525s12.324-27.525,27.525-27.525
			s27.525,12.324,27.525,27.525"/>
		<path style="fill:#271613;" d="M266.563,421.192c-22.746,0-41.253-18.506-41.253-41.253s18.506-41.252,41.253-41.252
			s41.253,18.505,41.253,41.252c0,7.58-6.147,13.726-13.726,13.726c-7.58,0-13.726-6.147-13.726-13.726
			c0-7.609-6.191-13.799-13.8-13.799s-13.8,6.191-13.8,13.799c0,7.61,6.191,13.8,13.8,13.8c7.58,0,13.726,6.147,13.726,13.726
			C280.289,415.046,274.144,421.192,266.563,421.192z"/>
		<path style="fill:#B8860B;" d="M109.51,407.466c-15.202,0-27.525-12.324-27.525-27.525s12.324-27.525,27.525-27.525
			s27.525,12.324,27.525,27.525"/>
		<path style="fill:#271613;" d="M109.509,421.192c-22.746,0-41.252-18.506-41.252-41.253s18.505-41.252,41.252-41.252
			s41.253,18.505,41.253,41.252c0,7.58-6.147,13.726-13.726,13.726c-7.58,0-13.726-6.147-13.726-13.726
			c0-7.609-6.191-13.799-13.8-13.799c-7.609,0-13.799,6.191-13.799,13.799c0,7.61,6.191,13.8,13.799,13.8
			c7.58,0,13.726,6.147,13.726,13.726C123.235,415.046,117.09,421.192,109.509,421.192z"/>
		<path style="fill:#B8860B;" d="M478.508,332.288l-35.511-47.264l-57.981,11.537l16.435-43.007
			c9.866-25.818,38.793-38.749,64.611-28.883l0,0c25.818,9.867,38.75,38.793,28.883,64.611L478.508,332.288z"/>
		<path style="fill:#271613;" d="M373.356,129.207c-21.95,0-39.808-17.858-39.808-39.809c0-21.95,17.858-39.808,39.808-39.808
			c21.951,0,39.809,17.858,39.809,39.808C413.165,111.349,395.307,129.207,373.356,129.207z M373.356,77.042
			c-6.812,0-12.355,5.543-12.355,12.355c0,6.814,5.543,12.356,12.355,12.356c6.814,0,12.356-5.543,12.356-12.356
			C385.712,82.585,380.169,77.042,373.356,77.042z"/>
		<path style="fill:#271613;" d="M293.601,297.47H82.471c-0.489,0-0.972,0.029-1.459,0.037V94.795h137.722l46.871,112.547h-81.687
			c-7.58,0-13.726,6.147-13.726,13.726s6.147,13.726,13.726,13.726h102.136c0.051,0,0.102,0,0.152,0h29.726
			c5.677,0,10.768-3.495,12.808-8.79l27.527-71.443c2.726-7.075-0.799-15.018-7.872-17.744c-7.076-2.727-15.019,0.8-17.744,7.872
			l-24.139,62.653h-11.168L240.559,75.791c-2.132-5.117-7.128-8.449-12.671-8.449H67.287c-7.58,0-13.726,6.147-13.726,13.726v221.645
			C22.305,314.452,0,344.635,0,379.939c0,45.474,36.997,82.471,82.471,82.471h211.131c45.474,0,82.471-36.997,82.471-82.471
			S339.075,297.47,293.601,297.47z M293.601,434.957H82.471c-30.338,0-55.018-24.68-55.018-55.018
			c0-30.337,24.68-55.017,55.018-55.017h211.131c30.338,0,55.018,24.68,55.018,55.017
			C348.621,410.277,323.939,434.957,293.601,434.957z"/>
		<path style="fill:#271613;" d="M506.413,245.391c-5.208-11.65-13.584-21.258-24.147-27.902l16.247-64.478
			c1.482-5.886-1.076-12.048-6.295-15.151l-51.485-30.621c-6.515-3.874-14.938-1.734-18.813,4.781
			c-3.875,6.515-1.735,14.938,4.781,18.813l42.69,25.39l-13.087,51.936c-2.679-0.345-5.381-0.528-8.099-0.528
			c-26.261,0-50.204,16.485-59.579,41.021l-16.435,43.007c-1.784,4.667-0.889,9.935,2.332,13.754
			c3.224,3.819,8.274,5.587,13.168,4.608l49.515-9.853l30.326,40.362c2.613,3.478,6.694,5.481,10.973,5.481
			c0.634,0,1.274-0.044,1.913-0.135c4.947-0.696,9.127-4.025,10.91-8.693l16.436-43.007
			C513.845,278.268,513.364,260.941,506.413,245.391z M482.12,284.38l-7.566,19.796l-20.585-27.399
			c-2.623-3.491-6.709-5.481-10.973-5.481c-0.888,0-1.787,0.086-2.679,0.264l-33.612,6.687l7.565-19.796
			c5.342-13.976,18.979-23.366,33.937-23.366c4.417,0,8.777,0.81,12.955,2.406c9.062,3.463,16.231,10.248,20.191,19.104
			C485.31,265.45,485.584,275.32,482.12,284.38z"/>
    </symbol>
  
    <symbol id="footer-phone" role="img" aria-labelledby="footer-phone_title" viewBox="0 0 512 512">
        <title id="footer-phone_title"></title>
        <path d="M421.216,195.504c-5.092-26.101-17.723-49.836-36.526-68.64c-18.804-18.803-42.54-31.434-68.641-36.527
			c-11.21-2.189-22.073,5.128-24.261,16.339c-2.187,11.212,5.128,22.073,16.339,24.26c36.847,7.188,65.3,35.642,72.489,72.489
			c1.927,9.874,10.581,16.726,20.278,16.726c1.313,0,2.645-0.125,3.984-0.387C416.088,217.577,423.403,206.715,421.216,195.504z"/>
		<path d="M511.422,196.929c-5.629-50.096-28.373-97.304-64.042-132.927C411.712,28.378,364.475,5.694,314.371,0.128
			c-11.355-1.261-21.578,6.92-22.839,18.272c-1.261,11.353,6.919,21.578,18.272,22.84c84.961,9.438,150.966,75.36,160.512,160.31
			c1.188,10.566,10.139,18.374,20.527,18.374c0.771,0,1.552-0.043,2.336-0.131C504.53,218.516,512.698,208.281,511.422,196.929z"/>
		<path d="M432.59,312.566c-0.062-0.008-0.124-0.017-0.186-0.025c-20.013-2.639-39.751-7.557-58.619-14.596
			c-23.91-8.99-51.103-3.191-69.27,14.772c-0.028,0.028-0.056,0.055-0.083,0.083l-17.148,17.148
			c-42.633-26.924-78.756-63.047-105.679-105.679l17.149-17.149c0.027-0.028,0.054-0.055,0.082-0.083
			c17.964-18.166,23.762-45.356,14.79-69.223c-7.057-18.914-11.974-38.653-14.614-58.666c-0.007-0.063-0.017-0.127-0.026-0.19
			c-4.591-32.478-32.782-56.734-65.548-56.467H66.053c-1.943,0.002-3.912,0.091-5.853,0.267
			C24.143,26.016-2.541,58.001,0.718,94.058c0.01,0.108,0.02,0.215,0.032,0.323c7.684,72.354,32.649,142.88,72.197,203.955
			c35.892,56.461,84.701,105.269,141.162,141.164c60.792,39.406,130.99,64.369,203.013,72.196c0.127,0.015,0.254,0.027,0.38,0.038
			c1.961,0.176,3.949,0.266,5.921,0.266c0.083,0,0.165,0,0.247,0.001c36.204-0.148,65.538-29.722,65.391-65.841v-67.233
			C489.746,345.714,465.515,317.211,432.59,312.566z M447.698,378.695v67.548c0.055,13.396-10.8,24.338-24.19,24.393
			c-0.715-0.004-1.425-0.027-2.135-0.086c-65.578-7.161-129.488-29.914-184.837-65.808c-0.053-0.035-0.107-0.069-0.161-0.103
			c-51.429-32.68-95.885-77.137-128.565-128.565c-0.032-0.051-0.064-0.101-0.097-0.153C71.683,220.306,48.928,156.086,41.902,90.193
			C40.779,76.91,50.63,65.155,63.923,63.954c0.717-0.064,1.443-0.098,2.145-0.098h67.463c0.146-0.001,0.294-0.003,0.443-0.002
			c12.021,0,22.322,8.905,24.044,20.819c3.05,23.063,8.721,45.806,16.871,67.649c3.319,8.832,1.189,18.869-5.427,25.591
			l-28.517,28.517c-6.583,6.582-7.956,16.753-3.354,24.847c33.837,59.508,83.177,108.847,142.685,142.685
			c8.094,4.6,18.264,3.23,24.848-3.355l28.512-28.512c6.72-6.621,16.765-8.752,25.642-5.415
			c21.799,8.134,44.547,13.805,67.61,16.855c12.18,1.757,21.122,12.339,20.816,24.647
			C447.7,378.353,447.698,378.524,447.698,378.695z"/>
    </symbol>

	<symbol id="footer-mail" role="img" aria-labelledby="footer-mail_title" viewBox="0 0 512 512">
        <title id="footer-mail_title"></title>
        <path d="M256,141.176c-63.306,0-114.809,51.503-114.809,114.809S192.694,370.795,256,370.795s114.809-51.503,114.809-114.809
			S319.306,141.176,256,141.176z M256,329.43c-40.498,0-73.445-32.947-73.445-73.445c0-40.498,32.947-73.445,73.445-73.445
			c40.499,0,73.445,32.947,73.445,73.445C329.445,296.483,296.499,329.43,256,329.43z"/>
		<path d="M437.008,74.97C388.656,26.623,324.375,0,256,0c-0.005,0-0.013,0-0.017,0C187.603,0.004,123.318,26.637,74.97,74.992
			C26.62,123.347-0.005,187.637,0,256.017c0.004,68.379,26.637,132.666,74.992,181.014C123.344,485.377,187.625,512.001,256,512
			c0.004,0,0.012,0,0.017,0c55.945-0.004,111.216-18.738,155.631-52.752c9.07-6.945,10.792-19.927,3.846-28.995
			c-6.945-9.069-19.926-10.794-28.995-3.846c-37.24,28.518-83.58,44.224-130.486,44.228c-0.006,0-0.006,0-0.014,0
			c-57.324,0-111.224-22.324-151.761-62.856c-40.542-40.536-62.871-94.435-62.875-151.766
			C41.357,137.663,137.636,41.372,255.986,41.364c0.007,0,0.006,0,0.014,0c118.34,0,214.628,96.279,214.636,214.622v23.532
			c0,27.523-22.39,49.913-49.913,49.913c-27.523,0-49.913-22.391-49.913-49.913v-23.532c0-11.422-9.259-20.682-20.682-20.682
			s-20.682,9.26-20.682,20.682v23.532c0,50.33,40.947,91.278,91.278,91.278S512,329.848,512,279.518v-23.534
			C511.995,187.604,485.362,123.318,437.008,74.97z"/>
    </symbol>

    <symbol id="footer-fax" role="img" aria-labelledby="footer-fax_title" viewBox="0 0 512 512">
        <title id="footer-fax_title"></title>
        <path d="M397.191,0H114.809c-11.422,0-20.682,9.26-20.682,20.682v164.722c0,11.422,9.26,20.682,20.682,20.682
			s20.682-9.26,20.682-20.682V41.364h241.017v144.04c0,11.422,9.259,20.682,20.682,20.682c11.422,0,20.682-9.26,20.682-20.682
			V20.682C417.873,9.26,408.614,0,397.191,0z"/>
		<path d="M444.254,164.722H67.746C30.391,164.722,0,195.113,0,232.468v117.659c0,37.355,30.391,67.746,67.746,67.746h47.064
			c11.422,0,20.682-9.259,20.682-20.682s-9.26-20.682-20.682-20.682H67.746c-14.547,0-26.381-11.834-26.381-26.38V232.469
			c0-14.547,11.835-26.381,26.381-26.381h376.508c14.547,0,26.381,11.835,26.381,26.381v117.659c0,14.547-11.835,26.38-26.381,26.38
			h-47.064c-11.423,0-20.682,9.259-20.682,20.682s9.259,20.682,20.682,20.682h47.064c37.355,0,67.746-30.391,67.746-67.746V232.468
			C512,195.113,481.61,164.722,444.254,164.722z"/>
		<path d="M397.191,282.381H114.809c-11.422,0-20.682,9.259-20.682,20.682v188.254c0,11.423,9.26,20.682,20.682,20.682h282.381
			c11.422,0,20.682-9.259,20.682-20.682V303.064C417.873,291.641,408.614,282.381,397.191,282.381z M376.508,470.636H135.492
			v-146.89h241.017V470.636z"/>
	</symbol>

    <symbol id="footer-location" role="img" aria-labelledby="footer-location_title" viewBox="0 0 512 512">
        <title id="footer-location_title"></title>
        <path d="M406.766,62.449C366.495,22.178,312.951,0,256,0S145.505,22.178,105.234,62.449
			c-40.272,40.271-62.449,93.814-62.449,150.766c0,37.656,10.972,76.863,32.609,116.532c16.825,30.846,40.15,62.102,69.326,92.898
			c49.17,51.903,97.763,84.519,99.808,85.881C248.001,510.842,252,512,256,512c4,0,7.999-1.158,11.473-3.474
			c2.045-1.363,50.638-33.978,99.808-85.881c29.176-30.795,52.501-62.051,69.326-92.898c21.637-39.669,32.609-78.876,32.609-116.532
			C469.215,156.263,447.038,102.72,406.766,62.449z M256.001,465.903C215.826,436.156,84.15,329.739,84.15,213.215
			c0-94.759,77.091-171.851,171.85-171.851s171.85,77.092,171.851,171.851C427.851,329.748,296.159,436.168,256.001,465.903z"/>
		<path d="M256,128.355c-46.791,0-84.86,38.068-84.86,84.86c0,46.791,38.068,84.86,84.86,84.86c46.792,0,84.861-38.068,84.86-84.86
			C340.86,166.423,302.791,128.355,256,128.355z M256,256.71c-23.983,0-43.495-19.512-43.495-43.495
			c0-23.983,19.512-43.495,43.495-43.495c23.984,0,43.495,19.512,43.495,43.495C299.495,237.198,279.984,256.71,256,256.71z"/>
	</symbol>

	<symbol id="footer-facebook" role="img" aria-labelledby="footer-facebook_title" viewBox="0 0 512 512">
        <title id="footer-facebook_title">Facebook</title>
        <path d="M296.296,512H200.36V256h-64v-88.225l64-0.029l-0.104-51.976C200.256,43.794,219.773,0,304.556,0h70.588v88.242h-44.115
		c-33.016,0-34.604,12.328-34.604,35.342l-0.131,44.162h79.346l-9.354,88.225L296.36,256L296.296,512z"/>
    </symbol>

    <symbol id="footer-twitter" role="img" aria-labelledby="footer-twitter_title" viewBox="0 0 512 512">
        <title id="footer-twitter_title">Twitter</title>
        <path d="M512.002,97.211c-18.84,8.354-39.082,14.001-60.33,16.54c21.686-13,38.342-33.585,46.186-58.115
		c-20.299,12.039-42.777,20.78-66.705,25.49c-19.16-20.415-46.461-33.17-76.674-33.17c-58.011,0-105.042,47.029-105.042,105.039
		c0,8.233,0.929,16.25,2.72,23.939c-87.3-4.382-164.701-46.2-216.509-109.753c-9.042,15.514-14.223,33.558-14.223,52.809
		c0,36.444,18.544,68.596,46.73,87.433c-17.219-0.546-33.416-5.271-47.577-13.139c-0.01,0.438-0.01,0.878-0.01,1.321
		c0,50.894,36.209,93.348,84.261,103c-8.813,2.399-18.094,3.687-27.674,3.687c-6.769,0-13.349-0.66-19.764-1.888
		c13.368,41.73,52.16,72.104,98.126,72.949c-35.95,28.176-81.243,44.967-130.458,44.967c-8.479,0-16.84-0.496-25.058-1.471
		c46.486,29.807,101.701,47.197,161.021,47.197c193.211,0,298.868-160.062,298.868-298.872c0-4.554-0.104-9.084-0.305-13.59
		C480.111,136.775,497.92,118.275,512.002,97.211z"/>
    </symbol>

    <symbol id="footer-instagram" role="img" aria-labelledby="footer-instagram_title" viewBox="155 155 200 200">
        <title id="footer-instagram_title">Instagram</title>
        <path d="M256,227.5c-15.7,0-28.5,12.8-28.5,28.5s12.8,28.5,28.5,28.5s28.5-12.8,28.5-28.5S271.7,227.5,256,227.5z"/>
        <path d="M322.2,154.8H189.8c-19.3,0-35,15.7-35,35v132.5c0,19.3,15.7,35,35,35h132.5c19.3,0,35-15.7,35-35V189.8   C357.2,170.5,341.5,154.8,322.2,154.8z M256,314.5c-32.2,0-58.5-26.2-58.5-58.5s26.2-58.5,58.5-58.5s58.5,26.2,58.5,58.5   S288.2,314.5,256,314.5z M335.9,190.6c0,8-6.5,14.5-14.5,14.5h0c-8,0-14.5-6.5-14.5-14.5v0c0-8,6.5-14.5,14.5-14.5h0   C329.4,176.1,335.9,182.6,335.9,190.6L335.9,190.6z"/>
    </symbol>

    <symbol id="footer-linkedin" role="img" aria-labelledby="footer-linkedin_title" viewBox="0 0 93 93">
        <title id="footer-linkedin_title">Linkedin</title>
        <path d="M11.185,0.08C5.004,0.08,0.001,5.092,0,11.259c0,6.173,5.003,11.184,11.186,11.184c6.166,0,11.176-5.011,11.176-11.184
			C22.362,5.091,17.351,0.08,11.185,0.08z"/>
		<rect x="1.538" y="30.926" width="19.287" height="62.054"/>
		<path d="M69.925,29.383c-9.382,0-15.673,5.144-18.248,10.022h-0.258v-8.479H32.921H32.92v62.053h19.27V62.281
			c0-8.093,1.541-15.932,11.575-15.932c9.89,0,10.022,9.256,10.022,16.451v30.178H93.06V58.942
			C93.06,42.235,89.455,29.383,69.925,29.383z"/>
    </symbol>

</svg>