<svg xmlns="http://www.w3.org/2000/svg" xmlns:xlink="http://www.w3.org/1999/xlink">

	<symbol id="warning01" role="img" aria-labelledby="warning01_title" viewBox="0 0 310.285 310.285">
        <title id="warning01_title"></title>
		<path d="M264.845,45.441C235.542,16.139,196.583,0,155.142,0C113.702,0,74.743,16.139,45.44,45.441
			C16.138,74.743,0,113.703,0,155.144c0,41.439,16.138,80.399,45.44,109.701c29.303,29.303,68.262,45.44,109.702,45.44
			c41.44,0,80.399-16.138,109.702-45.44c29.303-29.302,45.44-68.262,45.44-109.701C310.285,113.703,294.147,74.743,264.845,45.441z
			 M132.172,49.336c2.399-2.483,5.637-3.873,9.119-3.873h28.04c3.482,0,6.72,1.403,9.114,3.888c2.395,2.485,3.643,5.804,3.514,9.284
			l-4.634,104.895c-0.263,7.102-6.26,12.933-13.368,12.933h-17.627c-7.112,0-13.099-5.839-13.345-12.945L128.64,58.594
			C128.519,55.114,129.773,51.821,132.172,49.336z M155.478,268.78c-16.266,0-28.532-12.844-28.532-29.876
			c0-17.223,12.122-30.211,28.196-30.211c16.602,0,28.196,12.423,28.196,30.211C183.339,256.495,171.882,268.78,155.478,268.78z"/>
    </symbol>
  
    <symbol id="tickets01" role="img" aria-labelledby="tickets01_title" viewBox="0 0 512 512">
        <title id="tickets01_title"></title>
        <polygon points="27.959,164.583 27.959,160.534 172.263,14.827 172.263,164.583 "/>
		<path style="fill:#2D527C;" d="M459.183,264.152c-5.594-5.981-14.976-6.295-20.956-0.703c-5.981,5.593-6.295,14.976-0.703,20.956
			c20.435,21.854,31.69,50.378,31.69,80.317c0,64.859-52.766,117.623-117.623,117.623s-117.623-52.766-117.623-117.623
			s52.766-117.623,117.623-117.623c8.189,0,14.827-6.638,14.827-14.827c0-8.189-6.638-14.827-14.827-14.827
			c-81.208,0-147.276,66.068-147.276,147.276c0,14.953,2.246,29.389,6.408,42.997H42.786v-167.54c0-8.189-6.638-14.827-14.827-14.827
			s-14.827,6.638-14.827,14.827v182.366c0,8.189,6.638,14.827,14.827,14.827h195.559c25.359,44.53,73.265,74.626,128.072,74.626
			c81.208,0,147.276-66.068,147.276-147.276C498.866,327.236,484.773,291.519,459.183,264.152z"/>
		<path style="fill:#2D527C;" d="M394.598,0H172.263c-0.178,0-0.353,0.021-0.529,0.027c-0.172,0.006-0.344,0.013-0.516,0.025
			c-0.636,0.044-1.269,0.117-1.889,0.242c-0.021,0.004-0.04,0.012-0.061,0.015c-0.608,0.126-1.202,0.299-1.787,0.5
			c-0.159,0.053-0.314,0.111-0.471,0.171c-0.577,0.219-1.143,0.463-1.689,0.752c-0.024,0.013-0.049,0.022-0.073,0.034
			c-0.565,0.304-1.103,0.657-1.626,1.033c-0.135,0.098-0.268,0.197-0.4,0.299c-0.519,0.4-1.025,0.824-1.49,1.296L17.428,150.099
			c-0.348,0.351-0.676,0.719-0.984,1.1c-0.212,0.261-0.399,0.534-0.59,0.805c-0.086,0.123-0.182,0.239-0.264,0.363
			c-0.219,0.331-0.414,0.673-0.603,1.017c-0.042,0.076-0.09,0.147-0.13,0.222c-0.187,0.353-0.35,0.713-0.506,1.078
			c-0.033,0.077-0.073,0.151-0.105,0.23c-0.141,0.345-0.259,0.697-0.374,1.048c-0.034,0.107-0.077,0.211-0.11,0.317
			c-0.096,0.325-0.172,0.654-0.246,0.984c-0.033,0.142-0.073,0.28-0.101,0.424c-0.059,0.304-0.096,0.609-0.136,0.915
			c-0.022,0.173-0.056,0.344-0.073,0.519c-0.028,0.302-0.034,0.605-0.044,0.907c-0.006,0.168-0.025,0.334-0.025,0.501v4.051
			c0,8.189,6.638,14.827,14.827,14.827h144.304c8.189,0,14.827-6.638,14.827-14.827V29.653h192.683v143.315
			c0,8.189,6.638,14.827,14.827,14.827c8.189,0,14.827-6.638,14.827-14.827V14.827C409.425,6.638,402.787,0,394.598,0z
			 M59.498,149.757l91.096-91.982l6.842-6.908v98.89H59.498z"/>
		<polygon points="374.672,444.029 374.672,386.323 432.379,386.323 432.379,340.158 374.672,340.158 
			374.672,282.451 328.508,282.451 328.508,340.158 270.8,340.158 270.8,386.323 328.508,386.323 328.508,444.029 "/>
		<path style="fill:#2D527C;" d="M374.673,458.856h-46.165c-8.189,0-14.827-6.638-14.827-14.827v-42.88h-42.88
			c-8.189,0-14.827-6.638-14.827-14.827v-46.165c0-8.189,6.638-14.827,14.827-14.827h42.88v-42.88c0-8.189,6.638-14.827,14.827-14.827
			h46.165c8.189,0,14.827,6.638,14.827,14.827v42.88h42.88c8.189,0,14.827,6.638,14.827,14.827v46.165
			c0,8.189-6.638,14.827-14.827,14.827H389.5v42.88C389.5,452.218,382.862,458.856,374.673,458.856z M343.333,429.203h16.512v-42.88
			c0-8.189,6.638-14.827,14.827-14.827h42.88v-16.512h-42.88c-8.189,0-14.827-6.638-14.827-14.827v-42.88h-16.512v42.88
			c0,8.189-6.638,14.827-14.827,14.827h-42.88v16.512h42.88c8.189,0,14.827,6.638,14.827,14.827V429.203z"/>
    </symbol>

    <symbol id="tickets02" role="img" aria-labelledby="tickets02_title" viewBox="0 0 512 512">
        <title id="tickets02_title"></title>
		<polygon points="28,164.6 28,160.5 172.3,14.8 172.3,164.6 "/>
		<path fill="#2D527C" d="M210.7,407.7H42.8V240.2c0-8.2-6.6-14.8-14.8-14.8c-8.2,0-14.8,6.6-14.8,14.8v182.4c0,8.2,6.6,14.8,14.8,14.8
			h195.6"/>
		<path fill="#2D527C" d="M394.6,0H172.3c-0.2,0-0.4,0-0.5,0c-0.2,0-0.3,0-0.5,0c-0.6,0-1.3,0.1-1.9,0.2c0,0,0,0-0.1,0
			c-0.6,0.1-1.2,0.3-1.8,0.5c-0.2,0.1-0.3,0.1-0.5,0.2c-0.6,0.2-1.1,0.5-1.7,0.8c0,0,0,0-0.1,0c-0.6,0.3-1.1,0.7-1.6,1
			c-0.1,0.1-0.3,0.2-0.4,0.3c-0.5,0.4-1,0.8-1.5,1.3L17.4,150.1c-0.3,0.4-0.7,0.7-1,1.1c-0.2,0.3-0.4,0.5-0.6,0.8
			c-0.1,0.1-0.2,0.2-0.3,0.4c-0.2,0.3-0.4,0.7-0.6,1c0,0.1-0.1,0.1-0.1,0.2c-0.2,0.4-0.4,0.7-0.5,1.1c0,0.1-0.1,0.2-0.1,0.2
			c-0.1,0.3-0.3,0.7-0.4,1c0,0.1-0.1,0.2-0.1,0.3c-0.1,0.3-0.2,0.7-0.2,1c0,0.1-0.1,0.3-0.1,0.4c-0.1,0.3-0.1,0.6-0.1,0.9
			c0,0.2-0.1,0.3-0.1,0.5c0,0.3,0,0.6,0,0.9c0,0.2,0,0.3,0,0.5v4.1c0,8.2,6.6,14.8,14.8,14.8h144.3c8.2,0,14.8-6.6,14.8-14.8V29.7
			h192.7V173c0,8.2,6.6,14.8,14.8,14.8s14.8-6.6,14.8-14.8V14.8C409.4,6.6,402.8,0,394.6,0z M59.5,149.8l91.1-92l6.8-6.9v98.9H59.5z"
			/>
		<path d="M377.2,438l50.1,50.1c13,13,34.3,13,47.4,0s13-34.3,0-47.4l-50.1-50.1"/>
		<path fill="#2D527C" d="M451,512.2c-12.8,0-24.9-5-33.9-14L367,448.1l20.4-20.4l50.1,50.1c3.6,3.6,8.4,5.6,13.5,5.6
			c5.1,0,9.9-2,13.5-5.6c7.4-7.4,7.4-19.6,0-27l-50.1-50.1l20.4-20.4l50.1,50.1c9,9,14,21.1,14,33.9c0,12.8-5,24.8-14,33.9
			C475.9,507.3,463.9,512.2,451,512.2z"/>
		<path fill="#2D527C" d="M340.4,460.2c-29.5,0-57.3-11.5-78.2-32.4c-43.1-43.1-43.1-113.3,0-156.4c20.9-20.9,48.7-32.4,78.2-32.4
			c29.5,0,57.3,11.5,78.2,32.4c43.1,43.1,43.1,113.3,0,156.4C397.7,448.7,369.9,460.2,340.4,460.2z M340.4,267.8
			c-21.8,0-42.4,8.5-57.8,23.9c-31.9,31.9-31.9,83.8,0,115.6c15.4,15.4,36,23.9,57.8,23.9s42.4-8.5,57.8-23.9
			c31.9-31.9,31.9-83.8,0-115.6C382.8,276.3,362.2,267.8,340.4,267.8z"/>
		<path fill="#2D527C" d="M340.4,394.8c-8,0-14.4-6.4-14.4-14.4v-61.5c0-8,6.4-14.4,14.4-14.4s14.4,6.4,14.4,14.4v61.5
			C354.8,388.3,348.4,394.8,340.4,394.8z"/>
		<path fill="#2D527C" d="M371.2,364h-61.5c-8,0-14.4-6.4-14.4-14.4s6.4-14.4,14.4-14.4h61.5c8,0,14.4,6.4,14.4,14.4
			C385.6,357.5,379.1,364,371.2,364z"/>
		<rect fill="#2D527C" x="209.5" y="407.7" width="66.7" height="29.7"/>
    </symbol>

    <symbol id="link01" role="img" aria-labelledby="link01_title" viewBox="0 0 512 512">
        <title id="link01_title"></title>
		<path d="M256,0C114.6,0,0,114.6,0,256s114.6,256,256,256s256-114.6,256-256S397.4,0,256,0z M256,471c-118.7,0-215-96.3-215-215
			S137.3,41,256,41s215,96.3,215,215S374.7,471,256,471z"/>
		<path d="M266.8,376.1c3.9,3.9,9,5.9,14.2,5.9c5.1,0,10.2-1.9,14.1-5.8l78.2-77.7c11.4-11.3,17.7-26.4,17.7-42.5s-6.3-31.1-17.7-42.5
			l-78.2-77.7c-7.8-7.8-20.5-7.7-28.3,0.1c-7.8,7.8-7.7,20.5,0.1,28.3l72.3,71.8H132c-11,0-20,9-20,20s9,20,20,20h207.2l-72.3,71.8
			C259.1,355.6,259,368.3,266.8,376.1z"/>
    </symbol>

</svg>