<svg xmlns="http://www.w3.org/2000/svg" xmlns:xlink="http://www.w3.org/1999/xlink">

	<symbol id="services01" role="img" aria-labelledby="services01_title" viewBox="1 1 512 512">
        <title id="services01_title"></title>
        <path d="m502.992188 206.050781-44.109376-4.398437c-4.738281-17.746094-11.78125-34.734375-21.003906-50.667969l28.089844-34.3125c3.253906-3.976563 2.96875-9.773437-.667969-13.40625l-56.566406-56.566406c-3.632813-3.632813-9.429687-3.921875-13.40625-.667969l-34.304687 28.085938c-15.9375-9.226563-32.929688-16.273438-50.675782-21.011719l-4.398437-44.097657c-.507813-5.113281-4.8125-9.007812-9.949219-9.007812h-80c-5.140625 0-9.441406 3.894531-9.949219 9.007812l-4.398437 44.097657c-17.742188 4.738281-34.730469 11.785156-50.671875 21.011719l-34.3125-28.085938c-4.273438-3.5-10.574219-2.871094-14.070313 1.402344-3.5 4.273437-2.871094 10.574218 1.402344 14.070312l39.761719 32.550782c3.320312 2.71875 8 3.015624 11.636719.742187 17.871093-11.175781 37.300781-19.234375 57.75-23.945313 4.179687-.964843 7.28125-4.484374 7.707031-8.753906l4.199219-42.097656h61.894531l4.195312 42.097656c.425781 4.269532 3.527344 7.789063 7.707031 8.753906 20.460938 4.714844 39.890626 12.769532 57.75 23.941407 3.636719 2.277343 8.320313 1.980469 11.636719-.738281l32.757813-26.816407 43.765625 43.765625-26.820313 32.761719c-2.71875 3.320313-3.015625 8-.742187 11.636719 11.171875 17.859375 19.226562 37.289062 23.9375 57.746094.964843 4.179687 4.488281 7.28125 8.753906 7.707031l42.109375 4.199219v61.894531l-42.101562 4.195312c-4.269532.425781-7.789063 3.527344-8.753907 7.707031-4.714843 20.464844-12.773437 39.894532-23.941406 57.75-2.273437 3.636719-1.976563 8.316407.742187 11.636719l26.8125 32.757813-43.765624 43.765625-32.757813-26.816407c-3.320313-2.71875-8-3.015624-11.636719-.742187-17.871094 11.179687-37.300781 19.234375-57.75 23.945313-4.179687.964843-7.277344 4.484374-7.703125 8.753906l-4.199219 42.097656h-61.894531l-4.199219-42.101562c-.425781-4.265626-3.523437-7.789063-7.703124-8.75-20.464844-4.71875-39.894532-12.773438-57.75-23.945313-3.636719-2.273437-8.320313-1.976563-11.636719.742187l-32.757813 26.816407-43.765625-43.765625 26.816407-32.757813c2.71875-3.320312 3.015624-8 .742187-11.640625-11.175781-17.867187-19.234375-37.296875-23.945313-57.746094-.964843-4.183593-4.484374-7.28125-8.753906-7.707031l-42.097656-4.199219v-61.894531l42.101562-4.195312c4.269532-.425781 7.789063-3.527344 8.753907-7.707031 4.714843-20.464844 12.773437-39.894532 23.941406-57.75 2.273437-3.636719 1.976563-8.316407-.742187-11.636719l-32.550782-39.761719c-3.496094-4.273438-9.796875-4.902344-14.070312-1.402344-4.273438 3.5-4.902344 9.800782-1.402344 14.070313l28.085938 34.308593c-9.222657 15.933594-16.265626 32.925782-21.007813 50.675782l-44.101563 4.398437c-5.113281.507813-9.007812 4.8125-9.007812 9.949219v80c0 5.136719 3.894531 9.441406 9.007812 9.949219l44.097657 4.398437c4.738281 17.738282 11.785156 34.730469 21.011719 50.671875l-28.085938 34.308594c-3.253906 3.976563-2.96875 9.773437.667969 13.40625l56.566406 56.566406c3.632813 3.636719 9.429687 3.921875 13.40625.667969l34.308594-28.085938c15.933593 9.222657 32.921875 16.265626 50.671875 21.007813l4.398437 44.101563c.511719 5.113281 4.8125 9.007812 9.953125 9.007812h79.996094c5.136719 0 9.441406-3.894531 9.949219-9.007812l4.398437-44.097657c17.738282-4.738281 34.730469-11.785156 50.671875-21.015625l34.308594 28.089844c3.976563 3.253906 9.773437 2.964844 13.40625-.667969l56.566406-56.566406c3.636719-3.632813 3.921875-9.429687.667969-13.40625l-28.085938-34.308594c9.222657-15.933593 16.265626-32.921875 21.007813-50.675781l44.101563-4.394531c5.113281-.511719 9.007812-4.8125 9.007812-9.953125v-79.996094c0-5.136719-3.894531-9.441406-9.007812-9.949219zm0 0"/>
        <path d="m388.753906 345.875c4.753906 2.808594 10.886719 1.234375 13.695313-3.519531 15.40625-26.078125 23.550781-55.9375 23.550781-86.355469 0-93.738281-76.261719-170-170-170s-170 76.261719-170 170 76.261719 170 170 170c30.425781 0 60.289062-8.144531 86.359375-23.554688 4.753906-2.808593 6.332031-8.941406 3.523437-13.695312-2.8125-4.753906-8.941406-6.332031-13.699218-3.523438-22.992188 13.589844-49.335938 20.773438-76.183594 20.773438-82.710938 0-150-67.289062-150-150s67.289062-150 150-150c82.707031 0 150 67.289062 150 150 0 26.839844-7.183594 53.183594-20.769531 76.179688-2.808594 4.753906-1.230469 10.886718 3.523437 13.695312zm0 0"/>
        <path d="m82.050781 92.054688c2.398438 0 4.808594-.855469 6.722657-2.597657l.003906-.007812c4.085937-3.714844 4.386718-10.035157.671875-14.121094-3.714844-4.085937-10.042969-4.386719-14.128907-.671875-4.085937 3.714844-4.386718 10.039062-.671874 14.125 1.972656 2.171875 4.683593 3.273438 7.402343 3.273438zm0 0"/>
        <path d="m369.144531 379.132812c2.257813 0 4.53125-.761718 6.398438-2.320312 4.246093-3.535156 4.816406-9.839844 1.28125-14.082031-3.535157-4.242188-9.839844-4.816407-14.082031-1.28125l-.007813.003906c-4.242187 3.539063-4.8125 9.839844-1.277344 14.082031 1.976563 2.375 4.820313 3.597656 7.6875 3.597656zm0 0"/>
        <path d="m156 209.734375c-5.523438 0-10 4.476563-10 10v100c0 5.519531 4.476562 10 10 10h200c5.523438 0 10-4.480469 10-10v-100c0-5.523437-4.476562-10-10-10h-45.785156v-5.171875c1.753906 1.242188 3.773437 1.847656 5.777344 1.847656 3.070312 0 6.101562-1.410156 8.0625-4.074218 3.273437-4.445313 2.320312-10.707032-2.128907-13.980469l-60-44.144531c-3.523437-2.59375-8.324219-2.59375-11.851562 0l-60 44.144531c-4.449219 3.273437-5.402344 9.535156-2.128907 13.980469 3.238282 4.402343 9.402344 5.375 13.839844 2.222656v5.175781zm45.785156 20v17.472656l-9.066406 6.671875h-26.71875v-24.144531zm54.214844 2.414063 34.214844 25.171874v52.414063h-24.214844v-35c0-5.523437-4.476562-10-10-10s-10 4.476563-10 10v35h-24.214844v-52.414063zm-90 41.730468h30c2.074219 0 4.09375-.652344 5.785156-1.851562v37.707031h-35.785156zm144.214844 35.855469v-37.707031c1.691406 1.199218 3.710937 1.851562 5.785156 1.851562h30v35.855469zm35.785156-80v24.144531h-26.71875l-9.066406-6.671875v-17.472656zm-90-65.054687 34.214844 25.175781v42.636719l-24.214844-17.816407v-14.316406c0-5.523437-4.476562-10-10-10s-10 4.476563-10 10v14.316406l-24.214844 17.816407v-42.636719zm0 0"/>
    </symbol>

    <symbol id="services02" role="img" aria-labelledby="services02_title" viewBox="-49 0 512 512">
        <title id="services02_title"></title>
        <path d="m313.429688 336.195312c4.644531 2.984376 10.832031 1.632813 13.8125-3.011718 37.519531-58.46875 44.03125-136.753906 45.664062-190.550782.136719-4.507812-2.761719-8.550781-7.074219-9.867187-41.046875-12.542969-72.953125-44.5625-85.347656-85.652344-1.273437-4.222656-5.160156-7.113281-9.570313-7.113281h-128.441406c-4.410156 0-8.300781 2.890625-9.574218 7.113281-12.394532 41.089844-44.300782 73.109375-85.347657 85.652344-4.3125 1.316406-7.207031 5.359375-7.074219 9.867187 1.613282 53.097657 7.980469 130.425782 44.496094 188.710938 26.148438 41.738281 65.007813 70.027344 118.792969 86.492188.953125.292968 1.941406.4375 2.925781.4375.988282 0 1.972656-.144532 2.929688-.4375 21.378906-6.542969 40.695312-15.121094 57.410156-25.492188 4.691406-2.914062 6.136719-9.078125 3.222656-13.769531-2.910156-4.691407-9.074218-6.140625-13.769531-3.226563-14.492187 8.992188-31.230469 16.539063-49.792969 22.449219-47.464844-15.105469-81.753906-40.339844-104.769531-77.070313-32.316406-51.585937-39.277344-120.9375-41.199219-171.28125 41.5625-15.089843 74.109375-47.800781 88.980469-89.449218h113.976563c14.871093 41.648437 47.417968 74.359375 88.980468 89.449218-1.945312 50.988282-9.050781 121.203126-42.25 172.933594-2.980468 4.648438-1.628906 10.835938 3.019532 13.816406zm0 0"/>
        <path d="m351.226562 368.683594c10.484376-14.023438 19.59375-29.460938 27.234376-46.21875 30.953124-67.898438 34.925781-150.09375 34.925781-214.117188 0-5.523437-4.476563-10-10-10-48.714844 0-88.347657-39.632812-88.347657-88.347656 0-5.523438-4.476562-10-10-10h-196.691406c-5.523437 0-10 4.476562-10 10 0 10.910156-1.96875 21.566406-5.851562 31.671875-1.980469 5.152344.589844 10.9375 5.746094 12.917969 5.15625 1.980468 10.941406-.589844 12.921874-5.746094 3.570313-9.289062 5.820313-18.957031 6.726563-28.84375h177.605469c4.757812 51.769531 46.089844 93.109375 97.855468 97.886719-1.027343 141.84375-26.242187 277.285156-186.660156 321.628906-160.417968-44.34375-185.628906-179.785156-186.660156-321.628906 9.878906-.90625 19.535156-3.15625 28.820312-6.722657 5.15625-1.984374 7.726563-7.765624 5.746094-12.921874-1.980468-5.15625-7.765625-7.730469-12.917968-5.75-10.109376 3.886718-20.765626 5.855468-31.679688 5.855468-5.523438 0-10 4.476563-10 10 0 64.023438 3.96875 146.222656 34.925781 214.117188 7.640625 16.757812 16.746094 32.195312 27.234375 46.21875l-59.230468 59.234375c-2.675782 2.671875-3.613282 6.625-2.421876 10.214843 1.191407 3.589844 4.304688 6.203126 8.046876 6.75l51.09375 7.46875 7.46875 51.09375c.546874 3.742188 3.160156 6.855469 6.75 8.046876 1.03125.34375 2.09375.507812 3.144531.507812 2.613281 0 5.167969-1.023438 7.074219-2.929688l68.207031-68.210937c16 7.476563 33.296875 13.71875 51.8125 18.679687.847656.226563 1.71875.339844 2.589843.339844.867188 0 1.738282-.113281 2.585938-.339844 18.515625-4.960937 35.8125-11.203124 51.8125-18.679687l68.210938 68.210937c1.90625 1.90625 4.460937 2.929688 7.070312 2.929688 1.054688 0 2.113281-.164062 3.148438-.507812 3.585937-1.191407 6.199218-4.304688 6.746093-8.046876l7.46875-51.09375 51.097657-7.46875c3.742187-.546874 6.855468-3.160156 8.042968-6.75 1.191406-3.585937.253906-7.542968-2.417968-10.214843zm-267.199218 112.160156-5.667969-38.753906c-.636719-4.375-4.074219-7.808594-8.449219-8.449219l-38.757812-5.667969 43.738281-43.734375c6.933594 7.757813 14.347656 15 22.246094 21.683594 11.078125 9.378906 23.273437 17.816406 36.5 25.3125zm259.445312-47.203125c-4.375.640625-7.808594 4.074219-8.449218 8.449219l-5.664063 38.753906-49.613281-49.609375c13.226562-7.496094 25.425781-15.933594 36.5-25.3125 7.898437-6.683594 15.3125-13.925781 22.246094-21.683594l43.738281 43.734375zm0 0"/>
        <path d="m79.542969 89.542969c2.402343 0 4.808593-.859375 6.726562-2.601563l.003907-.003906c4.085937-3.71875 4.382812-10.039062.667968-14.125-3.710937-4.085938-10.039062-4.386719-14.125-.671875-4.085937 3.714844-4.390625 10.042969-.675781 14.128906 1.972656 2.167969 4.683594 3.273438 7.402344 3.273438zm0 0"/>
        <path d="m286.425781 351.953125c-3.902343 3.90625-3.902343 10.238281 0 14.140625 1.953125 1.953125 4.511719 2.929688 7.074219 2.929688 2.558594 0 5.117188-.976563 7.070312-2.929688l.003907-.003906c3.90625-3.90625 3.902343-10.234375-.003907-14.140625-3.902343-3.90625-10.238281-3.902344-14.144531.003906zm0 0"/>
        <path d="m316.691406 272.867188v-99.996094c0-5.523438-4.476562-10-10-10h-45.785156v-5.175782c4.4375 3.152344 10.601562 2.179688 13.839844-2.222656 3.273437-4.445312 2.320312-10.707031-2.125-13.980468l-60-44.144532c-3.527344-2.59375-8.328125-2.59375-11.855469 0l-60 44.144532c-4.445313 3.273437-5.398437 9.535156-2.128906 13.980468 1.960937 2.664063 4.992187 4.074219 8.066406 4.074219 2.003906 0 4.023437-.605469 5.773437-1.847656v5.171875h-45.78125c-5.523437 0-10 4.476562-10 10v99.996094c0 5.523437 4.476563 10 10 10h199.996094c5.523438 0 10-4.476563 10-10zm-20-89.996094v24.144531h-26.71875l-9.066406-6.671875v-17.472656zm-90 35c-5.523437 0-10 4.476562-10 9.996094v35h-24.214844v-52.410157l34.214844-25.171875 34.214844 25.171875v52.410157h-24.214844v-35c0-5.519532-4.476562-9.996094-10-9.996094zm0-100.054688 34.214844 25.175782v42.636718l-24.214844-17.816406v-14.316406c0-5.523438-4.476562-10-10-10-5.523437 0-10 4.476562-10 10v14.316406l-24.214844 17.816406v-42.636718zm-54.214844 65.054688v17.472656l-9.066406 6.671875h-26.71875v-24.144531zm-35.785156 44.144531h30c2.078125 0 4.09375-.652344 5.785156-1.851563v37.703126h-35.785156zm144.214844 35.851563v-37.703126c1.691406 1.199219 3.710938 1.851563 5.785156 1.851563h30v35.851563zm0 0"/>
    </symbol>

    <symbol id="services03" role="img" aria-labelledby="services03_title" viewBox="0 0 512 512">
        <title id="services03_title"></title>
        <path d="m322 0c-104.765625 0-190 85.234375-190 190 0 41.578125 13.4375 80.074219 36.179688 111.394531l-17.097657 17.09375c-3.980469-1.898437-8.375-2.902343-12.929687-2.902343-8.03125 0-15.5625 3.113281-21.214844 8.765624l-108.175781 108.175782c-5.648438 5.652344-8.761719 13.183594-8.761719 21.210937 0 8.03125 3.113281 15.566407 8.761719 21.214844l28.285156 28.285156c5.648437 5.648438 13.183594 8.761719 21.214844 8.761719 8.027343 0 15.5625-3.113281 21.210937-8.761719l108.175782-108.179687c9.21875-9.214844 11.167968-22.988282 5.855468-34.136719l17.101563-17.101563c31.320312 22.742188 69.816406 36.179688 111.394531 36.179688 104.765625 0 190-85.234375 190-190s-85.234375-190-190-190zm-148.492188 380.917969-108.175781 108.175781c-1.875 1.875-4.386719 2.90625-7.070312 2.90625-2.6875 0-5.199219-1.03125-7.070313-2.90625l-28.285156-28.28125c-1.875-1.875-2.90625-4.386719-2.90625-7.074219 0-2.683593 1.03125-5.195312 2.90625-7.066406l108.175781-108.179687c1.875-1.871094 4.382813-2.902344 7.070313-2.902344s5.199218 1.03125 7.070312 2.902344l28.285156 28.285156c3.898438 3.898437 3.898438 10.242187 0 14.140625zm7.070313-35.355469-14.140625-14.140625 14.394531-14.398437c4.464844 4.957031 9.183594 9.679687 14.140625 14.144531zm141.421875 14.4375c-93.738281 0-170-76.261719-170-170s76.261719-170 170-170 170 76.261719 170 170-76.261719 170-170 170zm0 0"/>
        <path d="m322 40c-82.710938 0-150 67.289062-150 150 0 82.707031 67.289062 150 150 150s150-67.292969 150-150c0-82.710938-67.289062-150-150-150zm0 20c71.683594 0 130 58.316406 130 130 0 25.417969-7.339844 49.148438-20 69.203125v-81.222656c0-5.523438-4.480469-10-10-10h-45.785156v-5.171875c1.753906 1.246094 3.773437 1.851562 5.777344 1.851562 3.070312 0 6.101562-1.414062 8.0625-4.074218 3.273437-4.449219 2.320312-10.710938-2.128907-13.984376l-60-44.144531c-3.523437-2.59375-8.328125-2.59375-11.851562 0l-60 44.144531c-4.449219 3.273438-5.402344 9.535157-2.128907 13.984376 3.242188 4.402343 9.398438 5.371093 13.839844 2.21875v5.175781h-45.785156c-5.523438 0-10 4.476562-10 10v81.222656c-12.660156-20.054687-20-43.785156-20-69.203125 0-71.683594 58.316406-130 130-130zm10 207.976562v-35c0-5.519531-4.476562-10-10-10s-10 4.480469-10 10v35h-24.214844v-52.410156l34.214844-25.171875 34.214844 25.171875v52.410156zm-100 0v-35.851562h30c2.074219 0 4.09375-.652344 5.785156-1.851562v37.703124zm180-55.851562h-26.71875l-9.066406-6.671875v-17.476563h35.785156zm-55.785156-21.386719-24.214844-17.816406v-14.316406c0-5.523438-4.476562-10-10-10s-10 4.476562-10 10v14.316406l-24.214844 17.816406v-42.636719l34.214844-25.175781 34.214844 25.175781zm-88.429688 14.714844-9.066406 6.671875h-26.71875v-24.148438h35.785156zm108.429688 24.820313c1.691406 1.199218 3.707031 1.851562 5.785156 1.851562h30v35.851562h-35.785156zm-139.558594 57.703124h170.6875c-22.851562 19.933594-52.710938 32.023438-85.34375 32.023438s-62.492188-12.089844-85.34375-32.023438zm0 0"/>
    </symbol>

    <symbol id="check" role="img" aria-labelledby="check_title" viewBox="0 0 448 448">
        <title id="check_title"></title>
        <polygon points="341.333,192.96 341.333,381.12 42.667,381.12 42.667,82.453 308.693,82.453 355.627,39.787 0,39.787 0,423.787 
            384,423.787 384,153.707         "/>
        <polygon points="417.493,24.213 186.027,234.56 113.493,162.24 85.333,190.4 187.947,293.013 448,54.08        "/>
    </symbol>

    <symbol id="footer-facebook" role="img" aria-labelledby="footer-facebook_title" viewBox="0 0 512 512">
        <title id="footer-facebook_title">Facebook</title>
        <path d="M314.829,135.492h70.595c11.423,0,20.682-9.26,20.682-20.682V20.682C406.107,9.26,396.848,0,385.425,0h-70.595
            c-76.282,0-138.341,62.06-138.341,138.341v49.913h-49.913c-11.422,0-20.682,9.26-20.682,20.682v94.127
            c0,11.423,9.26,20.682,20.682,20.682h49.913v167.572c0,11.423,9.26,20.682,20.682,20.682h94.127
            c11.423,0,20.682-9.259,20.682-20.682V323.746h49.913c9.49,0,17.763-6.458,20.065-15.666l23.532-94.127
            c1.544-6.179,0.156-12.725-3.763-17.744c-3.919-5.02-9.932-7.954-16.301-7.954H311.98v-49.913
            C311.98,136.77,313.258,135.492,314.829,135.492z M291.298,229.619h67.637l-13.191,52.763h-54.447
            c-11.423,0-20.682,9.259-20.682,20.682v167.572h-52.763V303.064c0-11.423-9.26-20.682-20.682-20.682h-49.913v-52.763h49.913
            c11.422,0,20.682-9.26,20.682-20.682v-70.595c0-53.473,43.503-96.977,96.977-96.977h49.913v52.763h-49.913
            c-24.38,0-44.214,19.835-44.214,44.214v70.595C270.615,220.359,279.875,229.619,291.298,229.619z"/>
    </symbol>

    <symbol id="footer-twitter" role="img" aria-labelledby="footer-twitter_title" viewBox="0 0 512 512">
        <title id="footer-twitter_title">Twitter</title>
        <path d="M502.954,47.189c-7.126-4.852-16.515-4.774-23.559,0.196c-15.351,10.828-31.974,19.528-49.557,25.948
            c-19.253-17.414-43.615-27.826-69.915-29.656c-31.056-2.16-61.081,7.9-84.561,28.326c-25.59,22.259-40.174,54.444-40.046,88.349
            c-85.248-7.609-139.14-61.55-177.09-108.986c-4.598-5.746-11.901-8.619-19.182-7.538c-7.279,1.078-13.438,5.944-16.171,12.777
            c-0.948,2.369-23.141,58.799-17.453,127.057c4.761,57.133,30.23,131.964,120.039,181.717
            c-32.436,14.756-68.282,21.939-103.953,20.519c-9.576-0.378-18.15,5.859-20.736,15.08c-2.587,9.221,1.497,19.013,9.869,23.665
            c51.359,28.532,108.03,43.736,163.889,43.965c0.432,0.002,0.861,0.003,1.294,0.003c54.105-0.001,106.379-13.938,151.246-40.336
            c42.898-25.241,78.416-61.759,102.715-105.603c26.162-47.206,39.427-101.75,39.427-162.186c-0.011-3.544-0.186-7.098-0.52-10.638
            c20.7-22.885,35.388-50.567,42.719-80.667C513.451,60.803,510.081,52.04,502.954,47.189z M432.297,128.07
            c-4.916,4.847-7.088,11.827-5.793,18.607c0.877,4.588,1.329,9.278,1.344,13.874c0,101.956-44.378,186.544-121.756,232.072
            c-60.586,35.649-133.037,43.933-203.609,25.057c0.729-0.201,1.459-0.407,2.185-0.615c27.596-7.885,53.63-20.055,77.377-36.174
            c6.329-4.296,9.77-11.734,8.946-19.34c-0.825-7.605-5.778-14.134-12.881-16.975C97.757,312.434,53.563,257.594,46.757,181.575
            c-2.536-28.334,0.707-54.721,4.766-74.501c16.638,17.909,37.384,37.227,62.129,53.407c42.771,27.966,90.663,42.146,142.346,42.146
            c11.423,0,20.682-9.26,20.682-20.682v-21.393c0-0.045,0-0.091,0-0.137c-0.146-21.948,9.268-42.797,25.829-57.202
            c15.146-13.175,34.51-19.665,54.543-18.27c20.026,1.393,38.311,10.502,51.487,25.648c5.339,6.138,13.783,8.577,21.567,6.229
            c5.725-1.724,11.375-3.645,16.941-5.757C442.599,117.081,437.672,122.769,432.297,128.07z"/>
    </symbol>    

    <symbol id="footer-linkedin" role="img" aria-labelledby="footer-linkedin_title" viewBox="0 0 512 512">
        <title id="footer-linkedin_title">Linkedin</title>
        <path d="M2.5,510V153.7h137.3V510H2.5z M102.5,472.7V191H39.8v281.7H102.5z"/>
        <path d="M375.4,510l0.1-158.1c0.5-23.6-8.8-42.9-24.9-51.7c-5.4-3-11.2-4.5-17.3-4.5c-5.2,0-10.4,1.1-15.5,3.3l-1.1,211H176.1
            V153.7h140.6V166c16.6-6,33.6-9.1,50.6-9.1c24.7,0,48.3,6.4,70.2,18.9c44,25.2,72.5,71.8,72.5,118.8V510H375.4z M472.7,472.7V294.6
            c0-33.8-21.1-67.7-53.7-86.4c-15.9-9.1-33.8-13.9-51.7-14h-0.3c-20.1,0-40.1,5.8-59.6,17.3L279.4,228V191h-66.1v281.7h66.2l1-194.7
            l8.2-5.5c13.7-9.2,29.1-14.1,44.5-14.1c12.4,0,24.2,3,35.1,9c13.7,7.5,25,19.2,32.8,33.8c7.9,14.9,11.9,32.6,11.5,51.1l0,120.3
            H472.7z"/>
        <path d="M70.9,139.9C32.9,139.9,2,109,2,71c0-38,30.9-69,68.9-69c38,0,68.9,30.9,68.9,69C139.8,109,108.9,139.9,70.9,139.9z
             M70.9,39.3c-17.4,0-31.6,14.2-31.6,31.7c0,17.5,14.2,31.7,31.6,31.7c17.4,0,31.6-14.2,31.6-31.7C102.5,53.5,88.3,39.3,70.9,39.3z"
            />
    </symbol>

    <symbol id="footer-instagram" role="img" aria-labelledby="footer-instagram_title" viewBox="0 0 512 512">
        <title id="footer-instagram_title">Instagram</title>
        <path d="M373.659,0H138.341C62.06,0,0,62.06,0,138.341v235.318C0,449.94,62.06,512,138.341,512h235.318
            C449.94,512,512,449.94,512,373.659V138.341C512,62.06,449.94,0,373.659,0z M470.636,373.659
            c0,53.473-43.503,96.977-96.977,96.977H138.341c-53.473,0-96.977-43.503-96.977-96.977V138.341
            c0-53.473,43.503-96.977,96.977-96.977h235.318c53.473,0,96.977,43.503,96.977,96.977V373.659z"/>
        <path d="M370.586,238.141c-3.64-24.547-14.839-46.795-32.386-64.342c-17.547-17.546-39.795-28.746-64.341-32.385
            c-11.176-1.657-22.507-1.657-33.682,0c-30.336,4.499-57.103,20.541-75.372,45.172c-18.269,24.631-25.854,54.903-21.355,85.237
            c4.499,30.335,20.541,57.102,45.172,75.372c19.996,14.831,43.706,22.619,68.153,22.619c5.667,0,11.375-0.418,17.083-1.265
            c30.336-4.499,57.103-20.541,75.372-45.172C367.5,298.747,375.085,268.476,370.586,238.141z M267.791,327.632
            c-19.405,2.882-38.77-1.973-54.527-13.66c-15.757-11.687-26.019-28.811-28.896-48.216c-2.878-19.405,1.973-38.77,13.66-54.527
            c11.688-15.757,28.811-26.019,48.217-28.897c3.574-0.53,7.173-0.795,10.772-0.795s7.199,0.265,10.773,0.796
            c32.231,4.779,57.098,29.645,61.878,61.877C335.608,284.268,307.851,321.692,267.791,327.632z"/>
        <path d="M400.049,111.951c-3.852-3.851-9.183-6.058-14.625-6.058c-5.442,0-10.773,2.206-14.625,6.058
            c-3.851,3.852-6.058,9.174-6.058,14.625c0,5.451,2.207,10.773,6.058,14.625c3.852,3.851,9.183,6.058,14.625,6.058
            c5.442,0,10.773-2.206,14.625-6.058c3.851-3.852,6.058-9.183,6.058-14.625C406.107,121.133,403.9,115.802,400.049,111.951z"/>
    </symbol>

    <symbol id="footer-phone" role="img" aria-labelledby="footer-phone_title" viewBox="0 0 512 512">
        <title id="footer-phone_title"></title>
        <path d="M421.216,195.504c-5.092-26.101-17.723-49.836-36.526-68.64c-18.804-18.803-42.54-31.434-68.641-36.527
			c-11.21-2.189-22.073,5.128-24.261,16.339c-2.187,11.212,5.128,22.073,16.339,24.26c36.847,7.188,65.3,35.642,72.489,72.489
			c1.927,9.874,10.581,16.726,20.278,16.726c1.313,0,2.645-0.125,3.984-0.387C416.088,217.577,423.403,206.715,421.216,195.504z"/>
		<path d="M511.422,196.929c-5.629-50.096-28.373-97.304-64.042-132.927C411.712,28.378,364.475,5.694,314.371,0.128
			c-11.355-1.261-21.578,6.92-22.839,18.272c-1.261,11.353,6.919,21.578,18.272,22.84c84.961,9.438,150.966,75.36,160.512,160.31
			c1.188,10.566,10.139,18.374,20.527,18.374c0.771,0,1.552-0.043,2.336-0.131C504.53,218.516,512.698,208.281,511.422,196.929z"/>
		<path d="M432.59,312.566c-0.062-0.008-0.124-0.017-0.186-0.025c-20.013-2.639-39.751-7.557-58.619-14.596
			c-23.91-8.99-51.103-3.191-69.27,14.772c-0.028,0.028-0.056,0.055-0.083,0.083l-17.148,17.148
			c-42.633-26.924-78.756-63.047-105.679-105.679l17.149-17.149c0.027-0.028,0.054-0.055,0.082-0.083
			c17.964-18.166,23.762-45.356,14.79-69.223c-7.057-18.914-11.974-38.653-14.614-58.666c-0.007-0.063-0.017-0.127-0.026-0.19
			c-4.591-32.478-32.782-56.734-65.548-56.467H66.053c-1.943,0.002-3.912,0.091-5.853,0.267
			C24.143,26.016-2.541,58.001,0.718,94.058c0.01,0.108,0.02,0.215,0.032,0.323c7.684,72.354,32.649,142.88,72.197,203.955
			c35.892,56.461,84.701,105.269,141.162,141.164c60.792,39.406,130.99,64.369,203.013,72.196c0.127,0.015,0.254,0.027,0.38,0.038
			c1.961,0.176,3.949,0.266,5.921,0.266c0.083,0,0.165,0,0.247,0.001c36.204-0.148,65.538-29.722,65.391-65.841v-67.233
			C489.746,345.714,465.515,317.211,432.59,312.566z M447.698,378.695v67.548c0.055,13.396-10.8,24.338-24.19,24.393
			c-0.715-0.004-1.425-0.027-2.135-0.086c-65.578-7.161-129.488-29.914-184.837-65.808c-0.053-0.035-0.107-0.069-0.161-0.103
			c-51.429-32.68-95.885-77.137-128.565-128.565c-0.032-0.051-0.064-0.101-0.097-0.153C71.683,220.306,48.928,156.086,41.902,90.193
			C40.779,76.91,50.63,65.155,63.923,63.954c0.717-0.064,1.443-0.098,2.145-0.098h67.463c0.146-0.001,0.294-0.003,0.443-0.002
			c12.021,0,22.322,8.905,24.044,20.819c3.05,23.063,8.721,45.806,16.871,67.649c3.319,8.832,1.189,18.869-5.427,25.591
			l-28.517,28.517c-6.583,6.582-7.956,16.753-3.354,24.847c33.837,59.508,83.177,108.847,142.685,142.685
			c8.094,4.6,18.264,3.23,24.848-3.355l28.512-28.512c6.72-6.621,16.765-8.752,25.642-5.415
			c21.799,8.134,44.547,13.805,67.61,16.855c12.18,1.757,21.122,12.339,20.816,24.647
			C447.7,378.353,447.698,378.524,447.698,378.695z"/>
    </symbol>    

	<symbol id="footer-mail" role="img" aria-labelledby="footer-mail_title" viewBox="0 0 512 512">
        <title id="footer-mail_title"></title>
        <path d="M256,141.176c-63.306,0-114.809,51.503-114.809,114.809S192.694,370.795,256,370.795s114.809-51.503,114.809-114.809
			S319.306,141.176,256,141.176z M256,329.43c-40.498,0-73.445-32.947-73.445-73.445c0-40.498,32.947-73.445,73.445-73.445
			c40.499,0,73.445,32.947,73.445,73.445C329.445,296.483,296.499,329.43,256,329.43z"/>
		<path d="M437.008,74.97C388.656,26.623,324.375,0,256,0c-0.005,0-0.013,0-0.017,0C187.603,0.004,123.318,26.637,74.97,74.992
			C26.62,123.347-0.005,187.637,0,256.017c0.004,68.379,26.637,132.666,74.992,181.014C123.344,485.377,187.625,512.001,256,512
			c0.004,0,0.012,0,0.017,0c55.945-0.004,111.216-18.738,155.631-52.752c9.07-6.945,10.792-19.927,3.846-28.995
			c-6.945-9.069-19.926-10.794-28.995-3.846c-37.24,28.518-83.58,44.224-130.486,44.228c-0.006,0-0.006,0-0.014,0
			c-57.324,0-111.224-22.324-151.761-62.856c-40.542-40.536-62.871-94.435-62.875-151.766
			C41.357,137.663,137.636,41.372,255.986,41.364c0.007,0,0.006,0,0.014,0c118.34,0,214.628,96.279,214.636,214.622v23.532
			c0,27.523-22.39,49.913-49.913,49.913c-27.523,0-49.913-22.391-49.913-49.913v-23.532c0-11.422-9.259-20.682-20.682-20.682
			s-20.682,9.26-20.682,20.682v23.532c0,50.33,40.947,91.278,91.278,91.278S512,329.848,512,279.518v-23.534
			C511.995,187.604,485.362,123.318,437.008,74.97z"/>
    </symbol>

    <symbol id="footer-location" role="img" aria-labelledby="footer-location_title" viewBox="0 0 512 512">
        <title id="footer-location_title"></title>
        <path d="M406.766,62.449C366.495,22.178,312.951,0,256,0S145.505,22.178,105.234,62.449
			c-40.272,40.271-62.449,93.814-62.449,150.766c0,37.656,10.972,76.863,32.609,116.532c16.825,30.846,40.15,62.102,69.326,92.898
			c49.17,51.903,97.763,84.519,99.808,85.881C248.001,510.842,252,512,256,512c4,0,7.999-1.158,11.473-3.474
			c2.045-1.363,50.638-33.978,99.808-85.881c29.176-30.795,52.501-62.051,69.326-92.898c21.637-39.669,32.609-78.876,32.609-116.532
			C469.215,156.263,447.038,102.72,406.766,62.449z M256.001,465.903C215.826,436.156,84.15,329.739,84.15,213.215
			c0-94.759,77.091-171.851,171.85-171.851s171.85,77.092,171.851,171.851C427.851,329.748,296.159,436.168,256.001,465.903z"/>
		<path d="M256,128.355c-46.791,0-84.86,38.068-84.86,84.86c0,46.791,38.068,84.86,84.86,84.86c46.792,0,84.861-38.068,84.86-84.86
			C340.86,166.423,302.791,128.355,256,128.355z M256,256.71c-23.983,0-43.495-19.512-43.495-43.495
			c0-23.983,19.512-43.495,43.495-43.495c23.984,0,43.495,19.512,43.495,43.495C299.495,237.198,279.984,256.71,256,256.71z"/>
		</symbol>

	<symbol id="footer-time" role="img" aria-labelledby="footer-time_title" viewBox="0 0 512 512">
        <title id="footer-time_title"></title>
        <path d="M437.019,74.981C388.667,26.629,324.38,0,256,0S123.333,26.63,74.981,74.981S0,187.62,0,256
			s26.629,132.667,74.981,181.019C123.332,485.371,187.62,512,256,512s132.667-26.629,181.019-74.981
			C485.371,388.667,512,324.38,512,256S485.371,123.332,437.019,74.981z M256,470.636C137.65,470.636,41.364,374.35,41.364,256
			S137.65,41.364,256,41.364S470.636,137.65,470.636,256S374.35,470.636,256,470.636z"/>
		<path d="M341.221,311.97l-64.538-64.537V114.809c0-11.422-9.259-20.682-20.682-20.682c-11.422,0-20.682,9.26-20.682,20.682V256
			c0,5.486,2.179,10.746,6.058,14.625l70.594,70.595c4.038,4.039,9.332,6.058,14.625,6.058c5.293,0,10.586-2.019,14.626-6.058
			C349.297,333.142,349.297,320.047,341.221,311.97z"/>
	</symbol>

</svg>