<svg xmlns="http://www.w3.org/2000/svg" xmlns:xlink="http://www.w3.org/1999/xlink">

	<symbol id="services01" role="img" aria-labelledby="services01_title" viewBox="-51 0 512 512">
        <title id="services01_title"></title>
        <path d="m409.992188 204.761719c-.042969 44.816406-13.511719 85.328125-42.394532 127.535156-6.238281 9.113281-18.683594 11.445313-27.800781 5.210937-9.113281-6.238281-11.445313-18.6875-5.210937-27.804687 24.121093-35.246094 35.371093-68.59375 35.40625-104.9375-.101563-90.832031-74.121094-164.765625-164.996094-164.765625s-164.890625 73.933594-164.996094 164.804688c.070312 72.355468 44.390625 120.894531 95.710938 177.09375 23.605468 25.851562 47.890624 52.449218 69.285156 83.039062 21.394531-30.59375 45.683594-57.191406 69.289062-83.039062l3.085938-3.378907c7.445312-8.160156 20.09375-8.738281 28.253906-1.292969 8.15625 7.449219 8.734375 20.097657 1.289062 28.257813l-3.09375 3.386719c-26.546874 29.070312-53.996093 59.132812-75.917968 93.816406-3.664063 5.796875-10.046875 9.3125-16.90625 9.3125h-12c-6.859375 0-13.238282-3.515625-16.90625-9.3125-21.921875-34.683594-49.371094-64.746094-75.917969-93.816406-27.074219-29.648438-52.644531-57.652344-72.332031-89.753906-22.730469-37.066407-33.8007815-74.460938-33.839844-114.3125.0625-54.75 21.414062-106.171876 60.121094-144.839844 38.707031-38.667969 90.160156-59.964844 144.875-59.964844s106.167968 21.296875 144.878906 59.964844c38.703125 38.664062 60.058594 90.085937 60.117188 144.796875zm-80.996094.238281c0 68.925781-56.074219 125-125 125-68.925782 0-125-56.074219-125-125s56.074218-125 125-125c68.925781 0 125 56.074219 125 125zm-40 0c0-46.867188-38.128906-85-85-85-46.867188 0-85 38.132812-85 85s38.132812 85 85 85c46.871094 0 85-38.132812 85-85zm-56-20h-11.097656v-20.949219c0-11.046875-8.957032-20-20-20-11.046876 0-19.902344 8.953125-19.902344 20v40.949219c0 11.046875 8.855468 20 19.902344 20h31.097656c11.046875 0 20-8.953125 20-20s-8.953125-20-20-20zm0 0"/>
    </symbol>

    <symbol id="services02" role="img" aria-labelledby="services02_title" viewBox="0 0 512 512">
        <title id="services02_title"></title>
        <path d="m140.472656 405.445312c.507813 1.78125.765625 3.625.765625 5.476563v80.984375c0 11.042969-8.953125 19.996094-19.996093 19.996094-11.046876 0-19.996094-8.953125-19.996094-19.996094v-78.191406l-23.445313-82.296875c-.910156-3.195313-1.011719-6.566407-.289062-9.8125l8.210937-36.992188c2.394532-10.78125 13.074219-17.582031 23.855469-15.1875s17.578125 13.074219 15.1875 23.855469l-7.117187 32.050781zm-99.480468-345.457031c0-33.078125 26.910156-59.988281 59.988281-59.988281s59.988281 26.910156 59.988281 59.988281-26.910156 59.988281-59.988281 59.988281-59.988281-26.910156-59.988281-59.988281zm39.992187 0c0 11.027344 8.972656 19.996094 19.996094 19.996094 11.027343 0 19.996093-8.96875 19.996093-19.996094 0-11.023437-8.96875-19.996093-19.996093-19.996093-11.023438 0-19.996094 8.972656-19.996094 19.996093zm430.324219 426.894531c2.777344 10.6875-3.636719 21.601563-14.324219 24.378907-1.6875.4375-3.378906.644531-5.042969.644531-8.890625 0-17-5.96875-19.339844-14.972656l-19.996093-76.984375c-.847657-3.257813-.855469-6.679688-.03125-9.941407l16.71875-65.929687c3.457031-16.851563 3.609375-33.96875.453125-50.882813l-21.167969-96.355468c-.042969-.195313-.082031-.390625-.121094-.582032-1.777343-9.4375-10.042969-16.289062-19.648437-16.289062h-1.265625c-8.746094 0-16.667969 4.824219-20.679688 12.59375l-66.894531 129.554688c-.050781.101562-.117188.191406-.171875.292968-7.832031 17.386719-25.316406 29.523438-45.589844 29.523438h-75.984375c-20.25 0-37.710937-12.109375-45.5625-29.457032-.03125-.0625-.074218-.117187-.105468-.179687l-68.796876-129.945313c-4.042968-7.640624-11.921874-12.382812-20.566406-12.382812-9.601562 0-17.867187 6.851562-19.648437 16.289062-.035157.195313-.078125.390626-.117188.582032l-21.171875 96.359375c-3.15625 16.914062-3 34.027343.457032 50.878906l16.714843 65.929687c.828125 3.265626.816407 6.683594-.03125 9.941407l-19.996093 76.984375c-2.335938 9.003906-10.449219 14.976562-19.339844 14.976562-1.664063 0-3.351563-.210937-5.039063-.648437-10.691406-2.773438-17.105469-13.691407-14.328125-24.378907l18.707032-72.019531-15.566407-61.386719c-.066406-.277343-.132812-.554687-.191406-.835937-4.632813-22.234375-4.84375-44.824219-.632813-67.140625.035157-.195312.074219-.390625.117188-.585938l21.179688-96.394531c5.46875-28.148437 30.183593-48.546875 58.886718-48.546875 23.496094 0 44.917969 12.898438 55.914063 33.664063l29.128906 55.019531v-2.699219c0-27.5625 22.421875-49.988281 49.988281-49.988281h75.984375c27.566407 0 49.992188 22.425781 49.992188 49.988281v.800781l27.128906-52.542968c10.90625-21.121094 32.445313-34.242188 56.214844-34.242188h1.265625c28.707031 0 53.421875 20.398438 58.890625 48.550782l21.179687 96.390624c.039063.195313.082032.390626.117188.585938 4.210937 22.316406 3.996094 44.90625-.636719 67.140625-.054687.28125-.121094.558594-.191406.835937l-15.5625 61.386719zm-207.101563-184.941406v-75.984375c0-5.511719-4.488281-9.996093-10-9.996093h-75.984375c-5.515625 0-10 4.484374-10 9.996093v75.984375c0 5.515625 4.484375 10 10 10h75.984375c5.511719 0 10-4.484375 10-10zm122.691407-17.046875c-2.238282-10.8125-12.816407-17.765625-23.632813-15.53125-10.816406 2.238281-17.769531 12.820313-15.53125 23.632813l6.667969 32.234375-22.472656 80.304687c-.488282 1.753906-.738282 3.566406-.738282 5.386719v80.984375c0 11.046875 8.953125 19.996094 19.996094 19.996094s19.996094-8.949219 19.996094-19.996094v-78.238281l23.042968-82.339844c.859376-3.074219.972657-6.3125.324219-9.441406zm-73.964844-224.90625c0-33.078125 26.910156-59.988281 59.988281-59.988281s59.988281 26.910156 59.988281 59.988281-26.910156 59.988281-59.988281 59.988281-59.988281-26.910156-59.988281-59.988281zm39.992187 0c0 11.027344 8.96875 19.996094 19.996094 19.996094s19.996094-8.96875 19.996094-19.996094c0-11.023437-8.96875-19.996093-19.996094-19.996093s-19.996094 8.972656-19.996094 19.996093zm0 0"/>
    </symbol>

    <symbol id="services03" role="img" aria-labelledby="services03_title" viewBox="0 0 512 512">
        <title id="services03_title"></title>
        <path d="m491.980469 391.984375h-69.230469c-.703125-.007813-1.402344-.015625-2.101562 0h-180.28125l97.820312-79.398437 53.210938 43.085937c8.582031 6.949219 21.175781 5.628906 28.128906-2.957031 6.949218-8.585938 5.625-21.179688-2.957032-28.128906l-46.640624-37.765626 134.652343-109.300781c6.574219-5.335937 9.078125-14.234375 6.246094-22.214843-2.832031-7.976563-10.378906-13.308594-18.847656-13.308594h-307.988281c-8.472657 0-16.023438 5.335937-18.851563 13.320312-2.828125 7.988282-.316406 16.886719 6.265625 22.21875l135.007812 109.320313-129.515624 105.128906h-53.902344v-311.988281c0-44.109375-35.886719-79.996094-79.996094-79.996094h-23c-11.046875 0-20 8.953125-20 20 0 11.042969 8.953125 20 20 20h23c22.054688 0 39.996094 17.941406 39.996094 39.996094v315.09375c-1.636719.550781-3.261719 1.160156-4.863282 1.855468-14.699218 6.375-26.039062 18.089844-31.925781 32.992188-5.890625 14.902344-5.621093 31.207031.753907 45.90625 6.371093 14.699219 18.089843 26.039062 32.992187 31.925781 7.140625 2.824219 14.601563 4.230469 22.058594 4.230469 8.101562 0 16.191406-1.664062 23.847656-4.980469 14.699219-6.375 26.039063-18.09375 31.925781-32.996093 5.378906-13.605469 5.605469-28.382813.753906-42.042969h25.429688c.011719 0 .023438.003906.035156.003906.007813 0 .015625-.003906.023438-.003906h181.414062c-5.085937 14.34375-4.578125 29.832031 1.503906 43.863281 6.375 14.699219 18.09375 26.039062 32.996094 31.925781 7.140625 2.824219 14.601563 4.230469 22.058594 4.230469 8.097656 0 16.191406-1.664062 23.847656-4.980469 14.699219-6.375 26.039063-18.09375 31.925782-32.996093 5.378906-13.605469 5.605468-28.382813.75-42.042969h13.457031c11.046875 0 20-8.953125 20-19.996094 0-11.046875-8.957031-20-20-20zm-251.507813-209.992187h195.136719l-97.453125 79.101562zm-119.886718 277.335937c-1.960938 4.964844-5.738282 8.867187-10.636719 10.992187-4.902344 2.125-10.335938 2.214844-15.300781.25-4.964844-1.960937-8.867188-5.738281-10.992188-10.636718-2.125-4.898438-2.210938-10.332032-.25-15.296875 1.960938-4.964844 5.738281-8.871094 10.636719-10.996094 2.554687-1.105469 5.246093-1.660156 7.945312-1.660156 2.484375 0 4.972657.472656 7.351563 1.410156 4.96875 1.960937 8.871094 5.742187 10.996094 10.640625 2.121093 4.898438 2.210937 10.328125.25 15.296875zm308.742187-25.9375c4.964844 1.960937 8.871094 5.742187 10.992187 10.640625 2.125 4.898438 2.214844 10.328125.253907 15.296875-1.964844 4.964844-5.742188 8.867187-10.640625 10.992187-4.898438 2.125-10.332032 2.214844-15.296875.25-4.964844-1.960937-8.871094-5.738281-10.992188-10.636718-2.125-4.898438-2.214843-10.332032-.253906-15.296875 1.964844-4.964844 5.742187-8.871094 10.640625-10.996094 2.550781-1.105469 5.246094-1.660156 7.945312-1.660156 2.484376 0 4.972657.472656 7.351563 1.410156zm0 0"/>
    </symbol>

    <symbol id="services04" role="img" aria-labelledby="services04_title" viewBox="0 -12 512 512">
        <title id="services04_title"></title>
        <path d="m450.808594 279.824219-11.449219-58.261719c-3.136719-16.351562-8.550781-28.839844-16.542969-38.171875-10.308594-12.03125-24.765625-18.390625-41.816406-18.390625h-47v-80.101562c0-11.046876-8.953125-20-20-20s-20 8.953124-20 20v194.101562h-194c-11.046875 0-20 8.953125-20 20s8.953125 20 20 20h338c18.914062 2.164062 34 17.515625 34 37v52h-43.441406c-8.253906-23.277344-30.484375-40-56.558594-40s-48.304688 16.722656-56.558594 40h-123.882812c-8.253906-23.277344-30.484375-40-56.558594-40-26.058594 0-48.277344 16.703125-56.546875 39.960938-21.339844-.816407-38.453125-18.421876-38.453125-39.960938v-203.101562c0-11.046876-8.953125-20-20-20s-20 8.953124-20 20v203.101562c0 43.585938 35.039062 79.117188 78.425781 79.960938 8.246094 23.296874 30.488281 40.039062 56.574219 40.039062 26.074219 0 48.304688-16.722656 56.558594-40h123.882812c8.253906 23.277344 30.484375 40 56.558594 40s48.304688-16.722656 56.558594-40h63.441406c11.046875 0 20-8.953125 20-20v-72c0-37.238281-26.234375-68.46875-61.191406-76.175781zm-116.808594-74.824219h47c6.105469 0 14.464844 0 19.082031 24.136719.003907.03125.011719.0625.019531.097656l9.78125 49.765625h-75.882812zm-199 243c-11.027344 0-20-8.972656-20-20s8.972656-20 20-20 20 8.972656 20 20-8.972656 20-20 20zm237 0c-11.027344 0-20-8.972656-20-20s8.972656-20 20-20 20 8.972656 20 20-8.972656 20-20 20zm-371.101562-363c0-11.046875 8.953124-20 20-20h163.300781l-31.230469-30.746094c-7.871094-7.75-7.972656-20.414062-.222656-28.285156s20.414062-7.96875 28.285156-.222656l45.144531 44.445312c9.558594 9.414063 14.824219 21.953125 14.824219 35.304688 0 13.355468-5.265625 25.890625-14.824219 35.304687l-44.136719 43.453125c-3.894531 3.835938-8.964843 5.746094-14.03125 5.746094-5.167968 0-10.335937-1.992188-14.25-5.96875-7.75-7.871094-7.652343-20.535156.21875-28.28125l31.230469-30.75h-164.308593c-11.042969 0-20-8.953125-20-20zm0 0"/>
    </symbol>

    <symbol id="services05" role="img" aria-labelledby="services05_title" viewBox="0 0 512 512">
        <title id="services05_title"></title>
        <path d="m149.59375 171.3125c-5.214844-12.578125-2.375-26.929688 7.242188-36.566406l63.972656-64.058594c9.398437-9.414062 21.902344-14.597656 35.203125-14.597656 13.304687 0 25.808593 5.183594 35.210937 14.59375l63.980469 64.058594c9.621094 9.640624 12.460937 23.992187 7.246094 36.570312-5.210938 12.558594-17.359375 20.675781-30.949219 20.675781h-1.441406c-11.042969 0-20-8.953125-20-20 0-7.011719 3.613281-13.183593 9.078125-16.753906l-56.214844-56.28125c-2.488281-2.492187-5.394531-2.863281-6.90625-2.863281s-4.417969.375-6.90625 2.863281l-52.964844 53.039063h39.785157c21.933593 0 39.121093 17.5625 39.128906 39.984374l-.058594 130.03125c-.003906 11.042969-8.957031 19.992188-20 19.992188-.003906 0-.007812 0-.011719 0-11.042969-.003906-19.996093-8.964844-19.988281-20.007812l.058594-130.003907h-54.511719c-13.59375 0-25.738281-8.117187-30.953125-20.675781zm282.40625-171.3125h-39c-11.046875 0-20 8.953125-20 20s8.953125 20 20 20h39c22.054688 0 40 17.945312 40 40v172c0 11.046875 8.953125 20 20 20s20-8.953125 20-20v-172c0-44.113281-35.886719-80-80-80zm80 352v80c0 44.113281-35.886719 80-80 80h-352c-44.113281 0-80-35.886719-80-80v-352c0-44.113281 35.886719-80 80-80h42c11.046875 0 20 8.953125 20 20s-8.953125 20-20 20h-42c-22.054688 0-40 17.945312-40 40v252h54.945312c29.277344 0 56.453126 14.542969 72.695313 38.90625 8.804687 13.207031 23.539063 21.09375 39.414063 21.09375h96.890624c15.875 0 30.609376-7.886719 39.414063-21.09375 16.242187-24.363281 43.417969-38.90625 72.695313-38.90625h75.945312c11.046875 0 20 8.953125 20 20zm-40 80v-60h-55.945312c-15.875 0-30.609376 7.886719-39.414063 21.09375-16.242187 24.363281-43.417969 38.90625-72.695313 38.90625h-96.890624c-29.277344 0-56.453126-14.542969-72.695313-38.90625-8.804687-13.207031-23.539063-21.09375-39.414063-21.09375h-54.945312v60c0 22.054688 17.945312 40 40 40h352c22.054688 0 40-17.945312 40-40zm0 0"/>
    </symbol>

    <symbol id="services06" role="img" aria-labelledby="services06_title" viewBox="0 0 512 512">
        <title id="services06_title"></title>
        <path d="m512 405v57c0 27.570312-22.429688 50-50 50h-56c-11.046875 0-20-8.953125-20-20s8.953125-20 20-20h37.886719l-57.128907-57.960938c-7.753906-7.867187-7.664062-20.527343.203126-28.28125 7.867187-7.753906 20.527343-7.664062 28.28125.203126l56.757812 57.578124v-38.539062c0-11.046875 8.953125-20 20-20s20 8.953125 20 20zm-385.757812-18.039062c-7.753907-7.867188-20.414063-7.957032-28.28125-.203126l-57.960938 57.128907v-37.886719c0-11.046875-8.953125-20-20-20s-20 8.953125-20 20v56c0 27.570312 22.429688 50 50 50h57c11.046875 0 20-8.953125 20-20s-8.953125-20-20-20h-38.539062l57.578124-56.757812c7.867188-7.753907 7.957032-20.414063.203126-28.28125zm-106.242188-260.960938c11.046875 0 20-8.953125 20-20v-37.714844l56.859375 56.855469c3.902344 3.90625 9.023437 5.859375 14.140625 5.859375s10.238281-1.953125 14.140625-5.859375c7.8125-7.808594 7.8125-20.472656 0-28.28125l-56.855469-56.859375h38.714844c11.046875 0 20-8.953125 20-20s-8.953125-20-20-20h-57c-27.570312 0-50 22.429688-50 50v56c0 11.046875 8.953125 20 20 20zm442-126h-56c-11.046875 0-20 8.953125-20 20s8.953125 20 20 20h37.890625l-56.136719 56.960938c-7.75 7.867187-7.660156 20.53125.207032 28.285156 3.898437 3.839844 8.96875 5.753906 14.039062 5.753906 5.167969 0 10.332031-1.988281 14.246094-5.960938l55.753906-56.574218v38.535156c0 11.046875 8.953125 20 20 20s20-8.953125 20-20v-57c0-27.570312-22.429688-50-50-50zm-97 274.75v46.25c0 33.085938-26.914062 60-60 60h-99c-33.085938 0-60-26.914062-60-60v-46.25c-9.617188-1.449219-17-9.726562-17-19.75v-70c0-11.046875 8.953125-20 20-20h213c11.046875 0 20 8.953125 20 20v70c0 10.023438-7.382812 18.300781-17 19.75zm-196-39.75h173v-30h-173zm156 86v-46h-50v10c0 11.046875-8.953125 20-20 20s-20-8.953125-20-20v-10h-49v46c0 11.027344 8.972656 20 20 20h99c11.027344 0 20-8.972656 20-20zm0 0"/>
    </symbol>

    <symbol id="services07" role="img" aria-labelledby="services07_title" viewBox="0 0 512 512">
        <title id="services07_title"></title>
        <path d="m492 372c11.046875 0 20-8.953125 20-20v-140c0-33.085938-26.914062-60-60-60h-71c-33.085938 0-60 26.914062-60 60v106h-41v-192.535156l110-68.460938v34.996094c0 11.046875 8.953125 20 20 20s20-8.953125 20-20v-71c0-7.265625-3.9375-13.957031-10.289062-17.484375-6.347657-3.5273438-14.113282-3.332031-20.277344.503906l-119.433594 74.332031v-18.351562c0-33.085938-26.914062-60-60-60h-160c-33.085938 0-60 26.914062-60 60v392c0 33.085938 26.914062 60 60 60h392c33.085938 0 60-26.914062 60-60 0-11.046875-8.953125-20-20-20s-20 8.953125-20 20c0 11.027344-8.972656 20-20 20h-91v-260c0-11.027344 8.972656-20 20-20h71c11.027344 0 20 8.972656 20 20v140c0 11.046875 8.953125 20 20 20zm-452 80v-392c0-11.027344 8.972656-20 20-20h160c11.027344 0 20 8.972656 20 20v258h-100c-33.085938 0-60 26.914062-60 60v94h-20c-11.027344 0-20-8.972656-20-20zm80-74c0-11.027344 8.972656-20 20-20h181v114h-201zm317-126c0 11.046875-8.953125 20-20 20s-20-8.953125-20-20 8.953125-20 20-20 20 8.953125 20 20zm0 80c0 11.046875-8.953125 20-20 20s-20-8.953125-20-20 8.953125-20 20-20 20 8.953125 20 20zm0 80c0 11.046875-8.953125 20-20 20s-20-8.953125-20-20 8.953125-20 20-20 20 8.953125 20 20zm-357-312c0-11.046875 8.953125-20 20-20s20 8.953125 20 20-8.953125 20-20 20-20-8.953125-20-20zm80 0c0-11.046875 8.953125-20 20-20s20 8.953125 20 20-8.953125 20-20 20-20-8.953125-20-20zm-80 80c0-11.046875 8.953125-20 20-20s20 8.953125 20 20-8.953125 20-20 20-20-8.953125-20-20zm80 0c0-11.046875 8.953125-20 20-20s20 8.953125 20 20-8.953125 20-20 20-20-8.953125-20-20zm-80 80c0-11.046875 8.953125-20 20-20s20 8.953125 20 20-8.953125 20-20 20-20-8.953125-20-20zm80 0c0-11.046875 8.953125-20 20-20s20 8.953125 20 20-8.953125 20-20 20-20-8.953125-20-20zm40 158c0 11.046875-8.953125 20-20 20s-20-8.953125-20-20 8.953125-20 20-20 20 8.953125 20 20zm80 0c0 11.046875-8.953125 20-20 20s-20-8.953125-20-20 8.953125-20 20-20 20 8.953125 20 20zm0 0"/>
    </symbol>

    <symbol id="services08" role="img" aria-labelledby="services08_title" viewBox="0 0 512 512">
        <title id="services08_title"></title>
        <path d="m492.039062 347.335938h-451.136718v-189.402344c0-65.070313 52.941406-118.011719 118.011718-118.011719 48.625 0 91.660157 29.195313 109.644532 74.375l21.371094 53.695313c8.554687 21.492187 23.195312 39.714843 42.335937 52.699218 19.144531 12.984375 41.488281 19.847656 64.617187 19.847656 28.773438 0 54.597657 16.023438 67.402344 41.816407 4.902344 9.875 16.882813 13.902343 26.753906 9.003906 9.875-4.902344 13.90625-16.882813 9.003907-26.757813-9.386719-18.914062-23.796875-34.886718-41.664063-46.195312-18.386718-11.636719-39.648437-17.789062-61.496094-17.789062-30.980468 0-58.402343-18.601563-69.859374-47.386719l-21.375-53.699219c-11.734376-29.484375-31.820313-54.488281-58.082032-72.300781-26.261718-17.816407-56.917968-27.230469-88.652344-27.230469-87.085937 0-157.933593 70.847656-157.933593 157.933594v203.167968c-.636719 1.949219-.980469 4.03125-.980469 6.195313 0 2.160156.34375 4.246094.980469 6.195313v57.683593c0 44.027344 35.816406 79.84375 79.84375 79.84375h351.328125c44.027344 0 79.847656-35.816406 79.847656-79.84375v-63.878906c0-11.027344-8.9375-19.960937-19.960938-19.960937zm-19.960937 83.839843c0 22.011719-17.910156 39.921875-39.925781 39.921875h-351.328125c-22.011719 0-39.921875-17.910156-39.921875-39.921875v-43.917969h37.925781v39.921876c0 11.027343 8.9375 19.964843 19.964844 19.964843 11.023437 0 19.960937-8.9375 19.960937-19.964843v-39.921876h38.925782v39.921876c0 11.027343 8.9375 19.964843 19.960937 19.964843s19.960937-8.9375 19.960937-19.964843v-39.921876h38.925782v39.921876c0 11.027343 8.9375 19.964843 19.960937 19.964843 11.027344 0 19.964844-8.9375 19.964844-19.964843v-39.921876h38.921875v39.921876c0 11.027343 8.9375 19.964843 19.964844 19.964843 11.023437 0 19.960937-8.9375 19.960937-19.964843v-39.921876h39.921875v39.921876c0 11.027343 8.9375 19.964843 19.960938 19.964843 11.027344 0 19.964844-8.9375 19.964844-19.964843v-39.921876h36.929687zm0 0"/>
    </symbol>

    <symbol id="services09" role="img" aria-labelledby="services09_title" viewBox="0 0 512 512">
        <title id="services09_title"></title>
        <path d="m501.507812 89.90625c-9.71875-5.253906-21.855468-1.632812-27.105468 8.082031l-54.871094 101.511719h-327.066406l-54.867188-101.511719c-5.253906-9.714843-17.390625-13.335937-27.105468-8.082031-9.714844 5.25-13.335938 17.386719-8.082032 27.101562l55.292969 102.296876-41.828125 73.988281c-.085938.148437-.167969.304687-.25.453125-6.53125 12.296875-6.152344 26.757812 1.019531 38.691406s19.765625 19.058594 33.6875 19.058594h9.671875v80.996094c0 44.113281 35.886719 80 80 80h231.996094c44.109375 0 79.996094-35.886719 79.996094-80 0-11.042969-8.953125-20-20-20-11.042969 0-20 8.957031-20 20 0 22.058593-17.941406 40-39.996094 40h-96v-91.996094c0-11.046875-8.953125-20-20-20s-20 8.953125-20 20v91.996094h-95.996094c-22.058594 0-40-17.941407-40-40v-80.996094h69.101563c24.851562 0 47.539062-13.636719 59.207031-35.582032l27.1875-51.152343 27.1875 51.152343c11.667969 21.945313 34.355469 35.582032 59.210938 35.582032h118.769531c13.921875 0 26.515625-7.125 33.6875-19.058594s7.550781-26.394531 1.015625-38.691406c-.078125-.148438-.164063-.304688-.25-.453125l-41.3125-73.085938 55.78125-103.199219c5.253906-9.714843 1.632812-21.851562-8.082032-27.101562zm-308.519531 207.234375c-4.703125 8.855469-13.859375 14.355469-23.886719 14.355469h-117.566406l40.699219-72h131.394531zm148.90625 14.355469c-10.027343 0-19.179687-5.5-23.886719-14.355469l-30.640624-57.644531h131.394531l40.703125 72zm-173.8125-211.632813c-7.929687-7.6875-8.132812-20.347656-.445312-28.28125 7.6875-7.929687 20.347656-8.132812 28.28125-.445312l52.425781 50.792969c1.617188 1.5 3.460938 1.617187 4.417969 1.558593.910156-.0625 2.59375-.394531 3.960937-1.894531l81.035156-112.765625c6.445313-8.96875 18.941407-11.015625 27.910157-4.566406 8.972656 6.445312 11.015625 18.941406 4.570312 27.910156l-81.472656 113.371094c-.21875.300781-.441406.597656-.675781.886719-8.011719 9.933593-19.917969 16.117187-32.667969 16.96875-1.015625.066406-2.027344.097656-3.035156.097656-11.707031 0-23.085938-4.496094-31.617188-12.585938-.050781-.050781-.105469-.101562-.15625-.148437zm0 0"/>
    </symbol>

    <symbol id="check" role="img" aria-labelledby="check_title" viewBox="0 0 459 459">
        <title id="check_title"></title>
        <path d="M124.9,181.1l-35.7,35.7L204,331.5l255-255l-35.7-35.7L204,260.1L124.9,181.1z M408,408H51V51h255V0H0v459h459V204h-51
			V408z"/>
    </symbol>

    <symbol id="footer-facebook" role="img" aria-labelledby="footer-facebook_title" viewBox="0 0 512 512">
        <title id="footer-facebook_title">Facebook</title>
        <path d="M314.829,135.492h70.595c11.423,0,20.682-9.26,20.682-20.682V20.682C406.107,9.26,396.848,0,385.425,0h-70.595
            c-76.282,0-138.341,62.06-138.341,138.341v49.913h-49.913c-11.422,0-20.682,9.26-20.682,20.682v94.127
            c0,11.423,9.26,20.682,20.682,20.682h49.913v167.572c0,11.423,9.26,20.682,20.682,20.682h94.127
            c11.423,0,20.682-9.259,20.682-20.682V323.746h49.913c9.49,0,17.763-6.458,20.065-15.666l23.532-94.127
            c1.544-6.179,0.156-12.725-3.763-17.744c-3.919-5.02-9.932-7.954-16.301-7.954H311.98v-49.913
            C311.98,136.77,313.258,135.492,314.829,135.492z M291.298,229.619h67.637l-13.191,52.763h-54.447
            c-11.423,0-20.682,9.259-20.682,20.682v167.572h-52.763V303.064c0-11.423-9.26-20.682-20.682-20.682h-49.913v-52.763h49.913
            c11.422,0,20.682-9.26,20.682-20.682v-70.595c0-53.473,43.503-96.977,96.977-96.977h49.913v52.763h-49.913
            c-24.38,0-44.214,19.835-44.214,44.214v70.595C270.615,220.359,279.875,229.619,291.298,229.619z"/>
    </symbol>

    <symbol id="footer-twitter" role="img" aria-labelledby="footer-twitter_title" viewBox="0 0 512 512">
        <title id="footer-twitter_title">Twitter</title>
        <path d="M502.954,47.189c-7.126-4.852-16.515-4.774-23.559,0.196c-15.351,10.828-31.974,19.528-49.557,25.948
            c-19.253-17.414-43.615-27.826-69.915-29.656c-31.056-2.16-61.081,7.9-84.561,28.326c-25.59,22.259-40.174,54.444-40.046,88.349
            c-85.248-7.609-139.14-61.55-177.09-108.986c-4.598-5.746-11.901-8.619-19.182-7.538c-7.279,1.078-13.438,5.944-16.171,12.777
            c-0.948,2.369-23.141,58.799-17.453,127.057c4.761,57.133,30.23,131.964,120.039,181.717
            c-32.436,14.756-68.282,21.939-103.953,20.519c-9.576-0.378-18.15,5.859-20.736,15.08c-2.587,9.221,1.497,19.013,9.869,23.665
            c51.359,28.532,108.03,43.736,163.889,43.965c0.432,0.002,0.861,0.003,1.294,0.003c54.105-0.001,106.379-13.938,151.246-40.336
            c42.898-25.241,78.416-61.759,102.715-105.603c26.162-47.206,39.427-101.75,39.427-162.186c-0.011-3.544-0.186-7.098-0.52-10.638
            c20.7-22.885,35.388-50.567,42.719-80.667C513.451,60.803,510.081,52.04,502.954,47.189z M432.297,128.07
            c-4.916,4.847-7.088,11.827-5.793,18.607c0.877,4.588,1.329,9.278,1.344,13.874c0,101.956-44.378,186.544-121.756,232.072
            c-60.586,35.649-133.037,43.933-203.609,25.057c0.729-0.201,1.459-0.407,2.185-0.615c27.596-7.885,53.63-20.055,77.377-36.174
            c6.329-4.296,9.77-11.734,8.946-19.34c-0.825-7.605-5.778-14.134-12.881-16.975C97.757,312.434,53.563,257.594,46.757,181.575
            c-2.536-28.334,0.707-54.721,4.766-74.501c16.638,17.909,37.384,37.227,62.129,53.407c42.771,27.966,90.663,42.146,142.346,42.146
            c11.423,0,20.682-9.26,20.682-20.682v-21.393c0-0.045,0-0.091,0-0.137c-0.146-21.948,9.268-42.797,25.829-57.202
            c15.146-13.175,34.51-19.665,54.543-18.27c20.026,1.393,38.311,10.502,51.487,25.648c5.339,6.138,13.783,8.577,21.567,6.229
            c5.725-1.724,11.375-3.645,16.941-5.757C442.599,117.081,437.672,122.769,432.297,128.07z"/>
    </symbol>    

    <symbol id="footer-linkedin" role="img" aria-labelledby="footer-linkedin_title" viewBox="0 0 512 512">
        <title id="footer-linkedin_title">Linkedin</title>
        <path d="M2.5,510V153.7h137.3V510H2.5z M102.5,472.7V191H39.8v281.7H102.5z"/>
        <path d="M375.4,510l0.1-158.1c0.5-23.6-8.8-42.9-24.9-51.7c-5.4-3-11.2-4.5-17.3-4.5c-5.2,0-10.4,1.1-15.5,3.3l-1.1,211H176.1
            V153.7h140.6V166c16.6-6,33.6-9.1,50.6-9.1c24.7,0,48.3,6.4,70.2,18.9c44,25.2,72.5,71.8,72.5,118.8V510H375.4z M472.7,472.7V294.6
            c0-33.8-21.1-67.7-53.7-86.4c-15.9-9.1-33.8-13.9-51.7-14h-0.3c-20.1,0-40.1,5.8-59.6,17.3L279.4,228V191h-66.1v281.7h66.2l1-194.7
            l8.2-5.5c13.7-9.2,29.1-14.1,44.5-14.1c12.4,0,24.2,3,35.1,9c13.7,7.5,25,19.2,32.8,33.8c7.9,14.9,11.9,32.6,11.5,51.1l0,120.3
            H472.7z"/>
        <path d="M70.9,139.9C32.9,139.9,2,109,2,71c0-38,30.9-69,68.9-69c38,0,68.9,30.9,68.9,69C139.8,109,108.9,139.9,70.9,139.9z
             M70.9,39.3c-17.4,0-31.6,14.2-31.6,31.7c0,17.5,14.2,31.7,31.6,31.7c17.4,0,31.6-14.2,31.6-31.7C102.5,53.5,88.3,39.3,70.9,39.3z"
            />
    </symbol>

    <symbol id="footer-instagram" role="img" aria-labelledby="footer-instagram_title" viewBox="0 0 512 512">
        <title id="footer-instagram_title">Instagram</title>
        <path d="M373.659,0H138.341C62.06,0,0,62.06,0,138.341v235.318C0,449.94,62.06,512,138.341,512h235.318
            C449.94,512,512,449.94,512,373.659V138.341C512,62.06,449.94,0,373.659,0z M470.636,373.659
            c0,53.473-43.503,96.977-96.977,96.977H138.341c-53.473,0-96.977-43.503-96.977-96.977V138.341
            c0-53.473,43.503-96.977,96.977-96.977h235.318c53.473,0,96.977,43.503,96.977,96.977V373.659z"/>
        <path d="M370.586,238.141c-3.64-24.547-14.839-46.795-32.386-64.342c-17.547-17.546-39.795-28.746-64.341-32.385
            c-11.176-1.657-22.507-1.657-33.682,0c-30.336,4.499-57.103,20.541-75.372,45.172c-18.269,24.631-25.854,54.903-21.355,85.237
            c4.499,30.335,20.541,57.102,45.172,75.372c19.996,14.831,43.706,22.619,68.153,22.619c5.667,0,11.375-0.418,17.083-1.265
            c30.336-4.499,57.103-20.541,75.372-45.172C367.5,298.747,375.085,268.476,370.586,238.141z M267.791,327.632
            c-19.405,2.882-38.77-1.973-54.527-13.66c-15.757-11.687-26.019-28.811-28.896-48.216c-2.878-19.405,1.973-38.77,13.66-54.527
            c11.688-15.757,28.811-26.019,48.217-28.897c3.574-0.53,7.173-0.795,10.772-0.795s7.199,0.265,10.773,0.796
            c32.231,4.779,57.098,29.645,61.878,61.877C335.608,284.268,307.851,321.692,267.791,327.632z"/>
        <path d="M400.049,111.951c-3.852-3.851-9.183-6.058-14.625-6.058c-5.442,0-10.773,2.206-14.625,6.058
            c-3.851,3.852-6.058,9.174-6.058,14.625c0,5.451,2.207,10.773,6.058,14.625c3.852,3.851,9.183,6.058,14.625,6.058
            c5.442,0,10.773-2.206,14.625-6.058c3.851-3.852,6.058-9.183,6.058-14.625C406.107,121.133,403.9,115.802,400.049,111.951z"/>
    </symbol>

    <symbol id="footer-phone" role="img" aria-labelledby="footer-phone_title" viewBox="0 0 512 512">
        <title id="footer-phone_title"></title>
        <path d="M421.216,195.504c-5.092-26.101-17.723-49.836-36.526-68.64c-18.804-18.803-42.54-31.434-68.641-36.527
			c-11.21-2.189-22.073,5.128-24.261,16.339c-2.187,11.212,5.128,22.073,16.339,24.26c36.847,7.188,65.3,35.642,72.489,72.489
			c1.927,9.874,10.581,16.726,20.278,16.726c1.313,0,2.645-0.125,3.984-0.387C416.088,217.577,423.403,206.715,421.216,195.504z"/>
		<path d="M511.422,196.929c-5.629-50.096-28.373-97.304-64.042-132.927C411.712,28.378,364.475,5.694,314.371,0.128
			c-11.355-1.261-21.578,6.92-22.839,18.272c-1.261,11.353,6.919,21.578,18.272,22.84c84.961,9.438,150.966,75.36,160.512,160.31
			c1.188,10.566,10.139,18.374,20.527,18.374c0.771,0,1.552-0.043,2.336-0.131C504.53,218.516,512.698,208.281,511.422,196.929z"/>
		<path d="M432.59,312.566c-0.062-0.008-0.124-0.017-0.186-0.025c-20.013-2.639-39.751-7.557-58.619-14.596
			c-23.91-8.99-51.103-3.191-69.27,14.772c-0.028,0.028-0.056,0.055-0.083,0.083l-17.148,17.148
			c-42.633-26.924-78.756-63.047-105.679-105.679l17.149-17.149c0.027-0.028,0.054-0.055,0.082-0.083
			c17.964-18.166,23.762-45.356,14.79-69.223c-7.057-18.914-11.974-38.653-14.614-58.666c-0.007-0.063-0.017-0.127-0.026-0.19
			c-4.591-32.478-32.782-56.734-65.548-56.467H66.053c-1.943,0.002-3.912,0.091-5.853,0.267
			C24.143,26.016-2.541,58.001,0.718,94.058c0.01,0.108,0.02,0.215,0.032,0.323c7.684,72.354,32.649,142.88,72.197,203.955
			c35.892,56.461,84.701,105.269,141.162,141.164c60.792,39.406,130.99,64.369,203.013,72.196c0.127,0.015,0.254,0.027,0.38,0.038
			c1.961,0.176,3.949,0.266,5.921,0.266c0.083,0,0.165,0,0.247,0.001c36.204-0.148,65.538-29.722,65.391-65.841v-67.233
			C489.746,345.714,465.515,317.211,432.59,312.566z M447.698,378.695v67.548c0.055,13.396-10.8,24.338-24.19,24.393
			c-0.715-0.004-1.425-0.027-2.135-0.086c-65.578-7.161-129.488-29.914-184.837-65.808c-0.053-0.035-0.107-0.069-0.161-0.103
			c-51.429-32.68-95.885-77.137-128.565-128.565c-0.032-0.051-0.064-0.101-0.097-0.153C71.683,220.306,48.928,156.086,41.902,90.193
			C40.779,76.91,50.63,65.155,63.923,63.954c0.717-0.064,1.443-0.098,2.145-0.098h67.463c0.146-0.001,0.294-0.003,0.443-0.002
			c12.021,0,22.322,8.905,24.044,20.819c3.05,23.063,8.721,45.806,16.871,67.649c3.319,8.832,1.189,18.869-5.427,25.591
			l-28.517,28.517c-6.583,6.582-7.956,16.753-3.354,24.847c33.837,59.508,83.177,108.847,142.685,142.685
			c8.094,4.6,18.264,3.23,24.848-3.355l28.512-28.512c6.72-6.621,16.765-8.752,25.642-5.415
			c21.799,8.134,44.547,13.805,67.61,16.855c12.18,1.757,21.122,12.339,20.816,24.647
			C447.7,378.353,447.698,378.524,447.698,378.695z"/>
    </symbol>    

    <symbol id="footer-fax" role="img" aria-labelledby="footer-fax_title" viewBox="0 0 512 512">
        <title id="footer-fax_title"></title>
        <path d="M452,159h-51V0H111v159H60c-33.084,0-60,26.916-60,60v162c0,33.084,26.916,60,60,60h51v71h290v-71h51
			c33.084,0,60-26.916,60-60V219C512,185.916,485.084,159,452,159z M151,40h210v119H151V40z M111,401H60c-11.028,0-20-8.972-20-20
			v-42h71V401z M361,472H151V339h210V472z M472,381c0,11.028-8.972,20-20,20h-51v-62h71V381z M472,299H40v-80
			c0-11.028,8.972-20,20-20h392c11.028,0,20,8.972,20,20V299z"/>
		<circle cx="421" cy="249" r="20"/>
    </symbol>

	<symbol id="footer-mail" role="img" aria-labelledby="footer-mail_title" viewBox="0 0 512 512">
        <title id="footer-mail_title"></title>
        <path d="M256,141.176c-63.306,0-114.809,51.503-114.809,114.809S192.694,370.795,256,370.795s114.809-51.503,114.809-114.809
			S319.306,141.176,256,141.176z M256,329.43c-40.498,0-73.445-32.947-73.445-73.445c0-40.498,32.947-73.445,73.445-73.445
			c40.499,0,73.445,32.947,73.445,73.445C329.445,296.483,296.499,329.43,256,329.43z"/>
		<path d="M437.008,74.97C388.656,26.623,324.375,0,256,0c-0.005,0-0.013,0-0.017,0C187.603,0.004,123.318,26.637,74.97,74.992
			C26.62,123.347-0.005,187.637,0,256.017c0.004,68.379,26.637,132.666,74.992,181.014C123.344,485.377,187.625,512.001,256,512
			c0.004,0,0.012,0,0.017,0c55.945-0.004,111.216-18.738,155.631-52.752c9.07-6.945,10.792-19.927,3.846-28.995
			c-6.945-9.069-19.926-10.794-28.995-3.846c-37.24,28.518-83.58,44.224-130.486,44.228c-0.006,0-0.006,0-0.014,0
			c-57.324,0-111.224-22.324-151.761-62.856c-40.542-40.536-62.871-94.435-62.875-151.766
			C41.357,137.663,137.636,41.372,255.986,41.364c0.007,0,0.006,0,0.014,0c118.34,0,214.628,96.279,214.636,214.622v23.532
			c0,27.523-22.39,49.913-49.913,49.913c-27.523,0-49.913-22.391-49.913-49.913v-23.532c0-11.422-9.259-20.682-20.682-20.682
			s-20.682,9.26-20.682,20.682v23.532c0,50.33,40.947,91.278,91.278,91.278S512,329.848,512,279.518v-23.534
			C511.995,187.604,485.362,123.318,437.008,74.97z"/>
    </symbol>

    <symbol id="footer-location" role="img" aria-labelledby="footer-location_title" viewBox="0 0 512 512">
        <title id="footer-location_title"></title>
        <path d="M406.766,62.449C366.495,22.178,312.951,0,256,0S145.505,22.178,105.234,62.449
			c-40.272,40.271-62.449,93.814-62.449,150.766c0,37.656,10.972,76.863,32.609,116.532c16.825,30.846,40.15,62.102,69.326,92.898
			c49.17,51.903,97.763,84.519,99.808,85.881C248.001,510.842,252,512,256,512c4,0,7.999-1.158,11.473-3.474
			c2.045-1.363,50.638-33.978,99.808-85.881c29.176-30.795,52.501-62.051,69.326-92.898c21.637-39.669,32.609-78.876,32.609-116.532
			C469.215,156.263,447.038,102.72,406.766,62.449z M256.001,465.903C215.826,436.156,84.15,329.739,84.15,213.215
			c0-94.759,77.091-171.851,171.85-171.851s171.85,77.092,171.851,171.851C427.851,329.748,296.159,436.168,256.001,465.903z"/>
		<path d="M256,128.355c-46.791,0-84.86,38.068-84.86,84.86c0,46.791,38.068,84.86,84.86,84.86c46.792,0,84.861-38.068,84.86-84.86
			C340.86,166.423,302.791,128.355,256,128.355z M256,256.71c-23.983,0-43.495-19.512-43.495-43.495
			c0-23.983,19.512-43.495,43.495-43.495c23.984,0,43.495,19.512,43.495,43.495C299.495,237.198,279.984,256.71,256,256.71z"/>
		</symbol>

	<symbol id="footer-time" role="img" aria-labelledby="footer-time_title" viewBox="0 0 512 512">
        <title id="footer-time_title"></title>
        <path d="M437.019,74.981C388.667,26.629,324.38,0,256,0S123.333,26.63,74.981,74.981S0,187.62,0,256
			s26.629,132.667,74.981,181.019C123.332,485.371,187.62,512,256,512s132.667-26.629,181.019-74.981
			C485.371,388.667,512,324.38,512,256S485.371,123.332,437.019,74.981z M256,470.636C137.65,470.636,41.364,374.35,41.364,256
			S137.65,41.364,256,41.364S470.636,137.65,470.636,256S374.35,470.636,256,470.636z"/>
		<path d="M341.221,311.97l-64.538-64.537V114.809c0-11.422-9.259-20.682-20.682-20.682c-11.422,0-20.682,9.26-20.682,20.682V256
			c0,5.486,2.179,10.746,6.058,14.625l70.594,70.595c4.038,4.039,9.332,6.058,14.625,6.058c5.293,0,10.586-2.019,14.626-6.058
			C349.297,333.142,349.297,320.047,341.221,311.97z"/>
	</symbol>

</svg>