<svg xmlns="http://www.w3.org/2000/svg" xmlns:xlink="http://www.w3.org/1999/xlink">	

	<symbol id="careers-why01" role="img" aria-labelledby="careers-why01_title" viewBox="0 0 512 512">
        <title id="careers-why01_title"></title>
        <path d="M239.911,132.588c0-13.807,11.193-25,25-25c13.807,0,25,11.193,25,25s-11.193,25-25,25  C251.104,157.588,239.911,146.396,239.911,132.588z M278.529,316.583c-4.023,1.963-7.224,0.347-8.772-0.793  c-1.464-1.077-3.776-3.434-3.448-7.43l15.876-63.147c0.154-0.614,0.279-1.235,0.375-1.861c2.728-17.888-4.634-35.66-19.212-46.381  c-14.582-10.724-33.746-12.454-50.01-4.517c-13.556,6.614-16.368,7.984-16.378,7.989l17.517,35.961c0,0,2.803-1.365,16.402-8.001  c4.024-1.962,7.223-0.345,8.771,0.793c1.464,1.077,3.776,3.435,3.449,7.431l-15.876,63.147c-0.154,0.614-0.279,1.235-0.375,1.86  c-2.729,17.887,4.633,35.659,19.21,46.38c8.508,6.257,18.575,9.453,28.718,9.453c7.24,0,14.519-1.628,21.294-4.934l13.588-6.631  l-17.541-35.949L278.529,316.583z M512,235.5c0,36.195-6.923,68.709-20.578,96.641c-13.008,26.609-32.129,49.15-56.832,66.999  C390.803,430.777,329.047,447.5,256,447.5c-20.442,0-40.185-1.313-58.845-3.909c-42.33,42.462-94.389,44.91-105.736,44.91  c-0.11,0-0.216,0-0.318,0l-0.105,0l-35.955-0.053l18.983-30.52c0.099-0.162,11.108-18.301,19.591-48.232  C32.285,373.671,0,313.784,0,235.5c0-36.195,6.923-68.709,20.578-96.641C33.586,112.25,52.708,89.708,77.41,71.86  C121.197,40.222,182.953,23.5,256,23.5s134.803,16.723,178.59,48.36c24.702,17.848,43.823,40.39,56.832,66.999  C505.077,166.79,512,199.305,512,235.5z M472,235.5c0-57.903-20.468-102.051-60.836-131.217C374.238,77.602,320.583,63.5,256,63.5  s-118.238,14.103-155.164,40.783C60.468,133.449,40,177.597,40,235.5c0,68.877,28.818,118.016,85.654,146.051l14.073,6.941  l-3.394,15.32c-3.293,14.867-7.375,27.915-11.404,38.786c15.517-5.229,33.798-15.049,49.632-33.439l7.369-8.56l11.136,1.891  c19.571,3.324,40.745,5.009,62.935,5.009c64.583,0,118.238-14.103,155.164-40.783C451.532,337.55,472,293.402,472,235.5z"/>
    </symbol>

    <symbol id="careers-why02" role="img" aria-labelledby="careers-why02_title" viewBox="0 0 512 512">
        <title id="careers-why02_title"></title>
        <path d="m316.5625 361.152344c0 16.152344-6.390625 31.492187-17.992188 43.199218-6.664062 6.726563-14.53125 11.714844-23.066406 14.765626v30.796874h-40.054687v-30.84375c-23.621094-8.570312-41.058594-31.734374-41.058594-58.148437h40.058594c0 11.523437 9.78125 21.628906 20.929687 21.628906 11.253906 0 21.128906-9.996093 21.128906-21.394531 0-8.699219-9.558593-14.628906-29.847656-25.203125l-.535156-.28125c-17.476562-9.109375-46.726562-24.355469-46.726562-61.691406 0-22.335938 14.71875-42.035157 35.050781-50.277344v-33.152344h40.054687v32.394531c21.023438 7.636719 36.050782 27.492188 36.050782 50.722657h-40.054688c0-7.601563-6.925781-14.019531-15.121094-14.019531-8.332031 0-15.925781 6.832031-15.925781 14.332031 0 11.160156 6.289063 16.320312 25.183594 26.171875l.539062.277344c11.128907 5.800781 22.636719 11.800781 32.035157 20.078124 12.839843 11.3125 19.351562 24.988282 19.351562 40.644532zm-60.921875-361.152344-255.640625 255.640625h115.28125v106.148437h40.054688v-146.203124h-58.632813l158.9375-158.9375 158.9375 158.9375h-58.960937v146.203124h40.054687v-106.148437h115.609375zm-140.359375 512h40.054688v-40.054688h-40.054688zm240.335938 0h40.054687v-40.054688h-40.054687zm-240.335938-70.097656h40.054688v-50.070313h-40.054688zm240.335938 0h40.054687v-50.070313h-40.054687zm0 0"/>
    </symbol>

    <symbol id="careers-why03" role="img" aria-labelledby="careers-why03_title" viewBox="0 0 512 512">
        <title id="careers-why03_title"></title>
        <path d="m512 289.738281v-67.476562l-68.195312-18.140625c-4.253907-15.398438-10.40625-30.1875-18.390626-44.191406l34.875-60.574219-47.644531-47.648438-60.574219 34.878907c-14.003906-7.984376-28.792968-14.136719-44.191406-18.390626l-18.140625-68.195312h-67.476562l-18.140625 68.195312c-15.398438 4.253907-30.1875 10.40625-44.191406 18.390626l-60.574219-34.878907-47.644531 47.648438 34.875 60.574219c-7.984376 14.003906-14.140626 28.792968-18.390626 44.191406l-68.195312 18.140625v67.476562l68.195312 18.140625c4.253907 15.398438 10.40625 30.1875 18.390626 44.191406l-34.875 60.574219 47.644531 47.644531 60.574219-34.875c14.003906 7.980469 28.792968 14.136719 44.191406 18.390626l18.140625 68.195312h67.476562l18.140625-68.195312c15.398438-4.253907 30.1875-10.40625 44.191406-18.390626l60.574219 34.875 47.648438-47.644531-34.875-60.574219c7.980469-14.003906 14.136719-28.792968 18.386719-44.1875zm-101.914062-14.28125-2.503907 12.097657c-3.914062 18.910156-11.363281 36.816406-22.140625 53.230468l-6.753906 10.289063 31.640625 54.960937-4.292969 4.292969-54.960937-31.640625-10.289063 6.753906c-16.414062 10.777344-34.324218 18.226563-53.230468 22.140625l-12.097657 2.503907-16.46875 61.914062h-5.976562l-16.46875-61.914062-12.097657-2.503907c-18.910156-3.914062-36.816406-11.363281-53.234374-22.140625l-10.289063-6.753906-54.957031 31.640625-4.292969-4.292969 31.640625-54.960937-6.753906-10.289063c-10.777344-16.414062-18.226563-34.320312-22.140625-53.230468l-2.503907-12.097657-61.914062-16.46875v-5.976562l61.914062-16.46875 2.503907-12.097657c3.914062-18.90625 11.363281-36.816406 22.140625-53.234374l6.753906-10.289063-31.644531-54.960937 4.292969-4.292969 54.960937 31.644531 10.289063-6.753906c16.417968-10.777344 34.324218-18.226563 53.234374-22.140625l12.097657-2.503907 16.46875-61.914062h5.976562l16.46875 61.914062 12.097657 2.503907c18.90625 3.914062 36.816406 11.363281 53.230468 22.140625l10.289063 6.753906 54.960937-31.644531 4.292969 4.292969-31.644531 54.960937 6.757812 10.289063c10.777344 16.417968 18.226563 34.328124 22.140625 53.234374l2.503907 12.097657 61.914062 16.46875v5.976562zm-105.269532-19.636719c7.03125-9.828124 11.183594-21.84375 11.183594-34.820312 0-33.085938-26.914062-60-60-60s-60 26.914062-60 60c0 12.976562 4.152344 24.992188 11.183594 34.820312-23.609375 15.796876-39.183594 42.703126-39.183594 73.179688h40c0-26.46875 21.53125-48 48-48s48 21.53125 48 48h40c0-30.476562-15.574219-57.382812-39.183594-73.179688zm-68.816406-34.820312c0-11.027344 8.972656-20 20-20s20 8.972656 20 20-8.972656 20-20 20-20-8.972656-20-20zm0 0"/>
    </symbol>

    <symbol id="careers-why04" role="img" aria-labelledby="careers-why04_title" viewBox="0 0 512 512">
        <title id="careers-why04_title"></title>
        <path d="m512 289.738281v-67.476562l-68.195312-18.140625c-4.253907-15.398438-10.40625-30.1875-18.390626-44.191406l34.875-60.574219-47.644531-47.648438-60.574219 34.878907c-14.003906-7.984376-28.792968-14.136719-44.191406-18.390626l-18.140625-68.195312h-67.476562l-18.140625 68.195312c-15.398438 4.253907-30.1875 10.40625-44.191406 18.390626l-60.574219-34.878907-47.644531 47.648438 34.875 60.574219c-7.984376 14.003906-14.140626 28.792968-18.390626 44.191406l-68.195312 18.140625v67.476562l68.195312 18.140625c4.253907 15.398438 10.40625 30.1875 18.390626 44.191406l-34.875 60.574219 47.644531 47.648438 60.574219-34.878907c14.003906 7.984376 28.792968 14.140626 44.191406 18.390626l18.140625 68.195312h67.476562l18.140625-68.195312c15.398438-4.253907 30.1875-10.40625 44.191406-18.390626l60.574219 34.875 47.648438-47.644531-34.875-60.574219c7.980469-14.003906 14.136719-28.792968 18.386719-44.191406zm-101.914062-14.28125-2.503907 12.097657c-3.914062 18.90625-11.363281 36.816406-22.140625 53.234374l-6.753906 10.289063 31.640625 54.957031-4.292969 4.292969-54.960937-31.644531-10.289063 6.757812c-16.414062 10.777344-34.324218 18.226563-53.230468 22.140625l-12.097657 2.503907-16.46875 61.914062h-5.976562l-16.46875-61.914062-12.097657-2.503907c-18.90625-3.914062-36.816406-11.363281-53.230468-22.140625l-10.289063-6.757812-54.960937 31.644531-4.292969-4.292969 31.640625-54.957031-6.753906-10.289063c-10.777344-16.417968-18.226563-34.324218-22.140625-53.234374l-2.503907-12.097657-61.914062-16.46875v-5.976562l61.914062-16.46875 2.503907-12.097657c3.914062-18.90625 11.363281-36.816406 22.140625-53.234374l6.753906-10.289063-31.644531-54.960937 4.292969-4.292969 54.960937 31.644531 10.289063-6.753906c16.417968-10.777344 34.324218-18.226563 53.234374-22.140625l12.097657-2.503907 16.46875-61.914062h5.976562l16.46875 61.914062 12.097657 2.503907c18.90625 3.914062 36.816406 11.363281 53.230468 22.140625l10.289063 6.753906 54.960937-31.644531 4.292969 4.292969-31.644531 54.960937 6.757812 10.289063c10.777344 16.417968 18.226563 34.328124 22.140625 53.234374l2.503907 12.097657 61.914062 16.46875v5.976562zm-93.085938 20.117188c0 16.109375-6.351562 31.410156-17.882812 43.074219-6.664063 6.742187-14.550782 11.738281-23.117188 14.78125v32.570312h-40v-32.523438c-8.53125-2.992187-16.382812-7.898437-23.019531-14.515624-11.59375-11.5625-17.980469-26.820313-17.980469-42.960938v-8h40v8c0 11.316406 9.617188 20.875 21 20.875 11.1875 0 21-9.953125 21-21.300781 0-8.722657-9.59375-14.660157-29.953125-25.230469l-.265625-.136719c-16-8.308593-45.78125-23.773437-45.78125-61.550781 0-22.757812 14.535156-42.242188 35-50.085938v-32.570312h40v32.472656c6.714844 2.511719 12.90625 6.285156 18.21875 11.21875 10.820312 10.039063 16.78125 23.644532 16.78125 38.308594v5h-40v-5c0-8.214844-7.625-13.125-15-13.125-8.269531 0-15 6.183594-15 13.78125 0 10.707031 4.980469 16.0625 24.214844 26.050781l.261718.136719c11.175782 5.800781 22.726563 11.800781 32.144532 20.074219 12.859375 11.300781 19.378906 24.976562 19.378906 40.65625zm0 0"/>
    </symbol>

    <symbol id="careers-why05" role="img" aria-labelledby="careers-why05_title" viewBox="0 0 512 512">
        <title id="careers-why05_title"></title>
        <path d="m512 274.632812-50.726562-78.910156 50.542968-80.550781-115.761718-44.746094v42.714844l58.304687 21.785156-23.210937 34.5625-35.09375-13.394531v37.027344l-140.054688 53.085937-140.054688-53.085937v-37.027344l-34.410156 13.136719-22.730468-33.367188 57.140624-21.347656v-42.71875l-115.9257808 44.4375 51.1015628 78.878906-51.121094 79.519531 49.921875 20.082032v138.785156l207.117187 78.085938 205.039063-78.136719v-138.730469zm-452.175781-19.0625 21.15625-32.90625 139.21875 52.765626-23.742188 35.105468zm392.351562 0-136.632812 54.964844-23.742188-35.105468 139.21875-52.765626zm-362.238281 55.246094 121.566406 48.90625 24.488282-36.214844v137.378907l-146.054688-55.066407zm332.125 95.058594-146.054688 55.660156v-138.027344l24.488282 36.214844 121.566406-48.90625zm-146.054688-209.800781h-40.015624v-196.074219h40.015624zm80.03125-20.007813h-40.015624v-176.066406h40.015624zm-160.0625 0h-40.015624v-176.066406h40.015624zm0 0"/>
	</symbol>

    <symbol id="careers-why06" role="img" aria-labelledby="careers-why06_title" viewBox="-41 1 511 511.999">
        <title id="careers-why06_title"></title>
        <path d="m379.074219 65.191406c-48.5-8.691406-93.167969-35.179687-115.476563-50.195312-14.574218-9.808594-31.527344-14.996094-49.023437-14.996094-17.496094 0-34.449219 5.1875-49.019531 14.996094-22.3125 15.015625-66.980469 41.503906-115.480469 50.195312-28.722657 5.148438-49.574219 30.003906-49.574219 59.097656v120.710938c0 39.875 11.15625 78.75 33.160156 115.535156 17.210938 28.78125 41.0625 56.289063 70.886719 81.757813 50.148437 42.828125 99.804687 65.15625 101.890625 66.085937l8.136719 3.621094 8.132812-3.621094c2.089844-.929687 51.746094-23.261718 101.890625-66.085937 29.824219-25.46875 53.675782-52.976563 70.886719-81.757813 22.003906-36.785156 33.160156-75.660156 33.160156-115.535156v-120.710938c.003907-29.09375-20.847656-53.949218-49.570312-59.097656zm9.558593 179.808594c0 59.449219-30.03125 115.375-89.265624 166.222656-34.433594 29.5625-69.390626 48.828125-84.792969 56.644532-15.410157-7.824219-50.363281-27.089844-84.792969-56.644532-59.234375-50.847656-89.265625-106.773437-89.265625-166.222656v-120.710938c0-9.695312 6.988281-17.984374 16.621094-19.710937 55.710937-9.984375 105.839843-39.613281 130.761719-56.386719 7.945312-5.351562 17.167968-8.175781 26.675781-8.175781 9.507812 0 18.730469 2.824219 26.679687 8.175781 24.917969 16.773438 75.046875 46.402344 130.761719 56.386719 9.628906 1.726563 16.617187 10.015625 16.617187 19.710937zm-113.039062 49.609375c0 16.117187-6.351562 31.417969-17.886719 43.085937-6.667969 6.746094-14.558593 11.746094-23.125 14.789063v32.582031h-40.015625v-32.535156c-8.53125-2.992188-16.386718-7.898438-23.027344-14.519531-11.597656-11.566407-17.984374-26.832031-17.984374-42.976563v-8.003906h40.011718v8.003906c0 11.320313 9.621094 20.882813 21.007813 20.882813 11.191406 0 21.007812-9.957031 21.007812-21.308594 0-8.730469-9.597656-14.664063-29.96875-25.242187l-.257812-.132813c-16.007813-8.3125-45.800781-23.78125-45.800781-61.574219 0-22.765625 14.542968-42.257812 35.011718-50.101562v-32.582032h40.015625v32.484376c6.714844 2.511718 12.910157 6.289062 18.226563 11.222656 10.824218 10.042968 16.785156 23.652344 16.785156 38.320312v5.003906h-40.015625v-5.003906c0-8.21875-7.628906-13.128906-15.003906-13.128906-8.273438 0-15.003907 6.1875-15.003907 13.785156 0 10.710938 4.980469 16.070313 24.222657 26.0625l.261719.132813c11.175781 5.804687 22.734374 11.804687 32.15625 20.082031 12.863281 11.304688 19.382812 24.988281 19.382812 40.671875zm0 0"/>
    </symbol>
    
</svg>