<svg xmlns="http://www.w3.org/2000/svg" xmlns:xlink="http://www.w3.org/1999/xlink">
  
    <symbol id="facebook" role="img" aria-labelledby="facebook_title" viewBox="0 0 512 512">
        <title id="facebook_title">Facebook</title>
        <path d="M314.829,135.492h70.595c11.423,0,20.682-9.26,20.682-20.682V20.682C406.107,9.26,396.848,0,385.425,0h-70.595
			c-76.282,0-138.341,62.06-138.341,138.341v49.913h-49.913c-11.422,0-20.682,9.26-20.682,20.682v94.127
			c0,11.423,9.26,20.682,20.682,20.682h49.913v167.572c0,11.423,9.26,20.682,20.682,20.682h94.127
			c11.423,0,20.682-9.259,20.682-20.682V323.746h49.913c9.49,0,17.763-6.458,20.065-15.666l23.532-94.127
			c1.544-6.179,0.156-12.725-3.763-17.744c-3.919-5.02-9.932-7.954-16.301-7.954H311.98v-49.913
			C311.98,136.77,313.258,135.492,314.829,135.492z M291.298,229.619h67.637l-13.191,52.763h-54.447
			c-11.423,0-20.682,9.259-20.682,20.682v167.572h-52.763V303.064c0-11.423-9.26-20.682-20.682-20.682h-49.913v-52.763h49.913
			c11.422,0,20.682-9.26,20.682-20.682v-70.595c0-53.473,43.503-96.977,96.977-96.977h49.913v52.763h-49.913
			c-24.38,0-44.214,19.835-44.214,44.214v70.595C270.615,220.359,279.875,229.619,291.298,229.619z"/>
    </symbol>

    <symbol id="twitter" role="img" aria-labelledby="twitter_title" viewBox="0 0 512 512">
        <title id="twitter_title">Twitter</title>
        <path d="M502.954,47.189c-7.126-4.852-16.515-4.774-23.559,0.196c-15.351,10.828-31.974,19.528-49.557,25.948
			c-19.253-17.414-43.615-27.826-69.915-29.656c-31.056-2.16-61.081,7.9-84.561,28.326c-25.59,22.259-40.174,54.444-40.046,88.349
			c-85.248-7.609-139.14-61.55-177.09-108.986c-4.598-5.746-11.901-8.619-19.182-7.538c-7.279,1.078-13.438,5.944-16.171,12.777
			c-0.948,2.369-23.141,58.799-17.453,127.057c4.761,57.133,30.23,131.964,120.039,181.717
			c-32.436,14.756-68.282,21.939-103.953,20.519c-9.576-0.378-18.15,5.859-20.736,15.08c-2.587,9.221,1.497,19.013,9.869,23.665
			c51.359,28.532,108.03,43.736,163.889,43.965c0.432,0.002,0.861,0.003,1.294,0.003c54.105-0.001,106.379-13.938,151.246-40.336
			c42.898-25.241,78.416-61.759,102.715-105.603c26.162-47.206,39.427-101.75,39.427-162.186c-0.011-3.544-0.186-7.098-0.52-10.638
			c20.7-22.885,35.388-50.567,42.719-80.667C513.451,60.803,510.081,52.04,502.954,47.189z M432.297,128.07
			c-4.916,4.847-7.088,11.827-5.793,18.607c0.877,4.588,1.329,9.278,1.344,13.874c0,101.956-44.378,186.544-121.756,232.072
			c-60.586,35.649-133.037,43.933-203.609,25.057c0.729-0.201,1.459-0.407,2.185-0.615c27.596-7.885,53.63-20.055,77.377-36.174
			c6.329-4.296,9.77-11.734,8.946-19.34c-0.825-7.605-5.778-14.134-12.881-16.975C97.757,312.434,53.563,257.594,46.757,181.575
			c-2.536-28.334,0.707-54.721,4.766-74.501c16.638,17.909,37.384,37.227,62.129,53.407c42.771,27.966,90.663,42.146,142.346,42.146
			c11.423,0,20.682-9.26,20.682-20.682v-21.393c0-0.045,0-0.091,0-0.137c-0.146-21.948,9.268-42.797,25.829-57.202
			c15.146-13.175,34.51-19.665,54.543-18.27c20.026,1.393,38.311,10.502,51.487,25.648c5.339,6.138,13.783,8.577,21.567,6.229
			c5.725-1.724,11.375-3.645,16.941-5.757C442.599,117.081,437.672,122.769,432.297,128.07z"/>
    </symbol>

    <symbol id="instagram" role="img" aria-labelledby="instagram_title" viewBox="0 0 169.063 169.063">
        <title id="instagram_title">Instagram</title>
        <path d="M122.406,0H46.654C20.929,0,0,20.93,0,46.655v75.752c0,25.726,20.929,46.655,46.654,46.655h75.752
			c25.727,0,46.656-20.93,46.656-46.655V46.655C169.063,20.93,148.133,0,122.406,0z M154.063,122.407
			c0,17.455-14.201,31.655-31.656,31.655H46.654C29.2,154.063,15,139.862,15,122.407V46.655C15,29.201,29.2,15,46.654,15h75.752
			c17.455,0,31.656,14.201,31.656,31.655V122.407z"/>
		<path d="M84.531,40.97c-24.021,0-43.563,19.542-43.563,43.563c0,24.02,19.542,43.561,43.563,43.561s43.563-19.541,43.563-43.561
			C128.094,60.512,108.552,40.97,84.531,40.97z M84.531,113.093c-15.749,0-28.563-12.812-28.563-28.561
			c0-15.75,12.813-28.563,28.563-28.563s28.563,12.813,28.563,28.563C113.094,100.281,100.28,113.093,84.531,113.093z"/>
		<path d="M129.921,28.251c-2.89,0-5.729,1.17-7.77,3.22c-2.051,2.04-3.23,4.88-3.23,7.78c0,2.891,1.18,5.73,3.23,7.78
			c2.04,2.04,4.88,3.22,7.77,3.22c2.9,0,5.73-1.18,7.78-3.22c2.05-2.05,3.22-4.89,3.22-7.78c0-2.9-1.17-5.74-3.22-7.78
			C135.661,29.421,132.821,28.251,129.921,28.251z"/>
    </symbol>

    <symbol id="faq01" role="img" aria-labelledby="faq01_title" viewBox="0 0 496 496">
        <title id="faq01_title"></title>		<path d="M144.84,107.576l14.312-7.16L129.888,41.88c-1.232-2.464-1.888-5.232-1.888-7.992
			C128,24.024,136.024,16,146.144,16c6,0,11.56,2.976,14.88,7.968l3.88,5.816C169.168,36.176,176.312,40,184,40
			s14.832-3.824,19.096-10.216l7.128-10.688c2.584-3.872,8.976-3.872,11.56,0l7.128,10.688C233.168,36.176,240.312,40,248,40
			c7.688,0,14.832-3.824,19.096-10.216l7.128-10.688c2.584-3.872,8.976-3.872,11.56,0l7.128,10.688C297.168,36.176,304.312,40,312,40
			s14.832-3.824,19.096-10.216l3.88-5.816c3.32-4.992,8.88-7.968,15.136-7.968C359.976,16,368,24.024,368,33.888
			c0,2.76-0.656,5.528-1.888,8l-29.264,58.536l14.312,7.16l29.264-58.536C382.76,44.36,384,39.12,384,33.888
			C384,15.2,368.8,0,349.856,0c-11.36,0-21.896,5.64-28.192,15.088l-3.88,5.816c-2.584,3.872-8.976,3.872-11.56,0l-7.128-10.688
			C294.832,3.824,287.688,0,280,0s-14.832,3.824-19.096,10.216l-7.128,10.688c-2.584,3.872-8.976,3.872-11.56,0l-7.128-10.688
			C230.832,3.824,223.688,0,216,0s-14.832,3.824-19.096,10.216l-7.128,10.688c-2.584,3.872-8.976,3.872-11.56,0l-3.88-5.816
			C168.04,5.64,157.504,0,145.888,0C127.2,0,112,15.2,112,33.888c0,5.232,1.24,10.472,3.576,15.16L144.84,107.576z"/>
		<path d="M338.232,194.456C313.32,172.264,281.64,160,248,160c-74.992,0-136,61.008-136,136
			c0,33.64,12.264,65.32,34.456,90.232l-24.112,24.112l11.312,11.312l63.888-63.888C204.616,364.056,213.816,368,224,368h16v16h16
			v-16h16c22.056,0,40-17.944,40-40s-17.944-40-40-40h-4.688l28.256-28.256c0.248,1.384,0.432,2.8,0.432,4.256v8h16v-8
			c0-6.032-1.44-11.704-3.848-16.84l65.504-65.504l-11.312-11.312L338.232,194.456z M128,296c0-66.168,53.832-120,120-120
			c29.368,0,57.048,10.584,78.92,29.768l-28.464,28.464C291.384,227.944,282.184,224,272,224h-16v-16h-16v16h-16
			c-22.056,0-40,17.944-40,40s17.944,40,40,40h4.688l-28.256,28.256c-0.248-1.384-0.432-2.8-0.432-4.256v-8h-16v8
			c0,6.032,1.44,11.704,3.848,16.84l-30.08,30.08C138.584,353.048,128,325.368,128,296z M272,304c13.232,0,24,10.768,24,24
			s-10.768,24-24,24h-48c-5.776,0-11-2.128-15.152-5.536L251.312,304H272z M224,288c-13.232,0-24-10.768-24-24s10.768-24,24-24h48
			c5.776,0,11,2.128,15.152,5.536L244.688,288H224z"/>
		<path d="M248,416c-24.576,0-48.256-7.448-68.464-21.52l-9.152,13.128C193.296,423.56,220.136,432,248,432
			c74.992,0,136-61.008,136-136c0-27.864-8.44-54.704-24.4-77.616l-13.128,9.152C360.56,247.744,368,271.424,368,296
			C368,362.168,314.168,416,248,416z"/>
		<path d="M376.528,142.88l-10.288,12.248C408.032,190.232,432,241.576,432,296c0,101.464-82.544,184-184,184
			S64,397.464,64,296c0-54.424,23.968-105.768,65.76-140.872l-10.288-12.248C74.048,181.024,48,236.832,48,296
			c0,110.28,89.72,200,200,200s200-89.72,200-200C448,236.832,421.952,181.024,376.528,142.88z"/>
		<path d="M344,144H152c-13.232,0-24-10.768-24-24s10.768-24,24-24h192c13.232,0,24,10.768,24,24
		S357.232,144,344,144z M152,112c-4.408,0-8,3.592-8,8c0,4.408,3.592,8,8,8h192c4.408,0,8-3.592,8-8s-3.592-8-8-8H152z"/>
    </symbol>

    <symbol id="faq11" role="img" aria-labelledby="faq01_title" viewBox="0 0 496 496">
        <title id="faq11_title"></title>
        <circle cx="248" cy="296" r="136"/>
    </symbol>

    <symbol id="faq02" role="img" aria-labelledby="faq02_title" viewBox="0 0 496 496">
        <title id="faq02_title"></title>
	    <path d="M248,424c-5.976,0-12.032-0.304-18-0.904l1.608-15.92C237.048,407.72,242.56,408,248,408
			c88.224,0,160-71.776,160-160c0-46.952-20.6-91.384-56.512-121.904l10.36-12.184C401.344,147.472,424,196.344,424,248
			C424,345.048,345.048,424,248,424z"/>
		<path d="M134.16,382.096C94.656,348.528,72,299.656,72,248c0-97.048,78.952-176,176-176
			c5.976,0,12.032,0.304,18,0.904l-1.608,15.92C258.952,88.28,253.44,88,248,88c-88.224,0-160,71.776-160,160
			c0,46.952,20.6,91.384,56.512,121.904L134.16,382.096z"/>
		<path d="M312,224v-20c0-28.672-23.328-52-52-52h-4v-32h-16v32h-4c-28.672,0-52,23.328-52,52s23.328,52,52,52
			h24c19.848,0,36,16.152,36,36s-16.152,36-36,36h-24c-19.848,0-36-16.152-36-36v-20h-16v20c0,28.672,23.328,52,52,52h4v32h16v-32h4
			c28.672,0,52-23.328,52-52s-23.328-52-52-52h-24c-19.848,0-36-16.152-36-36s16.152-36,36-36h24c19.848,0,36,16.152,36,36v20H312z"
			/>
		<rect x="480" y="72" width="16" height="16"/>
		<rect x="344" y="72" width="120" height="16"/>
		<rect x="16" y="408" width="16" height="16"/>
		<rect x="48" y="408" width="120" height="16"/>
		<path d="M352,272c-13.232,0-24-10.768-24-24s10.768-24,24-24s24,10.768,24,24S365.232,272,352,272z M352,240
		c-4.408,0-8,3.584-8,8c0,4.416,3.592,8,8,8s8-3.584,8-8S356.408,240,352,240z"/>
		<path d="M144,272c-13.232,0-24-10.768-24-24s10.768-24,24-24s24,10.768,24,24S157.232,272,144,272z M144,240
		c-4.408,0-8,3.584-8,8c0,4.416,3.592,8,8,8s8-3.584,8-8S148.408,240,144,240z"/>
		<rect x="40" y="40" width="16" height="24"/>
		<rect x="14.539" y="50.546" transform="matrix(-0.707 0.7072 -0.7072 -0.707 82.7077 90.8263)" width="16" height="24"/>
		<rect y="80" width="24" height="16"/>
		<rect x="10.543" y="105.452" transform="matrix(-0.7071 0.7071 -0.7071 -0.7071 118.7062 177.734)" width="24" height="16"/>		
		<rect x="40" y="112" width="16" height="24"/>
		<rect x="65.459" y="101.448" transform="matrix(-0.707 0.7072 -0.7072 -0.707 205.6261 141.7052)" width="16" height="24"/>
		<rect x="72" y="80" width="24" height="16"/>
		<rect x="61.455" y="54.548" transform="matrix(-0.7071 0.7071 -0.7071 -0.7071 169.6241 54.8357)" width="24" height="16"/>
		<rect x="440" y="328" width="16" height="24"/>
		<rect x="414.544" y="338.541" transform="matrix(-0.707 0.7072 -0.7072 -0.707 969.191 299.55)" width="16" height="24"/>
		<rect x="400" y="368" width="24" height="16"/>
		<rect x="410.54" y="393.466" transform="matrix(-0.7071 0.7071 -0.7071 -0.7071 1005.2003 386.5645)" width="24" height="16"/>
		<rect x="440" y="400" width="16" height="24"/>
		<rect x="465.441" y="389.411" transform="matrix(-0.707 0.7072 -0.7072 -0.707 1092.0482 350.3904)" width="16" height="24"/>
		<rect x="472" y="368" width="24" height="16"/>
		<rect x="461.484" y="342.545" transform="matrix(-0.7071 0.7071 -0.7071 -0.7071 1056.1604 263.6139)" width="24" height="16"/>
		<rect x="280" y="448" width="16" height="16"/>
		<rect x="280" y="480" width="16" height="16"/>
		<rect x="296" y="464" width="16" height="16"/>
		<rect x="264" y="464" width="16" height="16"/>
		<rect x="168" width="16" height="16"/>
		<rect x="168" y="32" width="16" height="16"/>
		<rect x="184" y="16" width="16" height="16"/>
		<rect x="152" y="16" width="16" height="16"/>
    </symbol>

    <symbol id="faq21" role="img" aria-labelledby="faq21_title" viewBox="0 0 496 496">
        <title id="faq21_title"></title>
        <polygon points="352,24 352,0 256,80 352,160 352,136 496,136 496,24 "/>
        <polygon points="160,472 160,496 256,416 160,336 160,360 16,360 16,472 "/>
        <circle cx="48" cy="88" r="32"/>
        <circle cx="448" cy="376" r="32"/>
    </symbol>

    <symbol id="faq03" role="img" aria-labelledby="faq03_title" viewBox="0 0 496 496">
        <title id="faq03_title"></title>
		<path d="M224,391.784c0,14.264-4.176,28.08-12.096,39.936L192,461.576V496h16v-29.576l17.216-25.832
			C234.888,426.104,240,409.216,240,391.784V352h-16V391.784z"/>
		<rect x="128" y="264" width="16" height="32"/>
		<path d="M79.216,346.664L67.504,276.4c-1.92-11.52-9.464-20.72-19.504-25.272V192c0-8.824,7.176-16,16-16
			s16,7.176,16,16v104h16V192v-16c0-8.824,7.176-16,16-16s16,7.176,16,16h16c0-17.648-14.352-32-32-32
			c-13.952,0-25.712,9.024-30.088,21.496C76.8,162.032,70.632,160,64,160c-17.648,0-32,14.352-32,32v56.2
			c-17.8,1.048-32,15.72-32,33.784v61.856c0,6.664,1.688,13.288,4.88,19.152L48,442.04V496h16v-58.04l-45.072-82.624
			C17.016,351.824,16,347.84,16,343.84v-61.856C16,272.072,24.072,264,33.984,264c8.832,0,16.288,6.32,17.744,15.024l13.056,78.312
			l48.92,24.464l14.864,37.168l14.856-5.936L126.288,370.2L79.216,346.664z"/>
		<path d="M272,112.216c0-14.264,4.176-28.08,12.096-39.936L304,42.424V0h-16v37.576l-17.216,25.832
			C261.112,77.896,256,94.784,256,112.216V168h16V112.216z"/>
		<path d="M491.12,141.008L448,61.96V0h-16v66.04l45.072,82.624c1.912,3.512,2.928,7.496,2.928,11.496v61.856
			c0,9.912-8.072,17.984-17.984,17.984c-8.832,0-16.288-6.32-17.744-15.024l-13.056-78.312l-48.92-24.464l-14.864-37.168
			l-14.856,5.936l17.136,42.832l47.08,23.536l11.712,70.264c1.92,11.52,9.464,20.72,19.504,25.272V312c0,8.824-7.176,16-16,16
			s-16-7.176-16-16V208h-16v104v16c0,8.824-7.176,16-16,16s-16-7.176-16-16v-16v-48h-16v48c0,8.824-7.176,16-16,16s-16-7.176-16-16
			h-16c0,17.648,14.352,32,32,32c6.632,0,12.8-2.032,17.912-5.496C358.288,350.976,370.048,360,384,360s25.712-9.024,30.088-21.496
			C419.2,341.968,425.368,344,432,344c17.648,0,32-14.352,32-32v-56.2c17.8-1.048,32-15.72,32-33.784V160.16
			C496,153.496,494.312,146.864,491.12,141.008z"/>
		<path d="M213.072,284.504L168.168,239.6c-5.272-5.272-8.168-12.272-8.168-19.72
			c0-15.376,12.504-27.88,27.88-27.88v-16c-24.192,0-43.88,19.688-43.88,43.88c0,11.712,4.56,22.736,12.848,31.032l44.904,44.904
			L213.072,284.504z"/>
		<rect x="216.003" y="298.731" transform="matrix(-0.7071 0.7071 -0.7071 -0.7071 599.3162 365.2969)" width="16" height="16.08"/>
		<rect x="208" y="80" width="16" height="16"/>
		<rect x="208" y="112" width="16" height="16"/>
		<rect x="224" y="96" width="16" height="16"/>
		<rect x="192" y="96" width="16" height="16"/>
		<rect x="272" y="376" width="16" height="16"/>
		<rect x="272" y="408" width="16" height="16"/>
		<rect x="288" y="392" width="16" height="16"/>
		<rect x="256" y="392" width="16" height="16"/>
		<rect x="296" y="192" width="16" height="16"/>
		<rect x="296" y="224" width="16" height="16"/>
		<rect x="312" y="208" width="16" height="16"/>
		<rect x="280" y="208" width="16" height="16"/>
    </symbol>

    <symbol id="faq31" role="img" aria-labelledby="faq31_title" viewBox="0 0 496 496">
        <title id="faq31_title"></title>
        <path d="M248,360c-17.616,0-34.168-6.856-46.624-19.312l-67.152-67.152
			C119.888,259.208,112,240.152,112,219.88c0-41.84,34.04-75.88,75.88-75.88c20.264,0,39.328,7.888,53.656,22.224l6.464,6.464
			l6.464-6.464C268.792,151.888,287.848,144,308.12,144c41.84,0,75.88,34.04,75.88,75.88c0,20.264-7.888,39.328-22.224,53.656
			l-67.152,67.152C282.168,353.144,265.616,360,248,360z"/>
    </symbol>

    <symbol id="faq04" role="img" aria-labelledby="faq04_title" viewBox="0 0 496 496">
        <title id="faq04_title"></title>
		<path d="m496 328c0-28.527344-11.328125-55.144531-31.878906-74.9375-9.472656-9.117188-20.367188-16.109375-32.121094-21v-184.0625h-32v-48h-136c-20.382812 0-38.199219 10.984375-48 27.304688-9.800781-16.320313-27.617188-27.304688-48-27.304688h-136v48h-32v288h176.808594c3.710937 18.230469 19.878906 32 39.191406 32s35.480469-13.769531 39.191406-32h33.265625c2.152344 28.34375 15.589844 54.207031 37.605469 72.214844-3.726562 4.234375-6.0625 9.722656-6.0625 15.785156 0 10.574219 6.921875 19.472656 16.433594 22.664062 3.308594 27.742188 26.941406 49.335938 55.566406 49.335938s52.257812-21.59375 55.566406-49.335938c9.511719-3.191406 16.433594-12.089843 16.433594-22.664062 0-6.0625-2.335938-11.542969-6.054688-15.769531 23.992188-19.664063 38.054688-48.839844 38.054688-80.230469zm-80-264v162.894531c-5.230469-1.230469-10.558594-2.101562-16-2.519531v-160.375zm-368-48h120c22.054688 0 40 17.945312 40 40v28.265625l4.359375 2.582031c3.769531-1.984375 7.664063-3.742187 11.640625-5.351562v-25.496094c0-22.054688 17.945312-40 40-40h120v208.425781c-39 3.054688-72.71875 28.734375-87.695312 63.574219h-248.304688zm192 304v8c0 13.230469-10.769531 24-24 24s-24-10.769531-24-24v-8h-176v-256h16v240h258.96875c-1.28125 5.207031-2.105469 10.550781-2.535156 16zm64.023438 5.9375c1.046874-45.609375 38.960937-84.128906 84.519531-85.867188 24.226562-.925781 47.089843 7.792969 64.472656 24.53125 17.398437 16.734376 26.984375 39.253907 26.984375 63.398438 0 28.992188-14.230469 55.703125-38.054688 72.199219-.65625-.054688-1.28125-.199219-1.945312-.199219h-24v-56h12c15.441406 0 28-12.558594 28-28s-12.558594-28-28-28-28 12.558594-28 28v12h-16v-12c0-15.441406-12.558594-28-28-28s-28 12.558594-28 28 12.558594 28 28 28h12v56h-24c-.664062 0-1.289062.144531-1.9375.191406-24.496094-16.933594-38.71875-44.421875-38.039062-74.253906zm63.976562 2.0625h-12c-6.617188 0-12-5.382812-12-12s5.382812-12 12-12 12 5.382812 12 12zm32 72h-16v-56h16zm16-72v-12c0-6.617188 5.382812-12 12-12s12 5.382812 12 12-5.382812 12-12 12zm-24 152c-19.3125 0-35.472656-13.769531-39.191406-32h78.382812c-3.71875 18.230469-19.878906 32-39.191406 32zm48-48h-96c-4.40625 0-8-3.59375-8-8s3.59375-8 8-8h96c4.40625 0 8 3.59375 8 8s-3.59375 8-8 8zm0 0"/>
		<path d="m218.472656 279.695312 8.925782-13.269531c-22.167969-14.914062-35.398438-39.746093-35.398438-66.425781 0-44.113281 35.886719-80 80-80s80 35.886719 80 80c0 2.449219-.113281 4.863281-.328125 7.257812l15.9375 1.421876c.253906-2.855469.390625-5.75.390625-8.679688 0-52.9375-43.0625-96-96-96s-96 43.0625-96 96c0 32.015625 15.878906 61.808594 42.472656 79.695312zm0 0"/>
		<path d="m272 136c-35.289062 0-64 28.710938-64 64s28.710938 64 64 64 64-28.710938 64-64-28.710938-64-64-64zm0 112c-26.472656 0-48-21.527344-48-48s21.527344-48 48-48 48 21.527344 48 48-21.527344 48-48 48zm0 0"/>
		<path d="m64 32h112v16h-112zm0 0"/>
		<path d="m64 64h80v16h-80zm0 0"/>
		<path d="m64 96h64v16h-64zm0 0"/>
    </symbol>

    <symbol id="faq41" role="img" aria-labelledby="faq41_title" viewBox="0 0 496 496">
        <title id="faq41_title"></title>
        <path d="m464 328c0 39.765625-32.234375 72-72 72s-72-32.234375-72-72 32.234375-72 72-72 72 32.234375 72 72zm0 0"/>
        <path d="m358.144531 71.144531-26.496093 15.703125c-6.921876-3.648437-14.222657-6.671875-21.792969-9.007812l-7.648438-29.839844h-60.421875l-7.640625 29.832031c-7.558593 2.335938-14.863281 5.359375-21.792969 9.007813l-26.480468-15.6875-42.726563 42.726562 15.6875 26.480469c-3.648437 6.921875-6.671875 14.226563-9.007812 21.792969l-29.824219 7.640625v60.421875l29.832031 7.640625c2.335938 7.558593 5.359375 14.863281 9.007813 21.792969l-15.6875 26.480468 1.886718 1.871094h159.777344c14.121094-30.71875 43.917969-52.679688 79.183594-55.601562v-135.175782zm-86.144531 184.855469c-30.929688 0-56-25.070312-56-56s25.070312-56 56-56 56 25.070312 56 56-25.070312 56-56 56zm0 0"/>
    </symbol>

    <symbol id="quote" role="img" aria-labelledby="quote_title" viewBox="0 0 298.667 298.667">
    	<title id="quote_title"></title>
        <polygon points="0,170.667 64,170.667 21.333,256 85.333,256 128,170.667 128,42.667 0,42.667 			"/>
		<polygon points="170.667,42.667 170.667,170.667 234.667,170.667 192,256 256,256 298.667,170.667 298.667,42.667 			"/>
    </symbol>

    <symbol id="footer-facebook" role="img" aria-labelledby="footer-facebook_title" viewBox="0 0 512 512">
        <title id="footer-facebook_title">Facebook</title>
        <path d="M296.296,512H200.36V256h-64v-88.225l64-0.029l-0.104-51.976C200.256,43.794,219.773,0,304.556,0h70.588v88.242h-44.115
		c-33.016,0-34.604,12.328-34.604,35.342l-0.131,44.162h79.346l-9.354,88.225L296.36,256L296.296,512z"/>
    </symbol>

    <symbol id="footer-twitter" role="img" aria-labelledby="footer-twitter_title" viewBox="0 0 512.002 512.002">
        <title id="footer-twitter_title">Twitter</title>
        <path d="M512.002,97.211c-18.84,8.354-39.082,14.001-60.33,16.54c21.686-13,38.342-33.585,46.186-58.115
		c-20.299,12.039-42.777,20.78-66.705,25.49c-19.16-20.415-46.461-33.17-76.674-33.17c-58.011,0-105.042,47.029-105.042,105.039
		c0,8.233,0.929,16.25,2.72,23.939c-87.3-4.382-164.701-46.2-216.509-109.753c-9.042,15.514-14.223,33.558-14.223,52.809
		c0,36.444,18.544,68.596,46.73,87.433c-17.219-0.546-33.416-5.271-47.577-13.139c-0.01,0.438-0.01,0.878-0.01,1.321
		c0,50.894,36.209,93.348,84.261,103c-8.813,2.399-18.094,3.687-27.674,3.687c-6.769,0-13.349-0.66-19.764-1.888
		c13.368,41.73,52.16,72.104,98.126,72.949c-35.95,28.176-81.243,44.967-130.458,44.967c-8.479,0-16.84-0.496-25.058-1.471
		c46.486,29.807,101.701,47.197,161.021,47.197c193.211,0,298.868-160.062,298.868-298.872c0-4.554-0.104-9.084-0.305-13.59
		C480.111,136.775,497.92,118.275,512.002,97.211z"/>
    </symbol>

    <symbol id="footer-instagram" role="img" aria-labelledby="footer-instagram_title" viewBox="0 0 97.395 97.395">
        <title id="footer-instagram_title">Instagram</title>
        <path d="M12.501,0h72.393c6.875,0,12.5,5.09,12.5,12.5v72.395c0,7.41-5.625,12.5-12.5,12.5H12.501C5.624,97.395,0,92.305,0,84.895
		V12.5C0,5.09,5.624,0,12.501,0L12.501,0z M70.948,10.821c-2.412,0-4.383,1.972-4.383,4.385v10.495c0,2.412,1.971,4.385,4.383,4.385
		h11.008c2.412,0,4.385-1.973,4.385-4.385V15.206c0-2.413-1.973-4.385-4.385-4.385H70.948L70.948,10.821z M86.387,41.188h-8.572
		c0.811,2.648,1.25,5.453,1.25,8.355c0,16.2-13.556,29.332-30.275,29.332c-16.718,0-30.272-13.132-30.272-29.332
		c0-2.904,0.438-5.708,1.25-8.355h-8.945v41.141c0,2.129,1.742,3.872,3.872,3.872h67.822c2.13,0,3.872-1.742,3.872-3.872V41.188
		H86.387z M48.789,29.533c-10.802,0-19.56,8.485-19.56,18.953c0,10.468,8.758,18.953,19.56,18.953
		c10.803,0,19.562-8.485,19.562-18.953C68.351,38.018,59.593,29.533,48.789,29.533z"/>
    </symbol>

    <symbol id="footer-linkedin" role="img" aria-labelledby="footer-linkedin_title" viewBox="0 0 93.06 93.06">
        <title id="footer-linkedin_title">Linkedin</title>
        <path d="M11.185,0.08C5.004,0.08,0.001,5.092,0,11.259c0,6.173,5.003,11.184,11.186,11.184c6.166,0,11.176-5.011,11.176-11.184
			C22.362,5.091,17.351,0.08,11.185,0.08z"/>
		<rect x="1.538" y="30.926" width="19.287" height="62.054"/>
		<path d="M69.925,29.383c-9.382,0-15.673,5.144-18.248,10.022h-0.258v-8.479H32.921H32.92v62.053h19.27V62.281
			c0-8.093,1.541-15.932,11.575-15.932c9.89,0,10.022,9.256,10.022,16.451v30.178H93.06V58.942
			C93.06,42.235,89.455,29.383,69.925,29.383z"/>
    </symbol>

    <symbol id="footer-google" role="img" aria-labelledby="footer-google_title" viewBox="0 90 320 320">
        <title id="footer-google_title">Google</title>
		<path d="M160,224v64h90.528c-13.216,37.248-48.8,64-90.528,64c-52.928,0-96-43.072-96-96c0-52.928,43.072-96,96-96
			c22.944,0,45.024,8.224,62.176,23.168l42.048-48.256C235.424,109.824,198.432,96,160,96C71.776,96,0,167.776,0,256
			s71.776,160,160,160s160-71.776,160-160v-32H160z"/>
    </symbol>

    <symbol id="footer-phone" role="img" aria-labelledby="footer-phone_title" viewBox="0 0 504.375 504.375">
        <title id="footer-phone_title"></title>
        <path d="M443.292,157.799l29.392-12.656c-4.539-10.491-9.81-20.65-15.776-30.4l-27.296,16.704
			C434.791,139.895,439.363,148.701,443.292,157.799z"/>
		<path d="M412.332,107.239l24.64-20.4c-7.294-8.803-15.208-17.075-23.68-24.752l-21.488,23.776
			C399.142,92.495,406.002,99.638,412.332,107.239z"/>
		<path d="M483.948,177.527l-30.896,8.304c29.815,111.067-36.053,225.274-147.12,255.088c-17.533,4.707-35.606,7.1-53.76,7.12
			c-31.242-0.006-62.073-7.119-90.16-20.8l-5.936-2.864l-90.928,31.328l19.584-92.192l-3.904-5.68
			C15.804,263.13,39.862,133.648,134.563,68.624c70.356-48.308,163.081-48.736,233.88-1.081l17.904-26.528
			C276.438-33.072,127.279-4.032,53.192,105.878c-53.686,79.645-54.717,183.627-2.62,264.32l-28.48,134.176l132.08-45.472
			c30.788,13.948,64.201,21.154,98,21.136c132.654-0.105,240.107-107.728,240.002-240.382
			C492.157,218.676,489.391,197.788,483.948,177.527z"/>
		<path d="M256.06,168.279l-79.2-79.2l-45.264,45.264c-31.188,31.264-31.188,81.872,0,113.136l113.152,113.12
			c31.24,31.231,81.88,31.231,113.12,0l45.28-45.248l-79.216-79.184l-22.624,22.624c-6.248,6.246-16.376,6.246-22.624,0
			l-45.264-45.264c-6.246-6.248-6.246-16.376,0-22.624L256.06,168.279z M256.06,281.415c18.744,18.738,49.128,18.738,67.872,0
			l33.936,33.936l-22.624,22.624c-18.993,18.127-48.879,18.127-67.872,0L154.22,224.855c-18.705-18.764-18.705-49.124,0-67.888
			l22.64-22.624l33.936,33.936c-18.738,18.744-18.738,49.128,0,67.872L256.06,281.415z"/>
    </symbol>    

	<symbol id="footer-mail" role="img" aria-labelledby="footer-mail_title" viewBox="0 0 512 512">
        <title id="footer-mail_title"></title>
        <path d="M368,34.072v32h75.2L256,190.872L68.8,66.072H208v-32H0v320h112v123.856l212.336-123.856H512v-320H368z M32,79.96
			l125.504,83.712L32,297.592V79.96z M315.664,322.072L144,422.216V322.072H52.912L184.48,181.624L256,229.272l71.52-47.68
			l131.568,140.48H315.664z M480,297.592l-125.504-133.92L480,79.96V297.592z"/>
		<rect x="304" y="34.072" width="32" height="32"/>
		<rect x="240" y="34.072" width="32" height="32"/>
    </symbol>

    <symbol id="footer-location" role="img" aria-labelledby="footer-location_title" viewBox="0 0 496.261 496.261">
        <title id="footer-location_title"></title>
        <path d="M248.118,79.989c-61.856,0-112,50.144-112,112s50.144,112,112,112s112-50.144,112-112
			C360.047,130.162,309.944,80.059,248.118,79.989z M248.118,271.989c-44.183,0-80-35.817-80-80s35.817-80,80-80s80,35.817,80,80
			C328.065,236.15,292.279,271.936,248.118,271.989z"/>
		<path d="M404.47,157.861l31.296-6.768c-2.479-11.382-5.987-22.516-10.48-33.264l-29.52,12.368
			C399.515,139.129,402.429,148.39,404.47,157.861z"/>
		<path d="M440.006,185.669l-32,1.024c0,1.76,0,3.536,0,5.296c-0.064,66.875-41.689,126.664-104.384,149.936l-5.488,2.016
			l-50.016,87.776l-50.128-87.728l-5.488-2.016c-82.839-30.76-125.057-122.85-94.297-205.689s122.85-125.057,205.689-94.297
			c13.691,5.084,26.622,12.018,38.432,20.61l18.832-25.808C275.429-25.62,155.341-6.716,92.932,79.012
			s-43.505,205.817,42.224,268.226c12.618,9.186,26.309,16.799,40.771,22.671l72.192,126.352l72.192-126.4
			c72.367-29.44,119.722-99.746,119.808-177.872C440.118,189.877,440.118,187.765,440.006,185.669z"/>
		<path d="M408.966,87.029c-6.389-9.73-13.634-18.87-21.648-27.312l-23.184,22.032c6.691,7.04,12.732,14.671,18.048,22.8
			L408.966,87.029z"/>
    </symbol>

    <symbol id="footer-location" role="img" aria-labelledby="footer-location_title" viewBox="0 0 496.261 496.261">
        <title id="footer-location_title"></title>
        <path d="M248.118,79.989c-61.856,0-112,50.144-112,112s50.144,112,112,112s112-50.144,112-112
			C360.047,130.162,309.944,80.059,248.118,79.989z M248.118,271.989c-44.183,0-80-35.817-80-80s35.817-80,80-80s80,35.817,80,80
			C328.065,236.15,292.279,271.936,248.118,271.989z"/>
		<path d="M404.47,157.861l31.296-6.768c-2.479-11.382-5.987-22.516-10.48-33.264l-29.52,12.368
			C399.515,139.129,402.429,148.39,404.47,157.861z"/>
		<path d="M440.006,185.669l-32,1.024c0,1.76,0,3.536,0,5.296c-0.064,66.875-41.689,126.664-104.384,149.936l-5.488,2.016
			l-50.016,87.776l-50.128-87.728l-5.488-2.016c-82.839-30.76-125.057-122.85-94.297-205.689s122.85-125.057,205.689-94.297
			c13.691,5.084,26.622,12.018,38.432,20.61l18.832-25.808C275.429-25.62,155.341-6.716,92.932,79.012
			s-43.505,205.817,42.224,268.226c12.618,9.186,26.309,16.799,40.771,22.671l72.192,126.352l72.192-126.4
			c72.367-29.44,119.722-99.746,119.808-177.872C440.118,189.877,440.118,187.765,440.006,185.669z"/>
		<path d="M408.966,87.029c-6.389-9.73-13.634-18.87-21.648-27.312l-23.184,22.032c6.691,7.04,12.732,14.671,18.048,22.8
			L408.966,87.029z"/>
    </symbol>

</svg>