<svg xmlns="http://www.w3.org/2000/svg" xmlns:xlink="http://www.w3.org/1999/xlink">

	<symbol id="header-loupe" role="img" aria-labelledby="header-loupe_title" viewBox="0 0 118.783 118.783">
        <title id="header-loupe_title"></title>
        <path d="M115.97,101.597L88.661,74.286c4.64-7.387,7.333-16.118,7.333-25.488c0-26.509-21.49-47.996-47.998-47.996
		S0,22.289,0,48.798c0,26.51,21.487,47.995,47.996,47.995c10.197,0,19.642-3.188,27.414-8.605l26.984,26.986
		c1.875,1.873,4.333,2.806,6.788,2.806c2.458,0,4.913-0.933,6.791-2.806C119.72,111.423,119.72,105.347,115.97,101.597z
		 M47.996,81.243c-17.917,0-32.443-14.525-32.443-32.443s14.526-32.444,32.443-32.444c17.918,0,32.443,14.526,32.443,32.444
		S65.914,81.243,47.996,81.243z"/>
    </symbol>

	<symbol id="header-account" role="img" aria-labelledby="header-account_title" viewBox="0 0 509.889 509.889">
        <title id="header-account_title"></title>
        <path d="M256.013,509.889c-54.516,0-106.895-17.103-151.791-50.241
			C40.086,411.546,0.534,335.65,0.534,254.41C0.534,114.378,114.912,0,254.944,0s254.41,114.378,254.41,254.41
			c0,80.171-38.482,157.136-103.688,205.238C363.977,491.717,310.53,509.889,256.013,509.889z M123.464,433.994
			c38.482,28.862,84.447,43.827,132.55,43.827s94.068-14.965,132.55-43.827c57.723-42.758,89.792-107.964,89.792-178.515
			c0-122.929-99.412-222.342-222.342-222.342S33.672,132.55,33.672,255.479C33.672,326.03,65.74,391.236,123.464,433.994z"/>
		<path d="M256.013,261.893c-43.827,0-80.171-45.965-80.171-101.55c0-53.447,33.137-90.861,80.171-90.861
			s80.171,37.413,80.171,90.861C336.185,215.928,299.84,261.893,256.013,261.893z M256.013,101.55
			c-28.862,0-48.103,23.517-48.103,58.792c0,37.413,22.448,69.482,48.103,69.482s48.103-32.068,48.103-69.482
			C304.116,125.067,284.875,101.55,256.013,101.55z"/>
		<path d="M398.184,462.855c-8.552,0-16.034-6.414-16.034-16.034
			c-2.138-68.413-57.723-122.929-126.136-122.929s-123.998,53.447-126.136,122.929c0,8.552-7.483,16.034-16.034,16.034
			s-16.034-7.483-16.034-16.034c2.138-86.585,71.62-153.929,158.205-153.929s156.067,67.344,158.205,153.929
			C414.218,455.373,407.804,462.855,398.184,462.855z"/>
    </symbol>

	<symbol id="header-cart" role="img" aria-labelledby="header-cart_title" viewBox="0 0 512 512">
        <title id="header-cart_title"></title>
        <path d="M151.964,376.971c0-8.269,6.727-14.996,14.996-14.996c12.195,0,293.29,0,313.066,0L512,121.032H141.365L119.504,0.061H0
			v29.993h94.445l55.193,305.401c-16.232,6.798-27.667,22.846-27.667,41.516c0,22.551,16.679,41.274,38.347,44.495
			c-5.3,8.941-8.354,19.361-8.354,30.487c0,33.076,26.91,59.986,59.986,59.986c33.076,0,59.986-26.91,59.986-59.986
			c0-10.922-2.948-21.262-8.07-30.093h106.119c-5.122,8.831-8.07,19.17-8.07,30.093c0,33.076,26.91,59.986,59.986,59.986
			c33.076,0,59.986-26.91,59.986-59.986c0-10.922-2.948-21.162-8.07-29.993h8.07v-29.993H166.96
			C158.691,391.968,151.964,385.24,151.964,376.971z M211.949,331.982h-32.46L165.938,257h46.011V331.982z M421.899,151.025h55.865
			l-10.083,75.982h-45.782V151.025z M421.899,257h41.802l-9.951,74.982h-31.851V257z M331.921,151.025h59.986v75.982h-59.986
			V151.025z M331.921,257h59.986v74.982h-59.986V257z M241.942,151.025h59.986v75.982h-59.986V151.025z M241.942,257h59.986v74.982
			h-59.986V257z M146.786,151.025h65.163v75.982h-51.432L146.786,151.025z M421.899,421.96c16.538,0,29.993,13.455,29.993,29.993
			s-13.455,29.993-29.993,29.993c-16.538,0-29.993-13.455-29.993-29.993S405.361,421.96,421.899,421.96z M211.949,421.96
			c16.538,0,29.993,13.455,29.993,29.993s-13.455,29.993-29.993,29.993c-16.538,0-29.993-13.455-29.993-29.993
			S195.411,421.96,211.949,421.96z"/>
    </symbol>
  
    <symbol id="header-menu" role="img" aria-labelledby="header-menu_title" viewBox="0 0 396.667 396.667">
        <title id="header-menu_title"></title>
        <path d="M17,87.833h362.667c9.35,0,17-7.65,17-17s-7.65-17-17-17H17c-9.35,0-17,7.65-17,17C0,80.183,7.65,87.833,17,87.833z"/>
		<path d="M17,215.333h362.667c9.35,0,17-7.65,17-17s-7.65-17-17-17H17c-9.35,0-17,7.65-17,17S7.65,215.333,17,215.333z"/>
		<path d="M17,342.833h362.667c9.35,0,17-7.65,17-17s-7.65-17-17-17H17c-9.35,0-17,7.65-17,17S7.65,342.833,17,342.833z"/>
    </symbol>

    <symbol id="header-menu01" role="img" aria-labelledby="header-menu01_title" viewBox="0 0 188.902 188.902">
        <title id="header-menu01_title"></title>
        <path d="M174.873,113.481c-21.775,11.732-23.855-9.641-23.855-9.641c-18.011-2.081-31.398-22.198-31.398-22.198
		c-24.32,12.563-10.764,47.998-0.283,61.604c13.464,17.438,3.605,45.655,3.605,45.655s-54.902-4.438-82.929-39.649
		c-21.045-26.434-15.601-51.424-9.617-67.918c7.208-19.821,16.952-30.7,31.159-42.271c21.119-17.221,60.139-19.375,60.139-19.375
		c0.255-1.463,1.454-3.171,2.985-4.927c-4.699,0.127-10.438,0.52-16.976,1.375c-4.457,0.86-9.383,1.351-14.372,2.813
		c-5.107,1.103-10.282,2.875-15.578,4.903c-5.29,1.974-10.491,4.776-15.628,7.693c-4.879,3.401-10.06,6.537-14.159,11.015
		c-4.702,3.833-8.127,8.813-11.644,13.589c-3.673,4.685-5.477,10.4-8.225,15.321c-2.039,5.251-3.177,10.663-4.717,15.616
		c-1.386,4.992-1.365,9.993-2.068,14.485c-0.594,4.504-1.046,8.635-0.704,12.329c0.121,3.688,0.195,6.922,0.281,9.563
		c0.157,5.297,0.254,8.334,0.254,8.334l-0.732,0.065c0,0-0.63-2.967-1.454-8.311c-0.394-2.665-0.884-5.929-1.41-9.676
		c-0.804-3.747-0.827-8.026-0.479-12.72c0.266-3.381,0.316-7.046,0.629-10.802L8.898,90.16l9.011-11.042l-9.46-1.354l13.515-10.368
		l-9.921-3.156l13.982-7.66l-10.592-3.153l18.255-5.867l-12.62-3.605l20.507-5.642l-11.26-5.175l20.732-2.707l-10.14-5.857
		l25.307-2.651c0.121-0.056,0.243-0.115,0.358-0.156l-11.695-5.296l26.602-2.252L69.289,7.9l50.318,3.993
		c2.719,0.121,5.095,0.334,7.258,0.57C133.326,6.271,143.486,0,143.486,0c-2.092,2.084-2.926,13.406-2.926,13.406
		c2.087-3.783,8.79-7.548,8.79-7.548c-3.76,8.79,0,27.63,0,27.63c10.899,10.902,23.04,48.581,23.04,48.581l4.622,6.694
		C182.84,97.161,180.689,110.343,174.873,113.481z"/>
    </symbol>

    <symbol id="header-menu02" role="img" aria-labelledby="header-menu02_title" viewBox="0 0 433.28 433.28">
        <title id="header-menu02_title"></title>
        <path d="M430.326,206.399l-25.14-11.269c-1.654-14.581-14.065-25.946-29.08-25.946h-7.204c-10.23-8.915-23.056-13.767-36.817-13.767
			c-16.582,0-32.248,7.328-39.912,18.668c-5.58,8.256-6.561,18.008-2.763,27.459c1.452,3.612,3.171,6.544,5.054,8.927
			c-0.954,1.369-1.815,2.785-2.566,4.245c-5.394,10.481-4.624,21.491,2.168,31.002c5.174,7.244,11.344,11.451,18.378,12.573
			l-2.332,4.197l-25.837,0.056v-14.26c0.016-1.062-0.307-2.102-0.922-2.969l-17.923-25.259l7.424-74.5l0.451-0.259
			c7.378,2.886,14.979,4.347,22.633,4.347c24.227,0,45.62-14.566,55.831-38.014c0.558-1.281,0.554-2.738-0.01-4.017
			c-0.565-1.278-1.639-2.262-2.962-2.713l-38.21-13.007c-2.157-11.732-11.786-20.749-23.655-22.103l-3.49-24.417
			c-0.281-1.968-1.702-3.583-3.618-4.112c-1.916-0.531-3.964,0.127-5.216,1.671l-12.234,15.094l-8.65-24.954
			c-0.71-2.049-2.656-3.394-4.827-3.361c-2.168,0.045-4.06,1.481-4.684,3.558l-36.106,119.95L70.97,216.749l-31.881-17.756
			c-15.314-10.126-23.367-28.355-20.524-46.529c0.768-4.911-2.591-9.515-7.501-10.283c-4.911-0.767-9.514,2.591-10.283,7.501
			c-3.95,25.26,7.327,50.598,28.728,64.553c0.175,0.114-0.183-0.102,0,0l30.261,16.878c-1.844,3.528-3.672,7.826-5.072,12.887
			c-6.684,24.159,1.152,47.594,9.607,63.844l-24.186,32.85c-0.819,1.112-1.141,2.513-0.891,3.871l10.127,54.911
			c0.438,2.371,2.505,4.093,4.917,4.093h10.315c1.483,0,2.889-0.658,3.839-1.797c0.95-1.138,1.345-2.64,1.08-4.099l-7.428-40.798
			l46.173-31.919l-7.836,22.482c-0.455,1.304-0.35,2.738,0.29,3.962l25.864,49.486c0.862,1.65,2.569,2.684,4.431,2.684h11.911
			c1.754,0,3.381-0.92,4.285-2.423c0.904-1.503,0.954-3.371,0.131-4.921l-21.139-39.823l44.021-55.942l2.496-0.509
			c0.392,8.813,2.835,19.142,8.843,30.861l-17.562,23.854c-0.819,1.112-1.141,2.513-0.891,3.871l7.55,40.939
			c0.438,2.371,2.505,4.093,4.917,4.093h7.69c1.483,0,2.889-0.658,3.839-1.797c0.95-1.138,1.346-2.64,1.08-4.099l-5.093-27.979
			l46.337-33.703c2.381,0.79,4.803,1.584,7.268,2.377c42.28,13.609,74.893,20.51,96.934,20.51c0.734,0,1.457-0.018,2.175-0.047
			l6.371,40.513c0.382,2.432,2.478,4.223,4.939,4.223h6.798c2.761,0,5-2.239,5-5v-47.716c1.83-1.418,3.553-3.011,5.152-4.801
			c18.312-20.496,14.22-91.58,14.22-91.58c19.295-0.701,31.876-7.669,39.146-13.562c10.081-8.174,15.863-19.09,15.863-29.949
			C433.28,208.992,432.124,207.205,430.326,206.399z"/>
    </symbol>

    <symbol id="header-menu03" role="img" aria-labelledby="header-menu03_title" viewBox="0 0 1000 1000">
        <title id="header-menu03_title"></title>
        <path transform="translate(0.000000,506.000000) scale(0.100000,-0.100000)" d="M8187.6,4869.6c-90.1-42.2-128.4-99.7-113.1-164.8c5.7-24.9,57.5-93.9,111.2-155.2c74.7-80.5,90.1-105.4,57.5-95.8c-74.7,24.9-297.1,15.3-385.2-15.3c-185.9-67.1-346.9-241.5-346.9-377.5c0-107.3,49.8-132.2,281.7-143.7c103.5-5.7,214.6-13.4,245.3-19.2l57.5-7.7L7969.2,3758c-189.7-197.4-341.2-438.9-596-950.6c-126.5-253-276-530.9-333.5-615.2c-193.6-295.1-433.1-463.8-755.1-536.6c-120.7-26.8-289.4-32.6-1082.8-38.3l-939.1-7.7l-115,145.7c-168.6,214.6-505.9,563.4-716.8,739.8c-381.4,318.1-787.7,546.2-1146.1,642c-164.8,46-224.2,51.7-504,51.7c-276,1.9-335.4-3.8-467.6-42.2c-460-132.2-793.4-446.5-921.8-866.2c-19.2-61.3-34.5-191.7-40.2-318.1c-5.7-201.2-9.6-216.6-72.8-322C0.5,1180.4,50.3,548,406.8-0.1l80.5-122.7l13.4,139.9c65.2,741.7,730.2,1203.5,1675,1167.1c216.6-9.6,277.9-19.2,254.9-42.2c-5.7-5.8-69-19.2-141.8-30.7c-532.8-84.3-964-364.1-1176.7-764.7C1014.3,158.9,974,7.5,962.5-222.5c-17.2-348.8,67.1-661.2,266.4-985l99.7-162.9l13.4,67.1c7.7,36.4,23,118.8,32.6,182.1c59.4,360.3,293.2,666.9,642,845.2l130.3,67.1l-88.2-107.3c-335.4-414-343-977.4-19.2-1475.7l74.7-115l15.3,120.7c32.6,287.5,161,511.7,389,684.2c103.5,76.7,371.8,201.2,435,201.2c13.4,0,51.7-42.2,84.3-92c159.1-243.4,433.1-546.2,1033-1144.1c757-753.2,985.1-1023.4,1234.2-1464.2c70.9-124.6,274.1-578.8,293.2-649.7c3.8-15.3-69-67.1-184-128.4c-199.3-107.3-231.9-138-212.7-201.2c17.2-55.6,88.2-65.2,314.3-40.2c322,34.5,356.5,30.7,663.1-76.7c166.7-57.5,295.2-92,316.2-84.3c47.9,15.3,80.5,74.7,72.8,130.3c-5.7,38.3,3.8,42.2,105.4,51.8c97.8,9.6,145.7-1.9,383.3-82.4c149.5-51.7,293.2-97.7,320.1-101.6c90.1-19.2,141.8,57.5,107.3,161l-13.4,42.2h287.5h289.4l32.6,49.8c28.8,46,28.8,55.6,3.8,101.6c-28.8,49.8-32.6,49.8-262.6,55.5c-178.2,3.9-233.8,11.5-233.8,30.7c0,13.4-15.3,38.3-34.5,55.5c-28.8,24.9-90.1,32.6-329.6,36.4l-297.1,5.8l-139.9,325.8c-161,371.8-159.1,320-21.1,620.9c164.8,354.6,435,701.4,996.5,1276.4c410.1,421.6,534.7,563.4,720.6,826c400.5,565.4,651.6,1157.5,760.8,1799.6c107.3,628.6,61.3,1376-120.7,1979.7l-36.4,118.8l55.6-46c147.6-124.6,391-61.3,488.7,124.6c32.6,63.2,36.4,212.7,5.8,272.1c-11.5,23-61.3,78.6-109.3,122.7l-90.1,82.4h57.5c32.6,0,134.2-9.6,226.1-21.1c93.9-11.5,172.5-17.2,178.2-13.4c3.8,5.7-3.8,53.7-19.2,109.2c-30.7,122.7-115,214.6-243.4,270.2l-93.9,40.2l69,59.4c93.9,84.3,147.6,195.5,149.5,316.2c1.9,162.9-93.9,247.2-220.4,189.7c-24.9-11.5-28.7,5.7-30.7,109.2c-1.9,207-115,396.7-283.6,475.3c-99.7,46-172.5,46-220.4-1.9c-30.7-30.7-38.3-63.2-38.3-164.8v-126.5l-76.7,115C8730,4856.2,8411.9,4971.2,8187.6,4869.6z M9117.1,3828.9c65.2-65.2-11.5-172.5-92-130.3c-47.9,24.9-49.8,105.4-3.8,132.2C9065.4,3857.7,9090.3,3855.8,9117.1,3828.9z M6112.1-3375c65.2-124.6,383.3-849,383.3-872c0-3.8-103.5-7.7-230-7.7h-230l-34.5,70.9c-21.1,40.2-70.9,155.2-111.2,254.9c-65.1,164.8-72.8,199.3-72.8,364.1c-1.9,172.5,26.8,310.5,90.1,431.2c17.2,34.5,23,32.6,72.8-28.8C6010.5-3198.7,6069.9-3294.6,6112.1-3375z"/>
    </symbol>

    <symbol id="header-menu04" role="img" aria-labelledby="header-menu04_title" viewBox="0 0 512 512">
        <title id="header-menu04_title"></title>
        <path d="M340.629,256l10.807-10.672c3.994-3.945,6.193-9.205,6.193-14.811c0-5.523-2.136-10.718-6.018-14.641l-0.081-0.082
			c-3.933-3.932-9.16-6.097-14.721-6.097c-10.385,0-19.251,7.747-20.624,18.02l-1.739,13.013h-116.9l-1.739-13.013
			c-1.373-10.273-10.239-18.02-20.624-18.02c-5.561,0-10.789,2.166-14.722,6.098c-3.932,3.933-6.098,9.161-6.098,14.722
			c0,5.606,2.2,10.866,6.194,14.811L171.364,256l-10.807,10.672c-3.994,3.945-6.194,9.205-6.194,14.811
			c0,5.523,2.136,10.718,6.018,14.641l0.081,0.082c3.932,3.932,9.16,6.097,14.72,6.097c10.386,0,19.252-7.747,20.625-18.02
			l1.739-13.013h116.9l1.739,13.013c1.373,10.273,10.239,18.02,20.624,18.02c5.561,0,10.79-2.166,14.721-6.098
			c3.933-3.933,6.098-9.161,6.098-14.722c0-5.606-2.2-10.866-6.194-14.811L340.629,256z"/>
		<path d="M28.663,90.048v331.904H483.33V90.048H28.663z M372.743,317.418c-9.597,9.598-22.359,14.885-35.934,14.885
			c-20.743,0-39.006-12.672-46.801-31.033h-68.026c-7.795,18.36-26.058,31.032-46.8,31.032c-13.327,0-25.872-5.095-35.408-14.365
			l-0.044-0.037l-0.484-0.484c-9.597-9.599-14.882-22.36-14.882-35.933c0-9.102,2.372-17.827,6.827-25.483
			c-4.455-7.656-6.827-16.381-6.827-25.483c0-13.574,5.286-26.336,14.884-35.935c9.599-9.599,22.361-14.885,35.935-14.885
			c20.742,0,39.005,12.672,46.8,31.033h68.026c7.795-18.36,26.058-31.033,46.8-31.033c13.327,0,25.872,5.096,35.408,14.366
			l0.044,0.037l0.484,0.484c9.597,9.599,14.882,22.36,14.882,35.933c0,9.102-2.372,17.828-6.827,25.483
			c4.456,7.656,6.828,16.381,6.828,25.483C387.629,295.057,382.342,307.819,372.743,317.418z"/>
		<rect x="28.663" y="451.95" width="454.67" height="60.05"/>
		<rect x="305.616" width="39.24" height="60.05"/>
		<rect x="28.663" width="39.24" height="60.05"/>
		<rect x="236.376" width="39.24" height="60.05"/>
		<rect x="444.097" width="39.24" height="60.05"/>
		<rect x="97.907" width="39.24" height="60.05"/>
		<rect x="374.856" width="39.24" height="60.05"/>
		<rect x="167.137" width="39.24" height="60.05"/>
    </symbol>

    <symbol id="header-menu05" role="img" aria-labelledby="header-menu05_title" viewBox="0 0 512.003 512.003">
        <title id="header-menu05_title"></title>
        <path d="M451.799,116.688c-1.186-3.448-4.42-5.751-8.064-5.751c-96.435,0-164.727,166.903-187.733,302.336
			C232.996,277.84,164.704,110.937,68.268,110.937c-3.644,0-6.878,2.304-8.064,5.751C4.064,279.351,48.966,378.406,80.736,422.975
			c40.328,56.576,104.209,89.028,175.266,89.028s134.938-32.452,175.266-89.028C463.037,378.406,507.94,279.351,451.799,116.688z
			 M195.594,459.472c-1.365,3.294-4.54,5.282-7.893,5.282c-1.084,0-2.185-0.213-3.251-0.657
			c-30.549-12.621-56.09-33.126-75.921-60.937C68.516,347.02,57.764,266.807,78.252,177.292c1.05-4.599,5.623-7.484,10.214-6.417
			c4.591,1.05,7.467,5.623,6.417,10.223c-19.379,84.702-9.6,160.043,27.546,212.156c17.937,25.156,40.994,43.691,68.54,55.074
			C195.321,450.128,197.395,455.12,195.594,459.472z"/>
		<path d="M255.97,334.473c22.98-83.115,60.766-164.702,110.592-208.23C344,48.546,302.366,0,256.004,0
			C209.634,0,168,48.546,145.446,126.242C195.273,169.771,232.998,251.383,255.97,334.473z M178.598,134.127
			c11.324-38.494,27.682-68.941,46.046-85.734c3.473-3.191,8.875-2.944,12.058,0.538c3.183,3.473,2.935,8.875-0.538,12.049
			c-15.872,14.515-30.882,42.931-41.19,77.961c-1.092,3.721-4.497,6.135-8.183,6.135c-0.802,0-1.613-0.119-2.415-0.35
			C179.853,143.386,177.267,138.65,178.598,134.127z"/>
    </symbol>

    <symbol id="header-menu06" role="img" aria-labelledby="header-menu06_title" viewBox="0 0 525.153 525.153">
        <title id="header-menu06_title"></title>
        <path d="M495.963,364.675c-36.454,0-71.443-5.799-104.155-16.586c-10.219-3.282-21.575-0.897-29.737,6.915l-64.178,64.178
		c-82.558-41.903-150.237-109.363-192.271-192.162l64.178-64.484c8.162-7.615,10.547-18.971,7.265-29.19
		c-10.788-32.713-16.586-67.701-16.586-104.155c0-15.995-13.194-29.19-29.19-29.19H29.19C13.194,0,0,13.194,0,29.19
		c0,273.955,222.008,495.963,495.963,495.963c15.995,0,29.19-13.194,29.19-29.19V393.864
		C525.153,377.869,511.958,364.675,495.963,364.675z M466.773,262.576h58.379C525.153,117.525,407.628,0,262.576,0v58.379
		C375.462,58.379,466.773,149.69,466.773,262.576z M350.145,262.576h58.248c0-80.523-65.294-145.817-145.817-145.817v58.248
		C310.956,175.007,350.145,214.197,350.145,262.576z"/>
    </symbol>

    <symbol id="header-about" role="img" aria-labelledby="header-about_title" viewBox="0 0 512 512">
        <title id="header-about_title"></title>
        <path d="M338,266c-33.084,0-60,26.916-60,60s26.916,60,60,60s60-26.916,60-60S371.084,266,338,266z M338,346
			c-11.028,0-20-8.972-20-20s8.972-20,20-20s20,8.972,20,20S349.028,346,338,346z"/>
		<path d="M233,186c0-33.084-26.916-60-60-60s-60,26.916-60,60s26.916,60,60,60S233,219.084,233,186z M153,186
			c0-11.028,8.972-20,20-20s20,8.972,20,20s-8.972,20-20,20S153,197.028,153,186z"/>
		<path d="M437.02,74.98C388.667,26.629,324.38,0,256,0S123.333,26.629,74.98,74.98C26.629,123.333,0,187.62,0,256
			s26.629,132.667,74.98,181.02C123.333,485.371,187.62,512,256,512s132.667-26.629,181.02-74.98
			C485.371,388.667,512,324.38,512,256S485.371,123.333,437.02,74.98z M256,472c-119.103,0-216-96.897-216-216S136.897,40,256,40
			s216,96.897,216,216S375.103,472,256,472z"/>
		<polygon points="298.13,136 168.401,376 213.87,376 343.599,136 			"/>
    </symbol>

    <symbol id="header-returns" role="img" aria-labelledby="header-returns_title" viewBox="0 0 384 384">
        <title id="header-returns_title"></title>
        <path d="M112.928,285.6c-3.024-2.056-5.984-4.392-8.816-6.936c-6.568-5.92-16.696-5.376-22.592,1.184
			c-5.912,6.568-5.384,16.68,1.184,22.592c3.888,3.504,8,6.736,12.216,9.608c2.76,1.88,5.896,2.784,8.992,2.784
			c5.12,0,10.152-2.448,13.24-7C122.12,300.528,120.232,290.576,112.928,285.6z"/>
		<path d="M360,171.536C360,76.952,284.368,0,191.4,0C106.256,0,34.336,64.728,24.112,150.568c-1.04,8.776,5.224,16.736,14,17.776
			c8.712,1.072,16.736-5.216,17.784-14C64.192,84.6,122.456,32,191.4,32C266.72,32,328,94.592,328,171.536
			c0,64.96-43.744,119.536-102.68,135l19.336-27.592c5.072-7.24,3.32-17.216-3.92-22.288c-7.224-5.08-17.216-3.312-22.28,3.92
			l-40.16,57.304c-0.024,0.04-0.04,0.08-0.064,0.12c-0.384,0.552-0.68,1.168-0.992,1.768c-0.168,0.328-0.392,0.648-0.536,0.984
			c-0.192,0.456-0.304,0.944-0.456,1.416c-0.168,0.52-0.376,1.04-0.488,1.568c-0.072,0.36-0.08,0.736-0.136,1.096
			c-0.096,0.68-0.2,1.36-0.208,2.04c0,0.064-0.016,0.128-0.016,0.192c0,0.376,0.088,0.72,0.112,1.088
			c0.04,0.616,0.072,1.224,0.184,1.824c0.096,0.504,0.248,0.984,0.392,1.472c0.144,0.504,0.272,1,0.464,1.488
			c0.192,0.488,0.44,0.936,0.68,1.4c0.232,0.456,0.456,0.912,0.728,1.344c0.288,0.448,0.616,0.848,0.944,1.264
			c0.312,0.392,0.608,0.792,0.952,1.16c0.416,0.432,0.872,0.808,1.336,1.192c0.272,0.232,0.504,0.496,0.792,0.712l56.216,40.928
			c2.84,2.064,6.136,3.064,9.4,3.064c4.944,0,9.824-2.28,12.952-6.584c5.192-7.144,3.624-17.152-3.52-22.352L233,337.568
			C305.88,318.648,360,251.488,360,171.536z"/>
		<path d="M68.8,233.808c-0.064-0.28-0.184-0.544-0.256-0.824c-0.216-0.8-0.464-1.592-0.8-2.336c-0.04-0.088-0.056-0.192-0.096-0.28
			c-1.976-4.176-3.392-7.6-4.472-10.768c-2.84-8.36-11.928-12.872-20.296-10c-8.368,2.84-12.84,11.928-10,20.296
			c1.384,4.072,3.104,8.28,5.368,13.16c0.024,0.056,0.072,0.104,0.096,0.168c0.52,1.288,1.224,2.472,2.048,3.568
			c0.2,0.264,0.416,0.504,0.632,0.76c0.816,0.96,1.728,1.84,2.752,2.584c0.12,0.088,0.224,0.2,0.352,0.288
			c1.136,0.776,2.392,1.36,3.712,1.832c0.336,0.12,0.664,0.216,1.008,0.312c1.36,0.384,2.768,0.648,4.256,0.656
			c0.024,0,0.048,0.008,0.072,0.008c7.728,0,14.184-5.52,15.672-12.816c0.216-1.04,0.328-2.12,0.328-3.224
			C69.176,236.032,69.04,234.904,68.8,233.808z"/>
    </symbol>

    <symbol id="button-arrow" role="img" aria-labelledby="button-arrow_title" viewBox="0 0 612 612">
        <title id="button-arrow_title"></title>
        <path d="M277.58,179.679l-0.057,0.077c-5.125-4.705-11.857-7.631-19.335-7.631c-15.835,0-28.688,12.852-28.688,28.688
				c0,8.377,3.634,15.835,9.352,21.076l-0.057,0.077L330.48,306l-91.686,84.055l0.057,0.076c-5.718,5.221-9.352,12.68-9.352,21.057
				c0,15.836,12.852,28.688,28.688,28.688c7.478,0,14.21-2.926,19.335-7.611l0.057,0.076l114.75-105.188
				c5.91-5.451,9.295-13.101,9.295-21.152s-3.385-15.702-9.295-21.152L277.58,179.679z M306,0C137.012,0,0,137.012,0,306
				s137.012,306,306,306s306-137.012,306-306S474.988,0,306,0z M306,554.625C168.912,554.625,57.375,443.088,57.375,306
				S168.912,57.375,306,57.375S554.625,168.912,554.625,306S443.088,554.625,306,554.625z"/>
    </symbol>

    <symbol id="advantages01" role="img" aria-labelledby="advantages01_title" viewBox="0 0 512.00073 512">
        <title id="advantages01_title"></title>
        <path d="m510.730469 230.273438-31.246094-69.441407c-7.730469-17.183593-23.046875-30.289062-41.175781-35.375-5.585938-1.570312-11.390625-2.367187-17.195313-2.367187h-330.21875c-19.421875 0-38.210937 9.144531-50.246093 24.371094-3.246094 4.101562-5.980469 8.601562-8.125 13.371093l-31.246094 69.441407c-2.402344 5.335937-1.3515628 11.792968 2.621094 16.089843l241.203124 260.890625c5.734376 6.308594 16.074219 6.308594 21.804688 0l241.203125-260.890625c3.957031-4.285156 5.015625-10.769531 2.621094-16.089843zm-93.441407-77.640626-62.8125 62.8125-62.8125-62.8125zm-98.472656 68.929688h-125.625l62.8125-62.8125zm-98.472656-68.929688-62.8125 62.8125-62.8125-62.8125zm-160.878906 20.320313c1.394531-3.097656 3.21875-5.921875 5.378906-8.414063l57.027344 57.023438h-84.28125zm-10.945313 78.152344h98.796875l68.136719 180.566406zm207.484375 204.34375-77.109375-204.34375h154.21875zm40.550782-23.78125 68.136718-180.5625h98.796875zm93.582031-210.105469 57.023437-57.023438c2.164063 2.492188 3.988282 5.316407 5.382813 8.414063l21.875 48.609375zm0 0"/><path d="m256.003906 93.550781c8.15625 0 14.769532-6.613281 14.769532-14.773437v-64.007813c0-8.15625-6.613282-14.769531-14.769532-14.769531s-14.769531 6.613281-14.769531 14.769531v64.007813c0 8.160156 6.613281 14.773437 14.769531 14.773437zm0 0"/><path d="m176.628906 79.375c5.691406 5.691406 15.199219 5.691406 20.890625 0 5.765625-5.765625 5.765625-15.121094 0-20.890625l-29.542969-29.539063c-5.769531-5.769531-15.121093-5.769531-20.890624 0-5.765626 5.765626-5.765626 15.121094 0 20.886719zm0 0"/><path d="m335.378906 79.375 29.542969-29.542969c5.769531-5.765625 5.769531-15.117187 0-20.886719-5.769531-5.769531-15.121094-5.769531-20.890625 0l-29.539062 29.539063c-5.769532 5.769531-5.769532 15.121094 0 20.890625 5.691406 5.691406 15.195312 5.691406 20.886718 0zm0 0"/>
    </symbol>

    <symbol id="advantages02" role="img" aria-labelledby="advantages02_title" viewBox="0 0 215.639 215.639">
        <title id="advantages02_title"></title>
        <path d="M118.713,101.426h86.426c4.142,0,7.5-3.357,7.5-7.5C212.639,42.135,170.504,0,118.713,0c-4.142,0-7.5,3.357-7.5,7.5v86.426
			C111.213,98.068,114.571,101.426,118.713,101.426z M126.213,15.354c37.547,3.555,67.517,33.524,71.072,71.072h-71.072V15.354z"/>
		<path d="M101.427,118.606V35.287c0-4.143-3.358-7.5-7.5-7.5C42.135,27.787,0,69.922,0,121.713
			c0,51.791,42.135,93.926,93.927,93.926c25.087,0,48.673-9.771,66.415-27.511c1.478-1.477,2.265-3.511,2.185-5.599
			c-0.074-1.904-0.874-3.707-2.219-5.04L101.427,118.606z M93.927,200.639c-43.52,0-78.927-35.406-78.927-78.926
			c0-40.991,31.41-74.784,71.427-78.572v78.572c0,1.989,0.79,3.896,2.197,5.304l55.561,55.562
			C130.07,194.274,112.486,200.639,93.927,200.639z"/>
		<path d="M208.139,109.256h-86.426c-3.034,0-5.768,1.827-6.929,4.63c-1.161,2.803-0.519,6.028,1.626,8.174l61.1,61.1
			c0.07,0.069,0.142,0.139,0.214,0.206l0.013,0.012c1.439,1.329,3.265,1.99,5.088,1.99c1.923,0,3.843-0.735,5.304-2.196
			c17.74-17.739,27.51-41.326,27.51-66.415C215.639,112.613,212.281,109.256,208.139,109.256z M182.578,167.015l-42.758-42.759h60.47
			C198.812,140.028,192.686,154.818,182.578,167.015z"/>
    </symbol>

    <symbol id="advantages03" role="img" aria-labelledby="advantages03_title" viewBox="0 0 512 512">
        <title id="advantages03_title"></title>
        <path d="M244.236,182.896c-17.533-17.534-46.066-17.536-63.601,0c-17.535,17.534-17.535,46.066,0,63.6
			c17.533,17.534,46.067,17.536,63.601,0C261.771,228.962,261.771,200.43,244.236,182.896z M223.036,225.296
			c-5.846,5.846-15.355,5.844-21.201,0c-5.859-5.86-5.858-15.341,0-21.2c5.858-5.858,15.342-5.859,21.201,0
			C228.881,209.942,228.881,219.452,223.036,225.296z"/>
		<path d="M265.436,331.299c-17.535-17.537-46.067-17.535-63.602,0c-17.533,17.534-17.533,46.066,0.001,63.601
			c17.533,17.533,46.066,17.534,63.601,0C282.971,377.366,282.971,348.834,265.436,331.299z M244.236,373.698
			c-5.845,5.845-15.357,5.845-21.2,0.001c-5.845-5.845-5.845-15.357-0.001-21.201c5.858-5.858,15.342-5.858,21.201,0
			C250.095,358.358,250.095,367.838,244.236,373.698z"/>
		<path d="M333.335,276.641c-0.915-8.228-8.327-14.161-16.554-13.243l-190.803,21.2c-8.228,0.914-14.158,8.326-13.244,16.554
			c0.914,8.228,8.324,14.158,16.554,13.244l190.803-21.2C328.319,292.281,334.25,284.87,333.335,276.641z"/>
		<path d="M466.084,192.74c27.758-37.072,27.777-88.472,0.074-125.573l41.463-41.549c5.847-5.86,5.838-15.352-0.023-21.2
			c-5.859-5.848-15.352-5.838-21.2,0.022l-41.409,41.496c-37.117-27.868-88.652-27.901-125.798-0.087l-30.435-30.435
			c-17.535-17.535-46.068-17.534-63.601,0L13.151,227.416c-17.535,17.534-17.535,46.066,0,63.6l37.107,37.107
			c-13.448,37.834-4.249,80.551,24.375,109.174c28.626,28.628,71.34,37.827,109.173,24.374l37.108,37.107
			c17.577,17.577,46.024,17.577,63.601,0L496.52,286.777c17.534-17.535,17.534-46.066,0-63.6L466.084,192.74z M475.32,265.578
			l-34.505,34.505c-0.188-3.568-1.628-7.082-4.353-9.807l-21.2-21.2c-5.852-5.853-15.345-5.854-21.2,0
			c-5.854,5.854-5.854,15.346,0,21.2l21.2,21.2c2.725,2.725,6.239,4.164,9.807,4.352L263.317,477.58
			c-5.857,5.857-15.342,5.859-21.201,0l-44.176-44.175c-4.488-4.489-11.313-5.661-17.038-2.938
			c-28.662,13.628-62.847,7.854-85.068-14.367c-22.221-22.221-27.996-56.409-14.367-85.069c2.724-5.728,1.547-12.552-2.938-17.038
			l-44.176-44.175c-5.845-5.845-5.845-15.356,0-21.2L200.164,82.804c-2.435,5.501-1.414,12.161,3.095,16.669l21.201,21.2
			c5.853,5.853,15.346,5.854,21.2,0c5.854-5.854,5.854-15.346,0-21.2l-21.201-21.2c-4.508-4.508-11.168-5.53-16.669-3.094
			l38.565-38.564c5.845-5.845,15.356-5.844,21.201,0l40.281,40.281c5.853,5.854,15.346,5.854,21.2,0
			c25.84-25.839,65.571-28.747,94.488-9.45l-21.822,21.867c-16.712-7.955-37.351-5.033-51.166,8.783
			c-17.535,17.534-17.535,46.066,0,63.601c17.533,17.533,46.066,17.534,63.601,0c13.823-13.823,16.74-34.474,8.771-51.19
			l21.763-21.808c19.001,28.76,16.241,68.322-9.634,94.198c-5.854,5.854-5.854,15.346,0,21.2l40.281,40.281
			C481.165,250.223,481.164,259.733,475.32,265.578z M392.939,140.494c-5.844,5.845-15.355,5.846-21.201,0
			c-5.859-5.86-5.859-15.341,0-21.201c5.858-5.856,15.342-5.857,21.201,0.001C398.798,125.154,398.798,134.634,392.939,140.494z"/>
		<path d="M309.26,163.073l-21.201-21.2c-5.853-5.853-15.346-5.854-21.2,0s-5.854,15.346,0,21.2l21.202,21.201
			c2.927,2.927,6.764,4.39,10.6,4.39s7.673-1.463,10.6-4.391C315.114,178.419,315.114,168.928,309.26,163.073z"/>
		<path d="M372.86,226.674l-21.2-21.2c-5.852-5.854-15.345-5.853-21.2,0c-5.854,5.854-5.854,15.346,0,21.2l21.2,21.2
			c5.853,5.854,15.345,5.854,21.2,0C378.715,242.02,378.715,232.529,372.86,226.674z"/>
    </symbol>

    <symbol id="advantages04" role="img" aria-labelledby="advantages04_title" viewBox="0 0 512 512">
        <title id="advantages04_title"></title>
        <path d="M492.522,118.3L266.433,3.743l-0.093-0.047c-10.068-5.012-22.029-4.9-32.002,0.3
			C233.553,4.328,19.617,117.874,18.896,118.338C7.24,124.44,0,136.398,0,149.559V362.44c0,13.161,7.24,25.118,18.896,31.221
			l215.345,114.292l0.097,0.051c5.086,2.652,10.691,3.981,16.297,3.981c5.385,0,10.772-1.226,15.705-3.682l226.182-114.604
			C504.539,387.69,512,375.618,512,362.18V149.82C512,136.381,504.538,124.309,492.522,118.3z M248.237,30.57
			c1.469-0.754,3.224-0.769,4.705-0.042l211.629,107.229l-82.365,41.006L175.308,69.276L248.237,30.57z M235.424,474.631
			L32.91,367.148l-0.097-0.051c-1.741-0.909-2.824-2.692-2.824-4.656V163.092l205.435,107.124V474.631z M250.577,244.295
			L46.272,137.76l97.024-51.493l205.875,108.945L250.577,244.295z M482.01,362.181c0,2.004-1.116,3.806-2.912,4.7L265.414,475.152
			V270.409l98.386-48.981v51.355c0,8.281,6.714,14.995,14.995,14.995s14.995-6.714,14.995-14.995v-66.285l88.22-43.92V362.181z"/>
		<path d="M181.277,294.419c-4.19-7.144-13.378-9.536-20.521-5.346l-46.437,27.244l-9.751-17.666
			c-4.002-7.25-13.125-9.884-20.374-5.882c-7.25,4.002-9.884,13.124-5.882,20.374l17.189,31.143c0.04,0.073,0.086,0.14,0.127,0.212
			c0.024,0.043,0.043,0.087,0.068,0.13c0.057,0.098,0.121,0.189,0.18,0.285c0.089,0.145,0.179,0.29,0.273,0.431
			c0.095,0.143,0.193,0.282,0.292,0.42c0.1,0.14,0.2,0.28,0.304,0.416c0.103,0.134,0.21,0.264,0.316,0.394
			c0.108,0.131,0.215,0.262,0.326,0.388c0.112,0.127,0.227,0.249,0.343,0.371c0.113,0.12,0.226,0.241,0.343,0.357
			c0.122,0.121,0.248,0.237,0.373,0.353c0.117,0.108,0.233,0.217,0.352,0.321c0.133,0.116,0.271,0.226,0.408,0.337
			c0.118,0.095,0.235,0.192,0.356,0.284c0.144,0.109,0.291,0.212,0.438,0.315c0.121,0.085,0.24,0.171,0.363,0.252
			c0.152,0.1,0.308,0.194,0.464,0.289c0.123,0.075,0.245,0.152,0.37,0.223c0.16,0.091,0.324,0.175,0.487,0.26
			c0.125,0.065,0.249,0.133,0.376,0.195c0.166,0.081,0.336,0.154,0.505,0.229c0.129,0.057,0.256,0.117,0.386,0.17
			c0.168,0.069,0.34,0.129,0.51,0.192c0.135,0.049,0.268,0.102,0.404,0.148c0.169,0.057,0.341,0.105,0.511,0.155
			c0.14,0.042,0.279,0.087,0.421,0.124c0.168,0.044,0.338,0.08,0.507,0.118c0.147,0.034,0.294,0.072,0.442,0.101
			c0.161,0.032,0.324,0.054,0.486,0.081c0.159,0.026,0.316,0.056,0.476,0.077c0.153,0.02,0.306,0.03,0.46,0.046
			c0.17,0.017,0.34,0.038,0.51,0.049c0.135,0.009,0.27,0.008,0.405,0.013c0.188,0.007,0.375,0.019,0.563,0.019
			c0.317,0,0.634-0.011,0.951-0.031c0.081-0.005,0.162-0.016,0.243-0.023c0.233-0.019,0.466-0.038,0.699-0.068
			c0.12-0.015,0.239-0.038,0.358-0.056c0.194-0.03,0.387-0.058,0.58-0.095c0.138-0.027,0.276-0.061,0.414-0.092
			c0.173-0.039,0.346-0.076,0.518-0.121c0.149-0.039,0.296-0.084,0.444-0.128c0.161-0.047,0.321-0.093,0.481-0.146
			c0.152-0.05,0.302-0.107,0.453-0.162c0.155-0.057,0.31-0.113,0.464-0.176c0.151-0.061,0.3-0.128,0.45-0.194
			c0.152-0.068,0.305-0.136,0.456-0.209c0.146-0.071,0.29-0.146,0.434-0.222c0.096-0.05,0.194-0.095,0.289-0.148
			c0.04-0.022,0.076-0.05,0.117-0.072c0.075-0.042,0.151-0.078,0.225-0.122l59.715-35.033
			C183.074,310.75,185.468,301.562,181.277,294.419z"/>
    </symbol>

    <symbol id="footer-facebook" role="img" aria-labelledby="footer-facebook_title" viewBox="0 0 512 512">
        <title id="footer-facebook_title">Facebook</title>
        <path d="M296.296,512H200.36V256h-64v-88.225l64-0.029l-0.104-51.976C200.256,43.794,219.773,0,304.556,0h70.588v88.242h-44.115
		c-33.016,0-34.604,12.328-34.604,35.342l-0.131,44.162h79.346l-9.354,88.225L296.36,256L296.296,512z"/>
    </symbol>

    <symbol id="footer-twitter" role="img" aria-labelledby="footer-twitter_title" viewBox="0 0 512.002 512.002">
        <title id="footer-twitter_title">Twitter</title>
        <path d="M512.002,97.211c-18.84,8.354-39.082,14.001-60.33,16.54c21.686-13,38.342-33.585,46.186-58.115
		c-20.299,12.039-42.777,20.78-66.705,25.49c-19.16-20.415-46.461-33.17-76.674-33.17c-58.011,0-105.042,47.029-105.042,105.039
		c0,8.233,0.929,16.25,2.72,23.939c-87.3-4.382-164.701-46.2-216.509-109.753c-9.042,15.514-14.223,33.558-14.223,52.809
		c0,36.444,18.544,68.596,46.73,87.433c-17.219-0.546-33.416-5.271-47.577-13.139c-0.01,0.438-0.01,0.878-0.01,1.321
		c0,50.894,36.209,93.348,84.261,103c-8.813,2.399-18.094,3.687-27.674,3.687c-6.769,0-13.349-0.66-19.764-1.888
		c13.368,41.73,52.16,72.104,98.126,72.949c-35.95,28.176-81.243,44.967-130.458,44.967c-8.479,0-16.84-0.496-25.058-1.471
		c46.486,29.807,101.701,47.197,161.021,47.197c193.211,0,298.868-160.062,298.868-298.872c0-4.554-0.104-9.084-0.305-13.59
		C480.111,136.775,497.92,118.275,512.002,97.211z"/>
    </symbol>

    <symbol id="footer-instagram" role="img" aria-labelledby="footer-instagram_title" viewBox="0 0 97.395 97.395">
        <title id="footer-instagram_title">Instagram</title>
        <path d="M12.501,0h72.393c6.875,0,12.5,5.09,12.5,12.5v72.395c0,7.41-5.625,12.5-12.5,12.5H12.501C5.624,97.395,0,92.305,0,84.895
		V12.5C0,5.09,5.624,0,12.501,0L12.501,0z M70.948,10.821c-2.412,0-4.383,1.972-4.383,4.385v10.495c0,2.412,1.971,4.385,4.383,4.385
		h11.008c2.412,0,4.385-1.973,4.385-4.385V15.206c0-2.413-1.973-4.385-4.385-4.385H70.948L70.948,10.821z M86.387,41.188h-8.572
		c0.811,2.648,1.25,5.453,1.25,8.355c0,16.2-13.556,29.332-30.275,29.332c-16.718,0-30.272-13.132-30.272-29.332
		c0-2.904,0.438-5.708,1.25-8.355h-8.945v41.141c0,2.129,1.742,3.872,3.872,3.872h67.822c2.13,0,3.872-1.742,3.872-3.872V41.188
		H86.387z M48.789,29.533c-10.802,0-19.56,8.485-19.56,18.953c0,10.468,8.758,18.953,19.56,18.953
		c10.803,0,19.562-8.485,19.562-18.953C68.351,38.018,59.593,29.533,48.789,29.533z"/>
    </symbol>

    <symbol id="footer-linkedin" role="img" aria-labelledby="footer-linkedin_title" viewBox="0 0 93.06 93.06">
        <title id="footer-linkedin_title">Linkedin</title>
        <path d="M11.185,0.08C5.004,0.08,0.001,5.092,0,11.259c0,6.173,5.003,11.184,11.186,11.184c6.166,0,11.176-5.011,11.176-11.184
			C22.362,5.091,17.351,0.08,11.185,0.08z"/>
		<rect x="1.538" y="30.926" width="19.287" height="62.054"/>
		<path d="M69.925,29.383c-9.382,0-15.673,5.144-18.248,10.022h-0.258v-8.479H32.921H32.92v62.053h19.27V62.281
			c0-8.093,1.541-15.932,11.575-15.932c9.89,0,10.022,9.256,10.022,16.451v30.178H93.06V58.942
			C93.06,42.235,89.455,29.383,69.925,29.383z"/>
    </symbol>

    <symbol id="footer-pinterest" role="img" aria-labelledby="footer-pinterest_title" viewBox="0 0 486.392 486.392">
        <title id="footer-pinterest_title">pPinterest</title>
		<path d="M430.149,135.248C416.865,39.125,321.076-9.818,218.873,1.642
				C138.071,10.701,57.512,76.03,54.168,169.447c-2.037,57.029,14.136,99.801,68.399,111.84
				c23.499-41.586-7.569-50.676-12.433-80.802C90.222,77.367,252.16-6.718,336.975,79.313c58.732,59.583,20.033,242.77-74.57,223.71
				c-90.621-18.179,44.383-164.005-27.937-192.611c-58.793-23.286-90.013,71.135-62.137,118.072
				c-16.355,80.711-51.557,156.709-37.3,257.909c46.207-33.561,61.802-97.734,74.57-164.704
				c23.225,14.136,35.659,28.758,65.268,31.038C384.064,361.207,445.136,243.713,430.149,135.248z"/>
    </symbol>

    <symbol id="footer-google" role="img" aria-labelledby="footer-google_title" viewBox="0 90 320 320">
        <title id="footer-google_title">Google</title>
		<path d="M160,224v64h90.528c-13.216,37.248-48.8,64-90.528,64c-52.928,0-96-43.072-96-96c0-52.928,43.072-96,96-96
			c22.944,0,45.024,8.224,62.176,23.168l42.048-48.256C235.424,109.824,198.432,96,160,96C71.776,96,0,167.776,0,256
			s71.776,160,160,160s160-71.776,160-160v-32H160z"/>
    </symbol>

    <symbol id="footer-phone" role="img" aria-labelledby="footer-phone_title" viewBox="0 0 512 512">
        <title id="footer-phone_title"></title>
        <path d="M421.216,195.504c-5.092-26.101-17.723-49.836-36.526-68.64c-18.804-18.803-42.54-31.434-68.641-36.527
			c-11.21-2.189-22.073,5.128-24.261,16.339c-2.187,11.212,5.128,22.073,16.339,24.26c36.847,7.188,65.3,35.642,72.489,72.489
			c1.927,9.874,10.581,16.726,20.278,16.726c1.313,0,2.645-0.125,3.984-0.387C416.088,217.577,423.403,206.715,421.216,195.504z"/>
		<path d="M511.422,196.929c-5.629-50.096-28.373-97.304-64.042-132.927C411.712,28.378,364.475,5.694,314.371,0.128
			c-11.355-1.261-21.578,6.92-22.839,18.272c-1.261,11.353,6.919,21.578,18.272,22.84c84.961,9.438,150.966,75.36,160.512,160.31
			c1.188,10.566,10.139,18.374,20.527,18.374c0.771,0,1.552-0.043,2.336-0.131C504.53,218.516,512.698,208.281,511.422,196.929z"/>
		<path d="M432.59,312.566c-0.062-0.008-0.124-0.017-0.186-0.025c-20.013-2.639-39.751-7.557-58.619-14.596
			c-23.91-8.99-51.103-3.191-69.27,14.772c-0.028,0.028-0.056,0.055-0.083,0.083l-17.148,17.148
			c-42.633-26.924-78.756-63.047-105.679-105.679l17.149-17.149c0.027-0.028,0.054-0.055,0.082-0.083
			c17.964-18.166,23.762-45.356,14.79-69.223c-7.057-18.914-11.974-38.653-14.614-58.666c-0.007-0.063-0.017-0.127-0.026-0.19
			c-4.591-32.478-32.782-56.734-65.548-56.467H66.053c-1.943,0.002-3.912,0.091-5.853,0.267
			C24.143,26.016-2.541,58.001,0.718,94.058c0.01,0.108,0.02,0.215,0.032,0.323c7.684,72.354,32.649,142.88,72.197,203.955
			c35.892,56.461,84.701,105.269,141.162,141.164c60.792,39.406,130.99,64.369,203.013,72.196c0.127,0.015,0.254,0.027,0.38,0.038
			c1.961,0.176,3.949,0.266,5.921,0.266c0.083,0,0.165,0,0.247,0.001c36.204-0.148,65.538-29.722,65.391-65.841v-67.233
			C489.746,345.714,465.515,317.211,432.59,312.566z M447.698,378.695v67.548c0.055,13.396-10.8,24.338-24.19,24.393
			c-0.715-0.004-1.425-0.027-2.135-0.086c-65.578-7.161-129.488-29.914-184.837-65.808c-0.053-0.035-0.107-0.069-0.161-0.103
			c-51.429-32.68-95.885-77.137-128.565-128.565c-0.032-0.051-0.064-0.101-0.097-0.153C71.683,220.306,48.928,156.086,41.902,90.193
			C40.779,76.91,50.63,65.155,63.923,63.954c0.717-0.064,1.443-0.098,2.145-0.098h67.463c0.146-0.001,0.294-0.003,0.443-0.002
			c12.021,0,22.322,8.905,24.044,20.819c3.05,23.063,8.721,45.806,16.871,67.649c3.319,8.832,1.189,18.869-5.427,25.591
			l-28.517,28.517c-6.583,6.582-7.956,16.753-3.354,24.847c33.837,59.508,83.177,108.847,142.685,142.685
			c8.094,4.6,18.264,3.23,24.848-3.355l28.512-28.512c6.72-6.621,16.765-8.752,25.642-5.415
			c21.799,8.134,44.547,13.805,67.61,16.855c12.18,1.757,21.122,12.339,20.816,24.647
			C447.7,378.353,447.698,378.524,447.698,378.695z"/>
    </symbol>

	<symbol id="footer-mail" role="img" aria-labelledby="footer-mail_title" viewBox="0 0 512 512">
        <title id="footer-mail_title"></title>
        <path d="M256,141.176c-63.306,0-114.809,51.503-114.809,114.809S192.694,370.795,256,370.795s114.809-51.503,114.809-114.809
			S319.306,141.176,256,141.176z M256,329.43c-40.498,0-73.445-32.947-73.445-73.445c0-40.498,32.947-73.445,73.445-73.445
			c40.499,0,73.445,32.947,73.445,73.445C329.445,296.483,296.499,329.43,256,329.43z"/>
		<path d="M437.008,74.97C388.656,26.623,324.375,0,256,0c-0.005,0-0.013,0-0.017,0C187.603,0.004,123.318,26.637,74.97,74.992
			C26.62,123.347-0.005,187.637,0,256.017c0.004,68.379,26.637,132.666,74.992,181.014C123.344,485.377,187.625,512.001,256,512
			c0.004,0,0.012,0,0.017,0c55.945-0.004,111.216-18.738,155.631-52.752c9.07-6.945,10.792-19.927,3.846-28.995
			c-6.945-9.069-19.926-10.794-28.995-3.846c-37.24,28.518-83.58,44.224-130.486,44.228c-0.006,0-0.006,0-0.014,0
			c-57.324,0-111.224-22.324-151.761-62.856c-40.542-40.536-62.871-94.435-62.875-151.766
			C41.357,137.663,137.636,41.372,255.986,41.364c0.007,0,0.006,0,0.014,0c118.34,0,214.628,96.279,214.636,214.622v23.532
			c0,27.523-22.39,49.913-49.913,49.913c-27.523,0-49.913-22.391-49.913-49.913v-23.532c0-11.422-9.259-20.682-20.682-20.682
			s-20.682,9.26-20.682,20.682v23.532c0,50.33,40.947,91.278,91.278,91.278S512,329.848,512,279.518v-23.534
			C511.995,187.604,485.362,123.318,437.008,74.97z"/>
    </symbol>

    <symbol id="footer-time" role="img" aria-labelledby="footer-time_title" viewBox="0 0 512 512">
        <title id="footer-time_title"></title>
        <path d="M437.019,74.981C388.667,26.629,324.38,0,256,0S123.333,26.63,74.981,74.981S0,187.62,0,256
			s26.629,132.667,74.981,181.019C123.332,485.371,187.62,512,256,512s132.667-26.629,181.019-74.981
			C485.371,388.667,512,324.38,512,256S485.371,123.332,437.019,74.981z M256,470.636C137.65,470.636,41.364,374.35,41.364,256
			S137.65,41.364,256,41.364S470.636,137.65,470.636,256S374.35,470.636,256,470.636z"/>
		<path d="M341.221,311.97l-64.538-64.537V114.809c0-11.422-9.259-20.682-20.682-20.682c-11.422,0-20.682,9.26-20.682,20.682V256
			c0,5.486,2.179,10.746,6.058,14.625l70.594,70.595c4.038,4.039,9.332,6.058,14.625,6.058c5.293,0,10.586-2.019,14.626-6.058
			C349.297,333.142,349.297,320.047,341.221,311.97z"/>
    </symbol>

    <symbol id="footer-location" role="img" aria-labelledby="footer-location_title" viewBox="0 0 512 512">
        <title id="footer-location_title"></title>
        <path d="M406.766,62.449C366.495,22.178,312.951,0,256,0S145.505,22.178,105.234,62.449
			c-40.272,40.271-62.449,93.814-62.449,150.766c0,37.656,10.972,76.863,32.609,116.532c16.825,30.846,40.15,62.102,69.326,92.898
			c49.17,51.903,97.763,84.519,99.808,85.881C248.001,510.842,252,512,256,512c4,0,7.999-1.158,11.473-3.474
			c2.045-1.363,50.638-33.978,99.808-85.881c29.176-30.795,52.501-62.051,69.326-92.898c21.637-39.669,32.609-78.876,32.609-116.532
			C469.215,156.263,447.038,102.72,406.766,62.449z M256.001,465.903C215.826,436.156,84.15,329.739,84.15,213.215
			c0-94.759,77.091-171.851,171.85-171.851s171.85,77.092,171.851,171.851C427.851,329.748,296.159,436.168,256.001,465.903z"/>
		<path d="M256,128.355c-46.791,0-84.86,38.068-84.86,84.86c0,46.791,38.068,84.86,84.86,84.86c46.792,0,84.861-38.068,84.86-84.86
			C340.86,166.423,302.791,128.355,256,128.355z M256,256.71c-23.983,0-43.495-19.512-43.495-43.495
			c0-23.983,19.512-43.495,43.495-43.495c23.984,0,43.495,19.512,43.495,43.495C299.495,237.198,279.984,256.71,256,256.71z"/>
    </symbol>

    <symbol id="link-arrow" role="img" aria-labelledby="link-arrow_title" viewBox="0 0 512 512">
        <title id="link-arrow_title"></title>
        <path d="M256,0C114.615,0,0,114.615,0,256s114.615,256,256,256s256-114.615,256-256C511.833,114.685,397.315,0.167,256,0z
			 M256,480C132.288,480,32,379.712,32,256S132.288,32,256,32s224,100.288,224,224C479.868,379.657,379.657,479.868,256,480z"/>
		<polygon points="126.88,256 208,256 208,224 196.336,224 256,154.24 315.664,224 240,224 240,288 272,288 272,256 385.12,256 
			256,104.992 			"/>
		<rect x="240" y="384" width="32" height="32"/>
		<rect x="240" y="320" width="32" height="32"/>
    </symbol>

</svg>