<svg xmlns="http://www.w3.org/2000/svg" xmlns:xlink="http://www.w3.org/1999/xlink">

	<symbol id="what01" role="img" aria-labelledby="what01_title" viewBox="0 0 512 512">
        <title id="what01_title"></title>
        <path style="fill:#ffffff;" d="M342.64,209.773c0-6.785-0.779-13.381-2.257-19.717l18.627-15.133l-21.325-36.942l-22.442,8.578
			c-9.587-8.989-21.22-15.819-34.123-19.723l-3.794-23.701h-42.654l-3.79,23.701c-12.908,3.903-24.542,10.734-34.127,19.723
			l-22.436-8.578l-21.329,36.94l18.626,15.133c-1.471,6.336-2.256,12.932-2.256,19.717c0,6.779,0.785,13.381,2.256,19.713
			l-18.626,15.133l21.329,36.939l22.438-8.578c9.587,8.993,21.22,15.825,34.127,19.727l3.79,23.695h42.654l3.794-23.695
			c12.903-3.903,24.538-10.734,34.123-19.727l22.442,8.578l21.325-36.939l-18.627-15.133
			C341.861,223.154,342.64,216.553,342.64,209.773z M255.999,243.107c-18.411,0-33.336-14.925-33.336-33.336
			s14.925-33.336,33.336-33.336s33.336,14.925,33.336,33.336S274.41,243.107,255.999,243.107z"/>
		<path d="M277.327,330.838h-42.654c-7.091,0-13.133-5.151-14.253-12.153l-2.439-15.249
			c-8.596-3.501-16.725-8.202-24.069-13.915l-14.442,5.521c-6.623,2.533-14.106-0.123-17.652-6.264l-21.329-36.939
			c-3.546-6.141-2.104-13.948,3.398-18.42l11.993-9.744c-0.634-4.601-0.954-9.252-0.954-13.901c0-4.65,0.32-9.301,0.955-13.903
			l-11.994-9.744c-5.503-4.471-6.944-12.278-3.398-18.418l21.329-36.94c3.548-6.141,11.03-8.796,17.652-6.265l14.445,5.521
			c7.342-5.711,15.472-10.411,24.066-13.911l2.439-15.254c1.12-7.003,7.16-12.154,14.253-12.154h42.654
			c7.091,0,13.131,5.15,14.253,12.151l2.442,15.257c8.594,3.5,16.721,8.199,24.063,13.911l14.449-5.522
			c6.625-2.53,14.107,0.124,17.652,6.267l21.325,36.94c3.545,6.141,2.104,13.947-3.399,18.418l-11.991,9.742
			c0.634,4.596,0.953,9.246,0.953,13.906c0,4.66-0.319,9.309-0.953,13.902l11.991,9.742c5.503,4.471,6.944,12.277,3.399,18.418
			l-21.325,36.939c-3.546,6.141-11.027,8.796-17.652,6.267l-14.448-5.522c-7.341,5.713-15.471,10.414-24.066,13.916l-2.442,15.252
			C290.457,325.688,284.417,330.838,277.327,330.838z M246.98,301.971h18.041l1.849-11.544c0.873-5.456,4.783-9.933,10.073-11.534
			c10.529-3.185,20.358-8.871,28.428-16.439c4.03-3.781,9.864-4.927,15.028-2.956l10.945,4.183l9.018-15.621l-9.076-7.372
			c-4.285-3.481-6.209-9.103-4.955-14.481c1.247-5.345,1.879-10.874,1.879-16.434c0-5.56-0.632-11.09-1.879-16.441
			c-1.254-5.376,0.67-10.998,4.955-14.479l9.076-7.372l-9.018-15.622l-10.945,4.183c-5.16,1.97-10.994,0.826-15.025-2.953
			c-8.071-7.569-17.903-13.253-28.429-16.437c-5.288-1.599-9.2-6.078-10.073-11.534l-1.849-11.549h-18.04l-1.846,11.547
			c-0.872,5.457-4.785,9.937-10.074,11.536c-10.529,3.184-20.361,8.868-28.432,16.435c-4.03,3.78-9.862,4.927-15.026,2.953
			l-10.94-4.181l-9.021,15.622l9.074,7.372c4.281,3.478,6.205,9.091,4.959,14.464c-1.248,5.381-1.882,10.917-1.882,16.455
			s0.632,11.072,1.881,16.448c1.247,5.373-0.677,10.988-4.958,14.466l-9.074,7.372l9.021,15.621l10.94-4.181
			c5.16-1.972,11-0.827,15.029,2.956c8.067,7.569,17.899,13.253,28.43,16.438c5.29,1.599,9.201,6.079,10.073,11.535L246.98,301.971z
			 M255.999,257.541c-26.341,0-47.77-21.43-47.77-47.771s21.429-47.77,47.77-47.77s47.77,21.429,47.77,47.77
			S282.34,257.541,255.999,257.541z M255.999,190.867c-10.424,0-18.903,8.48-18.903,18.903s8.479,18.905,18.903,18.905
			c10.424,0,18.903-8.48,18.903-18.905C274.902,199.347,266.423,190.867,255.999,190.867z"/>
		<path d="M255.999,471.707c-7.971,0-14.433-6.462-14.433-14.433v-69.952c0-7.971,6.462-14.433,14.433-14.433
			c7.971,0,14.433,6.462,14.433,14.433v69.952C270.432,465.245,263.971,471.707,255.999,471.707z"/>
		<path d="M189.724,442.773c-7.971,0-14.433-6.462-14.433-14.433V395.14
			c-35.021-14.914-65.042-39.11-87.26-70.44c-24.741-34.885-37.818-76.005-37.818-118.914C50.212,92.316,142.527,0,255.999,0
			s205.788,92.316,205.788,205.788c0,70.532-35.511,135.369-94.992,173.438c-6.711,4.297-15.638,2.338-19.937-4.376
			c-4.297-6.714-2.338-15.64,4.376-19.937c51.148-32.737,81.686-88.486,81.686-149.125c0-97.555-79.367-176.922-176.922-176.922
			S79.079,108.233,79.079,205.788c0,73.762,46.473,140.481,115.644,166.021c5.669,2.093,9.434,7.497,9.434,13.54v42.992
			C204.157,436.311,197.695,442.773,189.724,442.773z"/>
		<path style="fill:#ffffff;" d="M189.724,424.678v28.52c0,16.532,13.401,29.934,29.934,29.934h72.686
			c16.532,0,29.934-13.401,29.934-29.934v-28.52H189.724z"/>
		<path d="M292.342,497.565h-72.684c-24.464,0-44.368-19.903-44.368-44.368v-28.52
			c0-7.971,6.462-14.433,14.433-14.433h132.553c7.971,0,14.433,6.462,14.433,14.433v28.52
			C336.71,477.663,316.806,497.565,292.342,497.565z M204.157,439.111v14.087c0,8.547,6.954,15.501,15.501,15.501h72.684
			c8.547,0,15.501-6.954,15.501-15.501v-14.087H204.157z"/>
		<path d="M287.031,512h-62.063c-7.971,0-14.433-6.462-14.433-14.433c0-7.971,6.462-14.433,14.433-14.433
			h62.063c7.971,0,14.433,6.462,14.433,14.433C301.464,505.538,295.002,512,287.031,512z"/>
    </symbol>

    <symbol id="what02" role="img" aria-labelledby="what02_title" viewBox="0 0 512 512">
        <title id="what02_title"></title>
        <path d="M254.764,494.807c-130.868,0-237.338-106.469-237.338-237.338
			c0-130.87,106.469-237.339,237.338-237.339c130.87,0,237.339,106.469,237.339,237.339c0,8.192-6.643,14.836-14.836,14.836
			c-8.192,0-14.836-6.643-14.836-14.836c0-114.509-93.159-207.668-207.668-207.668c-114.507,0-207.666,93.159-207.666,207.668
			c0,114.507,93.159,207.666,207.666,207.666c8.192,0,14.836,6.643,14.836,14.836C269.6,488.163,262.957,494.807,254.764,494.807z"/>
		<path d="M254.764,423.142c-91.352,0-165.673-74.321-165.673-165.673S163.411,91.797,254.764,91.797
			c8.192,0,14.836,6.643,14.836,14.836s-6.643,14.836-14.836,14.836c-74.991,0-136.001,61.01-136.001,136.001
			s61.01,136.001,136.001,136.001s136.001-61.01,136.001-136.001c0-8.192,6.643-14.836,14.836-14.836
			c8.192,0,14.836,6.643,14.836,14.836C420.437,348.821,346.116,423.142,254.764,423.142z"/>
		<circle style="fill:#ffffff;" cx="254.758" cy="257.474" r="79.178"/>
		<path d="M254.764,351.475c-51.834,0-94.006-42.172-94.006-94.006c0-51.836,42.172-94.007,94.006-94.007
			s94.006,42.172,94.006,94.007S306.598,351.475,254.764,351.475z M254.764,193.133c-35.475,0-64.335,28.861-64.335,64.336
			s28.861,64.335,64.335,64.335c35.475,0,64.335-28.86,64.335-64.335S290.239,193.133,254.764,193.133z"/>
		<path d="M254.764,66.541c-8.194,0-14.836-6.643-14.836-14.836V17.313c0-8.192,6.642-14.836,14.836-14.836
			c8.192,0,14.836,6.643,14.836,14.836v34.392C269.6,59.897,262.957,66.541,254.764,66.541z"/>
		<path d="M254.764,512.001c-8.194,0-14.836-6.643-14.836-14.836v-34.392c0-8.192,6.642-14.836,14.836-14.836
			c8.192,0,14.836,6.643,14.836,14.836v34.392C269.6,505.359,262.957,512.001,254.764,512.001z"/>
		<path d="M494.691,272.076h-34.392c-8.192,0-14.836-6.643-14.836-14.836c0-8.192,6.643-14.836,14.836-14.836
			h34.392c8.192,0,14.836,6.643,14.836,14.836C509.526,265.433,502.884,272.076,494.691,272.076z"/>
		<path d="M49.228,272.076h-34.39c-8.194,0-14.836-6.643-14.836-14.836c0-8.192,6.642-14.836,14.836-14.836
			h34.39c8.194,0,14.836,6.643,14.836,14.836C64.064,265.433,57.422,272.076,49.228,272.076z"/>
		<path d="M249.735,277.106c-3.796,0-7.594-1.449-10.49-4.345c-5.793-5.793-5.793-15.187,0-20.982
			l134.277-134.279c5.795-5.792,15.186-5.792,20.982,0c5.793,5.793,5.793,15.187,0,20.982L260.225,272.76
			C257.328,275.658,253.531,277.106,249.735,277.106z"/>
		<polygon style="fill:#ffffff;" points="431.609,154.876 371.806,140.198 357.127,80.396 422.683,14.84 446.783,65.222 
			497.164,89.322 "/>
		<path d="M431.609,169.714c-1.178,0-2.365-0.141-3.537-0.427l-59.804-14.68
			c-5.365-1.317-9.554-5.507-10.872-10.872l-14.68-59.804c-1.237-5.038,0.249-10.357,3.918-14.027l65.556-65.556
			c3.405-3.403,8.24-4.954,12.996-4.132c4.744,0.813,8.802,3.878,10.879,8.22l21.84,45.66l45.66,21.84
			c4.342,2.077,7.407,6.135,8.22,10.879c0.813,4.746-0.727,9.591-4.132,12.996l-65.556,65.556
			C439.284,168.182,435.496,169.714,431.609,169.714z M384.072,127.933l42.957,10.544l44.82-44.82L440.38,78.605
			c-3.056-1.461-5.52-3.926-6.982-6.982l-15.052-31.468l-44.82,44.82L384.072,127.933z"/>
    </symbol>

    <symbol id="what03" role="img" aria-labelledby="what03_title" viewBox="0 0 512 512">
        <title id="what03_title"></title>
        <path d="M255.885,452.641c-50.884,0-100.864-17.445-140.734-49.121
			C17.444,325.888,1.11,183.242,78.737,85.535C121.928,31.175,186.532,0,255.986,0C306.87,0,356.85,17.445,396.72,49.121
			c47.331,37.607,77.185,91.393,84.063,151.452c3.275,28.595,1.202,57.011-6.16,84.454c-4.59,17.112-11.236,33.706-19.753,49.317
			c-3.929,7.201-12.953,9.852-20.153,5.923c-7.201-3.93-9.854-12.952-5.925-20.153c7.391-13.546,13.157-27.942,17.139-42.785
			c6.39-23.822,8.186-48.509,5.338-73.378c-5.974-52.176-31.909-98.903-73.029-131.573c-34.636-27.519-78.055-42.673-122.255-42.673
			c-60.341,0-116.47,27.083-153.99,74.308c-67.438,84.883-53.247,208.805,31.633,276.247c34.638,27.519,78.055,42.673,122.255,42.673
			c8.203,0,14.853,6.651,14.853,14.853S264.087,452.641,255.885,452.641z"/>
		<path d="M255.885,385.801c-35.847,0-71.061-12.293-99.155-34.615
			c-68.852-54.704-80.362-155.22-25.66-224.072c30.436-38.305,75.965-60.274,124.917-60.274c35.847,0,71.061,12.293,99.155,34.615
			c33.353,26.501,54.391,64.402,59.236,106.723c2.424,21.173,0.695,42.161-5.141,62.379c-2.276,7.884-10.512,12.426-18.39,10.152
			c-7.881-2.274-12.426-10.507-10.152-18.388c4.741-16.431,6.145-33.51,4.169-50.764c-3.944-34.439-21.062-65.278-48.202-86.844
			c-22.862-18.164-51.514-28.168-80.677-28.168c-39.839,0-76.892,17.877-101.658,49.047c-44.512,56.026-35.146,137.82,20.879,182.335
			c22.862,18.164,51.514,28.168,80.677,28.168c8.203,0,14.853,6.651,14.853,14.853S264.087,385.801,255.885,385.801z"/>
		<circle style="fill:#ffffff;" cx="255.935" cy="226.318" r="77.786"/>
		<path d="M255.885,318.962c-20.808,0-41.255-7.141-57.577-20.108c-39.995-31.778-46.681-90.166-14.905-130.162
			c17.68-22.252,44.135-35.013,72.583-35.013c20.808,0,41.256,7.141,57.578,20.11c39.995,31.777,46.681,90.165,14.905,130.16
			C310.788,306.2,284.333,318.962,255.885,318.962z M255.986,163.385c-19.336,0-37.314,8.67-49.324,23.787
			c-21.586,27.169-17.044,66.835,10.125,88.423c11.25,8.937,24.769,13.66,39.098,13.66c19.336,0,37.314-8.67,49.324-23.787
			c21.586-27.169,17.044-66.835-10.125-88.423C283.834,168.11,270.315,163.385,255.986,163.385z"/>
		<path style="fill:#ffffff;" d="M353.072,497.147c21.077,0,38.162-17.086,38.162-38.162c0,0,0-96.709,0-97.605
			c0-28.448-23.063-51.511-51.511-51.511l-52.169-0.089v-76.31c0-16.108-12.526-29.827-28.624-30.399
			c-16.9-0.602-30.789,12.921-30.789,29.687v133.327l-7.793-16.246c-4.249-8.863-12.26-13.895-20.526-13.895
			c-3.801,0-7.66,1.069-11.226,3.296c-11.326,7.103-15.479,23.337-9.261,36.276c0,0,25.702,60.181,44.058,99.598
			c6.262,13.448,19.753,22.033,34.587,22.033L353.072,497.147L353.072,497.147z"/>
		<path d="M353.072,512h-95.093c-20.53,0-39.392-12.018-48.052-30.614
			c-17.613-37.825-42.219-95.279-44.136-99.761c-9.306-19.777-2.797-43.86,14.913-54.969c5.845-3.646,12.445-5.565,19.119-5.565
			c4.691,0,9.237,0.916,13.466,2.635v-90.968c0-25.105,20.888-45.44,46.17-44.53c24.083,0.856,42.949,20.728,42.949,45.243v61.483
			l37.342,0.064c36.569,0,66.339,29.77,66.339,66.364v97.606C406.088,488.217,382.305,512,353.072,512z M199.822,350.797
			c-1.123,0-2.255,0.351-3.363,1.043c-4.907,3.078-6.668,11.144-3.737,17.245c0.095,0.198,0.186,0.397,0.272,0.597
			c0.255,0.599,25.821,60.417,43.864,99.163c3.804,8.171,12.095,13.45,21.121,13.45h95.093c12.852,0,23.309-10.457,23.309-23.308
			V361.38c0-20.212-16.444-36.658-36.658-36.658l-52.196-0.091c-8.193-0.015-14.828-6.66-14.828-14.853v-76.31
			c0-8.297-6.414-15.274-14.296-15.554c-8.454-0.349-15.41,6.467-15.41,14.841v133.328c0,6.933-4.798,12.946-11.559,14.483
			c-6.76,1.542-13.687-1.808-16.686-8.059l-7.793-16.246C205.338,352.89,202.605,350.797,199.822,350.797z"/>
    </symbol>

    <symbol id="what04" role="img" aria-labelledby="what04_title" viewBox="0 0 512 512">
        <title id="what04_title"></title>
        <path style="fill:#ffffff;" d="M33.916,319.99c-12.288-23.529-19.245-50.282-19.245-78.663c0-93.988,76.192-170.18,170.18-170.18
			s170.18,76.192,170.18,170.18s-76.192,170.18-170.18,170.18c-35.145,0-67.799-10.655-94.914-28.909l-73.848,16.616L33.916,319.99z"
			/>
		<path d="M184.851,426.178c-34.774,0-68.418-9.631-97.713-27.912L19.31,413.527
			c-4.909,1.1-10.038-0.383-13.595-3.939c-3.556-3.556-5.044-8.688-3.939-13.595l16.673-74.103C6.366,296.935,0,269.201,0,241.327
			C0,139.4,82.923,56.476,184.851,56.476s184.851,82.923,184.851,184.851S286.778,426.178,184.851,426.178z M89.937,367.928
			c2.896,0,5.752,0.857,8.194,2.501c25.663,17.276,55.65,26.407,86.72,26.407c85.749,0,155.509-69.761,155.509-155.509
			S270.6,85.818,184.851,85.818S29.341,155.578,29.341,241.327c0,25.357,5.914,49.537,17.578,71.872
			c1.606,3.076,2.07,6.625,1.309,10.011l-12.736,56.601l51.224-11.525C87.782,368.045,88.863,367.928,89.937,367.928z"/>
		<path d="M341.82,455.525c-9.917,0-19.88-0.866-29.614-2.575c-7.979-1.401-13.314-9.006-11.914-16.987
			c1.4-7.981,9.008-13.314,16.987-11.914c8.063,1.416,16.32,2.133,24.541,2.133c28.138,0,55.297-8.27,78.538-23.916
			c3.348-2.253,7.479-3.027,11.414-2.142l44.857,10.092l-11.198-49.77c-0.763-3.387-0.299-6.935,1.309-10.013
			c10.563-20.227,15.919-42.125,15.919-65.091c0-58.45-35.172-109.96-89.606-131.229c-7.547-2.949-11.274-11.458-8.324-19.004
			c2.949-7.548,11.455-11.271,19.004-8.326c31.546,12.326,58.48,33.593,77.89,61.498c19.873,28.574,30.379,62.136,30.379,97.06
			c0,25.514-5.792,50.9-16.794,73.772l15.139,67.284c1.105,4.907-0.383,10.038-3.939,13.595c-3.556,3.558-8.685,5.045-13.595,3.939
			l-61.476-13.832C404.471,446.754,373.66,455.525,341.82,455.525z"/>
		<path d="M273.854,259.905h-18.582c-8.103,0-14.671-6.568-14.671-14.671c0-8.103,6.568-14.671,14.671-14.671
			h18.582c8.103,0,14.671,6.568,14.671,14.671C288.524,253.337,281.956,259.905,273.854,259.905z"/>
		<path d="M194.875,259.905h-18.582c-8.103,0-14.671-6.568-14.671-14.671c0-8.103,6.568-14.671,14.671-14.671
			h18.582c8.103,0,14.671,6.568,14.671,14.671C209.546,253.337,202.978,259.905,194.875,259.905z"/>
		<path d="M115.899,259.905H97.317c-8.103,0-14.671-6.568-14.671-14.671c0-8.103,6.568-14.671,14.671-14.671
			h18.582c8.103,0,14.671,6.568,14.671,14.671C130.569,253.337,124.001,259.905,115.899,259.905z"/>
    </symbol>

    <symbol id="what05" role="img" aria-labelledby="what05_title" viewBox="0 0 512 512">
        <title id="what05_title"></title>
        <path style="fill:#ffffff;" d="M260.243,15.187v65.074c-9.211-5.015-19.902-7.659-31.25-7.105
			c-29.71,1.45-54.079,25.295-56.121,54.969c-2.38,34.608,24.988,63.421,59.087,63.421c10.242,0,19.877-2.602,28.282-7.178v65.074
			h59.87c-1.765-6.669-2.41-13.792-1.677-21.167c2.851-28.677,26.514-51.417,55.281-53.144c34.368-2.062,62.885,25.199,62.885,59.122
			c0,5.252-0.691,10.341-1.974,15.189h59.87V70.714c0-30.666-24.86-55.527-55.527-55.527H260.243z"/>
		<path d="M494.496,264.629h-59.87c-4.714,0-9.16-2.189-12.035-5.923c-2.875-3.735-3.853-8.593-2.649-13.149
			c0.975-3.683,1.469-7.486,1.469-11.304c0-24.286-19.757-44.044-44.044-44.044c-0.908,0-1.832,0.027-2.743,0.082
			c-21.306,1.279-38.966,18.255-41.077,39.487c-0.503,5.048-0.155,10.071,1.033,14.941c0.486,1.487,0.749,3.072,0.749,4.722
			c0,8.388-6.799,15.187-15.187,15.187c-0.009,0-0.02,0-0.03,0h-59.87c-8.388,0-15.187-6.799-15.187-15.187v-43.87
			c-4.31,0.77-8.696,1.162-13.096,1.162c-20.549,0-40.377-8.617-54.406-23.644c-14.226-15.238-21.268-35.127-19.833-56.007
			c2.583-37.555,32.905-67.261,70.532-69.097c5.686-0.275,11.286,0.087,16.802,1.072v-43.87C245.052,6.799,251.852,0,260.24,0
			h178.727c38.991,0,70.714,31.722,70.714,70.714v178.727C509.684,257.829,502.885,264.629,494.496,264.629z M451.788,234.254h27.521
			V70.714c0-22.244-18.096-40.339-40.339-40.339H275.43v49.886c0,5.358-2.823,10.32-7.43,13.057s-10.314,2.843-15.02,0.282
			c-7.045-3.836-15.083-5.682-23.246-5.273c-21.887,1.068-40.207,19.007-41.709,40.841c-0.852,12.39,3.314,24.178,11.732,33.195
			c8.426,9.026,19.864,13.997,32.203,13.997c7.349,0,14.618-1.842,21.019-5.328c4.705-2.564,10.414-2.456,15.02,0.281
			s7.43,7.699,7.43,13.057v49.886h27.52c0-2.488,0.125-4.983,0.372-7.48c3.572-35.921,33.444-64.641,69.484-66.802
			c1.516-0.091,3.051-0.137,4.562-0.137C418.403,159.834,451.788,193.217,451.788,234.254
			C451.788,234.252,451.788,234.252,451.788,234.254z"/>
		<path d="M134.719,352.145c-1.763,0-3.536-0.061-5.316-0.184c-37.555-2.583-67.261-32.907-69.097-70.532
			c-0.668-13.713,2.421-27.286,8.935-39.252c4.011-7.366,13.234-10.086,20.6-6.076c7.367,4.011,10.087,13.234,6.076,20.6
			c-3.847,7.067-5.671,15.105-5.273,23.246c1.068,21.887,19.007,40.207,40.842,41.709c12.388,0.858,24.177-3.314,33.194-11.732
			c9.026-8.426,13.997-19.864,13.997-32.203c0-7.349-1.842-14.618-5.328-21.019c-4.011-7.367-1.291-16.589,6.075-20.6
			c7.366-4.013,16.589-1.292,20.6,6.075c5.906,10.845,9.027,23.137,9.027,35.545c0,20.549-8.617,40.379-23.644,54.406
			C171.471,345.142,153.639,352.145,134.719,352.145z"/>
		<path d="M82.58,264.629H17.507c-8.388,0-15.187-6.799-15.187-15.187V70.714C2.319,31.722,34.041,0,73.033,0
			h193.916c8.388,0,15.187,6.799,15.187,15.187s-6.799,15.187-15.187,15.187H73.033c-22.243,0-40.339,18.096-40.339,40.339v163.54
			H82.58c8.388,0,15.187,6.799,15.187,15.187C97.768,257.829,90.968,264.629,82.58,264.629z"/>
		<path d="M261.116,512H73.033c-38.991,0-70.714-31.722-70.714-70.714V247.37
			c0-8.388,6.799-15.187,15.187-15.187s15.187,6.799,15.187,15.187v193.916c0,22.243,18.096,40.339,40.339,40.339h172.895v-49.886
			c0-5.358,2.823-10.32,7.43-13.057c4.606-2.738,10.314-2.843,15.02-0.283c7.067,3.847,15.111,5.683,23.246,5.273
			c21.887-1.068,40.207-19.007,41.709-40.841c0.852-12.39-3.314-24.178-11.732-33.195c-8.426-9.026-19.864-13.997-32.203-13.997
			c-7.349,0-14.618,1.842-21.021,5.329c-7.364,4.009-16.591,1.291-20.6-6.077c-4.011-7.367-1.291-16.589,6.077-20.6
			c10.845-5.905,23.137-9.026,35.545-9.026c20.549,0,40.377,8.617,54.406,23.644c14.226,15.238,21.268,35.127,19.833,56.007
			c-2.583,37.555-32.905,67.261-70.532,69.097c-5.657,0.273-11.295-0.088-16.802-1.069v43.867
			C276.303,505.201,269.504,512,261.116,512z"/>
    </symbol>

    <symbol id="what06" role="img" aria-labelledby="what06_title" viewBox="0 0 512 512">
        <title id="what06_title"></title>
        <path d="M256,420.13c-0.371,0-0.728-0.005-1.088-0.017c-47.695-0.299-92.811-21.292-123.815-57.624
			C105.801,332.848,91.87,295.03,91.87,256.002c0-33.515,10.037-65.754,29.025-93.226c18.541-26.827,44.302-47.349,74.499-59.35
			c19.301-7.667,39.691-11.554,60.606-11.554c32.395,0,63.744,9.437,90.656,27.292c46.008,30.533,73.474,81.687,73.474,136.839
			c0,6.385-0.378,12.861-1.124,19.246c-4.194,35.957-20.565,70.032-46.099,95.946c-5.889,5.978-15.505,6.047-21.48,0.158
			c-5.977-5.887-6.045-15.505-0.158-21.48c20.809-21.119,34.15-48.872,37.563-78.148c0.609-5.222,0.919-10.512,0.919-15.724
			c0-44.946-22.389-86.637-59.892-111.526c-21.916-14.539-47.457-22.226-73.86-22.226c-17.057,0-33.676,3.165-49.389,9.408
			c-51.248,20.367-84.363,69.176-84.363,124.342c0,31.804,11.349,62.622,31.956,86.769c25.325,29.676,62.19,46.796,101.146,46.968
			c0.202,0.002,0.404,0.006,0.605,0.015c8.348,0.049,15.165,6.831,15.165,15.189C271.121,413.329,264.387,420.13,256,420.13z"/>
		<path style="fill:#ffffff;" d="M322.621,179.646c-29.505,17.193-29.787,62.187-45.043,80.218
			c-15.256,18.048-78.742-26.519-76.834-54.009c1.891-27.491-7.002-24.043-12.083-28.344c-3.234-2.731,13.974-37.696,12.343-58.445
			c17.01-6.758,35.576-12.005,54.997-12.005c30.404,0,58.688,10.649,82.258,26.285C339.646,151.911,337.344,171.072,322.621,179.646z"
			/>
		<path d="M266.976,279.233c-21.36,0-47.574-17.669-62.892-34.086c-9.041-9.691-19.588-24.555-18.491-40.344
			c0.451-6.554,0.125-10.023-0.166-11.662c-1.738-0.799-4.151-1.987-6.58-4.042c-9.115-7.693-5.869-17.7-0.957-32.846
			c3.462-10.676,8.696-26.813,7.973-35.995c-0.524-6.642,3.342-12.848,9.533-15.309c22.153-8.801,41.978-13.078,60.604-13.078
			c30.89,0,62.239,9.966,90.656,28.818c3.908,2.593,6.401,6.847,6.749,11.524c2.24,29.938-5.546,50.312-23.139,60.559
			c-13.237,7.713-19.134,25.314-24.837,42.335c-4.381,13.073-8.517,25.424-16.252,34.569
			C285.491,274.033,278.644,279.233,266.976,279.233z M205.419,169.864c8.784,6.966,11.779,18.13,10.477,37.034
			c-0.144,2.06,1.847,8.36,10.397,17.524c13.397,14.36,32.119,24.378,40.61,24.433c3.583-5.084,6.7-14.383,9.72-23.399
			c6.786-20.255,15.23-45.462,38.349-58.934c6.674-3.887,8.45-14.416,8.436-24.585c-21.617-12.903-44.779-19.69-67.409-19.69
			c-12.414,0-25.364,2.406-40.18,7.509c-1.414,12.364-5.688,25.547-9.034,35.866C206.357,166.942,205.879,168.415,205.419,169.864z"/>
		<path style="fill:#ffffff;" d="M256,405.376c-45.095-0.199-86.178-22.433-113.349-54.272c18.323-22.533,56.807-13.123,68.087-36.08
			C230.043,275.728,291.536,352.407,256,405.376z"/>
		<path d="M256,420.565c-0.023,0-0.044,0-0.067,0c-47.188-0.208-92.688-21.932-124.836-59.6
			c-4.759-5.576-4.856-13.755-0.231-19.442c12.092-14.872,29.587-19.24,43.641-22.749c12.341-3.082,20.034-5.234,22.595-10.447
			c6.024-12.259,16.369-19.29,28.388-19.29c16.305,0,33.553,13.347,45.01,34.833c12.519,23.473,18.596,59.435-1.89,89.968
			C265.791,418.043,261.061,420.565,256,420.565z M165.572,353.096c22.85,21.224,52.099,34.428,81.746,36.73
			c7.98-17.815,3.755-37.835-3.62-51.663c-7.187-13.479-15.312-18.301-17.875-18.717c-0.314,0.337-0.854,1.048-1.455,2.275
			c-8.911,18.139-27.538,22.79-42.502,26.526C176.072,349.694,170.443,351.099,165.572,353.096z"/>
		<path style="fill:#ffffff;" d="M402.392,273.483c-3.935,33.761-17.461,64.058-40.116,87.049
			c-25.966-5.339-31.127-28.732-45.254-44.913c-33.167-37.992,27.322-46.53,61.022-46.53
			C387.29,269.09,394.537,270.661,402.392,273.483z"/>
		<path d="M362.277,375.72c-1.018,0-2.043-0.102-3.061-0.311c-24.65-5.07-35.442-22.293-44.115-36.133
			c-3.155-5.032-6.135-9.788-9.522-13.667c-16.213-18.572-14.776-33.118-10.716-42.053c11.727-25.803,57.149-29.657,83.182-29.657
			c10.345,0,19.161,1.581,29.48,5.287c6.647,2.386,10.771,9.039,9.953,16.053c-4.402,37.772-19.75,70.951-44.384,95.951
			C370.211,374.119,366.3,375.72,362.277,375.72z M322.592,295.993c0.067,0.614,0.664,3.67,5.872,9.637
			c4.968,5.69,8.735,11.702,12.378,17.516c6.003,9.578,10.367,16.11,16.94,19.775c13.568-16.148,22.902-35.954,27.447-58.205
			c-2.303-0.301-4.645-0.437-7.184-0.437C345.341,284.278,325.065,291.716,322.592,295.993z"/>
		<path d="M256,512c-68.38,0-132.668-26.63-181.019-74.981S0,324.38,0,256S26.63,123.332,74.981,74.981
			S187.62,0,256,0s132.668,26.63,181.019,74.981c5.931,5.931,5.931,15.549,0,21.482c-5.933,5.931-15.548,5.928-21.482,0
			C372.924,53.847,316.266,30.378,256,30.378S139.076,53.847,96.463,96.463C53.847,139.076,30.378,195.734,30.378,256
			s23.469,116.924,66.085,159.537c42.615,42.616,99.271,66.085,159.537,66.085s116.924-23.469,159.537-66.085
			c42.616-42.615,66.085-99.271,66.085-159.537c0-8.387,6.802-15.189,15.189-15.189S512,247.613,512,256
			c0,68.381-26.628,132.668-74.981,181.019C388.668,485.37,324.38,512,256,512z"/>
		<circle style="fill:#ffffff;" cx="85.727" cy="85.727" r="37.774"/>
		<path d="M85.723,138.686c-14.147,0-27.448-5.509-37.452-15.513c-20.651-20.651-20.651-54.252,0-74.902
			c10.004-10.004,23.305-15.513,37.452-15.513c14.146,0,27.447,5.509,37.45,15.513c20.651,20.651,20.651,54.252,0,74.902
			C113.169,133.176,99.868,138.686,85.723,138.686z M85.723,63.135c-6.035,0-11.705,2.35-15.971,6.615
			c-8.807,8.807-8.807,23.133,0,31.94c4.267,4.267,9.937,6.615,15.971,6.615c6.033,0,11.703-2.35,15.97-6.615
			c8.807-8.807,8.807-23.133,0-31.94C97.426,65.485,91.754,63.135,85.723,63.135z"/>
		<circle style="fill:#ffffff;" cx="426.282" cy="426.282" r="37.774"/>
		<path d="M426.279,479.243c-14.147,0-27.448-5.509-37.452-15.513c-20.651-20.651-20.651-54.252,0-74.902
			c10.004-10.004,23.305-15.513,37.452-15.513c14.146,0,27.447,5.509,37.45,15.513c20.651,20.651,20.651,54.252,0,74.902
			C453.727,473.734,440.426,479.243,426.279,479.243z M426.279,403.693c-6.035,0-11.705,2.35-15.971,6.615
			c-8.807,8.807-8.807,23.133,0,31.94c4.267,4.267,9.937,6.615,15.971,6.615c6.033,0,11.703-2.35,15.97-6.615
			c8.807-8.807,8.807-23.133,0-31.94C437.984,406.042,432.312,403.693,426.279,403.693z"/>
		<circle style="fill:#ffffff;" cx="426.282" cy="85.727" r="37.774"/>
		<path d="M426.279,138.686c-14.147,0-27.448-5.509-37.452-15.513c-20.651-20.651-20.651-54.252,0-74.902
			c10.004-10.004,23.305-15.513,37.452-15.513c14.146,0,27.447,5.509,37.45,15.513c20.651,20.651,20.651,54.252,0,74.902
			C453.727,133.176,440.426,138.686,426.279,138.686z M426.279,63.135c-6.035,0-11.705,2.35-15.971,6.615
			c-8.807,8.807-8.807,23.133,0,31.94c4.267,4.267,9.937,6.615,15.971,6.615c6.033,0,11.703-2.35,15.97-6.615
			c8.807-8.807,8.807-23.133,0-31.94C437.984,65.485,432.312,63.135,426.279,63.135z"/>
		<circle style="fill:#ffffff;" cx="85.727" cy="426.282" r="37.774"/>
		<path d="M85.723,479.243c-14.147,0-27.448-5.509-37.452-15.513c-20.651-20.651-20.651-54.252,0-74.902
			c10.004-10.004,23.305-15.513,37.452-15.513c14.146,0,27.447,5.509,37.45,15.513c20.651,20.651,20.651,54.252,0,74.902
			C113.169,473.734,99.868,479.243,85.723,479.243z M85.723,403.693c-6.035,0-11.705,2.35-15.971,6.615
			c-8.807,8.807-8.807,23.133,0,31.94c4.267,4.267,9.937,6.615,15.971,6.615c6.033,0,11.703-2.35,15.97-6.615
			c8.807-8.807,8.807-23.133,0-31.94C97.426,406.042,91.754,403.693,85.723,403.693z"/>
    </symbol>

    <symbol id="check01" role="img" aria-labelledby="check01_title" viewBox="0 0 504.1 504.1">
        <title id="check01_title"></title>
        <path d="M480.1,144.7L256.4,365.9c-3.5,3.5-8.3,4.7-13,4.3c-4.7,0.4-9.5-0.8-13-4.3L98.9,235.5
			c-5.9-5.9-5.9-15.8,0-21.7l39.4-39c6.3-5.9,16.1-5.9,22.1,0l82.3,81.1L424.4,68.2C379.3,25.9,318.7,0,252.1,0
			C112.9,0,0,112.9,0,252.1s112.9,252.1,252.1,252.1s252.1-112.9,252.1-252.1C504.1,213.6,495.5,177.3,480.1,144.7z"/>
    </symbol>

	<symbol id="trade01" role="img" aria-labelledby="trade01_title" viewBox="0 0 512 512">
        <title id="trade01_title"></title>
        <polygon points="97.409,61.893 255.999,61.893 149.583,193.179 	"/>
		<polygon points="414.589,61.893 255.999,61.893 362.415,193.179 	"/>
		<polygon points="146.993,194.664 255.999,446.434 365.006,194.664 	"/>
		<path style="fill:#003B5C;" d="M511.985,194.034c0.017-2.515-0.654-5.029-2.054-7.225L425.782,54.76
			c-0.038-0.061-0.085-0.114-0.123-0.174c-0.032-0.048-0.054-0.1-0.086-0.146c-0.066-0.098-0.147-0.183-0.216-0.279
			c-0.202-0.281-0.411-0.555-0.63-0.816c-0.107-0.127-0.216-0.252-0.329-0.376c-0.249-0.275-0.508-0.535-0.776-0.784
			c-0.096-0.089-0.187-0.181-0.284-0.265c-0.76-0.668-1.585-1.24-2.458-1.708c-0.1-0.053-0.202-0.098-0.303-0.149
			c-0.337-0.17-0.681-0.328-1.03-0.468c-0.147-0.06-0.296-0.114-0.445-0.169c-0.328-0.118-0.66-0.222-0.995-0.315
			c-0.146-0.04-0.292-0.084-0.439-0.119c-0.472-0.113-0.948-0.206-1.429-0.267c-0.005,0-0.009-0.001-0.015-0.003
			c-0.502-0.062-1.007-0.089-1.514-0.093c-0.04,0-0.078-0.007-0.118-0.007H255.999H97.409c-4.398,0-8.511,2.179-10.981,5.818
			c-2.47,3.64-2.977,8.267-1.352,12.355l45.255,113.875H37.457l29.313-46.001c3.939-6.182,2.122-14.385-4.06-18.324
			c-6.182-3.939-14.384-2.123-18.324,4.06L2.069,186.81c-1.403,2.2-2.074,4.717-2.054,7.236c-0.162,3.486,1.033,7.031,3.626,9.761
			l242.738,255.441c0.072,0.076,0.151,0.139,0.224,0.212c0.077,0.077,0.145,0.161,0.223,0.236c0.098,0.093,0.203,0.173,0.303,0.263
			c0.161,0.145,0.321,0.287,0.487,0.422c0.183,0.15,0.37,0.291,0.559,0.429c0.17,0.125,0.34,0.248,0.515,0.364
			c0.199,0.131,0.402,0.252,0.605,0.372c0.173,0.101,0.344,0.204,0.52,0.297c0.218,0.115,0.441,0.218,0.664,0.32
			c0.17,0.078,0.338,0.159,0.511,0.23c0.24,0.098,0.484,0.18,0.729,0.264c0.162,0.056,0.322,0.117,0.487,0.165
			c0.265,0.08,0.535,0.141,0.804,0.203c0.147,0.035,0.293,0.076,0.443,0.105c0.301,0.058,0.604,0.098,0.908,0.135
			c0.121,0.015,0.242,0.038,0.362,0.05c0.425,0.041,0.851,0.064,1.277,0.064h0.001h0.001c0.425,0,0.849-0.023,1.273-0.062
			c0.119-0.012,0.239-0.036,0.358-0.05c0.303-0.037,0.605-0.076,0.905-0.134c0.15-0.029,0.297-0.07,0.446-0.105
			c0.267-0.061,0.534-0.122,0.796-0.2c0.165-0.049,0.326-0.11,0.488-0.165c0.242-0.082,0.483-0.163,0.721-0.26
			c0.174-0.07,0.344-0.153,0.515-0.23c0.22-0.101,0.439-0.2,0.656-0.315c0.178-0.093,0.35-0.196,0.524-0.297
			c0.202-0.118,0.402-0.236,0.6-0.366c0.175-0.115,0.345-0.239,0.515-0.362c0.188-0.137,0.374-0.276,0.557-0.425
			c0.165-0.134,0.324-0.273,0.483-0.415c0.1-0.089,0.206-0.169,0.304-0.261c0.08-0.076,0.149-0.159,0.226-0.238
			c0.073-0.073,0.151-0.135,0.223-0.21l122.146-127.72c5.066-5.297,4.879-13.698-0.418-18.765c-5.298-5.067-13.699-4.877-18.765,0.418
			l-73.842,77.211l79.323-183.21h94.601l-36.481,38.638c-5.033,5.33-4.791,13.73,0.539,18.761c2.564,2.422,5.84,3.622,9.108,3.622
			c3.525,0,7.042-1.395,9.653-4.161l56.933-60.299C510.965,201.045,512.15,197.509,511.985,194.034z M255.999,83.044l78.675,97.626
			h-157.35L255.999,83.044z M137.964,207.214l79.065,182.616L43.495,207.214H137.964z M417.34,90.907l57.203,89.764h-92.875
			L417.34,90.907z M395.033,75.165l-36.581,92.048l-74.611-92.048H395.033z M228.158,75.165l-74.611,92.048l-36.581-92.048H228.158z
			 M255.999,413.03l-88.797-205.094h177.595L255.999,413.03z"/>
    </symbol>

    <symbol id="trade02" role="img" aria-labelledby="trade02_title" viewBox="0 0 512 512">
        <title id="trade02_title"></title>
        <circle cx="256.008" cy="280.395" r="150.734"/>
		<path style="fill:#003B5C;" d="M217.384,227.031c16.934,0,34.015,10.657,34.015,30.22c0,31.68-45.111,42.045-45.111,55.33v1.314
			h38.25c3.649,0,6.861,4.526,6.861,9.781s-3.211,10.073-6.861,10.073h-51.973c-4.087,0-9.927-2.773-9.927-7.008v-14.161
			c0-22.92,45.987-36.06,45.987-54.6c0-4.672-2.919-10.365-11.095-10.365c-5.838,0-10.949,2.919-10.949,10.949
			c0,4.235-4.526,8.322-11.972,8.322c-5.84,0-10.219-2.629-10.219-11.826C184.391,237.249,200.742,227.031,217.384,227.031z"/>
		<path style="fill:#003B5C;" d="M293.302,311.266H259.14c-4.233,0-7.591-2.773-7.591-7.883c0-1.168,0.292-2.775,1.168-4.379
			l33.723-66.133c2.189-4.233,5.84-5.84,9.489-5.84c3.941,0,11.388,3.357,11.388,8.613c0,0.876-0.292,1.752-0.73,2.773
			l-25.839,51.827h12.554v-10.219c0-4.818,5.694-6.861,11.388-6.861s11.388,2.044,11.388,6.861v10.219h6.278
			c4.672,0,7.008,5.256,7.008,10.511c0,5.254-3.505,10.51-7.008,10.51h-6.278v15.475c0,4.673-5.694,7.008-11.388,7.008
			s-11.388-2.335-11.388-7.008v-15.474H293.302z"/>
		<path style="fill:#003B5C;" d="M473.008,265.786c-8.065,0-14.603,6.538-14.603,14.603c0,111.606-90.798,202.406-202.406,202.406
			S53.595,391.996,53.595,280.389S144.393,77.985,256.001,77.985c44.436,0,87.346,14.551,122.436,41.233l-26.546,26.546
			c-27.063-19.332-60.171-30.719-95.89-30.719c-91.17,0-165.344,74.172-165.344,165.344s74.172,165.344,165.344,165.344
			s165.344-74.172,165.344-165.344c0-37.329-12.44-71.804-33.386-99.509l80.046,21.448c1.25,0.334,2.519,0.498,3.779,0.498
			c0.055,0,0.111,0,0.166,0c8.001-0.073,14.466-6.583,14.466-14.603c0-1.647-0.273-3.232-0.775-4.708L455.946,72.689
			c-1.351-5.04-5.286-8.975-10.326-10.326c-5.042-1.351-10.418,0.091-14.107,3.779l-32.26,32.26
			c-36.911-29.081-81.727-46.203-128.649-49.154V29.206h17.717c8.065,0,14.603-6.538,14.603-14.603S296.386,0,288.32,0h-64.639
			c-8.065,0-14.603,6.538-14.603,14.603s6.538,14.603,14.603,14.603h17.717v20.046C120.466,56.815,24.389,157.584,24.389,280.389
			c0,127.71,103.9,231.612,231.612,231.612s231.612-103.9,231.612-231.612C487.611,272.324,481.073,265.786,473.008,265.786z
			 M256.001,416.527c-75.066,0-136.138-61.072-136.138-136.138s61.07-136.138,136.138-136.138s136.138,61.07,136.138,136.138
			S331.067,416.527,256.001,416.527z M434.28,104.68l16.852,62.891l-62.891-16.852L434.28,104.68z"/>
    </symbol>
  
    <symbol id="trade03" role="img" aria-labelledby="trade03_title" viewBox="0 0 512 512">
        <title id="trade03_title"></title>
        <path style="fill:#003B5C;" d="M256.001,512.001c-1.816,0-3.633-0.352-5.344-1.058c-1.955-0.804-48.404-20.076-95.599-51.396
			C89.065,415.75,55.602,371.28,55.602,327.373V71.769c0-4.779,2.433-9.231,6.457-11.811c4.024-2.577,9.085-2.935,13.428-0.94
			c13.865,6.364,28.692,9.592,44.066,9.592c40.666,0,78.205-23.78,95.631-60.583C217.505,3.126,222.442,0,227.865,0h56.27
			c5.423,0,10.361,3.126,12.681,8.027c6.359,13.429,15.311,25.183,26.604,34.932c5.866,5.064,6.517,13.924,1.454,19.789
			c-5.062,5.865-13.924,6.517-19.789,1.454c-11.978-10.339-21.873-22.468-29.497-36.14h-39.182
			c-23.494,41.954-68.418,68.607-116.852,68.607c-12.277,0-24.285-1.63-35.889-4.862v235.565
			c0,66.803,119.627,132.572,172.336,155.364c52.705-22.791,172.336-88.561,172.336-155.364V91.811
			c-11.605,3.231-23.611,4.862-35.889,4.862c-7.748,0-14.031-6.283-14.031-14.031s6.283-14.031,14.031-14.031
			c15.374,0,30.2-3.227,44.066-9.592c4.344-1.997,9.405-1.639,13.428,0.94c4.023,2.58,6.457,7.032,6.457,11.811v255.603
			c0,43.907-33.463,88.377-99.456,132.175c-47.195,31.32-93.644,50.592-95.599,51.396
			C259.634,511.649,257.817,512.001,256.001,512.001z"/>
		<path d="M256.001,413.69c-14.411-7.31-33.637-17.817-52.472-30.426
			c-44.363-29.699-56.858-51.111-57.843-56.535v-170.15c41.216-5.664,80.263-24.703,110.315-53.749
			c30.052,29.046,69.099,48.084,110.315,53.749v170.148c-0.986,5.424-13.48,26.836-57.843,56.535
			C289.638,395.874,270.413,406.382,256.001,413.69z"/>
		<path style="fill:#003B5C;"  d="M256.001,427.721c-2.176,0-4.352-0.505-6.346-1.517c-13.56-6.877-33.923-17.887-53.93-31.281
			c-43.617-29.201-61.651-53.635-63.844-65.685c-0.15-0.828-0.226-1.668-0.226-2.51V156.58c0-7.011,5.175-12.946,12.12-13.901
			c38.197-5.25,74.589-22.986,102.474-49.938c5.44-5.256,14.063-5.256,19.503,0c27.885,26.952,64.279,44.687,102.474,49.938
			c6.944,0.956,12.12,6.889,12.12,13.901v170.147c0,0.842-0.076,1.682-0.226,2.51c-2.193,12.051-20.227,36.485-63.843,65.685
			c-20.008,13.394-40.37,24.404-53.931,31.281C260.354,427.216,258.178,427.721,256.001,427.721z M159.718,324.396
			c2.854,5.837,16.472,23.68,51.619,47.209c15.955,10.68,32.236,19.795,44.665,26.301c12.429-6.506,28.71-15.621,44.666-26.301
			c35.145-23.53,48.763-41.372,51.617-47.209V168.442c-35.301-7.024-68.763-23.248-96.284-46.677
			c-27.52,23.428-60.983,39.653-96.284,46.677V324.396z"/>
		<path style="fill:#003B5C;" d="M249.868,302.227c-3.592,0-7.181-1.371-9.921-4.11l-41.06-41.06c-5.479-5.479-5.479-14.364,0-19.844
			c5.481-5.478,14.362-5.478,19.844,0l31.138,31.138l54.467-54.467c5.481-5.478,14.362-5.478,19.844,0
			c5.479,5.479,5.479,14.364,0,19.844l-64.39,64.39C257.05,300.857,253.46,302.227,249.868,302.227z"/>
    </symbol>

    <symbol id="platform01" role="img" aria-labelledby="platform01_title" viewBox="0 0 512 512">
        <title id="platform01_title"></title>
        <polygon points="497.116,299.826 497.116,421.873 318.512,421.873 271.379,360.105 318.512,299.826 	"/>
		<path d="M444.693,106.338l22.211,60.011H38.55l-3.971-10.728l133.156-49.281H76.563
			c-34.064-0.001-61.68,27.614-61.68,61.678l0,0c0,34.064,27.615,61.68,61.68,61.68h420.553V106.338H444.693z"/>
		<path style="fill:#003B5C;" d="M76.563,244.581h420.553c8.219,0,14.884-6.665,14.884-14.884V106.338
			c0-8.219-6.665-14.884-14.884-14.884h-42.063l-29.77-80.436c-1.369-3.702-4.154-6.708-7.741-8.357
			c-3.584-1.649-7.681-1.802-11.382-0.435L250.834,59.713c-7.708,2.853-11.645,11.414-8.792,19.124
			c2.853,7.711,11.414,11.642,19.124,8.792L402.533,35.31l42.99,116.157H88.688l84.214-31.168c0.454-0.168,0.893-0.36,1.322-0.567
			c0.147-0.07,0.284-0.152,0.429-0.226c0.274-0.144,0.545-0.289,0.807-0.447c0.168-0.103,0.329-0.213,0.491-0.32
			c0.223-0.149,0.445-0.298,0.659-0.457c0.167-0.124,0.327-0.253,0.488-0.383c0.196-0.159,0.39-0.323,0.577-0.493
			c0.155-0.14,0.308-0.281,0.457-0.427c0.182-0.179,0.356-0.362,0.528-0.548c0.135-0.149,0.272-0.295,0.403-0.448
			c0.176-0.207,0.341-0.421,0.506-0.637c0.109-0.143,0.222-0.281,0.324-0.429c0.191-0.269,0.365-0.549,0.537-0.831
			c0.063-0.101,0.131-0.199,0.191-0.304c0.229-0.397,0.441-0.804,0.633-1.219c0.015-0.031,0.025-0.063,0.039-0.094
			c0.173-0.381,0.33-0.771,0.47-1.167c0.046-0.128,0.08-0.259,0.122-0.388c0.098-0.302,0.192-0.604,0.269-0.912
			c0.042-0.165,0.076-0.333,0.112-0.5c0.06-0.274,0.116-0.548,0.161-0.826c0.031-0.193,0.055-0.388,0.077-0.583
			c0.03-0.253,0.055-0.506,0.071-0.761c0.015-0.217,0.024-0.433,0.03-0.65c0.006-0.237,0.003-0.475-0.003-0.713
			c-0.006-0.231-0.013-0.461-0.03-0.694c-0.016-0.232-0.045-0.464-0.071-0.698c-0.028-0.231-0.054-0.463-0.092-0.694
			c-0.009-0.058-0.013-0.115-0.022-0.171c-0.039-0.214-0.095-0.421-0.143-0.631c-0.042-0.186-0.076-0.372-0.125-0.558
			c-0.249-0.939-0.583-1.837-0.997-2.689c-0.055-0.113-0.118-0.219-0.176-0.33c-0.155-0.301-0.316-0.597-0.49-0.884
			c-0.098-0.161-0.202-0.316-0.305-0.472c-0.147-0.223-0.296-0.444-0.455-0.656c-0.127-0.173-0.259-0.339-0.393-0.505
			c-0.15-0.186-0.307-0.369-0.466-0.548c-0.147-0.165-0.296-0.329-0.451-0.487c-0.165-0.17-0.336-0.33-0.509-0.493
			c-0.158-0.147-0.314-0.296-0.478-0.435c-0.201-0.171-0.411-0.332-0.619-0.491c-0.146-0.112-0.287-0.229-0.438-0.336
			c-0.345-0.244-0.701-0.475-1.066-0.689c-0.021-0.012-0.04-0.027-0.061-0.039c-0.396-0.231-0.805-0.441-1.222-0.634
			c-0.1-0.046-0.204-0.083-0.305-0.128c-0.314-0.137-0.631-0.269-0.956-0.385c-0.153-0.055-0.311-0.1-0.466-0.149
			c-0.272-0.088-0.546-0.173-0.825-0.244c-0.196-0.051-0.394-0.092-0.592-0.134c-0.24-0.052-0.478-0.1-0.722-0.14
			c-0.234-0.037-0.467-0.067-0.704-0.094c-0.21-0.024-0.42-0.045-0.631-0.06c-0.262-0.019-0.524-0.031-0.787-0.034
			c-0.091-0.001-0.18-0.012-0.272-0.012h-91.17c-41.137,0-74.785,32.613-76.481,73.34C0.028,165.306,0,165.824,0,166.349v267.788
			c0,42.216,34.346,76.562,76.563,76.562h420.553c8.219,0,14.884-6.665,14.884-14.884v-73.942V299.826
			c0-8.219-6.665-14.884-14.884-14.884H318.512c-4.58,0-8.903,2.108-11.725,5.715l-47.132,60.278c-0.138,0.176-0.259,0.36-0.387,0.542
			c-0.094,0.131-0.194,0.26-0.283,0.396c-0.201,0.302-0.384,0.61-0.56,0.923c-0.055,0.095-0.113,0.189-0.165,0.287
			c-0.198,0.369-0.378,0.746-0.543,1.127c-0.071,0.165-0.131,0.336-0.196,0.503c-0.097,0.25-0.192,0.5-0.275,0.753
			c-0.063,0.188-0.116,0.378-0.17,0.57c-0.071,0.25-0.137,0.5-0.194,0.753c-0.043,0.186-0.083,0.374-0.119,0.564
			c-0.055,0.293-0.098,0.589-0.135,0.884c-0.019,0.153-0.043,0.302-0.058,0.457c-0.043,0.455-0.068,0.914-0.07,1.371
			c0,0.013-0.001,0.025-0.001,0.039c0,0.068,0.009,0.135,0.01,0.205c0.006,0.378,0.024,0.758,0.057,1.134
			c0.015,0.17,0.037,0.336,0.058,0.503c0.036,0.283,0.077,0.566,0.129,0.847c0.034,0.186,0.07,0.371,0.11,0.554
			c0.06,0.265,0.13,0.527,0.202,0.789c0.051,0.177,0.095,0.356,0.152,0.53c0.103,0.319,0.222,0.631,0.345,0.944
			c0.063,0.156,0.124,0.313,0.192,0.466c0.152,0.347,0.314,0.689,0.494,1.025c0.082,0.153,0.173,0.298,0.26,0.448
			c0.14,0.241,0.281,0.482,0.435,0.716c0.101,0.155,0.21,0.304,0.317,0.455c0.098,0.137,0.186,0.278,0.289,0.412l47.132,61.769
			c2.816,3.69,7.192,5.855,11.833,5.855h163.721v44.175H76.563c-25.802,0-46.796-20.992-46.796-46.794V228.552
			C42.718,238.587,58.95,244.581,76.563,244.581z M482.233,121.221v30.242h-4.968l-11.193-30.242H482.233z M76.563,121.221h8.077
			l-43.31,16.03C49.916,127.432,62.528,121.221,76.563,121.221z M38.549,181.233h428.353h15.33v33.582H76.563
			c-21.215,0-39.178-14.192-44.895-33.582L38.549,181.233L38.549,181.233z M325.876,406.989l-24.418-32.001h30.449
			c8.219,0,14.884-6.665,14.884-14.884s-6.665-14.884-14.884-14.884h-29.995l23.856-30.51h156.465v92.279H325.876z"/>
    </symbol>

    <symbol id="platform02" role="img" aria-labelledby="platform02_title" viewBox="0 0 512 512">
        <title id="platform02_title"></title>
        <path style="fill:#003B5C;" d="M340.41,225.225c-3.649,0-7.298-1.393-10.082-4.176l-40.65-40.65
			c-2.673-2.675-4.176-6.301-4.176-10.082c0-3.781,1.503-7.407,4.176-10.082L417.439,32.472c5.568-5.567,14.597-5.567,20.166,0
			c5.568,5.568,5.568,14.597,0,20.166l-117.68,117.678l20.485,20.485l34.001-34.001c5.568-5.567,14.595-5.565,20.165,0
			c5.568,5.568,5.568,14.597,0,20.166l-44.083,44.082C347.709,223.831,344.06,225.225,340.41,225.225z"/>
		<polygon points="349.852,48.611 497.713,14.275 463.376,162.136 "/>
		<path style="fill:#003B5C;" d="M463.378,176.394c-3.73,0-7.372-1.464-10.084-4.176L339.769,58.693
			c-3.662-3.663-5.05-9.024-3.626-14.003c1.424-4.981,5.437-8.796,10.483-9.968L494.487,0.384c4.795-1.115,9.826,0.325,13.308,3.807
			c3.481,3.481,4.921,8.512,3.806,13.308L477.264,165.36c-1.172,5.046-4.988,9.06-9.968,10.484
			C466.004,176.215,464.685,176.394,463.378,176.394z M378.095,56.69l77.202,77.202l23.35-100.552L378.095,56.69z"/>
		<path style="fill:#003B5C;" d="M84.45,483.706c-3.649,0-7.299-1.393-10.082-4.176c-5.568-5.568-5.568-14.597,0-20.166
			l117.68-117.678L171.561,321.2l-34.001,34.001c-5.567,5.569-14.595,5.567-20.165,0c-5.568-5.568-5.568-14.597,0-20.166
			l44.084-44.082c5.567-5.567,14.595-5.567,20.165,0l40.65,40.65c2.673,2.675,4.176,6.301,4.176,10.082
			c0,3.781-1.503,7.407-4.176,10.082L94.532,479.529C91.749,482.314,88.098,483.706,84.45,483.706z"/>
		<polygon points="162.119,463.391 14.258,497.728 48.595,349.867 "/>
		<path style="fill:#003B5C;" d="M14.258,511.986c-3.739,0-7.377-1.472-10.082-4.176c-3.481-3.481-4.921-8.512-3.806-13.308
			l34.336-147.861c1.172-5.046,4.988-9.06,9.968-10.484c4.982-1.423,10.342-0.034,14.003,3.626l113.525,113.525
			c3.662,3.663,5.05,9.024,3.626,14.003c-1.424,4.981-5.437,8.796-10.483,9.968L17.484,511.617
			C16.414,511.865,15.332,511.986,14.258,511.986z M56.674,378.112l-23.35,100.552l100.552-23.35L56.674,378.112z"/>
		<path style="fill:#003B5C;" d="M469.432,441.796c-3.65,0-7.298-1.393-10.082-4.176L341.671,319.942l-20.485,20.484l34,34
			c5.568,5.568,5.568,14.597,0,20.166c-5.568,5.567-14.597,5.567-20.166,0l-44.082-44.082c-2.673-2.675-4.176-6.301-4.176-10.082
			c0-3.781,1.503-7.407,4.176-10.082l40.65-40.65c5.568-5.567,14.597-5.565,20.165,0l127.76,127.762
			c5.568,5.568,5.568,14.597,0,20.166C476.73,440.403,473.081,441.796,469.432,441.796z"/>
		<polygon points="463.376,349.867 497.713,497.728 349.852,463.391 "/>
		<path style="fill:#003B5C;" d="M497.713,511.986c-1.074,0-2.156-0.121-3.225-0.369l-147.861-34.336
			c-5.046-1.172-9.059-4.988-10.483-9.968c-1.424-4.979-0.036-10.34,3.626-14.003l113.525-113.525
			c3.663-3.66,9.026-5.048,14.003-3.626c4.981,1.424,8.796,5.437,9.968,10.484l34.124,146.944c0.398,1.312,0.612,2.702,0.612,4.142
			c0,7.832-6.317,14.19-14.135,14.259C497.815,511.986,497.762,511.986,497.713,511.986z M378.095,455.312l100.552,23.35
			l-23.35-100.552L378.095,455.312z"/>
		<path style="fill:#003B5C;" d="M170.299,226.485c-3.65,0-7.298-1.392-10.082-4.176L32.457,94.55
			c-5.568-5.568-5.568-14.597,0-20.166c5.568-5.567,14.597-5.567,20.166,0l117.678,117.678l20.485-20.485l-34-34
			c-5.568-5.568-5.568-14.597,0-20.166c5.568-5.567,14.597-5.567,20.166,0l44.082,44.082c2.673,2.675,4.176,6.301,4.176,10.082
			s-1.503,7.407-4.176,10.082l-40.65,40.65C177.598,225.092,173.948,226.485,170.299,226.485z"/>
		<polygon points="48.595,162.136 14.258,14.275 162.119,48.611 "/>
		<path style="fill:#003B5C;" d="M48.593,176.394c-1.308,0-2.626-0.18-3.92-0.55c-4.981-1.424-8.796-5.437-9.968-10.484L0.37,17.499
			c-1.114-4.795,0.325-9.827,3.806-13.308c3.482-3.481,8.514-4.918,13.308-3.807L165.345,34.72c5.046,1.172,9.059,4.988,10.483,9.968
			c1.424,4.979,0.036,10.34-3.626,14.003L58.677,172.217C55.966,174.93,52.323,176.394,48.593,176.394z M33.324,33.34l23.35,100.552
			l77.202-77.202L33.324,33.34z"/>
    </symbol>

    <symbol id="platform03" role="img" aria-labelledby="platform03_title" viewBox="0 0 512 512">
        <title id="platform03_title"></title>
        <path style="fill:#003B5C;" d="M185.575,232.902H46.944C21.059,232.902,0,211.843,0,185.958V47.328
			C0,21.443,21.059,0.384,46.944,0.384h138.631c25.884,0,46.944,21.059,46.944,46.944v138.631
			C232.519,211.843,211.459,232.902,185.575,232.902z M46.944,30.061c-9.522,0-17.267,7.746-17.267,17.267v138.631
			c0,9.522,7.746,17.267,17.267,17.267h138.631c9.522,0,17.267-7.746,17.267-17.267V47.328c0-9.522-7.746-17.267-17.267-17.267
			C185.575,30.061,46.944,30.061,46.944,30.061z"/>
		<path style="fill:#003B5C;" d="M116.26,175.317c-8.195,0-14.838-6.645-14.838-14.838V72.806c0-8.194,6.643-14.838,14.838-14.838
			s14.838,6.645,14.838,14.838v87.674C131.098,168.674,124.455,175.317,116.26,175.317z"/>
		<path style="fill:#003B5C;" d="M160.096,131.481H72.423c-8.195,0-14.838-6.645-14.838-14.838s6.643-14.838,14.838-14.838h87.672
			c8.195,0,14.838,6.645,14.838,14.838S168.292,131.481,160.096,131.481z"/>
		<path d="M465.056,218.064H326.425c-17.732,0-32.106-14.374-32.106-32.106V47.327
			c0-17.732,14.374-32.106,32.106-32.106h138.631c17.732,0,32.106,14.374,32.106,32.106v138.631
			C497.162,203.69,482.788,218.064,465.056,218.064z"/>
		<path style="fill:#003B5C;" d="M465.056,232.902H326.425c-25.884,0-46.944-21.059-46.944-46.944V47.328
			c0-25.884,21.059-46.944,46.944-46.944h138.631C490.94,0.384,512,21.443,512,47.328v138.631
			C512,211.843,490.94,232.902,465.056,232.902z M326.425,30.061c-9.522,0-17.267,7.746-17.267,17.267v138.631
			c0,9.522,7.746,17.267,17.267,17.267h138.631c9.522,0,17.267-7.746,17.267-17.267V47.328c0-9.522-7.746-17.267-17.267-17.267
			C465.056,30.061,326.425,30.061,326.425,30.061z"/>
		<path style="fill:#003B5C;" d="M439.577,131.481h-87.672c-8.195,0-14.838-6.645-14.838-14.838s6.643-14.838,14.838-14.838h87.672
			c8.195,0,14.838,6.645,14.838,14.838S447.772,131.481,439.577,131.481z"/>
		<path d="M185.575,496.777H46.944c-17.732,0-32.106-14.374-32.106-32.106V326.04
			c0-17.732,14.374-32.106,32.106-32.106h138.631c17.732,0,32.106,14.374,32.106,32.106v138.631
			C217.681,482.403,203.307,496.777,185.575,496.777z"/>
		<path style="fill:#003B5C;" d="M185.575,511.616H46.944C21.059,511.616,0,490.557,0,464.672V326.04
			c0-25.884,21.059-46.944,46.944-46.944h138.631c25.884,0,46.944,21.059,46.944,46.944v138.631
			C232.519,490.557,211.459,511.616,185.575,511.616z M46.944,308.775c-9.522,0-17.267,7.746-17.267,17.267v138.631
			c0,9.522,7.746,17.267,17.267,17.267h138.631c9.522,0,17.267-7.746,17.267-17.267V326.042c0-9.522-7.746-17.267-17.267-17.267
			H46.944L46.944,308.775z"/>
		<path style="fill:#003B5C;" d="M85.262,441.192c-3.799,0-7.594-1.45-10.492-4.346c-5.794-5.794-5.794-15.19,0-20.986l61.994-61.993
			c5.794-5.793,15.188-5.791,20.984,0c5.794,5.794,5.794,15.19,0,20.986l-61.994,61.993
			C92.858,439.742,89.059,441.192,85.262,441.192z"/>
		<path style="fill:#003B5C;" d="M147.257,441.192c-3.797,0-7.594-1.45-10.492-4.346L74.77,374.853
			c-5.794-5.794-5.796-15.19,0-20.986c5.794-5.793,15.19-5.793,20.984,0l61.994,61.993c5.794,5.794,5.796,15.19,0,20.986
			C154.851,439.742,151.054,441.192,147.257,441.192z"/>
		<path style="fill:#003B5C;" d="M465.056,511.616H326.425c-25.884,0-46.944-21.059-46.944-46.944V326.04
			c0-25.884,21.059-46.944,46.944-46.944h138.631c25.884,0,46.944,21.059,46.944,46.944v52.127c0,8.194-6.643,14.838-14.838,14.838
			s-14.838-6.645-14.838-14.838V326.04c0-9.522-7.746-17.267-17.267-17.267H326.425c-9.522,0-17.267,7.746-17.267,17.267v138.631
			c0,9.522,7.746,17.267,17.267,17.267h138.631c9.522,0,17.267-7.746,17.267-17.267v-16.775c0-8.194,6.643-14.838,14.838-14.838
			S512,439.703,512,447.897v16.775C512,490.557,490.94,511.616,465.056,511.616z"/>
		<path style="fill:#003B5C;" d="M439.577,383.359h-87.672c-8.195,0-14.838-6.645-14.838-14.838s6.643-14.838,14.838-14.838h87.672
			c8.195,0,14.838,6.645,14.838,14.838S447.772,383.359,439.577,383.359z"/>
		<path style="fill:#003B5C;" d="M439.577,437.028h-87.672c-8.195,0-14.838-6.645-14.838-14.838c0-8.194,6.643-14.838,14.838-14.838
			h87.672c8.195,0,14.838,6.645,14.838,14.838C454.415,430.383,447.772,437.028,439.577,437.028z"/>
    </symbol>

    <symbol id="platform04" role="img" aria-labelledby="platform04_title" viewBox="0 0 512 512">
        <title id="platform04_title"></title>
        <polygon points="97.409,61.893 255.999,61.893 149.583,193.179 	"/>
		<polygon points="414.589,61.893 255.999,61.893 362.415,193.179 	"/>
		<polygon points="146.993,194.664 255.999,446.434 365.006,194.664 	"/>
		<path style="fill:#003B5C;" d="M511.985,194.034c0.017-2.515-0.654-5.029-2.054-7.225L425.782,54.76
			c-0.038-0.061-0.085-0.114-0.123-0.174c-0.032-0.048-0.054-0.1-0.086-0.146c-0.066-0.098-0.147-0.183-0.216-0.279
			c-0.202-0.281-0.411-0.555-0.63-0.816c-0.107-0.127-0.216-0.252-0.329-0.376c-0.249-0.275-0.508-0.535-0.776-0.784
			c-0.096-0.089-0.187-0.181-0.284-0.265c-0.76-0.668-1.585-1.24-2.458-1.708c-0.1-0.053-0.202-0.098-0.303-0.149
			c-0.337-0.17-0.681-0.328-1.03-0.468c-0.147-0.06-0.296-0.114-0.445-0.169c-0.328-0.118-0.66-0.222-0.995-0.315
			c-0.146-0.04-0.292-0.084-0.439-0.119c-0.472-0.113-0.948-0.206-1.429-0.267c-0.005,0-0.009-0.001-0.015-0.003
			c-0.502-0.062-1.007-0.089-1.514-0.093c-0.04,0-0.078-0.007-0.118-0.007H255.999H97.409c-4.398,0-8.511,2.179-10.981,5.818
			c-2.47,3.64-2.977,8.267-1.352,12.355l45.255,113.875H37.457l29.313-46.001c3.939-6.182,2.122-14.385-4.06-18.324
			c-6.182-3.939-14.384-2.123-18.324,4.06L2.069,186.81c-1.403,2.2-2.074,4.717-2.054,7.236c-0.162,3.486,1.033,7.031,3.626,9.761
			l242.738,255.441c0.072,0.076,0.151,0.139,0.224,0.212c0.077,0.077,0.145,0.161,0.223,0.236c0.098,0.093,0.203,0.173,0.303,0.263
			c0.161,0.145,0.321,0.287,0.487,0.422c0.183,0.15,0.37,0.291,0.559,0.429c0.17,0.125,0.34,0.248,0.515,0.364
			c0.199,0.131,0.402,0.252,0.605,0.372c0.173,0.101,0.344,0.204,0.52,0.297c0.218,0.115,0.441,0.218,0.664,0.32
			c0.17,0.078,0.338,0.159,0.511,0.23c0.24,0.098,0.484,0.18,0.729,0.264c0.162,0.056,0.322,0.117,0.487,0.165
			c0.265,0.08,0.535,0.141,0.804,0.203c0.147,0.035,0.293,0.076,0.443,0.105c0.301,0.058,0.604,0.098,0.908,0.135
			c0.121,0.015,0.242,0.038,0.362,0.05c0.425,0.041,0.851,0.064,1.277,0.064h0.001h0.001c0.425,0,0.849-0.023,1.273-0.062
			c0.119-0.012,0.239-0.036,0.358-0.05c0.303-0.037,0.605-0.076,0.905-0.134c0.15-0.029,0.297-0.07,0.446-0.105
			c0.267-0.061,0.534-0.122,0.796-0.2c0.165-0.049,0.326-0.11,0.488-0.165c0.242-0.082,0.483-0.163,0.721-0.26
			c0.174-0.07,0.344-0.153,0.515-0.23c0.22-0.101,0.439-0.2,0.656-0.315c0.178-0.093,0.35-0.196,0.524-0.297
			c0.202-0.118,0.402-0.236,0.6-0.366c0.175-0.115,0.345-0.239,0.515-0.362c0.188-0.137,0.374-0.276,0.557-0.425
			c0.165-0.134,0.324-0.273,0.483-0.415c0.1-0.089,0.206-0.169,0.304-0.261c0.08-0.076,0.149-0.159,0.226-0.238
			c0.073-0.073,0.151-0.135,0.223-0.21l122.146-127.72c5.066-5.297,4.879-13.698-0.418-18.765c-5.298-5.067-13.699-4.877-18.765,0.418
			l-73.842,77.211l79.323-183.21h94.601l-36.481,38.638c-5.033,5.33-4.791,13.73,0.539,18.761c2.564,2.422,5.84,3.622,9.108,3.622
			c3.525,0,7.042-1.395,9.653-4.161l56.933-60.299C510.965,201.045,512.15,197.509,511.985,194.034z M255.999,83.044l78.675,97.626
			h-157.35L255.999,83.044z M137.964,207.214l79.065,182.616L43.495,207.214H137.964z M417.34,90.907l57.203,89.764h-92.875
			L417.34,90.907z M395.033,75.165l-36.581,92.048l-74.611-92.048H395.033z M228.158,75.165l-74.611,92.048l-36.581-92.048H228.158z
			 M255.999,413.03l-88.797-205.094h177.595L255.999,413.03z"/>
    </symbol>

    <symbol id="platform05" role="img" aria-labelledby="platform05_title" viewBox="0 0 512 512">
        <title id="platform05_title"></title>
        <path d="M290.221,456.964c-14.872-8.103-24.126-23.685-24.126-40.622V285.623
			c8.349,3.521,17.523,5.47,27.153,5.47c19.592,0,37.292-8.063,49.983-21.048c-18.339-25.213-48.055-41.618-81.618-41.618h-25.059
			h-60.478h-25.059c-55.714,0-100.88,45.165-100.88,100.88v167.85h312.353v-0.81L290.221,456.964z"/>
		<path style="fill:#003B5C;" d="M461.862,270.781c-8.198,0-14.843,6.645-14.843,14.843v130.719c0,11.509-6.279,22.079-16.386,27.588
			l-66.655,36.32l-66.654-36.32c-10.107-5.507-16.386-16.078-16.386-27.588V305.053c4.051,0.589,8.158,0.885,12.31,0.885
			c1.259,0,2.513-0.039,3.763-0.094c0.328-0.015,0.658-0.028,0.984-0.046c1.128-0.062,2.252-0.142,3.369-0.249
			c0.534-0.05,1.064-0.117,1.596-0.177c0.549-0.064,1.098-0.131,1.645-0.205c15.087-2.005,29.195-7.996,41.132-17.463
			c0.364-0.286,0.727-0.573,1.087-0.867c0.429-0.352,0.856-0.705,1.279-1.066c0.855-0.726,1.697-1.467,2.523-2.226
			c0.138-0.126,0.272-0.257,0.408-0.384c0.948-0.883,1.878-1.787,2.786-2.713c0.009-0.009,0.016-0.016,0.025-0.025
			c0.001-0.001,0.004-0.004,0.006-0.006c3.743-3.827,7.146-8.021,10.138-12.552c7.169,10.807,16.809,19.988,28.021,26.541
			c7.077,4.137,16.169,1.752,20.304-5.326c4.137-7.077,1.752-16.169-5.326-20.304c-9.976-5.83-18.035-14.851-22.691-25.401
			c-2.373-5.379-7.699-8.85-13.579-8.85h-13.485c-5.879,0-11.205,3.47-13.579,8.85c-0.445,1.011-0.94,1.989-1.44,2.963
			c-12.869-12.47-28.449-21.765-45.388-27.206c16.754-15.949,27.227-38.438,27.227-63.341V87.501c0-8.198-6.645-14.843-14.843-14.843
			s-14.843,6.645-14.843,14.843v68.287c0,31.63-25.535,57.395-57.071,57.795h-61.963c-31.536-0.401-57.071-26.166-57.071-57.795
			V87.501c0-31.879,25.936-57.815,57.815-57.815h60.478c8.198,0,14.843-6.645,14.843-14.843S244.753,0,236.555,0h-60.478
			c-48.248,0-87.501,39.253-87.501,87.501v68.287c0,24.883,10.459,47.358,27.19,63.305c-46.621,14.947-80.47,58.693-80.47,110.213
			v167.85c0,8.198,6.645,14.843,14.843,14.843h312.353c0.278,0,0.549-0.027,0.824-0.042c0.221,0.01,0.441,0.042,0.662,0.042
			c2.443,0,4.888-0.603,7.103-1.809l73.757-40.191c19.657-10.711,31.867-31.27,31.867-53.654V285.626
			C476.706,277.426,470.06,270.781,461.862,270.781z M64.984,482.313V329.307c0-47.441,38.596-86.036,86.036-86.036h24.315
			c0.248,0.001,0.494,0.019,0.742,0.019h15.395v144.167c0,8.198,6.645,14.843,14.843,14.843s14.843-6.645,14.843-14.843V243.29h15.395
			c0.249,0,0.494-0.016,0.742-0.019h24.315c22.688,0,44.419,9.089,60.403,24.818c-6.228,3.821-13.205,6.435-20.58,7.545
			c-0.049,0.007-0.096,0.018-0.147,0.025c-1.149,0.169-2.31,0.288-3.475,0.384c-0.189,0.015-0.374,0.045-0.563,0.058
			c-1.238,0.091-2.485,0.132-3.738,0.138c-0.089,0-0.178,0.009-0.267,0.009c-7.422,0-14.616-1.447-21.383-4.302
			c-4.582-1.934-9.829-1.443-13.976,1.308c-4.144,2.75-6.636,7.393-6.636,12.369v130.719c0,6.996,1.192,13.812,3.432,20.206
			c4.927,14.067,14.921,26.086,28.435,33.449l22.599,12.314H64.984V482.313z"/>
		<polyline points="337.64,377.225 362.494,391.08 404.435,353.972 "/>
		<path style="fill:#003B5C;" d="M362.489,405.924c-2.474,0-4.961-0.617-7.223-1.878l-24.854-13.853
			c-7.16-3.991-9.73-13.032-5.738-20.193c3.991-7.162,13.031-9.731,20.193-5.738l15.669,8.734l34.064-30.139
			c6.138-5.434,15.52-4.86,20.953,1.281c5.433,6.139,4.858,15.52-1.281,20.953l-41.941,37.108
			C369.55,404.656,366.035,405.924,362.489,405.924z"/>
    </symbol>

    <symbol id="platform06" role="img" aria-labelledby="platform06_title" viewBox="0 0 512 512">
        <title id="platform06_title"></title>
        <path d="M484.829,271.361v-94.957c0-22.328-18.099-40.427-40.427-40.427H67.597
			c-22.328,0-40.427,18.099-40.427,40.427v94.957H484.829z"/>
		<path style="fill:#003B5C;" d="M484.829,286.617H27.171c-8.426,0-15.255-6.83-15.255-15.255v-94.957
			c0-30.703,24.979-55.682,55.682-55.682h376.805c30.703,0,55.682,24.979,55.682,55.682v94.957
			C500.085,279.787,493.255,286.617,484.829,286.617z M42.426,256.106h427.148v-79.702c0-13.879-11.292-25.171-25.171-25.171H67.597
			c-13.879,0-25.171,11.292-25.171,25.171V256.106z"/>
		<path style="fill:#003B5C;" d="M444.403,512H67.597c-30.703,0-55.682-24.979-55.682-55.682V330.856
			c0-8.426,6.83-15.255,15.255-15.255h250.187c8.426,0,15.255,6.83,15.255,15.255c0,8.426-6.83,15.255-15.255,15.255H42.426v110.206
			c0,13.879,11.292,25.171,25.171,25.171h376.805c13.879,0,25.171-11.292,25.171-25.171V330.856c0-8.426,6.83-15.255,15.255-15.255
			s15.255,6.83,15.255,15.255v125.462C500.085,487.021,475.106,512,444.403,512z"/>
		<path d="M139.189,364.317h-16.52c-15.263,0-27.635-12.374-27.635-27.635v-98.12h71.792v98.12
			C166.825,351.943,154.452,364.317,139.189,364.317z"/>
		<path style="fill:#003B5C;" d="M139.189,379.573h-16.52c-23.65,0-42.892-19.24-42.892-42.891v-98.12
			c0-8.426,6.83-15.255,15.255-15.255h71.792c8.426,0,15.255,6.83,15.255,15.255v98.12C182.08,360.331,162.84,379.573,139.189,379.573
			z M110.288,253.816v82.864c0,6.827,5.554,12.38,12.381,12.38h16.52c6.827,0,12.38-5.554,12.38-12.38v-82.864L110.288,253.816
			L110.288,253.816z"/>
		<path d="M389.329,364.317h-16.52c-15.263,0-27.635-12.374-27.635-27.635v-98.12h71.792v98.12
			C416.966,351.943,404.592,364.317,389.329,364.317z"/>
		<path style="fill:#003B5C;" d="M389.329,379.573h-16.52c-23.65,0-42.891-19.24-42.891-42.891v-98.12
			c0-8.426,6.83-15.255,15.255-15.255h71.792c8.426,0,15.255,6.83,15.255,15.255v98.12
			C432.221,360.331,412.98,379.573,389.329,379.573z M360.429,253.816v82.864c0,6.827,5.555,12.38,12.38,12.38h16.52
			c6.827,0,12.381-5.554,12.381-12.38v-82.864L360.429,253.816L360.429,253.816z"/>
		<path style="fill:#003B5C;" d="M339.905,85.43c-8.426,0-15.255-6.83-15.255-15.255v-22.12c0-9.673-7.87-17.544-17.544-17.544
			H204.894c-9.673,0-17.544,7.87-17.544,17.544v22.12c0,8.426-6.83,15.255-15.255,15.255c-8.426,0-15.255-6.83-15.255-15.255v-22.12
			C156.84,21.557,178.397,0,204.894,0h102.211c26.497,0,48.055,21.557,48.055,48.054v22.12C355.16,78.599,348.33,85.43,339.905,85.43
			z"/>
    </symbol>

    <symbol id="process01" role="img" aria-labelledby="process01_title" viewBox="0 0 512 512">
		<title id="process01_title"></title>
		<path d="M342.64,209.773c0-6.785-0.779-13.381-2.257-19.717l18.627-15.133l-21.325-36.942l-22.442,8.578
			c-9.587-8.989-21.22-15.819-34.123-19.723l-3.794-23.701h-42.654l-3.79,23.701c-12.908,3.903-24.542,10.734-34.127,19.723
			l-22.436-8.578l-21.329,36.94l18.626,15.133c-1.471,6.336-2.256,12.932-2.256,19.717c0,6.779,0.785,13.381,2.256,19.713
			l-18.626,15.133l21.329,36.939l22.438-8.578c9.587,8.993,21.22,15.825,34.127,19.727l3.79,23.695h42.654l3.794-23.695
			c12.903-3.903,24.538-10.734,34.123-19.727l22.442,8.578l21.325-36.939l-18.627-15.133
			C341.861,223.154,342.64,216.553,342.64,209.773z M255.999,243.107c-18.411,0-33.336-14.925-33.336-33.336
			s14.925-33.336,33.336-33.336s33.336,14.925,33.336,33.336S274.41,243.107,255.999,243.107z"/>
		<path style="fill:#003B5C;" d="M277.327,330.838h-42.654c-7.091,0-13.133-5.151-14.253-12.153l-2.439-15.249
			c-8.596-3.501-16.725-8.202-24.069-13.915l-14.442,5.521c-6.623,2.533-14.106-0.123-17.652-6.264l-21.329-36.939
			c-3.546-6.141-2.104-13.948,3.398-18.42l11.993-9.744c-0.634-4.601-0.954-9.252-0.954-13.901c0-4.65,0.32-9.301,0.955-13.903
			l-11.994-9.744c-5.503-4.471-6.944-12.278-3.398-18.418l21.329-36.94c3.548-6.141,11.03-8.796,17.652-6.265l14.445,5.521
			c7.342-5.711,15.472-10.411,24.066-13.911l2.439-15.254c1.12-7.003,7.16-12.154,14.253-12.154h42.654
			c7.091,0,13.131,5.15,14.253,12.151l2.442,15.257c8.594,3.5,16.721,8.199,24.063,13.911l14.449-5.522
			c6.625-2.53,14.107,0.124,17.652,6.267l21.325,36.94c3.545,6.141,2.104,13.947-3.399,18.418l-11.991,9.742
			c0.634,4.596,0.953,9.246,0.953,13.906c0,4.66-0.319,9.309-0.953,13.902l11.991,9.742c5.503,4.471,6.944,12.277,3.399,18.418
			l-21.325,36.939c-3.546,6.141-11.027,8.796-17.652,6.267l-14.448-5.522c-7.341,5.713-15.471,10.414-24.066,13.916l-2.442,15.252
			C290.457,325.688,284.417,330.838,277.327,330.838z M246.98,301.971h18.041l1.849-11.544c0.873-5.456,4.783-9.933,10.073-11.534
			c10.529-3.185,20.358-8.871,28.428-16.439c4.03-3.781,9.864-4.927,15.028-2.956l10.945,4.183l9.018-15.621l-9.076-7.372
			c-4.285-3.481-6.209-9.103-4.955-14.481c1.247-5.345,1.879-10.874,1.879-16.434c0-5.56-0.632-11.09-1.879-16.441
			c-1.254-5.376,0.67-10.998,4.955-14.479l9.076-7.372l-9.018-15.622l-10.945,4.183c-5.16,1.97-10.994,0.826-15.025-2.953
			c-8.071-7.569-17.903-13.253-28.429-16.437c-5.288-1.599-9.2-6.078-10.073-11.534l-1.849-11.549h-18.04l-1.846,11.547
			c-0.872,5.457-4.785,9.937-10.074,11.536c-10.529,3.184-20.361,8.868-28.432,16.435c-4.03,3.78-9.862,4.927-15.026,2.953
			l-10.94-4.181l-9.021,15.622l9.074,7.372c4.281,3.478,6.205,9.091,4.959,14.464c-1.248,5.381-1.882,10.917-1.882,16.455
			s0.632,11.072,1.881,16.448c1.247,5.373-0.677,10.988-4.958,14.466l-9.074,7.372l9.021,15.621l10.94-4.181
			c5.16-1.972,11-0.827,15.029,2.956c8.067,7.569,17.899,13.253,28.43,16.438c5.29,1.599,9.201,6.079,10.073,11.535L246.98,301.971z
			 M255.999,257.541c-26.341,0-47.77-21.43-47.77-47.771s21.429-47.77,47.77-47.77s47.77,21.429,47.77,47.77
			S282.34,257.541,255.999,257.541z M255.999,190.867c-10.424,0-18.903,8.48-18.903,18.903s8.479,18.905,18.903,18.905
			c10.424,0,18.903-8.48,18.903-18.905C274.902,199.347,266.423,190.867,255.999,190.867z"/>
		<path style="fill:#003B5C;" d="M255.999,471.707c-7.971,0-14.433-6.462-14.433-14.433v-69.952c0-7.971,6.462-14.433,14.433-14.433
			c7.971,0,14.433,6.462,14.433,14.433v69.952C270.432,465.245,263.971,471.707,255.999,471.707z"/>
		<path style="fill:#003B5C;" d="M189.724,442.773c-7.971,0-14.433-6.462-14.433-14.433V395.14
			c-35.021-14.914-65.042-39.11-87.26-70.44c-24.741-34.885-37.818-76.005-37.818-118.914C50.212,92.316,142.527,0,255.999,0
			s205.788,92.316,205.788,205.788c0,70.532-35.511,135.369-94.992,173.438c-6.711,4.297-15.638,2.338-19.937-4.376
			c-4.297-6.714-2.338-15.64,4.376-19.937c51.148-32.737,81.686-88.486,81.686-149.125c0-97.555-79.367-176.922-176.922-176.922
			S79.079,108.233,79.079,205.788c0,73.762,46.473,140.481,115.644,166.021c5.669,2.093,9.434,7.497,9.434,13.54v42.992
			C204.157,436.311,197.695,442.773,189.724,442.773z"/>
		<path d="M189.724,424.678v28.52c0,16.532,13.401,29.934,29.934,29.934h72.686
			c16.532,0,29.934-13.401,29.934-29.934v-28.52H189.724z"/>
		<path style="fill:#003B5C;" d="M292.342,497.565h-72.684c-24.464,0-44.368-19.903-44.368-44.368v-28.52
			c0-7.971,6.462-14.433,14.433-14.433h132.553c7.971,0,14.433,6.462,14.433,14.433v28.52
			C336.71,477.663,316.806,497.565,292.342,497.565z M204.157,439.111v14.087c0,8.547,6.954,15.501,15.501,15.501h72.684
			c8.547,0,15.501-6.954,15.501-15.501v-14.087H204.157z"/>
		<path style="fill:#003B5C;" d="M287.031,512h-62.063c-7.971,0-14.433-6.462-14.433-14.433c0-7.971,6.462-14.433,14.433-14.433
			h62.063c7.971,0,14.433,6.462,14.433,14.433C301.464,505.538,295.002,512,287.031,512z"/>
    </symbol>

    <symbol id="process02" role="img" aria-labelledby="process02_title" viewBox="0 0 512 512">
		<title id="process02_title"></title>
		<polygon points="61.694,97.625 147.112,97.625 147.112,14.781 "/>
		<path style="fill:#003B5C;" d="M147.112,112.404H61.694c-6.018,0-11.436-3.65-13.697-9.228c-2.261-5.578-0.913-11.969,3.408-16.159
			l85.419-82.846c4.261-4.134,10.582-5.316,16.048-3.002c5.467,2.314,9.02,7.675,9.02,13.61v82.846
			C161.891,105.787,155.273,112.404,147.112,112.404z M98.159,82.846h34.175V49.702L98.159,82.846z"/>
		<path style="fill:#003B5C;" d="M450.308,319.952c-8.161,0-14.779-6.616-14.779-14.779V36.133c0-3.625-3.247-6.574-7.237-6.574
			H215.658c-8.161,0-14.779-6.616-14.779-14.779s6.618-14.779,14.779-14.779h212.634c20.29,0,36.795,16.208,36.795,36.131v269.04
			C465.087,313.336,458.47,319.952,450.308,319.952z"/>
		<path style="fill:#003B5C;" d="M428.292,512H83.711c-20.29,0-36.795-16.208-36.795-36.131V97.625c0-3.998,1.62-7.825,4.49-10.608
			l85.417-82.846c5.858-5.682,15.213-5.541,20.899,0.319c5.682,5.858,5.539,15.215-0.321,20.897l-80.929,78.49v371.99
			c0,3.625,3.247,6.574,7.237,6.574h344.582c3.99,0,7.237-2.95,7.237-6.574v-92.663c0-8.162,6.618-14.779,14.779-14.779
			s14.779,6.617,14.779,14.779v92.663C465.087,495.792,448.58,512,428.292,512z"/>
		<path style="fill:#003B5C;" d="M450.308,112.404h-234.65c-8.161,0-14.779-6.616-14.779-14.779s6.618-14.779,14.779-14.779h219.871
			V39.853c0-5.677-4.617-10.293-10.293-10.293H215.657c-8.161,0-14.779-6.616-14.779-14.779s6.618-14.779,14.779-14.779h209.579
			c21.973,0,39.851,17.878,39.851,39.851v57.772C465.087,105.787,458.47,112.404,450.308,112.404z"/>
		<rect x="119.902" y="189.569" width="124.142" height="65.025"/>
		<path style="fill:#003B5C;" d="M244.047,269.367H119.9c-8.161,0-14.779-6.616-14.779-14.779v-65.025
			c0-8.162,6.618-14.779,14.779-14.779h124.147c8.161,0,14.779,6.616,14.779,14.779v65.025
			C258.826,262.751,252.208,269.367,244.047,269.367z M134.679,239.809h94.589v-35.468h-94.589V239.809z"/>
		<path style="fill:#003B5C;" d="M335.67,265.069L335.67,265.069c-3.919,0-7.679-1.558-10.45-4.329l-23.645-23.646
			c-5.771-5.771-5.771-15.129,0-20.9c5.774-5.771,15.129-5.771,20.902,0l13.195,13.196l45.981-45.981
			c5.774-5.77,15.129-5.771,20.902,0c5.771,5.771,5.771,15.129,0,20.9l-56.433,56.432
			C343.347,263.513,339.589,265.069,335.67,265.069z"/>
		<rect x="119.902" y="346.151" width="124.142" height="65.025"/>
		<path style="fill:#003B5C;" d="M244.047,425.955H119.9c-8.161,0-14.779-6.616-14.779-14.779v-65.025
			c0-8.162,6.618-14.779,14.779-14.779h124.147c8.161,0,14.779,6.617,14.779,14.779v65.025
			C258.826,419.339,252.208,425.955,244.047,425.955z M134.679,396.397h94.589V360.93h-94.589V396.397z"/>
		<path style="fill:#003B5C;" d="M335.67,421.659L335.67,421.659c-3.919,0-7.679-1.558-10.45-4.329l-23.645-23.646
			c-5.771-5.771-5.771-15.129,0-20.9c5.774-5.771,15.129-5.771,20.902,0l13.195,13.195l45.981-45.981
			c5.774-5.771,15.129-5.77,20.902,0c5.771,5.771,5.771,15.129,0,20.9l-56.433,56.432
			C343.347,420.101,339.589,421.659,335.67,421.659z"/>
    </symbol>

    <symbol id="process03" role="img" aria-labelledby="process03_title" viewBox="0 0 512 512">
		<title id="process03_title"></title>
		<path style="fill:#003B5C;" d="M256.001,512.001c-1.816,0-3.633-0.352-5.344-1.058c-1.955-0.804-48.404-20.076-95.599-51.396
			C89.065,415.75,55.602,371.28,55.602,327.373V71.769c0-4.779,2.433-9.231,6.457-11.811c4.024-2.577,9.085-2.935,13.428-0.94
			c13.865,6.364,28.692,9.592,44.066,9.592c40.666,0,78.205-23.78,95.631-60.583C217.505,3.126,222.442,0,227.865,0h56.27
			c5.423,0,10.361,3.126,12.681,8.027c6.359,13.429,15.311,25.183,26.604,34.932c5.866,5.064,6.517,13.924,1.454,19.789
			c-5.062,5.865-13.924,6.517-19.789,1.454c-11.978-10.339-21.873-22.468-29.497-36.14h-39.182
			c-23.494,41.954-68.418,68.607-116.852,68.607c-12.277,0-24.285-1.63-35.889-4.862v235.565
			c0,66.803,119.627,132.572,172.336,155.364c52.705-22.791,172.336-88.561,172.336-155.364V91.811
			c-11.605,3.231-23.611,4.862-35.889,4.862c-7.748,0-14.031-6.283-14.031-14.031s6.283-14.031,14.031-14.031
			c15.374,0,30.2-3.227,44.066-9.592c4.344-1.997,9.405-1.639,13.428,0.94c4.023,2.58,6.457,7.032,6.457,11.811v255.603
			c0,43.907-33.463,88.377-99.456,132.175c-47.195,31.32-93.644,50.592-95.599,51.396
			C259.634,511.649,257.817,512.001,256.001,512.001z"/>
		<path d="M256.001,413.69c-14.411-7.31-33.637-17.817-52.472-30.426
			c-44.363-29.699-56.858-51.111-57.843-56.535v-170.15c41.216-5.664,80.263-24.703,110.315-53.749
			c30.052,29.046,69.099,48.084,110.315,53.749v170.148c-0.986,5.424-13.48,26.836-57.843,56.535
			C289.638,395.874,270.413,406.382,256.001,413.69z"/>
		<path style="fill:#003B5C;"  d="M256.001,427.721c-2.176,0-4.352-0.505-6.346-1.517c-13.56-6.877-33.923-17.887-53.93-31.281
			c-43.617-29.201-61.651-53.635-63.844-65.685c-0.15-0.828-0.226-1.668-0.226-2.51V156.58c0-7.011,5.175-12.946,12.12-13.901
			c38.197-5.25,74.589-22.986,102.474-49.938c5.44-5.256,14.063-5.256,19.503,0c27.885,26.952,64.279,44.687,102.474,49.938
			c6.944,0.956,12.12,6.889,12.12,13.901v170.147c0,0.842-0.076,1.682-0.226,2.51c-2.193,12.051-20.227,36.485-63.843,65.685
			c-20.008,13.394-40.37,24.404-53.931,31.281C260.354,427.216,258.178,427.721,256.001,427.721z M159.718,324.396
			c2.854,5.837,16.472,23.68,51.619,47.209c15.955,10.68,32.236,19.795,44.665,26.301c12.429-6.506,28.71-15.621,44.666-26.301
			c35.145-23.53,48.763-41.372,51.617-47.209V168.442c-35.301-7.024-68.763-23.248-96.284-46.677
			c-27.52,23.428-60.983,39.653-96.284,46.677V324.396z"/>
		<path style="fill:#003B5C;" d="M249.868,302.227c-3.592,0-7.181-1.371-9.921-4.11l-41.06-41.06c-5.479-5.479-5.479-14.364,0-19.844
			c5.481-5.478,14.362-5.478,19.844,0l31.138,31.138l54.467-54.467c5.481-5.478,14.362-5.478,19.844,0
			c5.479,5.479,5.479,14.364,0,19.844l-64.39,64.39C257.05,300.857,253.46,302.227,249.868,302.227z"/>
    </symbol>

    <symbol id="process04" role="img" aria-labelledby="process04_title" viewBox="0 0 512 512">
		<title id="process04_title"></title>
		<path style="fill:#003B5C;" d="M190.834,439.324H57.065C25.599,439.324,0,413.724,0,382.259V72.483
			c0-31.465,25.599-57.065,57.065-57.065h253.046c7.662,0,13.875,6.212,13.875,13.875s-6.213,13.875-13.875,13.875H57.065
			c-16.163,0-29.314,13.151-29.314,29.314v309.775c0,16.163,13.151,29.314,29.314,29.314h133.769c7.662,0,13.875,6.212,13.875,13.875
			S198.498,439.324,190.834,439.324z"/>
		<path style="fill:#003B5C;" d="M454.935,439.324h-60.179c-7.662,0-13.875-6.212-13.875-13.875s6.213-13.875,13.875-13.875h60.179
			c16.163,0,29.314-13.151,29.314-29.314V72.483c0-16.163-13.151-29.314-29.314-29.314h-59.203c-7.662,0-13.875-6.212-13.875-13.875
			s6.213-13.875,13.875-13.875h59.203c31.467,0,57.065,25.6,57.065,57.065v309.775C512,413.724,486.401,439.324,454.935,439.324z"/>
		<path style="fill:#003B5C;" d="M208.263,496.582c-3.474,0-6.967-0.808-10.211-2.446c-7.655-3.867-12.409-11.597-12.409-20.173
			v-149.24c0-7.663,6.213-13.875,13.875-13.875s13.875,6.212,13.875,13.875v139.046l29.198-21.519c8.019-5.912,18.8-5.912,26.818,0
			l29.198,21.519v-19.134c0-7.663,6.213-13.875,13.875-13.875s13.875,6.212,13.875,13.875v29.326c0,8.576-4.755,16.306-12.409,20.173
			c-7.658,3.867-16.699,3.108-23.603-1.98L256,466.84l-34.347,25.316C217.676,495.087,212.986,496.582,208.263,496.582z"/>
		<path style="fill:#003B5C;" d="M256,395.081c-38.795,0-70.358-31.562-70.358-70.358c0-38.794,31.562-70.358,70.358-70.358
			s70.358,31.562,70.358,70.358S294.795,395.081,256,395.081z M256,282.118c-23.494,0-42.607,19.113-42.607,42.607
			s19.113,42.607,42.607,42.607s42.607-19.113,42.607-42.607C298.607,301.231,279.494,282.118,256,282.118z"/>
		<path d="M371.432,98.67H140.568l-57.316,57.316v142.769l57.316,57.316h68.447
			c-5.997-8.969-9.498-19.749-9.498-31.349c0-31.195,25.288-56.482,56.482-56.482s56.482,25.288,56.482,56.482
			c0,11.6-3.501,22.378-9.498,31.349h68.447l57.316-57.316V155.987L371.432,98.67z"/>
		<path style="fill:#003B5C;" d="M371.43,369.947h-68.447c-5.12,0-9.825-2.821-12.238-7.337c-2.412-4.516-2.142-9.994,0.705-14.251
			c4.682-7.004,7.157-15.177,7.157-23.637c0-23.494-19.113-42.607-42.607-42.607s-42.607,19.113-42.607,42.607
			c0,8.225,2.341,16.181,6.775,23.055c1.727,2.313,2.75,5.184,2.75,8.293c0,7.663-6.213,13.875-13.875,13.875
			c-0.01,0-0.018,0-0.029,0h-68.447c-3.68,0-7.208-1.462-9.811-4.064L73.44,308.565c-2.6-2.6-4.063-6.13-4.063-9.81V155.987
			c0-3.68,1.462-7.21,4.064-9.811l57.316-57.316c2.603-2.602,6.132-4.064,9.811-4.064h230.863c3.68,0,7.208,1.462,9.811,4.064
			l57.318,57.316c2.602,2.602,4.064,6.132,4.064,9.811v142.769c0,3.68-1.462,7.21-4.064,9.811l-57.318,57.316
			C378.64,368.485,375.111,369.947,371.43,369.947z M324.167,342.196h41.516l49.189-49.188V161.735l-49.189-49.188H146.315
			l-49.188,49.187v131.273l49.188,49.188h41.518c-1.45-5.665-2.191-11.528-2.191-17.473c0-38.794,31.562-70.358,70.358-70.358
			s70.358,31.562,70.358,70.358C326.358,330.669,325.617,336.531,324.167,342.196z"/>
		<path style="fill:#003B5C;" d="M339.252,210.267H172.748c-7.662,0-13.875-6.212-13.875-13.875s6.213-13.875,13.875-13.875h166.504
			c7.662,0,13.875,6.212,13.875,13.875S346.914,210.267,339.252,210.267z"/>
    </symbol>

    <symbol id="quote" role="img" aria-labelledby="quote_title" viewBox="0 0 298.667 298.667">
    	<title id="quote_title"></title>
        <polygon points="0,170.667 64,170.667 21.333,256 85.333,256 128,170.667 128,42.667 0,42.667 			"/>
		<polygon points="170.667,42.667 170.667,170.667 234.667,170.667 192,256 256,256 298.667,170.667 298.667,42.667 			"/>
    </symbol>

    <symbol id="footer-facebook" role="img" aria-labelledby="footer-facebook_title" viewBox="0 0 512 512">
        <title id="footer-facebook_title">Facebook</title>
        <path d="M314.829,135.492h70.595c11.423,0,20.682-9.26,20.682-20.682V20.682C406.107,9.26,396.848,0,385.425,0h-70.595
            c-76.282,0-138.341,62.06-138.341,138.341v49.913h-49.913c-11.422,0-20.682,9.26-20.682,20.682v94.127
            c0,11.423,9.26,20.682,20.682,20.682h49.913v167.572c0,11.423,9.26,20.682,20.682,20.682h94.127
            c11.423,0,20.682-9.259,20.682-20.682V323.746h49.913c9.49,0,17.763-6.458,20.065-15.666l23.532-94.127
            c1.544-6.179,0.156-12.725-3.763-17.744c-3.919-5.02-9.932-7.954-16.301-7.954H311.98v-49.913
            C311.98,136.77,313.258,135.492,314.829,135.492z M291.298,229.619h67.637l-13.191,52.763h-54.447
            c-11.423,0-20.682,9.259-20.682,20.682v167.572h-52.763V303.064c0-11.423-9.26-20.682-20.682-20.682h-49.913v-52.763h49.913
            c11.422,0,20.682-9.26,20.682-20.682v-70.595c0-53.473,43.503-96.977,96.977-96.977h49.913v52.763h-49.913
            c-24.38,0-44.214,19.835-44.214,44.214v70.595C270.615,220.359,279.875,229.619,291.298,229.619z"/>
    </symbol>

    <symbol id="footer-twitter" role="img" aria-labelledby="footer-twitter_title" viewBox="0 0 512 512">
        <title id="footer-twitter_title">Twitter</title>
        <path d="M502.954,47.189c-7.126-4.852-16.515-4.774-23.559,0.196c-15.351,10.828-31.974,19.528-49.557,25.948
            c-19.253-17.414-43.615-27.826-69.915-29.656c-31.056-2.16-61.081,7.9-84.561,28.326c-25.59,22.259-40.174,54.444-40.046,88.349
            c-85.248-7.609-139.14-61.55-177.09-108.986c-4.598-5.746-11.901-8.619-19.182-7.538c-7.279,1.078-13.438,5.944-16.171,12.777
            c-0.948,2.369-23.141,58.799-17.453,127.057c4.761,57.133,30.23,131.964,120.039,181.717
            c-32.436,14.756-68.282,21.939-103.953,20.519c-9.576-0.378-18.15,5.859-20.736,15.08c-2.587,9.221,1.497,19.013,9.869,23.665
            c51.359,28.532,108.03,43.736,163.889,43.965c0.432,0.002,0.861,0.003,1.294,0.003c54.105-0.001,106.379-13.938,151.246-40.336
            c42.898-25.241,78.416-61.759,102.715-105.603c26.162-47.206,39.427-101.75,39.427-162.186c-0.011-3.544-0.186-7.098-0.52-10.638
            c20.7-22.885,35.388-50.567,42.719-80.667C513.451,60.803,510.081,52.04,502.954,47.189z M432.297,128.07
            c-4.916,4.847-7.088,11.827-5.793,18.607c0.877,4.588,1.329,9.278,1.344,13.874c0,101.956-44.378,186.544-121.756,232.072
            c-60.586,35.649-133.037,43.933-203.609,25.057c0.729-0.201,1.459-0.407,2.185-0.615c27.596-7.885,53.63-20.055,77.377-36.174
            c6.329-4.296,9.77-11.734,8.946-19.34c-0.825-7.605-5.778-14.134-12.881-16.975C97.757,312.434,53.563,257.594,46.757,181.575
            c-2.536-28.334,0.707-54.721,4.766-74.501c16.638,17.909,37.384,37.227,62.129,53.407c42.771,27.966,90.663,42.146,142.346,42.146
            c11.423,0,20.682-9.26,20.682-20.682v-21.393c0-0.045,0-0.091,0-0.137c-0.146-21.948,9.268-42.797,25.829-57.202
            c15.146-13.175,34.51-19.665,54.543-18.27c20.026,1.393,38.311,10.502,51.487,25.648c5.339,6.138,13.783,8.577,21.567,6.229
            c5.725-1.724,11.375-3.645,16.941-5.757C442.599,117.081,437.672,122.769,432.297,128.07z"/>
    </symbol>    

    <symbol id="footer-linkedin" role="img" aria-labelledby="footer-linkedin_title" viewBox="0 0 512 512">
        <title id="footer-linkedin_title">Linkedin</title>
        <path d="M2.5,510V153.7h137.3V510H2.5z M102.5,472.7V191H39.8v281.7H102.5z"/>
        <path d="M375.4,510l0.1-158.1c0.5-23.6-8.8-42.9-24.9-51.7c-5.4-3-11.2-4.5-17.3-4.5c-5.2,0-10.4,1.1-15.5,3.3l-1.1,211H176.1
            V153.7h140.6V166c16.6-6,33.6-9.1,50.6-9.1c24.7,0,48.3,6.4,70.2,18.9c44,25.2,72.5,71.8,72.5,118.8V510H375.4z M472.7,472.7V294.6
            c0-33.8-21.1-67.7-53.7-86.4c-15.9-9.1-33.8-13.9-51.7-14h-0.3c-20.1,0-40.1,5.8-59.6,17.3L279.4,228V191h-66.1v281.7h66.2l1-194.7
            l8.2-5.5c13.7-9.2,29.1-14.1,44.5-14.1c12.4,0,24.2,3,35.1,9c13.7,7.5,25,19.2,32.8,33.8c7.9,14.9,11.9,32.6,11.5,51.1l0,120.3
            H472.7z"/>
        <path d="M70.9,139.9C32.9,139.9,2,109,2,71c0-38,30.9-69,68.9-69c38,0,68.9,30.9,68.9,69C139.8,109,108.9,139.9,70.9,139.9z
             M70.9,39.3c-17.4,0-31.6,14.2-31.6,31.7c0,17.5,14.2,31.7,31.6,31.7c17.4,0,31.6-14.2,31.6-31.7C102.5,53.5,88.3,39.3,70.9,39.3z"
            />
    </symbol>

    <symbol id="footer-instagram" role="img" aria-labelledby="footer-instagram_title" viewBox="0 0 512 512">
        <title id="footer-instagram_title">Instagram</title>
        <path d="M373.659,0H138.341C62.06,0,0,62.06,0,138.341v235.318C0,449.94,62.06,512,138.341,512h235.318
            C449.94,512,512,449.94,512,373.659V138.341C512,62.06,449.94,0,373.659,0z M470.636,373.659
            c0,53.473-43.503,96.977-96.977,96.977H138.341c-53.473,0-96.977-43.503-96.977-96.977V138.341
            c0-53.473,43.503-96.977,96.977-96.977h235.318c53.473,0,96.977,43.503,96.977,96.977V373.659z"/>
        <path d="M370.586,238.141c-3.64-24.547-14.839-46.795-32.386-64.342c-17.547-17.546-39.795-28.746-64.341-32.385
            c-11.176-1.657-22.507-1.657-33.682,0c-30.336,4.499-57.103,20.541-75.372,45.172c-18.269,24.631-25.854,54.903-21.355,85.237
            c4.499,30.335,20.541,57.102,45.172,75.372c19.996,14.831,43.706,22.619,68.153,22.619c5.667,0,11.375-0.418,17.083-1.265
            c30.336-4.499,57.103-20.541,75.372-45.172C367.5,298.747,375.085,268.476,370.586,238.141z M267.791,327.632
            c-19.405,2.882-38.77-1.973-54.527-13.66c-15.757-11.687-26.019-28.811-28.896-48.216c-2.878-19.405,1.973-38.77,13.66-54.527
            c11.688-15.757,28.811-26.019,48.217-28.897c3.574-0.53,7.173-0.795,10.772-0.795s7.199,0.265,10.773,0.796
            c32.231,4.779,57.098,29.645,61.878,61.877C335.608,284.268,307.851,321.692,267.791,327.632z"/>
        <path d="M400.049,111.951c-3.852-3.851-9.183-6.058-14.625-6.058c-5.442,0-10.773,2.206-14.625,6.058
            c-3.851,3.852-6.058,9.174-6.058,14.625c0,5.451,2.207,10.773,6.058,14.625c3.852,3.851,9.183,6.058,14.625,6.058
            c5.442,0,10.773-2.206,14.625-6.058c3.851-3.852,6.058-9.183,6.058-14.625C406.107,121.133,403.9,115.802,400.049,111.951z"/>
    </symbol>

    <symbol id="footer-google" role="img" aria-labelledby="footer-google_title" viewBox="0 90 320 320">
        <title id="footer-google_title">Google</title>
		<path d="M160,224v64h90.528c-13.216,37.248-48.8,64-90.528,64c-52.928,0-96-43.072-96-96c0-52.928,43.072-96,96-96
			c22.944,0,45.024,8.224,62.176,23.168l42.048-48.256C235.424,109.824,198.432,96,160,96C71.776,96,0,167.776,0,256
			s71.776,160,160,160s160-71.776,160-160v-32H160z"/>
    </symbol>

    <symbol id="footer-phone" role="img" aria-labelledby="footer-phone_title" viewBox="0 0 512 512">
        <title id="footer-phone_title"></title>
        <path d="M421.216,195.504c-5.092-26.101-17.723-49.836-36.526-68.64c-18.804-18.803-42.54-31.434-68.641-36.527
			c-11.21-2.189-22.073,5.128-24.261,16.339c-2.187,11.212,5.128,22.073,16.339,24.26c36.847,7.188,65.3,35.642,72.489,72.489
			c1.927,9.874,10.581,16.726,20.278,16.726c1.313,0,2.645-0.125,3.984-0.387C416.088,217.577,423.403,206.715,421.216,195.504z"/>
		<path d="M511.422,196.929c-5.629-50.096-28.373-97.304-64.042-132.927C411.712,28.378,364.475,5.694,314.371,0.128
			c-11.355-1.261-21.578,6.92-22.839,18.272c-1.261,11.353,6.919,21.578,18.272,22.84c84.961,9.438,150.966,75.36,160.512,160.31
			c1.188,10.566,10.139,18.374,20.527,18.374c0.771,0,1.552-0.043,2.336-0.131C504.53,218.516,512.698,208.281,511.422,196.929z"/>
		<path d="M432.59,312.566c-0.062-0.008-0.124-0.017-0.186-0.025c-20.013-2.639-39.751-7.557-58.619-14.596
			c-23.91-8.99-51.103-3.191-69.27,14.772c-0.028,0.028-0.056,0.055-0.083,0.083l-17.148,17.148
			c-42.633-26.924-78.756-63.047-105.679-105.679l17.149-17.149c0.027-0.028,0.054-0.055,0.082-0.083
			c17.964-18.166,23.762-45.356,14.79-69.223c-7.057-18.914-11.974-38.653-14.614-58.666c-0.007-0.063-0.017-0.127-0.026-0.19
			c-4.591-32.478-32.782-56.734-65.548-56.467H66.053c-1.943,0.002-3.912,0.091-5.853,0.267
			C24.143,26.016-2.541,58.001,0.718,94.058c0.01,0.108,0.02,0.215,0.032,0.323c7.684,72.354,32.649,142.88,72.197,203.955
			c35.892,56.461,84.701,105.269,141.162,141.164c60.792,39.406,130.99,64.369,203.013,72.196c0.127,0.015,0.254,0.027,0.38,0.038
			c1.961,0.176,3.949,0.266,5.921,0.266c0.083,0,0.165,0,0.247,0.001c36.204-0.148,65.538-29.722,65.391-65.841v-67.233
			C489.746,345.714,465.515,317.211,432.59,312.566z M447.698,378.695v67.548c0.055,13.396-10.8,24.338-24.19,24.393
			c-0.715-0.004-1.425-0.027-2.135-0.086c-65.578-7.161-129.488-29.914-184.837-65.808c-0.053-0.035-0.107-0.069-0.161-0.103
			c-51.429-32.68-95.885-77.137-128.565-128.565c-0.032-0.051-0.064-0.101-0.097-0.153C71.683,220.306,48.928,156.086,41.902,90.193
			C40.779,76.91,50.63,65.155,63.923,63.954c0.717-0.064,1.443-0.098,2.145-0.098h67.463c0.146-0.001,0.294-0.003,0.443-0.002
			c12.021,0,22.322,8.905,24.044,20.819c3.05,23.063,8.721,45.806,16.871,67.649c3.319,8.832,1.189,18.869-5.427,25.591
			l-28.517,28.517c-6.583,6.582-7.956,16.753-3.354,24.847c33.837,59.508,83.177,108.847,142.685,142.685
			c8.094,4.6,18.264,3.23,24.848-3.355l28.512-28.512c6.72-6.621,16.765-8.752,25.642-5.415
			c21.799,8.134,44.547,13.805,67.61,16.855c12.18,1.757,21.122,12.339,20.816,24.647
			C447.7,378.353,447.698,378.524,447.698,378.695z"/>
    </symbol>    

	<symbol id="footer-mail" role="img" aria-labelledby="footer-mail_title" viewBox="0 0 512 512">
        <title id="footer-mail_title"></title>
        <path d="M256,141.176c-63.306,0-114.809,51.503-114.809,114.809S192.694,370.795,256,370.795s114.809-51.503,114.809-114.809
			S319.306,141.176,256,141.176z M256,329.43c-40.498,0-73.445-32.947-73.445-73.445c0-40.498,32.947-73.445,73.445-73.445
			c40.499,0,73.445,32.947,73.445,73.445C329.445,296.483,296.499,329.43,256,329.43z"/>
		<path d="M437.008,74.97C388.656,26.623,324.375,0,256,0c-0.005,0-0.013,0-0.017,0C187.603,0.004,123.318,26.637,74.97,74.992
			C26.62,123.347-0.005,187.637,0,256.017c0.004,68.379,26.637,132.666,74.992,181.014C123.344,485.377,187.625,512.001,256,512
			c0.004,0,0.012,0,0.017,0c55.945-0.004,111.216-18.738,155.631-52.752c9.07-6.945,10.792-19.927,3.846-28.995
			c-6.945-9.069-19.926-10.794-28.995-3.846c-37.24,28.518-83.58,44.224-130.486,44.228c-0.006,0-0.006,0-0.014,0
			c-57.324,0-111.224-22.324-151.761-62.856c-40.542-40.536-62.871-94.435-62.875-151.766
			C41.357,137.663,137.636,41.372,255.986,41.364c0.007,0,0.006,0,0.014,0c118.34,0,214.628,96.279,214.636,214.622v23.532
			c0,27.523-22.39,49.913-49.913,49.913c-27.523,0-49.913-22.391-49.913-49.913v-23.532c0-11.422-9.259-20.682-20.682-20.682
			s-20.682,9.26-20.682,20.682v23.532c0,50.33,40.947,91.278,91.278,91.278S512,329.848,512,279.518v-23.534
			C511.995,187.604,485.362,123.318,437.008,74.97z"/>
    </symbol>

    <symbol id="footer-location" role="img" aria-labelledby="footer-location_title" viewBox="0 0 512 512">
        <title id="footer-location_title"></title>
        <path d="M406.766,62.449C366.495,22.178,312.951,0,256,0S145.505,22.178,105.234,62.449
			c-40.272,40.271-62.449,93.814-62.449,150.766c0,37.656,10.972,76.863,32.609,116.532c16.825,30.846,40.15,62.102,69.326,92.898
			c49.17,51.903,97.763,84.519,99.808,85.881C248.001,510.842,252,512,256,512c4,0,7.999-1.158,11.473-3.474
			c2.045-1.363,50.638-33.978,99.808-85.881c29.176-30.795,52.501-62.051,69.326-92.898c21.637-39.669,32.609-78.876,32.609-116.532
			C469.215,156.263,447.038,102.72,406.766,62.449z M256.001,465.903C215.826,436.156,84.15,329.739,84.15,213.215
			c0-94.759,77.091-171.851,171.85-171.851s171.85,77.092,171.851,171.851C427.851,329.748,296.159,436.168,256.001,465.903z"/>
		<path d="M256,128.355c-46.791,0-84.86,38.068-84.86,84.86c0,46.791,38.068,84.86,84.86,84.86c46.792,0,84.861-38.068,84.86-84.86
			C340.86,166.423,302.791,128.355,256,128.355z M256,256.71c-23.983,0-43.495-19.512-43.495-43.495
			c0-23.983,19.512-43.495,43.495-43.495c23.984,0,43.495,19.512,43.495,43.495C299.495,237.198,279.984,256.71,256,256.71z"/>
		</symbol>

	<symbol id="footer-time" role="img" aria-labelledby="footer-time_title" viewBox="0 0 512 512">
        <title id="footer-time_title"></title>
        <path d="M437.019,74.981C388.667,26.629,324.38,0,256,0S123.333,26.63,74.981,74.981S0,187.62,0,256
			s26.629,132.667,74.981,181.019C123.332,485.371,187.62,512,256,512s132.667-26.629,181.019-74.981
			C485.371,388.667,512,324.38,512,256S485.371,123.332,437.019,74.981z M256,470.636C137.65,470.636,41.364,374.35,41.364,256
			S137.65,41.364,256,41.364S470.636,137.65,470.636,256S374.35,470.636,256,470.636z"/>
		<path d="M341.221,311.97l-64.538-64.537V114.809c0-11.422-9.259-20.682-20.682-20.682c-11.422,0-20.682,9.26-20.682,20.682V256
			c0,5.486,2.179,10.746,6.058,14.625l70.594,70.595c4.038,4.039,9.332,6.058,14.625,6.058c5.293,0,10.586-2.019,14.626-6.058
			C349.297,333.142,349.297,320.047,341.221,311.97z"/>
	</symbol>

	<symbol id="play" role="img" aria-labelledby="play_title" viewBox="0 0 163.861 163.861">
        <title id="play_title"></title>
        <path d="M34.857,3.613C20.084-4.861,8.107,2.081,8.107,19.106v125.637c0,17.042,11.977,23.975,26.75,15.509L144.67,97.275
		c14.778-8.477,14.778-22.211,0-30.686L34.857,3.613z"/>
	</symbol>

	<symbol id="login" role="img" aria-labelledby="login_title" viewBox="0 0 46 46">
        <title id="login_title">Member Login</title>
        <path d="M41.1,37l-0.1,0.2C36.1,42.9,29.8,46,23,46c-6.8,0-13.1-3.2-17.9-8.9L5,37l0-0.2c0.9-6,4.1-10.8,8.8-13.6l0.3-0.2l0.3,0.3
		c2.3,2.4,5.3,3.7,8.6,3.7s6.3-1.3,8.6-3.7l0.3-0.3l0.3,0.2c4.8,2.8,7.9,7.6,8.8,13.6L41.1,37z M23,21.5c5.9,0,10.7-4.8,10.7-10.7
		S28.9,0,23,0S12.3,4.8,12.3,10.7S17.1,21.5,23,21.5z"/>
	</symbol>

	<symbol id="cart" role="img" aria-labelledby="cart_title" viewBox="0 0 307.6 307.6">
        <title id="cart_title">Shopping Cart</title>
        <polygon points="77.5,157.1 90.5,214.1 263.5,214.1 276.4,157.1 	"/>
		<polygon points="283.6,125.1 297,66.1 90.2,66.1 79.5,20 21.3,0 10.6,31.2 51.5,45.2 70.1,125.1 	"/>
		<circle cx="123.5" cy="275.1" r="32.5"/>
		<circle cx="230.5" cy="275.1" r="32.5"/>
	</symbol>

</svg>