<svg xmlns="http://www.w3.org/2000/svg" xmlns:xlink="http://www.w3.org/1999/xlink">

    <symbol id="advantages01" role="img" aria-labelledby="advantages01_title" viewBox="0 0 512 512">
        <title id="advantages01_title"></title>
        <path style="fill:#000000;" d="M328.218,512c-40.581,0-56.669-7.844-67.314-13.035c-3.048-1.486-4.005-1.917-4.675-2.056
            c-0.524,0.224-1.9,0.935-3.128,1.568C242.653,503.865,226.875,512,183.782,512c-37.203,0-71.169-24.648-100.955-73.258
            c-22.265-36.336-36.487-76.82-42.983-97.719l-0.663-2.142C26.345,297.666,2.436,220.894,70.377,152.953
            c22.405-22.401,48.048-33.29,78.395-33.29c26.741,0,51.265,8.662,72.902,16.304c12.835,4.532,26.087,9.21,34.329,9.626
            c8.24-0.413,21.485-5.091,34.304-9.618c21.659-7.65,46.181-16.312,72.923-16.312c30.35,0,55.991,10.889,78.392,33.29
            c67.946,67.944,44.034,144.718,31.189,185.967l-0.661,2.121c-3.805,12.244-10.302,31.306-19.614,52.495
            c-3.324,7.566-12.151,11.001-19.716,7.678c-7.564-3.326-11.002-12.153-7.676-19.717c8.751-19.911,14.858-37.829,18.439-49.353
            l0.664-2.129c12.494-40.115,31.378-100.748-23.78-155.903c-16.734-16.734-34.92-24.527-57.234-24.527
            c-21.613,0-43.565,7.756-62.933,14.596c-15.944,5.631-30.98,10.941-43.828,11.339c-0.31,0.009-0.619,0.009-0.929,0
            c-12.851-0.399-27.893-5.711-43.818-11.333c-19.383-6.846-41.337-14.602-62.95-14.602c-22.314,0-40.501,7.793-57.237,24.527
            c-55.15,55.152-36.268,115.783-23.774,155.902l0.664,2.151c22.524,72.463,64.661,149.914,115.356,149.914
            c35.833,0,46.793-5.651,55.599-10.193c4.85-2.5,9.027-4.653,16.016-4.952c0.41-0.018,0.821-0.016,1.233-0.002
            c7.462,0.298,12.061,2.539,17.386,5.136c9.147,4.46,20.526,10.009,54.202,10.009c20.38,0,40.556-12.347,59.969-36.699
            c5.151-6.463,14.564-7.521,21.025-2.373c6.462,5.15,7.524,14.563,2.373,21.025C386.209,495.861,358.16,512,328.218,512z"/>
        <path style="fill:#000000;" d="M251.89,175.149c-0.805,0-1.62-0.066-2.44-0.2c-23.577-3.867-76.165-20.378-96.769-42.755
            c-23.345-25.353-30.64-54.354-32.649-74.22c-1.843-18.228-0.25-43.031,10.311-52.945c5.19-4.873,12.67-6.079,25.826-4.161
            c8.748,1.275,19.271,3.878,29.633,7.331c16.132,5.375,46.394,17.729,67.81,40.064c11.632,12.132,20.474,28.643,25.568,47.743
            c2.129,7.985-2.617,16.182-10.6,18.311c-7.979,2.133-16.182-2.617-18.311-10.6c-3.797-14.235-10.109-26.25-18.255-34.747
            c-23.284-24.285-64.859-36.678-81.501-38.771c-3.107,14.68-2.235,53.033,24.181,81.726c13.326,14.473,56.735,29.745,79.6,33.496
            c8.154,1.338,13.68,9.032,12.343,17.186C265.431,169.941,259.086,175.148,251.89,175.149z"/>
        <path d="M304.62,235.578c-26.541,0-41.751,23.988-47.362,23.988c-6.001,0-19.633-23.988-47.363-23.988
            c-26.973,0-48.999,22.245-50.441,49.181c-0.812,15.217,4.092,26.795,11.007,37.286c13.807,20.954,81.357,74.04,86.887,74.04
            c6.08,0,72.807-52.903,86.706-74.04c6.93-10.537,11.819-22.069,11.004-37.286C353.617,257.825,331.593,235.578,304.62,235.578"/>
        <path style="fill:#000000;" d="M257.346,411.047c-4.337,0-10.278,0-49.847-32.571c-14.506-11.94-40.23-34.079-49.533-48.197
            c-6.324-9.596-14.599-24.84-13.453-46.316c1.902-35.52,30.621-63.345,65.381-63.345c23.1,0,38.529,12.608,47.426,20.565
            c9.138-7.923,24.953-20.565,47.299-20.565c34.76,0,63.478,27.824,65.378,63.343c1.149,21.435-7.123,36.693-13.444,46.306
            c-9.419,14.325-34.899,36.38-49.247,48.252C267.989,411.047,261.585,411.047,257.346,411.047z M209.893,250.54
            c-18.543,0-34.467,15.71-35.501,35.019c-0.53,9.898,2.03,18.35,8.558,28.254c10.254,15.561,57.704,53.922,74.529,65.333
            c17.232-11.466,64.105-50.162,74.072-65.319c6.62-10.067,9.102-18.255,8.565-28.266c-1.032-19.312-16.957-35.021-35.498-35.021
            c-12.56,0-22.233,8.465-29.298,14.647c-5.729,5.013-10.676,9.342-18.064,9.342c-7.666,0-12.813-4.654-18.264-9.581
            C231.895,258.528,223.059,250.54,209.893,250.54z"/>
    </symbol>

    <symbol id="advantages02" role="img" aria-labelledby="advantages02_title" viewBox="0 0 512 512">
        <title id="advantages02_title"></title>
        <path d="M308.408,497.237H203.591V460.33c0-20.383,16.524-36.907,36.907-36.907H271.5
            c20.383,0,36.907,16.524,36.907,36.907V497.237z"/>
        <path d="M137.896,497.237H33.079V460.33c0-20.383,16.524-36.907,36.907-36.907h31.002
            c20.383,0,36.907,16.524,36.907,36.907V497.237z"/>
        <path d="M478.92,497.237H374.103V460.33c0-20.383,16.524-36.907,36.907-36.907h31.002
            c20.383,0,36.907,16.524,36.907,36.907V497.237z"/>
        <path style="fill:#000000;" d="M129.101,417.011c8.248-9.868,13.225-22.561,13.225-36.397c0-31.34-25.497-56.837-56.837-56.837
            s-56.837,25.497-56.837,56.837c0,13.837,4.975,26.529,13.225,36.397c-14.165,9.225-23.559,25.191-23.559,43.319v36.907
            c0,8.154,6.611,14.763,14.763,14.763h104.817c8.152,0,14.763-6.609,14.763-14.763V460.33
            C152.659,442.202,143.266,426.236,129.101,417.011z M85.487,353.303c15.06,0,27.311,12.252,27.311,27.311
            s-12.252,27.311-27.311,27.311s-27.311-12.252-27.311-27.311C58.176,365.554,70.427,353.303,85.487,353.303z M123.133,482.474
            H47.842V460.33c0-12.21,9.934-22.144,22.144-22.144h31.002c12.21,0,22.144,9.934,22.144,22.144V482.474z"/>
        <path style="fill:#000000;" d="M470.126,417.011c8.248-9.868,13.225-22.561,13.225-36.397c0-31.34-25.497-56.837-56.837-56.837
            s-56.837,25.497-56.837,56.837c0,13.837,4.975,26.529,13.225,36.397c-14.165,9.225-23.559,25.191-23.559,43.319v36.907
            c0,8.154,6.611,14.763,14.763,14.763h104.817c8.152,0,14.763-6.609,14.763-14.763V460.33
            C493.683,442.202,484.291,426.236,470.126,417.011z M426.511,353.303c15.06,0,27.311,12.252,27.311,27.311
            s-12.252,27.311-27.311,27.311c-15.06,0-27.311-12.252-27.311-27.311C399.2,365.554,411.452,353.303,426.511,353.303z
             M464.157,482.474h-75.291V460.33c0-12.21,9.934-22.144,22.144-22.144h31.002c12.21,0,22.144,9.934,22.144,22.144V482.474z"/>
        <path d="M241.399,117.893H282.7c26.901,0,48.71,21.808,48.71,48.71v71.999H180.59v-71.999
            c0-26.901,21.808-48.71,48.71-48.71h41.301"/>
        <path style="fill:#000000;" d="M413.225,223.839h-39.122h-27.93v-57.236c0-24.391-13.837-45.6-34.066-56.223
            c5.263-7.9,8.34-17.376,8.34-27.561V49.846c0-8.154-6.611-14.763-14.763-14.763c-8.152,0-14.763,6.609-14.763,14.763v32.973
            c0,11.146-9.025,20.218-20.148,20.311h-29.545c-11.124-0.093-20.148-9.165-20.148-20.311V49.846c0-11.204,9.116-20.32,20.32-20.32
            h29.203c8.152,0,14.763-6.609,14.763-14.763S278.753,0,270.601,0h-29.203c-27.484,0-49.846,22.36-49.846,49.846v32.973
            c0,10.183,3.075,19.66,8.34,27.561c-20.23,10.623-34.066,31.832-34.066,56.223v57.236h-27.932H98.774
            c-8.152,0-14.763,6.609-14.763,14.763c0,8.154,6.611,14.763,14.763,14.763h26.474l27.604,177.733
            c1.118,7.193,7.309,12.497,14.589,12.497h24.185c-1.804,5.253-2.798,10.879-2.798,16.737v36.907c0,8.154,6.611,14.763,14.763,14.763
            h104.817c8.152,0,14.763-6.609,14.763-14.763v-36.907c0-5.858-0.994-11.484-2.798-16.737h24.185c7.28,0,13.471-5.304,14.589-12.497
            l27.604-177.733h26.474c8.152,0,14.763-6.609,14.763-14.763C427.988,230.448,421.378,223.839,413.225,223.839z M195.352,166.603
            c0-18.718,15.228-33.947,33.947-33.947h11.757c0.061,0,0.12,0.004,0.18,0.004v52.974c0,8.154,6.611,14.763,14.763,14.763
            c8.152,0,14.763-6.609,14.763-14.763V132.66c0.061,0,0.12-0.004,0.18-0.004H282.7c18.719,0,33.947,15.228,33.947,33.947v57.236
            H195.352L195.352,166.603L195.352,166.603z M255.999,407.926c-15.06,0-27.311-12.252-27.311-27.311
            c0-15.06,12.252-27.311,27.311-27.311c15.06,0,27.311,12.252,27.311,27.311C283.311,395.674,271.059,407.926,255.999,407.926z
             M293.645,482.474h-75.291V460.33c0-12.21,9.934-22.144,22.144-22.144H271.5c12.21,0,22.144,9.934,22.144,22.144V482.474z
             M331.912,414.068h-30.003c6.863-9.394,10.929-20.956,10.929-33.454c0-31.34-25.497-56.837-56.837-56.837
            s-56.837,25.497-56.837,56.837c0,12.498,4.064,24.061,10.929,33.454H180.09l-24.961-160.704h25.46H331.41h25.46L331.912,414.068z"/>
    </symbol>

    <symbol id="advantages03" role="img" aria-labelledby="advantages03_title" viewBox="0 0 512 512">
        <title id="advantages03_title"></title>
        <path style="fill:#000000;" d="M460.253,410.142h-45.898c-7.99,0-14.467-6.478-14.467-14.467s6.477-14.467,14.467-14.467h45.898
            c12.58,0,22.814-10.234,22.814-22.814V94.018c0-12.58-10.234-22.815-22.814-22.815H51.747c-12.58,0.001-22.814,10.235-22.814,22.815
            v264.378c0,12.579,10.234,22.814,22.814,22.814h273.402c7.99,0,14.467,6.478,14.467,14.467s-6.477,14.467-14.467,14.467H51.747
            C23.213,410.142,0,386.929,0,358.396V94.018c0-28.532,23.213-51.747,51.747-51.747h408.506C488.787,42.271,512,65.486,512,94.02
            v264.378C512,386.929,488.787,410.142,460.253,410.142z"/>
        <rect x="186.85" y="395.674" width="138.3" height="59.588"/>
        <path style="fill:#000000;" d="M325.149,469.729H186.851c-7.99,0-14.467-6.478-14.467-14.467v-59.586
            c0-7.988,6.477-14.467,14.467-14.467h138.297c7.99,0,14.467,6.478,14.467,14.467v59.586
            C339.615,463.252,333.138,469.729,325.149,469.729z M201.318,440.796h109.364v-30.653H201.318L201.318,440.796L201.318,440.796z"/>
        <path style="fill:#000000;" d="M368.433,469.729H143.567c-7.99,0-14.467-6.478-14.467-14.467s6.477-14.467,14.467-14.467h224.865
            c7.99,0,14.467,6.478,14.467,14.467S376.422,469.729,368.433,469.729z"/>
        <path d="M220.059,313.866c-4.263-6.642-6.747-14.535-6.747-23.013c0-23.576,19.112-42.688,42.688-42.688
            s42.689,19.112,42.689,42.688c0,8.479-2.484,16.372-6.747,23.013H392.55v-50.323l-30.349-4.854
            c-4.998-16.528-13.745-31.427-25.256-43.701l10.983-28.732l-47.304-27.313l-19.378,23.851c-8.113-1.884-16.56-2.889-25.248-2.889
            c-8.68,0-17.134,1.005-25.243,2.889l-19.378-23.851l-47.301,27.313l10.983,28.732c-11.515,12.275-20.263,27.173-25.261,43.701
            l-30.342,4.854v50.323L220.059,313.866L220.059,313.866z"/>
        <path style="fill:#000000;" d="M392.548,328.333H291.942c-5.29,0-10.158-2.888-12.694-7.53c-2.536-4.642-2.338-10.299,0.521-14.75
            c2.915-4.542,4.456-9.797,4.456-15.2c0-15.562-12.66-28.221-28.223-28.221s-28.223,12.66-28.223,28.221
            c0,5.402,1.541,10.658,4.456,15.2c2.859,4.451,3.057,10.108,0.521,14.75c-2.536,4.642-7.405,7.53-12.694,7.53H119.452
            c-7.99,0-14.467-6.478-14.467-14.467v-50.322c0-7.107,5.163-13.163,12.181-14.284l21.782-3.485
            c4.689-12.139,11.3-23.572,19.498-33.724l-7.886-20.629c-2.537-6.639,0.123-14.138,6.278-17.693l47.301-27.313
            c6.156-3.554,13.98-2.109,18.462,3.405l13.917,17.13c12.872-2.009,26.082-2.011,38.957,0.001l13.918-17.131
            c4.483-5.516,12.31-6.958,18.462-3.405l47.303,27.313c6.156,3.554,8.817,11.055,6.278,17.693l-7.887,20.632
            c8.195,10.154,14.804,21.586,19.492,33.722l21.79,3.484c7.018,1.123,12.181,7.178,12.181,14.286v50.322
            C407.015,321.855,400.538,328.333,392.548,328.333z M312.515,299.4h65.567v-23.52l-18.167-2.906
            c-5.47-0.874-9.959-4.794-11.562-10.096c-4.255-14.072-11.85-27.21-21.962-37.995c-3.787-4.04-4.937-9.888-2.96-15.06l6.578-17.208
            l-25.936-14.976l-11.601,14.277c-3.486,4.291-9.115,6.216-14.498,4.971c-14.377-3.337-29.581-3.337-43.948,0
            c-5.39,1.247-11.015-0.68-14.5-4.971l-11.599-14.277l-25.934,14.976l6.578,17.208c1.978,5.173,0.827,11.023-2.963,15.063
            c-10.115,10.78-17.71,23.918-21.966,37.992c-1.603,5.302-6.092,9.222-11.562,10.096l-18.16,2.906v23.52h65.567
            c-0.425-2.814-0.641-5.671-0.641-8.547c0-31.515,25.641-57.154,57.156-57.154s57.156,25.639,57.156,57.154
            C313.156,293.729,312.94,296.586,312.515,299.4z"/>
    </symbol>

    <symbol id="advantages04" role="img" aria-labelledby="advantages04_title" viewBox="0 0 512 512">
        <title id="advantages04_title"></title>
        <path style="fill:#000000;" d="M222.717,366.95c-5.752,0-11.078-3.24-13.692-8.463l-41.575-83.069l-23.142,35.614
            c-2.826,4.347-7.659,6.971-12.844,6.971H15.318C6.858,318.002,0,311.144,0,302.684s6.858-15.318,15.318-15.318h107.833
            l33.184-51.067c2.993-4.604,8.232-7.242,13.703-6.948c5.484,0.308,10.381,3.528,12.839,8.438l35.382,70.697l35.928-136.243
            c1.659-6.289,7.109-10.846,13.593-11.363c6.475-0.519,12.588,3.117,15.223,9.063l26.233,59.206l22.079-34.224
            c2.802-4.341,7.602-6.979,12.769-7.014c5.24-0.052,10.002,2.538,12.862,6.841l22.964,34.573h116.773
            c8.46,0,15.318,6.858,15.318,15.318s-6.858,15.318-15.318,15.318H371.695c-5.131,0-9.921-2.569-12.76-6.842l-14.562-21.924
            l-24.776,38.406c-3.051,4.73-8.457,7.408-14.065,6.968c-5.612-0.438-10.531-3.92-12.812-9.066l-20.043-45.236l-35.143,133.27
            c-1.625,6.162-6.896,10.675-13.234,11.33C223.769,366.922,223.242,366.95,222.717,366.95z"/>
        <path style="fill:#000000;" d="M247.875,478.107c-2.226,0-4.453-0.484-6.516-1.455c-73.068-34.345-146.415-97.757-191.42-165.49
            c-3.125-4.701-3.41-10.741-0.741-15.716c2.667-4.975,7.855-8.079,13.499-8.079h60.454l33.184-51.068
            c2.992-4.604,8.227-7.256,13.703-6.948c5.484,0.308,10.381,3.528,12.839,8.438l35.382,70.697l35.928-136.243
            c1.659-6.289,7.109-10.846,13.593-11.363c6.475-0.519,12.588,3.117,15.223,9.063l26.233,59.206l22.079-34.224
            c2.802-4.341,7.602-6.979,12.769-7.014c0.034,0,0.069,0,0.103,0c5.128,0,9.92,2.567,12.76,6.842l27.509,41.416
            c4.681,7.048,2.763,16.554-4.283,21.235c-7.049,4.68-16.555,2.762-21.235-4.283l-14.564-21.924l-24.775,38.406
            c-3.053,4.73-8.466,7.408-14.065,6.968c-5.612-0.438-10.531-3.92-12.812-9.067l-20.043-45.236l-35.143,133.27
            c-1.625,6.162-6.896,10.675-13.234,11.33c-6.349,0.651-12.423-2.682-15.275-8.38l-41.575-83.069l-23.142,35.614
            c-2.826,4.347-7.659,6.971-12.844,6.971H92.704c40.558,51.659,98.551,99.672,155.172,127.775
            c52.656-26.141,107.401-69.974,147.65-118.421c5.407-6.508,15.062-7.4,21.57-1.994c6.507,5.406,7.4,15.063,1.994,21.57
            C374.449,400.67,312.88,449.161,254.392,476.653C252.328,477.623,250.1,478.107,247.875,478.107z"/>
        <path d="M169.179,244.646l53.544,106.986l46.275-175.482l37.727,85.149l37.461-58.069l27.51,41.416h91.694
            c3.762-10.019,6.72-20.013,8.743-29.903c2.085-10.218,3.215-20.38,3.215-30.324c0-74.655-59.694-135.207-133.342-135.207
            c-36.73,0-69.986,15.082-94.132,39.444c-24.145-24.363-57.401-39.444-94.132-39.444c-73.646,0-133.342,60.552-133.342,135.207
            c0,9.944,1.13,20.106,3.215,30.324c5.946,29.077,19.87,59.031,39.08,87.943h68.767L169.179,244.646z"/>
        <path style="fill:#000000;" d="M222.717,366.95c-5.752,0-11.078-3.24-13.692-8.461l-41.575-83.069l-23.142,35.614
            c-2.826,4.347-7.659,6.971-12.844,6.971H62.697c-5.13,0-9.92-2.567-12.758-6.841c-21.318-32.081-35.221-63.49-41.329-93.35
            c-2.339-11.474-3.525-22.707-3.525-33.394c0-83,66.688-150.525,148.659-150.525c34.693,0,67.609,11.981,94.132,34.011
            c26.523-22.03,59.439-34.011,94.132-34.011c81.971,0,148.658,67.525,148.658,150.525c0,10.692-1.186,21.924-3.523,33.386
            c-2.134,10.434-5.3,21.275-9.411,32.225c-2.242,5.975-7.958,9.933-14.34,9.933h-91.695c-5.131,0-9.921-2.569-12.76-6.842
            l-14.563-21.924l-24.776,38.406c-3.051,4.73-8.457,7.408-14.065,6.968c-5.612-0.438-10.531-3.92-12.812-9.067l-20.043-45.236
            l-35.143,133.27c-1.625,6.162-6.896,10.675-13.234,11.33C223.769,366.922,223.241,366.95,222.717,366.95z M169.177,229.328
            c0.286,0,0.573,0.008,0.861,0.025c5.484,0.308,10.381,3.528,12.839,8.438l35.382,70.697l35.928-136.243
            c1.659-6.289,7.109-10.846,13.593-11.363c6.475-0.519,12.588,3.117,15.223,9.063l26.233,59.206l22.079-34.224
            c2.802-4.341,7.602-6.979,12.769-7.014c5.24-0.052,10.004,2.538,12.862,6.841l22.964,34.573h72.584
            c1.91-6.017,3.46-11.925,4.632-17.655c1.927-9.445,2.904-18.616,2.904-27.255c0-66.108-52.944-119.89-118.022-119.89
            c-31.375,0-60.943,12.398-83.251,34.909c-2.877,2.903-6.793,4.536-10.88,4.536s-8.003-1.633-10.88-4.536
            c-22.309-22.511-51.876-34.909-83.251-34.909c-65.079,0-118.024,53.782-118.024,119.89c0,8.636,0.977,17.808,2.906,27.264
            c4.889,23.909,15.78,49.343,32.398,75.686h52.126l33.184-51.068C159.17,231.937,164.012,229.328,169.177,229.328z"/>
    </symbol>

    <symbol id="information01" role="img" aria-labelledby="information01_title" viewBox="0 0 512 512">
        <title id="information01_title"></title>
        <path style="fill:#000000;" d="M14.183,471.406C6.35,471.406,0,465.055,0,457.223V174.677c0-5.678,3.386-10.806,8.603-13.039
            c5.219-2.235,11.267-1.14,15.373,2.78l56.006,53.466c5.666,5.408,5.875,14.387,0.465,20.054c-5.408,5.665-14.386,5.875-20.052,0.465
            l-32.03-30.577v249.398C28.366,465.055,22.016,471.406,14.183,471.406z"/>
        <path d="M127.957,283.293c2.483,2.371,5.814,3.661,9.246,3.563c3.434-0.092,6.689-1.55,9.042-4.051
            l51.462-54.662l21.848,22.407v206.672H116.87V272.708L127.957,283.293z"/>
        <polygon points="343.628,291.605 426.715,376.91 426.715,457.223 324.028,457.223 324.028,313.686   "/>
        <path style="fill:#000000;" d="M436.875,367.013l-83.086-85.305c-2.749-2.821-6.527-4.402-10.49-4.283
            c-3.939,0.091-7.663,1.817-10.279,4.763l-19.6,22.08c-0.06,0.067-0.111,0.14-0.169,0.208c-0.136,0.159-0.265,0.322-0.394,0.488
            c-0.142,0.182-0.279,0.363-0.411,0.55c-0.128,0.182-0.251,0.367-0.37,0.555c-0.113,0.179-0.224,0.36-0.33,0.543
            c-0.119,0.206-0.233,0.414-0.34,0.625c-0.089,0.176-0.174,0.353-0.257,0.532c-0.104,0.225-0.204,0.452-0.296,0.685
            c-0.071,0.177-0.133,0.357-0.197,0.538c-0.084,0.237-0.165,0.474-0.235,0.716c-0.057,0.194-0.104,0.391-0.152,0.589
            c-0.057,0.231-0.116,0.461-0.162,0.698c-0.047,0.245-0.078,0.492-0.113,0.74c-0.027,0.194-0.061,0.386-0.081,0.582
            c-0.044,0.452-0.07,0.908-0.07,1.364v129.354h-74.32V287.457l29.518,30.532c5.445,5.632,14.423,5.784,20.055,0.339
            c5.632-5.445,5.784-14.423,0.339-20.055l-53.897-55.753c-0.309-0.321-0.635-0.617-0.969-0.903c-0.271-0.335-0.555-0.66-0.858-0.97
            l-21.848-22.407c-2.671-2.739-6.333-4.282-10.155-4.282c-0.041,0-0.084,0-0.123,0c-3.868,0.034-7.553,1.645-10.202,4.462
            l-50.571,53.716l-10.147-9.687c-0.061-0.058-0.13-0.102-0.191-0.157c-0.399-0.367-0.817-0.712-1.255-1.033
            c-0.089-0.065-0.176-0.136-0.267-0.2c-0.502-0.349-1.028-0.662-1.574-0.945c-0.104-0.054-0.21-0.101-0.315-0.152
            c-0.491-0.24-0.997-0.451-1.518-0.634c-0.084-0.03-0.165-0.064-0.25-0.091c-0.582-0.191-1.18-0.345-1.793-0.46
            c-0.115-0.023-0.231-0.034-0.347-0.054c-0.491-0.079-0.987-0.132-1.493-0.16c-0.162-0.009-0.322-0.021-0.485-0.024
            c-0.102-0.001-0.201-0.016-0.305-0.016c-0.512,0-1.018,0.03-1.516,0.084c-0.057,0.006-0.112,0.018-0.167,0.026
            c-0.58,0.069-1.146,0.179-1.702,0.315c-0.125,0.031-0.248,0.061-0.372,0.095c-1.245,0.342-2.42,0.848-3.503,1.496
            c-0.111,0.067-0.221,0.132-0.33,0.201c-0.519,0.33-1.021,0.685-1.492,1.078c-0.058,0.048-0.111,0.102-0.167,0.152
            c-0.411,0.355-0.797,0.735-1.164,1.132c-0.099,0.108-0.2,0.214-0.295,0.325c-0.396,0.455-0.767,0.93-1.102,1.435
            c-0.033,0.048-0.06,0.101-0.091,0.149c-0.306,0.474-0.58,0.969-0.83,1.479c-0.054,0.112-0.109,0.221-0.162,0.335
            c-0.258,0.566-0.489,1.146-0.672,1.749c-0.007,0.023-0.011,0.045-0.017,0.068c-0.169,0.563-0.294,1.146-0.391,1.736
            c-0.024,0.148-0.047,0.292-0.067,0.441c-0.082,0.618-0.14,1.245-0.14,1.888V443.04H70.19c-7.833,0-14.183,6.351-14.183,14.183
            s6.35,14.183,14.183,14.183h46.681h102.686c0.301,0,0.596-0.027,0.892-0.045c0.296,0.018,0.591,0.045,0.892,0.045h102.686h102.686
            c7.832,0,14.183-6.351,14.183-14.183V376.91C440.897,373.214,439.455,369.662,436.875,367.013z M205.373,443.04h-74.32V300.422
            c1.882,0.411,3.818,0.621,5.784,0.621c0.003,0,0.004,0,0.007,0c0.255,0,0.511-0.004,0.738-0.011
            c7.161-0.19,14.084-3.29,18.991-8.506l41.315-43.883l7.486,7.676V443.04H205.373z M412.531,443.04h-74.32V319.072l5.899-6.646
            l68.421,70.249V443.04z"/>
        <polygon points="408.215,298.51 497.817,322.519 473.808,232.917 "/>
        <path style="fill:#000000;" d="M511.516,318.847l-24.009-89.602c-1.312-4.895-5.134-8.717-10.029-10.029
            c-4.896-1.315-10.117,0.089-13.699,3.671l-22.947,22.947l-87.482-90.125c-2.749-2.822-6.55-4.37-10.488-4.283
            c-3.939,0.091-7.662,1.817-10.279,4.763l-29.932,33.719l-94.95-97.374c-2.699-2.767-6.414-4.275-10.28-4.282
            c-3.866,0.034-7.551,1.645-10.202,4.462l-50.892,54.055L29.3,44.521c-5.663-5.409-14.641-5.205-20.052,0.457
            C3.837,50.642,4.041,59.62,9.706,65.031l117.357,112.118c2.733,2.613,6.404,4.048,10.172,3.923c3.778-0.099,7.36-1.703,9.951-4.456
            l50.539-53.68l95.26,97.691c2.749,2.82,6.543,4.344,10.487,4.278c3.937-0.091,7.659-1.817,10.274-4.763l29.928-33.715l77.1,79.467
            l-22.587,22.587c-3.583,3.583-4.983,8.806-3.671,13.699c1.312,4.895,5.134,8.717,10.029,10.029l89.602,24.009
            c1.213,0.325,2.447,0.484,3.669,0.484c3.713,0,7.336-1.459,10.03-4.154C511.43,328.964,512.828,323.742,511.516,318.847z
             M435.615,291.167l30.851-30.851l11.293,42.144L435.615,291.167z"/>
    </symbol>

    <symbol id="information02" role="img" aria-labelledby="information02_title" viewBox="0 0 512 512">
        <title id="information02_title"></title>
        <path style="fill:#000000;" d="M376.481,509.182c-8.239,0-16.474-2.12-23.821-6.362l-87.878-50.737
            c-14.693-8.481-23.82-24.29-23.82-41.257V309.352c0-16.965,9.126-32.774,23.82-41.257l87.878-50.737
            c14.695-8.484,32.95-8.484,47.641,0l87.878,50.737C502.872,276.579,512,292.386,512,309.352v8.803
            c0,8.305-6.734,15.038-15.038,15.038s-15.038-6.732-15.038-15.038v-8.803c0-6.254-3.365-12.084-8.783-15.212l-87.878-50.737
            c-5.417-3.128-12.146-3.128-17.565,0L279.82,294.14c-5.418,3.128-8.782,8.956-8.782,15.212v101.474
            c0,6.256,3.364,12.084,8.782,15.211l87.878,50.738c5.42,3.128,12.146,3.128,17.565,0l87.878-50.737
            c5.418-3.128,8.783-8.956,8.783-15.211v-13.97c0-8.305,6.734-15.038,15.038-15.038S512,388.551,512,396.857v13.97
            c0,16.965-9.128,32.774-23.821,41.257l-87.878,50.737C392.955,507.062,384.717,509.182,376.481,509.182z"/>
        <path d="M239.699,281.119l-87.88-50.737c-10.087-5.824-22.514-5.824-32.602,0L31.34,281.119
            c-10.087,5.823-16.302,16.586-16.302,28.233v101.474c0,11.648,6.214,22.41,16.301,28.235l87.878,50.737
            c10.087,5.824,22.516,5.824,32.602,0l87.88-50.737C249.786,433.237,256,422.475,256,410.826V309.352
            C256,297.705,249.786,286.941,239.699,281.119z M173.293,376.989c0,3.038-1.621,5.845-4.251,7.364l-29.269,16.899
            c-2.632,1.519-5.872,1.519-8.504,0l-29.274-16.901c-2.632-1.519-4.251-4.326-4.251-7.364v-33.798c0-3.038,1.621-5.845,4.251-7.364
            l29.271-16.899c2.632-1.519,5.872-1.519,8.504,0l29.271,16.899c2.632,1.519,4.251,4.326,4.251,7.364v33.8L173.293,376.989
            L173.293,376.989z"/>
        <path style="fill:#000000;" d="M135.52,509.203c-8.352,0-16.588-2.207-23.821-6.383l-87.878-50.737C9.126,443.6,0,427.791,0,410.827
            V309.353c0-16.965,9.126-32.773,23.821-41.257l87.878-50.737c7.233-4.176,15.469-6.383,23.821-6.383
            c8.35,0,16.586,2.208,23.82,6.383l87.878,50.737c14.693,8.484,23.82,24.293,23.82,41.257v101.474
            c0,16.964-9.126,32.773-23.818,41.257l-87.88,50.737C152.107,506.996,143.871,509.203,135.52,509.203z M135.52,241.051
            c-3.08,0-6.116,0.814-8.783,2.353l-87.878,50.737c-5.418,3.128-8.783,8.956-8.783,15.211v101.474c0,6.254,3.365,12.084,8.783,15.212
            l87.878,50.737c5.332,3.078,12.23,3.08,17.565,0l87.878-50.737c5.417-3.128,8.782-8.956,8.782-15.212V309.352
            c0-6.256-3.365-12.084-8.783-15.212l-87.877-50.735C141.636,241.865,138.598,241.051,135.52,241.051z M135.52,417.429
            c-4.128,0-8.199-1.092-11.773-3.155l-29.271-16.899c-7.26-4.194-11.77-12.005-11.77-20.386v-33.798
            c0-8.382,4.51-16.192,11.767-20.385l29.275-16.901c7.143-4.126,16.394-4.128,23.543,0.002l29.269,16.896
            c7.26,4.192,11.77,12.003,11.77,20.388v33.8c0,8.382-4.51,16.192-11.767,20.385l-29.272,16.901
            C143.714,416.34,139.645,417.429,135.52,417.429z M112.782,373.215l22.738,13.128l22.735-13.126v-26.254l-22.737-13.128
            l-22.737,13.128L112.782,373.215L112.782,373.215z"/>
        <path d="M360.18,72.94L272.3,22.203c-10.087-5.824-22.516-5.824-32.602,0L151.82,72.94
            c-10.087,5.824-16.301,16.586-16.301,28.235v101.474c0,11.648,6.214,22.411,16.301,28.235l87.88,50.737
            c10.087,5.824,22.516,5.824,32.601,0l87.88-50.737c10.087-5.824,16.301-16.586,16.301-28.235V101.174
            C376.481,89.526,370.268,78.764,360.18,72.94z M293.774,168.811c0,3.038-1.621,5.845-4.251,7.364l-29.269,16.899
            c-2.632,1.519-5.872,1.519-8.504,0l-29.274-16.901c-2.632-1.519-4.251-4.326-4.251-7.364v-33.797c0-3.038,1.621-5.845,4.251-7.364
            l29.271-16.899c2.632-1.519,5.872-1.519,8.504,0l29.271,16.899c2.632,1.519,4.251,4.326,4.251,7.364v33.799H293.774z"/>
        <path style="fill:#000000;" d="M256,301.026c-8.352,0-16.588-2.208-23.821-6.383l-87.877-50.735
            c-14.693-8.484-23.821-24.292-23.821-41.257V101.176c0-16.965,9.126-32.773,23.821-41.257L232.18,9.18
            c7.232-4.176,15.468-6.383,23.82-6.383c8.352,0,16.588,2.208,23.821,6.383l87.877,50.735c14.693,8.483,23.821,24.29,23.821,41.257
            v101.474c0,16.967-9.128,32.774-23.821,41.259L279.82,294.64C272.588,298.818,264.352,301.026,256,301.026z M256,32.872
            c-3.08,0-6.114,0.814-8.78,2.352l-87.88,50.737c-5.418,3.128-8.783,8.958-8.783,15.212v101.474c0,6.254,3.365,12.084,8.783,15.212
            l87.878,50.737c5.334,3.08,12.232,3.078,17.562,0l87.88-50.737c5.418-3.128,8.783-8.956,8.783-15.212V101.173
            c0-6.256-3.365-12.084-8.783-15.211l-87.878-50.737C262.116,33.686,259.08,32.872,256,32.872z M256.001,209.251
            c-4.125,0-8.195-1.09-11.77-3.153l-29.274-16.901c-7.26-4.194-11.77-12.005-11.77-20.386v-33.798c0-8.382,4.51-16.192,11.767-20.385
            l29.275-16.901c7.143-4.126,16.394-4.128,23.543,0.002l29.269,16.896c7.26,4.195,11.77,12.006,11.77,20.388v33.8
            c0,8.383-4.51,16.195-11.77,20.386l-29.271,16.899C264.2,208.161,260.129,209.251,256.001,209.251z M233.263,165.038l22.738,13.128
            l22.735-13.126v-26.256L256,125.657l-22.737,13.126V165.038L233.263,165.038z"/>
    </symbol>

    <symbol id="information03" role="img" aria-labelledby="information03_title" viewBox="0 0 512 512">
        <title id="information03_title"></title>
        <path style="fill:#000000;" d="M354.789,439.231H157.212c-7.491,0-13.564-6.073-13.564-13.564s6.073-13.564,13.564-13.564h197.576
            c7.491,0,13.564,6.073,13.564,13.564C368.353,433.159,362.28,439.231,354.789,439.231z"/>
        <path style="fill:#000000;" d="M355.697,512H156.302c-47.119,0-85.454-38.335-85.454-85.454V158.274
            c0-7.491,6.073-13.564,13.564-13.564h343.174c7.491,0,13.564,6.073,13.564,13.564v268.272C441.151,473.665,402.818,512,355.697,512
            z M97.977,171.838v254.708c0,32.16,26.165,58.326,58.326,58.326h199.395c32.16,0,58.326-26.165,58.326-58.326V171.838H97.977z"/>
        <path d="M156.302,73.474h199.395c39.703,0,71.89,32.186,71.89,71.89v15.163H84.413v-15.163
            C84.413,105.66,116.598,73.474,156.302,73.474z"/>
        <path style="fill:#000000;" d="M427.587,174.09H84.413c-7.491,0-13.564-6.073-13.564-13.564v-15.162
            c0-47.119,38.335-85.454,85.454-85.454h199.395c47.119,0,85.454,38.335,85.454,85.454v15.162
            C441.151,168.017,435.079,174.09,427.587,174.09z M97.977,146.962h316.046v-1.598c0-32.16-26.165-58.326-58.326-58.326H156.302
            c-32.16,0-58.326,26.165-58.326,58.326C97.976,145.364,97.976,146.962,97.977,146.962z"/>
        <path d="M289.459,47.023c0-18.478-14.98-33.459-33.459-33.459s-33.459,14.98-33.459,33.459h-24.19
            c-7.616,0-13.791,6.174-13.791,13.791v31.649c0,7.616,6.174,13.791,13.791,13.791h115.298c7.616,0,13.791-6.174,13.791-13.791
            v-31.65c0-7.616-6.174-13.791-13.791-13.791h-24.19L289.459,47.023L289.459,47.023z"/>
        <path style="fill:#000000;" d="M313.648,119.816H198.35c-15.083,0-27.355-12.271-27.355-27.355V60.812
            c0-15.083,12.271-27.355,27.355-27.355h12.62C216.807,14.123,234.786,0,255.999,0c21.213,0,39.193,14.123,45.029,33.459h12.62
            c15.083,0,27.355,12.271,27.355,27.355v31.649C341.003,107.546,328.732,119.816,313.648,119.816z M198.35,60.587
            c-0.125,0-0.227,0.102-0.227,0.227v31.649c0,0.125,0.102,0.227,0.227,0.227h115.298c0.125,0,0.227-0.102,0.227-0.227v-31.65
            c0-0.125-0.102-0.227-0.227-0.227h-24.19c-7.491,0-13.564-6.073-13.564-13.564c0-10.969-8.925-19.894-19.894-19.894
            c-10.969,0-19.894,8.925-19.894,19.894c0,7.491-6.073,13.564-13.564,13.564h-24.19v0.001H198.35z"/>
        <path style="fill:#000000;" d="M255.999,332.527c-7.491,0-13.564-6.073-13.564-13.564v-52.9c0-7.491,6.073-13.564,13.564-13.564
            c7.491,0,13.564,6.073,13.564,13.564v52.9C269.564,326.454,263.491,332.527,255.999,332.527z"/>
        <path style="fill:#000000;" d="M282.45,306.077h-52.9c-7.491,0-13.564-6.073-13.564-13.564s6.073-13.564,13.564-13.564h52.9
            c7.491,0,13.564,6.073,13.564,13.564S289.941,306.077,282.45,306.077z"/>
        <path style="fill:#000000;" d="M255.999,386.331c-51.732,0-93.819-42.087-93.819-93.819s42.087-93.819,93.819-93.819
            c12.798,0,25.208,2.535,36.889,7.535c6.886,2.947,10.081,10.92,7.132,17.807c-2.947,6.886-10.918,10.082-17.807,7.132
            c-8.288-3.547-17.107-5.346-26.214-5.346c-36.772,0-66.691,29.917-66.691,66.691c0,36.772,29.917,66.691,66.691,66.691
            s66.691-29.917,66.691-66.691c0-6.294-0.874-12.516-2.593-18.493c-2.073-7.198,2.083-14.714,9.283-16.787
            c7.197-2.071,14.714,2.083,16.787,9.283c2.424,8.419,3.651,17.165,3.651,25.998C349.819,344.245,307.732,386.331,255.999,386.331z"
            />
    </symbol>

    <symbol id="information04" role="img" aria-labelledby="information04_title" viewBox="0 0 512 512">
        <title id="information04_title"></title>
        <path style="fill:#000000;" d="M275.938,485.411H51.603c-7.854,0-14.399-6.013-15.066-13.838L0.054,42.951
            c-0.358-4.219,1.066-8.393,3.93-11.511c2.864-3.118,6.902-4.891,11.136-4.891h297.3c4.234,0,8.272,1.774,11.136,4.891
            c2.864,3.118,4.288,7.293,3.93,11.511l-7.947,93.368c-0.708,8.321-8.07,14.496-16.348,13.784
            c-8.321-0.708-14.493-8.027-13.784-16.348l6.55-76.964H31.583l33.907,398.381h210.448c8.349,0,15.12,6.769,15.12,15.12
            C291.06,478.643,284.289,485.411,275.938,485.411z"/>
        <path style="fill:#000000;" d="M341.474,235.529c-7.276,0-13.688-5.263-14.903-12.675c-1.352-8.241,4.234-16.017,12.474-17.369
            c16.431-2.696,47.242-13.684,56.134-23.341c16.663-18.096,18.398-41.049,17.286-52.49c-11.254,2.235-31.346,8.788-46.129,20.116
            c-6.626,5.077-16.117,3.825-21.2-2.803c-5.079-6.627-3.824-16.12,2.803-21.199c16.773-12.854,36.228-19.746,46.335-22.709
            c29.739-8.72,36.234-2.625,39.357,0.305c11.425,10.725,9.384,37.148,8.859,42.337c-1.541,15.223-7.14,37.456-25.065,56.927
            c-16.752,18.194-57.48,30.074-73.488,32.699C343.11,235.462,342.286,235.529,341.474,235.529z"/>
        <path d="M203.502,225.22c15.213-14.296,32.557-21.246,53.027-21.246c18.902,0,37.075,6.033,53.109,11.355
            c8.743,2.902,17.122,5.682,24.25,6.972c7.126-1.29,15.506-4.07,24.25-6.972c16.034-5.322,34.207-11.355,53.109-11.355
            c20.47,0,37.815,6.949,53.027,21.246c48.124,45.233,31.45,95.559,21.488,125.625l-0.513,1.559
            c-9.148,27.664-43.494,117.927-101.379,117.927c-30.849,0-41.247-5.035-48.837-8.714c-0.407-0.197-0.786-0.381-1.145-0.552
            c-0.358,0.171-0.738,0.355-1.146,0.552c-7.59,3.679-17.987,8.714-48.837,8.714c-57.885,0-92.23-90.263-101.379-117.927l-0.513-1.559
            C172.052,320.777,155.378,270.452,203.502,225.22z"/>
        <path style="fill:#000000;" d="M383.868,485.449c-27.731,0-41.347-4.016-49.985-7.705c-8.688,3.707-22.304,7.705-49.979,7.705
            c-66.161,0-102.976-89.723-115.734-128.298l-0.522-1.588c-10.36-31.261-29.663-89.517,25.496-141.362
            c17.896-16.82,39.221-25.348,63.383-25.348c21.351,0,40.754,6.441,57.872,12.125c7.101,2.357,13.865,4.601,19.486,5.888
            c5.62-1.285,12.384-3.531,19.489-5.888c17.115-5.682,36.517-12.125,57.869-12.125c24.161,0,45.487,8.528,63.383,25.348
            c55.159,51.846,35.856,110.102,25.484,141.4l-0.5,1.523C486.844,395.726,450.029,485.449,383.868,485.449z M333.887,445.944
            c2.218,0,4.438,0.488,6.491,1.464l1.139,0.547c6.729,3.262,14.963,7.253,42.352,7.253c48.972,0,81.083-89.593,87.024-107.553
            l0.504-1.532c9.972-30.096,23.613-71.264-17.479-109.887c-12.444-11.696-26.004-17.142-42.673-17.142
            c-16.463,0-33.399,5.623-48.343,10.584c-9.326,3.095-18.132,6.016-26.323,7.5c-1.778,0.322-3.606,0.322-5.384,0
            c-8.191-1.482-16.997-4.405-26.32-7.498c-14.946-4.962-31.883-10.586-48.346-10.586c-16.667,0-30.227,5.448-42.673,17.143
            c-41.093,38.622-27.45,79.792-17.49,109.85l0.525,1.595c5.932,17.933,38.043,107.526,87.015,107.526
            c27.388,0,35.624-3.992,42.24-7.199l1.25-0.602C329.45,446.431,331.668,445.944,333.887,445.944z"/>
        <path style="fill:#000000;" d="M230.274,150.156H25.643c-8.349,0-15.12-6.769-15.12-15.12s6.771-15.12,15.12-15.12h204.632
            c8.349,0,15.12,6.769,15.12,15.12S238.624,150.156,230.274,150.156z"/>
    </symbol>

    <symbol id="footer-facebook" role="img" aria-labelledby="footer-facebook_title" viewBox="0 0 512 512">
        <title id="footer-facebook_title">Facebook</title>
        <path d="M365.075,307.969L365.075,307.969c-0.209-21.573-17.756-38.95-39.33-38.95h-36.052v-54.677
            c0-15.267,12.377-27.643,27.643-27.643h13.209c19.534,0,35.37-15.836,35.37-35.37l0,0c0-19.534-15.836-35.37-35.37-35.37h-32.525
            c-48.044,0-86.991,38.947-86.991,86.991v66.067h-25.613c-21.722,0-39.332,17.609-39.332,39.332l0,0
            c0,21.722,17.609,39.332,39.332,39.332h25.613v149.794h78.665V347.682h36.052C347.617,347.682,365.287,329.839,365.075,307.969z"/>
        <path style="fill:#000000;" d="M289.693,512h-78.665c-8.021,0-14.523-6.502-14.523-14.523V362.206h-11.09
            c-29.695,0-53.855-24.159-53.855-53.855s24.159-53.856,53.855-53.856h11.09v-51.544c0-55.975,45.539-101.514,101.514-101.514
            h32.525c27.511,0,49.893,22.382,49.893,49.893c0,27.51-22.382,49.893-49.893,49.893h-13.209c-7.234,0-13.12,5.886-13.12,13.12
            v40.154h21.529c29.409,0,53.567,23.925,53.853,53.332c0.141,14.484-5.395,28.128-15.588,38.419s-23.782,15.958-38.266,15.958
            h-21.528v135.271C304.216,505.498,297.714,512,289.693,512z M225.553,482.954h49.618V347.682c0-8.021,6.502-14.523,14.523-14.523
            h36.052c6.672,0,12.933-2.611,17.627-7.352c4.695-4.74,7.246-11.026,7.18-17.698c-0.131-13.547-11.26-24.569-24.808-24.569h-36.052
            c-8.021,0-14.523-6.502-14.523-14.523v-54.677c0-23.25,18.915-42.166,42.166-42.166h13.209c11.495,0,20.847-9.351,20.847-20.847
            c0-11.495-9.351-20.847-20.847-20.847h-32.525c-39.959,0-72.468,32.509-72.468,72.468v66.067c0,8.021-6.502,14.523-14.523,14.523
            h-25.613c-13.679,0-24.808,11.129-24.808,24.81c0,13.679,11.129,24.808,24.808,24.808h25.613c8.021,0,14.523,6.502,14.523,14.523
            V482.954z"/>
        <path style="fill:#000000;" d="M432.464,512h-37.766c-8.021,0-14.523-6.502-14.523-14.523s6.502-14.523,14.523-14.523h37.766
            c27.839,0,50.49-22.65,50.49-50.49V79.536c0-27.839-22.65-50.49-50.49-50.49H214.367c-8.021,0-14.523-6.502-14.523-14.523
            S206.346,0,214.367,0h218.097C476.321,0,512,35.679,512,79.536v352.928C512,476.321,476.321,512,432.464,512z"/>
        <path style="fill:#000000;" d="M289.693,512H79.536C35.679,512,0,476.321,0,432.464V79.536C0,35.679,35.679,0,79.536,0h32.684
            c8.021,0,14.523,6.502,14.523,14.523s-6.502,14.523-14.523,14.523H79.536c-27.839,0-50.49,22.65-50.49,50.49v352.928
            c0,27.839,22.65,50.49,50.49,50.49h210.157c8.021,0,14.523,6.502,14.523,14.523S297.714,512,289.693,512z"/>
    </symbol>

    <symbol id="footer-twitter" role="img" aria-labelledby="footer-twitter_title" viewBox="0 0 512 512">
        <title id="footer-twitter_title">Twitter</title>
        <path style="fill:#000000;" d="M432.464,512h-37.766c-8.021,0-14.523-6.502-14.523-14.523s6.502-14.523,14.523-14.523h37.766
            c27.839,0,50.49-22.65,50.49-50.49V79.536c0-27.839-22.65-50.49-50.49-50.49H214.367c-8.021,0-14.523-6.502-14.523-14.523
            S206.346,0,214.367,0h218.097C476.321,0,512,35.679,512,79.536v352.928C512,476.321,476.321,512,432.464,512z"/>
        <path style="fill:#000000;" d="M289.693,512H79.536C35.679,512,0,476.321,0,432.464V79.536C0,35.679,35.679,0,79.536,0h32.684
            c8.021,0,14.523,6.502,14.523,14.523s-6.502,14.523-14.523,14.523H79.536c-27.839,0-50.49,22.65-50.49,50.49v352.928
            c0,27.839,22.65,50.49,50.49,50.49h210.157c8.021,0,14.523,6.502,14.523,14.523S297.714,512,289.693,512z"/>
        <path d="M402.448,169.183l-37.573-14.314c-7.963-17.818-20.947-30.558-38.881-34.726
            c-52.475-12.195-80.156,37.033-74.518,72.059c0.796,4.942,2.136,9.662,3.956,14.108c-4.695,0.562-73.226,7.687-132.133-37.704
            c-4.645-3.578-11.392-0.928-12.549,4.822c-3.234,16.051-2.402,45.263,35.436,69.081c0,0-7.501,0.903-16.841-0.574
            c-5.962-0.943-10.762,4.727-8.797,10.435c5.298,15.384,19.509,38.642,57.205,41.297c0,0-5.482,3.15-15.422,4.758
            c-5.975,0.966-8.71,8.055-4.9,12.759c8.991,11.101,26.897,25.645,57.978,23.09c0,0,2.216,25.736-88.895,41.628
            c-0.004,0.001,45.784,17.856,100.705,17.856c152.343,0,152.417-127.349,146.611-201.278L402.448,169.183z"/>
        <path style="fill:#000000;" d="M227.216,408.279c-29.812,0-56.906-5.079-74.386-9.34c-9.899-2.412-17.861-4.832-22.796-6.435
            c-10.017-3.256-17.255-5.607-18.004-15.505c-0.566-7.455,4.621-14.121,11.986-15.405c29.363-5.121,47.662-11.071,59.013-16.251
            c-14.512-4.518-27.174-13.027-36.886-25.018c-4.817-5.95-6.242-14.01-3.811-21.24c-21.532-11.084-31.252-29.598-35.519-41.983
            c-2.361-6.862-1.266-14.472,2.932-20.357c0.963-1.349,2.062-2.574,3.271-3.661C92.303,208.27,94.12,182.422,96.511,170.56
            c2.113-10.489,11.392-18.1,22.064-18.1c4.945,0,9.643,1.605,13.586,4.645c38.128,29.379,80.695,34.931,104.678,35.384
            c-2.892-22.019,4.393-46.243,19.265-63.7c13.769-16.161,32.952-25.063,54.014-25.063c6.219,0,12.666,0.765,19.16,2.274
            c19.847,4.613,35.696,17.474,46.139,37.348l32.199,12.268c4.849,1.847,8.344,6.142,9.168,11.263
            c0.823,5.122-1.147,10.297-5.172,13.572l-22.751,18.517c3.686,54.344,1.386,120.087-39.67,164.495
            C321.699,393.199,280.66,408.279,227.216,408.279z M185.193,375.808c12.767,2.01,27.067,3.425,42.024,3.425
            c45.014,0,78.878-11.941,100.651-35.492c35.351-38.238,35.394-100.316,31.482-150.126c-0.373-4.755,1.611-9.391,5.311-12.401
            l9.11-7.416l-14.066-5.359c-3.605-1.374-6.515-4.125-8.089-7.646c-6.547-14.651-16.275-23.568-28.91-26.505
            c-4.342-1.009-8.576-1.521-12.586-1.521c-15.912,0-26.131,8.078-31.904,14.854c-9.813,11.52-14.681,28.111-12.403,42.272
            c0.606,3.763,1.635,7.436,3.059,10.914c1.718,4.197,1.377,8.955-0.922,12.863c-2.299,3.908-6.291,6.519-10.794,7.058
            c-1.634,0.196-7.686,0.834-16.934,0.834c-25.045,0-71.965-4.671-116.114-34.471c0.548,13.123,7.266,28.933,29.812,43.125
            c5.204,3.276,7.781,9.473,6.434,15.474c-1.348,6.001-6.328,10.5-12.435,11.235c-0.523,0.062-3.352,0.378-7.604,0.378
            c-0.534,0-1.067-0.004-1.6-0.015c7.905,13.22,21.332,20.571,40.058,21.889c6.374,0.449,11.706,5.01,13.135,11.238
            c1.429,6.229-1.38,12.658-6.92,15.842c-0.777,0.446-3.621,1.991-8.333,3.574c7.177,5.571,17.435,10.211,31.684,10.211
            c1.91,0,3.889-0.083,5.88-0.247c7.959-0.652,14.973,5.259,15.66,13.228c0.289,3.355,0,15.258-15.839,27.568
            C206.824,366.201,197.185,371.28,185.193,375.808z"/>
    </symbol>    

    <symbol id="footer-linkedin" role="img" aria-labelledby="footer-linkedin_title" viewBox="0 0 512 512">
        <title id="footer-linkedin_title">Linkedin</title>
        <path style="fill:#000000;" d="M432.464,512h-37.766c-8.021,0-14.523-6.502-14.523-14.523s6.502-14.523,14.523-14.523h37.766
            c27.839,0,50.49-22.65,50.49-50.49V79.536c0-27.839-22.65-50.49-50.49-50.49H214.367c-8.021,0-14.523-6.502-14.523-14.523
            S206.346,0,214.367,0h218.097C476.321,0,512,35.679,512,79.536v352.928C512,476.321,476.321,512,432.464,512z"/>
        <path style="fill:#000000;" d="M289.693,512H79.536C35.679,512,0,476.321,0,432.464V79.536C0,35.679,35.679,0,79.536,0h32.684
            c8.021,0,14.523,6.502,14.523,14.523s-6.502,14.523-14.523,14.523H79.536c-27.839,0-50.49,22.65-50.49,50.49v352.928
            c0,27.839,22.65,50.49,50.49,50.49h210.157c8.021,0,14.523,6.502,14.523,14.523S297.714,512,289.693,512z"/>
        <path d="M142.603,112.936c17.866,0.017,32.597,14.77,32.559,32.728c-0.042,18.797-15.643,32.966-32.78,32.561
            c-17.381,0.351-32.657-14.167-32.652-32.686C109.73,127.576,124.518,112.925,142.603,112.936L142.603,112.936z"/>
        <path style="fill:#000000;" d="M143.095,192.755c-0.247,0-0.492-0.001-0.738-0.006c-0.198,0.003-0.395,0.004-0.593,0.004
            c-12.26,0-23.882-4.884-32.725-13.752c-8.924-8.949-13.836-20.835-13.833-33.466c0-25.982,21.253-47.122,47.376-47.122
            c12.558,0.013,24.368,4.947,33.288,13.896c8.935,8.962,13.841,20.819,13.814,33.386c-0.058,25.948-20.955,47.059-46.584,47.062
            C143.099,192.755,143.098,192.755,143.095,192.755z M142.382,163.7c0.115,0,0.229,0.001,0.344,0.004l0.372,0.004
            c8.452,0,17.518-7.264,17.541-18.078c0.01-4.8-1.885-9.351-5.339-12.815c-3.439-3.449-7.954-5.352-12.712-5.356
            c-10.114,0-18.337,8.11-18.337,18.08c-0.001,4.89,1.901,9.489,5.356,12.953c3.305,3.314,7.736,5.215,12.157,5.215l0.324-0.003
            C142.186,163.702,142.285,163.7,142.382,163.7z"/>
        <path d="M282.754,401.968v-93.876c0-17.281,13.621-31.839,30.898-32.198c8.98-0.186,17.13,3.381,22.987,9.24
            c5.713,5.709,9.245,13.604,9.245,22.321v94.514h56.382l0.004-98.072c0-60.625-32.639-87.29-66.876-87.29
            c-45.701,0-56.883,26.258-56.887,26.267v-23.779h-52.013V401.97h56.26V401.968z"/>
        <path style="fill:#000000;" d="M402.266,416.492h-56.382c-8.021,0-14.523-6.502-14.523-14.523v-94.514
            c0-4.556-1.77-8.834-4.987-12.047c-3.224-3.224-7.504-4.997-12.054-4.997l-0.367,0.004c-9.196,0.19-16.675,8.12-16.675,17.678
            v93.876c0,8.021-6.502,14.523-14.523,14.523h-56.26c-8.021,0-14.523-6.502-14.523-14.523V219.095
            c0-8.021,6.502-14.523,14.523-14.523h52.013c5.387,0,10.089,2.934,12.596,7.289c10.979-5.692,25.558-9.777,44.291-9.777
            c40.517,0,81.399,31.482,81.399,101.813l-0.004,98.072C416.789,409.99,410.287,416.492,402.266,416.492z M360.409,387.445h27.335
            l0.003-83.549c0-53.65-27.044-72.767-52.353-72.767c-34.003,0-43.055,16.553-43.658,17.736c-2.797,6.175-9.507,9.607-16.169,8.23
            c-6.746-1.394-11.584-7.334-11.584-14.221v-9.256h-22.967v153.828h27.213v-79.353c0-25.244,20.241-46.202,45.12-46.718
            c12.69-0.263,24.624,4.557,33.557,13.491c8.704,8.696,13.498,20.271,13.498,32.59v79.989H360.409z"/>
        <polygon points="170.579,401.968 170.579,219.099 114.314,219.099 114.309,219.103 114.309,401.968 "/>
        <path style="fill:#000000;" d="M170.579,416.492h-56.27c-8.021,0-14.523-6.502-14.523-14.523V219.103
            c0-8.021,6.508-14.528,14.529-14.528h56.263c8.021,0,14.523,6.502,14.523,14.523V401.97
            C185.102,409.99,178.6,416.492,170.579,416.492z M128.832,387.445h27.222V233.622h-27.222V387.445z"/>
    </symbol>

    <symbol id="footer-instagram" role="img" aria-labelledby="footer-instagram_title" viewBox="0 0 512 512">
        <title id="footer-instagram_title">Instagram</title>
        <path style="fill:#000000;" d="M432.464,512.001h-37.767c-8.02,0-14.523-6.502-14.523-14.523s6.503-14.523,14.523-14.523h37.767
            c27.839,0,50.49-22.65,50.49-50.49V79.537c0-27.839-22.65-50.49-50.49-50.49H214.367c-8.02,0-14.523-6.502-14.523-14.523
            s6.503-14.523,14.523-14.523h218.098c43.855,0,79.536,35.679,79.536,79.536v352.928C512,476.322,476.321,512.001,432.464,512.001z"
            />
        <path style="fill:#000000;" d="M289.694,512.001H79.536C35.679,512.001,0,476.322,0,432.465V79.537
            C0,35.68,35.679,0.001,79.536,0.001h32.684c8.02,0,14.523,6.502,14.523,14.523s-6.503,14.523-14.523,14.523H79.536
            c-27.839,0-50.49,22.65-50.49,50.49v352.928c0,27.839,22.65,50.49,50.49,50.49h210.158c8.02,0,14.523,6.502,14.523,14.523
            C304.218,505.499,297.714,512.001,289.694,512.001z"/>
        <path d="M359.599,102.056H152.401c-27.806,0-50.347,22.541-50.347,50.347v207.197
            c0,27.806,22.541,50.347,50.347,50.347h207.197c27.806,0,50.347-22.541,50.347-50.347V152.402
            C409.946,124.596,387.405,102.056,359.599,102.056z M256.001,330.781c-41.299,0-74.78-33.48-74.78-74.78s33.48-74.78,74.78-74.78
            s74.78,33.48,74.78,74.78S297.3,330.781,256.001,330.781z"/>
        <path style="fill:#000000;" d="M359.599,424.47H152.403c-35.77,0-64.87-29.1-64.87-64.87V152.402c0-35.769,29.1-64.87,64.87-64.87
            h207.196c35.77,0,64.87,29.1,64.87,64.87v207.197C424.469,395.368,395.368,424.47,359.599,424.47z M152.403,116.579
            c-19.754,0-35.824,16.07-35.824,35.824v207.197c0,19.753,16.07,35.824,35.824,35.824h207.196c19.754,0,35.824-16.07,35.824-35.824
            V152.402c0-19.753-16.07-35.824-35.824-35.824H152.403V116.579z M256.001,345.304c-49.242,0-89.303-40.061-89.303-89.303
            s40.061-89.303,89.303-89.303s89.303,40.061,89.303,89.303S305.243,345.304,256.001,345.304z M256.001,195.744
            c-33.226,0-60.256,27.03-60.256,60.257s27.03,60.257,60.256,60.257s60.257-27.03,60.257-60.257S289.225,195.744,256.001,195.744z"
            />
        <circle style="fill:#000000;" cx="346.406" cy="164.504" r="20.449"/>
    </symbol>

</svg>