<svg xmlns="http://www.w3.org/2000/svg" xmlns:xlink="http://www.w3.org/1999/xlink">

	<symbol id="products01" role="img" aria-labelledby="products01_title" viewBox="0 0 64 64">
        <title id="products01_title"></title>
        <path d="M32,6A16,16,0,1,0,48,22,16.019,16.019,0,0,0,32,6ZM42.447,18.9l2.8-1.4a13.825,13.825,0,0,1,.706,3.5H43v2h2.949a13.9,13.9,0,0,1-1.132,4.613L41.6,25.2l-1.2,1.6,3.464,2.6a14.054,14.054,0,0,1-1.772,2.28l-2.385-2.385-1.414,1.414,2.313,2.313a13.921,13.921,0,0,1-17.76-.452l1.861-1.861-1.414-1.414-1.861,1.861a14.067,14.067,0,0,1-1.609-2.272L22.6,26.8l-1.2-1.6-2.448,1.836a13.864,13.864,0,0,1-.9-4.036H21V21H18.051a13.825,13.825,0,0,1,.706-3.5l2.8,1.4.894-1.79-2.909-1.454a14.067,14.067,0,0,1,1.894-2.8l1.861,1.861,1.414-1.414-1.861-1.861a13.942,13.942,0,0,1,2.435-1.708l1.887,2.831,1.664-1.11-1.7-2.553A13.827,13.827,0,0,1,31,8.051V11h2V8.051a13.827,13.827,0,0,1,3.87.841l-1.7,2.553,1.664,1.11,1.887-2.831a13.942,13.942,0,0,1,2.435,1.708l-1.861,1.861,1.414,1.414,1.861-1.861a14.067,14.067,0,0,1,1.894,2.805l-2.909,1.454Z"/>
        <path d="M32,2A19.989,19.989,0,0,0,21,38.686V46H20a1,1,0,0,0-1,1v4a1,1,0,0,0,1,1h1v3H20a1,1,0,0,0-1,1v5a1,1,0,0,0,1,1H30a1,1,0,0,0,1-1V56a1,1,0,0,0-1-1H29V52h1a1,1,0,0,0,1-1V47a1,1,0,0,0-1-1H29V41.75a18.125,18.125,0,0,0,6,0V46H34a1,1,0,0,0-1,1v4a1,1,0,0,0,1,1h1v3H34a1,1,0,0,0-1,1v5a1,1,0,0,0,1,1H44a1,1,0,0,0,1-1V56a1,1,0,0,0-1-1H43V52h1a1,1,0,0,0,1-1V47a1,1,0,0,0-1-1H43V38.686A19.989,19.989,0,0,0,32,2ZM29,60H21V57h8Zm-6-5V52h4v3Zm6-5H21V48h8Zm-6-4V39.836a19.845,19.845,0,0,0,4,1.506V46ZM43,60H35V57h8Zm-6-5V52h4v3Zm6-5H35V48h8Zm-6-4V41.342a19.845,19.845,0,0,0,4-1.506V46Zm-5-6A18,18,0,1,1,50,22,18.021,18.021,0,0,1,32,40Z"/>
        <rect x="29" y="29" width="2" height="2"/>
        <rect x="33" y="29" width="2" height="2"/>
        <path d="M37.293,15.293l-4,4-.006.009A2.957,2.957,0,0,0,32,19a3,3,0,0,0-3,3,2.957,2.957,0,0,0,.3,1.287l-.009.006-4,4a1,1,0,1,0,1.414,1.414l4-4,.006-.009A2.957,2.957,0,0,0,32,25a3,3,0,0,0,3-3,2.957,2.957,0,0,0-.3-1.287l.009-.006,4-4a1,1,0,0,0-1.414-1.414ZM32,23a1,1,0,1,1,1-1A1,1,0,0,1,32,23Z"/>
    </symbol>

    <symbol id="products02" role="img" aria-labelledby="products02_title" viewBox="0 0 512 512">
        <title id="products02_title"></title>
        <path d="M362.7,405.3H384v21.3h-21.3V405.3z"/>
		<path d="M320,405.3h21.3v21.3H320V405.3z"/>
		<path d="M277.3,405.3h21.3v21.3h-21.3V405.3z"/>
		<path d="M234.7,405.3H256v21.3h-21.3V405.3z"/>
		<path d="M149.3,202.7c0,58.9,47.8,106.7,106.7,106.7s106.7-47.8,106.7-106.7S314.9,96,256,96C197.1,96.1,149.4,143.8,149.3,202.7z
			 M170.7,202.7c0-47.1,38.2-85.3,85.3-85.3s85.3,38.2,85.3,85.3S303.1,288,256,288C208.9,287.9,170.7,249.8,170.7,202.7z"/>
		<path d="M288,192h-54.7l31.6-47.4l-17.7-11.8l-42.7,64c-3.3,4.9-1.9,11.5,3,14.8c1.8,1.2,3.8,1.8,5.9,1.8h51.9l-38.8,46.5l16.4,13.7
			l53.3-64c3.8-4.5,3.2-11.3-1.4-15C292.9,192.9,290.5,192,288,192z"/>
		<path d="M128,53.3V128h21.3V64H192V42.7h-53.3C132.8,42.7,128,47.4,128,53.3z"/>
		<path d="M213.3,42.7h21.3V64h-21.3V42.7z"/>
		<path d="M362.7,320H320v21.3h53.3c5.9,0,10.7-4.8,10.7-10.7v-53.3h-21.3V320z"/>
		<path d="M181.3,501.3c0,5.9,4.8,10.7,10.7,10.7h53.3h21.3H320c5.9,0,10.7-4.8,10.7-10.7v-32h64c17.7,0,32-14.3,32-32V10.7
			C426.7,4.8,421.9,0,416,0H96c-5.9,0-10.7,4.8-10.7,10.7v426.7c0,17.7,14.3,32,32,32h64V501.3z M309.3,490.7H202.7v-21.3h106.7
			V490.7z M106.7,21.3h298.7v341.3H106.7V21.3z M117.3,448c-5.9,0-10.7-4.8-10.7-10.7V384h298.7v53.3c0,5.9-4.8,10.7-10.7,10.7H117.3
			z"/>
    </symbol>

    <symbol id="products03" role="img" aria-labelledby="products03_title" viewBox="0 0 64 64">
        <title id="products03_title"></title>
        <path d="m61.555 24.168-5.555-3.703v-13.465a5.006 5.006 0 0 0 -5-5h-38a5.006 5.006 0 0 0 -5 5v13.465l-5.555 3.7a1 1 0 0 0 -.445.835v2a1 1 0 0 0 .445.832l5.555 3.703v13.465a5.006 5.006 0 0 0 5 5v11a1 1 0 0 0 1 1h36a1 1 0 0 0 1-1v-11a5.006 5.006 0 0 0 5-5v-13.465l5.555-3.7a1 1 0 0 0 .445-.835v-2a1 1 0 0 0 -.445-.832zm-12.555 35.832h-34v-10h2v7a1 1 0 0 0 1 1h4a1 1 0 0 0 1-1v-7h2v7a1 1 0 0 0 1 1h4a1 1 0 0 0 1-1v-7h2v7a1 1 0 0 0 1 1h4a1 1 0 0 0 1-1v-7h2v7a1 1 0 0 0 1 1h4a1 1 0 0 0 1-1v-7h2zm-30-4v-6h2v6zm8 0v-6h2v6zm8 0v-6h2v6zm8 0v-6h2v6zm17-29.535-5.555 3.7a1 1 0 0 0 -.445.835v14a3 3 0 0 1 -3 3h-38a3 3 0 0 1 -3-3v-14a1 1 0 0 0 -.445-.832l-5.555-3.703v-.93l5.555-3.7a1 1 0 0 0 .445-.835v-14a3 3 0 0 1 3-3h38a3 3 0 0 1 3 3v14a1 1 0 0 0 .445.832l5.555 3.703z"/>
        <path d="m51 6h-38a1 1 0 0 0 -1 1v38a1 1 0 0 0 1 1h38a1 1 0 0 0 1-1v-38a1 1 0 0 0 -1-1zm-1 38h-36v-36h36z"/>
        <path d="m8 25h2v2h-2z"/>
        <path d="m54 25h2v2h-2z"/>
        <path d="m48 36h-32v6h32zm-2 4h-28v-2h28z"/>
        <path d="m48 26v-12h-32v12zm-6-10h4v8h-4zm-6 0h4v8h-4zm-6 0h4v8h-4zm-6 0h4v8h-4zm-6 0h4v8h-4z"/>
        <path d="m19 34a3 3 0 1 0 -3-3 3 3 0 0 0 3 3zm0-4a1 1 0 1 1 -1 1 1 1 0 0 1 1-1z"/>
        <path d="m25 34a3 3 0 1 0 -3-3 3 3 0 0 0 3 3zm0-4a1 1 0 1 1 -1 1 1 1 0 0 1 1-1z"/>
        <path d="m31 34a3 3 0 1 0 -3-3 3 3 0 0 0 3 3zm0-4a1 1 0 1 1 -1 1 1 1 0 0 1 1-1z"/>
        <path d="m36 32h4v2h-4z"/>
        <path d="m42 32h6v2h-6z"/>
        <path d="m36 28h8v2h-8z"/>
        <path d="m46 28h2v2h-2z"/>
        <path d="m16 10h2v2h-2z"/>
        <path d="m46 10h2v2h-2z"/>
    </symbol>

    <symbol id="footer-phone" role="img" aria-labelledby="footer-phone_title" viewBox="0 0 512 512">
        <title id="footer-phone_title"></title>
        <path d="M421.216,195.504c-5.092-26.101-17.723-49.836-36.526-68.64c-18.804-18.803-42.54-31.434-68.641-36.527
			c-11.21-2.189-22.073,5.128-24.261,16.339c-2.187,11.212,5.128,22.073,16.339,24.26c36.847,7.188,65.3,35.642,72.489,72.489
			c1.927,9.874,10.581,16.726,20.278,16.726c1.313,0,2.645-0.125,3.984-0.387C416.088,217.577,423.403,206.715,421.216,195.504z"/>
		<path d="M511.422,196.929c-5.629-50.096-28.373-97.304-64.042-132.927C411.712,28.378,364.475,5.694,314.371,0.128
			c-11.355-1.261-21.578,6.92-22.839,18.272c-1.261,11.353,6.919,21.578,18.272,22.84c84.961,9.438,150.966,75.36,160.512,160.31
			c1.188,10.566,10.139,18.374,20.527,18.374c0.771,0,1.552-0.043,2.336-0.131C504.53,218.516,512.698,208.281,511.422,196.929z"/>
		<path d="M432.59,312.566c-0.062-0.008-0.124-0.017-0.186-0.025c-20.013-2.639-39.751-7.557-58.619-14.596
			c-23.91-8.99-51.103-3.191-69.27,14.772c-0.028,0.028-0.056,0.055-0.083,0.083l-17.148,17.148
			c-42.633-26.924-78.756-63.047-105.679-105.679l17.149-17.149c0.027-0.028,0.054-0.055,0.082-0.083
			c17.964-18.166,23.762-45.356,14.79-69.223c-7.057-18.914-11.974-38.653-14.614-58.666c-0.007-0.063-0.017-0.127-0.026-0.19
			c-4.591-32.478-32.782-56.734-65.548-56.467H66.053c-1.943,0.002-3.912,0.091-5.853,0.267
			C24.143,26.016-2.541,58.001,0.718,94.058c0.01,0.108,0.02,0.215,0.032,0.323c7.684,72.354,32.649,142.88,72.197,203.955
			c35.892,56.461,84.701,105.269,141.162,141.164c60.792,39.406,130.99,64.369,203.013,72.196c0.127,0.015,0.254,0.027,0.38,0.038
			c1.961,0.176,3.949,0.266,5.921,0.266c0.083,0,0.165,0,0.247,0.001c36.204-0.148,65.538-29.722,65.391-65.841v-67.233
			C489.746,345.714,465.515,317.211,432.59,312.566z M447.698,378.695v67.548c0.055,13.396-10.8,24.338-24.19,24.393
			c-0.715-0.004-1.425-0.027-2.135-0.086c-65.578-7.161-129.488-29.914-184.837-65.808c-0.053-0.035-0.107-0.069-0.161-0.103
			c-51.429-32.68-95.885-77.137-128.565-128.565c-0.032-0.051-0.064-0.101-0.097-0.153C71.683,220.306,48.928,156.086,41.902,90.193
			C40.779,76.91,50.63,65.155,63.923,63.954c0.717-0.064,1.443-0.098,2.145-0.098h67.463c0.146-0.001,0.294-0.003,0.443-0.002
			c12.021,0,22.322,8.905,24.044,20.819c3.05,23.063,8.721,45.806,16.871,67.649c3.319,8.832,1.189,18.869-5.427,25.591
			l-28.517,28.517c-6.583,6.582-7.956,16.753-3.354,24.847c33.837,59.508,83.177,108.847,142.685,142.685
			c8.094,4.6,18.264,3.23,24.848-3.355l28.512-28.512c6.72-6.621,16.765-8.752,25.642-5.415
			c21.799,8.134,44.547,13.805,67.61,16.855c12.18,1.757,21.122,12.339,20.816,24.647
			C447.7,378.353,447.698,378.524,447.698,378.695z"/>
    </symbol>    

	<symbol id="footer-mail" role="img" aria-labelledby="footer-mail_title" viewBox="0 0 512 512">
        <title id="footer-mail_title"></title>
        <path d="M256,141.176c-63.306,0-114.809,51.503-114.809,114.809S192.694,370.795,256,370.795s114.809-51.503,114.809-114.809
			S319.306,141.176,256,141.176z M256,329.43c-40.498,0-73.445-32.947-73.445-73.445c0-40.498,32.947-73.445,73.445-73.445
			c40.499,0,73.445,32.947,73.445,73.445C329.445,296.483,296.499,329.43,256,329.43z"/>
		<path d="M437.008,74.97C388.656,26.623,324.375,0,256,0c-0.005,0-0.013,0-0.017,0C187.603,0.004,123.318,26.637,74.97,74.992
			C26.62,123.347-0.005,187.637,0,256.017c0.004,68.379,26.637,132.666,74.992,181.014C123.344,485.377,187.625,512.001,256,512
			c0.004,0,0.012,0,0.017,0c55.945-0.004,111.216-18.738,155.631-52.752c9.07-6.945,10.792-19.927,3.846-28.995
			c-6.945-9.069-19.926-10.794-28.995-3.846c-37.24,28.518-83.58,44.224-130.486,44.228c-0.006,0-0.006,0-0.014,0
			c-57.324,0-111.224-22.324-151.761-62.856c-40.542-40.536-62.871-94.435-62.875-151.766
			C41.357,137.663,137.636,41.372,255.986,41.364c0.007,0,0.006,0,0.014,0c118.34,0,214.628,96.279,214.636,214.622v23.532
			c0,27.523-22.39,49.913-49.913,49.913c-27.523,0-49.913-22.391-49.913-49.913v-23.532c0-11.422-9.259-20.682-20.682-20.682
			s-20.682,9.26-20.682,20.682v23.532c0,50.33,40.947,91.278,91.278,91.278S512,329.848,512,279.518v-23.534
			C511.995,187.604,485.362,123.318,437.008,74.97z"/>
    </symbol>

    <symbol id="footer-location" role="img" aria-labelledby="footer-location_title" viewBox="0 0 512 512">
        <title id="footer-location_title"></title>
        <path d="M406.766,62.449C366.495,22.178,312.951,0,256,0S145.505,22.178,105.234,62.449
			c-40.272,40.271-62.449,93.814-62.449,150.766c0,37.656,10.972,76.863,32.609,116.532c16.825,30.846,40.15,62.102,69.326,92.898
			c49.17,51.903,97.763,84.519,99.808,85.881C248.001,510.842,252,512,256,512c4,0,7.999-1.158,11.473-3.474
			c2.045-1.363,50.638-33.978,99.808-85.881c29.176-30.795,52.501-62.051,69.326-92.898c21.637-39.669,32.609-78.876,32.609-116.532
			C469.215,156.263,447.038,102.72,406.766,62.449z M256.001,465.903C215.826,436.156,84.15,329.739,84.15,213.215
			c0-94.759,77.091-171.851,171.85-171.851s171.85,77.092,171.851,171.851C427.851,329.748,296.159,436.168,256.001,465.903z"/>
		<path d="M256,128.355c-46.791,0-84.86,38.068-84.86,84.86c0,46.791,38.068,84.86,84.86,84.86c46.792,0,84.861-38.068,84.86-84.86
			C340.86,166.423,302.791,128.355,256,128.355z M256,256.71c-23.983,0-43.495-19.512-43.495-43.495
			c0-23.983,19.512-43.495,43.495-43.495c23.984,0,43.495,19.512,43.495,43.495C299.495,237.198,279.984,256.71,256,256.71z"/>
		</symbol>

</svg>