<svg xmlns="http://www.w3.org/2000/svg" xmlns:xlink="http://www.w3.org/1999/xlink">

    <symbol id="advantages01" role="img" aria-labelledby="advantages01_title" viewBox="0 0 512 512">
        <title id="advantages01_title"></title>
        <path d="M293.603,448.684H82.471c-37.966,0-68.744-30.777-68.744-68.743l0,0
            c0-37.966,30.777-68.744,68.744-68.744h211.132c37.966,0,68.744,30.777,68.744,68.744l0,0
            C362.346,417.906,331.568,448.684,293.603,448.684z"/>
        <path d="M266.563,407.466c-15.202,0-27.525-12.324-27.525-27.525s12.324-27.525,27.525-27.525
            s27.525,12.324,27.525,27.525"/>
        <path style="fill:#000000;" d="M266.563,421.192c-22.746,0-41.253-18.506-41.253-41.253s18.506-41.252,41.253-41.252
            s41.253,18.505,41.253,41.252c0,7.58-6.147,13.726-13.726,13.726c-7.58,0-13.726-6.147-13.726-13.726
            c0-7.609-6.191-13.799-13.8-13.799s-13.8,6.191-13.8,13.799c0,7.61,6.191,13.8,13.8,13.8c7.58,0,13.726,6.147,13.726,13.726
            C280.289,415.046,274.144,421.192,266.563,421.192z"/>
        <path d="M109.51,407.466c-15.202,0-27.525-12.324-27.525-27.525s12.324-27.525,27.525-27.525
            s27.525,12.324,27.525,27.525"/>
        <path style="fill:#000000;" d="M109.509,421.192c-22.746,0-41.252-18.506-41.252-41.253s18.505-41.252,41.252-41.252
            s41.253,18.505,41.253,41.252c0,7.58-6.147,13.726-13.726,13.726c-7.58,0-13.726-6.147-13.726-13.726
            c0-7.609-6.191-13.799-13.8-13.799c-7.609,0-13.799,6.191-13.799,13.799c0,7.61,6.191,13.8,13.799,13.8
            c7.58,0,13.726,6.147,13.726,13.726C123.235,415.046,117.09,421.192,109.509,421.192z"/>
        <path d="M478.508,332.288l-35.511-47.264l-57.981,11.537l16.435-43.007
            c9.866-25.818,38.793-38.749,64.611-28.883l0,0c25.818,9.867,38.75,38.793,28.883,64.611L478.508,332.288z"/>
        <path style="fill:#000000;" d="M373.356,129.207c-21.95,0-39.808-17.858-39.808-39.809c0-21.95,17.858-39.808,39.808-39.808
            c21.951,0,39.809,17.858,39.809,39.808C413.165,111.349,395.307,129.207,373.356,129.207z M373.356,77.042
            c-6.812,0-12.355,5.543-12.355,12.355c0,6.814,5.543,12.356,12.355,12.356c6.814,0,12.356-5.543,12.356-12.356
            C385.712,82.585,380.169,77.042,373.356,77.042z"/>
        <path style="fill:#000000;" d="M293.601,297.47H82.471c-0.489,0-0.972,0.029-1.459,0.037V94.795h137.722l46.871,112.547h-81.687
            c-7.58,0-13.726,6.147-13.726,13.726s6.147,13.726,13.726,13.726h102.136c0.051,0,0.102,0,0.152,0h29.726
            c5.677,0,10.768-3.495,12.808-8.79l27.527-71.443c2.726-7.075-0.799-15.018-7.872-17.744c-7.076-2.727-15.019,0.8-17.744,7.872
            l-24.139,62.653h-11.168L240.559,75.791c-2.132-5.117-7.128-8.449-12.671-8.449H67.287c-7.58,0-13.726,6.147-13.726,13.726v221.645
            C22.305,314.452,0,344.635,0,379.939c0,45.474,36.997,82.471,82.471,82.471h211.131c45.474,0,82.471-36.997,82.471-82.471
            S339.075,297.47,293.601,297.47z M293.601,434.957H82.471c-30.338,0-55.018-24.68-55.018-55.018
            c0-30.337,24.68-55.017,55.018-55.017h211.131c30.338,0,55.018,24.68,55.018,55.017
            C348.621,410.277,323.939,434.957,293.601,434.957z"/>
        <path style="fill:#000000;" d="M506.413,245.391c-5.208-11.65-13.584-21.258-24.147-27.902l16.247-64.478
            c1.482-5.886-1.076-12.048-6.295-15.151l-51.485-30.621c-6.515-3.874-14.938-1.734-18.813,4.781
            c-3.875,6.515-1.735,14.938,4.781,18.813l42.69,25.39l-13.087,51.936c-2.679-0.345-5.381-0.528-8.099-0.528
            c-26.261,0-50.204,16.485-59.579,41.021l-16.435,43.007c-1.784,4.667-0.889,9.935,2.332,13.754
            c3.224,3.819,8.274,5.587,13.168,4.608l49.515-9.853l30.326,40.362c2.613,3.478,6.694,5.481,10.973,5.481
            c0.634,0,1.274-0.044,1.913-0.135c4.947-0.696,9.127-4.025,10.91-8.693l16.436-43.007
            C513.845,278.268,513.364,260.941,506.413,245.391z M482.12,284.38l-7.566,19.796l-20.585-27.399
            c-2.623-3.491-6.709-5.481-10.973-5.481c-0.888,0-1.787,0.086-2.679,0.264l-33.612,6.687l7.565-19.796
            c5.342-13.976,18.979-23.366,33.937-23.366c4.417,0,8.777,0.81,12.955,2.406c9.062,3.463,16.231,10.248,20.191,19.104
            C485.31,265.45,485.584,275.32,482.12,284.38z"/>
    </symbol>

    <symbol id="advantages02" role="img" aria-labelledby="advantages02_title" viewBox="0 0 512 512">
        <title id="advantages02_title"></title>
        <path style="fill:#000000;" d="M448.739,512h-53.17c-8.03,0-14.539-6.509-14.539-14.539s6.509-14.539,14.539-14.539h53.17
            c0.324,0,0.519,0,0.718-0.484c0.195-0.475,0.067-0.602-0.164-0.832c-45.206-44.693-117.465-71.377-193.295-71.377
            S107.91,436.912,62.704,481.606c-0.233,0.23-0.361,0.356-0.164,0.83c0.199,0.484,0.394,0.484,0.718,0.484H322.88
            c8.03,0,14.539,6.509,14.539,14.539s-6.509,14.539-14.539,14.539H63.258c-12.154,0-22.993-7.266-27.613-18.51
            c-4.619-11.238-2.021-24.019,6.616-32.559c51.28-50.7,129.185-79.777,213.738-79.777s162.458,29.077,213.738,79.777
            c8.637,8.541,11.235,21.321,6.616,32.559C471.732,504.734,460.893,512,448.739,512z"/>
        <path style="fill:#000000;" d="M377.547,453.674c-8.03,0-14.539-6.509-14.539-14.539v-81.698c0-8.03,6.509-14.539,14.539-14.539
            s14.539,6.509,14.539,14.539v81.698C392.085,447.165,385.577,453.674,377.547,453.674z"/>
        <path style="fill:#000000;" d="M176.231,453.674c-8.03,0-14.539-6.509-14.539-14.539v-119.22c0-8.03,6.509-14.539,14.539-14.539
            s14.539,6.509,14.539,14.539v119.22C190.769,447.165,184.26,453.674,176.231,453.674z"/>
        <path style="fill:#000000;" d="M469.907,371.977h-91.122c-8.03,0-14.539-6.509-14.539-14.539s6.509-14.539,14.539-14.539h91.122
            c0.342,0,1.384,0,2.035-1.221c0.65-1.221,0.068-2.086-0.122-2.37l-47.047-69.967c-3.134-4.654-3.444-10.633-0.804-15.595
            s7.774-8.044,13.394-8.044c0.356,0,1.406,0,2.054-1.236c0.648-1.236,0.049-2.099-0.148-2.383l-47.446-68.485
            c-3.225-4.654-3.598-10.661-0.97-15.68c2.627-5.017,7.778-8.134,13.442-8.134c0.35,0,1.416,0,2.057-1.263
            c0.641-1.263,0.01-2.123-0.198-2.405l-43.541-59.355c-0.459-0.625-1.085-0.942-1.859-0.942s-1.4,0.317-1.858,0.942l-34.767,46.82
            c-4.786,6.446-13.893,7.793-20.339,3.004c-6.446-4.786-7.791-13.893-3.004-20.339l34.717-46.752
            c5.926-8.079,15.149-12.752,25.253-12.752s19.328,4.673,25.304,12.822l43.541,59.355c7.035,9.59,8.066,22.136,2.691,32.745
            c-1.793,3.537-4.18,6.628-7.006,9.177l37.887,54.687c6.672,9.629,7.439,22.056,2.003,32.434c-1.807,3.45-4.19,6.465-6.997,8.953
            l37.771,56.172c6.484,9.643,7.12,22.007,1.657,32.265C492.144,365.606,481.529,371.977,469.907,371.977z"/>
        <path d="M323.776,325.993L267.4,242.155c-0.34-0.506,0.022-1.185,0.631-1.185h0.013
            c16.285,0,25.865-18.292,16.591-31.678l-56.856-82.064c-0.349-0.504,0.012-1.194,0.625-1.194l0,0
            c16.535,0,26.054-18.791,16.274-32.123l-52.174-71.128c-8.065-10.994-24.484-10.994-32.549,0l-52.174,71.125
            c-9.78,13.332-0.26,32.123,16.274,32.123l0,0c0.614,0,0.976,0.689,0.625,1.194l-56.856,82.064
            c-9.274,13.386,0.307,31.678,16.591,31.678h0.013c0.609,0,0.971,0.68,0.631,1.185l-56.376,83.841
            c-9.015,13.407,0.592,31.447,16.75,31.447h261.593C323.185,357.44,332.793,339.4,323.776,325.993z"/>
        <path style="fill:#000000;" d="M307.028,371.977H45.433c-12.858,0-24.601-7.05-30.646-18.398
            c-6.045-11.349-5.343-25.028,1.832-35.699l46.722-69.481c-3.956-3.021-7.281-6.916-9.686-11.504
            c-6.013-11.481-5.163-25.23,2.217-35.884l46.9-67.693c-3.982-3.091-7.311-7.077-9.693-11.778
            c-5.946-11.738-4.806-25.621,2.977-36.23l52.174-71.124C154.846,5.17,165.051,0,176.231,0c11.18,0,21.385,5.17,27.997,14.185
            l52.174,71.124c7.784,10.61,8.924,24.493,2.978,36.23c-2.38,4.699-5.711,8.685-9.693,11.778l46.9,67.693
            c7.381,10.654,8.23,24.404,2.217,35.884c-2.403,4.59-5.73,8.483-9.684,11.506l46.721,69.48c7.176,10.67,7.877,24.349,1.833,35.698
            C331.629,364.927,319.886,371.977,307.028,371.977z M176.231,29.077c-1.069,0-3.081,0.299-4.552,2.306l-52.174,71.125
            c-1.785,2.434-1.07,4.735-0.484,5.891c0.586,1.154,2.018,3.094,5.036,3.094c5.714,0,10.908,3.146,13.557,8.208
            c2.647,5.062,2.269,11.123-0.99,15.816l-56.848,82.051c-1.692,2.444-0.952,4.705-0.361,5.834s2.03,3.027,5.001,3.027
            c5.68,0,10.854,3.107,13.518,8.108c2.663,5.001,2.352,11.029-0.81,15.731l-56.375,83.836c-1.646,2.447-0.893,4.687-0.298,5.804
            c0.596,1.118,2.034,2.992,4.982,2.992h261.593c2.948,0,4.388-1.874,4.982-2.992c0.595-1.118,1.348-3.357-0.298-5.804l-56.376-83.839
            c-3.161-4.699-3.472-10.727-0.808-15.728c2.663-5.001,7.838-8.108,13.505-8.108c2.986,0,4.423-1.896,5.014-3.027
            c0.592-1.13,1.333-3.392-0.361-5.834l-56.854-82.064c-3.251-4.68-3.63-10.741-0.981-15.803c2.647-5.062,7.844-8.208,13.557-8.208
            c3.018,0,4.45-1.938,5.036-3.094s1.301-3.457-0.484-5.891l-52.174-71.124C179.31,29.377,177.299,29.077,176.231,29.077z"/>
    </symbol>

    <symbol id="advantages03" role="img" aria-labelledby="advantages03_title" viewBox="0 0 512 512">
        <title id="advantages03_title"></title>
        <path style="fill:#000000;" d="M236.54,73.724c-4.395,0-8.739-1.984-11.601-5.757c-4.856-6.401-3.604-15.528,2.798-20.384
            l58.825-44.624c6.4-4.856,15.528-3.604,20.384,2.798s3.604,15.528-2.798,20.384l-58.825,44.624
            C242.694,72.759,239.604,73.724,236.54,73.724z"/>
        <path style="fill:#000000;" d="M275.462,73.724c-3.064,0-6.153-0.965-8.783-2.959l-58.825-44.624
            c-6.401-4.855-7.654-13.981-2.798-20.384c4.856-6.401,13.983-7.653,20.384-2.798l58.825,44.624
            c6.401,4.855,7.654,13.981,2.798,20.384C284.202,71.739,279.857,73.724,275.462,73.724z"/>
        <path d="M29.27,199.059L248.934,50.86c4.27-2.881,9.863-2.881,14.133,0l219.665,148.199
            c10.334,6.972,5.399,23.109-7.066,23.109H36.337C23.871,222.17,18.936,206.031,29.27,199.059z"/>
        <path style="fill:#000000;" d="M475.667,236.719H36.337c-12.032,0-22.478-7.73-25.996-19.235
            C6.823,205.979,11.16,193.729,21.133,187L240.797,38.8c4.509-3.041,9.765-4.648,15.203-4.648s10.696,1.608,15.203,4.648
            l219.664,148.199c9.973,6.729,14.31,18.979,10.792,30.484C498.144,228.989,487.698,236.719,475.667,236.719z M42.594,207.621
            h426.814L256.002,63.644L42.594,207.621z"/>
        <path style="fill:#000000;" d="M423.613,315.595c-29.809,0-54.06-24.251-54.06-54.06s24.251-54.062,54.06-54.062
            s54.06,24.251,54.06,54.062C477.674,291.345,453.422,315.595,423.613,315.595z M423.613,236.57
            c-13.765,0-24.963,11.198-24.963,24.964c0,13.765,11.198,24.963,24.963,24.963s24.963-11.198,24.963-24.963
            C448.576,247.77,437.378,236.57,423.613,236.57z"/>
        <circle cx="423.62" cy="359.73" r="39.514"/>
        <path style="fill:#000000;" d="M423.613,413.799c-29.809,0-54.06-24.251-54.06-54.06s24.251-54.062,54.06-54.062
            s54.06,24.251,54.06,54.062S453.422,413.799,423.613,413.799z M423.613,334.774c-13.765,0-24.963,11.198-24.963,24.964
            c0,13.765,11.198,24.963,24.963,24.963s24.963-11.198,24.963-24.963C448.576,345.972,437.378,334.774,423.613,334.774z"/>
        <path style="fill:#000000;" d="M423.613,512.001c-29.809,0-54.06-24.251-54.06-54.06s24.251-54.062,54.06-54.062
            s54.06,24.251,54.06,54.062C477.674,487.751,453.422,512.001,423.613,512.001z M423.613,432.977
            c-13.765,0-24.963,11.198-24.963,24.964c0,13.765,11.198,24.963,24.963,24.963s24.963-11.198,24.963-24.963
            C448.576,444.176,437.378,432.977,423.613,432.977z"/>
        <path style="fill:#000000;" d="M88.389,315.595c-29.809,0-54.06-24.251-54.06-54.06s24.251-54.062,54.06-54.062
            s54.06,24.251,54.06,54.062C142.449,291.345,118.198,315.595,88.389,315.595z M88.389,236.57
            c-13.765,0-24.963,11.198-24.963,24.964c0,13.765,11.198,24.963,24.963,24.963s24.963-11.198,24.963-24.963
            C113.352,247.77,102.154,236.57,88.389,236.57z"/>
        <circle cx="88.39" cy="359.73" r="39.514"/>
        <path style="fill:#000000;" d="M88.389,413.799c-29.809,0-54.06-24.251-54.06-54.06s24.251-54.062,54.06-54.062
            s54.06,24.251,54.06,54.062S118.198,413.799,88.389,413.799z M88.389,334.774c-13.765,0-24.963,11.198-24.963,24.964
            c0,13.765,11.198,24.963,24.963,24.963s24.963-11.198,24.963-24.963C113.352,345.972,102.154,334.774,88.389,334.774z"/>
        <path style="fill:#000000;" d="M88.389,512.001c-29.809,0-54.06-24.251-54.06-54.06s24.251-54.062,54.06-54.062
            s54.06,24.251,54.06,54.062C142.449,487.751,118.198,512.001,88.389,512.001z M88.389,432.977
            c-13.765,0-24.963,11.198-24.963,24.964c0,13.765,11.198,24.963,24.963,24.963s24.963-11.198,24.963-24.963
            C113.352,444.176,102.154,432.977,88.389,432.977z"/>
        <path style="fill:#000000;" d="M284.43,325.456H88.389c-8.035,0-14.549-6.513-14.549-14.549s6.513-14.549,14.549-14.549H284.43
            c8.035,0,14.549,6.513,14.549,14.549S292.465,325.456,284.43,325.456z"/>
        <path style="fill:#000000;" d="M423.613,421.301h-195.98c-8.035,0-14.549-6.513-14.549-14.549s6.513-14.549,14.549-14.549h195.981
            c8.035,0,14.549,6.513,14.549,14.549S431.649,421.301,423.613,421.301z"/>
        <path style="fill:#000000;" d="M284.401,511.706H88.329c-8.035,0-14.549-6.513-14.549-14.549s6.513-14.549,14.549-14.549h196.073
            c8.035,0,14.549,6.513,14.549,14.549S292.436,511.706,284.401,511.706z"/>
    </symbol>

    <symbol id="advantages04" role="img" aria-labelledby="advantages04_title" viewBox="0 0 512 512">
        <title id="advantages04_title"></title>
        <path style="fill:#000000;" d="M82.674,249.44c-8.263,0-14.963-6.701-14.963-14.963V160.16c0-8.263,6.701-14.963,14.963-14.963
            s14.963,6.701,14.963,14.963v74.317C97.637,242.742,90.937,249.44,82.674,249.44z"/>
        <path style="fill:#000000;" d="M317.969,241.035c-8.263,0-14.963-6.701-14.963-14.963v-89.78c0-8.263,6.701-14.963,14.963-14.963
            s14.963,6.701,14.963,14.963v89.78C332.932,234.335,326.232,241.035,317.969,241.035z"/>
        <path style="fill:#000000;" d="M151.227,241.039c-1.698,0-3.424-0.29-5.113-0.905c-7.766-2.825-11.772-11.41-8.947-19.175
            l49.451-135.973c8.367-23.011,30.44-38.471,54.926-38.471h134.588c22.382,0,41.115,16.054,44.541,38.171l11.342,73.184
            c1.266,8.165-4.329,15.812-12.496,17.078c-8.148,1.275-15.812-4.327-17.078-12.496l-11.342-73.184
            c-1.152-7.432-7.447-12.827-14.968-12.827H241.544c-11.948,0-22.719,7.545-26.802,18.771l-49.451,135.975
            C163.081,237.264,157.341,241.039,151.227,241.039z"/>
        <path style="fill:#000000;" d="M75.191,462.492c-41.254,0-74.817-33.563-74.817-74.817s33.563-74.817,74.817-74.817
            s74.817,33.563,74.817,74.817S116.445,462.492,75.191,462.492z M75.191,342.785c-24.752,0-44.89,20.138-44.89,44.89
            s20.138,44.89,44.89,44.89s44.89-20.138,44.89-44.89S99.943,342.785,75.191,342.785z"/>
        <path d="M370.974,226.072H56.744c-23.075,0-41.781,18.707-41.781,41.782v119.82h0.374
            c0-33.055,26.798-59.853,59.853-59.853s59.853,26.798,59.853,59.853h131.845c-0.516-5.002-0.784-10.076-0.784-15.213
            C266.105,295.536,295.614,232.242,370.974,226.072z"/>
        <path style="fill:#000000;" d="M266.887,402.638H135.044c-8.263,0-14.963-6.701-14.963-14.963c0-24.752-20.138-44.89-44.89-44.89
            s-44.89,20.138-44.89,44.89c0,8.263-6.701,14.963-14.963,14.963h-0.374c-8.263,0-14.964-6.7-14.964-14.963v-119.82
            c0-31.29,25.456-56.745,56.744-56.745h314.231c8.026,0,14.622,6.332,14.95,14.353c0.329,8.019-5.729,14.871-13.729,15.524
            c-30.672,2.511-53.994,15.909-69.319,39.82c-14.268,22.264-21.809,53.958-21.809,91.655c0,4.544,0.236,9.147,0.705,13.679
            c0.434,4.212-0.937,8.412-3.774,11.558C275.161,400.844,271.123,402.638,266.887,402.638z M148.503,372.712h102.638
            c0-0.084,0-0.166,0-0.25c0-59.095,16.271-104.065,46.246-131.426H56.744c-14.787,0-26.817,12.031-26.817,26.819v60.286
            c12.575-9.584,28.269-15.282,45.264-15.282C111.321,312.858,141.553,338.604,148.503,372.712z"/>
        <path style="fill:#000000;" d="M412.245,465.484c-55.007,0-99.756-44.749-99.756-99.756s44.749-99.756,99.756-99.756
            c55.005,0,99.754,44.749,99.754,99.756S467.251,465.484,412.245,465.484z M412.245,295.898c-38.504,0-69.829,31.326-69.829,69.829
            s31.326,69.829,69.829,69.829c38.502,0,69.828-31.326,69.828-69.829S450.748,295.898,412.245,295.898z"/>
    </symbol>

    <symbol id="advantages05" role="img" aria-labelledby="advantages05_title" viewBox="0 0 512 512">
        <title id="advantages05_title"></title>
        <rect x="123.36" y="231.841" width="265.26" height="76.74"/>
        <path style="fill:#000000;" d="M388.635,322.793h-265.27c-7.848,0-14.21-6.363-14.21-14.21v-76.736c0-7.847,6.362-14.21,14.21-14.21
            h265.271c7.848,0,14.21,6.363,14.21,14.21v76.736C402.846,316.429,396.484,322.793,388.635,322.793z M137.575,294.372h236.85
            v-48.315h-236.85L137.575,294.372L137.575,294.372z"/>
        <path d="M292.111,456.995h-72.223c-10.199,0-18.465-8.268-18.465-18.465V122.054
            c0-3.969,1.279-7.831,3.646-11.016l36.111-48.58c7.384-9.933,22.256-9.933,29.639,0l36.111,48.58
            c2.367,3.185,3.646,7.048,3.646,11.016v316.475C310.576,448.728,302.31,456.995,292.111,456.995z"/>
        <path style="fill:#000000;" d="M292.111,471.204h-72.223c-18.017,0-32.677-14.658-32.677-32.675V122.054
            c0-6.973,2.291-13.896,6.453-19.494l36.111-48.58c6.227-8.378,15.785-13.182,26.224-13.182s19.997,4.805,26.225,13.182
            l36.111,48.58c4.161,5.596,6.453,12.521,6.453,19.494v316.475C324.788,456.546,310.129,471.204,292.111,471.204z M256,69.22
            c-0.799,0-2.305,0.222-3.415,1.717l-36.113,48.58c-0.541,0.729-0.84,1.63-0.84,2.538V438.53c0,2.346,1.908,4.255,4.256,4.255
            h72.223c2.346,0,4.256-1.908,4.256-4.255V122.054c0-0.908-0.298-1.809-0.84-2.538l-36.111-48.58
            C258.303,69.443,256.799,69.22,256,69.22z"/>
        <path style="fill:#000000;" d="M479.325,471.204h-72.223c-18.017,0-32.677-14.658-32.677-32.675V122.054
            c0-6.973,2.291-13.896,6.453-19.494l36.111-48.58c6.227-8.378,15.785-13.182,26.224-13.182s19.997,4.805,26.225,13.182
            l36.111,48.58c4.161,5.596,6.452,12.521,6.452,19.494v187.891c0,7.847-6.362,14.21-14.21,14.21s-14.21-6.363-14.21-14.21V122.054
            c0-0.909-0.298-1.809-0.84-2.538l-36.111-48.58c-1.111-1.495-2.616-1.717-3.415-1.717s-2.305,0.222-3.415,1.717l-36.113,48.58
            c-0.541,0.729-0.84,1.63-0.84,2.538v316.475c0,2.346,1.908,4.255,4.256,4.255h72.223c2.346,0,4.255-1.908,4.255-4.255V395.21
            c0-7.847,6.362-14.21,14.21-14.21s14.21,6.363,14.21,14.21v43.319C512,456.546,497.342,471.204,479.325,471.204z"/>
        <path style="fill:#000000;" d="M104.898,471.204H32.675C14.658,471.204,0,456.546,0,438.529V122.054
            c0-6.973,2.291-13.896,6.452-19.494l36.111-48.58c6.227-8.378,15.785-13.182,26.224-13.182s19.997,4.805,26.225,13.182
            l36.111,48.58c4.161,5.596,6.453,12.521,6.453,19.494v177.232c0,7.847-6.362,14.21-14.21,14.21s-14.21-6.363-14.21-14.21V122.054
            c0-0.908-0.298-1.809-0.84-2.538l-36.113-48.58c-1.111-1.495-2.616-1.717-3.415-1.717s-2.305,0.222-3.415,1.717l-36.113,48.58
            c-0.541,0.729-0.84,1.63-0.84,2.538v316.475c0,2.346,1.908,4.255,4.255,4.255h72.223c2.346,0,4.256-1.908,4.256-4.255v-44.031
            c0-7.847,6.362-14.21,14.21-14.21s14.21,6.363,14.21,14.21v44.031C137.575,456.546,122.917,471.204,104.898,471.204z"/>
    </symbol>

    <symbol id="advantages06" role="img" aria-labelledby="advantages06_title" viewBox="0 0 512 512">
        <title id="advantages06_title"></title>
        <path style="fill:#000000;" d="M460.96,335.177c-12.077,0-24.154-4.597-33.35-13.793L302.456,196.231
            c-6.026-6.026-6.026-15.798,0-21.825c6.028-6.025,15.796-6.025,21.826,0l125.154,125.154c6.356,6.356,16.696,6.358,23.052,0
            c3.08-3.079,4.776-7.173,4.776-11.528c0-4.355-1.696-8.449-4.775-11.528l-80.425-80.425c-6.026-6.026-6.026-15.798,0-21.825
            c6.031-6.025,15.799-6.022,21.825,0l80.424,80.425c8.907,8.907,13.815,20.751,13.815,33.352c0,12.599-4.907,24.443-13.815,33.352
            C485.117,330.58,473.04,335.177,460.96,335.177z"/>
        <path style="fill:#000000;" d="M260.734,283.176c-0.634,0-1.272-0.039-1.912-0.117l-6.562-0.816
            c-39.907-5.136-77.626-27.341-103.544-60.929c-25.913-33.582-37.836-75.694-32.707-115.536l0.852-6.611
            c0.853-6.614,5.858-11.934,12.41-13.185l8.497-1.623c28.95-5.685,57.382-15.272,84.425-28.48c4.139-2.022,8.287-4.444,12.333-7.204
            c0.108-0.076,0.219-0.148,0.33-0.221l64.87-41.85c7.062-5.202,15.75-7.443,24.54-6.321c8.975,1.159,16.983,5.724,22.56,12.856
            l55.058,71.41c5.54,7.17,7.969,16.079,6.829,25.074c-1.236,9.02-5.727,16.904-12.685,22.396l-20.409,17.275
            c-6.506,5.505-16.241,4.696-21.75-1.809c-5.506-6.506-4.696-16.242,1.809-21.75l20.64-17.471c0.181-0.153,0.364-0.301,0.551-0.444
            c0.694-0.537,1.114-1.287,1.244-2.235c0.086-0.69-0.136-1.497-0.662-2.177l-55.001-71.342c-0.497-0.636-1.231-1.06-2.116-1.173
            c-0.611-0.082-1.531-0.037-2.364,0.605c-0.34,0.261-0.69,0.508-1.051,0.741l-65.171,42.045c-5.216,3.548-10.602,6.684-16.011,9.326
            c-28.677,14.005-58.807,24.276-89.598,30.546c-2.687,30.469,7.034,62.41,27.012,88.302c19.981,25.893,48.413,43.39,78.571,48.506
            c12.534-25.433,29.542-51.376,49.287-75.157c5.444-6.554,15.173-7.458,21.731-2.014c6.557,5.444,7.458,15.174,2.014,21.731
            c-18.488,22.265-34.95,47.532-46.355,71.148l-3.787,7.807C272.01,279.844,266.586,283.176,260.734,283.176z"/>
        <path style="fill:#000000;" d="M260.734,283.176c-0.634,0-1.272-0.039-1.912-0.117l-6.562-0.816
            c-39.907-5.136-77.626-27.341-103.544-60.929c-25.913-33.582-37.836-75.694-32.707-115.536l0.852-6.611
            c0.853-6.614,5.858-11.934,12.41-13.185l8.497-1.623c8.375-1.6,16.454,3.89,18.052,12.262c1.427,7.469-2.79,14.708-9.662,17.318
            c-2.753,30.537,6.966,62.568,26.992,88.521c19.981,25.893,48.412,43.39,78.571,48.506c5.151-10.48,10.87-20.816,17.088-30.893
            c-28.458-11.384-53.543-31.412-72.02-57.839c-4.884-6.985-3.182-16.608,3.804-21.491c6.988-4.883,16.608-3.181,21.491,3.804
            c18.467,26.412,44.879,44.896,74.375,52.046c4.949,1.199,8.988,4.765,10.793,9.526c1.806,4.762,1.145,10.109-1.765,14.288
            c-10.284,14.775-19.397,30.341-27.089,46.268l-3.787,7.807C272.01,279.844,266.586,283.176,260.734,283.176z"/>
        <path d="M121.974,302.509c-3.548,56.478-16.535,167.761-36.055,193.905v-0.361l0,0h277.776l0,0v0.361
            c-19.52-26.143-32.508-137.427-36.055-193.905c-0.918-14.614-13.005-26.006-27.646-26.006H149.62
            C134.978,276.502,122.892,287.895,121.974,302.509z"/>
        <path style="fill:#000000;" d="M85.915,511.846c-1.622,0-3.261-0.256-4.861-0.789c-6.309-2.096-10.568-7.997-10.568-14.645v-0.36
            c0-4.114,1.611-7.853,4.235-10.619c13.582-22.258,27.315-111.708,31.85-183.892c1.427-22.694,20.338-40.472,43.049-40.472h150.371
            c22.714,0,41.623,17.778,43.049,40.472c4.534,72.185,18.268,161.633,31.852,183.891c2.625,2.767,4.235,6.506,4.235,10.62v0.36
            c0,6.65-4.258,12.549-10.568,14.645c-2.705,0.897-5.526,1.008-8.181,0.426H89.235C88.148,511.722,87.037,511.846,85.915,511.846z
             M110.076,480.621h229.46c-19.648-58.747-27.213-175.763-27.299-177.144c-0.407-6.472-5.785-11.542-12.245-11.542H149.62
            c-6.461,0-11.839,5.071-12.247,11.543C137.287,304.859,129.722,421.874,110.076,480.621z"/>
        <path style="fill:#000000;" d="M430.308,511.999H19.303c-8.522,0-15.432-6.91-15.432-15.432c0-8.522,6.91-15.432,15.432-15.432
            h411.005c8.522,0,15.432,6.91,15.432,15.432C445.74,505.088,438.832,511.999,430.308,511.999z"/>
        <path style="fill:#000000;" d="M176.043,511.999c-8.522,0-15.432-6.91-15.432-15.432V370.844c0-8.522,6.91-15.432,15.432-15.432
            s15.432,6.91,15.432,15.432v125.723C191.475,505.09,184.565,511.999,176.043,511.999z"/>
        <path style="fill:#000000;" d="M273.57,511.999c-8.522,0-15.432-6.91-15.432-15.432v-71.501c0-8.522,6.91-15.432,15.432-15.432
            c8.522,0,15.432,6.91,15.432,15.432v71.501C289.002,505.09,282.092,511.999,273.57,511.999z"/>
        <path style="fill:#000000;" d="M224.807,351.507c-8.522,0-15.432-6.91-15.432-15.432v-56.068c0-8.522,6.91-15.432,15.432-15.432
            s15.432,6.91,15.432,15.432v56.068C240.239,344.598,233.33,351.507,224.807,351.507z"/>
    </symbol>

    <symbol id="advantages07" role="img" aria-labelledby="advantages07_title" viewBox="0 0 512 512">
        <title id="advantages07_title"></title>
        <rect x="47.326" y="64.86" width="417.346" height="141.022"/>
        <path style="fill:#000000;" d="M497.555,255.081h-49.442v-34.756h16.561c7.976,0,14.445-6.468,14.445-14.445V64.86
            c0-7.976-6.468-14.445-14.445-14.445H47.328c-7.976,0-14.445,6.468-14.445,14.445V205.88c0,7.976,6.468,14.445,14.445,14.445h16.561
            v34.756H14.445C6.468,255.081,0,261.55,0,269.526v79.838c0,7.976,6.468,14.445,14.445,14.445h49.442v68.887h-9.028
            c-7.976,0-14.445,6.468-14.445,14.445s6.468,14.445,14.445,14.445h46.945c7.976,0,14.445-6.468,14.445-14.445
            s-6.468-14.445-14.445-14.445h-9.028v-68.888h268.687c7.976,0,14.445-6.468,14.445-14.445s-6.468-14.445-14.445-14.445H80.956
            c-0.852-0.156-1.726-0.25-2.625-0.25s-1.772,0.092-2.625,0.25H28.889V283.97h454.222v50.949h-49.442
            c-7.976,0-14.445,6.468-14.445,14.445v83.332h-9.028c-7.976,0-14.445,6.468-14.445,14.445s6.468,14.445,14.445,14.445h46.945
            c7.976,0,14.445-6.468,14.445-14.445s-6.468-14.445-14.445-14.445h-9.028v-68.888h49.442c7.976,0,14.445-6.468,14.445-14.445
            v-79.838C512,261.548,505.532,255.081,497.555,255.081z M61.772,149.815h316.285c7.976,0,14.445-6.468,14.445-14.445
            s-6.468-14.445-14.445-14.445H61.772V79.304h388.457v112.132H61.772V149.815z M92.776,220.325h326.447v34.756H92.776L92.776,220.325
    L92.776,220.325z"/>
    </symbol>

    <symbol id="advantages08" role="img" aria-labelledby="advantages08_title" viewBox="0 0 512 512">
        <title id="advantages08_title"></title>
        <path d="M262.083,136.266v107.885c0,19.44-15.76,35.2-35.2,35.2h-1.394
            c-17.613,0-32.205-12.936-34.792-29.826v43.576c0,19.44-15.76,35.2-35.2,35.2h-1.394c-19.44,0-35.2-15.76-35.2-35.2v-43.576
            c-2.587,16.89-17.179,29.826-34.792,29.826h-1.394c-19.44,0-35.2-15.76-35.2-35.2V136.266H47.2v329.067h417.6V136.266H262.083z"/>
        <path style="fill:#000000;" d="M496,30.666h-80.8c-8.837,0-16,7.165-16,16s7.163,16,16,16H480v57.6H32v-57.6h271.2
            c8.837,0,16-7.165,16-16s-7.163-16-16-16H16c-8.837,0-16,7.165-16,16v84.293v5.307v5.922c0,44.301,11.315,86.003,31.2,122.384
            v200.762c0,8.835,7.163,16,16,16h417.6c8.837,0,16-7.165,16-16V264.57c19.885-36.379,31.2-78.083,31.2-122.384v-5.922v-5.307V46.666
            C512,37.83,504.837,30.666,496,30.666z M278.083,244.151v-91.885H448.8v103.83C409.749,321.943,337.949,366.188,256,366.188
            c-34.661,0-67.507-7.915-96.83-22.03c26.523-1.891,47.528-24.059,47.528-51.054v-1.382c5.859,2.346,12.211,3.632,18.792,3.632h1.394
            C255.115,295.351,278.083,272.383,278.083,244.151z M104.968,307.463c-4.459-4.078-8.746-8.339-12.864-12.762
            c3.733-0.6,7.354-1.602,10.8-2.981v1.382C102.902,298.089,103.632,302.903,104.968,307.463z M63.517,152.266h182.566v91.885
            c0,10.587-8.613,19.2-19.2,19.2h-1.394c-9.4,0-17.558-6.986-18.976-16.248c-1.267-8.267-8.686-14.171-17.03-13.53
            c-8.341,0.634-14.786,7.587-14.786,15.954v43.576c0,10.587-8.613,19.2-19.2,19.2h-1.394c-10.587,0-19.2-8.613-19.2-19.2v-43.576
            c0-8.366-6.443-15.318-14.786-15.954c-0.413-0.034-0.821-0.046-1.229-0.046c-0.048,0-0.093,0.006-0.141,0.006
            c-0.27,0.002-0.538,0.021-0.805,0.037c-0.222,0.013-0.446,0.022-0.666,0.045c-0.278,0.029-0.552,0.07-0.826,0.114
            c-0.206,0.032-0.414,0.062-0.619,0.101c-0.272,0.053-0.539,0.118-0.806,0.186c-0.203,0.051-0.406,0.101-0.606,0.16
            c-0.258,0.075-0.512,0.162-0.765,0.25c-0.205,0.07-0.408,0.142-0.608,0.222c-0.238,0.094-0.474,0.197-0.707,0.301
            c-0.208,0.094-0.413,0.19-0.616,0.293c-0.218,0.109-0.43,0.224-0.643,0.342c-0.21,0.118-0.416,0.24-0.621,0.368
            c-0.195,0.122-0.387,0.246-0.578,0.376c-0.21,0.142-0.414,0.293-0.618,0.446c-0.174,0.131-0.347,0.264-0.515,0.402
            c-0.205,0.168-0.403,0.346-0.6,0.523c-0.154,0.141-0.309,0.28-0.458,0.427c-0.197,0.194-0.386,0.395-0.573,0.598
            c-0.134,0.147-0.272,0.293-0.402,0.445c-0.186,0.218-0.36,0.445-0.534,0.672c-0.117,0.154-0.237,0.304-0.349,0.462
            c-0.171,0.242-0.328,0.491-0.486,0.742c-0.099,0.158-0.203,0.312-0.296,0.475c-0.152,0.264-0.29,0.536-0.427,0.81
            c-0.082,0.163-0.17,0.322-0.246,0.486c-0.133,0.288-0.248,0.584-0.363,0.882c-0.064,0.163-0.134,0.32-0.194,0.486
            c-0.115,0.328-0.211,0.666-0.306,1.003c-0.04,0.142-0.091,0.282-0.126,0.427c-0.122,0.486-0.224,0.982-0.302,1.488
            c-1.419,9.262-9.578,16.248-18.976,16.248h-1.394c-10.587,0-19.2-8.613-19.2-19.2v-91.885H63.517z M448.8,449.332H63.2V310.415
            c46.963,53.755,115.981,87.773,192.8,87.773s145.837-34.018,192.8-87.773V449.332z"/>
    </symbol>

	<symbol id="approach01" role="img" aria-labelledby="approach01_title" viewBox="0 0 512 512">
        <title id="approach01_title"></title>
        <path d="m215.742188 150.980469c-22.453126.867187-43.222657 10.476562-58.472657 27.046875-23.355469 25.378906-24.027343 52.164062-24.621093 75.796875-.550782 21.871093-1.070313 42.527343-18.003907 66.582031l-22.179687 31.511719h38.535156c3.039062 0 6.015625-.042969 8.9375-.121094h272.0625v-40h-151.300781c7.476562-6.214844 14.019531-12.722656 19.980469-19.203125 16.96875-18.4375 24.148437-42.523438 21.828124-65.753906l114.816407-160.699219c6.625-7.691406 10.039062-17.453125 9.644531-27.648437-.410156-10.6875-4.960938-20.574219-12.8125-27.835938-7.847656-7.265625-18.046875-11.035156-28.746094-10.625-10.578125.40625-20.371094 4.871094-27.617187 12.574219l-135.457031 138.402343c-2.1875-.089843-4.382813-.113281-6.59375-.027343zm35.503906 114.53125c-18.125 19.695312-41.417969 38.1875-86.511719 44.292969 7.03125-20.457032 7.496094-39 7.898437-54.972657.539063-21.316406.890626-35.394531 14.070313-49.71875 7.988281-8.679687 18.851563-13.710937 30.582031-14.164062 11.71875-.449219 22.929688 3.71875 31.550782 11.742187 17.882812 16.648438 18.964843 44.828125 2.410156 62.820313zm135.296875-225.09375.257812-.144531-.671875.722656-101.339844 141.839844c-2.617187-3.3125-5.519531-6.464844-8.699218-9.421876-3.5-3.261718-7.242188-6.167968-11.15625-8.746093zm125.457031 91.378906v240c0 33.082031-26.914062 60-60 60h-176v40h104v40h-248v-40h104v-40h-176c-33.085938 0-60-26.917969-60-60v-240c0-33.085937 26.914062-60 60-60h183.890625l-39.148437 40h-144.742188c-11.027344 0-20 8.96875-20 20v240c0 11.027344 8.972656 20 20 20h392c11.027344 0 20-8.972656 20-20v-240c0-11.03125-8.972656-20-20-20h-18.132812l15.113281-21.15625c4.597656-5.621094 8.359375-11.761719 11.238281-18.265625 29.207031 4.019531 51.78125 29.125 51.78125 59.421875zm0 0"/>
    </symbol>

    <symbol id="approach02" role="img" aria-labelledby="approach02_title" viewBox="0 0 512 512">
        <title id="approach02_title"></title>
        <path d="m196 267.894531 93.105469 60.105469h26.894531v-124.203125l116-151v-52.796875h-352v52.796875l116 151zm-13.933594-147.894531h97.425782l30.730468-40h-158.882812l-30.730469-40h270.777344l-115.386719 150.203125v81.726563l-40-25.824219v-55.898438zm329.933594 19.253906v232.746094c0 33.085938-26.914062 60-60 60h-176v40h104v40h-248v-40h104v-40h-176c-33.085938 0-60-26.914062-60-60v-232.746094c0-28.140625 19.476562-51.804687 45.652344-58.253906l29.386718 38h-15.039062c-11.027344 0-20 9.226562-20 20.253906v232.746094c0 11.027344 8.972656 20 20 20h392c11.027344 0 20-8.972656 20-20v-232.746094c0-11.027344-8.972656-20.253906-20-20.253906h-15.042969l29.386719-38c26.179688 6.449219 45.65625 30.113281 45.65625 58.253906zm0 0"/>
    </symbol>

    <symbol id="approach03" role="img" aria-labelledby="approach03_title" viewBox="0 0 512 512">
        <title id="approach03_title"></title>
        <path d="m146.929688 250.878906c-4.441407 13.625-9.300782 21.90625-9.695313 22.570313l-19.484375 30.550781h36.507812.214844c7.402344 0 40.496094-1.539062 68.414063-27.429688 11.996093 1.632813 23.238281 2.429688 34.113281 2.429688 47.046875 0 87.050781-10.972656 115.683594-31.730469 33.570312-24.335937 51.316406-61.683593 51.316406-108.003906 0-87.203125-62.429688-139.265625-167-139.265625s-167 52.0625-167 139.265625c0 49.328125 19.605469 87.585937 56.929688 111.613281zm17.816406-186.964844c21.714844-15.644531 53.613281-23.914062 92.253906-23.914062s70.539062 8.269531 92.253906 23.914062c23.054688 16.613282 34.746094 41.964844 34.746094 75.351563 0 86.777344-79.570312 99.734375-127 99.734375-11.730469 0-24.140625-1.136719-37.945312-3.476562l-11.113282-1.882813-7.367187 8.53125c-4.011719 4.648437-8.339844 8.3125-12.679688 11.191406.675781-2.53125 1.320313-5.167969 1.929688-7.898437l3.40625-15.34375-14.101563-6.9375c-32.601562-16.035156-49.128906-44.269532-49.128906-83.917969 0-33.386719 11.691406-58.738281 34.746094-75.351563zm347.253906 68.085938v240c0 33.085938-26.914062 60-60 60h-176v40h104v40h-248v-40h104v-40h-176c-33.085938 0-60-26.914062-60-60v-240c0-33.085938 26.914062-60 60-60h1.722656c-5 13.136719-8.398437 27.148438-10.199218 41.910156-6.796876 3.199219-11.523438 10.09375-11.523438 18.089844v240c0 11.027344 8.972656 20 20 20h392c11.027344 0 20-8.972656 20-20v-240c0-7.128906-3.757812-13.378906-9.386719-16.921875-1.761719-15.1875-5.203125-29.589844-10.335937-43.070313 32.957031.152344 59.722656 27.003907 59.722656 59.992188zm-275 5c0-11.046875 8.953125-20 20-20s20 8.953125 20 20-8.953125 20-20 20-20-8.953125-20-20zm-70 0c0-11.046875 8.953125-20 20-20s20 8.953125 20 20-8.953125 20-20 20-20-8.953125-20-20zm140 0c0-11.046875 8.953125-20 20-20s20 8.953125 20 20-8.953125 20-20 20-20-8.953125-20-20zm0 0"/>
    </symbol>

    <symbol id="approach04" role="img" aria-labelledby="approach04_title" viewBox="0 0 512 512">
        <title id="approach04_title"></title>
        <path d="m512 474.539062-51.105469-51.105468c8.75-13.871094 13.820313-30.28125 13.820313-47.855469 0-49.597656-40.347656-89.949219-89.945313-89.949219-49.597656 0-89.945312 40.351563-89.945312 89.949219 0 49.59375 40.347656 89.945313 89.945312 89.945313 17.574219 0 33.988281-5.074219 47.855469-13.824219l51.105469 51.105469zm-127.230469-48.992187c-27.554687 0-49.96875-22.417969-49.96875-49.96875 0-27.554687 22.414063-49.972656 49.96875-49.972656 27.554688 0 49.96875 22.417969 49.96875 49.972656 0 27.550781-22.414062 49.96875-49.96875 49.96875zm-105.949219 25.148437h-218.855468c-11.023438 0-19.988282-8.96875-19.988282-19.988281v-211.875h195.882813v49.96875h39.976563v-49.96875h195.882812v60.292969c19.796875 17.863281 34.082031 41.71875 39.976562 68.679688v-207.886719c0-33.066407-26.902343-59.964844-59.964843-59.964844h-106.011719v-19.988281c0-33.066406-26.898438-59.964844-59.964844-59.964844h-59.816406c-33.0625 0-59.960938 26.898438-59.960938 59.964844v19.988281h-106.011718c-33.066406 0-59.964844 26.898437-59.964844 59.964844v290.789062c0 33.0625 26.898438 59.960938 59.964844 59.960938h264.585937c-18.207031-9.5625-33.882812-23.3125-45.730469-39.972657zm-72.871093-390.730468c0-11.023438 8.96875-19.988282 19.988281-19.988282h59.816406c11.023438 0 19.988282 8.964844 19.988282 19.988282v19.988281h-99.792969zm-165.972657 79.953125c0-11.023438 8.964844-20.027344 19.988282-20.027344h391.765625c11.019531 0 19.988281 9.003906 19.988281 20.027344v38.9375h-431.742188zm0 0"/>
    </symbol>

    <symbol id="approach05" role="img" aria-labelledby="approach05_title" viewBox="0 1 511 511.999">
        <title id="approach05_title"></title>
        <path d="m494.867188 257.347656-.566407-.566406-125.488281-106.851562-.113281-33.160157-74.753907.257813-48.71875 48.714844c-7.636718 7.636718-20.171874 7.761718-27.945312.277343-3.726562-3.589843-5.8125-8.535156-5.863281-13.929687-.054688-5.664063 2.183593-11.179688 6.136719-15.132813l39.726562-42.382812c31.949219-34.097657 77.078125-53.65625 123.808594-53.65625h130.394531v-39.921875h-130.394531c-46.527344 0-91.761719 15.707031-128.230469 43.851562-36.847656-29.027344-82.214844-44.847656-129.558594-44.847656h-122.800781v39.921875h122.800781c36.246094 0 71.0625 11.449219 99.96875 32.570313l-34.195312 36.492187c-11.328125 11.46875-17.730469 27.296875-17.574219 43.488281.15625 16.199219 6.582031 31.226563 18.097656 42.3125 11.351563 10.925782 26.332032 16.859375 42.054688 16.722656 15.789062-.140624 30.636718-6.367187 41.800781-17.535156l37.082031-37.082031 4.855469-.019531 151.695313 129.167968c6.164062 6.644532 6.011718 17.066407-.449219 23.53125-3.175781 3.175782-7.433594 4.921876-11.996094 4.921876s-8.820313-1.746094-11.996094-4.921876l-4.097656-4.097656-28.226563 28.226563 4.09375 4.097656c1.917969 1.914063 3.9375 3.664063 6.042969 5.25l-.398437.394531c6.617187 6.617188 6.617187 17.378906 0 23.996094-6.613282 6.613281-17.378906 6.613281-23.992188 0l-6.773437-6.722656-28.226563 28.226562 4.589844 4.589844c3.4375 3.453125 5.511719 8.363281 5.6875 13.480469.09375 2.792969-.332031 8.066406-4.285156 12.011719-6.246094 6.25-17.0625 5.601562-24.101563-1.4375l-.558593-.5625-3.597657-3.066407-27.066406 29.304688c3.332031 3.328125 5.195313 7.6875 5.246094 12.273437.050781 4.4375-1.628907 8.589844-4.726563 11.6875-6.617187 6.617188-17.515625 6.484375-24.34375-.347656l-2.839844-2.816406c8.15625-20.785156 3.855469-45.367188-12.914062-62.140625-7.507812-7.507813-16.65625-12.761719-26.570312-15.398438 2.460937-17.148437-2.890626-35.210937-16.054688-48.375-9.863281-9.863281-22.480469-15.328125-35.398438-16.417969-.976562-12.84375-6.464843-25.445312-16.496093-35.476562-9.921875-9.921875-22.628907-15.390625-35.628907-16.4375-1.042968-13-6.511718-25.707031-16.433593-35.628906-22.136719-22.128906-58.121094-22.179688-80.316407-.136719l-27.890624 26.929687-.25.246094c-10.714844 10.714844-16.617188 25-16.617188 40.222656 0 15.226563 5.902344 29.511719 16.617188 40.226563 8.480468 8.480469 18.996093 13.707031 29.988281 15.703125-.515625 15.207031 5.003906 30.582031 16.589843 42.164062 10.328126 10.332032 24.117188 15.980469 38.933594 15.980469.28125 0 .5625-.003906.847656-.007812 1.613282 11.863281 6.945313 23.289062 16.019532 32.363281 11.039062 11.039062 25.546875 16.550781 40.101562 16.546875 1.222656 0 2.445313-.050781 3.667969-.128906 2.113281 11.617187 7.65625 22.300781 16.136719 30.78125 11.285156 11.285156 26.105468 16.925781 40.929687 16.925781 14.476563-.003906 28.945313-5.398438 40.125-16.160156 11.132813 10.757812 25.542969 16.160156 39.925781 16.15625 14.550782 0 29.066407-5.507813 40.101563-16.546875 8.828125-8.828125 14.339844-20.066407 15.9375-32.25 14.207031-.023438 28.242187-5.320313 38.867187-15.949219 9.335938-9.332031 14.832032-21.589844 15.824219-35.03125 13.535157-.722656 26.859375-6.238281 37.175781-16.554688 11.582032-11.582031 17.113282-26.953124 16.601563-42.15625 10.988281-1.996093 21.5-7.234374 29.976563-15.710937 22.179687-22.179687 22.179687-58.269531 0-80.449219zm-454.445313 44.097656c0-4.511718 1.710937-8.726562 4.820313-11.894531l27.859374-26.890625.25-.246094c3.175782-3.179687 7.4375-4.925781 11.996094-4.925781 4.5625 0 8.824219 1.746094 12 4.925781 3.171875 3.175782 4.921875 7.433594 4.921875 11.996094 0 3.789063-1.222656 7.367188-3.453125 10.292969-.523437.480469-1.042968.964844-1.554687 1.46875l-20.472657 20.074219-7.199218 6.953125-.25.246093c-3.175782 3.175782-7.4375 4.925782-12 4.925782-4.558594 0-8.820313-1.75-11.996094-4.925782-3.175781-3.175781-4.921875-7.4375-4.921875-12zm51.5 69.867188c-6.597656-6.597656-6.613281-17.320312-.054687-23.9375l12.78125-12.535156 20.675781-19.960938.25-.242187c.535156-.535157 1.042969-1.085938 1.554687-1.636719 6.644532-5.078125 16.207032-4.597656 22.28125 1.476562 6.570313 6.574219 6.609375 16.085938.101563 22.652344l-34.0625 33.394532c-6.984375 6.445312-17.503907 6.8125-23.527344.789062zm55.800781 48.335938c-6.605468-6.609376-6.480468-17.484376.273438-24.265626l29.242187-28.9375.074219-.074218c3.171875-3.175782 7.433594-4.921875 11.996094-4.921875 4.558594 0 8.820312 1.746093 11.996094 4.921875 6.605468 6.605468 6.613281 17.347656.03125 23.964844l-29.246094 28.941406-.074219.070312c-6.777344 6.78125-17.675781 6.914063-24.292969.300782zm59.90625 47.195312c-3.441406-3.441406-5.363281-8.054688-5.414062-12.992188-.050782-4.835937 1.730468-9.304687 5.015625-12.585937l11.976562-11.976563c3.195313-3.199218 7.34375-4.78125 11.585938-4.78125 4.636719 0 9.390625 1.890626 13.136719 5.636719 7.003906 7.003907 7.003906 18.402344 0 25.40625l-11 11.398438c-7.011719 6.898437-18.332032 6.863281-25.300782-.105469zm0 0"/>
    </symbol>

    <symbol id="approach06" role="img" aria-labelledby="approach06_title" viewBox="-20 0 512 512">
        <title id="approach06_title"></title>
        <path d="m404.996094 110.746094 18.21875-21.09375 22.707031 19.605468 26.144531-30.269531-75.683594-65.363281-26.144531 30.273438 22.703125 19.609374-18.242187 21.121094c-34.621094-25.109375-75.210938-40.199218-118.167969-43.78125v-40.847656h-40v40.847656c-43.210938 3.601563-84.027344 18.851563-118.78125 44.226563l-18.628906-21.566407 22.703125-19.609374-26.140625-30.273438-75.683594 65.363281 26.144531 30.269531 22.703125-19.605468 18.691406 21.640625c-43.226562 44.320312-67.007812 102.679687-67.007812 164.707031 0 63.039062 24.546875 122.304688 69.125 166.878906 44.574219 44.574219 103.835938 69.121094 166.875 69.121094s122.304688-24.546875 166.878906-69.121094c44.574219-44.578125 69.121094-103.839844 69.121094-166.878906 0-62.277344-23.972656-120.867188-67.535156-165.253906zm-168.464844 361.253906c-108.074219 0-196-87.925781-196-196s87.925781-196 196-196 196 87.925781 196 196-87.925781 196-196 196zm66-149.640625c0 29.820313-19.792969 55.125-47 63.605469v35.035156h-40v-35.085938c-10.132812-3.199218-19.457031-8.828124-27.253906-16.609374-12.730469-12.707032-19.746094-29.476563-19.746094-47.207032v-12.097656h40v12.097656c0 14.582032 12.363281 26.902344 27 26.902344s27-12.199219 27-26.640625c0-11.644531-11.503906-18.902344-35.929688-31.601563l-.296874-.15625c-18.988282-9.875-50.773438-26.40625-50.773438-68.035156 0-15.871094 6.324219-30.84375 17.804688-42.160156 6.417968-6.332031 13.980468-11.054688 22.195312-13.972656v-35.433594h40v35.386719c23.25 8.125 39.949219 29.980469 39.949219 55.613281v10h-40v-10c0-10.476562-8.949219-19-19.949219-19-10.839844 0-20 8.960938-20 19.566406 0 14.726563 7.660156 21.328125 29.230469 32.546875l.296875.152344c25.605468 13.316406 57.472656 29.890625 57.472656 67.09375zm0 0"/>
    </symbol>
  
    <symbol id="problems01" role="img" aria-labelledby="problems01_title" viewBox="0 0 512 512">
        <title id="problems01_title"></title>
        <polygon points="117.269,322.334 117.269,511.826 157.242,511.826 157.241,281.588 			"/>
		<polygon points="195.216,511.826 235.188,511.826 235.188,307.318 195.216,267.346 			"/>
		<polygon points="38.322,511.826 78.295,511.826 78.295,362.064 38.322,402.812 			"/>
		<polygon points="392.081,0.173 392.081,40.146 444.761,40.146 262.919,221.989 182.265,141.335 0,329.017 28.676,356.865 
			182.683,198.282 262.919,278.519 472.027,69.411 472.027,119.093 512,119.093 512,0.173 			"/>
		<polygon points="431.055,166.913 431.055,511.827 471.028,511.827 471.028,161.064 436.904,161.064 			"/>
		<polygon points="273.162,511.826 313.135,511.826 313.135,284.833 273.162,324.806 			"/>
		<polygon points="352.109,511.827 392.081,511.827 392.081,205.887 352.109,245.859 			"/>
    </symbol>

    <symbol id="problems02" role="img" aria-labelledby="problems02_title" viewBox="0 0 512 512">
        <title id="problems02_title"></title>
        <path d="m45 192h-45v-40h45zm-26.574219 79.003906 17.996094 35.722656 42.4375-21.375-17.992187-35.722656zm59.433594-215.410156-41.441406-20.871094-17.992188 35.726563 41.441407 20.867187zm355.28125 229.757812 42.441406 21.375 17.992188-35.722656-42.441407-21.375zm60.433594-214.902343-17.992188-35.726563-41.441406 20.871094 17.992187 35.722656zm-65.578125 100.40625h.003906l-.003906 1.144531c-.316406 68.6875-29.203125 106.699219-54.707032 140.261719-21.328124 28.066406-38.175781 50.242187-38.175781 87.152343v52.585938c0 33.085938-26.917969 60-60 60h-38.222656c-33.085937 0-60-26.914062-60-60v-52.585938c0-36.910156-16.851563-59.085937-38.179687-87.152343-25.503907-33.5625-54.390626-71.574219-54.707032-140.261719h-.003906l.003906-1.144531c.617188-94.316407 77.535156-170.855469 171.996094-170.855469s171.378906 76.539062 171.996094 170.855469zm-132.886719 281.144531v-39h-78.222656v39c0 11.027344 8.972656 20 20 20h38.222656c11.03125 0 20-8.972656 20-20zm92.890625-280.507812c-.273438-72.554688-59.382812-131.492188-132-131.492188s-131.726562 58.9375-132 131.492188c.171875 55.523437 22.707031 85.179687 46.558594 116.566406 18.507812 24.355468 37.527344 49.382812 44.007812 84.941406h82.867188c6.480468-35.558594 25.5-60.585938 44.007812-84.941406 23.851563-31.386719 46.386719-61.042969 46.558594-116.566406zm-122.53125-80.03125c-20.902344-2.316407-41.804688 4.328124-57.339844 18.234374-15.335937 13.726563-24.128906 33.367188-24.128906 53.882813h40c0-9.289063 3.839844-17.839844 10.808594-24.078125 7.171875-6.421875 16.496094-9.363281 26.25-8.28125 15.039062 1.667969 27.140625 13.6875 28.777344 28.578125 1.148437 10.445313-3.871094 20.441406-16.789063 33.417969-3.160156 3.175781-6.085937 5.964844-8.914063 8.664062-14.558593 13.882813-27.128906 25.871094-27.128906 52.117188v1.003906h40v-1.003906c0-8.613282 1.667969-10.707032 14.734375-23.171875 2.875-2.738281 6.128907-5.847657 9.660157-9.390625 13.707031-13.773438 31.542968-35.59375 28.199218-66.007813-3.667968-33.347656-30.636718-60.246093-64.128906-63.964843zm-28.46875 233.539062h40v-40h-40zm230-173v40h45v-40zm0 0"/>
    </symbol>

    <symbol id="problems03" role="img" aria-labelledby="problems03_title" viewBox="-21 -21 682.66669 682.66669">
        <title id="problems03_title"></title>
        <path d="m640 345h-63.714844c-11.816406 122.070312-109.214844 219.46875-231.285156 231.285156v63.714844h-50v-63.714844c-122.070312-11.816406-219.46875-109.214844-231.285156-231.285156h-63.714844v-50h63.714844c11.816406-122.070312 109.214844-219.46875 231.285156-231.285156v-63.714844h50v63.714844c34.476562 3.339844 66.988281 13.507812 96.15625 29.128906-12.214844 12.085938-24.882812 24.621094-37.53125 37.15625-.03125.03125-.054688.054688-.085938.082031-18.289062-8.074219-37.957031-13.578125-58.539062-16.0625v50.980469h-50v-50.984375c-94.472656 11.390625-169.59375 86.511719-180.992188 180.984375h50.992188v50h-50.992188c11.398438 94.472656 86.519532 169.59375 180.992188 180.992188v-50.992188h50v50.992188c94.472656-11.398438 169.59375-86.519532 180.992188-180.992188h-50.992188v-50h50.980469c-2.503907-20.746094-8.070313-40.5625-16.25-58.976562 12.320312-12.199219 24.898437-24.65625 37.472656-37.09375 15.59375 29.148437 25.746094 61.625 29.082031 96.070312h63.714844zm-295-86.230469v-43.769531h-50v130h130v-50h-45.511719c55.101563-55.113281 155.160157-154.070312 228.058594-225.945312l-35.09375-35.609376c-.671875.65625-67.355469 66.40625-133.640625 132.078126-43.570312 43.15625-73.347656 72.773437-93.8125 93.246093zm0 0"/>
    </symbol>

    <symbol id="problems04" role="img" aria-labelledby="problems04_title" viewBox="0 0 512 512">
        <title id="problems04_title"></title>
        <path d="M452,20H60C26.916,20,0,46.916,0,80v352c0,33.084,26.916,60,60,60h12.771c-0.945-1.476-1.855-2.98-2.716-4.522  c-6.199-11.109-9.768-23.236-10.732-35.512C48.609,451.604,40,442.8,40,432V180h432v252c0,10.8-8.61,19.605-19.324,19.966  c-0.964,12.277-4.533,24.403-10.731,35.512c-0.861,1.542-1.771,3.047-2.716,4.522H452c33.084,0,60-26.916,60-60V80  C512,46.916,485.084,20,452,20z M40,140V80c0-11.028,8.972-20,20-20h392c11.028,0,20,8.972,20,20v60H40z M405.966,420.498  c8.925,14.463,9.324,32.656,1.048,47.489C398.624,483.023,383.343,492,366.136,492H316v-40h50.136c3.475,0,5.218-2.195,5.948-3.503  c0.737-1.321,1.697-3.985-0.153-6.984L261.8,263.252c-1.747-2.83-4.383-3.252-5.8-3.252s-4.053,0.422-5.794,3.243L140.063,441.521  c-1.845,2.99-0.885,5.654-0.147,6.976c0.73,1.308,2.474,3.503,5.948,3.503H196v40h-50.136c-17.207,0-32.488-8.977-40.878-24.013  c-8.276-14.833-7.877-33.026,1.042-47.48l110.143-178.278C224.758,228.313,239.649,220,256,220s31.242,8.313,39.835,22.237  L405.966,420.498z M235,452h40v40h-40V452z M235,337h40v85h-40V337z M110,100c0,11.046-8.954,20-20,20s-20-8.954-20-20  s8.954-20,20-20S110,88.954,110,100z M180,100c0,11.046-8.954,20-20,20s-20-8.954-20-20s8.954-20,20-20S180,88.954,180,100z"/>
    </symbol>

    <symbol id="problems05" role="img" aria-labelledby="problems05_title" viewBox="0 0 512 512">
        <title id="problems05_title"></title>
        <path d="M289.739,512h-67.479l-18.14-68.196c-15.398-4.252-30.188-10.407-44.192-18.39l-60.574,34.876l-47.646-47.647l34.876-60.573  c-7.983-14.004-14.137-28.794-18.389-44.192L0,289.739v-67.479l68.196-18.14c4.251-15.397,10.406-30.188,18.389-44.192  L51.709,99.355l47.646-47.647l60.575,34.876c14.004-7.983,28.793-14.137,44.191-18.389L222.261,0h67.479l18.14,68.196  c15.398,4.252,30.188,10.406,44.191,18.389l60.575-34.876l47.646,47.647l-34.876,60.574c7.983,14.004,14.138,28.794,18.39,44.192  L512,222.261v67.479l-68.196,18.14c-4.252,15.398-10.406,30.188-18.389,44.192l34.875,60.573l-47.646,47.647l-60.574-34.876  c-14.004,7.983-28.794,14.137-44.192,18.39L289.739,512z M253.012,472h5.977l16.468-61.914l12.098-2.505  c18.907-3.914,36.817-11.363,53.232-22.141l10.289-6.755l54.961,31.645l4.293-4.293l-31.644-54.96l6.755-10.289  c10.777-16.416,18.226-34.326,22.14-53.233l2.505-12.098L472,258.988v-5.977l-61.914-16.468l-2.504-12.098  c-3.913-18.907-11.362-36.816-22.141-53.232l-6.755-10.289l31.645-54.961l-4.293-4.293l-54.961,31.645l-10.289-6.755  c-16.415-10.777-34.325-18.226-53.232-22.14l-12.098-2.504L258.988,40h-5.977l-16.468,61.915l-12.098,2.504  c-18.907,3.914-36.817,11.362-53.232,22.14l-10.289,6.755l-54.961-31.645l-4.293,4.293l31.645,54.961l-6.755,10.289  c-10.778,16.417-18.227,34.326-22.14,53.232l-2.504,12.099L40,253.012v5.977l61.915,16.468l2.504,12.098  c3.914,18.907,11.362,36.817,22.14,53.232l6.755,10.289l-31.644,54.96l4.293,4.293l54.961-31.645l10.289,6.755  c16.416,10.777,34.325,18.227,53.232,22.141l12.098,2.505L253.012,472z M492,274.364h0.01H492z M276.004,301.996  c0-8.612,1.665-10.708,14.734-23.171c2.874-2.74,6.13-5.846,9.658-9.39c13.708-13.771,31.544-35.596,28.2-66.008  c-3.666-33.347-30.636-60.248-64.129-63.964c-20.896-2.317-41.802,4.327-57.339,18.235C191.794,171.423,183,191.063,183,211.58h40  c0-9.29,3.838-17.842,10.807-24.08c7.175-6.423,16.495-9.361,26.25-8.282c15.039,1.668,27.143,13.688,28.78,28.58  c1.149,10.447-3.872,20.441-16.789,33.418c-3.161,3.175-6.085,5.964-8.914,8.662c-14.557,13.882-27.128,25.871-27.128,52.118V303h40  V301.996z M276,333h-40v40h40V333z"/>
    </symbol>

    <symbol id="problems06" role="img" aria-labelledby="problems06_title" viewBox="0 0 512 512">
        <title id="problems06_title"></title>
        <path d="m437.019531 74.980469c-48.351562-48.351563-112.640625-74.980469-181.019531-74.980469s-132.667969 26.628906-181.019531 74.980469c-48.351563 48.351562-74.980469 112.640625-74.980469 181.019531s26.628906 132.667969 74.980469 181.019531c48.351562 48.351563 112.640625 74.980469 181.019531 74.980469s132.667969-26.628906 181.019531-74.980469c48.351563-48.351562 74.980469-112.640625 74.980469-181.019531s-26.628906-132.667969-74.980469-181.019531zm-181.019531 397.019531c-119.101562 0-216-96.898438-216-216s96.898438-216 216-216 216 96.898438 216 216-96.898438 216-216 216zm-30.015625-302.269531c0-15.839844 13.457031-28.730469 30-28.730469v-40c-38.597656 0-70 30.832031-70 68.730469v27.269531h-42.984375v184h226v-184h-143.015625zm103.015625 171.269531h-146v-104h146zm-73.015625-200v-40c27.707031 0 52.847656 16.078125 64.046875 40.96875 3.949219 8.773438 5.953125 18.113281 5.953125 27.765625h-40c0-3.953125-.820313-7.769531-2.429687-11.351563-4.75-10.558593-15.574219-17.382812-27.570313-17.382812zm-19.984375 148c0-11.046875 8.953125-20 20-20s20 8.953125 20 20-8.953125 20-20 20-20-8.953125-20-20zm0 0"/>
    </symbol>

    <symbol id="quote" role="img" aria-labelledby="quote_title" viewBox="0 0 298.667 298.667">
    	<title id="quote_title"></title>
        <polygon points="0,170.667 64,170.667 21.333,256 85.333,256 128,170.667 128,42.667 0,42.667 			"/>
		<polygon points="170.667,42.667 170.667,170.667 234.667,170.667 192,256 256,256 298.667,170.667 298.667,42.667 			"/>
    </symbol>

    <symbol id="arrows" role="img" aria-labelledby="arrows_title" viewBox="0 0 220.682 220.682">
    	<title id="arrows_title"></title>
        <polygon points="92.695,38.924 164.113,110.341 92.695,181.758 120.979,210.043 220.682,110.341 120.979,10.639 	"/>
		<polygon points="28.284,210.043 127.986,110.341 28.284,10.639 0,38.924 71.417,110.341 0,181.758 	"/>
    </symbol>

    <symbol id="footer-facebook" role="img" aria-labelledby="footer-facebook_title" viewBox="0 0 512 512">
        <title id="footer-facebook_title">Facebook</title>
        <path d="M314.829,135.492h70.595c11.423,0,20.682-9.26,20.682-20.682V20.682C406.107,9.26,396.848,0,385.425,0h-70.595
            c-76.282,0-138.341,62.06-138.341,138.341v49.913h-49.913c-11.422,0-20.682,9.26-20.682,20.682v94.127
            c0,11.423,9.26,20.682,20.682,20.682h49.913v167.572c0,11.423,9.26,20.682,20.682,20.682h94.127
            c11.423,0,20.682-9.259,20.682-20.682V323.746h49.913c9.49,0,17.763-6.458,20.065-15.666l23.532-94.127
            c1.544-6.179,0.156-12.725-3.763-17.744c-3.919-5.02-9.932-7.954-16.301-7.954H311.98v-49.913
            C311.98,136.77,313.258,135.492,314.829,135.492z M291.298,229.619h67.637l-13.191,52.763h-54.447
            c-11.423,0-20.682,9.259-20.682,20.682v167.572h-52.763V303.064c0-11.423-9.26-20.682-20.682-20.682h-49.913v-52.763h49.913
            c11.422,0,20.682-9.26,20.682-20.682v-70.595c0-53.473,43.503-96.977,96.977-96.977h49.913v52.763h-49.913
            c-24.38,0-44.214,19.835-44.214,44.214v70.595C270.615,220.359,279.875,229.619,291.298,229.619z"/>
    </symbol>

    <symbol id="footer-twitter" role="img" aria-labelledby="footer-twitter_title" viewBox="0 0 512 512">
        <title id="footer-twitter_title">Twitter</title>
        <path d="M502.954,47.189c-7.126-4.852-16.515-4.774-23.559,0.196c-15.351,10.828-31.974,19.528-49.557,25.948
            c-19.253-17.414-43.615-27.826-69.915-29.656c-31.056-2.16-61.081,7.9-84.561,28.326c-25.59,22.259-40.174,54.444-40.046,88.349
            c-85.248-7.609-139.14-61.55-177.09-108.986c-4.598-5.746-11.901-8.619-19.182-7.538c-7.279,1.078-13.438,5.944-16.171,12.777
            c-0.948,2.369-23.141,58.799-17.453,127.057c4.761,57.133,30.23,131.964,120.039,181.717
            c-32.436,14.756-68.282,21.939-103.953,20.519c-9.576-0.378-18.15,5.859-20.736,15.08c-2.587,9.221,1.497,19.013,9.869,23.665
            c51.359,28.532,108.03,43.736,163.889,43.965c0.432,0.002,0.861,0.003,1.294,0.003c54.105-0.001,106.379-13.938,151.246-40.336
            c42.898-25.241,78.416-61.759,102.715-105.603c26.162-47.206,39.427-101.75,39.427-162.186c-0.011-3.544-0.186-7.098-0.52-10.638
            c20.7-22.885,35.388-50.567,42.719-80.667C513.451,60.803,510.081,52.04,502.954,47.189z M432.297,128.07
            c-4.916,4.847-7.088,11.827-5.793,18.607c0.877,4.588,1.329,9.278,1.344,13.874c0,101.956-44.378,186.544-121.756,232.072
            c-60.586,35.649-133.037,43.933-203.609,25.057c0.729-0.201,1.459-0.407,2.185-0.615c27.596-7.885,53.63-20.055,77.377-36.174
            c6.329-4.296,9.77-11.734,8.946-19.34c-0.825-7.605-5.778-14.134-12.881-16.975C97.757,312.434,53.563,257.594,46.757,181.575
            c-2.536-28.334,0.707-54.721,4.766-74.501c16.638,17.909,37.384,37.227,62.129,53.407c42.771,27.966,90.663,42.146,142.346,42.146
            c11.423,0,20.682-9.26,20.682-20.682v-21.393c0-0.045,0-0.091,0-0.137c-0.146-21.948,9.268-42.797,25.829-57.202
            c15.146-13.175,34.51-19.665,54.543-18.27c20.026,1.393,38.311,10.502,51.487,25.648c5.339,6.138,13.783,8.577,21.567,6.229
            c5.725-1.724,11.375-3.645,16.941-5.757C442.599,117.081,437.672,122.769,432.297,128.07z"/>
    </symbol>    

    <symbol id="footer-linkedin" role="img" aria-labelledby="footer-linkedin_title" viewBox="0 0 512 512">
        <title id="footer-linkedin_title">Linkedin</title>
        <path d="M2.5,510V153.7h137.3V510H2.5z M102.5,472.7V191H39.8v281.7H102.5z"/>
        <path d="M375.4,510l0.1-158.1c0.5-23.6-8.8-42.9-24.9-51.7c-5.4-3-11.2-4.5-17.3-4.5c-5.2,0-10.4,1.1-15.5,3.3l-1.1,211H176.1
            V153.7h140.6V166c16.6-6,33.6-9.1,50.6-9.1c24.7,0,48.3,6.4,70.2,18.9c44,25.2,72.5,71.8,72.5,118.8V510H375.4z M472.7,472.7V294.6
            c0-33.8-21.1-67.7-53.7-86.4c-15.9-9.1-33.8-13.9-51.7-14h-0.3c-20.1,0-40.1,5.8-59.6,17.3L279.4,228V191h-66.1v281.7h66.2l1-194.7
            l8.2-5.5c13.7-9.2,29.1-14.1,44.5-14.1c12.4,0,24.2,3,35.1,9c13.7,7.5,25,19.2,32.8,33.8c7.9,14.9,11.9,32.6,11.5,51.1l0,120.3
            H472.7z"/>
        <path d="M70.9,139.9C32.9,139.9,2,109,2,71c0-38,30.9-69,68.9-69c38,0,68.9,30.9,68.9,69C139.8,109,108.9,139.9,70.9,139.9z
             M70.9,39.3c-17.4,0-31.6,14.2-31.6,31.7c0,17.5,14.2,31.7,31.6,31.7c17.4,0,31.6-14.2,31.6-31.7C102.5,53.5,88.3,39.3,70.9,39.3z"
            />
    </symbol>

    <symbol id="footer-instagram" role="img" aria-labelledby="footer-instagram_title" viewBox="0 0 512 512">
        <title id="footer-instagram_title">Instagram</title>
        <path d="M373.659,0H138.341C62.06,0,0,62.06,0,138.341v235.318C0,449.94,62.06,512,138.341,512h235.318
            C449.94,512,512,449.94,512,373.659V138.341C512,62.06,449.94,0,373.659,0z M470.636,373.659
            c0,53.473-43.503,96.977-96.977,96.977H138.341c-53.473,0-96.977-43.503-96.977-96.977V138.341
            c0-53.473,43.503-96.977,96.977-96.977h235.318c53.473,0,96.977,43.503,96.977,96.977V373.659z"/>
        <path d="M370.586,238.141c-3.64-24.547-14.839-46.795-32.386-64.342c-17.547-17.546-39.795-28.746-64.341-32.385
            c-11.176-1.657-22.507-1.657-33.682,0c-30.336,4.499-57.103,20.541-75.372,45.172c-18.269,24.631-25.854,54.903-21.355,85.237
            c4.499,30.335,20.541,57.102,45.172,75.372c19.996,14.831,43.706,22.619,68.153,22.619c5.667,0,11.375-0.418,17.083-1.265
            c30.336-4.499,57.103-20.541,75.372-45.172C367.5,298.747,375.085,268.476,370.586,238.141z M267.791,327.632
            c-19.405,2.882-38.77-1.973-54.527-13.66c-15.757-11.687-26.019-28.811-28.896-48.216c-2.878-19.405,1.973-38.77,13.66-54.527
            c11.688-15.757,28.811-26.019,48.217-28.897c3.574-0.53,7.173-0.795,10.772-0.795s7.199,0.265,10.773,0.796
            c32.231,4.779,57.098,29.645,61.878,61.877C335.608,284.268,307.851,321.692,267.791,327.632z"/>
        <path d="M400.049,111.951c-3.852-3.851-9.183-6.058-14.625-6.058c-5.442,0-10.773,2.206-14.625,6.058
            c-3.851,3.852-6.058,9.174-6.058,14.625c0,5.451,2.207,10.773,6.058,14.625c3.852,3.851,9.183,6.058,14.625,6.058
            c5.442,0,10.773-2.206,14.625-6.058c3.851-3.852,6.058-9.183,6.058-14.625C406.107,121.133,403.9,115.802,400.049,111.951z"/>
    </symbol>

    <symbol id="footer-google" role="img" aria-labelledby="footer-google_title" viewBox="0 90 320 320">
        <title id="footer-google_title">Google</title>
		<path d="M160,224v64h90.528c-13.216,37.248-48.8,64-90.528,64c-52.928,0-96-43.072-96-96c0-52.928,43.072-96,96-96
			c22.944,0,45.024,8.224,62.176,23.168l42.048-48.256C235.424,109.824,198.432,96,160,96C71.776,96,0,167.776,0,256
			s71.776,160,160,160s160-71.776,160-160v-32H160z"/>
    </symbol>

    <symbol id="footer-phone" role="img" aria-labelledby="footer-phone_title" viewBox="0 0 512 512">
        <title id="footer-phone_title"></title>
        <path d="M421.216,195.504c-5.092-26.101-17.723-49.836-36.526-68.64c-18.804-18.803-42.54-31.434-68.641-36.527
			c-11.21-2.189-22.073,5.128-24.261,16.339c-2.187,11.212,5.128,22.073,16.339,24.26c36.847,7.188,65.3,35.642,72.489,72.489
			c1.927,9.874,10.581,16.726,20.278,16.726c1.313,0,2.645-0.125,3.984-0.387C416.088,217.577,423.403,206.715,421.216,195.504z"/>
		<path d="M511.422,196.929c-5.629-50.096-28.373-97.304-64.042-132.927C411.712,28.378,364.475,5.694,314.371,0.128
			c-11.355-1.261-21.578,6.92-22.839,18.272c-1.261,11.353,6.919,21.578,18.272,22.84c84.961,9.438,150.966,75.36,160.512,160.31
			c1.188,10.566,10.139,18.374,20.527,18.374c0.771,0,1.552-0.043,2.336-0.131C504.53,218.516,512.698,208.281,511.422,196.929z"/>
		<path d="M432.59,312.566c-0.062-0.008-0.124-0.017-0.186-0.025c-20.013-2.639-39.751-7.557-58.619-14.596
			c-23.91-8.99-51.103-3.191-69.27,14.772c-0.028,0.028-0.056,0.055-0.083,0.083l-17.148,17.148
			c-42.633-26.924-78.756-63.047-105.679-105.679l17.149-17.149c0.027-0.028,0.054-0.055,0.082-0.083
			c17.964-18.166,23.762-45.356,14.79-69.223c-7.057-18.914-11.974-38.653-14.614-58.666c-0.007-0.063-0.017-0.127-0.026-0.19
			c-4.591-32.478-32.782-56.734-65.548-56.467H66.053c-1.943,0.002-3.912,0.091-5.853,0.267
			C24.143,26.016-2.541,58.001,0.718,94.058c0.01,0.108,0.02,0.215,0.032,0.323c7.684,72.354,32.649,142.88,72.197,203.955
			c35.892,56.461,84.701,105.269,141.162,141.164c60.792,39.406,130.99,64.369,203.013,72.196c0.127,0.015,0.254,0.027,0.38,0.038
			c1.961,0.176,3.949,0.266,5.921,0.266c0.083,0,0.165,0,0.247,0.001c36.204-0.148,65.538-29.722,65.391-65.841v-67.233
			C489.746,345.714,465.515,317.211,432.59,312.566z M447.698,378.695v67.548c0.055,13.396-10.8,24.338-24.19,24.393
			c-0.715-0.004-1.425-0.027-2.135-0.086c-65.578-7.161-129.488-29.914-184.837-65.808c-0.053-0.035-0.107-0.069-0.161-0.103
			c-51.429-32.68-95.885-77.137-128.565-128.565c-0.032-0.051-0.064-0.101-0.097-0.153C71.683,220.306,48.928,156.086,41.902,90.193
			C40.779,76.91,50.63,65.155,63.923,63.954c0.717-0.064,1.443-0.098,2.145-0.098h67.463c0.146-0.001,0.294-0.003,0.443-0.002
			c12.021,0,22.322,8.905,24.044,20.819c3.05,23.063,8.721,45.806,16.871,67.649c3.319,8.832,1.189,18.869-5.427,25.591
			l-28.517,28.517c-6.583,6.582-7.956,16.753-3.354,24.847c33.837,59.508,83.177,108.847,142.685,142.685
			c8.094,4.6,18.264,3.23,24.848-3.355l28.512-28.512c6.72-6.621,16.765-8.752,25.642-5.415
			c21.799,8.134,44.547,13.805,67.61,16.855c12.18,1.757,21.122,12.339,20.816,24.647
			C447.7,378.353,447.698,378.524,447.698,378.695z"/>
    </symbol>    

	<symbol id="footer-mail" role="img" aria-labelledby="footer-mail_title" viewBox="0 0 512 512">
        <title id="footer-mail_title"></title>
        <path d="M256,141.176c-63.306,0-114.809,51.503-114.809,114.809S192.694,370.795,256,370.795s114.809-51.503,114.809-114.809
			S319.306,141.176,256,141.176z M256,329.43c-40.498,0-73.445-32.947-73.445-73.445c0-40.498,32.947-73.445,73.445-73.445
			c40.499,0,73.445,32.947,73.445,73.445C329.445,296.483,296.499,329.43,256,329.43z"/>
		<path d="M437.008,74.97C388.656,26.623,324.375,0,256,0c-0.005,0-0.013,0-0.017,0C187.603,0.004,123.318,26.637,74.97,74.992
			C26.62,123.347-0.005,187.637,0,256.017c0.004,68.379,26.637,132.666,74.992,181.014C123.344,485.377,187.625,512.001,256,512
			c0.004,0,0.012,0,0.017,0c55.945-0.004,111.216-18.738,155.631-52.752c9.07-6.945,10.792-19.927,3.846-28.995
			c-6.945-9.069-19.926-10.794-28.995-3.846c-37.24,28.518-83.58,44.224-130.486,44.228c-0.006,0-0.006,0-0.014,0
			c-57.324,0-111.224-22.324-151.761-62.856c-40.542-40.536-62.871-94.435-62.875-151.766
			C41.357,137.663,137.636,41.372,255.986,41.364c0.007,0,0.006,0,0.014,0c118.34,0,214.628,96.279,214.636,214.622v23.532
			c0,27.523-22.39,49.913-49.913,49.913c-27.523,0-49.913-22.391-49.913-49.913v-23.532c0-11.422-9.259-20.682-20.682-20.682
			s-20.682,9.26-20.682,20.682v23.532c0,50.33,40.947,91.278,91.278,91.278S512,329.848,512,279.518v-23.534
			C511.995,187.604,485.362,123.318,437.008,74.97z"/>
    </symbol>

    <symbol id="footer-location" role="img" aria-labelledby="footer-location_title" viewBox="0 0 512 512">
        <title id="footer-location_title"></title>
        <path d="M406.766,62.449C366.495,22.178,312.951,0,256,0S145.505,22.178,105.234,62.449
			c-40.272,40.271-62.449,93.814-62.449,150.766c0,37.656,10.972,76.863,32.609,116.532c16.825,30.846,40.15,62.102,69.326,92.898
			c49.17,51.903,97.763,84.519,99.808,85.881C248.001,510.842,252,512,256,512c4,0,7.999-1.158,11.473-3.474
			c2.045-1.363,50.638-33.978,99.808-85.881c29.176-30.795,52.501-62.051,69.326-92.898c21.637-39.669,32.609-78.876,32.609-116.532
			C469.215,156.263,447.038,102.72,406.766,62.449z M256.001,465.903C215.826,436.156,84.15,329.739,84.15,213.215
			c0-94.759,77.091-171.851,171.85-171.851s171.85,77.092,171.851,171.851C427.851,329.748,296.159,436.168,256.001,465.903z"/>
		<path d="M256,128.355c-46.791,0-84.86,38.068-84.86,84.86c0,46.791,38.068,84.86,84.86,84.86c46.792,0,84.861-38.068,84.86-84.86
			C340.86,166.423,302.791,128.355,256,128.355z M256,256.71c-23.983,0-43.495-19.512-43.495-43.495
			c0-23.983,19.512-43.495,43.495-43.495c23.984,0,43.495,19.512,43.495,43.495C299.495,237.198,279.984,256.71,256,256.71z"/>
		</symbol>

	<symbol id="footer-time" role="img" aria-labelledby="footer-time_title" viewBox="0 0 512 512">
        <title id="footer-time_title"></title>
        <path d="M437.019,74.981C388.667,26.629,324.38,0,256,0S123.333,26.63,74.981,74.981S0,187.62,0,256
			s26.629,132.667,74.981,181.019C123.332,485.371,187.62,512,256,512s132.667-26.629,181.019-74.981
			C485.371,388.667,512,324.38,512,256S485.371,123.332,437.019,74.981z M256,470.636C137.65,470.636,41.364,374.35,41.364,256
			S137.65,41.364,256,41.364S470.636,137.65,470.636,256S374.35,470.636,256,470.636z"/>
		<path d="M341.221,311.97l-64.538-64.537V114.809c0-11.422-9.259-20.682-20.682-20.682c-11.422,0-20.682,9.26-20.682,20.682V256
			c0,5.486,2.179,10.746,6.058,14.625l70.594,70.595c4.038,4.039,9.332,6.058,14.625,6.058c5.293,0,10.586-2.019,14.626-6.058
			C349.297,333.142,349.297,320.047,341.221,311.97z"/>
	</symbol>

</svg>