<svg xmlns="http://www.w3.org/2000/svg" xmlns:xlink="http://www.w3.org/1999/xlink">

	<symbol id="header-search" role="img" aria-labelledby="header-search_title" viewBox="0 0 69.961 69.961">
        <title id="header-search_title"></title>
	    <path style="fill:#ED3431;" d="M66.829,51.329L56.593,41.093c1.479-3.56,2.248-7.387,2.248-11.282c0-16.222-13.198-29.42-29.421-29.42
			C13.198,0.391,0,13.589,0,29.811c0,16.223,13.198,29.421,29.42,29.421c4.318,0,8.518-0.932,12.37-2.724l9.931,9.932
			c2.019,2.019,4.701,3.13,7.556,3.13s5.539-1.112,7.557-3.132c2.016-2.015,3.127-4.698,3.127-7.553
			C69.96,56.032,68.849,53.348,66.829,51.329z M62.588,62.198c-0.914,0.915-2.113,1.372-3.312,1.372s-2.397-0.457-3.313-1.372
			L42.798,49.031c-3.794,2.646-8.403,4.201-13.378,4.201C16.485,53.232,6,42.746,6,29.811s10.485-23.42,23.42-23.42
			s23.421,10.485,23.421,23.42c0,4.57-1.314,8.832-3.578,12.438l13.325,13.325C64.418,57.403,64.418,60.369,62.588,62.198z"/>
		<path style="fill:#0077C3;" d="M29.42,13.061c-9.235,0-16.749,7.514-16.749,16.75s7.514,16.75,16.749,16.75c9.236,0,16.75-7.514,16.75-16.75
			S38.656,13.061,29.42,13.061z M29.42,40.561c-5.927,0-10.749-4.822-10.749-10.75s4.822-10.75,10.749-10.75
			c5.928,0,10.75,4.822,10.75,10.75S35.348,40.561,29.42,40.561z"/>
	    </symbol>

	<symbol id="header-language" role="img" aria-labelledby="header-language_title" viewBox="0 0 469.333 469.333">
        <title id="header-language_title"></title>
        <path style="fill:#0077C3;" d="M253.227,300.267L253.227,300.267L199.04,246.72l0.64-0.64c37.12-41.387,63.573-88.96,79.147-139.307h62.507V64H192
			V21.333h-42.667V64H0v42.453h238.293c-14.4,41.173-36.907,80.213-67.627,114.347c-19.84-22.08-36.267-46.08-49.28-71.467H78.72
			c15.573,34.773,36.907,67.627,63.573,97.28l-108.48,107.2L64,384l106.667-106.667l66.347,66.347L253.227,300.267z"/>
		<path style="fill:#ED3431;" d="M373.333,192h-42.667l-96,256h42.667l24-64h101.333l24,64h42.667L373.333,192z M317.333,341.333L352,248.853
			l34.667,92.48H317.333z"/>
    </symbol>

	<symbol id="header-wishlist" role="img" aria-labelledby="header-wishlist_title" viewBox="0 0 512 512">
        <title id="header-wishlist_title"></title>
		<path d="M469.794,72.469c-0.027-0.028-0.055-0.055-0.077-0.077c-56.34-56.367-148.035-56.387-204.403-0.048
			c-0.005,0.006-0.013,0.013-0.019,0.019c-0.007,0.008-0.017,0.017-0.025,0.025l-9.242,9.243l-9.243-9.243
			c-27.304-27.305-63.608-42.342-102.222-42.342c-38.615,0-74.917,15.038-102.222,42.342C15.037,99.693,0,135.996,0,174.61
			c0,38.615,15.037,74.917,42.342,102.223l199.061,199.061c3.88,3.88,9.141,6.058,14.627,6.058c5.486,0,10.747-2.179,14.626-6.058
			l199.056-199.057C526.064,220.509,526.097,128.844,469.794,72.469z M440.462,247.58L256.028,432.014L71.594,247.579
			c-19.49-19.491-30.224-45.404-30.224-72.969c0-27.563,10.734-53.478,30.224-72.968c20.118-20.118,46.544-30.176,72.969-30.176
			c26.426,0,52.852,10.058,72.969,30.176l23.87,23.869c8.078,8.078,21.174,8.078,29.252,0l23.87-23.869
			c0.002-0.001,0.003-0.003,0.005-0.005c0.011-0.011,0.022-0.022,0.033-0.033c40.22-40.202,105.639-40.202,145.857-0.006
			c0.029,0.029,0.058,0.058,0.08,0.081C480.713,141.913,480.699,207.361,440.462,247.58z"/>
    </symbol>

	<symbol id="header-profile" role="img" aria-labelledby="header-profile_title" viewBox="0 0 512 512">
        <title id="header-profile_title"></title>
        <path style="fill:#ED3431;" d="M256,314.134c-143.235,0-255.435,66.371-255.435,151.101v26.083c0,11.423,9.26,20.682,20.682,20.682
			s20.682-9.259,20.682-20.682v-26.083c0-59.484,98.032-109.737,214.071-109.737s214.071,50.253,214.071,109.737v26.083
			c0,11.423,9.259,20.682,20.682,20.682c11.423,0,20.682-9.26,20.682-20.682v-26.083C511.435,380.505,399.235,314.134,256,314.134z"
			/>
		<path style="fill:#0077C3;" d="M380.793,106.679c-3.963-26.728-16.158-50.955-35.265-70.062c-19.107-19.107-43.334-31.3-70.063-35.264
			c-12.166-1.804-24.506-1.804-36.675,0c-68.189,10.112-115.438,73.814-105.327,142.003c4.898,33.032,22.367,62.18,49.188,82.073
			c21.774,16.15,47.593,24.632,74.213,24.631c6.171,0,12.386-0.456,18.601-1.378C343.655,238.57,390.904,174.868,380.793,106.679z
			 M269.399,207.765c-22.098,3.279-44.158-2.247-62.104-15.559c-17.947-13.311-29.635-32.815-32.912-54.917
			c-6.766-45.628,24.85-88.253,70.477-95.019c4.072-0.603,8.171-0.905,12.271-0.905s8.2,0.302,12.27,0.905
			c36.712,5.444,65.034,33.767,70.478,70.478C346.642,158.375,315.026,201,269.399,207.765z"/>
    </symbol>

    <symbol id="header-login" role="img" aria-labelledby="header-login_title" viewBox="0 0 512 512">
        <title id="header-login_title"></title>
        <path style="fill:#0077C3;" d="M228.487,319.228c-7.811,7.811-7.811,20.474,0,28.284c7.81,7.81,20.474,7.811,28.285,0l77.37-77.37
			c7.789-7.789,7.774-20.51,0-28.284l-77.37-77.37c-7.811-7.811-20.475-7.811-28.285,0c-7.81,7.811-7.811,20.474,0,28.284
			L271.716,236H20c-11.046,0-20,8.954-20,20s8.954,20,20,20h251.716L228.487,319.228z"/>
		<path style="fill:#ED3431;" d="M433.543,7.75C429.754,2.861,423.918,0,417.733,0H170c-11.046,0-20,8.954-20,20s8.954,20,20,20h237.719
			C451.396,100.536,472,179.45,472,256c0,76.515-20.589,155.443-64.281,216H170c-11.046,0-20,8.954-20,20c0,11.046,8.954,20,20,20
			h247.733c6.185,0,12.022-2.861,15.81-7.75C486.683,435.671,512,344.876,512,256C512,167.134,486.686,76.333,433.543,7.75z"/>
    </symbol>    

    <symbol id="header-location" role="img" aria-labelledby="header-location_title" viewBox="0 0 502.172 502.172">
        <title id="header-location_title"></title>
        <path d="M423.422,91.484c-6.484-9.567-13.752-18.58-21.728-26.944l-23.152,22.08c6.757,7.09,12.917,14.727,18.416,22.832
			L423.422,91.484z"/>
		<path d="M421.166,162.54l30.912-8.24c-2.983-11.174-6.89-22.081-11.68-32.608l-29.12,13.28
			C415.333,143.871,418.641,153.093,421.166,162.54z"/>
		<path d="M458.174,188.396l-31.872,2.976c0.528,5.552,0.784,11.104,0.8,16.64c0.125,46.706-18.444,91.52-51.568,124.448
			L251.086,456.924L126.638,332.46c-68.731-68.734-68.728-180.171,0.006-248.902c33.005-33.003,77.768-51.545,124.442-51.546
			c38.1-0.117,75.19,12.247,105.6,35.2l19.2-25.6c-91.9-68.925-222.275-50.3-291.2,41.6c-27.003,36.004-41.6,79.795-41.6,124.8
			c-0.141,55.196,21.804,108.154,60.944,147.072l147.056,147.088l147.072-147.088c39.142-38.916,61.082-91.877,60.928-147.072
			C459.086,201.452,458.782,194.914,458.174,188.396z"/>
		<path d="M267.086,336.012v-33.44c40.2-6.87,71.69-38.36,78.56-78.56h33.44v-32h-33.44c-6.87-40.2-38.36-71.69-78.56-78.56v-33.44
			h-32v33.44c-40.2,6.87-71.69,38.36-78.56,78.56h-33.44v32h33.44c6.87,40.2,38.36,71.69,78.56,78.56v33.44H267.086z
			 M187.086,208.012c0-35.346,28.654-64,64-64c35.346,0,64,28.654,64,64c0,35.346-28.654,64-64,64
				C215.74,272.012,187.086,243.358,187.086,208.012z"/>
    </symbol>    

    <symbol id="search-form01" role="img" aria-labelledby="search-form01_title" viewBox="0 0 530.719 530.719">
        <title id="search-form01_title"></title>
        <circle cx="265.36" cy="197.619" r="89.304"/>
		<path d="M265.36,530.719c0,0,197.627-223.944,197.627-333.09C462.987,88.482,374.507,0,265.36,0
			C156.213,0,67.731,88.482,67.731,197.628C67.731,306.774,265.36,530.719,265.36,530.719z M265.36,61.171
			c75.352,0,136.448,61.085,136.448,136.448S340.712,334.066,265.36,334.066c-75.353,0-136.447-61.085-136.447-136.447
			S190.007,61.171,265.36,61.171z"/>
    </symbol>

    <symbol id="search-form02" role="img" aria-labelledby="search-form02_title" viewBox="0 0 512 512">
        <title id="search-form02_title"></title>
        <path d="M208,224H16c-8.832,0-16,7.168-16,16v256c0,8.832,7.168,16,16,16h192c8.832,0,16-7.168,16-16V240
			C224,231.168,216.832,224,208,224z M96,384H64v-32h32V384z M96,320H64v-32h32V320z M160,384h-32v-32h32V384z M160,320h-32v-32h32
			V320z"/>
		<path d="M368,0H112c-8.832,0-16,7.168-16,16v176h139.424c11.36,0,20.576,8.736,20.576,19.552V256l32-32v-80
			c0-8.832,7.168-16,16-16h80V16C384,7.168,376.832,0,368,0z M192,160h-32v-32h32V160z M192,96h-32V64h32V96z M256,160h-32v-32h32
			V160z M256,96h-32V64h32V96z M320,96h-32V64h32V96z"/>
		<path d="M496,160H336c-8.832,0-16,7.168-16,16v55.424l-56.864,59.264C258.656,293.664,256,298.656,256,304v192
			c0,8.832,7.168,16,16,16h224c8.832,0,16-7.168,16-16V176C512,167.168,504.832,160,496,160z M448,416h-64v-64h64V416z M448,288h-64
			v-64h64V288z"/>
    </symbol>

    <symbol id="search-form03" role="img" aria-labelledby="search-form03_title" viewBox="0 0 490 490">
        <title id="search-form03_title"></title>
        <path d="M424,49.8H312.8C303.5,20.9,276.5,0,244.5,0s-59,20.9-68.3,49.8H66c-23.2,0-42,18.8-42,42V448c0,23.2,18.8,42,42,42h358
		c23.2,0,42-18.8,42-42V91.8C466,68.6,447.2,49.8,424,49.8z M244.5,46.7c13.8,0,25,11.2,25,25s-11.2,25-25,25c-13.8,0-25-11.2-25-25
		S230.7,46.7,244.5,46.7z M369.2,407.3c0,7.7-6.3,14-14,14h-93.8h-32.6H135c-7.7,0-14-6.3-14-14v-6.5c0-17.1,8-33.3,21.7-43.5
		c27.6-20.4,54-33.8,60-36.7c0.8-0.4,1.3-1.2,1.3-2v-24.1c-3.7-6.4-6.1-13.2-7.1-19.3c-2.7-0.2-6.3-4-10.1-17.5
		c-5.2-18.5,0.3-21.2,5-20.8c-0.9-2.6-1.6-5.1-2-7.6l0,0c-1.7-8.6-2.1-16.7-0.1-24.4c2.4-10.3,8-18.6,14.2-24.9
		c3.9-4.2,8.4-7.9,13.2-10.9c3.9-2.7,8.1-5,12.8-6.6l0,0c3.6-1.2,7.5-2,11.6-2.2c12.7-1.1,22.3,2.1,29.2,6.2
		c10.3,5.7,14.2,13.2,14.2,13.2s23.6,1.7,15.6,49.6c-0.5,2.5-1.1,5.1-2,7.6c4.7-0.4,10.3,2.3,5,20.8c-3.8,13.5-7.4,17.3-10.1,17.5
		c-0.9,6.1-3.3,12.7-7.1,19.1v24.3c0,0.9,0.5,1.7,1.3,2c6,2.9,32.4,16.3,60,36.7c13.7,10.2,21.7,26.4,21.7,43.5v6.5H369.2z"/>
    </symbol>

    <symbol id="why01" role="img" aria-labelledby="why01_title" viewBox="0 0 512 512">
        <title id="why01_title"></title>
        <path style="fill:#0077C3;" d="M240.155,137.887c-1.859-1.859-4.438-2.929-7.067-2.929c-2.639,0-5.208,1.07-7.067,2.929
			c-1.869,1.859-2.929,4.438-2.929,7.067c0,2.629,1.06,5.208,2.929,7.067c1.859,1.858,4.428,2.929,7.067,2.929
			c2.629,0,5.208-1.07,7.067-2.929s2.929-4.438,2.929-7.067C243.084,142.325,242.015,139.746,240.155,137.887z"/>
		<path style="fill:#ED3431;" d="M285.756,362.359c-1.859-1.859-4.438-2.929-7.067-2.929s-5.208,1.069-7.067,2.929c-1.859,1.86-2.929,4.438-2.929,7.067
			c0,2.629,1.07,5.208,2.929,7.066c1.859,1.86,4.438,2.93,7.067,2.93s5.208-1.07,7.067-2.93c1.869-1.858,2.929-4.437,2.929-7.066
			C288.684,366.797,287.625,364.218,285.756,362.359z"/>
		<path style="fill:#ED3431;" d="M296.95,214.196c-5.521,0-9.996,4.476-9.996,9.996v63.568c0,5.521,4.475,9.996,9.996,9.996
			c5.521,0,9.996-4.476,9.996-9.996v-63.568C306.945,218.672,302.47,214.196,296.95,214.196z"/>
		<path style="fill:#0077C3;" d="M272.391,284.215l-24.109-63.568c-1.473-3.883-5.193-6.451-9.346-6.451s-7.873,2.568-9.346,6.451l-24.109,63.568
			c-1.956,5.162,0.641,10.933,5.802,12.89c5.163,1.961,10.933-0.639,12.89-5.802l2.654-6.998h24.218l2.654,6.998
			c1.515,3.995,5.314,6.454,9.348,6.454c1.177,0,2.376-0.21,3.542-0.653C271.752,295.148,274.349,289.378,272.391,284.215z
			 M234.411,264.315l4.527-11.936l4.527,11.936H234.411z"/>
		<path d="M478.015,443.944c-5.736,0-11.14,1.433-15.884,3.953l-26.657-26.657v-14.898c11.276-11.776,18.226-27.726,18.226-45.278
			c0-9.065-1.912-18.015-5.505-26.248c20.992-5.232,36.594-24.238,36.594-46.827v-89.005c0-25.409-19.742-46.279-44.69-48.113
			c1.081-3.985,1.648-8.127,1.648-12.338c0-8.528-2.292-16.528-6.274-23.434V90.762l26.657-26.657
			c4.744,2.519,10.149,3.953,15.884,3.953c18.74,0,33.985-15.245,33.985-33.985c0-18.74-15.245-33.985-33.985-33.985
			c-18.74,0-33.985,15.245-33.985,33.985c0,5.742,1.436,11.152,3.961,15.9L418.41,79.554c-1.874,1.875-2.928,4.417-2.928,7.068
			v9.705c-6.276-3.106-13.336-4.861-20.801-4.861c-4.045,0-8.036,0.514-11.888,1.517c-6.013-25.51-28.952-44.561-56.273-44.561
			c-31.885,0-57.826,25.941-57.826,57.826v63.765h-64.284c-2.651,0-5.194,1.054-7.068,2.928l-24.489,24.489
			c-1.874,1.875-2.928,4.417-2.928,7.068v102.955c0,2.651,1.054,5.193,2.928,7.068l24.489,24.489
			c1.874,1.874,4.417,2.928,7.068,2.928h18.68v63.467c0,21.026-17.107,38.131-38.132,38.131c-15.03,0-28.672-8.854-34.805-22.566
			c8.743-3.875,16.608-9.65,22.98-17.001c1.805,0.37,3.674,0.565,5.588,0.565c15.325,0,27.793-12.468,27.793-27.793
			s-12.468-27.793-27.793-27.793c-15.325,0-27.793,12.468-27.793,27.793c0,6.03,1.937,11.614,5.213,16.174
			c-8.498,8.673-20.18,13.685-32.531,13.685c-25.111,0-45.54-20.429-45.54-45.54c0-9.491,2.847-18.462,8.244-26.128
			c6.018-1.427,11.732-3.992,16.793-7.561c5.331,3.665,11.779,5.816,18.723,5.816c18.269,0,33.132-14.862,33.132-33.132
			c0-18.268-14.864-33.132-33.132-33.132s-33.132,14.862-33.132,33.132c0,4.063,0.739,7.956,2.083,11.556
			c-4.564,3.02-9.905,4.644-15.532,4.644c-15.587,0-28.268-12.681-28.268-28.269v-89.005c0-15.587,12.681-28.268,28.268-28.268
			c12.945,0,23.879,8.75,27.215,20.644c-9.843,4.282-16.745,14.096-16.745,25.496c0,15.325,12.468,27.793,27.793,27.793
			s27.793-12.468,27.793-27.793c0-12.079-7.747-22.376-18.531-26.2c-2.728-15.61-12.972-28.665-26.863-35.275
			c-3.806-4.779-5.888-10.69-5.888-16.849c0-14.929,12.146-27.075,27.075-27.075c3.656,0,7.226,0.745,10.537,2.145
			c0.77,7.958,3.729,15.459,8.564,21.8c-1.069,3.154-1.657,6.527-1.657,10.037c0,17.287,14.065,31.351,31.352,31.351
			s31.352-14.064,31.352-31.351s-14.065-31.352-31.352-31.352c-6.033,0-11.671,1.717-16.459,4.683
			c-1.303-2.917-2.012-6.09-2.012-9.373v-1.261c0.022-0.376,0.02-0.751,0-1.125v-0.763c0-20.862,16.972-37.835,37.834-37.835
			s37.835,16.972,37.835,37.835c0,5.52,4.475,9.996,9.996,9.996c5.521,0,9.996-4.476,9.996-9.996
			c0-31.884-25.941-57.826-57.826-57.826c-27.32,0-50.259,19.051-56.272,44.561c-3.852-1.003-7.843-1.517-11.888-1.517
			c-7.376,0-14.358,1.709-20.578,4.746v-9.591c0-2.651-1.054-5.193-2.928-7.068L64.009,49.972c2.525-4.747,3.961-10.158,3.961-15.9
			c0-18.74-15.245-33.985-33.985-33.985C15.245,0.087,0,15.332,0,34.072c0,18.74,15.245,33.985,33.985,33.985
			c5.736,0,11.14-1.433,15.884-3.953l26.657,26.658v23.95c-4.121,6.993-6.497,15.132-6.497,23.821c0,4.21,0.569,8.352,1.648,12.338
			c-24.947,1.835-44.69,22.705-44.69,48.114v89.005c0,22.588,15.602,41.595,36.594,46.827c-3.592,8.231-5.505,17.183-5.505,26.248
			c0,17.668,7.041,33.714,18.449,45.512v14.664l-26.657,26.657c-4.744-2.519-10.149-3.953-15.884-3.953
			C15.245,443.944,0,459.189,0,477.929s15.245,33.985,33.985,33.985c18.74,0,33.985-15.245,33.985-33.985
			c0-5.741-1.436-11.152-3.961-15.9l29.581-29.581c1.874-1.875,2.928-4.417,2.928-7.068v-4.672
			c8.263,3.768,17.431,5.885,27.091,5.885c2.352,0,4.686-0.134,6.996-0.381l1.201,2.713c9.302,21.02,30.165,34.603,53.152,34.603
			c32.049,0,58.124-26.074,58.124-58.123v-63.467h64.285c2.651,0,5.194-1.054,7.068-2.928l24.489-24.489
			c1.874-1.875,2.928-4.417,2.928-7.068V204.498c0-2.651-1.054-5.193-2.928-7.068l-24.489-24.489
			c-1.874-1.874-4.417-2.928-7.068-2.928h-18.68v-63.765c0-20.862,16.972-37.835,37.835-37.835s37.835,16.972,37.835,37.835v0.763
			c-0.02,0.374-0.022,0.749,0,1.125v1.261c0,3.283-0.708,6.456-2.012,9.373c-4.788-2.966-10.425-4.683-16.459-4.683
			c-17.287,0-31.352,14.065-31.352,31.352c0,17.287,14.065,31.351,31.352,31.351c17.287,0,31.352-14.064,31.352-31.351
			c0-3.51-0.589-6.883-1.657-10.037c4.835-6.341,7.795-13.843,8.564-21.8c3.313-1.4,6.881-2.145,10.537-2.145
			c14.93,0,27.075,12.146,27.075,27.075c0,6.158-2.083,12.07-5.888,16.849c-13.891,6.609-24.135,19.664-26.863,35.275
			c-10.784,3.823-18.531,14.122-18.531,26.2c0,15.325,12.468,27.793,27.793,27.793s27.793-12.468,27.793-27.793
			c0-11.4-6.902-21.215-16.745-25.496c3.337-11.894,14.27-20.644,27.215-20.644c15.587,0,28.268,12.681,28.268,28.268v89.005
			c0,15.588-12.682,28.269-28.268,28.269c-5.629,0-10.968-1.624-15.532-4.644c1.344-3.6,2.083-7.493,2.083-11.556
			c0-18.268-14.864-33.132-33.132-33.132s-33.132,14.862-33.132,33.132c0,18.269,14.864,33.132,33.132,33.132
			c6.944,0,13.392-2.151,18.723-5.816c5.061,3.568,10.775,6.133,16.793,7.561c5.398,7.665,8.244,16.637,8.244,26.128
			c0,25.111-20.429,45.54-45.54,45.54c-12.351,0-24.033-5.012-32.531-13.685c3.276-4.56,5.213-10.144,5.213-16.174
			c0-15.325-12.468-27.793-27.793-27.793c-15.325,0-27.793,12.468-27.793,27.793s12.468,27.793,27.793,27.793
			c1.913,0,3.782-0.195,5.588-0.565c6.372,7.35,14.237,13.125,22.98,17.001c-6.133,13.712-19.774,22.566-34.805,22.566
			c-21.027,0-38.132-17.106-38.132-38.131c0-5.52-4.475-9.996-9.996-9.996s-9.996,4.476-9.996,9.996
			c0,32.049,26.075,58.123,58.124,58.123c22.987,0,43.851-13.583,53.153-34.604l1.2-2.712c2.31,0.248,4.644,0.381,6.996,0.381
			c9.746,0,18.993-2.154,27.313-5.986v4.772c0,2.651,1.054,5.193,2.928,7.068l29.581,29.581c-2.525,4.748-3.961,10.159-3.961,15.9
			c0,18.74,15.245,33.985,33.985,33.985s33.985-15.245,33.985-33.985S496.754,443.944,478.015,443.944z M478.015,20.078
			c7.717,0,13.994,6.277,13.994,13.994c0,7.717-6.277,13.994-13.994,13.994s-13.994-6.277-13.994-13.994
			C464.021,26.355,470.298,20.078,478.015,20.078z M178.72,368.942c4.302,0,7.802,3.499,7.802,7.802s-3.499,7.802-7.802,7.802
			s-7.802-3.5-7.802-7.802S174.419,368.942,178.72,368.942z M121.829,286.919c7.246,0,13.14,5.894,13.14,13.14
			s-5.894,13.14-13.14,13.14s-13.14-5.894-13.14-13.14C108.689,292.814,114.583,286.919,121.829,286.919z M113.512,209.054
			c4.302,0,7.802,3.499,7.802,7.802s-3.5,7.802-7.802,7.802s-7.802-3.499-7.802-7.802S109.209,209.054,113.512,209.054z
			 M165.893,134.078c6.264,0,11.361,5.097,11.361,11.361s-5.097,11.36-11.361,11.36c-6.264,0-11.361-5.097-11.361-11.36
			C154.532,139.175,159.628,134.078,165.893,134.078z M33.985,48.066c-7.717,0-13.994-6.277-13.994-13.994
			c0-7.717,6.277-13.994,13.994-13.994c7.717,0,13.994,6.277,13.994,13.994C47.979,41.789,41.702,48.066,33.985,48.066z
			 M33.985,491.923c-7.717,0-13.994-6.277-13.994-13.994c0-7.717,6.277-13.994,13.994-13.994c7.717,0,13.994,6.277,13.994,13.994
			C47.979,485.645,41.702,491.923,33.985,491.923z M303.226,190.004l18.634,18.635v94.674l-18.634,18.635h-94.675l-18.634-18.635
			v-94.674l18.634-18.635H303.226z M345.884,156.801c-6.264,0-11.361-5.097-11.361-11.36c0-6.265,5.097-11.361,11.361-11.361
			s11.361,5.097,11.361,11.361C357.245,151.704,352.149,156.801,345.884,156.801z M398.266,224.657
			c-4.302,0-7.802-3.499-7.802-7.802s3.499-7.802,7.802-7.802s7.802,3.499,7.802,7.802S402.568,224.657,398.266,224.657z
			 M389.947,313.199c-7.246,0-13.14-5.894-13.14-13.14c0-7.245,5.894-13.14,13.14-13.14s13.14,5.894,13.14,13.14
			S397.193,313.199,389.947,313.199z M333.057,384.545c-4.302,0-7.802-3.5-7.802-7.802c0-4.302,3.5-7.802,7.802-7.802
			c4.302,0,7.802,3.5,7.802,7.802S337.359,384.545,333.057,384.545z M478.015,491.923c-7.717,0-13.994-6.277-13.994-13.994
			c0-7.717,6.277-13.994,13.994-13.994s13.994,6.277,13.994,13.994C492.009,485.645,485.73,491.923,478.015,491.923z"/>
    </symbol>

    <symbol id="why02" role="img" aria-labelledby="why02_title" viewBox="0 0 512 512">
        <title id="why02_title"></title>
        <path d="M477.083,440.502c19.253,0,34.917-15.664,34.917-34.918V50c0-27.57-22.43-50-50-50H50C22.43,0,0,22.43,0,50v355.584
			c0,19.254,15.664,34.918,34.917,34.918H46V492H10c-5.523,0-10,4.478-10,10c0,5.522,4.477,10,10,10h492c5.523,0,10-4.478,10-10
			c0-5.522-4.477-10-10-10h-36v-51.498H477.083z M20,50c0-16.542,13.458-30,30-30h412c16.542,0,30,13.458,30,30v22H21.004
			c-0.339,0-0.674,0.018-1.004,0.051V50z M110,492H66v-90h44V492z M222,492h-44V291.432h44V492z M334,492h-44V376h44V492z
			 M456,256.5h-64c-5.523,0-10,4.478-10,10v50.499c0,5.522,4.477,10,10,10s10-4.478,10-10V276.5h44V492h-44V384.25
			c0-5.522-4.477-10-10-10s-10,4.478-10,10V492h-28V366c0-5.522-4.477-10-10-10h-64c-5.523,0-10,4.478-10,10v126h-28V281.432
			c0-5.522-4.477-10-10-10h-64c-5.523,0-10,4.478-10,10V492h-28V392c0-5.522-4.477-10-10-10H56c-5.523,0-10,4.478-10,10v28.502
			H34.917c-8.226,0-14.917-6.692-14.917-14.918V91.949C20.33,91.982,20.665,92,21.004,92H492v313.584
			c0,8.226-6.692,14.918-14.917,14.918H466V266.5C466,260.978,461.523,256.5,456,256.5z"/>
		<path style="fill:#0077C3;" d="M448,36H222.065c-5.523,0-10,4.478-10,10s4.477,10,10,10H448c5.523,0,10-4.478,10-10S453.523,36,448,36z"/>
		<path style="fill:#0077C3;" d="M111.07,38.93C109.21,37.07,106.63,36,104,36s-5.21,1.069-7.07,2.93C95.07,40.79,94,43.37,94,46s1.07,5.21,2.93,7.069
			C98.79,54.93,101.37,56,104,56s5.21-1.07,7.07-2.931C112.93,51.21,114,48.63,114,46S112.93,40.79,111.07,38.93z"/>
		<path style="fill:#0077C3;" d="M71.07,38.93C69.21,37.07,66.63,36,64,36s-5.21,1.069-7.07,2.93C55.07,40.79,54,43.37,54,46s1.07,5.21,2.93,7.069
			C58.79,54.93,61.37,56,64,56s5.21-1.07,7.07-2.931C72.93,51.21,74,48.63,74,46S72.93,40.79,71.07,38.93z"/>
		<path style="fill:#0077C3;" d="M151.07,38.93C149.21,37.07,146.64,36,144,36c-2.63,0-5.21,1.069-7.07,2.93C135.07,40.79,134,43.37,134,46
			s1.07,5.21,2.93,7.069C138.79,54.93,141.37,56,144,56s5.21-1.07,7.07-2.931C152.93,51.21,154,48.63,154,46
			S152.93,40.79,151.07,38.93z"/>
		<path style="fill:#ED3431;" d="M399.07,345.57c-1.86-1.87-4.44-2.93-7.07-2.93s-5.21,1.061-7.07,2.93c-1.86,1.86-2.93,4.44-2.93,7.07
			s1.07,5.21,2.93,7.07c1.86,1.859,4.44,2.93,7.07,2.93s5.21-1.07,7.07-2.93s2.93-4.44,2.93-7.07
			C402,350,400.93,347.43,399.07,345.57z"/>
		<path style="fill:#0077C3;" d="M424,135.939c-19.851,0-36,16.149-36,36c0,7.885,2.555,15.181,6.871,21.118l-66.425,66.425
			c-5.155-2.853-11.077-4.483-17.375-4.483c-5.675,0-11.045,1.325-15.824,3.674l-69.359-69.359
			c2.853-5.155,4.483-11.077,4.483-17.375c0-19.851-16.149-36-36-36s-36,16.149-36,36c0,6.938,1.978,13.42,5.392,18.922
			l-59.053,59.052c-5.155-2.853-11.077-4.483-17.374-4.483c-19.851,0-36,16.149-36,36s16.149,36,36,36c19.851,0,36-16.149,36-36
			c0-6.298-1.63-12.22-4.483-17.375l59.758-59.758c4.763,2.329,10.111,3.641,15.76,3.641c6.297,0,12.219-1.63,17.374-4.483
			l68.68,68.679c-3.391,5.49-5.354,11.95-5.354,18.863c0,19.851,16.149,36,36,36s36-16.149,36-36c0-6.298-1.63-12.22-4.483-17.375
			l68.205-68.205c4.093,1.622,8.546,2.522,13.207,2.522c19.851,0,36-16.149,36-36C460,152.088,443.851,135.939,424,135.939z
			 M87.337,297.432c-8.822,0-16-7.178-16-16c0-8.822,7.178-16,16-16c8.822,0,16,7.178,16,16
			C103.337,290.254,96.159,297.432,87.337,297.432z M194.372,187.939c-8.822,0-16-7.178-16-16c0-8.822,7.178-16,16-16
			s16,7.178,16,16C210.372,180.761,203.194,187.939,194.372,187.939z M311.072,306.999c-8.822,0-16-7.178-16-16
			c0-8.822,7.178-16,16-16c8.822,0,16,7.178,16,16C327.072,299.821,319.894,306.999,311.072,306.999z M424,187.939
			c-8.822,0-16-7.178-16-16c0-8.822,7.178-16,16-16c8.822,0,16,7.178,16,16C440,180.761,432.822,187.939,424,187.939z"/>
		<path style="fill:#ED3431;" d="M148.33,128.951c-1.87-1.86-4.44-2.931-7.07-2.931c-2.64,0-5.22,1.07-7.08,2.931c-1.86,1.859-2.92,4.439-2.92,7.069
			s1.06,5.21,2.92,7.07c1.87,1.86,4.44,2.93,7.08,2.93c2.63,0,5.2-1.069,7.07-2.93c1.86-1.86,2.93-4.44,2.93-7.07
			S150.19,130.81,148.33,128.951z"/>
		<path style="fill:#ED3431;" d="M104,126.021H56c-5.523,0-10,4.478-10,10c0,5.522,4.477,10,10,10h48c5.523,0,10-4.478,10-10
			C114,130.499,109.523,126.021,104,126.021z"/>
		<path style="fill:#ED3431;" d="M104,174.021H56c-5.523,0-10,4.478-10,10c0,5.522,4.477,10,10,10h48c5.523,0,10-4.478,10-10
			C114,178.499,109.523,174.021,104,174.021z"/>
    </symbol>

    <symbol id="why03" role="img" aria-labelledby="why03_title" viewBox="0 0 512 512">
        <title id="why03_title"></title>
        <path style="fill:#0077C3;" d="M54.522,45.351c-5.521,0-9.999,4.477-9.999,9.999s4.477,9.999,9.999,9.999h0.1c5.521,0,9.949-4.477,9.949-9.999
			S60.044,45.351,54.522,45.351z"/>
		<path style="fill:#0077C3;" d="M102.467,45.351c-5.521,0-9.999,4.477-9.999,9.999s4.477,9.999,9.999,9.999h0.099c5.521,0,9.95-4.477,9.95-9.999
			S107.989,45.351,102.467,45.351z"/>
		<path style="fill:#0077C3;" d="M150.412,45.351c-5.521,0-9.999,4.477-9.999,9.999s4.477,9.999,9.999,9.999h0.099c5.521,0,9.949-4.477,9.949-9.999
			S155.934,45.351,150.412,45.351z"/>
		<path style="fill:#0077C3;" d="M395.663,45.351H274.322c-5.521,0-9.999,4.477-9.999,9.999s4.477,9.999,9.999,9.999h121.341
			c5.521,0,9.999-4.477,9.999-9.999S401.184,45.351,395.663,45.351z"/>
		<path d="M233.912,396.912c-1.861-1.86-4.44-2.93-7.069-2.93s-5.209,1.07-7.068,2.93c-1.86,1.86-2.931,4.44-2.931,7.069
			s1.07,5.209,2.931,7.068c1.859,1.86,4.438,2.931,7.068,2.931s5.209-1.07,7.069-2.931c1.86-1.859,2.93-4.438,2.93-7.068
			S235.772,398.772,233.912,396.912z"/>
		<path d="M458.006,128.273v-78.25c0-27.567-22.427-49.994-49.994-49.994H49.994C22.427,0.029,0,22.457,0,50.024v315.933
			c0,26.481,21.543,48.024,48.023,48.024h37.526v1.623c0,3.421-2.435,6.388-5.789,7.056l-37.682,7.508
			c-20.941,4.174-36.566,21.239-38.88,42.466l-3.081,28.254c-0.308,2.824,0.601,5.645,2.497,7.76
			c1.896,2.115,4.603,3.323,7.443,3.323H226.84c2.841,0,5.548-1.209,7.444-3.324c1.896-2.115,2.804-4.937,2.495-7.761l-3.089-28.263
			c-2.319-21.222-17.943-38.282-38.878-42.454l-37.689-7.509c-3.355-0.668-5.789-3.636-5.789-7.056v-9.389
			c0-0.051-0.007-0.1-0.008-0.151l16.947-9.688c0.187-0.106,0.369-0.219,0.548-0.337c9.087-6.001,15.054-16.687,15.963-28.586
			c0.02-0.254,0.029-0.508,0.029-0.762v-41.006c5.975-3.892,10.337-10.968,10.337-23.354l0.016-22.468
			c0-0.372-0.02-0.739-0.06-1.101c-1.024-19.787-17.135-35.157-37.063-35.157h-84.97c-3.73,0-7.192-1.976-9.44-3.633
			c-4.211-3.104-9.718-3.57-14.377-1.216c-4.641,2.345-7.524,7.034-7.524,12.239v32.534c0,11.051,3.885,21.208,10.353,29.193v53.969
			c0,0.254,0.01,0.508,0.029,0.762c0.811,10.615,5.719,20.282,13.306,26.529H48.023c-15.453,0.002-28.026-12.57-28.026-28.025
			V156.081h111.664c5.521,0,9.999-4.477,9.999-9.999s-4.477-9.999-9.999-9.999H19.998v-27.997h418.011v19.911H275.695
			c-32.896,0-59.66,26.763-59.66,59.659v83.691c0,32.896,26.764,59.659,59.66,59.659h12.499v29.235c0,4.045,2.437,7.69,6.172,9.238
			c1.237,0.512,2.537,0.761,3.825,0.761c2.603,0,5.159-1.016,7.072-2.929l36.305-36.306h96.442v34.951
			c0,15.454-12.573,28.027-28.027,28.027H267.529c-5.521,0-9.999,4.477-9.999,9.999s4.477,9.999,9.999,9.999h142.453
			c26.481,0,48.024-21.544,48.024-48.024v-35.226C488.254,327.866,512,302.333,512,271.348v-83.691
			C512,156.672,488.254,131.138,458.006,128.273z M157.802,443.187l33.104,6.595c12.337,2.457,21.541,12.509,22.908,25.012
			l1.877,17.178H21.207l1.873-17.171c1.363-12.508,10.569-22.562,22.907-25.02l33.107-6.596
			c10.857,9.672,24.697,14.967,39.355,14.967C133.107,458.152,146.946,452.856,157.802,443.187z M99.142,433.083
			c3.645-4.334,5.933-9.791,6.325-15.685c4.135,2.027,8.557,3.057,12.982,3.057c4.42,0.001,8.836-1.027,12.969-3.05
			c0.393,5.894,2.684,11.35,6.329,15.684c-5.823,3.299-12.423,5.064-19.298,5.064C111.572,438.153,104.969,436.385,99.142,433.083z
			 M164.817,366.275c-0.504,5.449-3.078,10.35-6.788,12.925l-33.592,19.203c-0.187,0.106-0.369,0.219-0.548,0.337
			c-3.458,2.283-7.423,2.282-10.879,0c-0.175-0.115-0.354-0.226-0.536-0.33l-33.498-19.208c-3.776-2.613-6.39-7.516-6.894-12.928
			v-39.165c5.021,1.863,10.449,2.884,16.11,2.884h76.625V366.275z M61.73,283.531c0,0,0-22.019,0-22.019
			c3.737,1.381,7.557,2.092,11.345,2.092h84.97c9.329,0,16.845,7.303,17.109,16.627c0.003,0.111,0.009,0.223,0.016,0.334
			l-0.016,21.76c0,0.002,0,0.005,0,0.007c0,5.062-1.034,6.341-1.152,6.471c-0.404,0.442-2.155,1.191-6.153,1.191H88.193
			C73.6,309.994,61.73,298.124,61.73,283.531z M19.998,88.089V50.024c0-16.54,13.456-29.996,29.996-29.996h358.018
			c16.54,0,29.996,13.456,29.996,29.996v38.066H19.998z M492.002,271.348c0,21.869-17.793,39.661-39.662,39.661H337.424
			c-2.652,0-5.194,1.054-7.07,2.929l-22.163,22.164v-15.094c0-5.521-4.477-9.999-9.999-9.999h-22.497
			c-21.869,0-39.662-17.792-39.662-39.661v-83.691c0-21.869,17.793-39.661,39.662-39.661H452.34
			c21.869,0,39.662,17.792,39.662,39.661V271.348z"/>
		<path style="fill:#0077C3;" d="M284.027,199.125c-16.54,0-29.997,13.456-29.997,29.996c0,16.54,13.456,29.996,29.997,29.996
			c16.54,0,29.996-13.456,29.996-29.996S300.567,199.125,284.027,199.125z M284.027,239.12c-5.513,0-9.999-4.485-9.999-9.999
			c0-5.513,4.485-9.999,9.999-9.999s9.999,4.485,9.999,9.999C294.026,234.635,289.539,239.12,284.027,239.12z"/>
		<path style="fill:#0077C3;" d="M364.017,199.125c-16.54,0-29.996,13.456-29.996,29.996c0,16.54,13.456,29.996,29.996,29.996s29.996-13.456,29.996-29.996
			S380.557,199.125,364.017,199.125z M364.017,239.12c-5.513,0-9.999-4.485-9.999-9.999c0-5.513,4.485-9.999,9.999-9.999
			s9.999,4.485,9.999,9.999C374.016,234.635,369.53,239.12,364.017,239.12z"/>
		<path style="fill:#0077C3;" d="M444.008,199.125c-16.54,0-29.996,13.456-29.996,29.996c0,16.54,13.456,29.996,29.996,29.996
			c16.54,0,29.997-13.456,29.997-29.996S460.548,199.125,444.008,199.125z M444.008,239.12c-5.513,0-9.999-4.485-9.999-9.999
			c0-5.513,4.485-9.999,9.999-9.999c5.513,0,9.999,4.485,9.999,9.999C454.007,234.635,449.52,239.12,444.008,239.12z"/>
		<path style="fill:#0077C3;" d="M176.227,139.013c-1.859-1.86-4.438-2.931-7.068-2.931s-5.208,1.07-7.069,2.931c-1.86,1.859-2.93,4.429-2.93,7.068
			c0,2.631,1.069,5.21,2.93,7.069c1.86,1.86,4.439,2.93,7.069,2.93c2.64,0,5.209-1.069,7.068-2.93
			c1.87-1.859,2.931-4.438,2.931-7.069C179.158,143.452,178.097,140.872,176.227,139.013z"/>
    </symbol>

    <symbol id="footer-facebook" role="img" aria-labelledby="footer-facebook_title" viewBox="0 0 512 512">
        <title id="footer-facebook_title">Facebook</title>
        <path d="M296.296,512H200.36V256h-64v-88.225l64-0.029l-0.104-51.976C200.256,43.794,219.773,0,304.556,0h70.588v88.242h-44.115
		c-33.016,0-34.604,12.328-34.604,35.342l-0.131,44.162h79.346l-9.354,88.225L296.36,256L296.296,512z"/>
    </symbol>

    <symbol id="footer-twitter" role="img" aria-labelledby="footer-twitter_title" viewBox="0 0 512.002 512.002">
        <title id="footer-twitter_title">Twitter</title>
        <path d="M512.002,97.211c-18.84,8.354-39.082,14.001-60.33,16.54c21.686-13,38.342-33.585,46.186-58.115
		c-20.299,12.039-42.777,20.78-66.705,25.49c-19.16-20.415-46.461-33.17-76.674-33.17c-58.011,0-105.042,47.029-105.042,105.039
		c0,8.233,0.929,16.25,2.72,23.939c-87.3-4.382-164.701-46.2-216.509-109.753c-9.042,15.514-14.223,33.558-14.223,52.809
		c0,36.444,18.544,68.596,46.73,87.433c-17.219-0.546-33.416-5.271-47.577-13.139c-0.01,0.438-0.01,0.878-0.01,1.321
		c0,50.894,36.209,93.348,84.261,103c-8.813,2.399-18.094,3.687-27.674,3.687c-6.769,0-13.349-0.66-19.764-1.888
		c13.368,41.73,52.16,72.104,98.126,72.949c-35.95,28.176-81.243,44.967-130.458,44.967c-8.479,0-16.84-0.496-25.058-1.471
		c46.486,29.807,101.701,47.197,161.021,47.197c193.211,0,298.868-160.062,298.868-298.872c0-4.554-0.104-9.084-0.305-13.59
		C480.111,136.775,497.92,118.275,512.002,97.211z"/>
    </symbol>

    <symbol id="footer-instagram" role="img" aria-labelledby="footer-instagram_title" viewBox="0 0 97.395 97.395">
        <title id="footer-instagram_title">Instagram</title>
        <path d="M12.501,0h72.393c6.875,0,12.5,5.09,12.5,12.5v72.395c0,7.41-5.625,12.5-12.5,12.5H12.501C5.624,97.395,0,92.305,0,84.895
		V12.5C0,5.09,5.624,0,12.501,0L12.501,0z M70.948,10.821c-2.412,0-4.383,1.972-4.383,4.385v10.495c0,2.412,1.971,4.385,4.383,4.385
		h11.008c2.412,0,4.385-1.973,4.385-4.385V15.206c0-2.413-1.973-4.385-4.385-4.385H70.948L70.948,10.821z M86.387,41.188h-8.572
		c0.811,2.648,1.25,5.453,1.25,8.355c0,16.2-13.556,29.332-30.275,29.332c-16.718,0-30.272-13.132-30.272-29.332
		c0-2.904,0.438-5.708,1.25-8.355h-8.945v41.141c0,2.129,1.742,3.872,3.872,3.872h67.822c2.13,0,3.872-1.742,3.872-3.872V41.188
		H86.387z M48.789,29.533c-10.802,0-19.56,8.485-19.56,18.953c0,10.468,8.758,18.953,19.56,18.953
		c10.803,0,19.562-8.485,19.562-18.953C68.351,38.018,59.593,29.533,48.789,29.533z"/>
    </symbol>

    <symbol id="footer-linkedin" role="img" aria-labelledby="footer-linkedin_title" viewBox="0 0 93.06 93.06">
        <title id="footer-linkedin_title">Linkedin</title>
        <path d="M11.185,0.08C5.004,0.08,0.001,5.092,0,11.259c0,6.173,5.003,11.184,11.186,11.184c6.166,0,11.176-5.011,11.176-11.184
			C22.362,5.091,17.351,0.08,11.185,0.08z"/>
		<rect x="1.538" y="30.926" width="19.287" height="62.054"/>
		<path d="M69.925,29.383c-9.382,0-15.673,5.144-18.248,10.022h-0.258v-8.479H32.921H32.92v62.053h19.27V62.281
			c0-8.093,1.541-15.932,11.575-15.932c9.89,0,10.022,9.256,10.022,16.451v30.178H93.06V58.942
			C93.06,42.235,89.455,29.383,69.925,29.383z"/>
    </symbol>

    <symbol id="footer-google" role="img" aria-labelledby="footer-google_title" viewBox="0 90 320 320">
        <title id="footer-google_title">Google</title>
		<path d="M160,224v64h90.528c-13.216,37.248-48.8,64-90.528,64c-52.928,0-96-43.072-96-96c0-52.928,43.072-96,96-96
			c22.944,0,45.024,8.224,62.176,23.168l42.048-48.256C235.424,109.824,198.432,96,160,96C71.776,96,0,167.776,0,256
			s71.776,160,160,160s160-71.776,160-160v-32H160z"/>
    </symbol>

    <symbol id="footer-phone" role="img" aria-labelledby="footer-phone_title" viewBox="0 0 512 512">
        <title id="footer-phone_title"></title>
        <path d="M421.216,195.504c-5.092-26.101-17.723-49.836-36.526-68.64c-18.804-18.803-42.54-31.434-68.641-36.527
			c-11.21-2.189-22.073,5.128-24.261,16.339c-2.187,11.212,5.128,22.073,16.339,24.26c36.847,7.188,65.3,35.642,72.489,72.489
			c1.927,9.874,10.581,16.726,20.278,16.726c1.313,0,2.645-0.125,3.984-0.387C416.088,217.577,423.403,206.715,421.216,195.504z"/>
		<path d="M511.422,196.929c-5.629-50.096-28.373-97.304-64.042-132.927C411.712,28.378,364.475,5.694,314.371,0.128
			c-11.355-1.261-21.578,6.92-22.839,18.272c-1.261,11.353,6.919,21.578,18.272,22.84c84.961,9.438,150.966,75.36,160.512,160.31
			c1.188,10.566,10.139,18.374,20.527,18.374c0.771,0,1.552-0.043,2.336-0.131C504.53,218.516,512.698,208.281,511.422,196.929z"/>
		<path d="M432.59,312.566c-0.062-0.008-0.124-0.017-0.186-0.025c-20.013-2.639-39.751-7.557-58.619-14.596
			c-23.91-8.99-51.103-3.191-69.27,14.772c-0.028,0.028-0.056,0.055-0.083,0.083l-17.148,17.148
			c-42.633-26.924-78.756-63.047-105.679-105.679l17.149-17.149c0.027-0.028,0.054-0.055,0.082-0.083
			c17.964-18.166,23.762-45.356,14.79-69.223c-7.057-18.914-11.974-38.653-14.614-58.666c-0.007-0.063-0.017-0.127-0.026-0.19
			c-4.591-32.478-32.782-56.734-65.548-56.467H66.053c-1.943,0.002-3.912,0.091-5.853,0.267
			C24.143,26.016-2.541,58.001,0.718,94.058c0.01,0.108,0.02,0.215,0.032,0.323c7.684,72.354,32.649,142.88,72.197,203.955
			c35.892,56.461,84.701,105.269,141.162,141.164c60.792,39.406,130.99,64.369,203.013,72.196c0.127,0.015,0.254,0.027,0.38,0.038
			c1.961,0.176,3.949,0.266,5.921,0.266c0.083,0,0.165,0,0.247,0.001c36.204-0.148,65.538-29.722,65.391-65.841v-67.233
			C489.746,345.714,465.515,317.211,432.59,312.566z M447.698,378.695v67.548c0.055,13.396-10.8,24.338-24.19,24.393
			c-0.715-0.004-1.425-0.027-2.135-0.086c-65.578-7.161-129.488-29.914-184.837-65.808c-0.053-0.035-0.107-0.069-0.161-0.103
			c-51.429-32.68-95.885-77.137-128.565-128.565c-0.032-0.051-0.064-0.101-0.097-0.153C71.683,220.306,48.928,156.086,41.902,90.193
			C40.779,76.91,50.63,65.155,63.923,63.954c0.717-0.064,1.443-0.098,2.145-0.098h67.463c0.146-0.001,0.294-0.003,0.443-0.002
			c12.021,0,22.322,8.905,24.044,20.819c3.05,23.063,8.721,45.806,16.871,67.649c3.319,8.832,1.189,18.869-5.427,25.591
			l-28.517,28.517c-6.583,6.582-7.956,16.753-3.354,24.847c33.837,59.508,83.177,108.847,142.685,142.685
			c8.094,4.6,18.264,3.23,24.848-3.355l28.512-28.512c6.72-6.621,16.765-8.752,25.642-5.415
			c21.799,8.134,44.547,13.805,67.61,16.855c12.18,1.757,21.122,12.339,20.816,24.647
			C447.7,378.353,447.698,378.524,447.698,378.695z"/>
    </symbol>    

	<symbol id="footer-mail" role="img" aria-labelledby="footer-mail_title" viewBox="0 0 512 512">
        <title id="footer-mail_title"></title>
        <path d="M256,141.176c-63.306,0-114.809,51.503-114.809,114.809S192.694,370.795,256,370.795s114.809-51.503,114.809-114.809
			S319.306,141.176,256,141.176z M256,329.43c-40.498,0-73.445-32.947-73.445-73.445c0-40.498,32.947-73.445,73.445-73.445
			c40.499,0,73.445,32.947,73.445,73.445C329.445,296.483,296.499,329.43,256,329.43z"/>
		<path d="M437.008,74.97C388.656,26.623,324.375,0,256,0c-0.005,0-0.013,0-0.017,0C187.603,0.004,123.318,26.637,74.97,74.992
			C26.62,123.347-0.005,187.637,0,256.017c0.004,68.379,26.637,132.666,74.992,181.014C123.344,485.377,187.625,512.001,256,512
			c0.004,0,0.012,0,0.017,0c55.945-0.004,111.216-18.738,155.631-52.752c9.07-6.945,10.792-19.927,3.846-28.995
			c-6.945-9.069-19.926-10.794-28.995-3.846c-37.24,28.518-83.58,44.224-130.486,44.228c-0.006,0-0.006,0-0.014,0
			c-57.324,0-111.224-22.324-151.761-62.856c-40.542-40.536-62.871-94.435-62.875-151.766
			C41.357,137.663,137.636,41.372,255.986,41.364c0.007,0,0.006,0,0.014,0c118.34,0,214.628,96.279,214.636,214.622v23.532
			c0,27.523-22.39,49.913-49.913,49.913c-27.523,0-49.913-22.391-49.913-49.913v-23.532c0-11.422-9.259-20.682-20.682-20.682
			s-20.682,9.26-20.682,20.682v23.532c0,50.33,40.947,91.278,91.278,91.278S512,329.848,512,279.518v-23.534
			C511.995,187.604,485.362,123.318,437.008,74.97z"/>
    </symbol>

    <symbol id="footer-location" role="img" aria-labelledby="footer-location_title" viewBox="0 0 512 512">
        <title id="footer-location_title"></title>
        <path d="M406.766,62.449C366.495,22.178,312.951,0,256,0S145.505,22.178,105.234,62.449
			c-40.272,40.271-62.449,93.814-62.449,150.766c0,37.656,10.972,76.863,32.609,116.532c16.825,30.846,40.15,62.102,69.326,92.898
			c49.17,51.903,97.763,84.519,99.808,85.881C248.001,510.842,252,512,256,512c4,0,7.999-1.158,11.473-3.474
			c2.045-1.363,50.638-33.978,99.808-85.881c29.176-30.795,52.501-62.051,69.326-92.898c21.637-39.669,32.609-78.876,32.609-116.532
			C469.215,156.263,447.038,102.72,406.766,62.449z M256.001,465.903C215.826,436.156,84.15,329.739,84.15,213.215
			c0-94.759,77.091-171.851,171.85-171.851s171.85,77.092,171.851,171.851C427.851,329.748,296.159,436.168,256.001,465.903z"/>
		<path d="M256,128.355c-46.791,0-84.86,38.068-84.86,84.86c0,46.791,38.068,84.86,84.86,84.86c46.792,0,84.861-38.068,84.86-84.86
			C340.86,166.423,302.791,128.355,256,128.355z M256,256.71c-23.983,0-43.495-19.512-43.495-43.495
			c0-23.983,19.512-43.495,43.495-43.495c23.984,0,43.495,19.512,43.495,43.495C299.495,237.198,279.984,256.71,256,256.71z"/>
		</symbol>

	<symbol id="footer-time" role="img" aria-labelledby="ooter-time_title" viewBox="0 0 512 512">
        <title id="ooter-time_title"></title>
        <path d="M437.019,74.981C388.667,26.629,324.38,0,256,0S123.333,26.63,74.981,74.981S0,187.62,0,256
			s26.629,132.667,74.981,181.019C123.332,485.371,187.62,512,256,512s132.667-26.629,181.019-74.981
			C485.371,388.667,512,324.38,512,256S485.371,123.332,437.019,74.981z M256,470.636C137.65,470.636,41.364,374.35,41.364,256
			S137.65,41.364,256,41.364S470.636,137.65,470.636,256S374.35,470.636,256,470.636z"/>
		<path d="M341.221,311.97l-64.538-64.537V114.809c0-11.422-9.259-20.682-20.682-20.682c-11.422,0-20.682,9.26-20.682,20.682V256
			c0,5.486,2.179,10.746,6.058,14.625l70.594,70.595c4.038,4.039,9.332,6.058,14.625,6.058c5.293,0,10.586-2.019,14.626-6.058
			C349.297,333.142,349.297,320.047,341.221,311.97z"/>
	</symbol>

</svg>
