<svg xmlns="http://www.w3.org/2000/svg" xmlns:xlink="http://www.w3.org/1999/xlink">
  
    <symbol id="header-facebook" role="img" aria-labelledby="header-facebook_title" viewBox="0 0 512 512">
    	<title id="header-facebook_title">Facebook</title>
        <path d="M314.829,135.492h70.595c11.423,0,20.682-9.26,20.682-20.682V20.682C406.107,9.26,396.848,0,385.425,0h-70.595
			c-76.282,0-138.341,62.06-138.341,138.341v49.913h-49.913c-11.422,0-20.682,9.26-20.682,20.682v94.127
			c0,11.423,9.26,20.682,20.682,20.682h49.913v167.572c0,11.423,9.26,20.682,20.682,20.682h94.127
			c11.423,0,20.682-9.259,20.682-20.682V323.746h49.913c9.49,0,17.763-6.458,20.065-15.666l23.532-94.127
			c1.544-6.179,0.156-12.725-3.763-17.744c-3.919-5.02-9.932-7.954-16.301-7.954H311.98v-49.913
			C311.98,136.77,313.258,135.492,314.829,135.492z M291.298,229.619h67.637l-13.191,52.763h-54.447
			c-11.423,0-20.682,9.259-20.682,20.682v167.572h-52.763V303.064c0-11.423-9.26-20.682-20.682-20.682h-49.913v-52.763h49.913
			c11.422,0,20.682-9.26,20.682-20.682v-70.595c0-53.473,43.503-96.977,96.977-96.977h49.913v52.763h-49.913
			c-24.38,0-44.214,19.835-44.214,44.214v70.595C270.615,220.359,279.875,229.619,291.298,229.619z"/>
    </symbol>

    <symbol id="header-twitter" role="img" aria-labelledby="header-twitter_title" viewBox="0 0 512 512">
    	<title id="header-twitter_title">Twitter</title>
        <path d="M502.954,47.189c-7.126-4.852-16.515-4.774-23.559,0.196c-15.351,10.828-31.974,19.528-49.557,25.948
			c-19.253-17.414-43.615-27.826-69.915-29.656c-31.056-2.16-61.081,7.9-84.561,28.326c-25.59,22.259-40.174,54.444-40.046,88.349
			c-85.248-7.609-139.14-61.55-177.09-108.986c-4.598-5.746-11.901-8.619-19.182-7.538c-7.279,1.078-13.438,5.944-16.171,12.777
			c-0.948,2.369-23.141,58.799-17.453,127.057c4.761,57.133,30.23,131.964,120.039,181.717
			c-32.436,14.756-68.282,21.939-103.953,20.519c-9.576-0.378-18.15,5.859-20.736,15.08c-2.587,9.221,1.497,19.013,9.869,23.665
			c51.359,28.532,108.03,43.736,163.889,43.965c0.432,0.002,0.861,0.003,1.294,0.003c54.105-0.001,106.379-13.938,151.246-40.336
			c42.898-25.241,78.416-61.759,102.715-105.603c26.162-47.206,39.427-101.75,39.427-162.186c-0.011-3.544-0.186-7.098-0.52-10.638
			c20.7-22.885,35.388-50.567,42.719-80.667C513.451,60.803,510.081,52.04,502.954,47.189z M432.297,128.07
			c-4.916,4.847-7.088,11.827-5.793,18.607c0.877,4.588,1.329,9.278,1.344,13.874c0,101.956-44.378,186.544-121.756,232.072
			c-60.586,35.649-133.037,43.933-203.609,25.057c0.729-0.201,1.459-0.407,2.185-0.615c27.596-7.885,53.63-20.055,77.377-36.174
			c6.329-4.296,9.77-11.734,8.946-19.34c-0.825-7.605-5.778-14.134-12.881-16.975C97.757,312.434,53.563,257.594,46.757,181.575
			c-2.536-28.334,0.707-54.721,4.766-74.501c16.638,17.909,37.384,37.227,62.129,53.407c42.771,27.966,90.663,42.146,142.346,42.146
			c11.423,0,20.682-9.26,20.682-20.682v-21.393c0-0.045,0-0.091,0-0.137c-0.146-21.948,9.268-42.797,25.829-57.202
			c15.146-13.175,34.51-19.665,54.543-18.27c20.026,1.393,38.311,10.502,51.487,25.648c5.339,6.138,13.783,8.577,21.567,6.229
			c5.725-1.724,11.375-3.645,16.941-5.757C442.599,117.081,437.672,122.769,432.297,128.07z"/>
    </symbol>

    <symbol id="header-instagram" role="img" aria-labelledby="header-instagram_title" viewBox="0 0 512 512">
    	<title id="header-instagram_title">Instagram</title>
        <path d="M373.659,0H138.341C62.06,0,0,62.06,0,138.341v235.318C0,449.94,62.06,512,138.341,512h235.318
			C449.94,512,512,449.94,512,373.659V138.341C512,62.06,449.94,0,373.659,0z M470.636,373.659
			c0,53.473-43.503,96.977-96.977,96.977H138.341c-53.473,0-96.977-43.503-96.977-96.977V138.341
			c0-53.473,43.503-96.977,96.977-96.977h235.318c53.473,0,96.977,43.503,96.977,96.977V373.659z"/>
		<path d="M370.586,238.141c-3.64-24.547-14.839-46.795-32.386-64.342c-17.547-17.546-39.795-28.746-64.341-32.385
			c-11.176-1.657-22.507-1.657-33.682,0c-30.336,4.499-57.103,20.541-75.372,45.172c-18.269,24.631-25.854,54.903-21.355,85.237
			c4.499,30.335,20.541,57.102,45.172,75.372c19.996,14.831,43.706,22.619,68.153,22.619c5.667,0,11.375-0.418,17.083-1.265
			c30.336-4.499,57.103-20.541,75.372-45.172C367.5,298.747,375.085,268.476,370.586,238.141z M267.791,327.632
			c-19.405,2.882-38.77-1.973-54.527-13.66c-15.757-11.687-26.019-28.811-28.896-48.216c-2.878-19.405,1.973-38.77,13.66-54.527
			c11.688-15.757,28.811-26.019,48.217-28.897c3.574-0.53,7.173-0.795,10.772-0.795s7.199,0.265,10.773,0.796
			c32.231,4.779,57.098,29.645,61.878,61.877C335.608,284.268,307.851,321.692,267.791,327.632z"/>
		<path d="M400.049,111.951c-3.852-3.851-9.183-6.058-14.625-6.058c-5.442,0-10.773,2.206-14.625,6.058
			c-3.851,3.852-6.058,9.174-6.058,14.625c0,5.451,2.207,10.773,6.058,14.625c3.852,3.851,9.183,6.058,14.625,6.058
			c5.442,0,10.773-2.206,14.625-6.058c3.851-3.852,6.058-9.183,6.058-14.625C406.107,121.133,403.9,115.802,400.049,111.951z"/>
    </symbol>

    <symbol id="header-phone" role="img" aria-labelledby="header-phone_title" viewBox="0 0 512 512">
    	<title id="header-phone_title"></title>
        <path d="M421.216,195.504c-5.092-26.101-17.723-49.836-36.526-68.64c-18.804-18.803-42.54-31.434-68.641-36.527
			c-11.21-2.189-22.073,5.128-24.261,16.339c-2.187,11.212,5.128,22.073,16.339,24.26c36.847,7.188,65.3,35.642,72.489,72.489
			c1.927,9.874,10.581,16.726,20.278,16.726c1.313,0,2.645-0.125,3.984-0.387C416.088,217.577,423.403,206.715,421.216,195.504z"/>
		<path d="M511.422,196.929c-5.629-50.096-28.373-97.304-64.042-132.927C411.712,28.378,364.475,5.694,314.371,0.128
			c-11.355-1.261-21.578,6.92-22.839,18.272c-1.261,11.353,6.919,21.578,18.272,22.84c84.961,9.438,150.966,75.36,160.512,160.31
			c1.188,10.566,10.139,18.374,20.527,18.374c0.771,0,1.552-0.043,2.336-0.131C504.53,218.516,512.698,208.281,511.422,196.929z"/>
		<path d="M432.59,312.566c-0.062-0.008-0.124-0.017-0.186-0.025c-20.013-2.639-39.751-7.557-58.619-14.596
			c-23.91-8.99-51.103-3.191-69.27,14.772c-0.028,0.028-0.056,0.055-0.083,0.083l-17.148,17.148
			c-42.633-26.924-78.756-63.047-105.679-105.679l17.149-17.149c0.027-0.028,0.054-0.055,0.082-0.083
			c17.964-18.166,23.762-45.356,14.79-69.223c-7.057-18.914-11.974-38.653-14.614-58.666c-0.007-0.063-0.017-0.127-0.026-0.19
			c-4.591-32.478-32.782-56.734-65.548-56.467H66.053c-1.943,0.002-3.912,0.091-5.853,0.267
			C24.143,26.016-2.541,58.001,0.718,94.058c0.01,0.108,0.02,0.215,0.032,0.323c7.684,72.354,32.649,142.88,72.197,203.955
			c35.892,56.461,84.701,105.269,141.162,141.164c60.792,39.406,130.99,64.369,203.013,72.196c0.127,0.015,0.254,0.027,0.38,0.038
			c1.961,0.176,3.949,0.266,5.921,0.266c0.083,0,0.165,0,0.247,0.001c36.204-0.148,65.538-29.722,65.391-65.841v-67.233
			C489.746,345.714,465.515,317.211,432.59,312.566z M447.698,378.695v67.548c0.055,13.396-10.8,24.338-24.19,24.393
			c-0.715-0.004-1.425-0.027-2.135-0.086c-65.578-7.161-129.488-29.914-184.837-65.808c-0.053-0.035-0.107-0.069-0.161-0.103
			c-51.429-32.68-95.885-77.137-128.565-128.565c-0.032-0.051-0.064-0.101-0.097-0.153C71.683,220.306,48.928,156.086,41.902,90.193
			C40.779,76.91,50.63,65.155,63.923,63.954c0.717-0.064,1.443-0.098,2.145-0.098h67.463c0.146-0.001,0.294-0.003,0.443-0.002
			c12.021,0,22.322,8.905,24.044,20.819c3.05,23.063,8.721,45.806,16.871,67.649c3.319,8.832,1.189,18.869-5.427,25.591
			l-28.517,28.517c-6.583,6.582-7.956,16.753-3.354,24.847c33.837,59.508,83.177,108.847,142.685,142.685
			c8.094,4.6,18.264,3.23,24.848-3.355l28.512-28.512c6.72-6.621,16.765-8.752,25.642-5.415
			c21.799,8.134,44.547,13.805,67.61,16.855c12.18,1.757,21.122,12.339,20.816,24.647
			C447.7,378.353,447.698,378.524,447.698,378.695z"/>
    </symbol> 

    <symbol id="header-mail" role="img" aria-labelledby="header-mail_title" viewBox="0 0 512 512">
    	<title id="header-mail_title"></title>
        <path d="M256,141.176c-63.306,0-114.809,51.503-114.809,114.809S192.694,370.795,256,370.795s114.809-51.503,114.809-114.809
			S319.306,141.176,256,141.176z M256,329.43c-40.498,0-73.445-32.947-73.445-73.445c0-40.498,32.947-73.445,73.445-73.445
			c40.499,0,73.445,32.947,73.445,73.445C329.445,296.483,296.499,329.43,256,329.43z"/>
		<path d="M437.008,74.97C388.656,26.623,324.375,0,256,0c-0.005,0-0.013,0-0.017,0C187.603,0.004,123.318,26.637,74.97,74.992
			C26.62,123.347-0.005,187.637,0,256.017c0.004,68.379,26.637,132.666,74.992,181.014C123.344,485.377,187.625,512.001,256,512
			c0.004,0,0.012,0,0.017,0c55.945-0.004,111.216-18.738,155.631-52.752c9.07-6.945,10.792-19.927,3.846-28.995
			c-6.945-9.069-19.926-10.794-28.995-3.846c-37.24,28.518-83.58,44.224-130.486,44.228c-0.006,0-0.006,0-0.014,0
			c-57.324,0-111.224-22.324-151.761-62.856c-40.542-40.536-62.871-94.435-62.875-151.766
			C41.357,137.663,137.636,41.372,255.986,41.364c0.007,0,0.006,0,0.014,0c118.34,0,214.628,96.279,214.636,214.622v23.532
			c0,27.523-22.39,49.913-49.913,49.913c-27.523,0-49.913-22.391-49.913-49.913v-23.532c0-11.422-9.259-20.682-20.682-20.682
			s-20.682,9.26-20.682,20.682v23.532c0,50.33,40.947,91.278,91.278,91.278S512,329.848,512,279.518v-23.534
			C511.995,187.604,485.362,123.318,437.008,74.97z"/>
    </symbol>

    <symbol id="system" role="img" aria-labelledby="system_title" viewBox="0 0 510 510">
    	<title id="system_title">system icon</title>
        <path d="M255,221.85c-28.05,0-51,22.95-51,51s22.95,51,51,51s51-22.95,51-51S283.05,221.85,255,221.85z M408,272.85
			c0-84.15-68.85-153-153-153c-84.15,0-153,68.85-153,153c0,56.1,30.6,104.55,76.5,132.6L204,362.1c-30.6-17.85-51-51-51-86.7
			c0-56.1,45.9-102,102-102c56.1,0,102,45.9,102,102c0,38.25-20.4,71.4-51,86.7l25.5,43.35C377.4,377.4,408,328.95,408,272.85z
			 M255,17.85c-140.25,0-255,114.75-255,255c0,94.35,51,175.95,127.5,219.3L153,448.8c-61.2-35.7-102-102-102-175.95
			c0-112.2,91.8-204,204-204s204,91.8,204,204c0,76.5-40.8,140.25-102,175.95l25.5,43.35C459,448.8,510,364.65,510,272.85
			C510,132.6,395.25,17.85,255,17.85z"/>
    </symbol>

    <symbol id="facebook" role="img" aria-labelledby="facebook_title" viewBox="0 0 314.652 314.652">
    	<title id="facebook_title">facebook icon</title>
        <path d="M157.326,0C70.576,0,0,70.576,0,157.326s70.576,157.326,157.326,157.326s157.326-70.576,157.326-157.326
			S244.076,0,157.326,0z M157.326,296.652C80.501,296.652,18,234.15,18,157.326S80.501,18,157.326,18s139.326,62.502,139.326,139.326
			S234.151,296.652,157.326,296.652z"/>
		<path d="M193.764,71.952H172.43c-17.461,0-31.667,14.206-31.667,31.667v24h-19.875c-4.971,0-9,4.029-9,9s4.029,9,9,9h19.875v83.333
			c0,4.971,4.029,9,9,9s9-4.029,9-9v-83.333h30.75c4.971,0,9-4.029,9-9s-4.029-9-9-9h-30.75v-24c0-7.536,6.131-13.667,13.667-13.667
			h21.333c4.971,0,9-4.029,9-9S198.734,71.952,193.764,71.952z"/>
    </symbol>

    <symbol id="twitter" role="img" aria-labelledby="twitter_title" viewBox="0 0 314.652 314.652">
    	<title id="twitter_title">twitter icon</title>
        <path d="M157.326,0C70.576,0,0,70.576,0,157.326s70.576,157.326,157.326,157.326s157.326-70.576,157.326-157.326
			S244.076,0,157.326,0z M157.326,296.652C80.502,296.652,18,234.15,18,157.326S80.502,18,157.326,18s139.326,62.502,139.326,139.326
			S234.15,296.652,157.326,296.652z"/>
		<path d="M188.326,132.806c4.971,0,9-4.029,9-9s-4.029-9-9-9h-53v-9.146c0-4.971-4.029-9-9-9s-9,4.029-9,9v59.448
			c0,29.161,23.724,52.886,52.885,52.886h18.115c4.971,0,9-4.029,9-9s-4.029-9-9-9h-18.115c-19.235,0-34.885-15.649-34.885-34.886
			v-32.302H188.326z"/>
    </symbol>

    <symbol id="linkedin" role="img" aria-labelledby="linkedin_title" viewBox="0 0 314.652 314.652">
    	<title id="linkedin_title">linkedin icon</title>
        <path d="M157.326,0C70.576,0,0,70.576,0,157.326s70.576,157.326,157.326,157.326s157.326-70.576,157.326-157.326
			S244.076,0,157.326,0z M157.326,296.652C80.501,296.652,18,234.15,18,157.326S80.501,18,157.326,18s139.326,62.502,139.326,139.326
			S234.151,296.652,157.326,296.652z"/>
		<path d="M112.326,121.119c-4.971,0-9,4.029-9,9v74.414c0,4.971,4.029,9,9,9s9-4.029,9-9v-74.414
			C121.326,125.148,117.297,121.119,112.326,121.119z"/>
		<path d="M112.326,79.116c-2.37,0-4.69,0.96-6.36,2.64c-1.68,1.67-2.64,3.99-2.64,6.36s0.96,4.689,2.64,6.37
			c1.67,1.67,3.99,2.63,6.36,2.63c2.37,0,4.69-0.96,6.36-2.63c1.68-1.681,2.64-4,2.64-6.37s-0.96-4.69-2.64-6.36
			C117.016,80.076,114.696,79.116,112.326,79.116z"/>
		<path d="M190.076,128.119c-9.42,0-18.139,3.036-25.25,8.169v-6.169c0-4.971-4.029-9-9-9s-9,4.029-9,9v74.414c0,4.971,4.029,9,9,9
			s9-4.029,9-9v-33.164c0-13.923,11.327-25.25,25.25-25.25s25.25,11.327,25.25,25.25v35.164c0,4.971,4.029,9,9,9s9-4.029,9-9v-35.164
			C233.326,147.521,213.924,128.119,190.076,128.119z"/>
    </symbol>

    <symbol id="youtube" role="img" aria-labelledby="youtube_title" viewBox="0 0 512 512">
    	<title id="youtube_title">youtube icon</title>
        <path d="M256,0C115.03,0,0,115.049,0,256c0,140.97,115.049,256,256,256c140.97,0,256-115.049,256-256C512,115.029,396.951,0,256,0
			z M256,482C131.383,482,30,380.617,30,256S131.383,30,256,30s226,101.383,226,226S380.617,482,256,482z"/>
		<path d="M384.32,243.519l-180-120c-4.601-3.068-10.521-3.355-15.398-0.744C184.045,125.385,181,130.468,181,136v240
			c0,5.532,3.045,10.615,7.922,13.225c4.874,2.609,10.793,2.326,15.398-0.744l180-120c4.173-2.782,6.68-7.465,6.68-12.481
			S388.493,246.301,384.32,243.519z M211,347.972V164.028L348.958,256L211,347.972z"/>
    </symbol>

    <symbol id="smile01" role="img" aria-labelledby="smile01_title" viewBox="0 0 333.829 333.829">
    	<title id="smile01_title">smile01 icon</title>
        <path d="M166.911,333.826C74.879,333.826,0,258.953,0,166.915S74.879,0.003,166.911,0.003c92.045,0,166.918,74.879,166.918,166.918
		S258.956,333.826,166.911,333.826z M166.911,12.857c-84.95,0-154.058,69.108-154.058,154.064
		c0,84.943,69.108,154.058,154.058,154.058s154.064-69.114,154.064-154.058C320.975,81.965,251.868,12.857,166.911,12.857z
		 M205.672,97.325c-10.656,0-19.293,8.631-19.293,19.293c0,10.649,8.638,19.293,19.293,19.293s19.293-8.644,19.293-19.293
		C224.965,105.956,216.327,97.325,205.672,97.325z M125.336,97.325c-10.656,0-19.293,8.631-19.293,19.293
		c0,10.649,8.638,19.293,19.293,19.293s19.293-8.644,19.293-19.293C144.629,105.956,135.998,97.325,125.336,97.325z M249.817,213.4
		c3.953-3.567,4.255-9.666,0.688-13.618c-3.58-3.94-9.666-4.242-13.618-0.688c-19.133,17.295-43.882,26.813-69.686,26.813
		c-25.887,0-50.701-9.563-69.853-26.948c-3.927-3.58-10.039-3.291-13.612,0.656c-3.586,3.94-3.284,10.045,0.662,13.618
		c22.706,20.611,52.115,31.961,82.81,31.961C197.786,245.181,227.137,233.901,249.817,213.4z"/>
    </symbol>

    <symbol id="smile02" role="img" aria-labelledby="smile02_title" viewBox="0 0 333.842 333.842">
    	<title id="smile02_title">smile02 icon</title>
        <path d="M166.911,333.832C74.879,333.832,0,258.96,0,166.921S74.873,0.01,166.911,0.01c92.045,0,166.931,74.879,166.931,166.918
		S258.956,333.832,166.911,333.832z M166.911,12.863c-84.95,0-154.058,69.108-154.058,154.064
		c0,84.943,69.108,154.058,154.058,154.058c84.956,0,154.077-69.114,154.077-154.058C320.982,81.971,251.868,12.863,166.911,12.863z
		 M154.026,106.181c0-15.971-12.989-28.966-28.966-28.966S96.094,90.21,96.094,106.181c0,5.328,4.319,9.64,9.64,9.64
		c5.321,0,9.64-4.312,9.64-9.64c0-5.341,4.345-9.685,9.685-9.685c5.341,0,9.685,4.345,9.685,9.685c0,5.328,4.319,9.64,9.64,9.64
		S154.026,111.509,154.026,106.181z M237.741,106.181c0-15.971-12.989-28.966-28.966-28.966S179.81,90.21,179.81,106.181
		c0,5.328,4.319,9.64,9.64,9.64c5.321,0,9.64-4.312,9.64-9.64c0-5.341,4.345-9.685,9.685-9.685s9.685,4.345,9.685,9.685
		c0,5.328,4.319,9.64,9.64,9.64S237.741,111.509,237.741,106.181z M166.918,263.908c56.563,0,102.431-45.855,102.431-102.424H64.487
		C64.487,218.053,110.342,263.908,166.918,263.908z"/>
    </symbol>

    <symbol id="smile03" role="img" aria-labelledby="smile03_title" viewBox="0 0 333.842 333.842">
    	<title id="smile03_title">smile03 icon</title>
        <path d="M166.911,0.006C74.879,0.006,0,74.885,0,166.924s74.873,166.911,166.911,166.911c92.045,0,166.931-74.873,166.931-166.911
		S258.956,0.006,166.911,0.006z M166.911,320.975c-84.95,0-154.058-69.114-154.058-154.058c0-84.95,69.108-154.064,154.058-154.064
		c84.956,0,154.077,69.108,154.077,154.064C320.982,251.868,251.868,320.975,166.911,320.975z M276.09,183.904
		c-10.585,51.717-56.64,89.262-109.513,89.262c-52.025,0-96.75-35.296-108.761-85.856c-1.234-5.174,1.967-10.367,7.147-11.6
		c5.199-1.279,10.379,1.973,11.607,7.14c9.949,41.826,46.961,71.036,90.008,71.036c43.754,0,81.865-31.054,90.625-73.844
		c1.073-5.225,6.189-8.573,11.382-7.519C273.796,173.589,277.157,178.685,276.09,183.904z M186.378,116.621
		c0-10.662,8.638-19.293,19.293-19.293s19.293,8.631,19.293,19.293c0,10.649-8.638,19.293-19.293,19.293
		S186.378,127.271,186.378,116.621z M106.043,116.621c0-10.662,8.638-19.293,19.293-19.293s19.293,8.631,19.293,19.293
		c0,10.649-8.638,19.293-19.293,19.293S106.043,127.271,106.043,116.621z"/>
    </symbol>

    <symbol id="check" role="img" aria-labelledby="check_title" viewBox="0 0 512 512">
    	<title id="check_title">check icon</title>
        <path d="M468.907,214.604c-11.423,0-20.682,9.26-20.682,20.682v20.831c-0.031,54.338-21.221,105.412-59.666,143.812
			c-38.417,38.372-89.467,59.5-143.761,59.5c-0.04,0-0.08,0-0.12,0C132.506,459.365,41.3,368.056,41.364,255.883
			c0.031-54.337,21.221-105.411,59.667-143.813c38.417-38.372,89.468-59.5,143.761-59.5c0.04,0,0.08,0,0.12,0
			c28.672,0.016,56.49,5.942,82.68,17.611c10.436,4.65,22.659-0.041,27.309-10.474c4.648-10.433-0.04-22.659-10.474-27.309
			c-31.516-14.043-64.989-21.173-99.492-21.192c-0.052,0-0.092,0-0.144,0c-65.329,0-126.767,25.428-172.993,71.6
			C25.536,129.014,0.038,190.473,0,255.861c-0.037,65.386,25.389,126.874,71.599,173.136c46.21,46.262,107.668,71.76,173.055,71.798
			c0.051,0,0.092,0,0.144,0c65.329,0,126.767-25.427,172.993-71.6c46.262-46.209,71.76-107.668,71.798-173.066v-20.842
			C489.589,223.864,480.33,214.604,468.907,214.604z"/>
		<path d="M505.942,39.803c-8.077-8.076-21.172-8.076-29.249,0L244.794,271.701l-52.609-52.609c-8.076-8.077-21.172-8.077-29.248,0
			c-8.077,8.077-8.077,21.172,0,29.249l67.234,67.234c4.038,4.039,9.332,6.058,14.625,6.058c5.293,0,10.586-2.019,14.625-6.058
			L505.942,69.052C514.019,60.975,514.019,47.88,505.942,39.803z"/>
    </symbol>

    <symbol id="cancel" role="img" aria-labelledby="cancel_title" viewBox="0 0 512 512">
    	<title id="cancel_title">cancel icon</title>
        <path d="M256,0C114.51,0,0,114.497,0,256c0,141.49,114.497,256,256,256c141.49,0,256-114.497,256-256C512,114.51,397.503,0,256,0z
			 M256,477.867c-122.337,0-221.867-99.529-221.867-221.867S133.663,34.133,256,34.133S477.867,133.663,477.867,256
			S378.337,477.867,256,477.867z"/>
		<path d="M280.136,256l79.986-79.987c6.665-6.664,6.665-17.471,0-24.136c-6.664-6.664-17.471-6.664-24.136,0L256,231.864
			l-79.986-79.987c-6.664-6.665-17.469-6.665-24.136,0c-6.665,6.664-6.665,17.471,0,24.136L231.864,256l-79.986,79.987
			c-6.665,6.664-6.665,17.471,0,24.136s17.471,6.665,24.136,0L256,280.136l79.986,79.987c6.663,6.664,17.469,6.666,24.136,0
			c6.665-6.664,6.665-17.471,0-24.136L280.136,256z"/>
    </symbol>

    <symbol id="info" role="img" aria-labelledby="info_title" viewBox="0 0 512 512">
    	<title id="info_title">info icon</title>
        <path d="M256,0C114.51,0,0,114.497,0,256c0,141.49,114.497,256,256,256c141.49,0,256-114.497,256-256C512,114.51,397.503,0,256,0z
			 M256,477.867c-122.337,0-221.867-99.529-221.867-221.867S133.663,34.133,256,34.133S477.867,133.663,477.867,256
			S378.337,477.867,256,477.867z"/>
		<path d="M255.997,209.777c-9.425,0-17.067,7.641-17.067,17.067v143.969c0,9.425,7.641,17.067,17.067,17.067
			s17.067-7.641,17.067-17.067V226.843C273.063,217.417,265.422,209.777,255.997,209.777z"/>
		<path d="M256,124.122c-18.821,0-34.133,15.312-34.133,34.133s15.312,34.133,34.133,34.133s34.133-15.312,34.133-34.133
			S274.821,124.122,256,124.122z"/>
    </symbol>

    <symbol id="help" role="img" aria-labelledby="help_title" viewBox="0 0 612 612">
    	<title id="help_title">help icon</title>
        <path d="M339.296,19.573c-92.187,0-173.778,46.021-223.165,116.25c10.221,6.668,20.184,15.812,29.82,27.567
		c36.844-55.091,96.417-93.743,165.344-102.052l27.997,47.377l27.997-47.378c105.952,12.769,190.17,96.983,202.945,202.934
		l-47.385,28.001l47.386,28.002c-8.54,70.836-49.108,131.821-106.661,168.372c3.666,8.357,5.731,16.902,6.096,25.712
		c0.269,6.438-0.395,12.521-1.73,18.296C553.609,486.622,612,396.153,612,292.277C612,141.904,489.669,19.573,339.296,19.573z
		 M408.887,468.69c-62.865-50.523-80.444-25.688-108.968,2.832c-19.914,19.921-70.308-21.678-113.821-65.193
		c-43.516-43.521-85.107-93.907-65.195-113.824c28.526-28.521,53.354-46.11,2.817-108.958
		c-50.52-62.871-84.198-14.603-111.829,13.03c-31.9,31.889-1.681,150.726,115.769,268.194
		c117.466,117.452,236.302,147.651,268.183,115.774C423.471,552.911,471.753,519.237,408.887,468.69z M217.426,334.954
		c0-55.88,65.42-65.835,65.42-87.641c0-10.581-8.47-15.023-16.304-15.023c-14.397,0-22.434,16.083-22.434,16.083l-27.521-18.415
		c0,0,13.973-32.6,53.346-32.6c24.766,0,51.65,14.185,51.65,46.36c0,47.208-60.968,56.314-62.028,75.789h64.36v31.751H219.123
		C218.062,345.332,217.426,340.043,217.426,334.954z M339.391,292.199l58.434-92.305h45.301v84.047h17.991v30.691h-17.991v36.628
		h-36.628v-36.628h-67.106V292.199L339.391,292.199z M406.497,283.94v-33.871c0-8.258,1.272-16.94,1.272-16.94h-0.424
		c0,0-3.171,9.318-7.41,15.669l-22.857,34.72v0.424L406.497,283.94L406.497,283.94z"/>
    </symbol>


</svg>
