<svg xmlns="http://www.w3.org/2000/svg" xmlns:xlink="http://www.w3.org/1999/xlink">	

	<symbol id="about-what01" role="img" aria-labelledby="about-what01_title" viewBox="0 0 512 512">
        <title id="about-what01_title"></title>
        <path d="m332 257h40c0 63.960938-52.035156 116-116 116s-116-52.039062-116-116h40c0 41.90625 34.09375 76 76 76s76-34.09375 76-76zm154.480469-3.222656-11.230469 3.222656h-3.25v.933594l-61.96875 17.785156-2.449219 11.835938c-3.914062 18.90625-11.363281 36.816406-22.140625 53.230468l-6.753906 10.289063 31.640625 54.960937-4.292969 4.292969-54.960937-31.644531-10.289063 6.753906c-16.414062 10.777344-34.324218 18.226562-53.230468 22.140625l-12.097657 2.507813-16.46875 61.914062h-5.976562l-16.46875-61.914062-12.097657-2.503907c-18.910156-3.914062-36.816406-11.363281-53.234374-22.140625l-10.289063-6.753906-54.960937 31.640625-4.292969-4.292969 31.644531-54.957031-6.753906-10.289063c-10.777344-16.417968-18.226563-34.324218-22.140625-53.234374l-2.449219-11.832032-61.96875-17.789062v-.933594h-3.25l-11.230469-3.222656-.925781 3.222656h-24.59375v31.066406l68.125 19.554688c4.253906 15.488281 10.433594 30.367187 18.460938 44.449218l-34.875 60.574219 47.644531 47.644531 60.574219-34.875c14.003906 7.984376 28.792968 14.136719 44.191406 18.390626l18.140625 68.195312h67.476562l18.140625-68.195312c15.398438-4.253907 30.1875-10.40625 44.191406-18.390626l60.574219 34.875 47.644531-47.644531-34.875-60.574219c8.027344-14.082031 14.207032-28.960937 18.460938-44.449218l68.125-19.554688v-31.066406h-24.59375zm-446.480469-36.777344h-40c0-36.734375 20.183594-68.839844 50.039062-85.824219-6.335937-9.511719-10.039062-20.917969-10.039062-33.175781 0-33.085938 26.914062-60 60-60s60 26.914062 60 60c0 12.703125-3.980469 24.492188-10.742188 34.203125 5.839844 3.480469 11.3125 7.570313 16.332032 12.210937 9.902344-12.3125 22.265625-22.566406 36.335937-30.011718-9.945312-12.089844-15.925781-27.5625-15.925781-44.402344 0-38.597656 31.402344-70 70-70s70 31.402344 70 70c0 16.839844-5.980469 32.3125-15.925781 44.402344 14.070312 7.445312 26.433593 17.699218 36.339843 30.011718 5.019532-4.640624 10.492188-8.730468 16.332032-12.210937-6.765625-9.710937-10.746094-21.5-10.746094-34.203125 0-33.085938 26.914062-60 60-60s60 26.914062 60 60c0 12.257812-3.703125 23.664062-10.039062 33.175781 29.855468 16.984375 50.039062 49.089844 50.039062 85.824219h-40c0-32.347656-26.316406-58.667969-58.667969-58.667969-18.722656 0-35.878906 8.726563-46.847656 23.320313 3.578125 11.148437 5.515625 23.027344 5.515625 35.347656h-40c0-41.90625-34.09375-76-76-76s-76 34.09375-76 76h-40c0-12.320312 1.9375-24.199219 5.515625-35.347656-10.96875-14.59375-28.125-23.316406-46.847656-23.316406-32.351563-.003907-58.667969 26.316406-58.667969 58.664062zm352-119c0 11.027344 8.972656 20 20 20s20-8.972656 20-20-8.972656-20-20-20-20 8.972656-20 20zm-166-28c0 16.542969 13.457031 30 30 30s30-13.457031 30-30-13.457031-30-30-30-30 13.457031-30 30zm-146 28c0 11.027344 8.972656 20 20 20s20-8.972656 20-20-8.972656-20-20-20-20 8.972656-20 20zm0 0"/>
    </symbol>

    <symbol id="about-what02" role="img" aria-labelledby="about-what02_title" viewBox="0 0 512 512">
        <title id="about-what02_title"></title>
        <path d="m45 192h-45v-40h45zm-26.574219 79 17.992188 35.726562 42.441406-21.371093-17.992187-35.726563zm59.433594-215.40625-41.441406-20.871094-17.992188 35.726563 41.441407 20.867187zm415.714844 14.855469-17.992188-35.726563-41.441406 20.871094 17.992187 35.722656zm-236.574219 49.550781c28.121094 0 51 22.878906 51 51h40c0-50.179688-40.820312-91-91-91zm210 32v40h45v-40zm9.132812 221h35.867188v40h-35.867188c-1.894531 7.328125-4.816406 14.242188-8.582031 20.605469l25.394531 25.394531-28.285156 28.285156-25.394531-25.394531c-6.261719 3.703125-13.0625 6.585937-20.265625 8.480469v35.628906h-40v-35.453125c-7.453125-1.890625-14.484375-4.835937-20.941406-8.65625l-25.394532 25.394531-28.285156-28.285156 25.394532-25.394531c-3.765626-6.363281-6.6875-13.277344-8.578126-20.605469h-36.195312v-40h36.195312c1.890626-7.328125 4.8125-14.246094 8.578126-20.605469l-25.394532-25.394531 28.285156-28.285156 25.394532 25.394531c6.457031-3.820313 13.488281-6.765625 20.941406-8.65625v-35.453125h40v35.628906c7.203125 1.894532 14.003906 4.777344 20.265625 8.480469l25.394531-25.394531 28.285156 28.285156-25.394531 25.394531c3.765625 6.363281 6.6875 13.277344 8.582031 20.605469zm-77.472656 60c22.058594 0 40-17.945312 40-40s-17.941406-40-40-40c-8.585937 0-16.542968 2.730469-23.066406 7.355469l-9.578125 9.574219c-4.625 6.523437-7.355469 14.480468-7.355469 23.070312 0 22.054688 17.945313 40 40 40zm-131.300781 39h-30.472656c-11.027344 0-20-8.972656-20-20v-39h29.113281v-40h-31.433594c-6.480468-35.558594-25.5-60.585938-44.007812-84.941406-23.851563-31.386719-46.386719-61.042969-46.558594-116.566406.273438-72.554688 59.382812-131.492188 132-131.492188s131.726562 58.9375 132 131.492188c-.09375 30.171874-6.796875 52.695312-16.71875 72.019531 8.988281-1.644531 18.253906-2.511719 27.71875-2.511719 5.660156 0 11.242188.316406 16.742188.914062 7.339843-19.453124 12.128906-42.183593 12.253906-69.914062l.003906-1.144531h-.003906c-.617188-94.316407-77.535156-170.855469-171.996094-170.855469s-171.378906 76.539062-171.996094 170.855469l-.003906 1.144531h.003906c.316406 68.6875 29.203125 106.699219 54.707032 140.261719 21.328124 28.070312 38.289062 50.242187 38.289062 87.148437v52.589844c0 33.085938 26.804688 60 59.890625 60h38.222656c7.667969 0 15-1.460938 21.746094-4.097656-11.558594-10.371094-21.523437-22.472656-29.5-35.902344zm0 0"/>
    </symbol>

    <symbol id="about-what03" role="img" aria-labelledby="about-what03_title" viewBox="0 0 512 512">
        <title id="about-what03_title"></title>
        <path d="m236.308594 231.382812h59.074218c8.160157 0 14.769532-6.609374 14.769532-14.765624 0-8.160157-6.609375-14.769532-14.769532-14.769532h-24.613281v-14.769531c0-8.15625-6.613281-14.769531-14.769531-14.769531s-14.769531 6.613281-14.769531 14.769531v14.769531h-4.921875c-19.003906 0-34.460938 15.457032-34.460938 34.460938 0 19 15.457032 34.460937 34.460938 34.460937h39.382812c2.714844 0 4.925782 2.207031 4.925782 4.921875s-2.210938 4.925782-4.925782 4.925782h-59.074218c-8.160157 0-14.769532 6.609374-14.769532 14.765624 0 8.160157 6.609375 14.769532 14.769532 14.769532h24.613281v14.769531c0 8.15625 6.613281 14.769531 14.769531 14.769531s14.769531-6.613281 14.769531-14.769531v-14.769531h4.921875c19.003906 0 34.460938-15.457032 34.460938-34.460938 0-19-15.457032-34.460937-34.460938-34.460937h-39.382812c-2.714844 0-4.925782-2.207031-4.925782-4.921875s2.210938-4.925782 4.925782-4.925782zm0 0"/><path d="m437.019531 74.980469c-48.351562-48.351563-112.640625-74.980469-181.019531-74.980469s-132.667969 26.628906-181.019531 74.980469c-48.351563 48.351562-74.980469 112.640625-74.980469 181.019531s26.628906 132.667969 74.980469 181.019531c48.351562 48.351563 112.640625 74.980469 181.019531 74.980469s132.667969-26.628906 181.019531-74.980469c48.351563-48.351562 74.980469-112.640625 74.980469-181.019531s-26.628906-132.667969-74.980469-181.019531zm44.949219 166.25h-74.058594c-2.355468-24.667969-10.613281-48.148438-24.273437-68.921875h82.789062c8.601563 21.550781 13.976563 44.726562 15.542969 68.921875zm-29.90625-98.460938h-76.457031c-8.988281-35.980469-22.164063-67.1875-38.699219-91.363281-2.257812-3.304688-4.570312-6.449219-6.921875-9.445312 51.726563 17.929687 95.003906 54.109374 122.078125 100.808593zm-181.292969-110.699219c28.007813 9.566407 53.855469 45.660157 70.296875 97.21875-4.800781-3.234374-9.78125-6.199218-14.914062-8.859374-17.15625-8.894532-36.0625-14.429688-55.382813-16.3125zm-29.539062 0v72.046876c-19.320313 1.882812-38.226563 7.421874-55.382813 16.3125-5.132812 2.660156-10.113281 5.625-14.914062 8.859374 16.441406-51.558593 42.289062-87.652343 70.296875-97.21875zm-59.214844 9.890626c-2.355469 2.996093-4.664063 6.140624-6.921875 9.445312-16.535156 24.175781-29.710938 55.382812-38.699219 91.363281h-76.457031c27.074219-46.699219 70.351562-82.878906 122.078125-100.808593zm-136.441406 130.347656h82.792969c-13.664063 20.773437-21.921876 44.253906-24.277344 68.921875h-74.058594c1.566406-24.195313 6.941406-47.371094 15.542969-68.921875zm-15.542969 98.460937h74.058594c2.355468 24.667969 10.613281 48.148438 24.277344 68.921875h-82.792969c-8.601563-21.550781-13.976563-44.726562-15.542969-68.921875zm29.90625 98.460938h76.457031c8.988281 35.980469 22.164063 67.1875 38.699219 91.363281 2.257812 3.304688 4.570312 6.449219 6.921875 9.445312-51.726563-17.929687-95.003906-54.109374-122.078125-100.808593zm181.292969 110.699219c-28.007813-9.566407-53.855469-45.660157-70.296875-97.21875 4.800781 3.234374 9.78125 6.199218 14.914062 8.859374 17.15625 8.890626 36.0625 14.429688 55.382813 16.3125zm-84.578125-151.257813c-15.523438-21.195313-23.730469-46.328125-23.730469-72.671875s8.207031-51.476562 23.726563-72.667969c23.140624-31.5625 60.28125-50.410156 99.351562-50.410156s76.210938 18.847656 99.351562 50.410156c15.519532 21.191407 23.726563 46.324219 23.726563 72.667969s-8.207031 51.476562-23.730469 72.671875c-23.136718 31.558594-60.277344 50.40625-99.347656 50.40625s-76.210938-18.847656-99.347656-50.40625zm114.117187 151.257813v-72.046876c19.320313-1.882812 38.226563-7.417968 55.382813-16.3125 5.132812-2.660156 10.113281-5.625 14.914062-8.859374-16.441406 51.558593-42.289062 87.652343-70.296875 97.21875zm59.214844-9.890626c2.355469-2.996093 4.664063-6.140624 6.921875-9.445312 16.535156-24.175781 29.710938-55.382812 38.699219-91.363281h76.457031c-27.074219 46.699219-70.351562 82.878906-122.078125 100.808593zm136.441406-130.347656h-82.792969c13.664063-20.773437 21.921876-44.253906 24.277344-68.921875h74.054688c-1.5625 24.195313-6.9375 47.371094-15.539063 68.921875zm0 0"/>
    </symbol>

    <symbol id="about-what04" role="img" aria-labelledby="about-what04_title" viewBox="-12 -24 536 536">
        <title id="about-what04_title"></title>
        <polygon points="222.25,172.143 214.401,217 255.5,195.821 296.599,217 288.75,172.143 322,140.374 276.05,133.829 255.5,93.016 
			234.95,133.829 189,140.374 			"/>
		<path d="M418.913,39C418.977,32.563,419,26.221,419,20V0H91v20c0,6.221,0.023,12.563,0.087,19H0v20
			c0,51.185,13.454,94.431,41.131,132.212c23.498,32.075,53.051,54.588,79.125,74.45c16.226,12.36,30.689,23.394,40.918,34.548
			c20.079,26.582,44.855,49.663,73.826,68.778V402h-10c-49.626,0-90,40.374-90,90v20h240v-20c0-49.626-40.374-90-90-90h-10v-33.012
			c28.919-19.081,53.66-42.114,73.72-68.636c10.331-11.24,25.087-22.366,41.65-34.838c26.354-19.844,56.224-42.336,79.987-74.374
			C498.379,153.362,512,110.139,512,59V39H418.913z M40.86,79h51.338c1.935,39.112,6.886,80.589,19.317,121.626
			c0.987,3.258,2.028,6.476,3.096,9.674C78.983,180.355,46.493,142.702,40.86,79z M285,442c20.464,0,38.095,12.355,45.825,30
			h-151.65c7.73-17.645,25.361-30,45.825-30H285z M318.929,273.687c-3.831,4.189-7.347,8.507-10.435,13.02l0.082,0.056
			c-14.644,17.261-32.291,33.232-53.576,47.498c-21.285-14.266-38.932-30.236-53.576-47.499l0.082-0.056
			c-3.131-4.576-6.69-8.952-10.567-13.197C140.933,205.571,132.174,120.385,131.122,40h247.756
			C377.825,120.456,369.05,205.719,318.929,273.687z M395.078,211.226c1.18-3.5,2.324-7.028,3.406-10.6
			c12.432-41.037,17.383-82.514,19.317-121.626h53.323C465.334,143.352,431.67,181.106,395.078,211.226z"/>
    </symbol>
    
</svg>