<svg xmlns="http://www.w3.org/2000/svg" xmlns:xlink="http://www.w3.org/1999/xlink">	

	<symbol id="client-form01" role="img" aria-labelledby="client-form01_title" viewBox="0 0 512 512">
        <title id="client-form01_title"></title>
        <path d="M436.919,330.796c-27.867-27.866-61.037-48.496-97.227-60.984c38.761-26.696,64.226-71.374,64.226-121.895
            C403.918,66.356,337.562,0,256.001,0S108.084,66.356,108.084,147.917c0,50.52,25.465,95.198,64.226,121.895
            c-36.19,12.487-69.359,33.116-97.227,60.984c-48.326,48.326-74.94,112.577-74.94,180.919h39.978
            c0-110.863,84.006-202.459,191.703-214.518L193.898,449.89L256.001,512l62.097-62.111l-37.922-152.693
            c107.697,12.059,191.703,103.656,191.703,214.519h39.978C511.857,443.372,485.243,379.121,436.919,330.796z M255.999,455.459
            L238.143,437.6l17.856-71.892l17.854,71.892L255.999,455.459z M256,255.858c-59.519,0-107.94-48.422-107.94-107.939
            c0-59.518,48.421-107.94,107.94-107.94S363.94,88.4,363.94,147.918C363.94,207.436,315.519,255.858,256,255.858z"/>
    </symbol>

    <symbol id="client-form02" role="img" aria-labelledby="client-form02_title" viewBox="0 0 512 512">
        <title id="client-form02_title"></title>
        <path d="M398,123.977h-64.024V76.394c0-42.124-34.991-76.394-78-76.394c-43.009,0-78,34.27-78,76.394v47.583H114v228h284V123.977
            z M217.976,76.394c0-20.068,17.047-36.394,38-36.394s38,16.326,38,36.394v47.583h-76V76.394z M358,311.977H154v-148h204V311.977z
            "/>
        <path d="M236,246.355V272h40v-25.645c6.136-5.493,10-13.471,10-22.355c0-16.568-13.431-30-30-30c-16.569,0-30,13.431-30,30
            C226,232.884,229.864,240.862,236,246.355z"/>
        <path d="M462,312h-24v40h24c5.514,0,10,4.486,10,10v100c0,5.514-4.486,10-10,10H50c-5.514,0-10-4.486-10-10V362
            c0-5.514,4.486-10,10-10h24v-40H50c-27.57,0-50,22.43-50,50v100c0,27.57,22.43,50,50,50h412c27.57,0,50-22.43,50-50V362
            C512,334.43,489.57,312,462,312z"/>
        <circle cx="216" cy="412" r="20"/>
        <circle cx="376" cy="412" r="20"/>
        <circle cx="136" cy="412" r="20"/>
        <circle cx="296" cy="412" r="20"/>
    </symbol>
    
</svg>