<svg xmlns="http://www.w3.org/2000/svg" xmlns:xlink="http://www.w3.org/1999/xlink">	

	<symbol id="contact-form01" role="img" aria-labelledby="contact-form01_title" viewBox="0 0 512 512">
        <title id="contact-form01_title"></title>
        <path d="M436.919,330.796c-27.867-27.866-61.037-48.496-97.227-60.984c38.761-26.696,64.226-71.374,64.226-121.895
            C403.918,66.356,337.562,0,256.001,0S108.084,66.356,108.084,147.917c0,50.52,25.465,95.198,64.226,121.895
            c-36.19,12.487-69.359,33.116-97.227,60.984c-48.326,48.326-74.94,112.577-74.94,180.919h39.978
            c0-110.863,84.006-202.459,191.703-214.518L193.898,449.89L256.001,512l62.097-62.111l-37.922-152.693
            c107.697,12.059,191.703,103.656,191.703,214.519h39.978C511.857,443.372,485.243,379.121,436.919,330.796z M255.999,455.459
            L238.143,437.6l17.856-71.892l17.854,71.892L255.999,455.459z M256,255.858c-59.519,0-107.94-48.422-107.94-107.939
            c0-59.518,48.421-107.94,107.94-107.94S363.94,88.4,363.94,147.918C363.94,207.436,315.519,255.858,256,255.858z"/>
    </symbol>

    <symbol id="contact-form02" role="img" aria-labelledby="contact-form02_title" viewBox="0 0 512 512">
        <title id="contact-form02_title"></title>
        <path d="M436.919,330.796c-27.867-27.866-61.037-48.496-97.227-60.984c38.761-26.696,64.226-71.374,64.226-121.895
            C403.918,66.356,337.562,0,256.001,0S108.084,66.356,108.084,147.917c0,50.52,25.465,95.198,64.226,121.895
            c-36.19,12.487-69.359,33.116-97.227,60.984c-48.326,48.326-74.94,112.577-74.94,180.919h39.978
            c0-110.863,84.006-202.459,191.703-214.518L193.898,449.89L256.001,512l62.097-62.111l-37.922-152.693
            c107.697,12.059,191.703,103.656,191.703,214.519h39.978C511.857,443.372,485.243,379.121,436.919,330.796z M255.999,455.459
            L238.143,437.6l17.856-71.892l17.854,71.892L255.999,455.459z M256,255.858c-59.519,0-107.94-48.422-107.94-107.939
            c0-59.518,48.421-107.94,107.94-107.94S363.94,88.4,363.94,147.918C363.94,207.436,315.519,255.858,256,255.858z"/>
    </symbol>

    <symbol id="contact-form03" role="img" aria-labelledby="contact-form03_title" viewBox="0 0 512 512">
        <title id="contact-form03_title"></title>
        <path d="M256,110.062c-52.412,0-95.053,42.641-95.053,95.053s42.641,95.053,95.053,95.053s95.053-42.641,95.053-95.053
            S308.413,110.062,256,110.062z M256,260.146c-30.344,0-55.031-24.687-55.031-55.031s24.687-55.031,55.031-55.031
            s55.031,24.687,55.031,55.031S286.344,260.146,256,260.146z"/>
        <path d="M256,0C142.899,0,50.885,92.015,50.885,205.115v5.67c0,57.2,32.794,123.856,97.474,198.113
            c46.888,53.832,93.121,91.368,95.065,92.94L256,512l12.576-10.161c1.945-1.572,48.178-39.108,95.065-92.94
            c64.679-74.258,97.474-140.913,97.474-198.113v-5.67C461.115,92.015,369.101,0,256,0z M421.093,210.786
            c0,96.665-124.551,213.68-165.093,249.202C215.447,424.455,90.907,307.444,90.907,210.786v-5.67
            c0-91.032,74.061-165.093,165.093-165.093s165.093,74.061,165.093,165.093V210.786z"/>
    </symbol>

    <symbol id="contact-form04" role="img" aria-labelledby="contact-form04_title" viewBox="0 0 512 512">
        <title id="contact-form04_title"></title>
        <path d="m491.382812 157.050781c-13.207031-30.953125-32.058593-58.722656-56.027343-82.535156-48.414063-48.09375-112.050781-74.515625-179.378907-74.515625-.558593 0-1.128906.00390625-1.6875.00390625-68.503906.44921875-132.703124 27.60156275-180.773437 76.45312475-48.058594 48.84375-74.160156 113.496094-73.5039062 182.054688.6562502 68.128906 27.5507812 131.914062 75.7343752 179.597656 48.152344 47.65625 112.15625 73.894531 180.253906 73.890625h.121094c49.886718-.019531 98.238281-14.410156 139.824218-41.605469l-21.890624-33.476562c-35.066407 22.933593-75.855469 35.0625-117.953126 35.082031-.035156 0-.0625 0-.097656 0-117.972656 0-214.859375-95.925781-215.992187-213.875-.558594-57.851562 21.46875-112.402344 62.015625-153.613281 40.558594-41.21875 94.726562-64.128907 152.523437-64.507813.472657-.003906.941407-.003906 1.417969-.003906 56.6875 0 110.335938 22.304688 151.191406 62.894531 41.816406 41.539063 64.839844 96.605469 64.839844 155.058594v7.546875c0 34.464844-28.039062 62.5-62.5 62.5s-62.5-28.035156-62.5-62.5v-126.5h-40v20.203125c-14.308594-9.597656-31.511719-15.203125-50-15.203125-49.625 0-90 40.375-90 90v44c0 49.625 40.375 90 90 90 30.121094 0 56.828125-14.875 73.175781-37.660156 18.8125 22.972656 47.382813 37.660156 79.324219 37.660156 56.519531 0 102.5-45.980469 102.5-102.5v-7.546875c0-34.894531-6.9375-68.84375-20.617188-100.902344zm-184.382812 120.949219c0 27.570312-22.429688 50-50 50s-50-22.429688-50-50v-44c0-27.570312 22.429688-50 50-50s50 22.429688 50 50zm0 0"/>
    </symbol>

    <symbol id="contact-form05" role="img" aria-labelledby="contact-form05_title" viewBox="0 0 512 512">
        <title id="contact-form05_title"></title>
        <path d="M431.65,272.771l-28.261-28.261c37.622-37.623,37.622-98.84-0.001-136.463
            c-37.624-37.624-98.841-37.623-136.463-0.001l-28.261-28.261c53.206-53.206,139.779-53.206,192.987,0.001
            C484.856,132.991,484.856,219.564,431.65,272.771z M375.857,136.077c-22.397-22.397-58.841-22.398-81.239-0.001l28.261,28.262
            c3.3-3.301,7.69-5.119,12.358-5.119c4.667,0,9.056,1.818,12.357,5.12c3.301,3.3,5.119,7.689,5.119,12.357
            c0,4.668-1.818,9.057-5.119,12.358l28.262,28.261C398.255,194.917,398.254,158.473,375.857,136.077z M445.158,487.072L512,419.998
            L372.935,280.702l-55.77,54.001c-16.066-9.05-46.84-28.686-80.305-62.151c-33.47-33.47-53.329-64.469-62.524-80.688l53.98-54.676
            L92.011,0.066L24.86,66.774c-25.5,25.5-32.108,64.299-16.446,96.547c23.901,49.211,68.002,123.479,142.36,197.838
            s148.627,118.459,197.838,142.36c11.66,5.663,24.174,8.414,36.609,8.414C407.177,511.933,428.879,503.352,445.158,487.072z
             M431.028,472.942h0.01H431.028z M172.056,137.285l-45.985,46.579l5.55,12.462c0.901,2.025,22.712,50.223,76.978,104.489
            c54.301,54.302,102.092,75.658,104.1,76.54l12.295,5.404l47.467-45.962l83.09,83.227l-38.67,38.804
            c-13.462,13.447-33.877,16.96-50.805,8.739c-46.452-22.562-116.608-64.24-187.038-134.67
            C108.606,262.466,66.928,192.31,44.367,145.859c-8.225-16.936-4.707-37.36,8.709-50.775l38.758-38.502L172.056,137.285z"/>
    </symbol>

    <symbol id="contact-form06" role="img" aria-labelledby="contact-form06_title" viewBox="0 0 512 512">
        <title id="contact-form06_title"></title>
        <path d="M289.739,512h-67.479l-18.14-68.196c-15.398-4.252-30.188-10.407-44.192-18.39l-60.574,34.876l-47.646-47.647l34.876-60.573  c-7.983-14.004-14.137-28.794-18.389-44.192L0,289.739v-67.479l68.196-18.14c4.251-15.397,10.406-30.188,18.389-44.192  L51.709,99.355l47.646-47.647l60.575,34.876c14.004-7.983,28.793-14.137,44.191-18.389L222.261,0h67.479l18.14,68.196  c15.398,4.252,30.188,10.406,44.191,18.389l60.575-34.876l47.646,47.647l-34.876,60.574c7.983,14.004,14.138,28.794,18.39,44.192  L512,222.261v67.479l-68.196,18.14c-4.252,15.398-10.406,30.188-18.389,44.192l34.875,60.573l-47.646,47.647l-60.574-34.876  c-14.004,7.983-28.794,14.137-44.192,18.39L289.739,512z M253.012,472h5.977l16.468-61.914l12.098-2.505  c18.907-3.914,36.817-11.363,53.232-22.141l10.289-6.755l54.961,31.645l4.293-4.293l-31.644-54.96l6.755-10.289  c10.777-16.416,18.226-34.326,22.14-53.233l2.505-12.098L472,258.988v-5.977l-61.914-16.468l-2.504-12.098  c-3.913-18.907-11.362-36.816-22.141-53.232l-6.755-10.289l31.645-54.961l-4.293-4.293l-54.961,31.645l-10.289-6.755  c-16.415-10.777-34.325-18.226-53.232-22.14l-12.098-2.504L258.988,40h-5.977l-16.468,61.915l-12.098,2.504  c-18.907,3.914-36.817,11.362-53.232,22.14l-10.289,6.755l-54.961-31.645l-4.293,4.293l31.645,54.961l-6.755,10.289  c-10.778,16.417-18.227,34.326-22.14,53.232l-2.504,12.099L40,253.012v5.977l61.915,16.468l2.504,12.098  c3.914,18.907,11.362,36.817,22.14,53.232l6.755,10.289l-31.644,54.96l4.293,4.293l54.961-31.645l10.289,6.755  c16.416,10.777,34.325,18.227,53.232,22.141l12.098,2.505L253.012,472z M492,274.364h0.01H492z M276.004,301.996  c0-8.612,1.665-10.708,14.734-23.171c2.874-2.74,6.13-5.846,9.658-9.39c13.708-13.771,31.544-35.596,28.2-66.008  c-3.666-33.347-30.636-60.248-64.129-63.964c-20.896-2.317-41.802,4.327-57.339,18.235C191.794,171.423,183,191.063,183,211.58h40  c0-9.29,3.838-17.842,10.807-24.08c7.175-6.423,16.495-9.361,26.25-8.282c15.039,1.668,27.143,13.688,28.78,28.58  c1.149,10.447-3.872,20.441-16.789,33.418c-3.161,3.175-6.085,5.964-8.914,8.662c-14.557,13.882-27.128,25.871-27.128,52.118V303h40  V301.996z M276,333h-40v40h40V333z"/>
    </symbol>

    <symbol id="contact-form07" role="img" aria-labelledby="contact-form07_title" viewBox="0 0 512 512">
        <title id="contact-form07_title"></title>
        <path d="M449.818,456.034c40.825-25.84,62.284-67.344,62.284-120.999c0-31.974-7.657-59.771-22.76-82.621  c-12.291-18.597-29.286-33.621-50.606-44.769c0.898-8.065,1.366-16.375,1.366-24.933c0-31.143-5.972-59.147-17.749-83.239  c-11.246-23.006-27.771-42.489-49.116-57.912C335.605,14.371,282.652,0,220.102,0S104.599,14.371,66.967,41.561  c-21.345,15.423-37.87,34.906-49.116,57.912C6.074,123.564,0.102,151.569,0.102,182.712c0,66.634,27.167,117.828,78.796,149.038  c-6.939,23.465-15.498,37.508-15.566,37.619L44.183,400h36.162c0.12,0.001,0.244,0.001,0.376,0.001  c8.647,0,43.124-1.615,75.84-25.288c8.069,33.645,26.999,60.934,55.634,79.798c30.28,19.947,71.744,30.491,119.907,30.491  c13.664,0,26.074-0.694,37.629-2.113c29.157,27.523,63.681,29.285,74.276,29.114l0.036-0.001l37.762,0.202l-21.112-31.168  C460.219,480.279,454.716,471.315,449.818,456.034z M114.109,352.983c2.708-7.933,5.344-16.973,7.559-26.975l3.394-15.32  l-14.072-6.941c-47.037-23.201-70.887-63.924-70.887-121.035C40.102,58.54,152.877,40,220.102,40s180,18.54,180,142.712  c0,123.803-112.775,142.288-180,142.288c-20.573,0-37.853-1.236-52.823-3.778l-11.136-1.891l-7.369,8.559  C137.801,340.634,125.379,348.336,114.109,352.983z M417.624,428.276l-14.072,6.941l3.394,15.32  c1.001,4.521,2.103,8.778,3.26,12.761c-6.118-3.414-12.346-8.153-18.009-14.731l-7.369-8.559l-11.136,1.891  c-12.294,2.088-25.898,3.103-41.589,3.103c-40.318,0-74.173-8.263-97.902-23.895c-20.36-13.412-33.427-32.453-38.995-56.747  c7.847,0.424,16.118,0.639,24.897,0.639c62.59,0,115.531-14.291,153.104-41.327c21.357-15.369,37.891-34.807,49.141-57.774  c2.722-5.557,5.119-11.332,7.219-17.299c28.242,18.541,42.537,47.53,42.537,86.436C472.102,379.073,453.773,410.444,417.624,428.276  z M199.102,134.994h-40c0-16.977,7.291-33.24,20.003-44.62c12.762-11.424,29.871-16.894,46.928-14.997  c27.541,3.056,49.719,25.183,52.735,52.613c2.754,25.045-11.627,42.708-22.683,53.815c-2.708,2.721-5.19,5.088-7.381,7.177  c-9.6,9.154-9.6,9.516-9.6,13.937v13h-40v-13c0-21.909,11.181-32.571,21.994-42.884c2.112-2.014,4.296-4.097,6.637-6.448  c10.797-10.847,11.757-16.815,11.272-21.225c-0.987-8.975-8.299-16.222-17.386-17.229c-5.855-0.651-11.479,1.143-15.838,5.044  C201.475,124.034,199.102,129.297,199.102,134.994z M199.102,245.002h40v40h-40V245.002z"/>
    </symbol>
    
</svg>