<svg xmlns="http://www.w3.org/2000/svg" xmlns:xlink="http://www.w3.org/1999/xlink">	

	<symbol id="ideation-home01" role="img" aria-labelledby="ideation-home01_title" viewBox="-21 -22 682.66669 682">
        <title id="ideation-home01_title"></title>
        <path d="m640 472.65625-22.90625-17.753906c-2.949219-2.285156-16.722656-12.660156-35.984375-22.445313 3.574219-2.96875 7.011719-6.199219 10.25-9.742187 35.707031-39.007813 43.972656-101.882813 44.308594-104.542969l3.625-28.785156-27.6875.726562c3.390625-6.773437 6.199219-14.042969 8.136719-21.796875 12.882812-51.542968-10.03125-111.355468-11.007813-113.875l-10.449219-26.835937-25.058594 14.1875c-7.148437 4.046875-70.21875 41.09375-83.539062 94.371093-8.433594 33.730469 2.507812 67.105469 12.578125 88.367188-3.429687 2.808594-6.675781 5.835938-9.683594 9.121094-15.136719 16.539062-23.082031 36.730468-27.148437 55.226562-11.222656 39.730469-38.230469 68.515625-80.324219 85.574219-26.140625 10.597656-50.84375 13.546875-61.328125 14.351563-1.359375-.074219-2.726562-.117188-4.097656-.117188-1.308594 0-2.609375.039062-3.902344.101562-24.273438-1.886718-119.238281-14.90625-142.039062-102.914062l-.925782.238281c-4.1875-17.6875-11.976562-36.664062-26.171875-52.351562-2.714843-3.003907-5.628906-5.792969-8.699219-8.394531 10.175782-21.214844 21.515626-55.027344 12.972657-89.203126-13.316407-53.277343-76.390625-90.324218-83.539063-94.371093l-25.054687-14.1875-10.449219 26.835937c-.980469 2.519532-23.890625 62.332032-11.007812 113.875 1.941406 7.753906 4.75 15.023438 8.136718 21.800782l-27.949218-.742188 3.578124 28.761719c.328126 2.65625 8.496094 65.476562 43.769532 104.46875 3.269531 3.617187 6.738281 6.90625 10.347656 9.925781-19.1875 9.765625-32.898438 20.09375-35.84375 22.371094l-22.90625 17.753906 20.980469 19.988281c1.941406 1.84375 47.839843 45.066407 99.785156 53.289063-9.570313 16.546875-14.945313 30.382812-16.140625 33.59375l-10.128906 27.152344 28.363281 5.945312c1.460937.304688 21.296875 4.355469 46.96875 4.355469 20.644531 0 45.070313-2.625 66.734375-11.910157 5.71875-2.453124 11.0625-5.371093 16.050781-8.632812 12.210938 24.726562 37.679688 41.777344 67.070313 41.777344 29.511718 0 55.082031-17.199219 67.230468-42.09375 5.121094 3.382812 10.621094 6.417968 16.523438 8.949218 21.671875 9.292969 46.089844 11.910157 66.738281 11.910157 25.664063 0 45.503907-4.050781 46.964844-4.355469l28.363281-5.945312-10.128906-27.152344c-1.195312-3.210938-6.570312-17.046875-16.140625-33.59375 51.945313-8.222656 97.84375-51.445313 99.785156-53.289063zm-530.316406-105.457031c10.691406 11.816406 15.316406 29.125 17.050781 44-13.765625-3.3125-30.21875-9.703125-41.375-22.027344-10.867187-12.015625-18.523437-29.199219-23.570313-44.722656 17.710938 3.949219 37.230469 10.960937 47.894532 22.75zm419.660156.105469c2.65625-2.898438 5.871094-5.507813 9.476562-7.855469l8.480469-4.546875c.230469-.125.980469-.53125 2.152344-1.214844 9.101563-4.136719 19.335937-7.144531 29.027344-9.261719-4.871094 14.980469-12.460938 32.152344-23.886719 44.636719-11.472656 12.535156-28.441406 18.957031-42.519531 22.242188.324219-2.894532.769531-5.917969 1.355469-9 .367187-1.300782.734374-2.609376 1.078124-3.933594l-.234374-.058594c2.527343-10.9375 7.058593-22.25 15.070312-31.007812zm8.699219-119.054688c3.941406-15.773438 18.566406-31.652344 32.855469-43.78125 3.023437 16.390625 4.515624 35.648438.488281 51.761719-4.164063 16.667969-16.246094 30.445312-27.199219 40.011719-5.75-14.195313-10.117188-32.121094-6.144531-47.992188zm-468.335938-43.78125c14.292969 12.132812 28.917969 28.011719 32.855469 43.78125 3.96875 15.871094-.394531 33.800781-6.132812 47.988281-10.960938-9.578125-23.046876-23.367187-27.210938-40.007812-4.027344-16.113281-2.535156-35.375.488281-51.761719zm64.332031 259.351562c15.84375 2.386719 30.46875 12.875 41.3125 23.339844-1.167968.660156-2.320312 1.335938-3.453124 2.046875-12.34375 5.492188-27.71875 9.871094-42.851563 7.589844-16.253906-2.445313-33.308594-11.054687-47.214844-20 16.40625-8.289063 36.253907-15.375 52.207031-12.976563zm82.882813 95.4375c-15.125 6.484376-34.167969 8.152344-50.71875 7.859376 7.945313-13.054688 18.332031-26.539063 30.148437-34.414063 3.539063-1.679687 6.859376-3.390625 9.914063-5.070313 14.382813-5.253906 31.371094-3.933593 45.371094-.855468-7.65625 12.101562-19.183594 25.828125-34.714844 32.480468zm102.761719 29.113282c-13.746094 0-24.921875-11.175782-24.921875-24.921875 0-12.628907 9.449219-23.0625 21.640625-24.679688 1.117187.066407 2.03125.105469 2.742187.128907v.046874c.113281-.003906.410157-.007812.855469-.019531.445312.011719.742188.015625.855469.019531v-.046874c.605469-.019532 1.363281-.054688 2.265625-.101563 12.113281 1.683594 21.480468 12.082031 21.480468 24.652344 0 13.738281-11.179687 24.921875-24.917968 24.921875zm103.394531-29.113282c-15.542969-6.660156-27.078125-20.402343-34.738281-32.507812 13.457031-3.046875 30.449218-4.613281 45.378906.878906 3.0625 1.683594 6.390625 3.394532 9.933594 5.078125 11.835937 7.886719 22.230468 21.402344 30.179687 34.460938-16.488281.292969-35.519531-1.375-50.753906-7.910157zm87.875-62.460937c-15.128906 2.277344-30.507813-2.097656-42.84375-7.585937-1.136719-.707032-2.289063-1.390626-3.457031-2.046876 10.851562-10.476562 25.46875-20.957031 41.308594-23.34375 16.0625-2.417968 35.875 4.644532 52.304687 12.984376-13.859375 8.929687-30.917969 17.523437-47.3125 19.992187zm-214.945313-112.773437v-130.691407c-18.078124 12.476563-39.972656 19.800781-63.546874 19.800781v-49.84375c34.351562 0 62.300781-27.949218 62.300781-62.300781h49.839843v.214844h1.242188v222.820313zm-147.082031-249.148438-39.683593-30.15625c24.121093-31.742188 55.617187-58.03125 91.078124-76.019531 37.214844-18.878907 77.371094-28.449219 119.363282-28.449219 41.753906 0 83.339844 9.996094 120.261718 28.910156 35.703126 18.28125 67.304688 44.972656 91.390626 77.167969l-39.910157 29.855469c-40.921875-54.710938-103.519531-86.089844-171.742187-86.089844-67.578125 0-129.816406 30.898438-170.757813 84.78125zm0 0"/>
    </symbol>

    <symbol id="ideation-home02" role="img" aria-labelledby="ideation-home02_title" viewBox="0 0 512 512">
        <title id="ideation-home02_title"></title>
        <path d="M512,268.264c0-22.837-11.594-44.148-30.189-57.526c1.457-5.524,2.189-11.06,2.189-16.572
			c0-31.372-20.079-58.134-48.03-68.055c0.085-1.405,0.126-2.829,0.126-4.277c0-35.64-26.029-65.314-60.075-71.013
			c-3.487-11.727-9.869-22.391-18.7-31C344.1,6.933,326.584,0,308,0c-20.429,0-38.883,8.566-52,22.279
			C242.883,8.566,224.429,0,204,0c-18.584,0-36.1,6.933-49.321,19.822c-8.831,8.608-15.212,19.272-18.7,31
			c-0.532,0.089-1.057,0.201-1.585,0.302c-0.421,0.08-0.843,0.153-1.261,0.24c-0.802,0.168-1.596,0.358-2.388,0.552
			c-0.307,0.075-0.618,0.14-0.924,0.22c-1.094,0.284-2.178,0.592-3.252,0.925c-0.209,0.065-0.412,0.141-0.62,0.207
			c-0.861,0.276-1.717,0.562-2.564,0.869c-0.378,0.137-0.749,0.289-1.124,0.432c-0.669,0.256-1.336,0.513-1.995,0.788
			c-0.414,0.173-0.822,0.357-1.232,0.537c-0.611,0.269-1.22,0.54-1.822,0.825c-0.42,0.199-0.836,0.405-1.251,0.612
			c-0.581,0.289-1.159,0.584-1.731,0.888c-0.415,0.22-0.826,0.445-1.236,0.673c-0.565,0.314-1.123,0.637-1.678,0.966
			c-0.399,0.237-0.798,0.473-1.192,0.717c-0.56,0.347-1.112,0.705-1.662,1.067c-0.373,0.245-0.747,0.487-1.115,0.738
			c-0.575,0.394-1.14,0.802-1.703,1.212c-0.327,0.238-0.659,0.47-0.982,0.713c-0.666,0.502-1.319,1.022-1.967,1.546
			c-0.206,0.166-0.418,0.325-0.621,0.493c-0.845,0.699-1.673,1.417-2.484,2.153c-0.215,0.195-0.421,0.4-0.633,0.598
			c-0.592,0.549-1.18,1.102-1.753,1.671c-0.291,0.289-0.571,0.588-0.858,0.882c-0.48,0.493-0.959,0.987-1.425,1.494
			c-0.304,0.33-0.599,0.668-0.896,1.003c-0.432,0.488-0.861,0.978-1.281,1.478c-0.298,0.356-0.591,0.716-0.882,1.077
			c-0.402,0.498-0.798,1.001-1.187,1.51c-0.284,0.371-0.564,0.745-0.841,1.122c-0.381,0.519-0.753,1.044-1.12,1.574
			c-0.263,0.379-0.525,0.757-0.781,1.14c-0.367,0.552-0.722,1.112-1.075,1.675c-0.234,0.374-0.472,0.745-0.7,1.124
			c-0.368,0.612-0.72,1.235-1.07,1.859c-0.191,0.341-0.39,0.677-0.576,1.021c-0.441,0.816-0.861,1.643-1.271,2.477
			c-0.079,0.161-0.166,0.318-0.244,0.479c-0.481,0.998-0.937,2.009-1.373,3.032c-0.132,0.31-0.25,0.626-0.377,0.938
			c-0.294,0.719-0.586,1.44-0.857,2.171c-0.149,0.402-0.285,0.81-0.428,1.215c-0.229,0.653-0.456,1.306-0.667,1.967
			c-0.14,0.44-0.27,0.884-0.402,1.327c-0.19,0.639-0.375,1.279-0.548,1.925c-0.123,0.46-0.239,0.923-0.353,1.386
			c-0.158,0.643-0.308,1.288-0.448,1.938c-0.102,0.47-0.2,0.94-0.293,1.413c-0.129,0.659-0.245,1.322-0.356,1.987
			c-0.078,0.468-0.157,0.936-0.226,1.407c-0.101,0.694-0.185,1.393-0.267,2.093c-0.052,0.448-0.11,0.895-0.154,1.345
			c-0.075,0.775-0.128,1.556-0.178,2.338c-0.025,0.382-0.06,0.761-0.078,1.145c-0.057,1.168-0.089,2.342-0.089,3.524
			c0,1.131,0.034,2.258,0.086,3.382c0.008,0.173,0.014,0.347,0.024,0.52c0.009,0.176,0.013,0.354,0.024,0.53
			C48.079,136.16,28,162.862,28,194.167c0,5.512,0.733,11.048,2.189,16.572C11.594,224.116,0,245.426,0,268.264
			c0,17.098,6.233,33.342,17.117,46.13C6.23,327.083,0,343.333,0,360.573c0,35.194,25.385,64.572,58.804,70.788
			c5.246,34.574,35.169,61.152,71.185,61.152c7.09,0,14.083-1.029,20.768-3.027C164.098,504.297,183.264,512,204,512
			c20.429,0,38.883-8.566,52-22.279C269.117,503.434,287.571,512,308,512c20.736,0,39.902-7.703,53.244-22.514
			c6.685,1.999,13.678,3.027,20.768,3.027c35.865,0,65.689-26.357,71.118-60.72C486.583,425.568,512,396,512,360.573
			c0-17.24-6.23-33.49-17.117-46.179C505.767,301.605,512,285.361,512,268.264z M454.775,332.745
			c10.786,5.607,17.225,16.01,17.225,27.828c0,17.88-14.355,32.427-32,32.427c-17.645,0-32-14.355-32-32h-40
			c0,30.218,18.721,56.13,45.166,66.793c-3.305,14.148-16.014,24.721-31.155,24.721c-5.932,0-11.673-1.588-16.604-4.592
			L360.614,445h-18.876l-5.562,10.929C330.735,466.618,320.203,472,308,472c-17.645,0-32-13.355-32-31v-38.387l-44.393,54.54
			c-1.666,2.837-3.751,5.398-6.178,7.591l-0.749,0.92c-0.008-0.012-0.095-0.034-0.238-0.065C218.894,470.217,211.767,472,204,472
			c-12.203,0-22.735-5.382-28.175-16.071L170.263,445h-18.876l-4.794,2.921c-4.927,3.002-10.664,4.59-16.592,4.592v-0.461
			c-17.606,0-31.933-14.292-31.997-31.883c0.018-1.594,0.147-3.218,0.41-4.838l0.373-2.301
			c3.21-14.277,15.982-24.979,31.214-24.979v-40c-29.573,0-55.029,17.927-66.097,43.481C50.166,387.938,40,375.421,40,360.573
			c0-11.817,6.439-22.221,17.226-27.828L68,327.144v-25.051l-10.522-5.663C46.697,290.628,40,279.835,40,268.264
			c0-14.79,11.012-25.473,21.924-29.5L75,233.938v-20.102l-2.5-4.519c-3.028-5.473-4.5-10.429-4.5-15.151
			c0-13.985,9.021-25.894,21.546-30.237c13.091,18.097,34.365,29.904,58.358,29.904v-40c-17.645,0-32-14.355-32-32s14.355-32,32-32
			c0.729,0,1.569,0.039,2.569,0.117l9.559,0.754l12.546-13.322l0.393-7.309C173.898,52.834,187.238,40,204,40
			c17.645,0,32,14.189,32,31.834v39.051l46.302-58.096C288.139,44.934,297.484,40,308,40c16.762,0,30.102,12.834,31.029,30.074
			l0.393,7.309l12.546,13.323l9.56-0.754c1-0.079,1.84-0.117,2.569-0.117c17.645,0,32,14.355,32,32
			c0,3.979-0.678,7.052-2.501,11.339l-1.596,3.75V162h20c17.645,0,32,14.43,32,32.166c0,4.722-1.472,9.678-4.5,15.152l-2.5,4.519
			v20.101l13.076,4.826c10.913,4.027,21.924,14.711,21.924,29.5c0,11.572-6.697,22.365-17.478,28.166L444,302.092v25.051
			L454.775,332.745z"/>
		<path d="M308.967,77.745L117.485,318h115l-35.484,124.195L390.067,205H275.032L308.967,77.745z M305.933,245l-26.86,33h-78.558
			l26.301-33H305.933z"/>
	</symbol>

    <symbol id="ideation-home03" role="img" aria-labelledby="ideation-home03_title" viewBox="0 0 512 512">
        <title id="ideation-home03_title"></title>
        <path d="m45 193h-45v-40h45zm-26.574219 79.003906 17.996094 35.722656 42.4375-21.375-17.996094-35.722656zm59.433594-215.410156-41.4375-20.871094-17.996094 35.722656 41.4375 20.875zm355.28125 229.757812 42.4375 21.375 17.996094-35.722656-42.4375-21.375zm60.433594-214.90625-17.996094-35.722656-41.4375 20.871094 17.996094 35.726562zm-26.574219 81.554688v40h45v-40zm-182-76-111 144h73.949219l-19.949219 94 111-134h-75.554688zm142.996094 93.855469h.003906l-.003906 1.144531c-.3125 66.597656-27.902344 105.011719-52.261719 138.929688-21.796875 30.351562-40.625 56.5625-40.625 101.070312v40c0 33.085938-26.914063 60-60 60h-38.222656c-33.082031 0-60-26.914062-60-60v-40c0-43.914062-18.757813-70.128906-40.476563-100.480469-24.429687-34.132812-52.09375-72.800781-52.40625-139.519531h-.003906l.003906-1.144531c.617188-94.316407 77.535156-170.855469 171.996094-170.855469s171.378906 76.539062 171.996094 170.855469zm-132.886719 281.144531v-39h-78.222656v39c0 11.027344 8.972656 20 20 20h38.222656c11.03125 0 20-8.972656 20-20zm92.890625-280.511719c-.273438-72.550781-59.382812-131.488281-132-131.488281s-131.726562 58.9375-132 131.488281c.167969 54.191407 21.917969 84.582031 44.9375 116.753907 17.621094 24.621093 35.6875 49.875 43.6875 84.757812h86.675781c7.988281-35.34375 26.195313-60.6875 43.945313-85.402344 22.925781-31.921875 44.582031-62.082031 44.753906-116.109375zm0 0"/>
    </symbol>

    <symbol id="ideation-home04" role="img" aria-labelledby="ideation-home04_title" viewBox="0 0 512 512">
        <title id="ideation-home04_title"></title>
        <rect x="134.869" y="423.638" transform="matrix(-0.7071 -0.7071 0.7071 -0.7071 -65.4241 905.6945)" width="39.98" height="85.517"/>
		<rect x="2.655" y="336.961" transform="matrix(0.7071 -0.7071 0.7071 0.7071 -239.1015 136.6608)" width="85.517" height="39.98"/>
		<rect x="-4.59" y="428.915" transform="matrix(0.7071 -0.7071 0.7071 0.7071 -298.9997 175.9617)" width="134.99" height="39.98"/>
		<circle cx="251.061" cy="259.75" r="19.99"/>
		<path d="M490.117,0.896c-1.542,0.063-38.316,1.715-87.065,15.28c-64.917,18.063-120.634,49.015-161.129,89.508
			c-26.16,26.16-51.087,58.345-71.994,88.294l-19.142-19.142c-14.74-14.741-34.337-22.92-55.183-23.032
			c-0.145,0-0.289-0.001-0.434-0.001c-20.656,0-40.147,7.938-54.934,22.38L0.187,212.77v37.984h22.765
			c21.227,0,41.181,8.27,56.182,23.282l158.798,159.012c15.016,15.003,23.286,34.958,23.286,56.186v22.765h37.984l38.587-40.051
			c14.544-14.89,22.491-34.55,22.379-55.367c-0.112-20.845-8.291-40.442-23.031-55.182l-19.27-19.27
			c29.893-21.015,62.064-46.047,88.26-72.243c40.494-40.495,71.445-96.212,89.508-161.128
			c13.564-48.749,15.216-85.523,15.28-87.065L511.812,0L490.117,0.896z M125.172,263.561l-17.754-17.778
			c-14.716-14.729-32.599-25.141-52.115-30.598l12.726-12.261l0.112-0.109c15.07-14.75,39.464-14.618,54.374,0.292l24.735,24.735
			C138.441,241.536,130.955,253.808,125.172,263.561z M309.157,444.045l-12.37,12.839c-5.456-19.514-15.864-37.394-30.583-52.1
			l-17.654-17.678c9.692-5.809,21.912-13.335,35.558-22.19l24.757,24.755C323.777,404.581,323.908,428.973,309.157,444.045z
			 M377.855,241.617c-50.579,50.579-128.001,98.335-158.483,116.27l-64.978-65.065c17.767-30.56,65.168-108.235,115.799-158.867
			c28.245-28.245,61.559-47.779,92.438-61.201l76.423,76.423C425.634,180.056,406.1,213.372,377.855,241.617z M456.835,99.054
			c-0.799,2.844-1.662,5.78-2.58,8.784l-50.282-50.282c3.003-0.918,5.94-1.78,8.784-2.579c22.104-6.211,41.661-9.735,55.789-11.711
			C466.569,57.395,463.045,76.95,456.835,99.054z"/>
		<circle cx="306.034" cy="205.776" r="19.99"/>
		<circle cx="362.006" cy="150.805" r="19.99"/>
    </symbol>
    
</svg>