<svg xmlns="http://www.w3.org/2000/svg" xmlns:xlink="http://www.w3.org/1999/xlink">

	<symbol id="header-loupe" role="img" aria-labelledby="header-loupe_title" viewBox="0 0 512 512">
        <title id="header-loupe_title"></title>
        <path d="M216.8,41.4c96.7,0,175.4,78.7,175.4,175.4c0,96.7-78.7,175.4-175.4,175.4c-96.7,0-175.4-78.7-175.4-175.4
				C41.4,120.1,120.1,41.4,216.8,41.4z"/>
		<path style="fill:#000;" d="M370.1,63.5c40.9,41,63.5,95.4,63.5,153.3S411,329.1,370.1,370.1c-41,40.9-95.4,63.5-153.3,63.5S104.4,411,63.5,370.1
				C22.5,329.1,0,274.7,0,216.8S22.5,104.4,63.5,63.5C104.4,22.5,158.9,0,216.8,0C274.7,0,329.1,22.5,370.1,63.5z M392.2,216.8
				c0-96.7-78.7-175.4-175.4-175.4c-96.7,0-175.4,78.7-175.4,175.4c0,96.7,78.7,175.4,175.4,175.4
				C313.5,392.2,392.2,313.5,392.2,216.8z"/>
		<path style="fill:#000;" d="M505.9,476.7l-136-136c-8.1-8.1-21.2-8.1-29.2,0c-8.1,8.1-8.1,21.2,0,29.2l136,136c4,4,9.3,6.1,14.6,6.1s10.6-2,14.6-6.1
			C514,497.9,514,484.8,505.9,476.7z"/>
    </symbol>

    <symbol id="header-phone" role="img" aria-labelledby="header-phone_title" viewBox="0 0 512 512">
        <title id="header-phone_title"></title>
        <path d="M421.216,195.504c-5.092-26.101-17.723-49.836-36.526-68.64c-18.804-18.803-42.54-31.434-68.641-36.527
			c-11.21-2.189-22.073,5.128-24.261,16.339c-2.187,11.212,5.128,22.073,16.339,24.26c36.847,7.188,65.3,35.642,72.489,72.489
			c1.927,9.874,10.581,16.726,20.278,16.726c1.313,0,2.645-0.125,3.984-0.387C416.088,217.577,423.403,206.715,421.216,195.504z"/>
		<path d="M511.422,196.929c-5.629-50.096-28.373-97.304-64.042-132.927C411.712,28.378,364.475,5.694,314.371,0.128
			c-11.355-1.261-21.578,6.92-22.839,18.272c-1.261,11.353,6.919,21.578,18.272,22.84c84.961,9.438,150.966,75.36,160.512,160.31
			c1.188,10.566,10.139,18.374,20.527,18.374c0.771,0,1.552-0.043,2.336-0.131C504.53,218.516,512.698,208.281,511.422,196.929z"/>
		<path d="M432.59,312.566c-0.062-0.008-0.124-0.017-0.186-0.025c-20.013-2.639-39.751-7.557-58.619-14.596
			c-23.91-8.99-51.103-3.191-69.27,14.772c-0.028,0.028-0.056,0.055-0.083,0.083l-17.148,17.148
			c-42.633-26.924-78.756-63.047-105.679-105.679l17.149-17.149c0.027-0.028,0.054-0.055,0.082-0.083
			c17.964-18.166,23.762-45.356,14.79-69.223c-7.057-18.914-11.974-38.653-14.614-58.666c-0.007-0.063-0.017-0.127-0.026-0.19
			c-4.591-32.478-32.782-56.734-65.548-56.467H66.053c-1.943,0.002-3.912,0.091-5.853,0.267
			C24.143,26.016-2.541,58.001,0.718,94.058c0.01,0.108,0.02,0.215,0.032,0.323c7.684,72.354,32.649,142.88,72.197,203.955
			c35.892,56.461,84.701,105.269,141.162,141.164c60.792,39.406,130.99,64.369,203.013,72.196c0.127,0.015,0.254,0.027,0.38,0.038
			c1.961,0.176,3.949,0.266,5.921,0.266c0.083,0,0.165,0,0.247,0.001c36.204-0.148,65.538-29.722,65.391-65.841v-67.233
			C489.746,345.714,465.515,317.211,432.59,312.566z M447.698,378.695v67.548c0.055,13.396-10.8,24.338-24.19,24.393
			c-0.715-0.004-1.425-0.027-2.135-0.086c-65.578-7.161-129.488-29.914-184.837-65.808c-0.053-0.035-0.107-0.069-0.161-0.103
			c-51.429-32.68-95.885-77.137-128.565-128.565c-0.032-0.051-0.064-0.101-0.097-0.153C71.683,220.306,48.928,156.086,41.902,90.193
			C40.779,76.91,50.63,65.155,63.923,63.954c0.717-0.064,1.443-0.098,2.145-0.098h67.463c0.146-0.001,0.294-0.003,0.443-0.002
			c12.021,0,22.322,8.905,24.044,20.819c3.05,23.063,8.721,45.806,16.871,67.649c3.319,8.832,1.189,18.869-5.427,25.591
			l-28.517,28.517c-6.583,6.582-7.956,16.753-3.354,24.847c33.837,59.508,83.177,108.847,142.685,142.685
			c8.094,4.6,18.264,3.23,24.848-3.355l28.512-28.512c6.72-6.621,16.765-8.752,25.642-5.415
			c21.799,8.134,44.547,13.805,67.61,16.855c12.18,1.757,21.122,12.339,20.816,24.647
			C447.7,378.353,447.698,378.524,447.698,378.695z"/>
    </symbol>

    <symbol id="header-mail" role="img" aria-labelledby="header-mail_title" viewBox="0 0 512 512">
        <title id="header-mail_title"></title>
        <path d="M256,141.176c-63.306,0-114.809,51.503-114.809,114.809S192.694,370.795,256,370.795s114.809-51.503,114.809-114.809
			S319.306,141.176,256,141.176z M256,329.43c-40.498,0-73.445-32.947-73.445-73.445c0-40.498,32.947-73.445,73.445-73.445
			c40.499,0,73.445,32.947,73.445,73.445C329.445,296.483,296.499,329.43,256,329.43z"/>
		<path d="M437.008,74.97C388.656,26.623,324.375,0,256,0c-0.005,0-0.013,0-0.017,0C187.603,0.004,123.318,26.637,74.97,74.992
			C26.62,123.347-0.005,187.637,0,256.017c0.004,68.379,26.637,132.666,74.992,181.014C123.344,485.377,187.625,512.001,256,512
			c0.004,0,0.012,0,0.017,0c55.945-0.004,111.216-18.738,155.631-52.752c9.07-6.945,10.792-19.927,3.846-28.995
			c-6.945-9.069-19.926-10.794-28.995-3.846c-37.24,28.518-83.58,44.224-130.486,44.228c-0.006,0-0.006,0-0.014,0
			c-57.324,0-111.224-22.324-151.761-62.856c-40.542-40.536-62.871-94.435-62.875-151.766
			C41.357,137.663,137.636,41.372,255.986,41.364c0.007,0,0.006,0,0.014,0c118.34,0,214.628,96.279,214.636,214.622v23.532
			c0,27.523-22.39,49.913-49.913,49.913c-27.523,0-49.913-22.391-49.913-49.913v-23.532c0-11.422-9.259-20.682-20.682-20.682
			s-20.682,9.26-20.682,20.682v23.532c0,50.33,40.947,91.278,91.278,91.278S512,329.848,512,279.518v-23.534
			C511.995,187.604,485.362,123.318,437.008,74.97z"/>
	</symbol>

    <symbol id="header-facebook" role="img" aria-labelledby="header-facebook_title" viewBox="0 0 512 512">
        <title id="header-facebook_title"></title>
        <path d="M314.829,135.492h70.595c11.423,0,20.682-9.26,20.682-20.682V20.682C406.107,9.26,396.848,0,385.425,0h-70.595
			c-76.282,0-138.341,62.06-138.341,138.341v49.913h-49.913c-11.422,0-20.682,9.26-20.682,20.682v94.127
			c0,11.423,9.26,20.682,20.682,20.682h49.913v167.572c0,11.423,9.26,20.682,20.682,20.682h94.127
			c11.423,0,20.682-9.259,20.682-20.682V323.746h49.913c9.49,0,17.763-6.458,20.065-15.666l23.532-94.127
			c1.544-6.179,0.156-12.725-3.763-17.744c-3.919-5.02-9.932-7.954-16.301-7.954H311.98v-49.913
			C311.98,136.77,313.258,135.492,314.829,135.492z M291.298,229.619h67.637l-13.191,52.763h-54.447
			c-11.423,0-20.682,9.259-20.682,20.682v167.572h-52.763V303.064c0-11.423-9.26-20.682-20.682-20.682h-49.913v-52.763h49.913
			c11.422,0,20.682-9.26,20.682-20.682v-70.595c0-53.473,43.503-96.977,96.977-96.977h49.913v52.763h-49.913
			c-24.38,0-44.214,19.835-44.214,44.214v70.595C270.615,220.359,279.875,229.619,291.298,229.619z"/>
    </symbol>

	<symbol id="header-linkedin" role="img" aria-labelledby="header-linkedin_title" viewBox="0 0 512 512">
        <title id="header-linkedin_title"></title>
        <path d="M0.5,513V152.7h141.3V513H0.5z M100.5,471.7V194H41.8v277.7H100.5z"/>
		<path d="M373.4,513l0.1-160.1c0.5-22.8-8.4-41.5-23.9-49.9c-5.1-2.8-10.6-4.2-16.3-4.2c-4.5,0-9,0.9-13.5,2.6L318.6,513H174.1
			V152.7h144.6v11.5c16-5.5,32.3-8.3,48.6-8.3c25,0,49,6.4,71.2,19.1c44.6,25.5,73.5,72.8,73.5,120.5V513H373.4z M470.7,471.7V295.6
			c0-33.1-20.7-66.3-52.7-84.7c-15.6-8.9-33.1-13.7-50.7-13.7h-0.3c-19.7,0-39.4,5.7-58.6,17l-31.1,18.3V194h-62.1v277.7h62.2
			l1-193.7l9.1-6.1c14-9.4,29.8-14.4,45.6-14.4c12.7,0,24.8,3.1,36.1,9.3c14,7.7,25.6,19.7,33.6,34.6c8.1,15.2,12.1,33.2,11.7,52.1
			l0,118.2H470.7z"/>
		<path d="M70.9,142.9C31.8,142.9,0,111.1,0,72S31.8,1,70.9,1c39.1,0,70.9,31.8,70.9,71S110,142.9,70.9,142.9z M70.9,42.3
			c-16.3,0-29.6,13.3-29.6,29.7c0,16.4,13.3,29.7,29.6,29.7c16.3,0,29.6-13.3,29.6-29.7C100.5,55.6,87.2,42.3,70.9,42.3z"/>
    </symbol>

    <symbol id="header-instagram" role="img" aria-labelledby="header-instagram_title" viewBox="0 0 512 512">
        <title id="header-instagram_title"></title>
        <path d="M139.5,512C63.1,512,1,449.9,1,373.5V139.5C1,63.1,63.1,1,139.5,1h233.9C449.9,1,512,63.1,512,139.5v233.9
			c0,76.4-62.1,138.5-138.5,138.5H139.5z M139.5,44.1c-52.6,0-95.4,42.8-95.4,95.4v233.9c0,52.6,42.8,95.4,95.4,95.4h233.9
			c52.6,0,95.4-42.8,95.4-95.4V139.5c0-52.6-42.8-95.4-95.4-95.4H139.5z"/>
		<path d="M257.3,370.6c-24.7,0-48.3-7.8-68.3-22.7c-24.7-18.3-40.8-45.2-45.3-75.6c-4.5-30.4,3.1-60.8,21.4-85.5
			c18.3-24.7,45.2-40.8,75.6-45.3c5.6-0.8,11.3-1.2,16.9-1.2c5.6,0,11.3,0.4,16.9,1.2c24.6,3.6,46.9,14.9,64.5,32.5
			c17.6,17.6,28.8,39.9,32.5,64.5c4.5,30.4-3.1,60.8-21.4,85.5c-18.3,24.7-45.2,40.8-75.6,45.3C268.7,370.2,263,370.6,257.3,370.6
			z M257.5,183.5c-3.5,0-7.1,0.3-10.6,0.8c-19,2.8-35.8,12.9-47.3,28.3c-11.5,15.4-16.2,34.4-13.4,53.5
			c2.8,19,12.9,35.8,28.3,47.3c12.5,9.3,27.3,14.2,42.7,14.2c3.6,0,7.2-0.3,10.7-0.8c19-2.8,35.8-12.9,47.3-28.4
			c11.5-15.5,16.2-34.4,13.4-53.4c-4.7-31.6-29.1-56-60.7-60.7C264.6,183.7,261,183.5,257.5,183.5z"/>
		<path d="M385.2,149.4c-5.7,0-11.2-2.3-15.2-6.3c-4-4-6.3-9.6-6.3-15.2c0-5.7,2.3-11.2,6.3-15.2c4-4,9.6-6.3,15.2-6.3
			s11.2,2.3,15.2,6.3c4,4,6.3,9.6,6.3,15.2c0,5.7-2.3,11.2-6.3,15.2C396.4,147.1,390.8,149.4,385.2,149.4z"/>
    </symbol>

	<symbol id="header-cart" role="img" aria-labelledby="header-cart_title" viewBox="0 0 512 512">
        <title id="header-cart_title"></title>
        <path d="M472,430.3h0.1c-0.1,0.6-0.1,1.1-0.1,1.7c0,22.1-17.9,40-40,40H80c-22.1,0-40-17.9-40-40V172h106v75c0,11,9,20,20,20
			s20-9,20-20v-75h60h10h70v75c0,11,9,20,20,20s20-9,20-20v-75h106v150.3v9.7V430.3z"/>
		<path style="fill:#000;" d="M512,152v180c0,0.5-0.1,1-0.1,1.5v96.8c0.1,0.6,0.1,1.1,0.1,1.7c0,44.1-35.9,80-80,80H80c-44.1,0-80-35.9-80-80V152
			c0-11,9-20,20-20h126v-22C146,49.3,195.3,0,256,0s110,49.3,110,110v22h126C503,132,512,141,512,152z M472.1,430.3H472V332v-9.7
			V172H366v75c0,11-9,20-20,20s-20-9-20-20v-75h-70h-10h-60v75c0,11-9,20-20,20s-20-9-20-20v-75H40v260c0,22.1,17.9,40,40,40h352
			c22.1,0,40-17.9,40-40C472,431.4,472,430.9,472.1,430.3z M326,132v-22c0-38.6-31.4-70-70-70s-70,31.4-70,70v22h60h10H326z"/>
    </symbol>

    <symbol id="header-menu06" role="img" aria-labelledby="header-menu06_title" viewBox="0 0 330 330">
        <title id="header-menu06_title"></title>
        <path d="M165,0C74.019,0,0,74.02,0,165.001C0,255.982,74.019,330,165,330s165-74.018,165-164.999C330,74.02,255.981,0,165,0z
			 M165,300c-74.44,0-135-60.56-135-134.999C30,90.562,90.56,30,165,30s135,60.562,135,135.001C300,239.44,239.439,300,165,300z"/>
		<path d="M164.998,70c-11.026,0-19.996,8.976-19.996,20.009c0,11.023,8.97,19.991,19.996,19.991
			c11.026,0,19.996-8.968,19.996-19.991C184.994,78.976,176.024,70,164.998,70z"/>
		<path d="M165,140c-8.284,0-15,6.716-15,15v90c0,8.284,6.716,15,15,15c8.284,0,15-6.716,15-15v-90C180,146.716,173.284,140,165,140z
			"/>
    </symbol>    

    <symbol id="heart" role="img" aria-labelledby="heart_title" viewBox="0 0 378.9 378.9">
        <title id="heart_title"></title>
        <path d="M325.1,77.5c28.4,28.4,28.4,74.5,0,102.9L189.5,316.1L53.8,180.4c-28.4-28.4-28.4-74.5,0-102.9
			c13.7-13.7,32-21.3,51.5-21.3s37.7,7.5,51.4,21.3L178,98.8c6.1,6.1,16.9,6.1,23,0l21.3-21.3c13.7-13.7,32-21.3,51.4-21.3
			C293.1,56.2,311.4,63.8,325.1,77.5z"/>
		<path style="fill:#000;" d="M348.1,54.5c41.1,41.1,41.1,107.9,0,148.9L201.1,350.5c-3.2,3.2-7.3,4.8-11.5,4.8c-1.1,0-2.1-0.1-3.2-0.3
			c-3.1-0.6-6.1-2.1-8.5-4.5L30.8,203.4c-41.1-41-41.1-107.8,0-148.9c19.9-19.9,46.3-30.8,74.4-30.8s54.6,10.9,74.4,30.8l9.8,9.8
			l9.8-9.8c19.9-19.9,46.3-30.8,74.4-30.8C301.8,23.7,328.3,34.6,348.1,54.5z M325.1,180.4c28.4-28.4,28.4-74.5,0-102.9
			c-13.7-13.7-32-21.3-51.4-21.3c-19.4,0-37.7,7.5-51.4,21.3L201,98.8c-6.1,6.1-16.9,6.1-23,0l-21.3-21.3
			c-13.7-13.7-32-21.3-51.4-21.3s-37.7,7.5-51.5,21.3c-28.4,28.4-28.4,74.5,0,102.9l135.7,135.7L325.1,180.4z"/>
    </symbol>

    <symbol id="button-arrow" role="img" aria-labelledby="button-arrow_title" viewBox="0 0 612 612">
        <title id="button-arrow_title"></title>
        <path d="M277.58,179.679l-0.057,0.077c-5.125-4.705-11.857-7.631-19.335-7.631c-15.835,0-28.688,12.852-28.688,28.688
				c0,8.377,3.634,15.835,9.352,21.076l-0.057,0.077L330.48,306l-91.686,84.055l0.057,0.076c-5.718,5.221-9.352,12.68-9.352,21.057
				c0,15.836,12.852,28.688,28.688,28.688c7.478,0,14.21-2.926,19.335-7.611l0.057,0.076l114.75-105.188
				c5.91-5.451,9.295-13.101,9.295-21.152s-3.385-15.702-9.295-21.152L277.58,179.679z M306,0C137.012,0,0,137.012,0,306
				s137.012,306,306,306s306-137.012,306-306S474.988,0,306,0z M306,554.625C168.912,554.625,57.375,443.088,57.375,306
				S168.912,57.375,306,57.375S554.625,168.912,554.625,306S443.088,554.625,306,554.625z"/>
    </symbol>

    <symbol id="about01" role="img" aria-labelledby="about01_title" viewBox="0 0 512 512">
        <title id="about01_title"></title>
		<path fill="#042e7c" d="M222.717,366.95c-5.752,0-11.078-3.24-13.692-8.463l-41.575-83.069l-23.142,35.614
			c-2.826,4.347-7.659,6.971-12.844,6.971H15.318C6.858,318.002,0,311.144,0,302.684s6.858-15.318,15.318-15.318h107.833
			l33.184-51.067c2.993-4.604,8.232-7.242,13.703-6.948c5.484,0.308,10.381,3.528,12.839,8.438l35.382,70.697l35.928-136.243
			c1.659-6.289,7.109-10.846,13.593-11.363c6.475-0.519,12.588,3.117,15.223,9.063l26.233,59.206l22.079-34.224
			c2.802-4.341,7.602-6.979,12.769-7.014c5.24-0.052,10.002,2.538,12.862,6.841l22.964,34.573h116.773
			c8.46,0,15.318,6.858,15.318,15.318s-6.858,15.318-15.318,15.318H371.695c-5.131,0-9.921-2.569-12.76-6.842l-14.562-21.924
			l-24.776,38.406c-3.051,4.73-8.457,7.408-14.065,6.968c-5.612-0.438-10.531-3.92-12.812-9.066l-20.043-45.236l-35.143,133.27
			c-1.625,6.162-6.896,10.675-13.234,11.33C223.769,366.922,223.242,366.95,222.717,366.95z"/>
		<path fill="#042e7c" d="M247.875,478.107c-2.226,0-4.453-0.484-6.516-1.455c-73.068-34.345-146.415-97.757-191.42-165.49
			c-3.125-4.701-3.41-10.741-0.741-15.716c2.667-4.975,7.855-8.079,13.499-8.079h60.454l33.184-51.068
			c2.992-4.604,8.227-7.256,13.703-6.948c5.484,0.308,10.381,3.528,12.839,8.438l35.382,70.697l35.928-136.243
			c1.659-6.289,7.109-10.846,13.593-11.363c6.475-0.519,12.588,3.117,15.223,9.063l26.233,59.206l22.079-34.224
			c2.802-4.341,7.602-6.979,12.769-7.014c0.034,0,0.069,0,0.103,0c5.128,0,9.92,2.567,12.76,6.842l27.509,41.416
			c4.681,7.048,2.763,16.554-4.283,21.235c-7.049,4.68-16.555,2.762-21.235-4.283l-14.564-21.924l-24.775,38.406
			c-3.053,4.73-8.466,7.408-14.065,6.968c-5.612-0.438-10.531-3.92-12.812-9.067l-20.043-45.236l-35.143,133.27
			c-1.625,6.162-6.896,10.675-13.234,11.33c-6.349,0.651-12.423-2.682-15.275-8.38l-41.575-83.069l-23.142,35.614
			c-2.826,4.347-7.659,6.971-12.844,6.971H92.704c40.558,51.659,98.551,99.672,155.172,127.775
			c52.656-26.141,107.401-69.974,147.65-118.421c5.407-6.508,15.062-7.4,21.57-1.994c6.507,5.406,7.4,15.063,1.994,21.57
			C374.449,400.67,312.88,449.161,254.392,476.653C252.328,477.623,250.1,478.107,247.875,478.107z"/>
		<path fill="#5085fa" d="M169.179,244.646l53.544,106.986l46.275-175.482l37.727,85.149l37.461-58.069l27.51,41.416h91.694
			c3.762-10.019,6.72-20.013,8.743-29.903c2.085-10.218,3.215-20.38,3.215-30.324c0-74.655-59.694-135.207-133.342-135.207
			c-36.73,0-69.986,15.082-94.132,39.444c-24.145-24.363-57.401-39.444-94.132-39.444c-73.646,0-133.342,60.552-133.342,135.207
			c0,9.944,1.13,20.106,3.215,30.324c5.946,29.077,19.87,59.031,39.08,87.943h68.767L169.179,244.646z"/>
		<path fill="#042e7c" d="M222.717,366.95c-5.752,0-11.078-3.24-13.692-8.461l-41.575-83.069l-23.142,35.614
			c-2.826,4.347-7.659,6.971-12.844,6.971H62.697c-5.13,0-9.92-2.567-12.758-6.841c-21.318-32.081-35.221-63.49-41.329-93.35
			c-2.339-11.474-3.525-22.707-3.525-33.394c0-83,66.688-150.525,148.659-150.525c34.693,0,67.609,11.981,94.132,34.011
			c26.523-22.03,59.439-34.011,94.132-34.011c81.971,0,148.658,67.525,148.658,150.525c0,10.692-1.186,21.924-3.523,33.386
			c-2.134,10.434-5.3,21.275-9.411,32.225c-2.242,5.975-7.958,9.933-14.34,9.933h-91.695c-5.131,0-9.921-2.569-12.76-6.842
			l-14.563-21.924l-24.776,38.406c-3.051,4.73-8.457,7.408-14.065,6.968c-5.612-0.438-10.531-3.92-12.812-9.067l-20.043-45.236
			l-35.143,133.27c-1.625,6.162-6.896,10.675-13.234,11.33C223.769,366.922,223.241,366.95,222.717,366.95z M169.177,229.328
			c0.286,0,0.573,0.008,0.861,0.025c5.484,0.308,10.381,3.528,12.839,8.438l35.382,70.697l35.928-136.243
			c1.659-6.289,7.109-10.846,13.593-11.363c6.475-0.519,12.588,3.117,15.223,9.063l26.233,59.206l22.079-34.224
			c2.802-4.341,7.602-6.979,12.769-7.014c5.24-0.052,10.004,2.538,12.862,6.841l22.964,34.573h72.584
			c1.91-6.017,3.46-11.925,4.632-17.655c1.927-9.445,2.904-18.616,2.904-27.255c0-66.108-52.944-119.89-118.022-119.89
			c-31.375,0-60.943,12.398-83.251,34.909c-2.877,2.903-6.793,4.536-10.88,4.536s-8.003-1.633-10.88-4.536
			c-22.309-22.511-51.876-34.909-83.251-34.909c-65.079,0-118.024,53.782-118.024,119.89c0,8.636,0.977,17.808,2.906,27.264
			c4.889,23.909,15.78,49.343,32.398,75.686h52.126l33.184-51.068C159.17,231.937,164.012,229.328,169.177,229.328z"/>
    </symbol>

    <symbol id="about02" role="img" aria-labelledby="about02_title" viewBox="0 0 512 512">
        <title id="about02_title"></title>
		<path fill="#5085fa" d="M147.429,234.468L125.598,256.3c1.019,1.869,2.029,3.886,3.175,5.923
			c10.393,18.741,24.553,44.386,51.541,71.374c27.056,27.047,52.712,41.304,71.454,51.689c1.97,1.12,3.258,1.577,5.101,2.595
			l19.248-20.48l2.122-2.122c16.226-16.226,42.533-16.226,58.759,0l43.353,43.353c16.317,16.317,16.212,42.803-0.233,58.99
			l-8.664,8.528c-7.103,5.554-15.364,10.265-24.175,13.716c-8.415,3.19-16.472,5.23-24.492,6.112
			c-64.427,7.792-123.32-21.643-203.232-101.522C9.135,284.008,17.439,194.999,17.869,191.154c0.985-8.349,2.983-16.364,6.139-24.517
			c3.417-8.744,8.199-17.077,13.753-24.146l8.522-8.667c16.185-16.46,42.683-16.572,59.005-0.249l42.138,42.138
			C163.652,191.936,163.654,218.243,147.429,234.468z"/>
		<path fill="#042e7c" d="M303.066,512c-60.891,0-118.904-32.02-193.983-107.067c-47.684-47.697-79.999-97.356-96.048-147.598
			c-12.574-39.362-10.199-65.029-9.886-67.827c1.146-9.719,3.448-18.918,7.045-28.217c3.919-10.03,9.418-19.679,15.92-27.953
			c0.339-0.431,0.702-0.841,1.086-1.234l8.523-8.669c10.68-10.862,24.953-16.844,40.187-16.844c15.053,0,29.206,5.864,39.851,16.508
			l42.138,42.138c21.973,21.974,21.974,57.729,0.001,79.702l-14.005,14.008c9.757,17.512,23.18,40.467,46.89,64.177
			c23.312,23.304,45.698,36.667,63.043,46.365l11.493-12.231c0.105-0.111,0.212-0.221,0.32-0.33l2.122-2.122
			c10.646-10.644,24.799-16.508,39.852-16.508c15.055,0,29.208,5.863,39.852,16.508l43.354,43.354
			c10.705,10.705,16.567,24.938,16.508,40.077c-0.061,15.138-6.035,29.322-16.823,39.941l-8.663,8.528
			c-0.401,0.395-0.825,0.767-1.266,1.114c-8.236,6.44-17.882,11.917-27.899,15.838c-0.05,0.019-0.101,0.039-0.153,0.058
			c-9.698,3.676-18.87,5.958-28.036,6.976C317.297,511.56,310.089,512,303.066,512z M48.924,152.262
			c-4.523,5.884-8.361,12.702-11.123,19.766c-2.669,6.899-4.382,13.738-5.224,20.862c-0.012,0.12-2.202,21.452,8.715,55.56
			c10.047,31.39,33.601,80.386,88.736,135.539c68.994,68.964,120.743,98.393,173.038,98.393c5.863,0,11.9-0.372,17.942-1.102
			c0.052-0.006,0.104-0.012,0.155-0.018c6.656-0.733,13.457-2.438,20.79-5.212c7.091-2.786,13.898-6.604,19.741-11.071l8.033-7.909
			c5.118-5.039,7.953-11.767,7.983-18.95c0.028-7.182-2.752-13.934-7.832-19.012l-43.354-43.354
			c-5.049-5.05-11.764-7.832-18.907-7.832s-13.857,2.781-18.909,7.832l-1.956,1.958l-19.091,20.314
			c-4.636,4.932-12.025,6.093-17.952,2.821c-0.576-0.318-1.074-0.548-1.573-0.785c-0.955-0.458-2.137-1.02-3.609-1.853
			c-19.461-10.784-46.095-25.554-74.687-54.137c-28.318-28.318-43.078-54.934-53.854-74.367l-0.166-0.299
			c-0.705-1.253-1.403-2.574-2.079-3.86c-0.388-0.736-0.767-1.459-1.148-2.159c-3.141-5.767-2.112-12.913,2.533-17.556l21.829-21.832
			c10.424-10.425,10.424-27.388-0.001-37.813l-42.138-42.14c-5.049-5.05-11.763-7.832-18.906-7.832
			c-7.228,0-13.999,2.839-19.067,7.992L48.924,152.262z"/>
		<path fill="#042e7c" d="M369.328,205.587c-8.178,0-14.811-6.632-14.811-14.811V97.963c0-8.178,6.632-14.811,14.811-14.811
			s14.811,6.632,14.811,14.811v92.813C384.139,198.955,377.507,205.587,369.328,205.587z"/>
		<path fill="#042e7c" d="M415.734,159.18h-92.81c-8.178,0-14.811-6.632-14.811-14.811s6.632-14.811,14.811-14.811h92.81
			c8.178,0,14.811,6.632,14.811,14.811S423.913,159.18,415.734,159.18z"/>
		<path fill="#042e7c" d="M365.87,286.762c-8.962,0-17.922-0.832-26.647-2.472c-8.039-1.512-13.331-9.254-11.819-17.293
			c1.512-8.042,9.274-13.328,17.293-11.819c7.211,1.357,14.593,2.023,22.056,1.958c62.23-0.48,112.858-51.51,112.858-113.757
			c0-62.72-51.025-113.753-113.745-113.76c-0.004,0-0.01,0-0.015,0c-61.83,0-112.855,50.272-113.748,112.073
			c-0.283,19.621,4.496,39.024,13.827,56.111c1.823,3.34,2.291,7.254,1.306,10.93l-7.142,26.656l13.152-3.523
			c7.9-2.118,16.021,2.573,18.138,10.473c2.118,7.901-2.571,16.021-10.473,18.138l-31.369,8.405
			c-6.446,1.727-13.38-0.133-18.097-4.85s-6.573-11.651-4.845-18.097l10.536-39.324c-9.929-20.206-14.982-42.669-14.655-65.347
			c0.548-37.939,15.713-73.474,42.699-100.057C292.158,14.636,327.91,0,365.849,0c0.007,0,0.01,0,0.018,0
			C444.918,0.01,509.23,64.331,509.23,143.381c0,38.226-14.734,74.128-41.489,101.097c-26.757,26.97-62.542,41.986-100.764,42.281
			C366.609,286.761,366.239,286.762,365.87,286.762z"/>
    </symbol>

    <symbol id="about03" role="img" aria-labelledby="about03_title" viewBox="0 0 512 512">
        <title id="about03_title"></title>
		<path fill="#042e7c" d="M255.997,134.808c-8.264,0-14.963-6.699-14.963-14.963V66.616c0-8.264,6.699-14.963,14.963-14.963
			c8.264,0,14.963,6.699,14.963,14.963v53.229C270.96,128.109,264.261,134.808,255.997,134.808z"/>
		<path fill="#042e7c" d="M282.612,108.194h-53.229c-8.264,0-14.963-6.699-14.963-14.963s6.699-14.963,14.963-14.963h53.229
			c8.264,0,14.963,6.699,14.963,14.963S290.876,108.194,282.612,108.194z"/>
		<path fill="#5085fa" d="M400.459,180.217c-3.542,4.354-9.25,6.883-14.999,6.079l-47.527-6.647l-37.743,0.214
			c47.066,18.373,80.535,65.204,80.535,120.108c0,70.931-55.843,140.902-124.73,140.902s-124.73-69.97-124.73-140.902
			c0-54.414,32.881-100.891,79.286-119.601l-43.405,0.245l-40.619,5.68c-4.954,0.693-9.873-1.098-13.407-4.39
			c-21.394,36.619-30.013,82.918-30.013,130.201c0,244.285,77.404,176.213,172.886,176.213s172.889,65.4,172.889-176.215
			C428.883,264.09,421.585,217.094,400.459,180.217z"/>
		<path fill="#042e7c" d="M163.152,511.999c-21.215,0-51.688-4.317-71.309-41.647C75.678,439.599,68.15,389.314,68.15,312.105
			c0-54.22,11.085-101.852,32.057-137.75c2.292-3.925,6.246-6.594,10.742-7.256c4.493-0.66,9.05,0.756,12.376,3.856
			c0.37,0.344,0.821,0.524,1.079,0.524l40.675-5.684c0.658-0.093,1.323-0.141,1.989-0.144l43.403-0.245c0.028,0,0.058,0,0.087,0
			c7.143,0,13.298,5.053,14.68,12.072c1.387,7.045-2.426,14.083-9.086,16.769c-42.474,17.125-69.919,58.625-69.919,105.724
			c0,65.912,52.318,125.939,109.767,125.939s109.767-60.027,109.767-125.939c0-46.923-28.539-89.59-71.013-106.17
			c-6.688-2.611-10.58-9.605-9.271-16.666s7.449-12.195,14.628-12.237l37.743-0.214c0.73,0.007,1.442,0.045,2.158,0.144l47.526,6.647
			c0.003,0,0.006,0,0.009,0c0.397,0,0.952-0.262,1.308-0.7c3.111-3.826,7.905-5.882,12.823-5.472
			c4.915,0.401,9.317,3.196,11.768,7.476c20.173,35.217,30.403,82.093,30.403,139.327c0,77.169-7.69,127.382-24.198,158.024
			c-19.904,36.942-50.789,41.219-72.294,41.219c-0.003,0-0.006,0-0.009,0c-13.455,0-27.465-1.849-42.297-3.807
			c-15.87-2.095-32.28-4.261-49.05-4.261c-17.076,0-33.772,2.343-49.918,4.609C191.02,510.003,176.797,511.999,163.152,511.999z
			 M119.891,201.075c-14.306,29.865-21.816,67.92-21.816,111.03c0,169.968,39.163,169.968,65.077,169.968
			c11.556,0,24.774-1.855,38.769-3.819c16.365-2.297,34.913-4.899,54.078-4.899c18.737,0,36.921,2.4,52.966,4.519
			c13.83,1.826,26.893,3.549,38.382,3.551c0.001,0,0.006,0,0.007,0c23.187,0,36.068-7.145,45.95-25.488
			c13.874-25.75,20.618-72.798,20.618-143.83c0-44.922-6.654-82.31-19.801-111.41c-3.504,0.766-7.17,0.917-10.733,0.417
			l-30.282-4.235c6.373,6.335,12.187,13.323,17.362,20.9c16.501,24.164,25.225,52.586,25.225,82.192
			c0,38.079-14.626,77-40.131,106.784C328.459,438.406,293.1,455.837,256,455.837s-72.46-17.43-99.562-49.082
			c-25.503-29.782-40.131-68.704-40.131-106.784c0-29.333,8.577-57.539,24.804-81.565c5.279-7.817,11.24-15.015,17.797-21.53
			l-30.302,4.239C125.722,201.518,122.752,201.497,119.891,201.075z"/>
		<path fill="#042e7c" d="M124.296,201.415c-14.504,0.001-27.505-10.194-30.625-24.725L76.938,98.747
			c-3.259-15.189,5.445-31.704,19.817-37.598l140.571-57.65c11.453-4.698,28.066-4.661,39.496,0.088l51.298,21.514
			c7.621,3.196,11.207,11.964,8.011,19.585c-3.196,7.619-11.966,11.209-19.585,8.011l-51.25-21.494
			c-3.997-1.658-12.561-1.679-16.615-0.018l-140.57,57.651c-1.017,0.417-2.144,2.556-1.912,3.63l16.733,77.941
			c0.108,0.5,1.014,1.139,1.528,1.068l114.425-16.001c9.596-1.341,24.632-1.342,34.229,0l114.422,16.001
			c0.501,0.064,1.422-0.569,1.528-1.068l16.733-77.942c0.236-1.098-0.91-3.286-1.947-3.717l-24.872-10.33
			c-7.633-3.169-11.249-11.926-8.08-19.557c3.169-7.633,11.926-11.251,19.558-8.079l24.87,10.329
			c14.317,5.946,22.983,22.477,19.73,37.636l-16.733,77.942c-3.427,15.958-18.782,26.681-34.934,24.424l-114.422-16.001
			c-6.908-0.967-19.028-0.967-25.938,0l-114.425,16.003C127.16,201.316,125.719,201.415,124.296,201.415z"/>
		<path fill="#5085fa" d="M273.414,163.971c-9.576-1.339-25.249-1.339-34.826,0l-130.02,18.183
			c-5.056,16.622-8.258,49.891-9.952,68.662h314.762c-1.692-18.771-4.89-52.04-9.944-68.662L273.414,163.971z"/>
		<path fill="#042e7c" d="M413.378,265.78H98.616c-4.203,0-8.21-1.767-11.046-4.869c-2.835-3.102-4.235-7.254-3.857-11.439
			c2.212-24.506,5.406-54.801,10.538-71.673c1.695-5.574,6.473-9.657,12.244-10.465l130.02-18.183
			c5.297-0.741,12.217-1.149,19.485-1.149s14.188,0.408,19.485,1.149l130.021,18.183c5.77,0.808,10.547,4.891,12.243,10.467
			c5.125,16.856,8.321,47.156,10.531,71.67c0.377,4.185-1.022,8.336-3.857,11.439C421.589,264.012,417.581,265.78,413.378,265.78z
			 M115.073,235.854h281.849c-1.302-12.687-3.186-28.491-5.589-40.282L271.34,178.791c-3.908-0.548-9.5-0.86-15.339-0.86
			s-11.432,0.313-15.342,0.86l-119.994,16.781C118.261,207.367,116.374,223.171,115.073,235.854z"/>
    </symbol>

    <symbol id="about04" role="img" aria-labelledby="about04_title" viewBox="0 0 512 512">
        <title id="about04_title"></title>
		<path fill="#042e7c" d="M420.287,449.783c-8.116,0-14.697-6.58-14.697-14.697V334.965c0-26.337-21.427-47.765-47.765-47.765
			c-26.338,0-47.765,21.428-47.765,47.765c0,8.117-6.581,14.697-14.697,14.697c-8.116,0-14.697-6.58-14.697-14.697
			c0-42.546,34.614-77.159,77.159-77.159s77.159,34.613,77.159,77.159v100.122C434.984,443.203,428.403,449.783,420.287,449.783z"/>
		<path fill="#042e7c" d="M232.901,479.18c-42.545,0-77.159-34.613-77.159-77.159v-114.82c0-8.117,6.581-14.697,14.697-14.697
			s14.697,6.58,14.697,14.697v114.82c0,26.337,21.427,47.765,47.765,47.765s47.765-21.428,47.765-47.765
			c0-8.117,6.581-14.697,14.697-14.697c8.116,0,14.697,6.58,14.697,14.697C310.06,444.566,275.446,479.18,232.901,479.18z"/>
		<path fill="#042e7c" d="M311.38,59.433h-52.85c-8.116,0-14.697-6.58-14.697-14.697s6.581-14.697,14.697-14.697h52.85
			c8.116,0,14.697,6.58,14.697,14.697S319.497,59.433,311.38,59.433z"/>
		<path fill="#042e7c" d="M170.439,309.283c-85.822,0-155.639-69.819-155.639-155.639V44.736
			c0-8.117,6.581-14.697,14.697-14.697h52.85c8.116,0,14.697,6.58,14.697,14.697s-6.581,14.697-14.697,14.697H44.193v94.211
			c0,69.612,56.633,126.246,126.246,126.246c69.611,0,126.244-56.633,126.244-126.246c0-8.117,6.581-14.697,14.697-14.697
			s14.697,6.58,14.697,14.697C326.077,239.465,256.257,309.283,170.439,309.283z"/>
		<path fill="#5085fa" d="M170.437,245.698c-77.841,0-140.943-63.101-140.943-140.943v48.888
			c0,77.84,63.101,140.943,140.943,140.943S311.38,231.485,311.38,153.644v-48.888C311.38,182.597,248.278,245.698,170.437,245.698z"
			/>
		<path fill="#042e7c" d="M170.439,309.283c-85.822,0-155.639-69.819-155.639-155.639v-48.888
			c0-8.117,6.581-14.697,14.697-14.697s14.697,6.58,14.697,14.697C44.193,174.368,100.826,231,170.439,231
			c69.611,0,126.244-56.633,126.244-126.244c0-8.117,6.581-14.697,14.697-14.697s14.697,6.58,14.697,14.697v48.888
			C326.077,239.465,256.257,309.283,170.439,309.283z M59.444,213.757c21.403,39.357,63.131,66.132,110.993,66.132
			s89.59-26.775,110.993-66.132c-28.258,28.766-67.58,46.636-110.993,46.636C127.025,260.395,87.702,242.524,59.444,213.757z"/>
		<circle fill="#5085fa" cx="101.36" cy="51.439" r="36.742"/>
		<path fill="#042e7c" d="M101.361,102.879c-28.364,0-51.439-23.076-51.439-51.439S72.998,0,101.361,0
			s51.439,23.076,51.439,51.439S129.725,102.879,101.361,102.879z M101.361,29.394c-12.156,0-22.045,9.89-22.045,22.045
			s9.89,22.045,22.045,22.045s22.045-9.89,22.045-22.045S113.517,29.394,101.361,29.394z"/>
		<circle fill="#5085fa" cx="239.516" cy="51.439" r="36.742"/>
		<path fill="#042e7c" d="M239.516,102.879c-28.364,0-51.439-23.076-51.439-51.439S211.152,0,239.516,0
			s51.439,23.076,51.439,51.439S267.88,102.879,239.516,102.879z M239.516,29.394c-12.156,0-22.045,9.89-22.045,22.045
			s9.89,22.045,22.045,22.045c12.156,0,22.045-9.89,22.045-22.045S251.672,29.394,239.516,29.394z"/>
		<circle fill="#5085fa" cx="420.289" cy="435.089" r="62.212"/>
		<path fill="#042e7c" d="M420.287,512c-42.411,0-76.915-34.504-76.915-76.914s34.504-76.914,76.915-76.914
			c42.41,0,76.914,34.504,76.914,76.914S462.697,512,420.287,512z M420.287,387.565c-26.203,0-47.521,21.318-47.521,47.52
			c0,26.202,21.318,47.52,47.521,47.52c26.202,0,47.52-21.318,47.52-47.52C467.807,408.883,446.489,387.565,420.287,387.565z"/>
    </symbol>

    <symbol id="footer-facebook" role="img" aria-labelledby="footer-facebook_title" viewBox="0 0 512 512">
        <title id="footer-facebook_title">Facebook</title>
        <path d="m492 352c11.046875 0 20-8.953125 20-20v-252c0-44.113281-35.886719-80-80-80h-352c-44.113281 0-80 35.886719-80 80v352c0 44.113281 35.886719 80 80 80h352c44.113281 0 80-35.886719 80-80 0-11.046875-8.953125-20-20-20s-20 8.953125-20 20c0 22.054688-17.945312 40-40 40h-98v-146h46.289062c10.121094 0 18.648438-7.5625 19.859376-17.609375l2.648437-22c1.429687-11.90625-7.863281-22.390625-19.859375-22.390625h-48.9375v-67c0-16.570312 13.429688-30 30-30h25c11.046875 0 20-8.953125 20-20v-20.230469c0-10.246093-7.738281-18.855469-17.933594-19.894531-10.140625-1.03125-20.871094-1.875-27.066406-1.875-23.324219 0-46.703125 9.839844-64.140625 26.992188-17.964844 17.671874-27.859375 40.820312-27.859375 65.183593v66.824219h-45c-11.046875 0-20 8.953125-20 20v22c0 11.046875 8.953125 20 20 20h45v146h-192c-22.054688 0-40-17.945312-40-40v-352c0-22.054688 17.945312-40 40-40h352c22.054688 0 40 17.945312 40 40v252c0 11.046875 8.953125 20 20 20zm0 0"/>
    </symbol>

    <symbol id="footer-instagram" role="img" aria-labelledby="footer-instagram_title" viewBox="0 0 512 512">
        <title id="footer-instagram_title">Instagram</title>
		<path d="m261.039062 512c-1.695312 0-3.390624 0-5.097656-.007812-40.132812.097656-77.214844-.921876-113.277344-3.117188-33.0625-2.011719-63.242187-13.4375-87.28125-33.039062-23.195312-18.914063-39.035156-44.488282-47.078124-76.003907-7-27.4375-7.371094-54.371093-7.726563-80.421875-.257813-18.691406-.5234375-40.839844-.578125-63.363281.0546875-22.617187.320312-44.765625.578125-63.457031.355469-26.046875.726563-52.980469 7.726563-80.421875 8.042968-31.515625 23.882812-57.089844 47.078124-76.003907 24.039063-19.601562 54.21875-31.027343 87.285157-33.039062 36.0625-2.191406 73.152343-3.2148438 113.371093-3.1171875 40.144532-.0859375 77.214844.9257815 113.277344 3.1171875 33.0625 2.011719 63.242188 13.4375 87.28125 33.039062 23.199219 18.914063 39.035156 44.488282 47.078125 76.003907 7 27.4375 7.371094 54.375 7.726563 80.421875.257812 18.691406.527344 40.839844.578125 63.363281-.050781 22.617187-.320313 44.765625-.578125 63.457031-.148438 11.046875-9.273438 19.875-20.269532 19.726563-11.046874-.152344-19.875-9.230469-19.726562-20.273438.253906-18.582031.523438-40.585937.574219-62.910156-.050781-22.230469-.320313-44.234375-.574219-62.816406-.324219-23.714844-.660156-48.238281-6.488281-71.078125-5.878907-23.039063-17.183594-41.507813-33.597657-54.894532-17.753906-14.480468-39.433593-22.59375-64.433593-24.113281-35.214844-2.140625-71.464844-3.128906-110.847657-3.046875-39.476562-.09375-75.730468.90625-110.945312 3.046875-25 1.519531-46.675781 9.632813-64.433594 24.109375-16.414062 13.386719-27.71875 31.855469-33.597656 54.898438-5.828125 22.839844-6.164062 47.363281-6.488281 71.078125-.253907 18.582031-.519531 40.585937-.574219 62.910156.054688 22.230469.320312 44.234375.574219 62.816406.324219 23.714844.660156 48.238281 6.488281 71.078125 5.878906 23.039063 17.183594 41.507813 33.597656 54.894532 17.757813 14.480468 39.433594 22.59375 64.433594 24.113281 35.214844 2.140625 71.476562 3.140625 110.851562 3.042969 39.480469.09375 75.726563-.902344 110.941407-3.042969 25-1.519531 46.675781-9.632813 64.433593-24.113281 11.824219-9.644532 21.0625-22.019532 27.457032-36.785157 4.390625-10.132812 16.164062-14.792969 26.300781-10.402343 10.136719 4.390624 14.792969 16.164062 10.40625 26.300781-8.964844 20.699219-22.046875 38.15625-38.886719 51.886719-24.039062 19.605468-54.21875 31.027343-87.28125 33.039062-34.535156 2.101562-70.011718 3.125-108.277344 3.125zm118.949219-256c0-68.925781-56.074219-125-125-125-68.921875 0-125 56.074219-125 125s56.078125 125 125 125c68.925781 0 125-56.074219 125-125zm-40 0c0 46.867188-38.128906 85-85 85-46.867187 0-85-38.132812-85-85s38.132813-85 85-85c46.871094 0 85 38.132812 85 85zm54-165c-16.566406 0-30 13.429688-30 30s13.433594 30 30 30c16.570313 0 30-13.429688 30-30s-13.429687-30-30-30zm0 0"/>
    </symbol>

    <symbol id="footer-linkedin" role="img" aria-labelledby="footer-linkedin_title" viewBox="0 0 512 512">
        <title id="footer-linkedin_title">Linkedin</title>
		<path d="m140.007812 423h-30c-11.046874 0-20-8.953125-20-20v-186c0-11.046875 8.953126-20 20-20h30c11.046876 0 20 8.953125 20 20v186c0 11.046875-8.953124 20-20 20zm26.984376-298.003906c0-22.628906-18.359376-40.996094-40.976563-40.996094-22.703125 0-41.015625 18.367188-41.015625 40.996094 0 22.636718 18.3125 41.003906 41.015625 41.003906 22.617187 0 40.976563-18.367188 40.976563-41.003906zm255.007812 278.003906v-104.335938c0-60.667968-12.816406-105.664062-83.6875-105.664062-34.054688 0-56.914062 17.03125-66.246094 34.742188h-.066406v-10.742188c0-11.046875-8.953125-20-20-20h-28c-11.046875 0-20 8.953125-20 20v186c0 11.046875 8.953125 20 20 20h28c11.046875 0 20-8.953125 20-20v-92.210938c0-29.386718 7.480469-57.855468 43.90625-57.855468 35.929688 0 37.09375 33.605468 37.09375 59.722656v90.34375c0 11.046875 8.953125 20 20 20h29c11.046875 0 20-8.953125 20-20zm90 29c0-11.046875-8.953125-20-20-20s-20 8.953125-20 20c0 22.054688-17.945312 40-40 40h-352c-22.054688 0-40-17.945312-40-40v-352c0-22.054688 17.945312-40 40-40h352c22.054688 0 40 17.945312 40 40v251c0 11.046875 8.953125 20 20 20s20-8.953125 20-20v-251c0-44.113281-35.886719-80-80-80h-352c-44.113281 0-80 35.886719-80 80v352c0 44.113281 35.886719 80 80 80h352c44.113281 0 80-35.886719 80-80zm0 0"/>
    </symbol>

    <symbol id="footer-phone" role="img" aria-labelledby="footer-phone_title" viewBox="0 0 512 512">
        <title id="footer-phone_title"></title>
        <path d="M421.216,195.504c-5.092-26.101-17.723-49.836-36.526-68.64c-18.804-18.803-42.54-31.434-68.641-36.527
			c-11.21-2.189-22.073,5.128-24.261,16.339c-2.187,11.212,5.128,22.073,16.339,24.26c36.847,7.188,65.3,35.642,72.489,72.489
			c1.927,9.874,10.581,16.726,20.278,16.726c1.313,0,2.645-0.125,3.984-0.387C416.088,217.577,423.403,206.715,421.216,195.504z"/>
		<path d="M511.422,196.929c-5.629-50.096-28.373-97.304-64.042-132.927C411.712,28.378,364.475,5.694,314.371,0.128
			c-11.355-1.261-21.578,6.92-22.839,18.272c-1.261,11.353,6.919,21.578,18.272,22.84c84.961,9.438,150.966,75.36,160.512,160.31
			c1.188,10.566,10.139,18.374,20.527,18.374c0.771,0,1.552-0.043,2.336-0.131C504.53,218.516,512.698,208.281,511.422,196.929z"/>
		<path d="M432.59,312.566c-0.062-0.008-0.124-0.017-0.186-0.025c-20.013-2.639-39.751-7.557-58.619-14.596
			c-23.91-8.99-51.103-3.191-69.27,14.772c-0.028,0.028-0.056,0.055-0.083,0.083l-17.148,17.148
			c-42.633-26.924-78.756-63.047-105.679-105.679l17.149-17.149c0.027-0.028,0.054-0.055,0.082-0.083
			c17.964-18.166,23.762-45.356,14.79-69.223c-7.057-18.914-11.974-38.653-14.614-58.666c-0.007-0.063-0.017-0.127-0.026-0.19
			c-4.591-32.478-32.782-56.734-65.548-56.467H66.053c-1.943,0.002-3.912,0.091-5.853,0.267
			C24.143,26.016-2.541,58.001,0.718,94.058c0.01,0.108,0.02,0.215,0.032,0.323c7.684,72.354,32.649,142.88,72.197,203.955
			c35.892,56.461,84.701,105.269,141.162,141.164c60.792,39.406,130.99,64.369,203.013,72.196c0.127,0.015,0.254,0.027,0.38,0.038
			c1.961,0.176,3.949,0.266,5.921,0.266c0.083,0,0.165,0,0.247,0.001c36.204-0.148,65.538-29.722,65.391-65.841v-67.233
			C489.746,345.714,465.515,317.211,432.59,312.566z M447.698,378.695v67.548c0.055,13.396-10.8,24.338-24.19,24.393
			c-0.715-0.004-1.425-0.027-2.135-0.086c-65.578-7.161-129.488-29.914-184.837-65.808c-0.053-0.035-0.107-0.069-0.161-0.103
			c-51.429-32.68-95.885-77.137-128.565-128.565c-0.032-0.051-0.064-0.101-0.097-0.153C71.683,220.306,48.928,156.086,41.902,90.193
			C40.779,76.91,50.63,65.155,63.923,63.954c0.717-0.064,1.443-0.098,2.145-0.098h67.463c0.146-0.001,0.294-0.003,0.443-0.002
			c12.021,0,22.322,8.905,24.044,20.819c3.05,23.063,8.721,45.806,16.871,67.649c3.319,8.832,1.189,18.869-5.427,25.591
			l-28.517,28.517c-6.583,6.582-7.956,16.753-3.354,24.847c33.837,59.508,83.177,108.847,142.685,142.685
			c8.094,4.6,18.264,3.23,24.848-3.355l28.512-28.512c6.72-6.621,16.765-8.752,25.642-5.415
			c21.799,8.134,44.547,13.805,67.61,16.855c12.18,1.757,21.122,12.339,20.816,24.647
			C447.7,378.353,447.698,378.524,447.698,378.695z"/>
    </symbol>

	<symbol id="footer-mail" role="img" aria-labelledby="footer-mail_title" viewBox="0 0 512 512">
        <title id="footer-mail_title"></title>
        <path d="M256,141.176c-63.306,0-114.809,51.503-114.809,114.809S192.694,370.795,256,370.795s114.809-51.503,114.809-114.809
			S319.306,141.176,256,141.176z M256,329.43c-40.498,0-73.445-32.947-73.445-73.445c0-40.498,32.947-73.445,73.445-73.445
			c40.499,0,73.445,32.947,73.445,73.445C329.445,296.483,296.499,329.43,256,329.43z"/>
		<path d="M437.008,74.97C388.656,26.623,324.375,0,256,0c-0.005,0-0.013,0-0.017,0C187.603,0.004,123.318,26.637,74.97,74.992
			C26.62,123.347-0.005,187.637,0,256.017c0.004,68.379,26.637,132.666,74.992,181.014C123.344,485.377,187.625,512.001,256,512
			c0.004,0,0.012,0,0.017,0c55.945-0.004,111.216-18.738,155.631-52.752c9.07-6.945,10.792-19.927,3.846-28.995
			c-6.945-9.069-19.926-10.794-28.995-3.846c-37.24,28.518-83.58,44.224-130.486,44.228c-0.006,0-0.006,0-0.014,0
			c-57.324,0-111.224-22.324-151.761-62.856c-40.542-40.536-62.871-94.435-62.875-151.766
			C41.357,137.663,137.636,41.372,255.986,41.364c0.007,0,0.006,0,0.014,0c118.34,0,214.628,96.279,214.636,214.622v23.532
			c0,27.523-22.39,49.913-49.913,49.913c-27.523,0-49.913-22.391-49.913-49.913v-23.532c0-11.422-9.259-20.682-20.682-20.682
			s-20.682,9.26-20.682,20.682v23.532c0,50.33,40.947,91.278,91.278,91.278S512,329.848,512,279.518v-23.534
			C511.995,187.604,485.362,123.318,437.008,74.97z"/>
    </symbol>

    <symbol id="footer-time" role="img" aria-labelledby="footer-time_title" viewBox="0 0 512 512">
        <title id="footer-time_title"></title>
        <path d="M437.019,74.981C388.667,26.629,324.38,0,256,0S123.333,26.63,74.981,74.981S0,187.62,0,256
			s26.629,132.667,74.981,181.019C123.332,485.371,187.62,512,256,512s132.667-26.629,181.019-74.981
			C485.371,388.667,512,324.38,512,256S485.371,123.332,437.019,74.981z M256,470.636C137.65,470.636,41.364,374.35,41.364,256
			S137.65,41.364,256,41.364S470.636,137.65,470.636,256S374.35,470.636,256,470.636z"/>
		<path d="M341.221,311.97l-64.538-64.537V114.809c0-11.422-9.259-20.682-20.682-20.682c-11.422,0-20.682,9.26-20.682,20.682V256
			c0,5.486,2.179,10.746,6.058,14.625l70.594,70.595c4.038,4.039,9.332,6.058,14.625,6.058c5.293,0,10.586-2.019,14.626-6.058
			C349.297,333.142,349.297,320.047,341.221,311.97z"/>
    </symbol>

    <symbol id="footer-location" role="img" aria-labelledby="footer-location_title" viewBox="0 0 512 512">
        <title id="footer-location_title"></title>
        <path d="M406.766,62.449C366.495,22.178,312.951,0,256,0S145.505,22.178,105.234,62.449
			c-40.272,40.271-62.449,93.814-62.449,150.766c0,37.656,10.972,76.863,32.609,116.532c16.825,30.846,40.15,62.102,69.326,92.898
			c49.17,51.903,97.763,84.519,99.808,85.881C248.001,510.842,252,512,256,512c4,0,7.999-1.158,11.473-3.474
			c2.045-1.363,50.638-33.978,99.808-85.881c29.176-30.795,52.501-62.051,69.326-92.898c21.637-39.669,32.609-78.876,32.609-116.532
			C469.215,156.263,447.038,102.72,406.766,62.449z M256.001,465.903C215.826,436.156,84.15,329.739,84.15,213.215
			c0-94.759,77.091-171.851,171.85-171.851s171.85,77.092,171.851,171.851C427.851,329.748,296.159,436.168,256.001,465.903z"/>
		<path d="M256,128.355c-46.791,0-84.86,38.068-84.86,84.86c0,46.791,38.068,84.86,84.86,84.86c46.792,0,84.861-38.068,84.86-84.86
			C340.86,166.423,302.791,128.355,256,128.355z M256,256.71c-23.983,0-43.495-19.512-43.495-43.495
			c0-23.983,19.512-43.495,43.495-43.495c23.984,0,43.495,19.512,43.495,43.495C299.495,237.198,279.984,256.71,256,256.71z"/>
    </symbol>

    <symbol id="link-arrow" role="img" aria-labelledby="link-arrow_title" viewBox="0 0 512 512">
        <title id="link-arrow_title"></title>
        <path d="M256,0C114.615,0,0,114.615,0,256s114.615,256,256,256s256-114.615,256-256C511.833,114.685,397.315,0.167,256,0z
			 M256,480C132.288,480,32,379.712,32,256S132.288,32,256,32s224,100.288,224,224C479.868,379.657,379.657,479.868,256,480z"/>
		<polygon points="126.88,256 208,256 208,224 196.336,224 256,154.24 315.664,224 240,224 240,288 272,288 272,256 385.12,256 
			256,104.992 			"/>
		<rect x="240" y="384" width="32" height="32"/>
		<rect x="240" y="320" width="32" height="32"/>
    </symbol>

</svg>