<svg xmlns="http://www.w3.org/2000/svg" xmlns:xlink="http://www.w3.org/1999/xlink">

    <symbol id="what01" role="img" aria-labelledby="what01_title" viewBox="0 0 480 480">
        <title id="what01_title"></title>
        <path d="M8,104h464V8H8V104z M408,40h32v32h-32V40z M344,40h32v32h-32V40z M280,40h32v32h-32V40z"/>
        <path d="M239.2,344c8.8,0.5,16.3-6.3,16.8-15.1c0.5-8.8-6.3-16.3-15.1-16.8c-8.8-0.5-16.4,6.3-16.8,15.1
            c-0.2,4.2,1.2,8.4,4.1,11.6C230.9,341.9,234.9,343.8,239.2,344z"/>
        <path fill="#0f488a" d="M472,0H8C3.6,0,0,3.6,0,8v464c0,4.4,3.6,8,8,8h464c4.4,0,8-3.6,8-8V8C480,3.6,476.4,0,472,0z M16,16h448v80H16
            V16z"/>
        <rect fill="#ffffff" x="16" y="112" width="448" height="352"/>
        <path fill="#0f488a" d="M440,80h-32c-4.4,0-8-3.6-8-8V40c0-4.4,3.6-8,8-8h32c4.4,0,8,3.6,8,8v32C448,76.4,444.4,80,440,80z"/>
        <rect fill="#ffffff" x="416" y="48" width="16" height="16"/>
        <path fill="#0f488a" d="M376,80h-32c-4.4,0-8-3.6-8-8V40c0-4.4,3.6-8,8-8h32c4.4,0,8,3.6,8,8v32C384,76.4,380.4,80,376,80z"/>
        <rect fill="#ffffff" x="352" y="48" width="16" height="16"/>
        <path fill="#0f488a" d="M312,80h-32c-4.4,0-8-3.6-8-8V40c0-4.4,3.6-8,8-8h32c4.4,0,8,3.6,8,8v32C320,76.4,316.4,80,312,80z"/>
        <rect fill="#ffffff" x="288" y="48" width="16" height="16"/>
        <path fill="#0f488a" d="M232,168h16v32h-16V168z"/>
        <path fill="#0f488a" d="M190.9,175.5l15.5-4.1l8.3,30.9l-15.5,4.1L190.9,175.5z"/>
        <path fill="#0f488a" d="M153.1,193.4l13.9-8l16,27.7l-13.9,8L153.1,193.4z"/>
        <path fill="#0f488a" d="M121.2,220.5l11.3-11.3l22.6,22.6l-11.3,11.3L121.2,220.5z"/>
        <path fill="#0f488a" d="M97.4,254.9l8-13.9l27.7,16l-8,13.9L97.4,254.9z"/>
        <path fill="#0f488a" d="M83.4,294.3l4.1-15.5l30.9,8.3l-4.1,15.5L83.4,294.3z"/>
        <path fill="#0f488a" d="M80,320h32v16H80V320z"/>
        <path fill="#0f488a" d="M83.4,361.7l30.9-8.3l4.1,15.5l-30.9,8.3L83.4,361.7z"/>
        <path fill="#0f488a" d="M361.6,368.9l4.1-15.5l30.9,8.3l-4.1,15.5L361.6,368.9z"/>
        <path fill="#0f488a" d="M368,320h32v16h-32V320z"/>
        <path fill="#0f488a" d="M361.6,287.1l30.9-8.3l4.1,15.5l-30.9,8.3L361.6,287.1z"/>
        <path fill="#0f488a" d="M346.8,257.1l27.7-16l8,13.9l-27.7,16L346.8,257.1z"/>
        <path fill="#0f488a" d="M324.9,231.8l22.6-22.6l11.3,11.3l-22.6,22.6L324.9,231.8z"/>
        <path fill="#0f488a" d="M297.1,213.2l16-27.7l13.9,8l-16,27.7L297.1,213.2z"/>
        <path fill="#0f488a" d="M265.4,202.3l8.3-30.9l15.5,4.1l-8.3,30.9L265.4,202.3z"/>
        <path fill="#0f488a" d="M313.5,265.8l-11.3-11.3l-51.9,51.9c-8.8-4.2-19.2-2.6-26.4,3.9c-7.2,6.5-9.8,16.7-6.6,25.8s11.6,15.4,21.3,16
            h1.3c8.3,0.1,15.9-4.1,20.3-11.1c4.4-7,4.9-15.7,1.2-23.1L313.5,265.8z M245.3,334c-2.1,2-5.1,2.6-7.9,1.7c-2.8-0.9-4.8-3.2-5.4-6
            s0.4-5.8,2.6-7.6c1.5-1.3,3.4-2.1,5.3-2h0.4c3.2,0.2,6,2.3,7.1,5.3C248.6,328.4,247.8,331.8,245.3,334L245.3,334z"/>
    </symbol>

    <symbol id="what02" role="img" aria-labelledby="what02_title" viewBox="0 0 480 480">
        <title id="what02_title"></title>
        <path d="M8,311.7V344c0,17.7,14.3,32,32,32h400c17.7,0,32-14.3,32-32v-32.3H8z"/>
        <path d="M160,424h160l-16-48H176L160,424z"/>
        <path d="M128,424c-17.7,0-32,14.3-32,32v16h288v-16c0-17.7-14.3-32-32-32H128z"/>
        <path d="M400,8H80c-8.8,0-16,7.2-16,16v32h352V24C416,15.2,408.8,8,400,8z"/>
        <path fill="#0f488a" d="M440,48h-16V24c0-13.3-10.7-24-24-24H80C66.7,0,56,10.7,56,24v24H40C17.9,48,0,65.9,0,88v256
            c0,22.1,17.9,40,40,40h124.9l-10.7,32H128c-22.1,0-40,17.9-40,40v24h304v-24c0-22.1-17.9-40-40-40h-26.2l-10.7-32H440
            c22.1,0,40-17.9,40-40V88C480,65.9,462.1,48,440,48z M72,24c0-4.4,3.6-8,8-8h320c4.4,0,8,3.6,8,8v24H72V24z M352,432
            c13.3,0,24,10.7,24,24v8H104v-8c0-13.3,10.7-24,24-24H352z M308.9,416H171.1l10.7-32h116.5L308.9,416z M440,368H40
            c-13.3,0-24-10.7-24-24v-24.3h448V344C464,357.3,453.3,368,440,368z"/>
        <path fill="#ffffff" d="M408,64v200c0,4.4-3.6,8-8,8H80c-4.4,0-8-3.6-8-8V64H408z"/>
        <path fill="#ffffff" d="M464,88v215.7H16V88c0-13.3,10.8-24,24-24h16v200c0,13.3,10.8,24,24,24h320c13.3,0,24-10.8,24-24V64h16
              C453.3,64,464,74.8,464,88z"/>
        <path d="M328,89.6V152h62.4C384,120.6,359.4,96,328,89.6z"/>
        <path d="M312,248c41.1,0,75.5-31.1,79.6-72H304V88.4c-42.4,4.3-74,41-71.9,83.6C234.2,214.6,269.4,248,312,248z"/>
        <path d="M88,192h24v56H88V192z"/>
        <path d="M136,160h24v88h-24V160z"/>
        <path d="M184,104h24v144h-24V104z"/>
        <path fill="#0f488a" d="M200,336h16v16h-16V336z"/>
        <path fill="#0f488a" d="M232,336h16v16h-16V336z"/>
        <path fill="#0f488a" d="M264,336h16v16h-16V336z"/>
        <path fill="#0f488a" d="M88,24h16v16H88V24z"/>
        <path fill="#0f488a" d="M112,24h16v16h-16V24z"/>
        <path fill="#0f488a" d="M136,24h16v16h-16V24z"/>
        <path fill="#0f488a" d="M398.2,150.4c-7-34.6-34.1-61.6-68.6-68.6l-9.6-2V160h80.2L398.2,150.4z M336,144v-43.9
            c20.5,7.2,36.7,23.4,43.9,43.9H336z"/>
        <path fill="#0f488a" d="M312,256c45.3,0.2,83.2-34.2,87.6-79.2l0.9-8.8H312V79.6l-8.8,0.9c-46.7,4.7-81.4,45.1-79.1,92
            C226.4,219.2,265.1,256,312,256z M296,97.8V184h86.2c-7.9,34.7-40.1,58.4-75.6,55.8c-35.5-2.7-63.8-30.9-66.4-66.4
            C237.6,137.8,261.3,105.7,296,97.8z"/>
        <path fill="#0f488a" d="M120,184H80v72h40V184z M104,240h-8v-40h8V240z"/>
        <path fill="#0f488a" d="M168,152h-40v104h40V152z M152,240h-8v-72h8V240z"/>
        <path fill="#0f488a" d="M216,96h-40v160h40V96z M200,240h-8V112h8V240z"/>
    </symbol>

    <symbol id="what03" role="img" aria-labelledby="what03_title" viewBox="0 0 512 512">
        <title id="what03_title"></title>
        <circle fill="#ffffff" cx="25.7" cy="486.4" r="8.5"/>
        <circle fill="#ffffff" cx="25.7" cy="401.1" r="8.5"/>
        <circle fill="#ffffff" cx="25.7" cy="315.8" r="8.5"/>
        <circle fill="#ffffff" cx="486.4" cy="239" r="8.5"/>
        <circle fill="#ffffff" cx="486.4" cy="170.7" r="8.5"/>
        <circle fill="#ffffff" cx="341.4" cy="25.7" r="8.5"/>
        <circle fill="#ffffff" cx="452.3" cy="34.2" r="8.5"/>
        <path fill="#0f488a" d="M510.6,162.2c4.7,13.3-2.3,28-15.6,32.7c-13.3,4.7-28-2.3-32.7-15.6h-35.7v51.2h35.7
            c3.6-10.2,13.2-17,24-17.1c10.8,0,20.5,6.8,24.1,17c4.7,13.3-2.2,27.9-15.5,32.6c-13.3,4.7-27.9-2.2-32.6-15.5h-35.7v49.6
            c-0.2,82.3-47.6,157.3-122,192.7l-45,21.3c-2.3,1.1-5,1.1-7.3,0l-45-21.3c-19.1-9.1-36.8-21-52.4-35.4l-40.4,40.5H49.7
            c-2.6,7.3-8.3,13-15.6,15.6c-13.3,4.7-28-2.3-32.7-15.6s2.3-28,15.6-32.7s28,2.3,32.7,15.6h57.8l35.4-35.4
            c-9.4-10.1-17.8-21.1-25.1-32.8h-68c-2.6,7.3-8.3,13-15.6,15.6c-13.3,4.7-28-2.3-32.7-15.6s2.3-28,15.6-32.7s28,2.3,32.7,15.6
            h58.6c-10.8-21.4-17.9-44.5-21-68.2H49.7c-2.6,7.3-8.3,13-15.6,15.6c-13.3,4.7-28-2.3-32.7-15.6c-4.7-13.3,2.3-28,15.6-32.7
            s28,2.3,32.7,15.6h36.1c-0.2-3.4-0.4-6.7-0.4-10.1V136.6c0-4,2.8-7.5,6.8-8.3l155.3-32.7V53.9L316,28.2c-0.1-0.8-0.2-1.7-0.3-2.5
            c0-6.8,2.7-13.4,7.5-18.2c10-10,26.2-9.9,36.2,0.1c10,10,9.9,26.2-0.1,36.2c-10,10-26.2,9.9-36.2-0.1l-58.7,22v29.9l110.9,23.3
            V72.3L427,37.9c-0.2-1.2-0.3-2.5-0.4-3.7c0-6.3,2.3-12.5,6.6-17.2c9.4-10.5,25.6-11.3,36-1.9s11.3,25.6,1.9,36
            c-9.4,10.5-25.6,11.3-36,1.9l-42.5,28.4v41l27.4,5.8c3.9,0.8,6.8,4.3,6.8,8.3v25.6h35.7c2.6-7.3,8.3-13,15.6-15.6
            C491.3,141.9,505.9,148.9,510.6,162.2z M494.9,170.7c0-4.7-3.8-8.5-8.5-8.5s-8.5,3.8-8.5,8.5s3.8,8.5,8.5,8.5
            S494.9,175.4,494.9,170.7z M494.9,239c0-4.7-3.8-8.5-8.5-8.5s-8.5,3.8-8.5,8.5c0,4.7,3.8,8.5,8.5,8.5S494.9,243.7,494.9,239z
             M460.8,34.2c0-4.7-3.8-8.5-8.5-8.5s-8.5,3.8-8.5,8.5s3.8,8.5,8.5,8.5S460.8,39,460.8,34.2z M409.6,297.1V143.5L256,111.2
            l-153.6,32.3v153.6c0.2,75.7,43.8,144.7,112.2,177.3L256,494l41.4-19.6C365.8,441.8,409.4,372.9,409.6,297.1z M349.9,25.7
            c0-4.7-3.8-8.5-8.5-8.5s-8.5,3.8-8.5,8.5s3.8,8.5,8.5,8.5S349.9,30.4,349.9,25.7z M34.2,315.8c0-4.7-3.8-8.5-8.5-8.5
            s-8.5,3.8-8.5,8.5s3.8,8.5,8.5,8.5S34.2,320.5,34.2,315.8z M34.2,401.1c0-4.7-3.8-8.5-8.5-8.5s-8.5,3.8-8.5,8.5s3.8,8.5,8.5,8.5
            S34.2,405.8,34.2,401.1z M34.2,486.4c0-4.7-3.8-8.5-8.5-8.5s-8.5,3.8-8.5,8.5s3.8,8.5,8.5,8.5S34.2,491.1,34.2,486.4z"/>
        <path fill="#ffffff" d="M409.6,143.5v153.6c-0.2,75.8-43.8,144.7-112.2,177.3L256,494l-41.4-19.6c-68.4-32.6-112-101.5-112.2-177.3
            V143.5L256,111.2L409.6,143.5z"/>
        <path d="M256,138.4l-128,26.9v132.8c0.2,65.9,38.1,125.8,97.6,154.2l30.4,14.4l30.4-14.4
            c59.5-28.4,97.4-88.3,97.6-154.2V165.4L256,138.4z"/>
        <path fill="#0f488a" d="M126.3,157c-3.9,0.8-6.8,4.3-6.8,8.4v132.8c0.2,69.2,40,132.1,102.5,161.9l30.4,14.4c2.3,1.1,5,1.1,7.3,0
            l30.4-14.4c62.4-29.8,102.3-92.7,102.5-161.9V165.4c0-4-2.8-7.5-6.8-8.4l-128-26.9c-1.2-0.2-2.4-0.2-3.5,0L126.3,157z M375.5,172.3
            v125.9c-0.2,62.6-36.2,119.5-92.7,146.5L256,457.3l-26.7-12.7c-56.5-27-92.5-83.9-92.7-146.5V172.3L256,147.2L375.5,172.3z"/>
        <path fill="#0f488a" d="M233,339.9c3.3,3.3,8.7,3.3,12.1,0l84.5-84.5c3.3-3.4,3.2-8.8-0.2-12.1c-3.3-3.2-8.5-3.2-11.9,0L239,321.8
            l-42.2-42.2c-3.4-3.3-8.8-3.2-12.1,0.2c-3.2,3.3-3.2,8.5,0,11.9L233,339.9z"/>
    </symbol>

    <symbol id="what04" role="img" aria-labelledby="what04_title" viewBox="0 0 512 512">
        <title id="what04_title"></title>
        <circle cx="256" cy="48" r="24"/>
        <circle cx="256" cy="464" r="24"/>
        <circle cx="72" cy="152" r="24"/>
        <circle cx="440" cy="152" r="24"/>
        <circle cx="440" cy="360" r="24"/>
        <circle cx="72" cy="360" r="24"/>
        <circle cx="256" cy="256" r="24"/>
        <path fill="#ffffff" d="M133.3,271.8l19.6,33.3l-58,32.7c-0.1-0.1-0.2-0.3-0.3-0.4L133.3,271.8z"/>
        <path fill="#ffffff" d="M80.8,182.6L124,256l-43.2,73.4c-0.3-0.1-0.5-0.2-0.8-0.2V182.9C80.3,182.8,80.5,182.7,80.8,182.6z"/>
        <path fill="#ffffff" d="M153,207l-19.6,33.3l-38.7-65.6c0.1-0.2,0.2-0.4,0.3-0.5L153,207z"/>
        <polygon fill="#ffffff" points="180.7,160 161.1,193.2 102.8,160.3 102.9,160            "/>
        <path fill="#ffffff" d="M312.8,160l24.2,41l-58,32.8c-4.1-4.2-9.3-7.2-15-8.7V160H312.8z"/>
        <path fill="#ffffff" d="M248,160v65.1c-5.7,1.4-10.9,4.4-15,8.7L175,201l24.2-41H248z"/>
        <path fill="#ffffff" d="M166.9,214.8l58.3,32.9c-1.6,5.4-1.6,11.1,0,16.5l-58.3,32.9L142.6,256L166.9,214.8z"/>
        <path fill="#ffffff" d="M248,286.9V352h-48.8L175,311l58-32.8C237.1,282.4,242.3,285.4,248,286.9z"/>
        <polygon fill="#ffffff" points="161.1,318.8 180.7,352 102.9,352 102.8,351.8            "/>
        <path fill="#ffffff" d="M190.1,368l43.3,73.4c-1,1-1.9,2.1-2.7,3.2l-128.6-74.2c0.3-0.8,0.5-1.6,0.8-2.4H190.1z"/>
        <path fill="#ffffff" d="M248,368v65.1c-0.3,0.1-0.5,0.2-0.8,0.2L208.7,368H248z"/>
        <path fill="#ffffff" d="M303.3,368l-38.5,65.4c-0.3-0.1-0.5-0.2-0.8-0.2V368H303.3z"/>
        <path fill="#ffffff" d="M409.9,370.4l-128.6,74.2c-0.8-1.1-1.7-2.2-2.7-3.2l43.3-73.4h87.2C409.4,368.8,409.6,369.6,409.9,370.4z"/>
        <polygon fill="#ffffff" points="409.2,351.8 409.1,352 331.3,352 350.9,318.8            "/>
        <path fill="#ffffff" d="M337,311l-24.2,41H264v-65.1c5.7-1.4,10.9-4.4,15-8.7L337,311z"/>
        <path fill="#ffffff" d="M345.1,214.8l24.3,41.2l-24.3,41.2l-58.3-32.9c1.6-5.4,1.6-11.1,0-16.5L345.1,214.8z"/>
        <path fill="#ffffff" d="M378.7,271.7l38.7,65.6c-0.1,0.2-0.2,0.3-0.3,0.5L359,305L378.7,271.7z"/>
        <path fill="#ffffff" d="M432,182.9v146.3c-0.3,0.1-0.5,0.2-0.8,0.2L388,256l43.3-73.4C431.5,182.7,431.8,182.8,432,182.9z"/>
        <path fill="#ffffff" d="M417.4,174.6l-38.7,65.6L359,207l58-32.8C417.2,174.3,417.3,174.5,417.4,174.6z"/>
        <polygon fill="#ffffff" points="409.1,160 409.2,160.3 350.9,193.2 331.3,160            "/>
        <path fill="#ffffff" d="M281.3,67.4l128.6,74.2c-0.3,0.8-0.5,1.6-0.8,2.4h-87.2l-43.3-73.4C279.6,69.6,280.5,68.6,281.3,67.4z"/>
        <path fill="#ffffff" d="M264.8,78.6l38.6,65.4H264V78.9C264.3,78.8,264.5,78.7,264.8,78.6z"/>
        <path fill="#ffffff" d="M248,78.9V144h-39.3l38.6-65.4C247.5,78.7,247.7,78.8,248,78.9z"/>
        <path fill="#ffffff" d="M233.4,70.6L190.1,144h-87.2c-0.2-0.8-0.5-1.6-0.8-2.4l128.6-74.2C231.5,68.5,232.4,69.6,233.4,70.6z"/>
        <path fill="#0f488a" d="M471.1,144.1c4.3,17.1-6,34.4-23.1,38.8v146.3c5,1.3,9.6,3.7,13.4,7.2c13.1,11.8,14.2,32,2.4,45
            c-11.8,13.1-31.9,14.2-45.1,2.4l-131.2,75.7c0.3,1.5,0.4,3,0.5,4.5c0,17.7-14.3,32-32,32s-32-14.3-32-32c0-1.5,0.2-3,0.4-4.5
            L93.2,383.8c-3.9,3.5-8.5,6-13.6,7.3c-17.1,4.3-34.5-6-38.8-23.1s6-34.5,23.1-38.8V182.9c-5-1.3-9.6-3.7-13.4-7.2
            c-13.1-11.8-14.2-31.9-2.4-45.1c11.8-13.1,32-14.2,45.1-2.4l131.2-75.7c-0.3-1.5-0.4-3-0.5-4.5c0-17.7,14.3-32,32-32
            s32,14.3,32,32c0,1.5-0.2,3-0.4,4.5l131.2,75.7c3.9-3.5,8.5-6,13.6-7.3C449.4,116.7,466.8,127,471.1,144.1z M456,152
            c0-8.8-7.2-16-16-16s-16,7.2-16,16s7.2,16,16,16S456,160.8,456,152z M456,360c0-8.8-7.2-16-16-16s-16,7.2-16,16s7.2,16,16,16
            S456,368.8,456,360z M432,329.1V182.9c-0.3-0.1-0.5-0.2-0.8-0.2L388,256l43.2,73.4C431.5,329.3,431.7,329.2,432,329.1z
             M378.7,240.2l38.7-65.6c-0.1-0.1-0.2-0.3-0.3-0.5L359,207L378.7,240.2z M417.4,337.3l-38.7-65.6L359,305l58,32.8
            C417.2,337.7,417.3,337.5,417.4,337.3z M409.9,141.6L281.3,67.4c-0.8,1.1-1.7,2.2-2.7,3.2l43.3,73.4h87.2
            C409.4,143.2,409.6,142.4,409.9,141.6z M281.3,444.6l128.6-74.2c-0.3-0.8-0.5-1.6-0.8-2.4h-87.2l-43.3,73.4
            C279.6,442.4,280.5,443.5,281.3,444.6z M409.2,160.3l-0.1-0.3h-77.8l19.6,33.2L409.2,160.3z M409.1,352l0.1-0.3l-58.3-32.9
            L331.3,352H409.1z M369.4,256l-24.3-41.2l-58.3,32.9c1.6,5.4,1.6,11.1,0,16.5l58.3,32.9L369.4,256z M337,201l-24.2-41H264v65.1
            c5.7,1.5,10.9,4.5,15,8.7L337,201z M312.8,352l24.2-41l-58-32.8c-4.1,4.2-9.3,7.2-15,8.7V352H312.8z M303.3,144l-38.6-65.4
            c-0.3,0.1-0.5,0.2-0.8,0.2V144H303.3z M264.8,433.4l38.5-65.4H264v65.1C264.3,433.2,264.5,433.3,264.8,433.4z M272,48
            c0-8.8-7.2-16-16-16s-16,7.2-16,16s7.2,16,16,16S272,56.8,272,48z M272,256c0-8.8-7.2-16-16-16s-16,7.2-16,16s7.2,16,16,16
            S272,264.8,272,256z M272,464c0-8.8-7.2-16-16-16s-16,7.2-16,16s7.2,16,16,16S272,472.8,272,464z M248,433.1V368h-39.3l38.6,65.4
            C247.5,433.3,247.7,433.2,248,433.1z M248,352v-65.1c-5.7-1.4-10.9-4.4-15-8.7L175,311l24.2,41H248z M248,225.1V160h-48.8
            L175,201l58,32.8C237.1,229.6,242.3,226.6,248,225.1z M248,144V78.9c-0.3-0.1-0.5-0.2-0.8-0.2L208.7,144H248z M190.1,144
            l43.3-73.4c-1-1-1.9-2.1-2.7-3.2l-128.6,74.2c0.3,0.8,0.5,1.6,0.8,2.4H190.1z M233.4,441.4L190.1,368h-87.2
            c-0.2,0.8-0.5,1.6-0.8,2.4l128.6,74.2C231.5,443.5,232.4,442.4,233.4,441.4z M225.2,247.8l-58.3-32.9L142.6,256l24.3,41.2
            l58.3-32.9C223.6,258.9,223.6,253.1,225.2,247.8z M161.1,193.2l19.6-33.2h-77.8l-0.1,0.3L161.1,193.2z M180.7,352l-19.6-33.2
            l-58.3,32.9l0.1,0.3H180.7z M133.3,240.3L153,207l-58-32.8c-0.1,0.1-0.2,0.3-0.3,0.5L133.3,240.3z M153,305.1l-19.6-33.3
            l-38.7,65.6c0.1,0.1,0.2,0.3,0.3,0.4L153,305.1z M124,256l-43.2-73.4c-0.3,0.1-0.5,0.2-0.8,0.2v146.3c0.3,0.1,0.5,0.2,0.8,0.2
            L124,256z M88,152c0-8.8-7.2-16-16-16s-16,7.2-16,16s7.2,16,16,16S88,160.8,88,152z M88,360c0-8.8-7.2-16-16-16s-16,7.2-16,16
            s7.2,16,16,16S88,368.8,88,360z"/>
    </symbol>

    <symbol id="check01" role="img" aria-labelledby="check01_title" viewBox="0 0 504.1 504.1">
        <title id="check01_title"></title>
        <path d="M480.1,144.7L256.4,365.9c-3.5,3.5-8.3,4.7-13,4.3c-4.7,0.4-9.5-0.8-13-4.3L98.9,235.5
            c-5.9-5.9-5.9-15.8,0-21.7l39.4-39c6.3-5.9,16.1-5.9,22.1,0l82.3,81.1L424.4,68.2C379.3,25.9,318.7,0,252.1,0
            C112.9,0,0,112.9,0,252.1s112.9,252.1,252.1,252.1s252.1-112.9,252.1-252.1C504.1,213.6,495.5,177.3,480.1,144.7z"/>
    </symbol>

    <symbol id="link01" role="img" aria-labelledby="link01_title" viewBox="0 0 512 512">
        <title id="link01_title"></title>
        <path d="M267.3,511.7c1.1,0,2.2-0.1,3.3-0.2c1-0.1,2.1-0.1,3.1-0.2c1.2-0.1,2.5-0.2,3.7-0.3c0.3,0,0.5,0,0.8-0.1
            c60-5.1,115.7-30.9,158.8-74c44.9-44.9,71-103.5,74.6-166.3c0-0.2,0-0.5,0-0.7c0.1-1,0.1-2.1,0.1-3.1c0-1,0.1-2.1,0.1-3.1
            c0-0.7,0-1.5,0.1-2.2c0-1.9,0.1-3.7,0.1-5.6c0-68.4-26.6-132.7-75-181S324.4,0,256,0S123.3,26.6,75,75S0,187.6,0,256
            c0,1.9,0,3.7,0.1,5.6c0,0.7,0,1.5,0.1,2.2c0,1,0.1,2.1,0.1,3.1c0,1,0.1,2.1,0.1,3.1c0,0.2,0,0.5,0,0.7C4,333.6,30.1,392.2,75,437
            c43.1,43.1,98.8,68.9,158.8,74c0.3,0,0.5,0,0.8,0.1c1.2,0.1,2.5,0.2,3.7,0.3c1,0.1,2.1,0.1,3.1,0.2c1.1,0.1,2.2,0.1,3.3,0.2
            c1.3,0.1,2.6,0.1,3.9,0.1c0.6,0,1.2,0,1.8,0c1.9,0,3.7,0.1,5.6,0.1s3.7,0,5.6-0.1c0.6,0,1.2,0,1.8,0
            C264.7,511.8,266,511.8,267.3,511.7z M77.8,378c-0.4-0.7-0.8-1.4-1.2-2.1c-21.4-32-33.8-68.5-36.2-106.2c0-0.6-0.1-1.2-0.1-1.9
            c0-0.7-0.1-1.4-0.1-2.1c0-1-0.1-2.1-0.1-3.1c0-0.6,0-1.1,0-1.7c0-1.6-0.1-3.3-0.1-4.9c0-119.1,96.9-216,216-216s216,96.9,216,216
            c0,1.6,0,3.3-0.1,4.9c0,0.6,0,1.1,0,1.7c0,1-0.1,2.1-0.1,3.1c0,0.7-0.1,1.4-0.1,2.1c0,0.6-0.1,1.2-0.1,1.9
            c-2.4,37.8-14.8,74.2-36.2,106.2c-0.5,0.7-0.8,1.4-1.2,2.1c-30,43.7-75.7,75.9-128.9,88.4c-0.3,0.1-0.7,0.2-1,0.2
            c-1.5,0.3-3,0.7-4.5,1c-0.4,0.1-0.8,0.2-1.2,0.2c-1.1,0.2-2.2,0.4-3.3,0.6c-0.6,0.1-1.3,0.2-1.9,0.3c-1.1,0.2-2.3,0.4-3.4,0.6
            c-0.8,0.1-1.6,0.3-2.5,0.4c-1,0.1-2,0.3-2.9,0.4c-0.7,0.1-1.4,0.2-2.1,0.3c-1.1,0.1-2.2,0.3-3.3,0.4c-0.7,0.1-1.4,0.2-2.2,0.2
            c-1.2,0.1-2.3,0.2-3.5,0.3c-0.6,0-1.2,0.1-1.7,0.1c-1.4,0.1-2.8,0.2-4.2,0.3c-0.3,0-0.6,0-0.9,0c-1.5,0.1-3,0.1-4.5,0.2
            c-0.4,0-0.9,0-1.3,0c-1.6,0-3.3,0.1-4.9,0.1s-3.3,0-4.9-0.1c-0.4,0-0.9,0-1.3,0c-1.5,0-3-0.1-4.5-0.2c-0.3,0-0.6,0-0.9,0
            c-1.4-0.1-2.8-0.2-4.2-0.3c-0.6,0-1.2-0.1-1.7-0.1c-1.2-0.1-2.3-0.2-3.5-0.3c-0.7-0.1-1.4-0.1-2.2-0.2c-1.1-0.1-2.2-0.2-3.3-0.4
            c-0.7-0.1-1.4-0.2-2.1-0.3c-1-0.1-2-0.3-2.9-0.4c-0.8-0.1-1.6-0.2-2.5-0.4c-1.1-0.2-2.3-0.4-3.4-0.6c-0.6-0.1-1.3-0.2-1.9-0.3
            c-1.1-0.2-2.2-0.4-3.3-0.6c-0.4-0.1-0.8-0.2-1.2-0.2c-1.5-0.3-3-0.6-4.5-1c-0.3-0.1-0.7-0.2-1-0.2
            C153.5,453.9,107.9,421.7,77.8,378z"/>
        <path d="M339.2,276l-72.3,71.8c-7.8,7.8-7.9,20.4-0.1,28.3c3.9,3.9,9,5.9,14.2,5.9c5.1,0,10.2-1.9,14.1-5.8l78.2-77.7
            c11.4-11.3,17.7-26.4,17.7-42.5s-6.3-31.1-17.7-42.5l-78.2-77.7c-7.8-7.8-20.5-7.7-28.3,0.1c-7.8,7.8-7.7,20.5,0.1,28.3l72.3,71.8
            H132c-11,0-20,9-20,20s9,20,20,20H339.2z"/>
    </symbol>

	<symbol id="services01" role="img" aria-labelledby="services01_title" viewBox="0 0 64 64">
        <title id="services01_title"></title>
        <rect x="14" y="5" width="2" height="2"/>
        <rect x="18" y="5" width="2" height="2"/>
        <rect x="22" y="5" width="2" height="2"/>
        <path d="M57,6H54V5a3,3,0,0,0-3-3H13a3,3,0,0,0-3,3V6H7a5.006,5.006,0,0,0-5,5V43a5.006,5.006,0,0,0,5,5H24v6H14a4,4,0,0,0,0,8H50a4,4,0,0,0,0-8H40V48H57a5.006,5.006,0,0,0,5-5V11A5.006,5.006,0,0,0,57,6ZM48,20H45a1,1,0,0,0,0,2h3v2H45a1,1,0,0,0,0,2h3v2H45a1,1,0,0,0,0,2h3v2H45a1,1,0,0,0,0,2h3v2H45a1,1,0,0,0,0,2h3v2H40V18h8Zm2-3a1,1,0,0,0-1-1H39a1,1,0,0,0-1,1V40H36V21a.992.992,0,0,0-.1-.412c0-.011,0-.024-.008-.035l-3-6a1.042,1.042,0,0,0-1.79,0l-3,6c0,.011,0,.024-.008.035A.992.992,0,0,0,28,21V40H23.1l.84-9.243A1.993,1.993,0,0,0,25,29V28a2,2,0,0,0-1.176-1.818A4.951,4.951,0,0,0,25,23c0-2.31-1.844-7.717-2.055-8.327a1,1,0,0,0-1.639-.393C19.826,15.708,15,20.556,15,23a4.951,4.951,0,0,0,1.176,3.182A2,2,0,0,0,15,28v1a1.993,1.993,0,0,0,1.065,1.757L16.905,40H12V10H52V40H50ZM30,40V23.414l1,1V40Zm2-17.414L30.217,20.8,32,17.236,33.783,20.8Zm1,1.828,1-1V40H33ZM17,23c0-.919,2.19-3.694,4.557-6.143A29.441,29.441,0,0,1,23,23a3,3,0,0,1-6,0Zm0,5h6v1H17ZM18.1,31h3.81l-.818,9H18.913ZM10,40H8V12h2ZM54,12h2V40H54ZM12,5a1,1,0,0,1,1-1H51a1,1,0,0,1,1,1V8H12ZM52,58a2,2,0,0,1-2,2H14a2,2,0,0,1,0-4H50A2,2,0,0,1,52,58ZM38,54H26V48H38ZM60,43a3,3,0,0,1-3,3H7a3,3,0,0,1-3-3V11A3,3,0,0,1,7,8h3v2H7a1,1,0,0,0-1,1V41a1,1,0,0,0,1,1H57a1,1,0,0,0,1-1V11a1,1,0,0,0-1-1H54V8h3a3,3,0,0,1,3,3Z"/>
    </symbol>

    <symbol id="services02" role="img" aria-labelledby="services02_title" viewBox="0 0 64 64">
        <title id="services02_title"></title>
        <path d="m6 5h2v2h-2z"/>
        <path d="m10 5h2v2h-2z"/>
        <path d="m14 5h2v2h-2z"/>
        <path d="m59 2h-54a3 3 0 0 0 -3 3v44a3 3 0 0 0 3 3h10v-2h-10a1 1 0 0 1 -1-1v-39h56v39a1 1 0 0 1 -1 1h-10v2h10a3 3 0 0 0 3-3v-44a3 3 0 0 0 -3-3zm-55 6v-3a1 1 0 0 1 1-1h54a1 1 0 0 1 1 1v3z"/>
        <path d="m35 62h-6a1 1 0 0 1 -1-1v-3.538a14.886 14.886 0 0 1 -3.4-1.411l-2.5 2.506a1 1 0 0 1 -.707.293 1 1 0 0 1 -.707-.293l-4.24-4.24a1 1 0 0 1 0-1.414l2.503-2.503a14.885 14.885 0 0 1 -1.411-3.4h-3.538a1 1 0 0 1 -1-1v-6a1 1 0 0 1 1-1h3.538a14.885 14.885 0 0 1 1.411-3.4l-2.506-2.5a1 1 0 0 1 0-1.414l4.24-4.24a1.028 1.028 0 0 1 1.414 0l2.503 2.503a14.886 14.886 0 0 1 3.4-1.411v-3.538a1 1 0 0 1 1-1h6a1 1 0 0 1 1 1v3.538a14.9 14.9 0 0 1 3.4 1.411l2.5-2.506a1 1 0 0 1 .707-.293 1 1 0 0 1 .707.293l4.24 4.24a1 1 0 0 1 0 1.414l-2.503 2.503a14.885 14.885 0 0 1 1.411 3.4h3.538a1 1 0 0 1 1 1v6a1 1 0 0 1 -1 1h-3.538a14.885 14.885 0 0 1 -1.411 3.4l2.506 2.5a1 1 0 0 1 0 1.414l-4.24 4.24a1.029 1.029 0 0 1 -1.414 0l-2.503-2.503a14.9 14.9 0 0 1 -3.4 1.411v3.538a1 1 0 0 1 -1 1zm-5-2h4v-3.32a1 1 0 0 1 .785-.976 12.96 12.96 0 0 0 4.225-1.755 1 1 0 0 1 1.247.134l2.353 2.353 2.826-2.826-2.353-2.353a1 1 0 0 1 -.135-1.248 12.9 12.9 0 0 0 1.752-4.223 1 1 0 0 1 .98-.786h3.32v-4h-3.32a1 1 0 0 1 -.977-.786 12.9 12.9 0 0 0 -1.755-4.223 1 1 0 0 1 .135-1.248l2.353-2.353-2.826-2.826-2.353 2.353a1 1 0 0 1 -1.247.134 12.96 12.96 0 0 0 -4.225-1.751 1 1 0 0 1 -.785-.98v-3.32h-4v3.32a1 1 0 0 1 -.785.976 12.96 12.96 0 0 0 -4.225 1.755 1 1 0 0 1 -1.247-.134l-2.353-2.353-2.826 2.826 2.353 2.353a1 1 0 0 1 .135 1.248 12.9 12.9 0 0 0 -1.752 4.223 1 1 0 0 1 -.98.786h-3.32v4h3.32a1 1 0 0 1 .977.786 12.9 12.9 0 0 0 1.755 4.223 1 1 0 0 1 -.135 1.248l-2.353 2.353 2.826 2.826 2.353-2.353a1 1 0 0 1 1.247-.134 12.96 12.96 0 0 0 4.225 1.751 1 1 0 0 1 .785.98z"/>
        <path d="m32 54a11 11 0 1 1 11-11 11.013 11.013 0 0 1 -11 11zm0-20a9 9 0 1 0 9 9 9.01 9.01 0 0 0 -9-9z"/>
        <path d="m28 47a1 1 0 0 1 -.707-.293l-3-3a1 1 0 0 1 0-1.414l3-3a1 1 0 0 1 1.414 1.414l-2.293 2.293 2.293 2.293a1 1 0 0 1 -.707 1.707z"/>
        <path d="m36 47a1 1 0 0 1 -.707-1.707l2.293-2.293-2.293-2.293a1 1 0 0 1 1.414-1.414l3 3a1 1 0 0 1 0 1.414l-3 3a1 1 0 0 1 -.707.293z"/>
        <path d="m31 49a.948.948 0 0 1 -.2-.02 1 1 0 0 1 -.78-1.18l2-10a1 1 0 1 1 1.96.392l-2 10a1 1 0 0 1 -.98.808z"/>
        <path d="m21 26h-14a1 1 0 0 1 -1-1v-12a1 1 0 0 1 1-1h14a1 1 0 0 1 1 1v12a1 1 0 0 1 -1 1zm-13-2h12v-10h-12z"/>
        <path d="m13 32h-6a1 1 0 0 1 0-2h6a1 1 0 0 1 0 2z"/>
        <path d="m13 38h-6a1 1 0 0 1 0-2h6a1 1 0 0 1 0 2z"/>
        <path d="m57 22h-32a1 1 0 0 1 -1-1v-8a1 1 0 0 1 1-1h32a1 1 0 0 1 1 1v8a1 1 0 0 1 -1 1zm-31-2h30v-6h-30z"/>
        <path d="m57 28h-9a1 1 0 0 1 0-2h9a1 1 0 0 1 0 2z"/>
        <path d="m57 34h-6a1 1 0 0 1 0-2h6a1 1 0 0 1 0 2z"/>
        <path d="m57 40h-3a1 1 0 0 1 0-2h3a1 1 0 0 1 0 2z"/>
        <path d="m57 46h-3a1 1 0 0 1 0-2h3a1 1 0 0 1 0 2z"/>
        <path d="m10 44h-3a1 1 0 0 1 0-2h3a1 1 0 0 1 0 2z"/>
    </symbol>

    <symbol id="services03" role="img" aria-labelledby="services03_title" viewBox="0 0 480 480">
        <title id="services03_title"></title>
        <path d="m32 24h16v16h-16zm0 0"/>
        <path d="m64 24h16v16h-16zm0 0"/>
        <path d="m96 24h16v16h-16zm0 0"/>
        <path d="m280 200h-80v64h80zm-16 48h-48v-32h48zm0 0"/>
        <path d="m328 304v-16h-16v-113.472656c9.554688-3.378906 15.957031-12.394532 16-22.527344v-32c0-13.253906-10.746094-24-24-24h-192c-13.253906 0-24 10.746094-24 24v32c.042969 10.132812 6.445312 19.148438 16 22.527344v113.472656h-16v16zm-160-16h-24v-64c0-4.417969 3.582031-8 8-8h8c4.417969 0 8 3.582031 8 8zm128-176h8c4.417969 0 8 3.582031 8 8v32c0 4.417969-3.582031 8-8 8s-8-3.582031-8-8zm-32 0h16v40c0 4.417969-3.582031 8-8 8s-8-3.582031-8-8zm-32 0h16v40c0 4.417969-3.582031 8-8 8s-8-3.582031-8-8zm-32 0h16v40c0 4.417969-3.582031 8-8 8s-8-3.582031-8-8zm-32 0h16v40c0 4.417969-3.582031 8-8 8s-8-3.582031-8-8zm-32 0h16v40c0 4.417969-3.582031 8-8 8s-8-3.582031-8-8zm-8 57.761719c9.042969 8.320312 22.957031 8.320312 32 0 9.042969 8.320312 22.957031 8.320312 32 0 9.042969 8.320312 22.957031 8.320312 32 0 9.042969 8.320312 22.957031 8.320312 32 0 9.042969 8.320312 22.957031 8.320312 32 0 2.328125 2.105469 5.046875 3.734375 8 4.796875v113.441406h-112v-64c0-13.253906-10.746094-24-24-24h-8c-13.253906 0-24 10.746094-24 24v64h-8v-113.472656c2.953125-1.050782 5.671875-2.667969 8-4.765625zm-24-49.761719c0-4.417969 3.582031-8 8-8h8v40c0 4.417969-3.582031 8-8 8s-8-3.582031-8-8zm0 0"/>
        <path d="m360 368h-320c-4.417969 0-8 3.582031-8 8v96c0 4.417969 3.582031 8 8 8h320c4.417969 0 8-3.582031 8-8v-96c0-4.417969-3.582031-8-8-8zm-8 96h-304v-80h304zm0 0"/>
        <path d="m64 392h16v16h-16zm0 0"/>
        <path d="m96 392h16v16h-16zm0 0"/>
        <path d="m128 392h16v16h-16zm0 0"/>
        <path d="m160 392h16v16h-16zm0 0"/>
        <path d="m192 392h16v16h-16zm0 0"/>
        <path d="m224 392h16v16h-16zm0 0"/>
        <path d="m256 392h16v16h-16zm0 0"/>
        <path d="m288 392h16v16h-16zm0 0"/>
        <path d="m64 416h16v16h-16zm0 0"/>
        <path d="m96 416h16v16h-16zm0 0"/>
        <path d="m128 416h16v16h-16zm0 0"/>
        <path d="m160 416h16v16h-16zm0 0"/>
        <path d="m192 416h16v16h-16zm0 0"/>
        <path d="m224 416h16v16h-16zm0 0"/>
        <path d="m256 416h16v16h-16zm0 0"/>
        <path d="m288 416h16v16h-16zm0 0"/>
        <path d="m64 440h16v16h-16zm0 0"/>
        <path d="m96 440h16v16h-16zm0 0"/>
        <path d="m128 440h144v16h-144zm0 0"/>
        <path d="m288 440h16v16h-16zm0 0"/>
        <path d="m320 392h16v16h-16zm0 0"/>
        <path d="m320 416h16v16h-16zm0 0"/>
        <path d="m320 440h16v16h-16zm0 0"/>
        <path d="m440 120h-24v-96c0-13.253906-10.746094-24-24-24h-368c-13.253906 0-24 10.746094-24 24v288c0 13.253906 10.746094 24 24 24h368c13.253906 0 24-10.746094 24-24v-176h24c13.253906 0 24 10.746094 24 24v160c0 13.253906-10.746094 24-24 24h-8c-13.253906 0-24 10.746094-24 24v16c-13.253906 0-24 10.746094-24 24v48c0 13.253906 10.746094 24 24 24h16c13.253906 0 24-10.746094 24-24v-48c0-13.253906-10.746094-24-24-24v-16c0-4.417969 3.582031-8 8-8h8c22.082031-.027344 39.972656-17.917969 40-40v-160c-.027344-22.082031-17.917969-39.972656-40-40zm-40 192c0 4.417969-3.582031 8-8 8h-368c-4.417969 0-8-3.582031-8-8v-248h384zm0-264h-384v-24c0-4.417969 3.582031-8 8-8h368c4.417969 0 8 3.582031 8 8zm32 360v48c0 4.417969-3.582031 8-8 8h-16c-4.417969 0-8-3.582031-8-8v-48c0-4.417969 3.582031-8 8-8h16c4.417969 0 8 3.582031 8 8zm0 0"/>
        <path d="m408 408h16v16h-16zm0 0"/>
    </symbol>

    <symbol id="services04" role="img" aria-labelledby="services04_title" viewBox="0 0 480 480">
        <title id="services04_title"></title>
        <path d="m196.558594 298.398438c-1.832032 4.914062-1.144532 10.414062 1.84375 14.722656 2.988281 4.308594 7.898437 6.878906 13.140625 6.878906h32.175781l13.601562 20.441406c1.488282 2.230469 3.996094 3.566406 6.679688 3.558594h48c2.675781 0 5.171875-1.335938 6.65625-3.558594l13.625-20.441406h32.175781c5.242188 0 10.152344-2.570312 13.140625-6.878906 2.988282-4.308594 3.675782-9.808594 1.84375-14.722656l-12.160156-32.421876c-5.105469-13.488281-17.039062-23.214843-31.28125-25.488281v-31.007812c.027344-8.007813-2.371094-15.835938-6.886719-22.449219-23.960937-35.03125-36.875-35.03125-41.113281-35.03125s-17.152344 0-41.113281 35.023438c-4.511719 6.617187-6.914063 14.445312-6.886719 22.457031v31.007812c-14.238281 2.273438-26.171875 11.988281-31.28125 25.472657zm111.203125 29.601562h-39.441407l-5.335937-8h50.113281zm44.574219-56.425781 12.121093 32.425781h-28.457031v-47.121094c7.476562 1.996094 13.539062 7.464844 16.296875 14.695313zm-96.335938-62.09375c-.023438-4.78125 1.402344-9.460938 4.089844-13.417969 15.191406-22.199219 24.902344-28.0625 27.910156-28.0625s12.71875 5.863281 27.910156 28.0625c2.6875 3.957031 4.113282 8.636719 4.089844 13.417969v94.519531h-64zm-32.296875 62.09375c2.757813-7.230469 8.820313-12.699219 16.296875-14.695313v47.121094h-28.457031zm0 0"/>
        <path d="m288 360c-17.671875 0-32 14.328125-32 32 0 16.480469 12.464844 48 32 48s32-31.519531 32-48c0-17.671875-14.328125-32-32-32zm0 64c-5.984375 0-16-20.039062-16-32 0-8.835938 7.164062-16 16-16s16 7.164062 16 16c0 12-10.015625 32-16 32zm0 0"/>
        <path d="m392 456c-.054688-6.582031-2.789062-12.855469-7.574219-17.378906-4.785156-4.519532-11.203125-6.898438-17.777343-6.582032-3.875-11.042968-15.148438-17.683593-26.683594-15.714843-11.539063 1.96875-19.972656 11.972656-19.964844 23.675781h16c0-4.417969 3.582031-8 8-8s8 3.582031 8 8c-.007812.449219-.042969.894531-.113281 1.335938-.34375 3.027343 1.058593 5.984374 3.617187 7.632812 2.5625 1.648438 5.835938 1.703125 8.449219.136719 1.222656-.734375 2.621094-1.113281 4.046875-1.105469 4.417969 0 8 3.582031 8 8s-3.582031 8-8 8h-160c-4.417969 0-8-3.582031-8-8s3.582031-8 8-8c1.425781-.007812 2.824219.371094 4.046875 1.105469 2.613281 1.566406 5.886719 1.511719 8.449219-.136719 2.558594-1.648438 3.960937-4.605469 3.617187-7.632812-.070312-.441407-.105469-.886719-.113281-1.335938 0-4.417969 3.582031-8 8-8s8 3.582031 8 8h16c.007812-11.703125-8.425781-21.707031-19.964844-23.675781-11.535156-1.96875-22.808594 4.671875-26.683594 15.714843-6.574218-.320312-13 2.050782-17.785156 6.574219-4.785156 4.523438-7.519531 10.800781-7.566406 17.386719.027344 2.730469.523438 5.4375 1.472656 8h-25.472656v16h256v-16h-25.472656c.949218-2.5625 1.445312-5.269531 1.472656-8zm0 0"/>
        <path d="m288 184c-13.253906 0-24 10.746094-24 24s10.746094 24 24 24 24-10.746094 24-24-10.746094-24-24-24zm0 32c-4.417969 0-8-3.582031-8-8s3.582031-8 8-8 8 3.582031 8 8-3.582031 8-8 8zm0 0"/>
        <path d="m376 328h16v32h-16zm0 0"/>
        <path d="m376 376h16v16h-16zm0 0"/>
        <path d="m408 344h16v32h-16zm0 0"/>
        <path d="m408 392h16v16h-16zm0 0"/>
        <path d="m184 328h16v32h-16zm0 0"/>
        <path d="m184 376h16v16h-16zm0 0"/>
        <path d="m152 344h16v32h-16zm0 0"/>
        <path d="m152 392h16v16h-16zm0 0"/>
        <path d="m456 0h-432c-13.253906 0-24 10.746094-24 24v400c0 13.253906 10.746094 24 24 24h144v-16h-144c-4.417969 0-8-3.582031-8-8v-344h448v344c0 4.417969-3.582031 8-8 8h-48v16h48c13.253906 0 24-10.746094 24-24v-400c0-13.253906-10.746094-24-24-24zm-440 64v-40c0-4.417969 3.582031-8 8-8h432c4.417969 0 8 3.582031 8 8v40zm0 0"/>
        <path d="m48 32h16v16h-16zm0 0"/>
        <path d="m80 32h16v16h-16zm0 0"/>
        <path d="m112 32h16v16h-16zm0 0"/>
        <path d="m184 112h16v16h-16zm0 0"/>
        <path d="m216 112h16v16h-16zm0 0"/>
        <path d="m248 112h16v16h-16zm0 0"/>
        <path d="m280 112h16v16h-16zm0 0"/>
        <path d="m176 32h176v16h-176zm0 0"/>
        <path d="m56 160h112v16h-112zm0 0"/>
        <path d="m56 192h112v16h-112zm0 0"/>
        <path d="m56 224h112v16h-112zm0 0"/>
    </symbol>

    <symbol id="footer-facebook" role="img" aria-labelledby="footer-facebook_title" viewBox="0 0 512 512">
        <title id="footer-facebook_title">Facebook</title>
        <path d="M314.829,135.492h70.595c11.423,0,20.682-9.26,20.682-20.682V20.682C406.107,9.26,396.848,0,385.425,0h-70.595
            c-76.282,0-138.341,62.06-138.341,138.341v49.913h-49.913c-11.422,0-20.682,9.26-20.682,20.682v94.127
            c0,11.423,9.26,20.682,20.682,20.682h49.913v167.572c0,11.423,9.26,20.682,20.682,20.682h94.127
            c11.423,0,20.682-9.259,20.682-20.682V323.746h49.913c9.49,0,17.763-6.458,20.065-15.666l23.532-94.127
            c1.544-6.179,0.156-12.725-3.763-17.744c-3.919-5.02-9.932-7.954-16.301-7.954H311.98v-49.913
            C311.98,136.77,313.258,135.492,314.829,135.492z M291.298,229.619h67.637l-13.191,52.763h-54.447
            c-11.423,0-20.682,9.259-20.682,20.682v167.572h-52.763V303.064c0-11.423-9.26-20.682-20.682-20.682h-49.913v-52.763h49.913
            c11.422,0,20.682-9.26,20.682-20.682v-70.595c0-53.473,43.503-96.977,96.977-96.977h49.913v52.763h-49.913
            c-24.38,0-44.214,19.835-44.214,44.214v70.595C270.615,220.359,279.875,229.619,291.298,229.619z"/>
    </symbol>

    <symbol id="footer-twitter" role="img" aria-labelledby="footer-twitter_title" viewBox="0 0 512 512">
        <title id="footer-twitter_title">Twitter</title>
        <path d="M502.954,47.189c-7.126-4.852-16.515-4.774-23.559,0.196c-15.351,10.828-31.974,19.528-49.557,25.948
            c-19.253-17.414-43.615-27.826-69.915-29.656c-31.056-2.16-61.081,7.9-84.561,28.326c-25.59,22.259-40.174,54.444-40.046,88.349
            c-85.248-7.609-139.14-61.55-177.09-108.986c-4.598-5.746-11.901-8.619-19.182-7.538c-7.279,1.078-13.438,5.944-16.171,12.777
            c-0.948,2.369-23.141,58.799-17.453,127.057c4.761,57.133,30.23,131.964,120.039,181.717
            c-32.436,14.756-68.282,21.939-103.953,20.519c-9.576-0.378-18.15,5.859-20.736,15.08c-2.587,9.221,1.497,19.013,9.869,23.665
            c51.359,28.532,108.03,43.736,163.889,43.965c0.432,0.002,0.861,0.003,1.294,0.003c54.105-0.001,106.379-13.938,151.246-40.336
            c42.898-25.241,78.416-61.759,102.715-105.603c26.162-47.206,39.427-101.75,39.427-162.186c-0.011-3.544-0.186-7.098-0.52-10.638
            c20.7-22.885,35.388-50.567,42.719-80.667C513.451,60.803,510.081,52.04,502.954,47.189z M432.297,128.07
            c-4.916,4.847-7.088,11.827-5.793,18.607c0.877,4.588,1.329,9.278,1.344,13.874c0,101.956-44.378,186.544-121.756,232.072
            c-60.586,35.649-133.037,43.933-203.609,25.057c0.729-0.201,1.459-0.407,2.185-0.615c27.596-7.885,53.63-20.055,77.377-36.174
            c6.329-4.296,9.77-11.734,8.946-19.34c-0.825-7.605-5.778-14.134-12.881-16.975C97.757,312.434,53.563,257.594,46.757,181.575
            c-2.536-28.334,0.707-54.721,4.766-74.501c16.638,17.909,37.384,37.227,62.129,53.407c42.771,27.966,90.663,42.146,142.346,42.146
            c11.423,0,20.682-9.26,20.682-20.682v-21.393c0-0.045,0-0.091,0-0.137c-0.146-21.948,9.268-42.797,25.829-57.202
            c15.146-13.175,34.51-19.665,54.543-18.27c20.026,1.393,38.311,10.502,51.487,25.648c5.339,6.138,13.783,8.577,21.567,6.229
            c5.725-1.724,11.375-3.645,16.941-5.757C442.599,117.081,437.672,122.769,432.297,128.07z"/>
    </symbol>    

    <symbol id="footer-linkedin" role="img" aria-labelledby="footer-linkedin_title" viewBox="0 0 512 512">
        <title id="footer-linkedin_title">Linkedin</title>
        <path d="M2.5,510V153.7h137.3V510H2.5z M102.5,472.7V191H39.8v281.7H102.5z"/>
        <path d="M375.4,510l0.1-158.1c0.5-23.6-8.8-42.9-24.9-51.7c-5.4-3-11.2-4.5-17.3-4.5c-5.2,0-10.4,1.1-15.5,3.3l-1.1,211H176.1
            V153.7h140.6V166c16.6-6,33.6-9.1,50.6-9.1c24.7,0,48.3,6.4,70.2,18.9c44,25.2,72.5,71.8,72.5,118.8V510H375.4z M472.7,472.7V294.6
            c0-33.8-21.1-67.7-53.7-86.4c-15.9-9.1-33.8-13.9-51.7-14h-0.3c-20.1,0-40.1,5.8-59.6,17.3L279.4,228V191h-66.1v281.7h66.2l1-194.7
            l8.2-5.5c13.7-9.2,29.1-14.1,44.5-14.1c12.4,0,24.2,3,35.1,9c13.7,7.5,25,19.2,32.8,33.8c7.9,14.9,11.9,32.6,11.5,51.1l0,120.3
            H472.7z"/>
        <path d="M70.9,139.9C32.9,139.9,2,109,2,71c0-38,30.9-69,68.9-69c38,0,68.9,30.9,68.9,69C139.8,109,108.9,139.9,70.9,139.9z
             M70.9,39.3c-17.4,0-31.6,14.2-31.6,31.7c0,17.5,14.2,31.7,31.6,31.7c17.4,0,31.6-14.2,31.6-31.7C102.5,53.5,88.3,39.3,70.9,39.3z"
            />
    </symbol>

    <symbol id="footer-instagram" role="img" aria-labelledby="footer-instagram_title" viewBox="0 0 512 512">
        <title id="footer-instagram_title">Instagram</title>
        <path d="M373.659,0H138.341C62.06,0,0,62.06,0,138.341v235.318C0,449.94,62.06,512,138.341,512h235.318
            C449.94,512,512,449.94,512,373.659V138.341C512,62.06,449.94,0,373.659,0z M470.636,373.659
            c0,53.473-43.503,96.977-96.977,96.977H138.341c-53.473,0-96.977-43.503-96.977-96.977V138.341
            c0-53.473,43.503-96.977,96.977-96.977h235.318c53.473,0,96.977,43.503,96.977,96.977V373.659z"/>
        <path d="M370.586,238.141c-3.64-24.547-14.839-46.795-32.386-64.342c-17.547-17.546-39.795-28.746-64.341-32.385
            c-11.176-1.657-22.507-1.657-33.682,0c-30.336,4.499-57.103,20.541-75.372,45.172c-18.269,24.631-25.854,54.903-21.355,85.237
            c4.499,30.335,20.541,57.102,45.172,75.372c19.996,14.831,43.706,22.619,68.153,22.619c5.667,0,11.375-0.418,17.083-1.265
            c30.336-4.499,57.103-20.541,75.372-45.172C367.5,298.747,375.085,268.476,370.586,238.141z M267.791,327.632
            c-19.405,2.882-38.77-1.973-54.527-13.66c-15.757-11.687-26.019-28.811-28.896-48.216c-2.878-19.405,1.973-38.77,13.66-54.527
            c11.688-15.757,28.811-26.019,48.217-28.897c3.574-0.53,7.173-0.795,10.772-0.795s7.199,0.265,10.773,0.796
            c32.231,4.779,57.098,29.645,61.878,61.877C335.608,284.268,307.851,321.692,267.791,327.632z"/>
        <path d="M400.049,111.951c-3.852-3.851-9.183-6.058-14.625-6.058c-5.442,0-10.773,2.206-14.625,6.058
            c-3.851,3.852-6.058,9.174-6.058,14.625c0,5.451,2.207,10.773,6.058,14.625c3.852,3.851,9.183,6.058,14.625,6.058
            c5.442,0,10.773-2.206,14.625-6.058c3.851-3.852,6.058-9.183,6.058-14.625C406.107,121.133,403.9,115.802,400.049,111.951z"/>
    </symbol>

    <symbol id="footer-phone" role="img" aria-labelledby="footer-phone_title" viewBox="0 0 512 512">
        <title id="footer-phone_title"></title>
        <path d="M421.216,195.504c-5.092-26.101-17.723-49.836-36.526-68.64c-18.804-18.803-42.54-31.434-68.641-36.527
			c-11.21-2.189-22.073,5.128-24.261,16.339c-2.187,11.212,5.128,22.073,16.339,24.26c36.847,7.188,65.3,35.642,72.489,72.489
			c1.927,9.874,10.581,16.726,20.278,16.726c1.313,0,2.645-0.125,3.984-0.387C416.088,217.577,423.403,206.715,421.216,195.504z"/>
		<path d="M511.422,196.929c-5.629-50.096-28.373-97.304-64.042-132.927C411.712,28.378,364.475,5.694,314.371,0.128
			c-11.355-1.261-21.578,6.92-22.839,18.272c-1.261,11.353,6.919,21.578,18.272,22.84c84.961,9.438,150.966,75.36,160.512,160.31
			c1.188,10.566,10.139,18.374,20.527,18.374c0.771,0,1.552-0.043,2.336-0.131C504.53,218.516,512.698,208.281,511.422,196.929z"/>
		<path d="M432.59,312.566c-0.062-0.008-0.124-0.017-0.186-0.025c-20.013-2.639-39.751-7.557-58.619-14.596
			c-23.91-8.99-51.103-3.191-69.27,14.772c-0.028,0.028-0.056,0.055-0.083,0.083l-17.148,17.148
			c-42.633-26.924-78.756-63.047-105.679-105.679l17.149-17.149c0.027-0.028,0.054-0.055,0.082-0.083
			c17.964-18.166,23.762-45.356,14.79-69.223c-7.057-18.914-11.974-38.653-14.614-58.666c-0.007-0.063-0.017-0.127-0.026-0.19
			c-4.591-32.478-32.782-56.734-65.548-56.467H66.053c-1.943,0.002-3.912,0.091-5.853,0.267
			C24.143,26.016-2.541,58.001,0.718,94.058c0.01,0.108,0.02,0.215,0.032,0.323c7.684,72.354,32.649,142.88,72.197,203.955
			c35.892,56.461,84.701,105.269,141.162,141.164c60.792,39.406,130.99,64.369,203.013,72.196c0.127,0.015,0.254,0.027,0.38,0.038
			c1.961,0.176,3.949,0.266,5.921,0.266c0.083,0,0.165,0,0.247,0.001c36.204-0.148,65.538-29.722,65.391-65.841v-67.233
			C489.746,345.714,465.515,317.211,432.59,312.566z M447.698,378.695v67.548c0.055,13.396-10.8,24.338-24.19,24.393
			c-0.715-0.004-1.425-0.027-2.135-0.086c-65.578-7.161-129.488-29.914-184.837-65.808c-0.053-0.035-0.107-0.069-0.161-0.103
			c-51.429-32.68-95.885-77.137-128.565-128.565c-0.032-0.051-0.064-0.101-0.097-0.153C71.683,220.306,48.928,156.086,41.902,90.193
			C40.779,76.91,50.63,65.155,63.923,63.954c0.717-0.064,1.443-0.098,2.145-0.098h67.463c0.146-0.001,0.294-0.003,0.443-0.002
			c12.021,0,22.322,8.905,24.044,20.819c3.05,23.063,8.721,45.806,16.871,67.649c3.319,8.832,1.189,18.869-5.427,25.591
			l-28.517,28.517c-6.583,6.582-7.956,16.753-3.354,24.847c33.837,59.508,83.177,108.847,142.685,142.685
			c8.094,4.6,18.264,3.23,24.848-3.355l28.512-28.512c6.72-6.621,16.765-8.752,25.642-5.415
			c21.799,8.134,44.547,13.805,67.61,16.855c12.18,1.757,21.122,12.339,20.816,24.647
			C447.7,378.353,447.698,378.524,447.698,378.695z"/>
    </symbol>    

	<symbol id="footer-mail" role="img" aria-labelledby="footer-mail_title" viewBox="0 0 512 512">
        <title id="footer-mail_title"></title>
        <path d="M256,141.176c-63.306,0-114.809,51.503-114.809,114.809S192.694,370.795,256,370.795s114.809-51.503,114.809-114.809
			S319.306,141.176,256,141.176z M256,329.43c-40.498,0-73.445-32.947-73.445-73.445c0-40.498,32.947-73.445,73.445-73.445
			c40.499,0,73.445,32.947,73.445,73.445C329.445,296.483,296.499,329.43,256,329.43z"/>
		<path d="M437.008,74.97C388.656,26.623,324.375,0,256,0c-0.005,0-0.013,0-0.017,0C187.603,0.004,123.318,26.637,74.97,74.992
			C26.62,123.347-0.005,187.637,0,256.017c0.004,68.379,26.637,132.666,74.992,181.014C123.344,485.377,187.625,512.001,256,512
			c0.004,0,0.012,0,0.017,0c55.945-0.004,111.216-18.738,155.631-52.752c9.07-6.945,10.792-19.927,3.846-28.995
			c-6.945-9.069-19.926-10.794-28.995-3.846c-37.24,28.518-83.58,44.224-130.486,44.228c-0.006,0-0.006,0-0.014,0
			c-57.324,0-111.224-22.324-151.761-62.856c-40.542-40.536-62.871-94.435-62.875-151.766
			C41.357,137.663,137.636,41.372,255.986,41.364c0.007,0,0.006,0,0.014,0c118.34,0,214.628,96.279,214.636,214.622v23.532
			c0,27.523-22.39,49.913-49.913,49.913c-27.523,0-49.913-22.391-49.913-49.913v-23.532c0-11.422-9.259-20.682-20.682-20.682
			s-20.682,9.26-20.682,20.682v23.532c0,50.33,40.947,91.278,91.278,91.278S512,329.848,512,279.518v-23.534
			C511.995,187.604,485.362,123.318,437.008,74.97z"/>
    </symbol>

    <symbol id="footer-location" role="img" aria-labelledby="footer-location_title" viewBox="0 0 512 512">
        <title id="footer-location_title"></title>
        <path d="M406.766,62.449C366.495,22.178,312.951,0,256,0S145.505,22.178,105.234,62.449
			c-40.272,40.271-62.449,93.814-62.449,150.766c0,37.656,10.972,76.863,32.609,116.532c16.825,30.846,40.15,62.102,69.326,92.898
			c49.17,51.903,97.763,84.519,99.808,85.881C248.001,510.842,252,512,256,512c4,0,7.999-1.158,11.473-3.474
			c2.045-1.363,50.638-33.978,99.808-85.881c29.176-30.795,52.501-62.051,69.326-92.898c21.637-39.669,32.609-78.876,32.609-116.532
			C469.215,156.263,447.038,102.72,406.766,62.449z M256.001,465.903C215.826,436.156,84.15,329.739,84.15,213.215
			c0-94.759,77.091-171.851,171.85-171.851s171.85,77.092,171.851,171.851C427.851,329.748,296.159,436.168,256.001,465.903z"/>
		<path d="M256,128.355c-46.791,0-84.86,38.068-84.86,84.86c0,46.791,38.068,84.86,84.86,84.86c46.792,0,84.861-38.068,84.86-84.86
			C340.86,166.423,302.791,128.355,256,128.355z M256,256.71c-23.983,0-43.495-19.512-43.495-43.495
			c0-23.983,19.512-43.495,43.495-43.495c23.984,0,43.495,19.512,43.495,43.495C299.495,237.198,279.984,256.71,256,256.71z"/>
		</symbol>

	<symbol id="footer-time" role="img" aria-labelledby="footer-time_title" viewBox="0 0 512 512">
        <title id="footer-time_title"></title>
        <path d="M437.019,74.981C388.667,26.629,324.38,0,256,0S123.333,26.63,74.981,74.981S0,187.62,0,256
			s26.629,132.667,74.981,181.019C123.332,485.371,187.62,512,256,512s132.667-26.629,181.019-74.981
			C485.371,388.667,512,324.38,512,256S485.371,123.332,437.019,74.981z M256,470.636C137.65,470.636,41.364,374.35,41.364,256
			S137.65,41.364,256,41.364S470.636,137.65,470.636,256S374.35,470.636,256,470.636z"/>
		<path d="M341.221,311.97l-64.538-64.537V114.809c0-11.422-9.259-20.682-20.682-20.682c-11.422,0-20.682,9.26-20.682,20.682V256
			c0,5.486,2.179,10.746,6.058,14.625l70.594,70.595c4.038,4.039,9.332,6.058,14.625,6.058c5.293,0,10.586-2.019,14.626-6.058
			C349.297,333.142,349.297,320.047,341.221,311.97z"/>
	</symbol>

</svg>