<svg xmlns="http://www.w3.org/2000/svg" xmlns:xlink="http://www.w3.org/1999/xlink">

	<symbol id="header-search" role="img" aria-labelledby="header-search_title" viewBox="0 0 512 512">
        <title id="header-search_title"></title>
	    <path d="m506.144531 477.859375-120.5-120.496094c32.597657-39.074219 50.355469-87.851562 50.355469-139.363281 0-120.480469-97.5-218-218-218-120.480469 0-218 97.5-218 218 0 120.480469 97.5 218 218 218 51.511719 0 100.285156-17.753906 139.359375-50.355469l120.496094 120.496094c7.8125 7.8125 20.476562 7.8125 28.285156 0 7.8125-7.808594 7.8125-20.472656.003906-28.28125zm-466.144531-259.859375c0-98.148438 79.851562-178 178-178s178 79.851562 178 178-79.851562 178-178 178-178-79.851562-178-178zm0 0"/>
	</symbol>

	<symbol id="header-faq" role="img" aria-labelledby="header-faq_title" viewBox="0 0 512 512">
        <title id="header-faq_title"></title>
		<path style="fill:#32497c;" d="M248.158,343.22c-14.639,0-26.491,12.2-26.491,26.84c0,14.291,11.503,26.84,26.491,26.84
			c14.988,0,26.84-12.548,26.84-26.84C274.998,355.42,262.799,343.22,248.158,343.22z"/>
		<path style="fill:#32497c;" d="M252.69,140.002c-47.057,0-68.668,27.885-68.668,46.708c0,13.595,11.502,19.869,20.914,19.869
			c18.822,0,11.154-26.84,46.708-26.84c17.429,0,31.372,7.669,31.372,23.703c0,18.824-19.52,29.629-31.023,39.389
			c-10.108,8.714-23.354,23.006-23.354,52.983c0,18.125,4.879,23.354,19.171,23.354c17.08,0,20.565-7.668,20.565-14.291
			c0-18.126,0.35-28.583,19.521-43.571c9.411-7.32,39.04-31.023,39.04-63.789S297.307,140.002,252.69,140.002z"/>
		<path style="fill:#2185c5;" d="M256,0C114.516,0,0,114.497,0,256v236c0,11.046,8.954,20,20,20h236c141.483,0,256-114.497,256-256
			C512,114.516,397.503,0,256,0z M256,472H40V256c0-119.377,96.607-216,216-216c119.377,0,216,96.607,216,216
			C472,375.377,375.393,472,256,472z"/>
    </symbol>	

	<symbol id="header-profile" role="img" aria-labelledby="header-profile_title" viewBox="0 0 512 512">
        <title id="header-profile_title"></title>
        <path style="fill:#2185c5;" d="M256,314.134c-143.235,0-255.435,66.371-255.435,151.101v26.083c0,11.423,9.26,20.682,20.682,20.682
			s20.682-9.259,20.682-20.682v-26.083c0-59.484,98.032-109.737,214.071-109.737s214.071,50.253,214.071,109.737v26.083
			c0,11.423,9.259,20.682,20.682,20.682c11.423,0,20.682-9.26,20.682-20.682v-26.083C511.435,380.505,399.235,314.134,256,314.134z"
			/>
		<path style="fill:#32497c;" d="M380.793,106.679c-3.963-26.728-16.158-50.955-35.265-70.062c-19.107-19.107-43.334-31.3-70.063-35.264
			c-12.166-1.804-24.506-1.804-36.675,0c-68.189,10.112-115.438,73.814-105.327,142.003c4.898,33.032,22.367,62.18,49.188,82.073
			c21.774,16.15,47.593,24.632,74.213,24.631c6.171,0,12.386-0.456,18.601-1.378C343.655,238.57,390.904,174.868,380.793,106.679z
			 M269.399,207.765c-22.098,3.279-44.158-2.247-62.104-15.559c-17.947-13.311-29.635-32.815-32.912-54.917
			c-6.766-45.628,24.85-88.253,70.477-95.019c4.072-0.603,8.171-0.905,12.271-0.905s8.2,0.302,12.27,0.905
			c36.712,5.444,65.034,33.767,70.478,70.478C346.642,158.375,315.026,201,269.399,207.765z"/>
    </symbol>

    <symbol id="header-login" role="img" aria-labelledby="header-login_title" viewBox="0 0 512 512">
        <title id="header-login_title"></title>
        <path style="fill:#32497c;" d="M228.487,319.228c-7.811,7.811-7.811,20.474,0,28.284c7.81,7.81,20.474,7.811,28.285,0l77.37-77.37
			c7.789-7.789,7.774-20.51,0-28.284l-77.37-77.37c-7.811-7.811-20.475-7.811-28.285,0c-7.81,7.811-7.811,20.474,0,28.284
			L271.716,236H20c-11.046,0-20,8.954-20,20s8.954,20,20,20h251.716L228.487,319.228z"/>
		<path style="fill:#2185c5;" d="M433.543,7.75C429.754,2.861,423.918,0,417.733,0H170c-11.046,0-20,8.954-20,20s8.954,20,20,20h237.719
			C451.396,100.536,472,179.45,472,256c0,76.515-20.589,155.443-64.281,216H170c-11.046,0-20,8.954-20,20c0,11.046,8.954,20,20,20
			h247.733c6.185,0,12.022-2.861,15.81-7.75C486.683,435.671,512,344.876,512,256C512,167.134,486.686,76.333,433.543,7.75z"/>
    </symbol>

    <symbol id="header-cart" role="img" aria-labelledby="header-cart_title" viewBox="0 0 512 512">
        <title id="header-cart_title"></title>
        <polygon style="fill:#2185c5;" points="473.668,139.109 410.282,303.914 153.733,303.914 98.973,30.118 0,30.118 0,71.187 65.305,71.187 
			120.064,344.984 438.488,344.984 512,153.853 		"/>
		<path style="fill:#2185c5;" d="M191.658,358.674c-33.969,0-61.604,27.634-61.604,61.604s27.636,61.604,61.604,61.604
			c33.969,0,61.604-27.634,61.604-61.604S225.626,358.674,191.658,358.674z M191.658,440.813c-11.323,0-20.535-9.211-20.535-20.535
			s9.212-20.535,20.535-20.535c11.323,0,20.535,9.211,20.535,20.535S202.981,440.813,191.658,440.813z"/>
		<path style="fill:#2185c5;" d="M369.626,358.674c-33.969,0-61.604,27.634-61.604,61.604s27.636,61.604,61.604,61.604
			c33.969,0,61.604-27.634,61.604-61.604S403.594,358.674,369.626,358.674z M369.626,440.813c-11.323,0-20.535-9.211-20.535-20.535
			s9.212-20.535,20.535-20.535s20.535,9.211,20.535,20.535S380.949,440.813,369.626,440.813z"/>
		<path style="fill:#32497c;" d="M376.108,104.419c-4.805-13.676-11.458-25.504-19.96-35.484s-18.609-17.799-30.309-23.471
			c-11.706-5.666-24.338-8.501-37.887-8.501c-13.803,0-26.493,2.835-38.071,8.501c-11.586,5.672-21.623,13.491-30.124,23.471
			c-8.501,9.98-15.155,21.808-19.96,35.484c-4.805,13.676-7.208,28.646-7.208,44.91c0,16.263,2.403,31.233,7.208,44.909
			c4.805,13.676,11.458,25.504,19.96,35.484c8.501,9.979,18.539,17.742,30.124,23.286c11.579,5.544,24.268,8.317,38.071,8.317
			c13.549,0,26.18-2.772,37.887-8.317c11.701-5.544,21.808-13.307,30.309-23.286c8.501-9.98,15.155-21.808,19.96-35.484
			c4.805-13.676,7.208-28.646,7.208-44.91C383.315,133.065,380.913,118.095,376.108,104.419z M330.089,176.311
			c-2.218,8.132-5.36,15.155-9.425,21.069s-8.871,10.475-14.415,13.676c-5.544,3.205-11.643,4.805-18.296,4.805
			c-6.902,0-13.122-1.6-18.666-4.805c-5.544-3.199-10.349-7.762-14.415-13.676c-4.066-5.914-7.208-12.937-9.425-21.069
			s-3.327-17.125-3.327-26.983c0-9.853,1.109-18.908,3.327-27.167c2.218-8.252,5.36-15.339,9.425-21.253
			c4.066-5.914,8.871-10.47,14.415-13.676c5.544-3.199,11.765-4.805,18.666-4.805c6.653,0,12.752,1.606,18.296,4.805
			c5.544,3.206,10.35,7.762,14.415,13.676c4.066,5.914,7.208,13,9.425,21.253c2.218,8.259,3.327,17.315,3.327,27.167
			C333.416,159.187,332.307,168.18,330.089,176.311z"/>
    </symbol>

    <symbol id="label-plus" role="img" aria-labelledby="label-plus_title" viewBox="0 0 22.354 22.354">
        <title id="label-plus_title"></title>
	    <polygon points="8.61,22.354 13.744,22.354 13.744,13.744 22.354,13.744 22.354,8.611 13.744,8.611 13.744,0 8.61,0 8.61,8.611 
		0,8.611 0,13.744 8.61,13.744 	"/>
	</symbol>
	
	<symbol id="label-minus" role="img" aria-labelledby="label-minus_title" viewBox="0 0 22.354 22.354">
        <title id="label-minus_title"></title>
	    <rect y="8.61" width="22.354" height="5.133"/>
	</symbol>

	<symbol id="form-search" role="img" aria-labelledby="form-search_title" viewBox="0 0 56.966 56.966">
        <title id="form-search_title"></title>
	    <path d="M55.146,51.887L41.588,37.786c3.486-4.144,5.396-9.358,5.396-14.786c0-12.682-10.318-23-23-23s-23,10.318-23,23
			s10.318,23,23,23c4.761,0,9.298-1.436,13.177-4.162l13.661,14.208c0.571,0.593,1.339,0.92,2.162,0.92
			c0.779,0,1.518-0.297,2.079-0.837C56.255,54.982,56.293,53.08,55.146,51.887z M23.984,6c9.374,0,17,7.626,17,17s-7.626,17-17,17
			s-17-7.626-17-17S14.61,6,23.984,6z"/>
	</symbol>

    <symbol id="footer-phone" role="img" aria-labelledby="footer-phone_title" viewBox="0 0 512 512">
        <title id="footer-phone_title"></title>
        <path d="M421.216,195.504c-5.092-26.101-17.723-49.836-36.526-68.64c-18.804-18.803-42.54-31.434-68.641-36.527
			c-11.21-2.189-22.073,5.128-24.261,16.339c-2.187,11.212,5.128,22.073,16.339,24.26c36.847,7.188,65.3,35.642,72.489,72.489
			c1.927,9.874,10.581,16.726,20.278,16.726c1.313,0,2.645-0.125,3.984-0.387C416.088,217.577,423.403,206.715,421.216,195.504z"/>
		<path d="M511.422,196.929c-5.629-50.096-28.373-97.304-64.042-132.927C411.712,28.378,364.475,5.694,314.371,0.128
			c-11.355-1.261-21.578,6.92-22.839,18.272c-1.261,11.353,6.919,21.578,18.272,22.84c84.961,9.438,150.966,75.36,160.512,160.31
			c1.188,10.566,10.139,18.374,20.527,18.374c0.771,0,1.552-0.043,2.336-0.131C504.53,218.516,512.698,208.281,511.422,196.929z"/>
		<path d="M432.59,312.566c-0.062-0.008-0.124-0.017-0.186-0.025c-20.013-2.639-39.751-7.557-58.619-14.596
			c-23.91-8.99-51.103-3.191-69.27,14.772c-0.028,0.028-0.056,0.055-0.083,0.083l-17.148,17.148
			c-42.633-26.924-78.756-63.047-105.679-105.679l17.149-17.149c0.027-0.028,0.054-0.055,0.082-0.083
			c17.964-18.166,23.762-45.356,14.79-69.223c-7.057-18.914-11.974-38.653-14.614-58.666c-0.007-0.063-0.017-0.127-0.026-0.19
			c-4.591-32.478-32.782-56.734-65.548-56.467H66.053c-1.943,0.002-3.912,0.091-5.853,0.267
			C24.143,26.016-2.541,58.001,0.718,94.058c0.01,0.108,0.02,0.215,0.032,0.323c7.684,72.354,32.649,142.88,72.197,203.955
			c35.892,56.461,84.701,105.269,141.162,141.164c60.792,39.406,130.99,64.369,203.013,72.196c0.127,0.015,0.254,0.027,0.38,0.038
			c1.961,0.176,3.949,0.266,5.921,0.266c0.083,0,0.165,0,0.247,0.001c36.204-0.148,65.538-29.722,65.391-65.841v-67.233
			C489.746,345.714,465.515,317.211,432.59,312.566z M447.698,378.695v67.548c0.055,13.396-10.8,24.338-24.19,24.393
			c-0.715-0.004-1.425-0.027-2.135-0.086c-65.578-7.161-129.488-29.914-184.837-65.808c-0.053-0.035-0.107-0.069-0.161-0.103
			c-51.429-32.68-95.885-77.137-128.565-128.565c-0.032-0.051-0.064-0.101-0.097-0.153C71.683,220.306,48.928,156.086,41.902,90.193
			C40.779,76.91,50.63,65.155,63.923,63.954c0.717-0.064,1.443-0.098,2.145-0.098h67.463c0.146-0.001,0.294-0.003,0.443-0.002
			c12.021,0,22.322,8.905,24.044,20.819c3.05,23.063,8.721,45.806,16.871,67.649c3.319,8.832,1.189,18.869-5.427,25.591
			l-28.517,28.517c-6.583,6.582-7.956,16.753-3.354,24.847c33.837,59.508,83.177,108.847,142.685,142.685
			c8.094,4.6,18.264,3.23,24.848-3.355l28.512-28.512c6.72-6.621,16.765-8.752,25.642-5.415
			c21.799,8.134,44.547,13.805,67.61,16.855c12.18,1.757,21.122,12.339,20.816,24.647
			C447.7,378.353,447.698,378.524,447.698,378.695z"/>
    </symbol>    

	<symbol id="footer-mail" role="img" aria-labelledby="footer-mail_title" viewBox="0 0 512 512">
        <title id="footer-mail_title"></title>
        <path d="M256,141.176c-63.306,0-114.809,51.503-114.809,114.809S192.694,370.795,256,370.795s114.809-51.503,114.809-114.809
			S319.306,141.176,256,141.176z M256,329.43c-40.498,0-73.445-32.947-73.445-73.445c0-40.498,32.947-73.445,73.445-73.445
			c40.499,0,73.445,32.947,73.445,73.445C329.445,296.483,296.499,329.43,256,329.43z"/>
		<path d="M437.008,74.97C388.656,26.623,324.375,0,256,0c-0.005,0-0.013,0-0.017,0C187.603,0.004,123.318,26.637,74.97,74.992
			C26.62,123.347-0.005,187.637,0,256.017c0.004,68.379,26.637,132.666,74.992,181.014C123.344,485.377,187.625,512.001,256,512
			c0.004,0,0.012,0,0.017,0c55.945-0.004,111.216-18.738,155.631-52.752c9.07-6.945,10.792-19.927,3.846-28.995
			c-6.945-9.069-19.926-10.794-28.995-3.846c-37.24,28.518-83.58,44.224-130.486,44.228c-0.006,0-0.006,0-0.014,0
			c-57.324,0-111.224-22.324-151.761-62.856c-40.542-40.536-62.871-94.435-62.875-151.766
			C41.357,137.663,137.636,41.372,255.986,41.364c0.007,0,0.006,0,0.014,0c118.34,0,214.628,96.279,214.636,214.622v23.532
			c0,27.523-22.39,49.913-49.913,49.913c-27.523,0-49.913-22.391-49.913-49.913v-23.532c0-11.422-9.259-20.682-20.682-20.682
			s-20.682,9.26-20.682,20.682v23.532c0,50.33,40.947,91.278,91.278,91.278S512,329.848,512,279.518v-23.534
			C511.995,187.604,485.362,123.318,437.008,74.97z"/>
    </symbol>

    <symbol id="footer-time" role="img" aria-labelledby="ooter-time_title" viewBox="0 0 512 512">
        <title id="ooter-time_title"></title>
        <path d="M437.019,74.981C388.667,26.629,324.38,0,256,0S123.333,26.63,74.981,74.981S0,187.62,0,256
			s26.629,132.667,74.981,181.019C123.332,485.371,187.62,512,256,512s132.667-26.629,181.019-74.981
			C485.371,388.667,512,324.38,512,256S485.371,123.332,437.019,74.981z M256,470.636C137.65,470.636,41.364,374.35,41.364,256
			S137.65,41.364,256,41.364S470.636,137.65,470.636,256S374.35,470.636,256,470.636z"/>
		<path d="M341.221,311.97l-64.538-64.537V114.809c0-11.422-9.259-20.682-20.682-20.682c-11.422,0-20.682,9.26-20.682,20.682V256
			c0,5.486,2.179,10.746,6.058,14.625l70.594,70.595c4.038,4.039,9.332,6.058,14.625,6.058c5.293,0,10.586-2.019,14.626-6.058
			C349.297,333.142,349.297,320.047,341.221,311.97z"/>
	</symbol>

    <symbol id="footer-location" role="img" aria-labelledby="footer-location_title" viewBox="0 0 512 512">
        <title id="footer-location_title"></title>
        <path d="M406.766,62.449C366.495,22.178,312.951,0,256,0S145.505,22.178,105.234,62.449
			c-40.272,40.271-62.449,93.814-62.449,150.766c0,37.656,10.972,76.863,32.609,116.532c16.825,30.846,40.15,62.102,69.326,92.898
			c49.17,51.903,97.763,84.519,99.808,85.881C248.001,510.842,252,512,256,512c4,0,7.999-1.158,11.473-3.474
			c2.045-1.363,50.638-33.978,99.808-85.881c29.176-30.795,52.501-62.051,69.326-92.898c21.637-39.669,32.609-78.876,32.609-116.532
			C469.215,156.263,447.038,102.72,406.766,62.449z M256.001,465.903C215.826,436.156,84.15,329.739,84.15,213.215
			c0-94.759,77.091-171.851,171.85-171.851s171.85,77.092,171.851,171.851C427.851,329.748,296.159,436.168,256.001,465.903z"/>
		<path d="M256,128.355c-46.791,0-84.86,38.068-84.86,84.86c0,46.791,38.068,84.86,84.86,84.86c46.792,0,84.861-38.068,84.86-84.86
			C340.86,166.423,302.791,128.355,256,128.355z M256,256.71c-23.983,0-43.495-19.512-43.495-43.495
			c0-23.983,19.512-43.495,43.495-43.495c23.984,0,43.495,19.512,43.495,43.495C299.495,237.198,279.984,256.71,256,256.71z"/>
	</symbol>

    <symbol id="footer-facebook" role="img" aria-labelledby="footer-facebook_title" viewBox="0 0 512 512">
        <title id="footer-facebook_title">Facebook</title>
        <path d="M296.296,512H200.36V256h-64v-88.225l64-0.029l-0.104-51.976C200.256,43.794,219.773,0,304.556,0h70.588v88.242h-44.115
		c-33.016,0-34.604,12.328-34.604,35.342l-0.131,44.162h79.346l-9.354,88.225L296.36,256L296.296,512z"/>
    </symbol>

    <symbol id="footer-twitter" role="img" aria-labelledby="footer-twitter_title" viewBox="0 0 512 512">
        <title id="footer-twitter_title">Twitter</title>
        <path d="M512.002,97.211c-18.84,8.354-39.082,14.001-60.33,16.54c21.686-13,38.342-33.585,46.186-58.115
		c-20.299,12.039-42.777,20.78-66.705,25.49c-19.16-20.415-46.461-33.17-76.674-33.17c-58.011,0-105.042,47.029-105.042,105.039
		c0,8.233,0.929,16.25,2.72,23.939c-87.3-4.382-164.701-46.2-216.509-109.753c-9.042,15.514-14.223,33.558-14.223,52.809
		c0,36.444,18.544,68.596,46.73,87.433c-17.219-0.546-33.416-5.271-47.577-13.139c-0.01,0.438-0.01,0.878-0.01,1.321
		c0,50.894,36.209,93.348,84.261,103c-8.813,2.399-18.094,3.687-27.674,3.687c-6.769,0-13.349-0.66-19.764-1.888
		c13.368,41.73,52.16,72.104,98.126,72.949c-35.95,28.176-81.243,44.967-130.458,44.967c-8.479,0-16.84-0.496-25.058-1.471
		c46.486,29.807,101.701,47.197,161.021,47.197c193.211,0,298.868-160.062,298.868-298.872c0-4.554-0.104-9.084-0.305-13.59
		C480.111,136.775,497.92,118.275,512.002,97.211z"/>
    </symbol>

    <symbol id="footer-instagram" role="img" aria-labelledby="footer-instagram_title" viewBox="0 0 97.395 97.395">
        <title id="footer-instagram_title">Instagram</title>
        <path d="M12.501,0h72.393c6.875,0,12.5,5.09,12.5,12.5v72.395c0,7.41-5.625,12.5-12.5,12.5H12.501C5.624,97.395,0,92.305,0,84.895
		V12.5C0,5.09,5.624,0,12.501,0L12.501,0z M70.948,10.821c-2.412,0-4.383,1.972-4.383,4.385v10.495c0,2.412,1.971,4.385,4.383,4.385
		h11.008c2.412,0,4.385-1.973,4.385-4.385V15.206c0-2.413-1.973-4.385-4.385-4.385H70.948L70.948,10.821z M86.387,41.188h-8.572
		c0.811,2.648,1.25,5.453,1.25,8.355c0,16.2-13.556,29.332-30.275,29.332c-16.718,0-30.272-13.132-30.272-29.332
		c0-2.904,0.438-5.708,1.25-8.355h-8.945v41.141c0,2.129,1.742,3.872,3.872,3.872h67.822c2.13,0,3.872-1.742,3.872-3.872V41.188
		H86.387z M48.789,29.533c-10.802,0-19.56,8.485-19.56,18.953c0,10.468,8.758,18.953,19.56,18.953
		c10.803,0,19.562-8.485,19.562-18.953C68.351,38.018,59.593,29.533,48.789,29.533z"/>
    </symbol>

    <symbol id="footer-linkedin" role="img" aria-labelledby="footer-linkedin_title" viewBox="0 0 93.06 93.06">
        <title id="footer-linkedin_title">Linkedin</title>
        <path d="M11.185,0.08C5.004,0.08,0.001,5.092,0,11.259c0,6.173,5.003,11.184,11.186,11.184c6.166,0,11.176-5.011,11.176-11.184
			C22.362,5.091,17.351,0.08,11.185,0.08z"/>
		<rect x="1.538" y="30.926" width="19.287" height="62.054"/>
		<path d="M69.925,29.383c-9.382,0-15.673,5.144-18.248,10.022h-0.258v-8.479H32.921H32.92v62.053h19.27V62.281
			c0-8.093,1.541-15.932,11.575-15.932c9.89,0,10.022,9.256,10.022,16.451v30.178H93.06V58.942
			C93.06,42.235,89.455,29.383,69.925,29.383z"/>
    </symbol>	

</svg>
