<svg xmlns="http://www.w3.org/2000/svg" xmlns:xlink="http://www.w3.org/1999/xlink">

	<symbol id="header-phone" role="img" aria-labelledby="header-phone_title" viewBox="0 0 489.779 489.779">
        <title id="header-phone_title"></title>
		<path style="fill:#109a49;" d="M472.774,80.97c-17.9-21.1-41.5-33.4-57.7-40.8c-38.8-17.9-80.8-28.4-132.3-33.2c-62.2-5.5-123.1,1.9-180.8,22h-0.1
			c-22.1,7.9-50.6,19.6-74.7,40.8c-19,16.8-28.1,37.4-27.1,61.2c0,0.3,0,0.6,0.1,0.9c0.8,8.5,0.6,17.3,0.5,26.5
			c-0.1,3.9-0.1,7.9-0.1,12c0,0.1,0,0.2,0,0.3c0.6,29.7,20.7,49.6,50,49.6h70.3c14.1,0.3,26.3-4.3,35.3-13.1
			c9.2-9,14.1-21.5,14.1-36.1v-37.1c0-9.9-8.1-18-18-18c-9.9,0-18,8.1-18,18v37.1c0,3.3-0.6,7.7-3.2,10.4c-2.5,2.4-6.6,2.9-9.6,2.8
			c-0.1,0-0.3,0-0.4,0h-70.6c-9.6,0-13.7-4.2-14-14.2c0-3.6,0.1-7.3,0.1-11.1c0.2-9.7,0.3-19.7-0.6-29.9c-0.4-12.8,4.2-22.8,15-32.3
			c19.4-17.1,43.8-27,62.9-33.8c52.9-18.4,108.7-25.2,165.7-20.1c47.2,4.4,85.5,13.9,120.5,30c21,9.6,35,19.3,45.2,31.3
			c5.9,7.1,8.7,14.7,8.7,24v43.5c-0.3,12-7.7,13.4-13.2,13.4c-0.2,0-0.4,0-0.6,0c-7.4,0.3-14.8,0.2-22.7,0.1c-4,0-8.1-0.1-12.3-0.1
			h-34.8c-10.3,0-14-3.7-14-14c0-4,0-7.4-0.1-10.6c-0.1-8.4-0.1-15,0.4-25.1c0-0.3,0-0.7,0-1c0-15.8-10.8-21.2-14.4-23
			c-0.4-0.2-0.8-0.4-1.2-0.5c-16-6.6-33.2-10.8-55.8-13.4c-0.1,0-0.2,0-0.2,0c-28.2-2.9-54-2.9-79.1-0.1c-9.9,1.1-17,10.1-15.8,19.9
			c1.1,9.9,10.1,17,19.9,15.8c22.3-2.6,45.6-2.5,71.1,0.1c15.7,1.8,28.1,4.4,39.1,8.2c-0.2,7.1-0.2,12.9-0.1,19.3
			c0,3.1,0.1,6.5,0.1,10.3c0,30.4,19.6,50,50,50h34.8c4,0,8,0,11.9,0.1c3.9,0,7.9,0.1,11.9,0.1s8.1,0,12.1-0.2
			c28.2-0.2,48.2-20.2,48.8-48.8c0-0.1,0-0.3,0-0.4v-43.7C489.974,110.37,484.174,94.47,472.774,80.97z"/>
		<path style="fill:#3078bd;" d="M259.874,260.37h-29.7c-9.9,0-18,8.1-18,18c0,9.9,8,18,18,18h29.7c9.9,0,18-8.1,18-18
			C277.874,268.47,269.774,260.37,259.874,260.37z"/>
		<path style="fill:#3078bd;" d="M364.374,260.37h-29.7c-9.9,0-18,8.1-18,18c0,9.9,8.1,18,18,18h29.7c9.9,0,18-8.1,18-18
			C382.374,268.47,374.274,260.37,364.374,260.37z"/>
		<path style="fill:#3078bd;" d="M155.274,260.37h-29.7c-9.9,0-18,8.1-18,18c0,9.9,8,18,18,18h29.7c9.9,0,18-8.1,18-18
			C173.274,268.47,165.174,260.37,155.274,260.37z"/>
		<path style="fill:#3078bd;" d="M259.874,323.17h-29.7c-9.9,0-18,8.1-18,18c0,9.9,8,18,18,18h29.7c9.9,0,18-8.1,18-18
			C277.874,331.27,269.774,323.17,259.874,323.17z"/>
		<path style="fill:#3078bd;" d="M364.374,323.17h-29.7c-9.9,0-18,8.1-18,18c0,9.9,8.1,18,18,18h29.7c9.9,0,18-8.1,18-18
			C382.374,331.27,374.274,323.17,364.374,323.17z"/>
		<path style="fill:#3078bd;" d="M155.274,323.17h-29.7c-9.9,0-18,8.1-18,18c0,9.9,8,18,18,18h29.7c9.9,0,18-8.1,18-18
			C173.274,331.27,165.174,323.17,155.274,323.17z"/>
		<path style="fill:#3078bd;" d="M259.874,385.87h-29.7c-9.9,0-18,8.1-18,18c0,9.9,8,18,18,18h29.7c9.9,0,18-8.1,18-18
			C277.874,393.97,269.774,385.87,259.874,385.87z"/>
		<path style="fill:#3078bd;" d="M364.374,385.87h-29.7c-9.9,0-18,8.1-18,18c0,9.9,8.1,18,18,18h29.7c9.9,0,18-8.1,18-18
			C382.374,393.97,374.274,385.87,364.374,385.87z"/>
		<path style="fill:#3078bd;" d="M155.274,385.87h-29.7c-9.9,0-18,8.1-18,18c0,9.9,8,18,18,18h29.7c9.9,0,18-8.1,18-18
			C173.274,393.97,165.174,385.87,155.274,385.87z"/>
		<path style="fill:#3078bd;" d="M259.874,448.57h-29.7c-9.9,0-18,8.1-18,18c0,9.9,8,18,18,18h29.7c9.9,0,18-8.1,18-18
			C277.874,456.67,269.774,448.57,259.874,448.57z"/>
    </symbol>	

	<symbol id="header-profile" role="img" aria-labelledby="header-profile_title" viewBox="0 -38 512 512">
        <title id="header-profile_title"></title>
        <path style="fill:#3078bd;" d="m497.125 203.347656-46.960938-12.449218-37.296874-97.300782c-2.964844-7.738281-10.390626-12.84375-18.675782-12.84375h-70.027344v-60.753906c0-11.046875-8.953124-20-20-20h-208.164062c-11.046875 0-20 8.953125-20 20s8.953125 20 20 20h188.164062v318h-95.71875c-8.167968-22.15625-29.488281-38-54.445312-38-31.980469 0-58 26.019531-58 58s26.019531 58 58 58c24.957031 0 46.277344-15.84375 54.445312-38h173.109376c8.167968 22.15625 29.488281 38 54.445312 38s46.277344-15.84375 54.445312-38h21.554688c11.046875 0 20-8.953125 20-20v-155.320312c0-9.074219-6.105469-17.007813-14.875-19.332032zm-363.125 192.652344c-9.925781 0-18-8.074219-18-18s8.074219-18 18-18 18 8.074219 18 18-8.074219 18-18 18zm190.164062-275.246094h56.273438l36.035156 94.011719c2.300782 6 7.339844 10.527344 13.550782 12.175781l41.976562 11.125v119.933594h-1.554688c-8.167968-22.15625-29.488281-38-54.445312-38s-46.277344 15.84375-54.445312 38h-37.390626zm91.835938 275.246094c-9.925781 0-18-8.074219-18-18s8.074219-18 18-18 18 8.074219 18 18-8.074219 18-18 18zm0 0"/>
        <path style="fill:#109a49;" d="m45.332031 124h50.667969c11.046875 0 20-8.953125 20-20s-8.953125-20-20-20h-50.667969c-11.046875 0-20 8.953125-20 20s8.957031 20 20 20zm0 0"/>
        <path style="fill:#109a49;" d="m90.667969 180c0-11.046875-8.953125-20-20-20h-50.667969c-11.046875 0-20 8.953125-20 20s8.953125 20 20 20h50.667969c11.042969 0 20-8.953125 20-20zm0 0"/>
        <path style="fill:#109a49;" d="m116 256c0-11.046875-8.953125-20-20-20h-50.667969c-11.046875 0-20 8.953125-20 20s8.953125 20 20 20h50.667969c11.046875 0 20-8.953125 20-20zm0 0"/>
    </symbol>

    <symbol id="header-back" role="img" aria-labelledby="header-back_title" viewBox="0 0 489.35 489.35">
        <title id="header-back_title"></title>
        <path style="fill:#109a49;" d="M483.95,140.175c-6.9-7-18.3-7-25.3,0l-5.4,5.4v-45.7c0-54.9-44.7-99.6-99.6-99.6h-42.7c-9.9,0-18,8.1-18,18
			c0,9.9,8.1,18,18,18h42.7c35.1,0,63.6,28.5,63.6,63.6v45.7l-5.4-5.4c-7-7-18.4-7-25.5,0c-7,7-7,18.4,0,25.5l36.1,36.1
			c3.5,3.5,8.1,5.3,12.7,5.3c4.6,0,9.2-1.8,12.7-5.3l36.1-36.1C490.95,158.675,490.95,147.275,483.95,140.175z"/>
		<path style="fill:#109a49;" d="M178.35,453.075h-42.7c-35.1,0-63.6-28.5-63.6-63.6v-45.7l5.4,5.4c3.5,3.5,8.1,5.3,12.7,5.3s9.2-1.8,12.7-5.3
			c7-7,7-18.4,0-25.5l-36.1-36.1c-7-7-18.4-7-25.5,0l-36,36.1c-7,7-7,18.4,0,25.5c7,7,18.4,7,25.4,0l5.4-5.4v45.7
			c0,54.9,44.7,99.6,99.6,99.6h42.7c9.9,0,18-8.1,18-18C196.35,461.175,188.25,453.075,178.35,453.075z"/>
		<path style="fill:#3078bd;" d="M471.35,347.975c-9.9,0-18,8.1-18,18v86.1h-149v-149h167c9.9,0,18-8.1,18-18c0-9.9-8.1-18-18-18h-185c-9.9,0-18,8.1-18,18
			v185c0,9.9,8.1,18,18,18h185c9.9,0,18-8.1,18-18v-104.1C489.35,356.075,481.25,347.975,471.35,347.975z"/>
		<path style="fill:#3078bd;" d="M206.65,83.275c-9.9,0-18,8.1-18,18v86.1h-149v-149h167c9.9,0,18-8.1,18-18c0-9.9-8.1-18-18-18h-185c-9.9,0-18,8.1-18,18
			v185c0,9.9,8.1,18,18,18h185c9.9,0,18-8.1,18-18v-104.1C224.65,91.375,216.55,83.275,206.65,83.275z"/>
    </symbol>

    <symbol id="header-cart" role="img" aria-labelledby="header-cart_title" viewBox="0 0 512 512">
        <title id="header-cart_title"></title>
        <polygon style="fill:#3078bd;" points="473.668,139.109 410.282,303.914 153.733,303.914 98.973,30.118 0,30.118 0,71.187 65.305,71.187 
			120.064,344.984 438.488,344.984 512,153.853 		"/>
		<path style="fill:#3078bd;" d="M191.658,358.674c-33.969,0-61.604,27.634-61.604,61.604s27.636,61.604,61.604,61.604
			c33.969,0,61.604-27.634,61.604-61.604S225.626,358.674,191.658,358.674z M191.658,440.813c-11.323,0-20.535-9.211-20.535-20.535
			s9.212-20.535,20.535-20.535c11.323,0,20.535,9.211,20.535,20.535S202.981,440.813,191.658,440.813z"/>
		<path style="fill:#3078bd;" d="M369.626,358.674c-33.969,0-61.604,27.634-61.604,61.604s27.636,61.604,61.604,61.604
			c33.969,0,61.604-27.634,61.604-61.604S403.594,358.674,369.626,358.674z M369.626,440.813c-11.323,0-20.535-9.211-20.535-20.535
			s9.212-20.535,20.535-20.535s20.535,9.211,20.535,20.535S380.949,440.813,369.626,440.813z"/>
		<path style="fill:#109a49;" d="M376.108,104.419c-4.805-13.676-11.458-25.504-19.96-35.484s-18.609-17.799-30.309-23.471
			c-11.706-5.666-24.338-8.501-37.887-8.501c-13.803,0-26.493,2.835-38.071,8.501c-11.586,5.672-21.623,13.491-30.124,23.471
			c-8.501,9.98-15.155,21.808-19.96,35.484c-4.805,13.676-7.208,28.646-7.208,44.91c0,16.263,2.403,31.233,7.208,44.909
			c4.805,13.676,11.458,25.504,19.96,35.484c8.501,9.979,18.539,17.742,30.124,23.286c11.579,5.544,24.268,8.317,38.071,8.317
			c13.549,0,26.18-2.772,37.887-8.317c11.701-5.544,21.808-13.307,30.309-23.286c8.501-9.98,15.155-21.808,19.96-35.484
			c4.805-13.676,7.208-28.646,7.208-44.91C383.315,133.065,380.913,118.095,376.108,104.419z M330.089,176.311
			c-2.218,8.132-5.36,15.155-9.425,21.069s-8.871,10.475-14.415,13.676c-5.544,3.205-11.643,4.805-18.296,4.805
			c-6.902,0-13.122-1.6-18.666-4.805c-5.544-3.199-10.349-7.762-14.415-13.676c-4.066-5.914-7.208-12.937-9.425-21.069
			s-3.327-17.125-3.327-26.983c0-9.853,1.109-18.908,3.327-27.167c2.218-8.252,5.36-15.339,9.425-21.253
			c4.066-5.914,8.871-10.47,14.415-13.676c5.544-3.199,11.765-4.805,18.666-4.805c6.653,0,12.752,1.606,18.296,4.805
			c5.544,3.206,10.35,7.762,14.415,13.676c4.066,5.914,7.208,13,9.425,21.253c2.218,8.259,3.327,17.315,3.327,27.167
			C333.416,159.187,332.307,168.18,330.089,176.311z"/>
    </symbol>

    <symbol id="details01" role="img" aria-labelledby="details01_title" viewBox="0 0 330 330">
        <title id="details01_title"></title>
	    <path d="M329.997,18.837c-0.003-0.47-0.025-0.939-0.071-1.406c-0.023-0.238-0.067-0.47-0.102-0.705
			c-0.037-0.248-0.065-0.498-0.114-0.744c-0.052-0.266-0.125-0.524-0.191-0.785c-0.054-0.213-0.101-0.427-0.164-0.637
			c-0.078-0.258-0.174-0.507-0.265-0.759c-0.076-0.209-0.144-0.42-0.229-0.626c-0.1-0.24-0.216-0.471-0.327-0.705
			c-0.099-0.208-0.191-0.419-0.301-0.623c-0.124-0.232-0.265-0.454-0.401-0.678c-0.117-0.194-0.226-0.391-0.352-0.58
			c-0.174-0.261-0.367-0.508-0.557-0.758c-0.107-0.14-0.203-0.285-0.314-0.421c-0.632-0.771-1.339-1.478-2.111-2.11
			c-0.131-0.107-0.269-0.199-0.402-0.301c-0.255-0.195-0.509-0.392-0.777-0.571c-0.183-0.122-0.373-0.227-0.559-0.34
			c-0.232-0.141-0.46-0.286-0.701-0.414c-0.194-0.104-0.395-0.192-0.593-0.286c-0.245-0.117-0.486-0.238-0.738-0.342
			c-0.191-0.079-0.387-0.142-0.581-0.212c-0.267-0.098-0.531-0.199-0.805-0.282c-0.189-0.057-0.381-0.098-0.572-0.147
			c-0.283-0.073-0.563-0.151-0.852-0.208c-0.209-0.041-0.42-0.064-0.631-0.096c-0.272-0.042-0.542-0.091-0.82-0.118
			c-0.34-0.033-0.681-0.041-1.022-0.052c-0.149-0.004-0.294-0.023-0.444-0.023h-47.359c-8.284,0-15,6.716-15,15
			c0,8.284,6.716,15,15,15h11.148l-22.598,22.598c-17.445-13.128-39.123-20.919-62.587-20.919c-15.969,0-31.107,3.612-44.651,10.054
			c-13.543-6.442-28.682-10.054-44.651-10.054C46.79,35.586,0,82.377,0,139.889c0,52.419,38.871,95.923,89.3,103.219l0,19.497H70.812
			c-8.284,0-15,6.716-15,15c0,8.284,6.716,15,15,15h18.488v18.488c0,8.285,6.716,15,15,15c8.285,0,15-6.716,15-15v-18.488h18.488
			c8.284,0,15-6.716,15-15c0-8.284-6.716-15-15-15H119.3l0-19.497c10.463-1.514,20.429-4.584,29.653-8.972
			c13.544,6.442,28.682,10.054,44.651,10.054c57.512,0,104.302-46.79,104.302-104.302c0-23.252-7.65-44.749-20.562-62.111L300,55.121
			v11.146c0,8.284,6.716,15,15,15c8.284,0,15-6.716,15-15v-47.36C330,18.883,329.997,18.86,329.997,18.837z M178.603,139.889
			c0,24.224-11.656,45.773-29.651,59.346c-17.995-13.573-29.651-35.122-29.651-59.346c0-24.225,11.656-45.774,29.651-59.347
			C166.947,94.115,178.603,115.665,178.603,139.889z M30,139.889c0-40.971,33.331-74.303,74.302-74.303
			c5.038,0,9.959,0.509,14.719,1.47c-18.374,18.812-29.719,44.521-29.719,72.833c0,28.312,11.344,54.02,29.719,72.832
			c-4.76,0.96-9.681,1.47-14.719,1.47C63.331,214.191,30,180.859,30,139.889z M193.603,214.191c-5.038,0-9.959-0.51-14.719-1.47
			c18.375-18.813,29.719-44.52,29.719-72.832c0-28.312-11.344-54.021-29.719-72.833c4.759-0.961,9.68-1.47,14.719-1.47
			c40.97,0,74.302,33.332,74.302,74.303C267.905,180.859,234.574,214.191,193.603,214.191z"/>
	</symbol>

	<symbol id="details02" role="img" aria-labelledby="details02_title" viewBox="0 0 330 330">
        <title id="details02_title"></title>
	    <path d="M165,0C74.019,0,0,74.02,0,165.001C0,255.982,74.019,330,165,330s165-74.018,165-164.999C330,74.02,255.981,0,165,0z
			 M165,300c-74.44,0-135-60.56-135-134.999C30,90.562,90.56,30,165,30s135,60.562,135,135.001C300,239.44,239.439,300,165,300z"/>
		<path d="M164.998,70c-11.026,0-19.996,8.976-19.996,20.009c0,11.023,8.97,19.991,19.996,19.991
			c11.026,0,19.996-8.968,19.996-19.991C184.994,78.976,176.024,70,164.998,70z"/>
		<path d="M165,140c-8.284,0-15,6.716-15,15v90c0,8.284,6.716,15,15,15c8.284,0,15-6.716,15-15v-90C180,146.716,173.284,140,165,140z
			"/>
	</symbol>

	<symbol id="details03" role="img" aria-labelledby="details03_title" viewBox="0 0 330 330">
        <title id="details03_title"></title>
	    <path d="M165,0C74.019,0,0,74.02,0,165.001C0,255.982,74.019,330,165,330s165-74.018,165-164.999C330,74.02,255.981,0,165,0z
			 M165,300c-74.44,0-135-60.56-135-134.999C30,90.562,90.56,30,165,30s135,60.562,135,135.001C300,239.44,239.439,300,165,300z"/>
		<path d="M164.998,70c-11.026,0-19.996,8.976-19.996,20.009c0,11.023,8.97,19.991,19.996,19.991
			c11.026,0,19.996-8.968,19.996-19.991C184.994,78.976,176.024,70,164.998,70z"/>
		<path d="M165,140c-8.284,0-15,6.716-15,15v90c0,8.284,6.716,15,15,15c8.284,0,15-6.716,15-15v-90C180,146.716,173.284,140,165,140z
			"/>
	</symbol>

	<symbol id="details04" role="img" aria-labelledby="details04_title" viewBox="0 0 330 330">
        <title id="details04_title"></title>
	    <path d="M264.207,129.996l52.504-65.629c3.603-4.503,4.305-10.671,1.807-15.869c-2.498-5.197-7.754-8.502-13.52-8.502l-125,0.004V15
			c0-3.979-1.58-7.794-4.394-10.607C172.791,1.58,168.975,0,164.997,0l-140,0.005c-8.283,0-14.999,6.716-14.999,15v0.009v149.982v150
			c0,8.284,6.716,15,15,15s15-6.716,15-15v-135h110v25c0,8.284,6.716,15,15,15h140c5.766,0,11.022-3.305,13.52-8.502
			c2.498-5.197,1.796-11.366-1.807-15.869L264.207,129.996z M39.998,149.996V30.004l110-0.004v25v94.996H39.998z M179.998,189.996v-25
			V69.999l93.79-0.002l-40.503,50.628c-4.383,5.479-4.383,13.263,0,18.741l40.504,50.629H179.998z"/>
	</symbol>

	<symbol id="details05" role="img" aria-labelledby="details05_title" viewBox="0 0 174.902 174.902">
        <title id="details05_title"></title>
	    <path d="M152.187,112.094H60.27c-5.606,0-10.168-4.561-10.168-10.167s4.562-10.168,10.168-10.168h42.708c4.142,0,7.5-3.358,7.5-7.5
			s-3.358-7.5-7.5-7.5H60.27c-13.877,0-25.168,11.291-25.168,25.168s11.291,25.167,25.168,25.167h91.917
			c4.254,0,7.715,3.461,7.715,7.715s-3.461,7.715-7.715,7.715H7.5c-4.142,0-7.5,3.358-7.5,7.5s3.358,7.5,7.5,7.5h144.687
			c12.525,0,22.715-10.19,22.715-22.715S164.712,112.094,152.187,112.094z"/>
		<path d="M127.782,89.374c1.457,1.423,3.349,2.135,5.241,2.135s3.784-0.711,5.241-2.135c4.281-4.182,25.639-25.819,25.639-41.115
			c0-17.027-13.853-30.88-30.88-30.88s-30.88,13.853-30.88,30.88C102.142,63.554,123.5,85.191,127.782,89.374z M133.022,32.378
			c8.756,0,15.88,7.124,15.88,15.88c0,4.975-7.523,15.739-15.88,24.937c-8.357-9.198-15.88-19.962-15.88-24.937
		C117.142,39.502,124.266,32.378,133.022,32.378z"/>
	</symbol>

	<symbol id="details06" role="img" aria-labelledby="details06_title" viewBox="0 0 178.056 178.056">
        <title id="details06_title"></title>
	    <path d="M174.401,165.677l-45.129-60.279c-1.416-1.891-3.641-3.005-6.004-3.005h-29.25V65.268
		c15.735-2.415,27.824-16.044,27.824-32.444C121.842,14.725,107.118,0,89.018,0S56.194,14.725,56.194,32.824
		c0,16.4,12.089,30.029,27.824,32.444v37.125h-29.25c-2.363,0-4.588,1.114-6.004,3.005L3.347,166.061
		c-1.702,2.273-1.974,5.313-0.703,7.852c1.271,2.54,3.867,4.143,6.707,4.143h159.334c0.006,0,0.014,0,0.02,0
		c4.143,0,7.5-3.358,7.5-7.5C176.205,168.693,175.526,166.988,174.401,165.677z M71.194,32.824C71.194,22.996,79.19,15,89.018,15
		s17.824,7.996,17.824,17.824s-7.996,17.824-17.824,17.824S71.194,42.652,71.194,32.824z M24.336,163.056l34.187-45.663h25.496
		v9.782c-8.001,1.011-13.888,4.375-13.888,8.381c0,4.804,8.456,8.699,18.888,8.699s18.888-3.895,18.888-8.699
		c0-4.006-5.887-7.37-13.888-8.381v-9.782h25.496l34.187,45.663H24.336z"/>
	</symbol>

	<symbol id="details07" role="img" aria-labelledby="details07_title" viewBox="0 0 330 330">
        <title id="details07_title"></title>
	    <path d="M323.954,32.978c-3.805-2.83-8.725-3.697-13.265-2.333l-41.898,12.569c-9.921-19.671-30.3-33.202-53.792-33.202
			c-17.959,0-34.096,7.913-45.139,20.423L122.72,2.141c-3.619-2.172-7.984-2.718-12.029-1.507l-100,29.994
			C4.346,32.533,0,38.373,0,44.997v240c0,4.742,2.242,9.204,6.046,12.034c3.805,2.831,8.724,3.696,13.265,2.333l93.653-28.096
			l94.318,56.591c2.355,1.413,5.025,2.138,7.719,2.138c1.445,0,2.897-0.209,4.309-0.633l100-30
			c6.345-1.903,10.69-7.743,10.69-14.367V45.013C330,40.271,327.758,35.808,323.954,32.978z M100,243.837l-70,20.999V56.158
			l70-20.996V243.837z M200,288.503l-70-42V41.5l26.21,15.732c-0.927,4.191-1.431,8.541-1.431,13.009
			c0,41.616,31.08,71.074,45.221,82.323V288.503z M217.968,123.352c-1.026,0.956-2.017,1.844-2.954,2.659
			c-11.301-9.835-30.234-30.14-30.234-55.77c-0.001-16.668,13.556-30.228,30.22-30.228s30.221,13.561,30.221,30.229
			C245.221,93.155,230.402,111.77,217.968,123.352z M300,273.836l-70,21.001V152.562c2.395-1.906,5.273-4.33,8.418-7.261
			c16.391-15.271,35.846-40.15,36.759-72.682L300,65.174V273.836z"/>
		<circle cx="215" cy="70.087" r="7.536"/>
	</symbol>

	<symbol id="details08" role="img" aria-labelledby="details08_title" viewBox="0 0 512 512">
        <title id="details08_title"></title>
	    <path d="M368.941,90.353H181.7V22.588C181.7,10.114,171.586,0,159.112,0H98.876C86.401,0,76.288,10.114,76.288,22.588
			s10.113,22.588,22.588,22.588h37.647v45.177h-16.053c-62.276,0-112.941,50.665-112.941,112.941V384
			c0,12.475,10.114,22.588,22.588,22.588h106.406v82.824c0,12.475,10.114,22.588,22.588,22.588
			c12.475,0,22.588-10.114,22.588-22.588v-82.824H256h225.882c12.475,0,22.588-10.114,22.588-22.588V225.882
			C504.471,151.151,443.672,90.353,368.941,90.353z M233.412,225.882v135.529H52.706V203.294c0-37.365,30.399-67.765,67.765-67.765
			h16.053v67.765c0,12.475,10.114,22.588,22.588,22.588c12.475,0,22.588-10.114,22.588-22.588v-67.765h86.317
			C246.511,159.526,233.412,191.2,233.412,225.882z M459.294,361.412H278.588V225.882c0-49.821,40.532-90.353,90.353-90.353
			s90.353,40.532,90.353,90.353V361.412z"/>
		<path d="M391.529,271.059h-45.176c-12.475,0-22.588,10.114-22.588,22.588c0,12.475,10.114,22.588,22.588,22.588h45.176
			c12.475,0,22.588-10.114,22.588-22.588C414.118,281.172,404.004,271.059,391.529,271.059z"/>
	</symbol>

	<symbol id="details09" role="img" aria-labelledby="details09_title" viewBox="0 0 512 512">
        <title id="details09_title"></title>
	    <path d="M482.935,120.338c-0.945-0.946-65.646-65.648-65.646-65.648c-9.379-9.378-24.587-9.378-33.965,0l-98.253,98.252
			c-4.504,4.504-7.034,10.612-7.034,16.983s2.53,12.479,7.034,16.982l48.745,48.746l-98.236,98.234l-48.745-48.745
			c-9.379-9.378-24.584-9.378-33.965,0l-98.215,98.21c-4.504,4.504-7.034,10.612-7.034,16.982c0,6.371,2.53,12.479,7.034,16.983
			c6.624,6.624,64.735,64.737,65.627,65.624c18.989,18.991,45.796,29.029,77.522,29.029c63.47,0,143.37-40.47,208.518-105.615
			c46.636-46.635,80.907-100.581,96.5-151.902C519.988,197.954,512.918,150.319,482.935,120.338z M456.862,240.488
			c-13.337,43.903-43.349,90.746-84.503,131.9C316.744,428,248.227,463.934,197.802,463.935c-18.977,0-33.629-5.032-43.604-15.009
			c-0.801-0.797-26.688-26.683-48.596-48.591l64.249-64.247l48.745,48.745c9.378,9.378,24.585,9.378,33.965,0l132.201-132.199
			c4.504-4.504,7.034-10.612,7.034-16.983c0-6.369-2.53-12.478-7.034-16.982l-48.745-48.746l64.287-64.287
			c19.231,19.23,48.002,48.002,48.644,48.646C465.574,170.906,468.459,202.327,456.862,240.488z"/>
		<path d="M218.987,117.123c-28.092-28.089-73.803-28.09-101.894,0.002c-13.61,13.608-21.104,31.702-21.104,50.948
			c0,19.247,7.497,37.34,21.104,50.948c4.69,4.69,10.836,7.034,16.982,7.034c6.147,0,12.293-2.346,16.982-7.035
			c9.379-9.379,9.379-24.585,0-33.965c-4.536-4.536-7.035-10.567-7.035-16.983c0-6.416,2.499-12.446,7.035-16.982
			c9.367-9.363,24.605-9.362,33.97,0.002c9.378,9.378,24.585,9.378,33.965-0.003C228.368,141.708,228.366,126.5,218.987,117.123z"/>
		<path d="M286.917,49.193c-65.549-65.549-172.206-65.549-237.755,0c-65.549,65.55-65.549,172.208,0,237.757
			c4.69,4.69,10.836,7.035,16.983,7.035c6.147,0,12.294-2.344,16.982-7.035c9.379-9.379,9.379-24.585,0-33.965
			c-46.82-46.822-46.82-123.005,0-169.827c46.82-46.82,123.005-46.82,169.826,0c9.378,9.379,24.585,9.379,33.965,0
			C296.296,73.778,296.296,58.572,286.917,49.193z"/>
	</symbol>

	<symbol id="details10" role="img" aria-labelledby="details10_title" viewBox="0 0 330 330">
        <title id="details10_title"></title>
	    <path d="M165.001,0c-90.981,0-165,74.018-165,164.997c0,90.983,74.019,165.004,165,165.004c8.284,0,15-6.716,15-15
			c0-8.284-6.716-15-15-15c-74.44,0-135-60.563-135-135.004C30,90.56,90.561,30,165.001,30s135,60.56,135,134.997v37.507
			c0,12.407-10.096,22.5-22.504,22.5c-12.406,0-22.499-10.093-22.499-22.5v-37.507c0-49.626-40.372-90-89.997-90
			c-49.626,0-89.999,40.374-89.999,90c0,49.63,40.373,90.007,89.999,90.007c25.927,0,49.323-11.026,65.762-28.63
			c8.706,16.978,26.379,28.63,46.734,28.63c28.951,0,52.504-23.551,52.504-52.5v-37.507C330,74.018,255.982,0,165.001,0z
			 M165.001,225.004c-33.084,0-59.999-26.919-59.999-60.007c0-33.084,26.915-60,59.999-60c33.083,0,59.997,26.916,59.997,60
			C224.998,198.085,198.083,225.004,165.001,225.004z"/>
	</symbol>

	<symbol id="details11" role="img" aria-labelledby="details11_title" viewBox="0 0 330 330">
        <title id="details11_title"></title>
	    <path d="M85,190c13.785,0,25-11.215,25-25s-11.215-25-25-25s-25,11.215-25,25S71.215,190,85,190z"/>
		<path d="M165,190c13.785,0,25-11.215,25-25s-11.215-25-25-25c-13.785,0-25,11.215-25,25S151.215,190,165,190z"/>
		<path d="M245,190c13.785,0,25-11.215,25-25s-11.215-25-25-25c-13.785,0-25,11.215-25,25S231.215,190,245,190z"/>
		<path d="M315,0.001H15c-8.284,0-15,6.716-15,15v299.998c0,8.284,6.716,15,15,15h300c8.284,0,15-6.716,15-15V15.001
			C330,6.717,323.284,0.001,315,0.001z M300,299.999H30V30.001h270V299.999z"/>
	</symbol>

    <symbol id="label-plus" role="img" aria-labelledby="label-plus_title" viewBox="0 0 22.354 22.354">
        <title id="label-plus_title"></title>
	    <polygon points="8.61,22.354 13.744,22.354 13.744,13.744 22.354,13.744 22.354,8.611 13.744,8.611 13.744,0 8.61,0 8.61,8.611 
		0,8.611 0,13.744 8.61,13.744 	"/>
	</symbol>
	
	<symbol id="label-minus" role="img" aria-labelledby="label-minus_title" viewBox="0 0 22.354 22.354">
        <title id="label-minus_title"></title>
	    <rect y="8.61" width="22.354" height="5.133"/>
	</symbol>

	<symbol id="form-search" role="img" aria-labelledby="form-search_title" viewBox="0 0 56.966 56.966">
        <title id="form-search_title"></title>
	    <path d="M55.146,51.887L41.588,37.786c3.486-4.144,5.396-9.358,5.396-14.786c0-12.682-10.318-23-23-23s-23,10.318-23,23
			s10.318,23,23,23c4.761,0,9.298-1.436,13.177-4.162l13.661,14.208c0.571,0.593,1.339,0.92,2.162,0.92
			c0.779,0,1.518-0.297,2.079-0.837C56.255,54.982,56.293,53.08,55.146,51.887z M23.984,6c9.374,0,17,7.626,17,17s-7.626,17-17,17
			s-17-7.626-17-17S14.61,6,23.984,6z"/>
	</symbol>

    <symbol id="footer-phone" role="img" aria-labelledby="footer-phone_title" viewBox="0 0 512 512">
        <title id="footer-phone_title"></title>
        <path d="M421.216,195.504c-5.092-26.101-17.723-49.836-36.526-68.64c-18.804-18.803-42.54-31.434-68.641-36.527
			c-11.21-2.189-22.073,5.128-24.261,16.339c-2.187,11.212,5.128,22.073,16.339,24.26c36.847,7.188,65.3,35.642,72.489,72.489
			c1.927,9.874,10.581,16.726,20.278,16.726c1.313,0,2.645-0.125,3.984-0.387C416.088,217.577,423.403,206.715,421.216,195.504z"/>
		<path d="M511.422,196.929c-5.629-50.096-28.373-97.304-64.042-132.927C411.712,28.378,364.475,5.694,314.371,0.128
			c-11.355-1.261-21.578,6.92-22.839,18.272c-1.261,11.353,6.919,21.578,18.272,22.84c84.961,9.438,150.966,75.36,160.512,160.31
			c1.188,10.566,10.139,18.374,20.527,18.374c0.771,0,1.552-0.043,2.336-0.131C504.53,218.516,512.698,208.281,511.422,196.929z"/>
		<path d="M432.59,312.566c-0.062-0.008-0.124-0.017-0.186-0.025c-20.013-2.639-39.751-7.557-58.619-14.596
			c-23.91-8.99-51.103-3.191-69.27,14.772c-0.028,0.028-0.056,0.055-0.083,0.083l-17.148,17.148
			c-42.633-26.924-78.756-63.047-105.679-105.679l17.149-17.149c0.027-0.028,0.054-0.055,0.082-0.083
			c17.964-18.166,23.762-45.356,14.79-69.223c-7.057-18.914-11.974-38.653-14.614-58.666c-0.007-0.063-0.017-0.127-0.026-0.19
			c-4.591-32.478-32.782-56.734-65.548-56.467H66.053c-1.943,0.002-3.912,0.091-5.853,0.267
			C24.143,26.016-2.541,58.001,0.718,94.058c0.01,0.108,0.02,0.215,0.032,0.323c7.684,72.354,32.649,142.88,72.197,203.955
			c35.892,56.461,84.701,105.269,141.162,141.164c60.792,39.406,130.99,64.369,203.013,72.196c0.127,0.015,0.254,0.027,0.38,0.038
			c1.961,0.176,3.949,0.266,5.921,0.266c0.083,0,0.165,0,0.247,0.001c36.204-0.148,65.538-29.722,65.391-65.841v-67.233
			C489.746,345.714,465.515,317.211,432.59,312.566z M447.698,378.695v67.548c0.055,13.396-10.8,24.338-24.19,24.393
			c-0.715-0.004-1.425-0.027-2.135-0.086c-65.578-7.161-129.488-29.914-184.837-65.808c-0.053-0.035-0.107-0.069-0.161-0.103
			c-51.429-32.68-95.885-77.137-128.565-128.565c-0.032-0.051-0.064-0.101-0.097-0.153C71.683,220.306,48.928,156.086,41.902,90.193
			C40.779,76.91,50.63,65.155,63.923,63.954c0.717-0.064,1.443-0.098,2.145-0.098h67.463c0.146-0.001,0.294-0.003,0.443-0.002
			c12.021,0,22.322,8.905,24.044,20.819c3.05,23.063,8.721,45.806,16.871,67.649c3.319,8.832,1.189,18.869-5.427,25.591
			l-28.517,28.517c-6.583,6.582-7.956,16.753-3.354,24.847c33.837,59.508,83.177,108.847,142.685,142.685
			c8.094,4.6,18.264,3.23,24.848-3.355l28.512-28.512c6.72-6.621,16.765-8.752,25.642-5.415
			c21.799,8.134,44.547,13.805,67.61,16.855c12.18,1.757,21.122,12.339,20.816,24.647
			C447.7,378.353,447.698,378.524,447.698,378.695z"/>
    </symbol>    

	<symbol id="footer-mail" role="img" aria-labelledby="footer-mail_title" viewBox="0 0 512 512">
        <title id="footer-mail_title"></title>
        <path d="M256,141.176c-63.306,0-114.809,51.503-114.809,114.809S192.694,370.795,256,370.795s114.809-51.503,114.809-114.809
			S319.306,141.176,256,141.176z M256,329.43c-40.498,0-73.445-32.947-73.445-73.445c0-40.498,32.947-73.445,73.445-73.445
			c40.499,0,73.445,32.947,73.445,73.445C329.445,296.483,296.499,329.43,256,329.43z"/>
		<path d="M437.008,74.97C388.656,26.623,324.375,0,256,0c-0.005,0-0.013,0-0.017,0C187.603,0.004,123.318,26.637,74.97,74.992
			C26.62,123.347-0.005,187.637,0,256.017c0.004,68.379,26.637,132.666,74.992,181.014C123.344,485.377,187.625,512.001,256,512
			c0.004,0,0.012,0,0.017,0c55.945-0.004,111.216-18.738,155.631-52.752c9.07-6.945,10.792-19.927,3.846-28.995
			c-6.945-9.069-19.926-10.794-28.995-3.846c-37.24,28.518-83.58,44.224-130.486,44.228c-0.006,0-0.006,0-0.014,0
			c-57.324,0-111.224-22.324-151.761-62.856c-40.542-40.536-62.871-94.435-62.875-151.766
			C41.357,137.663,137.636,41.372,255.986,41.364c0.007,0,0.006,0,0.014,0c118.34,0,214.628,96.279,214.636,214.622v23.532
			c0,27.523-22.39,49.913-49.913,49.913c-27.523,0-49.913-22.391-49.913-49.913v-23.532c0-11.422-9.259-20.682-20.682-20.682
			s-20.682,9.26-20.682,20.682v23.532c0,50.33,40.947,91.278,91.278,91.278S512,329.848,512,279.518v-23.534
			C511.995,187.604,485.362,123.318,437.008,74.97z"/>
    </symbol>

    <symbol id="footer-time" role="img" aria-labelledby="ooter-time_title" viewBox="0 0 512 512">
        <title id="ooter-time_title"></title>
        <path d="M437.019,74.981C388.667,26.629,324.38,0,256,0S123.333,26.63,74.981,74.981S0,187.62,0,256
			s26.629,132.667,74.981,181.019C123.332,485.371,187.62,512,256,512s132.667-26.629,181.019-74.981
			C485.371,388.667,512,324.38,512,256S485.371,123.332,437.019,74.981z M256,470.636C137.65,470.636,41.364,374.35,41.364,256
			S137.65,41.364,256,41.364S470.636,137.65,470.636,256S374.35,470.636,256,470.636z"/>
		<path d="M341.221,311.97l-64.538-64.537V114.809c0-11.422-9.259-20.682-20.682-20.682c-11.422,0-20.682,9.26-20.682,20.682V256
			c0,5.486,2.179,10.746,6.058,14.625l70.594,70.595c4.038,4.039,9.332,6.058,14.625,6.058c5.293,0,10.586-2.019,14.626-6.058
			C349.297,333.142,349.297,320.047,341.221,311.97z"/>
	</symbol>

    <symbol id="footer-location" role="img" aria-labelledby="footer-location_title" viewBox="0 0 512 512">
        <title id="footer-location_title"></title>
        <path d="M406.766,62.449C366.495,22.178,312.951,0,256,0S145.505,22.178,105.234,62.449
			c-40.272,40.271-62.449,93.814-62.449,150.766c0,37.656,10.972,76.863,32.609,116.532c16.825,30.846,40.15,62.102,69.326,92.898
			c49.17,51.903,97.763,84.519,99.808,85.881C248.001,510.842,252,512,256,512c4,0,7.999-1.158,11.473-3.474
			c2.045-1.363,50.638-33.978,99.808-85.881c29.176-30.795,52.501-62.051,69.326-92.898c21.637-39.669,32.609-78.876,32.609-116.532
			C469.215,156.263,447.038,102.72,406.766,62.449z M256.001,465.903C215.826,436.156,84.15,329.739,84.15,213.215
			c0-94.759,77.091-171.851,171.85-171.851s171.85,77.092,171.851,171.851C427.851,329.748,296.159,436.168,256.001,465.903z"/>
		<path d="M256,128.355c-46.791,0-84.86,38.068-84.86,84.86c0,46.791,38.068,84.86,84.86,84.86c46.792,0,84.861-38.068,84.86-84.86
			C340.86,166.423,302.791,128.355,256,128.355z M256,256.71c-23.983,0-43.495-19.512-43.495-43.495
			c0-23.983,19.512-43.495,43.495-43.495c23.984,0,43.495,19.512,43.495,43.495C299.495,237.198,279.984,256.71,256,256.71z"/>
	</symbol>

    <symbol id="footer-facebook" role="img" aria-labelledby="footer-facebook_title" viewBox="0 0 512 512">
        <title id="footer-facebook_title">Facebook</title>
        <path d="M296.296,512H200.36V256h-64v-88.225l64-0.029l-0.104-51.976C200.256,43.794,219.773,0,304.556,0h70.588v88.242h-44.115
		c-33.016,0-34.604,12.328-34.604,35.342l-0.131,44.162h79.346l-9.354,88.225L296.36,256L296.296,512z"/>
    </symbol>

    <symbol id="footer-twitter" role="img" aria-labelledby="footer-twitter_title" viewBox="0 0 512 512">
        <title id="footer-twitter_title">Twitter</title>
        <path d="M512.002,97.211c-18.84,8.354-39.082,14.001-60.33,16.54c21.686-13,38.342-33.585,46.186-58.115
		c-20.299,12.039-42.777,20.78-66.705,25.49c-19.16-20.415-46.461-33.17-76.674-33.17c-58.011,0-105.042,47.029-105.042,105.039
		c0,8.233,0.929,16.25,2.72,23.939c-87.3-4.382-164.701-46.2-216.509-109.753c-9.042,15.514-14.223,33.558-14.223,52.809
		c0,36.444,18.544,68.596,46.73,87.433c-17.219-0.546-33.416-5.271-47.577-13.139c-0.01,0.438-0.01,0.878-0.01,1.321
		c0,50.894,36.209,93.348,84.261,103c-8.813,2.399-18.094,3.687-27.674,3.687c-6.769,0-13.349-0.66-19.764-1.888
		c13.368,41.73,52.16,72.104,98.126,72.949c-35.95,28.176-81.243,44.967-130.458,44.967c-8.479,0-16.84-0.496-25.058-1.471
		c46.486,29.807,101.701,47.197,161.021,47.197c193.211,0,298.868-160.062,298.868-298.872c0-4.554-0.104-9.084-0.305-13.59
		C480.111,136.775,497.92,118.275,512.002,97.211z"/>
    </symbol>

    <symbol id="footer-instagram" role="img" aria-labelledby="footer-instagram_title" viewBox="0 0 97.395 97.395">
        <title id="footer-instagram_title">Instagram</title>
        <path d="M12.501,0h72.393c6.875,0,12.5,5.09,12.5,12.5v72.395c0,7.41-5.625,12.5-12.5,12.5H12.501C5.624,97.395,0,92.305,0,84.895
		V12.5C0,5.09,5.624,0,12.501,0L12.501,0z M70.948,10.821c-2.412,0-4.383,1.972-4.383,4.385v10.495c0,2.412,1.971,4.385,4.383,4.385
		h11.008c2.412,0,4.385-1.973,4.385-4.385V15.206c0-2.413-1.973-4.385-4.385-4.385H70.948L70.948,10.821z M86.387,41.188h-8.572
		c0.811,2.648,1.25,5.453,1.25,8.355c0,16.2-13.556,29.332-30.275,29.332c-16.718,0-30.272-13.132-30.272-29.332
		c0-2.904,0.438-5.708,1.25-8.355h-8.945v41.141c0,2.129,1.742,3.872,3.872,3.872h67.822c2.13,0,3.872-1.742,3.872-3.872V41.188
		H86.387z M48.789,29.533c-10.802,0-19.56,8.485-19.56,18.953c0,10.468,8.758,18.953,19.56,18.953
		c10.803,0,19.562-8.485,19.562-18.953C68.351,38.018,59.593,29.533,48.789,29.533z"/>
    </symbol>

    <symbol id="footer-linkedin" role="img" aria-labelledby="footer-linkedin_title" viewBox="0 0 93.06 93.06">
        <title id="footer-linkedin_title">Linkedin</title>
        <path d="M11.185,0.08C5.004,0.08,0.001,5.092,0,11.259c0,6.173,5.003,11.184,11.186,11.184c6.166,0,11.176-5.011,11.176-11.184
			C22.362,5.091,17.351,0.08,11.185,0.08z"/>
		<rect x="1.538" y="30.926" width="19.287" height="62.054"/>
		<path d="M69.925,29.383c-9.382,0-15.673,5.144-18.248,10.022h-0.258v-8.479H32.921H32.92v62.053h19.27V62.281
			c0-8.093,1.541-15.932,11.575-15.932c9.89,0,10.022,9.256,10.022,16.451v30.178H93.06V58.942
			C93.06,42.235,89.455,29.383,69.925,29.383z"/>
    </symbol>	

</svg>
