<svg xmlns="http://www.w3.org/2000/svg" xmlns:xlink="http://www.w3.org/1999/xlink">

	<symbol id="header-search" role="img" aria-labelledby="header-search_title" viewBox="0 0 512 512">
        <title id="header-search_title"></title>
	    <path d="m506.144531 477.859375-120.5-120.496094c32.597657-39.074219 50.355469-87.851562 50.355469-139.363281 0-120.480469-97.5-218-218-218-120.480469 0-218 97.5-218 218 0 120.480469 97.5 218 218 218 51.511719 0 100.285156-17.753906 139.359375-50.355469l120.496094 120.496094c7.8125 7.8125 20.476562 7.8125 28.285156 0 7.8125-7.808594 7.8125-20.472656.003906-28.28125zm-466.144531-259.859375c0-98.148438 79.851562-178 178-178s178 79.851562 178 178-79.851562 178-178 178-178-79.851562-178-178zm0 0"/>
	</symbol>

	<symbol id="header-facebook" role="img" aria-labelledby="header-facebook_title" viewBox="0 0 512 512">
        <title id="header-facebook_title">Facebook</title>
		<path d="M314.829,135.492h70.595c11.423,0,20.682-9.26,20.682-20.682V20.682C406.107,9.26,396.848,0,385.425,0h-70.595
			c-76.282,0-138.341,62.06-138.341,138.341v49.913h-49.913c-11.422,0-20.682,9.26-20.682,20.682v94.127
			c0,11.423,9.26,20.682,20.682,20.682h49.913v167.572c0,11.423,9.26,20.682,20.682,20.682h94.127
			c11.423,0,20.682-9.259,20.682-20.682V323.746h49.913c9.49,0,17.763-6.458,20.065-15.666l23.532-94.127
			c1.544-6.179,0.156-12.725-3.763-17.744c-3.919-5.02-9.932-7.954-16.301-7.954H311.98v-49.913
			C311.98,136.77,313.258,135.492,314.829,135.492z M291.298,229.619h67.637l-13.191,52.763h-54.447
			c-11.423,0-20.682,9.259-20.682,20.682v167.572h-52.763V303.064c0-11.423-9.26-20.682-20.682-20.682h-49.913v-52.763h49.913
			c11.422,0,20.682-9.26,20.682-20.682v-70.595c0-53.473,43.503-96.977,96.977-96.977h49.913v52.763h-49.913
			c-24.38,0-44.214,19.835-44.214,44.214v70.595C270.615,220.359,279.875,229.619,291.298,229.619z"/>
    </symbol>

    <symbol id="header-twitter" role="img" aria-labelledby="header-twitter_title" viewBox="0 0 512 512">
        <title id="header-twitter_title">Twitter</title>
		<path d="M502.954,47.189c-7.126-4.852-16.515-4.774-23.559,0.196c-15.351,10.828-31.974,19.528-49.557,25.948
			c-19.253-17.414-43.615-27.826-69.915-29.656c-31.056-2.16-61.081,7.9-84.561,28.326c-25.59,22.259-40.174,54.444-40.046,88.349
			c-85.248-7.609-139.14-61.55-177.09-108.986c-4.598-5.746-11.901-8.619-19.182-7.538c-7.279,1.078-13.438,5.944-16.171,12.777
			c-0.948,2.369-23.141,58.799-17.453,127.057c4.761,57.133,30.23,131.964,120.039,181.717
			c-32.436,14.756-68.282,21.939-103.953,20.519c-9.576-0.378-18.15,5.859-20.736,15.08c-2.587,9.221,1.497,19.013,9.869,23.665
			c51.359,28.532,108.03,43.736,163.889,43.965c0.432,0.002,0.861,0.003,1.294,0.003c54.105-0.001,106.379-13.938,151.246-40.336
			c42.898-25.241,78.416-61.759,102.715-105.603c26.162-47.206,39.427-101.75,39.427-162.186c-0.011-3.544-0.186-7.098-0.52-10.638
			c20.7-22.885,35.388-50.567,42.719-80.667C513.451,60.803,510.081,52.04,502.954,47.189z M432.297,128.07
			c-4.916,4.847-7.088,11.827-5.793,18.607c0.877,4.588,1.329,9.278,1.344,13.874c0,101.956-44.378,186.544-121.756,232.072
			c-60.586,35.649-133.037,43.933-203.609,25.057c0.729-0.201,1.459-0.407,2.185-0.615c27.596-7.885,53.63-20.055,77.377-36.174
			c6.329-4.296,9.77-11.734,8.946-19.34c-0.825-7.605-5.778-14.134-12.881-16.975C97.757,312.434,53.563,257.594,46.757,181.575
			c-2.536-28.334,0.707-54.721,4.766-74.501c16.638,17.909,37.384,37.227,62.129,53.407c42.771,27.966,90.663,42.146,142.346,42.146
			c11.423,0,20.682-9.26,20.682-20.682v-21.393c0-0.045,0-0.091,0-0.137c-0.146-21.948,9.268-42.797,25.829-57.202
			c15.146-13.175,34.51-19.665,54.543-18.27c20.026,1.393,38.311,10.502,51.487,25.648c5.339,6.138,13.783,8.577,21.567,6.229
			c5.725-1.724,11.375-3.645,16.941-5.757C442.599,117.081,437.672,122.769,432.297,128.07z"/>
    </symbol>

    <symbol id="header-youtube" role="img" aria-labelledby="header-youtube_title" viewBox="0 -50 512 535">
        <title id="header-youtube_title">Youtube</title>
		<path d="m199.765625 324.253906c-3.5 0-6.988281-.902344-10.1875-2.730468-6.496094-3.710938-10.378906-10.382813-10.378906-17.867188v-179.703125c0-7.484375 3.882812-14.15625 10.378906-17.871094 6.5-3.703125 14.214844-3.644531 20.648437.171875l152.054688 89.839844c6.324219 3.738281 10.105469 10.359375 10.105469 17.707031 0 7.34375-3.78125 13.96875-10.105469 17.695313l-152.0625 89.855468c-3.261719 1.9375-6.859375 2.902344-10.453125 2.902344zm.007813-203.808594c-.742188 0-1.355469.253907-1.742188.476563-.65625.375-1.765625 1.273437-1.765625 3.039063v179.703124c0 1.765626 1.109375 2.660157 1.765625 3.039063.660156.375 2 .859375 3.507812-.027344l152.066407-89.855469c1.492187-.886718 1.722656-2.269531 1.722656-3.011718 0-.742188-.222656-2.125-1.722656-3.023438l-152.058594-89.835937c-.636719-.375-1.242187-.503907-1.773437-.503907zm0 0"/>
		<path d="m256 427.132812c-55.464844 0-110.933594-5.699218-166.015625-17.09375l-28.628906-5.921874c-35.550781-7.347657-61.355469-39.03125-61.355469-75.339844v-229.929688c0-36.308594 25.804688-67.996094 61.355469-75.339844l28.628906-5.925781c110.164063-22.78125 221.867187-22.78125 332.03125 0l28.628906 5.925781c35.550781 7.34375 61.347657 39.03125 61.347657 75.339844v229.929688c0 36.308594-25.796876 67.992187-61.355469 75.339844l-28.628907 5.921874c-55.074218 11.394532-110.542968 17.09375-166.007812 17.09375zm0-409.582031c-54.316406 0-108.621094 5.578125-162.558594 16.742188l-28.628906 5.921875c-27.667969 5.714844-47.746094 30.378906-47.746094 58.625v229.929687c0 28.253907 20.078125 52.90625 47.746094 58.625l28.628906 5.921875c107.867188 22.3125 217.25 22.3125 325.117188 0l28.628906-5.921875c27.667969-5.71875 47.746094-30.378906 47.746094-58.625v-229.929687c0-28.253906-20.078125-52.910156-47.746094-58.625l-28.628906-5.921875c-53.9375-11.164063-108.242188-16.742188-162.558594-16.742188zm0 0"/>
    </symbol>

    <symbol id="header-instagram" role="img" aria-labelledby="header-instagram_title" viewBox="0 0 551.034 551.034">
        <title id="header-instagram_title">Instagram</title>
		<path d="M386.878,0H164.156C73.64,0,0,73.64,0,164.156v222.722
			c0,90.516,73.64,164.156,164.156,164.156h222.722c90.516,0,164.156-73.64,164.156-164.156V164.156
			C551.033,73.64,477.393,0,386.878,0z M495.6,386.878c0,60.045-48.677,108.722-108.722,108.722H164.156
			c-60.045,0-108.722-48.677-108.722-108.722V164.156c0-60.046,48.677-108.722,108.722-108.722h222.722
			c60.045,0,108.722,48.676,108.722,108.722L495.6,386.878L495.6,386.878z"/>
		<path d="M275.517,133C196.933,133,133,196.933,133,275.516s63.933,142.517,142.517,142.517
			S418.034,354.1,418.034,275.516S354.101,133,275.517,133z M275.517,362.6c-48.095,0-87.083-38.988-87.083-87.083
			s38.989-87.083,87.083-87.083c48.095,0,87.083,38.988,87.083,87.083C362.6,323.611,323.611,362.6,275.517,362.6z"/>
		<circle cx="418.31" cy="134.07" r="34.15"/>
    </symbol>

    <symbol id="header-linkedin" role="img" aria-labelledby="header-linkedin_title" viewBox="0 0 512 512">
        <title id="header-linkedin_title">Linkedin</title>
		<path d="M3.429,166.013V512h124.555V166.013H3.429z M100.306,484.321H31.108V193.692h69.197V484.321z"/>
		<path d="M64.389,0C29.71,0,4.531,23.989,4.531,57.047c0,32.504,25.246,57.007,58.737,57.007c17.529,0,32.68-5.73,43.816-16.556
			c10.717-10.434,16.624-24.8,16.61-40.775C122.91,23.327,98.529,0,64.389,0z M87.784,77.658c-5.866,5.703-14.34,8.717-24.517,8.717
			c-18.286,0-31.057-12.056-31.057-29.328c0-17.57,12.934-29.368,32.179-29.368c19.084,0,31.207,11.38,31.626,29.382
			C96.015,65.17,93.095,72.482,87.784,77.658z"/>
		<path d="M379.248,166.074c-39.194,0-64.711,12.147-80.901,24.973l-2.335-25.034H183.343V512h110.716V330.228
			c0-7.393,3.193-22.786,4.801-26.246c11.339-24.463,27.061-24.463,51.699-24.463c27.044,0,50.756,25.544,50.756,55.777V512h107.256
			V316.889C508.571,213.268,441.701,166.074,379.248,166.074z M480.892,484.321h-51.898V335.296
			c0-45.235-36.352-83.456-78.398-83.456c-26.801,0-57.666,0-76.438,40.478c-3.933,8.46-7.778,27.922-7.778,37.91v154.093h-55.358
			V193.692h59.96l4.176,41.518h22.043l4.055-6.558c6.514-10.488,26.824-34.889,77.992-34.889
			c49.127,0,101.644,38.522,101.644,123.126V484.321z"/>
    </symbol>

    <symbol id="advantages01" role="img" aria-labelledby="advantages01_title" viewBox="0 0 512 512">
        <title id="advantages01_title"></title>
	    <path style="fill:#0d487b;" d="M207.074,295.349c-7.238,0-13.106-5.868-13.106-13.106V122.676c0-6.143-4.997-11.14-11.14-11.14
			c-6.143,0-11.14,4.997-11.14,11.14v159.569c0,7.238-5.868,13.106-13.106,13.106s-13.106-5.868-13.106-13.106V122.676
			c0-20.596,16.756-37.352,37.352-37.352s37.352,16.756,37.352,37.352v159.569C220.18,289.482,214.312,295.349,207.074,295.349z"/>
		<path style="fill:#0d487b;" d="M110.09,295.349c-7.238,0-13.106-5.868-13.106-13.106V110.552c0-6.143-4.997-11.14-11.14-11.14
			s-11.14,4.997-11.14,11.14v33.545c0,7.238-5.868,13.106-13.106,13.106s-13.106-5.868-13.106-13.106v-33.545
			c0-20.596,16.756-37.352,37.352-37.352s37.352,16.756,37.352,37.352v171.693C123.196,289.482,117.328,295.349,110.09,295.349z"/>
		<path style="fill:#0d487b;" d="M158.582,295.349c-7.238,0-13.106-5.868-13.106-13.106V86.303c0-6.143-4.997-11.14-11.14-11.14
			c-6.143,0-11.14,4.997-11.14,11.14v195.941c0,7.238-5.868,13.106-13.106,13.106c-7.238,0-13.106-5.868-13.106-13.106V86.303
			c0-20.596,16.756-37.352,37.352-37.352s37.352,16.756,37.352,37.352v195.941C171.688,289.482,165.82,295.349,158.582,295.349z"/>
		<path style="fill:#0d487b;" d="M70.32,427.754c-4.786,0-9.398-2.632-11.706-7.195c-4.795-9.483-11.823-17.866-20.325-24.242
			C14.314,378.333,0,349.703,0,319.733v-105.15c0-20.596,16.756-37.352,37.352-37.352s37.352,16.756,37.352,37.352v56.75
			c0,7.238-5.868,13.106-13.106,13.106s-13.106-5.868-13.106-13.106v-56.75c0-6.143-4.997-11.14-11.14-11.14
			s-11.14,4.997-11.14,11.14v105.15c0,21.765,10.394,42.556,27.806,55.616c11.706,8.781,21.385,20.325,27.988,33.383
			c3.266,6.459,0.678,14.343-5.782,17.609C74.328,427.3,72.309,427.754,70.32,427.754z"/>
		<path style="fill:#0d487b;" d="M255.566,295.349c-7.238,0-13.106-5.868-13.106-13.106V159.048c0-6.143-4.997-11.14-11.14-11.14
			s-11.14,4.997-11.14,11.14v123.196c0,7.238-5.868,13.106-13.106,13.106c-7.238,0-13.106-5.868-13.106-13.106V159.048
			c0-20.596,16.756-37.352,37.352-37.352s37.352,16.756,37.352,37.352v123.196C268.671,289.482,262.804,295.349,255.566,295.349z"/>
		<path style="fill:#0d487b;" d="M353.418,295.349c-7.238,0-13.106-5.868-13.106-13.106V122.676c0-6.143-4.997-11.14-11.14-11.14
			c-6.143,0-11.14,4.997-11.14,11.14v159.569c0,7.238-5.868,13.106-13.106,13.106c-7.238,0-13.106-5.868-13.106-13.106V122.676
			c0-20.596,16.756-37.352,37.352-37.352c20.596,0,37.352,16.756,37.352,37.352v159.569
			C366.524,289.482,360.657,295.349,353.418,295.349z"/>
		<path style="fill:#0d487b;" d="M401.91,295.349c-7.238,0-13.106-5.868-13.106-13.106V110.552c0-20.596,16.756-37.352,37.352-37.352
			s37.352,16.756,37.352,37.352v33.545c0,7.238-5.868,13.106-13.106,13.106c-7.238,0-13.106-5.868-13.106-13.106v-33.545
			c0-6.143-4.997-11.14-11.14-11.14s-11.14,4.997-11.14,11.14v171.693C415.016,289.482,409.149,295.349,401.91,295.349z"/>
		<path style="fill:#0d487b;" d="M401.91,295.349c-7.238,0-13.106-5.868-13.106-13.106V86.303c0-6.143-4.997-11.14-11.14-11.14
			s-11.14,4.997-11.14,11.14v195.941c0,7.238-5.868,13.106-13.106,13.106s-13.106-5.868-13.106-13.106V86.303
			c0-20.596,16.756-37.352,37.352-37.352c20.596,0,37.352,16.756,37.352,37.352v195.941
			C415.016,289.482,409.149,295.349,401.91,295.349z"/>
		<path style="fill:#0d487b;" d="M441.68,427.754c-1.99,0-4.008-0.453-5.903-1.413c-6.46-3.266-9.048-11.151-5.782-17.609
			c6.603-13.059,16.281-24.602,27.988-33.385c17.411-13.059,27.806-33.85,27.806-55.615v-105.15c0-6.143-4.997-11.14-11.14-11.14
			s-11.14,4.997-11.14,11.14v56.75c0,7.238-5.867,13.106-13.106,13.106c-7.238,0-13.106-5.868-13.106-13.106v-56.75
			c0-20.596,16.756-37.352,37.352-37.352c20.596,0,37.352,16.756,37.352,37.352v105.15c0,29.971-14.314,58.601-38.289,76.584
			c-8.502,6.377-15.529,14.76-20.325,24.243C451.078,425.123,446.466,427.754,441.68,427.754z"/>
		<path style="fill:#0d487b;" d="M304.926,295.349c-7.238,0-13.106-5.868-13.106-13.106V159.048c0-6.143-4.997-11.14-11.14-11.14
			s-11.14,4.997-11.14,11.14v123.196c0,7.238-5.868,13.106-13.106,13.106c-7.238,0-13.106-5.868-13.106-13.106V159.048
			c0-20.596,16.756-37.352,37.352-37.352s37.352,16.756,37.352,37.352v123.196C318.032,289.482,312.165,295.349,304.926,295.349z"/>
		<path style="fill:#00afd5" d="M320.182,193.449c-38.316,0-55.508,21.477-62.271,34.091c-0.849,1.585-3.156,1.582-4.003-0.003
			c-6.74-12.616-23.837-34.089-62.151-34.089c-43.645,0-82.038,29.794-82.038,84.2c0,22.015,4.486,40.876,16.939,61.924
			c25.376,42.894,108.972,98.5,126.143,109.458c1.899,1.211,4.303,1.215,6.204,0.008c17.186-10.905,100.796-66.236,126.371-109.466
			c12.452-21.048,16.908-39.909,16.908-61.924C402.282,223.243,363.827,193.449,320.182,193.449z"/>
		<path style="fill:#0d487b;" d="M255.908,463.049L255.908,463.049c-3.603,0-7.115-1.026-10.158-2.969
			c-10.364-6.613-102.073-65.996-130.374-113.833c-12.977-21.937-18.765-43.092-18.765-68.598c0-29.314,9.941-54.218,28.749-72.021
			c17.226-16.305,40.807-25.285,66.396-25.285c32.978,0,52.779,13.761,64.237,27.148c11.149-12.77,31.061-27.148,64.189-27.148
			c25.592,0,49.18,8.979,66.422,25.281c18.832,17.806,28.785,42.712,28.785,72.025c0,25.541-5.778,46.696-18.734,68.598
			c-28.508,48.192-120.261,107.28-130.629,113.859C262.993,462.03,259.493,463.049,255.908,463.049z M191.757,206.555
			c-34.311,0-68.933,21.983-68.933,71.094c0,20.821,4.52,37.345,15.112,55.251c22.971,38.829,99.505,90.431,117.995,102.543
			c36.369-23.491,98.277-68.929,118.163-102.543c10.571-17.869,15.082-34.393,15.082-55.251c0-49.111-34.652-71.094-68.996-71.094
			c-29.876,0-44.073,14.78-50.721,27.179c-2.678,4.996-7.87,8.099-13.549,8.099c-5.691,0-10.887-3.113-13.563-8.122
			C235.728,221.324,221.577,206.555,191.757,206.555z"/>
	</symbol>

	<symbol id="advantages02" role="img" aria-labelledby="advantages02_title" viewBox="0 0 512 512">
        <title id="advantages02_title"></title>
	    <path style="fill:#0d487b;" d="M256.001,512.001c-1.816,0-3.633-0.352-5.344-1.058c-1.955-0.804-48.404-20.076-95.599-51.396
			C89.065,415.75,55.602,371.28,55.602,327.373V71.769c0-4.779,2.433-9.231,6.457-11.811c4.024-2.577,9.085-2.935,13.428-0.94
			c13.865,6.364,28.692,9.592,44.066,9.592c40.666,0,78.205-23.78,95.631-60.583C217.505,3.126,222.442,0,227.865,0h56.27
			c5.423,0,10.361,3.126,12.681,8.027c6.359,13.429,15.311,25.183,26.604,34.932c5.866,5.064,6.517,13.924,1.454,19.789
			c-5.062,5.865-13.924,6.517-19.789,1.454c-11.978-10.339-21.873-22.468-29.497-36.14h-39.182
			c-23.494,41.954-68.418,68.607-116.852,68.607c-12.277,0-24.285-1.63-35.889-4.862v235.565
			c0,66.803,119.627,132.572,172.336,155.364c52.705-22.791,172.336-88.561,172.336-155.364V91.811
			c-11.605,3.231-23.611,4.862-35.889,4.862c-7.748,0-14.031-6.283-14.031-14.031s6.283-14.031,14.031-14.031
			c15.374,0,30.2-3.227,44.066-9.592c4.344-1.997,9.405-1.639,13.428,0.94c4.023,2.58,6.457,7.032,6.457,11.811v255.603
			c0,43.907-33.463,88.377-99.456,132.175c-47.195,31.32-93.644,50.592-95.599,51.396
			C259.634,511.649,257.817,512.001,256.001,512.001z"/>
		<path style="fill:#00afd5;" d="M256.001,413.69c-14.411-7.31-33.637-17.817-52.472-30.426
			c-44.363-29.699-56.858-51.111-57.843-56.535v-170.15c41.216-5.664,80.263-24.703,110.315-53.749
			c30.052,29.046,69.099,48.084,110.315,53.749v170.148c-0.986,5.424-13.48,26.836-57.843,56.535
			C289.638,395.874,270.413,406.382,256.001,413.69z"/>
		<path style="fill:#0d487b;" d="M256.001,427.721c-2.176,0-4.352-0.505-6.346-1.517c-13.56-6.877-33.923-17.887-53.93-31.281
			c-43.617-29.201-61.651-53.635-63.844-65.685c-0.15-0.828-0.226-1.668-0.226-2.51V156.58c0-7.011,5.175-12.946,12.12-13.901
			c38.197-5.25,74.589-22.986,102.474-49.938c5.44-5.256,14.063-5.256,19.503,0c27.885,26.952,64.279,44.687,102.474,49.938
			c6.944,0.956,12.12,6.889,12.12,13.901v170.147c0,0.842-0.076,1.682-0.226,2.51c-2.193,12.051-20.227,36.485-63.843,65.685
			c-20.008,13.394-40.37,24.404-53.931,31.281C260.354,427.216,258.178,427.721,256.001,427.721z M159.718,324.396
			c2.854,5.837,16.472,23.68,51.619,47.209c15.955,10.68,32.236,19.795,44.665,26.301c12.429-6.506,28.71-15.621,44.666-26.301
			c35.145-23.53,48.763-41.372,51.617-47.209V168.442c-35.301-7.024-68.763-23.248-96.284-46.677
			c-27.52,23.428-60.983,39.653-96.284,46.677V324.396z"/>
		<path style="fill:#0d487b;" d="M249.868,302.227c-3.592,0-7.181-1.371-9.921-4.11l-41.06-41.06c-5.479-5.479-5.479-14.364,0-19.844
			c5.481-5.478,14.362-5.478,19.844,0l31.138,31.138l54.467-54.467c5.481-5.478,14.362-5.478,19.844,0
			c5.479,5.479,5.479,14.364,0,19.844l-64.39,64.39C257.05,300.857,253.46,302.227,249.868,302.227z"/>
	</symbol>

	<symbol id="advantages03" role="img" aria-labelledby="advantages03_title" viewBox="0 0 512 512">
        <title id="advantages03_title"></title>
	    <path style="fill:#00afd5;" d="M219.217,207.04h47.611c31.011,0,56.152,25.139,56.152,56.152v82.999H149.117v-82.999
			c0-31.011,25.139-56.152,56.152-56.152h47.611"/>
		<path style="fill:#0d487b;" d="M298.245,198.999c6.543-9.139,10.412-20.318,10.412-32.391v-38.011
			c0-8.469-6.867-15.334-15.334-15.334s-15.334,6.865-15.334,15.334v38.011c0,13.775-11.153,24.986-24.902,25.098H219.01
			c-13.749-0.113-24.902-11.323-24.902-25.098v-38.011c0-13.844,11.263-25.109,25.109-25.109h33.664
			c8.468,0,15.334-6.865,15.334-15.334s-6.867-15.334-15.334-15.334h-33.664c-30.756,0-55.778,25.021-55.778,55.778v38.011
			c0,12.073,3.867,23.252,10.412,32.391c-23.707,11.65-40.067,36.044-40.067,64.193v82.999c0,8.469,6.865,15.335,15.334,15.335
			h173.862c8.468,0,15.335-6.865,15.335-15.335v-82.999C338.314,235.041,321.953,210.649,298.245,198.999z M307.645,330.857H164.451
			v-67.665c0-22.506,18.309-40.817,40.817-40.817h13.534c0.138,0.002,0.274,0.011,0.413,0.011h1.498v62.744
			c0,8.469,6.865,15.335,15.334,15.335c8.469,0,15.334-6.865,15.334-15.335v-62.744h1.497c0.138,0,0.274-0.009,0.412-0.011h13.534
			c22.508,0,40.817,18.309,40.817,40.817v67.665H307.645z"/>
		<path style="fill:#0d487b;" d="M234.702,469.4c-60.13,0-120.259-22.888-166.034-68.663c-91.551-91.551-91.551-240.518,0-332.07
			s240.518-91.551,332.07,0c5.988,5.988,5.988,15.698,0,21.686c-5.99,5.988-15.696,5.988-21.688,0
			c-38.557-38.557-89.82-59.791-144.348-59.791S128.909,51.797,90.353,90.353c-79.594,79.594-79.594,209.103,0,288.698
			c38.557,38.557,89.82,59.791,144.348,59.791s105.791-21.234,144.348-59.791c5.99-5.988,15.696-5.988,21.688,0
			c5.988,5.988,5.988,15.698,0,21.686C354.961,446.513,294.831,469.4,234.702,469.4z"/>
		<path style="fill:#0d487b;" d="M75.405,242.702c-0.238,0-0.474-0.005-0.713-0.015c-8.46-0.386-15.005-7.56-14.618-16.02
			c1.997-43.625,20.114-84.669,51.016-115.573c5.988-5.988,15.698-5.99,21.686,0c5.988,5.99,5.99,15.698,0,21.686
			c-25.481,25.483-40.42,59.323-42.066,95.29C90.337,236.289,83.551,242.702,75.405,242.702z"/>
		<rect x="427.216" y="415.499" transform="matrix(-0.7071 0.7071 -0.7071 -0.7071 1092.5405 452.5643)" style="fill:#00afd5;" width="50.649" height="74.111"/>
		<path style="fill:#0d487b;" d="M507.511,450.006l-52.409-52.409c-5.99-5.987-15.696-5.987-21.688,0l-7.066,7.066l-25.613-25.615
			c-2.995-2.995-6.919-4.491-10.843-4.491c-0.071,0-0.141,0.009-0.213,0.011c-0.419,0.006-0.839,0.02-1.256,0.06
			c-2.71,0.259-5.355,1.254-7.643,2.952c-0.601,0.446-1.187,0.923-1.731,1.469c-0.002,0.002-0.003,0.005-0.006,0.006
			c-79.594,79.589-209.099,79.584-288.69-0.006c-79.594-79.594-79.594-209.103,0-288.698c79.592-79.592,209.101-79.594,288.696,0
			c57.464,57.464,75.387,143.477,45.66,219.128c-3.098,7.882,0.782,16.784,8.664,19.88c7.885,3.099,16.784-0.782,19.881-8.664
			c34.188-87.009,13.574-185.938-52.519-252.031c-91.551-91.551-240.518-91.551-332.07,0s-91.551,240.518,0,332.07
			c45.776,45.776,105.905,68.663,166.034,68.663c55.344,0,110.677-19.406,154.828-58.184l15.134,15.135l-7.066,7.066
			c-5.988,5.988-5.988,15.698,0,21.688l52.409,52.409c2.877,2.875,6.776,4.491,10.843,4.491c4.067,0,7.966-1.616,10.843-4.491
			l35.818-35.818c2.875-2.875,4.491-6.776,4.491-10.843C512,456.782,510.386,452.881,507.511,450.006z M460.848,474.983
			l-30.721-30.723l14.132-14.132l30.721,30.723L460.848,474.983z"/>
	</symbol>

	<symbol id="form-search" role="img" aria-labelledby="form-search_title" viewBox="0 0 56.966 56.966">
        <title id="form-search_title"></title>
	    <path d="M55.146,51.887L41.588,37.786c3.486-4.144,5.396-9.358,5.396-14.786c0-12.682-10.318-23-23-23s-23,10.318-23,23
			s10.318,23,23,23c4.761,0,9.298-1.436,13.177-4.162l13.661,14.208c0.571,0.593,1.339,0.92,2.162,0.92
			c0.779,0,1.518-0.297,2.079-0.837C56.255,54.982,56.293,53.08,55.146,51.887z M23.984,6c9.374,0,17,7.626,17,17s-7.626,17-17,17
			s-17-7.626-17-17S14.61,6,23.984,6z"/>
	</symbol>

	<symbol id="footer-phone" role="img" aria-labelledby="footer-phone_title" viewBox="0 0 512 512">
        <title id="footer-phone_title"></title>
        <path d="M421.216,195.504c-5.092-26.101-17.723-49.836-36.526-68.64c-18.804-18.803-42.54-31.434-68.641-36.527
			c-11.21-2.189-22.073,5.128-24.261,16.339c-2.187,11.212,5.128,22.073,16.339,24.26c36.847,7.188,65.3,35.642,72.489,72.489
			c1.927,9.874,10.581,16.726,20.278,16.726c1.313,0,2.645-0.125,3.984-0.387C416.088,217.577,423.403,206.715,421.216,195.504z"/>
		<path d="M511.422,196.929c-5.629-50.096-28.373-97.304-64.042-132.927C411.712,28.378,364.475,5.694,314.371,0.128
			c-11.355-1.261-21.578,6.92-22.839,18.272c-1.261,11.353,6.919,21.578,18.272,22.84c84.961,9.438,150.966,75.36,160.512,160.31
			c1.188,10.566,10.139,18.374,20.527,18.374c0.771,0,1.552-0.043,2.336-0.131C504.53,218.516,512.698,208.281,511.422,196.929z"/>
		<path d="M432.59,312.566c-0.062-0.008-0.124-0.017-0.186-0.025c-20.013-2.639-39.751-7.557-58.619-14.596
			c-23.91-8.99-51.103-3.191-69.27,14.772c-0.028,0.028-0.056,0.055-0.083,0.083l-17.148,17.148
			c-42.633-26.924-78.756-63.047-105.679-105.679l17.149-17.149c0.027-0.028,0.054-0.055,0.082-0.083
			c17.964-18.166,23.762-45.356,14.79-69.223c-7.057-18.914-11.974-38.653-14.614-58.666c-0.007-0.063-0.017-0.127-0.026-0.19
			c-4.591-32.478-32.782-56.734-65.548-56.467H66.053c-1.943,0.002-3.912,0.091-5.853,0.267
			C24.143,26.016-2.541,58.001,0.718,94.058c0.01,0.108,0.02,0.215,0.032,0.323c7.684,72.354,32.649,142.88,72.197,203.955
			c35.892,56.461,84.701,105.269,141.162,141.164c60.792,39.406,130.99,64.369,203.013,72.196c0.127,0.015,0.254,0.027,0.38,0.038
			c1.961,0.176,3.949,0.266,5.921,0.266c0.083,0,0.165,0,0.247,0.001c36.204-0.148,65.538-29.722,65.391-65.841v-67.233
			C489.746,345.714,465.515,317.211,432.59,312.566z M447.698,378.695v67.548c0.055,13.396-10.8,24.338-24.19,24.393
			c-0.715-0.004-1.425-0.027-2.135-0.086c-65.578-7.161-129.488-29.914-184.837-65.808c-0.053-0.035-0.107-0.069-0.161-0.103
			c-51.429-32.68-95.885-77.137-128.565-128.565c-0.032-0.051-0.064-0.101-0.097-0.153C71.683,220.306,48.928,156.086,41.902,90.193
			C40.779,76.91,50.63,65.155,63.923,63.954c0.717-0.064,1.443-0.098,2.145-0.098h67.463c0.146-0.001,0.294-0.003,0.443-0.002
			c12.021,0,22.322,8.905,24.044,20.819c3.05,23.063,8.721,45.806,16.871,67.649c3.319,8.832,1.189,18.869-5.427,25.591
			l-28.517,28.517c-6.583,6.582-7.956,16.753-3.354,24.847c33.837,59.508,83.177,108.847,142.685,142.685
			c8.094,4.6,18.264,3.23,24.848-3.355l28.512-28.512c6.72-6.621,16.765-8.752,25.642-5.415
			c21.799,8.134,44.547,13.805,67.61,16.855c12.18,1.757,21.122,12.339,20.816,24.647
			C447.7,378.353,447.698,378.524,447.698,378.695z"/>
    </symbol>

	<symbol id="footer-mail" role="img" aria-labelledby="footer-mail_title" viewBox="0 0 512 512">
        <title id="footer-mail_title"></title>
        <path d="M256,141.176c-63.306,0-114.809,51.503-114.809,114.809S192.694,370.795,256,370.795s114.809-51.503,114.809-114.809
			S319.306,141.176,256,141.176z M256,329.43c-40.498,0-73.445-32.947-73.445-73.445c0-40.498,32.947-73.445,73.445-73.445
			c40.499,0,73.445,32.947,73.445,73.445C329.445,296.483,296.499,329.43,256,329.43z"/>
		<path d="M437.008,74.97C388.656,26.623,324.375,0,256,0c-0.005,0-0.013,0-0.017,0C187.603,0.004,123.318,26.637,74.97,74.992
			C26.62,123.347-0.005,187.637,0,256.017c0.004,68.379,26.637,132.666,74.992,181.014C123.344,485.377,187.625,512.001,256,512
			c0.004,0,0.012,0,0.017,0c55.945-0.004,111.216-18.738,155.631-52.752c9.07-6.945,10.792-19.927,3.846-28.995
			c-6.945-9.069-19.926-10.794-28.995-3.846c-37.24,28.518-83.58,44.224-130.486,44.228c-0.006,0-0.006,0-0.014,0
			c-57.324,0-111.224-22.324-151.761-62.856c-40.542-40.536-62.871-94.435-62.875-151.766
			C41.357,137.663,137.636,41.372,255.986,41.364c0.007,0,0.006,0,0.014,0c118.34,0,214.628,96.279,214.636,214.622v23.532
			c0,27.523-22.39,49.913-49.913,49.913c-27.523,0-49.913-22.391-49.913-49.913v-23.532c0-11.422-9.259-20.682-20.682-20.682
			s-20.682,9.26-20.682,20.682v23.532c0,50.33,40.947,91.278,91.278,91.278S512,329.848,512,279.518v-23.534
			C511.995,187.604,485.362,123.318,437.008,74.97z"/>
    </symbol>

    <symbol id="footer-time" role="img" aria-labelledby="footer-time_title" viewBox="0 0 512 512">
        <title id="footer-time_title"></title>
        <path d="M437.019,74.981C388.667,26.629,324.38,0,256,0S123.333,26.63,74.981,74.981S0,187.62,0,256
			s26.629,132.667,74.981,181.019C123.332,485.371,187.62,512,256,512s132.667-26.629,181.019-74.981
			C485.371,388.667,512,324.38,512,256S485.371,123.332,437.019,74.981z M256,470.636C137.65,470.636,41.364,374.35,41.364,256
			S137.65,41.364,256,41.364S470.636,137.65,470.636,256S374.35,470.636,256,470.636z"/>
		<path d="M341.221,311.97l-64.538-64.537V114.809c0-11.422-9.259-20.682-20.682-20.682c-11.422,0-20.682,9.26-20.682,20.682V256
			c0,5.486,2.179,10.746,6.058,14.625l70.594,70.595c4.038,4.039,9.332,6.058,14.625,6.058c5.293,0,10.586-2.019,14.626-6.058
			C349.297,333.142,349.297,320.047,341.221,311.97z"/>
	</symbol>

    <symbol id="footer-location" role="img" aria-labelledby="footer-location_title" viewBox="0 0 512 512">
        <title id="footer-location_title"></title>
        <path d="M406.766,62.449C366.495,22.178,312.951,0,256,0S145.505,22.178,105.234,62.449
			c-40.272,40.271-62.449,93.814-62.449,150.766c0,37.656,10.972,76.863,32.609,116.532c16.825,30.846,40.15,62.102,69.326,92.898
			c49.17,51.903,97.763,84.519,99.808,85.881C248.001,510.842,252,512,256,512c4,0,7.999-1.158,11.473-3.474
			c2.045-1.363,50.638-33.978,99.808-85.881c29.176-30.795,52.501-62.051,69.326-92.898c21.637-39.669,32.609-78.876,32.609-116.532
			C469.215,156.263,447.038,102.72,406.766,62.449z M256.001,465.903C215.826,436.156,84.15,329.739,84.15,213.215
			c0-94.759,77.091-171.851,171.85-171.851s171.85,77.092,171.851,171.851C427.851,329.748,296.159,436.168,256.001,465.903z"/>
		<path d="M256,128.355c-46.791,0-84.86,38.068-84.86,84.86c0,46.791,38.068,84.86,84.86,84.86c46.792,0,84.861-38.068,84.86-84.86
			C340.86,166.423,302.791,128.355,256,128.355z M256,256.71c-23.983,0-43.495-19.512-43.495-43.495
			c0-23.983,19.512-43.495,43.495-43.495c23.984,0,43.495,19.512,43.495,43.495C299.495,237.198,279.984,256.71,256,256.71z"/>
	</symbol>

	<symbol id="footer-facebook" role="img" aria-labelledby="footer-facebook_title" viewBox="0 0 512 512">
        <title id="footer-facebook_title">Facebook</title>
        <path d="M296.296,512H200.36V256h-64v-88.225l64-0.029l-0.104-51.976C200.256,43.794,219.773,0,304.556,0h70.588v88.242h-44.115
		c-33.016,0-34.604,12.328-34.604,35.342l-0.131,44.162h79.346l-9.354,88.225L296.36,256L296.296,512z"/>
    </symbol>

    <symbol id="footer-twitter" role="img" aria-labelledby="footer-twitter_title" viewBox="0 0 512 512">
        <title id="footer-twitter_title">Twitter</title>
        <path d="M512.002,97.211c-18.84,8.354-39.082,14.001-60.33,16.54c21.686-13,38.342-33.585,46.186-58.115
		c-20.299,12.039-42.777,20.78-66.705,25.49c-19.16-20.415-46.461-33.17-76.674-33.17c-58.011,0-105.042,47.029-105.042,105.039
		c0,8.233,0.929,16.25,2.72,23.939c-87.3-4.382-164.701-46.2-216.509-109.753c-9.042,15.514-14.223,33.558-14.223,52.809
		c0,36.444,18.544,68.596,46.73,87.433c-17.219-0.546-33.416-5.271-47.577-13.139c-0.01,0.438-0.01,0.878-0.01,1.321
		c0,50.894,36.209,93.348,84.261,103c-8.813,2.399-18.094,3.687-27.674,3.687c-6.769,0-13.349-0.66-19.764-1.888
		c13.368,41.73,52.16,72.104,98.126,72.949c-35.95,28.176-81.243,44.967-130.458,44.967c-8.479,0-16.84-0.496-25.058-1.471
		c46.486,29.807,101.701,47.197,161.021,47.197c193.211,0,298.868-160.062,298.868-298.872c0-4.554-0.104-9.084-0.305-13.59
		C480.111,136.775,497.92,118.275,512.002,97.211z"/>
    </symbol>

    <symbol id="footer-instagram" role="img" aria-labelledby="footer-instagram_title" viewBox="155 155 200 200">
        <title id="footer-instagram_title">Instagram</title>
        <path d="M256,227.5c-15.7,0-28.5,12.8-28.5,28.5s12.8,28.5,28.5,28.5s28.5-12.8,28.5-28.5S271.7,227.5,256,227.5z"/>
        <path d="M322.2,154.8H189.8c-19.3,0-35,15.7-35,35v132.5c0,19.3,15.7,35,35,35h132.5c19.3,0,35-15.7,35-35V189.8   C357.2,170.5,341.5,154.8,322.2,154.8z M256,314.5c-32.2,0-58.5-26.2-58.5-58.5s26.2-58.5,58.5-58.5s58.5,26.2,58.5,58.5   S288.2,314.5,256,314.5z M335.9,190.6c0,8-6.5,14.5-14.5,14.5h0c-8,0-14.5-6.5-14.5-14.5v0c0-8,6.5-14.5,14.5-14.5h0   C329.4,176.1,335.9,182.6,335.9,190.6L335.9,190.6z"/>
    </symbol>

    <symbol id="footer-linkedin" role="img" aria-labelledby="footer-linkedin_title" viewBox="0 0 93 93">
        <title id="footer-linkedin_title">Linkedin</title>
        <path d="M11.185,0.08C5.004,0.08,0.001,5.092,0,11.259c0,6.173,5.003,11.184,11.186,11.184c6.166,0,11.176-5.011,11.176-11.184
			C22.362,5.091,17.351,0.08,11.185,0.08z"/>
		<rect x="1.538" y="30.926" width="19.287" height="62.054"/>
		<path d="M69.925,29.383c-9.382,0-15.673,5.144-18.248,10.022h-0.258v-8.479H32.921H32.92v62.053h19.27V62.281
			c0-8.093,1.541-15.932,11.575-15.932c9.89,0,10.022,9.256,10.022,16.451v30.178H93.06V58.942
			C93.06,42.235,89.455,29.383,69.925,29.383z"/>
    </symbol>

</svg>
