<svg xmlns="http://www.w3.org/2000/svg" xmlns:xlink="http://www.w3.org/1999/xlink">

    <symbol id="advantages01" role="img" aria-labelledby="advantages01_title" viewBox="0 0 512 512">
        <title id="advantages01_title"></title>
        <path d="M323.928,162.085H188.072c-18.116,0-32.801-14.685-32.801-32.801V59.068
			c0-18.116,14.685-32.801,32.801-32.801h135.857c18.116,0,32.801,14.685,32.801,32.801v70.217
			C356.729,147.4,342.044,162.085,323.928,162.085z"/>
		<path style="fill:#000000;" d="M323.928,176.905H188.072c-26.258,0-47.621-21.363-47.621-47.621V59.066
			c0-26.258,21.363-47.621,47.621-47.621h135.857c26.258,0,47.621,21.363,47.621,47.621v70.218
			C371.549,155.542,350.186,176.905,323.928,176.905z M188.072,41.087c-9.915,0-17.981,8.065-17.981,17.981v70.218
			c0,9.915,8.065,17.981,17.981,17.981h135.857c9.914,0,17.981-8.065,17.981-17.981v-70.22c0-9.914-8.065-17.981-17.981-17.981
			H188.072V41.087z"/>
		<path style="fill:#000000;" d="M256,439.094c-8.184,0-14.82-6.636-14.82-14.82V220.927c0-8.184,6.636-14.82,14.82-14.82
			c8.184,0,14.82,6.636,14.82,14.82v203.346C270.82,432.459,264.185,439.094,256,439.094z"/>
		<path style="fill:#000000;" d="M442.078,347.403c-8.184,0-14.82-6.636-14.82-14.82v-41.272h-63.902
			c-8.184,0-14.82-6.636-14.82-14.82c0-8.184,6.636-14.82,14.82-14.82h67.141c14.558,0,26.4,11.843,26.4,26.4v44.51
			C456.898,340.767,450.262,347.403,442.078,347.403z"/>
		<path style="fill:#000000;" d="M69.923,347.403c-8.184,0-14.82-6.636-14.82-14.82v-44.51c0-14.558,11.843-26.4,26.4-26.4h215.054
			c8.184,0,14.82,6.636,14.82,14.82c0,8.184-6.636,14.82-14.82,14.82H84.743v41.272C84.743,340.767,78.107,347.403,69.923,347.403z"
			/>
		<path style="fill:#000000;" d="M470.35,457.608h-56.545c-22.965,0-41.65-18.683-41.65-41.65v-56.545
			c0-22.965,18.683-41.65,41.65-41.65h56.545c22.966,0,41.65,18.683,41.65,41.65v27.916c0,8.184-6.636,14.82-14.82,14.82
			s-14.82-6.636-14.82-14.82v-27.916c0-6.623-5.388-12.01-12.01-12.01h-56.545c-6.623,0-12.01,5.387-12.01,12.01v56.545
			c0,6.623,5.387,12.01,12.01,12.01h56.545c8.184,0,14.82,6.636,14.82,14.82S478.534,457.608,470.35,457.608z"/>
		<path style="fill:#000000;" d="M98.196,457.608H41.65c-22.966,0-41.65-18.683-41.65-41.65v-56.545
			c0-22.965,18.683-41.65,41.65-41.65h56.547c22.965,0,41.65,18.683,41.65,41.65v27.916c0,8.184-6.636,14.82-14.82,14.82
			s-14.82-6.636-14.82-14.82v-27.916c0-6.623-5.387-12.01-12.01-12.01H41.65c-6.623,0-12.01,5.387-12.01,12.01v56.545
			c0,6.623,5.389,12.01,12.01,12.01h56.547c8.184,0,14.82,6.636,14.82,14.82S106.38,457.608,98.196,457.608z"/>
		<path d="M284.273,485.735h-56.545c-14.818,0-26.83-12.012-26.83-26.83V402.36
			c0-14.818,12.011-26.83,26.83-26.83h56.545c14.818,0,26.83,12.012,26.83,26.83v56.545
			C311.103,473.722,299.09,485.735,284.273,485.735z"/>
		<path style="fill:#000000;" d="M284.272,500.555h-56.544c-22.966,0-41.65-18.683-41.65-41.65V402.36
			c0-22.966,18.683-41.65,41.65-41.65h56.544c22.966,0,41.65,18.683,41.65,41.65v56.544
			C325.923,481.87,307.238,500.555,284.272,500.555z M227.728,390.35c-6.623,0-12.01,5.388-12.01,12.01v56.544
			c0,6.623,5.389,12.01,12.01,12.01h56.544c6.623,0,12.01-5.388,12.01-12.01V402.36c0-6.623-5.388-12.01-12.01-12.01H227.728z"/>
    </symbol>

    <symbol id="advantages02" role="img" aria-labelledby="advantages02_title" viewBox="0 0 512 512">
        <title id="advantages02_title"></title>
        <path style="fill:#000000;" d="M460.253,410.142h-45.898c-7.99,0-14.467-6.478-14.467-14.467s6.477-14.467,14.467-14.467h45.898
            c12.58,0,22.814-10.234,22.814-22.814V94.018c0-12.58-10.234-22.815-22.814-22.815H51.747c-12.58,0.001-22.814,10.235-22.814,22.815
            v264.378c0,12.579,10.234,22.814,22.814,22.814h273.402c7.99,0,14.467,6.478,14.467,14.467s-6.477,14.467-14.467,14.467H51.747
            C23.213,410.142,0,386.929,0,358.396V94.018c0-28.532,23.213-51.747,51.747-51.747h408.506C488.787,42.271,512,65.486,512,94.02
            v264.378C512,386.929,488.787,410.142,460.253,410.142z"/>
        <rect x="186.85" y="395.674" width="138.3" height="59.588"/>
        <path style="fill:#000000;" d="M325.149,469.729H186.851c-7.99,0-14.467-6.478-14.467-14.467v-59.586
            c0-7.988,6.477-14.467,14.467-14.467h138.297c7.99,0,14.467,6.478,14.467,14.467v59.586
            C339.615,463.252,333.138,469.729,325.149,469.729z M201.318,440.796h109.364v-30.653H201.318L201.318,440.796L201.318,440.796z"/>
        <path style="fill:#000000;" d="M368.433,469.729H143.567c-7.99,0-14.467-6.478-14.467-14.467s6.477-14.467,14.467-14.467h224.865
            c7.99,0,14.467,6.478,14.467,14.467S376.422,469.729,368.433,469.729z"/>
        <path d="M220.059,313.866c-4.263-6.642-6.747-14.535-6.747-23.013c0-23.576,19.112-42.688,42.688-42.688
            s42.689,19.112,42.689,42.688c0,8.479-2.484,16.372-6.747,23.013H392.55v-50.323l-30.349-4.854
            c-4.998-16.528-13.745-31.427-25.256-43.701l10.983-28.732l-47.304-27.313l-19.378,23.851c-8.113-1.884-16.56-2.889-25.248-2.889
            c-8.68,0-17.134,1.005-25.243,2.889l-19.378-23.851l-47.301,27.313l10.983,28.732c-11.515,12.275-20.263,27.173-25.261,43.701
            l-30.342,4.854v50.323L220.059,313.866L220.059,313.866z"/>
        <path style="fill:#000000;" d="M392.548,328.333H291.942c-5.29,0-10.158-2.888-12.694-7.53c-2.536-4.642-2.338-10.299,0.521-14.75
            c2.915-4.542,4.456-9.797,4.456-15.2c0-15.562-12.66-28.221-28.223-28.221s-28.223,12.66-28.223,28.221
            c0,5.402,1.541,10.658,4.456,15.2c2.859,4.451,3.057,10.108,0.521,14.75c-2.536,4.642-7.405,7.53-12.694,7.53H119.452
            c-7.99,0-14.467-6.478-14.467-14.467v-50.322c0-7.107,5.163-13.163,12.181-14.284l21.782-3.485
            c4.689-12.139,11.3-23.572,19.498-33.724l-7.886-20.629c-2.537-6.639,0.123-14.138,6.278-17.693l47.301-27.313
            c6.156-3.554,13.98-2.109,18.462,3.405l13.917,17.13c12.872-2.009,26.082-2.011,38.957,0.001l13.918-17.131
            c4.483-5.516,12.31-6.958,18.462-3.405l47.303,27.313c6.156,3.554,8.817,11.055,6.278,17.693l-7.887,20.632
            c8.195,10.154,14.804,21.586,19.492,33.722l21.79,3.484c7.018,1.123,12.181,7.178,12.181,14.286v50.322
            C407.015,321.855,400.538,328.333,392.548,328.333z M312.515,299.4h65.567v-23.52l-18.167-2.906
            c-5.47-0.874-9.959-4.794-11.562-10.096c-4.255-14.072-11.85-27.21-21.962-37.995c-3.787-4.04-4.937-9.888-2.96-15.06l6.578-17.208
            l-25.936-14.976l-11.601,14.277c-3.486,4.291-9.115,6.216-14.498,4.971c-14.377-3.337-29.581-3.337-43.948,0
            c-5.39,1.247-11.015-0.68-14.5-4.971l-11.599-14.277l-25.934,14.976l6.578,17.208c1.978,5.173,0.827,11.023-2.963,15.063
            c-10.115,10.78-17.71,23.918-21.966,37.992c-1.603,5.302-6.092,9.222-11.562,10.096l-18.16,2.906v23.52h65.567
            c-0.425-2.814-0.641-5.671-0.641-8.547c0-31.515,25.641-57.154,57.156-57.154s57.156,25.639,57.156,57.154
            C313.156,293.729,312.94,296.586,312.515,299.4z"/>
    </symbol>

    <symbol id="advantages03" role="img" aria-labelledby="advantages03_title" viewBox="0 0 512 512">
        <title id="advantages03_title"></title>
        <path d="M438.268,320.436c2.089-7.671,3.234-15.73,3.234-24.064c0-50.561-40.988-91.549-91.549-91.549
			c-36.024,0-67.164,20.821-82.106,51.072c-11.527-10.65-26.93-17.166-43.862-17.166c-35.71,0-64.659,28.948-64.659,64.659
			c0,35.348,28.369,64.052,63.578,64.631c-0.361,0.006-0.719,0.027-1.083,0.027c-28.672,0-52.97-18.669-61.439-44.509
			c-23.224,11.013-39.288,34.665-39.288,62.075l0,0c0,37.926,30.745,68.671,68.671,68.671h137.631h25.827h77.172
			c37.093,0,67.162-30.069,67.162-67.162l0,0C497.557,352.696,471.649,324.336,438.268,320.436z"/>
		<path style="fill:#000000;" d="M455.142,309.35c0.534-4.308,0.805-8.643,0.805-12.976c0-58.444-47.548-105.992-105.992-105.992
			c-34.886,0-66.678,16.709-86.368,44.526c-11.942-6.92-25.55-10.621-39.601-10.621c-40.001,0-73.14,29.852-78.364,68.446H83.112
			c-29.9,0-54.226-24.326-54.226-54.228c0-15.87,7.066-30.816,18.757-40.988c14.122,23.196,39.458,37.865,67.528,37.865
			c0.389,0,0.773-0.012,1.158-0.025l0.207-0.007c7.874-0.153,14.173-6.587,14.161-14.463s-6.332-14.29-14.206-14.418
			c-27.224-0.448-49.372-22.962-49.372-50.19c0-27.689,22.527-50.216,50.216-50.216c12.662,0,24.758,4.733,34.061,13.329
			c3.344,3.091,7.952,4.424,12.43,3.593c4.477-0.83,8.303-3.722,10.321-7.805c13.109-26.539,39.609-43.026,69.158-43.026
			c36.253,0,67.983,25.701,75.446,61.111c1.645,7.804,9.301,12.801,17.112,11.154c7.805-1.646,12.798-9.306,11.154-17.112
			c-10.263-48.696-53.881-84.04-103.713-84.04c-34.886,0-66.678,16.709-86.368,44.526c-11.941-6.92-25.55-10.62-39.601-10.62
			c-43.617,0-79.102,35.484-79.102,79.102c0,3.978,0.3,7.893,0.878,11.721C15.081,183.057,0,209.79,0,238.505
			c0,45.828,37.285,83.114,83.114,83.114h53.676c-18.749,15.6-30.138,39.048-30.138,63.997c0,45.828,37.285,83.114,83.114,83.114
			h240.628c44.997,0,81.606-36.609,81.606-81.606C512,351.012,488.427,319.893,455.142,309.35z M430.394,439.843H189.766
			c-29.901,0-54.228-24.326-54.228-54.228c0-15.87,7.066-30.816,18.757-40.989c14.122,23.197,39.46,37.867,67.528,37.867
			c0.389,0,0.773-0.012,1.158-0.025l0.207-0.007c7.874-0.153,14.173-6.587,14.161-14.463s-6.332-14.29-14.206-14.418
			c-27.224-0.448-49.372-22.962-49.372-50.19c0-27.69,22.527-50.217,50.216-50.217c12.661,0,24.757,4.734,34.061,13.331
			c3.344,3.091,7.954,4.424,12.43,3.593c4.479-0.829,8.303-3.722,10.321-7.805c13.109-26.539,39.609-43.026,69.158-43.026
			c42.516,0,77.106,34.59,77.106,77.106c0,6.806-0.917,13.624-2.727,20.266c-1.106,4.06-0.387,8.397,1.969,11.882
			c2.354,3.485,6.111,5.771,10.289,6.26c26.522,3.099,46.522,25.602,46.522,52.342C483.114,416.192,459.463,439.843,430.394,439.843z"
			/>
    </symbol>

    <symbol id="advantages04" role="img" aria-labelledby="advantages04_title" viewBox="0 0 512 512">
        <title id="advantages04_title"></title>
        <path style="fill:#000000;" d="M256,420.13c-0.371,0-0.728-0.005-1.088-0.017c-47.695-0.299-92.811-21.292-123.815-57.624
			C105.801,332.848,91.87,295.03,91.87,256.002c0-33.515,10.037-65.754,29.025-93.226c18.541-26.827,44.302-47.349,74.499-59.35
			c19.301-7.667,39.691-11.554,60.606-11.554c32.395,0,63.744,9.437,90.656,27.292c46.008,30.533,73.474,81.687,73.474,136.839
			c0,6.385-0.378,12.861-1.124,19.246c-4.194,35.957-20.565,70.032-46.099,95.946c-5.889,5.978-15.505,6.047-21.48,0.158
			c-5.977-5.887-6.045-15.505-0.158-21.48c20.809-21.119,34.15-48.872,37.563-78.148c0.609-5.222,0.919-10.512,0.919-15.724
			c0-44.946-22.389-86.637-59.892-111.526c-21.916-14.539-47.457-22.226-73.86-22.226c-17.057,0-33.676,3.165-49.389,9.408
			c-51.248,20.367-84.363,69.176-84.363,124.342c0,31.804,11.349,62.622,31.956,86.769c25.325,29.676,62.19,46.796,101.146,46.968
			c0.202,0.002,0.404,0.006,0.605,0.015c8.348,0.049,15.165,6.831,15.165,15.189C271.121,413.329,264.387,420.13,256,420.13z"/>
		<path d="M322.621,179.646c-29.505,17.193-29.787,62.187-45.043,80.218
			c-15.256,18.048-78.742-26.519-76.834-54.009c1.891-27.491-7.002-24.043-12.083-28.344c-3.234-2.731,13.974-37.696,12.343-58.445
			c17.01-6.758,35.576-12.005,54.997-12.005c30.404,0,58.688,10.649,82.258,26.285C339.646,151.911,337.344,171.072,322.621,179.646z"
			/>
		<path style="fill:#000000;" d="M266.976,279.233c-21.36,0-47.574-17.669-62.892-34.086c-9.041-9.691-19.588-24.555-18.491-40.344
			c0.451-6.554,0.125-10.023-0.166-11.662c-1.738-0.799-4.151-1.987-6.58-4.042c-9.115-7.693-5.869-17.7-0.957-32.846
			c3.462-10.676,8.696-26.813,7.973-35.995c-0.524-6.642,3.342-12.848,9.533-15.309c22.153-8.801,41.978-13.078,60.604-13.078
			c30.89,0,62.239,9.966,90.656,28.818c3.908,2.593,6.401,6.847,6.749,11.524c2.24,29.938-5.546,50.312-23.139,60.559
			c-13.237,7.713-19.134,25.314-24.837,42.335c-4.381,13.073-8.517,25.424-16.252,34.569
			C285.491,274.033,278.644,279.233,266.976,279.233z M205.419,169.864c8.784,6.966,11.779,18.13,10.477,37.034
			c-0.144,2.06,1.847,8.36,10.397,17.524c13.397,14.36,32.119,24.378,40.61,24.433c3.583-5.084,6.7-14.383,9.72-23.399
			c6.786-20.255,15.23-45.462,38.349-58.934c6.674-3.887,8.45-14.416,8.436-24.585c-21.617-12.903-44.779-19.69-67.409-19.69
			c-12.414,0-25.364,2.406-40.18,7.509c-1.414,12.364-5.688,25.547-9.034,35.866C206.357,166.942,205.879,168.415,205.419,169.864z"/>
		<path d="M256,405.376c-45.095-0.199-86.178-22.433-113.349-54.272c18.323-22.533,56.807-13.123,68.087-36.08
			C230.043,275.728,291.536,352.407,256,405.376z"/>
		<path style="fill:#000000;" d="M256,420.565c-0.023,0-0.044,0-0.067,0c-47.188-0.208-92.688-21.932-124.836-59.6
			c-4.759-5.576-4.856-13.755-0.231-19.442c12.092-14.872,29.587-19.24,43.641-22.749c12.341-3.082,20.034-5.234,22.595-10.447
			c6.024-12.259,16.369-19.29,28.388-19.29c16.305,0,33.553,13.347,45.01,34.833c12.519,23.473,18.596,59.435-1.89,89.968
			C265.791,418.043,261.061,420.565,256,420.565z M165.572,353.096c22.85,21.224,52.099,34.428,81.746,36.73
			c7.98-17.815,3.755-37.835-3.62-51.663c-7.187-13.479-15.312-18.301-17.875-18.717c-0.314,0.337-0.854,1.048-1.455,2.275
			c-8.911,18.139-27.538,22.79-42.502,26.526C176.072,349.694,170.443,351.099,165.572,353.096z"/>
		<path d="M402.392,273.483c-3.935,33.761-17.461,64.058-40.116,87.049
			c-25.966-5.339-31.127-28.732-45.254-44.913c-33.167-37.992,27.322-46.53,61.022-46.53
			C387.29,269.09,394.537,270.661,402.392,273.483z"/>
		<path style="fill:#000000;" d="M362.277,375.72c-1.018,0-2.043-0.102-3.061-0.311c-24.65-5.07-35.442-22.293-44.115-36.133
			c-3.155-5.032-6.135-9.788-9.522-13.667c-16.213-18.572-14.776-33.118-10.716-42.053c11.727-25.803,57.149-29.657,83.182-29.657
			c10.345,0,19.161,1.581,29.48,5.287c6.647,2.386,10.771,9.039,9.953,16.053c-4.402,37.772-19.75,70.951-44.384,95.951
			C370.211,374.119,366.3,375.72,362.277,375.72z M322.592,295.993c0.067,0.614,0.664,3.67,5.872,9.637
			c4.968,5.69,8.735,11.702,12.378,17.516c6.003,9.578,10.367,16.11,16.94,19.775c13.568-16.148,22.902-35.954,27.447-58.205
			c-2.303-0.301-4.645-0.437-7.184-0.437C345.341,284.278,325.065,291.716,322.592,295.993z"/>
		<path style="fill:#000000;" d="M256,512c-68.38,0-132.668-26.63-181.019-74.981S0,324.38,0,256S26.63,123.332,74.981,74.981
			S187.62,0,256,0s132.668,26.63,181.019,74.981c5.931,5.931,5.931,15.549,0,21.482c-5.933,5.931-15.548,5.928-21.482,0
			C372.924,53.847,316.266,30.378,256,30.378S139.076,53.847,96.463,96.463C53.847,139.076,30.378,195.734,30.378,256
			s23.469,116.924,66.085,159.537c42.615,42.616,99.271,66.085,159.537,66.085s116.924-23.469,159.537-66.085
			c42.616-42.615,66.085-99.271,66.085-159.537c0-8.387,6.802-15.189,15.189-15.189S512,247.613,512,256
			c0,68.381-26.628,132.668-74.981,181.019C388.668,485.37,324.38,512,256,512z"/>
		<circle cx="85.727" cy="85.727" r="37.774"/>
		<path style="fill:#000000;" d="M85.723,138.686c-14.147,0-27.448-5.509-37.452-15.513c-20.651-20.651-20.651-54.252,0-74.902
			c10.004-10.004,23.305-15.513,37.452-15.513c14.146,0,27.447,5.509,37.45,15.513c20.651,20.651,20.651,54.252,0,74.902
			C113.169,133.176,99.868,138.686,85.723,138.686z M85.723,63.135c-6.035,0-11.705,2.35-15.971,6.615
			c-8.807,8.807-8.807,23.133,0,31.94c4.267,4.267,9.937,6.615,15.971,6.615c6.033,0,11.703-2.35,15.97-6.615
			c8.807-8.807,8.807-23.133,0-31.94C97.426,65.485,91.754,63.135,85.723,63.135z"/>
		<circle cx="426.282" cy="426.282" r="37.774"/>
		<path style="fill:#000000;" d="M426.279,479.243c-14.147,0-27.448-5.509-37.452-15.513c-20.651-20.651-20.651-54.252,0-74.902
			c10.004-10.004,23.305-15.513,37.452-15.513c14.146,0,27.447,5.509,37.45,15.513c20.651,20.651,20.651,54.252,0,74.902
			C453.727,473.734,440.426,479.243,426.279,479.243z M426.279,403.693c-6.035,0-11.705,2.35-15.971,6.615
			c-8.807,8.807-8.807,23.133,0,31.94c4.267,4.267,9.937,6.615,15.971,6.615c6.033,0,11.703-2.35,15.97-6.615
			c8.807-8.807,8.807-23.133,0-31.94C437.984,406.042,432.312,403.693,426.279,403.693z"/>
		<circle cx="426.282" cy="85.727" r="37.774"/>
		<path style="fill:#000000;" d="M426.279,138.686c-14.147,0-27.448-5.509-37.452-15.513c-20.651-20.651-20.651-54.252,0-74.902
			c10.004-10.004,23.305-15.513,37.452-15.513c14.146,0,27.447,5.509,37.45,15.513c20.651,20.651,20.651,54.252,0,74.902
			C453.727,133.176,440.426,138.686,426.279,138.686z M426.279,63.135c-6.035,0-11.705,2.35-15.971,6.615
			c-8.807,8.807-8.807,23.133,0,31.94c4.267,4.267,9.937,6.615,15.971,6.615c6.033,0,11.703-2.35,15.97-6.615
			c8.807-8.807,8.807-23.133,0-31.94C437.984,65.485,432.312,63.135,426.279,63.135z"/>
		<circle cx="85.727" cy="426.282" r="37.774"/>
		<path style="fill:#000000;" d="M85.723,479.243c-14.147,0-27.448-5.509-37.452-15.513c-20.651-20.651-20.651-54.252,0-74.902
			c10.004-10.004,23.305-15.513,37.452-15.513c14.146,0,27.447,5.509,37.45,15.513c20.651,20.651,20.651,54.252,0,74.902
			C113.169,473.734,99.868,479.243,85.723,479.243z M85.723,403.693c-6.035,0-11.705,2.35-15.971,6.615
			c-8.807,8.807-8.807,23.133,0,31.94c4.267,4.267,9.937,6.615,15.971,6.615c6.033,0,11.703-2.35,15.97-6.615
			c8.807-8.807,8.807-23.133,0-31.94C97.426,406.042,91.754,403.693,85.723,403.693z"/>
    </symbol>

    <symbol id="advantages05" role="img" aria-labelledby="advantages05_title" viewBox="0 0 512 512">
        <title id="advantages05_title"></title>
        <polygon points="259.863,222.297 259.863,53.99 496.282,18.527 496.282,222.297 "/>
		<path style="fill:#000000;" d="M496.282,238.015H259.863c-8.679,0-15.718-7.037-15.718-15.718V53.99
			c0-7.78,5.691-14.39,13.387-15.543L493.951,2.984c4.527-0.679,9.121,0.648,12.589,3.634s5.462,7.336,5.462,11.911v203.769
			C512,230.978,504.963,238.015,496.282,238.015z M275.581,206.579h204.983v-169.8L275.581,67.525V206.579z"/>
		<path style="fill:#000000;" d="M188.839,240.727H15.718C7.039,240.727,0,233.691,0,225.01V89.288c0-7.793,5.71-14.409,13.42-15.55
			l173.121-25.592c4.52-0.666,9.11,0.665,12.567,3.65c3.46,2.985,5.449,7.329,5.449,11.898v161.313
			C204.557,233.691,197.518,240.727,188.839,240.727z M31.436,209.292h141.685V81.909L31.436,102.853V209.292z"/>
		<path style="fill:#000000;" d="M496.282,509.192c-0.775,0-1.553-0.058-2.331-0.174l-236.419-35.463
			c-7.695-1.154-13.387-7.763-13.387-15.544V296.036c0-8.681,7.038-15.718,15.718-15.718h79.567c8.679,0,15.718,7.037,15.718,15.718
			c0,8.681-7.039,15.718-15.718,15.718h-63.85v132.722l204.983,30.747v-163.47h-50.508c-8.679,0-15.718-7.037-15.718-15.718
			c0-8.681,7.039-15.718,15.718-15.718h66.226c8.679,0,15.718,7.037,15.718,15.718v197.438c0,4.576-1.995,8.925-5.462,11.911
			C503.666,507.857,500.021,509.192,496.282,509.192z"/>
		<polygon points="15.718,422.713 15.718,296.036 188.837,296.036 188.837,448.305 "/>
		<path style="fill:#000000;" d="M188.839,464.023c-0.764,0-1.533-0.057-2.298-0.168L13.42,438.263C5.71,437.123,0,430.508,0,422.715
			V296.036c0-8.681,7.039-15.718,15.718-15.718h173.121c8.679,0,15.718,7.037,15.718,15.718v152.269c0,4.569-1.99,8.914-5.449,11.898
			C196.236,462.684,192.583,464.023,188.839,464.023z M31.436,409.149l141.685,20.944V311.752H31.436V409.149z"/>
    </symbol>

    <symbol id="information01" role="img" aria-labelledby="information01_title" viewBox="0 0 512 512">
        <title id="information01_title"></title>
        <polyline points="233.225,420.726 270.89,383.061 288.971,401.143 310.88,303.847 213.584,325.756 
			231.665,343.837 174.547,400.955 "/>
		<path style="fill:#000000;" d="M233.226,435.168c-3.697,0-7.391-1.41-10.212-4.23c-5.64-5.64-5.64-14.784,0-20.424l37.663-37.665
			c5.489-5.488,14.293-5.635,19.962-0.443l11.135-49.454l-49.452,11.135c2.431,2.656,3.787,6.132,3.787,9.748
			c0,3.83-1.522,7.504-4.23,10.212l-57.119,57.118c-5.641,5.64-14.783,5.641-20.425,0c-5.64-5.64-5.64-14.784,0-20.424l46.906-46.906
			l-7.869-7.869c-3.722-3.722-5.124-9.175-3.66-14.231c1.466-5.056,5.564-8.915,10.7-10.072l97.296-21.909
			c4.824-1.086,9.881,0.375,13.385,3.878c3.502,3.502,4.965,8.554,3.878,13.385l-21.908,97.296
			c-1.157,5.136-5.016,9.234-10.072,10.699c-5.058,1.464-10.508,0.062-14.231-3.66l-7.869-7.869l-27.451,27.453
			C240.618,433.758,236.922,435.168,233.226,435.168z"/>
		<path style="fill:#000000;" d="M256,512.001c-141.159,0-256-114.841-256-256s114.841-256,256-256
			c53.115,0,104.062,16.122,147.333,46.62c6.519,4.595,8.079,13.606,3.483,20.125c-4.595,6.519-13.607,8.08-20.125,3.485
			C348.318,43.181,303.126,28.885,256,28.885c-125.232,0-227.116,101.884-227.116,227.116S130.768,483.117,256,483.117
			s227.116-101.884,227.116-227.116c0-34.43-7.503-67.493-22.3-98.275c-3.456-7.189-0.43-15.817,6.759-19.273
			c7.191-3.453,15.817-0.429,19.274,6.759c16.691,34.719,25.152,71.993,25.152,110.789C512,397.16,397.159,512.001,256,512.001z"/>
		<path style="fill:#000000;" d="M230.725,434.831c-0.728,0-1.464-0.055-2.205-0.169c-42.217-6.469-80.975-27.931-109.135-60.43
			c-28.458-32.843-44.132-74.831-44.132-118.232c0-99.664,81.083-180.747,180.747-180.747s180.747,81.083,180.747,180.747
			c0,7.976-6.467,14.442-14.442,14.442c-7.975,0-14.442-6.466-14.442-14.442c0-83.737-68.126-151.863-151.863-151.863
			s-151.863,68.126-151.863,151.863c0,74.329,55.353,138.863,128.757,150.11c7.884,1.209,13.295,8.579,12.088,16.462
			C243.889,429.718,237.735,434.831,230.725,434.831z"/>
		<path d="M256,164.947c50.208,0,91.054,40.846,91.054,91.054h75.253c0-91.701-74.604-166.305-166.305-166.305
			S89.695,164.3,89.695,256.001h75.253C164.946,205.793,205.792,164.947,256,164.947z"/>
		<path style="fill:#000000;" d="M422.334,270.443c-0.007,0-0.017,0-0.029,0h-75.251c-7.975,0-14.442-6.466-14.442-14.442
			c0-42.243-34.368-76.612-76.612-76.612s-76.612,34.368-76.612,76.612c0,7.976-6.467,14.442-14.442,14.442H89.695
			c-7.975,0-14.442-6.466-14.442-14.442c0-99.664,81.083-180.747,180.747-180.747c99.342,0,180.223,80.566,180.744,179.788
			c0.022,0.318,0.03,0.637,0.03,0.96C436.776,263.977,430.31,270.443,422.334,270.443z M360.511,241.559h46.671
			c-7.298-76.989-72.315-137.421-151.183-137.421S112.113,164.57,104.816,241.559h46.671c7.065-51.36,51.24-91.054,104.511-91.054
			S353.447,190.199,360.511,241.559z"/>
		<path style="fill:#000000;" d="M216.293,187.292c-3.238,0-6.496-1.083-9.188-3.309l-59.817-49.406
			c-6.149-5.079-7.017-14.182-1.938-20.331c5.079-6.149,14.181-7.019,20.331-1.938l59.817,49.406
			c6.149,5.079,7.017,14.182,1.938,20.331C224.58,185.502,220.453,187.292,216.293,187.292z"/>
		<path style="fill:#000000;" d="M295.707,187.292c-4.161,0-8.287-1.788-11.143-5.245c-5.081-6.149-4.211-15.252,1.938-20.331
			l59.817-49.406c6.151-5.081,15.252-4.211,20.331,1.938c5.081,6.149,4.211,15.252-1.938,20.331l-59.817,49.406
			C302.203,186.207,298.946,187.292,295.707,187.292z"/>
    </symbol>

    <symbol id="information02" role="img" aria-labelledby="information02_title" viewBox="0 0 512 512">
        <title id="information02_title"></title>
        <path d="M342.64,209.773c0-6.785-0.779-13.381-2.257-19.717l18.627-15.133l-21.325-36.942l-22.442,8.578
			c-9.587-8.989-21.22-15.819-34.123-19.723l-3.794-23.701h-42.654l-3.79,23.701c-12.908,3.903-24.542,10.734-34.127,19.723
			l-22.436-8.578l-21.329,36.94l18.626,15.133c-1.471,6.336-2.256,12.932-2.256,19.717c0,6.779,0.785,13.381,2.256,19.713
			l-18.626,15.133l21.329,36.939l22.438-8.578c9.587,8.993,21.22,15.825,34.127,19.727l3.79,23.695h42.654l3.794-23.695
			c12.903-3.903,24.538-10.734,34.123-19.727l22.442,8.578l21.325-36.939l-18.627-15.133
			C341.861,223.154,342.64,216.553,342.64,209.773z M255.999,243.107c-18.411,0-33.336-14.925-33.336-33.336
			s14.925-33.336,33.336-33.336s33.336,14.925,33.336,33.336S274.41,243.107,255.999,243.107z"/>
		<path style="fill:#000000;" d="M277.327,330.838h-42.654c-7.091,0-13.133-5.151-14.253-12.153l-2.439-15.249
			c-8.596-3.501-16.725-8.202-24.069-13.915l-14.442,5.521c-6.623,2.533-14.106-0.123-17.652-6.264l-21.329-36.939
			c-3.546-6.141-2.104-13.948,3.398-18.42l11.993-9.744c-0.634-4.601-0.954-9.252-0.954-13.901c0-4.65,0.32-9.301,0.955-13.903
			l-11.994-9.744c-5.503-4.471-6.944-12.278-3.398-18.418l21.329-36.94c3.548-6.141,11.03-8.796,17.652-6.265l14.445,5.521
			c7.342-5.711,15.472-10.411,24.066-13.911l2.439-15.254c1.12-7.003,7.16-12.154,14.253-12.154h42.654
			c7.091,0,13.131,5.15,14.253,12.151l2.442,15.257c8.594,3.5,16.721,8.199,24.063,13.911l14.449-5.522
			c6.625-2.53,14.107,0.124,17.652,6.267l21.325,36.94c3.545,6.141,2.104,13.947-3.399,18.418l-11.991,9.742
			c0.634,4.596,0.953,9.246,0.953,13.906c0,4.66-0.319,9.309-0.953,13.902l11.991,9.742c5.503,4.471,6.944,12.277,3.399,18.418
			l-21.325,36.939c-3.546,6.141-11.027,8.796-17.652,6.267l-14.448-5.522c-7.341,5.713-15.471,10.414-24.066,13.916l-2.442,15.252
			C290.457,325.688,284.417,330.838,277.327,330.838z M246.98,301.971h18.041l1.849-11.544c0.873-5.456,4.783-9.933,10.073-11.534
			c10.529-3.185,20.358-8.871,28.428-16.439c4.03-3.781,9.864-4.927,15.028-2.956l10.945,4.183l9.018-15.621l-9.076-7.372
			c-4.285-3.481-6.209-9.103-4.955-14.481c1.247-5.345,1.879-10.874,1.879-16.434c0-5.56-0.632-11.09-1.879-16.441
			c-1.254-5.376,0.67-10.998,4.955-14.479l9.076-7.372l-9.018-15.622l-10.945,4.183c-5.16,1.97-10.994,0.826-15.025-2.953
			c-8.071-7.569-17.903-13.253-28.429-16.437c-5.288-1.599-9.2-6.078-10.073-11.534l-1.849-11.549h-18.04l-1.846,11.547
			c-0.872,5.457-4.785,9.937-10.074,11.536c-10.529,3.184-20.361,8.868-28.432,16.435c-4.03,3.78-9.862,4.927-15.026,2.953
			l-10.94-4.181l-9.021,15.622l9.074,7.372c4.281,3.478,6.205,9.091,4.959,14.464c-1.248,5.381-1.882,10.917-1.882,16.455
			s0.632,11.072,1.881,16.448c1.247,5.373-0.677,10.988-4.958,14.466l-9.074,7.372l9.021,15.621l10.94-4.181
			c5.16-1.972,11-0.827,15.029,2.956c8.067,7.569,17.899,13.253,28.43,16.438c5.29,1.599,9.201,6.079,10.073,11.535L246.98,301.971z
			 M255.999,257.541c-26.341,0-47.77-21.43-47.77-47.771s21.429-47.77,47.77-47.77s47.77,21.429,47.77,47.77
			S282.34,257.541,255.999,257.541z M255.999,190.867c-10.424,0-18.903,8.48-18.903,18.903s8.479,18.905,18.903,18.905
			c10.424,0,18.903-8.48,18.903-18.905C274.902,199.347,266.423,190.867,255.999,190.867z"/>
		<path style="fill:#000000;" d="M255.999,471.707c-7.971,0-14.433-6.462-14.433-14.433v-69.952c0-7.971,6.462-14.433,14.433-14.433
			c7.971,0,14.433,6.462,14.433,14.433v69.952C270.432,465.245,263.971,471.707,255.999,471.707z"/>
		<path style="fill:#000000;" d="M189.724,442.773c-7.971,0-14.433-6.462-14.433-14.433V395.14
			c-35.021-14.914-65.042-39.11-87.26-70.44c-24.741-34.885-37.818-76.005-37.818-118.914C50.212,92.316,142.527,0,255.999,0
			s205.788,92.316,205.788,205.788c0,70.532-35.511,135.369-94.992,173.438c-6.711,4.297-15.638,2.338-19.937-4.376
			c-4.297-6.714-2.338-15.64,4.376-19.937c51.148-32.737,81.686-88.486,81.686-149.125c0-97.555-79.367-176.922-176.922-176.922
			S79.079,108.233,79.079,205.788c0,73.762,46.473,140.481,115.644,166.021c5.669,2.093,9.434,7.497,9.434,13.54v42.992
			C204.157,436.311,197.695,442.773,189.724,442.773z"/>
		<path d="M189.724,424.678v28.52c0,16.532,13.401,29.934,29.934,29.934h72.686
			c16.532,0,29.934-13.401,29.934-29.934v-28.52H189.724z"/>
		<path style="fill:#000000;" d="M292.342,497.565h-72.684c-24.464,0-44.368-19.903-44.368-44.368v-28.52
			c0-7.971,6.462-14.433,14.433-14.433h132.553c7.971,0,14.433,6.462,14.433,14.433v28.52
			C336.71,477.663,316.806,497.565,292.342,497.565z M204.157,439.111v14.087c0,8.547,6.954,15.501,15.501,15.501h72.684
			c8.547,0,15.501-6.954,15.501-15.501v-14.087H204.157z"/>
		<path style="fill:#000000;" d="M287.031,512h-62.063c-7.971,0-14.433-6.462-14.433-14.433c0-7.971,6.462-14.433,14.433-14.433
			h62.063c7.971,0,14.433,6.462,14.433,14.433C301.464,505.538,295.002,512,287.031,512z"/>
    </symbol>

    <symbol id="information03" role="img" aria-labelledby="information03_title" viewBox="0 0 512 512">
        <title id="information03_title"></title>
        <path d="M400.663,459.871v-10.684c0-79.564-65.099-144.663-144.663-144.663l0,0
			c-79.564,0-144.663,65.099-144.663,144.663v10.684c0,20.687,16.769,37.456,37.456,37.456h214.415
			C383.894,497.327,400.663,480.556,400.663,459.871z"/>
		<path style="fill:#000000;" d="M363.208,512H148.791c-28.744,0-52.128-23.385-52.128-52.129v-10.684
			c0-87.859,71.478-159.337,159.337-159.337s159.337,71.478,159.337,159.337v10.684C415.337,488.615,391.952,512,363.208,512z
			 M256,319.196c-71.677,0-129.99,58.314-129.99,129.99v10.684c0,12.562,10.22,22.782,22.781,22.782h214.417
			c12.562,0,22.781-10.22,22.781-22.782v-10.684C385.99,377.51,327.677,319.196,256,319.196z"/>
		<path style="fill:#000000;" d="M437.881,181.883h-29.347c0-84.109-68.427-152.536-152.534-152.536S103.466,97.774,103.466,181.883
			H74.119C74.119,81.592,155.709,0,256,0S437.881,81.592,437.881,181.883z"/>
		<path style="fill:#000000;" d="M256,314.11c-71.105,0-128.954-57.849-128.954-128.954S184.895,56.202,256,56.202
			s128.954,57.849,128.954,128.954C384.954,256.263,327.105,314.11,256,314.11z M256,85.55c-54.924,0-99.607,44.684-99.607,99.607
			s44.682,99.607,99.607,99.607s99.607-44.684,99.607-99.607C355.607,130.233,310.924,85.55,256,85.55z"/>
		<path d="M140.961,162.995c0-7.005-3.558-13.564-9.497-17.28c-6.15-3.847-13.403-6.076-21.152-6.076l0,0
			c-22.065,0-40.117,18.053-40.117,40.117v26.911c0,22.065,18.053,40.117,40.117,40.117l0,0c7.749,0,15.002-2.229,21.152-6.076
			c5.938-3.715,9.497-10.274,9.497-17.28L140.961,162.995L140.961,162.995z"/>
		<path style="fill:#000000;" d="M110.313,261.46c-30.211,0-54.791-24.58-54.791-54.791v-26.911c0-30.211,24.58-54.791,54.791-54.791
			c10.241,0,20.247,2.873,28.936,8.311c10.26,6.418,16.387,17.528,16.387,29.718v60.436c0,12.191-6.128,23.3-16.39,29.72
			C130.559,258.585,120.552,261.46,110.313,261.46z M110.313,154.313c-14.031,0-25.444,11.415-25.444,25.444v26.911
			c0,14.031,11.413,25.444,25.444,25.444c4.729,0,9.351-1.328,13.368-3.842c1.61-1.007,2.607-2.861,2.607-4.841v-60.436
			c0-1.981-0.999-3.834-2.605-4.839C119.664,155.641,115.04,154.313,110.313,154.313z"/>
		<path d="M371.037,162.995c0-7.005,3.558-13.564,9.497-17.28c6.15-3.847,13.403-6.076,21.152-6.076l0,0
			c22.065,0,40.117,18.053,40.117,40.117v26.911c0,22.065-18.053,40.117-40.117,40.117l0,0c-7.749,0-15.002-2.229-21.152-6.076
			c-5.938-3.715-9.497-10.274-9.497-17.28V162.995L371.037,162.995z"/>
		<path style="fill:#000000;" d="M401.687,261.46c-10.241,0-20.247-2.873-28.936-8.311c-10.26-6.418-16.387-17.528-16.387-29.718
			v-60.436c0-12.191,6.128-23.302,16.39-29.72c8.687-5.437,18.693-8.31,28.933-8.31c30.211,0,54.791,24.58,54.791,54.791v26.911
			C456.478,236.88,431.899,261.46,401.687,261.46z M401.687,154.313c-4.729,0-9.351,1.328-13.368,3.842
			c-1.61,1.007-2.607,2.861-2.607,4.841v60.436c0,1.979,0.999,3.834,2.605,4.839c4.019,2.515,8.643,3.843,13.371,3.843
			c14.031,0,25.444-11.415,25.444-25.444v-26.911C427.131,165.726,415.718,154.313,401.687,154.313z"/>
		<path style="fill:#000000;" d="M369.475,244.92H265.293c-8.103,0-14.674-6.569-14.674-14.674s6.571-14.674,14.674-14.674h104.182
			c8.103,0,14.673,6.569,14.673,14.674S377.577,244.92,369.475,244.92z"/>
    </symbol>

    <symbol id="information04" role="img" aria-labelledby="information04_title" viewBox="0 0 512 512">
        <title id="information04_title"></title>
        <polygon points="97.409,61.893 255.999,61.893 149.583,193.179 	"/>
		<polygon points="414.589,61.893 255.999,61.893 362.415,193.179 	"/>
		<polygon points="146.993,194.664 255.999,446.434 365.006,194.664 	"/>
		<path style="fill:#000000;" d="M511.985,194.034c0.017-2.515-0.654-5.029-2.054-7.225L425.782,54.76
			c-0.038-0.061-0.085-0.114-0.123-0.174c-0.032-0.048-0.054-0.1-0.086-0.146c-0.066-0.098-0.147-0.183-0.216-0.279
			c-0.202-0.281-0.411-0.555-0.63-0.816c-0.107-0.127-0.216-0.252-0.329-0.376c-0.249-0.275-0.508-0.535-0.776-0.784
			c-0.096-0.089-0.187-0.181-0.284-0.265c-0.76-0.668-1.585-1.24-2.458-1.708c-0.1-0.053-0.202-0.098-0.303-0.149
			c-0.337-0.17-0.681-0.328-1.03-0.468c-0.147-0.06-0.296-0.114-0.445-0.169c-0.328-0.118-0.66-0.222-0.995-0.315
			c-0.146-0.04-0.292-0.084-0.439-0.119c-0.472-0.113-0.948-0.206-1.429-0.267c-0.005,0-0.009-0.001-0.015-0.003
			c-0.502-0.062-1.007-0.089-1.514-0.093c-0.04,0-0.078-0.007-0.118-0.007H255.999H97.409c-4.398,0-8.511,2.179-10.981,5.818
			c-2.47,3.64-2.977,8.267-1.352,12.355l45.255,113.875H37.457l29.313-46.001c3.939-6.182,2.122-14.385-4.06-18.324
			c-6.182-3.939-14.384-2.123-18.324,4.06L2.069,186.81c-1.403,2.2-2.074,4.717-2.054,7.236c-0.162,3.486,1.033,7.031,3.626,9.761
			l242.738,255.441c0.072,0.076,0.151,0.139,0.224,0.212c0.077,0.077,0.145,0.161,0.223,0.236c0.098,0.093,0.203,0.173,0.303,0.263
			c0.161,0.145,0.321,0.287,0.487,0.422c0.183,0.15,0.37,0.291,0.559,0.429c0.17,0.125,0.34,0.248,0.515,0.364
			c0.199,0.131,0.402,0.252,0.605,0.372c0.173,0.101,0.344,0.204,0.52,0.297c0.218,0.115,0.441,0.218,0.664,0.32
			c0.17,0.078,0.338,0.159,0.511,0.23c0.24,0.098,0.484,0.18,0.729,0.264c0.162,0.056,0.322,0.117,0.487,0.165
			c0.265,0.08,0.535,0.141,0.804,0.203c0.147,0.035,0.293,0.076,0.443,0.105c0.301,0.058,0.604,0.098,0.908,0.135
			c0.121,0.015,0.242,0.038,0.362,0.05c0.425,0.041,0.851,0.064,1.277,0.064h0.001h0.001c0.425,0,0.849-0.023,1.273-0.062
			c0.119-0.012,0.239-0.036,0.358-0.05c0.303-0.037,0.605-0.076,0.905-0.134c0.15-0.029,0.297-0.07,0.446-0.105
			c0.267-0.061,0.534-0.122,0.796-0.2c0.165-0.049,0.326-0.11,0.488-0.165c0.242-0.082,0.483-0.163,0.721-0.26
			c0.174-0.07,0.344-0.153,0.515-0.23c0.22-0.101,0.439-0.2,0.656-0.315c0.178-0.093,0.35-0.196,0.524-0.297
			c0.202-0.118,0.402-0.236,0.6-0.366c0.175-0.115,0.345-0.239,0.515-0.362c0.188-0.137,0.374-0.276,0.557-0.425
			c0.165-0.134,0.324-0.273,0.483-0.415c0.1-0.089,0.206-0.169,0.304-0.261c0.08-0.076,0.149-0.159,0.226-0.238
			c0.073-0.073,0.151-0.135,0.223-0.21l122.146-127.72c5.066-5.297,4.879-13.698-0.418-18.765c-5.298-5.067-13.699-4.877-18.765,0.418
			l-73.842,77.211l79.323-183.21h94.601l-36.481,38.638c-5.033,5.33-4.791,13.73,0.539,18.761c2.564,2.422,5.84,3.622,9.108,3.622
			c3.525,0,7.042-1.395,9.653-4.161l56.933-60.299C510.965,201.045,512.15,197.509,511.985,194.034z M255.999,83.044l78.675,97.626
			h-157.35L255.999,83.044z M137.964,207.214l79.065,182.616L43.495,207.214H137.964z M417.34,90.907l57.203,89.764h-92.875
			L417.34,90.907z M395.033,75.165l-36.581,92.048l-74.611-92.048H395.033z M228.158,75.165l-74.611,92.048l-36.581-92.048H228.158z
			 M255.999,413.03l-88.797-205.094h177.595L255.999,413.03z"/>
    </symbol>

    <symbol id="footer-facebook" role="img" aria-labelledby="footer-facebook_title" viewBox="0 0 512 512">
        <title id="footer-facebook_title">Facebook</title>
        <path d="M365.075,307.969L365.075,307.969c-0.209-21.573-17.756-38.95-39.33-38.95h-36.052v-54.677
            c0-15.267,12.377-27.643,27.643-27.643h13.209c19.534,0,35.37-15.836,35.37-35.37l0,0c0-19.534-15.836-35.37-35.37-35.37h-32.525
            c-48.044,0-86.991,38.947-86.991,86.991v66.067h-25.613c-21.722,0-39.332,17.609-39.332,39.332l0,0
            c0,21.722,17.609,39.332,39.332,39.332h25.613v149.794h78.665V347.682h36.052C347.617,347.682,365.287,329.839,365.075,307.969z"/>
        <path style="fill:#000000;" d="M289.693,512h-78.665c-8.021,0-14.523-6.502-14.523-14.523V362.206h-11.09
            c-29.695,0-53.855-24.159-53.855-53.855s24.159-53.856,53.855-53.856h11.09v-51.544c0-55.975,45.539-101.514,101.514-101.514
            h32.525c27.511,0,49.893,22.382,49.893,49.893c0,27.51-22.382,49.893-49.893,49.893h-13.209c-7.234,0-13.12,5.886-13.12,13.12
            v40.154h21.529c29.409,0,53.567,23.925,53.853,53.332c0.141,14.484-5.395,28.128-15.588,38.419s-23.782,15.958-38.266,15.958
            h-21.528v135.271C304.216,505.498,297.714,512,289.693,512z M225.553,482.954h49.618V347.682c0-8.021,6.502-14.523,14.523-14.523
            h36.052c6.672,0,12.933-2.611,17.627-7.352c4.695-4.74,7.246-11.026,7.18-17.698c-0.131-13.547-11.26-24.569-24.808-24.569h-36.052
            c-8.021,0-14.523-6.502-14.523-14.523v-54.677c0-23.25,18.915-42.166,42.166-42.166h13.209c11.495,0,20.847-9.351,20.847-20.847
            c0-11.495-9.351-20.847-20.847-20.847h-32.525c-39.959,0-72.468,32.509-72.468,72.468v66.067c0,8.021-6.502,14.523-14.523,14.523
            h-25.613c-13.679,0-24.808,11.129-24.808,24.81c0,13.679,11.129,24.808,24.808,24.808h25.613c8.021,0,14.523,6.502,14.523,14.523
            V482.954z"/>
        <path style="fill:#000000;" d="M432.464,512h-37.766c-8.021,0-14.523-6.502-14.523-14.523s6.502-14.523,14.523-14.523h37.766
            c27.839,0,50.49-22.65,50.49-50.49V79.536c0-27.839-22.65-50.49-50.49-50.49H214.367c-8.021,0-14.523-6.502-14.523-14.523
            S206.346,0,214.367,0h218.097C476.321,0,512,35.679,512,79.536v352.928C512,476.321,476.321,512,432.464,512z"/>
        <path style="fill:#000000;" d="M289.693,512H79.536C35.679,512,0,476.321,0,432.464V79.536C0,35.679,35.679,0,79.536,0h32.684
            c8.021,0,14.523,6.502,14.523,14.523s-6.502,14.523-14.523,14.523H79.536c-27.839,0-50.49,22.65-50.49,50.49v352.928
            c0,27.839,22.65,50.49,50.49,50.49h210.157c8.021,0,14.523,6.502,14.523,14.523S297.714,512,289.693,512z"/>
    </symbol>

    <symbol id="footer-twitter" role="img" aria-labelledby="footer-twitter_title" viewBox="0 0 512 512">
        <title id="footer-twitter_title">Twitter</title>
        <path style="fill:#000000;" d="M432.464,512h-37.766c-8.021,0-14.523-6.502-14.523-14.523s6.502-14.523,14.523-14.523h37.766
            c27.839,0,50.49-22.65,50.49-50.49V79.536c0-27.839-22.65-50.49-50.49-50.49H214.367c-8.021,0-14.523-6.502-14.523-14.523
            S206.346,0,214.367,0h218.097C476.321,0,512,35.679,512,79.536v352.928C512,476.321,476.321,512,432.464,512z"/>
        <path style="fill:#000000;" d="M289.693,512H79.536C35.679,512,0,476.321,0,432.464V79.536C0,35.679,35.679,0,79.536,0h32.684
            c8.021,0,14.523,6.502,14.523,14.523s-6.502,14.523-14.523,14.523H79.536c-27.839,0-50.49,22.65-50.49,50.49v352.928
            c0,27.839,22.65,50.49,50.49,50.49h210.157c8.021,0,14.523,6.502,14.523,14.523S297.714,512,289.693,512z"/>
        <path d="M402.448,169.183l-37.573-14.314c-7.963-17.818-20.947-30.558-38.881-34.726
            c-52.475-12.195-80.156,37.033-74.518,72.059c0.796,4.942,2.136,9.662,3.956,14.108c-4.695,0.562-73.226,7.687-132.133-37.704
            c-4.645-3.578-11.392-0.928-12.549,4.822c-3.234,16.051-2.402,45.263,35.436,69.081c0,0-7.501,0.903-16.841-0.574
            c-5.962-0.943-10.762,4.727-8.797,10.435c5.298,15.384,19.509,38.642,57.205,41.297c0,0-5.482,3.15-15.422,4.758
            c-5.975,0.966-8.71,8.055-4.9,12.759c8.991,11.101,26.897,25.645,57.978,23.09c0,0,2.216,25.736-88.895,41.628
            c-0.004,0.001,45.784,17.856,100.705,17.856c152.343,0,152.417-127.349,146.611-201.278L402.448,169.183z"/>
        <path style="fill:#000000;" d="M227.216,408.279c-29.812,0-56.906-5.079-74.386-9.34c-9.899-2.412-17.861-4.832-22.796-6.435
            c-10.017-3.256-17.255-5.607-18.004-15.505c-0.566-7.455,4.621-14.121,11.986-15.405c29.363-5.121,47.662-11.071,59.013-16.251
            c-14.512-4.518-27.174-13.027-36.886-25.018c-4.817-5.95-6.242-14.01-3.811-21.24c-21.532-11.084-31.252-29.598-35.519-41.983
            c-2.361-6.862-1.266-14.472,2.932-20.357c0.963-1.349,2.062-2.574,3.271-3.661C92.303,208.27,94.12,182.422,96.511,170.56
            c2.113-10.489,11.392-18.1,22.064-18.1c4.945,0,9.643,1.605,13.586,4.645c38.128,29.379,80.695,34.931,104.678,35.384
            c-2.892-22.019,4.393-46.243,19.265-63.7c13.769-16.161,32.952-25.063,54.014-25.063c6.219,0,12.666,0.765,19.16,2.274
            c19.847,4.613,35.696,17.474,46.139,37.348l32.199,12.268c4.849,1.847,8.344,6.142,9.168,11.263
            c0.823,5.122-1.147,10.297-5.172,13.572l-22.751,18.517c3.686,54.344,1.386,120.087-39.67,164.495
            C321.699,393.199,280.66,408.279,227.216,408.279z M185.193,375.808c12.767,2.01,27.067,3.425,42.024,3.425
            c45.014,0,78.878-11.941,100.651-35.492c35.351-38.238,35.394-100.316,31.482-150.126c-0.373-4.755,1.611-9.391,5.311-12.401
            l9.11-7.416l-14.066-5.359c-3.605-1.374-6.515-4.125-8.089-7.646c-6.547-14.651-16.275-23.568-28.91-26.505
            c-4.342-1.009-8.576-1.521-12.586-1.521c-15.912,0-26.131,8.078-31.904,14.854c-9.813,11.52-14.681,28.111-12.403,42.272
            c0.606,3.763,1.635,7.436,3.059,10.914c1.718,4.197,1.377,8.955-0.922,12.863c-2.299,3.908-6.291,6.519-10.794,7.058
            c-1.634,0.196-7.686,0.834-16.934,0.834c-25.045,0-71.965-4.671-116.114-34.471c0.548,13.123,7.266,28.933,29.812,43.125
            c5.204,3.276,7.781,9.473,6.434,15.474c-1.348,6.001-6.328,10.5-12.435,11.235c-0.523,0.062-3.352,0.378-7.604,0.378
            c-0.534,0-1.067-0.004-1.6-0.015c7.905,13.22,21.332,20.571,40.058,21.889c6.374,0.449,11.706,5.01,13.135,11.238
            c1.429,6.229-1.38,12.658-6.92,15.842c-0.777,0.446-3.621,1.991-8.333,3.574c7.177,5.571,17.435,10.211,31.684,10.211
            c1.91,0,3.889-0.083,5.88-0.247c7.959-0.652,14.973,5.259,15.66,13.228c0.289,3.355,0,15.258-15.839,27.568
            C206.824,366.201,197.185,371.28,185.193,375.808z"/>
    </symbol>    

    <symbol id="footer-linkedin" role="img" aria-labelledby="footer-linkedin_title" viewBox="0 0 512 512">
        <title id="footer-linkedin_title">Linkedin</title>
        <path style="fill:#000000;" d="M432.464,512h-37.766c-8.021,0-14.523-6.502-14.523-14.523s6.502-14.523,14.523-14.523h37.766
            c27.839,0,50.49-22.65,50.49-50.49V79.536c0-27.839-22.65-50.49-50.49-50.49H214.367c-8.021,0-14.523-6.502-14.523-14.523
            S206.346,0,214.367,0h218.097C476.321,0,512,35.679,512,79.536v352.928C512,476.321,476.321,512,432.464,512z"/>
        <path style="fill:#000000;" d="M289.693,512H79.536C35.679,512,0,476.321,0,432.464V79.536C0,35.679,35.679,0,79.536,0h32.684
            c8.021,0,14.523,6.502,14.523,14.523s-6.502,14.523-14.523,14.523H79.536c-27.839,0-50.49,22.65-50.49,50.49v352.928
            c0,27.839,22.65,50.49,50.49,50.49h210.157c8.021,0,14.523,6.502,14.523,14.523S297.714,512,289.693,512z"/>
        <path d="M142.603,112.936c17.866,0.017,32.597,14.77,32.559,32.728c-0.042,18.797-15.643,32.966-32.78,32.561
            c-17.381,0.351-32.657-14.167-32.652-32.686C109.73,127.576,124.518,112.925,142.603,112.936L142.603,112.936z"/>
        <path style="fill:#000000;" d="M143.095,192.755c-0.247,0-0.492-0.001-0.738-0.006c-0.198,0.003-0.395,0.004-0.593,0.004
            c-12.26,0-23.882-4.884-32.725-13.752c-8.924-8.949-13.836-20.835-13.833-33.466c0-25.982,21.253-47.122,47.376-47.122
            c12.558,0.013,24.368,4.947,33.288,13.896c8.935,8.962,13.841,20.819,13.814,33.386c-0.058,25.948-20.955,47.059-46.584,47.062
            C143.099,192.755,143.098,192.755,143.095,192.755z M142.382,163.7c0.115,0,0.229,0.001,0.344,0.004l0.372,0.004
            c8.452,0,17.518-7.264,17.541-18.078c0.01-4.8-1.885-9.351-5.339-12.815c-3.439-3.449-7.954-5.352-12.712-5.356
            c-10.114,0-18.337,8.11-18.337,18.08c-0.001,4.89,1.901,9.489,5.356,12.953c3.305,3.314,7.736,5.215,12.157,5.215l0.324-0.003
            C142.186,163.702,142.285,163.7,142.382,163.7z"/>
        <path d="M282.754,401.968v-93.876c0-17.281,13.621-31.839,30.898-32.198c8.98-0.186,17.13,3.381,22.987,9.24
            c5.713,5.709,9.245,13.604,9.245,22.321v94.514h56.382l0.004-98.072c0-60.625-32.639-87.29-66.876-87.29
            c-45.701,0-56.883,26.258-56.887,26.267v-23.779h-52.013V401.97h56.26V401.968z"/>
        <path style="fill:#000000;" d="M402.266,416.492h-56.382c-8.021,0-14.523-6.502-14.523-14.523v-94.514
            c0-4.556-1.77-8.834-4.987-12.047c-3.224-3.224-7.504-4.997-12.054-4.997l-0.367,0.004c-9.196,0.19-16.675,8.12-16.675,17.678
            v93.876c0,8.021-6.502,14.523-14.523,14.523h-56.26c-8.021,0-14.523-6.502-14.523-14.523V219.095
            c0-8.021,6.502-14.523,14.523-14.523h52.013c5.387,0,10.089,2.934,12.596,7.289c10.979-5.692,25.558-9.777,44.291-9.777
            c40.517,0,81.399,31.482,81.399,101.813l-0.004,98.072C416.789,409.99,410.287,416.492,402.266,416.492z M360.409,387.445h27.335
            l0.003-83.549c0-53.65-27.044-72.767-52.353-72.767c-34.003,0-43.055,16.553-43.658,17.736c-2.797,6.175-9.507,9.607-16.169,8.23
            c-6.746-1.394-11.584-7.334-11.584-14.221v-9.256h-22.967v153.828h27.213v-79.353c0-25.244,20.241-46.202,45.12-46.718
            c12.69-0.263,24.624,4.557,33.557,13.491c8.704,8.696,13.498,20.271,13.498,32.59v79.989H360.409z"/>
        <polygon points="170.579,401.968 170.579,219.099 114.314,219.099 114.309,219.103 114.309,401.968 "/>
        <path style="fill:#000000;" d="M170.579,416.492h-56.27c-8.021,0-14.523-6.502-14.523-14.523V219.103
            c0-8.021,6.508-14.528,14.529-14.528h56.263c8.021,0,14.523,6.502,14.523,14.523V401.97
            C185.102,409.99,178.6,416.492,170.579,416.492z M128.832,387.445h27.222V233.622h-27.222V387.445z"/>
    </symbol>

    <symbol id="footer-instagram" role="img" aria-labelledby="footer-instagram_title" viewBox="0 0 512 512">
        <title id="footer-instagram_title">Instagram</title>
        <path style="fill:#000000;" d="M432.464,512.001h-37.767c-8.02,0-14.523-6.502-14.523-14.523s6.503-14.523,14.523-14.523h37.767
            c27.839,0,50.49-22.65,50.49-50.49V79.537c0-27.839-22.65-50.49-50.49-50.49H214.367c-8.02,0-14.523-6.502-14.523-14.523
            s6.503-14.523,14.523-14.523h218.098c43.855,0,79.536,35.679,79.536,79.536v352.928C512,476.322,476.321,512.001,432.464,512.001z"
            />
        <path style="fill:#000000;" d="M289.694,512.001H79.536C35.679,512.001,0,476.322,0,432.465V79.537
            C0,35.68,35.679,0.001,79.536,0.001h32.684c8.02,0,14.523,6.502,14.523,14.523s-6.503,14.523-14.523,14.523H79.536
            c-27.839,0-50.49,22.65-50.49,50.49v352.928c0,27.839,22.65,50.49,50.49,50.49h210.158c8.02,0,14.523,6.502,14.523,14.523
            C304.218,505.499,297.714,512.001,289.694,512.001z"/>
        <path d="M359.599,102.056H152.401c-27.806,0-50.347,22.541-50.347,50.347v207.197
            c0,27.806,22.541,50.347,50.347,50.347h207.197c27.806,0,50.347-22.541,50.347-50.347V152.402
            C409.946,124.596,387.405,102.056,359.599,102.056z M256.001,330.781c-41.299,0-74.78-33.48-74.78-74.78s33.48-74.78,74.78-74.78
            s74.78,33.48,74.78,74.78S297.3,330.781,256.001,330.781z"/>
        <path style="fill:#000000;" d="M359.599,424.47H152.403c-35.77,0-64.87-29.1-64.87-64.87V152.402c0-35.769,29.1-64.87,64.87-64.87
            h207.196c35.77,0,64.87,29.1,64.87,64.87v207.197C424.469,395.368,395.368,424.47,359.599,424.47z M152.403,116.579
            c-19.754,0-35.824,16.07-35.824,35.824v207.197c0,19.753,16.07,35.824,35.824,35.824h207.196c19.754,0,35.824-16.07,35.824-35.824
            V152.402c0-19.753-16.07-35.824-35.824-35.824H152.403V116.579z M256.001,345.304c-49.242,0-89.303-40.061-89.303-89.303
            s40.061-89.303,89.303-89.303s89.303,40.061,89.303,89.303S305.243,345.304,256.001,345.304z M256.001,195.744
            c-33.226,0-60.256,27.03-60.256,60.257s27.03,60.257,60.256,60.257s60.257-27.03,60.257-60.257S289.225,195.744,256.001,195.744z"
            />
        <circle style="fill:#000000;" cx="346.406" cy="164.504" r="20.449"/>
    </symbol>

</svg>