<svg xmlns="http://www.w3.org/2000/svg" xmlns:xlink="http://www.w3.org/1999/xlink">

	<symbol id="header-search" role="img" aria-labelledby="header-search_title" viewBox="0 0 512 512">
        <title id="header-search_title"></title>
	    <path d="M392.385,67.323C348.972,23.909,291.25,0,229.854,0C168.457,0,110.737,23.909,67.323,67.323
			C23.909,110.736,0,168.457,0,229.854c0,61.396,23.909,119.118,67.323,162.531c43.413,43.412,101.135,67.322,162.531,67.322
			s119.118-23.909,162.531-67.322c43.412-43.413,67.322-101.135,67.322-162.531C459.707,168.457,435.799,110.736,392.385,67.323z
			 M229.854,418.344c-103.933,0-188.49-84.556-188.49-188.49s84.556-188.49,188.49-188.49s188.489,84.556,188.49,188.49
			C418.344,333.788,333.787,418.344,229.854,418.344z"/>
		<path d="M505.943,476.693L392.206,362.957c-8.077-8.077-21.172-8.077-29.249,0c-8.076,8.077-8.076,21.172,0,29.249
			l113.737,113.737c4.038,4.039,9.332,6.058,14.625,6.058c5.293,0,10.587-2.019,14.625-6.058
			C514.019,497.865,514.019,484.77,505.943,476.693z"/>
	</symbol>
	

	<symbol id="header-contact" role="img" aria-labelledby="header-contact_title" viewBox="0 0 512 512">
        <title id="header-contact_title"></title>
		<path style="fill:#00A3E0;" d="M421.216,195.504c-5.092-26.101-17.723-49.836-36.526-68.64c-18.804-18.803-42.54-31.434-68.641-36.527
			c-11.21-2.189-22.073,5.128-24.261,16.339c-2.187,11.212,5.128,22.073,16.339,24.26c36.847,7.188,65.3,35.642,72.489,72.489
			c1.927,9.874,10.581,16.726,20.278,16.726c1.313,0,2.645-0.125,3.984-0.387C416.088,217.577,423.403,206.715,421.216,195.504z"/>
		<path style="fill:#00A3E0;" d="M511.422,196.929c-5.629-50.096-28.373-97.304-64.042-132.927C411.712,28.378,364.475,5.694,314.371,0.128
			c-11.355-1.261-21.578,6.92-22.839,18.272c-1.261,11.353,6.919,21.578,18.272,22.84c84.961,9.438,150.966,75.36,160.512,160.31
			c1.188,10.566,10.139,18.374,20.527,18.374c0.771,0,1.552-0.043,2.336-0.131C504.53,218.516,512.698,208.281,511.422,196.929z"/>
		<path style="fill:#002b49;" d="M432.59,312.566c-0.062-0.008-0.124-0.017-0.186-0.025c-20.013-2.639-39.751-7.557-58.619-14.596
			c-23.91-8.99-51.103-3.191-69.27,14.772c-0.028,0.028-0.056,0.055-0.083,0.083l-17.148,17.148
			c-42.633-26.924-78.756-63.047-105.679-105.679l17.149-17.149c0.027-0.028,0.054-0.055,0.082-0.083
			c17.964-18.166,23.762-45.356,14.79-69.223c-7.057-18.914-11.974-38.653-14.614-58.666c-0.007-0.063-0.017-0.127-0.026-0.19
			c-4.591-32.478-32.782-56.734-65.548-56.467H66.053c-1.943,0.002-3.912,0.091-5.853,0.267
			C24.143,26.016-2.541,58.001,0.718,94.058c0.01,0.108,0.02,0.215,0.032,0.323c7.684,72.354,32.649,142.88,72.197,203.955
			c35.892,56.461,84.701,105.269,141.162,141.164c60.792,39.406,130.99,64.369,203.013,72.196c0.127,0.015,0.254,0.027,0.38,0.038
			c1.961,0.176,3.949,0.266,5.921,0.266c0.083,0,0.165,0,0.247,0.001c36.204-0.148,65.538-29.722,65.391-65.841v-67.233
			C489.746,345.714,465.515,317.211,432.59,312.566z M447.698,378.695v67.548c0.055,13.396-10.8,24.338-24.19,24.393
			c-0.715-0.004-1.425-0.027-2.135-0.086c-65.578-7.161-129.488-29.914-184.837-65.808c-0.053-0.035-0.107-0.069-0.161-0.103
			c-51.429-32.68-95.885-77.137-128.565-128.565c-0.032-0.051-0.064-0.101-0.097-0.153C71.683,220.306,48.928,156.086,41.902,90.193
			C40.779,76.91,50.63,65.155,63.923,63.954c0.717-0.064,1.443-0.098,2.145-0.098h67.463c0.146-0.001,0.294-0.003,0.443-0.002
			c12.021,0,22.322,8.905,24.044,20.819c3.05,23.063,8.721,45.806,16.871,67.649c3.319,8.832,1.189,18.869-5.427,25.591
			l-28.517,28.517c-6.583,6.582-7.956,16.753-3.354,24.847c33.837,59.508,83.177,108.847,142.685,142.685
			c8.094,4.6,18.264,3.23,24.848-3.355l28.512-28.512c6.72-6.621,16.765-8.752,25.642-5.415
			c21.799,8.134,44.547,13.805,67.61,16.855c12.18,1.757,21.122,12.339,20.816,24.647
			C447.7,378.353,447.698,378.524,447.698,378.695z"/>
    </symbol>

	<symbol id="header-profile" role="img" aria-labelledby="header-profile_title" viewBox="0 0 512 512">
        <title id="header-profile_title"></title>
        <path style="fill:#00A3E0;" d="M256,314.134c-143.235,0-255.435,66.371-255.435,151.101v26.083c0,11.423,9.26,20.682,20.682,20.682
			s20.682-9.259,20.682-20.682v-26.083c0-59.484,98.032-109.737,214.071-109.737s214.071,50.253,214.071,109.737v26.083
			c0,11.423,9.259,20.682,20.682,20.682c11.423,0,20.682-9.26,20.682-20.682v-26.083C511.435,380.505,399.235,314.134,256,314.134z"
			/>
		<path style="fill:#002b49;" d="M380.793,106.679c-3.963-26.728-16.158-50.955-35.265-70.062c-19.107-19.107-43.334-31.3-70.063-35.264
			c-12.166-1.804-24.506-1.804-36.675,0c-68.189,10.112-115.438,73.814-105.327,142.003c4.898,33.032,22.367,62.18,49.188,82.073
			c21.774,16.15,47.593,24.632,74.213,24.631c6.171,0,12.386-0.456,18.601-1.378C343.655,238.57,390.904,174.868,380.793,106.679z
			 M269.399,207.765c-22.098,3.279-44.158-2.247-62.104-15.559c-17.947-13.311-29.635-32.815-32.912-54.917
			c-6.766-45.628,24.85-88.253,70.477-95.019c4.072-0.603,8.171-0.905,12.271-0.905s8.2,0.302,12.27,0.905
			c36.712,5.444,65.034,33.767,70.478,70.478C346.642,158.375,315.026,201,269.399,207.765z"/>
    </symbol>

    <symbol id="header-login" role="img" aria-labelledby="header-login_title" viewBox="0 0 512 512">
        <title id="header-login_title"></title>
        <path style="fill:#00A3E0;" d="M228.487,319.228c-7.811,7.811-7.811,20.474,0,28.284c7.81,7.81,20.474,7.811,28.285,0l77.37-77.37
			c7.789-7.789,7.774-20.51,0-28.284l-77.37-77.37c-7.811-7.811-20.475-7.811-28.285,0c-7.81,7.811-7.811,20.474,0,28.284
			L271.716,236H20c-11.046,0-20,8.954-20,20s8.954,20,20,20h251.716L228.487,319.228z"/>
		<path style="fill:#002b49;" d="M433.543,7.75C429.754,2.861,423.918,0,417.733,0H170c-11.046,0-20,8.954-20,20s8.954,20,20,20h237.719
			C451.396,100.536,472,179.45,472,256c0,76.515-20.589,155.443-64.281,216H170c-11.046,0-20,8.954-20,20c0,11.046,8.954,20,20,20
			h247.733c6.185,0,12.022-2.861,15.81-7.75C486.683,435.671,512,344.876,512,256C512,167.134,486.686,76.333,433.543,7.75z"/>
    </symbol>

    <symbol id="header-cart" role="img" aria-labelledby="header-cart_title" viewBox="0 0 512 512">
        <title id="header-cart_title"></title>
        <polygon style="fill:#5482AB;" points="473.668,139.109 410.282,303.914 153.733,303.914 98.973,30.118 0,30.118 0,71.187 65.305,71.187 
			120.064,344.984 438.488,344.984 512,153.853 		"/>
		<path style="fill:#5482AB;" d="M191.658,358.674c-33.969,0-61.604,27.634-61.604,61.604s27.636,61.604,61.604,61.604
			c33.969,0,61.604-27.634,61.604-61.604S225.626,358.674,191.658,358.674z M191.658,440.813c-11.323,0-20.535-9.211-20.535-20.535
			s9.212-20.535,20.535-20.535c11.323,0,20.535,9.211,20.535,20.535S202.981,440.813,191.658,440.813z"/>
		<path style="fill:#5482AB;" d="M369.626,358.674c-33.969,0-61.604,27.634-61.604,61.604s27.636,61.604,61.604,61.604
			c33.969,0,61.604-27.634,61.604-61.604S403.594,358.674,369.626,358.674z M369.626,440.813c-11.323,0-20.535-9.211-20.535-20.535
			s9.212-20.535,20.535-20.535s20.535,9.211,20.535,20.535S380.949,440.813,369.626,440.813z"/>
		<path style="fill:#FF6D00;" d="M376.108,104.419c-4.805-13.676-11.458-25.504-19.96-35.484s-18.609-17.799-30.309-23.471
			c-11.706-5.666-24.338-8.501-37.887-8.501c-13.803,0-26.493,2.835-38.071,8.501c-11.586,5.672-21.623,13.491-30.124,23.471
			c-8.501,9.98-15.155,21.808-19.96,35.484c-4.805,13.676-7.208,28.646-7.208,44.91c0,16.263,2.403,31.233,7.208,44.909
			c4.805,13.676,11.458,25.504,19.96,35.484c8.501,9.979,18.539,17.742,30.124,23.286c11.579,5.544,24.268,8.317,38.071,8.317
			c13.549,0,26.18-2.772,37.887-8.317c11.701-5.544,21.808-13.307,30.309-23.286c8.501-9.98,15.155-21.808,19.96-35.484
			c4.805-13.676,7.208-28.646,7.208-44.91C383.315,133.065,380.913,118.095,376.108,104.419z M330.089,176.311
			c-2.218,8.132-5.36,15.155-9.425,21.069s-8.871,10.475-14.415,13.676c-5.544,3.205-11.643,4.805-18.296,4.805
			c-6.902,0-13.122-1.6-18.666-4.805c-5.544-3.199-10.349-7.762-14.415-13.676c-4.066-5.914-7.208-12.937-9.425-21.069
			s-3.327-17.125-3.327-26.983c0-9.853,1.109-18.908,3.327-27.167c2.218-8.252,5.36-15.339,9.425-21.253
			c4.066-5.914,8.871-10.47,14.415-13.676c5.544-3.199,11.765-4.805,18.666-4.805c6.653,0,12.752,1.606,18.296,4.805
			c5.544,3.206,10.35,7.762,14.415,13.676c4.066,5.914,7.208,13,9.425,21.253c2.218,8.259,3.327,17.315,3.327,27.167
			C333.416,159.187,332.307,168.18,330.089,176.311z"/>
    </symbol> 

    <symbol id="header-menu" role="img" aria-labelledby="header-menu_title" viewBox="0 0 433.5 433.5">
        <title id="header-menu_title"></title>
        <path d="M0,293.25h433.5v-51H0V293.25z M0,395.25h433.5v-51H0V395.25z M0,191.25h433.5v-51H0V191.25z M0,38.25v51h433.5v-51H0z"/>
    </symbol>

    <symbol id="button-eye" role="img" aria-labelledby="button-eye_title" viewBox="0 0 512 512">
        <title id="button-eye_title"></title>
        <path d="M509.817,246.75c-0.929-1.857-23.221-45.993-64.914-90.466c-24.772-26.424-51.341-47.55-78.968-62.793
			C330.679,74.04,293.692,64.178,256,64.178c-37.692,0-74.679,9.862-109.935,29.314c-27.628,15.243-54.197,36.369-78.968,62.793
			C25.403,200.758,3.112,244.893,2.183,246.75c-2.911,5.822-2.911,12.676,0,18.499c0.928,1.858,23.22,45.993,64.914,90.466
			c24.773,26.424,51.341,47.551,78.968,62.793c35.256,19.452,72.243,29.315,109.935,29.315s74.678-9.863,109.935-29.315
			c27.627-15.243,54.197-36.37,78.968-62.793c41.693-44.473,63.984-88.608,64.914-90.466
			C512.728,259.426,512.728,252.573,509.817,246.75z M256,406.458c-55.863,0-109.02-26.33-157.995-78.256
			c-27.053-28.685-45.394-57.794-53.725-72.203C63.986,221.93,139.831,105.543,256,105.542c55.864,0,109.021,26.329,157.996,78.256
			c27.057,28.69,45.399,57.803,53.724,72.203C448.015,290.071,372.169,406.458,256,406.458z"/>
		<path d="M256,171.142c-46.791,0-84.86,38.068-84.86,84.86c0,46.792,38.068,84.86,84.86,84.86s84.86-38.068,84.86-84.86
			C340.86,209.21,302.792,171.142,256,171.142z M256,299.495c-23.983,0-43.495-19.511-43.495-43.495
			c0-23.983,19.512-43.495,43.495-43.495c23.984,0,43.495,19.512,43.495,43.495S279.984,299.495,256,299.495z"/>
    </symbol>

    <symbol id="advantages01" role="img" aria-labelledby="advantages01_title" viewBox="0 -44 512 511">
        <title id="advantages01_title"></title>
        <path d="m212 40.601562h-212v-40h212zm-40 40h-172v40h172zm-40 80h-132v40h132zm380 223h-83.441406c-8.253906 23.277344-30.484375 40-56.558594 40s-48.304688-16.722656-56.558594-40h-123.882812c-8.253906 23.277344-30.484375 40-56.558594 40s-48.304688-16.722656-56.558594-40h-18.441406c-33.085938 0-60-26.917968-60-60v-83h40v83c0 11.027344 8.972656 20 20 20h18.441406c8.253906-23.28125 30.484375-40 56.558594-40s48.304688 16.71875 56.558594 40h120.441406v-283.101562c0-11.027344-8.972656-20-20-20h-40v-40h40c33.085938 0 60 26.914062 60 60v40.101562h40.074219c18.714843 0 36.621093 8.917969 47.894531 23.855469l55.886719 74.050781c10.410156 13.792969 16.144531 30.910157 16.144531 48.191407zm-160-243v75h106.640625l-50.601563-67.050781c-3.757812-4.980469-9.726562-7.949219-15.964843-7.949219zm-197 223c0-11.03125-8.972656-20-20-20s-20 8.96875-20 20c0 11.027344 8.972656 20 20 20s20-8.972656 20-20zm237 0c0-11.03125-8.972656-20-20-20s-20 8.96875-20 20c0 11.027344 8.972656 20 20 20s20-8.972656 20-20zm80-20v-88h-120v51.4375c6.261719-2.21875 12.988281-3.4375 20-3.4375 26.074219 0 48.304688 16.71875 56.558594 40zm0 0"/>
    </symbol>

    <symbol id="advantages02" role="img" aria-labelledby="advantages02_title" viewBox="0 0 512 512">
        <title id="advantages02_title"></title>
        <path d="M262.354,293.88L472.707,78.966l28.586,27.979L263.366,350.031L137.22,230.113l27.56-28.991L262.354,293.88z   M509.142,156.111l-37.391,38.201c-2.816,37.691-31.45,82.908-83.277,131.282c-54.76,51.111-114.809,87.004-126.292,93.681  c-1.616,0.94-3.871,2.246-6.185,3.584c-2.315-1.339-4.571-2.645-6.188-3.585c-11.481-6.676-71.527-42.567-126.287-93.68  C68.882,274.592,40,227.092,40,188.229c0-61.984,40.299-105.274,98-105.274c15.005,0,28.13,2.258,39.497,5.835  c41.724,19.228,79.165,79.428,79.165,79.428s35.956-58.852,75.789-78.764c12.782-4.308,26.657-6.499,41.55-6.499  c12.003,0,23.25,1.879,33.541,5.405l30.026-30.677C418.45,48.058,396.798,42.955,374,42.955c-49.642,0-83.295,19.374-102.784,35.626  c-5.15,4.295-10.321,9.29-15.051,14.583c-4.835-5.455-10.144-10.585-15.434-14.965C221.313,62.121,187.729,42.955,138,42.955  c-37.829,0-72.515,14.029-97.669,39.502C13.946,109.177,0,145.752,0,188.229c0,50.951,32.376,107.006,96.229,166.606  c57.893,54.038,121.342,91.964,133.474,99.018c5.055,2.939,16.306,9.427,16.306,9.427l9.995,5.764l9.993-5.767  c0,0,11.242-6.487,16.293-9.425c12.132-7.054,75.584-44.981,133.478-99.018C479.623,295.235,512,239.18,512,188.229  C512,177.092,511.032,166.365,509.142,156.111z"/>
    </symbol>

    <symbol id="advantages03" role="img" aria-labelledby="advantages03_title" viewBox="0 0 512 512">
        <title id="advantages03_title"></title>
        <polygon style="fill:#FF6D00;" points="234.53,285.912 169.76,224.259 142.172,253.242 236.775,343.294 380.923,182.799 351.154,156.061 			"/>
		<path d="M420.499,65.192c-48.502-8.692-93.168-35.18-115.476-50.195C290.447,5.186,273.496,0,256.001,0
			s-34.447,5.186-49.022,14.996C184.671,30.011,140.005,56.5,91.503,65.192c-28.726,5.148-49.576,30.002-49.576,59.097v120.71
			c0,39.877,11.157,78.749,33.159,115.539c17.214,28.781,41.064,56.288,70.888,81.757c50.147,42.825,99.804,65.156,101.892,66.086
			L256,512l8.134-3.619c2.089-0.929,51.745-23.261,101.892-66.086c29.823-25.469,53.675-52.976,70.888-81.757
			c22.004-36.789,33.159-75.662,33.159-115.539V124.29C470.075,95.194,449.225,70.34,420.499,65.192z M430.061,245
			c0,59.45-30.033,115.375-89.267,166.224c-34.432,29.558-69.39,48.824-84.791,56.643C220.601,449.879,81.941,371.328,81.941,245
			V124.29c0-9.695,6.99-17.985,16.621-19.711c55.718-9.985,105.843-39.616,130.761-56.388c7.947-5.35,17.172-8.178,26.678-8.178
			c9.506,0,18.732,2.828,26.678,8.177c24.919,16.773,75.043,46.402,130.761,56.387c9.63,1.726,16.621,10.016,16.621,19.711V245z"/>
    </symbol>

    <symbol id="advantages04" role="img" aria-labelledby="advantages04_title" viewBox="0 0 512 512">
        <title id="advantages04_title"></title>
        <path d="M492.522,118.3L266.433,3.743l-0.093-0.047c-10.068-5.012-22.029-4.9-32.002,0.3
			C233.553,4.328,19.617,117.874,18.896,118.338C7.24,124.44,0,136.398,0,149.559V362.44c0,13.161,7.24,25.118,18.896,31.221
			l215.345,114.292l0.097,0.051c5.086,2.652,10.691,3.981,16.297,3.981c5.385,0,10.772-1.226,15.705-3.682l226.182-114.604
			C504.539,387.69,512,375.618,512,362.18V149.82C512,136.381,504.538,124.309,492.522,118.3z M248.237,30.57
			c1.469-0.754,3.224-0.769,4.705-0.042l211.629,107.229l-82.365,41.006L175.308,69.276L248.237,30.57z M235.424,474.631
			L32.91,367.148l-0.097-0.051c-1.741-0.909-2.824-2.692-2.824-4.656V163.092l205.435,107.124V474.631z M250.577,244.295
			L46.272,137.76l97.024-51.493l205.875,108.945L250.577,244.295z M482.01,362.181c0,2.004-1.116,3.806-2.912,4.7L265.414,475.152
			V270.409l98.386-48.981v51.355c0,8.281,6.714,14.995,14.995,14.995s14.995-6.714,14.995-14.995v-66.285l88.22-43.92V362.181z"/>
		<path d="M181.277,294.419c-4.19-7.144-13.378-9.536-20.521-5.346l-46.437,27.244l-9.751-17.666
			c-4.002-7.25-13.125-9.884-20.374-5.882c-7.25,4.002-9.884,13.124-5.882,20.374l17.189,31.143c0.04,0.073,0.086,0.14,0.127,0.212
			c0.024,0.043,0.043,0.087,0.068,0.13c0.057,0.098,0.121,0.189,0.18,0.285c0.089,0.145,0.179,0.29,0.273,0.431
			c0.095,0.143,0.193,0.282,0.292,0.42c0.1,0.14,0.2,0.28,0.304,0.416c0.103,0.134,0.21,0.264,0.316,0.394
			c0.108,0.131,0.215,0.262,0.326,0.388c0.112,0.127,0.227,0.249,0.343,0.371c0.113,0.12,0.226,0.241,0.343,0.357
			c0.122,0.121,0.248,0.237,0.373,0.353c0.117,0.108,0.233,0.217,0.352,0.321c0.133,0.116,0.271,0.226,0.408,0.337
			c0.118,0.095,0.235,0.192,0.356,0.284c0.144,0.109,0.291,0.212,0.438,0.315c0.121,0.085,0.24,0.171,0.363,0.252
			c0.152,0.1,0.308,0.194,0.464,0.289c0.123,0.075,0.245,0.152,0.37,0.223c0.16,0.091,0.324,0.175,0.487,0.26
			c0.125,0.065,0.249,0.133,0.376,0.195c0.166,0.081,0.336,0.154,0.505,0.229c0.129,0.057,0.256,0.117,0.386,0.17
			c0.168,0.069,0.34,0.129,0.51,0.192c0.135,0.049,0.268,0.102,0.404,0.148c0.169,0.057,0.341,0.105,0.511,0.155
			c0.14,0.042,0.279,0.087,0.421,0.124c0.168,0.044,0.338,0.08,0.507,0.118c0.147,0.034,0.294,0.072,0.442,0.101
			c0.161,0.032,0.324,0.054,0.486,0.081c0.159,0.026,0.316,0.056,0.476,0.077c0.153,0.02,0.306,0.03,0.46,0.046
			c0.17,0.017,0.34,0.038,0.51,0.049c0.135,0.009,0.27,0.008,0.405,0.013c0.188,0.007,0.375,0.019,0.563,0.019
			c0.317,0,0.634-0.011,0.951-0.031c0.081-0.005,0.162-0.016,0.243-0.023c0.233-0.019,0.466-0.038,0.699-0.068
			c0.12-0.015,0.239-0.038,0.358-0.056c0.194-0.03,0.387-0.058,0.58-0.095c0.138-0.027,0.276-0.061,0.414-0.092
			c0.173-0.039,0.346-0.076,0.518-0.121c0.149-0.039,0.296-0.084,0.444-0.128c0.161-0.047,0.321-0.093,0.481-0.146
			c0.152-0.05,0.302-0.107,0.453-0.162c0.155-0.057,0.31-0.113,0.464-0.176c0.151-0.061,0.3-0.128,0.45-0.194
			c0.152-0.068,0.305-0.136,0.456-0.209c0.146-0.071,0.29-0.146,0.434-0.222c0.096-0.05,0.194-0.095,0.289-0.148
			c0.04-0.022,0.076-0.05,0.117-0.072c0.075-0.042,0.151-0.078,0.225-0.122l59.715-35.033
			C183.074,310.75,185.468,301.562,181.277,294.419z"/>
    </symbol>

    <symbol id="search-form01" role="img" aria-labelledby="search-form01_title" viewBox="0 0 530.719 530.719">
        <title id="search-form01_title"></title>
        <circle cx="265.36" cy="197.619" r="89.304"/>
		<path d="M265.36,530.719c0,0,197.627-223.944,197.627-333.09C462.987,88.482,374.507,0,265.36,0
			C156.213,0,67.731,88.482,67.731,197.628C67.731,306.774,265.36,530.719,265.36,530.719z M265.36,61.171
			c75.352,0,136.448,61.085,136.448,136.448S340.712,334.066,265.36,334.066c-75.353,0-136.447-61.085-136.447-136.447
			S190.007,61.171,265.36,61.171z"/>
    </symbol>

    <symbol id="search-form02" role="img" aria-labelledby="search-form02_title" viewBox="0 0 512 512">
        <title id="search-form02_title"></title>
        <path d="M208,224H16c-8.832,0-16,7.168-16,16v256c0,8.832,7.168,16,16,16h192c8.832,0,16-7.168,16-16V240
			C224,231.168,216.832,224,208,224z M96,384H64v-32h32V384z M96,320H64v-32h32V320z M160,384h-32v-32h32V384z M160,320h-32v-32h32
			V320z"/>
		<path d="M368,0H112c-8.832,0-16,7.168-16,16v176h139.424c11.36,0,20.576,8.736,20.576,19.552V256l32-32v-80
			c0-8.832,7.168-16,16-16h80V16C384,7.168,376.832,0,368,0z M192,160h-32v-32h32V160z M192,96h-32V64h32V96z M256,160h-32v-32h32
			V160z M256,96h-32V64h32V96z M320,96h-32V64h32V96z"/>
		<path d="M496,160H336c-8.832,0-16,7.168-16,16v55.424l-56.864,59.264C258.656,293.664,256,298.656,256,304v192
			c0,8.832,7.168,16,16,16h224c8.832,0,16-7.168,16-16V176C512,167.168,504.832,160,496,160z M448,416h-64v-64h64V416z M448,288h-64
			v-64h64V288z"/>
    </symbol>

    <symbol id="search-form03" role="img" aria-labelledby="search-form03_title" viewBox="0 0 490 490">
        <title id="search-form03_title"></title>
        <path d="M424,49.8H312.8C303.5,20.9,276.5,0,244.5,0s-59,20.9-68.3,49.8H66c-23.2,0-42,18.8-42,42V448c0,23.2,18.8,42,42,42h358
		c23.2,0,42-18.8,42-42V91.8C466,68.6,447.2,49.8,424,49.8z M244.5,46.7c13.8,0,25,11.2,25,25s-11.2,25-25,25c-13.8,0-25-11.2-25-25
		S230.7,46.7,244.5,46.7z M369.2,407.3c0,7.7-6.3,14-14,14h-93.8h-32.6H135c-7.7,0-14-6.3-14-14v-6.5c0-17.1,8-33.3,21.7-43.5
		c27.6-20.4,54-33.8,60-36.7c0.8-0.4,1.3-1.2,1.3-2v-24.1c-3.7-6.4-6.1-13.2-7.1-19.3c-2.7-0.2-6.3-4-10.1-17.5
		c-5.2-18.5,0.3-21.2,5-20.8c-0.9-2.6-1.6-5.1-2-7.6l0,0c-1.7-8.6-2.1-16.7-0.1-24.4c2.4-10.3,8-18.6,14.2-24.9
		c3.9-4.2,8.4-7.9,13.2-10.9c3.9-2.7,8.1-5,12.8-6.6l0,0c3.6-1.2,7.5-2,11.6-2.2c12.7-1.1,22.3,2.1,29.2,6.2
		c10.3,5.7,14.2,13.2,14.2,13.2s23.6,1.7,15.6,49.6c-0.5,2.5-1.1,5.1-2,7.6c4.7-0.4,10.3,2.3,5,20.8c-3.8,13.5-7.4,17.3-10.1,17.5
		c-0.9,6.1-3.3,12.7-7.1,19.1v24.3c0,0.9,0.5,1.7,1.3,2c6,2.9,32.4,16.3,60,36.7c13.7,10.2,21.7,26.4,21.7,43.5v6.5H369.2z"/>
    </symbol>

    <symbol id="button-cart" role="img" aria-labelledby="button-cart_title" viewBox="0 0 512 512">
        <title id="button-cart_title"></title>
        <path d="m418.78125 334.609375c15.5625-11.691406 26.828125-27.667969 32.601562-46.230469l60.617188-179.453125h-41.859375l-56.707031 166.902344-.167969.519531c-6.601563 21.453125-26.550781 36.433594-48.519531 36.433594h-224.023438l-22.683594-251.527344c-1.480468-16.765625-9.132812-32.261718-21.542968-43.625-12.414063-11.367187-28.523438-17.628906-45.351563-17.628906h-51.144531v39.972656h51.144531c14.1875 0 25.828125 10.65625 27.078125 24.832032l31.28125 346.847656c.007813.0625.011719.125.019532.183594 3.023437 30.359374 25.644531 54.140624 54.65625 59.402343 8.128906 23.488281 30.453124 40.40625 56.667968 40.40625 25.679688 0 47.632813-16.234375 56.160156-38.972656h45.570313c8.527344 22.738281 30.480469 38.972656 56.160156 38.972656 33.0625 0 59.957031-26.898437 59.957031-59.957031 0-33.0625-26.894531-59.960938-59.957031-59.960938-26.425781 0-48.894531 17.191407-56.859375 40.972657h-44.171875c-7.960937-23.78125-30.433593-40.972657-56.859375-40.972657-25.378906 0-47.109375 15.859376-55.84375 38.179688-8.515625-3.890625-14.683594-12.046875-15.695312-21.949219l-4.980469-55.199219h220.417969c19.546875-.003906 38.234375-6.277343 54.035156-18.148437zm-40.046875 97.089844c11.023437 0 19.988281 8.964843 19.988281 19.984375 0 11.023437-8.964844 19.988281-19.988281 19.988281-11.019531 0-19.984375-8.964844-19.984375-19.988281 0-11.019532 8.964844-19.984375 19.984375-19.984375zm-157.886719 0c11.019532 0 19.984375 8.964843 19.984375 19.984375 0 11.023437-8.964843 19.988281-19.984375 19.988281-11.023437 0-19.988281-8.964844-19.988281-19.988281 0-11.019532 8.964844-19.984375 19.988281-19.984375zm89.9375-271.8125h-39.972656v-39.96875h39.972656zm-119.917968-14.539063v44.59375c0 27.550782 22.414062 49.964844 49.964843 49.964844h99.929688c27.550781 0 49.964843-22.414062 49.964843-49.964844v-44.390625l3.949219 3.601563 26.9375-29.53125-130.929687-119.445313-130.929688 119.445313 26.941406 29.53125zm159.886718-36.265625v80.859375c0 5.507813-4.480468 9.992188-9.992187 9.992188h-99.929688c-5.511719 0-9.992187-4.484375-9.992187-9.992188v-81.0625l59.84375-54.597656zm0 0"/>
    </symbol>

    <symbol id="banner01" role="img" aria-labelledby="banner01_title" viewBox="0 0 512 512">
        <title id="banner01_title"></title>
        <path d="m280.042969 464.808594h16.027343v15.136718h-16.027343zm0 0"/><path d="m247.984375 464.808594h16.03125v15.136718h-16.03125zm0 0"/><path d="m464.363281 248.433594h16.027344v15.132812h-16.027344zm0 0"/><path d="m31.609375 432.753906h16.027344v15.132813h-16.027344zm0 0"/><path d="m426.832031 96.167969c-1.761719-5.457031-3.957031-10.757813-6.566406-15.851563l20.578125-20.578125-44.679688-44.679687-20.578124 20.578125c-5.09375-2.609375-10.394532-4.804688-15.851563-6.566407v-29.070312h-63.21875v29.070312c-5.453125 1.761719-10.757813 3.957032-15.851563 6.566407l-20.578124-20.578125-44.679688 44.679687 20.578125 20.578125c-2.605469 5.09375-4.800781 10.394532-6.566406 15.851563h-109.65625v15.136719h40.515625v113.085937h-56.542969v15.136719h71.679687v-128.222656h24.933594v48.082031h29.070313c1.765625 5.453125 3.957031 10.753906 6.566406 15.851562l-20.578125 20.578125 44.679688 44.679688 20.578124-20.578125c5.09375 2.605469 10.398438 4.804687 15.851563 6.566406v29.070313h63.21875v-29.070313c5.457031-1.765625 10.757813-3.960937 15.851563-6.566406l20.578124 20.578125 44.679688-44.679688-20.578125-20.578125c2.609375-5.097656 4.804687-10.398437 6.566406-15.851562h29.070313v-48.082031h40.960937v73.015624h-32.5v15.136719h32.5v40.515625h15.136719v-143.804687zm13.933594 48.082031h-25.429687l-1.488282 5.640625c-2.117187 8.027344-5.304687 15.726563-9.476562 22.878906l-2.9375 5.039063 18.007812 18.007812-23.277344 23.273438-18.007812-18.003906-5.039062 2.9375c-7.148438 4.171874-14.847657 7.359374-22.878907 9.476562l-5.640625 1.488281v25.429688h-32.945312v-25.429688l-5.640625-1.488281c-8.03125-2.117188-15.726563-5.304688-22.878907-9.476562l-5.039062-2.9375-18.007812 18.003906-23.273438-23.273438 18.007812-18.007812-2.941406-5.039063c-4.171875-7.152343-7.359375-14.847656-9.476562-22.878906l-1.488282-5.640625h-25.429687v-32.945312h25.429687l1.488282-5.640626c2.117187-8.03125 5.304687-15.726562 9.476562-22.878906l2.941406-5.039062-18.007812-18.007813 23.273438-23.277343 18.007812 18.007812 5.039062-2.9375c7.152344-4.171875 14.847657-7.359375 22.878907-9.480469l5.640625-1.484375v-25.429687h32.945312v25.429687l5.640625 1.484375c8.03125 2.121094 15.730469 5.308594 22.878907 9.480469l5.039062 2.9375 18.007812-18.007812 23.277344 23.277343-18.007812 18.007813 2.9375 5.039062c4.171875 7.152344 7.359375 14.847656 9.476562 22.878906l1.488282 5.640626h25.429687zm0 0"/><path d="m496.863281 496.863281h-137.128906v-121.101562h104.628906v-15.132813h-56.542969v-72.128906h-79.695312v15.136719h64.558594v56.992187h-48.085938v136.234375h-56.542968v15.136719h223.945312v-247.984375h-15.136719zm0 0"/><path d="m95.273438 407.820312h56.546874v-15.136718h-71.679687v104.179687h-65.003906v-185.210937h209.253906v96.613281h15.136719v-111.75h-224.390625v-185.210937h80.585937v-15.136719h-95.722656v415.832031h264.015625v-15.136719h-168.742187zm0 0"/><path d="m32.054688 239.527344h47.191406v-48.085938h24.042968v-63.21875h-71.234374zm32.058593-15.136719h-16.921875v-32.949219h16.921875zm24.039063-81.03125v32.949219h-40.960938v-32.949219zm0 0"/><path d="m463.917969 479.945312v-87.261718h-87.261719v87.261718zm-15.136719-15.136718h-24.933594v-56.988282h24.933594zm-56.992188-56.988282h16.921876v56.988282h-16.921876zm0 0"/><path d="m191.441406 328.570312h-159.386718v47.191407h159.386718zm-15.132812 32.058594h-129.117188v-16.921875h129.117188zm0 0"/><path d="m112.195312 456.347656c0 13.011719 10.585938 23.597656 23.59375 23.597656 13.011719 0 23.597657-10.585937 23.597657-23.597656 0-13.007812-10.585938-23.59375-23.597657-23.59375-13.007812 0-23.59375 10.585938-23.59375 23.59375zm32.054688 0c0 4.664063-3.792969 8.460938-8.457031 8.460938-4.667969 0-8.460938-3.796875-8.460938-8.460938 0-4.664062 3.792969-8.457031 8.460938-8.457031 4.664062 0 8.457031 3.792969 8.457031 8.457031zm0 0"/><path d="m199.902344 479.945312c13.011718 0 23.59375-10.585937 23.59375-23.597656 0-13.007812-10.582032-23.59375-23.59375-23.59375-13.011719 0-23.59375 10.585938-23.59375 23.59375 0 13.011719 10.582031 23.597656 23.59375 23.597656zm0-32.058593c4.664062 0 8.460937 3.796875 8.460937 8.460937 0 4.664063-3.796875 8.460938-8.460937 8.460938-4.664063 0-8.460938-3.796875-8.460938-8.460938 0-4.664062 3.796875-8.460937 8.460938-8.460937zm0 0"/><path d="m312.097656 464.808594h16.027344v15.136718h-16.027344zm0 0"/><path d="m464.363281 216.375h16.027344v15.136719h-16.027344zm0 0"/><path d="m31.609375 464.808594h16.027344v15.136718h-16.027344zm0 0"/><path d="m328.125 72.125c-30.6875 0-55.652344 24.964844-55.652344 55.652344 0 30.683594 24.96875 55.652344 55.652344 55.652344 30.6875 0 55.652344-24.96875 55.652344-55.652344 0-30.6875-24.964844-55.652344-55.652344-55.652344zm0 96.167969c-22.339844 0-40.515625-18.175781-40.515625-40.515625s18.175781-40.515625 40.515625-40.515625 40.515625 18.175781 40.515625 40.515625-18.175781 40.515625-40.515625 40.515625zm0 0"/><path d="m39.625 24.042969h160.277344v15.136719h-160.277344zm0 0"/><path d="m119.761719 56.097656h64.113281v15.136719h-64.113281zm0 0"/><path d="m87.707031 56.097656h16.027344v15.136719h-16.027344zm0 0"/><path d="m55.652344 56.097656h16.027344v15.136719h-16.027344zm0 0"/><path d="m456.347656 24.042969h48.085938v15.136719h-48.085938zm0 0"/><path d="m456.347656 56.097656h16.027344v15.136719h-16.027344zm0 0"/>
    </symbol>

    <symbol id="why01" role="img" aria-labelledby="why01_title" viewBox="0 0 512 512">
        <title id="why01_title"></title>
        <path style="fill:#0077C3;" d="M240.155,137.887c-1.859-1.859-4.438-2.929-7.067-2.929c-2.639,0-5.208,1.07-7.067,2.929
			c-1.869,1.859-2.929,4.438-2.929,7.067c0,2.629,1.06,5.208,2.929,7.067c1.859,1.858,4.428,2.929,7.067,2.929
			c2.629,0,5.208-1.07,7.067-2.929s2.929-4.438,2.929-7.067C243.084,142.325,242.015,139.746,240.155,137.887z"/>
		<path style="fill:#ED3431;" d="M285.756,362.359c-1.859-1.859-4.438-2.929-7.067-2.929s-5.208,1.069-7.067,2.929c-1.859,1.86-2.929,4.438-2.929,7.067
			c0,2.629,1.07,5.208,2.929,7.066c1.859,1.86,4.438,2.93,7.067,2.93s5.208-1.07,7.067-2.93c1.869-1.858,2.929-4.437,2.929-7.066
			C288.684,366.797,287.625,364.218,285.756,362.359z"/>
		<path style="fill:#ED3431;" d="M296.95,214.196c-5.521,0-9.996,4.476-9.996,9.996v63.568c0,5.521,4.475,9.996,9.996,9.996
			c5.521,0,9.996-4.476,9.996-9.996v-63.568C306.945,218.672,302.47,214.196,296.95,214.196z"/>
		<path style="fill:#0077C3;" d="M272.391,284.215l-24.109-63.568c-1.473-3.883-5.193-6.451-9.346-6.451s-7.873,2.568-9.346,6.451l-24.109,63.568
			c-1.956,5.162,0.641,10.933,5.802,12.89c5.163,1.961,10.933-0.639,12.89-5.802l2.654-6.998h24.218l2.654,6.998
			c1.515,3.995,5.314,6.454,9.348,6.454c1.177,0,2.376-0.21,3.542-0.653C271.752,295.148,274.349,289.378,272.391,284.215z
			 M234.411,264.315l4.527-11.936l4.527,11.936H234.411z"/>
		<path d="M478.015,443.944c-5.736,0-11.14,1.433-15.884,3.953l-26.657-26.657v-14.898c11.276-11.776,18.226-27.726,18.226-45.278
			c0-9.065-1.912-18.015-5.505-26.248c20.992-5.232,36.594-24.238,36.594-46.827v-89.005c0-25.409-19.742-46.279-44.69-48.113
			c1.081-3.985,1.648-8.127,1.648-12.338c0-8.528-2.292-16.528-6.274-23.434V90.762l26.657-26.657
			c4.744,2.519,10.149,3.953,15.884,3.953c18.74,0,33.985-15.245,33.985-33.985c0-18.74-15.245-33.985-33.985-33.985
			c-18.74,0-33.985,15.245-33.985,33.985c0,5.742,1.436,11.152,3.961,15.9L418.41,79.554c-1.874,1.875-2.928,4.417-2.928,7.068
			v9.705c-6.276-3.106-13.336-4.861-20.801-4.861c-4.045,0-8.036,0.514-11.888,1.517c-6.013-25.51-28.952-44.561-56.273-44.561
			c-31.885,0-57.826,25.941-57.826,57.826v63.765h-64.284c-2.651,0-5.194,1.054-7.068,2.928l-24.489,24.489
			c-1.874,1.875-2.928,4.417-2.928,7.068v102.955c0,2.651,1.054,5.193,2.928,7.068l24.489,24.489
			c1.874,1.874,4.417,2.928,7.068,2.928h18.68v63.467c0,21.026-17.107,38.131-38.132,38.131c-15.03,0-28.672-8.854-34.805-22.566
			c8.743-3.875,16.608-9.65,22.98-17.001c1.805,0.37,3.674,0.565,5.588,0.565c15.325,0,27.793-12.468,27.793-27.793
			s-12.468-27.793-27.793-27.793c-15.325,0-27.793,12.468-27.793,27.793c0,6.03,1.937,11.614,5.213,16.174
			c-8.498,8.673-20.18,13.685-32.531,13.685c-25.111,0-45.54-20.429-45.54-45.54c0-9.491,2.847-18.462,8.244-26.128
			c6.018-1.427,11.732-3.992,16.793-7.561c5.331,3.665,11.779,5.816,18.723,5.816c18.269,0,33.132-14.862,33.132-33.132
			c0-18.268-14.864-33.132-33.132-33.132s-33.132,14.862-33.132,33.132c0,4.063,0.739,7.956,2.083,11.556
			c-4.564,3.02-9.905,4.644-15.532,4.644c-15.587,0-28.268-12.681-28.268-28.269v-89.005c0-15.587,12.681-28.268,28.268-28.268
			c12.945,0,23.879,8.75,27.215,20.644c-9.843,4.282-16.745,14.096-16.745,25.496c0,15.325,12.468,27.793,27.793,27.793
			s27.793-12.468,27.793-27.793c0-12.079-7.747-22.376-18.531-26.2c-2.728-15.61-12.972-28.665-26.863-35.275
			c-3.806-4.779-5.888-10.69-5.888-16.849c0-14.929,12.146-27.075,27.075-27.075c3.656,0,7.226,0.745,10.537,2.145
			c0.77,7.958,3.729,15.459,8.564,21.8c-1.069,3.154-1.657,6.527-1.657,10.037c0,17.287,14.065,31.351,31.352,31.351
			s31.352-14.064,31.352-31.351s-14.065-31.352-31.352-31.352c-6.033,0-11.671,1.717-16.459,4.683
			c-1.303-2.917-2.012-6.09-2.012-9.373v-1.261c0.022-0.376,0.02-0.751,0-1.125v-0.763c0-20.862,16.972-37.835,37.834-37.835
			s37.835,16.972,37.835,37.835c0,5.52,4.475,9.996,9.996,9.996c5.521,0,9.996-4.476,9.996-9.996
			c0-31.884-25.941-57.826-57.826-57.826c-27.32,0-50.259,19.051-56.272,44.561c-3.852-1.003-7.843-1.517-11.888-1.517
			c-7.376,0-14.358,1.709-20.578,4.746v-9.591c0-2.651-1.054-5.193-2.928-7.068L64.009,49.972c2.525-4.747,3.961-10.158,3.961-15.9
			c0-18.74-15.245-33.985-33.985-33.985C15.245,0.087,0,15.332,0,34.072c0,18.74,15.245,33.985,33.985,33.985
			c5.736,0,11.14-1.433,15.884-3.953l26.657,26.658v23.95c-4.121,6.993-6.497,15.132-6.497,23.821c0,4.21,0.569,8.352,1.648,12.338
			c-24.947,1.835-44.69,22.705-44.69,48.114v89.005c0,22.588,15.602,41.595,36.594,46.827c-3.592,8.231-5.505,17.183-5.505,26.248
			c0,17.668,7.041,33.714,18.449,45.512v14.664l-26.657,26.657c-4.744-2.519-10.149-3.953-15.884-3.953
			C15.245,443.944,0,459.189,0,477.929s15.245,33.985,33.985,33.985c18.74,0,33.985-15.245,33.985-33.985
			c0-5.741-1.436-11.152-3.961-15.9l29.581-29.581c1.874-1.875,2.928-4.417,2.928-7.068v-4.672
			c8.263,3.768,17.431,5.885,27.091,5.885c2.352,0,4.686-0.134,6.996-0.381l1.201,2.713c9.302,21.02,30.165,34.603,53.152,34.603
			c32.049,0,58.124-26.074,58.124-58.123v-63.467h64.285c2.651,0,5.194-1.054,7.068-2.928l24.489-24.489
			c1.874-1.875,2.928-4.417,2.928-7.068V204.498c0-2.651-1.054-5.193-2.928-7.068l-24.489-24.489
			c-1.874-1.874-4.417-2.928-7.068-2.928h-18.68v-63.765c0-20.862,16.972-37.835,37.835-37.835s37.835,16.972,37.835,37.835v0.763
			c-0.02,0.374-0.022,0.749,0,1.125v1.261c0,3.283-0.708,6.456-2.012,9.373c-4.788-2.966-10.425-4.683-16.459-4.683
			c-17.287,0-31.352,14.065-31.352,31.352c0,17.287,14.065,31.351,31.352,31.351c17.287,0,31.352-14.064,31.352-31.351
			c0-3.51-0.589-6.883-1.657-10.037c4.835-6.341,7.795-13.843,8.564-21.8c3.313-1.4,6.881-2.145,10.537-2.145
			c14.93,0,27.075,12.146,27.075,27.075c0,6.158-2.083,12.07-5.888,16.849c-13.891,6.609-24.135,19.664-26.863,35.275
			c-10.784,3.823-18.531,14.122-18.531,26.2c0,15.325,12.468,27.793,27.793,27.793s27.793-12.468,27.793-27.793
			c0-11.4-6.902-21.215-16.745-25.496c3.337-11.894,14.27-20.644,27.215-20.644c15.587,0,28.268,12.681,28.268,28.268v89.005
			c0,15.588-12.682,28.269-28.268,28.269c-5.629,0-10.968-1.624-15.532-4.644c1.344-3.6,2.083-7.493,2.083-11.556
			c0-18.268-14.864-33.132-33.132-33.132s-33.132,14.862-33.132,33.132c0,18.269,14.864,33.132,33.132,33.132
			c6.944,0,13.392-2.151,18.723-5.816c5.061,3.568,10.775,6.133,16.793,7.561c5.398,7.665,8.244,16.637,8.244,26.128
			c0,25.111-20.429,45.54-45.54,45.54c-12.351,0-24.033-5.012-32.531-13.685c3.276-4.56,5.213-10.144,5.213-16.174
			c0-15.325-12.468-27.793-27.793-27.793c-15.325,0-27.793,12.468-27.793,27.793s12.468,27.793,27.793,27.793
			c1.913,0,3.782-0.195,5.588-0.565c6.372,7.35,14.237,13.125,22.98,17.001c-6.133,13.712-19.774,22.566-34.805,22.566
			c-21.027,0-38.132-17.106-38.132-38.131c0-5.52-4.475-9.996-9.996-9.996s-9.996,4.476-9.996,9.996
			c0,32.049,26.075,58.123,58.124,58.123c22.987,0,43.851-13.583,53.153-34.604l1.2-2.712c2.31,0.248,4.644,0.381,6.996,0.381
			c9.746,0,18.993-2.154,27.313-5.986v4.772c0,2.651,1.054,5.193,2.928,7.068l29.581,29.581c-2.525,4.748-3.961,10.159-3.961,15.9
			c0,18.74,15.245,33.985,33.985,33.985s33.985-15.245,33.985-33.985S496.754,443.944,478.015,443.944z M478.015,20.078
			c7.717,0,13.994,6.277,13.994,13.994c0,7.717-6.277,13.994-13.994,13.994s-13.994-6.277-13.994-13.994
			C464.021,26.355,470.298,20.078,478.015,20.078z M178.72,368.942c4.302,0,7.802,3.499,7.802,7.802s-3.499,7.802-7.802,7.802
			s-7.802-3.5-7.802-7.802S174.419,368.942,178.72,368.942z M121.829,286.919c7.246,0,13.14,5.894,13.14,13.14
			s-5.894,13.14-13.14,13.14s-13.14-5.894-13.14-13.14C108.689,292.814,114.583,286.919,121.829,286.919z M113.512,209.054
			c4.302,0,7.802,3.499,7.802,7.802s-3.5,7.802-7.802,7.802s-7.802-3.499-7.802-7.802S109.209,209.054,113.512,209.054z
			 M165.893,134.078c6.264,0,11.361,5.097,11.361,11.361s-5.097,11.36-11.361,11.36c-6.264,0-11.361-5.097-11.361-11.36
			C154.532,139.175,159.628,134.078,165.893,134.078z M33.985,48.066c-7.717,0-13.994-6.277-13.994-13.994
			c0-7.717,6.277-13.994,13.994-13.994c7.717,0,13.994,6.277,13.994,13.994C47.979,41.789,41.702,48.066,33.985,48.066z
			 M33.985,491.923c-7.717,0-13.994-6.277-13.994-13.994c0-7.717,6.277-13.994,13.994-13.994c7.717,0,13.994,6.277,13.994,13.994
			C47.979,485.645,41.702,491.923,33.985,491.923z M303.226,190.004l18.634,18.635v94.674l-18.634,18.635h-94.675l-18.634-18.635
			v-94.674l18.634-18.635H303.226z M345.884,156.801c-6.264,0-11.361-5.097-11.361-11.36c0-6.265,5.097-11.361,11.361-11.361
			s11.361,5.097,11.361,11.361C357.245,151.704,352.149,156.801,345.884,156.801z M398.266,224.657
			c-4.302,0-7.802-3.499-7.802-7.802s3.499-7.802,7.802-7.802s7.802,3.499,7.802,7.802S402.568,224.657,398.266,224.657z
			 M389.947,313.199c-7.246,0-13.14-5.894-13.14-13.14c0-7.245,5.894-13.14,13.14-13.14s13.14,5.894,13.14,13.14
			S397.193,313.199,389.947,313.199z M333.057,384.545c-4.302,0-7.802-3.5-7.802-7.802c0-4.302,3.5-7.802,7.802-7.802
			c4.302,0,7.802,3.5,7.802,7.802S337.359,384.545,333.057,384.545z M478.015,491.923c-7.717,0-13.994-6.277-13.994-13.994
			c0-7.717,6.277-13.994,13.994-13.994s13.994,6.277,13.994,13.994C492.009,485.645,485.73,491.923,478.015,491.923z"/>
    </symbol>

    <symbol id="why02" role="img" aria-labelledby="why02_title" viewBox="0 0 512 512">
        <title id="why02_title"></title>
        <path d="M477.083,440.502c19.253,0,34.917-15.664,34.917-34.918V50c0-27.57-22.43-50-50-50H50C22.43,0,0,22.43,0,50v355.584
			c0,19.254,15.664,34.918,34.917,34.918H46V492H10c-5.523,0-10,4.478-10,10c0,5.522,4.477,10,10,10h492c5.523,0,10-4.478,10-10
			c0-5.522-4.477-10-10-10h-36v-51.498H477.083z M20,50c0-16.542,13.458-30,30-30h412c16.542,0,30,13.458,30,30v22H21.004
			c-0.339,0-0.674,0.018-1.004,0.051V50z M110,492H66v-90h44V492z M222,492h-44V291.432h44V492z M334,492h-44V376h44V492z
			 M456,256.5h-64c-5.523,0-10,4.478-10,10v50.499c0,5.522,4.477,10,10,10s10-4.478,10-10V276.5h44V492h-44V384.25
			c0-5.522-4.477-10-10-10s-10,4.478-10,10V492h-28V366c0-5.522-4.477-10-10-10h-64c-5.523,0-10,4.478-10,10v126h-28V281.432
			c0-5.522-4.477-10-10-10h-64c-5.523,0-10,4.478-10,10V492h-28V392c0-5.522-4.477-10-10-10H56c-5.523,0-10,4.478-10,10v28.502
			H34.917c-8.226,0-14.917-6.692-14.917-14.918V91.949C20.33,91.982,20.665,92,21.004,92H492v313.584
			c0,8.226-6.692,14.918-14.917,14.918H466V266.5C466,260.978,461.523,256.5,456,256.5z"/>
		<path style="fill:#0077C3;" d="M448,36H222.065c-5.523,0-10,4.478-10,10s4.477,10,10,10H448c5.523,0,10-4.478,10-10S453.523,36,448,36z"/>
		<path style="fill:#0077C3;" d="M111.07,38.93C109.21,37.07,106.63,36,104,36s-5.21,1.069-7.07,2.93C95.07,40.79,94,43.37,94,46s1.07,5.21,2.93,7.069
			C98.79,54.93,101.37,56,104,56s5.21-1.07,7.07-2.931C112.93,51.21,114,48.63,114,46S112.93,40.79,111.07,38.93z"/>
		<path style="fill:#0077C3;" d="M71.07,38.93C69.21,37.07,66.63,36,64,36s-5.21,1.069-7.07,2.93C55.07,40.79,54,43.37,54,46s1.07,5.21,2.93,7.069
			C58.79,54.93,61.37,56,64,56s5.21-1.07,7.07-2.931C72.93,51.21,74,48.63,74,46S72.93,40.79,71.07,38.93z"/>
		<path style="fill:#0077C3;" d="M151.07,38.93C149.21,37.07,146.64,36,144,36c-2.63,0-5.21,1.069-7.07,2.93C135.07,40.79,134,43.37,134,46
			s1.07,5.21,2.93,7.069C138.79,54.93,141.37,56,144,56s5.21-1.07,7.07-2.931C152.93,51.21,154,48.63,154,46
			S152.93,40.79,151.07,38.93z"/>
		<path style="fill:#ED3431;" d="M399.07,345.57c-1.86-1.87-4.44-2.93-7.07-2.93s-5.21,1.061-7.07,2.93c-1.86,1.86-2.93,4.44-2.93,7.07
			s1.07,5.21,2.93,7.07c1.86,1.859,4.44,2.93,7.07,2.93s5.21-1.07,7.07-2.93s2.93-4.44,2.93-7.07
			C402,350,400.93,347.43,399.07,345.57z"/>
		<path style="fill:#0077C3;" d="M424,135.939c-19.851,0-36,16.149-36,36c0,7.885,2.555,15.181,6.871,21.118l-66.425,66.425
			c-5.155-2.853-11.077-4.483-17.375-4.483c-5.675,0-11.045,1.325-15.824,3.674l-69.359-69.359
			c2.853-5.155,4.483-11.077,4.483-17.375c0-19.851-16.149-36-36-36s-36,16.149-36,36c0,6.938,1.978,13.42,5.392,18.922
			l-59.053,59.052c-5.155-2.853-11.077-4.483-17.374-4.483c-19.851,0-36,16.149-36,36s16.149,36,36,36c19.851,0,36-16.149,36-36
			c0-6.298-1.63-12.22-4.483-17.375l59.758-59.758c4.763,2.329,10.111,3.641,15.76,3.641c6.297,0,12.219-1.63,17.374-4.483
			l68.68,68.679c-3.391,5.49-5.354,11.95-5.354,18.863c0,19.851,16.149,36,36,36s36-16.149,36-36c0-6.298-1.63-12.22-4.483-17.375
			l68.205-68.205c4.093,1.622,8.546,2.522,13.207,2.522c19.851,0,36-16.149,36-36C460,152.088,443.851,135.939,424,135.939z
			 M87.337,297.432c-8.822,0-16-7.178-16-16c0-8.822,7.178-16,16-16c8.822,0,16,7.178,16,16
			C103.337,290.254,96.159,297.432,87.337,297.432z M194.372,187.939c-8.822,0-16-7.178-16-16c0-8.822,7.178-16,16-16
			s16,7.178,16,16C210.372,180.761,203.194,187.939,194.372,187.939z M311.072,306.999c-8.822,0-16-7.178-16-16
			c0-8.822,7.178-16,16-16c8.822,0,16,7.178,16,16C327.072,299.821,319.894,306.999,311.072,306.999z M424,187.939
			c-8.822,0-16-7.178-16-16c0-8.822,7.178-16,16-16c8.822,0,16,7.178,16,16C440,180.761,432.822,187.939,424,187.939z"/>
		<path style="fill:#ED3431;" d="M148.33,128.951c-1.87-1.86-4.44-2.931-7.07-2.931c-2.64,0-5.22,1.07-7.08,2.931c-1.86,1.859-2.92,4.439-2.92,7.069
			s1.06,5.21,2.92,7.07c1.87,1.86,4.44,2.93,7.08,2.93c2.63,0,5.2-1.069,7.07-2.93c1.86-1.86,2.93-4.44,2.93-7.07
			S150.19,130.81,148.33,128.951z"/>
		<path style="fill:#ED3431;" d="M104,126.021H56c-5.523,0-10,4.478-10,10c0,5.522,4.477,10,10,10h48c5.523,0,10-4.478,10-10
			C114,130.499,109.523,126.021,104,126.021z"/>
		<path style="fill:#ED3431;" d="M104,174.021H56c-5.523,0-10,4.478-10,10c0,5.522,4.477,10,10,10h48c5.523,0,10-4.478,10-10
			C114,178.499,109.523,174.021,104,174.021z"/>
    </symbol>

    <symbol id="why03" role="img" aria-labelledby="why03_title" viewBox="0 0 512 512">
        <title id="why03_title"></title>
        <path style="fill:#0077C3;" d="M54.522,45.351c-5.521,0-9.999,4.477-9.999,9.999s4.477,9.999,9.999,9.999h0.1c5.521,0,9.949-4.477,9.949-9.999
			S60.044,45.351,54.522,45.351z"/>
		<path style="fill:#0077C3;" d="M102.467,45.351c-5.521,0-9.999,4.477-9.999,9.999s4.477,9.999,9.999,9.999h0.099c5.521,0,9.95-4.477,9.95-9.999
			S107.989,45.351,102.467,45.351z"/>
		<path style="fill:#0077C3;" d="M150.412,45.351c-5.521,0-9.999,4.477-9.999,9.999s4.477,9.999,9.999,9.999h0.099c5.521,0,9.949-4.477,9.949-9.999
			S155.934,45.351,150.412,45.351z"/>
		<path style="fill:#0077C3;" d="M395.663,45.351H274.322c-5.521,0-9.999,4.477-9.999,9.999s4.477,9.999,9.999,9.999h121.341
			c5.521,0,9.999-4.477,9.999-9.999S401.184,45.351,395.663,45.351z"/>
		<path d="M233.912,396.912c-1.861-1.86-4.44-2.93-7.069-2.93s-5.209,1.07-7.068,2.93c-1.86,1.86-2.931,4.44-2.931,7.069
			s1.07,5.209,2.931,7.068c1.859,1.86,4.438,2.931,7.068,2.931s5.209-1.07,7.069-2.931c1.86-1.859,2.93-4.438,2.93-7.068
			S235.772,398.772,233.912,396.912z"/>
		<path d="M458.006,128.273v-78.25c0-27.567-22.427-49.994-49.994-49.994H49.994C22.427,0.029,0,22.457,0,50.024v315.933
			c0,26.481,21.543,48.024,48.023,48.024h37.526v1.623c0,3.421-2.435,6.388-5.789,7.056l-37.682,7.508
			c-20.941,4.174-36.566,21.239-38.88,42.466l-3.081,28.254c-0.308,2.824,0.601,5.645,2.497,7.76
			c1.896,2.115,4.603,3.323,7.443,3.323H226.84c2.841,0,5.548-1.209,7.444-3.324c1.896-2.115,2.804-4.937,2.495-7.761l-3.089-28.263
			c-2.319-21.222-17.943-38.282-38.878-42.454l-37.689-7.509c-3.355-0.668-5.789-3.636-5.789-7.056v-9.389
			c0-0.051-0.007-0.1-0.008-0.151l16.947-9.688c0.187-0.106,0.369-0.219,0.548-0.337c9.087-6.001,15.054-16.687,15.963-28.586
			c0.02-0.254,0.029-0.508,0.029-0.762v-41.006c5.975-3.892,10.337-10.968,10.337-23.354l0.016-22.468
			c0-0.372-0.02-0.739-0.06-1.101c-1.024-19.787-17.135-35.157-37.063-35.157h-84.97c-3.73,0-7.192-1.976-9.44-3.633
			c-4.211-3.104-9.718-3.57-14.377-1.216c-4.641,2.345-7.524,7.034-7.524,12.239v32.534c0,11.051,3.885,21.208,10.353,29.193v53.969
			c0,0.254,0.01,0.508,0.029,0.762c0.811,10.615,5.719,20.282,13.306,26.529H48.023c-15.453,0.002-28.026-12.57-28.026-28.025
			V156.081h111.664c5.521,0,9.999-4.477,9.999-9.999s-4.477-9.999-9.999-9.999H19.998v-27.997h418.011v19.911H275.695
			c-32.896,0-59.66,26.763-59.66,59.659v83.691c0,32.896,26.764,59.659,59.66,59.659h12.499v29.235c0,4.045,2.437,7.69,6.172,9.238
			c1.237,0.512,2.537,0.761,3.825,0.761c2.603,0,5.159-1.016,7.072-2.929l36.305-36.306h96.442v34.951
			c0,15.454-12.573,28.027-28.027,28.027H267.529c-5.521,0-9.999,4.477-9.999,9.999s4.477,9.999,9.999,9.999h142.453
			c26.481,0,48.024-21.544,48.024-48.024v-35.226C488.254,327.866,512,302.333,512,271.348v-83.691
			C512,156.672,488.254,131.138,458.006,128.273z M157.802,443.187l33.104,6.595c12.337,2.457,21.541,12.509,22.908,25.012
			l1.877,17.178H21.207l1.873-17.171c1.363-12.508,10.569-22.562,22.907-25.02l33.107-6.596
			c10.857,9.672,24.697,14.967,39.355,14.967C133.107,458.152,146.946,452.856,157.802,443.187z M99.142,433.083
			c3.645-4.334,5.933-9.791,6.325-15.685c4.135,2.027,8.557,3.057,12.982,3.057c4.42,0.001,8.836-1.027,12.969-3.05
			c0.393,5.894,2.684,11.35,6.329,15.684c-5.823,3.299-12.423,5.064-19.298,5.064C111.572,438.153,104.969,436.385,99.142,433.083z
			 M164.817,366.275c-0.504,5.449-3.078,10.35-6.788,12.925l-33.592,19.203c-0.187,0.106-0.369,0.219-0.548,0.337
			c-3.458,2.283-7.423,2.282-10.879,0c-0.175-0.115-0.354-0.226-0.536-0.33l-33.498-19.208c-3.776-2.613-6.39-7.516-6.894-12.928
			v-39.165c5.021,1.863,10.449,2.884,16.11,2.884h76.625V366.275z M61.73,283.531c0,0,0-22.019,0-22.019
			c3.737,1.381,7.557,2.092,11.345,2.092h84.97c9.329,0,16.845,7.303,17.109,16.627c0.003,0.111,0.009,0.223,0.016,0.334
			l-0.016,21.76c0,0.002,0,0.005,0,0.007c0,5.062-1.034,6.341-1.152,6.471c-0.404,0.442-2.155,1.191-6.153,1.191H88.193
			C73.6,309.994,61.73,298.124,61.73,283.531z M19.998,88.089V50.024c0-16.54,13.456-29.996,29.996-29.996h358.018
			c16.54,0,29.996,13.456,29.996,29.996v38.066H19.998z M492.002,271.348c0,21.869-17.793,39.661-39.662,39.661H337.424
			c-2.652,0-5.194,1.054-7.07,2.929l-22.163,22.164v-15.094c0-5.521-4.477-9.999-9.999-9.999h-22.497
			c-21.869,0-39.662-17.792-39.662-39.661v-83.691c0-21.869,17.793-39.661,39.662-39.661H452.34
			c21.869,0,39.662,17.792,39.662,39.661V271.348z"/>
		<path style="fill:#0077C3;" d="M284.027,199.125c-16.54,0-29.997,13.456-29.997,29.996c0,16.54,13.456,29.996,29.997,29.996
			c16.54,0,29.996-13.456,29.996-29.996S300.567,199.125,284.027,199.125z M284.027,239.12c-5.513,0-9.999-4.485-9.999-9.999
			c0-5.513,4.485-9.999,9.999-9.999s9.999,4.485,9.999,9.999C294.026,234.635,289.539,239.12,284.027,239.12z"/>
		<path style="fill:#0077C3;" d="M364.017,199.125c-16.54,0-29.996,13.456-29.996,29.996c0,16.54,13.456,29.996,29.996,29.996s29.996-13.456,29.996-29.996
			S380.557,199.125,364.017,199.125z M364.017,239.12c-5.513,0-9.999-4.485-9.999-9.999c0-5.513,4.485-9.999,9.999-9.999
			s9.999,4.485,9.999,9.999C374.016,234.635,369.53,239.12,364.017,239.12z"/>
		<path style="fill:#0077C3;" d="M444.008,199.125c-16.54,0-29.996,13.456-29.996,29.996c0,16.54,13.456,29.996,29.996,29.996
			c16.54,0,29.997-13.456,29.997-29.996S460.548,199.125,444.008,199.125z M444.008,239.12c-5.513,0-9.999-4.485-9.999-9.999
			c0-5.513,4.485-9.999,9.999-9.999c5.513,0,9.999,4.485,9.999,9.999C454.007,234.635,449.52,239.12,444.008,239.12z"/>
		<path style="fill:#0077C3;" d="M176.227,139.013c-1.859-1.86-4.438-2.931-7.068-2.931s-5.208,1.07-7.069,2.931c-1.86,1.859-2.93,4.429-2.93,7.068
			c0,2.631,1.069,5.21,2.93,7.069c1.86,1.86,4.439,2.93,7.069,2.93c2.64,0,5.209-1.069,7.068-2.93
			c1.87-1.859,2.931-4.438,2.931-7.069C179.158,143.452,178.097,140.872,176.227,139.013z"/>
    </symbol>

    <symbol id="footer-facebook" role="img" aria-labelledby="footer-facebook_title" viewBox="0 0 455.73 455.73">
        <title id="footer-facebook_title">Facebook</title>
        <path d="M0,0v455.73h242.704V279.691h-59.33v-71.864h59.33v-60.353c0-43.893,35.582-79.475,79.475-79.475
			h62.025v64.622h-44.382c-13.947,0-25.254,11.307-25.254,25.254v49.953h68.521l-9.47,71.864h-59.051V455.73H455.73V0H0z"/>
    </symbol>

    <symbol id="footer-twitter" role="img" aria-labelledby="footer-twitter_title" viewBox="0 0 455.731 455.731">
        <title id="footer-twitter_title">Twitter</title>
        <rect x="0" y="0" width="455.731" height="455.731"/>
		<path style="fill:#002b49;" d="M60.377,337.822c30.33,19.236,66.308,30.368,104.875,30.368c108.349,0,196.18-87.841,196.18-196.18
			c0-2.705-0.057-5.39-0.161-8.067c3.919-3.084,28.157-22.511,34.098-35c0,0-19.683,8.18-38.947,10.107
			c-0.038,0-0.085,0.009-0.123,0.009c0,0,0.038-0.019,0.104-0.066c1.775-1.186,26.591-18.079,29.951-38.207
			c0,0-13.922,7.431-33.415,13.932c-3.227,1.072-6.605,2.126-10.088,3.103c-12.565-13.41-30.425-21.78-50.25-21.78
			c-38.027,0-68.841,30.805-68.841,68.803c0,5.362,0.617,10.581,1.784,15.592c-5.314-0.218-86.237-4.755-141.289-71.423
			c0,0-32.902,44.917,19.607,91.105c0,0-15.962-0.636-29.733-8.864c0,0-5.058,54.416,54.407,68.329c0,0-11.701,4.432-30.368,1.272
			c0,0,10.439,43.968,63.271,48.077c0,0-41.777,37.74-101.081,28.885L60.377,337.822z"/>
    </symbol>

    <symbol id="footer-instagram" role="img" aria-labelledby="footer-instagram_title" viewBox="0 0 455.73 455.73">
        <title id="footer-instagram_title">Instagram</title>
        <path d="M227.86,182.55c-24.98,0-45.32,20.33-45.32,45.31c0,24.99,20.34,45.33,45.32,45.33
			c24.99,0,45.32-20.34,45.32-45.33C273.18,202.88,252.85,182.55,227.86,182.55z M227.86,182.55c-24.98,0-45.32,20.33-45.32,45.31
			c0,24.99,20.34,45.33,45.32,45.33c24.99,0,45.32-20.34,45.32-45.33C273.18,202.88,252.85,182.55,227.86,182.55z M303.36,108.66
			H152.37c-24.1,0-43.71,19.61-43.71,43.71v150.99c0,24.1,19.61,43.71,43.71,43.71h150.99c24.1,0,43.71-19.61,43.71-43.71V152.37
			C347.07,128.27,327.46,108.66,303.36,108.66z M227.86,306.35c-43.27,0-78.48-35.21-78.48-78.49c0-43.27,35.21-78.48,78.48-78.48
			c43.28,0,78.49,35.21,78.49,78.48C306.35,271.14,271.14,306.35,227.86,306.35z M308.87,165.61c-10.24,0-18.57-8.33-18.57-18.57
			s8.33-18.57,18.57-18.57s18.57,8.33,18.57,18.57S319.11,165.61,308.87,165.61z M227.86,182.55c-24.98,0-45.32,20.33-45.32,45.31
			c0,24.99,20.34,45.33,45.32,45.33c24.99,0,45.32-20.34,45.32-45.33C273.18,202.88,252.85,182.55,227.86,182.55z M303.36,108.66
			H152.37c-24.1,0-43.71,19.61-43.71,43.71v150.99c0,24.1,19.61,43.71,43.71,43.71h150.99c24.1,0,43.71-19.61,43.71-43.71V152.37
			C347.07,128.27,327.46,108.66,303.36,108.66z M227.86,306.35c-43.27,0-78.48-35.21-78.48-78.49c0-43.27,35.21-78.48,78.48-78.48
			c43.28,0,78.49,35.21,78.49,78.48C306.35,271.14,271.14,306.35,227.86,306.35z M308.87,165.61c-10.24,0-18.57-8.33-18.57-18.57
			s8.33-18.57,18.57-18.57s18.57,8.33,18.57,18.57S319.11,165.61,308.87,165.61z M227.86,182.55c-24.98,0-45.32,20.33-45.32,45.31
			c0,24.99,20.34,45.33,45.32,45.33c24.99,0,45.32-20.34,45.32-45.33C273.18,202.88,252.85,182.55,227.86,182.55z M0,0v455.73h455.73
			V0H0z M380.23,303.36c0,42.39-34.48,76.87-76.87,76.87H152.37c-42.39,0-76.87-34.48-76.87-76.87V152.37
			c0-42.39,34.48-76.87,76.87-76.87h150.99c42.39,0,76.87,34.48,76.87,76.87V303.36z M303.36,108.66H152.37
			c-24.1,0-43.71,19.61-43.71,43.71v150.99c0,24.1,19.61,43.71,43.71,43.71h150.99c24.1,0,43.71-19.61,43.71-43.71V152.37
			C347.07,128.27,327.46,108.66,303.36,108.66z M227.86,306.35c-43.27,0-78.48-35.21-78.48-78.49c0-43.27,35.21-78.48,78.48-78.48
			c43.28,0,78.49,35.21,78.49,78.48C306.35,271.14,271.14,306.35,227.86,306.35z M308.87,165.61c-10.24,0-18.57-8.33-18.57-18.57
			s8.33-18.57,18.57-18.57s18.57,8.33,18.57,18.57S319.11,165.61,308.87,165.61z M227.86,182.55c-24.98,0-45.32,20.33-45.32,45.31
			c0,24.99,20.34,45.33,45.32,45.33c24.99,0,45.32-20.34,45.32-45.33C273.18,202.88,252.85,182.55,227.86,182.55z M227.86,182.55
			c-24.98,0-45.32,20.33-45.32,45.31c0,24.99,20.34,45.33,45.32,45.33c24.99,0,45.32-20.34,45.32-45.33
			C273.18,202.88,252.85,182.55,227.86,182.55z M227.86,182.55c-24.98,0-45.32,20.33-45.32,45.31c0,24.99,20.34,45.33,45.32,45.33
			c24.99,0,45.32-20.34,45.32-45.33C273.18,202.88,252.85,182.55,227.86,182.55z M303.36,108.66H152.37
			c-24.1,0-43.71,19.61-43.71,43.71v150.99c0,24.1,19.61,43.71,43.71,43.71h150.99c24.1,0,43.71-19.61,43.71-43.71V152.37
			C347.07,128.27,327.46,108.66,303.36,108.66z M227.86,306.35c-43.27,0-78.48-35.21-78.48-78.49c0-43.27,35.21-78.48,78.48-78.48
			c43.28,0,78.49,35.21,78.49,78.48C306.35,271.14,271.14,306.35,227.86,306.35z M308.87,165.61c-10.24,0-18.57-8.33-18.57-18.57
			s8.33-18.57,18.57-18.57s18.57,8.33,18.57,18.57S319.11,165.61,308.87,165.61z M227.86,182.55c-24.98,0-45.32,20.33-45.32,45.31
			c0,24.99,20.34,45.33,45.32,45.33c24.99,0,45.32-20.34,45.32-45.33C273.18,202.88,252.85,182.55,227.86,182.55z M227.86,182.55
			c-24.98,0-45.32,20.33-45.32,45.31c0,24.99,20.34,45.33,45.32,45.33c24.99,0,45.32-20.34,45.32-45.33
			C273.18,202.88,252.85,182.55,227.86,182.55z M227.86,182.55c-24.98,0-45.32,20.33-45.32,45.31c0,24.99,20.34,45.33,45.32,45.33
			c24.99,0,45.32-20.34,45.32-45.33C273.18,202.88,252.85,182.55,227.86,182.55z M303.36,108.66H152.37
			c-24.1,0-43.71,19.61-43.71,43.71v150.99c0,24.1,19.61,43.71,43.71,43.71h150.99c24.1,0,43.71-19.61,43.71-43.71V152.37
			C347.07,128.27,327.46,108.66,303.36,108.66z M227.86,306.35c-43.27,0-78.48-35.21-78.48-78.49c0-43.27,35.21-78.48,78.48-78.48
			c43.28,0,78.49,35.21,78.49,78.48C306.35,271.14,271.14,306.35,227.86,306.35z M308.87,165.61c-10.24,0-18.57-8.33-18.57-18.57
			s8.33-18.57,18.57-18.57s18.57,8.33,18.57,18.57S319.11,165.61,308.87,165.61z M227.86,182.55c-24.98,0-45.32,20.33-45.32,45.31
			c0,24.99,20.34,45.33,45.32,45.33c24.99,0,45.32-20.34,45.32-45.33C273.18,202.88,252.85,182.55,227.86,182.55z"/>
    </symbol>

    <symbol id="footer-youtube" role="img" aria-labelledby="footer-youtube_title" viewBox="0 0 455.731 455.731">
        <title id="footer-youtube_title">Youtube</title>
        <rect x="0" y="0" width="455.731" height="455.731"/>
		<path style="fill:#002b49;" d="M263.259,291.734c-0.01-1.7-0.51-3.47-1.14-5.06c-0.84-2.09-2.64-3.13-4.9-3.35
			c-2.65-0.26-4.77,0.81-6.69,2.51c-0.77,0.67-1.12,1.67-1.12,1.67l0.04,53.97v1.33c0,0,0.46,0.62,0.53,0.7
			c1.56,1.69,3.38,3.03,5.71,3.51c3.84,0.79,6.55-0.81,7.3-4.37c0.19-0.89,0.3-1.81,0.3-2.72
			C263.309,323.854,263.339,307.794,263.259,291.734z M263.259,291.734c-0.01-1.7-0.51-3.47-1.14-5.06
			c-0.84-2.09-2.64-3.13-4.9-3.35c-2.65-0.26-4.77,0.81-6.69,2.51c-0.77,0.67-1.12,1.67-1.12,1.67l0.04,53.97v1.33
			c0,0,0.46,0.62,0.53,0.7c1.56,1.69,3.38,3.03,5.71,3.51c3.84,0.79,6.55-0.81,7.3-4.37c0.19-0.89,0.3-1.81,0.3-2.72
			C263.309,323.854,263.339,307.794,263.259,291.734z M323.689,210.344c-63.87-1.37-127.77-1.37-191.65,0
			c-22.16,0.47-39.88,18.59-39.88,40.76v99.76c0,22.18,17.72,40.3,39.88,40.77c63.88,1.37,127.78,1.37,191.65,0
			c22.17-0.47,39.89-18.59,39.89-40.77v-99.76C363.579,228.935,345.859,210.814,323.689,210.344z M150.799,359.955h-18.42v-104.13
			h-19.07v-17.42h56.6v17.38h-19.11V359.955z M216.719,316.734v43.23h-16.31v-9.88c-0.59,0.63-0.92,0.97-1.23,1.32
			c-3.51,3.96-7.49,7.26-12.57,9.01c-2.48,0.85-5.03,1.14-7.64,0.69c-3.56-0.59-5.95-2.64-7.39-5.88c-1.34-2.99-1.68-6.19-1.69-9.41
			c-0.04-11.9-0.02-74.88-0.02-75.49h16.27c0.03,0.55,0.09,45.76,0.1,67.81c0,1.2,0.01,2.43,0.25,3.6c0.6,2.96,2.87,4.23,5.72,3.19
			c3.28-1.2,5.78-3.46,7.88-6.17c0.31-0.39,0.31-1.09,0.31-1.65v-66.88l16.32-0.04C216.719,270.185,216.719,301.754,216.719,316.734
			z M278.769,351.324c-2.18,6.56-6.98,9.9-13.88,9.83c-5.61-0.05-10.16-2.28-13.91-6.35c-0.42-0.45-1.58-1.68-1.58-1.68v6.82h-16.34
			v-121.55h16.34c0,12.94,0,40.01,0,40.01s0.92-1.84,1.76-2.79c2.53-2.83,5.61-5.02,9.41-5.98c6.27-1.57,13.5,0.37,16.94,7.7
			c2.03,4.33,2.6,8.95,2.6,13.65c0.03,16.99,0.03,33.98,0.01,50.97C280.109,345.134,279.779,348.275,278.769,351.324z
			 M339.119,347.905c-2.83,8.29-8.68,12.89-17.26,14.15c-5.32,0.78-10.59,0.67-15.58-1.59c-6.83-3.08-10.7-8.65-12.36-15.74
			c-0.77-3.3-1.15-6.76-1.19-10.15c-0.13-13.31-0.07-26.63-0.04-39.94c0.01-6.96,1.67-13.38,6.44-18.71
			c5.44-6.09,12.4-8.36,20.35-7.85c2.39,0.15,4.83,0.54,7.1,1.29c7.73,2.54,11.86,8.33,13.48,16.01c0.62,2.96,0.85,6.03,0.9,9.06
			c0.13,7.1-0.05,22.75-0.05,22.75h-31.29v22.43c0,4.03,3.26,7.29,7.29,7.29c4.02,0,7.28-3.26,7.28-7.29v-11.53h16.81
			C340.999,328.084,341.249,341.695,339.119,347.905z M324.189,290.685c0-4.02-3.26-7.29-7.28-7.29c-4.03,0-7.29,3.27-7.29,7.29
			v12.59h14.57V290.685z M262.119,286.675c-0.84-2.09-2.64-3.13-4.9-3.35c-2.65-0.26-4.77,0.81-6.69,2.51
			c-0.77,0.67-1.12,1.67-1.12,1.67l0.04,53.97v1.33c0,0,0.46,0.62,0.53,0.7c1.56,1.69,3.38,3.03,5.71,3.51
			c3.84,0.79,6.55-0.81,7.3-4.37c0.19-0.89,0.3-1.81,0.3-2.72c0.02-16.07,0.05-32.13-0.03-48.19
			C263.249,290.034,262.749,288.264,262.119,286.675z"/>
		<path style="fill:#002b49;" d="M303.887,94.99l-0.005,90.244H287.16l0.02-9.695c-1.849,1.821-3.427,3.522-5.161,5.05
			c-3.074,2.708-6.556,4.727-10.629,5.524c-6.253,1.223-11.579-0.754-13.573-7.23c-0.664-2.157-1.065-4.482-1.082-6.734V94.99
			h16.596v68.821c0,0.912,0.073,1.834,0.233,2.728c0.504,2.836,2.6,4.171,5.331,3.224c3.329-1.152,5.869-3.457,8.024-6.173
			c0.306-0.388,0.251-1.112,0.251-1.681V94.99H303.887z"/>
		<path style="fill:#002b49;" d="M165.578,110.672c-3.63-15.301-11.235-47.602-11.235-47.602h-19.029
			c0,0,14.62,48.487,21.158,70.111c0.235,0.782,0.343,1.631,0.343,2.45l-0.007,49.584h17.547l-0.007-49.584
			c0-0.819,0.108-1.668,0.343-2.45c6.538-21.624,21.158-70.111,21.158-70.111H176.82c0,0-7.606,32.301-11.235,47.602H165.578z"/>
		<path style="fill:#002b49;" d="M218.752,92.731L218.752,92.731c-13.224,0-23.944,10.72-23.944,23.944v46.859
			c0,13.224,10.72,23.944,23.944,23.944h0c13.224,0,23.944-10.72,23.944-23.944v-46.859
			C242.697,103.451,231.976,92.731,218.752,92.731z M225.662,164.48c0,3.81-3.1,6.909-6.909,6.909s-6.909-3.099-6.909-6.909v-48.752
			c0-3.81,3.1-6.909,6.909-6.909s6.909,3.1,6.909,6.909V164.48z"/>
    </symbol>

    <symbol id="footer-phone" role="img" aria-labelledby="footer-phone_title" viewBox="0 0 512 512">
        <title id="footer-phone_title"></title>
        <path d="M421.216,195.504c-5.092-26.101-17.723-49.836-36.526-68.64c-18.804-18.803-42.54-31.434-68.641-36.527
			c-11.21-2.189-22.073,5.128-24.261,16.339c-2.187,11.212,5.128,22.073,16.339,24.26c36.847,7.188,65.3,35.642,72.489,72.489
			c1.927,9.874,10.581,16.726,20.278,16.726c1.313,0,2.645-0.125,3.984-0.387C416.088,217.577,423.403,206.715,421.216,195.504z"/>
		<path d="M511.422,196.929c-5.629-50.096-28.373-97.304-64.042-132.927C411.712,28.378,364.475,5.694,314.371,0.128
			c-11.355-1.261-21.578,6.92-22.839,18.272c-1.261,11.353,6.919,21.578,18.272,22.84c84.961,9.438,150.966,75.36,160.512,160.31
			c1.188,10.566,10.139,18.374,20.527,18.374c0.771,0,1.552-0.043,2.336-0.131C504.53,218.516,512.698,208.281,511.422,196.929z"/>
		<path d="M432.59,312.566c-0.062-0.008-0.124-0.017-0.186-0.025c-20.013-2.639-39.751-7.557-58.619-14.596
			c-23.91-8.99-51.103-3.191-69.27,14.772c-0.028,0.028-0.056,0.055-0.083,0.083l-17.148,17.148
			c-42.633-26.924-78.756-63.047-105.679-105.679l17.149-17.149c0.027-0.028,0.054-0.055,0.082-0.083
			c17.964-18.166,23.762-45.356,14.79-69.223c-7.057-18.914-11.974-38.653-14.614-58.666c-0.007-0.063-0.017-0.127-0.026-0.19
			c-4.591-32.478-32.782-56.734-65.548-56.467H66.053c-1.943,0.002-3.912,0.091-5.853,0.267
			C24.143,26.016-2.541,58.001,0.718,94.058c0.01,0.108,0.02,0.215,0.032,0.323c7.684,72.354,32.649,142.88,72.197,203.955
			c35.892,56.461,84.701,105.269,141.162,141.164c60.792,39.406,130.99,64.369,203.013,72.196c0.127,0.015,0.254,0.027,0.38,0.038
			c1.961,0.176,3.949,0.266,5.921,0.266c0.083,0,0.165,0,0.247,0.001c36.204-0.148,65.538-29.722,65.391-65.841v-67.233
			C489.746,345.714,465.515,317.211,432.59,312.566z M447.698,378.695v67.548c0.055,13.396-10.8,24.338-24.19,24.393
			c-0.715-0.004-1.425-0.027-2.135-0.086c-65.578-7.161-129.488-29.914-184.837-65.808c-0.053-0.035-0.107-0.069-0.161-0.103
			c-51.429-32.68-95.885-77.137-128.565-128.565c-0.032-0.051-0.064-0.101-0.097-0.153C71.683,220.306,48.928,156.086,41.902,90.193
			C40.779,76.91,50.63,65.155,63.923,63.954c0.717-0.064,1.443-0.098,2.145-0.098h67.463c0.146-0.001,0.294-0.003,0.443-0.002
			c12.021,0,22.322,8.905,24.044,20.819c3.05,23.063,8.721,45.806,16.871,67.649c3.319,8.832,1.189,18.869-5.427,25.591
			l-28.517,28.517c-6.583,6.582-7.956,16.753-3.354,24.847c33.837,59.508,83.177,108.847,142.685,142.685
			c8.094,4.6,18.264,3.23,24.848-3.355l28.512-28.512c6.72-6.621,16.765-8.752,25.642-5.415
			c21.799,8.134,44.547,13.805,67.61,16.855c12.18,1.757,21.122,12.339,20.816,24.647
			C447.7,378.353,447.698,378.524,447.698,378.695z"/>
    </symbol>    

	<symbol id="footer-mail" role="img" aria-labelledby="footer-mail_title" viewBox="0 0 512 512">
        <title id="footer-mail_title"></title>
        <path d="M256,141.176c-63.306,0-114.809,51.503-114.809,114.809S192.694,370.795,256,370.795s114.809-51.503,114.809-114.809
			S319.306,141.176,256,141.176z M256,329.43c-40.498,0-73.445-32.947-73.445-73.445c0-40.498,32.947-73.445,73.445-73.445
			c40.499,0,73.445,32.947,73.445,73.445C329.445,296.483,296.499,329.43,256,329.43z"/>
		<path d="M437.008,74.97C388.656,26.623,324.375,0,256,0c-0.005,0-0.013,0-0.017,0C187.603,0.004,123.318,26.637,74.97,74.992
			C26.62,123.347-0.005,187.637,0,256.017c0.004,68.379,26.637,132.666,74.992,181.014C123.344,485.377,187.625,512.001,256,512
			c0.004,0,0.012,0,0.017,0c55.945-0.004,111.216-18.738,155.631-52.752c9.07-6.945,10.792-19.927,3.846-28.995
			c-6.945-9.069-19.926-10.794-28.995-3.846c-37.24,28.518-83.58,44.224-130.486,44.228c-0.006,0-0.006,0-0.014,0
			c-57.324,0-111.224-22.324-151.761-62.856c-40.542-40.536-62.871-94.435-62.875-151.766
			C41.357,137.663,137.636,41.372,255.986,41.364c0.007,0,0.006,0,0.014,0c118.34,0,214.628,96.279,214.636,214.622v23.532
			c0,27.523-22.39,49.913-49.913,49.913c-27.523,0-49.913-22.391-49.913-49.913v-23.532c0-11.422-9.259-20.682-20.682-20.682
			s-20.682,9.26-20.682,20.682v23.532c0,50.33,40.947,91.278,91.278,91.278S512,329.848,512,279.518v-23.534
			C511.995,187.604,485.362,123.318,437.008,74.97z"/>
    </symbol>

    <symbol id="footer-location" role="img" aria-labelledby="footer-location_title" viewBox="0 0 512 512">
        <title id="footer-location_title"></title>
        <path d="M406.766,62.449C366.495,22.178,312.951,0,256,0S145.505,22.178,105.234,62.449
			c-40.272,40.271-62.449,93.814-62.449,150.766c0,37.656,10.972,76.863,32.609,116.532c16.825,30.846,40.15,62.102,69.326,92.898
			c49.17,51.903,97.763,84.519,99.808,85.881C248.001,510.842,252,512,256,512c4,0,7.999-1.158,11.473-3.474
			c2.045-1.363,50.638-33.978,99.808-85.881c29.176-30.795,52.501-62.051,69.326-92.898c21.637-39.669,32.609-78.876,32.609-116.532
			C469.215,156.263,447.038,102.72,406.766,62.449z M256.001,465.903C215.826,436.156,84.15,329.739,84.15,213.215
			c0-94.759,77.091-171.851,171.85-171.851s171.85,77.092,171.851,171.851C427.851,329.748,296.159,436.168,256.001,465.903z"/>
		<path d="M256,128.355c-46.791,0-84.86,38.068-84.86,84.86c0,46.791,38.068,84.86,84.86,84.86c46.792,0,84.861-38.068,84.86-84.86
			C340.86,166.423,302.791,128.355,256,128.355z M256,256.71c-23.983,0-43.495-19.512-43.495-43.495
			c0-23.983,19.512-43.495,43.495-43.495c23.984,0,43.495,19.512,43.495,43.495C299.495,237.198,279.984,256.71,256,256.71z"/>
		</symbol>

	<symbol id="footer-time" role="img" aria-labelledby="footer-time_title" viewBox="0 0 512 512">
        <title id="footer-time_title"></title>
        <path d="M437.019,74.981C388.667,26.629,324.38,0,256,0S123.333,26.63,74.981,74.981S0,187.62,0,256
			s26.629,132.667,74.981,181.019C123.332,485.371,187.62,512,256,512s132.667-26.629,181.019-74.981
			C485.371,388.667,512,324.38,512,256S485.371,123.332,437.019,74.981z M256,470.636C137.65,470.636,41.364,374.35,41.364,256
			S137.65,41.364,256,41.364S470.636,137.65,470.636,256S374.35,470.636,256,470.636z"/>
		<path d="M341.221,311.97l-64.538-64.537V114.809c0-11.422-9.259-20.682-20.682-20.682c-11.422,0-20.682,9.26-20.682,20.682V256
			c0,5.486,2.179,10.746,6.058,14.625l70.594,70.595c4.038,4.039,9.332,6.058,14.625,6.058c5.293,0,10.586-2.019,14.626-6.058
			C349.297,333.142,349.297,320.047,341.221,311.97z"/>
	</symbol>

	<symbol id="footer-add" role="img" aria-labelledby="footer-add_title" viewBox="0 0 512 512">
        <title id="footer-add_title"></title>
        <path d="M439.026,0H72.975C32.737,0,0,32.737,0,72.975v366.05C0,479.264,32.737,512,72.975,512h366.05
			C479.264,512,512,479.264,512,439.026V72.975C512,32.737,479.264,0,439.026,0z M470.636,439.025
			c0,17.43-14.181,31.611-31.61,31.611H72.975c-17.43,0-31.611-14.181-31.611-31.61V72.975c0-17.43,14.181-31.611,31.611-31.611
			h366.05c17.43,0,31.611,14.181,31.611,31.611V439.025z"/>
		<path d="M256,130.732c-11.422,0-20.682,9.26-20.682,20.682v209.171c0,11.423,9.26,20.682,20.682,20.682
			c11.423,0,20.682-9.259,20.682-20.682V151.414C276.682,139.992,267.423,130.732,256,130.732z"/>
		<path d="M360.585,235.318H151.414c-11.422,0-20.682,9.26-20.682,20.682c0,11.423,9.26,20.682,20.682,20.682h209.171
			c11.423,0,20.682-9.259,20.682-20.682C381.267,244.578,372.008,235.318,360.585,235.318z"/>
	</symbol>



</svg>
