<svg xmlns="http://www.w3.org/2000/svg" xmlns:xlink="http://www.w3.org/1999/xlink">

	<symbol id="pew" role="img" aria-labelledby="pew_title" viewBox="0 0 452.589 452.59">
        <title id="pew_title"></title>
        <path d="m80.070312 488h335.867188c-22.433594-32.457031-89.128906-56-167.9375-56s-145.503906 23.542969-167.929688 56zm0 0"/>
        <path d="m168 112-40-32h-72v-80h144v80h-32zm0 0"/>
        <path d="m328 112v-32h-32v-80h144v80h-72zm0 0"/>
        <path d="m168 256h16v-107.929688c0-3.550781 2.382812-6.71875 5.808594-7.695312l50.191406-14.34375v-15.167969c2.574219.671875 5.222656 1.136719 8 1.136719s5.425781-.464844 8-1.136719v15.167969l50.191406 14.335938c3.425782.984374 5.808594 4.144531 5.808594 7.703124v99.929688h16v-99.929688c0-10.65625-7.160156-20.148437-17.40625-23.078124l-38.59375-11.023438v-13.023438c4.921875-5.625 8-12.898437 8-20.945312v-16c0-17.648438-14.351562-32-32-32s-32 14.351562-32 32v16c0 8.039062 3.078125 15.3125 8 20.945312v13.023438l-38.59375 11.023438c-10.246094 2.929687-17.40625 12.421874-17.40625 23.078124zm64-192c0-8.824219 7.175781-16 16-16s16 7.175781 16 16v16c0 8.824219-7.175781 16-16 16s-16-7.175781-16-16zm0 0"/>
        <path d="m240 224h16v192h-16zm0 0"/>
        <path d="m16 212.070312c0-3.550781 2.382812-6.71875 5.808594-7.695312l50.191406-14.34375v-15.167969c2.574219.671875 5.222656 1.136719 8 1.136719s5.425781-.464844 8-1.136719v15.167969l50.191406 14.335938c3.425782.984374 5.808594 4.144531 5.808594 7.703124v99.929688h16v-99.929688c0-10.65625-7.160156-20.148437-17.40625-23.078124l-38.59375-11.023438v-13.023438c4.921875-5.625 8-12.898437 8-20.945312v-16c0-17.648438-14.351562-32-32-32s-32 14.351562-32 32v16c0 8.039062 3.078125 15.3125 8 20.945312v13.023438l-38.59375 11.023438c-10.246094 2.929687-17.40625 12.421874-17.40625 23.078124v107.929688h16zm48-84.070312c0-8.824219 7.175781-16 16-16s16 7.175781 16 16v16c0 8.824219-7.175781 16-16 16s-16-7.175781-16-16zm0 0"/>
        <path d="m72 288h16v160h-16zm0 0"/>
        <path d="m464 460.230469v-244.230469h-16v252.097656l3.320312 2.390625c3.144532 2.273438 5.894532 5.886719 8.070313 9.511719h-422.796875c2.175781-3.617188 4.925781-7.222656 8.09375-9.511719l3.3125-2.390625v-252.097656h-16v244.230469c-9.96875 9.210937-14.992188 23.464843-15.585938 25.210937l-3.558593 10.558594h470.28125l-3.5625-10.550781c-.582031-1.753907-5.605469-16-15.574219-25.21875zm0 0"/>
        <path d="m112 216v228l10.894531-4.238281c27.890625-10.839844 56.832031-18.066407 86.027344-21.457031l7.078125-.816407v-265.488281h-16v251.304688c-24.359375 3.328124-48.496094 9.191406-72 17.503906v-204.808594zm0 0"/>
        <path d="m120 32h16v16h-16zm0 0"/>
        <path d="m152 32h16v16h-16zm0 0"/>
        <path d="m88 32h16v16h-16zm0 0"/>
        <path d="m360 32h16v16h-16zm0 0"/>
        <path d="m328 32h16v16h-16zm0 0"/>
        <path d="m392 32h16v16h-16zm0 0"/>
        <path d="m478.59375 188.992188-38.59375-11.023438v-13.023438c4.921875-5.625 8-12.898437 8-20.945312v-16c0-17.648438-14.351562-32-32-32s-32 14.351562-32 32v16c0 8.039062 3.078125 15.3125 8 20.945312v13.023438l-38.59375 11.023438c-10.246094 2.929687-17.40625 12.421874-17.40625 23.078124v99.929688h16v-99.929688c0-3.550781 2.382812-6.71875 5.808594-7.695312l50.191406-14.34375v-15.167969c2.574219.671875 5.222656 1.136719 8 1.136719s5.425781-.464844 8-1.136719v15.167969l50.191406 14.335938c3.425782.984374 5.808594 4.144531 5.808594 7.703124v107.929688h16v-107.929688c0-10.65625-7.160156-20.148437-17.40625-23.078124zm-78.59375-44.992188v-16c0-8.824219 7.175781-16 16-16s16 7.175781 16 16v16c0 8.824219-7.175781 16-16 16s-16-7.175781-16-16zm0 0"/>
        <path d="m408 288h16v160h-16zm0 0"/>
        <path d="m280 152v265.488281l7.078125.824219c29.195313 3.390625 58.136719 10.609375 86.027344 21.457031l10.894531 4.230469v-228h-16v204.808594c-23.503906-8.304688-47.640625-14.167969-72-17.503906v-251.304688zm0 0"/>
    </symbol>

    <symbol id="creating01" role="img" aria-labelledby="creating01_title" viewBox="0 0 496 496">
        <title id="creating01_title"></title>
        <path d="m80.070312 488h335.867188c-22.433594-32.457031-89.128906-56-167.9375-56s-145.503906 23.542969-167.929688 56zm0 0"/>
        <path d="m168 112-40-32h-72v-80h144v80h-32zm0 0"/>
        <path d="m328 112v-32h-32v-80h144v80h-72zm0 0"/>
        <path fill="#000" d="m168 256h16v-107.929688c0-3.550781 2.382812-6.71875 5.808594-7.695312l50.191406-14.34375v-15.167969c2.574219.671875 5.222656 1.136719 8 1.136719s5.425781-.464844 8-1.136719v15.167969l50.191406 14.335938c3.425782.984374 5.808594 4.144531 5.808594 7.703124v99.929688h16v-99.929688c0-10.65625-7.160156-20.148437-17.40625-23.078124l-38.59375-11.023438v-13.023438c4.921875-5.625 8-12.898437 8-20.945312v-16c0-17.648438-14.351562-32-32-32s-32 14.351562-32 32v16c0 8.039062 3.078125 15.3125 8 20.945312v13.023438l-38.59375 11.023438c-10.246094 2.929687-17.40625 12.421874-17.40625 23.078124zm64-192c0-8.824219 7.175781-16 16-16s16 7.175781 16 16v16c0 8.824219-7.175781 16-16 16s-16-7.175781-16-16zm0 0"/>
        <path fill="#000" d="m240 224h16v192h-16zm0 0"/>
        <path fill="#000" d="m16 212.070312c0-3.550781 2.382812-6.71875 5.808594-7.695312l50.191406-14.34375v-15.167969c2.574219.671875 5.222656 1.136719 8 1.136719s5.425781-.464844 8-1.136719v15.167969l50.191406 14.335938c3.425782.984374 5.808594 4.144531 5.808594 7.703124v99.929688h16v-99.929688c0-10.65625-7.160156-20.148437-17.40625-23.078124l-38.59375-11.023438v-13.023438c4.921875-5.625 8-12.898437 8-20.945312v-16c0-17.648438-14.351562-32-32-32s-32 14.351562-32 32v16c0 8.039062 3.078125 15.3125 8 20.945312v13.023438l-38.59375 11.023438c-10.246094 2.929687-17.40625 12.421874-17.40625 23.078124v107.929688h16zm48-84.070312c0-8.824219 7.175781-16 16-16s16 7.175781 16 16v16c0 8.824219-7.175781 16-16 16s-16-7.175781-16-16zm0 0"/>
        <path fill="#000" d="m72 288h16v160h-16zm0 0"/>
        <path fill="#000" d="m464 460.230469v-244.230469h-16v252.097656l3.320312 2.390625c3.144532 2.273438 5.894532 5.886719 8.070313 9.511719h-422.796875c2.175781-3.617188 4.925781-7.222656 8.09375-9.511719l3.3125-2.390625v-252.097656h-16v244.230469c-9.96875 9.210937-14.992188 23.464843-15.585938 25.210937l-3.558593 10.558594h470.28125l-3.5625-10.550781c-.582031-1.753907-5.605469-16-15.574219-25.21875zm0 0"/>
        <path fill="#000" d="m112 216v228l10.894531-4.238281c27.890625-10.839844 56.832031-18.066407 86.027344-21.457031l7.078125-.816407v-265.488281h-16v251.304688c-24.359375 3.328124-48.496094 9.191406-72 17.503906v-204.808594zm0 0"/>
        <path fill="#000" d="m120 32h16v16h-16zm0 0"/>
        <path fill="#000" d="m152 32h16v16h-16zm0 0"/>
        <path fill="#000" d="m88 32h16v16h-16zm0 0"/>
        <path fill="#000" d="m360 32h16v16h-16zm0 0"/>
        <path fill="#000" d="m328 32h16v16h-16zm0 0"/>
        <path fill="#000" d="m392 32h16v16h-16zm0 0"/>
        <path fill="#000" d="m478.59375 188.992188-38.59375-11.023438v-13.023438c4.921875-5.625 8-12.898437 8-20.945312v-16c0-17.648438-14.351562-32-32-32s-32 14.351562-32 32v16c0 8.039062 3.078125 15.3125 8 20.945312v13.023438l-38.59375 11.023438c-10.246094 2.929687-17.40625 12.421874-17.40625 23.078124v99.929688h16v-99.929688c0-3.550781 2.382812-6.71875 5.808594-7.695312l50.191406-14.34375v-15.167969c2.574219.671875 5.222656 1.136719 8 1.136719s5.425781-.464844 8-1.136719v15.167969l50.191406 14.335938c3.425782.984374 5.808594 4.144531 5.808594 7.703124v107.929688h16v-107.929688c0-10.65625-7.160156-20.148437-17.40625-23.078124zm-78.59375-44.992188v-16c0-8.824219 7.175781-16 16-16s16 7.175781 16 16v16c0 8.824219-7.175781 16-16 16s-16-7.175781-16-16zm0 0"/>
        <path fill="#000" d="m408 288h16v160h-16zm0 0"/>
        <path fill="#000" d="m280 152v265.488281l7.078125.824219c29.195313 3.390625 58.136719 10.609375 86.027344 21.457031l10.894531 4.230469v-228h-16v204.808594c-23.503906-8.304688-47.640625-14.167969-72-17.503906v-251.304688zm0 0"/>
    </symbol>

    <symbol id="creating02" role="img" aria-labelledby="creating02_title" viewBox="0 0 497.96 497.96">
        <title id="creating02_title"></title>
        <polygon points="233.96,128.98 161.96,208.98 193.96,208.98 193.96,328.98 249.96,328.98 249.96,272.98 
		273.96,272.98 273.96,208.98 305.96,208.98 	"/>
		<polygon points="89.96,192.98 17.96,272.98 49.96,272.98 49.96,384.98 129.96,384.98 129.96,272.98 
			161.96,272.98 	"/>
		<circle cx="409.96" cy="88.98" r="48"/>
		<path fill="#000" d="M361.96,496.98h96v-264h-96V496.98z M377.96,248.98h64v232h-24v-16h-16v16h-24V248.98z"/>
		<path fill="#000" d="M497.96,88.98c0-48.52-39.48-88-88-88s-88,39.48-88,88c0,29.68,15.216,57.496,40,73.672v6.328h-16
			v16h16v32h96v-32h16v-16h-16v-6.328C482.744,146.476,497.96,118.66,497.96,88.98z M441.96,200.98h-64v-16h64V200.98z
			 M409.96,104.98c-8.824,0-16-7.176-16-16s7.176-16,16-16s16,7.176,16,16S418.784,104.98,409.96,104.98z M417.96,168.98v-49.136
			c13.76-3.576,24-16,24-30.864c0-17.648-14.352-32-32-32s-32,14.352-32,32c0,14.864,10.24,27.288,24,30.864v49.136h-24v-15.4
			l-3.992-2.312c-22.208-12.864-36.008-36.736-36.008-62.288c0-39.696,32.304-72,72-72s72,32.304,72,72
			c0,25.552-13.8,49.424-36.008,62.288l-3.992,2.312v15.4H417.96z"/>
		<path fill="#000" d="M57.96,368.98h-16v16h-40v112h96v-112h-40V368.98z M81.96,480.98h-24v-16h-16v16h-24v-80h64V480.98z
			"/>
		<path fill="#000" d="M201.96,312.98h-16v16h-48v-48h41.96l-57.96-64.4V88.98H99.92l54.04-60.04L208,88.98h-22.04v40h16
			v-24h41.96L153.96,5.02L64,104.98h41.96v93.824l-16-17.776L0,280.98h41.96v72h16v-88H35.92l54.04-60.04L144,264.98h-22.04v64v8v160
			h96v-168h-16V312.98z M201.96,480.98h-24v-16h-16v16h-24v-136h64V480.98z"/>
		<path fill="#000" d="M281.96,216.98h41.96l-89.96-99.96l-32,35.552v-7.592h-16v25.376L144,216.98h41.96v80h16v-96h-22.04
			l54.04-60.04L288,200.98h-22.04v64h-24v232h96v-232h-56V216.98z M321.96,480.98h-24v-16h-16v16h-24v-200h64V480.98z"/>
    </symbol>

    <symbol id="creating03" role="img" aria-labelledby="creating03_title" viewBox="0 0 496 496">
        <title id="creating03_title"></title>
        <polygon points="416,32 424,40 328,136 360,168 456,72 464,80 464,32 	"/>
		<polygon points="32,80 40,72 136,168 168,136 72,40 80,32 32,32 	"/>
		<polygon points="80,464 72,456 168,360 136,328 40,424 32,416 32,464 	"/>
		<polygon points="464,416 456,424 360,328 328,360 424,456 416,464 464,464 	"/>
		<circle cx="248" cy="248" r="72"/>
		<path fill="#000" d="M288,361c46.536-16.528,80-60.872,80-113c0-66.168-53.832-120-120-120s-120,53.832-120,120
			c0,52.128,33.464,96.472,80,113v23h-16v16h16v56c0,22.056,17.944,40,40,40s40-17.944,40-40v-56h16v-16h-16V361z M144,248
			c0-57.344,46.656-104,104-104s104,46.656,104,104s-46.656,104-104,104S144,305.344,144,248z M224,365.584
			c7.76,1.576,15.784,2.416,24,2.416s16.24-0.84,24-2.416V384h-48V365.584z M272,456c0,13.232-10.768,24-24,24s-24-10.768-24-24v-56
			h48V456z"/>
		<path fill="#000" d="M496,155.312V0H340.688l40,40l-22.44,22.44C324.904,42.584,286.968,32,248,32
			s-76.904,10.584-110.248,30.44L115.312,40l40-40H0v155.312l40-40l22.44,22.44C42.584,171.096,32,209.032,32,248
			s10.584,76.904,30.44,110.248L40,380.688l-40-40V496h155.312l-40-40l74.344-74.344l-11.312-11.312L92.688,456l24,24H16V379.312
			l24,24l85.656-85.656l-11.312-11.312L74.12,346.568C57.064,316.552,48,282.72,48,248s9.064-68.552,26.12-98.568l40.224,40.224
			l11.312-11.312L40,92.688l-24,24V16h100.688l-24,24l85.656,85.656l11.312-11.312L149.432,74.12C179.448,57.064,213.28,48,248,48
			s68.552,9.064,98.568,26.12l-40.224,40.224l11.312,11.312L403.312,40l-24-24H480v100.688l-24-24l-85.656,85.656l11.312,11.312
			l40.224-40.224C438.936,179.448,448,213.28,448,248s-9.064,68.552-26.12,98.568l-40.224-40.224l-11.312,11.312L456,403.312l24-24
			V480H379.312l24-24l-85.656-85.656l-11.312,11.312L380.688,456l-40,40H496V340.688l-40,40l-22.44-22.44
			C453.416,324.904,464,286.968,464,248s-10.584-76.904-30.44-110.248l22.44-22.44L496,155.312z"/>
		<rect x="340.683" y="135.963" transform="matrix(-0.7071 0.7071 -0.7071 -0.7071 702.6907 -3.1376)" fill="#000" width="22.624" height="16"/>
		<rect x="372.683" y="103.989" transform="matrix(-0.7071 0.7071 -0.7071 -0.7071 734.7088 -80.3487)" fill="#000" width="22.624" height="16"/>
		<rect x="404.683" y="72.007" transform="matrix(-0.7071 0.7071 -0.7071 -0.7071 766.7213 -157.5735)" fill="#000" width="22.624" height="16"/>
		<rect x="135.998" y="132.688" transform="matrix(-0.7071 0.7071 -0.7071 -0.7071 347.644 144.0011)" fill="#000" width="16" height="22.624"/>
		<rect x="104" y="100.688" transform="matrix(-0.7071 0.7071 -0.7071 -0.7071 270.3919 112)" fill="#000" width="16" height="22.624"/>
		<rect x="72.002" y="68.688" transform="matrix(-0.7071 0.7071 -0.7071 -0.7071 193.1398 79.9989)" fill="#000" width="16" height="22.624"/>
		<rect x="132.723" y="343.997" transform="matrix(-0.7071 0.7071 -0.7071 -0.7071 494.7828 499.0479)" fill="#000" width="22.624" height="16"/>
		<rect x="100.723" y="375.995" transform="matrix(-0.7071 0.7071 -0.7071 -0.7071 462.7816 576.2999)" fill="#000" width="22.624" height="16"/>
		<rect x="68.723" y="408.002" transform="matrix(-0.7071 0.7071 -0.7071 -0.7071 430.7862 653.5657)" fill="#000" width="22.624" height="16"/>
		<rect x="343.992" y="340.688" transform="matrix(-0.7071 0.7071 -0.7071 -0.7071 849.7895 352.0056)" fill="#000" width="16" height="22.624"/>
		<rect x="375.99" y="372.688" transform="matrix(-0.7071 0.7071 -0.7071 -0.7071 927.0416 384.0068)" fill="#000" width="16" height="22.624"/>
		<rect x="407.997" y="404.688" transform="matrix(-0.7071 0.7071 -0.7071 -0.7071 1004.3073 416.0023)" fill="#000" width="16" height="22.624"/>
		<path fill="#000" d="M334.248,253l3.992-5l-3.992-5c-1.408-1.752-34.992-43-86.248-43s-84.84,41.248-86.248,43l-3.992,5
			l3.992,5c1.408,1.752,34.992,43,86.248,43S332.84,254.752,334.248,253z M216,248c0-17.648,14.352-32,32-32s32,14.352,32,32
			s-14.352,32-32,32S216,265.648,216,248z M291.752,267.648C294.456,261.64,296,255,296,248c0-6.968-1.528-13.584-4.208-19.568
			c11.656,6.696,20.424,14.576,25.376,19.584C312.216,253.032,303.448,260.944,291.752,267.648z M204.248,228.352
			C201.544,234.36,200,241,200,248c0,6.968,1.528,13.584,4.208,19.568c-11.656-6.696-20.424-14.576-25.376-19.584
			C183.784,242.968,192.552,235.056,204.248,228.352z"/>
    </symbol>

    <symbol id="creating04" role="img" aria-labelledby="creating04_title" viewBox="0 0 496 496">
        <title id="creating04_title"></title>
        <path d="m224 142.246094v-60.492188l-23.105469-5.777344c-.183593-.457031-.375-.90625-.558593-1.367187l12.238281-20.425781-42.765625-42.769532-20.425782 12.242188c-.460937-.183594-.910156-.375-1.367187-.558594l-5.769531-23.097656h-60.492188l-5.777344 23.105469c-.457031.183593-.90625.375-1.367187.558593l-20.425781-12.238281-42.757813 42.757813 12.238281 20.425781c-.183593.460937-.375.910156-.558593 1.367187l-23.105469 5.777344v60.492188l23.105469 5.777344c.183593.457031.375.90625.558593 1.367187l-12.238281 20.425781 42.765625 42.769532 20.425782-12.242188c.460937.183594.910156.375 1.367187.558594l5.769531 23.097656h60.492188l5.777344-23.105469c.457031-.183593.90625-.375 1.367187-.558593l20.425781 12.238281 42.769532-42.765625-12.242188-20.425782c.183594-.460937.375-.910156.558594-1.367187zm-112 25.753906c-30.929688 0-56-25.070312-56-56s25.070312-56 56-56 56 25.070312 56 56-25.070312 56-56 56zm0 0"/>
        <path d="m396.6875 0 32 32-62.421875 62.425781 1.292969 2.597657 12.832031 3.664062c6.875 1.960938 11.609375 8.242188 11.609375 15.382812v23.242188l72-72 32 32v-99.3125zm0 0"/>
        <path d="m248 248v-32l-5.65625-5.65625-37.65625 37.65625h-204.6875v48h235.3125l50.34375-50.34375-5.65625 2.34375zm0 0"/>
        <path fill="#000" d="m80 112c0 17.648438 14.351562 32 32 32s32-14.351562 32-32-14.351562-32-32-32-32 14.351562-32 32zm48 0c0 8.824219-7.175781 16-16 16s-16-7.175781-16-16 7.175781-16 16-16 16 7.175781 16 16zm0 0"/>
        <path fill="#000" d="m480 83.3125v396.6875h-16v-32h-32v-348.6875l-16 16v300.6875h-16v-32h-32v-264h-16v264h-24v-176h-16v176h-24v-264h-16v264h-16v-108.6875l-16 16v124.6875h-32v32h-16v-152h-16v184h-48v-184h-16v184h-48v-184h-16v184h-48v16h496v-396.6875zm-224 316.6875h128v16h-128zm-32 32h192v16h-192zm224 48h-256v-16h256zm0 0"/>
        <path fill="#000" d="m16 384h16v16h-16zm0 0"/>
        <path fill="#000" d="m16 416h16v16h-16zm0 0"/>
        <path fill="#000" d="m16 448h16v16h-16zm0 0"/>
        <path fill="#000" d="m256 116.070312c0-3.550781 2.382812-6.71875 5.800781-7.695312l50.199219-14.34375v-15.167969c2.574219.671875 5.222656 1.136719 8 1.136719s5.425781-.464844 8-1.136719v15.167969l50.191406 14.335938c3.425782.984374 5.808594 4.144531 5.808594 7.703124v123.929688h16v-123.929688c0-10.65625-7.160156-20.148437-17.40625-23.078124l-38.59375-11.023438v-13.023438c4.921875-5.632812 8-12.90625 8-20.945312v-16c0-17.648438-14.351562-32-32-32s-32 14.351562-32 32v16c0 8.039062 3.078125 15.3125 8 20.945312v13.023438l-38.601562 11.023438c-10.238282 2.929687-17.398438 12.421874-17.398438 23.078124v131.929688h16zm48-84.070312c0-8.824219 7.175781-16 16-16s16 7.175781 16 16v16c0 8.824219-7.175781 16-16 16s-16-7.175781-16-16zm0 0"/>
        <path fill="#000" d="m80 352h16v16h-16zm0 0"/>
        <path fill="#000" d="m80 384h16v16h-16zm0 0"/>
        <path fill="#000" d="m80 416h16v16h-16zm0 0"/>
        <path fill="#000" d="m80 448h16v16h-16zm0 0"/>
        <path fill="#000" d="m144 320h16v16h-16zm0 0"/>
        <path fill="#000" d="m144 352h16v16h-16zm0 0"/>
        <path fill="#000" d="m144 384h16v16h-16zm0 0"/>
        <path fill="#000" d="m144 416h16v16h-16zm0 0"/>
        <path fill="#000" d="m144 448h16v16h-16zm0 0"/>
        <path fill="#000" d="m208 320h16v16h-16zm0 0"/>
        <path fill="#000" d="m208 352h16v16h-16zm0 0"/>
        <path fill="#000" d="m208 384h16v16h-16zm0 0"/>
        <path fill="#000" d="m384 288h16v16h-16zm0 0"/>
        <path fill="#000" d="m384 256h16v16h-16zm0 0"/>
        <path fill="#000" d="m384 320h16v16h-16zm0 0"/>
        <path fill="#000" d="m384 352h16v16h-16zm0 0"/>
        <path fill="#000" d="m448 288h16v16h-16zm0 0"/>
        <path fill="#000" d="m448 256h16v16h-16zm0 0"/>
        <path fill="#000" d="m448 320h16v16h-16zm0 0"/>
        <path fill="#000" d="m448 352h16v16h-16zm0 0"/>
        <path fill="#000" d="m448 384h16v16h-16zm0 0"/>
        <path fill="#000" d="m448 416h16v16h-16zm0 0"/>
        <path fill="#000" d="m448 160h16v16h-16zm0 0"/>
        <path fill="#000" d="m448 128h16v16h-16zm0 0"/>
        <path fill="#000" d="m448 96h16v16h-16zm0 0"/>
        <path fill="#000" d="m448 192h16v16h-16zm0 0"/>
        <path fill="#000" d="m448 224h16v16h-16zm0 0"/>
        <path fill="#000" d="m112 176c13.871094 0 27.121094-4.425781 38.289062-12.792969l-9.59375-12.808593c-8.382812 6.28125-18.304687 9.601562-28.695312 9.601562-26.472656 0-48-21.527344-48-48 0-10.382812 3.320312-20.3125 9.601562-28.695312l-12.816406-9.59375c-8.359375 11.175781-12.785156 24.417968-12.785156 38.289062 0 35.289062 28.710938 64 64 64zm0 0"/>
        <path fill="#000" d="m112 64c26.472656 0 48 21.527344 48 48 0 10.382812-3.320312 20.3125-9.601562 28.695312l12.816406 9.59375c8.359375-11.175781 12.785156-24.417968 12.785156-38.289062 0-35.289062-28.710938-64-64-64-13.871094 0-27.121094 4.425781-38.289062 12.792969l9.59375 12.808593c8.382812-6.28125 18.304687-9.601562 28.695312-9.601562zm0 0"/>
    </symbol>

    <symbol id="what02" role="img" aria-labelledby="what02_title" viewBox="0 0 512 512">
        <title id="what02_title"></title>
        <circle cx="320" cy="128" r="21.333"/>
		<circle cx="405.333" cy="128" r="21.333"/>
		<circle cx="384" cy="192" r="21.333"/>
		<circle cx="469.333" cy="234.667" r="21.333"/>
		<circle cx="469.333" cy="21.333" r="21.333"/>
		<circle cx="383.104" cy="64" r="21.333"/>
		<circle cx="490.667" cy="128" r="21.333"/>
		<polygon points="106.667,192 0,234.667 341.333,234.667 234.667,192 			"/>
		<path d="M0,512h341.333V256H0V512z M256,341.333c11.782,0,21.333,9.551,21.333,21.333S267.782,384,256,384
			s-21.333-9.551-21.333-21.333S244.218,341.333,256,341.333z M213.333,298.667c11.782,0,21.333,9.551,21.333,21.333
			s-9.551,21.333-21.333,21.333C201.551,341.333,192,331.782,192,320S201.551,298.667,213.333,298.667z M234.667,405.333
			c0,35.346-28.654,64-64,64c-35.346,0-64-28.654-64-64c0-35.346,28.654-64,64-64C206.013,341.333,234.667,369.987,234.667,405.333
			z M128,298.667c11.782,0,21.333,9.551,21.333,21.333s-9.551,21.333-21.333,21.333c-11.782,0-21.333-9.551-21.333-21.333
			S116.218,298.667,128,298.667z M85.333,341.333c11.782,0,21.333,9.551,21.333,21.333S97.115,384,85.333,384
			C73.551,384,64,374.449,64,362.667S73.551,341.333,85.333,341.333z"/>
		<path d="M234.667,149.333H256v-42.667h-21.333V85.333c0-11.782-9.551-21.333-21.333-21.333H128
			c-11.782,0-21.333,9.551-21.333,21.333v85.333h128V149.333z"/>
    </symbol>

    <symbol id="what03" role="img" aria-labelledby="what03_title" viewBox="0 0 512 512">
        <title id="what03_title"></title>
        <path d="M490.667,53.333h-85.333V10.667h-42.667v42.667h-85.333V10.667h-42.667v42.667h-85.333V10.667h-42.667v42.667H21.333
			C9.551,53.333,0,62.885,0,74.667v64h512v-64C512,62.885,502.449,53.333,490.667,53.333z"/>
		<path d="M0,480c0,11.782,9.551,21.333,21.333,21.333h320c5.657-0.001,11.083-2.25,15.083-6.251l149.333-149.333
			c4.001-4,6.249-9.425,6.251-15.083V181.333H0V480z M341.333,245.333h85.333V288h-85.333V245.333z M341.333,352
			c0-11.782,9.551-21.333,21.333-21.333h128L341.333,480V352z M277.333,288c11.782,0,21.333,9.551,21.333,21.333
			s-9.551,21.333-21.333,21.333c-11.782,0-21.333-9.551-21.333-21.333S265.551,288,277.333,288z M234.667,245.333
			c11.782,0,21.333,9.551,21.333,21.333c0,11.782-9.551,21.333-21.333,21.333c-11.782,0-21.333-9.551-21.333-21.333
			C213.333,254.885,222.885,245.333,234.667,245.333z M256,352c0,35.346-28.654,64-64,64c-35.346,0-64-28.654-64-64
			s28.654-64,64-64C227.346,288,256,316.654,256,352z M149.333,245.333c11.782,0,21.333,9.551,21.333,21.333
			c0,11.782-9.551,21.333-21.333,21.333C137.551,288,128,278.449,128,266.667C128,254.885,137.551,245.333,149.333,245.333z
			 M106.667,288c11.782,0,21.333,9.551,21.333,21.333s-9.551,21.333-21.333,21.333c-11.782,0-21.333-9.551-21.333-21.333
			S94.885,288,106.667,288z"/>
    </symbol>

    <symbol id="what04" role="img" aria-labelledby="what04_title" viewBox="0 0 512 512">
        <title id="what04_title"></title>
        <ellipse cx="64" cy="202.667" rx="64" ry="74.667"/>
		<ellipse cx="448" cy="202.667" rx="64" ry="74.667"/>
		<ellipse cx="170.667" cy="96" rx="64" ry="74.667"/>
		<ellipse cx="341.333" cy="96" rx="64" ry="74.667"/>
		<path d="M256,192c-94.213,0.106-170.561,76.454-170.667,170.667c0,58.389,29.611,128,170.667,128s170.667-69.611,170.667-128
			C426.561,268.454,350.213,192.106,256,192z M341.333,362.667h-64v64h-42.667v-64h-64V320h64v-64h42.667v64h64V362.667z"/>
    </symbol>

    <symbol id="what05" role="img" aria-labelledby="what05_title" viewBox="0 0 512 512">
        <title id="what05_title"></title>
        <path d="M448,0h-85.333v85.333c0,11.782-9.551,21.333-21.333,21.333H170.667c-11.782,0-21.333-9.551-21.333-21.333V0H64
			C52.218,0,42.667,9.551,42.667,21.333v469.333C42.667,502.449,52.218,512,64,512h384c11.782,0,21.333-9.551,21.333-21.333V21.333
			C469.333,9.551,459.782,0,448,0z M341.333,192c11.782,0,21.333,9.551,21.333,21.333c0,11.782-9.551,21.333-21.333,21.333
			c-11.782,0-21.333-9.551-21.333-21.333C320,201.551,329.551,192,341.333,192z M298.667,149.333
			c11.782,0,21.333,9.551,21.333,21.333c0,11.782-9.551,21.333-21.333,21.333c-11.782,0-21.333-9.551-21.333-21.333
			C277.333,158.885,286.885,149.333,298.667,149.333z M320,256c0,35.346-28.654,64-64,64s-64-28.654-64-64s28.654-64,64-64
			S320,220.654,320,256z M213.333,149.333c11.782,0,21.333,9.551,21.333,21.333c0,11.782-9.551,21.333-21.333,21.333
			C201.551,192,192,182.449,192,170.667C192,158.885,201.551,149.333,213.333,149.333z M170.667,192
			c11.782,0,21.333,9.551,21.333,21.333c0,11.782-9.551,21.333-21.333,21.333c-11.782,0-21.333-9.551-21.333-21.333
			C149.333,201.551,158.885,192,170.667,192z M128,362.667h85.333v42.667H128V362.667z M341.333,469.333H170.667v-42.667h170.667
			V469.333z M384,405.333H256v-42.667h128V405.333z"/>
		<rect x="170.667" width="170.667" height="85.333"/>
    </symbol>

    <symbol id="what06" role="img" aria-labelledby="what06_title" viewBox="0 0 435.783 435.783">
        <title id="what06_title"></title>
        <path d="M428.251,275.038c-15.706-18.083-52.923-17.488-83.122,1.346c-8.643,5.388-15.771,11.689-21.19,18.356H111.84
			c-5.411-6.667-12.538-12.979-21.188-18.356c-30.186-18.834-67.402-19.429-83.116-1.346c-15.706,18.083-3.958,48.007,26.228,66.836
			c4.329,2.687,8.8,5.002,13.335,6.942c-4.524,1.949-9.006,4.25-13.335,6.951C3.585,374.597-8.175,404.521,7.536,422.594
			c15.706,18.093,52.923,17.499,83.116-1.335c8.65-5.388,15.777-11.689,21.188-18.357h212.11
			c5.408,6.668,12.527,12.97,21.186,18.357c30.193,18.834,67.41,19.428,83.121,1.335c15.69-18.072,3.95-47.997-26.243-66.826
			c-4.321-2.701-8.79-5.002-13.324-6.951c4.524-1.94,9.003-4.256,13.324-6.942C432.202,323.045,443.942,293.121,428.251,275.038z"/>
		<path d="M350.873,164.219c-11.187,0-20.266,0-20.266,0l-6.281-19.276c-3.458-10.651-9.069-10.651-12.513,0
			c-3.483,10.648-6.281,19.276-6.281,19.276H285.26c-11.187,0-12.934,5.347-3.869,11.921c9.069,6.573,16.401,11.913,16.401,11.913
			l-6.281,19.284c-3.438,10.656,1.097,13.952,10.166,7.371c9.044-6.581,16.387-11.92,16.387-11.92l16.397,11.92
			c9.063,6.582,13.599,3.286,10.15-7.371c-3.474-10.656-6.276-19.284-6.276-19.284l16.412-11.913
			C363.801,169.559,362.055,164.219,350.873,164.219z"/>
		<path d="M145.471,164.219c-11.187,0-20.264,0-20.264,0l-6.281-19.276c-3.461-10.651-9.069-10.651-12.512,0
			c-3.486,10.648-6.282,19.276-6.282,19.276H79.861c-11.187,0-12.934,5.347-3.872,11.921c9.069,6.573,16.402,11.913,16.402,11.913
			l-6.281,19.284c-3.445,10.656,1.097,13.952,10.166,7.371c9.046-6.581,16.387-11.92,16.387-11.92l16.399,11.92
			c9.062,6.582,13.596,3.286,10.151-7.371c-3.476-10.656-6.279-19.284-6.279-19.284l16.414-11.913
			C158.402,169.559,156.656,164.219,145.471,164.219z"/>
		<path d="M393.299,250.699c7.673,0,14.848,1.021,21.389,2.931c4.164-16.321,6.357-33.241,6.357-50.48
			C421.045,91.126,329.911,0,217.898,0C105.883,0,14.749,91.126,14.749,203.149c0,17.295,2.14,34.221,6.281,50.506
			c6.563-1.93,13.761-2.956,21.465-2.956c6.391,0,12.9,0.741,19.393,2.062c-5.009-15.812-7.64-32.483-7.64-49.604
			c0-90.233,73.415-163.648,163.65-163.648c90.233,0,163.645,73.415,163.645,163.648c0,17.08-2.747,33.756-7.789,49.635
			C380.315,251.451,386.871,250.699,393.299,250.699z"/>
		<path d="M262.313,133.952c-15.163,0-27.432,0-27.432,0l-8.5-26.108c-4.677-14.409-12.284-14.409-16.953,0
			c-4.707,14.424-8.485,26.108-8.485,26.108h-27.467c-15.145,0-17.499,7.239-5.23,16.132c12.284,8.904,22.213,16.133,22.213,16.133
			l-8.5,26.108c-4.674,14.427,1.47,18.891,13.749,9.986c12.251-8.912,22.191-16.133,22.191-16.133l22.199,16.133
			c12.258,8.904,18.392,4.44,13.721-9.986c-4.683-14.416-8.476-26.108-8.476-26.108l22.217-16.133
			C279.812,141.19,277.465,133.952,262.313,133.952z"/>
    </symbol>

	<symbol id="process02" role="img" aria-labelledby="process02_title" viewBox="0 0 512 512">
        <title id="process02_title"></title>
        <path style="fill:#CFF09E;" d="M328.974,321.875c21.174,0,38.38-19.288,38.38-43.007s-17.208-43.01-38.38-43.01
			c-21.171,0-38.377,19.291-38.377,43.01C290.595,302.587,307.803,321.875,328.974,321.875L328.974,321.875z"/>
		<path style="fill:#507C5C;" d="M328.974,336.563c-29.261,0-53.068-25.883-53.068-57.696c0-31.814,23.806-57.697,53.068-57.697
			c29.263,0,53.069,25.883,53.069,57.697C382.043,310.68,358.237,336.563,328.974,336.563z M328.974,250.546
			c-13.063,0-23.69,12.704-23.69,28.32s10.627,28.318,23.69,28.318c13.064,0,23.691-12.703,23.691-28.318
			C352.666,263.25,342.037,250.546,328.974,250.546z"/>
		<path style="fill:#CFF09E;" d="M410.839,321.875c21.137,0,38.377-19.288,38.377-43.007s-17.23-43.01-38.377-43.01
			c-21.171,0-38.392,19.291-38.392,43.01C372.448,302.587,389.669,321.875,410.839,321.875L410.839,321.875z"/>
		<path style="fill:#507C5C;" d="M410.839,336.563c-29.269,0-53.081-25.883-53.081-57.696c0-31.814,23.812-57.697,53.081-57.697
			c29.261,0,53.068,25.883,53.068,57.697C463.906,310.68,440.1,336.563,410.839,336.563z M410.839,250.546
			c-13.069,0-23.703,12.704-23.703,28.32s10.633,28.318,23.703,28.318c13.063,0,23.69-12.703,23.69-28.318
			C434.529,263.25,423.902,250.546,410.839,250.546z"/>
		<path style="fill:#CFF09E;" d="M472.971,307.784c-16.651-2.606-33.073,9.036-37.408,26.521
			c-4.346,17.465,5.284,33.175,21.936,35.772c16.629,2.597,33.073-9.045,37.417-26.512C499.252,326.09,489.6,310.37,472.971,307.784
			L472.971,307.784z"/>
		<path style="fill:#507C5C;" d="M462.166,385.124C462.164,385.124,462.166,385.124,462.166,385.124c-2.315,0-4.648-0.181-6.932-0.538
			c-11.81-1.84-21.863-8.195-28.299-17.891c-6.833-10.294-8.832-23.057-5.626-35.94c5.463-22.029,25.221-38.028,46.981-38.028
			c2.319,0,4.659,0.182,6.951,0.541c11.789,1.836,21.836,8.186,28.277,17.879c6.843,10.297,8.851,23.064,5.655,35.952
			C503.694,369.137,483.924,385.124,462.166,385.124z M468.291,322.107c-8.442,0-16.209,6.617-18.47,15.732
			c-1.194,4.797-0.629,9.27,1.588,12.609c1.848,2.782,4.737,4.551,8.355,5.113c0.793,0.125,1.601,0.187,2.403,0.187
			c8.45,0.001,16.231-6.614,18.498-15.729c1.187-4.781,0.615-9.263-1.61-12.609c-1.851-2.785-4.736-4.552-8.342-5.113
			C469.905,322.17,469.094,322.107,468.291,322.107z"/>
		<path style="fill:#CFF09E;" d="M304.253,334.303c-4.343-17.484-20.766-29.126-37.417-26.521
			c-16.62,2.588-26.283,18.298-21.936,35.78c4.335,17.466,20.779,29.109,37.408,26.512
			C298.959,367.477,308.589,351.768,304.253,334.303L304.253,334.303z"/>
		<path style="fill:#507C5C;" d="M277.647,385.124c0,0-0.001,0-0.003,0c-21.764-0.001-41.531-15.993-47-38.023
			c-3.202-12.882-1.199-25.648,5.64-35.945c6.441-9.698,16.49-16.05,28.293-17.889c2.283-0.357,4.621-0.539,6.942-0.539
			c21.753,0,41.515,15.996,46.991,38.032c3.199,12.889,1.194,25.652-5.642,35.943c-6.44,9.692-16.488,16.043-28.296,17.885
			C282.29,384.944,279.959,385.124,277.647,385.124z M271.519,322.107c-0.805,0-1.616,0.063-2.41,0.188
			c-3.619,0.564-6.504,2.333-8.353,5.116c-2.222,3.343-2.789,7.822-1.6,12.609c2.262,9.114,10.037,15.727,18.489,15.727
			c0.001,0,0.001,0,0.001,0c0.801,0,1.605-0.062,2.396-0.185c3.621-0.566,6.509-2.334,8.355-5.115
			c2.221-3.34,2.788-7.817,1.601-12.604C287.732,328.727,279.961,322.107,271.519,322.107z"/>
		<path style="fill:#507C5C;" d="M409.983,512c-13.449,0-26.415-3.337-38.02-9.728C360.35,508.663,347.386,512,333.947,512
			c-43.725,0-79.296-35.567-79.296-79.285c0-28.899,15.729-55.29,40.666-69.224c9.088-34.591,40.18-58.955,76.652-58.955
			c36.469,0,67.555,24.369,76.639,58.965c16.25,9.12,29.019,23.852,35.614,41.362c2.858,7.591-0.977,16.064-8.569,18.924
			c-7.59,2.857-16.065-0.977-18.924-8.569c-4.739-12.581-14.537-22.888-26.885-28.279c-4.577-1.998-7.825-6.185-8.622-11.113
			c-3.87-23.893-25.044-41.91-49.253-41.91c-24.217,0-45.398,18.019-49.269,41.91c-0.798,4.928-4.045,9.114-8.621,11.112
			c-18.255,7.972-30.049,25.939-30.049,45.777c0,27.518,22.393,49.908,49.918,49.908c10.617,0,20.765-3.318,29.351-9.593
			c5.165-3.778,12.181-3.775,17.346,0.006c8.568,6.274,18.712,9.587,29.339,9.587c12.272,0,24.081-4.517,33.247-12.72
			c6.046-5.407,15.331-4.896,20.742,1.15c5.41,6.046,4.894,15.332-1.15,20.742C448.26,504.825,429.494,512,409.983,512z"/>
		<path style="fill:#CFF09E;" d="M101.162,100.706c21.174,0,38.38-19.288,38.38-43.007s-17.206-43.01-38.38-43.01
			c-21.171,0-38.377,19.291-38.377,43.01C62.784,81.418,79.991,100.706,101.162,100.706L101.162,100.706z"/>
		<path style="fill:#507C5C;" d="M101.162,115.396c-29.261,0-53.068-25.883-53.068-57.696C48.094,25.883,71.9,0,101.162,0
			c29.263,0,53.069,25.883,53.069,57.699C154.231,89.512,130.425,115.396,101.162,115.396z M101.162,29.378
			c-13.063,0-23.69,12.704-23.69,28.321c0,15.616,10.627,28.318,23.69,28.318c13.064,0,23.691-12.703,23.691-28.318
			C124.853,42.082,114.226,29.378,101.162,29.378z"/>
		<path style="fill:#CFF09E;" d="M183.028,100.706c21.137,0,38.377-19.288,38.377-43.007s-17.23-43.01-38.377-43.01
			c-21.171,0-38.392,19.291-38.392,43.01S161.857,100.706,183.028,100.706L183.028,100.706z"/>
		<path style="fill:#507C5C;" d="M183.028,115.396c-29.269,0-53.081-25.883-53.081-57.696c0-31.817,23.812-57.7,53.081-57.7
			c29.261,0,53.068,25.883,53.068,57.699C236.094,89.512,212.288,115.396,183.028,115.396z M183.028,29.378
			c-13.069,0-23.703,12.704-23.703,28.321c0,15.616,10.633,28.318,23.703,28.318c13.063,0,23.69-12.703,23.69-28.318
			C206.717,42.082,196.089,29.378,183.028,29.378z"/>
		<path style="fill:#CFF09E;" d="M245.16,86.615c-16.651-2.606-33.073,9.037-37.408,26.521c-4.346,17.465,5.284,33.175,21.936,35.772
			c16.629,2.597,33.073-9.045,37.417-26.512C271.44,104.922,261.788,89.203,245.16,86.615L245.16,86.615z"/>
		<path style="fill:#507C5C;" d="M234.354,163.957c-0.001,0-0.001,0-0.003,0c-2.312,0-4.645-0.181-6.929-0.538
			c-11.811-1.842-21.863-8.196-28.301-17.894c-6.833-10.292-8.831-23.055-5.624-35.939c5.461-22.027,25.221-38.026,46.979-38.026
			c2.321,0,4.661,0.182,6.952,0.541c11.788,1.835,21.835,8.183,28.277,17.876c6.843,10.297,8.851,23.064,5.655,35.954
			C275.882,147.967,256.11,163.957,234.354,163.957z M240.477,100.94c-8.442,0-16.209,6.616-18.468,15.73
			c-1.194,4.797-0.629,9.27,1.588,12.609c1.848,2.784,4.737,4.552,8.355,5.115c0.792,0.125,1.6,0.187,2.4,0.187
			c8.452,0,16.231-6.616,18.499-15.73c1.187-4.783,0.615-9.263-1.61-12.609c-1.849-2.784-4.734-4.551-8.34-5.112
			C242.093,101.003,241.282,100.94,240.477,100.94z"/>
		<path style="fill:#CFF09E;" d="M76.442,113.136C72.099,95.652,55.677,84.01,39.025,86.615c-16.62,2.588-26.283,18.298-21.936,35.78
			c4.335,17.466,20.78,29.109,37.408,26.512C71.148,146.31,80.777,130.601,76.442,113.136L76.442,113.136z"/>
		<path style="fill:#507C5C;" d="M49.835,163.957L49.835,163.957C28.066,163.956,8.3,147.964,2.832,125.931
			c-3.202-12.879-1.199-25.647,5.64-35.943c6.442-9.698,16.491-16.05,28.295-17.888c2.281-0.357,4.621-0.539,6.942-0.539
			c21.754,0,41.516,15.996,46.989,38.032c3.199,12.886,1.194,25.651-5.642,35.942c-6.438,9.692-16.487,16.043-28.296,17.886
			C54.478,163.777,52.147,163.957,49.835,163.957z M43.708,100.94c-0.805,0-1.617,0.063-2.412,0.188
			c-3.619,0.564-6.504,2.333-8.353,5.115c-2.222,3.345-2.789,7.822-1.601,12.607c2.264,9.117,10.038,15.73,18.492,15.73l0,0
			c0.801,0,1.607-0.062,2.396-0.185c3.619-0.566,6.509-2.334,8.356-5.116c2.219-3.34,2.786-7.817,1.6-12.604
			C59.922,107.558,52.15,100.94,43.708,100.94z"/>
		<path style="fill:#507C5C;" d="M182.172,290.831c-13.449,0-26.415-3.337-38.02-9.727c-11.61,6.39-24.574,9.727-38.014,9.727
			c-43.725,0-79.297-35.567-79.297-79.285c0-28.9,15.729-55.291,40.666-69.224c9.089-34.589,40.18-58.953,76.652-58.953
			c36.469,0,67.555,24.369,76.639,58.965c16.25,9.12,29.019,23.852,35.614,41.362c2.858,7.591-0.977,16.064-8.569,18.924
			c-7.588,2.857-16.065-0.977-18.924-8.569c-4.739-12.581-14.537-22.888-26.885-28.279c-4.577-1.998-7.825-6.185-8.622-11.114
			c-3.87-23.893-25.044-41.91-49.253-41.91c-24.217,0-45.399,18.019-49.269,41.91c-0.798,4.93-4.047,9.116-8.622,11.114
			c-18.254,7.969-30.047,25.936-30.047,45.775c0,27.518,22.394,49.908,49.92,49.908c10.618,0,20.767-3.317,29.348-9.592
			c5.167-3.776,12.183-3.776,17.347,0.006c8.566,6.272,18.711,9.586,29.339,9.586c12.299,0,24.126-4.534,33.299-12.765
			c6.036-5.417,15.326-4.918,20.742,1.122c5.419,6.037,4.916,15.325-1.122,20.742C220.518,283.631,201.724,290.831,182.172,290.831z"
		/>
    </symbol>

	<symbol id="how01" role="img" aria-labelledby="how01_title" viewBox="0 0 512 512">
        <title id="how01_title"></title>
        <polygon style="fill:#B8860B;" points="385.518,289.025 385.518,311.609 319.82,358.012 256.662,294.854 255.338,294.854 
			192.18,358.012 126.482,311.609 126.482,289.025 192.445,191.901 255.999,98.348 319.555,191.901 "/>
		<path style="fill:#271613;" d="M255.999,0C114.842,0,0,114.842,0,255.999s114.842,255.999,255.999,255.999
			c48.979,0,96.587-13.88,137.676-40.137c5.181-3.31,6.554-9.874,6.532-15.024V311.614c0-0.028-0.006-0.054-0.006-0.082v-22.507
			c0-2.941-0.884-5.817-2.537-8.25l-65.889-97.004c-0.026-0.04-0.047-0.081-0.073-0.12l-63.555-93.555
			c-2.734-4.024-7.282-6.433-12.147-6.433s-9.413,2.41-12.147,6.433l-63.555,93.555c-0.023,0.035-0.041,0.072-0.065,0.106
			l-65.9,97.018c-1.652,2.435-2.537,5.308-2.537,8.251v22.507c0,0.028-0.006,0.054-0.006,0.082v119.087
			c-50.309-41.6-82.421-104.47-82.421-174.701c0-124.964,101.667-226.63,226.63-226.63s226.63,101.667,226.63,226.63
			c0,18.676-2.275,37.24-6.761,55.176c-1.968,7.866,2.815,15.84,10.683,17.808c7.864,1.968,15.84-2.814,17.808-10.683
			c5.069-20.263,7.639-41.225,7.639-62.302C512,114.842,397.158,0,255.999,0z M321.56,372.585c0.2-0.024,0.401-0.046,0.599-0.078
			c0.204-0.032,0.405-0.075,0.608-0.116c0.184-0.038,0.369-0.076,0.551-0.12c0.209-0.051,0.417-0.109,0.624-0.169
			c0.173-0.05,0.344-0.104,0.515-0.162c0.211-0.07,0.423-0.144,0.633-0.225c0.16-0.062,0.319-0.129,0.476-0.197
			c0.216-0.093,0.432-0.184,0.645-0.288c0.138-0.068,0.273-0.142,0.41-0.213c0.228-0.119,0.455-0.236,0.678-0.367
			c0.06-0.037,0.119-0.078,0.179-0.115c0.275-0.169,0.551-0.335,0.816-0.523l42.542-30.046v111.457
			c-30.511,17.968-64.744,28.441-100.154,30.717V329.646l38.751,38.751c0.101,0.101,0.211,0.186,0.314,0.283
			c0.236,0.223,0.471,0.445,0.718,0.649c0.157,0.131,0.323,0.247,0.485,0.369c0.21,0.16,0.419,0.32,0.634,0.467
			c0.172,0.117,0.349,0.222,0.526,0.332c0.217,0.134,0.433,0.267,0.656,0.388c0.181,0.098,0.363,0.189,0.546,0.28
			c0.229,0.113,0.458,0.222,0.692,0.322c0.184,0.079,0.367,0.154,0.552,0.225c0.244,0.094,0.49,0.179,0.739,0.26
			c0.179,0.059,0.36,0.116,0.54,0.167c0.267,0.075,0.537,0.138,0.808,0.198c0.166,0.037,0.33,0.078,0.498,0.109
			c0.314,0.059,0.63,0.1,0.947,0.138c0.126,0.015,0.253,0.037,0.38,0.048c0.579,0.053,1.16,0.066,1.742,0.05
			c0.257-0.007,0.515-0.013,0.772-0.034C321.178,372.635,321.369,372.607,321.56,372.585z M299.034,187.835
			c-13.109,7.209-27.758,10.968-43.033,10.968c-15.275,0-29.924-3.761-43.033-10.969l43.033-63.355L299.034,187.835z M141.166,293.54
			l55.247-81.337c18.027,10.479,38.35,15.969,59.585,15.969s41.559-5.491,59.585-15.969l55.247,81.337v10.463l-49.378,34.876
			l-54.41-54.41c-2.753-2.753-6.489-4.301-10.383-4.301h-1.323c-3.894,0-7.63,1.548-10.383,4.301l-54.41,54.41l-49.378-34.876V293.54
			H141.166z M141.161,339.964l42.542,30.046c4.38,3.093,9.953,3.483,14.599,1.352c1.551-0.711,2.997-1.7,4.261-2.965l38.751-38.751
			v152.497c-36.369-2.338-70.425-13.288-100.154-30.836L141.161,339.964L141.161,339.964z"/>
    </symbol>

    <symbol id="how02" role="img" aria-labelledby="how02_title" viewBox="0 0 512 512">
        <title id="how02_title"></title>
        <path style="fill:#271613;" d="M497.497,512H14.503c-8.009,0-14.502-6.493-14.502-14.502V14.502C0.001,6.493,6.495,0,14.503,0
			h482.995c8.009,0,14.502,6.493,14.502,14.502v385.151c0,8.009-6.493,14.502-14.502,14.502s-14.502-6.493-14.502-14.502V29.004
			H29.005v453.992h468.493c8.009,0,14.502,6.493,14.502,14.502S505.507,512,497.497,512z"/>
		<path style="fill:#271613;" d="M427.065,441.568H84.935c-8.009,0-14.502-6.493-14.502-14.502V154.242
			c0-8.009,6.493-14.502,14.502-14.502c8.009,0,14.502,6.493,14.502,14.502v258.323h313.127V99.436H84.935
			c-8.009,0-14.502-6.493-14.502-14.502s6.493-14.502,14.502-14.502h342.131c8.009,0,14.502,6.493,14.502,14.502v342.132
			C441.567,435.076,435.075,441.568,427.065,441.568z"/>
		<path style="fill:#B8860B;" d="M157.444,354.556h197.111V157.444H157.444V354.556z"/>
		<path style="fill:#271613;" d="M354.556,369.058H157.444c-8.009,0-14.502-6.493-14.502-14.502V157.444
			c0-8.009,6.493-14.502,14.502-14.502h197.111c8.009,0,14.502,6.493,14.502,14.502v197.113
			C369.058,362.566,362.565,369.058,354.556,369.058z M171.946,340.054h168.107V171.946H171.946V340.054z"/>
    </symbol>

    <symbol id="how03" role="img" aria-labelledby="how03_title" viewBox="0 0 512 512">
        <title id="how03_title"></title>
        <circle style="fill:#B8860B;" cx="255.999" cy="256" r="112.533"/>
		<path style="fill:#271613;" d="M256.001,382.601c-69.807,0-126.6-56.793-126.6-126.6s56.793-126.6,126.6-126.6
			s126.6,56.793,126.6,126.6S325.808,382.601,256.001,382.601z M256.001,157.535c-54.295,0-98.467,44.172-98.467,98.467
			s44.172,98.467,98.467,98.467s98.467-44.172,98.467-98.467S310.295,157.535,256.001,157.535z"/>
		<path style="fill:#271613;" d="M279.385,512.001h-46.77c-16.208,0-29.394-13.186-29.394-29.394v-19.214
			c-19.925-5.042-38.866-12.891-56.545-23.432l-13.593,13.594c-5.493,5.493-14.4,5.493-19.894,0c-5.494-5.493-5.493-14.4,0-19.895
			l21.552-21.552c4.755-4.753,12.207-5.48,17.79-1.73c20.54,13.797,43.238,23.202,67.465,27.956
			c6.599,1.296,11.357,7.08,11.357,13.804v30.468c0,0.695,0.565,1.26,1.26,1.26h46.77c0.695,0,1.26-0.565,1.26-1.26v-30.468
			c0-6.724,4.759-12.508,11.357-13.804c24.227-4.755,46.926-14.16,67.465-27.956c5.583-3.749,13.037-3.023,17.79,1.73l21.552,21.552
			c0.491,0.492,1.29,0.491,1.781,0l33.072-33.072c0.491-0.491,0.491-1.29,0-1.781l-21.552-21.552
			c-4.753-4.755-5.479-12.208-1.73-17.79c13.797-20.54,23.202-43.238,27.956-67.465c1.296-6.599,7.08-11.357,13.804-11.357h30.468
			c0.695,0,1.26-0.565,1.26-1.26v-46.77c0-0.695-0.565-1.26-1.26-1.26h-30.468c-6.724,0-12.508-4.759-13.804-11.357
			c-4.755-24.227-14.16-46.926-27.956-67.465c-3.749-5.582-3.023-13.036,1.73-17.79l21.552-21.552c5.493-5.493,14.4-5.493,19.895,0
			c5.494,5.493,5.493,14.4,0,19.894l-13.594,13.593c10.542,17.678,18.389,36.62,23.432,56.545h19.214
			c16.208,0,29.394,13.186,29.394,29.394v46.77c0,16.208-13.186,29.394-29.394,29.394h-19.214
			c-5.042,19.925-12.891,38.866-23.432,56.545l13.594,13.593c11.46,11.46,11.46,30.107,0,41.568l-33.072,33.072
			c-11.46,11.46-30.107,11.459-41.568,0l-13.593-13.594c-17.678,10.542-36.62,18.389-56.545,23.432v19.214
			C308.779,498.816,295.593,512.001,279.385,512.001z"/>
		<path style="fill:#271613;" d="M68.392,402.931c-3.6,0-7.201-1.373-9.947-4.12c-5.493-5.493-5.493-14.4,0-19.895l13.594-13.593
			c-10.542-17.678-18.389-36.62-23.432-56.545H29.394C13.186,308.78,0,295.593,0,279.386v-46.77
			c0-16.208,13.186-29.394,29.394-29.394h19.214c5.041-19.925,12.891-38.866,23.432-56.545l-13.594-13.593
			c-11.46-11.46-11.46-30.107,0-41.568l33.072-33.072c11.46-11.46,30.107-11.459,41.568,0l13.593,13.594
			c17.678-10.54,36.618-18.389,56.545-23.432V29.394c-0.001-16.208,13.183-29.394,29.391-29.394h46.77
			c16.208,0,29.394,13.186,29.394,29.394v19.214c19.927,5.043,38.868,12.892,56.545,23.432l13.593-13.594
			c5.493-5.493,14.4-5.493,19.895,0s5.493,14.4,0,19.894L377.26,99.892c-4.755,4.753-12.208,5.48-17.79,1.73
			c-20.539-13.795-43.237-23.2-67.465-27.956c-6.599-1.296-11.357-7.08-11.357-13.804V29.394c0-0.695-0.565-1.26-1.26-1.26h-46.77
			c-0.695,0-1.26,0.565-1.26,1.26v30.468c0,6.724-4.759,12.508-11.357,13.804c-24.228,4.755-46.928,14.161-67.465,27.956
			c-5.582,3.75-13.036,3.024-17.79-1.73L113.19,78.339c-0.491-0.494-1.29-0.492-1.781,0l-33.071,33.072
			c-0.491,0.491-0.491,1.29,0,1.781l21.552,21.552c4.753,4.755,5.479,12.208,1.73,17.79c-13.797,20.54-23.202,43.238-27.956,67.465
			c-1.296,6.599-7.08,11.357-13.804,11.357H29.392c-0.695,0-1.26,0.565-1.26,1.26v46.77c0,0.695,0.565,1.26,1.26,1.26h30.468
			c6.724,0,12.508,4.759,13.804,11.357c4.755,24.227,14.16,46.926,27.956,67.465c3.749,5.582,3.023,13.036-1.73,17.79l-21.552,21.552
			C75.591,401.558,71.992,402.931,68.392,402.931z"/>
    </symbol>

    <symbol id="how04" role="img" aria-labelledby="how04_title" viewBox="0 0 512 512">
        <title id="how04_title"></title>
        <path style="fill:#271613;" d="M256.001,125.572c-34.621,0-62.786-28.165-62.786-62.786S221.38,0,256.001,0
			s62.786,28.165,62.786,62.786S290.62,125.572,256.001,125.572z M256.001,28.539c-18.883,0-34.247,15.364-34.247,34.247
			s15.364,34.247,34.247,34.247s34.247-15.364,34.247-34.247S274.884,28.539,256.001,28.539z"/>
		<path style="fill:#271613;" d="M430.463,512H42.231c-19.71,0-35.745-16.035-35.745-35.747V105.943
			c0-19.71,16.035-35.745,35.745-35.745h427.539c19.71,0,35.745,16.035,35.745,35.745v310.335c0,7.88-6.39,14.27-14.27,14.27
			c-7.88,0-14.27-6.39-14.27-14.27V105.943c0-3.973-3.233-7.206-7.206-7.206H42.231c-3.974,0-7.206,3.233-7.206,7.206v370.311
			c0,3.974,3.233,7.208,7.206,7.208h388.232c7.88,0,14.27,6.39,14.27,14.27S438.344,512,430.463,512z"/>
		<path style="fill:#B8860B;" d="M491.245,157.286v-51.343c0-11.861-9.615-21.476-21.476-21.476H42.231
			c-11.861,0-21.476,9.615-21.476,21.476v51.343L491.245,157.286L491.245,157.286z"/>
		<path style="fill:#271613;" d="M491.245,171.557H20.755c-7.881,0-14.27-6.39-14.27-14.27v-51.345
			c0-19.71,16.036-35.745,35.745-35.745h427.539c19.71,0,35.745,16.035,35.745,35.745v51.343
			C505.514,165.167,499.125,171.557,491.245,171.557z M35.025,143.018h441.951v-37.075c0-3.973-3.233-7.206-7.206-7.206H42.231
			c-3.974,0-7.206,3.233-7.206,7.206C35.025,105.943,35.025,143.018,35.025,143.018z"/>
		<path style="fill:#B8860B;" d="M123.416,284.998h-7.61c-17.206,0-31.155-13.948-31.155-31.155l0,0
			c0-17.206,13.948-31.155,31.155-31.155h7.61c17.206,0,31.155,13.948,31.155,31.155l0,0
			C154.572,271.049,140.623,284.998,123.416,284.998z"/>
		<path style="fill:#271613;" d="M123.417,299.269h-7.61c-25.047,0-45.424-20.377-45.424-45.426
			c0-25.047,20.377-45.424,45.424-45.424h7.61c25.047,0,45.424,20.377,45.424,45.424S148.463,299.269,123.417,299.269z
			 M115.806,236.958c-9.311,0-16.885,7.576-16.885,16.885c0,9.311,7.576,16.887,16.885,16.887h7.61
			c9.311,0,16.885-7.576,16.885-16.887c0-9.309-7.574-16.885-16.885-16.885L115.806,236.958L115.806,236.958z"/>
		<path style="fill:#271613;" d="M290.961,299.269c-7.88,0-14.27-6.39-14.27-14.27v-48.041H235.31v48.041
			c0,7.88-6.388,14.27-14.27,14.27s-14.27-6.39-14.27-14.27v-62.311c0-7.88,6.388-14.27,14.27-14.27h69.921
			c7.88,0,14.27,6.39,14.27,14.27v62.311C305.231,292.879,298.841,299.269,290.961,299.269z"/>
		<rect x="357.423" y="222.69" style="fill:#B8860B;" width="69.921" height="62.311"/>
		<path style="fill:#271613;" d="M427.35,299.269H357.43c-7.88,0-14.27-6.39-14.27-14.27v-62.311c0-7.88,6.39-14.27,14.27-14.27
			h69.921c7.88,0,14.27,6.39,14.27,14.27v62.311C441.62,292.879,435.23,299.269,427.35,299.269z M371.699,270.73h41.382v-33.772
			h-41.382V270.73z"/>
		<rect x="84.647" y="353.969" style="fill:#B8860B;" width="69.921" height="62.311"/>
		<path style="fill:#271613;" d="M154.572,430.548H84.651c-7.881,0-14.27-6.39-14.27-14.27v-62.311c0-7.88,6.388-14.27,14.27-14.27
			h69.921c7.881,0,14.27,6.39,14.27,14.27v62.311C168.841,424.158,162.451,430.548,154.572,430.548z M98.921,402.009h41.382v-33.772
			H98.921V402.009z"/>
		<path style="fill:#B8860B;" d="M259.805,416.277h-7.61c-17.206,0-31.155-13.948-31.155-31.155l0,0
			c0-17.206,13.948-31.155,31.155-31.155h7.61c17.206,0,31.155,13.948,31.155,31.155l0,0
			C290.961,402.329,277.011,416.277,259.805,416.277z"/>
		<path style="fill:#271613;" d="M259.806,430.548h-7.61c-25.047,0-45.424-20.377-45.424-45.426
			c0-25.047,20.377-45.424,45.424-45.424h7.61c25.047,0,45.424,20.377,45.424,45.424C305.231,410.17,284.852,430.548,259.806,430.548
			z M252.195,368.238c-9.311,0-16.885,7.576-16.885,16.885c0,9.311,7.576,16.887,16.885,16.887h7.61
			c9.309,0,16.885-7.576,16.885-16.887c0-9.309-7.576-16.885-16.885-16.885L252.195,368.238L252.195,368.238z"/>
		<path style="fill:#271613;" d="M427.35,430.548c-7.88,0-14.27-6.39-14.27-14.27v-48.041h-41.382v48.041
			c0,7.88-6.39,14.27-14.27,14.27c-7.88,0-14.27-6.39-14.27-14.27v-62.311c0-7.88,6.39-14.27,14.27-14.27h69.921
			c7.88,0,14.27,6.39,14.27,14.27v62.311C441.62,424.158,435.23,430.548,427.35,430.548z"/>
    </symbol>

    <symbol id="how05" role="img" aria-labelledby="how05_title" viewBox="0 0 512 512">
        <title id="how05_title"></title>
        <path style="fill:#271613;" d="M342.844,338.234c-43.316,0-86.635-16.489-119.612-49.465c-65.953-65.954-65.953-173.271,0-239.225
			c23.06-23.06,52.029-38.868,83.776-45.717c30.896-6.663,62.932-4.595,92.651,5.978c4.957,1.764,8.666,5.945,9.822,11.081
			c1.158,5.134-0.397,10.502-4.118,14.224L358.9,81.574c-5.993,5.991-15.705,5.993-21.699,0c-5.991-5.991-5.991-15.706,0-21.698
			l27.439-27.439c-43.262-6.788-88.19,7.285-119.709,38.805c-53.99,53.99-53.99,141.838,0,195.828
			c53.991,53.993,141.84,53.988,195.829,0c31.522-31.522,45.591-76.459,38.805-119.709l-82.721,82.721
			c-5.993,5.991-15.705,5.991-21.699,0l-93.226-93.226c-5.991-5.991-5.991-15.706,0-21.699c5.993-5.991,15.705-5.991,21.699,0
			l82.375,82.377l90.897-90.897c3.722-3.722,9.097-5.278,14.224-4.118c5.135,1.157,9.316,4.865,11.081,9.824
			c10.576,29.719,12.642,61.756,5.978,92.651c-6.849,31.746-22.657,60.715-45.715,83.775
			C429.48,321.745,386.161,338.234,342.844,338.234z"/>
		<path style="fill:#B8860B;" d="M234.082,277.919c-16.684-16.684-28.716-36.252-36.132-57.094l-163.3,163.3
			c-25.744,25.744-25.744,67.482,0,93.226l0,0c25.744,25.744,67.482,25.744,93.226,0l163.3-163.3
			C270.332,306.636,250.766,294.602,234.082,277.919z"/>
		<path style="fill:#271613;" d="M81.263,512.001c-21.707,0-42.113-8.454-57.462-23.803C8.452,472.851-0.002,452.445,0,430.738
			c-0.002-21.705,8.452-42.113,23.801-57.462l163.3-163.3c3.722-3.722,9.089-5.278,14.224-4.118c5.135,1.157,9.316,4.865,11.081,9.822
			c6.915,19.432,17.859,36.721,32.527,51.389c14.669,14.669,31.959,25.612,51.388,32.527c4.957,1.764,8.666,5.947,9.822,11.081
			c1.158,5.134-0.397,10.502-4.118,14.224l-163.3,163.298C123.376,503.548,102.969,512.001,81.263,512.001z M192.907,247.565
			L45.499,394.974c-9.552,9.554-14.813,22.255-14.813,35.764c0,13.509,5.261,26.21,14.813,35.764
			c9.552,9.554,22.253,14.815,35.764,14.815c13.509,0,26.21-5.261,35.764-14.815l147.409-147.408
			c-15.119-7.891-28.918-18.039-41.203-30.325C210.947,276.483,200.797,262.685,192.907,247.565z"/>
    </symbol>

    <symbol id="how06" role="img" aria-labelledby="how06_title" viewBox="0 0 512 512">
        <title id="how06_title"></title>
        <path style="fill:#B8860B;" d="M293.603,448.684H82.471c-37.966,0-68.744-30.777-68.744-68.743l0,0
			c0-37.966,30.777-68.744,68.744-68.744h211.132c37.966,0,68.744,30.777,68.744,68.744l0,0
			C362.346,417.906,331.568,448.684,293.603,448.684z"/>
		<path style="fill:#B8860B;" d="M266.563,407.466c-15.202,0-27.525-12.324-27.525-27.525s12.324-27.525,27.525-27.525
			s27.525,12.324,27.525,27.525"/>
		<path style="fill:#271613;" d="M266.563,421.192c-22.746,0-41.253-18.506-41.253-41.253s18.506-41.252,41.253-41.252
			s41.253,18.505,41.253,41.252c0,7.58-6.147,13.726-13.726,13.726c-7.58,0-13.726-6.147-13.726-13.726
			c0-7.609-6.191-13.799-13.8-13.799s-13.8,6.191-13.8,13.799c0,7.61,6.191,13.8,13.8,13.8c7.58,0,13.726,6.147,13.726,13.726
			C280.289,415.046,274.144,421.192,266.563,421.192z"/>
		<path style="fill:#B8860B;" d="M109.51,407.466c-15.202,0-27.525-12.324-27.525-27.525s12.324-27.525,27.525-27.525
			s27.525,12.324,27.525,27.525"/>
		<path style="fill:#271613;" d="M109.509,421.192c-22.746,0-41.252-18.506-41.252-41.253s18.505-41.252,41.252-41.252
			s41.253,18.505,41.253,41.252c0,7.58-6.147,13.726-13.726,13.726c-7.58,0-13.726-6.147-13.726-13.726
			c0-7.609-6.191-13.799-13.8-13.799c-7.609,0-13.799,6.191-13.799,13.799c0,7.61,6.191,13.8,13.799,13.8
			c7.58,0,13.726,6.147,13.726,13.726C123.235,415.046,117.09,421.192,109.509,421.192z"/>
		<path style="fill:#B8860B;" d="M478.508,332.288l-35.511-47.264l-57.981,11.537l16.435-43.007
			c9.866-25.818,38.793-38.749,64.611-28.883l0,0c25.818,9.867,38.75,38.793,28.883,64.611L478.508,332.288z"/>
		<path style="fill:#271613;" d="M373.356,129.207c-21.95,0-39.808-17.858-39.808-39.809c0-21.95,17.858-39.808,39.808-39.808
			c21.951,0,39.809,17.858,39.809,39.808C413.165,111.349,395.307,129.207,373.356,129.207z M373.356,77.042
			c-6.812,0-12.355,5.543-12.355,12.355c0,6.814,5.543,12.356,12.355,12.356c6.814,0,12.356-5.543,12.356-12.356
			C385.712,82.585,380.169,77.042,373.356,77.042z"/>
		<path style="fill:#271613;" d="M293.601,297.47H82.471c-0.489,0-0.972,0.029-1.459,0.037V94.795h137.722l46.871,112.547h-81.687
			c-7.58,0-13.726,6.147-13.726,13.726s6.147,13.726,13.726,13.726h102.136c0.051,0,0.102,0,0.152,0h29.726
			c5.677,0,10.768-3.495,12.808-8.79l27.527-71.443c2.726-7.075-0.799-15.018-7.872-17.744c-7.076-2.727-15.019,0.8-17.744,7.872
			l-24.139,62.653h-11.168L240.559,75.791c-2.132-5.117-7.128-8.449-12.671-8.449H67.287c-7.58,0-13.726,6.147-13.726,13.726v221.645
			C22.305,314.452,0,344.635,0,379.939c0,45.474,36.997,82.471,82.471,82.471h211.131c45.474,0,82.471-36.997,82.471-82.471
			S339.075,297.47,293.601,297.47z M293.601,434.957H82.471c-30.338,0-55.018-24.68-55.018-55.018
			c0-30.337,24.68-55.017,55.018-55.017h211.131c30.338,0,55.018,24.68,55.018,55.017
			C348.621,410.277,323.939,434.957,293.601,434.957z"/>
		<path style="fill:#271613;" d="M506.413,245.391c-5.208-11.65-13.584-21.258-24.147-27.902l16.247-64.478
			c1.482-5.886-1.076-12.048-6.295-15.151l-51.485-30.621c-6.515-3.874-14.938-1.734-18.813,4.781
			c-3.875,6.515-1.735,14.938,4.781,18.813l42.69,25.39l-13.087,51.936c-2.679-0.345-5.381-0.528-8.099-0.528
			c-26.261,0-50.204,16.485-59.579,41.021l-16.435,43.007c-1.784,4.667-0.889,9.935,2.332,13.754
			c3.224,3.819,8.274,5.587,13.168,4.608l49.515-9.853l30.326,40.362c2.613,3.478,6.694,5.481,10.973,5.481
			c0.634,0,1.274-0.044,1.913-0.135c4.947-0.696,9.127-4.025,10.91-8.693l16.436-43.007
			C513.845,278.268,513.364,260.941,506.413,245.391z M482.12,284.38l-7.566,19.796l-20.585-27.399
			c-2.623-3.491-6.709-5.481-10.973-5.481c-0.888,0-1.787,0.086-2.679,0.264l-33.612,6.687l7.565-19.796
			c5.342-13.976,18.979-23.366,33.937-23.366c4.417,0,8.777,0.81,12.955,2.406c9.062,3.463,16.231,10.248,20.191,19.104
			C485.31,265.45,485.584,275.32,482.12,284.38z"/>
    </symbol>
  
    <symbol id="footer-phone" role="img" aria-labelledby="footer-phone_title" viewBox="0 0 512 512">
        <title id="footer-phone_title"></title>
        <path d="M421.216,195.504c-5.092-26.101-17.723-49.836-36.526-68.64c-18.804-18.803-42.54-31.434-68.641-36.527
			c-11.21-2.189-22.073,5.128-24.261,16.339c-2.187,11.212,5.128,22.073,16.339,24.26c36.847,7.188,65.3,35.642,72.489,72.489
			c1.927,9.874,10.581,16.726,20.278,16.726c1.313,0,2.645-0.125,3.984-0.387C416.088,217.577,423.403,206.715,421.216,195.504z"/>
		<path d="M511.422,196.929c-5.629-50.096-28.373-97.304-64.042-132.927C411.712,28.378,364.475,5.694,314.371,0.128
			c-11.355-1.261-21.578,6.92-22.839,18.272c-1.261,11.353,6.919,21.578,18.272,22.84c84.961,9.438,150.966,75.36,160.512,160.31
			c1.188,10.566,10.139,18.374,20.527,18.374c0.771,0,1.552-0.043,2.336-0.131C504.53,218.516,512.698,208.281,511.422,196.929z"/>
		<path d="M432.59,312.566c-0.062-0.008-0.124-0.017-0.186-0.025c-20.013-2.639-39.751-7.557-58.619-14.596
			c-23.91-8.99-51.103-3.191-69.27,14.772c-0.028,0.028-0.056,0.055-0.083,0.083l-17.148,17.148
			c-42.633-26.924-78.756-63.047-105.679-105.679l17.149-17.149c0.027-0.028,0.054-0.055,0.082-0.083
			c17.964-18.166,23.762-45.356,14.79-69.223c-7.057-18.914-11.974-38.653-14.614-58.666c-0.007-0.063-0.017-0.127-0.026-0.19
			c-4.591-32.478-32.782-56.734-65.548-56.467H66.053c-1.943,0.002-3.912,0.091-5.853,0.267
			C24.143,26.016-2.541,58.001,0.718,94.058c0.01,0.108,0.02,0.215,0.032,0.323c7.684,72.354,32.649,142.88,72.197,203.955
			c35.892,56.461,84.701,105.269,141.162,141.164c60.792,39.406,130.99,64.369,203.013,72.196c0.127,0.015,0.254,0.027,0.38,0.038
			c1.961,0.176,3.949,0.266,5.921,0.266c0.083,0,0.165,0,0.247,0.001c36.204-0.148,65.538-29.722,65.391-65.841v-67.233
			C489.746,345.714,465.515,317.211,432.59,312.566z M447.698,378.695v67.548c0.055,13.396-10.8,24.338-24.19,24.393
			c-0.715-0.004-1.425-0.027-2.135-0.086c-65.578-7.161-129.488-29.914-184.837-65.808c-0.053-0.035-0.107-0.069-0.161-0.103
			c-51.429-32.68-95.885-77.137-128.565-128.565c-0.032-0.051-0.064-0.101-0.097-0.153C71.683,220.306,48.928,156.086,41.902,90.193
			C40.779,76.91,50.63,65.155,63.923,63.954c0.717-0.064,1.443-0.098,2.145-0.098h67.463c0.146-0.001,0.294-0.003,0.443-0.002
			c12.021,0,22.322,8.905,24.044,20.819c3.05,23.063,8.721,45.806,16.871,67.649c3.319,8.832,1.189,18.869-5.427,25.591
			l-28.517,28.517c-6.583,6.582-7.956,16.753-3.354,24.847c33.837,59.508,83.177,108.847,142.685,142.685
			c8.094,4.6,18.264,3.23,24.848-3.355l28.512-28.512c6.72-6.621,16.765-8.752,25.642-5.415
			c21.799,8.134,44.547,13.805,67.61,16.855c12.18,1.757,21.122,12.339,20.816,24.647
			C447.7,378.353,447.698,378.524,447.698,378.695z"/>
    </symbol>

	<symbol id="footer-mail" role="img" aria-labelledby="footer-mail_title" viewBox="0 0 512 512">
        <title id="footer-mail_title"></title>
        <path d="M256,141.176c-63.306,0-114.809,51.503-114.809,114.809S192.694,370.795,256,370.795s114.809-51.503,114.809-114.809
			S319.306,141.176,256,141.176z M256,329.43c-40.498,0-73.445-32.947-73.445-73.445c0-40.498,32.947-73.445,73.445-73.445
			c40.499,0,73.445,32.947,73.445,73.445C329.445,296.483,296.499,329.43,256,329.43z"/>
		<path d="M437.008,74.97C388.656,26.623,324.375,0,256,0c-0.005,0-0.013,0-0.017,0C187.603,0.004,123.318,26.637,74.97,74.992
			C26.62,123.347-0.005,187.637,0,256.017c0.004,68.379,26.637,132.666,74.992,181.014C123.344,485.377,187.625,512.001,256,512
			c0.004,0,0.012,0,0.017,0c55.945-0.004,111.216-18.738,155.631-52.752c9.07-6.945,10.792-19.927,3.846-28.995
			c-6.945-9.069-19.926-10.794-28.995-3.846c-37.24,28.518-83.58,44.224-130.486,44.228c-0.006,0-0.006,0-0.014,0
			c-57.324,0-111.224-22.324-151.761-62.856c-40.542-40.536-62.871-94.435-62.875-151.766
			C41.357,137.663,137.636,41.372,255.986,41.364c0.007,0,0.006,0,0.014,0c118.34,0,214.628,96.279,214.636,214.622v23.532
			c0,27.523-22.39,49.913-49.913,49.913c-27.523,0-49.913-22.391-49.913-49.913v-23.532c0-11.422-9.259-20.682-20.682-20.682
			s-20.682,9.26-20.682,20.682v23.532c0,50.33,40.947,91.278,91.278,91.278S512,329.848,512,279.518v-23.534
			C511.995,187.604,485.362,123.318,437.008,74.97z"/>
    </symbol>

    <symbol id="footer-time" role="img" aria-labelledby="footer-time_title" viewBox="0 0 512 512">
        <title id="footer-time_title"></title>
        <path d="M437.019,74.981C388.667,26.629,324.38,0,256,0S123.333,26.63,74.981,74.981S0,187.62,0,256
			s26.629,132.667,74.981,181.019C123.332,485.371,187.62,512,256,512s132.667-26.629,181.019-74.981
			C485.371,388.667,512,324.38,512,256S485.371,123.332,437.019,74.981z M256,470.636C137.65,470.636,41.364,374.35,41.364,256
			S137.65,41.364,256,41.364S470.636,137.65,470.636,256S374.35,470.636,256,470.636z"/>
		<path d="M341.221,311.97l-64.538-64.537V114.809c0-11.422-9.259-20.682-20.682-20.682c-11.422,0-20.682,9.26-20.682,20.682V256
			c0,5.486,2.179,10.746,6.058,14.625l70.594,70.595c4.038,4.039,9.332,6.058,14.625,6.058c5.293,0,10.586-2.019,14.626-6.058
			C349.297,333.142,349.297,320.047,341.221,311.97z"/>
	</symbol>

    <symbol id="footer-location" role="img" aria-labelledby="footer-location_title" viewBox="0 0 512 512">
        <title id="footer-location_title"></title>
        <path d="M406.766,62.449C366.495,22.178,312.951,0,256,0S145.505,22.178,105.234,62.449
			c-40.272,40.271-62.449,93.814-62.449,150.766c0,37.656,10.972,76.863,32.609,116.532c16.825,30.846,40.15,62.102,69.326,92.898
			c49.17,51.903,97.763,84.519,99.808,85.881C248.001,510.842,252,512,256,512c4,0,7.999-1.158,11.473-3.474
			c2.045-1.363,50.638-33.978,99.808-85.881c29.176-30.795,52.501-62.051,69.326-92.898c21.637-39.669,32.609-78.876,32.609-116.532
			C469.215,156.263,447.038,102.72,406.766,62.449z M256.001,465.903C215.826,436.156,84.15,329.739,84.15,213.215
			c0-94.759,77.091-171.851,171.85-171.851s171.85,77.092,171.851,171.851C427.851,329.748,296.159,436.168,256.001,465.903z"/>
		<path d="M256,128.355c-46.791,0-84.86,38.068-84.86,84.86c0,46.791,38.068,84.86,84.86,84.86c46.792,0,84.861-38.068,84.86-84.86
			C340.86,166.423,302.791,128.355,256,128.355z M256,256.71c-23.983,0-43.495-19.512-43.495-43.495
			c0-23.983,19.512-43.495,43.495-43.495c23.984,0,43.495,19.512,43.495,43.495C299.495,237.198,279.984,256.71,256,256.71z"/>
	</symbol>

	<symbol id="footer-facebook" role="img" aria-labelledby="footer-facebook_title" viewBox="0 0 512 512">
        <title id="footer-facebook_title">Facebook</title>
        <path d="M296.296,512H200.36V256h-64v-88.225l64-0.029l-0.104-51.976C200.256,43.794,219.773,0,304.556,0h70.588v88.242h-44.115
		c-33.016,0-34.604,12.328-34.604,35.342l-0.131,44.162h79.346l-9.354,88.225L296.36,256L296.296,512z"/>
    </symbol>

    <symbol id="footer-twitter" role="img" aria-labelledby="footer-twitter_title" viewBox="0 0 512 512">
        <title id="footer-twitter_title">Twitter</title>
        <path d="M512.002,97.211c-18.84,8.354-39.082,14.001-60.33,16.54c21.686-13,38.342-33.585,46.186-58.115
		c-20.299,12.039-42.777,20.78-66.705,25.49c-19.16-20.415-46.461-33.17-76.674-33.17c-58.011,0-105.042,47.029-105.042,105.039
		c0,8.233,0.929,16.25,2.72,23.939c-87.3-4.382-164.701-46.2-216.509-109.753c-9.042,15.514-14.223,33.558-14.223,52.809
		c0,36.444,18.544,68.596,46.73,87.433c-17.219-0.546-33.416-5.271-47.577-13.139c-0.01,0.438-0.01,0.878-0.01,1.321
		c0,50.894,36.209,93.348,84.261,103c-8.813,2.399-18.094,3.687-27.674,3.687c-6.769,0-13.349-0.66-19.764-1.888
		c13.368,41.73,52.16,72.104,98.126,72.949c-35.95,28.176-81.243,44.967-130.458,44.967c-8.479,0-16.84-0.496-25.058-1.471
		c46.486,29.807,101.701,47.197,161.021,47.197c193.211,0,298.868-160.062,298.868-298.872c0-4.554-0.104-9.084-0.305-13.59
		C480.111,136.775,497.92,118.275,512.002,97.211z"/>
    </symbol>

    <symbol id="footer-instagram" role="img" aria-labelledby="footer-instagram_title" viewBox="155 155 200 200">
        <title id="footer-instagram_title">Instagram</title>
        <path d="M256,227.5c-15.7,0-28.5,12.8-28.5,28.5s12.8,28.5,28.5,28.5s28.5-12.8,28.5-28.5S271.7,227.5,256,227.5z"/>
        <path d="M322.2,154.8H189.8c-19.3,0-35,15.7-35,35v132.5c0,19.3,15.7,35,35,35h132.5c19.3,0,35-15.7,35-35V189.8   C357.2,170.5,341.5,154.8,322.2,154.8z M256,314.5c-32.2,0-58.5-26.2-58.5-58.5s26.2-58.5,58.5-58.5s58.5,26.2,58.5,58.5   S288.2,314.5,256,314.5z M335.9,190.6c0,8-6.5,14.5-14.5,14.5h0c-8,0-14.5-6.5-14.5-14.5v0c0-8,6.5-14.5,14.5-14.5h0   C329.4,176.1,335.9,182.6,335.9,190.6L335.9,190.6z"/>
    </symbol>

    <symbol id="footer-linkedin" role="img" aria-labelledby="footer-linkedin_title" viewBox="0 0 93 93">
        <title id="footer-linkedin_title">Linkedin</title>
        <path d="M11.185,0.08C5.004,0.08,0.001,5.092,0,11.259c0,6.173,5.003,11.184,11.186,11.184c6.166,0,11.176-5.011,11.176-11.184
			C22.362,5.091,17.351,0.08,11.185,0.08z"/>
		<rect x="1.538" y="30.926" width="19.287" height="62.054"/>
		<path d="M69.925,29.383c-9.382,0-15.673,5.144-18.248,10.022h-0.258v-8.479H32.921H32.92v62.053h19.27V62.281
			c0-8.093,1.541-15.932,11.575-15.932c9.89,0,10.022,9.256,10.022,16.451v30.178H93.06V58.942
			C93.06,42.235,89.455,29.383,69.925,29.383z"/>
    </symbol>

</svg>