<svg xmlns="http://www.w3.org/2000/svg" xmlns:xlink="http://www.w3.org/1999/xlink">

	<symbol id="button01" role="img" aria-labelledby="button01_title" viewBox="75 0 630 630">
        <title id="button01_title"></title>
        <path d="M702.002,306.001L396.003,612l-61.022-61.021l244.977-244.978L334.981,61.022L396.003,0L702.002,306.001z M273.959,122.044
			l-61.021,61.021l122.933,122.936L212.938,428.935l61.021,61.021l183.955-183.955L273.959,122.044z M151.912,244.085L90,305.997
			l61.912,61.912l61.912-61.912L151.912,244.085z"/>
    </symbol>

	<symbol id="phone01" role="img" aria-labelledby="phone01_title" viewBox="0 0 489.851 489.851">
        <title id="phone01_title"></title>
        <path d="M395.249,30.951c18,8.2,34.8,18.4,47.6,33.3c7.9,9.4,12,20.2,12,33c0,13.5,0,27,0,40.5c-0.4,17.6-11.6,28.8-28.8,28.8
			c-10.9,0.4-21.7,0-33,0c-10.5,0-21,0-32.2,0c-18.7,0-29.6-10.9-29.6-29.6c0-13.5-0.4-26.6,0.4-40.1c0-3.7-1.1-4.9-4.1-6.4
			c-15.4-6.4-31.1-9.4-47.2-11.2c-32.6-3.4-64.8-2.6-96.6,4.5c-6.7,1.5-13.5,4.5-20.2,6c-3.4,1.1-4.5,3-4.5,6.7c0,13.5,0,27,0,40.5
			c0,18-11.2,29.2-28.8,28.8c-21.7,0-43.5,0-65.2,0c-18,0-29.2-11.2-29.6-29.6c-0.4-12.4,0.7-24.7-0.4-37.1
			c-0.7-18,6.4-31.8,19.5-43.5c18.4-16.1,40.5-26.2,63.7-34.5c51.7-18,105.3-24.3,160.3-19.5
			C318.849,5.551,357.849,13.751,395.249,30.951z"/>
		<circle cx="164.049" cy="382.751" r="26.4"/>
		<circle cx="164.049" cy="221.251" r="26.4"/>
		<circle cx="164.049" cy="301.951" r="26.4"/>
		<circle cx="244.849" cy="382.751" r="26.4"/>
		<circle cx="244.849" cy="221.251" r="26.4"/>
		<circle cx="244.849" cy="302.051" r="26.4"/>
		<circle cx="244.849" cy="463.451" r="26.4"/>
		<circle cx="325.649" cy="221.251" r="26.4"/>
		<circle cx="325.649" cy="302.051" r="26.4"/>
		<circle cx="325.649" cy="382.751" r="26.4"/>
    </symbol>

	<symbol id="pew" role="img" aria-labelledby="pew_title" viewBox="0 0 452.589 452.59">
        <title id="pew_title"></title>
        <path d="M375.786,368.016c-1.022,62.699-34.434,85.385-69.898,83.283c-35.465-2.093-60.132-18.537-85.32-18.537l-1.032,0.576
			c-25.188,0-49.854,17.021-85.319,19.114c-35.466,2.093-68.876-19.449-69.898-82.148c2.056-57.565,45.911-61.798,83.265-129.8
			c32.891-59.881,71.954-55.035,71.954-55.035h1.03c0,0,39.4-4.586,71.955,55.035C329.698,308.599,373.73,310.449,375.786,368.016z
			 M156.203,159.636c31.413-2.382,54.172-40.021,50.832-84.071c-3.34-44.049-31.514-77.828-62.927-75.446
			C112.695,2.501,89.936,40.141,93.276,84.19C96.616,128.239,124.789,162.018,156.203,159.636z M275.264,160.401
			c30.698,8.368,65.097-19.742,76.83-62.786c11.732-43.044-3.642-84.722-34.339-93.09c-30.698-8.368-65.097,19.742-76.829,62.786
			C229.193,110.354,244.566,152.033,275.264,160.401z M417.486,125.937c-26.732-7.288-56.688,17.19-66.905,54.674
			c-10.217,37.484,3.171,73.777,29.903,81.064c26.733,7.287,56.688-17.191,66.906-54.675
			C457.608,169.518,444.22,133.224,417.486,125.937z M102.008,180.608c-10.218-37.482-40.172-61.961-66.905-54.674
			s-40.122,43.581-29.904,81.064c10.218,37.482,40.173,61.961,66.906,54.674C98.837,254.386,112.225,218.092,102.008,180.608z"/>
    </symbol>

    <symbol id="services01" role="img" aria-labelledby="services01_title" viewBox="0 0 480 480">
        <title id="services01_title"></title>
        <path d="M416,336h-12.528c-8.786,0.008-17.45,2.053-25.312,5.976c-11.439,5.686-24.881,5.686-36.32,0
			c-4.563-2.239-9.406-3.854-14.4-4.8L343.032,216H360c4.418,0,8-3.582,8-8v-32c0-4.418-3.582-8-8-8h-32v-24
			c0-2.122-0.844-4.156-2.344-5.656L288,100.688V75.84l12.128-9.696l20.712,41.432l14.32-7.152L312.904,55.92L322.8,48H352
			c4.418,0,8-3.582,8-8V8c0-4.418-3.582-8-8-8h-80c-39.744,0.048-71.952,32.256-72,72c0,4.418,3.582,8,8,8h16v20.688l-21.656,21.656
			c-1.5,1.5-2.344,3.534-2.344,5.656v40h-16v-64c-0.012-0.991-0.21-1.97-0.584-2.888c-0.146-0.311-0.312-0.613-0.496-0.904
			c-0.192-0.419-0.417-0.823-0.672-1.208L152,61.2V8c0-4.418-3.582-8-8-8H96c-4.418,0-8,3.582-8,8v53.2L57.752,99
			c-0.255,0.385-0.48,0.789-0.672,1.208c-0.184,0.291-0.35,0.593-0.496,0.904C56.21,102.03,56.012,103.009,56,104v64H24
			c-4.418,0-8,3.582-8,8v32c0,4.418,3.582,8,8,8h16.968l31.096,241.024c0.515,3.99,3.913,6.977,7.936,6.976h188.32
			c9.073,10.17,22.051,15.99,35.68,16h12.528c8.786-0.008,17.45-2.053,25.312-5.976c11.439-5.686,24.881-5.686,36.32,0
			c7.862,3.923,16.526,5.968,25.312,5.976H416c26.499-0.026,47.974-21.501,48-48v-48C463.974,357.501,442.499,336.026,416,336z
			 M328,16h16v16h-16V16z M352,184v16H240v-16H352z M216.568,64c4.013-27.535,27.606-47.965,55.432-48h40v20.16L277.192,64H216.568z
			 M272,80v16h-32V80H272z M216,131.312L235.312,112h41.376L312,147.312V168h-96V131.312z M208,184h16v56
			c-0.017,3.047,1.699,5.838,4.424,7.2l48,24c2.341,1.154,4.115,3.205,4.92,5.688c0.829,2.665,0.541,5.552-0.8,8
			c-2.302,4.619-7.912,6.497-12.531,4.194c-0.007-0.003-0.014-0.007-0.021-0.01l-32.48-16.24c-3.97-1.94-8.76-0.294-10.7,3.676
			c-0.531,1.088-0.809,2.282-0.812,3.492v80c0,8.837-7.163,16-16,16v-72h-16v72h-16v-72h-16v72h-16v-72h-16v72
			c-8.837,0-16-7.163-16-16V184H208z M104,16h32v40h-32V16z M99.84,72h40.32l19.2,24H80.64L99.84,72z M72,112h96v56H72V112z M32,200
			v-16h64v16H32z M256,384v48c0.014,5.454,0.961,10.865,2.8,16H87.032L57.096,216H96v144c0,17.673,14.327,32,32,32h80
			c17.673,0,32-14.327,32-32v-67.056l20.896,10.448c12.627,6.232,27.915,1.048,34.147-11.579c0.026-0.052,0.051-0.105,0.077-0.157
			c3.099-6.143,3.626-13.268,1.464-19.8c-2.132-6.535-6.802-11.937-12.96-14.992L240,235.056V216h86.904l-15.488,120H304
			C277.501,336.026,256.026,357.501,256,384z M448,432c0,17.673-14.327,32-32,32h-12.528c-6.301-0.009-12.514-1.476-18.152-4.288
			c-15.95-7.925-34.69-7.925-50.64,0c-5.638,2.812-11.851,4.279-18.152,4.288H304c-17.673,0-32-14.327-32-32v-12.32
			c8.773,7.927,20.176,12.317,32,12.32h12.528c8.786-0.008,17.45-2.053,25.312-5.976c11.439-5.686,24.881-5.686,36.32,0
			c7.862,3.923,16.526,5.968,25.312,5.976H416c11.824-0.003,23.227-4.393,32-12.32V432z M416,416h-12.528
			c-6.301-0.009-12.514-1.476-18.152-4.288c-15.95-7.925-34.69-7.925-50.64,0c-5.638,2.812-11.851,4.279-18.152,4.288H304
			c-17.673,0-32-14.327-32-32c0-17.673,14.327-32,32-32h12.528c6.301,0.009,12.514,1.476,18.152,4.288
			c15.951,7.92,34.689,7.92,50.64,0c5.638-2.812,11.851-4.279,18.152-4.288H416c17.673,0,32,14.327,32,32
			C448,401.673,433.673,416,416,416z"/>
		<rect x="408" y="368" width="16" height="16"/>
		<rect x="328" y="368" width="16" height="16"/>
		<rect x="296" y="376" width="16" height="16"/>
		<rect x="376" y="376" width="16" height="16"/>
    </symbol>

    <symbol id="services02" role="img" aria-labelledby="services02_title" viewBox="-40 0 496 496">
        <title id="services02_title"></title>
        <path d="m416 280c0-22.054688-17.945312-40-40-40h-48v-200c0-22.054688-17.945312-40-40-40s-40 17.945312-40 40v200h-48c-21.023438 0-38.128906 16.359375-39.695312 36.992188l-8.304688-8.304688v-236.6875c0-17.648438-14.351562-32-32-32s-32 14.351562-32 32v236.6875l-48 48v38.496094c0 43.34375-13.320312 84.894531-38.503906 120.167968l-1.496094 2.089844v18.558594h240v-18.558594l-1.496094-2.089844c-1.089844-1.519531-2.023437-3.113281-3.0625-4.65625.742188-.160156 1.503906-.207031 2.230469-.390624 8.191406 15.640624 24.351563 25.695312 42.328125 25.695312 13.742188 0 26.824219-5.992188 35.886719-16.238281 1.402343.160156 2.769531.238281 4.113281.238281 22.054688 0 40-17.945312 40-40 0-2.734375-.335938-5.398438-.863281-8h56.863281zm-152-240c0-13.230469 10.769531-24 24-24s24 10.769531 24 24v200h-48zm-208 304v-16h128v16zm80-248h-32v-16h32zm-16-80c8.824219 0 16 7.175781 16 16v32h-32v-32c0-8.824219 7.175781-16 16-16zm-16 259.3125v-163.3125h32v163.3125l36.6875 36.6875h-105.375zm79.238281 204.6875-7.277343-72.800781-15.921876 1.59375 7.121094 71.199219h-15.921875l-7.277343-72.800782-15.921876 1.59375 7.121094 71.199219h-30.320312l7.121094-71.199219-15.921876-1.59375-7.277343 72.800782h-15.921875l7.121094-71.199219-15.921876-1.59375-7.277343 72.800781h-39.019531c24.144531-35.648438 37.160156-76.9375 38.082031-120h128.351562c.921875 43.0625 13.9375 84.351562 38.082031 120zm136.761719-16c-1.695312 0-3.464844-.230469-5.542969-.726562l-5.257812-1.25-3.121094 4.402343c-6.03125 8.503907-15.78125 13.574219-26.078125 13.574219-13.742188 0-25.894531-8.871094-30.230469-22.078125l-2.691406-8.167969-7.941406 3.261719c-4.097657 1.671875-8.417969 2.671875-12.769531 2.929687-12.726563-22.722656-20.984376-47.441406-24.414063-73.210937 5.414063-3.597656 11.558594-5.886719 18.085937-6.535156l4.703126-.464844 1.867187-4.34375c5.046875-11.773437 16.589844-19.390625 29.390625-19.390625 13.167969 0 25.167969 8.351562 29.839844 20.777344l2.761718 7.34375 7.398438-2.617188c2.847656-1.007812 5.472656-1.503906 8-1.503906 13.230469 0 24 10.769531 24 24 0 2.777344-.527344 5.535156-1.632812 8.449219l-2.582032 6.839843 6.582032 3.183594c8.410156 4.070313 13.632812 12.320313 13.632812 21.527344 0 13.230469-10.769531 24-24 24zm23.230469-56.449219c.511719-2.527343.769531-5.046875.769531-7.550781 0-22.054688-17.945312-40-40-40-2.089844 0-4.167969.175781-6.265625.535156-8.398437-14.917968-24.375-24.535156-41.734375-24.535156-17.648438 0-33.695312 9.640625-42.070312 24.910156-.707032.128906-1.371094.363282-2.066407.515625l10.777344-57.425781h130.71875l21.007813 112h-22.480469c-2.429688-3.191406-5.292969-6.070312-8.65625-8.449219zm56.769531 8.449219h-9.367188l-23.992187-128h-157.28125l-9.359375 49.921875v-21.234375l-24-24v-12.6875c0-13.230469 10.769531-24 24-24h176c13.230469 0 24 10.769531 24 24zm0 0"/>
        <path d="m296 40c0 4.417969-3.582031 8-8 8s-8-3.582031-8-8 3.582031-8 8-8 8 3.582031 8 8zm0 0"/>
        <path d="m248 376h16v16h-16zm0 0"/>
        <path d="m232 408h16v16h-16zm0 0"/>
        <path d="m272 448h16v16h-16zm0 0"/>
        <path d="m264 416h16v16h-16zm0 0"/>
        <path d="m288 392h16v16h-16zm0 0"/>
        <path d="m304 432h16v16h-16zm0 0"/>
    </symbol>

    <symbol id="services03" role="img" aria-labelledby="services03_title" viewBox="0 0 479.999 479.999">
        <title id="services03_title"></title>
        <path d="M328.002,167.999c-0.026-22.08-17.92-39.974-40-40h-100c-10.068,0.016-19.546,4.755-25.6,12.8l-16.8,22.192l-21.6,29.008
			h-36v-64h-16v64h-8c-4.418,0-8,3.582-8,8v32c0,4.418,3.582,8,8,8h8v176h-56v16h12.896L16.41,469.471
			c-1.396,4.192,0.87,8.722,5.062,10.118c0.816,0.272,1.67,0.41,2.53,0.41h112c4.418,0.001,8.001-3.58,8.002-7.998
			c0-0.86-0.138-1.714-0.41-2.53l-12.488-37.472h12.896v-16h-56v-176h55.768c7.723-0.003,14.972-3.721,19.48-9.992l24.256-33.296
			l0.056-0.112l0.088-0.08l4.352-6.4v17.368l-5.04,42.912l-5.04,42.808l-6.92,58.792h17v86.112l-15.16,30.312
			c-1.975,3.952-0.372,8.757,3.58,10.732c1.112,0.555,2.337,0.844,3.58,0.844h112c4.418,0.024,8.02-3.538,8.044-7.956
			c0.007-1.256-0.282-2.496-0.844-3.62l-15.2-30.312v-86.112h17l-3.768-32h26.768V167.999z M268.53,143.999h3.472v24H254.13
			L268.53,143.999z M249.874,143.999l-9.872,16.448l-9.872-16.448H249.874z M208.002,143.999h3.472l14.4,24h-17.872V143.999z
			 M208.002,183.999h64v16h-64.048L208.002,183.999z M197.818,295.063l1.736-14.8l7.56-64.264h65.776l9.296,79.064
			c0.517,4.388-2.621,8.364-7.009,8.881c-0.31,0.036-0.622,0.055-0.935,0.055h-68.48c-4.418-0.001-8-3.583-7.999-8.001
			C197.763,295.686,197.781,295.374,197.818,295.063z M114.234,431.999l10.672,32h-20.904v-16h-16v16h-16v-16h-16v16H35.098
			l10.672-32H114.234z M150.282,220.647c-1.502,2.104-3.927,3.352-6.512,3.352H72.002v-16h56c2.518,0,4.889-1.186,6.4-3.2
			l18.952-25.432l16.8,13.992L150.282,220.647z M192.002,167.999c-2.639,0-5.109,1.302-6.6,3.48l-5.992,8.744l-8.048-6.704
			l-8.376-6.984l12.216-16.136c3.03-4.019,7.767-6.387,12.8-6.4h4V167.999z M232.002,463.999h-35.056l8-16h27.056V463.999z
			 M232.002,431.999h-24v-80h24V431.999z M248.002,463.999v-16h27.056l8,16H248.002z M248.002,431.999v-80h24v80H248.002z
			 M193.002,335.999l2.176-18.544c3.287,1.647,6.908,2.518,10.584,2.544h68.48c3.68-0.024,7.305-0.897,10.592-2.552l2.168,18.552
			H193.002z M312.002,303.999h-9.136l-14.864-96.616v-7.384h24V303.999z M312.002,183.999h-24v-40c13.255,0,24,10.745,24,24V183.999
			z"/>
		<path d="M280.443,0.001c-12.244-0.084-23.463,6.826-28.897,17.798c-3.737-1.171-7.628-1.778-11.544-1.8
			c-22.08,0.026-39.974,17.92-40,40v16c0,22.091,17.909,40,40,40c0.029,0,0.059,0,0.088,0c1.272,0,2.544-0.064,3.816-0.184
			c20.769-2.53,36.315-20.271,36.096-41.192v-6.624c17.673,0.122,32.098-14.106,32.22-31.779
			C312.343,14.548,298.115,0.123,280.443,0.001z M216.002,55.999c0-13.255,10.745-24,24-24c6.444-0.018,12.612,2.614,17.056,7.28
			c-0.184,0.152-0.344,0.336-0.536,0.496c-2.689,2.226-5.536,4.253-8.52,6.064c-0.688,0.424-1.416,0.8-2.12,1.2
			c-2.48,1.424-5.016,2.736-7.584,3.936c-0.88,0.408-1.744,0.8-2.624,1.208c-3.16,1.376-6.344,2.656-9.44,3.736
			c-0.168,0.064-0.328,0.104-0.496,0.16c-3.048,1.056-5.984,1.944-8.8,2.728l-0.936,0.264V55.999z M242.402,95.887
			c-6.768,0.704-13.514-1.527-18.528-6.128c-4.075-3.716-6.752-8.717-7.584-14.168l0.44-0.128c3.352-0.848,6.832-1.84,10.4-2.968
			c0.888-0.28,1.76-0.592,2.648-0.888c2.936-0.984,5.872-2.072,8.8-3.272c0.896-0.36,1.784-0.696,2.68-1.08
			c3.64-1.6,7.2-3.28,10.736-5.2c0.656-0.36,1.264-0.8,1.912-1.144c2.9-1.669,5.709-3.49,8.416-5.456
			c0.52-0.384,1.112-0.672,1.6-1.064c0,0.536,0.056,1.072,0.056,1.6l0.024,14.632C264.275,83.312,254.979,94.185,242.402,95.887z
			 M280.002,47.999c-0.304,0-0.632-0.072-0.944-0.088c-1.836-8.778-6.594-16.674-13.496-22.4c2.528-5.731,8.177-9.451,14.44-9.512
			c8.837,0,16,7.163,16,16S288.838,47.999,280.002,47.999z"/>
		<path d="M400.002,303.999c-35.346,0-64,28.654-64,64v8c0.036,0.234,0.084,0.467,0.144,0.696c-0.012,0.208-0.012,0.416,0,0.624
			l16,96c0.643,3.842,3.96,6.663,7.856,6.68h80c3.908-0.001,7.243-2.826,7.888-6.68l16-96c0.012-0.208,0.012-0.416,0-0.624
			c0.049-0.23,0.087-0.462,0.112-0.696v-8C464.002,332.653,435.348,303.999,400.002,303.999z M433.226,463.999h-66.448l-13.328-80
			h93.104L433.226,463.999z M352.002,367.999c0.026-26.499,21.501-47.974,48-48c26.499,0.026,47.974,21.501,48,48H352.002z"/>
    </symbol>

    <symbol id="services04" role="img" aria-labelledby="services04_title" viewBox="0 0 480 480">
        <title id="services04_title"></title>
        <path d="M432,216V8c0-4.418-3.582-8-8-8H24c-4.418,0-8,3.582-8,8v464c0,4.418,3.582,8,8,8h400c4.418,0,8-3.582,8-8V328h-16v136H32
			V16h384v200H432z"/>
		<path d="M400,208V40c0-4.418-3.582-8-8-8H56c-4.418,0-8,3.582-8,8v400c0,4.418,3.582,8,8,8h336c4.418,0,8-3.582,8-8v-96h-16v88H64
			V48h320v160H400z"/>
		<rect x="84.4" y="99.999" transform="matrix(0.7071 -0.7071 0.7071 0.7071 -40.0495 119.3106)" width="79.192" height="16"/>
		<rect x="74.467" y="123.994" transform="matrix(0.7071 -0.7071 0.7071 0.7071 -49.9834 143.3168)" width="147.081" height="16"/>
		<path d="M176,368v24c0,4.418-3.582,8-8,8s-8-3.582-8-8v-32c0-13.255-10.745-24-24-24s-24,10.745-24,24v8c0,4.418-3.582,8-8,8
			s-8-3.582-8-8v-40H80v40c0,13.255,10.745,24,24,24s24-10.745,24-24v-8c0-4.418,3.582-8,8-8s8,3.582,8,8v32
			c0,13.255,10.745,24,24,24s24-10.745,24-24v-24H176z"/>
		<path d="M464,248v-16h-64c0-2.238-0.937-4.373-2.584-5.888c-1.634-1.535-3.849-2.292-6.08-2.08l-90.6,7.544l-13.6-27.152
			c-1.352-2.705-4.112-4.416-7.136-4.424h-24c-1.291,0.026-2.556,0.372-3.68,1.008l-13.328-13.328l-5.84-17.52l52.504-52.504
			c3.123-3.124,3.123-8.188,0-11.312l-24-24c-3.124-3.123-8.188-3.123-11.312,0l-152,151.768c-3.112,3.122-3.112,8.174,0,11.296
			l24,24.232c1.497,1.506,3.532,2.355,5.656,2.36c2.122,0,4.156-0.844,5.656-2.344l52.504-52.504l17.52,5.84l9.6,9.6
			c-3.129,1.131-5.232,4.081-5.28,7.408v64c-0.017,4.152,3.145,7.626,7.28,8l85.112,7.736l29.952,29.952
			c3.124,3.123,8.188,3.123,11.312,0l24-24l25.6,2.328c0.24,0,0.48,0,0.72,0c4.418,0,8-3.582,8-8V312h64v-16H400v-48H464z
			 M128,252.656L115.264,239.8L256,99.312L268.688,112L128,252.656z M213.656,210.344c-0.881-0.874-1.951-1.534-3.128-1.928
			l-11.744-3.912l10.848-10.848l10.848-10.84l3.904,11.712c0.394,1.179,1.056,2.25,1.936,3.128L248,219.312V232h-12.688
			L213.656,210.344z M336,332.688l-10.72-10.72l19.656,1.784L336,332.688z M384,311.24l-160-14.544V248h32c4.418,0,8-3.582,8-8v-24
			h11.056l13.744,27.576c1.452,2.938,4.56,4.682,7.824,4.392L384,240.696V311.24z"/>
		<rect x="320.003" y="114.716" transform="matrix(0.7071 -0.7071 0.7071 0.7071 -17.0473 278.7878)" width="16" height="90.512"/>
		<rect x="167.986" y="266.724" transform="matrix(0.7071 -0.7071 0.7071 0.7071 -169.058 215.8168)" width="16" height="90.512"/>
    </symbol>

    <symbol id="what01" role="img" aria-labelledby="what01_title" viewBox="0 0 512 512">
        <title id="what01_title"></title>
        <rect x="300" y="121" width="90" height="240"/>
		<rect x="300" width="90" height="91"/>
		<polygon points="467,391 283.475,391 268.475,512 300,512 300,451 330,451 330,512 360,512 360,451 390,451 390,512 420,512    420,451 450,451 450,512 482,512 482,421 512,421 512,391  "/>
		<path d="M238.484,241c-7.357-50.75-50.729-90-103.484-90s-96.127,39.25-103.484,90H0v120h120V241H61.509   c6.973-34.189,37.266-60,73.491-60s66.519,25.811,73.491,60H150v150H16.76l14.998,121h206.484l33.75-271H238.484z"/>
    </symbol>

    <symbol id="what02" role="img" aria-labelledby="what02_title" viewBox="0 0 512 512">
        <title id="what02_title"></title>
        <path d="M422,151c0-8.291-6.709-15-15-15H241v-15c0-8.276,6.738-15,15-15h120c41.367,0,75-33.647,75-75c0-8.291-6.709-15-15-15H256   c-57.891,0-105,47.109-105,105v15h-46c-8.291,0-15,6.709-15,15v45h332V151z"/>
		<rect x="271" y="226" width="61" height="90"/>
		<polygon points="362,226 362,316 450.213,316 426.219,226  "/>
		<rect x="180" y="226" width="61" height="90"/>
		<polygon points="150,226 85.781,226 61.787,316 150,316  "/>
		<path d="M474.786,290.554l9.207,36.799c2.358,9.493-4.819,18.647-14.561,18.647H42.568c-9.741,0-16.918-9.155-14.561-18.647   l9.207-36.799C15.41,299.546,0,320.982,0,346c0,33.091,26.924,60,60,60h30c0,33.091,26.924,60,60,60h32.578   c6.182,17.461,22.852,30,42.422,30h92c19.57,0,36.24-12.539,42.422-30H392c33.076,0,60-26.909,60-60c33.076,0,60-26.909,60-60   C512,320.982,496.59,299.546,474.786,290.554z"/>
    </symbol>

    <symbol id="what03" role="img" aria-labelledby="what03_title" viewBox="0 0 512 512">
        <title id="what03_title"></title>
        <path d="M0,452c0,22.2,13.001,41.4,31,51.899V400.099C13.001,410.6,0,429.8,0,452z"/>
		<path d="M301,400.099v103.801c17.999-10.499,30-29.7,30-51.899S318.999,410.6,301,400.099z"/>
		<path d="M226,212h-15v135c0,24.898-20.099,45-45,45s-45-20.102-45-45V212h-15c-24.901,0-45,20.1-45,45v255h210V257   C271,232.1,250.901,212,226,212z M211,452h-90v-30h90V452z"/>
		<path d="M166,362c8.401,0,15-6.601,15-15V212h-30v135C151,355.399,157.599,362,166,362z"/>
		<rect x="106" y="152" width="120" height="30"/>
		<path d="M211,105c0-8.401,6.599-15,15-15h120c8.401,0,15,6.599,15,15v98.299c9.3-4.199,19.501-6.299,30-6.299h30   c10.499,0,20.7,2.1,30,6.299V105C451,47.1,403.9,0,346,0H226c-57.9,0-105,47.1-105,105v17h90V105z"/>
		<path d="M391,227c-24.901,0-45,20.1-45,45h120c0-24.9-20.099-45-45-45H391z"/>
		<path d="M467,302H346c-24.814,0-45,20.186-45,45v15h211v-15C512,322.186,491.814,302,467,302z"/>
		<rect x="361" y="392" width="30" height="90"/>
		<rect x="421" y="392" width="30" height="90"/>
    </symbol>

    <symbol id="what04" role="img" aria-labelledby="what04_title" viewBox="-6 0 512 512">
        <title id="what04_title"></title>
        <path d="m329.179688 237.5c29.851562 0 54.839843-25.488281 55.710937-56.828125h22.898437v-53.8125c-33.390624 2.570313-60.570312 31.789063-61.550781 67.320313h-59.976562c-.53125-19.007813-8.5625-36.21875-21.03125-48.488282v106.808594h63.949219zm0 0"/>
        <path d="m444.871094 354.339844h-7.082032v106.449218h-386.578124v-386.570312h168.6875v-7.546875c27.550781 0 51.613281-18.171875 61.542968-43.660156h-281.441406v488.988281h489v-213.191406c-24.480469 5.570312-43.378906 28.351562-44.128906 55.53125zm0 0"/>
        <path d="m235.230469 128.589844c-4.929688-1.261719-10.070313-1.917969-15.332031-1.917969v-22.453125h-138.6875v148.28125h154.019531zm0 0"/>
        <path d="m81.210938 282.5h154.019531v148.289062h-154.019531zm0 0"/>
        <path d="m412.589844 66.671875v7.546875h25.199218v106.453125h7.082032c.75 27.179687 19.648437 49.957031 44.128906 55.519531v-213.179687h-137.941406c9.921875 25.488281 33.992187 43.660156 61.53125 43.660156zm0 0"/>
        <path d="m265.230469 282.5v148.289062h142.558593v-76.449218h-22.898437c-.871094-31.339844-25.859375-56.839844-55.710937-56.839844v-15zm0 0"/>
        <path d="m500.589844 282.511719v-.011719h-.378906zm0 0"/>
        <path d="m256.160156 89.21875c-6.640625 2.851562-13.648437 4.941406-20.929687 6.160156v2.582032c7.371093 1.238281 14.460937 3.359374 21.167969 6.257812 3.03125 1.300781 5.972656 2.75 8.832031 4.359375 29.621093 16.59375 50.019531 48.722656 51.019531 84.761719 1.101562-39.519532 25.511719-74.339844 59.851562-89.121094 11.25-4.847656 23.578126-7.546875 36.488282-7.546875-22.917969 0-43.980469-8.492187-60.53125-22.453125-15.519532-13.089844-27.070313-30.988281-32.449219-51.207031-1.988281-7.402344-3.140625-15.113281-3.359375-23.011719-.21875 7.898438-1.371094 15.609375-3.359375 23.011719-5.378906 20.21875-16.941406 38.117187-32.460937 51.207031-7.289063 6.152344-15.449219 11.242188-24.269532 15zm0 0"/>
        <path d="m362.769531 261.042969c-5.757812 2.472656-11.839843 4.285156-18.152343 5.34375l-8.785157 1.117187 8.785157 1.117188c6.390624 1.074218 12.539062 2.914062 18.359374 5.429687 2.628907 1.128907 5.175782 2.386719 7.660157 3.78125 25.6875 14.386719 43.378906 42.253907 44.246093 73.507813.953126-34.273438 22.121094-64.472656 51.902344-77.289063 9.757813-4.207031 20.453125-6.546875 31.648438-6.546875-19.878906 0-38.144532-7.363281-52.496094-19.472656-13.460938-11.351562-23.476562-26.875-28.140625-44.410156-1.726563-6.417969-2.722656-13.105469-2.914063-19.957032-.191406 6.851563-1.1875 13.539063-2.914062 19.957032-4.667969 17.535156-14.691406 33.058594-28.152344 44.410156-6.320312 5.335938-13.398437 9.75-21.046875 13.011719zm0 0"/>
    </symbol>

	<symbol id="process02" role="img" aria-labelledby="process02_title" viewBox="0 0 512 512">
        <title id="process02_title"></title>
        <path style="fill:#CFF09E;" d="M328.974,321.875c21.174,0,38.38-19.288,38.38-43.007s-17.208-43.01-38.38-43.01
			c-21.171,0-38.377,19.291-38.377,43.01C290.595,302.587,307.803,321.875,328.974,321.875L328.974,321.875z"/>
		<path style="fill:#507C5C;" d="M328.974,336.563c-29.261,0-53.068-25.883-53.068-57.696c0-31.814,23.806-57.697,53.068-57.697
			c29.263,0,53.069,25.883,53.069,57.697C382.043,310.68,358.237,336.563,328.974,336.563z M328.974,250.546
			c-13.063,0-23.69,12.704-23.69,28.32s10.627,28.318,23.69,28.318c13.064,0,23.691-12.703,23.691-28.318
			C352.666,263.25,342.037,250.546,328.974,250.546z"/>
		<path style="fill:#CFF09E;" d="M410.839,321.875c21.137,0,38.377-19.288,38.377-43.007s-17.23-43.01-38.377-43.01
			c-21.171,0-38.392,19.291-38.392,43.01C372.448,302.587,389.669,321.875,410.839,321.875L410.839,321.875z"/>
		<path style="fill:#507C5C;" d="M410.839,336.563c-29.269,0-53.081-25.883-53.081-57.696c0-31.814,23.812-57.697,53.081-57.697
			c29.261,0,53.068,25.883,53.068,57.697C463.906,310.68,440.1,336.563,410.839,336.563z M410.839,250.546
			c-13.069,0-23.703,12.704-23.703,28.32s10.633,28.318,23.703,28.318c13.063,0,23.69-12.703,23.69-28.318
			C434.529,263.25,423.902,250.546,410.839,250.546z"/>
		<path style="fill:#CFF09E;" d="M472.971,307.784c-16.651-2.606-33.073,9.036-37.408,26.521
			c-4.346,17.465,5.284,33.175,21.936,35.772c16.629,2.597,33.073-9.045,37.417-26.512C499.252,326.09,489.6,310.37,472.971,307.784
			L472.971,307.784z"/>
		<path style="fill:#507C5C;" d="M462.166,385.124C462.164,385.124,462.166,385.124,462.166,385.124c-2.315,0-4.648-0.181-6.932-0.538
			c-11.81-1.84-21.863-8.195-28.299-17.891c-6.833-10.294-8.832-23.057-5.626-35.94c5.463-22.029,25.221-38.028,46.981-38.028
			c2.319,0,4.659,0.182,6.951,0.541c11.789,1.836,21.836,8.186,28.277,17.879c6.843,10.297,8.851,23.064,5.655,35.952
			C503.694,369.137,483.924,385.124,462.166,385.124z M468.291,322.107c-8.442,0-16.209,6.617-18.47,15.732
			c-1.194,4.797-0.629,9.27,1.588,12.609c1.848,2.782,4.737,4.551,8.355,5.113c0.793,0.125,1.601,0.187,2.403,0.187
			c8.45,0.001,16.231-6.614,18.498-15.729c1.187-4.781,0.615-9.263-1.61-12.609c-1.851-2.785-4.736-4.552-8.342-5.113
			C469.905,322.17,469.094,322.107,468.291,322.107z"/>
		<path style="fill:#CFF09E;" d="M304.253,334.303c-4.343-17.484-20.766-29.126-37.417-26.521
			c-16.62,2.588-26.283,18.298-21.936,35.78c4.335,17.466,20.779,29.109,37.408,26.512
			C298.959,367.477,308.589,351.768,304.253,334.303L304.253,334.303z"/>
		<path style="fill:#507C5C;" d="M277.647,385.124c0,0-0.001,0-0.003,0c-21.764-0.001-41.531-15.993-47-38.023
			c-3.202-12.882-1.199-25.648,5.64-35.945c6.441-9.698,16.49-16.05,28.293-17.889c2.283-0.357,4.621-0.539,6.942-0.539
			c21.753,0,41.515,15.996,46.991,38.032c3.199,12.889,1.194,25.652-5.642,35.943c-6.44,9.692-16.488,16.043-28.296,17.885
			C282.29,384.944,279.959,385.124,277.647,385.124z M271.519,322.107c-0.805,0-1.616,0.063-2.41,0.188
			c-3.619,0.564-6.504,2.333-8.353,5.116c-2.222,3.343-2.789,7.822-1.6,12.609c2.262,9.114,10.037,15.727,18.489,15.727
			c0.001,0,0.001,0,0.001,0c0.801,0,1.605-0.062,2.396-0.185c3.621-0.566,6.509-2.334,8.355-5.115
			c2.221-3.34,2.788-7.817,1.601-12.604C287.732,328.727,279.961,322.107,271.519,322.107z"/>
		<path style="fill:#507C5C;" d="M409.983,512c-13.449,0-26.415-3.337-38.02-9.728C360.35,508.663,347.386,512,333.947,512
			c-43.725,0-79.296-35.567-79.296-79.285c0-28.899,15.729-55.29,40.666-69.224c9.088-34.591,40.18-58.955,76.652-58.955
			c36.469,0,67.555,24.369,76.639,58.965c16.25,9.12,29.019,23.852,35.614,41.362c2.858,7.591-0.977,16.064-8.569,18.924
			c-7.59,2.857-16.065-0.977-18.924-8.569c-4.739-12.581-14.537-22.888-26.885-28.279c-4.577-1.998-7.825-6.185-8.622-11.113
			c-3.87-23.893-25.044-41.91-49.253-41.91c-24.217,0-45.398,18.019-49.269,41.91c-0.798,4.928-4.045,9.114-8.621,11.112
			c-18.255,7.972-30.049,25.939-30.049,45.777c0,27.518,22.393,49.908,49.918,49.908c10.617,0,20.765-3.318,29.351-9.593
			c5.165-3.778,12.181-3.775,17.346,0.006c8.568,6.274,18.712,9.587,29.339,9.587c12.272,0,24.081-4.517,33.247-12.72
			c6.046-5.407,15.331-4.896,20.742,1.15c5.41,6.046,4.894,15.332-1.15,20.742C448.26,504.825,429.494,512,409.983,512z"/>
		<path style="fill:#CFF09E;" d="M101.162,100.706c21.174,0,38.38-19.288,38.38-43.007s-17.206-43.01-38.38-43.01
			c-21.171,0-38.377,19.291-38.377,43.01C62.784,81.418,79.991,100.706,101.162,100.706L101.162,100.706z"/>
		<path style="fill:#507C5C;" d="M101.162,115.396c-29.261,0-53.068-25.883-53.068-57.696C48.094,25.883,71.9,0,101.162,0
			c29.263,0,53.069,25.883,53.069,57.699C154.231,89.512,130.425,115.396,101.162,115.396z M101.162,29.378
			c-13.063,0-23.69,12.704-23.69,28.321c0,15.616,10.627,28.318,23.69,28.318c13.064,0,23.691-12.703,23.691-28.318
			C124.853,42.082,114.226,29.378,101.162,29.378z"/>
		<path style="fill:#CFF09E;" d="M183.028,100.706c21.137,0,38.377-19.288,38.377-43.007s-17.23-43.01-38.377-43.01
			c-21.171,0-38.392,19.291-38.392,43.01S161.857,100.706,183.028,100.706L183.028,100.706z"/>
		<path style="fill:#507C5C;" d="M183.028,115.396c-29.269,0-53.081-25.883-53.081-57.696c0-31.817,23.812-57.7,53.081-57.7
			c29.261,0,53.068,25.883,53.068,57.699C236.094,89.512,212.288,115.396,183.028,115.396z M183.028,29.378
			c-13.069,0-23.703,12.704-23.703,28.321c0,15.616,10.633,28.318,23.703,28.318c13.063,0,23.69-12.703,23.69-28.318
			C206.717,42.082,196.089,29.378,183.028,29.378z"/>
		<path style="fill:#CFF09E;" d="M245.16,86.615c-16.651-2.606-33.073,9.037-37.408,26.521c-4.346,17.465,5.284,33.175,21.936,35.772
			c16.629,2.597,33.073-9.045,37.417-26.512C271.44,104.922,261.788,89.203,245.16,86.615L245.16,86.615z"/>
		<path style="fill:#507C5C;" d="M234.354,163.957c-0.001,0-0.001,0-0.003,0c-2.312,0-4.645-0.181-6.929-0.538
			c-11.811-1.842-21.863-8.196-28.301-17.894c-6.833-10.292-8.831-23.055-5.624-35.939c5.461-22.027,25.221-38.026,46.979-38.026
			c2.321,0,4.661,0.182,6.952,0.541c11.788,1.835,21.835,8.183,28.277,17.876c6.843,10.297,8.851,23.064,5.655,35.954
			C275.882,147.967,256.11,163.957,234.354,163.957z M240.477,100.94c-8.442,0-16.209,6.616-18.468,15.73
			c-1.194,4.797-0.629,9.27,1.588,12.609c1.848,2.784,4.737,4.552,8.355,5.115c0.792,0.125,1.6,0.187,2.4,0.187
			c8.452,0,16.231-6.616,18.499-15.73c1.187-4.783,0.615-9.263-1.61-12.609c-1.849-2.784-4.734-4.551-8.34-5.112
			C242.093,101.003,241.282,100.94,240.477,100.94z"/>
		<path style="fill:#CFF09E;" d="M76.442,113.136C72.099,95.652,55.677,84.01,39.025,86.615c-16.62,2.588-26.283,18.298-21.936,35.78
			c4.335,17.466,20.78,29.109,37.408,26.512C71.148,146.31,80.777,130.601,76.442,113.136L76.442,113.136z"/>
		<path style="fill:#507C5C;" d="M49.835,163.957L49.835,163.957C28.066,163.956,8.3,147.964,2.832,125.931
			c-3.202-12.879-1.199-25.647,5.64-35.943c6.442-9.698,16.491-16.05,28.295-17.888c2.281-0.357,4.621-0.539,6.942-0.539
			c21.754,0,41.516,15.996,46.989,38.032c3.199,12.886,1.194,25.651-5.642,35.942c-6.438,9.692-16.487,16.043-28.296,17.886
			C54.478,163.777,52.147,163.957,49.835,163.957z M43.708,100.94c-0.805,0-1.617,0.063-2.412,0.188
			c-3.619,0.564-6.504,2.333-8.353,5.115c-2.222,3.345-2.789,7.822-1.601,12.607c2.264,9.117,10.038,15.73,18.492,15.73l0,0
			c0.801,0,1.607-0.062,2.396-0.185c3.619-0.566,6.509-2.334,8.356-5.116c2.219-3.34,2.786-7.817,1.6-12.604
			C59.922,107.558,52.15,100.94,43.708,100.94z"/>
		<path style="fill:#507C5C;" d="M182.172,290.831c-13.449,0-26.415-3.337-38.02-9.727c-11.61,6.39-24.574,9.727-38.014,9.727
			c-43.725,0-79.297-35.567-79.297-79.285c0-28.9,15.729-55.291,40.666-69.224c9.089-34.589,40.18-58.953,76.652-58.953
			c36.469,0,67.555,24.369,76.639,58.965c16.25,9.12,29.019,23.852,35.614,41.362c2.858,7.591-0.977,16.064-8.569,18.924
			c-7.588,2.857-16.065-0.977-18.924-8.569c-4.739-12.581-14.537-22.888-26.885-28.279c-4.577-1.998-7.825-6.185-8.622-11.114
			c-3.87-23.893-25.044-41.91-49.253-41.91c-24.217,0-45.399,18.019-49.269,41.91c-0.798,4.93-4.047,9.116-8.622,11.114
			c-18.254,7.969-30.047,25.936-30.047,45.775c0,27.518,22.394,49.908,49.92,49.908c10.618,0,20.767-3.317,29.348-9.592
			c5.167-3.776,12.183-3.776,17.347,0.006c8.566,6.272,18.711,9.586,29.339,9.586c12.299,0,24.126-4.534,33.299-12.765
			c6.036-5.417,15.326-4.918,20.742,1.122c5.419,6.037,4.916,15.325-1.122,20.742C220.518,283.631,201.724,290.831,182.172,290.831z"
		/>
    </symbol>

	<symbol id="how01" role="img" aria-labelledby="how01_title" viewBox="0 0 512 512">
        <title id="how01_title"></title>
        <polygon style="fill:#B8860B;" points="385.518,289.025 385.518,311.609 319.82,358.012 256.662,294.854 255.338,294.854 
			192.18,358.012 126.482,311.609 126.482,289.025 192.445,191.901 255.999,98.348 319.555,191.901 "/>
		<path style="fill:#271613;" d="M255.999,0C114.842,0,0,114.842,0,255.999s114.842,255.999,255.999,255.999
			c48.979,0,96.587-13.88,137.676-40.137c5.181-3.31,6.554-9.874,6.532-15.024V311.614c0-0.028-0.006-0.054-0.006-0.082v-22.507
			c0-2.941-0.884-5.817-2.537-8.25l-65.889-97.004c-0.026-0.04-0.047-0.081-0.073-0.12l-63.555-93.555
			c-2.734-4.024-7.282-6.433-12.147-6.433s-9.413,2.41-12.147,6.433l-63.555,93.555c-0.023,0.035-0.041,0.072-0.065,0.106
			l-65.9,97.018c-1.652,2.435-2.537,5.308-2.537,8.251v22.507c0,0.028-0.006,0.054-0.006,0.082v119.087
			c-50.309-41.6-82.421-104.47-82.421-174.701c0-124.964,101.667-226.63,226.63-226.63s226.63,101.667,226.63,226.63
			c0,18.676-2.275,37.24-6.761,55.176c-1.968,7.866,2.815,15.84,10.683,17.808c7.864,1.968,15.84-2.814,17.808-10.683
			c5.069-20.263,7.639-41.225,7.639-62.302C512,114.842,397.158,0,255.999,0z M321.56,372.585c0.2-0.024,0.401-0.046,0.599-0.078
			c0.204-0.032,0.405-0.075,0.608-0.116c0.184-0.038,0.369-0.076,0.551-0.12c0.209-0.051,0.417-0.109,0.624-0.169
			c0.173-0.05,0.344-0.104,0.515-0.162c0.211-0.07,0.423-0.144,0.633-0.225c0.16-0.062,0.319-0.129,0.476-0.197
			c0.216-0.093,0.432-0.184,0.645-0.288c0.138-0.068,0.273-0.142,0.41-0.213c0.228-0.119,0.455-0.236,0.678-0.367
			c0.06-0.037,0.119-0.078,0.179-0.115c0.275-0.169,0.551-0.335,0.816-0.523l42.542-30.046v111.457
			c-30.511,17.968-64.744,28.441-100.154,30.717V329.646l38.751,38.751c0.101,0.101,0.211,0.186,0.314,0.283
			c0.236,0.223,0.471,0.445,0.718,0.649c0.157,0.131,0.323,0.247,0.485,0.369c0.21,0.16,0.419,0.32,0.634,0.467
			c0.172,0.117,0.349,0.222,0.526,0.332c0.217,0.134,0.433,0.267,0.656,0.388c0.181,0.098,0.363,0.189,0.546,0.28
			c0.229,0.113,0.458,0.222,0.692,0.322c0.184,0.079,0.367,0.154,0.552,0.225c0.244,0.094,0.49,0.179,0.739,0.26
			c0.179,0.059,0.36,0.116,0.54,0.167c0.267,0.075,0.537,0.138,0.808,0.198c0.166,0.037,0.33,0.078,0.498,0.109
			c0.314,0.059,0.63,0.1,0.947,0.138c0.126,0.015,0.253,0.037,0.38,0.048c0.579,0.053,1.16,0.066,1.742,0.05
			c0.257-0.007,0.515-0.013,0.772-0.034C321.178,372.635,321.369,372.607,321.56,372.585z M299.034,187.835
			c-13.109,7.209-27.758,10.968-43.033,10.968c-15.275,0-29.924-3.761-43.033-10.969l43.033-63.355L299.034,187.835z M141.166,293.54
			l55.247-81.337c18.027,10.479,38.35,15.969,59.585,15.969s41.559-5.491,59.585-15.969l55.247,81.337v10.463l-49.378,34.876
			l-54.41-54.41c-2.753-2.753-6.489-4.301-10.383-4.301h-1.323c-3.894,0-7.63,1.548-10.383,4.301l-54.41,54.41l-49.378-34.876V293.54
			H141.166z M141.161,339.964l42.542,30.046c4.38,3.093,9.953,3.483,14.599,1.352c1.551-0.711,2.997-1.7,4.261-2.965l38.751-38.751
			v152.497c-36.369-2.338-70.425-13.288-100.154-30.836L141.161,339.964L141.161,339.964z"/>
    </symbol>

    <symbol id="how02" role="img" aria-labelledby="how02_title" viewBox="0 0 512 512">
        <title id="how02_title"></title>
        <path style="fill:#271613;" d="M497.497,512H14.503c-8.009,0-14.502-6.493-14.502-14.502V14.502C0.001,6.493,6.495,0,14.503,0
			h482.995c8.009,0,14.502,6.493,14.502,14.502v385.151c0,8.009-6.493,14.502-14.502,14.502s-14.502-6.493-14.502-14.502V29.004
			H29.005v453.992h468.493c8.009,0,14.502,6.493,14.502,14.502S505.507,512,497.497,512z"/>
		<path style="fill:#271613;" d="M427.065,441.568H84.935c-8.009,0-14.502-6.493-14.502-14.502V154.242
			c0-8.009,6.493-14.502,14.502-14.502c8.009,0,14.502,6.493,14.502,14.502v258.323h313.127V99.436H84.935
			c-8.009,0-14.502-6.493-14.502-14.502s6.493-14.502,14.502-14.502h342.131c8.009,0,14.502,6.493,14.502,14.502v342.132
			C441.567,435.076,435.075,441.568,427.065,441.568z"/>
		<path style="fill:#B8860B;" d="M157.444,354.556h197.111V157.444H157.444V354.556z"/>
		<path style="fill:#271613;" d="M354.556,369.058H157.444c-8.009,0-14.502-6.493-14.502-14.502V157.444
			c0-8.009,6.493-14.502,14.502-14.502h197.111c8.009,0,14.502,6.493,14.502,14.502v197.113
			C369.058,362.566,362.565,369.058,354.556,369.058z M171.946,340.054h168.107V171.946H171.946V340.054z"/>
    </symbol>

    <symbol id="how03" role="img" aria-labelledby="how03_title" viewBox="0 0 512 512">
        <title id="how03_title"></title>
        <circle style="fill:#B8860B;" cx="255.999" cy="256" r="112.533"/>
		<path style="fill:#271613;" d="M256.001,382.601c-69.807,0-126.6-56.793-126.6-126.6s56.793-126.6,126.6-126.6
			s126.6,56.793,126.6,126.6S325.808,382.601,256.001,382.601z M256.001,157.535c-54.295,0-98.467,44.172-98.467,98.467
			s44.172,98.467,98.467,98.467s98.467-44.172,98.467-98.467S310.295,157.535,256.001,157.535z"/>
		<path style="fill:#271613;" d="M279.385,512.001h-46.77c-16.208,0-29.394-13.186-29.394-29.394v-19.214
			c-19.925-5.042-38.866-12.891-56.545-23.432l-13.593,13.594c-5.493,5.493-14.4,5.493-19.894,0c-5.494-5.493-5.493-14.4,0-19.895
			l21.552-21.552c4.755-4.753,12.207-5.48,17.79-1.73c20.54,13.797,43.238,23.202,67.465,27.956
			c6.599,1.296,11.357,7.08,11.357,13.804v30.468c0,0.695,0.565,1.26,1.26,1.26h46.77c0.695,0,1.26-0.565,1.26-1.26v-30.468
			c0-6.724,4.759-12.508,11.357-13.804c24.227-4.755,46.926-14.16,67.465-27.956c5.583-3.749,13.037-3.023,17.79,1.73l21.552,21.552
			c0.491,0.492,1.29,0.491,1.781,0l33.072-33.072c0.491-0.491,0.491-1.29,0-1.781l-21.552-21.552
			c-4.753-4.755-5.479-12.208-1.73-17.79c13.797-20.54,23.202-43.238,27.956-67.465c1.296-6.599,7.08-11.357,13.804-11.357h30.468
			c0.695,0,1.26-0.565,1.26-1.26v-46.77c0-0.695-0.565-1.26-1.26-1.26h-30.468c-6.724,0-12.508-4.759-13.804-11.357
			c-4.755-24.227-14.16-46.926-27.956-67.465c-3.749-5.582-3.023-13.036,1.73-17.79l21.552-21.552c5.493-5.493,14.4-5.493,19.895,0
			c5.494,5.493,5.493,14.4,0,19.894l-13.594,13.593c10.542,17.678,18.389,36.62,23.432,56.545h19.214
			c16.208,0,29.394,13.186,29.394,29.394v46.77c0,16.208-13.186,29.394-29.394,29.394h-19.214
			c-5.042,19.925-12.891,38.866-23.432,56.545l13.594,13.593c11.46,11.46,11.46,30.107,0,41.568l-33.072,33.072
			c-11.46,11.46-30.107,11.459-41.568,0l-13.593-13.594c-17.678,10.542-36.62,18.389-56.545,23.432v19.214
			C308.779,498.816,295.593,512.001,279.385,512.001z"/>
		<path style="fill:#271613;" d="M68.392,402.931c-3.6,0-7.201-1.373-9.947-4.12c-5.493-5.493-5.493-14.4,0-19.895l13.594-13.593
			c-10.542-17.678-18.389-36.62-23.432-56.545H29.394C13.186,308.78,0,295.593,0,279.386v-46.77
			c0-16.208,13.186-29.394,29.394-29.394h19.214c5.041-19.925,12.891-38.866,23.432-56.545l-13.594-13.593
			c-11.46-11.46-11.46-30.107,0-41.568l33.072-33.072c11.46-11.46,30.107-11.459,41.568,0l13.593,13.594
			c17.678-10.54,36.618-18.389,56.545-23.432V29.394c-0.001-16.208,13.183-29.394,29.391-29.394h46.77
			c16.208,0,29.394,13.186,29.394,29.394v19.214c19.927,5.043,38.868,12.892,56.545,23.432l13.593-13.594
			c5.493-5.493,14.4-5.493,19.895,0s5.493,14.4,0,19.894L377.26,99.892c-4.755,4.753-12.208,5.48-17.79,1.73
			c-20.539-13.795-43.237-23.2-67.465-27.956c-6.599-1.296-11.357-7.08-11.357-13.804V29.394c0-0.695-0.565-1.26-1.26-1.26h-46.77
			c-0.695,0-1.26,0.565-1.26,1.26v30.468c0,6.724-4.759,12.508-11.357,13.804c-24.228,4.755-46.928,14.161-67.465,27.956
			c-5.582,3.75-13.036,3.024-17.79-1.73L113.19,78.339c-0.491-0.494-1.29-0.492-1.781,0l-33.071,33.072
			c-0.491,0.491-0.491,1.29,0,1.781l21.552,21.552c4.753,4.755,5.479,12.208,1.73,17.79c-13.797,20.54-23.202,43.238-27.956,67.465
			c-1.296,6.599-7.08,11.357-13.804,11.357H29.392c-0.695,0-1.26,0.565-1.26,1.26v46.77c0,0.695,0.565,1.26,1.26,1.26h30.468
			c6.724,0,12.508,4.759,13.804,11.357c4.755,24.227,14.16,46.926,27.956,67.465c3.749,5.582,3.023,13.036-1.73,17.79l-21.552,21.552
			C75.591,401.558,71.992,402.931,68.392,402.931z"/>
    </symbol>

    <symbol id="how04" role="img" aria-labelledby="how04_title" viewBox="0 0 512 512">
        <title id="how04_title"></title>
        <path style="fill:#271613;" d="M256.001,125.572c-34.621,0-62.786-28.165-62.786-62.786S221.38,0,256.001,0
			s62.786,28.165,62.786,62.786S290.62,125.572,256.001,125.572z M256.001,28.539c-18.883,0-34.247,15.364-34.247,34.247
			s15.364,34.247,34.247,34.247s34.247-15.364,34.247-34.247S274.884,28.539,256.001,28.539z"/>
		<path style="fill:#271613;" d="M430.463,512H42.231c-19.71,0-35.745-16.035-35.745-35.747V105.943
			c0-19.71,16.035-35.745,35.745-35.745h427.539c19.71,0,35.745,16.035,35.745,35.745v310.335c0,7.88-6.39,14.27-14.27,14.27
			c-7.88,0-14.27-6.39-14.27-14.27V105.943c0-3.973-3.233-7.206-7.206-7.206H42.231c-3.974,0-7.206,3.233-7.206,7.206v370.311
			c0,3.974,3.233,7.208,7.206,7.208h388.232c7.88,0,14.27,6.39,14.27,14.27S438.344,512,430.463,512z"/>
		<path style="fill:#B8860B;" d="M491.245,157.286v-51.343c0-11.861-9.615-21.476-21.476-21.476H42.231
			c-11.861,0-21.476,9.615-21.476,21.476v51.343L491.245,157.286L491.245,157.286z"/>
		<path style="fill:#271613;" d="M491.245,171.557H20.755c-7.881,0-14.27-6.39-14.27-14.27v-51.345
			c0-19.71,16.036-35.745,35.745-35.745h427.539c19.71,0,35.745,16.035,35.745,35.745v51.343
			C505.514,165.167,499.125,171.557,491.245,171.557z M35.025,143.018h441.951v-37.075c0-3.973-3.233-7.206-7.206-7.206H42.231
			c-3.974,0-7.206,3.233-7.206,7.206C35.025,105.943,35.025,143.018,35.025,143.018z"/>
		<path style="fill:#B8860B;" d="M123.416,284.998h-7.61c-17.206,0-31.155-13.948-31.155-31.155l0,0
			c0-17.206,13.948-31.155,31.155-31.155h7.61c17.206,0,31.155,13.948,31.155,31.155l0,0
			C154.572,271.049,140.623,284.998,123.416,284.998z"/>
		<path style="fill:#271613;" d="M123.417,299.269h-7.61c-25.047,0-45.424-20.377-45.424-45.426
			c0-25.047,20.377-45.424,45.424-45.424h7.61c25.047,0,45.424,20.377,45.424,45.424S148.463,299.269,123.417,299.269z
			 M115.806,236.958c-9.311,0-16.885,7.576-16.885,16.885c0,9.311,7.576,16.887,16.885,16.887h7.61
			c9.311,0,16.885-7.576,16.885-16.887c0-9.309-7.574-16.885-16.885-16.885L115.806,236.958L115.806,236.958z"/>
		<path style="fill:#271613;" d="M290.961,299.269c-7.88,0-14.27-6.39-14.27-14.27v-48.041H235.31v48.041
			c0,7.88-6.388,14.27-14.27,14.27s-14.27-6.39-14.27-14.27v-62.311c0-7.88,6.388-14.27,14.27-14.27h69.921
			c7.88,0,14.27,6.39,14.27,14.27v62.311C305.231,292.879,298.841,299.269,290.961,299.269z"/>
		<rect x="357.423" y="222.69" style="fill:#B8860B;" width="69.921" height="62.311"/>
		<path style="fill:#271613;" d="M427.35,299.269H357.43c-7.88,0-14.27-6.39-14.27-14.27v-62.311c0-7.88,6.39-14.27,14.27-14.27
			h69.921c7.88,0,14.27,6.39,14.27,14.27v62.311C441.62,292.879,435.23,299.269,427.35,299.269z M371.699,270.73h41.382v-33.772
			h-41.382V270.73z"/>
		<rect x="84.647" y="353.969" style="fill:#B8860B;" width="69.921" height="62.311"/>
		<path style="fill:#271613;" d="M154.572,430.548H84.651c-7.881,0-14.27-6.39-14.27-14.27v-62.311c0-7.88,6.388-14.27,14.27-14.27
			h69.921c7.881,0,14.27,6.39,14.27,14.27v62.311C168.841,424.158,162.451,430.548,154.572,430.548z M98.921,402.009h41.382v-33.772
			H98.921V402.009z"/>
		<path style="fill:#B8860B;" d="M259.805,416.277h-7.61c-17.206,0-31.155-13.948-31.155-31.155l0,0
			c0-17.206,13.948-31.155,31.155-31.155h7.61c17.206,0,31.155,13.948,31.155,31.155l0,0
			C290.961,402.329,277.011,416.277,259.805,416.277z"/>
		<path style="fill:#271613;" d="M259.806,430.548h-7.61c-25.047,0-45.424-20.377-45.424-45.426
			c0-25.047,20.377-45.424,45.424-45.424h7.61c25.047,0,45.424,20.377,45.424,45.424C305.231,410.17,284.852,430.548,259.806,430.548
			z M252.195,368.238c-9.311,0-16.885,7.576-16.885,16.885c0,9.311,7.576,16.887,16.885,16.887h7.61
			c9.309,0,16.885-7.576,16.885-16.887c0-9.309-7.576-16.885-16.885-16.885L252.195,368.238L252.195,368.238z"/>
		<path style="fill:#271613;" d="M427.35,430.548c-7.88,0-14.27-6.39-14.27-14.27v-48.041h-41.382v48.041
			c0,7.88-6.39,14.27-14.27,14.27c-7.88,0-14.27-6.39-14.27-14.27v-62.311c0-7.88,6.39-14.27,14.27-14.27h69.921
			c7.88,0,14.27,6.39,14.27,14.27v62.311C441.62,424.158,435.23,430.548,427.35,430.548z"/>
    </symbol>

    <symbol id="how05" role="img" aria-labelledby="how05_title" viewBox="0 0 512 512">
        <title id="how05_title"></title>
        <path style="fill:#271613;" d="M342.844,338.234c-43.316,0-86.635-16.489-119.612-49.465c-65.953-65.954-65.953-173.271,0-239.225
			c23.06-23.06,52.029-38.868,83.776-45.717c30.896-6.663,62.932-4.595,92.651,5.978c4.957,1.764,8.666,5.945,9.822,11.081
			c1.158,5.134-0.397,10.502-4.118,14.224L358.9,81.574c-5.993,5.991-15.705,5.993-21.699,0c-5.991-5.991-5.991-15.706,0-21.698
			l27.439-27.439c-43.262-6.788-88.19,7.285-119.709,38.805c-53.99,53.99-53.99,141.838,0,195.828
			c53.991,53.993,141.84,53.988,195.829,0c31.522-31.522,45.591-76.459,38.805-119.709l-82.721,82.721
			c-5.993,5.991-15.705,5.991-21.699,0l-93.226-93.226c-5.991-5.991-5.991-15.706,0-21.699c5.993-5.991,15.705-5.991,21.699,0
			l82.375,82.377l90.897-90.897c3.722-3.722,9.097-5.278,14.224-4.118c5.135,1.157,9.316,4.865,11.081,9.824
			c10.576,29.719,12.642,61.756,5.978,92.651c-6.849,31.746-22.657,60.715-45.715,83.775
			C429.48,321.745,386.161,338.234,342.844,338.234z"/>
		<path style="fill:#B8860B;" d="M234.082,277.919c-16.684-16.684-28.716-36.252-36.132-57.094l-163.3,163.3
			c-25.744,25.744-25.744,67.482,0,93.226l0,0c25.744,25.744,67.482,25.744,93.226,0l163.3-163.3
			C270.332,306.636,250.766,294.602,234.082,277.919z"/>
		<path style="fill:#271613;" d="M81.263,512.001c-21.707,0-42.113-8.454-57.462-23.803C8.452,472.851-0.002,452.445,0,430.738
			c-0.002-21.705,8.452-42.113,23.801-57.462l163.3-163.3c3.722-3.722,9.089-5.278,14.224-4.118c5.135,1.157,9.316,4.865,11.081,9.822
			c6.915,19.432,17.859,36.721,32.527,51.389c14.669,14.669,31.959,25.612,51.388,32.527c4.957,1.764,8.666,5.947,9.822,11.081
			c1.158,5.134-0.397,10.502-4.118,14.224l-163.3,163.298C123.376,503.548,102.969,512.001,81.263,512.001z M192.907,247.565
			L45.499,394.974c-9.552,9.554-14.813,22.255-14.813,35.764c0,13.509,5.261,26.21,14.813,35.764
			c9.552,9.554,22.253,14.815,35.764,14.815c13.509,0,26.21-5.261,35.764-14.815l147.409-147.408
			c-15.119-7.891-28.918-18.039-41.203-30.325C210.947,276.483,200.797,262.685,192.907,247.565z"/>
    </symbol>

    <symbol id="how06" role="img" aria-labelledby="how06_title" viewBox="0 0 512 512">
        <title id="how06_title"></title>
        <path style="fill:#B8860B;" d="M293.603,448.684H82.471c-37.966,0-68.744-30.777-68.744-68.743l0,0
			c0-37.966,30.777-68.744,68.744-68.744h211.132c37.966,0,68.744,30.777,68.744,68.744l0,0
			C362.346,417.906,331.568,448.684,293.603,448.684z"/>
		<path style="fill:#B8860B;" d="M266.563,407.466c-15.202,0-27.525-12.324-27.525-27.525s12.324-27.525,27.525-27.525
			s27.525,12.324,27.525,27.525"/>
		<path style="fill:#271613;" d="M266.563,421.192c-22.746,0-41.253-18.506-41.253-41.253s18.506-41.252,41.253-41.252
			s41.253,18.505,41.253,41.252c0,7.58-6.147,13.726-13.726,13.726c-7.58,0-13.726-6.147-13.726-13.726
			c0-7.609-6.191-13.799-13.8-13.799s-13.8,6.191-13.8,13.799c0,7.61,6.191,13.8,13.8,13.8c7.58,0,13.726,6.147,13.726,13.726
			C280.289,415.046,274.144,421.192,266.563,421.192z"/>
		<path style="fill:#B8860B;" d="M109.51,407.466c-15.202,0-27.525-12.324-27.525-27.525s12.324-27.525,27.525-27.525
			s27.525,12.324,27.525,27.525"/>
		<path style="fill:#271613;" d="M109.509,421.192c-22.746,0-41.252-18.506-41.252-41.253s18.505-41.252,41.252-41.252
			s41.253,18.505,41.253,41.252c0,7.58-6.147,13.726-13.726,13.726c-7.58,0-13.726-6.147-13.726-13.726
			c0-7.609-6.191-13.799-13.8-13.799c-7.609,0-13.799,6.191-13.799,13.799c0,7.61,6.191,13.8,13.799,13.8
			c7.58,0,13.726,6.147,13.726,13.726C123.235,415.046,117.09,421.192,109.509,421.192z"/>
		<path style="fill:#B8860B;" d="M478.508,332.288l-35.511-47.264l-57.981,11.537l16.435-43.007
			c9.866-25.818,38.793-38.749,64.611-28.883l0,0c25.818,9.867,38.75,38.793,28.883,64.611L478.508,332.288z"/>
		<path style="fill:#271613;" d="M373.356,129.207c-21.95,0-39.808-17.858-39.808-39.809c0-21.95,17.858-39.808,39.808-39.808
			c21.951,0,39.809,17.858,39.809,39.808C413.165,111.349,395.307,129.207,373.356,129.207z M373.356,77.042
			c-6.812,0-12.355,5.543-12.355,12.355c0,6.814,5.543,12.356,12.355,12.356c6.814,0,12.356-5.543,12.356-12.356
			C385.712,82.585,380.169,77.042,373.356,77.042z"/>
		<path style="fill:#271613;" d="M293.601,297.47H82.471c-0.489,0-0.972,0.029-1.459,0.037V94.795h137.722l46.871,112.547h-81.687
			c-7.58,0-13.726,6.147-13.726,13.726s6.147,13.726,13.726,13.726h102.136c0.051,0,0.102,0,0.152,0h29.726
			c5.677,0,10.768-3.495,12.808-8.79l27.527-71.443c2.726-7.075-0.799-15.018-7.872-17.744c-7.076-2.727-15.019,0.8-17.744,7.872
			l-24.139,62.653h-11.168L240.559,75.791c-2.132-5.117-7.128-8.449-12.671-8.449H67.287c-7.58,0-13.726,6.147-13.726,13.726v221.645
			C22.305,314.452,0,344.635,0,379.939c0,45.474,36.997,82.471,82.471,82.471h211.131c45.474,0,82.471-36.997,82.471-82.471
			S339.075,297.47,293.601,297.47z M293.601,434.957H82.471c-30.338,0-55.018-24.68-55.018-55.018
			c0-30.337,24.68-55.017,55.018-55.017h211.131c30.338,0,55.018,24.68,55.018,55.017
			C348.621,410.277,323.939,434.957,293.601,434.957z"/>
		<path style="fill:#271613;" d="M506.413,245.391c-5.208-11.65-13.584-21.258-24.147-27.902l16.247-64.478
			c1.482-5.886-1.076-12.048-6.295-15.151l-51.485-30.621c-6.515-3.874-14.938-1.734-18.813,4.781
			c-3.875,6.515-1.735,14.938,4.781,18.813l42.69,25.39l-13.087,51.936c-2.679-0.345-5.381-0.528-8.099-0.528
			c-26.261,0-50.204,16.485-59.579,41.021l-16.435,43.007c-1.784,4.667-0.889,9.935,2.332,13.754
			c3.224,3.819,8.274,5.587,13.168,4.608l49.515-9.853l30.326,40.362c2.613,3.478,6.694,5.481,10.973,5.481
			c0.634,0,1.274-0.044,1.913-0.135c4.947-0.696,9.127-4.025,10.91-8.693l16.436-43.007
			C513.845,278.268,513.364,260.941,506.413,245.391z M482.12,284.38l-7.566,19.796l-20.585-27.399
			c-2.623-3.491-6.709-5.481-10.973-5.481c-0.888,0-1.787,0.086-2.679,0.264l-33.612,6.687l7.565-19.796
			c5.342-13.976,18.979-23.366,33.937-23.366c4.417,0,8.777,0.81,12.955,2.406c9.062,3.463,16.231,10.248,20.191,19.104
			C485.31,265.45,485.584,275.32,482.12,284.38z"/>
    </symbol>

    <symbol id="footer-right" role="img" aria-labelledby="footer-right_title" viewBox="0 0 512 512">
        <title id="footer-right_title"></title>
        <path d="M101.682,0v512l308.636-256L101.682,0z M141.593,84.957L347.804,256L141.593,427.043V84.957z"/>
    </symbol>
  
    <symbol id="footer-phone" role="img" aria-labelledby="footer-phone_title" viewBox="0 0 512 512">
        <title id="footer-phone_title"></title>
        <path d="M421.216,195.504c-5.092-26.101-17.723-49.836-36.526-68.64c-18.804-18.803-42.54-31.434-68.641-36.527
			c-11.21-2.189-22.073,5.128-24.261,16.339c-2.187,11.212,5.128,22.073,16.339,24.26c36.847,7.188,65.3,35.642,72.489,72.489
			c1.927,9.874,10.581,16.726,20.278,16.726c1.313,0,2.645-0.125,3.984-0.387C416.088,217.577,423.403,206.715,421.216,195.504z"/>
		<path d="M511.422,196.929c-5.629-50.096-28.373-97.304-64.042-132.927C411.712,28.378,364.475,5.694,314.371,0.128
			c-11.355-1.261-21.578,6.92-22.839,18.272c-1.261,11.353,6.919,21.578,18.272,22.84c84.961,9.438,150.966,75.36,160.512,160.31
			c1.188,10.566,10.139,18.374,20.527,18.374c0.771,0,1.552-0.043,2.336-0.131C504.53,218.516,512.698,208.281,511.422,196.929z"/>
		<path d="M432.59,312.566c-0.062-0.008-0.124-0.017-0.186-0.025c-20.013-2.639-39.751-7.557-58.619-14.596
			c-23.91-8.99-51.103-3.191-69.27,14.772c-0.028,0.028-0.056,0.055-0.083,0.083l-17.148,17.148
			c-42.633-26.924-78.756-63.047-105.679-105.679l17.149-17.149c0.027-0.028,0.054-0.055,0.082-0.083
			c17.964-18.166,23.762-45.356,14.79-69.223c-7.057-18.914-11.974-38.653-14.614-58.666c-0.007-0.063-0.017-0.127-0.026-0.19
			c-4.591-32.478-32.782-56.734-65.548-56.467H66.053c-1.943,0.002-3.912,0.091-5.853,0.267
			C24.143,26.016-2.541,58.001,0.718,94.058c0.01,0.108,0.02,0.215,0.032,0.323c7.684,72.354,32.649,142.88,72.197,203.955
			c35.892,56.461,84.701,105.269,141.162,141.164c60.792,39.406,130.99,64.369,203.013,72.196c0.127,0.015,0.254,0.027,0.38,0.038
			c1.961,0.176,3.949,0.266,5.921,0.266c0.083,0,0.165,0,0.247,0.001c36.204-0.148,65.538-29.722,65.391-65.841v-67.233
			C489.746,345.714,465.515,317.211,432.59,312.566z M447.698,378.695v67.548c0.055,13.396-10.8,24.338-24.19,24.393
			c-0.715-0.004-1.425-0.027-2.135-0.086c-65.578-7.161-129.488-29.914-184.837-65.808c-0.053-0.035-0.107-0.069-0.161-0.103
			c-51.429-32.68-95.885-77.137-128.565-128.565c-0.032-0.051-0.064-0.101-0.097-0.153C71.683,220.306,48.928,156.086,41.902,90.193
			C40.779,76.91,50.63,65.155,63.923,63.954c0.717-0.064,1.443-0.098,2.145-0.098h67.463c0.146-0.001,0.294-0.003,0.443-0.002
			c12.021,0,22.322,8.905,24.044,20.819c3.05,23.063,8.721,45.806,16.871,67.649c3.319,8.832,1.189,18.869-5.427,25.591
			l-28.517,28.517c-6.583,6.582-7.956,16.753-3.354,24.847c33.837,59.508,83.177,108.847,142.685,142.685
			c8.094,4.6,18.264,3.23,24.848-3.355l28.512-28.512c6.72-6.621,16.765-8.752,25.642-5.415
			c21.799,8.134,44.547,13.805,67.61,16.855c12.18,1.757,21.122,12.339,20.816,24.647
			C447.7,378.353,447.698,378.524,447.698,378.695z"/>
    </symbol>

	<symbol id="footer-mail" role="img" aria-labelledby="footer-mail_title" viewBox="0 0 512 512">
        <title id="footer-mail_title"></title>
        <path d="M256,141.176c-63.306,0-114.809,51.503-114.809,114.809S192.694,370.795,256,370.795s114.809-51.503,114.809-114.809
			S319.306,141.176,256,141.176z M256,329.43c-40.498,0-73.445-32.947-73.445-73.445c0-40.498,32.947-73.445,73.445-73.445
			c40.499,0,73.445,32.947,73.445,73.445C329.445,296.483,296.499,329.43,256,329.43z"/>
		<path d="M437.008,74.97C388.656,26.623,324.375,0,256,0c-0.005,0-0.013,0-0.017,0C187.603,0.004,123.318,26.637,74.97,74.992
			C26.62,123.347-0.005,187.637,0,256.017c0.004,68.379,26.637,132.666,74.992,181.014C123.344,485.377,187.625,512.001,256,512
			c0.004,0,0.012,0,0.017,0c55.945-0.004,111.216-18.738,155.631-52.752c9.07-6.945,10.792-19.927,3.846-28.995
			c-6.945-9.069-19.926-10.794-28.995-3.846c-37.24,28.518-83.58,44.224-130.486,44.228c-0.006,0-0.006,0-0.014,0
			c-57.324,0-111.224-22.324-151.761-62.856c-40.542-40.536-62.871-94.435-62.875-151.766
			C41.357,137.663,137.636,41.372,255.986,41.364c0.007,0,0.006,0,0.014,0c118.34,0,214.628,96.279,214.636,214.622v23.532
			c0,27.523-22.39,49.913-49.913,49.913c-27.523,0-49.913-22.391-49.913-49.913v-23.532c0-11.422-9.259-20.682-20.682-20.682
			s-20.682,9.26-20.682,20.682v23.532c0,50.33,40.947,91.278,91.278,91.278S512,329.848,512,279.518v-23.534
			C511.995,187.604,485.362,123.318,437.008,74.97z"/>
    </symbol>

    <symbol id="footer-time" role="img" aria-labelledby="footer-time_title" viewBox="0 0 512 512">
        <title id="footer-time_title"></title>
        <path d="M437.019,74.981C388.667,26.629,324.38,0,256,0S123.333,26.63,74.981,74.981S0,187.62,0,256
			s26.629,132.667,74.981,181.019C123.332,485.371,187.62,512,256,512s132.667-26.629,181.019-74.981
			C485.371,388.667,512,324.38,512,256S485.371,123.332,437.019,74.981z M256,470.636C137.65,470.636,41.364,374.35,41.364,256
			S137.65,41.364,256,41.364S470.636,137.65,470.636,256S374.35,470.636,256,470.636z"/>
		<path d="M341.221,311.97l-64.538-64.537V114.809c0-11.422-9.259-20.682-20.682-20.682c-11.422,0-20.682,9.26-20.682,20.682V256
			c0,5.486,2.179,10.746,6.058,14.625l70.594,70.595c4.038,4.039,9.332,6.058,14.625,6.058c5.293,0,10.586-2.019,14.626-6.058
			C349.297,333.142,349.297,320.047,341.221,311.97z"/>
	</symbol>

    <symbol id="footer-location" role="img" aria-labelledby="footer-location_title" viewBox="0 0 512 512">
        <title id="footer-location_title"></title>
        <path d="M406.766,62.449C366.495,22.178,312.951,0,256,0S145.505,22.178,105.234,62.449
			c-40.272,40.271-62.449,93.814-62.449,150.766c0,37.656,10.972,76.863,32.609,116.532c16.825,30.846,40.15,62.102,69.326,92.898
			c49.17,51.903,97.763,84.519,99.808,85.881C248.001,510.842,252,512,256,512c4,0,7.999-1.158,11.473-3.474
			c2.045-1.363,50.638-33.978,99.808-85.881c29.176-30.795,52.501-62.051,69.326-92.898c21.637-39.669,32.609-78.876,32.609-116.532
			C469.215,156.263,447.038,102.72,406.766,62.449z M256.001,465.903C215.826,436.156,84.15,329.739,84.15,213.215
			c0-94.759,77.091-171.851,171.85-171.851s171.85,77.092,171.851,171.851C427.851,329.748,296.159,436.168,256.001,465.903z"/>
		<path d="M256,128.355c-46.791,0-84.86,38.068-84.86,84.86c0,46.791,38.068,84.86,84.86,84.86c46.792,0,84.861-38.068,84.86-84.86
			C340.86,166.423,302.791,128.355,256,128.355z M256,256.71c-23.983,0-43.495-19.512-43.495-43.495
			c0-23.983,19.512-43.495,43.495-43.495c23.984,0,43.495,19.512,43.495,43.495C299.495,237.198,279.984,256.71,256,256.71z"/>
	</symbol>

	<symbol id="footer-facebook" role="img" aria-labelledby="footer-facebook_title" viewBox="0 0 512 512">
        <title id="footer-facebook_title">Facebook</title>
        <path d="M296.296,512H200.36V256h-64v-88.225l64-0.029l-0.104-51.976C200.256,43.794,219.773,0,304.556,0h70.588v88.242h-44.115
		c-33.016,0-34.604,12.328-34.604,35.342l-0.131,44.162h79.346l-9.354,88.225L296.36,256L296.296,512z"/>
    </symbol>

    <symbol id="footer-twitter" role="img" aria-labelledby="footer-twitter_title" viewBox="0 0 512 512">
        <title id="footer-twitter_title">Twitter</title>
        <path d="M512.002,97.211c-18.84,8.354-39.082,14.001-60.33,16.54c21.686-13,38.342-33.585,46.186-58.115
		c-20.299,12.039-42.777,20.78-66.705,25.49c-19.16-20.415-46.461-33.17-76.674-33.17c-58.011,0-105.042,47.029-105.042,105.039
		c0,8.233,0.929,16.25,2.72,23.939c-87.3-4.382-164.701-46.2-216.509-109.753c-9.042,15.514-14.223,33.558-14.223,52.809
		c0,36.444,18.544,68.596,46.73,87.433c-17.219-0.546-33.416-5.271-47.577-13.139c-0.01,0.438-0.01,0.878-0.01,1.321
		c0,50.894,36.209,93.348,84.261,103c-8.813,2.399-18.094,3.687-27.674,3.687c-6.769,0-13.349-0.66-19.764-1.888
		c13.368,41.73,52.16,72.104,98.126,72.949c-35.95,28.176-81.243,44.967-130.458,44.967c-8.479,0-16.84-0.496-25.058-1.471
		c46.486,29.807,101.701,47.197,161.021,47.197c193.211,0,298.868-160.062,298.868-298.872c0-4.554-0.104-9.084-0.305-13.59
		C480.111,136.775,497.92,118.275,512.002,97.211z"/>
    </symbol>

    <symbol id="footer-instagram" role="img" aria-labelledby="footer-instagram_title" viewBox="155 155 200 200">
        <title id="footer-instagram_title">Instagram</title>
        <path d="M256,227.5c-15.7,0-28.5,12.8-28.5,28.5s12.8,28.5,28.5,28.5s28.5-12.8,28.5-28.5S271.7,227.5,256,227.5z"/>
        <path d="M322.2,154.8H189.8c-19.3,0-35,15.7-35,35v132.5c0,19.3,15.7,35,35,35h132.5c19.3,0,35-15.7,35-35V189.8   C357.2,170.5,341.5,154.8,322.2,154.8z M256,314.5c-32.2,0-58.5-26.2-58.5-58.5s26.2-58.5,58.5-58.5s58.5,26.2,58.5,58.5   S288.2,314.5,256,314.5z M335.9,190.6c0,8-6.5,14.5-14.5,14.5h0c-8,0-14.5-6.5-14.5-14.5v0c0-8,6.5-14.5,14.5-14.5h0   C329.4,176.1,335.9,182.6,335.9,190.6L335.9,190.6z"/>
    </symbol>

    <symbol id="footer-linkedin" role="img" aria-labelledby="footer-linkedin_title" viewBox="0 0 93 93">
        <title id="footer-linkedin_title">Linkedin</title>
        <path d="M11.185,0.08C5.004,0.08,0.001,5.092,0,11.259c0,6.173,5.003,11.184,11.186,11.184c6.166,0,11.176-5.011,11.176-11.184
			C22.362,5.091,17.351,0.08,11.185,0.08z"/>
		<rect x="1.538" y="30.926" width="19.287" height="62.054"/>
		<path d="M69.925,29.383c-9.382,0-15.673,5.144-18.248,10.022h-0.258v-8.479H32.921H32.92v62.053h19.27V62.281
			c0-8.093,1.541-15.932,11.575-15.932c9.89,0,10.022,9.256,10.022,16.451v30.178H93.06V58.942
			C93.06,42.235,89.455,29.383,69.925,29.383z"/>
    </symbol>

</svg>