<svg xmlns="http://www.w3.org/2000/svg" xmlns:xlink="http://www.w3.org/1999/xlink">

    <symbol id="advantages01" role="img" aria-labelledby="advantages01_title" viewBox="0 0 512 512">
        <title id="advantages01_title"></title>
        <polygon points="97.409,61.893 255.999,61.893 149.583,193.179     "/>
        <polygon points="414.589,61.893 255.999,61.893 362.415,193.179    "/>
        <polygon points="146.993,194.664 255.999,446.434 365.006,194.664  "/>
        <path style="fill:#000000;" d="M511.985,194.034c0.017-2.515-0.654-5.029-2.054-7.225L425.782,54.76
            c-0.038-0.061-0.085-0.114-0.123-0.174c-0.032-0.048-0.054-0.1-0.086-0.146c-0.066-0.098-0.147-0.183-0.216-0.279
            c-0.202-0.281-0.411-0.555-0.63-0.816c-0.107-0.127-0.216-0.252-0.329-0.376c-0.249-0.275-0.508-0.535-0.776-0.784
            c-0.096-0.089-0.187-0.181-0.284-0.265c-0.76-0.668-1.585-1.24-2.458-1.708c-0.1-0.053-0.202-0.098-0.303-0.149
            c-0.337-0.17-0.681-0.328-1.03-0.468c-0.147-0.06-0.296-0.114-0.445-0.169c-0.328-0.118-0.66-0.222-0.995-0.315
            c-0.146-0.04-0.292-0.084-0.439-0.119c-0.472-0.113-0.948-0.206-1.429-0.267c-0.005,0-0.009-0.001-0.015-0.003
            c-0.502-0.062-1.007-0.089-1.514-0.093c-0.04,0-0.078-0.007-0.118-0.007H255.999H97.409c-4.398,0-8.511,2.179-10.981,5.818
            c-2.47,3.64-2.977,8.267-1.352,12.355l45.255,113.875H37.457l29.313-46.001c3.939-6.182,2.122-14.385-4.06-18.324
            c-6.182-3.939-14.384-2.123-18.324,4.06L2.069,186.81c-1.403,2.2-2.074,4.717-2.054,7.236c-0.162,3.486,1.033,7.031,3.626,9.761
            l242.738,255.441c0.072,0.076,0.151,0.139,0.224,0.212c0.077,0.077,0.145,0.161,0.223,0.236c0.098,0.093,0.203,0.173,0.303,0.263
            c0.161,0.145,0.321,0.287,0.487,0.422c0.183,0.15,0.37,0.291,0.559,0.429c0.17,0.125,0.34,0.248,0.515,0.364
            c0.199,0.131,0.402,0.252,0.605,0.372c0.173,0.101,0.344,0.204,0.52,0.297c0.218,0.115,0.441,0.218,0.664,0.32
            c0.17,0.078,0.338,0.159,0.511,0.23c0.24,0.098,0.484,0.18,0.729,0.264c0.162,0.056,0.322,0.117,0.487,0.165
            c0.265,0.08,0.535,0.141,0.804,0.203c0.147,0.035,0.293,0.076,0.443,0.105c0.301,0.058,0.604,0.098,0.908,0.135
            c0.121,0.015,0.242,0.038,0.362,0.05c0.425,0.041,0.851,0.064,1.277,0.064h0.001h0.001c0.425,0,0.849-0.023,1.273-0.062
            c0.119-0.012,0.239-0.036,0.358-0.05c0.303-0.037,0.605-0.076,0.905-0.134c0.15-0.029,0.297-0.07,0.446-0.105
            c0.267-0.061,0.534-0.122,0.796-0.2c0.165-0.049,0.326-0.11,0.488-0.165c0.242-0.082,0.483-0.163,0.721-0.26
            c0.174-0.07,0.344-0.153,0.515-0.23c0.22-0.101,0.439-0.2,0.656-0.315c0.178-0.093,0.35-0.196,0.524-0.297
            c0.202-0.118,0.402-0.236,0.6-0.366c0.175-0.115,0.345-0.239,0.515-0.362c0.188-0.137,0.374-0.276,0.557-0.425
            c0.165-0.134,0.324-0.273,0.483-0.415c0.1-0.089,0.206-0.169,0.304-0.261c0.08-0.076,0.149-0.159,0.226-0.238
            c0.073-0.073,0.151-0.135,0.223-0.21l122.146-127.72c5.066-5.297,4.879-13.698-0.418-18.765c-5.298-5.067-13.699-4.877-18.765,0.418
            l-73.842,77.211l79.323-183.21h94.601l-36.481,38.638c-5.033,5.33-4.791,13.73,0.539,18.761c2.564,2.422,5.84,3.622,9.108,3.622
            c3.525,0,7.042-1.395,9.653-4.161l56.933-60.299C510.965,201.045,512.15,197.509,511.985,194.034z M255.999,83.044l78.675,97.626
            h-157.35L255.999,83.044z M137.964,207.214l79.065,182.616L43.495,207.214H137.964z M417.34,90.907l57.203,89.764h-92.875
            L417.34,90.907z M395.033,75.165l-36.581,92.048l-74.611-92.048H395.033z M228.158,75.165l-74.611,92.048l-36.581-92.048H228.158z
             M255.999,413.03l-88.797-205.094h177.595L255.999,413.03z"/>
    </symbol>

    <symbol id="advantages02" role="img" aria-labelledby="advantages02_title" viewBox="0 0 512 512">
        <title id="advantages02_title"></title>
        <polyline points="233.225,420.726 270.89,383.061 288.971,401.143 310.88,303.847 213.584,325.756 
            231.665,343.837 174.547,400.955 "/>
        <path style="fill:#000000;" d="M233.226,435.168c-3.697,0-7.391-1.41-10.212-4.23c-5.64-5.64-5.64-14.784,0-20.424l37.663-37.665
            c5.489-5.488,14.293-5.635,19.962-0.443l11.135-49.454l-49.452,11.135c2.431,2.656,3.787,6.132,3.787,9.748
            c0,3.83-1.522,7.504-4.23,10.212l-57.119,57.118c-5.641,5.64-14.783,5.641-20.425,0c-5.64-5.64-5.64-14.784,0-20.424l46.906-46.906
            l-7.869-7.869c-3.722-3.722-5.124-9.175-3.66-14.231c1.466-5.056,5.564-8.915,10.7-10.072l97.296-21.909
            c4.824-1.086,9.881,0.375,13.385,3.878c3.502,3.502,4.965,8.554,3.878,13.385l-21.908,97.296
            c-1.157,5.136-5.016,9.234-10.072,10.699c-5.058,1.464-10.508,0.062-14.231-3.66l-7.869-7.869l-27.451,27.453
            C240.618,433.758,236.922,435.168,233.226,435.168z"/>
        <path style="fill:#000000;" d="M256,512.001c-141.159,0-256-114.841-256-256s114.841-256,256-256
            c53.115,0,104.062,16.122,147.333,46.62c6.519,4.595,8.079,13.606,3.483,20.125c-4.595,6.519-13.607,8.08-20.125,3.485
            C348.318,43.181,303.126,28.885,256,28.885c-125.232,0-227.116,101.884-227.116,227.116S130.768,483.117,256,483.117
            s227.116-101.884,227.116-227.116c0-34.43-7.503-67.493-22.3-98.275c-3.456-7.189-0.43-15.817,6.759-19.273
            c7.191-3.453,15.817-0.429,19.274,6.759c16.691,34.719,25.152,71.993,25.152,110.789C512,397.16,397.159,512.001,256,512.001z"/>
        <path style="fill:#000000;" d="M230.725,434.831c-0.728,0-1.464-0.055-2.205-0.169c-42.217-6.469-80.975-27.931-109.135-60.43
            c-28.458-32.843-44.132-74.831-44.132-118.232c0-99.664,81.083-180.747,180.747-180.747s180.747,81.083,180.747,180.747
            c0,7.976-6.467,14.442-14.442,14.442c-7.975,0-14.442-6.466-14.442-14.442c0-83.737-68.126-151.863-151.863-151.863
            s-151.863,68.126-151.863,151.863c0,74.329,55.353,138.863,128.757,150.11c7.884,1.209,13.295,8.579,12.088,16.462
            C243.889,429.718,237.735,434.831,230.725,434.831z"/>
        <path d="M256,164.947c50.208,0,91.054,40.846,91.054,91.054h75.253c0-91.701-74.604-166.305-166.305-166.305
            S89.695,164.3,89.695,256.001h75.253C164.946,205.793,205.792,164.947,256,164.947z"/>
        <path style="fill:#000000;" d="M422.334,270.443c-0.007,0-0.017,0-0.029,0h-75.251c-7.975,0-14.442-6.466-14.442-14.442
            c0-42.243-34.368-76.612-76.612-76.612s-76.612,34.368-76.612,76.612c0,7.976-6.467,14.442-14.442,14.442H89.695
            c-7.975,0-14.442-6.466-14.442-14.442c0-99.664,81.083-180.747,180.747-180.747c99.342,0,180.223,80.566,180.744,179.788
            c0.022,0.318,0.03,0.637,0.03,0.96C436.776,263.977,430.31,270.443,422.334,270.443z M360.511,241.559h46.671
            c-7.298-76.989-72.315-137.421-151.183-137.421S112.113,164.57,104.816,241.559h46.671c7.065-51.36,51.24-91.054,104.511-91.054
            S353.447,190.199,360.511,241.559z"/>
        <path style="fill:#000000;" d="M216.293,187.292c-3.238,0-6.496-1.083-9.188-3.309l-59.817-49.406
            c-6.149-5.079-7.017-14.182-1.938-20.331c5.079-6.149,14.181-7.019,20.331-1.938l59.817,49.406
            c6.149,5.079,7.017,14.182,1.938,20.331C224.58,185.502,220.453,187.292,216.293,187.292z"/>
        <path style="fill:#000000;" d="M295.707,187.292c-4.161,0-8.287-1.788-11.143-5.245c-5.081-6.149-4.211-15.252,1.938-20.331
            l59.817-49.406c6.151-5.081,15.252-4.211,20.331,1.938c5.081,6.149,4.211,15.252-1.938,20.331l-59.817,49.406
            C302.203,186.207,298.946,187.292,295.707,187.292z"/>
    </symbol>

    <symbol id="advantages03" role="img" aria-labelledby="advantages03_title" viewBox="0 0 512 512">
        <title id="advantages03_title"></title>
        <path d="M330.081,181.919c-40.913-40.913-107.248-40.913-148.161,0s-40.913,107.248,0,148.161
            s107.248,40.913,148.161,0L256,256L330.081,181.919z"/>
        <path style="fill:#000000;" d="M509.507,248.033c-2.023-2.914-46.086-65.747-113.359-112.425l37.318-37.318
            c5.455-5.455,5.455-14.3,0-19.756c-5.456-5.453-14.298-5.453-19.756,0l-41.722,41.722C332.714,97.505,293.707,85.94,256,85.94
            c-58.135,0-120.528,28.211-180.435,81.585c-44.524,39.668-71.927,78.861-73.072,80.509c-3.325,4.79-3.325,11.141,0,15.931
            c1.144,1.65,28.548,40.84,73.072,80.509c13.343,11.887,26.81,22.519,40.326,31.878l-37.357,37.357c-5.455,5.455-5.455,14.3,0,19.756
            c2.728,2.727,6.303,4.091,9.877,4.091c3.575,0,7.149-1.365,9.877-4.091l41.778-41.778c39.209,22.631,78.454,34.373,115.931,34.373
            c57.733,0,119.715-27.845,179.242-80.526c5.777-5.113,6.315-13.941,1.203-19.718c-5.11-5.776-13.939-6.315-19.717-1.203
            c-37.894,33.535-96.538,73.511-160.729,73.511c-33.837,0-66.209-10.946-95.444-26.922l21.964-21.964
            c21.469,16.943,47.466,25.444,73.48,25.444c30.406,0,60.81-11.573,83.958-34.721c5.455-5.455,5.455-14.3,0-19.756l-64.203-64.203
            l64.203-64.203l36.077-36.077c65.446,44.092,110.047,107.566,110.52,108.247c4.399,6.339,13.104,7.906,19.442,3.509
            C512.334,263.075,513.905,254.371,509.507,248.033z M31.363,255.991C55.202,224.928,148.009,113.877,256,113.877
            c30.691,0,62.766,9.059,95.477,26.891l-21.997,21.995c-46.562-36.748-114.485-33.673-157.439,9.278
            c-42.95,42.951-46.023,110.877-9.277,157.438l-26.742,26.742C84.278,321.329,45.572,274.473,31.363,255.991z M309.569,329.322
            c-31.776,23.245-75.348,23.223-107.121-0.015L256,275.754L309.569,329.322z M246.123,246.121l-63.442,63.442
            c-25.964-35.495-22.927-85.725,9.116-117.768c17.701-17.701,40.951-26.552,64.203-26.552c18.84,0,37.681,5.81,53.567,17.432
            L246.123,246.121z"/>
    </symbol>

    <symbol id="advantages04" role="img" aria-labelledby="advantages04_title" viewBox="0 0 512 512">
        <title id="advantages04_title"></title>
        <path fill="#000" d="M255.885,452.641c-50.884,0-100.864-17.445-140.734-49.121
            C17.444,325.888,1.11,183.242,78.737,85.535C121.928,31.175,186.532,0,255.986,0C306.87,0,356.85,17.445,396.72,49.121
            c47.331,37.607,77.185,91.393,84.063,151.452c3.275,28.595,1.202,57.011-6.16,84.454c-4.59,17.112-11.236,33.706-19.753,49.317
            c-3.929,7.201-12.953,9.852-20.153,5.923c-7.201-3.93-9.854-12.952-5.925-20.153c7.391-13.546,13.157-27.942,17.139-42.785
            c6.39-23.822,8.186-48.509,5.338-73.378c-5.974-52.176-31.909-98.903-73.029-131.573c-34.636-27.519-78.055-42.673-122.255-42.673
            c-60.341,0-116.47,27.083-153.99,74.308c-67.438,84.883-53.247,208.805,31.633,276.247c34.638,27.519,78.055,42.673,122.255,42.673
            c8.203,0,14.853,6.651,14.853,14.853S264.087,452.641,255.885,452.641z"/>
        <path fill="#000" d="M255.885,385.801c-35.847,0-71.061-12.293-99.155-34.615
            c-68.852-54.704-80.362-155.22-25.66-224.072c30.436-38.305,75.965-60.274,124.917-60.274c35.847,0,71.061,12.293,99.155,34.615
            c33.353,26.501,54.391,64.402,59.236,106.723c2.424,21.173,0.695,42.161-5.141,62.379c-2.276,7.884-10.512,12.426-18.39,10.152
            c-7.881-2.274-12.426-10.507-10.152-18.388c4.741-16.431,6.145-33.51,4.169-50.764c-3.944-34.439-21.062-65.278-48.202-86.844
            c-22.862-18.164-51.514-28.168-80.677-28.168c-39.839,0-76.892,17.877-101.658,49.047c-44.512,56.026-35.146,137.82,20.879,182.335
            c22.862,18.164,51.514,28.168,80.677,28.168c8.203,0,14.853,6.651,14.853,14.853S264.087,385.801,255.885,385.801z"/>
        <circle cx="255.935" cy="226.318" r="77.786"/>
        <path fill="#000" d="M255.885,318.962c-20.808,0-41.255-7.141-57.577-20.108c-39.995-31.778-46.681-90.166-14.905-130.162
            c17.68-22.252,44.135-35.013,72.583-35.013c20.808,0,41.256,7.141,57.578,20.11c39.995,31.777,46.681,90.165,14.905,130.16
            C310.788,306.2,284.333,318.962,255.885,318.962z M255.986,163.385c-19.336,0-37.314,8.67-49.324,23.787
            c-21.586,27.169-17.044,66.835,10.125,88.423c11.25,8.937,24.769,13.66,39.098,13.66c19.336,0,37.314-8.67,49.324-23.787
            c21.586-27.169,17.044-66.835-10.125-88.423C283.834,168.11,270.315,163.385,255.986,163.385z"/>
        <path d="M353.072,497.147c21.077,0,38.162-17.086,38.162-38.162c0,0,0-96.709,0-97.605
            c0-28.448-23.063-51.511-51.511-51.511l-52.169-0.089v-76.31c0-16.108-12.526-29.827-28.624-30.399
            c-16.9-0.602-30.789,12.921-30.789,29.687v133.327l-7.793-16.246c-4.249-8.863-12.26-13.895-20.526-13.895
            c-3.801,0-7.66,1.069-11.226,3.296c-11.326,7.103-15.479,23.337-9.261,36.276c0,0,25.702,60.181,44.058,99.598
            c6.262,13.448,19.753,22.033,34.587,22.033L353.072,497.147L353.072,497.147z"/>
        <path fill="#000" d="M353.072,512h-95.093c-20.53,0-39.392-12.018-48.052-30.614
            c-17.613-37.825-42.219-95.279-44.136-99.761c-9.306-19.777-2.797-43.86,14.913-54.969c5.845-3.646,12.445-5.565,19.119-5.565
            c4.691,0,9.237,0.916,13.466,2.635v-90.968c0-25.105,20.888-45.44,46.17-44.53c24.083,0.856,42.949,20.728,42.949,45.243v61.483
            l37.342,0.064c36.569,0,66.339,29.77,66.339,66.364v97.606C406.088,488.217,382.305,512,353.072,512z M199.822,350.797
            c-1.123,0-2.255,0.351-3.363,1.043c-4.907,3.078-6.668,11.144-3.737,17.245c0.095,0.198,0.186,0.397,0.272,0.597
            c0.255,0.599,25.821,60.417,43.864,99.163c3.804,8.171,12.095,13.45,21.121,13.45h95.093c12.852,0,23.309-10.457,23.309-23.308
            V361.38c0-20.212-16.444-36.658-36.658-36.658l-52.196-0.091c-8.193-0.015-14.828-6.66-14.828-14.853v-76.31
            c0-8.297-6.414-15.274-14.296-15.554c-8.454-0.349-15.41,6.467-15.41,14.841v133.328c0,6.933-4.798,12.946-11.559,14.483
            c-6.76,1.542-13.687-1.808-16.686-8.059l-7.793-16.246C205.338,352.89,202.605,350.797,199.822,350.797z"/>
    </symbol>

    <symbol id="advantages05" role="img" aria-labelledby="advantages05_title" viewBox="0 0 512 512">
        <title id="advantages05_title"></title>
        <path d="M124.881,241.811v28.377c0,8.134-6.595,14.729-14.729,14.729H28.811
            c-8.134,0-14.729-6.595-14.729-14.729v-28.377c0-8.134,6.595-14.729,14.729-14.729h81.341
            C118.288,227.084,124.881,233.677,124.881,241.811z"/>
        <path style="fill:#000000;" d="M110.153,299H28.81C12.925,299,0,286.076,0,270.19v-28.377c0-15.886,12.925-28.81,28.81-28.81
            h81.343c15.886,0,28.811,12.925,28.811,28.81v28.377C138.964,286.076,126.039,299,110.153,299z M28.81,241.166
            c-0.356,0-0.645,0.29-0.645,0.645v28.377c0,0.356,0.29,0.645,0.645,0.645h81.343c0.356,0,0.646-0.29,0.646-0.645v-28.377
            c0-0.356-0.29-0.645-0.646-0.645H28.81z"/>
        <path style="fill:#000000;" d="M198.731,270.083h-17.792c-7.778,0-14.082-6.305-14.082-14.082s6.305-14.082,14.082-14.082h17.792
            c7.778,0,14.082,6.305,14.082,14.082S206.509,270.083,198.731,270.083z"/>
        <path style="fill:#000000;" d="M264.917,270.083h-17.792c-7.778,0-14.082-6.305-14.082-14.082s6.305-14.082,14.082-14.082h17.792
            c7.776,0,14.082,6.305,14.082,14.082S272.695,270.083,264.917,270.083z"/>
        <path style="fill:#000000;" d="M331.106,270.083h-17.793c-7.776,0-14.082-6.305-14.082-14.082s6.306-14.082,14.082-14.082h17.793
            c7.776,0,14.082,6.305,14.082,14.082S338.883,270.083,331.106,270.083z"/>
        <path style="fill:#000000;" d="M65.249,241.101c-5.437,0-10.615-3.167-12.921-8.471c-1.948-4.478-1.158-11.546-0.152-16.686
            c18.99-97.371,104.89-168.05,204.25-168.05c99.358,0,185.26,70.677,204.253,168.053c1.489,7.633-3.492,15.029-11.126,16.517
            c-7.624,1.486-15.029-3.492-16.517-11.127C416.617,137.159,342.342,76.06,256.427,76.06c-85.827,0-160.038,60.98-176.558,145.026
            c-0.162,1.12-0.47,3.709-0.572,4.992c0.383,5.767-2.835,11.412-8.44,13.849C69.031,240.724,67.124,241.101,65.249,241.101z"/>
        <path style="fill:#000000;" d="M256.427,464.106c-47.938,0-94.731-16.696-131.756-47.014
            c-36.509-29.893-61.999-71.632-71.778-117.526c-1.621-7.607,3.232-15.086,10.838-16.707c7.614-1.625,15.088,3.232,16.707,10.838
            C98,376.119,172.014,435.942,256.427,435.942c54.422,0,105.343-24.25,139.71-66.531c4.904-6.036,13.774-6.951,19.81-2.046
            c6.034,4.905,6.951,13.774,2.045,19.81C378.255,436.065,319.365,464.106,256.427,464.106z"/>
        <path d="M241.833,387.098h28.377c8.134,0,14.729,6.595,14.729,14.729v81.341
            c0,8.134-6.595,14.729-14.729,14.729h-28.377c-8.134,0-14.729-6.595-14.729-14.729v-81.343
            C227.104,393.691,233.699,387.098,241.833,387.098z"/>
        <path style="fill:#000000;" d="M270.211,511.98h-28.377c-15.886,0-28.811-12.925-28.811-28.811v-81.343
            c0-15.886,12.925-28.81,28.811-28.81h28.377c15.886,0,28.811,12.925,28.811,28.81v81.343
            C299.022,499.055,286.097,511.98,270.211,511.98z M241.833,401.181c-0.356,0-0.646,0.29-0.646,0.645v81.343
            c0,0.356,0.29,0.646,0.646,0.646h28.377c0.356,0,0.646-0.29,0.646-0.646v-81.343c0-0.356-0.29-0.645-0.646-0.645H241.833z"/>
        <path d="M241.833,14.104h28.377c8.134,0,14.729,6.595,14.729,14.729v81.343
            c0,8.134-6.595,14.729-14.729,14.729h-28.377c-8.134,0-14.729-6.595-14.729-14.729V28.833
            C227.104,20.699,233.699,14.104,241.833,14.104z"/>
        <path style="fill:#000000;" d="M270.211,138.986h-28.377c-15.886,0-28.811-12.925-28.811-28.81V28.833
            c0-15.886,12.925-28.811,28.811-28.811h28.377c15.886,0,28.811,12.925,28.811,28.811v81.343
            C299.022,126.062,286.097,138.986,270.211,138.986z M241.833,28.187c-0.356,0-0.646,0.29-0.646,0.646v81.343
            c0,0.356,0.29,0.645,0.646,0.645h28.377c0.356,0,0.646-0.29,0.646-0.645V28.833c0-0.356-0.29-0.646-0.646-0.646
            C270.211,28.187,241.833,28.187,241.833,28.187z"/>
        <path style="fill:#000000;" d="M446.72,299h-44.872c-15.885,0-28.81-12.925-28.81-28.81v-28.377c0-15.886,12.925-28.81,28.81-28.81
            h81.343c15.886,0,28.811,12.925,28.811,28.81v28.377c0,7.778-6.306,14.082-14.082,14.082c-7.776,0-14.082-6.305-14.082-14.082
            v-28.377c0-0.356-0.29-0.645-0.646-0.645h-81.343c-0.356,0-0.645,0.29-0.645,0.645v28.377c0,0.356,0.289,0.645,0.645,0.645h44.872
            c7.776,0,14.082,6.305,14.082,14.082S454.496,299,446.72,299z"/>
    </symbol>

    <symbol id="advantages06" role="img" aria-labelledby="advantages06_title" viewBox="0 0 512 512">
        <title id="advantages06_title"></title>
        <path style="fill:#000000;" d="M80.523,502.225c-8.391,0-15.193-6.803-15.193-15.193v-256c0-8.39,6.802-15.193,15.193-15.193
            s15.193,6.803,15.193,15.193v256C95.716,495.423,88.914,502.225,80.523,502.225z"/>
        <path style="fill:#000000;" d="M80.523,146.708c-8.391,0-15.193-6.803-15.193-15.193V90.304c0-8.39,6.802-15.193,15.193-15.193
            s15.193,6.803,15.193,15.193v41.211C95.716,139.904,88.914,146.708,80.523,146.708z"/>
        <path style="fill:#000000;" d="M256,502.225c-8.391,0-15.193-6.803-15.193-15.193v-94.19c0-8.39,6.802-15.193,15.193-15.193
            c8.391,0,15.193,6.803,15.193,15.193v94.19C271.193,495.423,264.391,502.225,256,502.225z"/>
        <path style="fill:#000000;" d="M256,204.443c-8.391,0-15.193-6.803-15.193-15.193V24.968c0-8.39,6.802-15.193,15.193-15.193
            c8.391,0,15.193,6.803,15.193,15.193v164.283C271.193,197.641,264.391,204.443,256,204.443z"/>
        <path style="fill:#000000;" d="M431.477,502.225c-8.391,0-15.193-6.803-15.193-15.193V273.566c0-8.39,6.802-15.193,15.193-15.193
            c8.391,0,15.193,6.803,15.193,15.193v213.467C446.67,495.423,439.868,502.225,431.477,502.225z"/>
        <path style="fill:#000000;" d="M431.477,151.267c-8.391,0-15.193-6.803-15.193-15.193V24.968c0-8.39,6.802-15.193,15.193-15.193
            c8.391,0,15.193,6.803,15.193,15.193v111.108C446.67,144.465,439.868,151.267,431.477,151.267z"/>
        <circle cx="80.523" cy="90.307" r="65.33"/>
        <path style="fill:#000000;" d="M80.523,170.827C36.123,170.827,0,134.705,0,90.304S36.123,9.781,80.523,9.781
            s80.523,36.121,80.523,80.523S124.923,170.827,80.523,170.827z M80.523,40.167c-27.645,0-50.137,22.492-50.137,50.137
            s22.492,50.137,50.137,50.137s50.137-22.492,50.137-50.137S108.168,40.167,80.523,40.167z"/>
        <path style="fill:#000000;" d="M256,408.035c-44.4,0-80.523-36.121-80.523-80.523S211.6,246.989,256,246.989
            s80.523,36.121,80.523,80.523c0,13.59-3.453,27.03-9.986,38.865c-4.055,7.346-13.298,10.014-20.643,5.959
            c-7.346-4.055-10.014-13.297-5.959-20.644c4.058-7.35,6.203-15.713,6.203-24.18c0-27.645-22.492-50.137-50.137-50.137
            s-50.137,22.492-50.137,50.137c0,27.645,22.492,50.137,50.137,50.137c8.391,0,15.193,6.803,15.193,15.193
            C271.194,401.231,264.391,408.035,256,408.035z"/>
        <circle cx="431.48" cy="136.068" r="65.33"/>
        <path style="fill:#000000;" d="M431.477,216.597c-44.4,0-80.523-36.121-80.523-80.523s36.123-80.523,80.523-80.523
            S512,91.673,512,136.074S475.877,216.597,431.477,216.597z M431.477,85.938c-27.645,0-50.137,22.492-50.137,50.137
            s22.492,50.137,50.137,50.137c27.645,0,50.137-22.492,50.137-50.137S459.122,85.938,431.477,85.938z"/>
    </symbol>

    <symbol id="advantages07" role="img" aria-labelledby="advantages07_title" viewBox="0 0 512 512">
        <title id="advantages07_title"></title>
        <circle cx="255.999" cy="256" r="112.533"/>
        <path style="fill:#000000;" d="M256.001,382.601c-69.807,0-126.6-56.793-126.6-126.6s56.793-126.6,126.6-126.6
            s126.6,56.793,126.6,126.6S325.808,382.601,256.001,382.601z M256.001,157.535c-54.295,0-98.467,44.172-98.467,98.467
            s44.172,98.467,98.467,98.467s98.467-44.172,98.467-98.467S310.295,157.535,256.001,157.535z"/>
        <path style="fill:#000000;" d="M279.385,512.001h-46.77c-16.208,0-29.394-13.186-29.394-29.394v-19.214
            c-19.925-5.042-38.866-12.891-56.545-23.432l-13.593,13.594c-5.493,5.493-14.4,5.493-19.894,0c-5.494-5.493-5.493-14.4,0-19.895
            l21.552-21.552c4.755-4.753,12.207-5.48,17.79-1.73c20.54,13.797,43.238,23.202,67.465,27.956
            c6.599,1.296,11.357,7.08,11.357,13.804v30.468c0,0.695,0.565,1.26,1.26,1.26h46.77c0.695,0,1.26-0.565,1.26-1.26v-30.468
            c0-6.724,4.759-12.508,11.357-13.804c24.227-4.755,46.926-14.16,67.465-27.956c5.583-3.749,13.037-3.023,17.79,1.73l21.552,21.552
            c0.491,0.492,1.29,0.491,1.781,0l33.072-33.072c0.491-0.491,0.491-1.29,0-1.781l-21.552-21.552
            c-4.753-4.755-5.479-12.208-1.73-17.79c13.797-20.54,23.202-43.238,27.956-67.465c1.296-6.599,7.08-11.357,13.804-11.357h30.468
            c0.695,0,1.26-0.565,1.26-1.26v-46.77c0-0.695-0.565-1.26-1.26-1.26h-30.468c-6.724,0-12.508-4.759-13.804-11.357
            c-4.755-24.227-14.16-46.926-27.956-67.465c-3.749-5.582-3.023-13.036,1.73-17.79l21.552-21.552c5.493-5.493,14.4-5.493,19.895,0
            c5.494,5.493,5.493,14.4,0,19.894l-13.594,13.593c10.542,17.678,18.389,36.62,23.432,56.545h19.214
            c16.208,0,29.394,13.186,29.394,29.394v46.77c0,16.208-13.186,29.394-29.394,29.394h-19.214
            c-5.042,19.925-12.891,38.866-23.432,56.545l13.594,13.593c11.46,11.46,11.46,30.107,0,41.568l-33.072,33.072
            c-11.46,11.46-30.107,11.459-41.568,0l-13.593-13.594c-17.678,10.542-36.62,18.389-56.545,23.432v19.214
            C308.779,498.816,295.593,512.001,279.385,512.001z"/>
        <path style="fill:#000000;" d="M68.392,402.931c-3.6,0-7.201-1.373-9.947-4.12c-5.493-5.493-5.493-14.4,0-19.895l13.594-13.593
            c-10.542-17.678-18.389-36.62-23.432-56.545H29.394C13.186,308.78,0,295.593,0,279.386v-46.77
            c0-16.208,13.186-29.394,29.394-29.394h19.214c5.041-19.925,12.891-38.866,23.432-56.545l-13.594-13.593
            c-11.46-11.46-11.46-30.107,0-41.568l33.072-33.072c11.46-11.46,30.107-11.459,41.568,0l13.593,13.594
            c17.678-10.54,36.618-18.389,56.545-23.432V29.394c-0.001-16.208,13.183-29.394,29.391-29.394h46.77
            c16.208,0,29.394,13.186,29.394,29.394v19.214c19.927,5.043,38.868,12.892,56.545,23.432l13.593-13.594
            c5.493-5.493,14.4-5.493,19.895,0s5.493,14.4,0,19.894L377.26,99.892c-4.755,4.753-12.208,5.48-17.79,1.73
            c-20.539-13.795-43.237-23.2-67.465-27.956c-6.599-1.296-11.357-7.08-11.357-13.804V29.394c0-0.695-0.565-1.26-1.26-1.26h-46.77
            c-0.695,0-1.26,0.565-1.26,1.26v30.468c0,6.724-4.759,12.508-11.357,13.804c-24.228,4.755-46.928,14.161-67.465,27.956
            c-5.582,3.75-13.036,3.024-17.79-1.73L113.19,78.339c-0.491-0.494-1.29-0.492-1.781,0l-33.071,33.072
            c-0.491,0.491-0.491,1.29,0,1.781l21.552,21.552c4.753,4.755,5.479,12.208,1.73,17.79c-13.797,20.54-23.202,43.238-27.956,67.465
            c-1.296,6.599-7.08,11.357-13.804,11.357H29.392c-0.695,0-1.26,0.565-1.26,1.26v46.77c0,0.695,0.565,1.26,1.26,1.26h30.468
            c6.724,0,12.508,4.759,13.804,11.357c4.755,24.227,14.16,46.926,27.956,67.465c3.749,5.582,3.023,13.036-1.73,17.79l-21.552,21.552
            C75.591,401.558,71.992,402.931,68.392,402.931z"/>
    </symbol>

    <symbol id="advantages08" role="img" aria-labelledby="advantages08_title" viewBox="0 0 512 512">
        <title id="advantages08_title"></title>
        <path style="fill:#000000;" d="M466.702,512H197.603c-8.063,0-14.599-6.537-14.599-14.599c0-8.062,6.536-14.599,14.599-14.599
            h269.099c6.345,0,11.507-5.162,11.507-11.507V125.589c0-6.345-5.162-11.507-11.507-11.507h-336.52
            c-6.346,0-11.508,5.162-11.508,11.507c0,8.062-6.536,14.599-14.599,14.599s-14.599-6.537-14.599-14.599
            c0-22.445,18.26-40.705,40.706-40.705h336.52c22.446,0,40.705,18.26,40.705,40.705v345.706C507.407,493.74,489.148,512,466.702,512z
            "/>
        <path d="M130.182,99.483h277.742V40.705c0-14.418-11.688-26.106-26.106-26.106H45.298
            c-14.418,0-26.106,11.688-26.106,26.106v345.706c0,14.418,11.688,26.106,26.106,26.106h58.778V125.591
            C104.076,111.173,115.764,99.483,130.182,99.483z"/>
        <path style="fill:#000000;" d="M104.076,427.116H45.298c-22.446,0-40.705-18.26-40.705-40.706V40.705
            C4.593,18.26,22.852,0,45.298,0h336.52c22.446,0,40.705,18.26,40.705,40.705v58.78c0,8.062-6.536,14.599-14.599,14.599H130.182
            c-6.345,0-11.507,5.162-11.507,11.507v286.927C118.675,420.58,112.139,427.116,104.076,427.116z M45.298,29.198
            c-6.345,0-11.507,5.162-11.507,11.507v345.706c0,6.346,5.162,11.508,11.507,11.508h44.179v-272.33
            c0-22.445,18.26-40.705,40.705-40.705h263.144V40.705c0-6.345-5.162-11.507-11.507-11.507H45.298z"/>
        <path style="fill:#000000;" d="M210.799,400.667c-3.736,0-7.473-1.426-10.323-4.276c-5.701-5.701-5.702-14.945,0-20.647
            L378.219,198c5.701-5.699,14.945-5.699,20.647,0c5.701,5.701,5.701,14.945,0,20.647L221.124,396.391
            C218.271,399.242,214.535,400.667,210.799,400.667z"/>
        <path style="fill:#000000;" d="M390.941,303.04c-0.718,0-1.444-0.053-2.175-0.161c-7.974-1.191-13.473-8.622-12.282-16.596
            l11.573-77.474l-77.474,11.576c-7.975,1.18-15.405-4.308-16.596-12.282c-1.191-7.974,4.307-15.405,12.282-16.596l96.984-14.49
            c4.571-0.676,9.208,0.844,12.479,4.115c3.273,3.273,4.8,7.902,4.115,12.481l-14.488,96.986
            C404.278,297.84,398.049,303.04,390.941,303.04z"/>
        <path style="fill:#000000;" d="M191.473,419.991c-3.842,0-7.565-1.518-10.323-4.276c-3.272-3.273-4.799-7.902-4.115-12.481
            l14.488-96.986c1.191-7.975,8.625-13.469,16.596-12.282c7.974,1.191,13.473,8.622,12.282,16.596l-11.574,77.474l77.474-11.574
            c7.97-1.184,15.403,4.308,16.596,12.282c1.191,7.974-4.308,15.405-12.282,16.596l-96.984,14.488
            C192.911,419.937,192.19,419.991,191.473,419.991z"/>
    </symbol>

	<symbol id="approach01" role="img" aria-labelledby="approach01_title" viewBox="0 0 512 512">
        <title id="approach01_title"></title>
        <path d="m215.742188 150.980469c-22.453126.867187-43.222657 10.476562-58.472657 27.046875-23.355469 25.378906-24.027343 52.164062-24.621093 75.796875-.550782 21.871093-1.070313 42.527343-18.003907 66.582031l-22.179687 31.511719h38.535156c3.039062 0 6.015625-.042969 8.9375-.121094h272.0625v-40h-151.300781c7.476562-6.214844 14.019531-12.722656 19.980469-19.203125 16.96875-18.4375 24.148437-42.523438 21.828124-65.753906l114.816407-160.699219c6.625-7.691406 10.039062-17.453125 9.644531-27.648437-.410156-10.6875-4.960938-20.574219-12.8125-27.835938-7.847656-7.265625-18.046875-11.035156-28.746094-10.625-10.578125.40625-20.371094 4.871094-27.617187 12.574219l-135.457031 138.402343c-2.1875-.089843-4.382813-.113281-6.59375-.027343zm35.503906 114.53125c-18.125 19.695312-41.417969 38.1875-86.511719 44.292969 7.03125-20.457032 7.496094-39 7.898437-54.972657.539063-21.316406.890626-35.394531 14.070313-49.71875 7.988281-8.679687 18.851563-13.710937 30.582031-14.164062 11.71875-.449219 22.929688 3.71875 31.550782 11.742187 17.882812 16.648438 18.964843 44.828125 2.410156 62.820313zm135.296875-225.09375.257812-.144531-.671875.722656-101.339844 141.839844c-2.617187-3.3125-5.519531-6.464844-8.699218-9.421876-3.5-3.261718-7.242188-6.167968-11.15625-8.746093zm125.457031 91.378906v240c0 33.082031-26.914062 60-60 60h-176v40h104v40h-248v-40h104v-40h-176c-33.085938 0-60-26.917969-60-60v-240c0-33.085937 26.914062-60 60-60h183.890625l-39.148437 40h-144.742188c-11.027344 0-20 8.96875-20 20v240c0 11.027344 8.972656 20 20 20h392c11.027344 0 20-8.972656 20-20v-240c0-11.03125-8.972656-20-20-20h-18.132812l15.113281-21.15625c4.597656-5.621094 8.359375-11.761719 11.238281-18.265625 29.207031 4.019531 51.78125 29.125 51.78125 59.421875zm0 0"/>
    </symbol>

    <symbol id="approach02" role="img" aria-labelledby="approach02_title" viewBox="0 0 512 512">
        <title id="approach02_title"></title>
        <path d="m196 267.894531 93.105469 60.105469h26.894531v-124.203125l116-151v-52.796875h-352v52.796875l116 151zm-13.933594-147.894531h97.425782l30.730468-40h-158.882812l-30.730469-40h270.777344l-115.386719 150.203125v81.726563l-40-25.824219v-55.898438zm329.933594 19.253906v232.746094c0 33.085938-26.914062 60-60 60h-176v40h104v40h-248v-40h104v-40h-176c-33.085938 0-60-26.914062-60-60v-232.746094c0-28.140625 19.476562-51.804687 45.652344-58.253906l29.386718 38h-15.039062c-11.027344 0-20 9.226562-20 20.253906v232.746094c0 11.027344 8.972656 20 20 20h392c11.027344 0 20-8.972656 20-20v-232.746094c0-11.027344-8.972656-20.253906-20-20.253906h-15.042969l29.386719-38c26.179688 6.449219 45.65625 30.113281 45.65625 58.253906zm0 0"/>
    </symbol>

    <symbol id="approach03" role="img" aria-labelledby="approach03_title" viewBox="0 0 512 512">
        <title id="approach03_title"></title>
        <path d="m146.929688 250.878906c-4.441407 13.625-9.300782 21.90625-9.695313 22.570313l-19.484375 30.550781h36.507812.214844c7.402344 0 40.496094-1.539062 68.414063-27.429688 11.996093 1.632813 23.238281 2.429688 34.113281 2.429688 47.046875 0 87.050781-10.972656 115.683594-31.730469 33.570312-24.335937 51.316406-61.683593 51.316406-108.003906 0-87.203125-62.429688-139.265625-167-139.265625s-167 52.0625-167 139.265625c0 49.328125 19.605469 87.585937 56.929688 111.613281zm17.816406-186.964844c21.714844-15.644531 53.613281-23.914062 92.253906-23.914062s70.539062 8.269531 92.253906 23.914062c23.054688 16.613282 34.746094 41.964844 34.746094 75.351563 0 86.777344-79.570312 99.734375-127 99.734375-11.730469 0-24.140625-1.136719-37.945312-3.476562l-11.113282-1.882813-7.367187 8.53125c-4.011719 4.648437-8.339844 8.3125-12.679688 11.191406.675781-2.53125 1.320313-5.167969 1.929688-7.898437l3.40625-15.34375-14.101563-6.9375c-32.601562-16.035156-49.128906-44.269532-49.128906-83.917969 0-33.386719 11.691406-58.738281 34.746094-75.351563zm347.253906 68.085938v240c0 33.085938-26.914062 60-60 60h-176v40h104v40h-248v-40h104v-40h-176c-33.085938 0-60-26.914062-60-60v-240c0-33.085938 26.914062-60 60-60h1.722656c-5 13.136719-8.398437 27.148438-10.199218 41.910156-6.796876 3.199219-11.523438 10.09375-11.523438 18.089844v240c0 11.027344 8.972656 20 20 20h392c11.027344 0 20-8.972656 20-20v-240c0-7.128906-3.757812-13.378906-9.386719-16.921875-1.761719-15.1875-5.203125-29.589844-10.335937-43.070313 32.957031.152344 59.722656 27.003907 59.722656 59.992188zm-275 5c0-11.046875 8.953125-20 20-20s20 8.953125 20 20-8.953125 20-20 20-20-8.953125-20-20zm-70 0c0-11.046875 8.953125-20 20-20s20 8.953125 20 20-8.953125 20-20 20-20-8.953125-20-20zm140 0c0-11.046875 8.953125-20 20-20s20 8.953125 20 20-8.953125 20-20 20-20-8.953125-20-20zm0 0"/>
    </symbol>

    <symbol id="approach04" role="img" aria-labelledby="approach04_title" viewBox="0 0 512 512">
        <title id="approach04_title"></title>
        <path d="m512 474.539062-51.105469-51.105468c8.75-13.871094 13.820313-30.28125 13.820313-47.855469 0-49.597656-40.347656-89.949219-89.945313-89.949219-49.597656 0-89.945312 40.351563-89.945312 89.949219 0 49.59375 40.347656 89.945313 89.945312 89.945313 17.574219 0 33.988281-5.074219 47.855469-13.824219l51.105469 51.105469zm-127.230469-48.992187c-27.554687 0-49.96875-22.417969-49.96875-49.96875 0-27.554687 22.414063-49.972656 49.96875-49.972656 27.554688 0 49.96875 22.417969 49.96875 49.972656 0 27.550781-22.414062 49.96875-49.96875 49.96875zm-105.949219 25.148437h-218.855468c-11.023438 0-19.988282-8.96875-19.988282-19.988281v-211.875h195.882813v49.96875h39.976563v-49.96875h195.882812v60.292969c19.796875 17.863281 34.082031 41.71875 39.976562 68.679688v-207.886719c0-33.066407-26.902343-59.964844-59.964843-59.964844h-106.011719v-19.988281c0-33.066406-26.898438-59.964844-59.964844-59.964844h-59.816406c-33.0625 0-59.960938 26.898438-59.960938 59.964844v19.988281h-106.011718c-33.066406 0-59.964844 26.898437-59.964844 59.964844v290.789062c0 33.0625 26.898438 59.960938 59.964844 59.960938h264.585937c-18.207031-9.5625-33.882812-23.3125-45.730469-39.972657zm-72.871093-390.730468c0-11.023438 8.96875-19.988282 19.988281-19.988282h59.816406c11.023438 0 19.988282 8.964844 19.988282 19.988282v19.988281h-99.792969zm-165.972657 79.953125c0-11.023438 8.964844-20.027344 19.988282-20.027344h391.765625c11.019531 0 19.988281 9.003906 19.988281 20.027344v38.9375h-431.742188zm0 0"/>
    </symbol>

    <symbol id="approach05" role="img" aria-labelledby="approach05_title" viewBox="0 1 511 511.999">
        <title id="approach05_title"></title>
        <path d="m494.867188 257.347656-.566407-.566406-125.488281-106.851562-.113281-33.160157-74.753907.257813-48.71875 48.714844c-7.636718 7.636718-20.171874 7.761718-27.945312.277343-3.726562-3.589843-5.8125-8.535156-5.863281-13.929687-.054688-5.664063 2.183593-11.179688 6.136719-15.132813l39.726562-42.382812c31.949219-34.097657 77.078125-53.65625 123.808594-53.65625h130.394531v-39.921875h-130.394531c-46.527344 0-91.761719 15.707031-128.230469 43.851562-36.847656-29.027344-82.214844-44.847656-129.558594-44.847656h-122.800781v39.921875h122.800781c36.246094 0 71.0625 11.449219 99.96875 32.570313l-34.195312 36.492187c-11.328125 11.46875-17.730469 27.296875-17.574219 43.488281.15625 16.199219 6.582031 31.226563 18.097656 42.3125 11.351563 10.925782 26.332032 16.859375 42.054688 16.722656 15.789062-.140624 30.636718-6.367187 41.800781-17.535156l37.082031-37.082031 4.855469-.019531 151.695313 129.167968c6.164062 6.644532 6.011718 17.066407-.449219 23.53125-3.175781 3.175782-7.433594 4.921876-11.996094 4.921876s-8.820313-1.746094-11.996094-4.921876l-4.097656-4.097656-28.226563 28.226563 4.09375 4.097656c1.917969 1.914063 3.9375 3.664063 6.042969 5.25l-.398437.394531c6.617187 6.617188 6.617187 17.378906 0 23.996094-6.613282 6.613281-17.378906 6.613281-23.992188 0l-6.773437-6.722656-28.226563 28.226562 4.589844 4.589844c3.4375 3.453125 5.511719 8.363281 5.6875 13.480469.09375 2.792969-.332031 8.066406-4.285156 12.011719-6.246094 6.25-17.0625 5.601562-24.101563-1.4375l-.558593-.5625-3.597657-3.066407-27.066406 29.304688c3.332031 3.328125 5.195313 7.6875 5.246094 12.273437.050781 4.4375-1.628907 8.589844-4.726563 11.6875-6.617187 6.617188-17.515625 6.484375-24.34375-.347656l-2.839844-2.816406c8.15625-20.785156 3.855469-45.367188-12.914062-62.140625-7.507812-7.507813-16.65625-12.761719-26.570312-15.398438 2.460937-17.148437-2.890626-35.210937-16.054688-48.375-9.863281-9.863281-22.480469-15.328125-35.398438-16.417969-.976562-12.84375-6.464843-25.445312-16.496093-35.476562-9.921875-9.921875-22.628907-15.390625-35.628907-16.4375-1.042968-13-6.511718-25.707031-16.433593-35.628906-22.136719-22.128906-58.121094-22.179688-80.316407-.136719l-27.890624 26.929687-.25.246094c-10.714844 10.714844-16.617188 25-16.617188 40.222656 0 15.226563 5.902344 29.511719 16.617188 40.226563 8.480468 8.480469 18.996093 13.707031 29.988281 15.703125-.515625 15.207031 5.003906 30.582031 16.589843 42.164062 10.328126 10.332032 24.117188 15.980469 38.933594 15.980469.28125 0 .5625-.003906.847656-.007812 1.613282 11.863281 6.945313 23.289062 16.019532 32.363281 11.039062 11.039062 25.546875 16.550781 40.101562 16.546875 1.222656 0 2.445313-.050781 3.667969-.128906 2.113281 11.617187 7.65625 22.300781 16.136719 30.78125 11.285156 11.285156 26.105468 16.925781 40.929687 16.925781 14.476563-.003906 28.945313-5.398438 40.125-16.160156 11.132813 10.757812 25.542969 16.160156 39.925781 16.15625 14.550782 0 29.066407-5.507813 40.101563-16.546875 8.828125-8.828125 14.339844-20.066407 15.9375-32.25 14.207031-.023438 28.242187-5.320313 38.867187-15.949219 9.335938-9.332031 14.832032-21.589844 15.824219-35.03125 13.535157-.722656 26.859375-6.238281 37.175781-16.554688 11.582032-11.582031 17.113282-26.953124 16.601563-42.15625 10.988281-1.996093 21.5-7.234374 29.976563-15.710937 22.179687-22.179687 22.179687-58.269531 0-80.449219zm-454.445313 44.097656c0-4.511718 1.710937-8.726562 4.820313-11.894531l27.859374-26.890625.25-.246094c3.175782-3.179687 7.4375-4.925781 11.996094-4.925781 4.5625 0 8.824219 1.746094 12 4.925781 3.171875 3.175782 4.921875 7.433594 4.921875 11.996094 0 3.789063-1.222656 7.367188-3.453125 10.292969-.523437.480469-1.042968.964844-1.554687 1.46875l-20.472657 20.074219-7.199218 6.953125-.25.246093c-3.175782 3.175782-7.4375 4.925782-12 4.925782-4.558594 0-8.820313-1.75-11.996094-4.925782-3.175781-3.175781-4.921875-7.4375-4.921875-12zm51.5 69.867188c-6.597656-6.597656-6.613281-17.320312-.054687-23.9375l12.78125-12.535156 20.675781-19.960938.25-.242187c.535156-.535157 1.042969-1.085938 1.554687-1.636719 6.644532-5.078125 16.207032-4.597656 22.28125 1.476562 6.570313 6.574219 6.609375 16.085938.101563 22.652344l-34.0625 33.394532c-6.984375 6.445312-17.503907 6.8125-23.527344.789062zm55.800781 48.335938c-6.605468-6.609376-6.480468-17.484376.273438-24.265626l29.242187-28.9375.074219-.074218c3.171875-3.175782 7.433594-4.921875 11.996094-4.921875 4.558594 0 8.820312 1.746093 11.996094 4.921875 6.605468 6.605468 6.613281 17.347656.03125 23.964844l-29.246094 28.941406-.074219.070312c-6.777344 6.78125-17.675781 6.914063-24.292969.300782zm59.90625 47.195312c-3.441406-3.441406-5.363281-8.054688-5.414062-12.992188-.050782-4.835937 1.730468-9.304687 5.015625-12.585937l11.976562-11.976563c3.195313-3.199218 7.34375-4.78125 11.585938-4.78125 4.636719 0 9.390625 1.890626 13.136719 5.636719 7.003906 7.003907 7.003906 18.402344 0 25.40625l-11 11.398438c-7.011719 6.898437-18.332032 6.863281-25.300782-.105469zm0 0"/>
    </symbol>

    <symbol id="approach06" role="img" aria-labelledby="approach06_title" viewBox="-20 0 512 512">
        <title id="approach06_title"></title>
        <path d="m404.996094 110.746094 18.21875-21.09375 22.707031 19.605468 26.144531-30.269531-75.683594-65.363281-26.144531 30.273438 22.703125 19.609374-18.242187 21.121094c-34.621094-25.109375-75.210938-40.199218-118.167969-43.78125v-40.847656h-40v40.847656c-43.210938 3.601563-84.027344 18.851563-118.78125 44.226563l-18.628906-21.566407 22.703125-19.609374-26.140625-30.273438-75.683594 65.363281 26.144531 30.269531 22.703125-19.605468 18.691406 21.640625c-43.226562 44.320312-67.007812 102.679687-67.007812 164.707031 0 63.039062 24.546875 122.304688 69.125 166.878906 44.574219 44.574219 103.835938 69.121094 166.875 69.121094s122.304688-24.546875 166.878906-69.121094c44.574219-44.578125 69.121094-103.839844 69.121094-166.878906 0-62.277344-23.972656-120.867188-67.535156-165.253906zm-168.464844 361.253906c-108.074219 0-196-87.925781-196-196s87.925781-196 196-196 196 87.925781 196 196-87.925781 196-196 196zm66-149.640625c0 29.820313-19.792969 55.125-47 63.605469v35.035156h-40v-35.085938c-10.132812-3.199218-19.457031-8.828124-27.253906-16.609374-12.730469-12.707032-19.746094-29.476563-19.746094-47.207032v-12.097656h40v12.097656c0 14.582032 12.363281 26.902344 27 26.902344s27-12.199219 27-26.640625c0-11.644531-11.503906-18.902344-35.929688-31.601563l-.296874-.15625c-18.988282-9.875-50.773438-26.40625-50.773438-68.035156 0-15.871094 6.324219-30.84375 17.804688-42.160156 6.417968-6.332031 13.980468-11.054688 22.195312-13.972656v-35.433594h40v35.386719c23.25 8.125 39.949219 29.980469 39.949219 55.613281v10h-40v-10c0-10.476562-8.949219-19-19.949219-19-10.839844 0-20 8.960938-20 19.566406 0 14.726563 7.660156 21.328125 29.230469 32.546875l.296875.152344c25.605468 13.316406 57.472656 29.890625 57.472656 67.09375zm0 0"/>
    </symbol>
  
    <symbol id="problems01" role="img" aria-labelledby="problems01_title" viewBox="0 0 512 512">
        <title id="problems01_title"></title>
        <polygon points="117.269,322.334 117.269,511.826 157.242,511.826 157.241,281.588 			"/>
		<polygon points="195.216,511.826 235.188,511.826 235.188,307.318 195.216,267.346 			"/>
		<polygon points="38.322,511.826 78.295,511.826 78.295,362.064 38.322,402.812 			"/>
		<polygon points="392.081,0.173 392.081,40.146 444.761,40.146 262.919,221.989 182.265,141.335 0,329.017 28.676,356.865 
			182.683,198.282 262.919,278.519 472.027,69.411 472.027,119.093 512,119.093 512,0.173 			"/>
		<polygon points="431.055,166.913 431.055,511.827 471.028,511.827 471.028,161.064 436.904,161.064 			"/>
		<polygon points="273.162,511.826 313.135,511.826 313.135,284.833 273.162,324.806 			"/>
		<polygon points="352.109,511.827 392.081,511.827 392.081,205.887 352.109,245.859 			"/>
    </symbol>

    <symbol id="problems02" role="img" aria-labelledby="problems02_title" viewBox="0 0 512 512">
        <title id="problems02_title"></title>
        <path d="m45 192h-45v-40h45zm-26.574219 79.003906 17.996094 35.722656 42.4375-21.375-17.992187-35.722656zm59.433594-215.410156-41.441406-20.871094-17.992188 35.726563 41.441407 20.867187zm355.28125 229.757812 42.441406 21.375 17.992188-35.722656-42.441407-21.375zm60.433594-214.902343-17.992188-35.726563-41.441406 20.871094 17.992187 35.722656zm-65.578125 100.40625h.003906l-.003906 1.144531c-.316406 68.6875-29.203125 106.699219-54.707032 140.261719-21.328124 28.066406-38.175781 50.242187-38.175781 87.152343v52.585938c0 33.085938-26.917969 60-60 60h-38.222656c-33.085937 0-60-26.914062-60-60v-52.585938c0-36.910156-16.851563-59.085937-38.179687-87.152343-25.503907-33.5625-54.390626-71.574219-54.707032-140.261719h-.003906l.003906-1.144531c.617188-94.316407 77.535156-170.855469 171.996094-170.855469s171.378906 76.539062 171.996094 170.855469zm-132.886719 281.144531v-39h-78.222656v39c0 11.027344 8.972656 20 20 20h38.222656c11.03125 0 20-8.972656 20-20zm92.890625-280.507812c-.273438-72.554688-59.382812-131.492188-132-131.492188s-131.726562 58.9375-132 131.492188c.171875 55.523437 22.707031 85.179687 46.558594 116.566406 18.507812 24.355468 37.527344 49.382812 44.007812 84.941406h82.867188c6.480468-35.558594 25.5-60.585938 44.007812-84.941406 23.851563-31.386719 46.386719-61.042969 46.558594-116.566406zm-122.53125-80.03125c-20.902344-2.316407-41.804688 4.328124-57.339844 18.234374-15.335937 13.726563-24.128906 33.367188-24.128906 53.882813h40c0-9.289063 3.839844-17.839844 10.808594-24.078125 7.171875-6.421875 16.496094-9.363281 26.25-8.28125 15.039062 1.667969 27.140625 13.6875 28.777344 28.578125 1.148437 10.445313-3.871094 20.441406-16.789063 33.417969-3.160156 3.175781-6.085937 5.964844-8.914063 8.664062-14.558593 13.882813-27.128906 25.871094-27.128906 52.117188v1.003906h40v-1.003906c0-8.613282 1.667969-10.707032 14.734375-23.171875 2.875-2.738281 6.128907-5.847657 9.660157-9.390625 13.707031-13.773438 31.542968-35.59375 28.199218-66.007813-3.667968-33.347656-30.636718-60.246093-64.128906-63.964843zm-28.46875 233.539062h40v-40h-40zm230-173v40h45v-40zm0 0"/>
    </symbol>

    <symbol id="problems03" role="img" aria-labelledby="problems03_title" viewBox="-21 -21 682.66669 682.66669">
        <title id="problems03_title"></title>
        <path d="m640 345h-63.714844c-11.816406 122.070312-109.214844 219.46875-231.285156 231.285156v63.714844h-50v-63.714844c-122.070312-11.816406-219.46875-109.214844-231.285156-231.285156h-63.714844v-50h63.714844c11.816406-122.070312 109.214844-219.46875 231.285156-231.285156v-63.714844h50v63.714844c34.476562 3.339844 66.988281 13.507812 96.15625 29.128906-12.214844 12.085938-24.882812 24.621094-37.53125 37.15625-.03125.03125-.054688.054688-.085938.082031-18.289062-8.074219-37.957031-13.578125-58.539062-16.0625v50.980469h-50v-50.984375c-94.472656 11.390625-169.59375 86.511719-180.992188 180.984375h50.992188v50h-50.992188c11.398438 94.472656 86.519532 169.59375 180.992188 180.992188v-50.992188h50v50.992188c94.472656-11.398438 169.59375-86.519532 180.992188-180.992188h-50.992188v-50h50.980469c-2.503907-20.746094-8.070313-40.5625-16.25-58.976562 12.320312-12.199219 24.898437-24.65625 37.472656-37.09375 15.59375 29.148437 25.746094 61.625 29.082031 96.070312h63.714844zm-295-86.230469v-43.769531h-50v130h130v-50h-45.511719c55.101563-55.113281 155.160157-154.070312 228.058594-225.945312l-35.09375-35.609376c-.671875.65625-67.355469 66.40625-133.640625 132.078126-43.570312 43.15625-73.347656 72.773437-93.8125 93.246093zm0 0"/>
    </symbol>

    <symbol id="problems04" role="img" aria-labelledby="problems04_title" viewBox="0 0 512 512">
        <title id="problems04_title"></title>
        <path d="M452,20H60C26.916,20,0,46.916,0,80v352c0,33.084,26.916,60,60,60h12.771c-0.945-1.476-1.855-2.98-2.716-4.522  c-6.199-11.109-9.768-23.236-10.732-35.512C48.609,451.604,40,442.8,40,432V180h432v252c0,10.8-8.61,19.605-19.324,19.966  c-0.964,12.277-4.533,24.403-10.731,35.512c-0.861,1.542-1.771,3.047-2.716,4.522H452c33.084,0,60-26.916,60-60V80  C512,46.916,485.084,20,452,20z M40,140V80c0-11.028,8.972-20,20-20h392c11.028,0,20,8.972,20,20v60H40z M405.966,420.498  c8.925,14.463,9.324,32.656,1.048,47.489C398.624,483.023,383.343,492,366.136,492H316v-40h50.136c3.475,0,5.218-2.195,5.948-3.503  c0.737-1.321,1.697-3.985-0.153-6.984L261.8,263.252c-1.747-2.83-4.383-3.252-5.8-3.252s-4.053,0.422-5.794,3.243L140.063,441.521  c-1.845,2.99-0.885,5.654-0.147,6.976c0.73,1.308,2.474,3.503,5.948,3.503H196v40h-50.136c-17.207,0-32.488-8.977-40.878-24.013  c-8.276-14.833-7.877-33.026,1.042-47.48l110.143-178.278C224.758,228.313,239.649,220,256,220s31.242,8.313,39.835,22.237  L405.966,420.498z M235,452h40v40h-40V452z M235,337h40v85h-40V337z M110,100c0,11.046-8.954,20-20,20s-20-8.954-20-20  s8.954-20,20-20S110,88.954,110,100z M180,100c0,11.046-8.954,20-20,20s-20-8.954-20-20s8.954-20,20-20S180,88.954,180,100z"/>
    </symbol>

    <symbol id="problems05" role="img" aria-labelledby="problems05_title" viewBox="0 0 512 512">
        <title id="problems05_title"></title>
        <path d="M289.739,512h-67.479l-18.14-68.196c-15.398-4.252-30.188-10.407-44.192-18.39l-60.574,34.876l-47.646-47.647l34.876-60.573  c-7.983-14.004-14.137-28.794-18.389-44.192L0,289.739v-67.479l68.196-18.14c4.251-15.397,10.406-30.188,18.389-44.192  L51.709,99.355l47.646-47.647l60.575,34.876c14.004-7.983,28.793-14.137,44.191-18.389L222.261,0h67.479l18.14,68.196  c15.398,4.252,30.188,10.406,44.191,18.389l60.575-34.876l47.646,47.647l-34.876,60.574c7.983,14.004,14.138,28.794,18.39,44.192  L512,222.261v67.479l-68.196,18.14c-4.252,15.398-10.406,30.188-18.389,44.192l34.875,60.573l-47.646,47.647l-60.574-34.876  c-14.004,7.983-28.794,14.137-44.192,18.39L289.739,512z M253.012,472h5.977l16.468-61.914l12.098-2.505  c18.907-3.914,36.817-11.363,53.232-22.141l10.289-6.755l54.961,31.645l4.293-4.293l-31.644-54.96l6.755-10.289  c10.777-16.416,18.226-34.326,22.14-53.233l2.505-12.098L472,258.988v-5.977l-61.914-16.468l-2.504-12.098  c-3.913-18.907-11.362-36.816-22.141-53.232l-6.755-10.289l31.645-54.961l-4.293-4.293l-54.961,31.645l-10.289-6.755  c-16.415-10.777-34.325-18.226-53.232-22.14l-12.098-2.504L258.988,40h-5.977l-16.468,61.915l-12.098,2.504  c-18.907,3.914-36.817,11.362-53.232,22.14l-10.289,6.755l-54.961-31.645l-4.293,4.293l31.645,54.961l-6.755,10.289  c-10.778,16.417-18.227,34.326-22.14,53.232l-2.504,12.099L40,253.012v5.977l61.915,16.468l2.504,12.098  c3.914,18.907,11.362,36.817,22.14,53.232l6.755,10.289l-31.644,54.96l4.293,4.293l54.961-31.645l10.289,6.755  c16.416,10.777,34.325,18.227,53.232,22.141l12.098,2.505L253.012,472z M492,274.364h0.01H492z M276.004,301.996  c0-8.612,1.665-10.708,14.734-23.171c2.874-2.74,6.13-5.846,9.658-9.39c13.708-13.771,31.544-35.596,28.2-66.008  c-3.666-33.347-30.636-60.248-64.129-63.964c-20.896-2.317-41.802,4.327-57.339,18.235C191.794,171.423,183,191.063,183,211.58h40  c0-9.29,3.838-17.842,10.807-24.08c7.175-6.423,16.495-9.361,26.25-8.282c15.039,1.668,27.143,13.688,28.78,28.58  c1.149,10.447-3.872,20.441-16.789,33.418c-3.161,3.175-6.085,5.964-8.914,8.662c-14.557,13.882-27.128,25.871-27.128,52.118V303h40  V301.996z M276,333h-40v40h40V333z"/>
    </symbol>

    <symbol id="problems06" role="img" aria-labelledby="problems06_title" viewBox="0 0 512 512">
        <title id="problems06_title"></title>
        <path d="m437.019531 74.980469c-48.351562-48.351563-112.640625-74.980469-181.019531-74.980469s-132.667969 26.628906-181.019531 74.980469c-48.351563 48.351562-74.980469 112.640625-74.980469 181.019531s26.628906 132.667969 74.980469 181.019531c48.351562 48.351563 112.640625 74.980469 181.019531 74.980469s132.667969-26.628906 181.019531-74.980469c48.351563-48.351562 74.980469-112.640625 74.980469-181.019531s-26.628906-132.667969-74.980469-181.019531zm-181.019531 397.019531c-119.101562 0-216-96.898438-216-216s96.898438-216 216-216 216 96.898438 216 216-96.898438 216-216 216zm-30.015625-302.269531c0-15.839844 13.457031-28.730469 30-28.730469v-40c-38.597656 0-70 30.832031-70 68.730469v27.269531h-42.984375v184h226v-184h-143.015625zm103.015625 171.269531h-146v-104h146zm-73.015625-200v-40c27.707031 0 52.847656 16.078125 64.046875 40.96875 3.949219 8.773438 5.953125 18.113281 5.953125 27.765625h-40c0-3.953125-.820313-7.769531-2.429687-11.351563-4.75-10.558593-15.574219-17.382812-27.570313-17.382812zm-19.984375 148c0-11.046875 8.953125-20 20-20s20 8.953125 20 20-8.953125 20-20 20-20-8.953125-20-20zm0 0"/>
    </symbol>

    <symbol id="quote" role="img" aria-labelledby="quote_title" viewBox="0 0 298.667 298.667">
    	<title id="quote_title"></title>
        <polygon points="0,170.667 64,170.667 21.333,256 85.333,256 128,170.667 128,42.667 0,42.667 			"/>
		<polygon points="170.667,42.667 170.667,170.667 234.667,170.667 192,256 256,256 298.667,170.667 298.667,42.667 			"/>
    </symbol>

    <symbol id="arrows" role="img" aria-labelledby="arrows_title" viewBox="0 0 220.682 220.682">
    	<title id="arrows_title"></title>
        <polygon points="92.695,38.924 164.113,110.341 92.695,181.758 120.979,210.043 220.682,110.341 120.979,10.639 	"/>
		<polygon points="28.284,210.043 127.986,110.341 28.284,10.639 0,38.924 71.417,110.341 0,181.758 	"/>
    </symbol>

    <symbol id="footer-facebook" role="img" aria-labelledby="footer-facebook_title" viewBox="0 0 512 512">
        <title id="footer-facebook_title">Facebook</title>
        <path d="M314.829,135.492h70.595c11.423,0,20.682-9.26,20.682-20.682V20.682C406.107,9.26,396.848,0,385.425,0h-70.595
            c-76.282,0-138.341,62.06-138.341,138.341v49.913h-49.913c-11.422,0-20.682,9.26-20.682,20.682v94.127
            c0,11.423,9.26,20.682,20.682,20.682h49.913v167.572c0,11.423,9.26,20.682,20.682,20.682h94.127
            c11.423,0,20.682-9.259,20.682-20.682V323.746h49.913c9.49,0,17.763-6.458,20.065-15.666l23.532-94.127
            c1.544-6.179,0.156-12.725-3.763-17.744c-3.919-5.02-9.932-7.954-16.301-7.954H311.98v-49.913
            C311.98,136.77,313.258,135.492,314.829,135.492z M291.298,229.619h67.637l-13.191,52.763h-54.447
            c-11.423,0-20.682,9.259-20.682,20.682v167.572h-52.763V303.064c0-11.423-9.26-20.682-20.682-20.682h-49.913v-52.763h49.913
            c11.422,0,20.682-9.26,20.682-20.682v-70.595c0-53.473,43.503-96.977,96.977-96.977h49.913v52.763h-49.913
            c-24.38,0-44.214,19.835-44.214,44.214v70.595C270.615,220.359,279.875,229.619,291.298,229.619z"/>
    </symbol>

    <symbol id="footer-twitter" role="img" aria-labelledby="footer-twitter_title" viewBox="0 0 512 512">
        <title id="footer-twitter_title">Twitter</title>
        <path d="M502.954,47.189c-7.126-4.852-16.515-4.774-23.559,0.196c-15.351,10.828-31.974,19.528-49.557,25.948
            c-19.253-17.414-43.615-27.826-69.915-29.656c-31.056-2.16-61.081,7.9-84.561,28.326c-25.59,22.259-40.174,54.444-40.046,88.349
            c-85.248-7.609-139.14-61.55-177.09-108.986c-4.598-5.746-11.901-8.619-19.182-7.538c-7.279,1.078-13.438,5.944-16.171,12.777
            c-0.948,2.369-23.141,58.799-17.453,127.057c4.761,57.133,30.23,131.964,120.039,181.717
            c-32.436,14.756-68.282,21.939-103.953,20.519c-9.576-0.378-18.15,5.859-20.736,15.08c-2.587,9.221,1.497,19.013,9.869,23.665
            c51.359,28.532,108.03,43.736,163.889,43.965c0.432,0.002,0.861,0.003,1.294,0.003c54.105-0.001,106.379-13.938,151.246-40.336
            c42.898-25.241,78.416-61.759,102.715-105.603c26.162-47.206,39.427-101.75,39.427-162.186c-0.011-3.544-0.186-7.098-0.52-10.638
            c20.7-22.885,35.388-50.567,42.719-80.667C513.451,60.803,510.081,52.04,502.954,47.189z M432.297,128.07
            c-4.916,4.847-7.088,11.827-5.793,18.607c0.877,4.588,1.329,9.278,1.344,13.874c0,101.956-44.378,186.544-121.756,232.072
            c-60.586,35.649-133.037,43.933-203.609,25.057c0.729-0.201,1.459-0.407,2.185-0.615c27.596-7.885,53.63-20.055,77.377-36.174
            c6.329-4.296,9.77-11.734,8.946-19.34c-0.825-7.605-5.778-14.134-12.881-16.975C97.757,312.434,53.563,257.594,46.757,181.575
            c-2.536-28.334,0.707-54.721,4.766-74.501c16.638,17.909,37.384,37.227,62.129,53.407c42.771,27.966,90.663,42.146,142.346,42.146
            c11.423,0,20.682-9.26,20.682-20.682v-21.393c0-0.045,0-0.091,0-0.137c-0.146-21.948,9.268-42.797,25.829-57.202
            c15.146-13.175,34.51-19.665,54.543-18.27c20.026,1.393,38.311,10.502,51.487,25.648c5.339,6.138,13.783,8.577,21.567,6.229
            c5.725-1.724,11.375-3.645,16.941-5.757C442.599,117.081,437.672,122.769,432.297,128.07z"/>
    </symbol>    

    <symbol id="footer-linkedin" role="img" aria-labelledby="footer-linkedin_title" viewBox="0 0 512 512">
        <title id="footer-linkedin_title">Linkedin</title>
        <path d="M2.5,510V153.7h137.3V510H2.5z M102.5,472.7V191H39.8v281.7H102.5z"/>
        <path d="M375.4,510l0.1-158.1c0.5-23.6-8.8-42.9-24.9-51.7c-5.4-3-11.2-4.5-17.3-4.5c-5.2,0-10.4,1.1-15.5,3.3l-1.1,211H176.1
            V153.7h140.6V166c16.6-6,33.6-9.1,50.6-9.1c24.7,0,48.3,6.4,70.2,18.9c44,25.2,72.5,71.8,72.5,118.8V510H375.4z M472.7,472.7V294.6
            c0-33.8-21.1-67.7-53.7-86.4c-15.9-9.1-33.8-13.9-51.7-14h-0.3c-20.1,0-40.1,5.8-59.6,17.3L279.4,228V191h-66.1v281.7h66.2l1-194.7
            l8.2-5.5c13.7-9.2,29.1-14.1,44.5-14.1c12.4,0,24.2,3,35.1,9c13.7,7.5,25,19.2,32.8,33.8c7.9,14.9,11.9,32.6,11.5,51.1l0,120.3
            H472.7z"/>
        <path d="M70.9,139.9C32.9,139.9,2,109,2,71c0-38,30.9-69,68.9-69c38,0,68.9,30.9,68.9,69C139.8,109,108.9,139.9,70.9,139.9z
             M70.9,39.3c-17.4,0-31.6,14.2-31.6,31.7c0,17.5,14.2,31.7,31.6,31.7c17.4,0,31.6-14.2,31.6-31.7C102.5,53.5,88.3,39.3,70.9,39.3z"
            />
    </symbol>

    <symbol id="footer-instagram" role="img" aria-labelledby="footer-instagram_title" viewBox="0 0 512 512">
        <title id="footer-instagram_title">Instagram</title>
        <path d="M373.659,0H138.341C62.06,0,0,62.06,0,138.341v235.318C0,449.94,62.06,512,138.341,512h235.318
            C449.94,512,512,449.94,512,373.659V138.341C512,62.06,449.94,0,373.659,0z M470.636,373.659
            c0,53.473-43.503,96.977-96.977,96.977H138.341c-53.473,0-96.977-43.503-96.977-96.977V138.341
            c0-53.473,43.503-96.977,96.977-96.977h235.318c53.473,0,96.977,43.503,96.977,96.977V373.659z"/>
        <path d="M370.586,238.141c-3.64-24.547-14.839-46.795-32.386-64.342c-17.547-17.546-39.795-28.746-64.341-32.385
            c-11.176-1.657-22.507-1.657-33.682,0c-30.336,4.499-57.103,20.541-75.372,45.172c-18.269,24.631-25.854,54.903-21.355,85.237
            c4.499,30.335,20.541,57.102,45.172,75.372c19.996,14.831,43.706,22.619,68.153,22.619c5.667,0,11.375-0.418,17.083-1.265
            c30.336-4.499,57.103-20.541,75.372-45.172C367.5,298.747,375.085,268.476,370.586,238.141z M267.791,327.632
            c-19.405,2.882-38.77-1.973-54.527-13.66c-15.757-11.687-26.019-28.811-28.896-48.216c-2.878-19.405,1.973-38.77,13.66-54.527
            c11.688-15.757,28.811-26.019,48.217-28.897c3.574-0.53,7.173-0.795,10.772-0.795s7.199,0.265,10.773,0.796
            c32.231,4.779,57.098,29.645,61.878,61.877C335.608,284.268,307.851,321.692,267.791,327.632z"/>
        <path d="M400.049,111.951c-3.852-3.851-9.183-6.058-14.625-6.058c-5.442,0-10.773,2.206-14.625,6.058
            c-3.851,3.852-6.058,9.174-6.058,14.625c0,5.451,2.207,10.773,6.058,14.625c3.852,3.851,9.183,6.058,14.625,6.058
            c5.442,0,10.773-2.206,14.625-6.058c3.851-3.852,6.058-9.183,6.058-14.625C406.107,121.133,403.9,115.802,400.049,111.951z"/>
    </symbol>

    <symbol id="footer-google" role="img" aria-labelledby="footer-google_title" viewBox="0 90 320 320">
        <title id="footer-google_title">Google</title>
		<path d="M160,224v64h90.528c-13.216,37.248-48.8,64-90.528,64c-52.928,0-96-43.072-96-96c0-52.928,43.072-96,96-96
			c22.944,0,45.024,8.224,62.176,23.168l42.048-48.256C235.424,109.824,198.432,96,160,96C71.776,96,0,167.776,0,256
			s71.776,160,160,160s160-71.776,160-160v-32H160z"/>
    </symbol>

    <symbol id="footer-phone" role="img" aria-labelledby="footer-phone_title" viewBox="0 0 512 512">
        <title id="footer-phone_title"></title>
        <path d="M421.216,195.504c-5.092-26.101-17.723-49.836-36.526-68.64c-18.804-18.803-42.54-31.434-68.641-36.527
			c-11.21-2.189-22.073,5.128-24.261,16.339c-2.187,11.212,5.128,22.073,16.339,24.26c36.847,7.188,65.3,35.642,72.489,72.489
			c1.927,9.874,10.581,16.726,20.278,16.726c1.313,0,2.645-0.125,3.984-0.387C416.088,217.577,423.403,206.715,421.216,195.504z"/>
		<path d="M511.422,196.929c-5.629-50.096-28.373-97.304-64.042-132.927C411.712,28.378,364.475,5.694,314.371,0.128
			c-11.355-1.261-21.578,6.92-22.839,18.272c-1.261,11.353,6.919,21.578,18.272,22.84c84.961,9.438,150.966,75.36,160.512,160.31
			c1.188,10.566,10.139,18.374,20.527,18.374c0.771,0,1.552-0.043,2.336-0.131C504.53,218.516,512.698,208.281,511.422,196.929z"/>
		<path d="M432.59,312.566c-0.062-0.008-0.124-0.017-0.186-0.025c-20.013-2.639-39.751-7.557-58.619-14.596
			c-23.91-8.99-51.103-3.191-69.27,14.772c-0.028,0.028-0.056,0.055-0.083,0.083l-17.148,17.148
			c-42.633-26.924-78.756-63.047-105.679-105.679l17.149-17.149c0.027-0.028,0.054-0.055,0.082-0.083
			c17.964-18.166,23.762-45.356,14.79-69.223c-7.057-18.914-11.974-38.653-14.614-58.666c-0.007-0.063-0.017-0.127-0.026-0.19
			c-4.591-32.478-32.782-56.734-65.548-56.467H66.053c-1.943,0.002-3.912,0.091-5.853,0.267
			C24.143,26.016-2.541,58.001,0.718,94.058c0.01,0.108,0.02,0.215,0.032,0.323c7.684,72.354,32.649,142.88,72.197,203.955
			c35.892,56.461,84.701,105.269,141.162,141.164c60.792,39.406,130.99,64.369,203.013,72.196c0.127,0.015,0.254,0.027,0.38,0.038
			c1.961,0.176,3.949,0.266,5.921,0.266c0.083,0,0.165,0,0.247,0.001c36.204-0.148,65.538-29.722,65.391-65.841v-67.233
			C489.746,345.714,465.515,317.211,432.59,312.566z M447.698,378.695v67.548c0.055,13.396-10.8,24.338-24.19,24.393
			c-0.715-0.004-1.425-0.027-2.135-0.086c-65.578-7.161-129.488-29.914-184.837-65.808c-0.053-0.035-0.107-0.069-0.161-0.103
			c-51.429-32.68-95.885-77.137-128.565-128.565c-0.032-0.051-0.064-0.101-0.097-0.153C71.683,220.306,48.928,156.086,41.902,90.193
			C40.779,76.91,50.63,65.155,63.923,63.954c0.717-0.064,1.443-0.098,2.145-0.098h67.463c0.146-0.001,0.294-0.003,0.443-0.002
			c12.021,0,22.322,8.905,24.044,20.819c3.05,23.063,8.721,45.806,16.871,67.649c3.319,8.832,1.189,18.869-5.427,25.591
			l-28.517,28.517c-6.583,6.582-7.956,16.753-3.354,24.847c33.837,59.508,83.177,108.847,142.685,142.685
			c8.094,4.6,18.264,3.23,24.848-3.355l28.512-28.512c6.72-6.621,16.765-8.752,25.642-5.415
			c21.799,8.134,44.547,13.805,67.61,16.855c12.18,1.757,21.122,12.339,20.816,24.647
			C447.7,378.353,447.698,378.524,447.698,378.695z"/>
    </symbol>    

	<symbol id="footer-mail" role="img" aria-labelledby="footer-mail_title" viewBox="0 0 512 512">
        <title id="footer-mail_title"></title>
        <path d="M256,141.176c-63.306,0-114.809,51.503-114.809,114.809S192.694,370.795,256,370.795s114.809-51.503,114.809-114.809
			S319.306,141.176,256,141.176z M256,329.43c-40.498,0-73.445-32.947-73.445-73.445c0-40.498,32.947-73.445,73.445-73.445
			c40.499,0,73.445,32.947,73.445,73.445C329.445,296.483,296.499,329.43,256,329.43z"/>
		<path d="M437.008,74.97C388.656,26.623,324.375,0,256,0c-0.005,0-0.013,0-0.017,0C187.603,0.004,123.318,26.637,74.97,74.992
			C26.62,123.347-0.005,187.637,0,256.017c0.004,68.379,26.637,132.666,74.992,181.014C123.344,485.377,187.625,512.001,256,512
			c0.004,0,0.012,0,0.017,0c55.945-0.004,111.216-18.738,155.631-52.752c9.07-6.945,10.792-19.927,3.846-28.995
			c-6.945-9.069-19.926-10.794-28.995-3.846c-37.24,28.518-83.58,44.224-130.486,44.228c-0.006,0-0.006,0-0.014,0
			c-57.324,0-111.224-22.324-151.761-62.856c-40.542-40.536-62.871-94.435-62.875-151.766
			C41.357,137.663,137.636,41.372,255.986,41.364c0.007,0,0.006,0,0.014,0c118.34,0,214.628,96.279,214.636,214.622v23.532
			c0,27.523-22.39,49.913-49.913,49.913c-27.523,0-49.913-22.391-49.913-49.913v-23.532c0-11.422-9.259-20.682-20.682-20.682
			s-20.682,9.26-20.682,20.682v23.532c0,50.33,40.947,91.278,91.278,91.278S512,329.848,512,279.518v-23.534
			C511.995,187.604,485.362,123.318,437.008,74.97z"/>
    </symbol>

    <symbol id="footer-location" role="img" aria-labelledby="footer-location_title" viewBox="0 0 512 512">
        <title id="footer-location_title"></title>
        <path d="M406.766,62.449C366.495,22.178,312.951,0,256,0S145.505,22.178,105.234,62.449
			c-40.272,40.271-62.449,93.814-62.449,150.766c0,37.656,10.972,76.863,32.609,116.532c16.825,30.846,40.15,62.102,69.326,92.898
			c49.17,51.903,97.763,84.519,99.808,85.881C248.001,510.842,252,512,256,512c4,0,7.999-1.158,11.473-3.474
			c2.045-1.363,50.638-33.978,99.808-85.881c29.176-30.795,52.501-62.051,69.326-92.898c21.637-39.669,32.609-78.876,32.609-116.532
			C469.215,156.263,447.038,102.72,406.766,62.449z M256.001,465.903C215.826,436.156,84.15,329.739,84.15,213.215
			c0-94.759,77.091-171.851,171.85-171.851s171.85,77.092,171.851,171.851C427.851,329.748,296.159,436.168,256.001,465.903z"/>
		<path d="M256,128.355c-46.791,0-84.86,38.068-84.86,84.86c0,46.791,38.068,84.86,84.86,84.86c46.792,0,84.861-38.068,84.86-84.86
			C340.86,166.423,302.791,128.355,256,128.355z M256,256.71c-23.983,0-43.495-19.512-43.495-43.495
			c0-23.983,19.512-43.495,43.495-43.495c23.984,0,43.495,19.512,43.495,43.495C299.495,237.198,279.984,256.71,256,256.71z"/>
		</symbol>

	<symbol id="footer-time" role="img" aria-labelledby="footer-time_title" viewBox="0 0 512 512">
        <title id="footer-time_title"></title>
        <path d="M437.019,74.981C388.667,26.629,324.38,0,256,0S123.333,26.63,74.981,74.981S0,187.62,0,256
			s26.629,132.667,74.981,181.019C123.332,485.371,187.62,512,256,512s132.667-26.629,181.019-74.981
			C485.371,388.667,512,324.38,512,256S485.371,123.332,437.019,74.981z M256,470.636C137.65,470.636,41.364,374.35,41.364,256
			S137.65,41.364,256,41.364S470.636,137.65,470.636,256S374.35,470.636,256,470.636z"/>
		<path d="M341.221,311.97l-64.538-64.537V114.809c0-11.422-9.259-20.682-20.682-20.682c-11.422,0-20.682,9.26-20.682,20.682V256
			c0,5.486,2.179,10.746,6.058,14.625l70.594,70.595c4.038,4.039,9.332,6.058,14.625,6.058c5.293,0,10.586-2.019,14.626-6.058
			C349.297,333.142,349.297,320.047,341.221,311.97z"/>
	</symbol>

</svg>