<svg xmlns="http://www.w3.org/2000/svg" xmlns:xlink="http://www.w3.org/1999/xlink">

	<symbol id="header-phone" role="img" aria-labelledby="header-phone_title" viewBox="0 0 512.215 512.215">
        <title id="header-phone_title"></title>
        <path d="M85.409,110.988l-24.368-20.8c-7.372,8.663-14.166,17.803-20.336,27.36l26.896,17.376
			C73.003,126.562,78.952,118.566,85.409,110.988z"/>
		<path d="M129.697,71.116l-18.08-26.4c-9.386,6.435-18.344,13.474-26.816,21.072l21.424,23.808
			C113.633,82.926,121.474,76.752,129.697,71.116z"/>
		<path d="M437.342,75.196C389.271,27.069,324.023,0.051,256.001,0.108c-39.945-0.138-79.356,9.183-115.008,27.2l14.4,28.576
			c31.189-15.755,65.665-23.902,100.608-23.776C379.712,32,480.088,132.201,480.196,255.913
			C480.304,379.624,380.104,480,256.392,480.108c-53.99,0.047-106.181-19.408-146.967-54.784l29.776-29.84l20.656,20.624h91.104
			l165.04-165.04v-91.104l-70.4-70.48l-94.192,94.192l46.704,46.704l-67.76,67.76l-46.704-46.704l-94.272,94.272l27.2,27.2
			l-52.8,52.8l11.312,11.312c99.915,100.033,262.005,100.129,362.039,0.214S537.257,175.23,437.342,75.196z M183.569,296.684
			l46.704,46.704L343.281,230.38l-46.704-46.704l49.024-48.944l38.4,38.48v64.592L237.697,384.108h-64.592l-38.48-38.4
			L183.569,296.684z"/>
		<path d="M53.105,161.068l0.048-0.064l-28.944-13.6c-35.232,75.131-31.844,162.681,9.088,234.864l27.808-15.76
			C25.313,303.368,22.331,226.8,53.105,161.068z"/>
    </symbol>

    <symbol id="header-email" role="img" aria-labelledby="header-email_title" viewBox="0 0 512.027 512.027">
        <title id="header-email_title"></title>
        <path d="M425.313,109.387l24.176-21.024c-7.465-8.578-15.482-16.659-24-24.192l-21.184,24
			C411.763,94.777,418.78,101.865,425.313,109.387z"/>
		<path d="M32.017,256.027c-0.01-123.712,100.27-224.008,223.982-224.018c44.395-0.004,87.789,13.185,124.674,37.89l17.84-26.56
			C281.049-35.349,122.036-3.915,43.348,113.549s-47.254,276.477,70.211,355.165c42.146,28.233,91.73,43.308,142.459,43.312h96v-32
			h-96C132.36,479.894,32.149,379.684,32.017,256.027z"/>
		<path d="M470.081,115.547l-26.752,17.6c24.006,36.48,36.764,79.21,36.688,122.88v40c0,30.928-25.072,56-56,56
			c-30.928,0-56-25.072-56-56v-40c0-70.576-50.256-128-112-128s-112,57.424-112,128s50.256,128,112,128
			c36.098-0.781,69.401-19.604,88.688-50.128c21.056,43.803,73.635,62.243,117.438,41.187
			c30.404-14.615,49.777-45.325,49.874-79.059v-40C512.102,206.103,497.52,157.254,470.081,115.547z M256.017,352.027
			c-44.112,0-80-43.056-80-96s35.888-96,80-96s80,43.056,80,96S300.129,352.027,256.017,352.027z"/>
		<rect x="384.017" y="480.027" width="32" height="32"/>
		<rect x="448.017" y="480.027" width="32" height="32"/>
    </symbol>

    <symbol id="header-location" role="img" aria-labelledby="header-location_title" viewBox="0 0 502.172 502.172">
        <title id="header-location_title"></title>
        <path d="M423.422,91.484c-6.484-9.567-13.752-18.58-21.728-26.944l-23.152,22.08c6.757,7.09,12.917,14.727,18.416,22.832
			L423.422,91.484z"/>
		<path d="M421.166,162.54l30.912-8.24c-2.983-11.174-6.89-22.081-11.68-32.608l-29.12,13.28
			C415.333,143.871,418.641,153.093,421.166,162.54z"/>
		<path d="M458.174,188.396l-31.872,2.976c0.528,5.552,0.784,11.104,0.8,16.64c0.125,46.706-18.444,91.52-51.568,124.448
			L251.086,456.924L126.638,332.46c-68.731-68.734-68.728-180.171,0.006-248.902c33.005-33.003,77.768-51.545,124.442-51.546
			c38.1-0.117,75.19,12.247,105.6,35.2l19.2-25.6c-91.9-68.925-222.275-50.3-291.2,41.6c-27.003,36.004-41.6,79.795-41.6,124.8
			c-0.141,55.196,21.804,108.154,60.944,147.072l147.056,147.088l147.072-147.088c39.142-38.916,61.082-91.877,60.928-147.072
			C459.086,201.452,458.782,194.914,458.174,188.396z"/>
		<path d="M267.086,336.012v-33.44c40.2-6.87,71.69-38.36,78.56-78.56h33.44v-32h-33.44c-6.87-40.2-38.36-71.69-78.56-78.56v-33.44
			h-32v33.44c-40.2,6.87-71.69,38.36-78.56,78.56h-33.44v32h33.44c6.87,40.2,38.36,71.69,78.56,78.56v33.44H267.086z
			 M187.086,208.012c0-35.346,28.654-64,64-64c35.346,0,64,28.654,64,64c0,35.346-28.654,64-64,64
				C215.74,272.012,187.086,243.358,187.086,208.012z"/>
    </symbol>    

    <symbol id="header-facebook" role="img" aria-labelledby="header-facebook_title" viewBox="0 0 512 512">
        <title id="header-facebook_title">Facebook</title>
        <path d="M416,0v32h64v448H352V368h64V256h-64v-32c0-8.837,7.163-16,16-16h80V80h-80c-79.492,0.088-143.912,64.508-144,144v32h-64
			v112h64v112H32V32h224V0H0v512h256V336h-64v-48h64v-64c0.071-61.827,50.173-111.929,112-112h48v64h-48c-26.51,0-48,21.49-48,48
			v64h64v48h-64v176h192V0H416z"/>
		<rect x="352" width="32" height="32"/>
		<rect x="288" width="32" height="32"/>
    </symbol>

    <symbol id="header-twitter" role="img" aria-labelledby="header-twitter_title" viewBox="0 0 509.075 509.075">
        <title id="header-twitter_title">Twitter</title>
        <path d="M295.795,412.548l18.128,26.384c9.338-6.419,18.268-13.414,26.736-20.944l-21.28-23.904
			C311.915,400.73,304.038,406.897,295.795,412.548z"/>
		<path d="M439.603,125.012C434.38,63.377,380.181,17.645,318.546,22.868c-58.037,4.918-102.619,53.499-102.544,111.744v31.504
			c-71.694-4.376-137.889-39.887-181.184-97.2L13.907,41.492L6.403,75.156c-4.278,19.529-6.423,39.464-6.4,59.456
			c-0.437,98.681,52.973,189.748,139.312,237.536c-13.264,21.296-45.6,40.592-96.368,57.52L5.795,442.052l35.2,17.168
			c37.044,18.135,77.763,27.508,119.008,27.392c43.412-0.007,86.195-10.368,124.8-30.224l-14.688-28.432
			c-54.874,28.192-118.462,34.295-177.696,17.056c47.52-20.96,74.192-45.456,82.944-75.648l3.76-12.944l-12.112-5.904
			C84.123,310.622,31.582,226.6,32.003,134.612c0-6.4,0.256-12.8,0.752-19.2c52.457,53.5,124.322,83.509,199.248,83.2h16v-64
			c0-44.183,35.817-80,80-80c44.183,0,80,35.817,80,80v9.28l42.928,24.528l-50.928,38.192v8
			c0.122,37.764-8.764,75.013-25.92,108.656l28.528,14.496c18.214-35.69,28.218-75.001,29.28-115.056l77.184-57.904
			L439.603,125.012z"/>
		<path d="M340.515,372.82l24,21.088c7.484-8.514,14.431-17.486,20.8-26.864l-26.448-18.032
			C353.237,357.312,347.109,365.263,340.515,372.82z"/>
    </symbol>    

    <symbol id="header-linkedin" role="img" aria-labelledby="header-linkedin_title" viewBox="0 0 512 512">
        <title id="header-linkedin_title">Linkedin</title>
        <path d="M448,0h-32v32h32c17.673,0,32,14.327,32,32v384c0,17.673-14.327,32-32,32H64c-17.673,0-32-14.327-32-32V64
			c0-17.673,14.327-32,32-32h192V0H64C28.654,0,0,28.654,0,64v384c0,35.346,28.654,64,64,64h384c35.346,0,64-28.654,64-64V64
			C512,28.654,483.346,0,448,0z"/>
		<path d="M80,448h96V224H80V448z M112,256h32v160h-32V256z"/>
		<path d="M304,243.2V224h-96v224h96v-96c0-8.837,7.163-16,16-16s16,7.163,16,16v96h96V307.472
			c-0.009-44.183-35.833-79.993-80.016-79.984c-14.988,0.003-29.674,4.216-42.384,12.16L304,243.2z M375.28,265.504v0.096
			c15.32,8.342,24.817,24.428,24.72,41.872V416h-32v-64c0-26.51-21.49-48-48-48c-26.51,0-48,21.49-48,48v64h-32V256h32v44.8
			l54.56-34.096C341.335,257.345,360.063,256.884,375.28,265.504z"/>
		<path d="M128,64c-35.346,0-64,28.654-64,64c0,35.346,28.654,64,64,64c35.346,0,64-28.654,64-64C192,92.654,163.346,64,128,64z
			 M128,160c-17.673,0-32-14.327-32-32s14.327-32,32-32s32,14.327,32,32S145.673,160,128,160z"/>
		<rect x="352" width="32" height="32"/>
		<rect x="288" width="32" height="32"/>
    </symbol>

    <symbol id="header-instagram" role="img" aria-labelledby="header-instagram_title" viewBox="0 0 512 512">
        <title id="header-instagram_title">Instagram</title>
        <path d="M368,0h-32v32h32c61.827,0.071,111.93,50.173,112,112v224c-0.07,61.827-50.173,111.929-112,112H144
			c-61.827-0.071-111.929-50.173-112-112V144C32.071,82.173,82.173,32.071,144,32h32V0h-32C64.508,0.088,0.088,64.508,0,144v224
			c0.088,79.492,64.508,143.912,144,144h224c79.492-0.088,143.912-64.508,144-144V144C511.912,64.508,447.492,0.088,368,0z"/>
		<path d="M112,256c0,79.529,64.471,144,144,144s144-64.471,144-144s-64.471-144-144-144C176.508,112.088,112.088,176.508,112,256z
			 M256,144c61.856,0,112,50.144,112,112s-50.144,112-112,112s-112-50.144-112-112C144.071,194.173,194.173,144.071,256,144z"/>
		<rect x="384" y="96" width="32" height="32"/>
		<rect x="208" width="32" height="32"/>
		<rect x="272" width="32" height="32"/>
    </symbol>

    <symbol id="button-arrow" role="img" aria-labelledby="button-arrow_title" viewBox="0 0 512 512">
        <title id="button-arrow_title"></title>
        <path d="M256,0C114.615,0,0,114.615,0,256s114.615,256,256,256s256-114.615,256-256C511.833,114.685,397.315,0.167,256,0z
			 M256,480C132.288,480,32,379.712,32,256S132.288,32,256,32s224,100.288,224,224C479.868,379.657,379.657,479.868,256,480z"/>
		<polygon points="126.88,256 208,256 208,224 196.336,224 256,154.24 315.664,224 240,224 240,288 272,288 272,256 385.12,256 
			256,104.992 			"/>
		<rect x="240" y="384" width="32" height="32"/>
		<rect x="240" y="320" width="32" height="32"/>
    </symbol>

    <symbol id="about01" role="img" aria-labelledby="about01_title" viewBox="0 0 480.004 480.004">
        <title id="about01_title"></title>
        <path style="fill:#03a9f4;" d="M448.198,84.28l-8.192-8.576c-44.08-46.184-117.352-47.6-163.192-3.16l-36.816,35.696
		l-36.816-35.696C157.342,28.096,84.07,29.52,39.99,75.704l-8.184,8.576c-44.008,46.104-42.112,119.208,4.224,162.968l43.032,40.64
		h55.96l59.928-169.792c3.112-8.824,15.872-7.968,17.776,1.192L247.958,288.4l34.328-80.096c3.432-8,15.008-7.264,17.392,1.104
		l22.424,78.488h78.84l43.032-40.64C490.31,203.488,492.206,130.384,448.198,84.28z"/>
		<path style="fill:#03a9f4;" d="M375.534,311.888h-71.528l-16-56l-36.432,85.008c-3.56,8.312-15.712,7.096-17.56-1.76
			l-34.008-163.248l-48,136h-47.528l25.408,24l110.12,104l110.12-104L375.534,311.888z"/>
		<path d="M245.31,314.896L204.902,120.92c-0.072-0.328-0.192-0.928-1.144-0.992
			c-0.92-0.136-1.152,0.512-1.256,0.824l-61.824,175.136H79.062v-16h50.304l58.04-164.456c2.6-7.384,9.72-12.016,17.416-11.472
			c7.824,0.52,14.144,6.024,15.744,13.696l30.048,144.24l24.328-56.752c2.904-6.792,9.632-10.864,16.928-10.416
			c7.392,0.464,13.48,5.36,15.504,12.48l20.76,72.68h72.816v16h-84.88L291.982,211.6c-0.072-0.256-0.24-0.848-1.12-0.904
			c-0.968-0.088-1.112,0.488-1.224,0.744L245.31,314.896z"/>
		<path d="M243.182,354.504c-0.6,0-1.208-0.024-1.832-0.088c-7.648-0.768-13.6-6.12-15.168-13.648
			L198.006,205.56l-40.344,114.328H11.998v-16h134.344l55.648-157.672l39.848,191.288c0.064,0.296,0.184,0.896,1.104,0.992
			c0.936,0.128,1.16-0.48,1.272-0.752l45.288-105.688l20.52,71.832H467.99v16H297.966l-11.48-40.168l-27.568,64.328
			C256.142,350.544,250.086,354.504,243.182,354.504z"/>
		<rect x="415.974" y="183.888" width="16" height="16"/>
		<rect x="383.974" y="183.888" width="16" height="16"/>
		<rect x="351.974" y="183.888" width="16" height="16"/>
		<rect x="111.974" y="183.888" width="16" height="16"/>
		<rect x="79.974" y="183.888" width="16" height="16"/>
		<rect x="47.974" y="183.888" width="16" height="16"/>
    </symbol>

    <symbol id="about02" role="img" aria-labelledby="about02_title" viewBox="0 0 496 496">
        <title id="about02_title"></title>
        <path d="m455.160156 276.425781-14.3125 7.160157 24.6875 49.367187-30.488281-6.097656-11.4375 28.578125-24.296875-54.679688-11.3125 5.023438-11.3125-5.023438-24.296875 54.679688-11.4375-28.578125-30.488281 6.097656 24.6875-49.367187-14.3125-7.160157-39.3125 78.628907 49.511718-9.902344 20.5625 51.421875 36.398438-81.871094 12 27v138.296875h-320v-144h112v-39.015625c0-18.390625-12.464844-34.34375-30.304688-38.808594l-33.695312-8.421875v-3.867187c14.488281-10.132813 24-26.910157 24-45.886719v-16c0-30.878906-25.128906-56-56-56-5.558594 0-10.929688.839844-16 2.359375v-114.359375h320v107.0625h16v-123.0625h-352v138.113281c-14.488281 10.125-24 26.910157-24 45.886719v16c0 18.976562 9.511719 35.761719 24 45.886719v3.867187l-33.695312 8.421875c-17.839844 4.464844-30.304688 20.417969-30.304688 38.808594v39.015625h64v160h352v-118.304688l8.390625 18.878907 20.5625-51.421875 49.511719 9.902344zm-375.160156-22.785156c5.070312 1.519531 10.441406 2.359375 16 2.359375s10.929688-.839844 16-2.359375v2.359375c0 8.824219-7.175781 16-16 16s-16-7.175781-16-16zm-24-53.640625v-16c0-22.054688 17.945312-40 40-40s40 17.945312 40 40v16c0 22.054688-17.945312 40-40 40s-40-17.945312-40-40zm-40 96.984375c0-11.03125 7.480469-20.609375 18.175781-23.28125l31.519531-7.878906c4.175782 12.824219 16.105469 22.175781 30.304688 22.175781s26.128906-9.351562 30.296875-22.175781l31.519531 7.878906c10.703125 2.671875 18.183594 12.25 18.183594 23.28125v23.015625h-160zm0 0"/>
        <path style="fill:#03a9f4;" d="m328 424v-32h-64v-32h-168v96h288v-32zm0 0"/>
        <path style="fill:#03a9f4;" d="m320 104h-224v-64h160v32h64zm0 0"/>
        <path style="fill:#03a9f4;" d="m384 312c-14.632812 0-27.703125-7.886719-34.671875-20.296875-13.6875 3.847656-28.519531.167969-38.863281-10.167969-10.34375-10.34375-14.007813-25.167968-10.167969-38.863281-12.410156-6.96875-20.296875-20.039063-20.296875-34.671875s7.886719-27.703125 20.296875-34.671875c-3.839844-13.703125-.175781-28.519531 10.167969-38.863281s25.160156-14 38.863281-10.167969c6.96875-12.410156 20.039063-20.296875 34.671875-20.296875s27.703125 7.886719 34.671875 20.296875c13.695313-3.847656 28.519531-.175781 38.863281 10.167969s14.007813 25.167968 10.167969 38.863281c12.410156 6.96875 20.296875 20.039063 20.296875 34.671875s-7.886719 27.703125-20.296875 34.671875c3.839844 13.703125.175781 28.519531-10.167969 38.863281s-25.152344 14.015625-38.863281 10.167969c-6.96875 12.410156-20.039063 20.296875-34.671875 20.296875zm0 0"/>
        <path d="m384 264c-30.871094 0-56-25.121094-56-56s25.128906-56 56-56 56 25.121094 56 56-25.128906 56-56 56zm0-96c-22.054688 0-40 17.945312-40 40s17.945312 40 40 40 40-17.945312 40-40-17.945312-40-40-40zm0 0"/>
        <path d="m96 32h160v16h-160zm0 0"/>
        <path d="m96 64h288v16h-288zm0 0"/>
        <path d="m96 96h224v16h-224zm0 0"/>
        <path d="m96 352h168v16h-168zm0 0"/>
        <path d="m96 384h232v16h-232zm0 0"/>
        <path d="m96 416h288v16h-288zm0 0"/>
        <path d="m96 448h288v16h-288zm0 0"/>
    </symbol>

    <symbol id="about03" role="img" aria-labelledby="about03_title" viewBox="0 0 496 496">
        <title id="about03_title"></title>
        <path style="fill:#03a9f4;" d="m24 304h448v192h-448zm0 0"/>
        <path style="fill:#03a9f4;" d="m128 0c-39.703125 0-72 32.296875-72 72v32h8c0-13.257812 10.742188-24 24-24 15.648438 0 30.953125-4.632812 43.96875-13.3125l4.03125-2.6875 4.6875 4.6875c7.242188 7.242188 17.066406 11.3125 27.3125 11.3125 13.257812 0 24 10.742188 24 24h8v-32c0-39.703125-32.296875-72-72-72zm0 0"/>
        <path d="m472 240h-56v-64h-64v-16h-80v80h-48v-25.824219c0-16.574219-10.433594-31.632812-25.960938-37.464843l-38.039062-14.253907v-6.777343c6.054688-5.433594 10.71875-12.359376 13.398438-20.222657 15.074218-2.585937 26.601562-15.65625 26.601562-31.457031 0-17.648438-14.351562-32-32-32-8.175781 0-15.871094-3.183594-21.65625-8.96875l-9.328125-9.328125-9.488281 6.328125c-11.742188 7.824219-25.40625 11.96875-39.527344 11.96875-17.648438 0-32 14.351562-32 32 0 15.800781 11.527344 28.871094 26.601562 31.457031 2.679688 7.855469 7.34375 14.78125 13.398438 20.222657v6.777343l-38.039062 14.261719c-15.527344 5.824219-25.960938 20.882812-25.960938 37.457031v25.824219h-8c-13.230469 0-24 10.769531-24 24v16c0 13.230469 10.769531 24 24 24h448c13.230469 0 24-10.769531 24-24v-16c0-13.230469-10.769531-24-24-24zm-72-48v48h-48v-48zm-112-16h48v64h-48zm-104-72c0 5.894531-3.238281 11-8 13.777344v-27.554688c4.761719 2.777344 8 7.882813 8 13.777344zm-49.03125-29.71875.0625.0625c6.890625 6.886719 15.5625 11.3125 24.96875 12.9375v32.71875c0 17.648438-14.351562 32-32 32s-32-14.351562-32-32v-32.566406c13.847656-1.273438 27.175781-5.617188 38.96875-13.152344zm-62.96875 29.71875c0-5.894531 3.238281-11 8-13.777344v27.554688c-4.761719-2.777344-8-7.882813-8-13.777344zm56 64c5.617188 0 10.984375-1.023438 16-2.800781v2.800781c0 8.824219-7.175781 16-16 16s-16-7.175781-16-16v-2.800781c5.015625 1.777343 10.382812 2.800781 16 2.800781zm-80 46.175781c0-9.953125 6.257812-18.984375 15.574219-22.480469l34.433593-12.910156c4.449219 12.335938 16.152344 21.214844 29.992188 21.214844s25.542969-8.878906 29.992188-21.207031l34.433593 12.910156c9.316407 3.488281 15.574219 12.519531 15.574219 22.472656v25.824219h-16v-32h-16v32h-96v-32h-16v32h-16zm432 65.824219c0 4.414062-3.59375 8-8 8h-448c-4.40625 0-8-3.585938-8-8v-16c0-4.414062 3.59375-8 8-8h448c4.40625 0 8 3.585938 8 8zm0 0"/><path d="m392 320h-48v48h-48v48h48v48h48v-48h48v-48h-48zm32 64v16h-48v48h-16v-48h-48v-16h48v-48h16v48zm0 0"/>
        <path d="m56 320h192v16h-192zm0 0"/>
        <path d="m232 352h16v16h-16zm0 0"/>
        <path d="m88 352h128v16h-128zm0 0"/>
        <path d="m56 352h16v16h-16zm0 0"/>
        <path d="m56 384h192v16h-192zm0 0"/>
        <path d="m240 0v144h256v-144zm112 64h48v64h-48zm64 16h32v48h-32zm-80 48h-48v-80h48zm144 0h-16v-64h-48v-16h-64v-16h-80v96h-16v-112h224zm0 0"/>
    </symbol>

    <symbol id="about04" role="img" aria-labelledby="about04_title" viewBox="0 0 496 496">
        <title id="about04_title"></title>
        <path style="fill:#03a9f4;" d="m352 368h-352v-208h352zm0 0"/>
        <path style="fill:#03a9f4;" d="m464 464h-336v-72h336zm0 0"/>
        <path style="fill:#03a9f4;" d="m352 120h-152v-32h152zm0 0"/>
        <path d="m448 48v-24c0-13.230469-10.769531-24-24-24h-32c-13.230469 0-24 10.769531-24 24v24h-195.558594l-76.441406 84.929688v27.070312h16v-16h72v-80h184v186.425781l40 60 40-60v-186.425781h32v416h-368v-112h-16v128h400v-448zm-326.039062 80 46.039062-51.152344v51.152344zm270.039062-112h32c4.414062 0 8 3.59375 8 8v40h-48v-40c0-4.40625 3.585938-8 8-8zm24 224v-128h16v128zm-32-128h16v128h-16zm0-16v-16h48v16zm6.945312 160h34.101563l-17.046875 25.574219zm0 0"/>
        <path d="m200 80h152v16h-152zm0 0"/>
        <path d="m200 112h152v16h-152zm0 0"/>
        <path d="m128 384h336v16h-336zm0 0"/>
        <path d="m128 416h16v16h-16zm0 0"/>
        <path d="m160 416h304v16h-304zm0 0"/>
        <path d="m128 448h304v16h-304zm0 0"/>
        <path d="m448 448h16v16h-16zm0 0"/>
        <path d="m144 280v8c0 14.863281 10.230469 27.289062 24 30.863281v17.136719h16v-17.136719c13.769531-3.574219 24-16 24-30.863281 0-17.648438-14.351562-32-32-32-8.824219 0-16-7.175781-16-16s7.175781-16 16-16 16 7.175781 16 16v8h16v-8c0-14.863281-10.230469-27.289062-24-30.863281v-17.136719h-16v17.136719c-13.769531 3.574219-24 16-24 30.863281 0 17.648438 14.351562 32 32 32 8.824219 0 16 7.175781 16 16s-7.175781 16-16 16-16-7.175781-16-16v-8zm0 0"/>
        <path d="m304 256h16v16h-16zm0 0"/>
        <path d="m32 256h16v16h-16zm0 0"/>
        <path d="m272 256h16v16h-16zm0 0"/>
        <path d="m240 256h16v16h-16zm0 0"/>
        <path d="m64 256h16v16h-16zm0 0"/>
        <path d="m96 256h16v16h-16zm0 0"/>
    </symbol>

    <symbol id="about05" role="img" aria-labelledby="about05_title" viewBox="0 0 496 496">
        <title id="about05_title"></title>
        <circle style="fill:#03a9f4;" cx="248" cy="248" r="128"/>
		<path d="M248,72c-97.048,0-176,78.952-176,176s78.952,176,176,176s176-78.952,176-176S345.048,72,248,72z
			 M248,408c-88.224,0-160-71.776-160-160S159.776,88,248,88s160,71.776,160,160S336.224,408,248,408z"/>
		<polygon points="240,240 136,240 136,256 256,256 256,136 240,136 	"/>
		<circle cx="248" cy="112" r="8"/>
		<circle cx="248" cy="384" r="8"/>
		<circle cx="384" cy="248" r="8"/>
		<circle cx="112" cy="248" r="8"/>
		<path d="M56.568,341.032L47.32,364.16C26.824,328.888,16,289.056,16,248C16,120.08,120.08,16,248,16
			c52.904,0,104.68,18.32,145.8,51.584l10.064-12.44C359.904,19.584,304.552,0,248,0C111.248,0,0,111.248,0,248
			c0,44.232,11.776,87.12,34.024,125.048L9.568,368.16l-3.136,15.68l46.52,9.304l18.48-46.176L56.568,341.032z"/>
		<circle cx="72" cy="408" r="8"/>
		<path d="M461.976,122.952l24.456,4.888l3.144-15.688l-46.52-9.304l-18.48,46.176l14.856,5.936l9.248-23.128
			C469.176,167.112,480,206.944,480,248c0,127.92-104.08,232-232,232c-52.904,0-104.68-18.32-145.8-51.584l-10.064,12.44
			C136.096,476.416,191.448,496,248,496c136.752,0,248-111.248,248-248C496,203.768,484.224,160.88,461.976,122.952z"/>
		<circle cx="424" cy="88" r="8"/>
    </symbol>

    <symbol id="about06" role="img" aria-labelledby="about06_title" viewBox="0 0 496 496">
        <title id="about06_title"></title>
        <path style="fill:#03a9f4;" d="m352 328v32l.382812.609375c31.378907 4.117187 55.617188 30.894531 55.617188 63.390625 0 6.976562-1.152344 13.679688-3.222656 19.96875l2.535156 4.03125h40.6875v-120zm0 0"/>
        <path d="m440.839844 91.574219-37.785156-75.574219h-310.109376l-37.785156 75.574219-14.320312-7.148438 42.214844-84.425781h329.890624l42.214844 84.425781zm0 0"/>
        <path d="m272 176h-48v-32h-32v-48h32v-32h48v32h32v48h-32zm-32-16h16v-32h32v-16h-32v-32h-16v32h-32v16h32zm0 0"/>
        <path style="fill:#03a9f4;" d="m168 120c0-14.59375 3.96875-28.222656 10.792969-40h-178.792969v96h190.910156c-14.15625-14.433594-22.910156-34.183594-22.910156-56zm0 0"/>
        <path style="fill:#03a9f4;" d="m317.207031 80c6.824219 11.777344 10.792969 25.40625 10.792969 40 0 21.816406-8.753906 41.566406-22.910156 56h190.910156v-96zm0 0"/>
        <path d="m0 112h128v16h-128zm0 0"/>
        <path d="m368 112h128v16h-128zm0 0"/>
        <path d="m352 112h-16.40625c-4.058594-44.785156-41.769531-80-87.59375-80s-83.535156 35.214844-87.59375 80h-16.40625v16h16.40625c4.058594 44.785156 41.769531 80 87.59375 80s83.535156-35.214844 87.59375-80h16.40625zm-104 80c-39.695312 0-72-32.304688-72-72s32.304688-72 72-72 72 32.304688 72 72-32.304688 72-72 72zm0 0"/>
        <path d="m480 264h-8v-88h-16v88h-136c-8.824219 0-16 7.175781-16 16v16c0 8.824219 7.175781 16 16 16v44.199219c-27.921875 9.921875-48 36.519531-48 67.800781 0 8.425781 1.527344 16.480469 4.199219 24h-44.199219v-192h-160v192h-32v-272h-16v288h260.175781c12.9375 19.28125 34.921875 32 59.824219 32 17.089844 0 32.792969-6.015625 45.152344-16h66.847656c13.230469 0 24-10.769531 24-24v-144c8.824219 0 16-7.175781 16-16v-16c0-8.824219-7.175781-16-16-16zm-392 8h128v176h-128zm256 96c28.152344 0 51.457031 20.902344 55.359375 48h-110.71875c3.902344-27.097656 27.207031-48 55.359375-48zm0 112c-28.152344 0-51.457031-20.902344-55.359375-48h110.71875c-3.902344 27.097656-27.207031 48-55.359375 48zm120-24c0 4.40625-3.59375 8-8 8h-52.175781c7.679687-11.449219 12.175781-25.207031 12.175781-40 0-39.695312-32.304688-72-72-72-2.703125 0-5.367188.175781-8 .472656v-40.472656h128zm-144-160v-16h160l.007812 16zm0 0"/>
        <path d="m104 288v48h96v-48zm80 32h-64v-16h64zm0 0"/>
        <path d="m104 368h16v16h-16zm0 0"/>
    </symbol>

</svg>
