<svg xmlns="http://www.w3.org/2000/svg" xmlns:xlink="http://www.w3.org/1999/xlink">

	<symbol id="header-menu01" role="img" aria-labelledby="header-menu01_title" viewBox="0 0 512 512">
    	<title id="header-menu01_title">Home</title>
	    <path d="M506.188,236.413L297.798,26.65c-0.267-0.27-0.544-0.532-0.826-0.786c-22.755-20.431-57.14-20.504-79.982-0.169
			c-0.284,0.253-0.56,0.514-0.829,0.782L5.872,236.352c-7.818,7.804-7.831,20.467-0.028,28.285
			c7.804,7.818,20.467,7.83,28.284,0.028L50,248.824v172.684c0,44.112,35.888,80,80,80h72c11.046,0,20-8.954,20-20v-163h70v163
			c0,11.046,8.954,20,20,20h70c44.112,0,80-35.888,80-80c0-11.046-8.954-20-20-20c-11.046,0-20,8.954-20,20
			c0,22.056-17.944,40-40,40h-50v-163c0-11.046-8.954-20-20-20H202c-11.046,0-20,8.954-20,20v163h-52c-22.056,0-40-17.944-40-40
			v-212c0-0.2-0.003-0.399-0.009-0.597L243.946,55.26c7.493-6.363,18.483-6.339,25.947,0.055L422,208.425v113.083
			c0,11.046,8.954,20,20,20c11.046,0,20-8.954,20-20v-72.82l15.812,15.917c3.909,3.935,9.047,5.904,14.188,5.904
			c5.097,0,10.195-1.937,14.096-5.812C513.932,256.912,513.974,244.249,506.188,236.413z"/>
    </symbol>

    <symbol id="header-menu02" role="img" aria-labelledby="header-menu02_title" viewBox="0 0 511.998 511.998">
    	<title id="header-menu02_title">About</title>
	    <circle cx="257.013" cy="256.003" r="38.999"/>
		<path d="M257.011,142.002c-62.858,0-113.997,51.139-113.997,113.997s51.139,113.997,113.997,113.997
			s113.997-51.139,113.997-113.997S319.869,142.002,257.011,142.002z M257.011,329.997c-40.803,0-73.998-33.195-73.998-73.998
			c0-40.803,33.195-73.998,73.998-73.998s73.998,33.195,73.998,73.998C331.009,296.802,297.814,329.997,257.011,329.997z"/>
		<path d="M499.046,212.345c-10.618-16.306-40.581-58.167-89.352-94.633c-49.438-36.965-100.997-55.709-153.246-55.709
			c-52.175,0-103.779,18.693-153.379,55.558c-48.988,36.41-79.191,78.219-89.903,94.504c-17.555,26.689-17.555,61.178,0,87.867
			c10.712,16.286,40.915,58.095,89.903,94.505c49.6,36.865,101.203,55.558,153.379,55.558c80.325,0,144.917-44.788,184.957-82.359
			c8.055-7.558,8.458-20.214,0.9-28.269c-7.559-8.056-20.214-8.458-28.269-0.9c-34.777,32.632-90.347,71.53-157.59,71.53
			c-97.104,0-177.606-83.001-209.865-132.045c-8.772-13.336-8.772-30.568,0-43.904c32.259-49.044,112.761-132.044,209.865-132.044
			c97.101,0,177.112,83.08,209.081,132.17c8.635,13.259,8.635,30.393,0,43.652c-6.027,9.256-3.41,21.645,5.846,27.673
			c9.255,6.027,21.646,3.411,27.673-5.846C516.315,273.134,516.315,238.863,499.046,212.345z"/>
    </symbol>

    <symbol id="header-menu03" role="img" aria-labelledby="header-menu03_title" viewBox="0 0 512 512">
    	<title id="header-menu03_title">Advantages</title>
	    <path d="M509.152,193.752c-7.551-23.237-28.12-38.253-52.402-38.253H354.447c-6.784,0-12.435-3.905-14.387-9.913l-31.625-97.963
			c-7.52-23.143-28.101-38.096-52.434-38.096s-44.915,14.953-52.446,38.132l-31.602,97.891c-1.964,6.044-7.615,9.949-14.399,9.949
			H55.249c-24.282,0-44.852,15.015-52.402,38.253c-7.58,23.328,0.27,47.663,19.996,61.995l82.767,60.134
			c5.322,3.866,7.533,10.669,5.499,16.926l-31.614,97.297c-7.52,23.143,0.342,47.338,20.028,61.64
			c9.843,7.152,21.124,10.727,32.405,10.727c11.282,0,22.564-3.575,32.406-10.727l82.767-60.134
			c5.321-3.866,12.474-3.868,17.797,0.001l82.766,60.133c19.686,14.302,45.126,14.304,64.811,0
			c19.686-14.301,27.548-38.497,20.028-61.64l-21.642-66.608c-3.412-10.503-14.695-16.251-25.196-12.839
			c-10.504,3.413-16.252,14.693-12.839,25.197l21.641,66.608c3.154,9.707-3.412,15.41-5.5,16.928c-2.088,1.516-9.541,6-17.797-0.001
			l-82.766-60.132c-19.382-14.083-45.428-14.084-64.811-0.001l-82.766,60.133c-8.258,6-15.711,1.517-17.798,0.001
			c-2.088-1.518-8.653-7.221-5.5-16.928l31.614-97.297c7.405-22.786-0.644-47.557-20.027-61.639l-82.767-60.134
			c-8.32-6.044-6.289-14.755-5.468-17.281c0.81-2.492,4.238-10.619,14.367-10.619h102.304c24.058,0,45.129-15.103,52.446-37.619
			L241.6,59.983c3.154-9.708,11.819-10.462,14.399-10.462s11.245,0.754,14.387,10.426l31.626,97.962
			c7.305,22.48,28.375,37.583,52.434,37.583h102.303c10.13,0,13.557,8.127,14.367,10.619c0.821,2.526,2.852,11.237-5.468,17.281
			l-56.435,41.003c-8.934,6.493-10.915,18.996-4.423,27.932c6.491,8.934,18.995,10.913,27.931,4.424l56.435-41.003
			C508.883,241.415,516.732,217.081,509.152,193.752z"/>
    </symbol>

    <symbol id="header-menu04" role="img" aria-labelledby="header-menu04_title" viewBox="0 0 512 512">
    	<title id="header-menu04_title">Traning Services</title>
	    <path d="M441.656,155.735c0.036,0.036,0.076,0.066,0.112,0.102C441.727,155.78,441.394,155.429,441.656,155.735z"/>
		<path d="M114.825,237.85c-0.027-0.027-0.055-0.055-0.082-0.082c-10.824-10.824-25.216-16.786-40.524-16.786
			c-15.308,0-29.699,5.961-40.523,16.785c-21.625,21.626-22.32,56.376-2.087,78.846c-5.633,2.853-10.821,6.64-15.359,11.307
			c-21.884,22.511-21.626,58.886,0.533,81.043l28.801,28.969l-19.806,19.782c-7.815,7.806-7.823,20.471-0.018,28.285
			c3.906,3.911,9.028,5.867,14.152,5.867c5.114,0,10.229-1.949,14.134-5.849L73.788,466.3l28.608,28.774
			c9.2,9.202,21.378,15.079,34.291,16.546c2.229,0.253,4.449,0.378,6.657,0.378c15.53,0,30.298-6.193,41.294-17.504
			c3.925-4.038,7.126-8.526,9.627-13.295c11.022,10.44,25.199,15.677,39.385,15.677c14.676,0,29.351-5.586,40.524-16.759
			c22.329-22.329,22.343-58.652,0.044-81.001L114.825,237.85z M155.955,466.612c-3.86,3.97-9.239,5.888-14.753,5.262
			c-2.798-0.318-6.894-1.458-10.478-5.042L45.111,380.72c-6.822-6.821-6.901-17.999-0.176-24.917
			c3.336-3.433,7.811-5.341,12.599-5.375c0.043,0,0.086,0,0.129,0c4.184,0,8.141,1.44,11.291,4.058l89.3,90.349
			C162.472,451.6,161.729,460.672,155.955,466.612z M245.887,451.831c-6.737,6.737-17.693,6.747-24.443,0.032L61.982,290.526
			c-6.747-6.747-6.747-17.727,0-24.475c3.269-3.269,7.614-5.068,12.236-5.068c4.607,0,8.94,1.788,12.206,5.037l159.381,161.253
			c0.027,0.027,0.055,0.055,0.082,0.082C252.635,434.104,252.635,445.084,245.887,451.831z"/>
		<path d="M279.166,57.91c4.623,0,8.968,1.8,12.299,5.131l121.946,121.021c11.205,11.204,26.018,16.82,40.841,16.818
			c14.543-0.001,29.096-5.408,40.246-16.246c12.918-12.558,19.16-30.035,17.125-47.95c-1.466-12.909-7.341-25.088-16.585-34.329
			l-28.735-28.569l19.717-19.742c7.806-7.815,7.798-20.48-0.018-28.285c-7.816-7.805-20.48-7.799-28.285,0.017l-19.782,19.806
			L409.008,16.82c-22.2-22.198-58.574-22.455-81.085-0.572c-4.714,4.583-8.533,9.831-11.395,15.531
			c-10.391-8.965-23.496-13.871-37.36-13.871c-15.308,0-29.699,5.961-40.523,16.785c-10.824,10.823-16.786,25.216-16.786,40.523
			s5.961,29.699,16.741,40.479l64.412,64.82l-96.174,96.427c-7.8,7.82-7.784,20.484,0.037,28.285
			c3.904,3.893,9.014,5.839,14.125,5.839c5.127,0,10.254-1.959,14.162-5.877l96.047-96.3l65.83,66.246
			c10.824,10.824,25.216,16.786,40.523,16.786c15.308,0,29.699-5.961,40.524-16.786c7.81-7.811,7.81-20.475,0-28.285
			s-20.475-7.81-28.286,0.001c-3.269,3.269-7.614,5.068-12.237,5.068c-4.622,0-8.968-1.8-12.193-5.024L266.929,87.453
			c-3.269-3.269-5.069-7.614-5.069-12.237s1.8-8.968,5.069-12.237C270.198,59.71,274.544,57.91,279.166,57.91z M355.805,44.932
			c3.421-3.326,7.884-4.987,12.352-4.987c4.566,0,9.137,1.735,12.606,5.203l86.03,85.533c3.625,3.625,4.765,7.72,5.083,10.517
			c0.626,5.517-1.292,10.895-5.261,14.755c-6.882,6.689-17.973,6.64-24.846-0.116c0.015,0.02-0.006,0.004-0.112-0.102
			l-86.029-85.532c-3.385-3.385-5.231-7.885-5.197-12.672C350.464,52.742,352.373,48.268,355.805,44.932z"/>
    </symbol>

    <symbol id="header-menu05" role="img" aria-labelledby="header-menu05_title" viewBox="0 0 512.001 512.001">
    	<title id="header-menu05_title">Pricing</title>
	    <path d="M405,257.002c-33.084,0-60,26.916-60,60c0,33.084,26.916,60,60,60h85c0.339,0,0.67-0.034,1.005-0.051
			c0.332,0.016,0.659,0.05,0.995,0.05c11.046,0,20-8.954,20-20v-157c0-26.626-13.087-50.241-33.155-64.79l-68.04-111.62
			c-2.774-4.552-7.251-7.808-12.437-9.044c-5.186-1.238-10.65-0.353-15.181,2.457L333.01,48.12L310.382,9.826
			c-2.721-4.604-7.171-7.926-12.358-9.226c-5.186-1.3-10.679-0.467-15.248,2.309L90.109,120.001H60
			c-10.861,0-19.728-8.702-19.994-19.5c0.266-10.798,9.133-19.5,19.994-19.5h37c11.046,0,20-8.954,20-20s-8.954-20-20-20H60
			c-28.298,0-52.081,19.694-58.37,46.095C0.584,89.522,0,92.192,0,95.001v5v1v331c0,44.112,35.888,80,80,80h352
			c34.49,0,64.993-21.971,75.901-54.671c3.496-10.478-2.165-21.806-12.643-25.301c-10.477-3.495-21.806,2.165-25.301,12.643
			c-5.453,16.346-20.706,27.329-37.957,27.329H80c-22.056,0-40-17.944-40-40V156.57c6.259,2.22,12.99,3.431,20,3.431h372
			c22.056,0,40,17.944,40,40v57.001H405z M472,337.001h-67c-11.028,0.001-20-8.971-20-20c0-11.028,8.972-20,20-20h67V337.001z
			 M167.128,120.002l119.119-72.393l21.297,36.041c0.409,0.985,0.879,1.956,1.459,2.892c0.435,0.701,0.917,1.354,1.42,1.982
			l18.6,31.478H167.128z M375.485,120.001l-22.121-37.436L387.14,61.62l35.588,58.381H375.485z"/>
    </symbol>

    <symbol id="header-menu06" role="img" aria-labelledby="header-menu06_title" viewBox="0 0 511.999 511.999">
    	<title id="header-menu06_title">Contact</title>
	    <path d="M267.998,61.092c0.337,0,0.665-0.002,1-0.002c48.74,0,94.412,18.844,128.686,53.118
			c34.557,34.557,53.459,80.618,53.225,129.697c-0.052,11.045,8.859,20.042,19.905,20.095c0.033,0,0.064,0,0.097,0
			c10.999,0,19.944-8.892,19.997-19.905c0.285-59.837-22.778-116.009-64.94-158.172C384.134,44.088,328.43,21.09,269.004,21.09
			c-0.365,0-0.733,0.001-1.099,0.002c-11.046,0.053-19.957,9.05-19.905,20.095C248.053,52.2,256.997,61.092,267.998,61.092z"/>
		<path d="M511.949,412.553c-0.714-19.805-8.964-38.287-23.229-52.042c-27.931-26.933-51.332-42.481-73.646-48.929
			c-30.75-8.887-59.226-0.805-84.641,24.016c-0.038,0.037-0.077,0.075-0.115,0.113l-27.066,26.865
			c-16.811-9.444-49.491-30.227-85.234-65.971l-2.632-2.63c-35.508-35.507-56.423-68.373-65.939-85.253l26.839-27.041
			c0.038-0.038,0.075-0.076,0.113-0.115c24.821-25.414,32.902-53.892,24.016-84.64c-6.448-22.313-21.995-45.715-48.929-73.646
			C137.731,9.015,119.249,0.765,99.446,0.051C79.647-0.662,60.614,6.232,45.865,19.472l-0.574,0.516
			c-0.267,0.239-0.527,0.486-0.78,0.739c-29.36,29.358-44.75,70.46-44.508,118.861c0.41,82.22,45.599,176.249,120.879,251.528
			c0.063,0.063,0.125,0.124,0.188,0.186c14.152,14.132,30.22,28.116,47.762,41.567c8.765,6.721,21.319,5.063,28.041-3.702
			c6.721-8.766,5.064-21.32-3.702-28.041c-16.236-12.448-31.041-25.333-44.004-38.296c-0.062-0.062-0.124-0.124-0.187-0.185
			C81.095,294.683,40.361,211.239,40.002,139.387c-0.186-37.276,11.027-68.389,32.431-90.014l0.153-0.138
			c14.538-13.048,36.548-12.254,50.108,1.808c51.781,53.698,48.031,79.049,25.151,102.511l-37.074,37.353
			c-5.814,5.858-7.433,14.686-4.075,22.226c0.941,2.114,23.709,52.427,80.414,109.132l2.632,2.629
			c56.698,56.699,107.011,79.466,109.125,80.408c7.54,3.359,16.368,1.739,22.226-4.075l37.346-37.068
			c23.466-22.883,48.818-26.638,102.518,25.145c14.062,13.56,14.856,35.57,1.81,50.105l-0.141,0.157
			c-21.45,21.229-52.231,32.433-89.102,32.433c-0.303,0-0.608,0-0.912-0.002c-29.471-0.147-63.598-8.226-98.689-23.362
			c-10.142-4.376-21.911,0.3-26.286,10.443c-4.375,10.142,0.301,21.911,10.443,26.286c40.562,17.496,79.029,26.456,114.332,26.633
			c0.375,0.001,0.748,0.002,1.122,0.002c47.914-0.001,88.608-15.379,117.738-44.51c0.254-0.254,0.5-0.513,0.739-0.78l0.519-0.577
			C505.766,451.385,512.663,432.357,511.949,412.553z"/>
		<path d="M369.457,142.549c-21.453-21.454-42.043-27.147-51.939-29.884c-10.649-2.945-21.663,3.299-24.607,13.946
			c-2.944,10.646,3.299,21.663,13.946,24.607c8.092,2.238,20.32,5.62,34.316,19.615c13.473,13.473,17.052,25.636,19.421,33.685
			l0.289,0.979c2.574,8.697,10.538,14.329,19.169,14.329c1.88,0.001,3.792-0.267,5.686-0.828
			c10.591-3.135,16.636-14.263,13.5-24.854l-0.271-0.918C395.882,182.744,390.14,163.232,369.457,142.549z"/>
    </symbol>

	<symbol id="header-facebook" role="img" aria-labelledby="header-facebook_title" viewBox="0 0 159.822 159.822">
    	<title id="header-facebook_title">Facebook</title>
	    <path d="M76.715,36.172c4.142,0,7.5-3.358,7.5-7.5C84.215,21.133,90.349,15,97.887,15h21.179c4.142,0,7.5-3.358,7.5-7.5
			s-3.358-7.5-7.5-7.5H97.887c-15.81,0-28.672,12.862-28.672,28.672C69.215,32.813,72.573,36.172,76.715,36.172z"/>
		<path d="M117.458,59.627H40.756c-4.142,0-7.5,3.358-7.5,7.5s3.358,7.5,7.5,7.5h28.46v77.695c0,4.142,3.358,7.5,7.5,7.5
		c4.142,0,7.5-3.358,7.5-7.5V74.627h33.243c4.142,0,7.5-3.358,7.5-7.5S121.6,59.627,117.458,59.627z"/>
    </symbol>

    <symbol id="header-linkedin" role="img" aria-labelledby="header-linkedin_title" viewBox="0 0 152.216 152.216">
    	<title id="header-linkedin_title">Linkedin</title>
		<path d="M14.461,35.817c-4.142,0-7.5,3.358-7.5,7.5v101.399c0,4.142,3.358,7.5,7.5,7.5c4.142,0,7.5-3.358,7.5-7.5V43.317
			C21.961,39.174,18.603,35.817,14.461,35.817z"/>
		<path d="M68.011,115.054c-4.142,0-7.5,3.358-7.5,7.5v22.162c0,4.142,3.358,7.5,7.5,7.5c4.142,0,7.5-3.358,7.5-7.5v-22.162
			C75.511,118.412,72.153,115.054,68.011,115.054z"/>
		<path d="M102.885,43.89c-10.429,0-19.983,3.794-27.374,10.065V43.317c0-4.142-3.358-7.5-7.5-7.5c-4.142,0-7.5,3.358-7.5,7.5v42.937
			c0,0.001,0,0.002,0,0.003c0,0.002,0,0.003,0,0.006c0,4.142,3.358,7.5,7.5,7.5c4.142,0,7.5-3.358,7.5-7.5
			c0-15.094,12.28-27.373,27.374-27.373c15.093,0,27.372,12.279,27.372,27.373v58.453c0,4.142,3.358,7.5,7.5,7.5
			c4.143,0,7.5-3.358,7.5-7.5V86.263C145.257,62.898,126.25,43.89,102.885,43.89z"/>
		<path d="M14.459,15c1.97,0,3.91-0.8,5.31-2.19c1.39-1.4,2.19-3.33,2.19-5.3c0-1.98-0.8-3.91-2.19-5.31c-1.4-1.39-3.34-2.2-5.31-2.2
			c-1.97,0-3.9,0.81-5.3,2.2c-1.4,1.4-2.2,3.33-2.2,5.31c0,1.97,0.8,3.9,2.2,5.3C10.559,14.2,12.489,15,14.459,15z"/>
    </symbol>

    <symbol id="header-twitter" role="img" aria-labelledby="header-twitter_title" viewBox="0 0 198.737 198.737">
    	<title id="header-twitter_title">Twitter</title>
		<path d="M197.399,42.479c-2.36-3.401-7.034-4.247-10.438-1.886l-23.288,16.159c-2.115,1.467-3.329,3.916-3.218,6.487
			c0.067,1.542,0.1,2.988,0.1,4.42c0,47.603-36.222,96.84-96.839,96.84c-12.357,0-24.497-2.352-35.843-6.889l35.939-10.052
			c3.989-1.116,6.318-5.254,5.202-9.243c-1.116-3.988-5.25-6.318-9.243-5.202L5.48,148.299c-2.846,0.796-4.959,3.189-5.397,6.112
			c-0.437,2.922,0.882,5.83,3.37,7.425C21.477,173.391,42.316,179.5,63.716,179.5c42.057,0,68.398-19.87,83.091-36.538
			c18.27-20.728,28.748-48.174,28.748-75.302c0-0.297-0.001-0.594-0.003-0.892l19.961-13.85
			C198.915,50.556,199.76,45.883,197.399,42.479z"/>
		<path d="M16.555,40.14l75.585,38.315c1.072,0.544,2.234,0.811,3.39,0.811c1.646,0,3.282-0.541,4.629-1.598
			c2.293-1.798,3.337-4.761,2.677-7.6c-0.501-2.154-0.754-4.396-0.754-6.662c0-16.083,13.087-29.168,29.173-29.168
			c8.041,0,15.804,3.357,21.296,9.211c2.052,2.188,5.211,2.941,8.031,1.917l23.328-8.476c3.893-1.415,5.903-5.717,4.488-9.61
			c-1.414-3.894-5.72-5.901-9.61-4.488l-18.983,6.897c-7.929-6.692-18.083-10.452-28.55-10.452c-22.93,0-41.835,17.561-43.972,39.938
			L23.337,26.761c-3.695-1.874-8.208-0.396-10.081,3.298C11.383,33.754,12.86,38.267,16.555,40.14z"/>
		<path d="M12.689,85.053l16.608,4.585c0.668,0.185,1.339,0.272,2,0.272c3.289,0,6.307-2.181,7.225-5.506
			c1.103-3.992-1.241-8.123-5.233-9.226l-16.608-4.585c-3.99-1.102-8.123,1.24-9.226,5.233C6.353,79.82,8.696,83.95,12.689,85.053z"
			/>
		<path d="M27.25,107.376c-4.139,0.157-7.367,3.639-7.21,7.778c0.153,4.043,3.478,7.216,7.49,7.216c0.096,0,0.192-0.002,0.288-0.005
			l16.562-0.628c4.139-0.157,7.367-3.639,7.211-7.779c-0.157-4.139-3.648-7.363-7.778-7.21L27.25,107.376z"/>
    </symbol>

    <symbol id="header-instagram" role="img" aria-labelledby="header-instagram_title" viewBox="0 0 512 512">
    	<title id="header-instagram_title">Instagram</title>
		<path d="M363.273,0H148.728C66.719,0,0,66.719,0,148.728v214.544C0,445.281,66.719,512,148.728,512h214.544
			c23.662,0,46.291-5.399,67.26-16.049c19.98-10.146,37.717-24.968,51.293-42.864c6.675-8.799,4.954-21.345-3.846-28.021
			c-8.797-6.675-21.344-4.956-28.021,3.846C429.183,456.295,397.588,472,363.273,472H148.728C88.775,472,40,423.225,40,363.273
			V148.728C40,88.775,88.775,40,148.728,40h214.544C423.225,40,472,88.775,472,148.728V343c0,11.046,8.954,20,20,20
			c11.046,0,20-8.954,20-20V148.728C512,66.719,445.281,0,363.273,0z"/>
		<path d="M256,118c-76.094,0-138,61.906-138,138s61.906,138,138,138s138-61.906,138-138S332.094,118,256,118z M256,354
			c-54.037,0-98-43.963-98-98s43.963-98,98-98s98,43.963,98,98S310.037,354,256,354z"/>
		<circle cx="396" cy="116" r="20"/>
    </symbol>

    <symbol id="arrow" role="img" aria-labelledby="arrow_title" viewBox="0 0 306 306">
    	<title id="arrow_title">arrow icon</title>        
		<polygon points="94.35,0 58.65,35.7 175.95,153 58.65,270.3 94.35,306 247.35,153 		"/>
    </symbol>

    <symbol id="location" role="img" aria-labelledby="location_title" viewBox="0 0 60 60">
    	<title id="location_title">location icon</title>        
		<path d="M30,26c3.86,0,7-3.141,7-7s-3.14-7-7-7s-7,3.141-7,7S26.14,26,30,26z M30,14c2.757,0,5,2.243,5,5s-2.243,5-5,5
			s-5-2.243-5-5S27.243,14,30,14z"/>
		<path d="M29.823,54.757L45.164,32.6c5.754-7.671,4.922-20.28-1.781-26.982C39.761,1.995,34.945,0,29.823,0
			s-9.938,1.995-13.56,5.617c-6.703,6.702-7.535,19.311-1.804,26.952L29.823,54.757z M17.677,7.031C20.922,3.787,25.235,2,29.823,2
			s8.901,1.787,12.146,5.031c6.05,6.049,6.795,17.437,1.573,24.399L29.823,51.243L16.082,31.4
			C10.882,24.468,11.628,13.08,17.677,7.031z"/>
		<path d="M42.117,43.007c-0.55-0.067-1.046,0.327-1.11,0.876s0.328,1.046,0.876,1.11C52.399,46.231,58,49.567,58,51.5
			c0,2.714-10.652,6.5-28,6.5S2,54.214,2,51.5c0-1.933,5.601-5.269,16.117-6.507c0.548-0.064,0.94-0.562,0.876-1.11
			c-0.065-0.549-0.561-0.945-1.11-0.876C7.354,44.247,0,47.739,0,51.5C0,55.724,10.305,60,30,60s30-4.276,30-8.5
			C60,47.739,52.646,44.247,42.117,43.007z"/>
    </symbol>

    <symbol id="smartphone" role="img" aria-labelledby="smartphone_title" viewBox="0 0 480 480">
    	<title id="smartphone_title">smartphone icon</title>        
		<path d="M368,0H112C89.944,0,72,17.944,72,40v400c0,22.056,17.944,40,40,40h256c22.056,0,40-17.944,40-40V40
			C408,17.944,390.056,0,368,0z M392,440c0,13.232-10.768,24-24,24H112c-13.232,0-24-10.768-24-24v-24h304V440z M392,400H88V64h304
			V400z M392,48H88v-8c0-13.232,10.768-24,24-24h256c13.232,0,24,10.768,24,24V48z"/>
		<path d="M352.968,265.536L327.6,240.168c-9.056-9.064-24.872-9.08-33.944,0l-15.032,15.024l-76.688-76.688l15.032-15.024
			c9.36-9.36,9.36-24.584,0-33.944l-25.376-25.368c-9.064-9.064-24.864-9.072-33.936,0L142.224,119.6
			c-28.064,28.072-28.064,73.744,0,101.824l93.496,93.488C249.312,328.512,267.4,336,286.624,336
			c19.232,0,37.32-7.488,50.912-21.088l15.432-15.432C362.328,290.12,362.328,274.896,352.968,265.536z M341.656,288.16
			l-15.432,15.432c-10.576,10.576-24.64,16.4-39.6,16.4c-14.952,0-29.016-5.824-39.592-16.4l-93.496-93.48
			c-21.824-21.84-21.824-57.368,0-79.2l15.432-15.432c1.512-1.512,3.52-2.344,5.656-2.344c2.144,0,4.144,0.832,5.648,2.336
			c0.008,0,0.008,0,0.008,0l25.376,25.368c3.12,3.12,3.12,8.192,0,11.32l-20.688,20.68c-1.504,1.504-2.344,3.536-2.344,5.656
			c0,2.12,0.84,4.16,2.344,5.656l88,88c3.128,3.128,8.184,3.128,11.312,0l20.688-20.68c3.04-3.024,8.288-3.016,11.312,0
			l25.376,25.368C344.776,279.96,344.776,285.032,341.656,288.16z"/>
		<rect x="232" y="352" width="16" height="16"/>
		<rect x="200" y="352" width="16" height="16"/>
		<rect x="264" y="352" width="16" height="16"/>
		<path d="M240,176v16c13.232,0,24,10.768,24,24h16C280,193.944,262.056,176,240,176z"/>
		<path d="M240,144v16c30.872,0,56,25.12,56,56h16C312,176.304,279.704,144,240,144z"/>
		<path d="M240,112v16c48.52,0,88,39.48,88,88h16C344,158.656,297.344,112,240,112z"/>
    </symbol>

    <symbol id="arroba" role="img" aria-labelledby="arroba_title" viewBox="0 0 512 512">
    	<title id="arroba_title">arroba icon</title>        
		<path d="M256,0C114.844,0,0,114.844,0,256s114.844,256,256,256c68.385,0,132.667-26.625,181.021-74.979
			c4.167-4.167,4.167-10.917,0-15.083c-4.167-4.167-10.917-4.167-15.083,0C377.615,466.26,318.688,490.667,256,490.667
			C126.604,490.667,21.333,385.396,21.333,256S126.604,21.333,256,21.333S490.667,126.604,490.667,256v21.333
			c0,35.292-28.708,64-64,64s-64-28.708-64-64v-96c0-5.896-4.771-10.667-10.667-10.667c-5.896,0-10.667,4.771-10.667,10.667v11.327
			c-19.461-26.138-50.319-43.327-85.333-43.327c-58.813,0-106.667,47.854-106.667,106.667S197.188,362.667,256,362.667
			c39.229,0,73.206-21.53,91.734-53.163c12.737,31.132,43.271,53.163,78.932,53.163c47.052,0,85.333-38.281,85.333-85.333V256
			C512,114.844,397.156,0,256,0z M256,341.333c-47.052,0-85.333-38.281-85.333-85.333s38.281-85.333,85.333-85.333
			s85.333,38.281,85.333,85.333S303.052,341.333,256,341.333z"/>
    </symbol>

    <symbol id="facebook" role="img" aria-labelledby="facebook_title" viewBox="0 0 288.861 288.861">
    	<title id="facebook_title">facebook icon</title>        
		<path d="M167.172,288.861h-62.16V159.347H70.769v-59.48h34.242v-33.4C105.011,35.804,124.195,0,178.284,0
		c19.068,0,33.066,1.787,33.651,1.864l5.739,0.746l-1.382,55.663l-6.324-0.058c-0.013,0-14.223-0.135-29.724-0.135
		c-11.536,0-13.066,2.847-13.066,14.171v27.629h50.913l-2.821,59.48h-48.086v129.501H167.172z M117.858,276.007h36.453V146.5h48.677
		l1.607-33.779h-50.284V72.238c0-13.368,3.078-27.025,25.919-27.025c9.178,0,17.899,0.045,23.509,0.09l0.778-31.292
		c-5.675-0.508-15.116-1.157-26.247-1.157c-44.544,0-60.419,27.693-60.419,53.613v46.254H83.61V146.5h34.242v129.507H117.858z"/>
    </symbol>

    <symbol id="twitter" role="img" aria-labelledby="twitter_title" viewBox="0 0 341.117 341.117">
    	<title id="twitter_title">twitter icon</title>        
		<path d="M115.394,304.407c-33.085,0-65.862-9.158-94.777-26.479L0,265.582l24.024,0.405c0.778,0.039,2.031,0.103,4.004,0.103
		c9.145,0,38.278-1.472,68.15-18.329c-22.455-6.677-41.01-24.036-48.651-46.762l-3.785-11.253l10.309,2.68
		c-16.523-12.693-27.333-32.205-28.516-53.953l-0.566-10.411l9.557,4.171c1.742,0.765,3.515,1.44,5.315,2.024
		c-13.573-18.998-21.787-48.355-4.659-79.538l4.717-8.593l5.996,7.757c28.728,37.141,71.325,59.789,117.778,62.899
		c-0.283-2.886-0.482-5.54-0.482-6.369c0-34.474,26.234-70.13,70.13-70.13c18.426,0,36.164,7.32,49.23,20.206
		c17.513-4.113,34.249-14.325,34.429-14.435l15.18-9.345l-5.733,16.883c-2.751,8.085-6.941,15.534-12.314,22.038
		c2.931-0.958,5.81-2.057,8.773-3.348l18.233-8.908l-7.661,16.453c-6.324,13.593-16.87,24.808-29.968,31.98
		c2.879,44.994-15.624,95.194-48.908,132.059c-24.705,27.372-68.703,60.084-138.016,60.528L115.394,304.407z M47.841,277.472
		c21.427,9.248,44.409,14.075,67.546,14.075l1.099-0.006c64.628-0.411,105.586-30.836,128.556-56.286
		c32.031-35.483,49.397-83.999,45.309-126.621l-0.431-4.524l4.113-1.915c6.523-3.04,12.365-7.262,17.269-12.397
		c-5.488,1.388-11.343,2.423-18.092,3.239l-4.929,0.598l-3.843-9.743l4.473-3.445c6.266-3.67,11.729-8.451,16.144-14.049
		c-6.986,2.976-15.232,5.887-23.477,7.423l-3.522,0.656l-2.41-2.648c-10.836-11.89-26.254-18.702-42.321-18.702
		c-35.849,0-57.276,29.12-57.276,57.276c0,1.703,0.848,9.454,1.15,11.446l2.918,8.297l-9.28-0.199
		c-49.744-1.073-96.023-22.873-128.511-60.181c-12.854,33.754,8.728,60.721,19.036,68.799l15.071,11.819l-19.146-0.334
		c-5.996-0.103-11.864-0.919-17.552-2.436c5.058,22.558,22.886,40.682,46.048,45.656l25.354,5.45l-24.962,7.025
		c-4.351,1.221-9.287,1.838-14.672,1.838c-2.519,0-4.929-0.135-7.153-0.341c10.039,17.674,28.734,29.551,49.416,30.56l18.072,0.887
		L117.264,249.4C92.283,267.774,66.37,274.85,47.841,277.472z"/>
    </symbol>

    <symbol id="linkedin" role="img" aria-labelledby="linkedin_title" viewBox="0 0 288.693 288.693">
    	<title id="linkedin_title">linkedin icon</title>        
		<path d="M74.609,288.359H4.544V91.698h70.065V288.359z M17.397,275.506h44.358V104.552H17.397V275.506z M39.589,79.423
		C17.764,79.423,0,61.678,0,39.872S17.764,0.334,39.589,0.334c21.819,0,39.564,17.738,39.564,39.538
		C79.153,61.685,61.408,79.423,39.589,79.423z M39.589,13.188c-14.743,0-26.736,11.973-26.736,26.684
		c0,14.724,11.992,26.697,26.736,26.697c14.73,0,26.71-11.98,26.71-26.697C66.299,25.161,54.32,13.188,39.589,13.188z
		 M288.693,288.359h-69.969v-95.798c0-28.67-3.483-42.314-23.297-42.314c-20.045,0-27.854,11.427-27.854,40.759v97.354H97.63V91.698
		h67.642v13.914c10.771-10.148,27.096-18.477,48.439-18.477c66.068,0,74.975,47.514,74.975,93.992v107.232H288.693z
		 M231.578,275.506h44.262v-94.378c0-50.091-10.392-81.139-62.122-81.139c-25.515,0-42.019,14.145-48.4,26.254l-1.806,3.432h-11.086
		v-25.116H110.49v170.954h44.236v-84.506c0-14.66,0-53.613,40.708-53.613c36.151,0,36.151,35.887,36.151,55.168v82.945H231.578z"/>
    </symbol>

    <symbol id="instagram" role="img" aria-labelledby="instagram_title" viewBox="0 0 612 612">
    	<title id="instagram_title">instagram icon</title>        
		<path d="M513.381,84.865h-56.158c-18.346,0-33.281,14.936-33.281,33.281v56.144c0,18.345,14.936,33.281,33.281,33.281h56.158
			c18.345,0,33.281-14.936,33.281-33.281v-56.144C546.662,99.8,531.726,84.865,513.381,84.865z M517.519,174.29
			c0,2.288-1.851,4.138-4.138,4.138h-56.158c-2.288,0-4.139-1.851-4.139-4.138v-56.144c0-2.288,1.865-4.138,4.139-4.138h56.158
			c2.272,0,4.138,1.851,4.138,4.138V174.29z M480.857,7.286H131.143C58.839,7.286,0,66.125,0,138.429v335.142
			c0,72.305,58.839,131.143,131.143,131.143h349.714C553.16,604.714,612,545.876,612,473.571V138.429
			C612,66.125,553.16,7.286,480.857,7.286z M582.857,473.571c0,56.246-45.755,102-102,102H131.143c-56.246,0-102-45.754-102-102
			V255h146.895c-27.802,30.979-44.895,71.764-44.895,116.571c0,96.42,78.438,174.857,174.857,174.857
			s174.857-78.438,174.857-174.857c0-44.807-17.093-85.592-44.895-116.571h146.895V473.571z M306,225.857
			c80.347,0,145.714,65.368,145.714,145.714c0,80.348-65.367,145.715-145.714,145.715s-145.714-65.367-145.714-145.715
			C160.286,291.225,225.653,225.857,306,225.857z M582.857,225.857H402.448c-27.671-18.375-60.807-29.143-96.448-29.143
			c-35.627,0-68.777,10.768-96.448,29.143H29.143v-87.428c0-56.246,45.754-102,102-102h349.714c56.245,0,102,45.754,102,102
			V225.857z M306,473.571c56.246,0,102-45.754,102-102c0-56.244-45.754-102-102-102c-56.246,0-102,45.755-102,102
			C204,427.817,249.754,473.571,306,473.571z M306,298.715c40.174,0,72.857,32.685,72.857,72.856
			c0,40.174-32.684,72.857-72.857,72.857c-40.173,0-72.857-32.684-72.857-72.857C233.143,331.399,265.827,298.715,306,298.715z"/>
    </symbol>

    <symbol id="skype" role="img" aria-labelledby="skype_title" viewBox="0 0 297.331 297.331">
    	<title id="skype_title">skype icon</title>        
		<path d="M211.109,139.359c-6.748-4.383-14.962-8.149-24.441-11.189c-9.036-2.879-19.191-5.534-30.084-7.873
		c-8.419-1.947-14.576-3.451-18.246-4.473c-3.213-0.893-6.44-2.14-9.595-3.715c-2.577-1.298-4.563-2.776-5.881-4.37
		c-0.848-1.048-1.208-2.159-1.208-3.734c0-1.825,0.617-4.319,5.399-7.455c4.717-3.098,11.331-4.672,19.64-4.672
		c11.658,0,16.575,2.41,18.458,3.843c3.882,2.95,7.314,7.23,10.328,12.982c3.284,5.643,6.24,9.525,9.28,12.198
		c3.895,3.458,9.21,5.212,15.784,5.212c7.159,0,13.516-2.661,18.368-7.706c4.769-4.955,7.288-10.964,7.288-17.372
		c0-6.041-1.665-12.198-4.949-18.304c-3.175-5.9-8.13-11.504-14.724-16.658c-6.478-5.045-14.595-9.107-24.139-12.076
		c-9.415-2.924-20.553-4.409-33.117-4.409c-15.714,0-29.679,2.224-41.492,6.6c-12.404,4.582-22.102,11.356-28.85,20.142
		c-6.902,9.004-10.405,19.428-10.405,30.984c0,12.095,3.381,22.462,10.064,30.83c6.324,7.905,14.904,14.21,25.495,18.715
		c9.756,4.152,21.941,7.802,36.26,10.861c9.955,2.082,18.014,4.081,23.953,5.932c4.891,1.517,8.856,3.676,11.787,6.414
		c2.179,2.037,3.143,4.512,3.143,8.014c0,3.046-0.81,7.089-7.108,11.382c-5.72,3.901-13.561,5.887-23.323,5.887
		c-7.095,0-12.712-0.951-16.684-2.834c-3.85-1.819-6.825-4.087-8.83-6.722c-2.423-3.207-4.756-7.359-6.909-12.275
		c-2.519-5.919-5.739-10.579-9.608-13.876c-4.422-3.721-9.775-5.604-15.932-5.604c-7.159,0-13.509,2.391-18.361,6.935
		c-4.968,4.685-7.603,10.669-7.603,17.314c0,9.178,3.265,18.548,9.711,27.841c6.228,8.965,14.39,16.202,24.293,21.549
		c13.516,7.179,30.643,10.823,50.913,10.823c16.87,0,31.768-2.641,44.281-7.847c12.969-5.386,23.053-13.072,29.968-22.854
		c6.986-9.904,10.534-21.202,10.534-33.574c0-10.334-2.108-19.325-6.266-26.704C224.187,150.234,218.403,144.128,211.109,139.359z
		 M213.525,210.389c-5.489,7.77-13.702,13.959-24.409,18.4c-10.932,4.55-24.171,6.857-39.339,6.857
		c-18.149,0-33.246-3.13-44.846-9.293c-8.079-4.364-14.743-10.27-19.801-17.539c-4.923-7.102-7.417-14.01-7.417-20.514
		c0-3.143,1.131-5.675,3.541-7.944c2.487-2.32,5.617-3.451,9.57-3.451c3.085,0,5.591,0.842,7.629,2.558
		c2.307,1.967,4.364,5.026,6.112,9.158c2.584,5.906,5.437,10.926,8.471,14.949c3.278,4.312,7.847,7.873,13.573,10.579
		c5.707,2.706,13.169,4.075,22.179,4.075c12.397,0,22.68-2.738,30.572-8.13c8.438-5.752,12.719-13.156,12.719-21.999
		c0-7.057-2.423-12.905-7.217-17.404c-4.37-4.081-10.007-7.204-16.742-9.3c-6.324-1.973-14.782-4.068-25.11-6.228
		c-13.49-2.892-24.891-6.292-33.882-10.116c-8.612-3.67-15.502-8.696-20.489-14.917c-4.807-6.028-7.249-13.696-7.249-22.802
		c0-8.663,2.609-16.453,7.751-23.162c5.238-6.832,13.014-12.185,23.117-15.913c10.379-3.85,22.847-5.797,37.031-5.797
		c11.273,0,21.131,1.285,29.306,3.83c8.053,2.5,14.801,5.848,20.045,9.936c5.186,4.042,8.985,8.291,11.311,12.609
		c2.269,4.21,3.413,8.323,3.413,12.211c0,3.104-1.208,5.874-3.689,8.458c-2.449,2.539-5.431,3.766-9.113,3.766
		c-2.294,0-5.418-0.341-7.275-1.999c-1.941-1.703-4.19-4.737-6.549-8.779c-3.766-7.179-8.406-12.892-13.792-16.993
		c-5.726-4.351-14.306-6.465-26.241-6.465c-10.855,0-19.84,2.282-26.691,6.78c-7.429,4.872-11.196,10.996-11.196,18.201
		c0,4.524,1.382,8.509,4.126,11.877c2.487,3.021,5.868,5.611,10.064,7.719c3.901,1.954,7.911,3.503,11.915,4.608
		c3.747,1.048,10.064,2.596,18.882,4.64c10.585,2.275,20.335,4.82,28.966,7.571c8.381,2.693,15.566,5.964,21.344,9.724
		c5.54,3.618,9.917,8.22,12.995,13.696c3.059,5.437,4.608,12.301,4.608,20.405C221.7,193.904,218.943,202.702,213.525,210.389z
		 M287.582,178.062c1.851-9.178,2.796-18.554,2.796-27.905c0-77.308-62.899-140.201-140.214-140.201
		c-7.262,0-14.512,0.553-21.575,1.658C115.696,4.01,101.03,0,86.004,0C39.673,0,1.986,37.687,1.986,84.012
		c0,14.107,3.567,28.002,10.328,40.348c-1.581,8.554-2.378,17.224-2.378,25.797c0,77.315,62.906,140.221,140.227,140.221
		c7.899,0,15.778-0.662,23.464-1.967c11.639,5.842,24.615,8.92,37.7,8.92c46.331,0,84.018-37.681,84.018-83.999
		C295.345,200.999,292.736,189.148,287.582,178.062z M211.327,284.484c-11.729,0-23.362-2.918-33.632-8.438l-1.999-1.073
		l-2.23,0.411c-7.603,1.42-15.444,2.14-23.31,2.14c-70.239,0-127.373-57.141-127.373-127.367c0-8.516,0.874-17.14,2.584-25.63
		l0.482-2.41l-1.24-2.121c-6.395-10.887-9.775-23.336-9.775-35.984c0-39.236,31.929-71.158,71.164-71.158
		c13.426,0,26.517,3.779,37.854,10.926l2.089,1.317l2.442-0.424c7.095-1.234,14.422-1.864,21.781-1.864
		c70.232,0,127.361,57.128,127.361,127.348c0,9.178-0.996,18.374-2.956,27.346l-0.482,2.211l1.003,2.024
		c4.917,9.872,7.404,20.502,7.404,31.594C282.491,252.568,250.563,284.484,211.327,284.484z"/>
    </symbol>

    <symbol id="button-play" role="img" aria-labelledby="button-play_title" viewBox="0 0 512 512">
    	<title id="button-play_title">Discover More</title>        
		<path d="M363.104,147.819c-5.82-5.789-14.589-7.431-22.111-4.146l-222,97c-7.433,3.248-12.169,10.665-11.987,18.774
			c0.181,8.111,5.244,15.308,12.815,18.22l82.703,31.809l31.418,81.688C238.872,403.97,249.703,405,253.018,405
			c0.021,0,0.044,0,0.066,0c7.959-0.033,15.141-4.782,18.287-12.092l96-223C370.617,162.367,368.925,153.609,363.104,147.819z
			 M254.041,332c-6.104-15.872-12.605-32.777-17.375-45.179c-2.031-5.282-6.205-9.457-11.487-11.488l-45.53-17.512l130.958-57.22
			L254.041,332z"/>
		<path d="M437.02,74.98C388.667,26.629,324.38,0,256,0S123.333,26.629,74.98,74.98C26.629,123.333,0,187.62,0,256
			s26.629,132.667,74.98,181.02C123.333,485.371,187.62,512,256,512c46.813,0,92.617-12.758,132.462-36.893
			c9.447-5.724,12.467-18.022,6.744-27.469c-5.724-9.449-18.022-12.467-27.469-6.744C334.144,461.244,295.505,472,256,472
			c-119.103,0-216-96.897-216-216S136.897,40,256,40s216,96.897,216,216c0,42.589-12.665,84.044-36.626,119.884
			c-6.139,9.182-3.672,21.603,5.51,27.742c9.184,6.139,21.604,3.672,27.742-5.51C497.002,355.674,512,306.53,512,256
			C512,187.62,485.371,123.333,437.02,74.98z"/>
    </symbol>

    <symbol id="advantages01" role="img" aria-labelledby="advantages01_title" viewBox="0 0 512.001 512.001">
    	<title id="advantages01_title"></title>        
		<path d="M490.748,146.253c-16.294-27.433-39.185-53.528-54.641-67.218c-33.74-29.893-61.885-29.165-75.662-26.069
			c-5.788,1.301-11.103,3.446-15.782,6.307C320.624,41.434,291.38,32.695,256,32.695s-64.625,8.739-88.663,26.579
			c-4.68-2.861-9.994-5.007-15.782-6.307c-13.773-3.095-41.922-3.824-75.66,26.068c-15.457,13.691-38.347,39.786-54.643,67.219
			C-0.81,183.395-5.724,213.44,6.646,235.557C21.75,262.56,44.66,269.47,63.155,271.174c-4.546,17.655-7.353,36.542-7.353,60.075
			c0,31.193,7.1,58.029,21.105,79.763c12.311,19.108,30.035,34.409,52.679,45.478c41.838,20.451,92.185,22.816,126.415,22.816
			s84.578-2.365,126.415-22.816c22.643-11.069,40.368-26.37,52.679-45.478c14.004-21.735,21.105-48.571,21.105-79.763
			c0-23.532-2.807-42.419-7.353-60.075c18.495-1.705,41.406-8.616,56.509-35.618C517.724,213.441,512.809,183.395,490.748,146.253z
			 M72.878,240.307c-16.368-0.43-29.678-3.599-38.879-20.048c-6.242-11.161-1.067-32.301,14.2-58.002
			c14.489-24.393,35.286-48.079,48.478-59.766c21.786-19.304,38.118-20.367,45.802-19.338
			c-22.867,27.876-36.883,64.104-48.604,99.327c-4.854,14.586-9.532,27.039-14.058,39.084
			C77.397,228.008,75.069,234.206,72.878,240.307z M235.555,343.057c-8.107-8.103-12.35-16.609-12.35-20.823
			c0-3.763,0.645-4.033,3.042-5.042c6.833-2.875,20.253-3.207,29.753-3.207s22.92,0.332,29.753,3.207
			c2.397,1.008,3.042,1.28,3.042,5.042c0,4.214-4.242,12.719-12.35,20.823c-7.973,7.968-16.484,12.267-20.446,12.267
			S243.528,351.025,235.555,343.057z M368.653,428.335c-24.051,11.755-55.889,18.131-96.983,19.394v-64.194
			c12.304-4.748,22.324-13.708,26.93-18.311c6.475-6.471,21.535-23.615,21.535-42.989c0-15.849-7.894-27.899-22.228-33.929
			c-9.554-4.02-21.696-5.66-41.906-5.66s-32.352,1.64-41.907,5.66c-14.333,6.03-22.228,18.079-22.228,33.929
			c0,19.374,15.061,36.517,21.535,42.989c4.606,4.604,14.627,13.564,26.93,18.311v64.194c-41.094-1.262-72.932-7.637-96.983-19.394
			c-37.822-18.488-56.208-50.245-56.208-97.086c0-40.072,9.234-64.649,22.013-98.664c4.413-11.745,9.413-25.057,14.456-40.21
			C151.309,109.139,180.611,64.034,256,64.034S360.691,109.14,388.39,192.375c5.042,15.154,10.044,28.465,14.456,40.21
			c12.779,34.015,22.013,58.591,22.013,98.664C424.86,378.09,406.474,409.847,368.653,428.335z M478.003,220.259
			c-9.202,16.451-22.512,19.617-38.88,20.048c-2.192-6.102-4.518-12.299-6.938-18.743c-4.525-12.044-9.203-24.498-14.058-39.084
			c-11.721-35.223-25.737-71.451-48.604-99.327c7.684-1.027,24.017,0.034,45.804,19.339c13.192,11.685,33.988,35.37,48.477,59.763
			C479.07,187.958,484.245,209.099,478.003,220.259z"/>
		<path d="M203.851,199.256c-11.337,0-20.564,9.321-20.564,20.83c0,11.508,9.226,20.837,20.564,20.837
			c11.352,0,20.577-9.33,20.577-20.837C224.428,208.577,215.203,199.256,203.851,199.256z"/>
		<path d="M307.995,199.093c-11.447,0-20.733,9.399-20.733,20.993c0,11.594,9.286,20.993,20.733,20.993
			c11.434,0,20.719-9.399,20.719-20.993C328.715,208.492,319.429,199.093,307.995,199.093z"/>
    </symbol>

    <symbol id="advantages02" role="img" aria-labelledby="advantages02_title" viewBox="0 0 512.001 512.001">
    	<title id="advantages02_title"></title>        
		<path d="M352.536,63.964c-27.29-19.54-60.691-30.951-96.536-30.951c-35.845,0-69.245,11.411-96.536,30.951
			C71.273,65.496,0,137.568,0,225.954v61.966c0,27.523,22.424,49.914,49.986,49.914c8.667,0,16.823-2.217,23.936-6.107l-0.365,3.183
			c-0.115,1.01-0.217,2.018-0.307,3.035c-1.78,20.398,2.741,40.058,13.076,56.851c9.549,15.516,23.56,27.954,40.517,35.97
			c13.347,6.31,27.44,9.387,41.363,9.387c4.775,0,9.526-0.376,14.223-1.094c15.625,24.014,42.698,39.928,73.422,39.928h0.299
			c30.724,0,57.798-15.914,73.422-39.929c18.389,2.811,37.663,0.181,55.586-8.292c16.957-8.016,30.967-20.455,40.516-35.97
			c10.335-16.793,14.856-36.453,13.076-56.845c-0.088-1.017-0.191-2.037-0.308-3.05l-0.364-3.174
			c7.113,3.891,15.269,6.107,23.936,6.107c27.563,0,49.986-22.391,49.986-49.914v-61.966C512,137.568,440.727,65.497,352.536,63.964
			z M93.918,164.08c-14.873,16.371-23.946,38.084-23.946,61.874v61.966c0,10.98-8.966,19.914-19.985,19.914
			c-11.021,0-19.986-8.934-19.986-19.914v-61.966c0-59.087,39.107-109.231,92.853-126.026
			C108.99,118.589,98.939,140.33,93.918,164.08z M256.15,448.986h-0.299v-0.001c-17.333,0-32.889-7.716-43.446-19.88
			c7.963-4.238,15.439-9.662,22.173-16.253L256,391.885l21.422,20.967c6.735,6.592,14.213,12.012,22.177,16.25
			C289.041,441.269,273.485,448.986,256.15,448.986z M372.337,403.643c-20.027,9.467-49.966,11.225-73.931-12.23l-25.851-25.302
			h7.373c24.813,0,45-20.187,45-45v-14.605c0-24.813-20.187-45-45-45h-47.857c-24.813,0-45,20.187-45,45v14.605
			c0,24.813,20.187,45,45,45h7.373l-25.851,25.302c-23.966,23.456-53.904,21.696-73.93,12.23
			c-19.516-9.226-39.359-30.644-36.528-63.08c0.065-0.748,0.142-1.497,0.227-2.239l17.843-155.354
			C129.059,114.583,187.008,63.013,256,63.013s126.942,51.57,134.796,119.957l17.843,155.361c0.086,0.74,0.16,1.478,0.225,2.221
			C411.695,372.999,391.852,394.417,372.337,403.643z M232.071,336.111c-8.271,0-15-6.729-15-15v-14.605c0-8.271,6.729-15,15-15
			h47.857c8.271,0,15,6.729,15,15v14.605c0,8.271-6.729,15-15,15H232.071z M482,287.92c0,10.98-8.966,19.914-19.986,19.914
			c-11.02,0-19.985-8.934-19.985-19.914v-61.966c0-23.789-9.073-45.501-23.944-61.872c-5.021-23.75-15.073-45.491-28.937-64.153
			C442.894,116.723,482,166.867,482,225.954V287.92z"/>
		<path d="M198.347,161.528c-8.284,0-15,6.716-15,15v28.115c0,8.284,6.716,15,15,15s15-6.716,15-15v-28.115
			C213.347,168.244,206.631,161.528,198.347,161.528z"/>
		<path d="M313.653,161.528c-8.284,0-15,6.716-15,15v28.115c0,8.284,6.716,15,15,15s15-6.716,15-15v-28.115
			C328.653,168.244,321.937,161.528,313.653,161.528z"/>
    </symbol>

    <symbol id="advantages03" role="img" aria-labelledby="advantages03_title" viewBox="0 0 512.001 512.001">
    	<title id="advantages03_title"></title>        
		<path d="M493.902,157.915c-134.239-140.516-337.908-144.347-475.81,0c-39.448,41.295-10.129,109.6,46.878,109.6h1.003
		c-25.614,133,54.499,193.399,190.025,193.399c136.054,0,215.548-60.868,190.025-193.399h1.003c26.388,0,49.226-15.073,59.604-39.337
		C517.005,203.919,512.128,176.995,493.902,157.915z M74.091,234.842h-9.121c-28.391,0-42.851-33.837-23.252-54.355
		c28.279-29.601,63.576-55.244,102.625-72.642C112.104,143.239,87.686,190.206,74.091,234.842z M237.8,427.842l18.197-19.072
		l18.198,19.072C262.666,428.359,249.978,428.388,237.8,427.842z M255.997,329.282l-32.995-34.58h65.989L255.997,329.282z
		 M315.114,423.395l-42.78-44.836v-19.067l48.42-50.747c16.741-17.546,4.285-46.718-19.996-46.718h-89.523
		c-24.25,0-36.759,29.15-19.996,46.718l48.42,50.747v19.067l-42.781,44.836c-93.493-17.123-118.585-77.347-94.652-168.052
		c14.409-54.661,48.255-117.382,93.9-150.367c39.744-28.719,79.972-28.736,119.74,0c45.557,32.92,79.436,95.499,93.9,150.367
		c0.109,0.413,0.236,0.817,0.376,1.214C435.845,356.039,399.59,407.924,315.114,423.395z M447.025,234.842h-9.121
		c-13.698-44.973-38.318-91.937-70.252-126.997c39.034,17.392,74.335,43.029,102.624,72.642
		C489.887,201.015,475.401,234.842,447.025,234.842z M194.709,213.885c0.011-11.936-9.656-21.621-21.592-21.632
		c-11.936-0.011-21.621,9.656-21.632,21.592c-0.011,11.936,9.656,21.621,21.592,21.632
		C185.013,235.489,194.698,225.821,194.709,213.885z M359.667,214.028c0.011-11.936-9.656-21.621-21.592-21.632
		c-11.936-0.011-21.621,9.656-21.632,21.592c-0.011,11.936,9.656,21.621,21.592,21.632
		C349.971,235.631,359.656,225.964,359.667,214.028z"/>
    </symbol>

    <symbol id="services01" role="img" aria-labelledby="services01_title" viewBox="0 0 511.999 511.999">
    	<title id="services01_title"></title>        
		<path d="M434.014,25.877c-9.556-9.525-20.821-17.532-33.484-23.797c-6.188-3.061-13.518-2.709-19.382,0.933
			c-5.865,3.641-9.432,10.054-9.432,16.958v86.723l-29.656,18.482l-29.229-18.42V19.96c0-6.898-3.562-13.307-9.42-16.95
			c-5.858-3.642-13.181-4.003-19.368-0.953c-13.489,6.649-24.986,14.663-34.173,23.82C225.74,49.93,209.2,81.566,204.492,112.675
			c-5.67,37.454,5.199,72.027,30.605,97.351c10.306,10.271,28.551,21.334,46.795,26.999v214.092
			c-0.001,15.982,6.142,30.994,17.298,42.272c11.238,11.359,26.266,17.615,42.309,17.614h0.011c16.012,0,31.072-6.22,42.404-17.515
			c11.446-11.408,17.746-26.455,17.743-42.371c-0.002-11.022-8.939-19.956-19.961-19.956h-0.004
			c-11.024,0.003-19.959,8.942-19.957,19.965c0.001,5.225-2.132,10.227-6.003,14.087c-3.798,3.785-8.848,5.869-14.228,5.869H341.5
			c-5.302,0-10.249-2.047-13.93-5.769c-3.713-3.753-5.757-8.794-5.757-14.194V220.794c0-10.49-8.121-19.19-18.587-19.913
			c-12.351-0.853-31.953-11.164-39.947-19.132c-16.174-16.123-23.035-38.533-19.315-63.101c3.121-20.62,13.55-41.782,28.944-59.056
			v58.175c0,6.856,3.518,13.232,9.318,16.887l49.131,30.963c6.472,4.08,14.707,4.1,21.201,0.054l49.676-30.96
			c5.849-3.646,9.404-10.049,9.404-16.941V60.349c18.243,20.856,28.943,47.114,28.943,71.695c0,13.591-3.466,33.248-19.976,49.704
			c-8.239,8.211-27.856,18.59-39.858,19.161c-10.643,0.507-19.012,9.284-19.012,19.939v129.466
			c0,11.024,8.937,19.961,19.961,19.961c11.023,0,19.961-8.938,19.961-19.961V237.247c18.217-5.563,36.58-16.705,47.131-27.223
			c20.747-20.68,31.715-47.644,31.715-77.978C480.503,94.581,463.124,54.893,434.014,25.877z"/>
		<path d="M153.506,124.371c4.866-4.938,6.82-12.048,5.162-18.78l-21.957-89.16c-2.197-8.92-10.196-15.188-19.382-15.188H73.414
			c-9.186,0-17.185,6.269-19.382,15.188l-21.957,89.16c-1.658,6.732,0.296,13.842,5.162,18.78l39.171,39.765v96.028
			c-23.236,8.239-39.922,30.44-39.922,56.462v135.486c-0.004,15.997,6.225,31.035,17.539,42.35
			C65.335,505.772,80.368,512,96.354,511.999c0.005-0.001,0.012,0,0.017,0c15.997,0,31.034-6.229,42.344-17.538
			c11.311-11.311,17.54-26.352,17.538-42.347V316.627c0-15.997-6.23-31.034-17.541-42.345
			c-6.426-6.426-14.057-11.212-22.381-14.146V162.11L153.506,124.371z M116.33,316.627v135.489
			c0.001,5.334-2.075,10.347-5.845,14.116c-3.769,3.769-8.781,5.845-14.119,5.845H96.36c-5.328,0-10.338-2.076-14.106-5.845
			c-3.77-3.771-5.846-8.781-5.845-14.114V316.627c0-11.005,8.954-19.96,19.96-19.961c5.332,0,10.345,2.076,14.115,5.846
			c3.77,3.772,5.847,8.784,5.847,14.115H116.33z M95.372,126.498l-21.864-22.196l15.549-63.139h12.63l15.55,63.139L95.372,126.498z
			"/>
    </symbol>

    <symbol id="services02" role="img" aria-labelledby="services02_title" viewBox="0 0 512 512">
    	<title id="services02_title"></title>        
		<path d="M394.382,56.268C357.792,19.947,309.378,0,257.904,0c-0.438,0-0.887,0.001-1.325,0.004C256.13,0.001,255.693,0,255.247,0
			C203.406,0,154.58,20.15,117.625,56.831C80.789,93.397,60.5,141.852,60.5,193.268c0,77.352,44.406,119.026,76.831,149.455
			C159.756,363.768,173.5,377.456,173.5,393v59c0,33.084,26.916,60,60,60h45c33.084,0,60-26.916,60-60v-61
			c0-0.795-0.047-1.579-0.137-2.349c1.973-11.793,11.945-23.293,28.793-39.318c8.004-7.613,8.321-20.272,0.708-28.276
			c-7.613-8.003-20.272-8.321-28.275-0.708c-16.524,15.717-31.772,31.659-38.276,51.652H275.5V202.284l20-20l25.858,25.858
			c3.905,3.905,9.023,5.858,14.142,5.858c5.119,0,10.237-1.953,14.142-5.858c7.811-7.811,7.811-20.474,0-28.284l-40-40
			c-7.811-7.811-20.474-7.811-28.284,0L255.5,165.716l-25.858-25.858c-7.811-7.811-20.474-7.811-28.284,0l-40,40
			c-7.811,7.811-7.811,20.474,0,28.284c7.811,7.81,20.474,7.811,28.284,0l25.858-25.858l20,20V372h-25.305
			c-7.363-22.661-26.008-40.159-45.492-58.445C133.14,283.933,100.5,253.302,100.5,193.267c0-40.675,16.09-79.048,45.305-108.048
			C175.209,56.031,214.037,40,255.255,40c0.391,0,0.784,0.001,1.175,0.004c0.099,0.001,0.197,0.001,0.296,0
			c0.39-0.003,0.778-0.004,1.168-0.004c40.846,0,79.27,15.833,108.308,44.657c28.211,28.003,44.181,64.937,45.242,104.403
			c-0.291,1.356-0.443,2.765-0.443,4.208c0,23.132-4.647,43.228-14.208,61.437c-5.135,9.78-1.369,21.871,8.41,27.005
			c9.779,5.136,21.871,1.37,27.005-8.41c11.978-22.813,18.125-47.506,18.741-75.348c0.36-1.502,0.551-3.071,0.551-4.684
			C451.5,141.485,431.216,92.831,394.382,56.268z M213.5,412h85v40c0,11.028-8.972,20-20,20h-45c-11.028,0-20-8.972-20-20V412z"/>
    </symbol>

    <symbol id="services03" role="img" aria-labelledby="services03_title" viewBox="0 0 512 512">
    	<title id="services03_title"></title>        
		<path d="M492,281.979c11.046,0,20-8.954,20-20V60.013c0-19.493-9.515-37.831-25.452-49.056
			c-15.938-11.224-36.41-14.003-54.762-7.438c-0.565,0.202-1.121,0.43-1.666,0.682l-160.226,74.19
			c-35.275,16.332-72.869,24.729-111.739,24.955l-78.219,0.456C35.854,103.838,0,139.712,0,183.803v52
			c0,35.477,23.446,66.018,56,76.295V451.19c0,16.275,6.692,32.176,18.36,43.622c11.312,11.098,26.062,17.168,41.652,17.168
			c0.382,0,0.767-0.004,1.15-0.012c15.785-0.301,30.575-6.675,41.646-17.947C169.895,482.733,176,467.803,176,451.979V315.734
			c33.757,2.544,67.127,11.478,97.555,26.216l156.064,75.589c0.615,0.298,1.245,0.563,1.887,0.797
			c18.376,6.68,38.908,3.968,54.92-7.25C502.439,399.867,512,381.497,512,361.944c0-11.046-8.954-20-20-20c-11.046,0-20,8.954-20,20
			c0,6.615-3.107,12.585-8.525,16.381c-5.184,3.631-11.515,4.594-17.496,2.692L290.991,305.95
			C255.16,288.596,215.773,278.249,176,275.638V142.753c38.384-2.374,75.545-11.786,110.7-28.062l159.274-73.749
			c6.003-1.905,12.355-0.933,17.542,2.721C468.908,47.46,472,53.42,472,60.015v201.966C472,273.025,480.954,281.979,492,281.979z
			 M136,451.979c0,10.819-8.793,19.789-19.603,19.996c-5.172,0.097-10.167-1.931-14.025-5.717C98.323,462.285,96,456.793,96,451.189
			V295.653c0-10.529-8.163-19.255-18.669-19.956C56.398,274.301,40,256.777,40,235.803v-52c0-22.056,17.944-40,40-40h0.117
			L136,143.477V451.979z"/>
    </symbol>

    <symbol id="services04" role="img" aria-labelledby="services04_title" viewBox="0 0 512 512">
    	<title id="services04_title"></title>        
		<path d="M467.701,92.539L263.1,1.717c-5.179-2.299-11.092-2.29-16.263,0.03L44.233,92.569
			c-7.177,3.218-11.796,10.349-11.796,18.214v157.692c0,59.596,23.551,120.517,64.615,167.142
			c20.655,23.451,44.466,42.009,70.774,55.157C196.004,504.859,225.67,512,256,512c42.469,0,83.803-13.745,119.536-39.752
			c8.914-6.487,10.881-18.971,4.393-27.885c-6.487-8.914-18.972-10.879-27.885-4.393c-28.862,21.006-62.073,32.108-96.043,32.108
			c-96.111,0-183.641-97.044-183.641-203.602V123.711l182.683-81.892l184.599,81.944v144.713c0,36.757-10.559,73.956-30.537,107.574
			c-5.632,9.477-2.515,21.725,6.962,27.357c9.479,5.631,21.726,2.514,27.358-6.963c23.643-39.785,36.139-84.035,36.139-127.967
			V110.784C479.563,102.892,474.914,95.741,467.701,92.539z"/>
    </symbol>

    <symbol id="contact01" role="img" aria-labelledby="contact01_title" viewBox="0 0 512 512">
    	<title id="contact01_title"></title>        
		<path d="M511.95,412.553c-0.714-19.805-8.964-38.287-23.229-52.042c-27.931-26.933-51.333-42.481-73.647-48.929
			c-30.745-8.886-59.225-0.806-84.641,24.016c-0.038,0.037-0.076,0.075-0.114,0.113l-27.04,26.838
			c-16.899-9.526-49.759-30.442-85.261-65.944l-2.632-2.63c-35.508-35.507-56.423-68.373-65.94-85.253l26.84-27.041
			c0.038-0.038,0.076-0.076,0.114-0.115c24.821-25.414,32.901-53.892,24.016-84.641c-6.449-22.313-21.996-45.715-48.93-73.646
			C137.732,9.016,119.251,0.766,99.446,0.052C79.629-0.663,60.613,6.235,45.865,19.473l-0.574,0.516
			c-0.266,0.239-0.526,0.486-0.78,0.739C15.152,50.087-0.238,91.188,0.003,139.589c0.411,82.222,45.6,176.25,120.879,251.528
			c14.195,14.195,30.328,28.243,47.95,41.755c8.765,6.72,21.319,5.064,28.04-3.702c6.722-8.766,5.064-21.32-3.702-28.041
			c-16.235-12.449-31.04-25.333-44.004-38.294C81.17,294.839,40.361,211.309,40.002,139.39
			c-0.185-37.276,11.028-68.389,32.431-90.015l0.153-0.138c14.537-13.049,36.546-12.255,50.108,1.808
			c51.779,53.698,48.03,79.049,25.15,102.511l-37.074,37.352c-5.814,5.858-7.433,14.686-4.076,22.226
			c0.941,2.114,23.71,52.427,80.415,109.132l2.633,2.629c56.698,56.699,107.012,79.467,109.126,80.408
			c7.538,3.359,16.368,1.739,22.225-4.075l37.353-37.075c23.465-22.881,48.816-26.628,102.511,25.151
			c14.063,13.56,14.857,35.57,1.811,50.105l-0.142,0.157c-21.449,21.229-52.231,32.433-89.101,32.433c-0.304,0-0.608,0-0.913-0.002
			c-29.471-0.147-63.598-8.226-98.689-23.362c-10.14-4.376-21.911,0.3-26.285,10.443c-4.375,10.143,0.3,21.911,10.443,26.286
			c40.562,17.496,79.028,26.456,114.332,26.633c0.375,0.001,0.747,0.002,1.122,0.002c47.914,0,88.607-15.379,117.739-44.51
			c0.253-0.254,0.499-0.513,0.738-0.78l0.519-0.577C505.768,451.385,512.665,432.357,511.95,412.553z"/>
    </symbol>

    <symbol id="contact02" role="img" aria-labelledby="contact02_title" viewBox="0 0 512 512">
    	<title id="contact02_title"></title>        
		<path d="M501.182,176.53c-0.66-2.298-1.747-4.515-3.275-6.536c-1.132-1.496-2.433-2.788-3.856-3.869
			c-3.848-4.766-8.255-9.106-13.161-12.9L299.907,13.311c-0.537-0.416-1.095-0.803-1.671-1.162
			c-26.053-16.199-58.422-16.199-84.474,0c-0.576,0.358-1.134,0.746-1.671,1.162L31.109,153.225
			c-19.452,15.038-31.065,38.694-31.065,63.281v215.509C0.045,476.119,35.926,512,80.031,512h245.957
			c11.044,0,19.997-8.952,19.997-19.997s-8.952-19.997-19.997-19.997H80.031c-22.052,0-39.993-17.941-39.993-39.993V216.506
			c0-12.293,5.807-24.121,15.532-31.641l180.097-139.23c12.624-7.465,28.042-7.465,40.666,0l174.496,134.899L276.414,312.479
			c-12.679,7.537-28.194,7.529-40.868-0.023l-118.536-88.751c-8.84-6.62-21.373-4.818-27.992,4.022
			c-6.619,8.84-4.818,21.372,4.022,27.992l119.295,89.318c0.461,0.345,0.937,0.67,1.425,0.975
			c13.027,8.101,27.632,12.15,42.238,12.15c14.605,0,29.211-4.05,42.238-12.15c0.517-0.322,1.019-0.667,1.505-1.034l172.179-130.253
			c0.027,0.592,0.041,1.185,0.041,1.78v41.539c0,11.044,8.952,19.997,19.997,19.997s19.996-8.952,19.996-19.997v-41.539
			C511.955,202.388,508.125,188.578,501.182,176.53z"/>
		<path d="M506.087,383.182l-59.047-58.94c-11.617-11.617-30.522-11.617-42.129-0.012l-59.057,58.952
			c-7.816,7.803-7.828,20.463-0.025,28.279c7.803,7.817,20.463,7.828,28.279,0.025l31.865-31.808v112.326
			c0,11.044,8.952,19.997,19.997,19.997s19.997-8.952,19.997-19.997V379.678l31.865,31.808c3.903,3.896,9.015,5.844,14.127,5.844
			c5.123,0,10.247-1.958,14.153-5.87C513.914,403.645,513.902,390.984,506.087,383.182z"/>
    </symbol>

    <symbol id="contact03" role="img" aria-labelledby="contact03_title" viewBox="0 0 512 512">
    	<title id="contact03_title"></title>        
		<path d="M256,80c-68.925,0-125,56.075-125,125s56.075,125,125,125c11.641,0,23.175-1.603,34.282-4.765
			c10.624-3.023,16.784-14.087,13.761-24.711c-3.025-10.623-14.087-16.785-24.712-13.76C271.787,288.911,263.937,290,256,290
			c-46.869,0-85-38.131-85-85s38.131-85,85-85c46.869,0,85,38.131,85,85c0,8.339-1.2,16.57-3.567,24.463
			c-3.173,10.58,2.832,21.729,13.412,24.902c10.581,3.171,21.728-2.831,24.902-13.412C379.232,229.33,381,217.234,381,205
			C381,136.075,324.925,80,256,80z"/>
		<path d="M400.877,59.964C362.167,21.296,310.715,0,256,0c-54.716,0-106.167,21.296-144.877,59.965
			c-38.706,38.666-60.057,90.088-60.12,144.838c0.039,39.855,11.109,77.247,33.841,114.315
			c19.685,32.097,45.258,60.103,72.332,89.753c26.547,29.071,53.996,59.133,75.918,93.815C236.759,508.484,243.141,512,250,512h12
			c6.859,0,13.241-3.516,16.906-9.315c21.922-34.682,49.371-64.744,75.918-93.815c27.074-29.649,52.647-57.655,72.332-89.753
			c22.733-37.068,33.802-74.461,33.841-114.358C460.935,150.052,439.583,98.63,400.877,59.964z M325.286,381.899
			c-23.604,25.849-47.891,52.447-69.286,83.037c-21.394-30.59-45.682-57.188-69.286-83.037
			c-51.319-56.201-95.641-104.739-95.711-177.093C91.107,113.932,165.125,40,256,40s164.893,73.932,164.997,164.763
			C420.927,277.16,376.605,325.697,325.286,381.899z"/>
    </symbol>

    <symbol id="paw" role="img" aria-labelledby="paw_title" viewBox="0 0 50.304 50.304">
    	<title id="paw_title"></title>        
		<path d="M50.304,25.969c0-0.166-1.081-16.678-10.367-16.678c-0.005,0-0.005,0-0.005,0c-0.292,0.007-0.552,0.078-0.825,0.12
		c-1.28-4.399-3.833-9.064-8.947-9.064c-2.345,0-4.146,0.994-5.542,2.482c-1.375-1.441-3.127-2.422-5.389-2.482
		c-4.984,0-7.536,4.614-8.84,8.989c-0.124-0.007-0.236-0.044-0.36-0.044h-0.002C1.537,9.574,0,25.803,0,25.969
		c0,4.062,2.402,7.549,5.844,9.196c-1.604,2.372-2.338,5.36-0.277,8.846c2.34,3.946,5.381,5.946,9.036,5.946
		c2.019,0,3.787-0.632,5.345-1.192c1.629-0.582,3.165-1.134,5.179-1.134c2.032,0,3.601,0.55,5.266,1.129
		c1.64,0.575,3.339,1.168,5.335,1.168h0.003c3.709,0,6.738-2.023,9.005-6.013c1.994-3.514,1.385-6.479-0.109-8.837
		C47.973,33.397,50.304,29.964,50.304,25.969z M30.158,6.187c2.703,0,4.38,8.424,4.38,10.84c0,2.414-1.962,4.382-4.38,4.382
		s-4.379-1.969-4.379-4.382C25.778,14.61,27.458,6.187,30.158,6.187z M19.259,6.187c2.632,0.068,4.377,8.424,4.377,10.84
		c0,2.414-1.961,4.382-4.377,4.382c-2.42,0-4.382-1.969-4.382-4.382C14.877,14.61,16.629,6.117,19.259,6.187z M5.835,25.969
		c0-2.418,2.597-10.779,4.379-10.841c1.783-0.06,4.38,8.421,4.38,10.841c0,2.412-1.962,4.378-4.38,4.378S5.835,28.381,5.835,25.969z
		 M39.654,41.03c-3.638,6.403-6.506,0.76-14.533,0.76c-8.028,0-10.699,5.707-14.537-0.76c-2-3.388,4.625-6.029,6.76-8.021
		c2.662-2.488,3.319-7.01,7.777-7.01c4.25,0,5.16,4.448,7.818,6.766C35.301,34.823,41.807,37.246,39.654,41.03z M40.089,30.347
		c-2.422,0-4.384-1.966-4.384-4.378c0-2.418,2.192-10.779,4.384-10.841c2.188-0.058,4.375,8.421,4.375,10.841
		C44.464,28.381,42.503,30.347,40.089,30.347z"/>
    </symbol>

</svg>
