<svg xmlns="http://www.w3.org/2000/svg" xmlns:xlink="http://www.w3.org/1999/xlink">
  
    <symbol id="looking01" role="img" aria-labelledby="looking01_title" viewBox="0 0 512 512">
        <title id="looking01_title"></title>
        <path fill="#ABDDEB" d="M495.9,255.8v102.6h-93.9c0.1-23.8-5.8-47.3-17.1-68.3c-9.8-18.1-23.2-34-39.4-46.6
			c2.7-5,7-9,12.3-11.3l28.7-12.3c3.5-1.5,6.6-3.8,9.1-6.7c3.1-3.5,5.2-7.7,6-12.3h35c1.6,8.4,7.2,15.5,15.1,18.9l28.7,12.3
			C489.8,236.3,495.9,245.6,495.9,255.8z"/>
		<path fill="#E4F9FF" d="M461.8,268.1v90.3h-65c0.1-23.8-5.8-47.3-17.1-68.3c-9.8-18.1-23.2-34-39.4-46.6
			c2.7-5,7-9,12.3-11.3l28.7-12.3c3.5-1.5,6.6-3.8,9.1-6.7h12.1c1.6,8.4,7.2,15.5,15.1,18.9l28.7,12.3
			C455.7,248.6,461.8,257.9,461.8,268.1z"/>
		<path fill="#ABDDEB" d="M453.3,145.1v17.1c0,11.3-4.5,22.2-12.5,30.2c-8,8-18.9,12.5-30.2,12.5
			c-4.3,0-8.6-0.6-12.8-1.9c-17.8-5.6-29.9-22.1-29.9-40.8v-17.1c0-18.7,12.1-35.2,29.9-40.8c4.2-1.2,8.5-1.9,12.8-1.9
			c11.3,0,22.2,4.5,30.2,12.5C448.8,122.9,453.3,133.7,453.3,145.1z"/>
		<path fill="#ABDDEB" d="M333.8,162v73.4c-8.1-5.1-16.6-9.4-25.6-12.7c-5.6-2.1-11.3-3.9-17.1-5.3
			c-22.4-5.3-45.8-5.3-68.3,0c-5.8,1.4-11.5,3.2-17.1,5.3c-8.1,3-15.9,6.8-23.2,11.3c-0.8,0.4-1.6,0.8-2.4,1.4l0-73.4
			c0-7.6,3.3-14.8,9.1-19.6l0.1-0.1c1.9-1.6,4-2.8,6.3-3.8l9.1-3.9l19.5-8.4c3.6-1.5,6.8-3.9,9.3-6.8c3-3.5,5-7.6,5.8-12.1h35
			c1.6,8.4,7.2,15.5,15.1,18.9l28.7,12.3C327.7,142.5,333.8,151.7,333.8,162z"/>
		<path fill="#E4F9FF" d="M308.2,174.1v48.6c-5.6-2.1-11.3-3.9-17.1-5.3c-22.4-5.3-45.8-5.3-68.3,0
			c-5.8,1.4-11.5,3.2-17.1,5.3c-8.1,3-15.9,6.8-23.2,11.3c-0.8,0.2-1.6,0.4-2.4,0.8l0-72.8c0-7.6,3.3-14.8,9.1-19.6l0.1-0.1l9.4-4
			c2.2-0.9,4.2-2.2,6.1-3.8l28.8-15.2h15.2c1.6,8.4,7.2,15.5,15.1,18.9l28.7,12.3C302.1,154.6,308.2,163.8,308.2,174.1z"/>
		<path fill="#ABDDEB" d="M299.7,51.2v17.1c0,23.6-19.1,42.7-42.7,42.7c-4.3,0-8.6-0.6-12.8-1.9
			c-17.8-5.6-29.9-22.1-29.9-40.8V51.2c0-18.7,12.1-35.2,29.9-40.8c4.2-1.2,8.5-1.9,12.8-1.9c11.3,0,22.2,4.5,30.2,12.5
			C295.2,29,299.7,39.9,299.7,51.2z"/>
		<path fill="#ABDDEB" d="M168.4,243.5c-16.2,12.6-29.7,28.5-39.4,46.6c-11.3,21-17.1,44.4-17.1,68.3H18.1V255.8
			c0-10.2,6.1-19.5,15.5-23.6L62.3,220c7.9-3.4,13.5-10.5,15.1-18.9h35c1.6,8.4,7.2,15.5,15.1,18.9l28.7,12.3
			C161.4,234.5,165.7,238.5,168.4,243.5z"/>
		<path fill="#E4F9FF" d="M142.8,243.5c-16.2,12.6-29.7,28.5-39.4,46.6c-11.3,21-17.1,44.4-17.1,68.3H18.1V255.8
			c0-10.2,6.1-19.5,15.5-23.6L62.3,220c7.9-3.4,13.5-10.5,15.1-18.9h9.4c1.6,8.4,7.2,15.5,15.1,18.9l28.7,12.3
			C135.8,234.5,140.1,238.5,142.8,243.5z"/>
		<path fill="#ABDDEB" d="M146.1,145.1v17.1c0,11.3-4.5,22.2-12.5,30.2c-8,8-18.9,12.5-30.2,12.5
			c-4.3,0-8.6-0.6-12.8-1.9c-17.8-5.6-29.9-22.1-29.9-40.8v-17.1c0-18.7,12.1-35.2,29.9-40.8c4.2-1.2,8.5-1.9,12.8-1.9
			c11.3,0,22.2,4.5,30.2,12.5C141.6,122.9,146.1,133.7,146.1,145.1z"/>
		<path fill="#E4F9FF" d="M427.7,145.1v17.1c0,18.7-12.1,35.2-29.9,40.8c-17.8-5.6-29.9-22.1-29.9-40.8v-17.1
			c0-18.7,12.1-35.2,29.9-40.8c6.6,2.1,12.5,5.7,17.4,10.6C423.2,122.9,427.7,133.7,427.7,145.1z"/>
		<path fill="#E4F9FF" d="M274.1,51.2v17.1c0,18.7-12.1,35.2-29.9,40.8c-17.8-5.6-29.9-22.1-29.9-40.8V51.2
			c0-18.7,12.1-35.2,29.9-40.8c6.6,2.1,12.5,5.7,17.4,10.6C269.6,29,274.1,39.9,274.1,51.2z"/>
		<path fill="#E4F9FF" d="M120.5,145.1v17.1c0,18.7-12.1,35.2-29.9,40.8c-17.8-5.6-29.9-22.1-29.9-40.8v-17.1
			c0-18.7,12.1-35.2,29.9-40.8c6.6,2.1,12.5,5.7,17.4,10.6C116,122.9,120.5,133.7,120.5,145.1z"/>
		<path fill="#FFFFFF" d="M63.9,232.3L92.5,220c7.9-3.4,13.5-10.5,15.1-18.9h8.6c-15.3-6.9-25.2-22.1-25.2-38.9v-17.1
			c0-18.5,11.9-34.9,29.5-40.6c-4-1.3-8.2-2-12.4-2c-4.3,0-8.6,0.6-12.8,1.9c-17.8,5.6-29.9,22.1-29.9,40.8v17.1
			c0,16.8,9.9,32,25.2,38.9h-8.6c-1.6,8.4-7.2,15.5-15.1,18.9l-28.7,12.3c-9.4,4-15.5,13.3-15.5,23.6v102.6h25.6V255.8
			C48.4,245.6,54.5,236.3,63.9,232.3z"/>
		<path fill="#FFFFFF" d="M45.5,240.1c-5.8,2.5-9.7,8-10.2,14.3l-0.1,27v77H18.1v-97.8c0-2.4-0.1-4.2,0.1-7.7
			c1.1-12.6,9-23.5,20.6-28.5L45.5,240.1z"/>
		<path fill="#46A4BD" d="M26.6,302.8c2.3,0,4.4-0.9,6.1-2.5c1.6-1.6,2.4-3.8,2.5-6.1c0-2.3-0.9-4.4-2.5-6.1l-1.3-1
			c-0.5-0.3-1-0.6-1.5-0.8c-0.5-0.2-1-0.4-1.5-0.5c-0.6-0.1-1.1-0.2-1.7-0.2c-2.3,0-4.4,0.9-6.1,2.5c-0.8,0.8-1.4,1.8-1.8,2.8
			c-1.3,3.2-0.6,6.8,1.8,9.3c0.8,0.8,1.8,1.4,2.8,1.8C24.4,302.5,25.5,302.7,26.6,302.8z"/>
		<path fill="#46A4BD" d="M475.2,224.4l-28.6-12.3c-3.4-1.5-6.2-4-8.1-7.1c14-9.1,23.3-24.9,23.3-42.9v-17.1
			c0-28.3-22.9-51.2-51.2-51.2c-28.3,0-51.2,22.9-51.2,51.2v17.1c0,18,9.3,33.7,23.3,42.9c-1.8,3.1-4.6,5.6-8,7.1L346,224.4
			c-1.2,0.5-2.5,1.2-3.6,1.8V162c0-13.7-8.1-26-20.7-31.4L293,118.3c-3.4-1.5-6.2-4-8.1-7.1c14-9.1,23.3-24.9,23.3-42.9V51.2
			C308.2,22.9,285.3,0,257,0s-51.2,22.9-51.2,51.2v17.1c0,18,9.3,33.7,23.3,42.9c-1.8,3.1-4.6,5.7-8,7.1l-28.7,12.3
			c-12.6,5.4-20.7,17.7-20.7,31.4v64.3c-1.2-0.7-2.4-1.3-3.6-1.8l-28.6-12.3c-3.4-1.5-6.2-4-8.1-7.1c14-9.1,23.3-24.9,23.3-42.9
			v-17.1c0-28.3-22.9-51.2-51.2-51.2s-51.2,22.9-51.2,51.2v17.1c0,18,9.3,33.7,23.3,42.9c-1.8,3.1-4.6,5.7-8,7.1l-28.7,12.3
			c-10.7,4.6-18.3,14.3-20.2,25.7c-0.3,1.9-0.5,3.8-0.5,5.7v4.3c0,4.7,3.8,8.5,8.5,8.5s8.5-3.8,8.5-8.5v-4.3c0-0.9,0.1-1.9,0.2-2.8
			c0.3-1.9,1-3.7,1.9-5.4c1.8-3.3,4.7-6,8.2-7.5c0,0,0,0,0,0l28.7-12.3c7.5-3.2,13.4-8.9,17-16c3.9,1,8,1.5,12.2,1.5
			c4.2,0,8.3-0.5,12.2-1.5c3.6,7.1,9.5,12.8,17,16l27.2,11.6c-32.4,26.5-53.7,65.9-56.2,110.4H69.3v-76.8c0-4.7-3.8-8.5-8.5-8.5
			s-8.5,3.8-8.5,8.5v76.8H35.1v-21.5c0-4.7-3.8-8.5-8.5-8.5s-8.5,3.8-8.5,8.5v30c0,4.7,3.8,8.5,8.5,8.5h77
			C108.1,447.8,175,512,257,512c81.9-0.1,148.8-64.2,153.4-145.1h77c4.7,0,8.5-3.8,8.5-8.5V255.8
			C495.9,242.2,487.8,229.8,475.2,224.4z M103.4,196.3c-4.9,0-9.5-1-13.7-2.9c-0.1-0.1-0.3-0.1-0.4-0.2c-11.8-5.4-20-17.3-20-31.1
			v-17.1c0-18.9,15.3-34.1,34.1-34.1s34.1,15.3,34.1,34.1v17.1C137.5,181,122.3,196.3,103.4,196.3z M376.5,162.1v-17.1
			c0-18.9,15.3-34.1,34.1-34.1c18.9,0,34.1,15.3,34.1,34.1v17.1c0,18.9-15.3,34.1-34.1,34.1c-4.8,0-9.3-1-13.4-2.7
			c-0.3-0.2-0.7-0.3-1-0.5C384.5,187.6,376.5,175.8,376.5,162.1z M257,435.2c-4.7,0-8.5,3.8-8.5,8.5v16.7
			c-49.7-4.1-89.4-43.8-93.5-93.5h16.7c4.7,0,8.5-3.8,8.5-8.5s-3.8-8.5-8.5-8.5H155c4.1-49.7,43.8-89.4,93.5-93.5v16.7
			c0,4.7,3.8,8.5,8.5,8.5s8.5-3.8,8.5-8.5v-16.7c49.7,4.2,89.3,43.8,93.5,93.5h-16.7c-4.7,0-8.5,3.8-8.5,8.5s3.8,8.5,8.5,8.5H359
			c-4.1,49.7-43.8,89.4-93.5,93.5v-16.7C265.5,439,261.7,435.2,257,435.2z M265.5,239.2v-17.1c68.6,4.3,123.4,59.1,127.7,127.7
			h-17.1C372,290.7,324.7,243.4,265.5,239.2z M222.9,68.3V51.2c0-18.9,15.3-34.1,34.1-34.1s34.1,15.3,34.1,34.1v17.1
			c0,18.9-15.3,34.1-34.1,34.1c-4.9,0-9.6-1-13.8-2.9c-0.1,0-0.1-0.1-0.2-0.1C231.1,94.1,222.9,82.1,222.9,68.3z M188.7,162
			c0-6.8,4.1-13,10.4-15.7l28.7-12.3c7.5-3.2,13.4-8.9,17-16c3.9,1,8,1.5,12.2,1.5c4.2,0,8.3-0.5,12.2-1.5c3.6,7.1,9.5,12.8,17,16
			l28.7,12.3c6.3,2.7,10.4,8.9,10.4,15.7v58.8c-5.5-2.7-11.2-5.2-17.1-7.2v-34.4c0-4.7-3.8-8.5-8.5-8.5s-8.5,3.8-8.5,8.5v29.4
			c-11-2.5-22.4-3.8-34.1-3.8s-23.2,1.3-34.1,3.8v-29.4c0-4.7-3.8-8.5-8.5-8.5s-8.5,3.8-8.5,8.5v34.4c-5.9,2.1-11.6,4.5-17.1,7.2
			V162z M178.4,246.7c0.4-0.2,0.7-0.5,1-0.7c1.6-1.1,3.2-2.2,4.8-3.2c0.3-0.2,0.6-0.3,0.8-0.5c18.6-11.6,40.2-18.8,63.4-20.2v17.1
			c-59.2,4.2-106.5,51.4-110.6,110.6h-17.1C123.4,307.3,145.5,269.9,178.4,246.7z M120.7,366.9h17.1
			c4.2,59.2,51.4,106.4,110.6,110.6v17.1C179.9,490.4,125,435.5,120.7,366.9z M265.5,494.7v-17.1c59.1-4.2,106.4-51.5,110.6-110.6
			h17.1C389,435.5,334.1,490.4,265.5,494.7z M478.9,349.9h-17.1v-76.8c0-4.7-3.8-8.5-8.5-8.5s-8.5,3.8-8.5,8.5v76.8h-34.4
			c-2.4-44.5-23.8-83.9-56.1-110.4l27.2-11.6c7.5-3.2,13.4-8.9,17-16c3.9,1,8,1.5,12.2,1.5c4.2,0,8.3-0.5,12.2-1.5
			c3.6,7.1,9.5,12.8,17,16l28.7,12.3c6.3,2.7,10.4,8.9,10.4,15.7V349.9z"/>
		<path fill="#46A4BD" d="M265.5,408.9c21.4-3.6,38.3-20.5,41.9-41.9h0.7c4.7,0,8.5-3.8,8.5-8.5s-3.8-8.5-8.5-8.5h-0.7
			c-3.6-21.4-20.5-38.3-41.9-41.9v-0.7c0-4.7-3.8-8.5-8.5-8.5s-8.5,3.8-8.5,8.5v0.7c-21.4,3.6-38.3,20.5-41.9,41.9h-0.7
			c-4.7,0-8.5,3.8-8.5,8.5s3.8,8.5,8.5,8.5h0.7c3.6,21.4,20.5,38.3,41.9,41.9v0.7c0,4.7,3.8,8.5,8.5,8.5s8.5-3.8,8.5-8.5V408.9z
			 M257,384c-4.4,0-7.9,3.3-8.5,7.5c-12.1-3.1-21.5-12.6-24.6-24.6c4.2-0.5,7.5-4.1,7.5-8.5s-3.3-7.9-7.5-8.5
			c3.1-12.1,12.6-21.5,24.6-24.6c0.5,4.2,4.1,7.5,8.5,7.5s7.9-3.3,8.5-7.5c12.1,3.1,21.5,12.6,24.6,24.6c-4.2,0.5-7.5,4.1-7.5,8.5
			s3.3,7.9,7.5,8.5c-3.1,12.1-12.6,21.5-24.6,24.6C264.9,387.3,261.4,384,257,384z"/>
		<path fill="#46A4BD" d="M260.2,350.5c-3.2-1.3-6.8-0.6-9.3,1.8c-1.6,1.6-2.4,3.8-2.5,6.1c0,1.1,0.2,2.2,0.7,3.2c0.4,1,1,2,1.8,2.8
			c1.6,1.6,3.8,2.5,6.1,2.5c2.3,0,4.5-0.9,6.1-2.5c0.8-0.8,1.4-1.8,1.8-2.8c0.4-1,0.7-2.1,0.7-3.2c0-2.3-0.9-4.4-2.5-6.1
			C262.2,351.6,261.3,351,260.2,350.5z"/>
	</symbol>

	<symbol id="looking02" role="img" aria-labelledby="looking02_title" viewBox="0 0 512 512">
        <title id="looking02_title"></title>
        <path fill="#E4F9FF" d="M502.5,33.1v264.5H7.5V33.1C7.5,19,19,7.5,33.1,7.5h443.7C491,7.5,502.5,19,502.5,33.1z"/>
		<path fill="#ABDDEB" d="M476.9,7.5h-25.6c14.1,0,25.6,11.5,25.6,25.6v264.5h25.6V33.1C502.5,19,491,7.5,476.9,7.5z"/>
		<path fill="#ABDDEB" d="M502.5,297.7v179.2c0,14.1-11.5,25.6-25.6,25.6H33.1C19,502.5,7.5,491,7.5,476.9V297.7H502.5z"
			/>
		<path fill="#E4F9FF" d="M476.9,297.7v179.2c0,14.1-11.5,25.6-25.6,25.6h25.6c14.1,0,25.6-11.5,25.6-25.6V297.7H476.9z"
			/>
		<path fill="#FFFFFF" d="M348.9,161.1h-8.5c9.4,0,17,7.7,17.1,17.1c-0.1,9.4-7.7,17-17.1,17.1h-8.5
			c9.4,0,17,7.7,17.1,17.1c-0.1,9.4-7.7,17-17.1,17.1h-8.5c9.4,0,17,7.7,17.1,17.1c-0.1,9.4-7.7,17-17.1,17.1H246
			c-5.3,0-10.5-1.2-15.2-3.6l-19.8-9.9c-4.7-2.4-9.9-3.6-15.2-3.6h-9V127h8.5c17.5-1.3,33.3-10.8,42.7-25.6
			c9.2-14.5,16.4-30.1,21.6-46.5c2.7-7.9,10.1-13.3,18.5-13.2h0.1c10.8,0,19.5,8.8,19.5,19.6c0,15.3-2.9,30.4-8.6,44.5l-8.4,21.2
			h67.3c8.1-0.2,15.3,5.1,17.5,12.9c1.3,5.1,0.1,10.5-3.1,14.6S354.1,161.1,348.9,161.1z"/>
		<path fill="#ABDDEB" d="M152.6,118.5h25.6c4.7,0,8.5,3.8,8.5,8.5v128c0,4.7-3.8,8.5-8.5,8.5h-25.6
			c-4.7,0-8.5-3.8-8.5-8.5V127C144.1,122.3,147.9,118.5,152.6,118.5z"/>
		<path fill="#FFFFFF" d="M414.7,344.3l13.2,28c0.9,2,2.8,3.5,5.1,3.9l29.6,4.5c2.6,0.5,4.7,2.4,5.5,4.9
			c0.8,2.5,0.1,5.3-1.7,7.1l-21.4,21.8c-1.6,1.7-2.3,4-1.9,6.3l5.1,30.8c0.5,2.6-0.5,5.2-2.6,6.8s-4.9,1.8-7.2,0.6l-26.5-14.5
			c-2-1.1-4.3-1.1-6.3,0L379,459c-2.3,1.2-5.1,0.9-7.2-0.6c-2.1-1.6-3.1-4.2-2.6-6.8l5.1-30.8c0.4-2.3-0.3-4.6-1.9-6.3l-21.4-21.8
			c-1.9-1.9-2.5-4.6-1.7-7.1c0.8-2.5,2.9-4.4,5.5-4.9l29.6-4.5c2.2-0.4,4.1-1.8,5.1-3.9l13.2-28c1.1-2.4,3.4-3.9,6.1-3.9
			C411.2,340.3,413.6,341.9,414.7,344.3L414.7,344.3z"/>
		<path fill="#FFFFFF" d="M261.1,344.3l13.2,28c0.9,2,2.8,3.5,5.1,3.9l29.6,4.5c2.6,0.5,4.7,2.4,5.5,4.9
			c0.8,2.5,0.1,5.3-1.7,7.1l-21.4,21.8c-1.6,1.7-2.3,4-1.9,6.3l5.1,30.8c0.5,2.6-0.5,5.2-2.6,6.8s-4.9,1.8-7.2,0.6l-26.5-14.5
			c-2-1.1-4.3-1.1-6.3,0L225.4,459c-2.3,1.2-5.1,0.9-7.2-0.6c-2.1-1.6-3.1-4.2-2.6-6.8l5.1-30.8c0.4-2.3-0.3-4.6-1.9-6.3
			l-21.4-21.8c-1.9-1.9-2.5-4.6-1.7-7.1c0.8-2.5,2.9-4.4,5.5-4.9l29.6-4.5c2.2-0.4,4.1-1.8,5.1-3.9l13.2-28
			c1.1-2.4,3.4-3.9,6.1-3.9S260,341.9,261.1,344.3L261.1,344.3z"/>
		<path fill="#FFFFFF" d="M107.5,344.3l13.2,28c1,2.1,2.9,3.5,5.1,3.9l29.6,4.5c2.6,0.5,4.7,2.4,5.5,4.9
			c0.8,2.5,0.1,5.3-1.7,7.1l-21.4,21.8c-1.6,1.7-2.3,4-1.9,6.3l5.1,30.8c0.5,2.6-0.5,5.2-2.6,6.8c-2.1,1.6-4.9,1.8-7.2,0.6
			l-26.5-14.5c-2-1.1-4.3-1.1-6.3,0L71.8,459c-2.3,1.2-5.1,0.9-7.2-0.6c-2.1-1.6-3.1-4.2-2.6-6.8l5.1-30.8c0.4-2.3-0.3-4.6-1.9-6.3
			l-21.4-21.8c-1.9-1.9-2.5-4.6-1.7-7.1c0.8-2.5,2.9-4.4,5.5-4.9l29.6-4.5c2.2-0.4,4.2-1.8,5.1-3.9l13.2-28c1.1-2.4,3.4-3.9,6-3.9
			C104,340.4,106.4,341.9,107.5,344.3L107.5,344.3z"/>
		<path fill="#FFFFFF" d="M8.5,477.9c-0.2,6.8,2.5,13.5,7.3,18.3s11.5,7.5,18.3,7.3h24.3c-6.6-0.2-12.9-3-17.4-7.8
			c-4.6-4.8-7-11.2-6.8-17.8V34.1c-0.2-6.6,2.3-13,6.8-17.8s10.8-7.6,17.4-7.8H32.8c-6.6,0.2-12.9,3-17.4,7.8s-7,11.2-6.8,17.8
			L8.5,477.9z"/>
		<path fill="#FFFFFF" d="M1,34.1h17.1v68.3H1V34.1z"/>
		<path fill="#46A4BD" d="M308.2,62.3c-0.1-13.7-10-25.4-23.6-27.7c-13.6-2.2-26.7,5.6-31.2,18.6
			c-5,15.6-11.9,30.5-20.6,44.4c-8.2,13.2-22.4,21.4-37.9,21.8c-3-5.3-8.6-8.5-14.7-8.5h-25.6c-9.4,0-17.1,7.6-17.1,17.1v128
			c0,9.4,7.6,17.1,17.1,17.1h25.6c9.4,0,17.1-7.6,17.1-17.1c17.1,0,29,17.1,50.7,17.1h77.3c9.1,0,17.5-4.8,22.1-12.7
			s4.7-17.5,0.2-25.5c11.5-7.3,15.2-22.3,8.5-34.1c11.5-7.3,15.2-22.3,8.5-34.1c9.7-6.2,14-18.2,10.6-29.2
			c-3.4-11-13.8-18.4-25.3-18h-54.7C303.6,101.6,308,82.1,308.2,62.3L308.2,62.3z M154.6,256V128h25.6v128H154.6z M349.9,136.5
			c3.6-0.4,7.1,1.6,8.6,4.9c1.5,3.3,0.8,7.2-1.8,9.7c-3.1,3.2-3.6,2.4-31.5,2.4c-4.7,0-8.5,3.8-8.5,8.5c0,4.7,3.8,8.5,8.5,8.5h17.1
			c3.5,0,6.5,2.1,7.8,5.3c1.3,3.2,0.5,6.9-1.9,9.3c-3.1,3.2-3.6,2.4-31.5,2.4c-4.7,0-8.5,3.8-8.5,8.5s3.8,8.5,8.5,8.5h17.1
			c3.5,0,6.5,2.1,7.8,5.3c1.3,3.2,0.5,6.9-1.9,9.3c-3.1,3.2-3.6,2.4-31.5,2.4c-4.7,0-8.5,3.8-8.5,8.5s3.8,8.5,8.5,8.5h17.1
			c3.5,0,6.5,2.1,7.8,5.3s0.5,6.9-1.9,9.3c-1.6,1.6-3.7,2.5-5.9,2.4H248c-16.2,0-28.2-17.1-50.7-17.1V136.5
			c20.3-1.2,38.9-12.2,49.8-29.4c9.6-15.2,17.1-31.5,22.6-48.5c1.8-5,7-8,12.3-7.1c5.3,0.9,9.2,5.5,9.2,10.8
			c0,23.9-6.5,37.7-14.3,57.2h-11.3c-4.7,0-8.5,3.8-8.5,8.5s3.8,8.5,8.5,8.5L349.9,136.5z"/>
		<path fill="#46A4BD" d="M465.8,373.2l-28.6-4.3l-12.9-27.2c-2.5-5.4-7.8-8.8-13.8-8.8c-5.9,0-11.3,3.4-13.8,8.8
			L384,368.9l-28.6,4.3c-5.8,1-10.5,5.1-12.3,10.6c-1.8,5.6-0.4,11.6,3.7,15.8l20.9,21.3l-4.9,30.2c-0.8,4.5,0.4,9.1,3.3,12.6
			c2.9,3.5,7.2,5.6,11.7,5.6c5.1,0,5.3-0.8,32.8-15.9l25.5,14c5.2,2.7,11.5,2.3,16.2-1.2c4.7-3.5,7.1-9.3,6-15.1l-5-30.2l20.9-21.3
			c4.1-4.2,5.5-10.2,3.7-15.8C476.3,378.3,471.6,374.2,465.8,373.2L465.8,373.2z M440.8,409.5c-3.5,3.6-5.1,8.7-4.3,13.6l4.5,27.6
			c-35.6-19.6-25.6-19.4-60.9,0l4.5-27.5c0.8-5-0.8-10-4.3-13.7l-19.5-19.9l26.6-4c5-0.8,9.4-4,11.5-8.7l11.6-24.5l11.6,24.5
			c2.2,4.6,6.5,7.9,11.5,8.7l26.6,4L440.8,409.5z"/>
		<path fill="#46A4BD" d="M312.2,373.2l-28.6-4.3l-12.9-27.2c-2.5-5.4-7.8-8.8-13.8-8.8s-11.3,3.4-13.8,8.8l-12.9,27.2
			l-28.6,4.3c-5.8,1-10.5,5.1-12.3,10.6c-1.8,5.6-0.4,11.6,3.7,15.8l20.9,21.3l-4.9,30.2c-0.8,4.5,0.4,9.1,3.3,12.6
			c2.9,3.5,7.2,5.6,11.7,5.6c5.1,0,5.3-0.8,32.8-15.9l25.5,14c5.2,2.7,11.5,2.3,16.2-1.2c4.7-3.5,7.1-9.3,6-15.1l-5-30.2l20.9-21.3
			c4.1-4.2,5.5-10.2,3.7-15.8C322.7,378.3,318,374.2,312.2,373.2L312.2,373.2z M287.2,409.5c-3.5,3.6-5.1,8.7-4.3,13.6l4.5,27.6
			c-35.6-19.6-25.6-19.4-60.9,0l4.5-27.5c0.8-5-0.8-10-4.3-13.7l-19.5-19.9l26.6-4c5-0.8,9.4-4,11.5-8.7l11.6-24.5l11.6,24.5
			c2.2,4.6,6.5,7.9,11.5,8.7l26.6,4L287.2,409.5z"/>
		<path fill="#46A4BD" d="M158.6,373.2l-28.6-4.3l-12.9-27.2c-2.5-5.4-7.8-8.8-13.8-8.8c-5.9,0-11.3,3.4-13.8,8.8
			l-12.9,27.2l-28.6,4.3c-5.8,1-10.5,5.1-12.3,10.6c-1.8,5.6-0.4,11.6,3.7,15.8L60.5,421l-4.9,30.2c-0.8,4.5,0.4,9.1,3.3,12.6
			c2.9,3.5,7.2,5.6,11.7,5.6c5.1,0,5.3-0.8,32.8-15.9l25.5,14c5.2,2.7,11.5,2.3,16.2-1.2s7.1-9.3,6-15.1l-5-30.2l20.9-21.3
			c4.1-4.2,5.5-10.2,3.7-15.8C169.1,378.3,164.4,374.2,158.6,373.2L158.6,373.2z M133.6,409.5c-3.5,3.6-5.1,8.7-4.3,13.6l4.5,27.6
			c-35.6-19.6-25.6-19.4-60.9,0l4.5-27.5c0.8-5-0.8-10-4.3-13.7l-19.5-19.9l26.6-4c5-0.8,9.4-4,11.5-8.7l11.6-24.5l11.6,24.5
			c2.2,4.6,6.5,7.9,11.5,8.7l26.6,4L133.6,409.5z"/>
		<circle fill="#46A4BD" cx="9.5" cy="68.3" r="8.5"/>
		<path fill="#46A4BD" d="M478.9,0H35.1C2.6,0-8.4,42.7,9.5,42.7c4.7,0,8.5-3.8,8.5-8.5c0-9.4,7.6-17.1,17.1-17.1
			h443.7c9.4,0,17.1,7.6,17.1,17.1v256H18.1V102.4c0-4.7-3.8-8.5-8.5-8.5S1,97.7,1,102.4v375.5C1,496.7,16.3,512,35.1,512h443.7
			c18.9,0,34.1-15.3,34.1-34.1V34.1C513,15.3,497.7,0,478.9,0z M478.9,494.9H35.1c-9.4,0-17.1-7.6-17.1-17.1V307.2h477.9v170.7
			C495.9,487.3,488.3,494.9,478.9,494.9z"/>
	</symbol>

	<symbol id="looking03" role="img" aria-labelledby="looking03_title" viewBox="0 0 512 512">
        <title id="looking03_title"></title>
        <path fill="#ABDDEB" d="M469.3,256v82.6c0,6.2-1.7,12.3-4.9,17.7c-17.6,29-82.3,122.3-201.6,146.5
			c-2.2,0.5-4.5,0.7-6.7,0.7V256H469.3z"/>
		<path fill="#E4F9FF" d="M443.7,256v82.6c0,6.2-1.7,12.3-4.9,17.7c-16.6,27.4-75.5,112.3-182.8,141.9v5.3
			c2.3,0,4.5-0.2,6.7-0.7c119.4-24.2,184.1-117.5,201.6-146.5c3.2-5.3,4.9-11.4,4.9-17.7V256H443.7z"/>
		<path fill="#E4F9FF" d="M469.3,122.2l0,133.8H256V8.5h70.8c5.7,0.1,11,3,14.3,7.7c33.5,48,94.6,79.5,118.4,90.5
			C465.5,109.5,469.4,115.5,469.3,122.2L469.3,122.2z"/>
		<path fill="#ABDDEB" d="M459.4,106.8c-23.7-11-84.8-42.6-118.4-90.5c-3.2-4.7-8.5-7.6-14.3-7.7h-25.6
			c5.7,0.1,11,3,14.3,7.7c33.5,48,94.6,79.5,118.4,90.5c6.1,2.8,9.9,8.8,9.9,15.4V256h25.6l0-133.8
			C469.4,115.5,465.5,109.5,459.4,106.8z"/>
		<path fill="#E4F9FF" d="M256,256v247.5c-2.3,0-4.5-0.2-6.7-0.7C129.9,478.5,65.2,385.3,47.6,356.3
			c-3.2-5.3-4.9-11.4-4.9-17.7V256H256z"/>
		<path fill="#ABDDEB" d="M256,8.5V256H42.7l0-133.8c0-6.6,3.8-12.7,9.9-15.4c23.7-11,84.8-42.6,118.4-90.5
			c3.2-4.7,8.5-7.6,14.3-7.7L256,8.5z"/>
		<path fill="#ABDDEB" d="M230.4,8.5H256V256h-25.6V8.5z"/>
		<path fill="#FFFFFF" d="M170.9,16.2c-33.5,48-94.6,79.5-118.4,90.5c-6.1,2.8-9.9,8.8-9.9,15.4v216.4
			c0,6.2,1.7,12.3,4.9,17.7c17.6,29,82.3,122.3,201.6,146.5c4.4,0.9,9,0.9,13.5,0c2.1-0.4,4-1,6.1-1.5
			C153.4,475.2,90.5,384.8,73.2,356.2c-3.2-5.3-4.9-11.4-4.9-17.6V122.2c0-6.6,3.8-12.7,9.9-15.4c23.7-11,84.8-42.6,118.4-90.5
			c3.2-4.7,8.5-7.6,14.3-7.7h-25.6C179.5,8.6,174.1,11.5,170.9,16.2L170.9,16.2z"/>
		<path fill="#FFFFFF" d="M34.1,122.2h17.1v68.3H34.1V122.2z"/>
		<circle fill="#46A4BD" cx="42.7" cy="156.4" r="8.5"/>
		<path fill="#46A4BD" d="M471.7,360.7c4-6.7,6.2-14.3,6.2-22.1V122.2c0-10-5.8-19-14.8-23.2
			c-23.9-11-82.8-41.6-115-87.6c-4.8-7-12.7-11.2-21.2-11.3H185.2c-8.5,0.1-16.4,4.3-21.2,11.3C131.8,57.4,72.8,88,48.9,99
			c-9,4.2-14.8,13.3-14.8,23.2c0,4.7,3.8,8.5,8.5,8.5s8.5-3.8,8.5-8.5c0-3.3,1.9-6.3,4.9-7.7c25.1-11.6,87.3-43.9,121.9-93.4
			c1.6-2.4,4.3-3.9,7.2-4h62.3v25.6c0,4.7,3.8,8.5,8.5,8.5s8.5-3.8,8.5-8.5V17.1h62.3c2.9,0.1,5.6,1.6,7.2,4
			c34.6,49.5,96.7,81.8,121.8,93.4c3,1.4,4.9,4.4,4.9,7.7v125.2H264.5V128c0-4.7-3.8-8.5-8.5-8.5c-4.7,0-8.5,3.8-8.5,8.5v119.5
			h-93.9c-4.7,0-8.5,3.8-8.5,8.5c0,4.7,3.8,8.5,8.5,8.5h93.9v229C133.6,468.9,71.4,379.1,54.9,351.9c-2.4-4-3.7-8.6-3.7-13.3v-74
			h17.1c4.7,0,8.5-3.8,8.5-8.5c0-4.7-3.8-8.5-8.5-8.5H51.2v-57c0-4.7-3.8-8.5-8.5-8.5s-8.5,3.8-8.5,8.5v148.1
			c0,7.8,2.1,15.5,6.2,22.1c17.5,29,84.3,125.5,207.2,150.5c2.8,0.6,5.6,0.8,8.4,0.9h0.1h0.1c2.8,0,5.6-0.3,8.4-0.9
			C387.4,486.2,454.2,389.7,471.7,360.7L471.7,360.7z M460.8,264.5v74c0,4.7-1.3,9.3-3.7,13.3c-16.4,27.2-78.7,117-192.5,141.7
			v-229L460.8,264.5z"/>
		<path fill="#46A4BD" d="M72.4,331.2c-4,2.5-5.3,7.7-2.9,11.7c2.8,4.5,7.4,11.8,13.8,20.5c1.8,2.6,4.8,4,7.9,3.7
			c3.1-0.3,5.8-2.3,7-5.2c1.2-2.9,0.8-6.2-1.2-8.6c-6.1-8.2-10.4-15-13-19.3C81.6,330,76.4,328.8,72.4,331.2z"/>
		<path fill="#46A4BD" d="M113.5,386.6c-3.4,3.3-3.4,8.7-0.1,12.1c25.1,25.9,54.8,47,87.7,61.9c2.8,1.2,6,0.9,8.5-0.9
			c2.5-1.8,3.8-4.8,3.5-7.8c-0.3-3-2.2-5.7-5-6.9c-30.9-14.1-58.9-33.9-82.5-58.3c-1.6-1.6-3.8-2.5-6-2.6
			C117.3,384.1,115.1,385,113.5,386.6L113.5,386.6z"/>
		<path fill="#46A4BD" d="M256,102.4c4.7,0,8.5-3.8,8.5-8.5V76.8c0-4.7-3.8-8.5-8.5-8.5s-8.5,3.8-8.5,8.5v17.1
			C247.5,98.6,251.3,102.4,256,102.4z"/>
		<path fill="#46A4BD" d="M119.5,247.5h-17.1c-4.7,0-8.5,3.8-8.5,8.5c0,4.7,3.8,8.5,8.5,8.5h17.1
			c4.7,0,8.5-3.8,8.5-8.5C128,251.3,124.2,247.5,119.5,247.5z"/>
		<path fill="#46A4BD" d="M401.1,145.1c3.5,0,6.6-2.1,7.9-5.3c1.3-3.2,0.6-6.9-1.8-9.3l-42.7-42.7
			c-3.3-3.2-8.7-3.2-12,0.1s-3.3,8.6-0.1,12l42.7,42.7C396.6,144.2,398.8,145.1,401.1,145.1L401.1,145.1z"/>
		<path fill="#46A4BD" d="M301.2,96.4c-3.3,3.3-3.3,8.7,0,12.1l85.3,85.3c3.3,3.2,8.7,3.2,12-0.1s3.3-8.6,0.1-12
			l-85.3-85.3C309.9,93,304.5,93,301.2,96.4L301.2,96.4z"/>
	</symbol>

	<symbol id="looking04" role="img" aria-labelledby="looking04_title" viewBox="0 0 511 469.4">
        <title id="looking04_title"></title>
        <path fill="#ABDDEB" d="M400.3,60.5c0,28.2-22.9,51.1-51.1,51.1c-4.3,0-8.6-0.6-12.8-1.6c-22.6-5.8-38.3-26.1-38.3-49.4
			c0-23.3,15.8-43.6,38.3-49.4c4.2-1.1,8.5-1.7,12.8-1.7C377.4,9.4,400.3,32.3,400.3,60.5z"/>
		<path fill="#E4F9FF" d="M374.8,60.5c-0.1,23.3-15.8,43.6-38.3,49.5c-22.6-5.8-38.3-26.1-38.3-49.4c0-23.3,15.8-43.6,38.3-49.4
			C359,17,374.7,37.3,374.8,60.5z"/>
		<path fill="#ABDDEB" d="M449.4,425.3c4.8,11,1.2,23.9-8.6,30.9s-23.1,6.3-32-1.8c8.2-7.3,10.8-19,6.5-29.1L364.2,306
			c-2.9-6.7-8.5-11.9-15.4-14.2l-100.3-33.4l28.2-60.8l27.7,13.8l-21.8,47l100.3,33.4c6.9,2.3,12.5,7.5,15.4,14.2L449.4,425.3z"/>
		<path fill="#ABDDEB" d="M496.7,136.3L420.1,230c-0.1,0.1-0.3,0.2-0.3,0.3c-1.1,1.3-2.3,2.5-3.7,3.6c-0.2,0.2-0.4,0.3-0.7,0.4
			c-1.2,0.9-2.5,1.7-3.8,2.3c-0.2,0.2-0.5,0.3-0.8,0.4c-1.4,0.7-3,1.2-4.5,1.5l-1,0.3c-1.6,0.3-3.3,0.5-4.9,0.5h-0.3
			c-1.7-0.1-3.3-0.3-4.9-0.6c-0.4-0.1-0.9-0.3-1.5-0.3c-1.3-0.4-2.6-0.9-3.9-1.4c-0.3-0.2-0.6-0.2-0.8-0.3l-6.4-3.2
			c1.1-1,2.2-2,3.2-3.2c0.1-0.2,0.3-0.3,0.3-0.3l76.7-93.7c8.6-10.6,7.4-26.1-2.7-35.2c10-8.7,24.9-8.4,34.5,0.7
			C504,111.1,505,126,496.7,136.3z"/>
		<path fill="#E4F9FF" d="M281.1,265l67.7,26.8c6.9,2.3,12.5,7.5,15.4,14.2l51.1,119.2c4.3,10.1,1.7,21.8-6.5,29.1c-2.8-2.5-5-5.6-6.5-9
			l-46.6-108.7l-95-31.7l-4.6,9.9l-18.6-7.3l-41.7,89.9c-4.2,9-24.1,12.2-34.1,12.2H76.7c-14.1,0-25.6-11.4-25.6-25.5
			c0-14.1,11.4-25.6,25.6-25.6h103l43-92.7c0.1-0.2,0.1-0.4,0.1-0.6c0.7-1.9,1.6-3.8,2.7-5.5l39.5-85.1l-53-26.5l-4.3,14.9l-20.4-8.9
			l-18.1,90.2c-1.2,4.7-3.9,8.8-7.5,12c-7.1-6.3-27.3-22.9-24.5-32.7l34.1-119.2c0.2-0.8,0.6-1.5,0.8-2.3c0.3-0.8,0.5-1.4,0.9-2
			c0-0.1,0.1-0.1,0.1-0.2c0.5-1,1.1-1.9,1.8-2.8c0.3-0.5,0.6-1,0.9-1.5c0.5-0.6,1.2-1.2,1.8-1.8c0.6-0.6,1.1-1.3,1.7-1.8
			c0.1-0.1,0.2-0.2,0.3-0.2c0.3-0.2,0.6-0.4,0.9-0.7c0.9-0.7,1.9-1.4,2.9-2c0.3-0.2,0.6-0.3,0.8-0.4c1.2-0.6,2.4-1.1,3.7-1.5
			c0.4-0.2,0.8-0.2,1.3-0.3c1.2-0.3,2.3-0.6,3.5-0.8h1.5c1.1-0.1,2.3-0.1,3.4-0.1c0.6,0,1.1,0.1,1.7,0.3c1.1,0.1,2.2,0.3,3.3,0.6h0.2
			c0.8,0.3,1.6,0.6,2.3,0.9c0.7,0.2,1.5,0.5,2.1,0.9l0.4,0.2l81.8,40.9l79.7,39.9l24.2,12.1l63.7-77.8c0.8-1,1.8-1.9,2.7-2.8
			c10.2,9.1,11.4,24.6,2.7,35.2L386,230c-0.1,0.1-0.3,0.2-0.3,0.3c-1,1.1-2,2.2-3.2,3.2l-71.8-35.9l-6.4,13.8"/>
		<path fill="#ABDDEB" d="M175.7,256.4c-2,0-3.9-0.4-5.7-1.2c-3.3-1.4-6.1-3.7-8.2-6.5c3.1-4.2,5.2-9,6.1-14.2l20.8-105.8l24.2,17.6
			l-17.4,88.2C193,247.8,184.7,256.4,175.7,256.4z"/>
		<path fill="#ABDDEB" d="M235.2,290.5l29.5,9.9l-37.1,80.1c-4.2,9-13.2,14.8-26.7,29.4h-34.1c13.5-14.5,22.5-20.3,26.7-29.4L235.2,290.5
			z"/>
		<path fill="#FFFFFF" d="M76.7,384.2c0-14.1,11.4-25.6,25.5-25.6H76.7c-14.1,0-25.6,11.4-25.6,25.6c0,14.1,11.4,25.5,25.6,25.5h25.5
			C88.1,409.7,76.7,398.3,76.7,384.2z"/>
		<path fill="#FFFFFF" d="M192.7,409.4c-1.9,0.2-3.8,0.3-5.3,0.3h-20.4l-0.1,0.1h25.6L192.7,409.4z"/>
		<path fill="#FFFFFF" d="M207.3,88.8c-0.7-0.4-1.4-0.6-2.1-0.9c-0.7-0.4-1.5-0.7-2.3-0.9h-0.2c-1.1-0.3-2.2-0.5-3.3-0.6
			c-0.6-0.1-1.1-0.2-1.7-0.3c-1.1-0.1-2.3,0-3.4,0.1h-1.5c-1.2,0.2-2.3,0.5-3.5,0.8c-0.4,0.2-0.8,0.2-1.3,0.3
			c-1.3,0.4-2.5,0.9-3.7,1.5c-0.3,0.2-0.6,0.3-0.8,0.4c-1,0.6-2,1.3-2.9,2c-0.3,0.2-0.6,0.5-0.9,0.7c-0.1,0-0.2,0.1-0.3,0.2
			c-0.6,0.5-1.1,1.2-1.7,1.8c-0.6,0.5-1.2,1.2-1.8,1.8c-0.3,0.5-0.6,1-0.9,1.5c-0.7,0.9-1.3,1.8-1.8,2.8c0,0.1-0.1,0.1-0.1,0.2
			c-0.3,0.7-0.5,1.4-0.9,2c-0.3,0.7-0.7,1.5-0.8,2.3l-34.1,119.2c-2.8,9.8,17.5,26.4,24.5,32.7c1.3-1.2,2.5-2.5,3.6-4
			c1.4,1.1,2.9,2.1,4.6,2.8c1.8,0.8,3.7,1.2,5.7,1.2c3-0.1,6-1,8.5-2.8c-8.6-7.5-23.8-21.3-21.4-29.9l34.1-119.2
			c0.2-0.8,0.6-1.5,0.8-2.3c0.3-0.8,0.5-1.4,0.9-2c0-0.1,0.1-0.1,0.1-0.2c0.5-1,1.1-1.9,1.8-2.8c0.3-0.5,0.6-1,0.9-1.5
			c0.6-0.6,1.2-1.2,1.8-1.8c0.6-0.6,1.1-1.3,1.7-1.8c0.1-0.1,0.2-0.2,0.3-0.2c0.3-0.2,0.6-0.4,0.9-0.7c0.8-0.6,1.7-1.2,2.6-1.8l-1-0.5
			L207.3,88.8z"/>
		<path fill="#46A4BD" d="M238.5,9.4H93.7c-4.7,0-8.5,3.8-8.5,8.5c0,4.7,3.8,8.5,8.5,8.5h144.8c4.7,0,8.5-3.8,8.5-8.5
			C247,13.3,243.2,9.4,238.5,9.4z"/>
		<path fill="#46A4BD" d="M349.2,120.2c32.9,0,59.6-26.7,59.6-59.6c0-32.9-26.7-59.6-59.6-59.6c-32.9,0-59.6,26.7-59.6,59.6
			C289.6,93.5,316.3,120.2,349.2,120.2z M349.2,18c23.5,0,42.6,19.1,42.6,42.6c0,23.5-19.1,42.6-42.6,42.6
			c-23.5,0-42.6-19.1-42.6-42.6C306.6,37,325.7,18,349.2,18z"/>
		<path fill="#46A4BD" d="M385,244.3c0.4,0.2,0.7,0.4,1.1,0.4c1.8,0.8,3.6,1.5,5.5,2c0.5,0.2,1.1,0.3,1.8,0.4c2,0.4,4,0.6,6,0.7
			c2.5,0.2,5-0.1,7.5-0.7l1.4-0.3c2.1-0.5,4.2-1.2,6.2-2.1l0.9-0.5c1.8-0.9,3.5-1.9,5.1-3.1l0.8-0.6c1.7-1.3,3.2-2.8,4.6-4.4
			c0.3-0.2,0.5-0.5,0.7-0.8l76.7-93.7c11.9-14.6,9.7-36-4.8-48c-7-5.7-16-8.4-25-7.5c-9,0.9-17.3,5.3-23,12.3l-59.4,72.6l-180.1-90
			c-0.8-0.4-1.6-0.7-2.4-1l-0.8-0.3c-1-0.4-2-0.8-3-1.1l-0.3-0.1c-1.4-0.3-2.8-0.6-4.3-0.8c-0.7-0.1-1.4-0.2-2.1-0.3
			c-1.6-0.1-3.1,0-4.7,0.1c-0.6,0-1.3,0-1.9,0.1c-1.6,0.2-3.1,0.6-4.7,1c-0.3,0.1-1.4,0.3-1.8,0.4c-1.5,0.5-3,1.2-4.5,1.9
			c-0.5,0.2-1,0.4-1.5,0.7c-1.3,0.8-2.6,1.7-3.9,2.6c-0.3,0.2-1.3,0.8-1.5,1.1c-0.7,0.6-1.4,1.3-2,1.9l-0.8,0.8
			c-0.7,0.7-1.3,1.4-1.9,2.1c-0.5,0.7-1.1,1.5-1.5,2.2c-0.7,1-1.4,2-2,3.1c-0.1,0.2-0.2,0.4-0.3,0.6c-0.4,0.8-0.7,1.6-1,2.4
			l-0.3,0.8c-0.4,0.9-0.7,1.7-1,2.7l-34.1,119.2c-2.5,8.7-1.4,18,2.9,25.9c4.4,7.9,11.7,13.7,20.4,16.2c8.7,2.5,18,1.4,25.9-3
			c7.9-4.4,13.7-11.7,16.2-20.4l22.8-79.8l36.4,18.2L218,255.8c-1.4,2.2-2.5,4.6-3.3,7.1l-40.6,87.3H76.7
			c-18.8,0-34.1,15.3-34.1,34.1s15.3,34.1,34.1,34.1h119.2c13.3,0,25.3-7.7,30.9-19.7l38.6-83l84.1,28l45.1,105.2
			c0.6,1.2,1.2,2.5,1.9,3.6H76.7c-4.7,0-8.5,3.8-8.5,8.5c0,4.7,3.8,8.5,8.5,8.5h349.2c11.5,0,22.1-5.8,28.4-15.3
			c6.3-9.6,7.4-21.7,2.9-32.2l-51.1-119.2c-3.8-8.9-11.3-15.8-20.5-18.9l-91.3-30.4l20.5-44.2L385,244.3z M307.9,189.6
			c-2.2,0.8-3.9,2.4-4.9,4.5l-28.2,60.8c-1,2.2-1.1,4.7-0.1,7c1,2.2,2.8,3.9,5.1,4.7l100.3,33.4c4.6,1.5,8.3,5,10.2,9.4l51.1,119.2
			c3.7,8.6-0.3,18.7-8.9,22.4c-8.6,3.5-18.5-0.4-22.4-9l-46.6-108.7c-1-2.2-2.8-3.9-5.1-4.7l-94.9-31.6c-4.1-1.4-8.6,0.6-10.4,4.5
			l-41.7,90c-2.8,6-8.8,9.9-15.5,9.9H76.7c-9.4,0-17-7.6-17-17s7.6-17,17-17h102.9c3.3,0,6.3-1.9,7.7-4.9l43-92.7
			c0.2-0.3,0.3-0.7,0.4-1c0.1-0.2,0.1-0.5,0.2-0.8c0.4-1.2,1-2.3,1.7-3.4c0.2-0.3,0.4-0.6,0.5-1l39.5-85.1c1.9-4.2,0.2-9.1-3.9-11.2
			l-53-26.5c-2.3-1.1-4.9-1.2-7.2-0.2c-2.3,1-4.1,3-4.8,5.5l-25.6,89.7c-2.7,9-12,14.1-21.1,11.7c-4.3-1.2-8-4.2-10.2-8.1
			c-2.2-3.9-2.7-8.6-1.5-13l34.3-119.7l0.5-1.1c0-0.1,0.3-1,0.4-1.3l0.1-0.2c0.4-0.6,0.8-1.3,1.2-1.8c0.1-0.1,1-1.4,1.1-1.5l0.7-0.7
			c0.1-0.1,0.9-1,1-1.1c0.2-0.1,1-0.7,1.2-0.8c0.6-0.4,1.1-0.9,1.2-0.9c0.3-0.1,0.9-0.4,1.2-0.5c0.7-0.4,1.4-0.7,2.1-1
			c0.2,0,1.2-0.3,1.4-0.3c0.7-0.2,1.3-0.4,2-0.5c0.2,0,1.2,0,1.3-0.1c0.7-0.1,1.3-0.1,2-0.1l1.4,0.2c0.7,0.1,1.4,0.2,1.5,0.2
			c0.4,0.2,0.7,0.3,1.1,0.4l1.2,0.5l1.8,0.7l185.8,92.9c3.6,1.8,7.9,0.8,10.4-2.2l63.7-77.9c6-7.3,16.7-8.3,24-2.4
			c7.3,6,8.3,16.7,2.4,24l-76.4,93.3c-0.2,0.2-0.4,0.4-0.6,0.6c-0.8,1-1.8,1.9-2.9,2.7c-1,0.7-2,1.3-3.1,1.8
			c-1.2,0.5-2.4,0.9-3.7,1.2c-1,0.2-1.9,0.3-2.9,0.4c-1.5-0.1-2.6-0.2-3.9-0.4l-1.7,8.4l0.7-8.6c-0.9-0.2-1.8-0.6-2.6-1
			c-0.2-0.1-0.6-0.2-0.9-0.3L314.5,190C312.5,189,310.1,188.8,307.9,189.6z"/>
		<path fill="#46A4BD" d="M8.5,26.5h42.6c4.7,0,8.5-3.8,8.5-8.5c0-4.7-3.8-8.5-8.5-8.5H8.5C3.8,9.4,0,13.3,0,18
			C0,22.7,3.8,26.5,8.5,26.5z"/>
		<path fill="#46A4BD" d="M76.7,77.6h76.7c4.7,0,8.5-3.8,8.5-8.5c0-4.7-3.8-8.5-8.5-8.5H76.7c-4.7,0-8.5,3.8-8.5,8.5
			C68.1,73.8,71.9,77.6,76.7,77.6z"/>
		<path fill="#46A4BD" d="M8.5,230.9h93.7c4.7,0,8.5-3.8,8.5-8.5c0-4.7-3.8-8.5-8.5-8.5H8.5c-4.7,0-8.5,3.8-8.5,8.5
			C0,227.1,3.8,230.9,8.5,230.9z"/>
		<path fill="#46A4BD" d="M8.5,282h85.2c4.7,0,8.5-3.8,8.5-8.5c0-4.7-3.8-8.5-8.5-8.5H8.5c-4.7,0-8.5,3.8-8.5,8.5
			C0,278.2,3.8,282,8.5,282z"/>
		<path fill="#46A4BD" d="M8.5,333.1h25.5c4.7,0,8.5-3.8,8.5-8.5c0-4.7-3.8-8.5-8.5-8.5H8.5c-4.7,0-8.5,3.8-8.5,8.5
			C0,329.3,3.8,333.1,8.5,333.1z"/>
		<path fill="#46A4BD" d="M8.5,401.2H17c4.7,0,8.5-3.8,8.5-8.5c0-4.7-3.8-8.5-8.5-8.5H8.5c-4.7,0-8.5,3.8-8.5,8.5
			C0,397.4,3.8,401.2,8.5,401.2z"/>
		<path fill="#46A4BD" d="M68.1,324.6c0,4.7,3.8,8.5,8.5,8.5h76.7c4.7,0,8.5-3.8,8.5-8.5c0-4.7-3.8-8.5-8.5-8.5H76.7
			C71.9,316.1,68.1,319.9,68.1,324.6z"/>
		<path fill="#46A4BD" d="M8.5,77.6h25.5c4.7,0,8.5-3.8,8.5-8.5c0-4.7-3.8-8.5-8.5-8.5H8.5c-4.7,0-8.5,3.8-8.5,8.5
			C0,73.8,3.8,77.6,8.5,77.6z"/>
		<path fill="#46A4BD" d="M34.1,452.3H8.5c-4.7,0-8.5,3.8-8.5,8.5c0,4.7,3.8,8.5,8.5,8.5h25.5c4.7,0,8.5-3.8,8.5-8.5
			C42.6,456.2,38.8,452.3,34.1,452.3z"/>
		<path fill="#46A4BD" d="M110.7,162.8H68.1c-4.7,0-8.5,3.8-8.5,8.5c0,4.7,3.8,8.5,8.5,8.5h42.6c4.7,0,8.5-3.8,8.5-8.5
			C119.2,166.6,115.4,162.8,110.7,162.8z"/>
		<path fill="#46A4BD" d="M8.5,179.8h17c4.7,0,8.5-3.8,8.5-8.5c0-4.7-3.8-8.5-8.5-8.5h-17c-4.7,0-8.5,3.8-8.5,8.5
			C0,176,3.8,179.8,8.5,179.8z"/>
		<path fill="#46A4BD" d="M136.3,120.2c0-4.7-3.8-8.5-8.5-8.5h-17c-4.7,0-8.5,3.8-8.5,8.5c0,4.7,3.8,8.5,8.5,8.5h17
			C132.5,128.7,136.3,124.9,136.3,120.2z"/>
		<path fill="#46A4BD" d="M8.5,128.7h59.6c4.7,0,8.5-3.8,8.5-8.5c0-4.7-3.8-8.5-8.5-8.5H8.5c-4.7,0-8.5,3.8-8.5,8.5
			C0,124.9,3.8,128.7,8.5,128.7z"/>
	</symbol>

	<symbol id="looking05" role="img" aria-labelledby="looking05_title" viewBox="0 0 512 512">
        <title id="looking05_title"></title>
        <path fill="#E4F9FF" d="M453.3,504.5H60.7c-28.3,0-51.2-22.9-51.2-51.2v-25.6c0-4.7,3.8-8.5,8.5-8.5h477.9
			c4.7,0,8.5,3.8,8.5,8.5v25.6C504.5,481.5,481.5,504.5,453.3,504.5z"/>
		<path fill="#ABDDEB" d="M495.9,419.1h-25.6c4.7,0,8.5,3.8,8.5,8.5v25.6c0,28.3-22.9,51.2-51.2,51.2h25.6
			c28.3,0,51.2-22.9,51.2-51.2v-25.6C504.5,423,500.6,419.1,495.9,419.1z"/>
		<path fill="#ABDDEB" d="M171.7,419.1h170.7v17.1c0,14.1-11.5,25.6-25.6,25.6H197.3c-14.1,0-25.6-11.5-25.6-25.6V419.1z
			"/>
		<path fill="#E4F9FF" d="M320.3,103.4h52.6l112.2,22c1.5,3.9,2.3,8,2.3,12.1l0,281.6H26.6l0-281.6
			c0-4.2,0.8-8.3,2.3-12.1l112.2-22H320.3z"/>
		<path fill="#ABDDEB" d="M485.1,125.4h-25.6c1.5,3.9,2.3,8,2.3,12.1v281.6h25.6V137.5
			C487.4,133.4,486.6,129.3,485.1,125.4z"/>
		<circle fill="#E4F9FF" cx="77.8" cy="77.8" r="68.3"/>
		<path fill="#ABDDEB" d="M77.8,9.5c-4.3,0-8.6,0.4-12.8,1.2c32.1,6.2,55.3,34.3,55.3,67s-23.2,60.8-55.3,67
			c25.5,4.9,51.6-5,67.3-25.7s18.3-48.5,6.8-71.7S103.8,9.5,77.8,9.5z"/>
		<circle fill="#E4F9FF" cx="257" cy="77.8" r="68.3"/>
		<path fill="#ABDDEB" d="M257,9.5c-4.3,0-8.6,0.4-12.8,1.2c32.1,6.2,55.3,34.3,55.3,67s-23.2,60.8-55.3,67
			c25.5,4.9,51.6-5,67.3-25.7s18.3-48.5,6.8-71.7C306.7,24.2,283,9.5,257,9.5L257,9.5z"/>
		<circle fill="#E4F9FF" cx="257" cy="291.1" r="93.9"/>
		<path fill="#ABDDEB" d="M257,197.3c-4.3,0-8.6,0.4-12.8,1c46.4,6.3,81.1,46,81.1,92.9s-34.6,86.6-81.1,92.9
			c34.7,4.8,69.3-10.2,89.5-38.8c20.2-28.6,22.8-66.2,6.7-97.3S292.1,197.2,257,197.3L257,197.3z"/>
		<circle fill="#E4F9FF" cx="436.2" cy="77.8" r="68.3"/>
		<path fill="#ABDDEB" d="M436.2,9.5c-4.3,0-8.6,0.4-12.8,1.2c32.1,6.2,55.3,34.3,55.3,67s-23.2,60.8-55.3,67
			c25.5,4.9,51.6-5,67.3-25.7s18.3-48.5,6.8-71.7C485.9,24.2,462.2,9.5,436.2,9.5L436.2,9.5z"/>
		<circle fill="#FFFFFF" cx="257" cy="274.1" r="42.7"/>
		<circle fill="#FFFFFF" cx="77.8" cy="69.3" r="25.6"/>
		<circle fill="#FFFFFF" cx="257" cy="69.3" r="25.6"/>
		<circle fill="#FFFFFF" cx="436.2" cy="69.3" r="25.6"/>
		<path fill="#FFFFFF" d="M120.5,129c0,0.7,0,1.4-0.1,2.1c-24.9,19.9-60.3,19.9-85.2,0c-0.1-0.7-0.1-1.4-0.1-2.1
			c0-17.4,10.6-33.1,26.8-39.7H62c9.2,7.4,22.3,7.4,31.6,0h0.1C109.8,95.9,120.4,111.6,120.5,129z"/>
		<path fill="#FFFFFF" d="M299.7,129c0,0.7,0,1.4-0.1,2.1c-24.9,19.9-60.3,19.9-85.2,0c-0.1-0.7-0.1-1.4-0.1-2.1
			c0-17.4,10.6-33.1,26.8-39.7h0.1c9.2,7.4,22.3,7.4,31.6,0h0.1C289,95.9,299.6,111.6,299.7,129z"/>
		<path fill="#FFFFFF" d="M316.7,359.4c0,1.5-0.1,2.9-0.3,4.4c-34.6,28.3-84.4,28.3-119,0c-0.2-1.4-0.3-2.9-0.3-4.4
			c0-22.2,12.3-42.6,32-52.9c16,13.7,39.5,13.7,55.5,0C304.4,316.8,316.8,337.2,316.7,359.4z"/>
		<path fill="#FFFFFF" d="M478.9,129c0,0.7,0,1.4-0.1,2.1c-24.9,19.9-60.3,19.9-85.2,0c-0.1-0.7-0.1-1.4-0.1-2.1
			c0-17.4,10.6-33.1,26.8-39.7h0.1c9.2,7.4,22.3,7.4,31.6,0h0.1C468.2,95.9,478.8,111.6,478.9,129z"/>
		<path fill="#FFFFFF" d="M35.1,453.3v-25.6c0-4.7,3.8-8.5,8.5-8.5h8.5c0-274.4-1.1-293,2.3-293.7
			c-17.5-18-23.7-44.1-16.2-68.1s27.6-41.8,52.2-46.6h0.3c-8.5-1.7-17.3-1.7-25.9,0c-24.7,4.7-44.7,22.6-52.2,46.6
			s-1.3,50.1,16.2,68.1c-3.4,0.7-2.3,19.3-2.3,293.7h-8.5c-4.7,0-8.5,3.8-8.5,8.5v25.6c0,28.3,22.9,51.2,51.2,51.2h25.6
			C58.1,504.5,35.1,481.5,35.1,453.3z"/>
		<path fill="#FFFFFF" d="M166.7,103.4L166.7,103.4L166.7,103.4z"/>
		<path fill="#FFFFFF" d="M18.1,350.9h17.1v68.3H18.1V350.9z"/>
		<path fill="#46A4BD" d="M26.8,393.5c-4.7,0-8.6-3.8-8.6-8.5c0-4.7,3.8-8.6,8.5-8.6h0.1c4.7,0,8.5,3.8,8.5,8.5
			S31.5,393.5,26.8,393.5z"/>
		<path fill="#46A4BD" d="M129,444.7h-25.6c-4.7,0-8.5,3.8-8.5,8.5s3.8,8.5,8.5,8.5H129c4.7,0,8.5-3.8,8.5-8.5
			S133.7,444.7,129,444.7z"/>
		<circle fill="#46A4BD" cx="52.2" cy="453.3" r="8.5"/>
		<circle fill="#46A4BD" cx="77.8" cy="453.3" r="8.5"/>
		<path fill="#46A4BD" d="M436.2,1c-23.4-0.1-45.5,10.6-60.1,28.8s-20,42.2-14.7,65h-29.6C339,64,326.5,32,300.3,14.1
			c-26.1-17.9-60.5-17.9-86.7,0S175,64,182.2,94.9h-29.6c8.1-35.3-9.5-71.4-42.2-86.8s-71.8-5.8-93.7,23s-20.8,69,2.7,96.5
			c-0.9,3.3-1.3,6.6-1.3,10v213.3c0,4.7,3.8,8.5,8.5,8.5s8.5-3.8,8.5-8.5V141.6c18.9,12.7,42.4,16.3,64.3,9.8l80.3,72.7
			c-35.9,41.3-33,103.5,6.6,141.2s101.8,37.8,141.4,0s42.5-99.9,6.6-141.2l80.3-72.7c21.8,6.5,45.4,2.8,64.3-9.8v269H18.1
			c-9.4,0-17.1,7.6-17.1,17.1v25.6c0,33,26.8,59.7,59.7,59.7h392.5c33,0,59.7-26.8,59.7-59.7v-25.6c0-9.4-7.6-17.1-17.1-17.1V137.5
			c0-3.4-0.5-6.7-1.3-10c19.5-22.8,23.9-54.8,11.4-82C493.4,18.4,466.2,1,436.2,1L436.2,1z M333.8,427.7v8.5
			c0,9.4-7.6,17.1-17.1,17.1H197.3c-9.4,0-17.1-7.6-17.1-17.1v-8.5H333.8z M495.9,453.3c0,23.6-19.1,42.6-42.7,42.7H60.7
			c-23.6,0-42.6-19.1-42.7-42.7v-25.6h145.1v8.5c0,18.9,15.3,34.1,34.1,34.1h119.5c18.9,0,34.1-15.3,34.1-34.1v-8.5h145.1V453.3z
			 M436.2,18.1c22.4,0,43,12.5,53.2,32.4c10.2,19.9,8.4,43.9-4.7,62.1c-3.5-10.4-10.4-19.4-19.4-25.6c8.8-14.3,5.9-32.9-6.8-43.9
			c-12.8-10.9-31.6-10.9-44.4,0C401.2,54,398.3,72.7,407.1,87c-9.1,6.2-15.9,15.2-19.4,25.6c-13.1-18.2-15-42.2-4.7-62.1
			C393.2,30.5,413.8,18,436.2,18.1z M419.1,69.3c0-9.4,7.6-17.1,17.1-17.1c9.4,0,17.1,7.6,17.1,17.1s-7.6,17.1-17.1,17.1
			C426.8,86.3,419.1,78.7,419.1,69.3z M257,18.1c22.4,0,43,12.5,53.2,32.4c10.2,19.9,8.4,43.9-4.7,62.1
			c-3.5-10.4-10.4-19.4-19.4-25.6c8.8-14.3,5.9-32.9-6.8-43.9c-12.8-10.9-31.6-10.9-44.4,0C222,54,219.1,72.7,227.9,87
			c-9.1,6.2-15.9,15.2-19.4,25.6c-13.1-18.2-15-42.2-4.7-62.1S234.6,18,257,18.1L257,18.1z M257,137.5c-12.1,0-24-3.7-34-10.7
			c0.7-11.7,7.4-22.2,17.6-27.8c10.1,5.8,22.5,5.8,32.6,0c10.3,5.6,16.9,16.1,17.6,27.8C281,133.8,269.1,137.5,257,137.5L257,137.5
			z M257,86.3c-9.4,0-17.1-7.6-17.1-17.1s7.6-17.1,17.1-17.1s17.1,7.6,17.1,17.1c0,4.5-1.8,8.9-5,12.1
			C265.9,84.5,261.5,86.3,257,86.3L257,86.3z M77.8,18.1c22.4,0,43,12.5,53.2,32.4s8.4,43.9-4.7,62.1
			c-3.5-10.4-10.4-19.4-19.4-25.6c8.8-14.3,5.9-32.9-6.8-43.9s-31.6-10.9-44.4,0S39.9,72.7,48.7,87c-9,6.2-15.8,15.2-19.4,25.6
			c-13.1-18.2-15-42.2-4.7-62.1S55.4,18,77.8,18.1z M60.7,69.3c0-9.4,7.6-17.1,17.1-17.1s17.1,7.6,17.1,17.1s-7.6,17.1-17.1,17.1
			S60.7,78.7,60.7,69.3z M43.8,126.9c0.7-11.7,7.4-22.2,17.6-27.8c10.1,5.8,22.5,5.8,32.6,0c10.3,5.6,16.9,16.1,17.6,27.8
			C91.4,141.1,64.2,141.1,43.8,126.9z M146.5,111.9h41.8c11.6,23.3,34.3,39.2,60.2,42.2v35.1c-20.8,1.7-40.5,9.8-56.6,23L116.6,144
			C129.4,136.4,139.8,125.3,146.5,111.9L146.5,111.9z M205.8,359.2c0-17.1,8.7-33.1,23-42.5c17.1,11.3,39.2,11.3,56.3,0
			c14.3,9.4,23,25.4,23,42.5C277.9,382.2,236.1,382.2,205.8,359.2z M257,308.2c-18.9,0-34.1-15.3-34.1-34.1s15.3-34.1,34.1-34.1
			s34.1,15.3,34.1,34.1C291.1,292.9,275.9,308.2,257,308.2z M323.5,344.5c-3.5-15.9-12.6-30-25.6-39.7
			c15.9-21.1,13.2-50.9-6.4-68.7c-19.5-17.8-49.4-17.8-69,0c-19.5,17.8-22.3,47.6-6.4,68.7c-13,9.7-22.1,23.8-25.6,39.7
			c-28.1-34.9-24.4-85.5,8.4-116s83.5-30.5,116.3,0S351.6,309.6,323.5,344.5L323.5,344.5z M322.1,212.2
			c-16.1-13.3-35.8-21.3-56.6-23v-35.1c25.9-2.9,48.6-18.8,60.2-42.2h41.8c6.7,13.4,17.1,24.5,29.9,32.1L322.1,212.2z M402.2,126.8
			c0.7-11.7,7.4-22.2,17.6-27.8c10.1,5.8,22.5,5.8,32.6,0c10.3,5.6,16.9,16.1,17.6,27.8C449.8,141.1,422.6,141.1,402.2,126.8z"/>
		<path fill="#46A4BD" d="M69.3,350.9h8.5c4.7,0,8.5-3.8,8.5-8.5s-3.8-8.5-8.5-8.5h-8.5c-4.7,0-8.5,3.8-8.5,8.5
			S64.6,350.9,69.3,350.9z"/>
		<path fill="#46A4BD" d="M129,350.9c4.7,0,8.5-3.8,8.5-8.5s-3.8-8.5-8.5-8.5h-17.1c-4.7,0-8.5,3.8-8.5,8.5
			s3.8,8.5,8.5,8.5H129z"/>
		<path fill="#46A4BD" d="M69.3,385H129c4.7,0,8.5-3.8,8.5-8.5c0-4.7-3.8-8.5-8.5-8.5H69.3c-4.7,0-8.5,3.8-8.5,8.5
			C60.7,381.2,64.6,385,69.3,385z"/>
		<path fill="#46A4BD" d="M385,350.9h8.5c4.7,0,8.5-3.8,8.5-8.5s-3.8-8.5-8.5-8.5H385c-4.7,0-8.5,3.8-8.5,8.5
			S380.3,350.9,385,350.9z"/>
		<path fill="#46A4BD" d="M444.7,350.9c4.7,0,8.5-3.8,8.5-8.5s-3.8-8.5-8.5-8.5h-17.1c-4.7,0-8.5,3.8-8.5,8.5
			s3.8,8.5,8.5,8.5H444.7z"/>
		<path fill="#46A4BD" d="M385,385h59.7c4.7,0,8.5-3.8,8.5-8.5c0-4.7-3.8-8.5-8.5-8.5H385c-4.7,0-8.5,3.8-8.5,8.5
			C376.5,381.2,380.3,385,385,385z"/>
	</symbol>

	<symbol id="looking06" role="img" aria-labelledby="looking06_title" viewBox="0 0 512 512">
        <title id="looking06_title"></title>
        <path fill="#ABDDEB" d="M503.5,232.4v47.1c0,6.5-3.7,12.4-9.5,15.3l-42.2,21.1c-3.8,12.5-8.8,24.6-14.9,36.2l14.8,44.8
			c2.1,6.1,0.5,12.9-4.1,17.4l-33.4,33.4c-4.5,4.6-11.3,6.2-17.4,4.1l-12.5-4.1l-32.3-10.8c-4,2.1-8,4.1-12.2,5.9
			c-7.8,3.6-15.8,6.6-24,9L294.8,494c-2.9,5.8-8.8,9.5-15.3,9.5h-47.1c-6.5,0-12.4-3.7-15.3-9.5l-21.1-42.2
			c-12.5-3.8-24.6-8.8-36.2-14.9l-17.7,5.9l-27.1,9c-6.1,2.1-12.9,0.5-17.4-4.1l-33.4-33.4c-4.6-4.5-6.2-11.3-4.1-17.4l14.8-44.8
			C69,340.5,64,328.4,60.2,315.9L18,294.8c-5.8-2.9-9.5-8.8-9.5-15.3v-47.1c0-6.5,3.7-12.4,9.5-15.3l42.2-21.1
			c3.8-12.5,8.8-24.6,14.9-36.2l-14.8-44.8c-2.1-6.1-0.5-12.9,4.1-17.4l33.4-33.4c4.5-4.6,11.3-6.2,17.4-4.1l27.1,9l17.7,5.9
			c11.6-6.1,23.7-11.1,36.2-14.9L217.2,18c2.9-5.8,8.8-9.5,15.3-9.5h47.1c6.5,0,12.4,3.7,15.3,9.5l21.1,42.2c8.2,2.5,16.2,5.5,24,9
			c4.2,1.8,8.2,3.8,12.2,5.9l32.3-10.8l12.5-4.1c6.1-2.1,12.9-0.5,17.4,4.1l33.4,33.4c4.6,4.5,6.2,11.3,4.1,17.4l-14.8,44.8
			c6.1,11.6,11.1,23.7,14.9,36.2l42.2,21.1C499.8,220.1,503.5,226,503.5,232.4z"/>
		<path fill="#E4F9FF" d="M473.6,232.4v47.1c0,6.5-3.7,12.4-9.5,15.3L422,315.9c-3.8,12.5-8.8,24.6-14.9,36.2l14.8,44.8
			c2.1,6.1,0.5,12.9-4.1,17.4l-33.4,33.4c-4.5,4.6-11.3,6.2-17.4,4.1l-27.1-9l-17.7-1.6c-11.7,4.7-23.8,8.3-36.2,10.7L265,494
			c-2.9,5.8-8.8,9.5-15.3,9.5h-17.2c-6.5,0-12.4-3.7-15.3-9.5l-21.1-42.2c-12.5-3.8-24.6-8.8-36.2-14.9l-17.7,5.9
			c-4.2-1.8-8.2-3.8-12.2-5.9l-32.3,10.8l-33.4-33.4c-4.6-4.5-6.2-11.3-4.1-17.4l14.8-44.8C69,340.5,64,328.4,60.2,315.9L18,294.8
			c-5.8-2.9-9.5-8.8-9.5-15.3v-47.1c0-6.5,3.7-12.4,9.5-15.3l42.2-21.1c3.8-12.5,8.8-24.6,14.9-36.2l-14.8-44.8
			c-2.1-6.1-0.5-12.9,4.1-17.4l33.4-33.4L130,75.1c4-2.1,8-4.1,12.2-5.9l17.7,5.9c11.6-6.1,23.7-11.1,36.2-14.9L217.2,18
			c2.9-5.8,8.8-9.5,15.3-9.5h17.2c6.5,0,12.4,3.7,15.3,9.5L286,60.2c12.4,2.4,24.5,5.9,36.2,10.7l17.7-1.6l27.1-9
			c6.1-2.1,12.9-0.5,17.4,4.1l33.4,33.4c4.6,4.5,6.2,11.3,4.1,17.4L407,159.9c6.1,11.6,11.1,23.7,14.9,36.2l42.2,21.1
			C469.9,220.1,473.6,226,473.6,232.4z"/>
		<path fill="#D1D4D1" d="M412.9,119.7c-2.3,0-4.4-0.9-6-2.5l-12.1-12.1c-3.2-3.3-3.2-8.7,0.1-12c3.3-3.3,8.6-3.3,12-0.1l12.1,12.1
			c2.4,2.4,3.2,6.1,1.9,9.3C419.4,117.6,416.3,119.7,412.9,119.7z"/>
		<path fill="#E4F9FF" d="M418.1,256c0,89.5-72.6,162.1-162.1,162.1c-3.6,0-7.2-0.1-10.8-0.3C160,412.3,93.6,341.5,93.5,256.1
			c0-85.5,66.3-156.3,151.5-161.9c3.6-0.3,7.3-0.3,10.9-0.3C345.5,93.9,418.1,166.5,418.1,256z"/>
		<path fill="#FFFFFF" d="M396.8,256c0,85.4-66.3,156.2-151.6,161.8C160,412.3,93.6,341.5,93.5,256.1c0-85.5,66.3-156.3,151.5-161.9
			C330.4,99.7,396.7,170.5,396.8,256z"/>
		<path fill="#E4F9FF" d="M273.1,256c0,9.4-7.6,17.1-17.1,17.1s-17.1-7.6-17.1-17.1s7.6-17.1,17.1-17.1S273.1,246.6,273.1,256z"/>
		<path fill="#FFFFFF" d="M18,294.8l42.2,21.1c3.8,12.5,8.8,24.6,14.9,36.2l-14.8,44.8c-2.1,6.1-0.5,12.9,4.1,17.4l33.4,33.4
			c4.5,4.6,11.3,6.2,17.4,4.1l9.5-3.1c-0.4-0.4-0.9-0.6-1.3-1l-33.4-33.4c-4.6-4.5-6.2-11.3-4.1-17.4l14.9-44.8
			c-6.1-11.6-11.1-23.7-14.9-36.2l-42.2-21.1c-5.8-2.9-9.5-8.8-9.5-15.3v-47.1c0-6.5,3.7-12.4,9.5-15.3l42.2-21.1
			c3.8-12.5,8.8-24.6,14.9-36.2l-14.9-44.8c-2.1-6.1-0.5-12.9,4.1-17.4l33.4-33.4c0.4-0.4,0.9-0.6,1.3-1l-9.5-3.1
			c-6.1-2.1-12.9-0.5-17.4,4.1L64.3,97.7c-4.6,4.5-6.2,11.3-4.1,17.4l14.8,44.8C69,171.5,64,183.6,60.2,196.1L18,217.2
			c-5.8,2.9-9.5,8.8-9.5,15.3v47.1C8.5,286,12.2,291.9,18,294.8z"/>
		<path fill="#46A4BD" d="M497.9,209.5L458.9,190c-3.4-10.6-7.7-20.9-12.8-30.9l13.8-41.3c3.1-9.2,0.7-19.4-6.2-26.2l-33.4-33.4
			c-6.8-6.9-17-9.3-26.2-6.2l-41.3,13.8c-9.9-5.1-20.3-9.4-30.9-12.8l-19.5-38.9C298.2,5.5,289.3,0,279.6,0h-47.2
			c-9.7,0-18.6,5.5-22.9,14.1L190,53.1c-10.6,3.4-20.9,7.7-30.9,12.8l-41.3-13.8c-9.2-3.1-19.4-0.7-26.2,6.2L58.3,91.7
			c-6.9,6.8-9.3,17-6.2,26.2l13.8,41.3c-5.1,9.9-9.4,20.3-12.8,30.9l-38.9,19.5C5.5,213.8,0,222.7,0,232.4v47.2
			c0,9.7,5.5,18.6,14.1,22.9l39,19.5c3.5,10.6,7.7,20.9,12.8,30.8l-13.8,41.4c-3.1,9.2-0.7,19.4,6.2,26.2l33.3,33.4
			c6.8,6.9,17,9.3,26.2,6.2l41.3-13.8c9.9,5.1,20.3,9.4,30.9,12.8l19.5,38.9c4.3,8.7,13.2,14.2,22.9,14.2h47.2
			c9.7,0,18.6-5.5,22.9-14.1l19.5-38.9c10.6-3.4,20.9-7.7,30.9-12.8l41.3,13.8c9.2,3.1,19.4,0.7,26.2-6.2l33.4-33.4
			c6.9-6.8,9.3-17,6.2-26.2l-13.8-41.3c5.1-9.9,9.4-20.3,12.8-30.9l38.9-19.5c8.7-4.3,14.2-13.2,14.2-22.9v-47.2
			C512,222.7,506.5,213.8,497.9,209.5z M494.9,279.6c0,3.2-1.8,6.2-4.7,7.6l-42.2,21.1c-2.1,1-3.7,2.9-4.3,5.1
			c-3.7,12-8.5,23.6-14.4,34.6c-1.1,2.1-1.3,4.5-0.6,6.7l15,44.8c1,3.1,0.2,6.4-2.1,8.7l-33.4,33.3c-2.3,2.3-5.7,3.1-8.8,2.1
			l-44.8-14.9c-2.2-0.7-4.6-0.5-6.7,0.6c-11.1,5.9-22.7,10.7-34.6,14.4c-2.2,0.7-4.1,2.3-5.1,4.3l-21.1,42.2
			c-1.4,2.9-4.4,4.7-7.6,4.7h-47.2c-3.2,0-6.2-1.8-7.6-4.7l-21.1-42.2c-1-2.1-2.9-3.7-5.1-4.3c-12-3.7-23.6-8.5-34.6-14.4
			c-2.1-1.1-4.5-1.3-6.7-0.6l-44.8,14.9c-3.1,1-6.5,0.2-8.7-2.1l-33.4-33.4c-2.3-2.3-3.1-5.7-2.1-8.7l14.9-44.7v-0.1
			c0.2-0.8,0.3-1.7,0.3-2.6c0-0.3,0.1-0.5,0.1-0.8c-0.1-0.4-0.2-0.9-0.4-1.3c-0.1-0.7-0.3-1.3-0.6-1.9v-0.1
			c-5.9-11.1-10.7-22.6-14.4-34.6v-0.1c-0.3-0.7-0.6-1.3-1-1.9c-0.2-0.3-0.4-0.7-0.6-1c-0.2-0.2-0.3-0.3-0.5-0.4
			c-0.6-0.7-1.3-1.2-2.1-1.6l-0.1-0.1l-42.2-21.1c-2.9-1.4-4.7-4.4-4.7-7.6v-47.2c0-3.2,1.8-6.2,4.7-7.6l42.2-21.1
			c2.1-1,3.7-2.9,4.3-5.1c3.7-12,8.5-23.6,14.4-34.7c1.1-2.1,1.3-4.5,0.6-6.7l-14.9-44.8c-1-3.1-0.2-6.4,2.1-8.7l33.4-33.3
			c2.3-2.3,5.7-3.1,8.7-2.1l44.8,14.9c2.2,0.7,4.6,0.5,6.7-0.6c11.1-5.9,22.7-10.7,34.6-14.4c2.2-0.7,4.1-2.3,5.1-4.3l21.1-42.2
			c1.4-2.9,4.4-4.7,7.6-4.7h47.2c3.2,0,6.2,1.8,7.6,4.7l21.1,42.2c1,2.1,2.9,3.7,5.1,4.3c12,3.7,23.6,8.5,34.7,14.4
			c2.1,1.1,4.5,1.3,6.7,0.6l44.8-14.9c3.1-1,6.5-0.2,8.7,2.1l33.4,33.3c2.3,2.3,3.1,5.7,2.1,8.7l-14.9,44.8c-0.7,2.2-0.5,4.6,0.6,6.7
			c5.9,11.1,10.7,22.7,14.4,34.6c0.7,2.2,2.3,4.1,4.3,5.1l42.2,21.1c2.9,1.4,4.7,4.4,4.7,7.6L494.9,279.6z"/>
		<path fill="#46A4BD" d="M424,227.2c0-0.3,0.1-0.6,0-0.9c-0.1-0.3-0.2-0.4-0.2-0.6c-3.4-19.1-10.1-37.4-19.7-54.2
			c-0.1-0.3-0.2-0.6-0.3-0.9c-0.2-0.3-0.5-0.6-0.7-0.9c-9.7-16.6-22.2-31.4-36.8-43.9c-0.2-0.2-0.3-0.5-0.5-0.7
			c-0.2-0.1-0.3-0.2-0.5-0.3c-14.9-12.4-31.8-22.1-50-28.8c-0.3-0.2-0.6-0.4-0.9-0.5c-0.3-0.1-0.6-0.1-1-0.1
			c-37.1-13.5-77.7-13.5-114.8,0c-0.3,0-0.6,0.1-1,0.1c-0.3,0.2-0.6,0.3-0.9,0.5c-18.2,6.7-35.1,16.5-50,28.8
			c-0.2,0.1-0.4,0.1-0.5,0.3c-0.2,0.2-0.4,0.4-0.5,0.7c-14.7,12.5-27.1,27.3-36.8,43.9c-0.3,0.3-0.5,0.6-0.7,0.9
			c-0.1,0.3-0.2,0.6-0.3,0.9c-9.6,16.8-16.3,35.2-19.7,54.2c-0.1,0.2-0.2,0.4-0.2,0.6c-0.1,0.3,0,0.6,0,0.9c-3.5,19-3.5,38.5,0,57.6
			c0,0.3-0.1,0.6,0,0.9c0.1,0.2,0.2,0.5,0.3,0.7c3.4,19,10.1,37.3,19.7,54.1c0.1,0.3,0.2,0.6,0.3,0.9c0.3,0.5,0.7,0.9,1.1,1.4
			c9.7,16.4,22,31,36.5,43.4c0.2,0.2,0.3,0.5,0.5,0.7c0.2,0.1,0.4,0.2,0.5,0.3c14.9,12.4,31.8,22.1,49.9,28.8
			c0.3,0.2,0.6,0.4,0.9,0.5c0.4,0.1,0.7,0.2,1.1,0.2c37,13.5,77.6,13.5,114.6,0c0.4,0,0.7-0.1,1.1-0.2c0.3-0.2,0.6-0.3,0.9-0.5
			c18.2-6.7,35-16.4,49.9-28.8c0.2-0.1,0.4-0.2,0.5-0.3c0.2-0.2,0.4-0.4,0.5-0.7c14.5-12.3,26.8-27,36.5-43.4c0.4-0.4,0.7-0.9,1-1.4
			c0.1-0.3,0.2-0.6,0.3-0.9c9.6-16.8,16.3-35.1,19.7-54.2c0.1-0.2,0.2-0.5,0.3-0.7c0.1-0.3,0-0.6,0-0.9
			C427.6,265.7,427.6,246.2,424,227.2L424,227.2z M361,367.8l-5.2-6.2c-1.9-2.4-5-3.6-8.1-3.1c-3.1,0.5-5.6,2.6-6.6,5.6
			s-0.4,6.2,1.6,8.5l5.2,6.2c-9.7,7.4-20.3,13.5-31.4,18.4l-2.8-7.8c-1.7-4.3-6.5-6.5-10.9-4.9c-4.3,1.6-6.6,6.3-5.2,10.7l2.8,7.8
			c-11.7,3.5-23.7,5.6-35.9,6.2v-8.1c0-4.7-3.8-8.5-8.5-8.5c-4.7,0-8.5,3.8-8.5,8.5v8.1c-12.2-0.6-24.2-2.7-35.9-6.2l2.8-7.8
			c1.1-2.9,0.6-6.2-1.4-8.6c-2-2.4-5.1-3.5-8.1-3s-5.6,2.7-6.5,5.7l-2.8,7.8c-11.2-4.9-21.7-11-31.4-18.4l5.2-6.2
			c2-2.3,2.7-5.6,1.6-8.5s-3.6-5.1-6.6-5.6c-3.1-0.5-6.1,0.7-8.1,3.1l-5.2,6.2c-8.9-8.3-16.8-17.7-23.5-27.8l7.1-4.1
			c2.7-1.5,4.3-4.3,4.3-7.4c0-3.1-1.6-5.9-4.3-7.4s-5.9-1.5-8.6,0l-7,4.1c-5.5-10.9-9.7-22.4-12.5-34.2l8-1.4
			c4.6-0.8,7.7-5.2,6.9-9.9c-0.8-4.6-5.2-7.7-9.9-6.9l-8.1,1.4c-1.6-12.1-1.6-24.3,0-36.4l8.1,1.4c0.5,0.1,1,0.1,1.5,0.1
			c4.4,0,8.1-3.4,8.5-7.8s-2.7-8.4-7-9.1l-8-1.4c2.8-11.9,7-23.3,12.5-34.2l7,4.1c2.6,1.5,5.9,1.6,8.6,0c2.7-1.5,4.3-4.4,4.3-7.4
			c0-3.1-1.7-5.9-4.3-7.4l-7.1-4.1c6.7-10.2,14.6-19.5,23.5-27.8l5.2,6.2c1.9,2.4,5,3.6,8.1,3.1c3.1-0.5,5.6-2.6,6.6-5.6
			c1-2.9,0.4-6.2-1.6-8.5l-5.2-6.2c9.7-7.4,20.3-13.5,31.4-18.4l2.8,7.8c1,2.9,3.5,5.1,6.5,5.7s6.2-0.6,8.1-3c2-2.4,2.5-5.7,1.4-8.6
			l-2.8-7.8c11.7-3.5,23.7-5.6,35.9-6.2v8.1c0,4.7,3.8,8.5,8.5,8.5c4.7,0,8.5-3.8,8.5-8.5v-8.1c12.2,0.6,24.2,2.7,35.9,6.2l-2.8,7.8
			c-1.1,2.9-0.6,6.2,1.4,8.6c2,2.4,5.1,3.5,8.1,3c3.1-0.6,5.6-2.7,6.5-5.7l2.8-7.8c11.2,4.9,21.7,11,31.4,18.4l-5.2,6.2
			c-2,2.3-2.7,5.6-1.6,8.5c1,2.9,3.6,5.1,6.6,5.6c3.1,0.5,6.1-0.7,8.1-3.1l5.2-6.1c8.9,8.3,16.8,17.7,23.5,27.8l-7.1,4.1
			c-2.7,1.5-4.3,4.3-4.3,7.4c0,3.1,1.6,5.9,4.3,7.4s5.9,1.5,8.6,0l7-4.1c5.5,10.9,9.7,22.3,12.5,34.2l-8,1.4c-4.4,0.8-7.4,4.7-7,9.1
			c0.4,4.4,4.1,7.8,8.5,7.8c0.5,0,1,0,1.5-0.1l8.1-1.4c1.6,12.1,1.6,24.3,0,36.4l-8.1-1.4c-3-0.5-6.1,0.6-8,2.9s-2.5,5.5-1.5,8.4
			s3.5,5,6.5,5.5l8,1.4c-2.8,11.9-7,23.3-12.5,34.2l-7-4.1c-2.6-1.5-5.9-1.6-8.6,0c-2.7,1.5-4.3,4.4-4.3,7.4s1.7,5.9,4.3,7.4l7.1,4.1
			C377.7,350.2,369.9,359.5,361,367.8z"/>
		<path fill="#46A4BD" d="M341.3,247.5H280c-2.6-7.2-8.3-12.9-15.5-15.5v-86.9c0-4.7-3.8-8.5-8.5-8.5c-4.7,0-8.5,3.8-8.5,8.5V232
			c-11.2,3.9-18.3,15.1-16.9,27c1.3,11.8,10.7,21.2,22.5,22.5c11.8,1.3,23-5.7,27-16.9h61.3c4.7,0,8.5-3.8,8.5-8.5
			C349.9,251.3,346,247.5,341.3,247.5z M256,264.5c-4.7,0-8.5-3.8-8.5-8.5c0-4.7,3.8-8.5,8.5-8.5c4.7,0,8.5,3.8,8.5,8.5
			C264.5,260.7,260.7,264.5,256,264.5z"/>
		<path fill="#46A4BD" d="M247.5,51.2h17.1c4.7,0,8.5-3.8,8.5-8.5c0-4.7-3.8-8.5-8.5-8.5h-17.1c-4.7,0-8.5,3.8-8.5,8.5
			C238.9,47.4,242.8,51.2,247.5,51.2z"/>
		<path fill="#46A4BD" d="M264.5,460.8h-17.1c-4.7,0-8.5,3.8-8.5,8.5c0,4.7,3.8,8.5,8.5,8.5h17.1c4.7,0,8.5-3.8,8.5-8.5
			C273.1,464.6,269.2,460.8,264.5,460.8z"/>
		<path fill="#46A4BD" d="M99.1,119.7c2.3,0,4.4-0.9,6-2.5l12.1-12.1c2.2-2.1,3.1-5.3,2.3-8.3c-0.8-3-3.1-5.3-6.1-6.1
			c-3-0.8-6.2,0.1-8.3,2.3l-12.1,12.1c-2.4,2.4-3.2,6.1-1.8,9.3S95.7,119.7,99.1,119.7z"/>
		<path fill="#46A4BD" d="M406.9,394.8l-12.1,12.1c-2.2,2.1-3.1,5.3-2.3,8.3c0.8,3,3.1,5.3,6.1,6.1s6.2-0.1,8.3-2.3l12.1-12.1
			c3.2-3.3,3.2-8.7-0.1-12C415.5,391.6,410.2,391.6,406.9,394.8z"/>
		<path fill="#46A4BD" d="M42.7,238.9c-4.7,0-8.5,3.8-8.5,8.5v17.1c0,4.7,3.8,8.5,8.5,8.5c4.7,0,8.5-3.8,8.5-8.5v-17.1
			C51.2,242.8,47.4,238.9,42.7,238.9z"/>
		<path fill="#46A4BD" d="M469.3,238.9c-4.7,0-8.5,3.8-8.5,8.5v17.1c0,4.7,3.8,8.5,8.5,8.5c4.7,0,8.5-3.8,8.5-8.5v-17.1
			C477.9,242.8,474,238.9,469.3,238.9z"/>
		<path fill="#46A4BD" d="M105.1,394.8c-3.3-3.2-8.7-3.2-12,0.1c-3.3,3.3-3.3,8.6-0.1,12l12.1,12.1c3.3,3.2,8.7,3.2,12-0.1
			c3.3-3.3,3.3-8.6,0.1-12L105.1,394.8z"/>
		<path fill="#46A4BD" d="M406.9,117.2c3.3,3.2,8.7,3.2,12-0.1c3.3-3.3,3.3-8.6,0.1-12l-12.1-12.1c-3.3-3.2-8.7-3.2-12,0.1
			c-3.3,3.3-3.3,8.6-0.1,12L406.9,117.2z"/>
	</symbol>

	<symbol id="looking07" role="img" aria-labelledby="looking07_title" viewBox="0 0 512 512">
        <title id="looking07_title"></title>
        <path fill="#ABDDEB" d="M391.1,266.6c-10.2,19.3-25.6,35.2-37.3,53.6c-12.2,19.2-19.5,41.1-21.3,63.8H179.4
			c-1.8-22.7-9.2-44.6-21.4-63.8c-11.6-18.3-27-34.3-37.2-53.6c-20.7-38.9-30.1-66.8-26.2-110.8C102.4,77.6,164.8,16,243.2,9.1
			c4.2-0.4,8.5-0.6,12.7-0.6c83.5,0.7,153,64.2,161.4,147.3C421.2,199.8,411.8,227.7,391.1,266.6z"/>
		<path fill="#ABDDEB" d="M324.3,435.2v42.7c0,14.1-11.5,25.6-25.6,25.6h-85.3c-0.9,0-1.7,0-2.6-0.2h-0.1c-6.7-0.6-12.8-3.9-17.1-9.1
			c-3.8-4.6-5.9-10.3-5.9-16.3v-42.7H324.3z"/>
		<path fill="#ABDDEB" d="M349.9,409.6c0,14.1-11.5,25.6-25.6,25.6H187.7c-14.1,0-25.6-11.5-25.6-25.6c0-14.1,11.5-25.6,25.6-25.6h136.5
			C338.4,384,349.9,395.5,349.9,409.6z"/>
		<path fill="#E4F9FF" d="M365.7,266.6c-10.2,19.3-25.6,35.2-37.2,53.6c-12.2,19.2-19.6,41.1-21.4,63.8H179.4
			c-1.8-22.7-9.2-44.6-21.4-63.8c-11.6-18.3-27-34.3-37.2-53.6c-20.7-38.9-30.1-66.8-26.2-110.8C102.4,77.6,164.8,16,243.2,9.1
			C321.6,16,384,77.6,391.9,155.8C395.8,199.8,386.4,227.7,365.7,266.6z"/>
		<path fill="#E4F9FF" d="M298.8,435.2v42.7c0,14.1-11.5,25.6-25.6,25.6h-59.9c-0.9,0-1.7,0-2.6-0.2h-0.1c-6.7-0.6-12.8-3.9-17.1-9.1
			c-3.8-4.6-5.9-10.3-5.9-16.3v-42.7H298.8z"/>
		<path fill="#E4F9FF" d="M324.4,409.6c0,14.1-11.5,25.6-25.6,25.6H187.7c-14.1,0-25.6-11.5-25.6-25.6c0-14.1,11.5-25.6,25.6-25.6h111.1
			C313,384,324.4,395.5,324.4,409.6z"/>
		<path fill="#FFFFFF" d="M158,320.2c12.2,19.2,19.6,41.1,21.4,63.8h8.4c-14.1,0-25.6,11.5-25.6,25.6c0,14.1,11.5,25.6,25.6,25.6v42.7
			c0,6,2.1,11.7,5.9,16.3c4.2,5.2,10.4,8.5,17.1,9.1h0.1c0.8,0.1,1.7,0.2,2.6,0.2h25.6c-0.9,0-1.7,0-2.6-0.2h-0.1
			c-6.7-0.6-12.8-3.9-17.1-9.1c-3.8-4.6-5.9-10.3-5.9-16.3v-42.7c-14.1,0-25.6-11.5-25.6-25.6c0-14.1,11.5-25.6,25.6-25.6H205
			c-1.8-22.7-9.2-44.6-21.4-63.8c-11.6-18.3-27-34.3-37.2-53.6c-20.7-38.9-30.1-66.8-26.2-110.8C128,77.7,190.3,16.1,268.6,9.2
			c-4.2-0.3-8.4-0.6-12.6-0.6c-4.2,0-8.5,0.2-12.7,0.6C164.8,16,102.4,77.6,94.6,155.8c-3.9,43.9,5.5,71.8,26.2,110.8
			C131,285.9,146.3,301.8,158,320.2z"/>
		<path fill="#FFFFFF" d="M86,155.1C95,67.6,168.1,0.9,256,0v17.1c-41.1,0.4-80.3,17.1-109.1,46.4c-24.9,25-40.4,57.9-43.9,93.1L86,155.1
			z"/>
		<path fill="#46A4BD" d="M93.2,119.9c-2.1,5.6-3,11.6-4.5,17.4c-1.2,5.9-1.8,11.9-2.6,17.8c-4.1,46.5,6.3,76.5,27.1,115.6
			c6.4,11.4,13.8,22.2,22,32.4c5.6,7.4,10.9,14.3,15.6,21.8c10.6,16.8,17.4,35.8,19.6,55.6c-11.9,7-18.4,20.4-16.5,34
			c1.9,13.6,11.9,24.7,25.2,28.1v35.3c0,11.7,6.1,22.6,16,28.8c0.5,0.3,1,0.6,1.6,0.9c5,2.9,10.7,4.4,16.5,4.5h85.3
			c18.9,0,34.1-15.3,34.1-34.1v-35.3c13.4-3.4,23.4-14.5,25.3-28.2s-4.7-27.2-16.7-34.1c2.3-19.7,9-38.7,19.6-55.5
			c4.7-7.4,10-14.4,15.6-21.8c8.2-10.2,15.5-21,22-32.4c20.8-39.1,31.3-69.1,27.1-115.6C417.3,67.5,344,0.5,256,0h-0.3
			c-45.5,0.5-89,19-120.9,51.5c-2.2,2-4.2,4.2-6.2,6.5c-1.5,1.7-2.3,4-2.2,6.3c0.2,2.3,1.2,4.4,3,5.9c3.6,2.9,8.8,2.5,11.9-0.9
			c1.7-2.1,3.6-4,5.6-5.8c41.6-42.9,104.5-57.6,160.8-37.6c56.3,20,95.8,71.1,101,130.7c3.8,42.5-5.5,69-25.2,106
			c-6,10.6-12.8,20.6-20.5,30c-5.6,7.3-11.4,14.9-16.5,23c-11.5,18.2-18.9,38.6-21.8,59.8h-34.6V238.9h25.6
			c18.9,0,34.1-15.3,34.1-34.1s-15.3-34.1-34.1-34.1h-8.5c-18.9,0-34.1,15.3-34.1,34.1v17.1h-34.1v-17.1c0-18.9-15.3-34.1-34.1-34.1
			h-8.5c-18.9,0-34.1,15.3-34.1,34.1s15.3,34.1,34.1,34.1h25.6v136.5H187c-2.9-21.3-10.3-41.7-21.8-59.8c-5.1-8.1-10.9-15.6-16.5-23
			c-7.6-9.4-14.5-19.5-20.5-30c-19.7-37-29-63.6-25.2-106c0.9-5.3,1.3-10.7,2.4-16c1.4-5.2,2.2-10.5,4.1-15.6c1.3-4.4-1-9.1-5.4-10.7
			c-2.2-0.8-4.6-0.6-6.6,0.4C95.4,115.8,93.9,117.7,93.2,119.9z M290.1,204.8c0-9.4,7.6-17.1,17.1-17.1h8.5c9.4,0,17.1,7.6,17.1,17.1
			s-7.6,17.1-17.1,17.1h-25.6V204.8z M200.8,489.4c-2.9-3.1-4.5-7.2-4.5-11.5v-34.1h82.1L200.8,489.4z M315.7,477.9
			c0,9.4-7.6,17.1-17.1,17.1H225l87.1-51.2h3.7V477.9z M196.3,221.9c-9.4,0-17.1-7.6-17.1-17.1s7.6-17.1,17.1-17.1h8.5
			c9.4,0,17.1,7.6,17.1,17.1v17.1H196.3z M238.9,238.9h34.1v136.5h-34.1V238.9z M324.3,392.5c9.4,0,17.1,7.6,17.1,17.1
			s-7.6,17.1-17.1,17.1H187.7c-9.4,0-17.1-7.6-17.1-17.1s7.6-17.1,17.1-17.1H324.3z"/>
		<path fill="#46A4BD" d="M121.8,86.3c-0.6-0.9-1.4-1.7-2.3-2.3c-1.9-1.2-4.3-1.6-6.5-1.1c-4.6,1.4-7.3,6.2-6.2,10.9l0.6,1.5
			c0.3,0.5,0.6,1,1,1.4c0.3,0.4,0.7,0.8,1.2,1.2c0.5,0.3,0.9,0.7,1.4,0.9c2,1,4.3,1.2,6.5,0.6c1.1-0.3,2-0.8,2.9-1.5
			c2.6-2,3.8-5.4,2.9-8.6C122.9,88.2,122.4,87.2,121.8,86.3z"/>
		<path fill="#46A4BD" d="M127.8,167.3h0.8c4.4,0,8.1-3.4,8.5-7.8c6.6-60.9,57.6-107.3,118.8-108.4c4.7,0,8.5-3.8,8.5-8.5
			c0-4.7-3.8-8.5-8.5-8.5C185.9,35.3,127.6,88.4,120,158.1C119.6,162.8,123.1,166.9,127.8,167.3z"/>
		<path fill="#46A4BD" d="M0,170.7c0,4.7,3.8,8.5,8.5,8.5h42.7c4.7,0,8.5-3.8,8.5-8.5c0-4.7-3.8-8.5-8.5-8.5H8.5
			C3.8,162.1,0,166,0,170.7z"/>
		<path fill="#46A4BD" d="M74.4,265.7L37.4,287c-2.7,1.5-4.3,4.3-4.3,7.4c0,3.1,1.6,5.9,4.3,7.4c2.7,1.5,5.9,1.5,8.6,0l36.9-21.3
			c4-2.4,5.4-7.6,3.1-11.6S78.5,263.4,74.4,265.7z"/>
		<path fill="#46A4BD" d="M426,268.8c-2.4,4.1-1,9.3,3.1,11.7l36.9,21.3c4.1,2.3,9.3,0.9,11.6-3.2c2.3-4.1,1-9.3-3.1-11.6l-36.9-21.3
			C433.6,263.3,428.3,264.7,426,268.8z"/>
		<path fill="#46A4BD" d="M503.5,162.1h-42.7c-4.7,0-8.5,3.8-8.5,8.5c0,4.7,3.8,8.5,8.5,8.5h42.7c4.7,0,8.5-3.8,8.5-8.5
			C512,166,508.2,162.1,503.5,162.1z"/>
		<path fill="#46A4BD" d="M477.7,42.7c-2.4-4.1-7.6-5.5-11.7-3.1l-36.9,21.3c-2.7,1.5-4.3,4.3-4.3,7.4c0,3.1,1.6,5.9,4.3,7.4
			c2.7,1.5,5.9,1.5,8.6,0l36.9-21.3C478.7,52,480.1,46.7,477.7,42.7z"/>
		<path fill="#46A4BD" d="M82.9,60.9L46,39.5c-4.1-2.3-9.3-0.9-11.6,3.2c-2.3,4.1-1,9.3,3.1,11.6l36.9,21.3c2.6,1.6,5.9,1.6,8.6,0
			c2.7-1.5,4.3-4.4,4.3-7.4C87.2,65.2,85.6,62.4,82.9,60.9z"/>
	</symbol>

	<symbol id="looking08" role="img" aria-labelledby="looking08_title" viewBox="0 0 512 512">
        <title id="looking08_title"></title>
        <path fill="#E4F9FF" d="M504.5,256c0,0.3,0,0.6,0,0.9c0,0.2,0,0.3,0,0.5c-1.4,5.3-3.1,10.6-5,15.7
			c-27.7,75.3-118.2,131.5-227.5,136.5c1.5-2.6,2.2-5.5,2.1-8.5v-51.2c0-9.4-7.6-17.1-17.1-17.1c-9.4,0-17.1,7.6-17.1,17.1v51.2
			c-0.1,3,0.7,5.9,2.1,8.5c-109.3-5-199.8-61.3-227.5-136.5c-2-5-3.7-10.2-5-15.4c-0.1-0.7-0.1-1.4,0-2c1.3-5.6,3-11.2,5-16.6
			c27.7-75.3,118.2-131.5,227.5-136.5c-1.5,2.6-2.2,5.5-2.1,8.5v51.2c0,9.4,7.6,17.1,17.1,17.1s17.1-7.6,17.1-17.1v-51.2
			c0.1-3-0.7-5.9-2.1-8.5c109.3,4.7,199.8,60.9,227.5,136.5c2,5,3.7,10.2,5,15.4C504.6,254.9,504.6,255.5,504.5,256z"/>
		<path fill="#ABDDEB" d="M504.5,255c-1.4-5.4-3-10.8-5-16c-27.7-75.3-118.2-131.5-227.5-136.5c0.4,0.7,0.7,1.5,0.9,2.3
			c97.2,11.9,175.5,64.9,201,133.9c2,5.2,3.7,10.4,5,15.8c0.1,0.5,0.1,1.1,0,1.6c0,0.3,0,0.6,0,0.9c0,0.2,0,0.3,0,0.5
			c-1.4,5.3-3.1,10.6-5,15.7c-25.6,69-103.8,121.9-201,133.9c-0.2,0.8-0.5,1.6-0.9,2.3c109.3-4.7,199.8-60.9,227.5-136.5
			c2-4.9,3.6-10,5-15.1c0-0.2,0-0.3,0-0.5c0-0.3,0-0.6,0-0.9C504.5,255.8,504.5,255.4,504.5,255z"/>
		<path fill="#E4F9FF" d="M350.9,273.1h24.4c-3.2,22.6-13,43.8-28,60.9l-3.2,0.6c-24,3.8-48.2,6-72.4,6.6
			c-3.1-5.2-8.7-8.4-14.7-8.4s-11.6,3.2-14.7,8.4c-24.3-0.5-48.5-2.7-72.4-6.6l-3.2-0.5c-14.9-17.3-24.6-38.4-27.9-61h24.3
			c9.4,0,17.1-7.6,17.1-17.1c0-9.4-7.6-17.1-17.1-17.1h-24.3c3.3-22.6,13-43.8,27.9-61l3.2-0.5c24-3.9,48.2-6.1,72.4-6.7
			c3.1,5.2,8.7,8.4,14.7,8.4s11.6-3.2,14.7-8.4c24.3,0.5,48.5,2.7,72.4,6.6l3.2,0.6c15.1,17.2,24.8,38.4,28,61.1h-24.4
			c-9.4,0-17.1,7.6-17.1,17.1C333.8,265.4,341.4,273.1,350.9,273.1L350.9,273.1z"/>
		<path fill="#ABDDEB" d="M333.8,256c0-9.4,7.6-17.1,17.1-17.1h24.4c-3.2-22.6-13-43.8-28-60.9l-3.2-0.6
			c-24-3.9-48.2-6.1-72.4-6.7c-0.3,0.4-0.6,0.8-0.9,1.2c16.6,1.1,32.6,2.9,47.8,5.4l3.2,0.6c15.1,17.2,24.8,38.4,28,61.1h-24.4
			c-9.4,0-17.1,7.6-17.1,17.1c0,9.4,7.6,17.1,17.1,17.1h24.4c-3.2,22.6-13,43.8-28,60.9l-3.2,0.6c-15.2,2.5-31.2,4.3-47.8,5.4
			c0.3,0.4,0.7,0.8,0.9,1.2c24.3-0.5,48.5-2.7,72.4-6.6l3.2-0.6c15-17.2,24.8-38.3,28-60.9h-24.4C341.4,273.1,333.8,265.4,333.8,256
			L333.8,256z"/>
		<path fill="#ABDDEB" d="M60.7,256c0.1,13.5-1.8,26.9-5.5,39.9c-10.2-6.1-19.3-13.8-27.1-22.8
			c-4.2-4.7-7.6-10-10.2-15.7c-0.2-0.7-0.2-1.4,0-2c2.5-6,5.9-11.5,10.2-16.4c7.7-9,16.9-16.7,27.1-22.8
			C59,229.1,60.8,242.5,60.7,256L60.7,256z"/>
		<path fill="#FFFFFF" d="M138.8,273.1c3.3,22.6,13,43.8,27.9,61c-36.9-5.4-72.6-17.1-105.6-34.6c-2-1.2-4-2.3-5.9-3.6
			c3.7-13,5.5-26.4,5.5-39.9c0.1-13.5-1.8-26.9-5.5-39.9c1.9-1.3,3.8-2.4,5.9-3.6c32.9-17.6,68.6-29.3,105.6-34.6
			c-14.9,17.3-24.6,38.4-27.9,61h-26.9c-9.4,0-17.1,7.6-17.1,17.1c0,9.4,7.6,17.1,17.1,17.1H138.8z"/>
		<path fill="#E4F9FF" d="M495.9,256c0,0.3,0,0.6,0,0.9c0,0.2,0,0.3,0,0.5c-2.6,5.7-6,11-10.2,15.7
			c-9.7,11-21.2,20.2-34.1,27.1c-9-28.8-9-59.6,0-88.4c12.9,6.9,24.5,16.1,34.1,27.1c4.2,4.7,7.6,10,10.2,15.7
			C496,255.1,496,255.5,495.9,256z"/>
		<path fill="#ABDDEB" d="M495.9,255c-2.5-5.8-6-11.3-10.2-16c-9.7-11-21.2-20.2-34.1-27.1c-1.5,4.9-2.8,9.9-3.8,14.9
			c4.5,3.7,8.6,7.8,12.4,12.2c4.2,4.7,7.6,10,10.2,15.7c0.1,0.5,0.1,0.9,0,1.4c0,0.3,0,0.6,0,0.9c0,0.2,0,0.3,0,0.5
			c-2.6,5.7-6,11-10.2,15.7c-3.8,4.4-8,8.5-12.5,12.2c1,5,2.3,10,3.8,14.9c12.9-6.9,24.5-16.1,34.1-27.1c4.2-4.7,7.7-10,10.3-15.7
			c0-0.2,0-0.3,0-0.5c0-0.3,0-0.6,0-0.9C496,255.7,496,255.3,495.9,255z"/>
		<path fill="#FFFFFF" d="M444.7,256c-0.1,15,2.2,29.9,6.7,44.2l-5.6,3.1c-31.1,15.3-64.3,25.7-98.6,30.7
			c15-17.2,24.8-38.3,28-60.9h26.8c9.4,0,17.1-7.6,17.1-17.1c0-9.4-7.6-17.1-17.1-17.1h-26.8c-3.2-22.6-13-43.8-28-60.9
			c34.2,5.1,67.5,15.4,98.6,30.7l5.6,3.1C446.9,226.1,444.6,241,444.7,256L444.7,256z"/>
		<path fill="#FFFFFF" d="M282.6,238.9h-8.5v-8.5c0-9.4-7.6-17.1-17.1-17.1c-9.4,0-17.1,7.6-17.1,17.1v8.5h-8.5
			c-9.4,0-17.1,7.6-17.1,17.1c0,9.4,7.6,17.1,17.1,17.1h8.5v8.5c0,9.4,7.6,17.1,17.1,17.1s17.1-7.6,17.1-17.1v-8.5h8.5
			c9.4,0,17.1-7.6,17.1-17.1C299.7,246.6,292,238.9,282.6,238.9z"/>
		<path fill="#FFFFFF" d="M274.1,110.9v51.2c0,9.4-7.6,17.1-17.1,17.1c-9.4,0-17.1-7.6-17.1-17.1v-51.2
			c-0.1-3,0.7-5.9,2.1-8.5c3.1-5.3,8.8-8.6,14.9-8.5c4.5,0,8.8,1.8,12,5c1.2,1.1,2.2,2.4,2.9,3.8
			C273.3,105.2,274.1,108.1,274.1,110.9z"/>
		<path fill="#FFFFFF" d="M274.1,349.9v51.2c0.1,3-0.7,5.9-2.1,8.5c-0.7,1.4-1.7,2.7-2.9,3.8c-3.2,3.1-7.6,4.8-12,4.7
			c-6.2,0.1-11.9-3.2-14.9-8.5c-1.5-2.6-2.2-5.5-2.1-8.5v-51.2c0-9.4,7.6-17.1,17.1-17.1S274.1,340.4,274.1,349.9z"/>
		<path fill="#FFFFFF" d="M419.1,256c0,9.4-7.6,17.1-17.1,17.1h-51.2c-9.4,0-17.1-7.6-17.1-17.1
			c0-9.4,7.6-17.1,17.1-17.1h51.2C411.5,238.9,419.1,246.6,419.1,256z"/>
		<path fill="#FFFFFF" d="M180.2,256c0,9.4-7.6,17.1-17.1,17.1h-51.2c-9.4,0-17.1-7.6-17.1-17.1
			c0-9.4,7.6-17.1,17.1-17.1h51.2C172.6,238.9,180.2,246.6,180.2,256z"/>
		<path fill="#ABDDEB" d="M26.6,102.4c-9.4,0-17.1-7.6-17.1-17.1V34.1C9.5,20,21,8.5,35.1,8.5h51.2
			c9.4,0,17.1,7.6,17.1,17.1s-7.6,17.1-17.1,17.1H43.7v42.7C43.7,94.8,36,102.4,26.6,102.4z"/>
		<path fill="#ABDDEB" d="M86.3,503.5H35.1C21,503.5,9.5,492,9.5,477.9v-51.2c0-9.4,7.6-17.1,17.1-17.1
			s17.1,7.6,17.1,17.1v42.7h42.7c9.4,0,17.1,7.6,17.1,17.1S95.8,503.5,86.3,503.5z"/>
		<path fill="#E4F9FF" d="M487.4,102.4c-9.4,0-17.1-7.6-17.1-17.1V42.7h-42.7c-9.4,0-17.1-7.6-17.1-17.1
			s7.6-17.1,17.1-17.1h51.2c14.1,0,25.6,11.5,25.6,25.6v51.2C504.5,94.8,496.8,102.4,487.4,102.4z"/>
		<path fill="#ABDDEB" d="M478.9,8.5h-25.6c14.1,0,25.6,11.5,25.6,25.6v51.2c0,4.1-1.5,8.1-4.3,11.2
			c4.7,5.3,12.2,7.2,18.8,4.7c6.6-2.5,11-8.8,11.1-15.9V34.1C504.5,20,493,8.5,478.9,8.5z"/>
		<path fill="#E4F9FF" d="M478.9,503.5h-51.2c-9.4,0-17.1-7.6-17.1-17.1s7.6-17.1,17.1-17.1h42.7v-42.7
			c0-9.4,7.6-17.1,17.1-17.1s17.1,7.6,17.1,17.1v51.2C504.5,492,493,503.5,478.9,503.5z"/>
		<path fill="#ABDDEB" d="M487.4,409.6c-4.9,0-9.6,2.2-12.8,5.9c2.7,3.1,4.2,7.1,4.3,11.2v51.2
			c0,14.1-11.5,25.6-25.6,25.6h25.6c14.1,0,25.6-11.5,25.6-25.6v-51.2C504.5,417.2,496.8,409.6,487.4,409.6z"/>
		<path fill="#E4F9FF" d="M26.6,102.4c4.9,0,9.6-2.2,12.8-5.9c-2.7-3.1-4.2-7.1-4.3-11.2V34.1
			C35.1,20,46.6,8.5,60.7,8.5H35.1C21,8.5,9.5,20,9.5,34.1v51.2C9.5,94.8,17.2,102.4,26.6,102.4z"/>
		<path fill="#E4F9FF" d="M35.1,503.5h25.6c-14.1,0-25.6-11.5-25.6-25.6v-51.2c0-4.1,1.5-8.1,4.3-11.2
			c-4.7-5.3-12.2-7.2-18.8-4.7c-6.6,2.5-11,8.8-11.1,15.9v51.2C9.5,492,21,503.5,35.1,503.5L35.1,503.5z"/>
		<path fill="#FFFFFF" d="M9.5,254.6c-1.5,1.5,4.1,16.6,4.8,18.4C42,348.3,132.5,404.6,241.8,409.6
			c2.7,4.8,7.6,8.1,13.1,8.6c5.5,0.6,11-1.6,14.6-5.7c-0.8-0.9-1.5-1.9-2.1-2.9c-109.1-5-199.5-61.3-227.2-136.5
			c-0.7-1.9-6.2-17.1-4.8-18.4c22.9-93.3,130-147.5,232.3-152.2c0.6-1,1.3-2,2.1-2.9c-3.7-4.2-9.1-6.3-14.6-5.7
			c-5.5,0.6-10.4,3.8-13.1,8.6c-102.3,4.7-209.4,59-232.5,152V254.6z"/>
		<path fill="#FFFFFF" d="M172.5,407.6l4.3-16.6c21.5,5.5,43.5,8.9,65.6,10.1l-0.7,17.1
			C218.4,417,195.2,413.4,172.5,407.6L172.5,407.6z"/>
		<path fill="#46A4BD" d="M208.3,414.5c-4.7,0-8.5-3.8-8.5-8.5s3.8-8.5,8.5-8.5s8.5,3.8,8.5,8.5S213,414.5,208.3,414.5z
			"/>
		<path fill="#46A4BD" d="M257,307.2c14.1,0,25.6-11.5,25.6-25.6c14.1,0,25.6-11.5,25.6-25.6
			c0-14.1-11.5-25.6-25.6-25.6c0-14.1-11.5-25.6-25.6-25.6c-14.1,0-25.6,11.5-25.6,25.6c-14.1,0-25.6,11.5-25.6,25.6
			c0,14.1,11.5,25.6,25.6,25.6C231.4,295.7,242.9,307.2,257,307.2z M222.9,256c0-4.7,3.8-8.5,8.5-8.5h8.5c4.7,0,8.5-3.8,8.5-8.5
			v-8.5c0-4.7,3.8-8.5,8.5-8.5c4.7,0,8.5,3.8,8.5,8.5v8.5c0,4.7,3.8,8.5,8.5,8.5h8.5c4.7,0,8.5,3.8,8.5,8.5c0,4.7-3.8,8.5-8.5,8.5
			h-8.5c-4.7,0-8.5,3.8-8.5,8.5v8.5c0,4.7-3.8,8.5-8.5,8.5c-4.7,0-8.5-3.8-8.5-8.5v-8.5c0-4.7-3.8-8.5-8.5-8.5h-8.5
			C226.7,264.5,222.9,260.7,222.9,256z"/>
		<path fill="#46A4BD" d="M231.4,401.1c0,14.1,11.5,25.6,25.6,25.6c7.5-0.1,14.6-3.4,19.5-9.2
			c109.3-6,201.9-62.5,231-141.4c2-5.5,3.7-10.9,5-16.4c0-0.4,0-0.8,0-1.2c0.3-0.8,0.4-1.6,0.5-2.5c0.1-0.9,0.1-1.7,0-2.6
			c0-0.4,0-0.7,0-1.1c-1.4-5.5-3.1-10.9-5-16.4C478.4,157,385.8,100.5,276.5,94.5c-4.8-5.8-11.9-9.2-19.5-9.2s-14.7,3.4-19.5,9.2
			c-109.3,6-201.9,62.5-231,141.4c-2,5.5-3.7,10.9-5,16.4c0,0.3,0,0.6,0,0.9c-0.3,0.9-0.4,1.8-0.5,2.7c-0.1,0.9-0.1,1.7,0,2.6
			c0,0.4,0,0.7,0,1.1c1.4,5.5,3.1,10.9,5,16.4c13.9,34.6,37.6,64.4,68.1,85.8c29.5,21.4,62.9,37,98.4,45.7c2.2,0.6,4.6,0.2,6.6-1
			c2-1.2,3.3-3.2,3.8-5.4c0.6-2.2,0.2-4.5-0.9-6.5c-1.2-2-3-3.4-5.2-3.9c-33.3-8.1-64.7-22.6-92.5-42.7
			c-22-15.8-40.2-36.4-53.3-60.2c7.8,7.2,16.4,13.5,25.6,18.8c34.9,18.6,72.8,31,112,36.4c20.9,3.3,41.9,5.3,63,6.2v0.6L231.4,401.1
			z M265.5,401.1c0,4.7-3.8,8.5-8.5,8.5c-4.7,0-8.5-3.8-8.5-8.5v-51.2c0-4.7,3.8-8.5,8.5-8.5c4.7,0,8.5,3.8,8.5,8.5V401.1z
			 M282.6,400v-50.1c0,0,0,0,0-0.6c21.1-0.9,42.1-3,63-6.2c36.2-5.2,71.4-16.1,104.3-32.2c12.1-6.2,23.3-13.9,33.5-23
			C450.7,349.9,373.6,393,282.6,400L282.6,400z M402.1,247.5c4.7,0,8.5,3.8,8.5,8.5s-3.8,8.5-8.5,8.5h-51.2c-4.7,0-8.5-3.8-8.5-8.5
			s3.8-8.5,8.5-8.5H402.1z M402.1,281.6c14.1,0,25.6-11.5,25.6-25.6c0-14.1-11.5-25.6-25.6-25.6h-19.7c-2.8-14.1-8.1-27.6-15.6-39.9
			c25.9,5.2,51,13.8,74.7,25.6c-6.9,26.2-6.9,53.7,0,79.9c-23.7,11.8-48.8,20.4-74.7,25.6c7.5-12.3,12.8-25.8,15.6-39.9H402.1z
			 M456.7,287c-4.6-20.4-4.6-41.6,0-62c8.3,5.4,15.8,11.9,22.2,19.5c3.3,3.4,6.2,7.3,8.5,11.5c-2.3,4.2-5.2,8.1-8.5,11.6
			C472.5,275.1,465,281.7,456.7,287z M483.3,224.1c-10.1-9.1-21.4-16.8-33.5-23c-32.9-16.1-68.1-27-104.4-32.2
			c-20.8-3.3-41.8-5.3-62.9-6.2v-0.6V112C373.6,119,450.7,162.1,483.3,224.1z M248.5,110.9c0-4.7,3.8-8.5,8.5-8.5
			c4.7,0,8.5,3.8,8.5,8.5v51.2c0,4.7-3.8,8.5-8.5,8.5c-4.7,0-8.5-3.8-8.5-8.5V110.9z M231.4,112v50.1v0.6c-21.1,0.9-42.1,3-63,6.2
			c-39,5.3-76.7,17.5-111.5,35.8c-9.4,5.3-18.2,11.7-26.2,19C63.2,162.1,140.4,119,231.4,112L231.4,112z M17,272.1l-2.6,1L17,272.1z
			 M35.1,267.5c-3.2-3.5-5.9-7.3-8-11.5c2.2-4.2,4.8-8.2,8-11.7c4.4-5.2,9.3-9.8,14.7-13.9c1.6,8.4,2.4,17,2.4,25.6
			c0,8.6-0.8,17.2-2.4,25.6C44.4,277.5,39.5,272.8,35.1,267.5L35.1,267.5z M65.1,291.8c2.8-11.7,4.2-23.8,4.2-35.8
			c0-12.1-1.4-24.1-4.2-35.8c25.6-13.9,53.2-23.9,81.8-29.5c-7.3,12.3-12.4,25.7-15.2,39.8h-19.8c-14.1,0-25.6,11.5-25.6,25.6
			c0,14.1,11.5,25.6,25.6,25.6h19.8c2.8,14.1,8.1,27.6,15.5,39.9c-28.6-5.6-56.2-15.6-81.8-29.5L65.1,291.8z M111.9,264.5
			c-4.7,0-8.5-3.8-8.5-8.5c0-4.7,3.8-8.5,8.5-8.5h51.2c4.7,0,8.5,3.8,8.5,8.5c0,4.7-3.8,8.5-8.5,8.5H111.9z M171.7,326.1
			c-10.8-12.9-18.5-28.2-22.5-44.5h14c14.1,0,25.6-11.5,25.6-25.6c0-14.1-11.5-25.6-25.6-25.6h-14c4-16.4,11.7-31.6,22.5-44.5
			c22-3.7,44.3-5.9,66.6-6.7c4.8,5.2,11.6,8.1,18.7,8.1c7.1,0,13.8-2.9,18.7-8.1c22.4,0.7,44.8,2.8,67,6.3
			c10.8,13,18.4,28.4,22.3,44.9h-14.1c-14.1,0-25.6,11.5-25.6,25.6c0,14.1,11.5,25.6,25.6,25.6h14.1c-4,16.4-11.8,31.6-22.6,44.5
			c-22.2,3.6-44.5,5.7-67,6.3c-4.8-5.2-11.6-8.1-18.7-8.1c-7.1,0-13.8,2.9-18.7,8.1C215.8,331.8,193.6,329.7,171.7,326.1
			L171.7,326.1z"/>
		<path fill="#46A4BD" d="M26.6,110.9c14.1,0,25.6-11.5,25.6-25.6V51.2h34.1c14.1,0,25.6-11.5,25.6-25.6S100.5,0,86.3,0
			H35.1C16.3,0,1,15.3,1,34.1v51.2C1,99.5,12.5,110.9,26.6,110.9z M18.1,34.1c0-9.4,7.6-17.1,17.1-17.1h51.2c4.7,0,8.5,3.8,8.5,8.5
			s-3.8,8.5-8.5,8.5H43.7c-4.7,0-8.5,3.8-8.5,8.5v42.7c0,4.7-3.8,8.5-8.5,8.5s-8.5-3.8-8.5-8.5V34.1z"/>
		<path fill="#46A4BD" d="M35.1,512h51.2c14.1,0,25.6-11.5,25.6-25.6s-11.5-25.6-25.6-25.6H52.2v-34.1
			c0-14.1-11.5-25.6-25.6-25.6S1,412.5,1,426.7v51.2c0,9.1,3.6,17.7,10,24.1S26.1,512,35.1,512z M18.1,426.7c0-4.7,3.8-8.5,8.5-8.5
			s8.5,3.8,8.5,8.5v42.7c0,4.7,3.8,8.5,8.5,8.5h42.7c4.7,0,8.5,3.8,8.5,8.5s-3.8,8.5-8.5,8.5H35.1c-9.4,0-17.1-7.6-17.1-17.1V426.7z
			"/>
		<path fill="#46A4BD" d="M478.9,0h-51.2c-14.1,0-25.6,11.5-25.6,25.6s11.5,25.6,25.6,25.6h34.1v34.1
			c0,14.1,11.5,25.6,25.6,25.6S513,99.5,513,85.3V34.1C513,15.3,497.7,0,478.9,0z M495.9,85.3c0,4.7-3.8,8.5-8.5,8.5
			s-8.5-3.8-8.5-8.5V42.7c0-4.7-3.8-8.5-8.5-8.5h-42.7c-4.7,0-8.5-3.8-8.5-8.5s3.8-8.5,8.5-8.5h51.2c9.4,0,17.1,7.6,17.1,17.1V85.3z
			"/>
		<path fill="#46A4BD" d="M487.4,401.1c-14.1,0-25.6,11.5-25.6,25.6v34.1h-34.1c-14.1,0-25.6,11.5-25.6,25.6
			s11.5,25.6,25.6,25.6h51.2c18.9,0,34.1-15.3,34.1-34.1v-51.2C513,412.5,501.5,401.1,487.4,401.1z M495.9,477.9
			c0,9.4-7.6,17.1-17.1,17.1h-51.2c-4.7,0-8.5-3.8-8.5-8.5s3.8-8.5,8.5-8.5h42.7c4.7,0,8.5-3.8,8.5-8.5v-42.7c0-4.7,3.8-8.5,8.5-8.5
			s8.5,3.8,8.5,8.5V477.9z"/>
	</symbol>

	<symbol id="info" role="img" aria-labelledby="info_title" viewBox="0 0 330 330">
        <title id="info_title"></title>
        <path d="M165,0C74.019,0,0,74.02,0,165.001C0,255.982,74.019,330,165,330s165-74.018,165-164.999C330,74.02,255.981,0,165,0z
			 M165,300c-74.44,0-135-60.56-135-134.999C30,90.562,90.56,30,165,30s135,60.562,135,135.001C300,239.44,239.439,300,165,300z"/>
		<path d="M164.998,70c-11.026,0-19.996,8.976-19.996,20.009c0,11.023,8.97,19.991,19.996,19.991
			c11.026,0,19.996-8.968,19.996-19.991C184.994,78.976,176.024,70,164.998,70z"/>
		<path d="M165,140c-8.284,0-15,6.716-15,15v90c0,8.284,6.716,15,15,15c8.284,0,15-6.716,15-15v-90C180,146.716,173.284,140,165,140z
			"/>
	</symbol>

</svg>