<svg xmlns="http://www.w3.org/2000/svg" xmlns:xlink="http://www.w3.org/1999/xlink">

    <symbol id="home-play" role="img" aria-labelledby="home-play_title" viewBox="0 0 512 512">
        <title id="home-play_title"></title>
        <path d="M47.127,0v512l417.745-254.837L47.127,0z M87.172,71.676l301.06,185.333L87.172,440.664V71.676z"/>
    </symbol>

    <symbol id="services01" role="img" aria-labelledby="services01_title" viewBox="0 0 512 512">
        <title id="services01_title"></title>
        <path d="m116.024 468.589c0-84.589-36.024-128.589-36.024-128.589v-84.356c0-29.602 18.738-54.827 45-64.462-7.371-2.704-15.335-4.182-23.644-4.182h-12.712c-37.911 0-68.644 30.733-68.644 68.644v84.356s36.024 44 36.024 128.589c0 13.289 12.213 23.411 25.502 23.411h26.948c6.094 0 11.958-2.133 16.526-5.72-5.392-4.234-8.976-10.496-8.976-17.691z" fill="#cee1f2"/>
        <path d="m108.474 512h-26.948c-24.941 0-45.356-20.229-45.507-45.095-.445-73.191-30.282-112.665-31.54-114.29-3.003-3.594-4.479-7.927-4.479-12.615v-84.356c0-48.878 39.766-88.644 88.644-88.644h171.356c11.046 0 20 8.954 20 20s-8.954 20-20 20h-171.356c-26.822 0-48.644 21.822-48.644 48.644v77.954c10.526 15.79 35.579 60.9 36.018 133.064.018 2.844 2.591 5.338 5.508 5.338h26.948c2.917 0 5.491-2.495 5.508-5.339.438-72.163 25.492-117.273 36.018-133.063v-66.598c0-11.046 8.954-20 20-20s20 8.954 20 20v73c0 4.688-1.476 9.021-4.479 12.615-1.258 1.625-31.095 41.099-31.54 114.29-.151 24.866-20.565 45.095-45.507 45.095zm53.526-444c0-37.495-30.505-68-68-68s-68 30.505-68 68 30.505 68 68 68 68-30.505 68-68zm-40 0c0 15.439-12.561 28-28 28s-28-12.561-28-28 12.561-28 28-28 28 12.561 28 28zm390 214v-162c0-66.168-53.832-120-120-120h-32c-29.96 0-58.649 11.103-80.784 31.264-21.98 20.02-35.697 47.281-38.625 76.76-1.091 10.992 6.935 20.787 17.926 21.878 10.993 1.088 20.787-6.935 21.878-17.926 4.075-41.033 38.297-71.976 79.605-71.976h32c44.112 0 80 35.888 80 80v162c0 44.112-35.888 80-80 80h-32c-44.112 0-80-35.888-80-80v-15c0-11.046-8.954-20-20-20s-20 8.954-20 20v15c0 66.168 53.832 120 120 120h32c66.168 0 120-53.832 120-120z" fill="#008ed3"/>
        <path d="m315 147c0-11.046 8.954-20 20-20h82c11.046 0 20 8.954 20 20s-8.954 20-20 20h-82c-11.046 0-20-8.954-20-20zm20 100h42c11.046 0 20-8.954 20-20s-8.954-20-20-20h-42c-11.046 0-20 8.954-20 20s8.954 20 20 20zm131 225h-71v-20c0-11.046-8.954-20-20-20s-20 8.954-20 20v20h-68c-11.046 0-20 8.954-20 20s8.954 20 20 20h179c11.046 0 20-8.954 20-20s-8.954-20-20-20z" fill="#00bff2"/>
    </symbol>

    <symbol id="services02" role="img" aria-labelledby="services02_title" viewBox="0 0 512 512">
        <title id="services02_title"></title>
        <path d="m421 322.658c-8.977 4.681-19.175 7.342-30 7.342-35.898 0-65-29.102-65-65s29.102-65 65-65c10.825 0 21.023 2.661 30 7.342-20.794 10.842-35 32.585-35 57.658s14.206 46.816 35 57.658zm-341 69.383v-272.082c0-55.206 44.644-99.959 99.716-99.959h-60.716c-55.229 0-100 44.771-100 100v272c0 55.228 44.771 100 100 100h60.716c-55.072 0-99.716-44.753-99.716-99.959z" fill="#cee1f2"/>
        <path d="m244 126c0 13.807-11.193 25-25 25s-25-11.193-25-25 11.193-25 25-25 25 11.193 25 25zm232 139c0-46.869-38.131-85-85-85s-85 38.131-85 85 38.131 85 85 85 85-38.131 85-85zm-40 0c0 24.813-20.187 45-45 45s-45-20.187-45-45 20.187-45 45-45 45 20.187 45 45zm-224 247h-92.021c-66.156 0-119.979-53.823-119.979-119.979v-272.042c0-66.156 53.823-119.979 119.979-119.979h184.041c66.178 0 120 53.823 120 119.979 0 11.046-8.954 20-20 20s-20-8.954-20-20c0-44.101-35.878-79.979-79.979-79.979h-184.062c-44.1 0-79.979 35.879-79.979 79.979v272.041c0 44.101 35.879 79.98 79.979 79.98h92.021c11.046 0 20 8.954 20 20s-8.954 20-20 20zm118-386c0 13.807-11.193 25-25 25s-25-11.193-25-25 11.193-25 25-25 25 11.193 25 25zm-172 86c0 13.807-11.193 25-25 25s-25-11.193-25-25 11.193-25 25-25 25 11.193 25 25zm0 86c0 13.807-11.193 25-25 25s-25-11.193-25-25 11.193-25 25-25 25 11.193 25 25zm0 86c0 13.807-11.193 25-25 25s-25-11.193-25-25 11.193-25 25-25 25 11.193 25 25zm86-172c0 13.807-11.193 25-25 25s-25-11.193-25-25 11.193-25 25-25 25 11.193 25 25zm0 86c0 13.807-11.193 25-25 25s-25-11.193-25-25 11.193-25 25-25 25 11.193 25 25zm0 86c0 13.807-11.193 25-25 25s-25-11.193-25-25 11.193-25 25-25 25 11.193 25 25z" fill="#008ed3"/>
        <path d="m492 512c-11.046 0-20-8.954-20-20 0-39.701-32.086-72-71.525-72h-16.949c-39.44 0-71.526 32.299-71.526 72 0 11.046-8.954 20-20 20s-20-8.954-20-20c0-61.757 50.03-112 111.525-112h16.949c61.496 0 111.526 50.243 111.526 112 0 11.046-8.954 20-20 20zm-359-411c-13.807 0-25 11.193-25 25s11.193 25 25 25 25-11.193 25-25-11.193-25-25-25z" fill="#00bff2"/>
    </symbol>

    <symbol id="services03" role="img" aria-labelledby="services03_title" viewBox="0 0 512 512">
        <title id="services03_title"></title>
        <path d="m199.239 135c0-51.123 33.362-94.446 79.5-109.407-11.182-3.625-23.11-5.593-35.5-5.593-63.513 0-115 51.487-115 115s51.487 115 115 115c12.39 0 24.318-1.968 35.5-5.593-46.138-14.961-79.5-58.284-79.5-109.407z" fill="#cee1f2"/>
        <path d="m433 512c-11.046 0-20-8.954-20-20 0-78.299-63.701-142-142-142h-30c-78.299 0-142 63.701-142 142 0 11.046-8.954 20-20 20s-20-8.954-20-20c0-100.355 81.645-182 182-182h30c100.355 0 182 81.645 182 182 0 11.046-8.954 20-20 20zm-44-377c0-74.439-60.561-135-135-135s-135 60.561-135 135 60.561 135 135 135 135-60.561 135-135zm-40 0c0 52.383-42.617 95-95 95s-95-42.617-95-95 42.617-95 95-95 95 42.617 95 95z" fill="#008ed3"/>
        <path d="m255 512c-3.468 0-6.935-.901-10.037-2.701l-81-47c-4.659-2.703-8.03-7.171-9.352-12.393-1.321-5.221-.48-10.755 2.332-15.349l30-49c5.767-9.42 18.08-12.381 27.5-6.614 9.42 5.768 12.381 18.08 6.613 27.5l-19.307 31.536 53.371 30.969 54.749-31.002-19.771-31.252c-5.905-9.334-3.126-21.689 6.209-27.594 9.333-5.906 21.689-3.125 27.594 6.208l31 49c2.927 4.626 3.829 10.249 2.498 15.558-1.332 5.31-4.781 9.841-9.545 12.538l-83 47c-3.057 1.731-6.457 2.596-9.854 2.596z" fill="#00bff2"/>
    </symbol>

    <symbol id="services04" role="img" aria-labelledby="services04_title" viewBox="0 0 512 512">
        <title id="services04_title"></title>
        <path d="m469.167 115.166c-8.285 5.577-18.262 8.834-29 8.834-28.719 0-52-23.281-52-52s23.281-52 52-52c10.738 0 20.715 3.257 29 8.833-13.873 9.338-23 25.186-23 43.167s9.127 33.828 23 43.166zm-23.167 137.834c0-17.981 9.127-33.828 23-43.167-8.285-5.577-18.262-8.833-29-8.833-28.719 0-52 23.281-52 52s23.281 52 52 52c10.738 0 20.715-3.257 29-8.833-13.873-9.339-23-25.186-23-43.167zm0 187c0-17.981 9.127-33.828 23-43.167-8.285-5.577-18.262-8.833-29-8.833-28.719 0-52 23.281-52 52s23.281 52 52 52c10.738 0 20.715-3.257 29-8.833-13.873-9.339-23-25.186-23-43.167zm-329.976 28.589c0-84.589-36.024-128.589-36.024-128.589v-84.356c0-29.602 18.738-54.827 45-64.462-7.371-2.704-15.335-4.182-23.644-4.182h-12.712c-37.911 0-68.644 30.733-68.644 68.644v84.356s36.024 44 36.024 128.589c0 13.289 12.213 23.411 25.502 23.411h26.948c6.094 0 11.958-2.133 16.526-5.72-5.392-4.234-8.976-10.496-8.976-17.691z" fill="#cee1f2"/>
        <path d="m440 326c-39.701 0-72-32.299-72-72s32.299-72 72-72 72 32.299 72 72-32.299 72-72 72zm0-104c-17.645 0-32 14.355-32 32s14.355 32 32 32 32-14.355 32-32-14.355-32-32-32zm0-78c-39.701 0-72-32.299-72-72s32.299-72 72-72 72 32.299 72 72-32.299 72-72 72zm0-104c-17.645 0-32 14.355-32 32s14.355 32 32 32 32-14.355 32-32-14.355-32-32-32zm-331.526 472h-26.948c-25.09 0-45.502-19.474-45.502-43.411 0-75.339-31.184-115.534-31.499-115.919-2.926-3.574-4.525-8.051-4.525-12.67v-84.356c0-48.878 39.766-88.644 88.644-88.644h12.712c48.878 0 88.644 39.766 88.644 88.644v84.356c0 4.688-1.476 9.021-4.479 12.615-1.269 1.64-31.545 41.7-31.545 115.974 0 23.937-20.412 43.411-45.502 43.411zm-68.474-178.403c10.619 15.927 36.023 61.694 36.023 134.992 0 1.316 2.518 3.411 5.502 3.411h26.948c2.984 0 5.502-2.095 5.502-3.411 0-73.297 25.405-119.065 36.024-134.992v-77.953c.001-26.822-21.821-48.644-48.643-48.644h-12.712c-26.822 0-48.644 21.822-48.644 48.644zm130 6.403h.01zm-76-204c-37.495 0-68-30.505-68-68s30.505-68 68-68 68 30.505 68 68-30.505 68-68 68zm0-96c-15.439 0-28 12.561-28 28s12.561 28 28 28 28-12.561 28-28-12.561-28-28-28zm346 472c-39.701 0-72-32.299-72-72s32.299-72 72-72 72 32.299 72 72-32.299 72-72 72zm0-104c-17.645 0-32 14.355-32 32s14.355 32 32 32 32-14.355 32-32-14.355-32-32-32z" fill="#008ed3"/>
        <path d="m313 421c-22.374 0-40.576-18.203-40.576-40.576v-106.424h38.576c11.046 0 20-8.954 20-20s-8.954-20-20-20h-38.576v-103.424c0-22.373 18.202-40.576 40.576-40.576 11.046 0 20-8.954 20-20s-8.954-20-20-20c-44.43 0-80.576 36.146-80.576 80.576v249.848c0 44.43 36.146 80.576 80.576 80.576 11.046 0 20-8.954 20-20s-8.954-20-20-20z" fill="#00bff2"/>
    </symbol>
  
    <symbol id="footer-facebook" role="img" aria-labelledby="footer-facebook_title" viewBox="0 0 512 512">
        <title id="footer-facebook_title">Facebook</title>
        <path d="M314.829,135.492h70.595c11.423,0,20.682-9.26,20.682-20.682V20.682C406.107,9.26,396.848,0,385.425,0h-70.595
            c-76.282,0-138.341,62.06-138.341,138.341v49.913h-49.913c-11.422,0-20.682,9.26-20.682,20.682v94.127
            c0,11.423,9.26,20.682,20.682,20.682h49.913v167.572c0,11.423,9.26,20.682,20.682,20.682h94.127
            c11.423,0,20.682-9.259,20.682-20.682V323.746h49.913c9.49,0,17.763-6.458,20.065-15.666l23.532-94.127
            c1.544-6.179,0.156-12.725-3.763-17.744c-3.919-5.02-9.932-7.954-16.301-7.954H311.98v-49.913
            C311.98,136.77,313.258,135.492,314.829,135.492z M291.298,229.619h67.637l-13.191,52.763h-54.447
            c-11.423,0-20.682,9.259-20.682,20.682v167.572h-52.763V303.064c0-11.423-9.26-20.682-20.682-20.682h-49.913v-52.763h49.913
            c11.422,0,20.682-9.26,20.682-20.682v-70.595c0-53.473,43.503-96.977,96.977-96.977h49.913v52.763h-49.913
            c-24.38,0-44.214,19.835-44.214,44.214v70.595C270.615,220.359,279.875,229.619,291.298,229.619z"/>
    </symbol>

    <symbol id="footer-twitter" role="img" aria-labelledby="footer-twitter_title" viewBox="0 0 512 512">
        <title id="footer-twitter_title">Twitter</title>
        <path d="M502.954,47.189c-7.126-4.852-16.515-4.774-23.559,0.196c-15.351,10.828-31.974,19.528-49.557,25.948
            c-19.253-17.414-43.615-27.826-69.915-29.656c-31.056-2.16-61.081,7.9-84.561,28.326c-25.59,22.259-40.174,54.444-40.046,88.349
            c-85.248-7.609-139.14-61.55-177.09-108.986c-4.598-5.746-11.901-8.619-19.182-7.538c-7.279,1.078-13.438,5.944-16.171,12.777
            c-0.948,2.369-23.141,58.799-17.453,127.057c4.761,57.133,30.23,131.964,120.039,181.717
            c-32.436,14.756-68.282,21.939-103.953,20.519c-9.576-0.378-18.15,5.859-20.736,15.08c-2.587,9.221,1.497,19.013,9.869,23.665
            c51.359,28.532,108.03,43.736,163.889,43.965c0.432,0.002,0.861,0.003,1.294,0.003c54.105-0.001,106.379-13.938,151.246-40.336
            c42.898-25.241,78.416-61.759,102.715-105.603c26.162-47.206,39.427-101.75,39.427-162.186c-0.011-3.544-0.186-7.098-0.52-10.638
            c20.7-22.885,35.388-50.567,42.719-80.667C513.451,60.803,510.081,52.04,502.954,47.189z M432.297,128.07
            c-4.916,4.847-7.088,11.827-5.793,18.607c0.877,4.588,1.329,9.278,1.344,13.874c0,101.956-44.378,186.544-121.756,232.072
            c-60.586,35.649-133.037,43.933-203.609,25.057c0.729-0.201,1.459-0.407,2.185-0.615c27.596-7.885,53.63-20.055,77.377-36.174
            c6.329-4.296,9.77-11.734,8.946-19.34c-0.825-7.605-5.778-14.134-12.881-16.975C97.757,312.434,53.563,257.594,46.757,181.575
            c-2.536-28.334,0.707-54.721,4.766-74.501c16.638,17.909,37.384,37.227,62.129,53.407c42.771,27.966,90.663,42.146,142.346,42.146
            c11.423,0,20.682-9.26,20.682-20.682v-21.393c0-0.045,0-0.091,0-0.137c-0.146-21.948,9.268-42.797,25.829-57.202
            c15.146-13.175,34.51-19.665,54.543-18.27c20.026,1.393,38.311,10.502,51.487,25.648c5.339,6.138,13.783,8.577,21.567,6.229
            c5.725-1.724,11.375-3.645,16.941-5.757C442.599,117.081,437.672,122.769,432.297,128.07z"/>
    </symbol>    

    <symbol id="footer-linkedin" role="img" aria-labelledby="footer-linkedin_title" viewBox="0 0 512 512">
        <title id="footer-linkedin_title">Linkedin</title>
        <path d="M2.5,510V153.7h137.3V510H2.5z M102.5,472.7V191H39.8v281.7H102.5z"/>
        <path d="M375.4,510l0.1-158.1c0.5-23.6-8.8-42.9-24.9-51.7c-5.4-3-11.2-4.5-17.3-4.5c-5.2,0-10.4,1.1-15.5,3.3l-1.1,211H176.1
            V153.7h140.6V166c16.6-6,33.6-9.1,50.6-9.1c24.7,0,48.3,6.4,70.2,18.9c44,25.2,72.5,71.8,72.5,118.8V510H375.4z M472.7,472.7V294.6
            c0-33.8-21.1-67.7-53.7-86.4c-15.9-9.1-33.8-13.9-51.7-14h-0.3c-20.1,0-40.1,5.8-59.6,17.3L279.4,228V191h-66.1v281.7h66.2l1-194.7
            l8.2-5.5c13.7-9.2,29.1-14.1,44.5-14.1c12.4,0,24.2,3,35.1,9c13.7,7.5,25,19.2,32.8,33.8c7.9,14.9,11.9,32.6,11.5,51.1l0,120.3
            H472.7z"/>
        <path d="M70.9,139.9C32.9,139.9,2,109,2,71c0-38,30.9-69,68.9-69c38,0,68.9,30.9,68.9,69C139.8,109,108.9,139.9,70.9,139.9z
             M70.9,39.3c-17.4,0-31.6,14.2-31.6,31.7c0,17.5,14.2,31.7,31.6,31.7c17.4,0,31.6-14.2,31.6-31.7C102.5,53.5,88.3,39.3,70.9,39.3z"
            />
    </symbol>

    <symbol id="footer-instagram" role="img" aria-labelledby="footer-instagram_title" viewBox="0 0 512 512">
        <title id="footer-instagram_title">Instagram</title>
        <path d="M373.659,0H138.341C62.06,0,0,62.06,0,138.341v235.318C0,449.94,62.06,512,138.341,512h235.318
            C449.94,512,512,449.94,512,373.659V138.341C512,62.06,449.94,0,373.659,0z M470.636,373.659
            c0,53.473-43.503,96.977-96.977,96.977H138.341c-53.473,0-96.977-43.503-96.977-96.977V138.341
            c0-53.473,43.503-96.977,96.977-96.977h235.318c53.473,0,96.977,43.503,96.977,96.977V373.659z"/>
        <path d="M370.586,238.141c-3.64-24.547-14.839-46.795-32.386-64.342c-17.547-17.546-39.795-28.746-64.341-32.385
            c-11.176-1.657-22.507-1.657-33.682,0c-30.336,4.499-57.103,20.541-75.372,45.172c-18.269,24.631-25.854,54.903-21.355,85.237
            c4.499,30.335,20.541,57.102,45.172,75.372c19.996,14.831,43.706,22.619,68.153,22.619c5.667,0,11.375-0.418,17.083-1.265
            c30.336-4.499,57.103-20.541,75.372-45.172C367.5,298.747,375.085,268.476,370.586,238.141z M267.791,327.632
            c-19.405,2.882-38.77-1.973-54.527-13.66c-15.757-11.687-26.019-28.811-28.896-48.216c-2.878-19.405,1.973-38.77,13.66-54.527
            c11.688-15.757,28.811-26.019,48.217-28.897c3.574-0.53,7.173-0.795,10.772-0.795s7.199,0.265,10.773,0.796
            c32.231,4.779,57.098,29.645,61.878,61.877C335.608,284.268,307.851,321.692,267.791,327.632z"/>
        <path d="M400.049,111.951c-3.852-3.851-9.183-6.058-14.625-6.058c-5.442,0-10.773,2.206-14.625,6.058
            c-3.851,3.852-6.058,9.174-6.058,14.625c0,5.451,2.207,10.773,6.058,14.625c3.852,3.851,9.183,6.058,14.625,6.058
            c5.442,0,10.773-2.206,14.625-6.058c3.851-3.852,6.058-9.183,6.058-14.625C406.107,121.133,403.9,115.802,400.049,111.951z"/>
    </symbol>

    <symbol id="footer-phone" role="img" aria-labelledby="footer-phone_title" viewBox="0 0 512 512">
        <title id="footer-phone_title"></title>
        <path d="M421.216,195.504c-5.092-26.101-17.723-49.836-36.526-68.64c-18.804-18.803-42.54-31.434-68.641-36.527
            c-11.21-2.189-22.073,5.128-24.261,16.339c-2.187,11.212,5.128,22.073,16.339,24.26c36.847,7.188,65.3,35.642,72.489,72.489
            c1.927,9.874,10.581,16.726,20.278,16.726c1.313,0,2.645-0.125,3.984-0.387C416.088,217.577,423.403,206.715,421.216,195.504z"/>
        <path d="M511.422,196.929c-5.629-50.096-28.373-97.304-64.042-132.927C411.712,28.378,364.475,5.694,314.371,0.128
            c-11.355-1.261-21.578,6.92-22.839,18.272c-1.261,11.353,6.919,21.578,18.272,22.84c84.961,9.438,150.966,75.36,160.512,160.31
            c1.188,10.566,10.139,18.374,20.527,18.374c0.771,0,1.552-0.043,2.336-0.131C504.53,218.516,512.698,208.281,511.422,196.929z"/>
        <path d="M432.59,312.566c-0.062-0.008-0.124-0.017-0.186-0.025c-20.013-2.639-39.751-7.557-58.619-14.596
            c-23.91-8.99-51.103-3.191-69.27,14.772c-0.028,0.028-0.056,0.055-0.083,0.083l-17.148,17.148
            c-42.633-26.924-78.756-63.047-105.679-105.679l17.149-17.149c0.027-0.028,0.054-0.055,0.082-0.083
            c17.964-18.166,23.762-45.356,14.79-69.223c-7.057-18.914-11.974-38.653-14.614-58.666c-0.007-0.063-0.017-0.127-0.026-0.19
            c-4.591-32.478-32.782-56.734-65.548-56.467H66.053c-1.943,0.002-3.912,0.091-5.853,0.267
            C24.143,26.016-2.541,58.001,0.718,94.058c0.01,0.108,0.02,0.215,0.032,0.323c7.684,72.354,32.649,142.88,72.197,203.955
            c35.892,56.461,84.701,105.269,141.162,141.164c60.792,39.406,130.99,64.369,203.013,72.196c0.127,0.015,0.254,0.027,0.38,0.038
            c1.961,0.176,3.949,0.266,5.921,0.266c0.083,0,0.165,0,0.247,0.001c36.204-0.148,65.538-29.722,65.391-65.841v-67.233
            C489.746,345.714,465.515,317.211,432.59,312.566z M447.698,378.695v67.548c0.055,13.396-10.8,24.338-24.19,24.393
            c-0.715-0.004-1.425-0.027-2.135-0.086c-65.578-7.161-129.488-29.914-184.837-65.808c-0.053-0.035-0.107-0.069-0.161-0.103
            c-51.429-32.68-95.885-77.137-128.565-128.565c-0.032-0.051-0.064-0.101-0.097-0.153C71.683,220.306,48.928,156.086,41.902,90.193
            C40.779,76.91,50.63,65.155,63.923,63.954c0.717-0.064,1.443-0.098,2.145-0.098h67.463c0.146-0.001,0.294-0.003,0.443-0.002
            c12.021,0,22.322,8.905,24.044,20.819c3.05,23.063,8.721,45.806,16.871,67.649c3.319,8.832,1.189,18.869-5.427,25.591
            l-28.517,28.517c-6.583,6.582-7.956,16.753-3.354,24.847c33.837,59.508,83.177,108.847,142.685,142.685
            c8.094,4.6,18.264,3.23,24.848-3.355l28.512-28.512c6.72-6.621,16.765-8.752,25.642-5.415
            c21.799,8.134,44.547,13.805,67.61,16.855c12.18,1.757,21.122,12.339,20.816,24.647
            C447.7,378.353,447.698,378.524,447.698,378.695z"/>
    </symbol>    

    <symbol id="footer-mail" role="img" aria-labelledby="footer-mail_title" viewBox="0 0 512 512">
        <title id="footer-mail_title"></title>
        <path d="M256,141.176c-63.306,0-114.809,51.503-114.809,114.809S192.694,370.795,256,370.795s114.809-51.503,114.809-114.809
            S319.306,141.176,256,141.176z M256,329.43c-40.498,0-73.445-32.947-73.445-73.445c0-40.498,32.947-73.445,73.445-73.445
            c40.499,0,73.445,32.947,73.445,73.445C329.445,296.483,296.499,329.43,256,329.43z"/>
        <path d="M437.008,74.97C388.656,26.623,324.375,0,256,0c-0.005,0-0.013,0-0.017,0C187.603,0.004,123.318,26.637,74.97,74.992
            C26.62,123.347-0.005,187.637,0,256.017c0.004,68.379,26.637,132.666,74.992,181.014C123.344,485.377,187.625,512.001,256,512
            c0.004,0,0.012,0,0.017,0c55.945-0.004,111.216-18.738,155.631-52.752c9.07-6.945,10.792-19.927,3.846-28.995
            c-6.945-9.069-19.926-10.794-28.995-3.846c-37.24,28.518-83.58,44.224-130.486,44.228c-0.006,0-0.006,0-0.014,0
            c-57.324,0-111.224-22.324-151.761-62.856c-40.542-40.536-62.871-94.435-62.875-151.766
            C41.357,137.663,137.636,41.372,255.986,41.364c0.007,0,0.006,0,0.014,0c118.34,0,214.628,96.279,214.636,214.622v23.532
            c0,27.523-22.39,49.913-49.913,49.913c-27.523,0-49.913-22.391-49.913-49.913v-23.532c0-11.422-9.259-20.682-20.682-20.682
            s-20.682,9.26-20.682,20.682v23.532c0,50.33,40.947,91.278,91.278,91.278S512,329.848,512,279.518v-23.534
            C511.995,187.604,485.362,123.318,437.008,74.97z"/>
    </symbol>

    <symbol id="footer-location" role="img" aria-labelledby="footer-location_title" viewBox="0 0 512 512">
        <title id="footer-location_title"></title>
        <path d="M406.766,62.449C366.495,22.178,312.951,0,256,0S145.505,22.178,105.234,62.449
            c-40.272,40.271-62.449,93.814-62.449,150.766c0,37.656,10.972,76.863,32.609,116.532c16.825,30.846,40.15,62.102,69.326,92.898
            c49.17,51.903,97.763,84.519,99.808,85.881C248.001,510.842,252,512,256,512c4,0,7.999-1.158,11.473-3.474
            c2.045-1.363,50.638-33.978,99.808-85.881c29.176-30.795,52.501-62.051,69.326-92.898c21.637-39.669,32.609-78.876,32.609-116.532
            C469.215,156.263,447.038,102.72,406.766,62.449z M256.001,465.903C215.826,436.156,84.15,329.739,84.15,213.215
            c0-94.759,77.091-171.851,171.85-171.851s171.85,77.092,171.851,171.851C427.851,329.748,296.159,436.168,256.001,465.903z"/>
        <path d="M256,128.355c-46.791,0-84.86,38.068-84.86,84.86c0,46.791,38.068,84.86,84.86,84.86c46.792,0,84.861-38.068,84.86-84.86
            C340.86,166.423,302.791,128.355,256,128.355z M256,256.71c-23.983,0-43.495-19.512-43.495-43.495
            c0-23.983,19.512-43.495,43.495-43.495c23.984,0,43.495,19.512,43.495,43.495C299.495,237.198,279.984,256.71,256,256.71z"/>
        </symbol>

    <symbol id="footer-time" role="img" aria-labelledby="footer-time_title" viewBox="0 0 512 512">
        <title id="footer-time_title"></title>
        <path d="M437.019,74.981C388.667,26.629,324.38,0,256,0S123.333,26.63,74.981,74.981S0,187.62,0,256
            s26.629,132.667,74.981,181.019C123.332,485.371,187.62,512,256,512s132.667-26.629,181.019-74.981
            C485.371,388.667,512,324.38,512,256S485.371,123.332,437.019,74.981z M256,470.636C137.65,470.636,41.364,374.35,41.364,256
            S137.65,41.364,256,41.364S470.636,137.65,470.636,256S374.35,470.636,256,470.636z"/>
        <path d="M341.221,311.97l-64.538-64.537V114.809c0-11.422-9.259-20.682-20.682-20.682c-11.422,0-20.682,9.26-20.682,20.682V256
            c0,5.486,2.179,10.746,6.058,14.625l70.594,70.595c4.038,4.039,9.332,6.058,14.625,6.058c5.293,0,10.586-2.019,14.626-6.058
            C349.297,333.142,349.297,320.047,341.221,311.97z"/>
    </symbol>

</svg>