<svg xmlns="http://www.w3.org/2000/svg" xmlns:xlink="http://www.w3.org/1999/xlink">

    <symbol id="form-down" role="img" aria-labelledby="form-down_title" viewBox="0 0 240.811 240.811">
        <title id="form-down_title"></title>
        <path id="Expand_More" d="M220.088,57.667l-99.671,99.695L20.746,57.655c-4.752-4.752-12.439-4.752-17.191,0
        c-4.74,4.752-4.74,12.451,0,17.203l108.261,108.297l0,0l0,0c4.74,4.752,12.439,4.752,17.179,0L237.256,74.859
        c4.74-4.752,4.74-12.463,0-17.215C232.528,52.915,224.828,52.915,220.088,57.667z"/>
    </symbol>
  
    <symbol id="aside-menu01" role="img" aria-labelledby="aside-menu01_title" viewBox="0 0 512 512">
        <title id="aside-menu01_title"></title>
        <path d="M113.6,380.9h154.3v40H113.6V380.9z M40,451.9V60c0-11,9-20,20-20h391.9c11,0,20,9,20,20v225.9h40V60c0-33.1-26.9-60-60-60
            H60C26.9,0,0,26.9,0,60v391.9c0,33.1,26.9,60,60,60h230.9v-40H60C49,471.9,40,462.9,40,451.9z M483.7,512l-39.8-39.8
            c-13.5,8.1-29.2,12.7-46,12.7c-49.6,0-90-40.4-90-90c0-49.6,40.4-90,90-90c49.6,0,90,40.4,90,90c0,18.4-5.5,35.4-15,49.7l39.1,39.1
            L483.7,512z M397.9,444.9c27.6,0,50-22.4,50-50s-22.4-50-50-50s-50,22.4-50,50S370.3,444.9,397.9,444.9z M113.6,301.9h154.3v40
            H113.6V301.9z"/>
        <rect x="113.6" y="225.7" width="282.8" height="40"/>
        <polygon points="314,77.8 401.9,134.8 360.5,163.6 314.5,133.7 221.7,195.4 169.4,162.7 142,181 100,152.7 168,107.2 220.5,140 "/>
    </symbol>

    <symbol id="aside-menu02" role="img" aria-labelledby="aside-menu02_title" viewBox="0 0 512 512">
        <title id="aside-menu02_title"></title>
        <path d="m277.102 236h90v39.982h-90v90.018h-40v-90.018h-90v-39.982h90v-91h40zm234.898-176v392c0 33.084-26.916 60-60 60h-392c-33.084 0-60-26.916-60-60v-392c0-33.084 26.916-60 60-60h392c33.084 0 60 26.916 60 60zm-40 0c0-11.028-8.972-20-20-20h-392c-11.028 0-20 8.972-20 20v392c0 11.028 8.972 20 20 20h392c11.028 0 20-8.972 20-20z"/>
    </symbol>

    <symbol id="aside-menu03" role="img" aria-labelledby="aside-menu03_title" viewBox="0 0 512 512">
        <title id="aside-menu03_title"></title>
        <path d="m427 127.570312v-127.570312h-342v127.570312l-85 63.394532v261.035156c0 33.085938 26.914062 60 60 60h392c33.085938 0 60-26.914062 60-60v-261.035156zm29.8125 72.136719-29.8125 22.175781v-44.410156zm-69.8125-159.707031v211.636719l-131 97.4375-131-97.4375v-211.636719zm-302 181.882812-29.8125-22.175781 29.8125-22.234375zm367 250.117188h-392c-11.027344 0-20-8.972656-20-20v-213.738281l216 160.664062 216-160.664062v213.738281c0 11.027344-8.972656 20-20 20zm-176-299h-40v-40h40zm72 0h-40v-40h40zm-145 0h-40v-40h40zm0 0"/>
    </symbol>

    <symbol id="aside-menu04" role="img" aria-labelledby="aside-menu04_title" viewBox="0 0 512 512">
        <title id="aside-menu04_title"></title>
        <path d="M452,0H60C26.9,0,0,26.9,0,60v392c0,33.1,26.9,60,60,60h392c33.1,0,60-26.9,60-60V60C512,26.9,485.1,0,452,0z M472,452
        c0,11-9,20-20,20H60c-11,0-20-9-20-20V60c0-11,9-20,20-20h392c11,0,20,9,20,20V452z"/>
        <rect x="99.3" y="95.1" width="311.4" height="40.2"/>
        <rect x="236" y="135.3" width="39.6" height="285"/>
        <rect x="99.3" y="135.3" width="39.6" height="40"/>
        <rect x="371" y="135.3" width="39.6" height="40"/>
        <rect x="275.7" y="380.3" width="39.6" height="40"/>
        <rect x="196.4" y="380.3" width="39.6" height="40"/>
    </symbol>

    <symbol id="aside-menu05" role="img" aria-labelledby="aside-menu05_title" viewBox="0 0 512 512">
        <title id="aside-menu05_title"></title>
        <rect x="180" y="340" width="122" height="40"/>
        <rect x="180" y="260" width="232" height="40"/>
        <path d="M452,80h-20V60c0-33.084-26.916-60-60-60H60C26.916,0,0,26.916,0,60v312c0,33.084,26.916,60,60,60h20v20
            c0,33.084,26.916,60,60,60h229.828L512,369.145V140C512,106.916,485.084,80,452,80z M80,140v252H60c-11.028,0-20-8.972-20-20V60
            c0-11.028,8.972-20,20-20h312c11.028,0,20,8.972,20,20v20H140C106.916,80,80,106.916,80,140z M381.889,443.177v-42.288
            c0-11.028,8.972-20,20-20h41.99L381.889,443.177z M472,340.889h-70.111c-33.084,0-60,26.916-60,60V472H140
            c-11.028,0-20-8.972-20-20V140c0-11.028,8.972-20,20-20h312c11.028,0,20,8.972,20,20V340.889z"/>
        <rect x="180" y="180" width="232" height="40"/>
    </symbol>

    <symbol id="aside-menu06" role="img" aria-labelledby="aside-menu06_title" viewBox="0 0 512 512">
        <title id="aside-menu06_title"></title>
        <path d="m256 511.285156-89.285156-89.285156h-106.714844c-33.085938 0-60-26.914062-60-60v-302c0-33.085938 26.914062-60 60-60h392c33.085938 0 60 26.914062 60 60v302c0 33.085938-26.914062 60-60 60h-106.714844zm-196-471.285156c-11.027344 0-20 8.972656-20 20v302c0 11.027344 8.972656 20 20 20h123.285156l72.714844 72.714844 72.714844-72.714844h123.285156c11.027344 0 20-8.972656 20-20v-302c0-11.027344-8.972656-20-20-20zm342 70h-292v40h292zm0 80h-292v40h292zm-96 80h-196v40h196zm0 0"/>
    </symbol>

    <symbol id="header-menu01" role="img" aria-labelledby="header-menu01_title" viewBox="0 0 512 512">
        <title id="header-menu01_title"></title>
        <path d="m363.480469 355.234375c18.675781 0 33.867187-15.195313 33.867187-33.867187v-130.734376c0-18.671874-15.191406-33.867187-33.867187-33.867187h-214.960938c-18.675781 0-33.867187 15.195313-33.867187 33.867187v130.734376c0 18.671874 15.191406 33.867187 33.867187 33.867187zm-197.617188-30 66.210938-66.210937 9.675781 6.359374c3.9375 2.625 8.449219 3.9375 12.96875 3.9375 4.476562 0 8.957031-1.289062 12.875-3.875l11.195312-7.558593 67.347657 67.347656zm201.488281-127.136719v105.921875l-63.234374-63.234375zm-36.835937-11.332031-75.847656 51.207031-77.914063-51.207031zm-185.867187 14.800781 61.824218 40.632813-61.824218 61.820312zm0 0"/>
        <path d="m437.019531 74.980469c-48.351562-48.351563-112.640625-74.980469-181.019531-74.980469-56.941406 0-111.152344 18.519531-155.628906 52.691406l.210937-8.875c.195313-8.28125-6.355469-15.15625-14.640625-15.351562-8.289062-.183594-15.152344 6.355468-15.351562 14.640625l-.84375 35.582031c-.273438 11.546875 8.175781 21.238281 19.652344 22.542969l39.277343 4.359375c7.527344 0 14.019531-5.65625 14.886719-13.3125.933594-8.230469-4.980469-15.660156-13.214844-16.59375l-9.253906-1.050782c38.789062-28.960937 85.691406-44.632812 134.90625-44.632812 60.367188 0 117.121094 23.507812 159.804688 66.195312 42.6875 42.683594 66.195312 99.4375 66.195312 159.804688 0 28.390625-5.191406 56.070312-15.433594 82.265625-3.015625 7.714844.792969 16.414063 8.507813 19.429687 1.792969.703126 3.640625 1.035157 5.457031 1.035157 5.996094 0 11.660156-3.621094 13.976562-9.542969 11.605469-29.691406 17.492188-61.042969 17.492188-93.1875 0-68.378906-26.628906-132.667969-74.980469-181.019531zm0 0"/>
        <path d="m423.882812 411.015625-39.789062-4.65625c-8.226562-.960937-15.679688 4.929687-16.644531 13.15625-.960938 8.226563 4.929687 15.679687 13.15625 16.640625l10.539062 1.234375c-38.449219 28.945313-85.429687 44.609375-135.144531 44.609375-60.367188 0-117.121094-23.507812-159.804688-66.195312-42.6875-42.683594-66.195312-99.4375-66.195312-159.804688 0-37.25 9.25-74.167969 26.753906-106.761719 3.917969-7.296875 1.179688-16.390625-6.121094-20.308593-7.296874-3.921876-16.394531-1.183594-20.3125 6.117187-19.835937 36.941406-30.320312 78.765625-30.320312 120.953125 0 68.378906 26.628906 132.667969 74.980469 181.019531 48.351562 48.351563 112.640625 74.980469 181.019531 74.980469 56.964844 0 110.796875-18.191406 154.699219-51.785156l-.148438 7.027344c-.171875 8.28125 6.398438 15.140624 14.683594 15.3125.105469.003906.214844.003906.320313.003906 8.136718 0 14.816406-6.511719 14.992187-14.6875l.769531-36.835938c.21875-10.226562-7.277344-18.835937-17.433594-20.019531zm0 0"/>
    </symbol>

    <symbol id="header-menu02" role="img" aria-labelledby="header-menu02_title" viewBox="1 -19 511.99898 511">
        <title id="header-menu02_title"></title>
        <path d="m479.460938 193.480469h-78.914063v-151.105469c0-23.089844-18.785156-41.875-41.875-41.875h-316.796875c-23.089844 0-41.875 18.785156-41.875 41.875v231.027344c0 23.089844 18.785156 41.875 41.875 41.875h30.785156l22.34375 89.359375c1.402344 5.628906 5.855469 9.980469 11.511719 11.261719 1.128906.253906 2.261719.378906 3.390625.378906 4.527344-.003906 8.894531-2.007813 11.847656-5.589844l78.714844-95.410156h41.210938v60.417968c0 17.941407 14.59375 32.539063 32.539062 32.539063h103.546875l49.375 59.847656c2.957031 3.582031 7.324219 5.585938 11.851563 5.585938 1.125 0 2.261718-.125 3.386718-.378907 5.65625-1.277343 10.109375-5.632812 11.515625-11.257812l13.449219-53.796875h12.117188c17.941406 0 32.539062-14.597656 32.539062-32.539063v-149.675781c0-17.945312-14.597656-32.539062-32.539062-32.539062zm-286.234376 91.074219c-4.585937 0-8.929687 2.046874-11.847656 5.585937l-63.953125 77.515625-17.867187-71.464844c-1.707032-6.839844-7.851563-11.636718-14.902344-11.636718h-42.78125c-6.148438 0-11.148438-5.003907-11.148438-11.152344v-231.027344c0-6.148438 5-11.152344 11.148438-11.152344h316.796875c6.148437 0 11.148437 5.003906 11.148437 11.152344v231.027344c0 6.148437-5 11.152344-11.148437 11.152344zm288.046876 91.140624c0 1-.8125 1.8125-1.8125 1.8125h-24.109376c-7.050781 0-13.195312 4.800782-14.902343 11.636719l-8.980469 35.902344-34.609375-41.953125c-2.917969-3.535156-7.265625-5.585938-11.847656-5.585938h-110.792969c-1 0-1.816406-.8125-1.816406-1.8125v-60.417968h86.269531c23.089844 0 41.871094-18.785156 41.871094-41.875v-49.199219h78.917969c1 0 1.8125.8125 1.8125 1.816406zm0 0"/>
        <path d="m249.402344 245.082031c-2.445313 0-4.898438-.582031-7.148438-1.765625l-41.980468-22.070312-41.984376 22.070312c-5.175781 2.722656-11.445312 2.269532-16.179687-1.171875-4.730469-3.433593-7.097656-9.261719-6.109375-15.023437l8.019531-46.75-33.96875-33.105469c-4.183593-4.082031-5.691406-10.1875-3.886719-15.75 1.808594-5.558594 6.617188-9.613281 12.402344-10.453125l46.9375-6.820312 20.992188-42.535157c2.589844-5.242187 7.929687-8.5625 13.777344-8.5625 5.847656 0 11.1875 3.320313 13.773437 8.5625l20.992187 42.535157 46.9375 6.820312c5.789063.839844 10.597657 4.894531 12.402344 10.453125 1.808594 5.5625.300782 11.667969-3.886718 15.75l-33.964844 33.105469 8.015625 46.75c.988281 5.761718-1.378907 11.589844-6.109375 15.023437-2.675782 1.949219-5.84375 2.9375-9.03125 2.9375zm-95.613282-98.089843 17.457032 17.019531c3.621094 3.527343 5.273437 8.613281 4.417968 13.597656l-4.121093 24.027344 21.582031-11.34375c4.472656-2.355469 9.820312-2.355469 14.296875 0l21.578125 11.34375-4.121094-24.027344c-.855468-4.984375.796875-10.070313 4.417969-13.597656l17.457031-17.019531-24.125-3.507813c-5.003906-.726563-9.332031-3.867187-11.566406-8.402344l-10.789062-21.863281-10.789063 21.863281c-2.242187 4.535157-6.566406 7.675781-11.570313 8.402344zm0 0"/>
    </symbol>

    <symbol id="header-menu03" role="img" aria-labelledby="header-menu03_title" viewBox="0 0 512 512">
        <title id="header-menu03_title"></title>
        <path d="M467,16H45C20.2,16,0,36.2,0,61v300c0,24.8,20.2,45,45,45h46v75c0,6.1,3.7,11.5,9.3,13.9c1.9,0.8,3.8,1.1,5.7,1.1
            c3.9,0,7.7-1.5,10.6-4.4l85.6-85.6H467c24.8,0,45-20.2,45-45V61C512,36.2,491.8,16,467,16z M482,361c0,8.3-6.7,15-15,15H196
            c-4,0-7.8,1.6-10.6,4.4L121,444.8V391c0-8.3-6.7-15-15-15H45c-8.3,0-15-6.7-15-15V61c0-8.3,6.7-15,15-15h422c8.3,0,15,6.7,15,15
            V361z"/>
        <path d="M120.1,181v150c0,8.3,6.7,15,15,15h30c12.5,0,23.9-5.2,32-13.4l17.9,6.1c14.1,4.8,28.9,7.3,43.8,7.3H328
            c21.4,0,39.9-15.2,44.1-36.2l18-90C395.7,192,374.4,166,346,166h-30.9v-30c0-33.1-26.9-60-60-60c-16.5,0-30,13.5-30,30v27.3
            c0,15.3-7.7,29.5-20.6,37.8l-9.6,6.2c-7.9-7-18.4-11.3-29.8-11.3h-30C126.8,166,120.1,172.7,120.1,181z M210.1,301v-90
            c0-2.5-0.2-5-0.6-7.4l11.3-7.3c21.5-13.9,34.3-37.4,34.3-63V106c16.5,0,30,13.5,30,30v45c0,8.3,6.7,15,15,15H346
            c9.5,0,16.6,8.7,14.7,17.9l-18,90c-1.4,7-7.6,12.1-14.7,12.1h-69.2c-11.6,0-23.1-1.9-34.1-5.7l-14.9-5.1
            C210,303.8,210.1,302.4,210.1,301z M150.1,196h15c8.3,0,15,6.7,15,15v90c0,8.3-6.7,15-15,15h-15V196z"/>
    </symbol>

    <symbol id="header-menu04" role="img" aria-labelledby="header-menu04_title" viewBox="0 0 512 512">
        <title id="header-menu04_title"></title>
        <path d="m467 0h-422c-24.8125 0-45 20.1875-45 45v422c0 24.8125 20.1875 45 45 45h422c24.8125 0 45-20.1875 45-45v-422c0-24.8125-20.1875-45-45-45zm-422 30h422c8.269531 0 15 6.730469 15 15v76h-452v-76c0-8.269531 6.730469-15 15-15zm422 452h-422c-8.269531 0-15-6.730469-15-15v-316h452v316c0 8.269531-6.730469 15-15 15zm0 0"/>
        <path d="m91 75c0 8.285156-6.714844 15-15 15s-15-6.714844-15-15 6.714844-15 15-15 15 6.714844 15 15zm0 0"/>
        <path d="m151 75c0 8.285156-6.714844 15-15 15s-15-6.714844-15-15 6.714844-15 15-15 15 6.714844 15 15zm0 0"/>
        <path d="m211 75c0 8.285156-6.714844 15-15 15s-15-6.714844-15-15 6.714844-15 15-15 15 6.714844 15 15zm0 0"/>
        <path d="m316 90h120c8.285156 0 15-6.714844 15-15s-6.714844-15-15-15h-120c-8.285156 0-15 6.714844-15 15s6.714844 15 15 15zm0 0"/>
        <path d="m316 212h-162.292969l-2.910156-17.464844c-1.207031-7.234375-7.464844-12.535156-14.796875-12.535156h-60c-8.285156 0-15 6.714844-15 15s6.714844 15 15 15h47.292969l16.417969 98.511719c-11.320313 8.179687-18.710938 21.484375-18.710938 36.488281 0 24.8125 20.1875 45 45 45h120c8.285156 0 15-6.714844 15-15s-6.714844-15-15-15h-120c-8.269531 0-15-6.730469-15-15s6.730469-15 15-15h120c6.457031 0 12.1875-4.132812 14.230469-10.257812l30-90c3.230469-9.695313-3.996094-19.742188-14.230469-19.742188zm-40.8125 90h-106.480469l-10-60h136.480469zm0 0"/>
        <path d="m436 212h-60c-8.285156 0-15 6.714844-15 15s6.714844 15 15 15h60c8.285156 0 15-6.714844 15-15s-6.714844-15-15-15zm0 0"/>
        <path d="m436 272h-60c-8.285156 0-15 6.714844-15 15s6.714844 15 15 15h60c8.285156 0 15-6.714844 15-15s-6.714844-15-15-15zm0 0"/>
        <path d="m436 332h-60c-8.285156 0-15 6.714844-15 15s6.714844 15 15 15h60c8.285156 0 15-6.714844 15-15s-6.714844-15-15-15zm0 0"/>
        <path d="m436 392h-60c-8.285156 0-15 6.714844-15 15s6.714844 15 15 15h60c8.285156 0 15-6.714844 15-15s-6.714844-15-15-15zm0 0"/>
        <path d="m151 422c0 16.542969 13.457031 30 30 30s30-13.457031 30-30-13.457031-30-30-30-30 13.457031-30 30zm0 0"/>
        <path d="m241 422c0 16.542969 13.457031 30 30 30s30-13.457031 30-30-13.457031-30-30-30-30 13.457031-30 30zm0 0"/>
    </symbol>

    <symbol id="header-menu05" role="img" aria-labelledby="header-menu05_title" viewBox="0 0 512 512">
        <title id="header-menu05_title"></title>
        <path d="m456 20h-70v-5c0-8.284-6.716-15-15-15s-15 6.716-15 15v5h-85v-5c0-8.284-6.716-15-15-15s-15 6.716-15 15v5h-85v-5c0-8.284-6.716-15-15-15s-15 6.716-15 15v5h-70c-8.284 0-15 6.716-15 15v462c0 8.284 6.716 15 15 15h400c8.284 0 15-6.716 15-15v-462c0-8.284-6.716-15-15-15zm-15 462h-370v-432h55v12.58c-17.459 6.192-30 22.865-30 42.42 0 24.813 20.187 45 45 45s45-20.187 45-45c0-19.555-12.541-36.228-30-42.42v-12.58h85v12.58c-17.459 6.192-30 22.865-30 42.42 0 24.813 20.187 45 45 45s45-20.187 45-45c0-19.555-12.541-36.228-30-42.42v-12.58h85v12.58c-17.459 6.192-30 22.865-30 42.42 0 24.813 20.187 45 45 45s45-20.187 45-45c0-19.555-12.541-36.228-30-42.42v-12.58h55zm-300-392c8.271 0 15 6.729 15 15s-6.729 15-15 15-15-6.729-15-15 6.729-15 15-15zm115 0c8.271 0 15 6.729 15 15s-6.729 15-15 15-15-6.729-15-15 6.729-15 15-15zm115 0c8.271 0 15 6.729 15 15s-6.729 15-15 15-15-6.729-15-15 6.729-15 15-15z"/>
        <path d="m386.606 176.394c-5.857-5.858-15.355-5.858-21.213 0l-14.876 14.876c-37.119-26.917-89.468-23.671-122.898 9.761l-46.876 46.876-42.144 13.074c-8.439 2.618-14.743 9.302-16.863 17.879-2.12 8.578.344 17.429 6.592 23.676l34.248 34.248-10.606 10.607c-8.5 8.499-13.18 19.8-13.18 31.82s4.681 23.32 13.18 31.819c8.5 8.5 19.8 13.18 31.82 13.18s23.321-4.681 31.82-13.18l10.607-10.607 34.247 34.247c4.773 4.773 11.064 7.339 17.593 7.338 2.017 0 4.059-.245 6.083-.746 8.578-2.12 15.262-8.424 17.879-16.862l13.074-42.145 46.876-46.876c33.431-33.431 36.677-85.78 9.761-122.898l14.877-14.877c5.857-5.855 5.857-15.353-.001-21.21zm-192.21 213.424c-2.833 2.833-6.6 4.393-10.607 4.393-4.006 0-7.773-1.56-10.606-4.393-2.833-2.833-4.393-6.6-4.393-10.606 0-4.007 1.56-7.773 4.394-10.607l10.606-10.606 21.213 21.213zm146.36-75.65-49.498 49.498c-1.722 1.722-2.999 3.836-3.72 6.162l-11.719 37.774-120.422-120.422 37.774-11.719c2.326-.721 4.44-1.998 6.162-3.72l49.498-49.498c25.343-25.343 66.58-25.344 91.924 0 25.344 25.345 25.344 66.582.001 91.925z"/>
    </symbol>

    <symbol id="header-menu06" role="img" aria-labelledby="header-menu06_title" viewBox="0 0 512 512">
        <title id="header-menu06_title"></title>
        <path d="M467,0H135c-24.813,0-45,20.187-45,45v15H15C6.716,60,0,66.716,0,75v377c0,33.084,26.916,60,60,60c0,0,0,0,0.001,0H467
            c24.813,0,45-20.187,45-45V45C512,20.187,491.813,0,467,0z M90,452c0,16.542-13.458,30-30,30s-30-13.458-30-30V90h60
            C90,92.386,90,444.746,90,452z M482,467c0,8.271-6.729,15-15,15H111.928c5.123-8.833,8.072-19.075,8.072-30
            c0-17.793,0-359.352,0-377V45c0-8.271,6.729-15,15-15h332c8.271,0,15,6.729,15,15V467z"/>
        <path d="M437,60H165c-8.284,0-15,6.716-15,15v122c0,8.284,6.716,15,15,15h272c8.284,0,15-6.716,15-15V75
            C452,66.716,445.284,60,437,60z M422,182H180V90h242V182z"/>
        <path d="M256,362h-91c-8.284,0-15,6.716-15,15v60c0,8.284,6.716,15,15,15h91c8.284,0,15-6.716,15-15v-60
            C271,368.716,264.284,362,256,362z M241,422h-61v-30h61V422z"/>
        <path d="M256,242h-91c-8.284,0-15,6.716-15,15s6.716,15,15,15h91c8.284,0,15-6.716,15-15S264.284,242,256,242z"/>
        <path d="M256,302h-91c-8.284,0-15,6.716-15,15s6.716,15,15,15h91c8.284,0,15-6.716,15-15S264.284,302,256,302z"/>
        <path d="M437,242H316c-8.284,0-15,6.716-15,15s6.716,15,15,15h121c8.284,0,15-6.716,15-15S445.284,242,437,242z"/>
        <path d="M437,302H316c-8.284,0-15,6.716-15,15s6.716,15,15,15h121c8.284,0,15-6.716,15-15S445.284,302,437,302z"/>
        <path d="M437,362H316c-8.284,0-15,6.716-15,15s6.716,15,15,15h121c8.284,0,15-6.716,15-15S445.284,362,437,362z"/>
        <path d="M437,422H316c-8.284,0-15,6.716-15,15s6.716,15,15,15h121c8.284,0,15-6.716,15-15S445.284,422,437,422z"/>
    </symbol>

    <symbol id="header-flag01" role="img" aria-labelledby="header-flag01_title" viewBox="0 0 512 512">
        <title id="header-flag01_title"></title>
        <path style="fill:#F5F5F5;" d="M503.172,423.725H8.828c-4.875,0-8.828-3.953-8.828-8.828V97.104c0-4.875,3.953-8.828,8.828-8.828
        h494.345c4.875,0,8.828,3.953,8.828,8.828v317.793C512,419.773,508.047,423.725,503.172,423.725z"/>
        <path style="fill:#FF4B55;" d="M512,114.081H0V97.104c0-4.875,3.953-8.828,8.828-8.828h494.345c4.875,0,8.828,3.953,8.828,8.828
            L512,114.081L512,114.081z"/>
        <rect y="191.491" style="fill:#FF4B55;" width="512" height="25.804"/>
        <rect y="139.881" style="fill:#FF4B55;" width="512" height="25.804"/>
        <path style="fill:#FF4B55;" d="M512,268.903H8.828c-4.875,0-8.828-3.953-8.828-8.828v-16.977h512V268.903z"/>
        <rect y="346.321" style="fill:#FF4B55;" width="512" height="25.804"/>
        <path style="fill:#FF4B55;" d="M503.172,423.725H8.828c-4.875,0-8.828-3.953-8.828-8.828v-16.976h512v16.977
            C512,419.773,508.047,423.725,503.172,423.725z"/>
        <rect y="294.711" style="fill:#FF4B55;" width="512" height="25.804"/>
        <path style="fill:#41479B;" d="M229.517,88.277H8.828C3.953,88.277,0,92.229,0,97.104v162.97c0,4.875,3.953,8.828,8.828,8.828
            h220.69c4.875,0,8.828-3.953,8.828-8.828V97.104C238.345,92.229,234.392,88.277,229.517,88.277z"/>
        <path style="fill:#F5F5F5;" d="M24.789,108.538l1.954,5.86l6.177,0.047c0.8,0.007,1.131,1.027,0.488,1.502l-4.969,3.67l1.864,5.889
            c0.242,0.762-0.627,1.394-1.278,0.928L24,122.843l-5.025,3.592c-0.651,0.465-1.518-0.166-1.278-0.928l1.864-5.889l-4.969-3.67
            c-0.643-0.476-0.312-1.495,0.488-1.502l6.177-0.047l1.954-5.86C23.463,107.779,24.535,107.779,24.789,108.538z"/>
        <path style="fill:#F5F5F5;" d="M24.789,139.192l1.954,5.86l6.177,0.047c0.8,0.007,1.131,1.027,0.488,1.502l-4.969,3.67l1.864,5.889
            c0.242,0.762-0.627,1.394-1.278,0.928L24,153.497l-5.025,3.592c-0.651,0.465-1.518-0.166-1.278-0.928l1.864-5.889l-4.969-3.67
            c-0.643-0.476-0.312-1.495,0.488-1.502l6.177-0.047l1.954-5.86C23.463,138.434,24.535,138.434,24.789,139.192z"/>
        <path style="fill:#F5F5F5;" d="M24.789,169.846l1.954,5.86l6.177,0.047c0.8,0.007,1.131,1.027,0.488,1.502l-4.969,3.67l1.864,5.889
            c0.242,0.762-0.627,1.394-1.278,0.928L24,184.151l-5.025,3.592c-0.651,0.465-1.518-0.166-1.278-0.928l1.864-5.889l-4.969-3.67
            c-0.643-0.476-0.312-1.495,0.488-1.502l6.177-0.047l1.954-5.86C23.463,169.088,24.535,169.088,24.789,169.846z"/>
        <path style="fill:#F5F5F5;" d="M24.789,200.501l1.954,5.86l6.177,0.047c0.8,0.007,1.131,1.027,0.488,1.502l-4.969,3.67l1.864,5.889
            c0.242,0.762-0.627,1.394-1.278,0.928L24,214.806l-5.025,3.592c-0.651,0.465-1.518-0.166-1.278-0.928l1.864-5.889l-4.969-3.67
            c-0.643-0.476-0.312-1.495,0.488-1.502l6.177-0.047l1.954-5.86C23.463,199.742,24.535,199.742,24.789,200.501z"/>
        <path style="fill:#F5F5F5;" d="M24.789,231.155l1.954,5.86l6.177,0.047c0.8,0.007,1.131,1.027,0.488,1.502l-4.969,3.67l1.864,5.889
            c0.242,0.762-0.627,1.394-1.278,0.928L24,245.46l-5.025,3.592c-0.651,0.465-1.518-0.166-1.278-0.928l1.864-5.889l-4.969-3.67
            c-0.643-0.476-0.312-1.495,0.488-1.502l6.177-0.047l1.954-5.86C23.463,230.395,24.535,230.395,24.789,231.155z"/>
        <path style="fill:#F5F5F5;" d="M48.582,123.567l1.954,5.86l6.177,0.047c0.8,0.007,1.131,1.027,0.488,1.502l-4.969,3.67l1.864,5.889
            c0.242,0.762-0.627,1.394-1.278,0.928l-5.025-3.592l-5.025,3.592c-0.651,0.465-1.518-0.166-1.278-0.928l1.864-5.889l-4.969-3.67
            c-0.643-0.476-0.312-1.495,0.488-1.502l6.177-0.047l1.954-5.86C47.255,122.809,48.329,122.809,48.582,123.567z"/>
        <path style="fill:#F5F5F5;" d="M48.582,154.222l1.954,5.86l6.177,0.047c0.8,0.007,1.131,1.027,0.488,1.502l-4.969,3.67l1.864,5.889
            c0.242,0.762-0.627,1.394-1.278,0.928l-5.025-3.592l-5.025,3.592c-0.651,0.465-1.518-0.165-1.278-0.928l1.864-5.889l-4.969-3.67
            c-0.643-0.476-0.312-1.495,0.488-1.502l6.177-0.047l1.954-5.86C47.255,153.463,48.329,153.463,48.582,154.222z"/>
        <path style="fill:#F5F5F5;" d="M48.582,184.876l1.954,5.86l6.177,0.047c0.8,0.007,1.131,1.027,0.488,1.502l-4.969,3.67l1.864,5.889
            c0.242,0.762-0.627,1.394-1.278,0.928l-5.025-3.592l-5.025,3.592c-0.651,0.465-1.518-0.166-1.278-0.928l1.864-5.889l-4.969-3.67
            c-0.643-0.476-0.312-1.495,0.488-1.502l6.177-0.047l1.954-5.86C47.255,184.117,48.329,184.117,48.582,184.876z"/>
        <path style="fill:#F5F5F5;" d="M48.582,215.53l1.954,5.86l6.177,0.047c0.8,0.007,1.131,1.027,0.488,1.502l-4.969,3.67l1.864,5.889
            c0.242,0.762-0.627,1.394-1.278,0.928l-5.025-3.592l-5.025,3.592c-0.651,0.465-1.518-0.166-1.278-0.928l1.864-5.889l-4.969-3.67
            c-0.643-0.476-0.312-1.495,0.488-1.502l6.177-0.047l1.954-5.86C47.255,214.772,48.329,214.772,48.582,215.53z"/>
        <path style="fill:#F5F5F5;" d="M72.375,108.538l1.954,5.86l6.177,0.047c0.8,0.007,1.131,1.027,0.488,1.502l-4.969,3.67l1.864,5.889
            c0.242,0.762-0.627,1.394-1.278,0.928l-5.025-3.592l-5.025,3.592c-0.651,0.465-1.518-0.166-1.278-0.928l1.864-5.889l-4.969-3.67
            c-0.643-0.476-0.312-1.495,0.488-1.502l6.177-0.047l1.954-5.86C71.049,107.779,72.122,107.779,72.375,108.538z"/>
        <path style="fill:#F5F5F5;" d="M72.375,139.192l1.954,5.86l6.177,0.047c0.8,0.007,1.131,1.027,0.488,1.502l-4.969,3.67l1.864,5.889
            c0.242,0.762-0.627,1.394-1.278,0.928l-5.025-3.592l-5.025,3.592c-0.651,0.465-1.518-0.166-1.278-0.928l1.864-5.889l-4.969-3.67
            c-0.643-0.476-0.312-1.495,0.488-1.502l6.177-0.047l1.954-5.86C71.049,138.434,72.122,138.434,72.375,139.192z"/>
        <path style="fill:#F5F5F5;" d="M72.375,169.846l1.954,5.86l6.177,0.047c0.8,0.007,1.131,1.027,0.488,1.502l-4.969,3.67l1.864,5.889
            c0.242,0.762-0.627,1.394-1.278,0.928l-5.025-3.592l-5.025,3.592c-0.651,0.465-1.518-0.166-1.278-0.928l1.864-5.889l-4.969-3.67
            c-0.643-0.476-0.312-1.495,0.488-1.502l6.177-0.047l1.954-5.86C71.049,169.088,72.122,169.088,72.375,169.846z"/>
        <path style="fill:#F5F5F5;" d="M72.375,200.501l1.954,5.86l6.177,0.047c0.8,0.007,1.131,1.027,0.488,1.502l-4.969,3.67l1.864,5.889
            c0.242,0.762-0.627,1.394-1.278,0.928l-5.025-3.592l-5.025,3.592c-0.651,0.465-1.518-0.166-1.278-0.928l1.864-5.889l-4.969-3.67
            c-0.643-0.476-0.312-1.495,0.488-1.502l6.177-0.047l1.954-5.86C71.049,199.742,72.122,199.742,72.375,200.501z"/>
        <path style="fill:#F5F5F5;" d="M72.375,231.155l1.954,5.86l6.177,0.047c0.8,0.007,1.131,1.027,0.488,1.502l-4.969,3.67l1.864,5.889
            c0.242,0.762-0.627,1.394-1.278,0.928l-5.025-3.592l-5.025,3.592c-0.651,0.465-1.518-0.166-1.278-0.928l1.864-5.889l-4.969-3.67
            c-0.643-0.476-0.312-1.495,0.488-1.502l6.177-0.047l1.954-5.86C71.049,230.395,72.122,230.395,72.375,231.155z"/>
        <path style="fill:#F5F5F5;" d="M96.169,123.567l1.954,5.86l6.177,0.047c0.8,0.007,1.131,1.027,0.488,1.502l-4.969,3.67l1.864,5.889
            c0.242,0.762-0.627,1.394-1.278,0.928l-5.025-3.592l-5.025,3.592c-0.651,0.465-1.518-0.166-1.278-0.928l1.864-5.889l-4.969-3.67
            c-0.643-0.476-0.312-1.495,0.488-1.502l6.177-0.047l1.954-5.86C94.842,122.809,95.916,122.809,96.169,123.567z"/>
        <path style="fill:#F5F5F5;" d="M96.169,154.222l1.954,5.86l6.177,0.047c0.8,0.007,1.131,1.027,0.488,1.502l-4.969,3.67l1.864,5.889
            c0.242,0.762-0.627,1.394-1.278,0.928l-5.025-3.592l-5.025,3.592c-0.651,0.465-1.518-0.165-1.278-0.928l1.864-5.889l-4.969-3.67
            c-0.643-0.476-0.312-1.495,0.488-1.502l6.177-0.047l1.954-5.86C94.842,153.463,95.916,153.463,96.169,154.222z"/>
        <path style="fill:#F5F5F5;" d="M96.169,184.876l1.954,5.86l6.177,0.047c0.8,0.007,1.131,1.027,0.488,1.502l-4.969,3.67l1.864,5.889
            c0.242,0.762-0.627,1.394-1.278,0.928l-5.025-3.592l-5.025,3.592c-0.651,0.465-1.518-0.166-1.278-0.928l1.864-5.889l-4.969-3.67
            c-0.643-0.476-0.312-1.495,0.488-1.502l6.177-0.047l1.954-5.86C94.842,184.117,95.916,184.117,96.169,184.876z"/>
        <path style="fill:#F5F5F5;" d="M96.169,215.53l1.954,5.86l6.177,0.047c0.8,0.007,1.131,1.027,0.488,1.502l-4.969,3.67l1.864,5.889
            c0.242,0.762-0.627,1.394-1.278,0.928l-5.025-3.592l-5.025,3.592c-0.651,0.465-1.518-0.166-1.278-0.928l1.864-5.889l-4.969-3.67
            c-0.643-0.476-0.312-1.495,0.488-1.502l6.177-0.047l1.954-5.86C94.842,214.772,95.916,214.772,96.169,215.53z"/>
        <path style="fill:#F5F5F5;" d="M119.962,108.538l1.954,5.86l6.177,0.047c0.8,0.007,1.131,1.027,0.488,1.502l-4.969,3.67
            l1.864,5.889c0.242,0.762-0.627,1.394-1.278,0.928l-5.026-3.592l-5.025,3.592c-0.651,0.465-1.518-0.166-1.278-0.928l1.864-5.889
            l-4.969-3.67c-0.643-0.476-0.312-1.495,0.488-1.502l6.177-0.047l1.954-5.86C118.636,107.779,119.709,107.779,119.962,108.538z"/>
        <path style="fill:#F5F5F5;" d="M119.962,139.192l1.954,5.86l6.177,0.047c0.8,0.007,1.131,1.027,0.488,1.502l-4.969,3.67
            l1.864,5.889c0.242,0.762-0.627,1.394-1.278,0.928l-5.026-3.592l-5.025,3.592c-0.651,0.465-1.518-0.166-1.278-0.928l1.864-5.889
            l-4.969-3.67c-0.643-0.476-0.312-1.495,0.488-1.502l6.177-0.047l1.954-5.86C118.636,138.434,119.709,138.434,119.962,139.192z"/>
        <path style="fill:#F5F5F5;" d="M119.962,169.846l1.954,5.86l6.177,0.047c0.8,0.007,1.131,1.027,0.488,1.502l-4.969,3.67
            l1.864,5.889c0.242,0.762-0.627,1.394-1.278,0.928l-5.026-3.592l-5.025,3.592c-0.651,0.465-1.518-0.166-1.278-0.928l1.864-5.889
            l-4.969-3.67c-0.643-0.476-0.312-1.495,0.488-1.502l6.177-0.047l1.954-5.86C118.636,169.088,119.709,169.088,119.962,169.846z"/>
        <path style="fill:#F5F5F5;" d="M119.962,200.501l1.954,5.86l6.177,0.047c0.8,0.007,1.131,1.027,0.488,1.502l-4.969,3.67
            l1.864,5.889c0.242,0.762-0.627,1.394-1.278,0.928l-5.026-3.592l-5.025,3.592c-0.651,0.465-1.518-0.166-1.278-0.928l1.864-5.889
            l-4.969-3.67c-0.643-0.476-0.312-1.495,0.488-1.502l6.177-0.047l1.954-5.86C118.636,199.742,119.709,199.742,119.962,200.501z"/>
        <path style="fill:#F5F5F5;" d="M119.962,231.155l1.954,5.86l6.177,0.047c0.8,0.007,1.131,1.027,0.488,1.502l-4.969,3.67
            l1.864,5.889c0.242,0.762-0.627,1.394-1.278,0.928l-5.026-3.592l-5.025,3.592c-0.651,0.465-1.518-0.166-1.278-0.928l1.864-5.889
            l-4.969-3.67c-0.643-0.476-0.312-1.495,0.488-1.502l6.177-0.047l1.954-5.86C118.636,230.395,119.709,230.395,119.962,231.155z"/>
        <path style="fill:#F5F5F5;" d="M143.755,123.567l1.954,5.86l6.177,0.047c0.8,0.007,1.131,1.027,0.488,1.502l-4.969,3.67
            l1.864,5.889c0.242,0.762-0.627,1.394-1.278,0.928l-5.025-3.592l-5.025,3.592c-0.651,0.465-1.518-0.166-1.278-0.928l1.864-5.889
            l-4.969-3.67c-0.643-0.476-0.312-1.495,0.488-1.502l6.177-0.047l1.954-5.86C142.43,122.809,143.502,122.809,143.755,123.567z"/>
        <path style="fill:#F5F5F5;" d="M143.755,154.222l1.954,5.86l6.177,0.047c0.8,0.007,1.131,1.027,0.488,1.502l-4.969,3.67
            l1.864,5.889c0.242,0.762-0.627,1.394-1.278,0.928l-5.025-3.592l-5.025,3.592c-0.651,0.465-1.518-0.165-1.278-0.928l1.864-5.889
            l-4.969-3.67c-0.643-0.476-0.312-1.495,0.488-1.502l6.177-0.047l1.954-5.86C142.43,153.463,143.502,153.463,143.755,154.222z"/>
        <path style="fill:#F5F5F5;" d="M143.755,184.876l1.954,5.86l6.177,0.047c0.8,0.007,1.131,1.027,0.488,1.502l-4.969,3.67
            l1.864,5.889c0.242,0.762-0.627,1.394-1.278,0.928l-5.025-3.592l-5.025,3.592c-0.651,0.465-1.518-0.166-1.278-0.928l1.864-5.889
            l-4.969-3.67c-0.643-0.476-0.312-1.495,0.488-1.502l6.177-0.047l1.954-5.86C142.43,184.117,143.502,184.117,143.755,184.876z"/>
        <path style="fill:#F5F5F5;" d="M143.755,215.53l1.954,5.86l6.177,0.047c0.8,0.007,1.131,1.027,0.488,1.502l-4.969,3.67l1.864,5.889
            c0.242,0.762-0.627,1.394-1.278,0.928l-5.025-3.592l-5.025,3.592c-0.651,0.465-1.518-0.166-1.278-0.928l1.864-5.889l-4.969-3.67
            c-0.643-0.476-0.312-1.495,0.488-1.502l6.177-0.047l1.954-5.86C142.43,214.772,143.502,214.772,143.755,215.53z"/>
        <path style="fill:#F5F5F5;" d="M167.549,108.538l1.954,5.86l6.177,0.047c0.8,0.007,1.131,1.027,0.488,1.502l-4.969,3.67
            l1.864,5.889c0.242,0.762-0.627,1.394-1.278,0.928l-5.025-3.592l-5.025,3.592c-0.651,0.465-1.518-0.166-1.278-0.928l1.864-5.889
            l-4.969-3.67c-0.643-0.476-0.312-1.495,0.488-1.502l6.177-0.047l1.954-5.86C166.222,107.779,167.296,107.779,167.549,108.538z"/>
        <path style="fill:#F5F5F5;" d="M167.549,139.192l1.954,5.86l6.177,0.047c0.8,0.007,1.131,1.027,0.488,1.502l-4.969,3.67
            l1.864,5.889c0.242,0.762-0.627,1.394-1.278,0.928l-5.025-3.592l-5.025,3.592c-0.651,0.465-1.518-0.166-1.278-0.928l1.864-5.889
            l-4.969-3.67c-0.643-0.476-0.312-1.495,0.488-1.502l6.177-0.047l1.954-5.86C166.222,138.434,167.296,138.434,167.549,139.192z"/>
        <path style="fill:#F5F5F5;" d="M167.549,169.846l1.954,5.86l6.177,0.047c0.8,0.007,1.131,1.027,0.488,1.502l-4.969,3.67
            l1.864,5.889c0.242,0.762-0.627,1.394-1.278,0.928l-5.025-3.592l-5.025,3.592c-0.651,0.465-1.518-0.166-1.278-0.928l1.864-5.889
            l-4.969-3.67c-0.643-0.476-0.312-1.495,0.488-1.502l6.177-0.047l1.954-5.86C166.222,169.088,167.296,169.088,167.549,169.846z"/>
        <path style="fill:#F5F5F5;" d="M167.549,200.501l1.954,5.86l6.177,0.047c0.8,0.007,1.131,1.027,0.488,1.502l-4.969,3.67
            l1.864,5.889c0.242,0.762-0.627,1.394-1.278,0.928l-5.025-3.592l-5.025,3.592c-0.651,0.465-1.518-0.166-1.278-0.928l1.864-5.889
            l-4.969-3.67c-0.643-0.476-0.312-1.495,0.488-1.502l6.177-0.047l1.954-5.86C166.222,199.742,167.296,199.742,167.549,200.501z"/>
        <path style="fill:#F5F5F5;" d="M167.549,231.155l1.954,5.86l6.177,0.047c0.8,0.007,1.131,1.027,0.488,1.502l-4.969,3.67
            l1.864,5.889c0.242,0.762-0.627,1.394-1.278,0.928l-5.025-3.592l-5.025,3.592c-0.651,0.465-1.518-0.166-1.278-0.928l1.864-5.889
            l-4.969-3.67c-0.643-0.476-0.312-1.495,0.488-1.502l6.177-0.047l1.954-5.86C166.222,230.395,167.296,230.395,167.549,231.155z"/>
        <path style="fill:#F5F5F5;" d="M191.342,123.567l1.954,5.86l6.177,0.047c0.8,0.007,1.131,1.027,0.488,1.502l-4.969,3.67
            l1.864,5.889c0.242,0.762-0.627,1.394-1.278,0.928l-5.025-3.592l-5.025,3.592c-0.651,0.465-1.518-0.166-1.278-0.928l1.864-5.889
            l-4.969-3.67c-0.643-0.476-0.312-1.495,0.488-1.502l6.177-0.047l1.954-5.86C190.016,122.809,191.09,122.809,191.342,123.567z"/>
        <path style="fill:#F5F5F5;" d="M191.342,154.222l1.954,5.86l6.177,0.047c0.8,0.007,1.131,1.027,0.488,1.502l-4.969,3.67
            l1.864,5.889c0.242,0.762-0.627,1.394-1.278,0.928l-5.025-3.592l-5.025,3.592c-0.651,0.465-1.518-0.165-1.278-0.928l1.864-5.889
            l-4.969-3.67c-0.643-0.476-0.312-1.495,0.488-1.502l6.177-0.047l1.954-5.86C190.016,153.463,191.09,153.463,191.342,154.222z"/>
        <path style="fill:#F5F5F5;" d="M191.342,184.876l1.954,5.86l6.177,0.047c0.8,0.007,1.131,1.027,0.488,1.502l-4.969,3.67
            l1.864,5.889c0.242,0.762-0.627,1.394-1.278,0.928l-5.025-3.592l-5.025,3.592c-0.651,0.465-1.518-0.166-1.278-0.928l1.864-5.889
            l-4.969-3.67c-0.643-0.476-0.312-1.495,0.488-1.502l6.177-0.047l1.954-5.86C190.016,184.117,191.09,184.117,191.342,184.876z"/>
        <path style="fill:#F5F5F5;" d="M191.342,215.53l1.954,5.86l6.177,0.047c0.8,0.007,1.131,1.027,0.488,1.502l-4.969,3.67l1.864,5.889
            c0.242,0.762-0.627,1.394-1.278,0.928l-5.025-3.592l-5.025,3.592c-0.651,0.465-1.518-0.166-1.278-0.928l1.864-5.889l-4.969-3.67
            c-0.643-0.476-0.312-1.495,0.488-1.502l6.177-0.047l1.954-5.86C190.016,214.772,191.09,214.772,191.342,215.53z"/>
        <path style="fill:#F5F5F5;" d="M215.136,108.538l1.954,5.86l6.177,0.047c0.8,0.007,1.131,1.027,0.488,1.502l-4.969,3.67
            l1.864,5.889c0.242,0.762-0.627,1.394-1.278,0.928l-5.025-3.592l-5.025,3.592c-0.651,0.465-1.518-0.166-1.278-0.928l1.864-5.889
            l-4.969-3.67c-0.643-0.476-0.312-1.495,0.488-1.502l6.177-0.047l1.954-5.86C213.81,107.779,214.882,107.779,215.136,108.538z"/>
        <path style="fill:#F5F5F5;" d="M215.136,139.192l1.954,5.86l6.177,0.047c0.8,0.007,1.131,1.027,0.488,1.502l-4.969,3.67
            l1.864,5.889c0.242,0.762-0.627,1.394-1.278,0.928l-5.025-3.592l-5.025,3.592c-0.651,0.465-1.518-0.166-1.278-0.928l1.864-5.889
            l-4.969-3.67c-0.643-0.476-0.312-1.495,0.488-1.502l6.177-0.047l1.954-5.86C213.81,138.434,214.882,138.434,215.136,139.192z"/>
        <path style="fill:#F5F5F5;" d="M215.136,169.846l1.954,5.86l6.177,0.047c0.8,0.007,1.131,1.027,0.488,1.502l-4.969,3.67
            l1.864,5.889c0.242,0.762-0.627,1.394-1.278,0.928l-5.025-3.592l-5.025,3.592c-0.651,0.465-1.518-0.166-1.278-0.928l1.864-5.889
            l-4.969-3.67c-0.643-0.476-0.312-1.495,0.488-1.502l6.177-0.047l1.954-5.86C213.81,169.088,214.882,169.088,215.136,169.846z"/>
        <path style="fill:#F5F5F5;" d="M215.136,200.501l1.954,5.86l6.177,0.047c0.8,0.007,1.131,1.027,0.488,1.502l-4.969,3.67
            l1.864,5.889c0.242,0.762-0.627,1.394-1.278,0.928l-5.025-3.592l-5.025,3.592c-0.651,0.465-1.518-0.166-1.278-0.928l1.864-5.889
            l-4.969-3.67c-0.643-0.476-0.312-1.495,0.488-1.502l6.177-0.047l1.954-5.86C213.81,199.742,214.882,199.742,215.136,200.501z"/>
        <path style="fill:#F5F5F5;" d="M215.136,231.155l1.954,5.86l6.177,0.047c0.8,0.007,1.131,1.027,0.488,1.502l-4.969,3.67
            l1.864,5.889c0.242,0.762-0.627,1.394-1.278,0.928l-5.025-3.592l-5.025,3.592c-0.651,0.465-1.518-0.166-1.278-0.928l1.864-5.889
            l-4.969-3.67c-0.643-0.476-0.312-1.495,0.488-1.502l6.177-0.047l1.954-5.86C213.81,230.395,214.882,230.395,215.136,231.155z"/>
    </symbol>

    <symbol id="header-panel01" role="img" aria-labelledby="header-panel01_title" viewBox="0 0 512 512">
        <title id="header-panel01_title"></title>
        <path d="M477.187,120.776l-7.224-18.65l-37.3,14.448l7.225,18.649C447.925,155.974,452,177.768,452,200v92h40v-92
			C492,172.807,487.017,146.152,477.187,120.776z"/>
		<path d="M42.037,102.127l-7.224,18.65C24.983,146.152,20,172.807,20,200v92h40v-92c0-22.232,4.075-44.026,12.112-64.776
			l7.225-18.649L42.037,102.127z"/>
		<path d="M468,392h-20c-10.384,0-18.709-3.609-24.745-10.728C415.892,372.588,412,358.886,412,341.646V204
			c0-78.818-59.543-144.777-136-154.699V0h-40v49.301C159.543,59.223,100,125.181,100,204v144c0,14.175-3.734,25.775-10.799,33.546
			C82.984,388.385,74.27,392,64,392H44v56h161.413c-0.915,3.855-1.413,7.869-1.413,12c0,28.673,23.327,52,52,52
			c28.673,0,52-23.327,52-52c0-4.131-0.499-8.145-1.413-12H468V392z M256,472c-6.617,0-12-5.383-12-12s5.383-12,12-12
			s12,5.383,12,12S262.617,472,256,472z M119.208,408C132.813,392.784,140,372.052,140,348V204
			c0-63.067,51.263-115.072,114.302-115.987h3.396C320.737,88.928,372,140.933,372,204v137.646c0,26.84,7.174,49.488,20.745,65.494
			c0.245,0.289,0.492,0.576,0.741,0.86H119.208z"/>
    </symbol>

    <symbol id="header-panel02" role="img" aria-labelledby="header-panel02_title" viewBox="0 0 512 512">
        <title id="header-panel02_title"></title>
        <path d="m256 0-256 190.933594v261.03125c0 33.085937 26.914062 60 60 60h392c33.085938 0 60-26.914063 60-60v-261.03125zm200.8125 199.671875-200.8125 149.367187-200.8125-149.367187 200.8125-149.773437zm-4.8125 272.292969h-392c-11.027344 0-20-8.972656-20-20v-213.734375l216 160.660156 216-160.660156v213.734375c0 11.027344-8.972656 20-20 20zm-217-190v-40h40v40zm40-70h-40v-95h40zm0 0"/>
    </symbol>

    <symbol id="header-panel04" role="img" aria-labelledby="header-panel04_title" viewBox="0 0 512 512">
        <title id="header-panel04_title"></title>
        <path d="M302.058,0C186.296,0,92.116,94.18,92.116,209.942c0,50.697,18.064,97.253,48.092,133.574L0,483.724L28.276,512
			l140.208-140.208c36.321,30.028,82.877,48.092,133.574,48.092C417.82,419.884,512,325.704,512,209.942S417.821,0,302.058,0z
			 M302.058,379.895c-93.712,0-169.953-76.241-169.953-169.953S208.346,39.989,302.058,39.989s169.953,76.241,169.953,169.953
			S395.77,379.895,302.058,379.895z"/>
    </symbol>

    <symbol id="email-summary01" role="img" aria-labelledby="email-summary01_title" viewBox="0 0 512 512">
        <title id="email-summary01_title"></title>
        <path d="M296.5,7.3c-7.6-7.6-19.7-7.1-26.5-0.1L7.5,267.5c-11.8,11.7-3.5,31.9,13.1,31.9l191.4,0l0.2,193.5
            c0,16.6,20.1,24.9,31.8,13.2l262.6-260.3c7.3-7.2,7.4-19,0.1-26.4c0,0,0,0,0,0L296.5,7.3z M448.3,213.5L300.3,212l1.3-146.6
            L448.3,213.5z M66,262L264.2,65.6l-1.7,196.4L66,262z M249.4,299.4l31.5,0c10.2,0,18.6-8.3,18.7-18.5l0.3-31.5l148.7,1.5l-199,197.3
            L249.4,299.4z"/>
        <path d="M32.1,404.1l34.2-33.3c7.5-7.3,7.6-19.2,0.4-26.6s-19.2-7.6-26.6-0.4L5.9,377.1c-7.5,7.3-7.6,19.2-0.4,26.6
            S24.7,411.3,32.1,404.1z"/>
        <path d="M99.5,412.1c-7.3-7.5-19.2-7.6-26.6-0.4L38.7,445c-7.5,7.3-7.6,19.2-0.4,26.6s19.2,7.6,26.6,0.4l34.2-33.3
            C106.6,431.5,106.8,419.5,99.5,412.1z"/>
        <path d="M166.6,446.7c-7.3-7.5-19.2-7.6-26.6-0.4l-34.2,33.3c-7.5,7.3-7.6,19.2-0.4,26.6c7.3,7.5,19.2,7.6,26.6,0.4l34.2-33.3
            C173.7,466.1,173.8,454.2,166.6,446.7z"/>
    </symbol>

    <symbol id="email-summary02" role="img" aria-labelledby="email-summary02_title" viewBox="0 0 512 512">
        <title id="email-summary02_title"></title>
        <path d="m492.035156 135.722656-56.035156-.09375v-115.628906c0-11.046875-8.953125-20-20-20h-320c-11.046875 0-20 8.953125-20 20v115.59375h-56c-11.039062 0-20 8.953125-20 20v336.40625c0 11.046875 8.953125 20 20 20h472c10.941406 0 20-8.910156 20-20 0-13.222656 0-332.9375 0-336.277344 0-11.03125-8.933594-19.980468-19.964844-20zm-376.035156-95.722656h280v235.140625l-140 118.644531-140-118.644531zm-76 135.59375h36v65.648438l-36-30.507813zm0 87.570312 109.546875 92.835938-109.546875 92.835938zm34.535156 208.835938 105.945313-89.785156 62.589843 53.042968c7.460938 6.324219 18.398438 6.320313 25.859376 0l62.589843-53.042968 105.945313 89.785156zm397.464844-23.164062-109.546875-92.835938 109.546875-92.835938zm0-238.101563-36 30.507813v-65.613282l36 .058594zm0 0"/>
        <path d="m184 140h144c11.046875 0 20-8.953125 20-20s-8.953125-20-20-20h-144c-11.046875 0-20 8.953125-20 20s8.953125 20 20 20zm0 0"/>
        <path d="m348 220c0-11.046875-8.953125-20-20-20h-144c-11.046875 0-20 8.953125-20 20s8.953125 20 20 20h144c11.046875 0 20-8.953125 20-20zm0 0"/>
    </symbol>

    <symbol id="email-summary03" role="img" aria-labelledby="email-summary03_title" viewBox="0 0 512 512">
        <title id="email-summary03_title"></title>
        <path d="m504.929688 204.742188-236-200c-7.460938-6.324219-18.398438-6.324219-25.859376 0l-236 200c-4.359374 3.691406-7.070312 9.261718-7.070312 15.257812v272c0 11.046875 8.953125 20 20 20h472c10.890625 0 20-8.898438 20-20v-272c0-5.835938-2.59375-11.464844-7.070312-15.257812zm-248.929688-158.527344 205.066406 173.785156-205.066406 173.785156-205.066406-173.785156zm-216 216.949218 109.546875 92.835938-109.546875 92.835938zm34.535156 208.835938 105.945313-89.785156 62.589843 53.042968c7.460938 6.324219 18.398438 6.320313 25.859376 0l62.589843-53.042968 105.945313 89.785156zm397.464844-23.164062-109.546875-92.835938 109.546875-92.835938zm-175.945312-145.996094c2.929687 1.539062 6.125 2.296875 9.304687 2.296875 12.292969 0 21.828125-11.066407 19.714844-23.382813l-7.648438-44.601562 32.40625-31.589844c11.847657-11.550781 5.296875-31.734375-11.085937-34.113281l-44.785156-6.507813-20.027344-40.582031c-7.324219-14.835937-28.542969-14.84375-35.867188 0l-20.03125 40.582031-44.78125 6.507813c-16.375 2.378906-22.941406 22.558593-11.085937 34.113281l32.40625 31.589844-7.648438 44.601562c-2.796875 16.308594 14.367188 28.789063 29.019531 21.085938l40.054688-21.058594zm-62.855469-54.265625 2.578125-15.023438c1.109375-6.488281-1.039063-13.109375-5.753906-17.703125l-10.917969-10.640625 15.089843-2.195312c6.511719-.945313 12.144532-5.035157 15.058594-10.9375l6.746094-13.671875 6.746094 13.671875c2.914062 5.898437 8.542968 9.992187 15.058594 10.9375l15.089843 2.191406-10.917969 10.644531c-4.714843 4.59375-6.863281 11.210938-5.753906 17.699219l2.578125 15.027344-13.492187-7.09375c-2.914063-1.53125-6.113282-2.296875-9.308594-2.296875s-6.394531.765625-9.308594 2.296875zm0 0"/>
    </symbol>

    <symbol id="email-summary04" role="img" aria-labelledby="email-summary04_title" viewBox="0 0 512 512">
        <title id="email-summary04_title"></title>
        <path d="m504.929688 204.742188-236-200c-7.460938-6.324219-18.398438-6.324219-25.859376 0l-236 200c-4.550781 3.851562-7.070312 9.496093-7.070312 15.257812v272c0 11.046875 8.953125 20 20 20h472c10.867188 0 20-8.839844 20-20v-272c0-6.074219-2.765625-11.613281-7.070312-15.257812zm-248.929688-158.527344 205.066406 173.785156-205.066406 173.785156-205.066406-173.785156zm-216 216.949218 109.546875 92.835938-109.546875 92.835938zm34.535156 208.835938 105.945313-89.785156 62.589843 53.042968c7.460938 6.324219 18.398438 6.320313 25.859376 0l62.589843-53.042968 105.945313 89.785156zm397.464844-23.164062-109.546875-92.835938 109.546875-92.835938zm-111-228.835938c0-57.898438-47.101562-105-105-105-57.835938 0-105 47.0625-105 105 0 57.898438 47.101562 105 105 105 57.835938 0 105-47.0625 105-105zm-105-65c35.839844 0 65 29.160156 65 65 0 10.644531-2.589844 20.691406-7.144531 29.570312l-87.425781-87.425781c8.878906-4.554687 18.925781-7.144531 29.570312-7.144531zm-65 65c0-10.648438 2.589844-20.695312 7.144531-29.570312l87.425781 87.425781c-8.878906 4.554687-18.925781 7.144531-29.570312 7.144531-35.839844 0-65-29.160156-65-65zm0 0"/>
    </symbol>

    <symbol id="reviews-summary01" role="img" aria-labelledby="reviews-summary01_title" viewBox="0 0 330 330">
        <title id="reviews-summary01_title"></title>
        <path id="XMLID_512_" d="M329.266,126.689c-1.764-5.43-6.458-9.388-12.108-10.209l-95.845-13.928l-42.861-86.849
            c-2.527-5.12-7.741-8.362-13.451-8.362c-5.71,0-10.924,3.242-13.451,8.362l-42.861,86.849L12.843,116.48
            c-5.65,0.821-10.345,4.779-12.108,10.209c-1.765,5.43-0.293,11.391,3.795,15.376l69.354,67.603L57.51,305.124
            c-0.965,5.628,1.348,11.315,5.967,14.671c4.62,3.356,10.741,3.799,15.797,1.142L165,275.869l85.727,45.067
            c2.194,1.154,4.591,1.723,6.978,1.723c0.018,0,0.036,0,0.053,0c8.27-0.017,14.97-6.727,14.97-15c0-1.152-0.13-2.274-0.376-3.352
            l-16.233-94.639l69.354-67.603C329.559,138.08,331.031,132.119,329.266,126.689z M229.53,193.691
            c-3.535,3.446-5.148,8.411-4.314,13.277l12.568,73.272l-65.804-34.595c-2.186-1.148-4.583-1.723-6.98-1.723
            c-2.398,0-4.795,0.574-6.98,1.723L92.216,280.24l12.568-73.272c0.835-4.866-0.778-9.831-4.313-13.277l-53.236-51.893l73.571-10.691
            c4.886-0.71,9.109-3.779,11.294-8.206L165,56.235l32.9,66.665c2.185,4.427,6.408,7.496,11.294,8.206l73.571,10.691L229.53,193.691z"
            />
    </symbol>

    <symbol id="reviews-summary02" role="img" aria-labelledby="reviews-summary02_title" viewBox="0 0 330 330">
        <title id="reviews-summary02_title"></title>
        <path d="M165,0C74.019,0,0,74.019,0,165s74.019,165,165,165s165-74.019,165-165S255.981,0,165,0z M165,300
            c-74.439,0-135-60.561-135-135S90.561,30,165,30s135,60.561,135,135S239.439,300,165,300z"/>
        <path d="M205.306,205.305c-22.226,22.224-58.386,22.225-80.611,0.001c-5.857-5.858-15.355-5.858-21.213,0
            c-5.858,5.858-5.858,15.355,0,21.213c16.963,16.963,39.236,25.441,61.519,25.441c22.276,0,44.56-8.482,61.519-25.441
            c5.858-5.857,5.858-15.355,0-21.213C220.661,199.447,211.163,199.448,205.306,205.305z"/>
        <path d="M115.14,147.14c3.73-3.72,5.86-8.88,5.86-14.14c0-5.26-2.13-10.42-5.86-14.14
            c-3.72-3.72-8.88-5.86-14.14-5.86c-5.271,0-10.42,2.14-14.141,5.86C83.13,122.58,81,127.74,81,133c0,5.26,2.13,10.42,5.859,14.14
            C90.58,150.87,95.74,153,101,153S111.42,150.87,115.14,147.14z"/>
        <path d="M229,113c-5.26,0-10.42,2.14-14.141,5.86C211.14,122.58,209,127.73,209,133c0,5.27,2.14,10.42,5.859,14.14
            C218.58,150.87,223.74,153,229,153s10.42-2.13,14.14-5.86c3.72-3.72,5.86-8.87,5.86-14.14c0-5.26-2.141-10.42-5.86-14.14
        C239.42,115.14,234.26,113,229,113z"/>
    </symbol>

    <symbol id="reviews-summary03" role="img" aria-labelledby="reviews-summary03_title" viewBox="0 0 330 330">
        <title id="reviews-summary03_title"></title>
        <path d="M165,0C74.019,0,0,74.019,0,165s74.019,165,165,165s165-74.019,165-165S255.981,0,165,0z M165,300
            c-74.439,0-135-60.561-135-135S90.561,30,165,30s135,60.561,135,135S239.439,300,165,300z"/>
        <path d="M215.912,200.912H114.088c-8.284,0-15,6.716-15,15c0,8.284,6.716,15,15,15h101.824c8.284,0,15-6.716,15-15
            C230.912,207.628,224.196,200.912,215.912,200.912z"/>
        <path d="M115.14,147.14c3.73-3.72,5.86-8.88,5.86-14.14c0-5.26-2.13-10.42-5.86-14.141
            C111.42,115.14,106.26,113,101,113c-5.271,0-10.42,2.14-14.141,5.859C83.13,122.58,81,127.729,81,133
            c0,5.26,2.13,10.42,5.859,14.14C90.58,150.859,95.74,153,101,153S111.42,150.859,115.14,147.14z"/>
        <path d="M229,113c-5.27,0-10.42,2.14-14.141,5.859C211.14,122.58,209,127.729,209,133c0,5.27,2.14,10.42,5.859,14.14
            c3.721,3.72,8.881,5.86,14.141,5.86s10.42-2.141,14.14-5.86c3.72-3.72,5.86-8.88,5.86-14.14c0-5.26-2.141-10.42-5.86-14.141
            C239.42,115.14,234.27,113,229,113z"/>
    </symbol>

    <symbol id="reviews-summary04" role="img" aria-labelledby="reviews-summary04_title" viewBox="0 0 330 330">
        <title id="reviews-summary04_title"></title>
        <path d="M165,0C74.019,0,0,74.019,0,165s74.019,165,165,165c90.981,0,165-74.019,165-165S255.982,0,165,0z M165,300
            C90.561,300,30,239.44,30,165S90.561,30,165,30c74.439,0,135,60.561,135,135S239.439,300,165,300z"/>
        <path d="M164.999,179.823C164.998,179.823,165,179.823,164.999,179.823c-23.238,0-45.087,9.05-61.518,25.482
            c-5.858,5.857-5.858,15.355,0,21.213c2.929,2.929,6.768,4.394,10.607,4.394s7.678-1.465,10.606-4.394
            c10.766-10.766,25.08-16.694,40.305-16.694c15.225,0,29.539,5.929,40.305,16.694c5.857,5.857,15.355,5.857,21.213,0
            c5.858-5.857,5.858-15.355,0-21.213C210.085,188.873,188.238,179.823,164.999,179.823z"/>
        <path d="M115.14,147.14c3.73-3.72,5.86-8.88,5.86-14.14s-2.13-10.42-5.86-14.141C111.42,115.14,106.26,113,101,113
            c-5.27,0-10.42,2.14-14.14,5.859C83.14,122.58,81,127.74,81,133s2.14,10.42,5.86,14.14c3.72,3.72,8.88,5.86,14.14,5.86
            C106.26,153,111.42,150.86,115.14,147.14z"/>
        <path d="M229,113c-5.27,0-10.42,2.14-14.14,5.859C211.13,122.58,209,127.74,209,133s2.13,10.42,5.86,14.14
            c3.72,3.72,8.88,5.86,14.14,5.86c5.26,0,10.42-2.141,14.14-5.86c3.73-3.72,5.86-8.88,5.86-14.14s-2.13-10.42-5.86-14.141
            C239.42,115.14,234.26,113,229,113z"/>
    </symbol>

    <symbol id="numbers01" role="img" aria-labelledby="numbers01_title" viewBox="0 0 512 512">
        <title id="numbers01_title"></title>
        <path d="m197.573 188.379h-6.15c-35.801 0-65.108 28.328-66.681 63.748h139.512c-1.577-35.416-30.883-63.748-66.681-63.748z"/>
        <path d="m428.513 0h-348.031c-44.366 0-80.461 39.036-80.461 87.019v219.758c0 47.982 36.095 87.018 80.461 87.018h104.492l56.241 107.171c2.591 4.937 7.706 8.03 13.282 8.03s10.691-3.093 13.282-8.03l56.241-107.171h104.492c44.366 0 80.461-39.036 80.461-87.018v-219.758c.001-47.983-36.094-87.019-80.46-87.019zm-161.193 282.128h-145.645c-14.888 0-27-12.112-27-27 0-40.134 24.565-74.635 59.448-89.266-10.311-10.331-16.695-24.581-16.695-40.295 0-31.468 25.601-57.07 57.069-57.07s57.069 25.602 57.069 57.07c0 15.714-6.385 29.964-16.695 40.295 34.883 14.63 59.448 49.131 59.448 89.265.001 14.888-12.111 27.001-26.999 27.001zm129.796-24.774c0 6.353-7.742 9.529-15.485 9.529-7.742 0-15.485-3.177-15.485-9.529v-101.053l-5.758 3.574c-1.786 1.191-3.573 1.588-4.963 1.588-5.758 0-9.729-6.155-9.729-12.309 0-4.169 1.787-8.14 5.758-10.522l26.206-15.882c1.589-.993 3.574-1.39 5.758-1.39 6.353 0 13.698 3.772 13.698 9.728z"/>
        <path d="m194.498 152.637c14.926 0 27.069-12.143 27.069-27.07 0-14.926-12.144-27.07-27.069-27.07s-27.069 12.144-27.069 27.07c-.001 14.927 12.143 27.07 27.069 27.07z"/>
    </symbol>

    <symbol id="numbers02" role="img" aria-labelledby="numbers02_title" viewBox="0 0 512 512">
        <title id="numbers02_title"></title>
        <path d="m101.84375 312.390625v-97.808594c0-7.058593 1.011719-13.941406 2.90625-20.511719h-65.953125c-10.695313 0-20.394531 4.351563-27.417969 11.375-7.023437 7.023438-11.378906 16.726563-11.378906 27.417969v77.828125c0 9.472656 3.457031 18.195313 9.183594 24.980469 2.976562 3.53125 6.578125 6.523437 10.632812 8.8125v113.121094c0 8.269531 6.703125 14.972656 14.96875 14.972656h91.960938v-104.574219c-15.722656-14.195312-24.902344-34.417968-24.902344-55.613281zm0 0"/>
        <path d="m80.847656 176.363281c32.339844 0 58.648438-26.308593 58.648438-58.648437s-26.308594-58.648438-58.648438-58.648438-58.648437 26.308594-58.648437 58.648438 26.308593 58.648437 58.648437 58.648437zm0 0"/>
        <path d="m282.441406 169.667969h-105.746094c-12.375 0-23.605468 5.042969-31.738281 13.171875-8.132812 8.132812-13.171875 19.363281-13.171875 31.742187v97.808594c0 10.96875 4 21.070313 10.621094 28.917969 3.925781 4.652344 8.785156 8.5 14.28125 11.25v144.46875c0 8.269531 6.703125 14.972656 14.972656 14.972656h115.820313c8.269531 0 14.972656-6.703125 14.972656-14.972656v-144.46875c5.496094-2.75 10.355469-6.597656 14.277344-11.25 6.625-7.847656 10.625-17.945313 10.625-28.917969v-97.808594c0-12.378906-5.039063-23.609375-13.171875-31.738281-8.132813-8.132812-19.363282-13.175781-31.742188-13.175781zm0 0"/>
        <path d="m229.546875 139.726562c38.523437 0 69.863281-31.339843 69.863281-69.863281 0-38.523437-31.339844-69.863281-69.863281-69.863281s-69.863281 31.339844-69.863281 69.863281c0 38.523438 31.339844 69.863281 69.863281 69.863281zm0 0"/>
        <path d="m449.769531 205.445312c-7.023437-7.023437-16.722656-11.375-27.417969-11.375h-67.960937c1.890625 6.570313 2.90625 13.453126 2.90625 20.511719v97.808594c0 21.191406-9.179687 41.417969-24.902344 55.613281v104.464844c.589844.070312 1.195313.109375 1.808594.109375h92.15625c8.269531 0 14.972656-6.703125 14.972656-14.972656v-113.121094c4.050781-2.285156 7.652344-5.28125 10.632813-8.8125 5.726562-6.785156 9.183594-15.507813 9.183594-24.980469v-77.828125c0-10.691406-4.355469-20.394531-11.378907-27.417969zm0 0"/>
        <path d="m380.261719 176.363281c32.339843 0 58.648437-26.308593 58.648437-58.648437s-26.308594-58.648438-58.648437-58.648438c-32.335938 0-58.648438 26.308594-58.648438 58.648438s26.3125 58.648437 58.648438 58.648437zm0 0"/>
    </symbol>

    <symbol id="numbers03" role="img" aria-labelledby="numbers03_title" viewBox="0 0 512 512">
        <title id="numbers03_title"></title>
        <path d="m512 128v-29.539062c0-8.15625-6.613281-14.769532-14.769531-14.769532h-14.769531v-68.921875c0-8.15625-6.613282-14.769531-14.769532-14.769531h-59.074218c-8.160157 0-14.769532 6.613281-14.769532 14.769531v68.921875h-14.769531c-8.15625 0-14.769531 6.613282-14.769531 14.769532v29.539062c0 4.140625 1.738281 8.089844 4.789062 10.886719l31.085938 28.496093h-106.214844l31.085938-28.496093c3.054687-2.796875 4.789062-6.746094 4.789062-10.886719v-29.539062c0-8.15625-6.609375-14.769532-14.769531-14.769532h-14.765625v-68.921875c0-8.15625-6.613282-14.769531-14.769532-14.769531h-59.078124c-8.15625 0-14.769532 6.613281-14.769532 14.769531v68.921875h-14.769531c-8.15625 0-14.769531 6.613282-14.769531 14.769532v29.539062c0 4.140625 1.738281 8.089844 4.789062 10.886719l31.089844 28.496093h-106.214844l31.085938-28.496093c3.050781-2.796875 4.789062-6.746094 4.789062-10.886719v-29.539062c0-8.15625-6.613281-14.769532-14.769531-14.769532h-14.769531v-68.921875c0-8.15625-6.613282-14.769531-14.769532-14.769531h-59.074218c-8.15625 0-14.769532 6.613281-14.769532 14.769531v68.921875h-14.769531c-8.15625 0-14.769531 6.613282-14.769531 14.769532v29.539062c0 4.140625 1.738281 8.089844 4.789062 10.886719l31.089844 28.496093h-21.109375c-8.15625 0-14.769531 6.613282-14.769531 14.769532v315.078125c0 8.15625 6.613281 14.769531 14.769531 14.769531h482.460938c8.15625 0 14.769531-6.613281 14.769531-14.769531v-315.078125c0-8.15625-6.613281-14.769532-14.769531-14.769532h-21.109375l31.089844-28.496093c3.050781-2.796875 4.789062-6.746094 4.789062-10.886719zm-391.1875 295.382812h36.726562c8.15625 0 14.769532 6.613282 14.769532 14.769532s-6.613282 14.769531-14.769532 14.769531h-49.230468c-8.15625 0-14.769532-6.613281-14.769532-14.769531 0-10.855469-8.835937-19.691406-19.691406-19.691406-8.15625 0-14.769531-6.613282-14.769531-14.769532v-128c0-8.15625 6.613281-14.769531 14.769531-14.769531 10.855469 0 19.691406-8.832031 19.691406-19.691406 0-8.15625 6.613282-14.769531 14.769532-14.769531h49.230468c8.15625 0 14.769532 6.613281 14.769532 14.769531s-6.613282 14.769531-14.769532 14.769531h-36.726562c-4.816406 15.289062-16.90625 27.382812-32.195312 32.199219v102.988281c15.289062 4.816406 27.378906 16.90625 32.195312 32.195312zm120.417969-98.460937h29.539062c21.714844 0 39.382813 17.667969 39.382813 39.386719 0 21.714844-17.667969 39.382812-39.382813 39.382812v24.617188c0 8.15625-6.613281 14.769531-14.769531 14.769531s-14.769531-6.613281-14.769531-14.769531v-24.617188h-24.613281c-8.160157 0-14.769532-6.613281-14.769532-14.769531s6.609375-14.769531 14.769532-14.769531h54.152343c5.429688 0 9.847657-4.414063 9.847657-9.84375 0-5.429688-4.417969-9.847656-9.847657-9.847656h-29.539062c-21.714844 0-39.382813-17.667969-39.382813-39.382813 0-21.71875 17.667969-39.386719 39.382813-39.386719v-24.613281c0-8.15625 6.613281-14.769531 14.769531-14.769531s14.769531 6.613281 14.769531 14.769531v24.613281h24.613281c8.160157 0 14.769532 6.613282 14.769532 14.769532s-6.609375 14.769531-14.769532 14.769531h-54.152343c-5.429688 0-9.847657 4.417969-9.847657 9.847656s4.417969 9.84375 9.847657 9.84375zm211.691406 78.769531c0 8.15625-6.613281 14.769532-14.769531 14.769532-10.855469 0-19.691406 8.835937-19.691406 19.691406 0 8.15625-6.613282 14.769531-14.769532 14.769531h-49.230468c-8.15625 0-14.769532-6.613281-14.769532-14.769531s6.613282-14.769532 14.769532-14.769532h36.726562c4.816406-15.289062 16.90625-27.378906 32.195312-32.195312v-102.988281c-15.289062-4.820313-27.378906-16.910157-32.195312-32.199219h-36.726562c-8.15625 0-14.769532-6.613281-14.769532-14.769531s6.613282-14.769531 14.769532-14.769531h49.230468c8.15625 0 14.769532 6.613281 14.769532 14.769531 0 10.859375 8.835937 19.691406 19.691406 19.691406 8.15625 0 14.769531 6.613281 14.769531 14.769531zm0 0"/>
    </symbol>

    <symbol id="numbers04" role="img" aria-labelledby="numbers04_title" viewBox="0 0 512 512">
        <title id="numbers04_title"></title>
        <path d="m510.855469 266.945312c-2.320313-5.605468-7.789063-9.257812-13.859375-9.257812h-65.332032v-202.519531c0-30.421875-24.746093-55.167969-55.164062-55.167969h-241.003906c-30.417969 0-55.164063 24.746094-55.164063 55.167969v202.519531h-65.332031c-6.066406 0-11.535156 3.65625-13.859375 9.261719-2.320313 5.605469-1.035156 12.058593 3.253906 16.347656l212.59375 212.597656c10.386719 10.386719 24.242188 16.105469 39.007813 16.105469 14.769531 0 28.625-5.722656 39.007812-16.109375l212.601563-212.597656c4.289062-4.289063 5.574219-10.742188 3.25-16.347657zm-345.742188-133.652343c12.546875-12.550781 32.890625-12.550781 45.441407 0 12.546874 12.546875 12.546874 32.890625 0 45.441406-12.550782 12.550781-32.894532 12.546875-45.441407 0-12.550781-12.550781-12.550781-32.894531 0-45.441406zm56.800781 170.410156c-12.546874 12.550781-32.894531 12.550781-45.441406 0-12.550781-12.546875-12.550781-32.894531 0-45.441406l113.609375-113.609375c12.546875-12.550782 32.894531-12.546875 45.441407 0 12.546874 12.546875 12.550781 32.894531 0 45.445312zm124.972657 11.359375c-12.550781 12.550781-32.894531 12.550781-45.441407 0-12.550781-12.546875-12.550781-32.894531 0-45.441406 12.546876-12.546875 32.890626-12.546875 45.441407 0s12.546875 32.894531 0 45.441406zm0 0"/>
    </symbol>

    <symbol id="activities01" role="img" aria-labelledby="activities01_title" viewBox="0 0 512 512">
        <title id="activities01_title"></title>
        <path d="M482.104,17.321c-1.75,0.996-174.858,98.783-294.107,100.481c-0.657-0.065-1.323-0.101-1.997-0.101H60
			c-33.084,0-60,26.916-60,60v69c0,26.073,16.722,48.303,40,56.56v108.44c0,55.141,44.86,100,100,100h20v-127h40v-48h-40v-30h26
			c0.943,0,1.863-0.088,2.771-0.214c119.434,1.946,292.173,91.998,293.92,92.915L512,414.815V0.299L482.104,17.321z M120,468.274
			c-23.281-8.255-40-30.498-40-56.573v-105h40V468.274z M166,266.701H60c-11.028,0-20-8.972-20-20v-69c0-11.028,8.972-20,20-20h106
			V266.701z M472,349.495c-53.451-25.371-169.574-75.459-266-82.263V156.984c96.352-7.335,212.222-61.303,266-88.898V349.495z"/>
    </symbol>

    <symbol id="activities02" role="img" aria-labelledby="activities02_title" viewBox="0 0 512 512">
        <title id="activities02_title"></title>
        <path d="M0,216.007v30.187l116.611,48.501l51.31,172.678l31.417,21.992l74.259-96.762l131.384,91.398h27.123L512,22.635L0,216.007
			z M70.497,232.167l243.818-92.087l-183.21,117.295L70.497,232.167z M184.985,310.423l-5.647,54.854l-22.782-76.67L318.696,184.8
			L184.985,310.423z M215.773,402.206l4.786-46.499l20.145,14.014L215.773,402.206z M400.47,432.105L235.829,317.572l220.319-206.99
			L400.47,432.105z"/>
    </symbol>

    <symbol id="activities03" role="img" aria-labelledby="activities03_title" viewBox="0 0 512 512">
        <title id="activities03_title"></title>
        <path d="m199.945312 359.898438h67.980469v39.988281h-67.980469zm-74.980468-4.996094c-13.804688 0-24.992188 11.1875-24.992188 24.992187 0 13.800781 11.1875 24.992188 24.992188 24.992188 13.804687 0 24.992187-11.191407 24.992187-24.992188 0-13.804687-11.1875-24.992187-24.992187-24.992187zm276.921875-121.96875h-201.941407v39.988281h201.941407zm-276.921875-4.996094c-13.804688 0-24.992188 11.1875-24.992188 24.992188 0 13.804687 11.1875 24.992187 24.992188 24.992187 13.804687 0 24.992187-11.1875 24.992187-24.992187 0-13.804688-11.1875-24.992188-24.992187-24.992188zm276.921875-114.96875h-201.941407v39.988281h201.941407zm-276.921875-5c-13.804688 0-24.992188 11.191406-24.992188 24.992188 0 13.804687 11.1875 24.996093 24.992188 24.996093 13.804687 0 24.992187-11.191406 24.992187-24.996093 0-13.800782-11.1875-24.992188-24.992187-24.992188zm-84.976563 343.90625v-391.890625c0-11.027344 8.96875-19.996094 19.996094-19.996094h391.890625c11.023438 0 19.992188 8.96875 19.992188 19.996094v225.9375h39.988281v-225.9375c0-33.074219-26.90625-59.984375-59.980469-59.984375h-391.890625c-33.074219 0-59.984375 26.910156-59.984375 59.984375v391.890625c0 33.074219 26.910156 59.980469 59.984375 59.980469h230.933594v-39.988281h-230.933594c-11.027344 0-19.996094-8.96875-19.996094-19.992188zm443.734375 60.125-39.820312-39.820312c-13.472656 8.050781-29.210938 12.683593-46.011719 12.683593-49.613281 0-89.976563-40.363281-89.976563-89.972656 0-49.613281 40.363282-89.976563 89.976563-89.976563 49.609375 0 89.972656 40.363282 89.972656 89.976563 0 18.355469-5.53125 35.441406-15.003906 49.691406l39.140625 39.140625zm-85.832031-67.125c27.5625 0 49.984375-22.421875 49.984375-49.984375s-22.421875-49.988281-49.984375-49.988281-49.988281 22.425781-49.988281 49.988281 22.425781 49.984375 49.988281 49.984375zm0 0"/>
    </symbol>

    <symbol id="activities04" role="img" aria-labelledby="activities04_title" viewBox="0 0 512 512">
        <title id="activities04_title"></title>
        <path d="m512 474.539062-51.105469-51.105468c8.75-13.871094 13.820313-30.28125 13.820313-47.855469 0-49.597656-40.347656-89.949219-89.945313-89.949219-49.597656 0-89.945312 40.351563-89.945312 89.949219 0 49.59375 40.347656 89.945313 89.945312 89.945313 17.574219 0 33.988281-5.074219 47.855469-13.824219l51.105469 51.105469zm-127.230469-48.992187c-27.554687 0-49.96875-22.417969-49.96875-49.96875 0-27.554687 22.414063-49.972656 49.96875-49.972656 27.554688 0 49.96875 22.417969 49.96875 49.972656 0 27.550781-22.414062 49.96875-49.96875 49.96875zm-105.949219 25.148437h-218.855468c-11.023438 0-19.988282-8.96875-19.988282-19.988281v-211.875h195.882813v49.96875h39.976563v-49.96875h195.882812v60.292969c19.796875 17.863281 34.082031 41.71875 39.976562 68.679688v-207.886719c0-33.066407-26.902343-59.964844-59.964843-59.964844h-106.011719v-19.988281c0-33.066406-26.898438-59.964844-59.964844-59.964844h-59.816406c-33.0625 0-59.960938 26.898438-59.960938 59.964844v19.988281h-106.011718c-33.066406 0-59.964844 26.898437-59.964844 59.964844v290.789062c0 33.0625 26.898438 59.960938 59.964844 59.960938h264.585937c-18.207031-9.5625-33.882812-23.3125-45.730469-39.972657zm-72.871093-390.730468c0-11.023438 8.96875-19.988282 19.988281-19.988282h59.816406c11.023438 0 19.988282 8.964844 19.988282 19.988282v19.988281h-99.792969zm-165.972657 79.953125c0-11.023438 8.964844-20.027344 19.988282-20.027344h391.765625c11.019531 0 19.988281 9.003906 19.988281 20.027344v38.9375h-431.742188zm0 0"/>
    </symbol>

    <symbol id="activities05" role="img" aria-labelledby="activities05_title" viewBox="0 0 512 512">
        <title id="activities05_title"></title>
        <path d="m512 428h-84v84h-40v-84h-84v-40h84v-84h40v84h84zm-212.695312-204.5625c1.757812 7.910156 2.695312 16.128906 2.695312 24.5625 0 34.550781-15.59375 65.527344-40.105469 86.269531.699219.277344 1.40625.546875 2.105469.832031v44.199219c-21.414062-11.667969-45.945312-18.300781-72-18.300781v-.039062c-.332031.007812-.667969.007812-1 .015624v.023438c-83.261719 0-151 67.738281-151 151h-40c0-79.371094 48.671875-147.582031 117.730469-176.378906-25.449219-20.734375-41.730469-52.3125-41.730469-87.621094 0-62.308594 50.691406-113 113-113 7.40625 0 14.644531.722656 21.65625 2.089844-1.734375-7.84375-2.65625-15.988282-2.65625-24.34375 0-62.167969 50.578125-112.746094 112.746094-112.746094 62.167968 0 112.746094 50.578125 112.746094 112.746094 0 34.894531-15.9375 66.136718-40.910157 86.832031 33.011719 13.109375 61.464844 35.117187 82.304688 63.421875h-53.847657c-24.847656-22.023438-56.976562-36-92.273437-37.796875-2.652344.1875-5.324219.289063-8.019531.289063-7.332032 0-14.5-.710938-21.441406-2.054688zm-51.304688-110.691406c0 40.113281 32.632812 72.746094 72.746094 72.746094 40.109375 0 72.746094-32.632813 72.746094-72.746094 0-40.113282-32.636719-72.746094-72.746094-72.746094-40.113282 0-72.746094 32.632812-72.746094 72.746094zm14 135.253906c0-40.253906-32.746094-73-73-73s-73 32.746094-73 73 32.746094 73 73 73 73-32.746094 73-73zm0 0"/>
    </symbol>

    <symbol id="arrow" role="img" aria-labelledby="arrow_title" viewBox="0 0 451.846 451.847">
        <title id="arrow_title"></title>
        <path d="M345.441,248.292L151.154,442.573c-12.359,12.365-32.397,12.365-44.75,0c-12.354-12.354-12.354-32.391,0-44.744
		L278.318,225.92L106.409,54.017c-12.354-12.359-12.354-32.394,0-44.748c12.354-12.359,32.391-12.359,44.75,0l194.287,194.284
		c6.177,6.18,9.262,14.271,9.262,22.366C354.708,234.018,351.617,242.115,345.441,248.292z"/>
    </symbol>

    <symbol id="footer-facebook" role="img" aria-labelledby="footer-facebook_title" viewBox="0 0 512 512">
        <title id="footer-facebook_title">Facebook</title>
        <path d="M314.829,135.492h70.595c11.423,0,20.682-9.26,20.682-20.682V20.682C406.107,9.26,396.848,0,385.425,0h-70.595
            c-76.282,0-138.341,62.06-138.341,138.341v49.913h-49.913c-11.422,0-20.682,9.26-20.682,20.682v94.127
            c0,11.423,9.26,20.682,20.682,20.682h49.913v167.572c0,11.423,9.26,20.682,20.682,20.682h94.127
            c11.423,0,20.682-9.259,20.682-20.682V323.746h49.913c9.49,0,17.763-6.458,20.065-15.666l23.532-94.127
            c1.544-6.179,0.156-12.725-3.763-17.744c-3.919-5.02-9.932-7.954-16.301-7.954H311.98v-49.913
            C311.98,136.77,313.258,135.492,314.829,135.492z M291.298,229.619h67.637l-13.191,52.763h-54.447
            c-11.423,0-20.682,9.259-20.682,20.682v167.572h-52.763V303.064c0-11.423-9.26-20.682-20.682-20.682h-49.913v-52.763h49.913
            c11.422,0,20.682-9.26,20.682-20.682v-70.595c0-53.473,43.503-96.977,96.977-96.977h49.913v52.763h-49.913
            c-24.38,0-44.214,19.835-44.214,44.214v70.595C270.615,220.359,279.875,229.619,291.298,229.619z"/>
    </symbol>

    <symbol id="footer-twitter" role="img" aria-labelledby="footer-twitter_title" viewBox="0 0 512 512">
        <title id="footer-twitter_title">Twitter</title>
        <path d="M502.954,47.189c-7.126-4.852-16.515-4.774-23.559,0.196c-15.351,10.828-31.974,19.528-49.557,25.948
            c-19.253-17.414-43.615-27.826-69.915-29.656c-31.056-2.16-61.081,7.9-84.561,28.326c-25.59,22.259-40.174,54.444-40.046,88.349
            c-85.248-7.609-139.14-61.55-177.09-108.986c-4.598-5.746-11.901-8.619-19.182-7.538c-7.279,1.078-13.438,5.944-16.171,12.777
            c-0.948,2.369-23.141,58.799-17.453,127.057c4.761,57.133,30.23,131.964,120.039,181.717
            c-32.436,14.756-68.282,21.939-103.953,20.519c-9.576-0.378-18.15,5.859-20.736,15.08c-2.587,9.221,1.497,19.013,9.869,23.665
            c51.359,28.532,108.03,43.736,163.889,43.965c0.432,0.002,0.861,0.003,1.294,0.003c54.105-0.001,106.379-13.938,151.246-40.336
            c42.898-25.241,78.416-61.759,102.715-105.603c26.162-47.206,39.427-101.75,39.427-162.186c-0.011-3.544-0.186-7.098-0.52-10.638
            c20.7-22.885,35.388-50.567,42.719-80.667C513.451,60.803,510.081,52.04,502.954,47.189z M432.297,128.07
            c-4.916,4.847-7.088,11.827-5.793,18.607c0.877,4.588,1.329,9.278,1.344,13.874c0,101.956-44.378,186.544-121.756,232.072
            c-60.586,35.649-133.037,43.933-203.609,25.057c0.729-0.201,1.459-0.407,2.185-0.615c27.596-7.885,53.63-20.055,77.377-36.174
            c6.329-4.296,9.77-11.734,8.946-19.34c-0.825-7.605-5.778-14.134-12.881-16.975C97.757,312.434,53.563,257.594,46.757,181.575
            c-2.536-28.334,0.707-54.721,4.766-74.501c16.638,17.909,37.384,37.227,62.129,53.407c42.771,27.966,90.663,42.146,142.346,42.146
            c11.423,0,20.682-9.26,20.682-20.682v-21.393c0-0.045,0-0.091,0-0.137c-0.146-21.948,9.268-42.797,25.829-57.202
            c15.146-13.175,34.51-19.665,54.543-18.27c20.026,1.393,38.311,10.502,51.487,25.648c5.339,6.138,13.783,8.577,21.567,6.229
            c5.725-1.724,11.375-3.645,16.941-5.757C442.599,117.081,437.672,122.769,432.297,128.07z"/>
    </symbol>    

    <symbol id="footer-linkedin" role="img" aria-labelledby="footer-linkedin_title" viewBox="0 0 512 512">
        <title id="footer-linkedin_title">Linkedin</title>
        <path d="M2.5,510V153.7h137.3V510H2.5z M102.5,472.7V191H39.8v281.7H102.5z"/>
        <path d="M375.4,510l0.1-158.1c0.5-23.6-8.8-42.9-24.9-51.7c-5.4-3-11.2-4.5-17.3-4.5c-5.2,0-10.4,1.1-15.5,3.3l-1.1,211H176.1
            V153.7h140.6V166c16.6-6,33.6-9.1,50.6-9.1c24.7,0,48.3,6.4,70.2,18.9c44,25.2,72.5,71.8,72.5,118.8V510H375.4z M472.7,472.7V294.6
            c0-33.8-21.1-67.7-53.7-86.4c-15.9-9.1-33.8-13.9-51.7-14h-0.3c-20.1,0-40.1,5.8-59.6,17.3L279.4,228V191h-66.1v281.7h66.2l1-194.7
            l8.2-5.5c13.7-9.2,29.1-14.1,44.5-14.1c12.4,0,24.2,3,35.1,9c13.7,7.5,25,19.2,32.8,33.8c7.9,14.9,11.9,32.6,11.5,51.1l0,120.3
            H472.7z"/>
        <path d="M70.9,139.9C32.9,139.9,2,109,2,71c0-38,30.9-69,68.9-69c38,0,68.9,30.9,68.9,69C139.8,109,108.9,139.9,70.9,139.9z
             M70.9,39.3c-17.4,0-31.6,14.2-31.6,31.7c0,17.5,14.2,31.7,31.6,31.7c17.4,0,31.6-14.2,31.6-31.7C102.5,53.5,88.3,39.3,70.9,39.3z"
            />
    </symbol>

    <symbol id="footer-instagram" role="img" aria-labelledby="footer-instagram_title" viewBox="0 0 512 512">
        <title id="footer-instagram_title">Instagram</title>
        <path d="M373.659,0H138.341C62.06,0,0,62.06,0,138.341v235.318C0,449.94,62.06,512,138.341,512h235.318
            C449.94,512,512,449.94,512,373.659V138.341C512,62.06,449.94,0,373.659,0z M470.636,373.659
            c0,53.473-43.503,96.977-96.977,96.977H138.341c-53.473,0-96.977-43.503-96.977-96.977V138.341
            c0-53.473,43.503-96.977,96.977-96.977h235.318c53.473,0,96.977,43.503,96.977,96.977V373.659z"/>
        <path d="M370.586,238.141c-3.64-24.547-14.839-46.795-32.386-64.342c-17.547-17.546-39.795-28.746-64.341-32.385
            c-11.176-1.657-22.507-1.657-33.682,0c-30.336,4.499-57.103,20.541-75.372,45.172c-18.269,24.631-25.854,54.903-21.355,85.237
            c4.499,30.335,20.541,57.102,45.172,75.372c19.996,14.831,43.706,22.619,68.153,22.619c5.667,0,11.375-0.418,17.083-1.265
            c30.336-4.499,57.103-20.541,75.372-45.172C367.5,298.747,375.085,268.476,370.586,238.141z M267.791,327.632
            c-19.405,2.882-38.77-1.973-54.527-13.66c-15.757-11.687-26.019-28.811-28.896-48.216c-2.878-19.405,1.973-38.77,13.66-54.527
            c11.688-15.757,28.811-26.019,48.217-28.897c3.574-0.53,7.173-0.795,10.772-0.795s7.199,0.265,10.773,0.796
            c32.231,4.779,57.098,29.645,61.878,61.877C335.608,284.268,307.851,321.692,267.791,327.632z"/>
        <path d="M400.049,111.951c-3.852-3.851-9.183-6.058-14.625-6.058c-5.442,0-10.773,2.206-14.625,6.058
            c-3.851,3.852-6.058,9.174-6.058,14.625c0,5.451,2.207,10.773,6.058,14.625c3.852,3.851,9.183,6.058,14.625,6.058
            c5.442,0,10.773-2.206,14.625-6.058c3.851-3.852,6.058-9.183,6.058-14.625C406.107,121.133,403.9,115.802,400.049,111.951z"/>
    </symbol>

</svg>