<svg xmlns="http://www.w3.org/2000/svg" xmlns:xlink="http://www.w3.org/1999/xlink">

	<symbol id="header-loupe" role="img" aria-labelledby="header-loupe_title" viewBox="0 0 512 512">
        <title id="header-loupe_title"></title>
        <path d="M216.8,41.4c96.7,0,175.4,78.7,175.4,175.4c0,96.7-78.7,175.4-175.4,175.4c-96.7,0-175.4-78.7-175.4-175.4
				C41.4,120.1,120.1,41.4,216.8,41.4z"/>
		<path style="fill:#000;" d="M370.1,63.5c40.9,41,63.5,95.4,63.5,153.3S411,329.1,370.1,370.1c-41,40.9-95.4,63.5-153.3,63.5S104.4,411,63.5,370.1
				C22.5,329.1,0,274.7,0,216.8S22.5,104.4,63.5,63.5C104.4,22.5,158.9,0,216.8,0C274.7,0,329.1,22.5,370.1,63.5z M392.2,216.8
				c0-96.7-78.7-175.4-175.4-175.4c-96.7,0-175.4,78.7-175.4,175.4c0,96.7,78.7,175.4,175.4,175.4
				C313.5,392.2,392.2,313.5,392.2,216.8z"/>
		<path style="fill:#000;" d="M505.9,476.7l-136-136c-8.1-8.1-21.2-8.1-29.2,0c-8.1,8.1-8.1,21.2,0,29.2l136,136c4,4,9.3,6.1,14.6,6.1s10.6-2,14.6-6.1
			C514,497.9,514,484.8,505.9,476.7z"/>
    </symbol>

    <symbol id="header-phone" role="img" aria-labelledby="header-phone_title" viewBox="0 0 512 512">
        <title id="header-phone_title"></title>
        <path style="fill:#000;" d="M421.2,195.5c-5.1-26.1-17.7-49.8-36.5-68.6c-18.8-18.8-42.5-31.4-68.6-36.5c-11.2-2.2-22.1,5.1-24.3,16.3
			c-2.2,11.2,5.1,22.1,16.3,24.3c36.8,7.2,65.3,35.6,72.5,72.5c1.9,9.9,10.6,16.7,20.3,16.7c1.3,0,2.6-0.1,4-0.4
			C416.1,217.6,423.4,206.7,421.2,195.5z"/>
		<path style="fill:#000;" d="M511.4,196.9c-5.6-50.1-28.4-97.3-64-132.9c-35.7-35.6-82.9-58.3-133-63.9C303-1.1,292.8,7,291.5,18.4
			c-1.3,11.4,6.9,21.6,18.3,22.8c85,9.4,151,75.4,160.5,160.3c1.2,10.6,10.1,18.4,20.5,18.4c0.8,0,1.6,0,2.3-0.1
			C504.5,218.5,512.7,208.3,511.4,196.9z"/>
		<path d="M426.9,353.5c12.2,1.8,21.1,12.3,20.8,24.6c0,0.2,0,0.3,0,0.5v67.5c0,13.4-10.8,24.3-24.2,24.4c-0.7,0-1.4,0-2.1-0.1
			c-65.6-7.2-129.5-29.9-184.8-65.8c-0.1,0-0.1-0.1-0.2-0.1c-51.4-32.7-95.9-77.1-128.6-128.6c0-0.1-0.1-0.1-0.1-0.1
			c-36-55.6-58.8-119.8-65.8-185.7c-1.1-13.3,8.7-25,22-26.2c0.7-0.1,1.5-0.1,2.2-0.1h67.5c0.1,0,0.3,0,0.4,0
			c12,0,22.3,8.9,24.1,20.8c3.1,23.1,8.7,45.8,16.9,67.7c3.3,8.8,1.2,18.9-5.4,25.6l-28.5,28.5c-6.6,6.6-8,16.8-3.4,24.9
			c33.8,59.5,83.2,108.8,142.7,142.7c8.1,4.6,18.3,3.2,24.8-3.4l28.5-28.5c6.7-6.6,16.8-8.8,25.6-5.4
			C381.1,344.8,403.8,350.5,426.9,353.5z"/>
		<path style="fill:#000;" d="M432.6,312.6c32.9,4.6,57.2,33.1,56.5,66.4v67.2c0.1,36.1-29.2,65.7-65.4,65.8c-0.1,0-0.2,0-0.3,0c-2,0-4-0.1-5.9-0.3
			c-0.1,0-0.3,0-0.4,0c-72-7.8-142.2-32.8-203-72.2c-56.5-35.9-105.3-84.7-141.2-141.2C33.4,237.3,8.4,166.7,0.8,94.4
			c0-0.1,0-0.2,0-0.3C-2.5,58,24.1,26,60.2,22.8c1.9-0.2,3.9-0.3,5.9-0.3h67.4c32.8-0.3,60.9,24,65.6,56.5c0,0.1,0,0.1,0,0.2
			c2.6,20,7.6,39.8,14.6,58.7c9,23.9,3.2,51.1-14.8,69.2c0,0-0.1,0.1-0.1,0.1l-17.1,17.2c26.9,42.6,63,78.7,105.7,105.7l17.1-17.2
			c0,0,0.1,0,0.1-0.1c18.2-18,45.4-23.8,69.3-14.8c18.9,7,38.6,11.9,58.6,14.6C432.5,312.5,432.5,312.6,432.6,312.6z M447.7,378.2
			c0.3-12.3-8.6-22.9-20.8-24.6c-23.1-3.1-45.8-8.7-67.6-16.9c-8.9-3.3-18.9-1.2-25.6,5.4l-28.5,28.5c-6.6,6.6-16.8,8-24.8,3.4
			c-59.5-33.8-108.9-83.2-142.7-142.7c-4.6-8.1-3.2-18.3,3.4-24.9l28.5-28.5c6.6-6.7,8.8-16.8,5.4-25.6
			c-8.1-21.8-13.8-44.6-16.9-67.7c-1.7-11.9-12-20.8-24.1-20.8c-0.1,0-0.3,0-0.4,0H66.1c-0.7,0-1.4,0-2.2,0.1
			c-13.3,1.2-23.1,13-22,26.2c7,65.9,29.8,130.1,65.8,185.7c0,0,0.1,0.1,0.1,0.1c32.7,51.4,77.1,95.9,128.6,128.6
			c0.1,0,0.1,0.1,0.2,0.1c55.3,35.9,119.3,58.7,184.8,65.8c0.7,0.1,1.4,0.1,2.1,0.1c13.4-0.1,24.2-11,24.2-24.4v-67.5
			C447.7,378.5,447.7,378.4,447.7,378.2z"/>
	</symbol>

	<symbol id="header-account" role="img" aria-labelledby="header-account_title" viewBox="0 0 512 512">
        <title id="header-account_title"></title>
        <path d="M339.9,112.8c6.8,45.6-24.9,88.3-70.5,95c-22.1,3.3-44.2-2.2-62.1-15.5c-17.9-13.3-29.6-32.8-32.9-54.9
			c-6.8-45.6,24.8-88.2,70.5-95c4.1-0.6,8.2-0.9,12.3-0.9s8.2,0.3,12.3,0.9C306.1,47.7,334.4,76,339.9,112.8z"/>
		<path d="M474.5,426c-2.8-41.9-37.7-75-80.3-75H115.5c-42.6,0-77.5,33.1-80.3,75H20v86h95.5h278.7h95.5v-86H474.5z"/>
        <path style="fill:#000;" d="M511.4,465.2v26.1c0,11.4-9.3,20.7-20.7,20.7c-11.4,0-20.7-9.3-20.7-20.7v-26.1c0-59.5-98-109.7-214.1-109.7
			S41.9,405.8,41.9,465.2v26.1c0,11.4-9.3,20.7-20.7,20.7s-20.7-9.3-20.7-20.7v-26.1c0-84.7,112.2-151.1,255.4-151.1
			C399.2,314.1,511.4,380.5,511.4,465.2z"/>
		<path style="fill:#000;" d="M380.8,106.7c10.1,68.2-37.1,131.9-105.3,142c-6.2,0.9-12.4,1.4-18.6,1.4c-26.6,0-52.4-8.5-74.2-24.6
			c-26.8-19.9-44.3-49-49.2-82.1c-10.1-68.2,37.1-131.9,105.3-142c12.2-1.8,24.5-1.8,36.7,0c26.7,4,51,16.2,70.1,35.3
			C364.6,55.7,376.8,79.9,380.8,106.7z M269.4,207.8c45.6-6.8,77.2-49.4,70.5-95c-5.5-36.7-33.8-65-70.5-70.5
			c-4.1-0.6-8.2-0.9-12.3-0.9s-8.2,0.3-12.3,0.9c-45.6,6.8-77.2,49.4-70.5,95c3.3,22.1,15,41.6,32.9,54.9
			C225.2,205.5,247.3,211,269.4,207.8z"/>
    </symbol>

	<symbol id="header-cart" role="img" aria-labelledby="header-cart_title" viewBox="0 0 512 512">
        <title id="header-cart_title"></title>
        <path d="M472,430.3h0.1c-0.1,0.6-0.1,1.1-0.1,1.7c0,22.1-17.9,40-40,40H80c-22.1,0-40-17.9-40-40V172h106v75c0,11,9,20,20,20
			s20-9,20-20v-75h60h10h70v75c0,11,9,20,20,20s20-9,20-20v-75h106v150.3v9.7V430.3z"/>
		<path style="fill:#000;" d="M512,152v180c0,0.5-0.1,1-0.1,1.5v96.8c0.1,0.6,0.1,1.1,0.1,1.7c0,44.1-35.9,80-80,80H80c-44.1,0-80-35.9-80-80V152
			c0-11,9-20,20-20h126v-22C146,49.3,195.3,0,256,0s110,49.3,110,110v22h126C503,132,512,141,512,152z M472.1,430.3H472V332v-9.7
			V172H366v75c0,11-9,20-20,20s-20-9-20-20v-75h-70h-10h-60v75c0,11-9,20-20,20s-20-9-20-20v-75H40v260c0,22.1,17.9,40,40,40h352
			c22.1,0,40-17.9,40-40C472,431.4,472,430.9,472.1,430.3z M326,132v-22c0-38.6-31.4-70-70-70s-70,31.4-70,70v22h60h10H326z"/>
    </symbol>

    <symbol id="header-menu06" role="img" aria-labelledby="header-menu06_title" viewBox="0 0 510 510">
        <title id="header-menu06_title"></title>
        <path d="M150.45,206.55l-35.7,35.7L229.5,357l255-255l-35.7-35.7L229.5,285.6L150.45,206.55z M459,255c0,112.2-91.8,204-204,204
			S51,367.2,51,255S142.8,51,255,51c20.4,0,38.25,2.55,56.1,7.65l40.801-40.8C321.3,7.65,288.15,0,255,0C114.75,0,0,114.75,0,255
			s114.75,255,255,255s255-114.75,255-255H459z"/>
    </symbol>    

    <symbol id="heart" role="img" aria-labelledby="heart_title" viewBox="0 0 378.9 378.9">
        <title id="heart_title"></title>
        <path d="M325.1,77.5c28.4,28.4,28.4,74.5,0,102.9L189.5,316.1L53.8,180.4c-28.4-28.4-28.4-74.5,0-102.9
			c13.7-13.7,32-21.3,51.5-21.3s37.7,7.5,51.4,21.3L178,98.8c6.1,6.1,16.9,6.1,23,0l21.3-21.3c13.7-13.7,32-21.3,51.4-21.3
			C293.1,56.2,311.4,63.8,325.1,77.5z"/>
		<path style="fill:#000;" d="M348.1,54.5c41.1,41.1,41.1,107.9,0,148.9L201.1,350.5c-3.2,3.2-7.3,4.8-11.5,4.8c-1.1,0-2.1-0.1-3.2-0.3
			c-3.1-0.6-6.1-2.1-8.5-4.5L30.8,203.4c-41.1-41-41.1-107.8,0-148.9c19.9-19.9,46.3-30.8,74.4-30.8s54.6,10.9,74.4,30.8l9.8,9.8
			l9.8-9.8c19.9-19.9,46.3-30.8,74.4-30.8C301.8,23.7,328.3,34.6,348.1,54.5z M325.1,180.4c28.4-28.4,28.4-74.5,0-102.9
			c-13.7-13.7-32-21.3-51.4-21.3c-19.4,0-37.7,7.5-51.4,21.3L201,98.8c-6.1,6.1-16.9,6.1-23,0l-21.3-21.3
			c-13.7-13.7-32-21.3-51.4-21.3s-37.7,7.5-51.5,21.3c-28.4,28.4-28.4,74.5,0,102.9l135.7,135.7L325.1,180.4z"/>
    </symbol>

    <symbol id="button-arrow" role="img" aria-labelledby="button-arrow_title" viewBox="0 0 612 612">
        <title id="button-arrow_title"></title>
        <path d="M277.58,179.679l-0.057,0.077c-5.125-4.705-11.857-7.631-19.335-7.631c-15.835,0-28.688,12.852-28.688,28.688
				c0,8.377,3.634,15.835,9.352,21.076l-0.057,0.077L330.48,306l-91.686,84.055l0.057,0.076c-5.718,5.221-9.352,12.68-9.352,21.057
				c0,15.836,12.852,28.688,28.688,28.688c7.478,0,14.21-2.926,19.335-7.611l0.057,0.076l114.75-105.188
				c5.91-5.451,9.295-13.101,9.295-21.152s-3.385-15.702-9.295-21.152L277.58,179.679z M306,0C137.012,0,0,137.012,0,306
				s137.012,306,306,306s306-137.012,306-306S474.988,0,306,0z M306,554.625C168.912,554.625,57.375,443.088,57.375,306
				S168.912,57.375,306,57.375S554.625,168.912,554.625,306S443.088,554.625,306,554.625z"/>
    </symbol>

    <symbol id="advantages01" role="img" aria-labelledby="advantages01_title" viewBox="0 0 512 512">
        <title id="advantages01_title"></title>
		<path d="M63.26,340.44c-7.81,7.81-7.81,20.48,0,28.29c3.9,3.9,9.02,5.85,14.14,5.85s10.24-1.95,14.14-5.85
			c7.81-7.81,7.81-20.47,0-28.29C83.73,332.63,71.07,332.63,63.26,340.44z"/>
		<path d="M27.21,272.55c-10.2,4.23-15.04,15.93-10.81,26.14c3.19,7.69,10.64,12.34,18.48,12.34c2.55,0,5.15-0.49,7.65-1.53
			c10.21-4.23,15.05-15.93,10.82-26.13C49.11,273.16,37.41,268.32,27.21,272.55z"/>
		<path d="M17.757,235.864c0.099,0.011,0.197,0.026,0.296,0.035C18.705,235.97,19.357,236,20,236c0.642,0,1.294-0.03,1.946-0.098
			c0.1-0.01,0.199-0.024,0.299-0.036c0.521-0.058,1.049-0.137,1.568-0.239c2.201-0.426,4.267-1.217,6.148-2.301
			c0.321-0.183,0.637-0.374,0.946-0.574c0.179-0.116,0.355-0.235,0.529-0.357c0.382-0.265,0.754-0.542,1.111-0.83
			c0.119-0.096,0.236-0.194,0.353-0.292c0.392-0.328,0.772-0.673,1.133-1.03c0.07-0.069,0.14-0.138,0.209-0.208
			c0.357-0.362,0.703-0.742,1.032-1.135c0.536-0.634,1.029-1.302,1.484-2c0.199-0.307,0.389-0.621,0.57-0.939
			c1.083-1.88,1.874-3.945,2.299-6.146c0.103-0.519,0.182-1.047,0.239-1.568c0.011-0.1,0.026-0.198,0.036-0.299
			C39.97,217.294,40,216.642,40,216c0-97.047,78.953-176,176-176s176,78.953,176,176v53.773l-39.977-39.978
			c-7.811-7.811-20.474-7.812-28.284,0c-7.811,7.81-7.811,20.474,0,28.284l43.174,43.175
			c12.477,12.477,28.866,18.715,45.255,18.715c16.389,0,32.778-6.238,45.255-18.715l41.719-41.719
			c7.811-7.811,7.811-20.474,0-28.284c-7.811-7.81-20.474-7.811-28.284,0L432,270.109V216c0-57.696-22.468-111.938-63.265-152.735
			C327.938,22.468,273.696,0,216,0C158.304,0,104.062,22.468,63.265,63.265S0,158.304,0,216c0,0.642,0.03,1.294,0.098,1.947
			c0.01,0.099,0.024,0.196,0.035,0.295c0.058,0.529,0.139,1.065,0.243,1.591c0.426,2.192,1.216,4.25,2.295,6.123
			c0.182,0.32,0.373,0.635,0.573,0.943c0.454,0.697,0.947,1.364,1.482,1.997c0.331,0.397,0.681,0.781,1.042,1.146
			c0.063,0.064,0.126,0.127,0.19,0.19c0.366,0.362,0.752,0.713,1.15,1.045c0.111,0.094,0.222,0.187,0.336,0.278
			c0.36,0.291,0.736,0.572,1.122,0.839c0.174,0.121,0.349,0.239,0.527,0.355c0.31,0.201,0.627,0.393,0.948,0.576
			c1.879,1.082,3.943,1.874,6.143,2.299C16.705,235.727,17.234,235.806,17.757,235.864z"/>
		<path d="M148.61,378.64c-10.2-4.23-21.9,0.61-26.14,10.81c-4.23,10.2,0.61,21.91,10.81,26.14c2.51,1.04,5.11,1.53,7.66,1.53
			c7.85,0,15.29-4.64,18.48-12.34C163.65,394.58,158.81,382.87,148.61,378.64z"/>
		<path d="M235.61,408.09c-0.13-0.63-0.29-1.27-0.48-1.9c-0.19-0.62-0.41-1.24-0.66-1.84c-0.25-0.6-0.53-1.2-0.83-1.77
			c-0.31-0.58-0.65-1.14-1.01-1.68c-0.36-0.55-0.75-1.08-1.16-1.58c-0.42-0.51-0.86-1-1.32-1.46c-0.46-0.46-0.96-0.91-1.46-1.32
			c-0.51-0.41-1.04-0.81-1.58-1.17c-0.55-0.36-1.11-0.7-1.69-1c-0.57-0.31-1.17-0.59-1.77-0.84c-0.6-0.25-1.22-0.47-1.84-0.66
			s-1.26-0.35-1.9-0.48c-0.64-0.13-1.29-0.22-1.94-0.29c-1.3-0.13-2.63-0.13-3.93,0c-0.65,0.07-1.3,0.16-1.94,0.29
			c-0.64,0.13-1.28,0.29-1.9,0.48s-1.24,0.41-1.85,0.66c-0.6,0.25-1.19,0.53-1.77,0.84c-0.57,0.3-1.14,0.64-1.68,1
			c-0.54,0.36-1.07,0.76-1.58,1.17c-0.51,0.41-1,0.86-1.46,1.32s-0.91,0.95-1.32,1.46c-0.41,0.5-0.8,1.03-1.17,1.58
			c-0.35,0.54-0.69,1.1-1,1.68c-0.3,0.57-0.59,1.17-0.83,1.77c-0.25,0.6-0.48,1.22-0.66,1.84c-0.19,0.63-0.36,1.27-0.48,1.9
			c-0.13,0.64-0.23,1.3-0.3,1.94c-0.06,0.66-0.1,1.32-0.1,1.97c0,0.65,0.04,1.31,0.1,1.97c0.07,0.64,0.17,1.3,0.3,1.94
			c0.12,0.64,0.29,1.27,0.48,1.9c0.18,0.62,0.41,1.24,0.66,1.84c0.24,0.6,0.53,1.2,0.83,1.77c0.31,0.58,0.65,1.14,1,1.68
			c0.37,0.55,0.76,1.08,1.17,1.58c0.41,0.51,0.86,1,1.32,1.46c0.46,0.46,0.95,0.91,1.46,1.32c0.51,0.41,1.04,0.81,1.58,1.17
			c0.54,0.36,1.11,0.7,1.68,1c0.58,0.31,1.17,0.59,1.77,0.84c0.61,0.25,1.23,0.47,1.85,0.66s1.26,0.35,1.9,0.48
			c0.64,0.13,1.29,0.23,1.94,0.29c0.65,0.07,1.31,0.1,1.96,0.1c0.66,0,1.32-0.03,1.97-0.1c0.65-0.06,1.3-0.16,1.94-0.29
			c0.64-0.13,1.28-0.29,1.9-0.48s1.24-0.41,1.84-0.66c0.6-0.25,1.2-0.53,1.77-0.84c0.58-0.3,1.14-0.64,1.69-1
			c0.54-0.36,1.07-0.76,1.58-1.17c0.5-0.41,1-0.86,1.46-1.32s0.9-0.95,1.32-1.46c0.41-0.5,0.8-1.03,1.16-1.58
			c0.36-0.54,0.7-1.1,1.01-1.68c0.3-0.57,0.58-1.17,0.83-1.77s0.47-1.22,0.66-1.84c0.19-0.63,0.35-1.26,0.48-1.9
			s0.23-1.3,0.29-1.94c0.07-0.66,0.1-1.32,0.1-1.97c0-0.65-0.03-1.31-0.1-1.97C235.84,409.39,235.74,408.73,235.61,408.09z"/>
		<path d="M354,472h-14.325c29.215-33.117,33.036-49.442,33.036-60c0-27.57-22.43-50-50-50c-0.12,0-0.236,0.016-0.355,0.018
			C322.236,362.016,322.12,362,322,362c-27.57,0-50,22.43-50,50c0,11.046,8.954,20,20,20c11.046,0,20-8.954,20-20
			c0-5.42,4.58-10,10-10c0.12,0,0.236-0.016,0.355-0.018c0.12,0.002,0.235,0.018,0.355,0.018c5.351,0,9.881,4.462,9.998,9.79
			c-0.195,1.029-2.658,11.331-26.191,37.282c-13.94,15.374-27.811,27.984-27.945,28.106c-6.128,5.552-8.208,14.303-5.233,22.018
			C276.314,506.911,283.731,512,292,512h62c11.046,0,20-8.954,20-20C374,480.954,365.046,472,354,472z"/>
		<path d="M492,362c-11.046,0-20,8.954-20,20v24.5c0,7.995-6.505,14.5-14.5,14.5s-14.5-6.505-14.5-14.5V382
			c0-11.046-8.954-20-20-20c-11.046,0-20,8.954-20,20v24.5c0,30.051,24.449,54.5,54.5,54.5c5.021,0,9.88-0.697,14.5-1.974V492
			c0,11.046,8.954,20,20,20c11.046,0,20-8.954,20-20V382C512,370.954,503.046,362,492,362z"/>
		<path d="M216,80c-11.046,0-20,8.954-20,20v107.716l-50.142,50.142c-7.811,7.81-7.811,20.473,0,28.284
			C149.763,290.047,154.881,292,160,292s10.237-1.953,14.142-5.858l56-56c3.751-3.75,5.858-8.838,5.858-14.142V100
			C236,88.954,227.046,80,216,80z"/>
    </symbol>

    <symbol id="advantages02" role="img" aria-labelledby="advantages02_title" viewBox="0 0 512 512">
        <title id="advantages02_title"></title>
        <path d="M53.196,133.658c3.543,2.585,7.655,3.823,11.737,3.823c6.168,0,12.246-2.844,16.148-8.214
			c6.487-8.913,4.521-21.398-4.391-27.885c-8.913-6.487-21.398-4.521-27.885,4.391C42.317,114.686,44.283,127.171,53.196,133.658z"
			/>
		<path d="M25.281,202.115c2.046,0.669,4.122,0.988,6.168,0.988c8.414,0,16.238-5.359,18.983-13.793
			c3.403-10.49-2.325-21.747-12.815-25.161c-10.479-3.403-21.747,2.335-25.151,12.815C9.052,187.453,14.791,198.711,25.281,202.115
			z"/>
		<path d="M117.071,85.383c4.072,0,8.184-1.248,11.737-3.823c-0.01,0-0.01,0-0.01,0c8.923-6.487,10.889-18.973,4.401-27.885
			c-6.487-8.913-18.973-10.879-27.885-4.391c-8.913,6.487-10.879,18.963-4.391,27.885
			C104.825,82.538,110.903,85.383,117.071,85.383z"/>
		<path d="M0.389,259.902c0.13,0.639,0.289,1.267,0.479,1.896c0.19,0.619,0.409,1.238,0.659,1.836s0.529,1.198,0.838,1.767
			c0.299,0.569,0.639,1.138,0.998,1.677c0.359,0.549,0.749,1.078,1.168,1.577c0.409,0.509,0.858,0.998,1.317,1.457
			s0.948,0.908,1.457,1.317c0.499,0.409,1.028,0.808,1.577,1.168c0.539,0.359,1.108,0.699,1.677,0.998
			c0.569,0.309,1.168,0.589,1.767,0.838c0.599,0.25,1.218,0.469,1.836,0.659c0.629,0.19,1.268,0.349,1.896,0.479
			c0.639,0.13,1.297,0.23,1.936,0.289c0.659,0.07,1.317,0.1,1.966,0.1c0.649,0,1.307-0.03,1.966-0.1
			c0.639-0.06,1.297-0.16,1.936-0.289s1.268-0.289,1.896-0.479c0.619-0.19,1.238-0.409,1.836-0.659
			c0.599-0.25,1.198-0.529,1.767-0.838c0.579-0.299,1.138-0.639,1.677-0.998c0.549-0.359,1.078-0.759,1.577-1.168
			c0.509-0.409,0.998-0.858,1.457-1.317s0.908-0.948,1.317-1.457c0.409-0.499,0.808-1.028,1.168-1.577
			c0.359-0.539,0.699-1.108,0.998-1.677c0.309-0.569,0.589-1.168,0.838-1.767s0.469-1.218,0.659-1.836
			c0.19-0.629,0.349-1.258,0.479-1.896c0.13-0.639,0.23-1.288,0.289-1.936c0.07-0.649,0.1-1.317,0.1-1.966
			c0-0.649-0.03-1.307-0.1-1.966c-0.06-0.639-0.16-1.297-0.289-1.936c-0.13-0.629-0.289-1.268-0.479-1.896
			c-0.19-0.619-0.409-1.238-0.659-1.836s-0.529-1.198-0.838-1.767c-0.299-0.569-0.639-1.138-0.998-1.677
			c-0.359-0.549-0.759-1.078-1.168-1.577c-0.409-0.509-0.858-0.998-1.317-1.457s-0.948-0.908-1.457-1.317
			c-0.499-0.419-1.028-0.808-1.577-1.168c-0.539-0.359-1.098-0.699-1.677-0.998c-0.569-0.309-1.168-0.589-1.767-0.838
			c-0.599-0.25-1.218-0.469-1.836-0.659c-0.629-0.19-1.258-0.349-1.896-0.479c-0.639-0.13-1.297-0.23-1.936-0.289
			c-1.307-0.13-2.625-0.13-3.932,0c-0.639,0.06-1.297,0.16-1.936,0.289c-0.629,0.13-1.268,0.289-1.896,0.479
			c-0.619,0.19-1.238,0.409-1.836,0.659c-0.599,0.25-1.198,0.529-1.767,0.838c-0.569,0.299-1.138,0.639-1.677,0.998
			c-0.549,0.359-1.078,0.749-1.577,1.168c-0.509,0.409-0.998,0.858-1.457,1.317s-0.908,0.948-1.317,1.457
			c-0.419,0.499-0.808,1.028-1.168,1.577c-0.359,0.539-0.699,1.108-0.998,1.677c-0.309,0.569-0.589,1.168-0.838,1.767
			s-0.469,1.218-0.659,1.836c-0.19,0.629-0.349,1.268-0.479,1.896c-0.13,0.639-0.23,1.297-0.289,1.936
			c-0.07,0.659-0.1,1.317-0.1,1.966c0,0.649,0.03,1.317,0.1,1.966C0.16,258.614,0.26,259.263,0.389,259.902z"/>
		<path d="M182.693,51.888c2.046,0,4.122-0.309,6.168-0.978c10.49-3.403,16.228-14.661,12.825-25.151
			c-3.413-10.479-14.671-16.218-25.151-12.815c-10.489,3.403-16.228,14.661-12.825,25.151
			C166.455,46.529,174.279,51.888,182.693,51.888z"/>
		<path d="M176.655,199.167v3.707c0,38.648,31.264,70.092,69.693,70.092h25.14c16.5,0,29.923,13.381,29.923,29.828v13.032
			c0,16.542-13.424,29.998-29.923,29.998H230.63c-11.405,0-21.04-10.055-21.04-21.957c0-11.024-8.937-19.961-19.961-19.961
			c-11.024,0-19.961,8.937-19.961,19.961c0,34.12,27.348,61.879,60.962,61.879h4.909v20.959c0,11.024,8.937,19.961,19.961,19.961
			c11.024,0,19.961-8.937,19.961-19.961v-21.08c36.67-2.07,65.871-32.581,65.871-69.799v-13.032c0-38.46-31.333-69.75-69.845-69.75
			h-25.14c-16.416,0-29.771-13.534-29.771-30.169v-3.707c0-16.542,13.355-29.998,29.771-29.998h23.774
			c11.75,0,21.309,9.402,21.309,20.959c0,11.024,8.937,19.961,19.961,19.961c11.024,0,19.961-8.937,19.961-19.961
			c0-31.78-24.621-57.934-55.891-60.635v-23.202c0-11.024-8.937-19.961-19.961-19.961c-11.024,0-19.961,8.937-19.961,19.961v23.799
			C202.226,135.317,176.655,164.301,176.655,199.167z"/>
		<path d="M486.718,309.874c-10.479-3.403-21.747,2.335-25.151,12.815c-3.403,10.49,2.325,21.747,12.815,25.161
			c2.046,0.659,4.132,0.978,6.178,0.978c8.414,0,16.238-5.36,18.973-13.793C502.947,324.545,497.208,313.287,486.718,309.874z"/>
		<path d="M276.362,489.615c-0.011-0.112-0.026-0.222-0.039-0.333c-0.057-0.508-0.134-1.022-0.234-1.528
			c-0.424-2.21-1.219-4.283-2.307-6.169c-0.175-0.305-0.356-0.605-0.547-0.9c-0.126-0.194-0.254-0.385-0.386-0.575
			c-0.258-0.371-0.528-0.733-0.807-1.079c-0.103-0.127-0.207-0.253-0.311-0.376c-0.321-0.383-0.66-0.756-1.008-1.11
			c-0.076-0.077-0.152-0.154-0.23-0.23c-0.353-0.348-0.724-0.685-1.106-1.005c-0.129-0.11-0.259-0.217-0.39-0.323
			c-0.344-0.278-0.703-0.545-1.071-0.8c-0.187-0.131-0.375-0.258-0.566-0.381c-0.299-0.194-0.604-0.378-0.914-0.555
			c-1.879-1.084-3.944-1.875-6.145-2.3c-0.516-0.102-1.041-0.181-1.559-0.238c-0.738-0.083-1.484-0.134-2.244-0.134
			c-75.491,0-145.537-40.049-184.326-103.728l45.627-0.069c11.024-0.017,19.947-8.967,19.931-19.991
			c-0.017-11.014-8.951-19.931-19.961-19.931c-0.01,0-0.021,0-0.031,0l-58.39,0.089c-0.065,0-0.13,0-0.195,0
			c-15.793,0-30.584,6.097-41.671,17.184c-11.341,11.34-17.55,26.565-17.483,42.786v57.71c0,11.024,8.937,19.961,19.961,19.961
			c11.024,0,19.961-8.937,19.961-19.961V391.63c19.75,31.508,46.2,58.429,77.692,78.859
			c41.347,26.824,89.361,41.004,138.853,41.011c0.01,0,0.021,0.001,0.032,0.001c0.647,0,1.303-0.03,1.96-0.1
			c0.09-0.009,0.178-0.023,0.267-0.033c0.53-0.058,1.069-0.139,1.596-0.244c2.189-0.425,4.243-1.213,6.112-2.29
			c0.322-0.184,0.639-0.375,0.949-0.577c0.179-0.117,0.355-0.236,0.531-0.358c0.382-0.264,0.754-0.542,1.11-0.829
			c0.118-0.095,0.233-0.191,0.348-0.288c0.392-0.327,0.771-0.673,1.133-1.03c0.07-0.069,0.14-0.139,0.209-0.209
			c0.355-0.36,0.7-0.739,1.026-1.13c0.099-0.118,0.198-0.235,0.294-0.356c0.284-0.352,0.559-0.72,0.82-1.097
			c0.122-0.175,0.242-0.35,0.357-0.529c0.208-0.318,0.405-0.645,0.593-0.976c1.076-1.873,1.86-3.931,2.283-6.124
			c0.101-0.509,0.179-1.025,0.236-1.541c0.012-0.109,0.027-0.216,0.038-0.325c0.066-0.63,0.096-1.279,0.096-1.908
			c0-0.006,0.001-0.012,0.001-0.018s-0.001-0.013-0.001-0.019C276.457,490.891,276.428,490.253,276.362,489.615z"/>
		<path d="M492.038,46.409c-11.024,0-19.961,8.937-19.961,19.961v53.999c-19.75-31.509-46.2-58.429-77.692-78.86
			C353.029,14.68,305.004,0.499,255.5,0.499c-0.757,0-1.5,0.051-2.236,0.133c-0.53,0.058-1.067,0.139-1.594,0.244
			c-2.184,0.425-4.234,1.212-6.1,2.286c-0.332,0.189-0.659,0.386-0.978,0.594c-0.682,0.446-1.335,0.93-1.956,1.455
			c-0.402,0.335-0.792,0.69-1.161,1.055c-0.057,0.057-0.114,0.113-0.17,0.17c-0.365,0.369-0.72,0.758-1.055,1.161
			c-0.093,0.11-0.185,0.22-0.275,0.331c-0.292,0.362-0.575,0.741-0.844,1.129c-0.115,0.164-0.227,0.328-0.335,0.496
			c-0.208,0.319-0.405,0.647-0.594,0.978c-1.076,1.87-1.863,3.925-2.288,6.114c-0.101,0.514-0.176,1.037-0.237,1.553
			c-0.011,0.101-0.028,0.199-0.038,0.299c-0.071,0.66-0.101,1.317-0.101,1.964s0.03,1.304,0.099,1.961
			c0.01,0.102,0.027,0.202,0.038,0.303c0.061,0.515,0.136,1.036,0.237,1.547c0.424,2.191,1.212,4.248,2.289,6.12
			c0.189,0.331,0.385,0.658,0.593,0.976c0.11,0.169,0.223,0.334,0.337,0.499c0.266,0.384,0.546,0.759,0.835,1.118
			c0.095,0.118,0.192,0.234,0.288,0.348c0.33,0.396,0.68,0.779,1.04,1.144c0.063,0.063,0.126,0.126,0.189,0.189
			c0.366,0.362,0.752,0.713,1.15,1.045c0.111,0.093,0.221,0.186,0.333,0.276c0.359,0.291,0.736,0.571,1.122,0.838
			c0.173,0.121,0.346,0.238,0.523,0.352c0.31,0.202,0.629,0.394,0.951,0.578c1.874,1.08,3.934,1.869,6.128,2.294
			c0.52,0.103,1.048,0.182,1.57,0.24c0.099,0.011,0.197,0.026,0.295,0.035c0.652,0.068,1.302,0.098,1.944,0.098
			c75.491,0,145.536,40.049,184.325,103.728l-45.626,0.069c-11.023,0.017-19.947,8.966-19.931,19.991
			c0.017,11.014,8.951,19.931,19.961,19.931c0.01,0,0.021,0,0.031,0l58.39-0.088c0.065,0,0.129,0,0.194,0
			c15.794,0,30.586-6.098,41.673-17.184c11.341-11.341,17.55-26.566,17.483-42.787V66.37
			C511.999,55.346,503.063,46.409,492.038,46.409z"/>
		<path d="M458.803,378.34c-8.913-6.487-21.398-4.521-27.885,4.391c-6.487,8.913-4.521,21.398,4.391,27.885
			c3.543,2.575,7.655,3.823,11.727,3.823c6.168,0,12.246-2.854,16.158-8.214C469.682,397.313,467.716,384.827,458.803,378.34z"/>
		<path d="M511.61,252.097c-0.13-0.629-0.289-1.268-0.479-1.896c-0.19-0.619-0.409-1.238-0.659-1.836s-0.529-1.198-0.838-1.767
			c-0.299-0.579-0.639-1.138-0.998-1.677c-0.359-0.549-0.759-1.078-1.168-1.577c-0.409-0.509-0.858-0.998-1.317-1.457
			s-0.948-0.908-1.457-1.317c-0.499-0.419-1.028-0.808-1.577-1.168c-0.539-0.359-1.108-0.699-1.677-0.998
			c-0.569-0.309-1.168-0.589-1.767-0.838s-1.218-0.469-1.836-0.659c-0.629-0.19-1.268-0.349-1.896-0.479
			c-0.639-0.13-1.297-0.23-1.936-0.289c-1.307-0.13-2.625-0.13-3.932,0c-0.639,0.06-1.297,0.16-1.936,0.289
			c-0.629,0.13-1.267,0.289-1.896,0.479c-0.619,0.19-1.238,0.409-1.836,0.659s-1.198,0.529-1.767,0.838
			c-0.569,0.299-1.138,0.639-1.677,0.998c-0.549,0.359-1.078,0.749-1.577,1.168c-0.509,0.409-0.998,0.858-1.457,1.317
			s-0.908,0.948-1.317,1.457c-0.409,0.499-0.808,1.028-1.168,1.577c-0.359,0.539-0.699,1.098-0.998,1.677
			c-0.309,0.569-0.589,1.168-0.838,1.767s-0.469,1.218-0.659,1.836c-0.19,0.629-0.349,1.268-0.479,1.896
			c-0.13,0.639-0.23,1.297-0.289,1.936c-0.07,0.659-0.1,1.317-0.1,1.966c0,0.649,0.03,1.307,0.1,1.966
			c0.06,0.639,0.16,1.297,0.289,1.936c0.13,0.629,0.289,1.267,0.479,1.896c0.19,0.619,0.409,1.238,0.659,1.836
			s0.529,1.198,0.838,1.767c0.299,0.569,0.639,1.138,0.998,1.677c0.359,0.549,0.759,1.078,1.168,1.577
			c0.409,0.509,0.858,0.998,1.317,1.457s0.948,0.908,1.457,1.317c0.499,0.409,1.028,0.808,1.577,1.168
			c0.539,0.359,1.108,0.699,1.677,0.998c0.569,0.309,1.168,0.589,1.767,0.838s1.218,0.469,1.836,0.659
			c0.629,0.19,1.268,0.349,1.896,0.479c0.639,0.13,1.297,0.23,1.936,0.289c0.659,0.07,1.317,0.1,1.966,0.1s1.307-0.03,1.966-0.1
			c0.639-0.06,1.297-0.16,1.936-0.289c0.629-0.13,1.268-0.289,1.896-0.479c0.619-0.19,1.238-0.409,1.836-0.659
			s1.198-0.529,1.767-0.838c0.569-0.299,1.138-0.639,1.677-0.998c0.549-0.359,1.078-0.759,1.577-1.168
			c0.509-0.409,0.998-0.858,1.457-1.317s0.908-0.948,1.317-1.457c0.409-0.499,0.808-1.028,1.168-1.577
			c0.359-0.539,0.699-1.108,0.998-1.677c0.309-0.569,0.589-1.168,0.838-1.767s0.469-1.218,0.659-1.836
			c0.19-0.629,0.349-1.268,0.479-1.896c0.13-0.639,0.23-1.297,0.289-1.936c0.07-0.659,0.1-1.317,0.1-1.966
			c0-0.649-0.03-1.307-0.1-1.966C511.839,253.394,511.74,252.736,511.61,252.097z"/>
		<path d="M383.201,430.438c-8.923,6.487-10.889,18.973-4.401,27.885c3.912,5.37,9.99,8.214,16.158,8.214
			c4.072,0,8.184-1.238,11.727-3.823c8.913-6.487,10.879-18.973,4.401-27.885C404.599,425.917,392.113,423.951,383.201,430.438z"/>
		<path d="M323.138,461.088c-10.49,3.403-16.228,14.661-12.825,25.151c2.745,8.434,10.569,13.793,18.983,13.803
			c2.046,0,4.122-0.319,6.168-0.988c10.49-3.403,16.228-14.661,12.825-25.151C344.886,463.424,333.618,457.685,323.138,461.088z"/>
    </symbol>

    <symbol id="advantages03" role="img" aria-labelledby="advantages03_title" viewBox="0 0 512 512">
        <title id="advantages03_title"></title>
        <path d="m256.964844 167.976562c-11.042969 0-19.996094 8.953126-19.996094 19.996094 0 11.046875 8.953125 20 19.996094 20 11.046875 0 19.996094-8.953125 19.996094-20 0-11.042968-8.949219-19.996094-19.996094-19.996094zm0 0"/>
        <path d="m256.964844 237.96875c-11.042969 0-19.996094 8.949219-19.996094 19.996094 0 11.042968 8.953125 19.996094 19.996094 19.996094 11.046875 0 19.996094-8.953126 19.996094-19.996094 0-11.042969-8.949219-19.996094-19.996094-19.996094zm0 0"/>
        <path d="m256.964844 307.957031c-11.042969 0-19.996094 8.953125-19.996094 19.996094 0 11.046875 8.953125 20 19.996094 20 11.046875 0 19.996094-8.953125 19.996094-20 0-11.042969-8.949219-19.996094-19.996094-19.996094zm0 0"/>
        <path d="m256.964844 377.949219c-11.042969 0-19.996094 8.953125-19.996094 19.996093 0 11.042969 8.953125 19.996094 19.996094 19.996094 11.046875 0 19.996094-8.953125 19.996094-19.996094 0-11.042968-8.949219-19.996093-19.996094-19.996093zm0 0"/>
        <path d="m492.003906 390.988281h-.605468c-10.945313 0-19.402344 9.042969-19.394532 19.984375.007813 5.605469-2.277344 10.859375-6.410156 14.695313-3.804688 3.53125-8.90625 5.324219-14.097656 5.324219h-25.554688v-244.539063c0-10.84375-8.429687-20.078125-19.265625-20.460937-11.378906-.40625-20.726562 8.695312-20.726562 19.980468v245.96875c0 22.085938-17.90625 39.992188-39.996094 39.992188h-179.976563c-22.085937 0-39.992187-17.90625-39.992187-39.992188v-245.488281c0-10.84375-8.433594-20.078125-19.269531-20.460937-11.375-.40625-20.726563 8.695312-20.726563 19.980468v245.019532h-25.535156c-5.015625 0-9.949219-1.683594-13.699219-5.015626-4.34375-3.855468-6.753906-9.234374-6.75-14.992187l-.007812-309.652344c3.066406-4.226562 16.027344-16.21875 48.148437-31.910156 17.085938-8.347656 35.378907-15.636719 52.71875-21.136719l.117188 82.289063c.007812 4.578125 1.394531 9.105469 4.222656 12.707031 3.9375 5.011719 9.792969 7.699219 15.777344 7.699219 1.691406 0 3.390625-.214844 5.0625-.652344 6.351562-1.664063 57.089843-15.210937 89.425781-31.984375 32.332031 16.769531 83.070312 30.320312 89.421875 31.984375 1.671875.4375 3.375.652344 5.0625.652344 5.992187 0 11.855469-2.695313 15.789063-7.714844 2.824218-3.601563 4.203124-8.125 4.210937-12.703125l.117187-81.550781c19.183594 6.269531 38.554688 14.023437 56.066407 22.535156 30.539062 14.84375 42.726562 25.773437 45.800781 29.878906.003906 24.488281.03125 142.03125.042969 189.542969.003906 11.046875 8.960937 19.992188 20.003906 19.988281 11.042969-.003906 19.996094-8.953125 19.992187-19.996093-.015624-49.375-.046874-174.382813-.046874-191.976563 0-12.191406-6.269532-31.625-60.507813-59.507813-31.808594-16.355468-71.527344-30.917968-106.257813-38.960937-.0625-.015625-.125-.019531-.1875-.035156-.382812-.082031-.777343-.144531-1.167968-.207031-.292969-.046876-.585938-.101563-.878906-.136719-.300782-.03125-.605469-.0468752-.910157-.0664065-.390625-.0273437-.777343-.0546875-1.167969-.0585937-.066406-.0039063-.132812-.0117188-.199218-.0117188h-169.375c-.195313 0-1.386719.0546875-1.792969.0898438-.347656.0312502-1.476563.1796872-1.699219.2187502-.140625.023437-.289062.054687-.433594.082031-.054687.011719-.109374.019531-.160156.03125-31.464844 5.664063-70.3125 19.398437-104.082031 36.816406-56.566406 29.179688-63.109375 49.214844-63.109375 61.746094l.0078125 311.996094c-.00390625 16.027343 6.2343755 31.097656 17.5664065 42.429687 11.332031 11.335938 26.398437 17.578125 42.425781 17.578125h35.988281c.070313 0 .136719-.011719.207031-.011719 13.710938 24.414063 39.84375 40.953126 69.78125 40.953126h179.976563c29.9375 0 56.070313-16.539063 69.78125-40.953126.070313 0 .136719.011719.210937.011719h35.097657c16.050781 0 31.664062-6.007812 43.09375-17.28125 11.480469-11.328125 17.824219-26.457031 17.863281-42.5625.027344-11.085937-8.910156-20.15625-19.996094-20.15625zm-236.039062-316.71875c-16.082032-9.113281-34.519532-21.738281-47.753906-34.277343h95.507812c-13.234375 12.542968-31.671875 25.167968-47.753906 34.277343zm-75.078125-5.171875c6.96875 6.632813 15.109375 13.3125 24.425781 20.027344 2.230469 1.609375 4.445312 3.15625 6.625 4.644531-10.351562 3.921875-21.257812 7.566407-31 10.609375zm118.75 24.914063c2.292969-1.5625 4.628906-3.191407 6.980469-4.886719 8.878906-6.394531 16.679687-12.765625 23.425781-19.089844l-.050781 34.34375c-9.539063-2.980468-20.195313-6.535156-30.355469-10.367187zm0 0"/>
    </symbol>

    <symbol id="advantages04" role="img" aria-labelledby="advantages04_title" viewBox="0 0 512 512">
        <title id="advantages04_title"></title>
        <path d="M492.522,118.3L266.433,3.743l-0.093-0.047c-10.068-5.012-22.029-4.9-32.002,0.3
			C233.553,4.328,19.617,117.874,18.896,118.338C7.24,124.44,0,136.398,0,149.559V362.44c0,13.161,7.24,25.118,18.896,31.221
			l215.345,114.292l0.097,0.051c5.086,2.652,10.691,3.981,16.297,3.981c5.385,0,10.772-1.226,15.705-3.682l226.182-114.604
			C504.539,387.69,512,375.618,512,362.18V149.82C512,136.381,504.538,124.309,492.522,118.3z M248.237,30.57
			c1.469-0.754,3.224-0.769,4.705-0.042l211.629,107.229l-82.365,41.006L175.308,69.276L248.237,30.57z M235.424,474.631
			L32.91,367.148l-0.097-0.051c-1.741-0.909-2.824-2.692-2.824-4.656V163.092l205.435,107.124V474.631z M250.577,244.295
			L46.272,137.76l97.024-51.493l205.875,108.945L250.577,244.295z M482.01,362.181c0,2.004-1.116,3.806-2.912,4.7L265.414,475.152
			V270.409l98.386-48.981v51.355c0,8.281,6.714,14.995,14.995,14.995s14.995-6.714,14.995-14.995v-66.285l88.22-43.92V362.181z"/>
		<path d="M181.277,294.419c-4.19-7.144-13.378-9.536-20.521-5.346l-46.437,27.244l-9.751-17.666
			c-4.002-7.25-13.125-9.884-20.374-5.882c-7.25,4.002-9.884,13.124-5.882,20.374l17.189,31.143c0.04,0.073,0.086,0.14,0.127,0.212
			c0.024,0.043,0.043,0.087,0.068,0.13c0.057,0.098,0.121,0.189,0.18,0.285c0.089,0.145,0.179,0.29,0.273,0.431
			c0.095,0.143,0.193,0.282,0.292,0.42c0.1,0.14,0.2,0.28,0.304,0.416c0.103,0.134,0.21,0.264,0.316,0.394
			c0.108,0.131,0.215,0.262,0.326,0.388c0.112,0.127,0.227,0.249,0.343,0.371c0.113,0.12,0.226,0.241,0.343,0.357
			c0.122,0.121,0.248,0.237,0.373,0.353c0.117,0.108,0.233,0.217,0.352,0.321c0.133,0.116,0.271,0.226,0.408,0.337
			c0.118,0.095,0.235,0.192,0.356,0.284c0.144,0.109,0.291,0.212,0.438,0.315c0.121,0.085,0.24,0.171,0.363,0.252
			c0.152,0.1,0.308,0.194,0.464,0.289c0.123,0.075,0.245,0.152,0.37,0.223c0.16,0.091,0.324,0.175,0.487,0.26
			c0.125,0.065,0.249,0.133,0.376,0.195c0.166,0.081,0.336,0.154,0.505,0.229c0.129,0.057,0.256,0.117,0.386,0.17
			c0.168,0.069,0.34,0.129,0.51,0.192c0.135,0.049,0.268,0.102,0.404,0.148c0.169,0.057,0.341,0.105,0.511,0.155
			c0.14,0.042,0.279,0.087,0.421,0.124c0.168,0.044,0.338,0.08,0.507,0.118c0.147,0.034,0.294,0.072,0.442,0.101
			c0.161,0.032,0.324,0.054,0.486,0.081c0.159,0.026,0.316,0.056,0.476,0.077c0.153,0.02,0.306,0.03,0.46,0.046
			c0.17,0.017,0.34,0.038,0.51,0.049c0.135,0.009,0.27,0.008,0.405,0.013c0.188,0.007,0.375,0.019,0.563,0.019
			c0.317,0,0.634-0.011,0.951-0.031c0.081-0.005,0.162-0.016,0.243-0.023c0.233-0.019,0.466-0.038,0.699-0.068
			c0.12-0.015,0.239-0.038,0.358-0.056c0.194-0.03,0.387-0.058,0.58-0.095c0.138-0.027,0.276-0.061,0.414-0.092
			c0.173-0.039,0.346-0.076,0.518-0.121c0.149-0.039,0.296-0.084,0.444-0.128c0.161-0.047,0.321-0.093,0.481-0.146
			c0.152-0.05,0.302-0.107,0.453-0.162c0.155-0.057,0.31-0.113,0.464-0.176c0.151-0.061,0.3-0.128,0.45-0.194
			c0.152-0.068,0.305-0.136,0.456-0.209c0.146-0.071,0.29-0.146,0.434-0.222c0.096-0.05,0.194-0.095,0.289-0.148
			c0.04-0.022,0.076-0.05,0.117-0.072c0.075-0.042,0.151-0.078,0.225-0.122l59.715-35.033
			C183.074,310.75,185.468,301.562,181.277,294.419z"/>
    </symbol>

    <symbol id="footer-facebook" role="img" aria-labelledby="footer-facebook_title" viewBox="0 0 384 384">
        <title id="footer-facebook_title">Facebook</title>
        <path d="m304 0h-224c-44.113281 0-80 35.886719-80 80v224c0 44.113281 35.886719 80 80 80h224c44.113281 0 80-35.886719 80-80v-224c0-44.113281-35.886719-80-80-80zm-144 352v-96h-32v-32h32v-80c0-26.472656 21.527344-48 48-48h48v32h-64v96h59.503906l-8 32h-51.503906v96zm192-48c0 26.472656-21.527344 48-48 48h-80v-64h44.496094l24-96h-68.496094v-32h64v-96h-80c-44.113281 0-80 35.886719-80 80v48h-32v96h32v64h-48c-26.472656 0-48-21.527344-48-48v-224c0-26.472656 21.527344-48 48-48h224c26.472656 0 48 21.527344 48 48zm0 0"/>
    </symbol>

    <symbol id="footer-twitter" role="img" aria-labelledby="footer-twitter_title" viewBox="0 0 512 512">
        <title id="footer-twitter_title">Twitter</title>
        <path d="M451.254,114.983L451,114c21.693-13.005,39.209-34.444,47-59c-20.318,12.087-44.092,21.257-68,26
			c-19.172-20.426-44.752-33-75-33c-57.975,0-106,46.937-106,105c0,8.262,1.167,16.35,3,24v1c-86.407-4.936-164.642-48.88-216-112
			c-9.013,15.53-14,37.722-14,57c0,30,17.814,70.181,46,89v2c-16.83-0.679-34.068-12.273-48-20c0,0.459,0.61,1.011,0.61,1.47
			c0,50.949,37.344,94.891,85.39,104.53c-8.373,2.215-20.166,4-29,4c-6.798,0-13.584-1.776-20-3c13.367,41.769,52,69,98,69v1
			c-35.805,27.758-81.188,47-130,47c-8.479,0-19-1-25-2c46.441,29.835,101.65,48,161,48c193.174,0,299-159,299-298v-14
			c20.547-14.841,37.945-34.886,52-56C512,96,475.134,113.469,451.254,114.983z M420,166c0,30.012-5.878,61.528-17,91.14
			c-11.688,31.121-28.511,59.202-50.001,83.462C319.296,378.648,258.629,424,161,424c-2.869,0-5.733-0.05-8.597-0.149
			c9.426-5.468,18.485-11.555,27.105-18.238L195,393.603V374v-4v-40l-16.479-0.183c-18.019-0.2-32.521-14.863-32.521-32.883v-32.706
			l-21.631-4.885C114.797,257.181,108,248.678,108,238.865V214v-3l-0.5-20.389l-17.789-11.877
			c-7.682-6.463-14.644-15.694-19.604-25.684c52.489,38.278,114.827,61.184,179.612,64.885L292,220.35V178v-1v-4.725l-1.101-4.595
			C289.639,162.421,289,157.482,289,153c0-17.224,6.872-33.488,19.35-45.797C320.903,94.82,337.471,88,355,88
			c17.723,0,33.145,6.855,45.835,20.375l10.206,10.873l1.234,4.77l0.254,0.983l7.471,28.88V166z"/>
    </symbol>

    <symbol id="footer-instagram" role="img" aria-labelledby="footer-instagram_title" viewBox="0 0 384 384">
        <title id="footer-instagram_title">Instagram</title>
		<path d="m304 0h-224c-44.113281 0-80 35.886719-80 80v224c0 44.113281 35.886719 80 80 80h224c44.113281 0 80-35.886719 80-80v-224c0-44.113281-35.886719-80-80-80zm48 304c0 26.472656-21.527344 48-48 48h-224c-26.472656 0-48-21.527344-48-48v-224c0-26.472656 21.527344-48 48-48h224c26.472656 0 48 21.527344 48 48zm0 0"/><path d="m192 88c-57.34375 0-104 46.65625-104 104s46.65625 104 104 104 104-46.65625 104-104-46.65625-104-104-104zm0 176c-39.695312 0-72-32.304688-72-72s32.304688-72 72-72 72 32.304688 72 72-32.304688 72-72 72zm0 0"/><path d="m304 56c-13.230469 0-24 10.769531-24 24s10.769531 24 24 24 24-10.769531 24-24-10.769531-24-24-24zm0 0"/>
    </symbol>

    <symbol id="footer-pinterest" role="img" aria-labelledby="footer-pinterest_title" viewBox="0 0 384 384">
        <title id="footer-pinterest_title">Pinterest</title>
		<path d="m192 384c105.863281 0 192-86.128906 192-192s-86.136719-192-192-192-192 86.128906-192 192 86.136719 192 192 192zm0-352c88.222656 0 160 71.777344 160 160s-71.777344 160-160 160c-39.585938 0-75.792969-14.527344-103.753906-38.433594l21.785156-71.773437c12.394531 20.40625 32.273438 36.304687 57.097656 42.960937 8.285156 2.222656 16.625 3.285156 24.832032 3.285156 42.382812 0 81.261718-28.328124 92.75-71.167968 13.695312-51.136719-16.757813-103.871094-67.878907-117.574219-45.679687-12.234375-92.574219 10.832031-111.839843 52.351563l-41.921876 134.695312c-19.4375-26.488281-31.070312-59.046875-31.070312-94.34375 0-88.222656 71.777344-160 160-160zm-61.761719 143.207031c7.746094-28.414062 33.578125-47.199219 61.753907-47.199219 5.472656 0 11.03125.703126 16.550781 2.183594 34.089843 9.136719 54.386719 44.304688 45.257812 78.382813-9.144531 34.089843-44.3125 54.402343-78.394531 45.257812-34.03125-9.121093-54.308594-44.191406-45.285156-78.230469zm0 0"/>
    </symbol>

    <symbol id="footer-phone" role="img" aria-labelledby="footer-phone_title" viewBox="0 0 512 512">
        <title id="footer-phone_title"></title>
        <path d="M421.216,195.504c-5.092-26.101-17.723-49.836-36.526-68.64c-18.804-18.803-42.54-31.434-68.641-36.527
			c-11.21-2.189-22.073,5.128-24.261,16.339c-2.187,11.212,5.128,22.073,16.339,24.26c36.847,7.188,65.3,35.642,72.489,72.489
			c1.927,9.874,10.581,16.726,20.278,16.726c1.313,0,2.645-0.125,3.984-0.387C416.088,217.577,423.403,206.715,421.216,195.504z"/>
		<path d="M511.422,196.929c-5.629-50.096-28.373-97.304-64.042-132.927C411.712,28.378,364.475,5.694,314.371,0.128
			c-11.355-1.261-21.578,6.92-22.839,18.272c-1.261,11.353,6.919,21.578,18.272,22.84c84.961,9.438,150.966,75.36,160.512,160.31
			c1.188,10.566,10.139,18.374,20.527,18.374c0.771,0,1.552-0.043,2.336-0.131C504.53,218.516,512.698,208.281,511.422,196.929z"/>
		<path d="M432.59,312.566c-0.062-0.008-0.124-0.017-0.186-0.025c-20.013-2.639-39.751-7.557-58.619-14.596
			c-23.91-8.99-51.103-3.191-69.27,14.772c-0.028,0.028-0.056,0.055-0.083,0.083l-17.148,17.148
			c-42.633-26.924-78.756-63.047-105.679-105.679l17.149-17.149c0.027-0.028,0.054-0.055,0.082-0.083
			c17.964-18.166,23.762-45.356,14.79-69.223c-7.057-18.914-11.974-38.653-14.614-58.666c-0.007-0.063-0.017-0.127-0.026-0.19
			c-4.591-32.478-32.782-56.734-65.548-56.467H66.053c-1.943,0.002-3.912,0.091-5.853,0.267
			C24.143,26.016-2.541,58.001,0.718,94.058c0.01,0.108,0.02,0.215,0.032,0.323c7.684,72.354,32.649,142.88,72.197,203.955
			c35.892,56.461,84.701,105.269,141.162,141.164c60.792,39.406,130.99,64.369,203.013,72.196c0.127,0.015,0.254,0.027,0.38,0.038
			c1.961,0.176,3.949,0.266,5.921,0.266c0.083,0,0.165,0,0.247,0.001c36.204-0.148,65.538-29.722,65.391-65.841v-67.233
			C489.746,345.714,465.515,317.211,432.59,312.566z M447.698,378.695v67.548c0.055,13.396-10.8,24.338-24.19,24.393
			c-0.715-0.004-1.425-0.027-2.135-0.086c-65.578-7.161-129.488-29.914-184.837-65.808c-0.053-0.035-0.107-0.069-0.161-0.103
			c-51.429-32.68-95.885-77.137-128.565-128.565c-0.032-0.051-0.064-0.101-0.097-0.153C71.683,220.306,48.928,156.086,41.902,90.193
			C40.779,76.91,50.63,65.155,63.923,63.954c0.717-0.064,1.443-0.098,2.145-0.098h67.463c0.146-0.001,0.294-0.003,0.443-0.002
			c12.021,0,22.322,8.905,24.044,20.819c3.05,23.063,8.721,45.806,16.871,67.649c3.319,8.832,1.189,18.869-5.427,25.591
			l-28.517,28.517c-6.583,6.582-7.956,16.753-3.354,24.847c33.837,59.508,83.177,108.847,142.685,142.685
			c8.094,4.6,18.264,3.23,24.848-3.355l28.512-28.512c6.72-6.621,16.765-8.752,25.642-5.415
			c21.799,8.134,44.547,13.805,67.61,16.855c12.18,1.757,21.122,12.339,20.816,24.647
			C447.7,378.353,447.698,378.524,447.698,378.695z"/>
    </symbol>

	<symbol id="footer-mail" role="img" aria-labelledby="footer-mail_title" viewBox="0 0 512 512">
        <title id="footer-mail_title"></title>
        <path d="M256,141.176c-63.306,0-114.809,51.503-114.809,114.809S192.694,370.795,256,370.795s114.809-51.503,114.809-114.809
			S319.306,141.176,256,141.176z M256,329.43c-40.498,0-73.445-32.947-73.445-73.445c0-40.498,32.947-73.445,73.445-73.445
			c40.499,0,73.445,32.947,73.445,73.445C329.445,296.483,296.499,329.43,256,329.43z"/>
		<path d="M437.008,74.97C388.656,26.623,324.375,0,256,0c-0.005,0-0.013,0-0.017,0C187.603,0.004,123.318,26.637,74.97,74.992
			C26.62,123.347-0.005,187.637,0,256.017c0.004,68.379,26.637,132.666,74.992,181.014C123.344,485.377,187.625,512.001,256,512
			c0.004,0,0.012,0,0.017,0c55.945-0.004,111.216-18.738,155.631-52.752c9.07-6.945,10.792-19.927,3.846-28.995
			c-6.945-9.069-19.926-10.794-28.995-3.846c-37.24,28.518-83.58,44.224-130.486,44.228c-0.006,0-0.006,0-0.014,0
			c-57.324,0-111.224-22.324-151.761-62.856c-40.542-40.536-62.871-94.435-62.875-151.766
			C41.357,137.663,137.636,41.372,255.986,41.364c0.007,0,0.006,0,0.014,0c118.34,0,214.628,96.279,214.636,214.622v23.532
			c0,27.523-22.39,49.913-49.913,49.913c-27.523,0-49.913-22.391-49.913-49.913v-23.532c0-11.422-9.259-20.682-20.682-20.682
			s-20.682,9.26-20.682,20.682v23.532c0,50.33,40.947,91.278,91.278,91.278S512,329.848,512,279.518v-23.534
			C511.995,187.604,485.362,123.318,437.008,74.97z"/>
    </symbol>

    <symbol id="footer-time" role="img" aria-labelledby="footer-time_title" viewBox="0 0 512 512">
        <title id="footer-time_title"></title>
        <path d="M437.019,74.981C388.667,26.629,324.38,0,256,0S123.333,26.63,74.981,74.981S0,187.62,0,256
			s26.629,132.667,74.981,181.019C123.332,485.371,187.62,512,256,512s132.667-26.629,181.019-74.981
			C485.371,388.667,512,324.38,512,256S485.371,123.332,437.019,74.981z M256,470.636C137.65,470.636,41.364,374.35,41.364,256
			S137.65,41.364,256,41.364S470.636,137.65,470.636,256S374.35,470.636,256,470.636z"/>
		<path d="M341.221,311.97l-64.538-64.537V114.809c0-11.422-9.259-20.682-20.682-20.682c-11.422,0-20.682,9.26-20.682,20.682V256
			c0,5.486,2.179,10.746,6.058,14.625l70.594,70.595c4.038,4.039,9.332,6.058,14.625,6.058c5.293,0,10.586-2.019,14.626-6.058
			C349.297,333.142,349.297,320.047,341.221,311.97z"/>
    </symbol>

    <symbol id="footer-location" role="img" aria-labelledby="footer-location_title" viewBox="0 0 512 512">
        <title id="footer-location_title"></title>
        <path d="M406.766,62.449C366.495,22.178,312.951,0,256,0S145.505,22.178,105.234,62.449
			c-40.272,40.271-62.449,93.814-62.449,150.766c0,37.656,10.972,76.863,32.609,116.532c16.825,30.846,40.15,62.102,69.326,92.898
			c49.17,51.903,97.763,84.519,99.808,85.881C248.001,510.842,252,512,256,512c4,0,7.999-1.158,11.473-3.474
			c2.045-1.363,50.638-33.978,99.808-85.881c29.176-30.795,52.501-62.051,69.326-92.898c21.637-39.669,32.609-78.876,32.609-116.532
			C469.215,156.263,447.038,102.72,406.766,62.449z M256.001,465.903C215.826,436.156,84.15,329.739,84.15,213.215
			c0-94.759,77.091-171.851,171.85-171.851s171.85,77.092,171.851,171.851C427.851,329.748,296.159,436.168,256.001,465.903z"/>
		<path d="M256,128.355c-46.791,0-84.86,38.068-84.86,84.86c0,46.791,38.068,84.86,84.86,84.86c46.792,0,84.861-38.068,84.86-84.86
			C340.86,166.423,302.791,128.355,256,128.355z M256,256.71c-23.983,0-43.495-19.512-43.495-43.495
			c0-23.983,19.512-43.495,43.495-43.495c23.984,0,43.495,19.512,43.495,43.495C299.495,237.198,279.984,256.71,256,256.71z"/>
    </symbol>

    <symbol id="link-arrow" role="img" aria-labelledby="link-arrow_title" viewBox="0 0 512 512">
        <title id="link-arrow_title"></title>
        <path d="M256,0C114.615,0,0,114.615,0,256s114.615,256,256,256s256-114.615,256-256C511.833,114.685,397.315,0.167,256,0z
			 M256,480C132.288,480,32,379.712,32,256S132.288,32,256,32s224,100.288,224,224C479.868,379.657,379.657,479.868,256,480z"/>
		<polygon points="126.88,256 208,256 208,224 196.336,224 256,154.24 315.664,224 240,224 240,288 272,288 272,256 385.12,256 
			256,104.992 			"/>
		<rect x="240" y="384" width="32" height="32"/>
		<rect x="240" y="320" width="32" height="32"/>
    </symbol>

</svg>