<svg xmlns="http://www.w3.org/2000/svg" xmlns:xlink="http://www.w3.org/1999/xlink">

	<symbol id="header-link001" role="img" aria-labelledby="header-menu001_title" viewBox="0 0 512 512">
    	<title id="header-menu001_title">STARTSEITE</title>
    	<circle r="256" cx="256" cy="256"/>
    </symbol>

    <symbol id="header-link002" role="img" aria-labelledby="header-menu002_title" viewBox="0 0 512 512">
    	<title id="header-menu002_title">DEKO &#38; GESCHENKE</title>
    	<circle r="256" cx="256" cy="256"/>
    </symbol>

    <symbol id="header-link003" role="img" aria-labelledby="header-menu003_title" viewBox="0 0 512 512">
    	<title id="header-menu003_title">HOME &#38; HAUSHALT</title>
    	<circle r="256" cx="256" cy="256"/>
    </symbol>

    <symbol id="header-link004" role="img" aria-labelledby="header-menu004_title" viewBox="0 0 512 512">
    	<title id="header-menu004_title">SPIELZEUGE</title>
    	<circle r="256" cx="256" cy="256"/>
    </symbol>

    <symbol id="header-link005" role="img" aria-labelledby="header-menu005_title" viewBox="0 0 512 512">
    	<title id="header-menu005_title">SCHULBEDARF &#38; BÜROBEDARF</title>
    	<circle r="256" cx="256" cy="256"/>
    </symbol>

    <symbol id="header-link006" role="img" aria-labelledby="header-menu006_title" viewBox="0 0 512 512">
    	<title id="header-menu006_title">BASTELN &#38; HEIMWERKEN</title>
    	<circle r="256" cx="256" cy="256"/>
    </symbol>

    <symbol id="header-link007" role="img" aria-labelledby="header-menu007_title" viewBox="0 0 512 512">
    	<title id="header-menu007_title">MODE &#38; ACESSOIRES</title>
    	<circle r="256" cx="256" cy="256"/>
    </symbol>

    <symbol id="header-link008" role="img" aria-labelledby="header-menu008_title" viewBox="0 0 512 512">
    	<title id="header-menu008_title">FREIZEIT &#38; OUTDOOR</title>
    	<circle r="256" cx="256" cy="256"/>
    </symbol>

    <symbol id="header-link009" role="img" aria-labelledby="header-menu009_title" viewBox="0 0 512 512">
    	<title id="header-menu009_title">PARTYZUBEHÖR</title>
    	<circle r="256" cx="256" cy="256"/>
    </symbol>

    <symbol id="header-link010" role="img" aria-labelledby="header-menu010_title" viewBox="0 0 512 512">
    	<title id="header-menu010_title">STANDORT &#38; KONTAKT</title>
    	<circle r="256" cx="256" cy="256"/>
    </symbol>

	<symbol id="header-link01" role="img" aria-labelledby="header-menu01_title" viewBox="0 0 512 512">
    	<title id="header-menu01_title"></title>
	    <path d="M512,303.478L256,104.763L0,303.478v-81.02L256,23.746l256,198.714V303.478z M448,296.254v192H320v-128H192v128H64v-192
		l192-144L448,296.254z"/>
    </symbol>

    <symbol id="header-link02" role="img" aria-labelledby="header-link02_title" viewBox="0 0 512 512">
    	<title id="header-link02_title"></title>
	    <path d="M32,271.692v192c0,17.664,14.368,32,32,32h160v-224H32z"/>
		<path d="M480,143.692H378.752c7.264-4.96,13.504-9.888,17.856-14.304c25.824-25.952,25.824-68.192,0-94.144
			c-25.088-25.28-68.8-25.216-93.856,0c-13.888,13.92-50.688,70.592-45.6,108.448h-2.304c5.056-37.856-31.744-94.528-45.6-108.448
			c-25.088-25.216-68.8-25.216-93.856,0C89.6,61.196,89.6,103.436,115.36,129.388c4.384,4.416,10.624,9.344,17.888,14.304H32
			c-17.632,0-32,14.368-32,32v48c0,8.832,7.168,16,16,16h208v-64h64v64h208c8.832,0,16-7.168,16-16v-48
			C512,158.06,497.664,143.692,480,143.692z M222.112,142.636c0,0-1.344,1.056-5.92,1.056c-22.112,0-64.32-22.976-78.112-36.864
			c-13.408-13.504-13.408-35.52,0-49.024c6.496-6.528,15.104-10.112,24.256-10.112c9.12,0,17.728,3.584,24.224,10.112
			C208.128,79.5,229.568,134.924,222.112,142.636z M295.776,143.692c-4.544,0-5.888-1.024-5.888-1.056
			c-7.456-7.712,13.984-63.136,35.552-84.832c12.896-13.024,35.456-13.088,48.48,0c13.44,13.504,13.44,35.52,0,49.024
			C360.128,120.716,317.92,143.692,295.776,143.692z"/>
		<path d="M288,271.692v224h160c17.664,0,32-14.336,32-32v-192H288z"/>
    </symbol>

    <symbol id="header-link03" role="img" aria-labelledby="header-menu03_title" viewBox="0 0 512 512">
    	<title id="header-menu03_title"></title>
	    <path d="m51.210938 503.214844 116.988281-116.984375-42.429688-42.425781-116.980469 116.984374c-11.71875 11.714844-11.71875 30.707032 0 42.425782 11.714844 11.714844 30.707032 11.714844 42.421876 0zm0 0"/>
	    <path d="m146.984375 322.589844 42.425781 42.425781c29.238282 29.242187 76.824219 29.242187 106.066406 0l10.605469-10.605469-148.492187-148.492187-10.605469 10.605469c-29.242187 29.242187-29.242187 76.828124 0 106.066406zm0 0"/>
	    <path d="m399.667969 253.925781c-7.792969 3.132813-16.519531-.792969-19.492188-8.347656-3.089843-7.6875.652344-16.417969 8.347657-19.492187 32.367187-12.980469 52.214843-15.660157 101.4375-28.566407-13.976563-35.273437-34.226563-67.292969-59.339844-94.925781l-73.699219 73.699219c-5.863281 5.863281-15.351563 5.863281-21.214844 0-5.859375-5.859375-5.859375-15.351563 0-21.214844l73.699219-73.699219c-27.632812-25.113281-59.648438-45.359375-94.925781-59.339844-12.808594 48.859376-15.5625 69.011719-28.5625 101.4375-3.078125 7.699219-11.808594 11.4375-19.492188 8.351563-7.554687-2.972656-11.484375-11.695313-8.351562-19.496094 11.984375-29.949219 14.296875-47.867187 27.910156-100.007812-27.347656-7.863281-56.125-12.324219-85.964844-12.324219-4.828125 0-9.355469 2.308594-12.171875 6.226562-2.820312 3.914063-3.585937 8.949219-2.0625 13.515626.367188 1.105468 34.0625 104.519531-7.917968 164.027343l150.371093 150.371094c59.390625-41.828125 162.914063-8.292969 164.03125-7.914063 4.578125 1.511719 9.601563.734376 13.515625-2.082031 3.894532-2.816406 6.226563-7.34375 6.214844-12.160156 0-29.84375-4.460938-58.621094-12.324219-85.96875-51.046875 13.332031-69.859375 15.847656-100.007812 27.910156zm0 0"/>
    </symbol>

    <symbol id="header-link04" role="img" aria-labelledby="header-menu04_title" viewBox="-50 0 512 512">
    	<title id="header-menu04_title"></title>
	    <path d="m329.257812 394.449219c-1.269531-.136719-2.535156-.203125-3.792968-.203125-23.402344 0-44.359375 23.269531-47.667969 53.933594-3.492187 32.316406 13.917969 60.792968 38.808594 63.480468 1.269531.136719 2.535156.203125 3.792969.203125 23.402343 0 44.359374-23.269531 47.667968-53.933593 1.75-16.210938-1.667968-31.867188-9.628906-44.089844-7.339844-11.265625-17.699219-18.152344-29.179688-19.390625zm0 0"/>
	    <path d="m44.296875 457.929688c3.308594 30.664062 24.269531 53.933593 47.667969 53.933593 1.261718 0 2.523437-.066406 3.796875-.203125 24.886719-2.6875 42.296875-31.164062 38.808593-63.480468-3.3125-30.664063-24.269531-53.933594-47.667968-53.933594-1.261719 0-2.523438.066406-3.796875.203125-11.476563 1.238281-21.839844 8.125-29.179688 19.390625-7.960937 12.222656-11.378906 27.878906-9.628906 44.089844zm0 0"/>
	    <path d="m88.730469 179.09375c0 59.679688 44.746093 109.109375 102.453125 116.496094v-24.914063c-18.921875-6.300781-32.609375-24.160156-32.609375-45.171875 0-26.25 21.355469-47.609375 47.609375-47.609375 26.25 0 47.605468 21.359375 47.605468 47.609375 0 21.007813-13.6875 38.871094-32.605468 45.171875v24.914063c57.703125-7.386719 102.449218-56.816406 102.449218-116.496094 0-64.765625-52.6875-117.453125-117.449218-117.453125-64.765625 0-117.453125 52.6875-117.453125 117.453125zm144.117187-54.761719h29.667969v29.667969h-29.667969zm-83 0h29.667969v29.667969h-29.667969zm0 0"/>
	    <path d="m339.644531 116.445312c16.550781-11.574218 27.40625-30.757812 27.40625-52.445312 0-35.289062-28.710937-64-64-64-25.59375 0-47.710937 15.105469-57.945312 36.863281 41.859375 11.46875 76.335937 40.960938 94.539062 79.582031zm0 0"/>
	    <path d="m206.183594 326.542969c-36.601563 0-70.125-13.40625-95.929688-35.5625-14.433594 20.53125-23.738281 45.78125-25.714844 73.316406 39.492188-1.398437 74.789063 33.738281 79.855469 80.664063 2.140625 19.816406-1.4375 38.730468-9.210937 54.503906 15.527344 8.035156 32.800781 12.535156 51 12.535156 18.199218 0 35.472656-4.492188 51-12.523438-7.777344-15.777343-11.355469-34.695312-9.214844-54.515624 5.066406-46.929688 40.371094-82.0625 79.863281-80.664063-1.976562-27.539063-11.28125-52.789063-25.71875-73.320313-25.804687 22.15625-59.332031 35.566407-95.929687 35.566407zm0 0"/>
	    <path d="m72.71875 116.445312c18.203125-38.621093 52.679688-68.113281 94.539062-79.582031-10.230468-21.757812-32.351562-36.863281-57.941406-36.863281-35.292968 0-64 28.710938-64 64 0 21.6875 10.851563 40.871094 27.402344 52.445312zm0 0"/>
	    <path d="m28.789062 397.46875c6.859376-10.53125 15.511719-18.800781 25.375-24.460938.5-39.539062 13.628907-75.78125 35.152344-104.109374-3.777344-4.90625-7.25-10.050782-10.398437-15.414063h-2.972657c-28.8125 0-54.234374 19.265625-63.269531 47.941406-8.410156 26.707031-12.675781 54.804688-12.675781 83.519531v.347657c.015625 15.09375 6.90625 28.535156 17.574219 37.132812 2.515625-8.929687 6.265625-17.359375 11.214843-24.957031zm0 0"/>
	    <path d="m399.683594 301.425781c-9.03125-28.675781-34.457032-47.941406-63.265625-47.941406h-2.972657c-3.144531 5.359375-6.617187 10.5-10.390624 15.402344 21.523437 28.335937 34.644531 64.582031 35.144531 104.121093 9.863281 5.664063 18.515625 13.929688 25.375 24.460938 4.949219 7.597656 8.699219 16.027344 11.214843 24.957031 10.664063-8.597656 17.554688-22.046875 17.574219-37.148437v-.332032c0-28.714843-4.265625-56.8125-12.679687-83.519531zm0 0"/>
	    <path d="m206.183594 207.894531c-9.710938 0-17.609375 7.902344-17.609375 17.609375 0 9.710938 7.898437 17.609375 17.609375 17.609375 9.707031 0 17.605468-7.898437 17.605468-17.609375 0-9.707031-7.898437-17.609375-17.605468-17.609375zm0 0"/>
    </symbol>

    <symbol id="header-link05" role="img" aria-labelledby="header-menu05_title" viewBox="0 0 492.241 492.241">
    	<title id="header-menu05_title"></title>
		<path d="M486.557,96.19L396.059,5.696c-3.643-3.646-8.596-5.694-13.74-5.694c-5.146,0-10.094,2.047-13.742,5.694l-0.98,0.99
			l25.885,25.894c3.225,3.227,3.225,8.451,0,11.678c-1.613,1.612-3.729,2.418-5.838,2.418c-2.113,0-4.229-0.806-5.842-2.418
			l-25.883-25.894l-22.873,22.854l25.902,25.885c3.227,3.227,3.227,8.453,0,11.678c-1.611,1.612-3.727,2.418-5.836,2.418
			c-2.113,0-4.228-0.806-5.842-2.418l-25.898-25.885l-22.838,22.854l48.898,48.909c3.229,3.225,3.229,8.451,0,11.675
			c-1.613,1.612-3.709,2.419-5.836,2.419c-2.096,0-4.225-0.807-5.838-2.419l-48.904-48.908L264,110.271l117.434,118.508
			l105.123-105.107C494.135,116.084,494.135,103.778,486.557,96.19z"/>
		<path d="M91.368,282.897l48.918,48.917c3.225,3.225,3.225,8.451,0,11.676c-1.617,1.612-3.744,2.418-5.842,2.418
			c-2.127,0-4.223-0.806-5.836-2.418l-48.932-48.915l-22.84,22.853l25.902,25.901c3.227,3.227,3.227,8.451,0,11.678
			c-1.611,1.612-3.727,2.418-5.84,2.418c-2.109,0-4.225-0.806-5.838-2.418l-25.902-25.903L18.357,355.91l25.899,25.901
			c3.225,3.227,3.225,8.451,0,11.678c-1.613,1.612-3.74,2.419-5.838,2.419c-2.127,0-4.224-0.806-5.841-2.419L6.679,367.585
			l-0.999,0.984C2.032,372.215,0,377.158,0,382.31c0,5.155,2.032,10.098,5.681,13.742l90.511,90.495
			c7.576,7.589,19.881,7.589,27.482,0l104.99-104.985l-117.99-117.985L91.368,282.897z"/>
		<path d="M212.858,95.246c-1.773-1.783-3.934-3.128-6.32-3.95L62.997,42.145c-5.967-2.018-12.563-0.509-17.031,3.95
			c-4.451,4.459-5.984,11.065-3.934,17.024l49.143,143.54c0.82,2.387,2.174,4.549,3.953,6.33l230.18,230.182
			c15.707,15.718,36.607,24.378,58.836,24.378c22.223,0,43.141-8.66,58.881-24.403c32.469-32.465,32.469-85.285,0-117.743
			L212.858,95.246z M204.442,133.543l198.022,198.004l-17.516,17.515L186.928,151.051L204.442,133.543z M93.998,112.924
			l18.805-18.813l62.834,21.522l-60.125,60.126L93.998,112.924z M331.42,402.577L133.413,204.564l17.514-17.517L348.934,385.07
			L331.42,402.577z M419.672,419.785c-16.791,16.789-44.951,18.54-64.238,5.484l69.771-69.747
			C438.911,375.101,437.137,402.31,419.672,419.785z"/>
    </symbol>

    <symbol id="header-link06" role="img" aria-labelledby="header-menu06_title" viewBox="0 0 512 512">
    	<title id="header-menu06_title"></title>
	    <path d="M437.015,266.221l21.213,21.213l10.607-10.607c37.21-37.21,40.206-95.453,8.881-137.413l9.308-8.2l3.025-2.88
			c16.728-16.728,24.631-40.707,21.141-64.126c-3.532-23.792-18.137-44.115-39.982-55.83c-24.6-13.124-56.306-10.462-78.856,6.619
			c-4.174,3.138-7.934,6.608-11.363,10.431l-7.054,8.007l-6.018-4.704C333.496-5.69,280.124-9.662,244.46,19.502
			c-19.773,16.19-31.841,40.003-33.094,65.349c-1.264,25.356,8.307,50.195,26.247,68.135l17.1,15.786l-39.741,45.112l83.464,83.464
			l45.112-39.741l93.468,93.468c17.546,17.546,17.546,46.093,0,63.64c-17.546,17.546-46.093,17.546-63.64,0l-97.496-97.496
			l-80.778-80.778l-55.071-55.071c-29.241-29.241-76.825-29.241-106.066,0c-29.241,29.241-29.241,76.825,0,106.066l65.569,65.569
			c-24.809,34.491-47.726,70.332-68.117,107.534L0,511.985L51.78,480.9c37.202-20.391,73.043-43.308,107.534-68.117l86.782,86.782
			l21.213-21.213l-83.659-83.659c19.188-14.664,38.049-29.749,56.159-45.702l13.515-11.904l98.839,98.839
			c29.241,29.241,76.825,29.241,106.066,0c29.24-29.241,29.24-76.825-0.001-106.066l-92.124-92.124l89.294-78.661
			c20.953,29.281,18.502,70.261-7.776,96.539L437.015,266.221z M163.325,272.508c-15.953,18.11-31.038,36.97-45.702,56.159
			L55.177,266.22c-17.546-17.546-17.546-46.093,0-63.64s46.093-17.546,63.64,0l56.414,56.414L163.325,272.508z M274.583,146.216
			l-15.757-14.444c-11.964-11.964-18.344-28.516-17.505-45.43c0.86-17.143,8.711-32.638,22.135-43.618
			c23.876-19.531,59.588-16.439,83.247,7.22l7.361,6.047L274.583,146.216z M394.588,138.941l-21.213-21.213l63.64-63.64
			l21.213,21.213L394.588,138.941z"/>
    </symbol>

    <symbol id="header-link07" role="img" aria-labelledby="header-menu07_title" viewBox="0 0 512 512">
    	<title id="header-menu07_title"></title>
	    <path d="M488.803,105.893c-10.758-18.827-21.36-34.373-21.807-35.026l-8.173-11.955l-12.532,7.256
			c-3.191,1.847-78.849,46.512-138.976,156.345c-64.018,116.941-102.45,124.387-125.811,119.805
			c-30.118-5.906-41.467-14.913-43.14-16.366l-7.051-9.332l-112.741,58.13l-0.814,0.56C15.942,376.561,0,388.064,0,406.695
			c0,8.008,0.88,19.331,8.487,25.172l3.65,2.802l215.401,17.551c1.919,0.288,6.568,0.869,12.893,0.868
			c5.436,0,12.112-0.428,19.353-1.84c24.466-4.765,43.348-18.334,54.604-39.238l3.11-5.79
			c11.163-20.808,28.031-52.254,46.812-79.223c26.011-37.35,43.381-48.594,53.375-51.449c12.661-3.618,22.749-6.442,30.705-8.636
			c-3.44,24.314-7.792,62.493-6.024,90.311v64.565h-4.728v31.213h41.358v-31.213h-5.417v-65.07l-0.034-1.038
			c-2.024-30.352,4.556-77.293,7.69-97.275l0.227-0.053l3.211-6.812c2.798-5.934,27.329-58.749,27.329-85.736
			C512,157.511,509.595,142.281,488.803,105.893z"/>
    </symbol>

    <symbol id="header-link08" role="img" aria-labelledby="header-menu08_title" viewBox="0 0 512 512">
    	<title id="header-menu08_title"></title>
	    <path d="M195.999,54.013c-9.858-11.903-5.11-22.034,0.61-28.436c5.648-6.323,5.101-16.027-1.221-21.674
			c-6.321-5.648-16.025-5.099-21.674,1.221c-13.899,15.559-22.595,42.828-1.359,68.47c2.744,3.316,11.097,13.404,0.369,25.425
			c-5.644,6.325-5.093,16.029,1.231,21.674c2.928,2.612,6.578,3.898,10.216,3.898c4.222,0,8.425-1.732,11.458-5.129
			C209.313,104.13,216.596,78.885,195.999,54.013z"/>
		<path d="M260.857,54.013c-9.858-11.903-5.11-22.034,0.61-28.436c5.648-6.323,5.101-16.027-1.221-21.674
			c-6.321-5.648-16.025-5.099-21.674,1.221c-13.899,15.559-22.595,42.828-1.359,68.47c2.745,3.316,11.098,13.404,0.369,25.425
			c-5.644,6.325-5.093,16.029,1.231,21.674c2.928,2.612,6.578,3.898,10.216,3.898c4.222,0,8.425-1.732,11.458-5.129
			C274.17,104.13,281.454,78.885,260.857,54.013z"/>
		<path d="M325.716,54.013c-9.858-11.903-5.11-22.034,0.61-28.436c5.648-6.323,5.101-16.027-1.221-21.674
			c-6.321-5.648-16.025-5.099-21.674,1.221c-13.899,15.559-22.595,42.828-1.359,68.47c2.744,3.316,11.097,13.404,0.369,25.425
			c-5.644,6.325-5.093,16.029,1.231,21.674c2.928,2.612,6.578,3.898,10.216,3.898c4.222,0,8.425-1.732,11.458-5.129
			C339.029,104.13,346.313,78.885,325.716,54.013z"/>
		<path d="M332.427,300.548c18.899-7.582,36.335-18.022,51.568-31.073c34.978-29.97,54.241-70.017,54.241-112.764
			c0-8.478-6.873-15.351-15.351-15.351H89.117c-8.478,0-15.351,6.873-15.351,15.351c0,42.747,19.264,82.794,54.241,112.764
			c15.557,13.329,33.414,23.931,52.78,31.55l-66.849,190.539c-2.806,8,1.403,16.759,9.403,19.567c1.682,0.59,3.396,0.87,5.082,0.87
			c6.337,0,12.269-3.955,14.485-10.272l23.65-67.409h74.093v62.328c0,8.478,6.873,15.351,15.351,15.351
			c8.478,0,15.351-6.873,15.351-15.351V434.32h75.498l23.665,67.412c2.217,6.317,8.148,10.269,14.484,10.269
			c1.687,0,3.403-0.28,5.084-0.87c7.999-2.808,12.208-11.57,9.4-19.569L332.427,300.548z M271.351,403.617v-58.498
			c-5.086,0.32-10.205,0.484-15.351,0.484s-10.264-0.163-15.351-0.484v58.499h-63.322l32.84-93.602
			c14.794,3.313,30.164,5.031,45.833,5.031c16.12,0,31.924-1.817,47.111-5.321l32.96,93.891H271.351z"/>
    </symbol>

    <symbol id="header-link09" role="img" aria-labelledby="header-menu09_title" viewBox="0 0 512 512">
    	<title id="header-menu09_title"></title>
	    <path d="m293.207031 136c-13.636719 0-20.171875 14.046875-22.355469 20.082031l-3.558593 9.917969h-22.589844l-3.558594-9.917969c-2.183593-6.035156-8.714843-20.082031-22.355469-20.082031-14.589843 0-22.21875 12.773438-22.21875 25.398438 0 21.425781 26.71875 41.046874 59.425782 68.835937 24.625-20.921875 59.429687-46.246094 59.429687-68.835937.003907-12.625-7.628906-25.398438-22.21875-25.398438zm0 0"/>
	    <path d="m256 0c-82.703125 0-150 81.742188-150 181s67.296875 180 150 180 150-80.742188 150-180-67.296875-181-150-181zm9.828125 261.332031-9.828125 8.511719-9.828125-8.511719c-42.648437-36.992187-79.601563-61.390625-79.601563-99.933593 0-31.066407 22.941407-55.398438 52.222657-55.398438 17.210937 0 29.179687 8.027344 37.207031 17.109375 8.027344-9.082031 19.996094-17.109375 37.207031-17.109375 29.28125 0 52.222657 24.332031 52.222657 55.398438 0 39.703124-39.253907 64.949218-79.601563 99.933593zm0 0"/>
	    <path d="m136 512v-61h35.816406l-21.195312-63.558594c-9.582032 2.3125-19.480469 3.558594-29.621094 3.558594s-20.039062-1.246094-29.621094-3.558594l-21.195312 63.558594h35.816406v61zm0 0"/>
	    <path d="m391 391c-10.140625 0-20.039062-1.246094-29.621094-3.558594l-21.195312 63.558594h35.816406v61h30v-61h35.816406l-21.195312-63.558594c-9.582032 2.3125-19.480469 3.558594-29.621094 3.558594zm0 0"/>
	    <path d="m285.765625 387.878906c-9.703125 1.898438-19.605469 3.121094-29.765625 3.121094s-20.0625-1.222656-29.765625-3.121094l-21.050781 63.121094h35.816406v61h30v-61h35.816406zm0 0"/>
	    <path d="m404.609375 62.71875c19.777344 33.714844 31.390625 74.433594 31.390625 118.28125 0 71.902344-31.164062 135.433594-78.527344 173.300781 10.710938 3.933594 21.8125 6.699219 33.527344 6.699219 66.167969 0 121-67.296875 121-150 0-76.878906-47.691406-139.707031-107.390625-148.28125zm0 0"/>
	    <path d="m121 361c11.714844 0 22.816406-2.765625 33.527344-6.699219-47.363282-37.867187-78.527344-101.398437-78.527344-173.300781 0-43.847656 11.613281-84.566406 31.390625-118.28125-59.699219 8.574219-107.390625 71.402344-107.390625 148.28125 0 82.703125 54.832031 150 121 150zm0 0"/>
    </symbol>

    <symbol id="header-link10" role="img" aria-labelledby="header-menu10_title" viewBox="0 0 512 512">
    	<title id="header-menu10_title"></title>
	    <path d="M256,0C138.375,0,42.667,95.698,42.667,213.333c0,57.26,22.417,111.042,63.042,151.354l142.708,144.146
			c2,2.031,4.729,3.167,7.583,3.167c2.854,0,5.583-1.135,7.583-3.167L406.229,364.76c40.688-40.385,63.104-94.167,63.104-151.427
			C469.333,95.698,373.625,0,256,0z M256,298.667c-47.063,0-85.333-38.281-85.333-85.333C170.667,166.281,208.937,128,256,128
			s85.333,38.281,85.333,85.333C341.333,260.385,303.063,298.667,256,298.667z"/>
    </symbol>

	<symbol id="header-facebook" role="img" aria-labelledby="header-facebook_title" viewBox="0 0 159.822 159.822">
    	<title id="header-facebook_title">Facebook</title>
	    <path d="M76.715,36.172c4.142,0,7.5-3.358,7.5-7.5C84.215,21.133,90.349,15,97.887,15h21.179c4.142,0,7.5-3.358,7.5-7.5
			s-3.358-7.5-7.5-7.5H97.887c-15.81,0-28.672,12.862-28.672,28.672C69.215,32.813,72.573,36.172,76.715,36.172z"/>
		<path d="M117.458,59.627H40.756c-4.142,0-7.5,3.358-7.5,7.5s3.358,7.5,7.5,7.5h28.46v77.695c0,4.142,3.358,7.5,7.5,7.5
		c4.142,0,7.5-3.358,7.5-7.5V74.627h33.243c4.142,0,7.5-3.358,7.5-7.5S121.6,59.627,117.458,59.627z"/>
    </symbol>

    <symbol id="header-linkedin" role="img" aria-labelledby="header-linkedin_title" viewBox="0 0 152.216 152.216">
    	<title id="header-linkedin_title">Linkedin</title>
		<path d="M14.461,35.817c-4.142,0-7.5,3.358-7.5,7.5v101.399c0,4.142,3.358,7.5,7.5,7.5c4.142,0,7.5-3.358,7.5-7.5V43.317
			C21.961,39.174,18.603,35.817,14.461,35.817z"/>
		<path d="M68.011,115.054c-4.142,0-7.5,3.358-7.5,7.5v22.162c0,4.142,3.358,7.5,7.5,7.5c4.142,0,7.5-3.358,7.5-7.5v-22.162
			C75.511,118.412,72.153,115.054,68.011,115.054z"/>
		<path d="M102.885,43.89c-10.429,0-19.983,3.794-27.374,10.065V43.317c0-4.142-3.358-7.5-7.5-7.5c-4.142,0-7.5,3.358-7.5,7.5v42.937
			c0,0.001,0,0.002,0,0.003c0,0.002,0,0.003,0,0.006c0,4.142,3.358,7.5,7.5,7.5c4.142,0,7.5-3.358,7.5-7.5
			c0-15.094,12.28-27.373,27.374-27.373c15.093,0,27.372,12.279,27.372,27.373v58.453c0,4.142,3.358,7.5,7.5,7.5
			c4.143,0,7.5-3.358,7.5-7.5V86.263C145.257,62.898,126.25,43.89,102.885,43.89z"/>
		<path d="M14.459,15c1.97,0,3.91-0.8,5.31-2.19c1.39-1.4,2.19-3.33,2.19-5.3c0-1.98-0.8-3.91-2.19-5.31c-1.4-1.39-3.34-2.2-5.31-2.2
			c-1.97,0-3.9,0.81-5.3,2.2c-1.4,1.4-2.2,3.33-2.2,5.31c0,1.97,0.8,3.9,2.2,5.3C10.559,14.2,12.489,15,14.459,15z"/>
    </symbol>

    <symbol id="header-twitter" role="img" aria-labelledby="header-twitter_title" viewBox="0 0 198.737 198.737">
    	<title id="header-twitter_title">Twitter</title>
		<path d="M197.399,42.479c-2.36-3.401-7.034-4.247-10.438-1.886l-23.288,16.159c-2.115,1.467-3.329,3.916-3.218,6.487
			c0.067,1.542,0.1,2.988,0.1,4.42c0,47.603-36.222,96.84-96.839,96.84c-12.357,0-24.497-2.352-35.843-6.889l35.939-10.052
			c3.989-1.116,6.318-5.254,5.202-9.243c-1.116-3.988-5.25-6.318-9.243-5.202L5.48,148.299c-2.846,0.796-4.959,3.189-5.397,6.112
			c-0.437,2.922,0.882,5.83,3.37,7.425C21.477,173.391,42.316,179.5,63.716,179.5c42.057,0,68.398-19.87,83.091-36.538
			c18.27-20.728,28.748-48.174,28.748-75.302c0-0.297-0.001-0.594-0.003-0.892l19.961-13.85
			C198.915,50.556,199.76,45.883,197.399,42.479z"/>
		<path d="M16.555,40.14l75.585,38.315c1.072,0.544,2.234,0.811,3.39,0.811c1.646,0,3.282-0.541,4.629-1.598
			c2.293-1.798,3.337-4.761,2.677-7.6c-0.501-2.154-0.754-4.396-0.754-6.662c0-16.083,13.087-29.168,29.173-29.168
			c8.041,0,15.804,3.357,21.296,9.211c2.052,2.188,5.211,2.941,8.031,1.917l23.328-8.476c3.893-1.415,5.903-5.717,4.488-9.61
			c-1.414-3.894-5.72-5.901-9.61-4.488l-18.983,6.897c-7.929-6.692-18.083-10.452-28.55-10.452c-22.93,0-41.835,17.561-43.972,39.938
			L23.337,26.761c-3.695-1.874-8.208-0.396-10.081,3.298C11.383,33.754,12.86,38.267,16.555,40.14z"/>
		<path d="M12.689,85.053l16.608,4.585c0.668,0.185,1.339,0.272,2,0.272c3.289,0,6.307-2.181,7.225-5.506
			c1.103-3.992-1.241-8.123-5.233-9.226l-16.608-4.585c-3.99-1.102-8.123,1.24-9.226,5.233C6.353,79.82,8.696,83.95,12.689,85.053z"
			/>
		<path d="M27.25,107.376c-4.139,0.157-7.367,3.639-7.21,7.778c0.153,4.043,3.478,7.216,7.49,7.216c0.096,0,0.192-0.002,0.288-0.005
			l16.562-0.628c4.139-0.157,7.367-3.639,7.211-7.779c-0.157-4.139-3.648-7.363-7.778-7.21L27.25,107.376z"/>
    </symbol>

    <symbol id="header-instagram" role="img" aria-labelledby="header-instagram_title" viewBox="0 0 512 512">
    	<title id="header-instagram_title">Instagram</title>
		<path d="M363.273,0H148.728C66.719,0,0,66.719,0,148.728v214.544C0,445.281,66.719,512,148.728,512h214.544
			c23.662,0,46.291-5.399,67.26-16.049c19.98-10.146,37.717-24.968,51.293-42.864c6.675-8.799,4.954-21.345-3.846-28.021
			c-8.797-6.675-21.344-4.956-28.021,3.846C429.183,456.295,397.588,472,363.273,472H148.728C88.775,472,40,423.225,40,363.273
			V148.728C40,88.775,88.775,40,148.728,40h214.544C423.225,40,472,88.775,472,148.728V343c0,11.046,8.954,20,20,20
			c11.046,0,20-8.954,20-20V148.728C512,66.719,445.281,0,363.273,0z"/>
		<path d="M256,118c-76.094,0-138,61.906-138,138s61.906,138,138,138s138-61.906,138-138S332.094,118,256,118z M256,354
			c-54.037,0-98-43.963-98-98s43.963-98,98-98s98,43.963,98,98S310.037,354,256,354z"/>
		<circle cx="396" cy="116" r="20"/>
    </symbol>

    <symbol id="arrow" role="img" aria-labelledby="arrow_title" viewBox="0 0 306 306">
    	<title id="arrow_title">arrow icon</title>        
		<polygon points="94.35,0 58.65,35.7 175.95,153 58.65,270.3 94.35,306 247.35,153 		"/>
    </symbol>

    <symbol id="location" role="img" aria-labelledby="location_title" viewBox="0 0 60 60">
    	<title id="location_title">location icon</title>        
		<path d="M30,26c3.86,0,7-3.141,7-7s-3.14-7-7-7s-7,3.141-7,7S26.14,26,30,26z M30,14c2.757,0,5,2.243,5,5s-2.243,5-5,5
			s-5-2.243-5-5S27.243,14,30,14z"/>
		<path d="M29.823,54.757L45.164,32.6c5.754-7.671,4.922-20.28-1.781-26.982C39.761,1.995,34.945,0,29.823,0
			s-9.938,1.995-13.56,5.617c-6.703,6.702-7.535,19.311-1.804,26.952L29.823,54.757z M17.677,7.031C20.922,3.787,25.235,2,29.823,2
			s8.901,1.787,12.146,5.031c6.05,6.049,6.795,17.437,1.573,24.399L29.823,51.243L16.082,31.4
			C10.882,24.468,11.628,13.08,17.677,7.031z"/>
		<path d="M42.117,43.007c-0.55-0.067-1.046,0.327-1.11,0.876s0.328,1.046,0.876,1.11C52.399,46.231,58,49.567,58,51.5
			c0,2.714-10.652,6.5-28,6.5S2,54.214,2,51.5c0-1.933,5.601-5.269,16.117-6.507c0.548-0.064,0.94-0.562,0.876-1.11
			c-0.065-0.549-0.561-0.945-1.11-0.876C7.354,44.247,0,47.739,0,51.5C0,55.724,10.305,60,30,60s30-4.276,30-8.5
			C60,47.739,52.646,44.247,42.117,43.007z"/>
    </symbol>

    <symbol id="smartphone" role="img" aria-labelledby="smartphone_title" viewBox="0 0 480 480">
    	<title id="smartphone_title">smartphone icon</title>        
		<path d="M368,0H112C89.944,0,72,17.944,72,40v400c0,22.056,17.944,40,40,40h256c22.056,0,40-17.944,40-40V40
			C408,17.944,390.056,0,368,0z M392,440c0,13.232-10.768,24-24,24H112c-13.232,0-24-10.768-24-24v-24h304V440z M392,400H88V64h304
			V400z M392,48H88v-8c0-13.232,10.768-24,24-24h256c13.232,0,24,10.768,24,24V48z"/>
		<path d="M352.968,265.536L327.6,240.168c-9.056-9.064-24.872-9.08-33.944,0l-15.032,15.024l-76.688-76.688l15.032-15.024
			c9.36-9.36,9.36-24.584,0-33.944l-25.376-25.368c-9.064-9.064-24.864-9.072-33.936,0L142.224,119.6
			c-28.064,28.072-28.064,73.744,0,101.824l93.496,93.488C249.312,328.512,267.4,336,286.624,336
			c19.232,0,37.32-7.488,50.912-21.088l15.432-15.432C362.328,290.12,362.328,274.896,352.968,265.536z M341.656,288.16
			l-15.432,15.432c-10.576,10.576-24.64,16.4-39.6,16.4c-14.952,0-29.016-5.824-39.592-16.4l-93.496-93.48
			c-21.824-21.84-21.824-57.368,0-79.2l15.432-15.432c1.512-1.512,3.52-2.344,5.656-2.344c2.144,0,4.144,0.832,5.648,2.336
			c0.008,0,0.008,0,0.008,0l25.376,25.368c3.12,3.12,3.12,8.192,0,11.32l-20.688,20.68c-1.504,1.504-2.344,3.536-2.344,5.656
			c0,2.12,0.84,4.16,2.344,5.656l88,88c3.128,3.128,8.184,3.128,11.312,0l20.688-20.68c3.04-3.024,8.288-3.016,11.312,0
			l25.376,25.368C344.776,279.96,344.776,285.032,341.656,288.16z"/>
		<rect x="232" y="352" width="16" height="16"/>
		<rect x="200" y="352" width="16" height="16"/>
		<rect x="264" y="352" width="16" height="16"/>
		<path d="M240,176v16c13.232,0,24,10.768,24,24h16C280,193.944,262.056,176,240,176z"/>
		<path d="M240,144v16c30.872,0,56,25.12,56,56h16C312,176.304,279.704,144,240,144z"/>
		<path d="M240,112v16c48.52,0,88,39.48,88,88h16C344,158.656,297.344,112,240,112z"/>
    </symbol>

    <symbol id="arroba" role="img" aria-labelledby="arroba_title" viewBox="0 0 512 512">
    	<title id="arroba_title">arroba icon</title>        
		<path d="M256,0C114.844,0,0,114.844,0,256s114.844,256,256,256c68.385,0,132.667-26.625,181.021-74.979
			c4.167-4.167,4.167-10.917,0-15.083c-4.167-4.167-10.917-4.167-15.083,0C377.615,466.26,318.688,490.667,256,490.667
			C126.604,490.667,21.333,385.396,21.333,256S126.604,21.333,256,21.333S490.667,126.604,490.667,256v21.333
			c0,35.292-28.708,64-64,64s-64-28.708-64-64v-96c0-5.896-4.771-10.667-10.667-10.667c-5.896,0-10.667,4.771-10.667,10.667v11.327
			c-19.461-26.138-50.319-43.327-85.333-43.327c-58.813,0-106.667,47.854-106.667,106.667S197.188,362.667,256,362.667
			c39.229,0,73.206-21.53,91.734-53.163c12.737,31.132,43.271,53.163,78.932,53.163c47.052,0,85.333-38.281,85.333-85.333V256
			C512,114.844,397.156,0,256,0z M256,341.333c-47.052,0-85.333-38.281-85.333-85.333s38.281-85.333,85.333-85.333
			s85.333,38.281,85.333,85.333S303.052,341.333,256,341.333z"/>
    </symbol>

    <symbol id="facebook" role="img" aria-labelledby="facebook_title" viewBox="0 0 512 512">
    	<title id="facebook_title">Facebook</title>        
		<path d="M314.829,135.492h70.595c11.423,0,20.682-9.26,20.682-20.682V20.682C406.107,9.26,396.848,0,385.425,0h-70.595
			c-76.282,0-138.341,62.06-138.341,138.341v49.913h-49.913c-11.422,0-20.682,9.26-20.682,20.682v94.127
			c0,11.423,9.26,20.682,20.682,20.682h49.913v167.572c0,11.423,9.26,20.682,20.682,20.682h94.127
			c11.423,0,20.682-9.259,20.682-20.682V323.746h49.913c9.49,0,17.763-6.458,20.065-15.666l23.532-94.127
			c1.544-6.179,0.156-12.725-3.763-17.744c-3.919-5.02-9.932-7.954-16.301-7.954H311.98v-49.913
			C311.98,136.77,313.258,135.492,314.829,135.492z M291.298,229.619h67.637l-13.191,52.763h-54.447
			c-11.423,0-20.682,9.259-20.682,20.682v167.572h-52.763V303.064c0-11.423-9.26-20.682-20.682-20.682h-49.913v-52.763h49.913
			c11.422,0,20.682-9.26,20.682-20.682v-70.595c0-53.473,43.503-96.977,96.977-96.977h49.913v52.763h-49.913
			c-24.38,0-44.214,19.835-44.214,44.214v70.595C270.615,220.359,279.875,229.619,291.298,229.619z"/>
    </symbol>

    <symbol id="twitter" role="img" aria-labelledby="twitter_title" viewBox="0 0 512 512">
    	<title id="twitter_title">Twitter</title>
		<path d="M502.954,47.189c-7.126-4.852-16.515-4.774-23.559,0.196c-15.351,10.828-31.974,19.528-49.557,25.948
			c-19.253-17.414-43.615-27.826-69.915-29.656c-31.056-2.16-61.081,7.9-84.561,28.326c-25.59,22.259-40.174,54.444-40.046,88.349
			c-85.248-7.609-139.14-61.55-177.09-108.986c-4.598-5.746-11.901-8.619-19.182-7.538c-7.279,1.078-13.438,5.944-16.171,12.777
			c-0.948,2.369-23.141,58.799-17.453,127.057c4.761,57.133,30.23,131.964,120.039,181.717
			c-32.436,14.756-68.282,21.939-103.953,20.519c-9.576-0.378-18.15,5.859-20.736,15.08c-2.587,9.221,1.497,19.013,9.869,23.665
			c51.359,28.532,108.03,43.736,163.889,43.965c0.432,0.002,0.861,0.003,1.294,0.003c54.105-0.001,106.379-13.938,151.246-40.336
			c42.898-25.241,78.416-61.759,102.715-105.603c26.162-47.206,39.427-101.75,39.427-162.186c-0.011-3.544-0.186-7.098-0.52-10.638
			c20.7-22.885,35.388-50.567,42.719-80.667C513.451,60.803,510.081,52.04,502.954,47.189z M432.297,128.07
			c-4.916,4.847-7.088,11.827-5.793,18.607c0.877,4.588,1.329,9.278,1.344,13.874c0,101.956-44.378,186.544-121.756,232.072
			c-60.586,35.649-133.037,43.933-203.609,25.057c0.729-0.201,1.459-0.407,2.185-0.615c27.596-7.885,53.63-20.055,77.377-36.174
			c6.329-4.296,9.77-11.734,8.946-19.34c-0.825-7.605-5.778-14.134-12.881-16.975C97.757,312.434,53.563,257.594,46.757,181.575
			c-2.536-28.334,0.707-54.721,4.766-74.501c16.638,17.909,37.384,37.227,62.129,53.407c42.771,27.966,90.663,42.146,142.346,42.146
			c11.423,0,20.682-9.26,20.682-20.682v-21.393c0-0.045,0-0.091,0-0.137c-0.146-21.948,9.268-42.797,25.829-57.202
			c15.146-13.175,34.51-19.665,54.543-18.27c20.026,1.393,38.311,10.502,51.487,25.648c5.339,6.138,13.783,8.577,21.567,6.229
			c5.725-1.724,11.375-3.645,16.941-5.757C442.599,117.081,437.672,122.769,432.297,128.07z"/>
    </symbol>

    <symbol id="instagram" role="img" aria-labelledby="instagram_title" viewBox="0 0 512 512">
    	<title id="instagram_title">Instagram</title>        
		<path d="M373.659,0H138.341C62.06,0,0,62.06,0,138.341v235.318C0,449.94,62.06,512,138.341,512h235.318
			C449.94,512,512,449.94,512,373.659V138.341C512,62.06,449.94,0,373.659,0z M470.636,373.659
			c0,53.473-43.503,96.977-96.977,96.977H138.341c-53.473,0-96.977-43.503-96.977-96.977V138.341
			c0-53.473,43.503-96.977,96.977-96.977h235.318c53.473,0,96.977,43.503,96.977,96.977V373.659z"/>
		<path d="M370.586,238.141c-3.64-24.547-14.839-46.795-32.386-64.342c-17.547-17.546-39.795-28.746-64.341-32.385
			c-11.176-1.657-22.507-1.657-33.682,0c-30.336,4.499-57.103,20.541-75.372,45.172c-18.269,24.631-25.854,54.903-21.355,85.237
			c4.499,30.335,20.541,57.102,45.172,75.372c19.996,14.831,43.706,22.619,68.153,22.619c5.667,0,11.375-0.418,17.083-1.265
			c30.336-4.499,57.103-20.541,75.372-45.172C367.5,298.747,375.085,268.476,370.586,238.141z M267.791,327.632
			c-19.405,2.882-38.77-1.973-54.527-13.66c-15.757-11.687-26.019-28.811-28.896-48.216c-2.878-19.405,1.973-38.77,13.66-54.527
			c11.688-15.757,28.811-26.019,48.217-28.897c3.574-0.53,7.173-0.795,10.772-0.795s7.199,0.265,10.773,0.796
			c32.231,4.779,57.098,29.645,61.878,61.877C335.608,284.268,307.851,321.692,267.791,327.632z"/>
		<path d="M400.049,111.951c-3.852-3.851-9.183-6.058-14.625-6.058c-5.442,0-10.773,2.206-14.625,6.058
			c-3.851,3.852-6.058,9.174-6.058,14.625c0,5.451,2.207,10.773,6.058,14.625c3.852,3.851,9.183,6.058,14.625,6.058
			c5.442,0,10.773-2.206,14.625-6.058c3.851-3.852,6.058-9.183,6.058-14.625C406.107,121.133,403.9,115.802,400.049,111.951z"/>
    </symbol>

    <symbol id="whatsapp" role="img" aria-labelledby="whatsapp_title" viewBox="0 0 512 512">
    	<title id="whatsapp_title">Whatsapp</title>        
		<path d="m435.921875 74.351562c-48.097656-47.917968-112.082031-74.3242182-180.179687-74.351562-67.945313 0-132.03125 26.382812-180.445313 74.289062-48.5 47.988282-75.234375 111.761719-75.296875 179.339844v.078125.046875c.0078125 40.902344 10.753906 82.164063 31.152344 119.828125l-30.453125 138.417969 140.011719-31.847656c35.460937 17.871094 75.027343 27.292968 114.933593 27.308594h.101563c67.933594 0 132.019531-26.386719 180.441406-74.296876 48.542969-48.027343 75.289062-111.71875 75.320312-179.339843.019532-67.144531-26.820312-130.882813-75.585937-179.472657zm-180.179687 393.148438h-.089844c-35.832032-.015625-71.335938-9.011719-102.667969-26.023438l-6.621094-3.59375-93.101562 21.175782 20.222656-91.90625-3.898437-6.722656c-19.382813-33.425782-29.625-70.324219-29.625-106.71875.074218-117.800782 96.863281-213.75 215.773437-213.75 57.445313.023437 111.421875 22.292968 151.984375 62.699218 41.175781 41.03125 63.84375 94.710938 63.824219 151.152344-.046875 117.828125-96.855469 213.6875-215.800781 213.6875zm0 0"/>
		<path d="m186.152344 141.863281h-11.210938c-3.902344 0-10.238281 1.460938-15.597656 7.292969-5.363281 5.835938-20.476562 19.941406-20.476562 48.628906s20.964843 56.40625 23.886718 60.300782c2.925782 3.890624 40.46875 64.640624 99.929688 88.011718 49.417968 19.421875 59.476562 15.558594 70.199218 14.585938 10.726563-.96875 34.613282-14.101563 39.488282-27.714844s4.875-25.285156 3.414062-27.722656c-1.464844-2.429688-5.367187-3.886719-11.214844-6.800782-5.851562-2.917968-34.523437-17.261718-39.886718-19.210937-5.363282-1.941406-9.261719-2.914063-13.164063 2.925781-3.902343 5.828125-15.390625 19.3125-18.804687 23.203125-3.410156 3.894531-6.824219 4.382813-12.675782 1.464844-5.851562-2.925781-24.5-9.191406-46.847656-29.050781-17.394531-15.457032-29.464844-35.167969-32.878906-41.003906-3.410156-5.832032-.363281-8.988282 2.570312-11.898438 2.628907-2.609375 6.179688-6.179688 9.105469-9.582031 2.921875-3.40625 3.753907-5.835938 5.707031-9.726563 1.949219-3.890625.972657-7.296875-.488281-10.210937-1.464843-2.917969-12.691406-31.75-17.894531-43.28125h.003906c-4.382812-9.710938-8.996094-10.039063-13.164062-10.210938zm0 0"/>
    </symbol>

    <symbol id="contact01" role="img" aria-labelledby="contact01_title" viewBox="0 0 459 459">
    	<title id="contact01_title"></title>        
		<path d="M433.5,318.75c-30.6,0-61.2-5.1-91.8-15.3c-7.65-2.55-17.851,0-25.5,5.1L260.1,364.65
			c-71.399-35.7-130.05-96.9-168.3-168.3l56.1-56.1c7.65-7.65,10.2-17.85,5.1-25.5c-7.65-28.05-12.75-58.65-12.75-89.25
			c0-15.3-10.2-25.5-25.5-25.5H25.5C10.2,0,0,10.2,0,25.5C0,265.2,193.8,459,433.5,459c15.3,0,25.5-10.2,25.5-25.5v-89.25
			C459,328.95,448.8,318.75,433.5,318.75z M408,229.5h51C459,102,357,0,229.5,0v51C328.95,51,408,130.05,408,229.5z M306,229.5h51
			c0-71.4-56.1-127.5-127.5-127.5v51C272.85,153,306,186.15,306,229.5z"/>
    </symbol>

    <symbol id="contact02" role="img" aria-labelledby="contact02_title" viewBox="0 0 550.795 550.795">
    	<title id="contact02_title"></title>        
		<path d="M501.613,491.782c12.381,0,23.109-4.088,32.229-12.16L377.793,323.567c-3.744,2.681-7.373,5.288-10.801,7.767
			c-11.678,8.604-21.156,15.318-28.434,20.129c-7.277,4.822-16.959,9.737-29.045,14.755c-12.094,5.024-23.361,7.528-33.813,7.528
			h-0.306h-0.306c-10.453,0-21.72-2.503-33.813-7.528c-12.093-5.018-21.775-9.933-29.045-14.755
			c-7.277-4.811-16.75-11.524-28.434-20.129c-3.256-2.387-6.867-5.006-10.771-7.809L16.946,479.622
			c9.119,8.072,19.854,12.16,32.234,12.16H501.613z"/>
		<path d="M31.047,225.299C19.37,217.514,9.015,208.598,0,198.555V435.98l137.541-137.541
			C110.025,279.229,74.572,254.877,31.047,225.299z"/>
		<path d="M520.059,225.299c-41.865,28.336-77.447,52.73-106.75,73.195l137.486,137.492V198.555
			C541.98,208.396,531.736,217.306,520.059,225.299z"/>
		<path d="M501.613,59.013H49.181c-15.784,0-27.919,5.33-36.42,15.979C4.253,85.646,0.006,98.97,0.006,114.949
			c0,12.907,5.636,26.892,16.903,41.959c11.267,15.061,23.256,26.891,35.961,35.496c6.965,4.921,27.969,19.523,63.012,43.801
			c18.917,13.109,35.368,24.535,49.505,34.395c12.05,8.396,22.442,15.667,31.022,21.701c0.985,0.691,2.534,1.799,4.59,3.269
			c2.215,1.591,5.018,3.61,8.476,6.107c6.659,4.816,12.191,8.709,16.597,11.683c4.4,2.975,9.731,6.298,15.985,9.988
			c6.249,3.685,12.143,6.456,17.675,8.299c5.533,1.842,10.655,2.766,15.367,2.766h0.306h0.306c4.711,0,9.834-0.924,15.368-2.766
			c5.531-1.843,11.42-4.608,17.674-8.299c6.248-3.69,11.572-7.02,15.986-9.988c4.406-2.974,9.938-6.866,16.598-11.683
			c3.451-2.497,6.254-4.517,8.469-6.102c2.057-1.476,3.605-2.577,4.596-3.274c6.684-4.651,17.1-11.892,31.104-21.616
			c25.482-17.705,63.01-43.764,112.742-78.281c14.957-10.447,27.453-23.054,37.496-37.803c10.025-14.749,15.051-30.22,15.051-46.408
			c0-13.525-4.873-25.098-14.598-34.737C526.461,63.829,514.932,59.013,501.613,59.013z"/>
    </symbol>

    <symbol id="contact03" role="img" aria-labelledby="contact03_title" viewBox="0 0 434.174 434.174">
    	<title id="contact03_title"></title>        
		<path d="M217.087,119.397c-24.813,0-45,20.187-45,45s20.187,45,45,45s45-20.187,45-45S241.901,119.397,217.087,119.397z"/>
		<path d="M217.087,0c-91.874,0-166.62,74.745-166.62,166.619c0,38.93,13.421,74.781,35.878,103.177l130.742,164.378l130.742-164.378
			c22.457-28.396,35.878-64.247,35.878-103.177C383.707,74.745,308.961,0,217.087,0z M217.087,239.397c-41.355,0-75-33.645-75-75
			s33.645-75,75-75s75,33.645,75,75S258.443,239.397,217.087,239.397z"/>
    </symbol>

</svg>
