<svg xmlns="http://www.w3.org/2000/svg" xmlns:xlink="http://www.w3.org/1999/xlink">

	<symbol id="facebook" role="img" aria-labelledby="facebook_title" viewBox="0 0 512 512">
        <title id="facebook_title">Facebook</title>
        <path d="M296.296,512H200.36V256h-64v-88.225l64-0.029l-0.104-51.976C200.256,43.794,219.773,0,304.556,0h70.588v88.242h-44.115
		c-33.016,0-34.604,12.328-34.604,35.342l-0.131,44.162h79.346l-9.354,88.225L296.36,256L296.296,512z"/>
    </symbol>

    <symbol id="twitter" role="img" aria-labelledby="twitter_title" viewBox="0 0 512.002 512.002">
        <title id="twitter_title">Twitter</title>
        <path d="M512.002,97.211c-18.84,8.354-39.082,14.001-60.33,16.54c21.686-13,38.342-33.585,46.186-58.115
		c-20.299,12.039-42.777,20.78-66.705,25.49c-19.16-20.415-46.461-33.17-76.674-33.17c-58.011,0-105.042,47.029-105.042,105.039
		c0,8.233,0.929,16.25,2.72,23.939c-87.3-4.382-164.701-46.2-216.509-109.753c-9.042,15.514-14.223,33.558-14.223,52.809
		c0,36.444,18.544,68.596,46.73,87.433c-17.219-0.546-33.416-5.271-47.577-13.139c-0.01,0.438-0.01,0.878-0.01,1.321
		c0,50.894,36.209,93.348,84.261,103c-8.813,2.399-18.094,3.687-27.674,3.687c-6.769,0-13.349-0.66-19.764-1.888
		c13.368,41.73,52.16,72.104,98.126,72.949c-35.95,28.176-81.243,44.967-130.458,44.967c-8.479,0-16.84-0.496-25.058-1.471
		c46.486,29.807,101.701,47.197,161.021,47.197c193.211,0,298.868-160.062,298.868-298.872c0-4.554-0.104-9.084-0.305-13.59
		C480.111,136.775,497.92,118.275,512.002,97.211z"/>
    </symbol>

    <symbol id="instagram" role="img" aria-labelledby="instagram_title" viewBox="0 0 97.395 97.395">
        <title id="instagram_title">Instagram</title>
        <path d="M12.501,0h72.393c6.875,0,12.5,5.09,12.5,12.5v72.395c0,7.41-5.625,12.5-12.5,12.5H12.501C5.624,97.395,0,92.305,0,84.895
		V12.5C0,5.09,5.624,0,12.501,0L12.501,0z M70.948,10.821c-2.412,0-4.383,1.972-4.383,4.385v10.495c0,2.412,1.971,4.385,4.383,4.385
		h11.008c2.412,0,4.385-1.973,4.385-4.385V15.206c0-2.413-1.973-4.385-4.385-4.385H70.948L70.948,10.821z M86.387,41.188h-8.572
		c0.811,2.648,1.25,5.453,1.25,8.355c0,16.2-13.556,29.332-30.275,29.332c-16.718,0-30.272-13.132-30.272-29.332
		c0-2.904,0.438-5.708,1.25-8.355h-8.945v41.141c0,2.129,1.742,3.872,3.872,3.872h67.822c2.13,0,3.872-1.742,3.872-3.872V41.188
		H86.387z M48.789,29.533c-10.802,0-19.56,8.485-19.56,18.953c0,10.468,8.758,18.953,19.56,18.953
		c10.803,0,19.562-8.485,19.562-18.953C68.351,38.018,59.593,29.533,48.789,29.533z"/>
    </symbol>

</svg>