<svg xmlns="http://www.w3.org/2000/svg" xmlns:xlink="http://www.w3.org/1999/xlink">

	<symbol id="header-loupe" role="img" aria-labelledby="header-loupe_title" viewBox="0 0 118.783 118.783">
        <title id="header-loupe_title"></title>
        <path d="M115.97,101.597L88.661,74.286c4.64-7.387,7.333-16.118,7.333-25.488c0-26.509-21.49-47.996-47.998-47.996
		S0,22.289,0,48.798c0,26.51,21.487,47.995,47.996,47.995c10.197,0,19.642-3.188,27.414-8.605l26.984,26.986
		c1.875,1.873,4.333,2.806,6.788,2.806c2.458,0,4.913-0.933,6.791-2.806C119.72,111.423,119.72,105.347,115.97,101.597z
		 M47.996,81.243c-17.917,0-32.443-14.525-32.443-32.443s14.526-32.444,32.443-32.444c17.918,0,32.443,14.526,32.443,32.444
		S65.914,81.243,47.996,81.243z"/>
    </symbol>

	<symbol id="header-account" role="img" aria-labelledby="header-account_title" viewBox="0 0 509.889 509.889">
        <title id="header-account_title"></title>
        <path d="M256.013,509.889c-54.516,0-106.895-17.103-151.791-50.241
			C40.086,411.546,0.534,335.65,0.534,254.41C0.534,114.378,114.912,0,254.944,0s254.41,114.378,254.41,254.41
			c0,80.171-38.482,157.136-103.688,205.238C363.977,491.717,310.53,509.889,256.013,509.889z M123.464,433.994
			c38.482,28.862,84.447,43.827,132.55,43.827s94.068-14.965,132.55-43.827c57.723-42.758,89.792-107.964,89.792-178.515
			c0-122.929-99.412-222.342-222.342-222.342S33.672,132.55,33.672,255.479C33.672,326.03,65.74,391.236,123.464,433.994z"/>
		<path d="M256.013,261.893c-43.827,0-80.171-45.965-80.171-101.55c0-53.447,33.137-90.861,80.171-90.861
			s80.171,37.413,80.171,90.861C336.185,215.928,299.84,261.893,256.013,261.893z M256.013,101.55
			c-28.862,0-48.103,23.517-48.103,58.792c0,37.413,22.448,69.482,48.103,69.482s48.103-32.068,48.103-69.482
			C304.116,125.067,284.875,101.55,256.013,101.55z"/>
		<path d="M398.184,462.855c-8.552,0-16.034-6.414-16.034-16.034
			c-2.138-68.413-57.723-122.929-126.136-122.929s-123.998,53.447-126.136,122.929c0,8.552-7.483,16.034-16.034,16.034
			s-16.034-7.483-16.034-16.034c2.138-86.585,71.62-153.929,158.205-153.929s156.067,67.344,158.205,153.929
			C414.218,455.373,407.804,462.855,398.184,462.855z"/>
    </symbol>

	<symbol id="header-cart" role="img" aria-labelledby="header-cart_title" viewBox="0 0 512 512">
        <title id="header-cart_title"></title>
        <path d="M151.964,376.971c0-8.269,6.727-14.996,14.996-14.996c12.195,0,293.29,0,313.066,0L512,121.032H141.365L119.504,0.061H0
			v29.993h94.445l55.193,305.401c-16.232,6.798-27.667,22.846-27.667,41.516c0,22.551,16.679,41.274,38.347,44.495
			c-5.3,8.941-8.354,19.361-8.354,30.487c0,33.076,26.91,59.986,59.986,59.986c33.076,0,59.986-26.91,59.986-59.986
			c0-10.922-2.948-21.262-8.07-30.093h106.119c-5.122,8.831-8.07,19.17-8.07,30.093c0,33.076,26.91,59.986,59.986,59.986
			c33.076,0,59.986-26.91,59.986-59.986c0-10.922-2.948-21.162-8.07-29.993h8.07v-29.993H166.96
			C158.691,391.968,151.964,385.24,151.964,376.971z M211.949,331.982h-32.46L165.938,257h46.011V331.982z M421.899,151.025h55.865
			l-10.083,75.982h-45.782V151.025z M421.899,257h41.802l-9.951,74.982h-31.851V257z M331.921,151.025h59.986v75.982h-59.986
			V151.025z M331.921,257h59.986v74.982h-59.986V257z M241.942,151.025h59.986v75.982h-59.986V151.025z M241.942,257h59.986v74.982
			h-59.986V257z M146.786,151.025h65.163v75.982h-51.432L146.786,151.025z M421.899,421.96c16.538,0,29.993,13.455,29.993,29.993
			s-13.455,29.993-29.993,29.993c-16.538,0-29.993-13.455-29.993-29.993S405.361,421.96,421.899,421.96z M211.949,421.96
			c16.538,0,29.993,13.455,29.993,29.993s-13.455,29.993-29.993,29.993c-16.538,0-29.993-13.455-29.993-29.993
			S195.411,421.96,211.949,421.96z"/>
    </symbol>
  
    <symbol id="header-menu" role="img" aria-labelledby="header-menu_title" viewBox="0 0 396.667 396.667">
        <title id="header-menu_title"></title>
        <path d="M17,87.833h362.667c9.35,0,17-7.65,17-17s-7.65-17-17-17H17c-9.35,0-17,7.65-17,17C0,80.183,7.65,87.833,17,87.833z"/>
		<path d="M17,215.333h362.667c9.35,0,17-7.65,17-17s-7.65-17-17-17H17c-9.35,0-17,7.65-17,17S7.65,215.333,17,215.333z"/>
		<path d="M17,342.833h362.667c9.35,0,17-7.65,17-17s-7.65-17-17-17H17c-9.35,0-17,7.65-17,17S7.65,342.833,17,342.833z"/>
    </symbol>

    <symbol id="header-cups" role="img" aria-labelledby="header-cups_title" viewBox="0 0 512 512">
        <title id="header-cups_title"></title>
        <path d="m511.402344 443.605469-30.890625-218.605469h-75.519531v-42c0-43.007812-34.988282-78-78-78-43.007813 0-78 34.992188-78 78v42h-79.410157l-31.945312 218.3125c-2.527344 17.257812 2.5625 34.726562 13.972656 47.921875 11.40625 13.195313 27.949219 20.765625 45.394531 20.765625h254.988282c17.386718 0 33.898437-7.527344 45.296874-20.652344 11.402344-13.125 16.546876-30.527344 14.113282-47.742187zm-222.410156-260.605469c0-20.953125 17.046874-38 38-38 20.953124 0 38 17.046875 38 38v42h-76zm178.101562 282.113281c-3.855469 4.441407-9.21875 6.886719-15.101562 6.886719h-254.988282c-5.902344 0-11.273437-2.457031-15.132812-6.921875s-5.511719-10.136719-4.65625-15.976563l26.9375-184.101562h44.839844v40h40v-40h76v40h40v-40h40.773437l26.03125 184.199219c.824219 5.824219-.847656 11.476562-4.703125 15.914062zm-334.101562-280.113281v-40h-43l-49.828126 304.4375c-.746093 5.789062.964844 11.386719 4.816407 15.769531 3.851562 4.382813 9.183593 6.792969 15.019531 6.792969h39.019531c2.933594 14.390625 9.035157 28.066406 17.992188 40h-57.011719c-17.25 0-33.671875-7.429688-45.0625-20.382812-11.386719-12.957032-16.652344-30.195313-14.441406-47.304688l54.332031-339.3125h78.164063v-27c0-43.007812 34.992187-78 78-78 40.78125 0 74.328124 31.464844 77.699218 71.386719-14.769531 5.082031-28.222656 13.019531-39.699218 23.152343v-16.539062c0-20.953125-17.046876-38-38-38-20.953126 0-38 17.046875-38 38v27h65.539062c-10.199219 11.554688-18.179688 25.109375-23.257812 40h-42.28125v40zm0 0"/>
    </symbol>

    <symbol id="header-delivery" role="img" aria-labelledby="header-delivery_title" viewBox="0 0 512 512">
        <title id="header-delivery_title"></title>
        <circle cx="256" cy="256" r="32"/>
		<path d="M461.026,236C451.573,138.344,373.656,60.427,276,50.974V0h-40v50.974C138.344,60.427,60.427,138.344,50.974,236H0v40
			h50.974c9.453,97.656,87.37,175.573,185.026,185.026V512h40v-50.974c97.656-9.453,175.573-87.371,185.026-185.026H512v-40H461.026
			z M420.792,276C411.674,351.577,351.577,411.674,276,420.792V370h-40v50.792C160.423,411.674,100.326,351.577,91.208,276H142v-40
			H91.208C100.326,160.423,160.423,100.326,236,91.208V142h40V91.208c75.577,9.117,135.674,69.214,144.792,144.792H370v40H420.792z"
			/>
    </symbol>

    <symbol id="header-contact" role="img" aria-labelledby="header-contact_title" viewBox="0 0 330.001 330.001">
        <title id="header-contact_title"></title>
        <path d="M329.266,126.688c-1.764-5.43-6.458-9.388-12.108-10.208l-95.845-13.929l-42.861-86.849
			c-2.527-5.12-7.742-8.361-13.451-8.361c-5.71,0-10.924,3.241-13.451,8.361l-42.861,86.849L12.843,116.48
			c-5.65,0.82-10.344,4.778-12.108,10.209c-1.765,5.43-0.293,11.391,3.795,15.376l69.355,67.604l-16.375,95.454
			c-0.965,5.628,1.348,11.315,5.967,14.671c2.613,1.9,5.708,2.865,8.818,2.865c2.387,0,4.784-0.569,6.979-1.723L165,275.868
			l85.728,45.069c2.195,1.153,4.591,1.723,6.979,1.723c0.015,0,0.03,0,0.045,0c8.273-0.013,14.977-6.724,14.977-15
			c0-1.152-0.13-2.273-0.376-3.351l-16.235-94.64l69.353-67.604C329.559,138.079,331.031,132.119,329.266,126.688z M229.53,193.692
			c-3.536,3.446-5.148,8.411-4.314,13.277l12.569,73.269l-65.805-34.595c-2.185-1.148-4.583-1.723-6.98-1.723
			c-2.398,0-4.795,0.574-6.98,1.723l-65.802,34.595l12.569-73.269c0.835-4.866-0.779-9.831-4.314-13.277l-53.239-51.895l73.572-10.692
			c4.886-0.71,9.109-3.778,11.294-8.205L165,56.236L197.9,122.9c2.185,4.427,6.408,7.495,11.294,8.205l73.573,10.692L229.53,193.692z"
			/>
    </symbol>

    <symbol id="header-phone" role="img" aria-labelledby="header-phone_title" viewBox="0 0 330 330">
        <title id="header-phone_title"></title>
	    <path d="M165,0C74.019,0,0,74.02,0,165.001C0,255.982,74.019,330,165,330s165-74.018,165-164.999C330,74.02,255.981,0,165,0z
			 M165,300c-74.44,0-135-60.56-135-134.999C30,90.562,90.56,30,165,30s135,60.562,135,135.001C300,239.44,239.439,300,165,300z"/>
		<path d="M164.998,70c-11.026,0-19.996,8.976-19.996,20.009c0,11.023,8.97,19.991,19.996,19.991
			c11.026,0,19.996-8.968,19.996-19.991C184.994,78.976,176.024,70,164.998,70z"/>
		<path d="M165,140c-8.284,0-15,6.716-15,15v90c0,8.284,6.716,15,15,15c8.284,0,15-6.716,15-15v-90C180,146.716,173.284,140,165,140z
			"/>
    </symbol>

    <symbol id="header-about" role="img" aria-labelledby="header-about_title" viewBox="0 0 512 512">
        <title id="header-about_title"></title>
        <path d="M338,266c-33.084,0-60,26.916-60,60s26.916,60,60,60s60-26.916,60-60S371.084,266,338,266z M338,346
			c-11.028,0-20-8.972-20-20s8.972-20,20-20s20,8.972,20,20S349.028,346,338,346z"/>
		<path d="M233,186c0-33.084-26.916-60-60-60s-60,26.916-60,60s26.916,60,60,60S233,219.084,233,186z M153,186
			c0-11.028,8.972-20,20-20s20,8.972,20,20s-8.972,20-20,20S153,197.028,153,186z"/>
		<path d="M437.02,74.98C388.667,26.629,324.38,0,256,0S123.333,26.629,74.98,74.98C26.629,123.333,0,187.62,0,256
			s26.629,132.667,74.98,181.02C123.333,485.371,187.62,512,256,512s132.667-26.629,181.02-74.98
			C485.371,388.667,512,324.38,512,256S485.371,123.333,437.02,74.98z M256,472c-119.103,0-216-96.897-216-216S136.897,40,256,40
			s216,96.897,216,216S375.103,472,256,472z"/>
		<polygon points="298.13,136 168.401,376 213.87,376 343.599,136 			"/>
    </symbol>

    <symbol id="header-returns" role="img" aria-labelledby="header-returns_title" viewBox="0 0 384 384">
        <title id="header-returns_title"></title>
        <path d="M112.928,285.6c-3.024-2.056-5.984-4.392-8.816-6.936c-6.568-5.92-16.696-5.376-22.592,1.184
			c-5.912,6.568-5.384,16.68,1.184,22.592c3.888,3.504,8,6.736,12.216,9.608c2.76,1.88,5.896,2.784,8.992,2.784
			c5.12,0,10.152-2.448,13.24-7C122.12,300.528,120.232,290.576,112.928,285.6z"/>
		<path d="M360,171.536C360,76.952,284.368,0,191.4,0C106.256,0,34.336,64.728,24.112,150.568c-1.04,8.776,5.224,16.736,14,17.776
			c8.712,1.072,16.736-5.216,17.784-14C64.192,84.6,122.456,32,191.4,32C266.72,32,328,94.592,328,171.536
			c0,64.96-43.744,119.536-102.68,135l19.336-27.592c5.072-7.24,3.32-17.216-3.92-22.288c-7.224-5.08-17.216-3.312-22.28,3.92
			l-40.16,57.304c-0.024,0.04-0.04,0.08-0.064,0.12c-0.384,0.552-0.68,1.168-0.992,1.768c-0.168,0.328-0.392,0.648-0.536,0.984
			c-0.192,0.456-0.304,0.944-0.456,1.416c-0.168,0.52-0.376,1.04-0.488,1.568c-0.072,0.36-0.08,0.736-0.136,1.096
			c-0.096,0.68-0.2,1.36-0.208,2.04c0,0.064-0.016,0.128-0.016,0.192c0,0.376,0.088,0.72,0.112,1.088
			c0.04,0.616,0.072,1.224,0.184,1.824c0.096,0.504,0.248,0.984,0.392,1.472c0.144,0.504,0.272,1,0.464,1.488
			c0.192,0.488,0.44,0.936,0.68,1.4c0.232,0.456,0.456,0.912,0.728,1.344c0.288,0.448,0.616,0.848,0.944,1.264
			c0.312,0.392,0.608,0.792,0.952,1.16c0.416,0.432,0.872,0.808,1.336,1.192c0.272,0.232,0.504,0.496,0.792,0.712l56.216,40.928
			c2.84,2.064,6.136,3.064,9.4,3.064c4.944,0,9.824-2.28,12.952-6.584c5.192-7.144,3.624-17.152-3.52-22.352L233,337.568
			C305.88,318.648,360,251.488,360,171.536z"/>
		<path d="M68.8,233.808c-0.064-0.28-0.184-0.544-0.256-0.824c-0.216-0.8-0.464-1.592-0.8-2.336c-0.04-0.088-0.056-0.192-0.096-0.28
			c-1.976-4.176-3.392-7.6-4.472-10.768c-2.84-8.36-11.928-12.872-20.296-10c-8.368,2.84-12.84,11.928-10,20.296
			c1.384,4.072,3.104,8.28,5.368,13.16c0.024,0.056,0.072,0.104,0.096,0.168c0.52,1.288,1.224,2.472,2.048,3.568
			c0.2,0.264,0.416,0.504,0.632,0.76c0.816,0.96,1.728,1.84,2.752,2.584c0.12,0.088,0.224,0.2,0.352,0.288
			c1.136,0.776,2.392,1.36,3.712,1.832c0.336,0.12,0.664,0.216,1.008,0.312c1.36,0.384,2.768,0.648,4.256,0.656
			c0.024,0,0.048,0.008,0.072,0.008c7.728,0,14.184-5.52,15.672-12.816c0.216-1.04,0.328-2.12,0.328-3.224
			C69.176,236.032,69.04,234.904,68.8,233.808z"/>
    </symbol>

    <symbol id="button-arrow" role="img" aria-labelledby="button-arrow_title" viewBox="0 0 612 612">
        <title id="button-arrow_title"></title>
        <path d="M277.58,179.679l-0.057,0.077c-5.125-4.705-11.857-7.631-19.335-7.631c-15.835,0-28.688,12.852-28.688,28.688
				c0,8.377,3.634,15.835,9.352,21.076l-0.057,0.077L330.48,306l-91.686,84.055l0.057,0.076c-5.718,5.221-9.352,12.68-9.352,21.057
				c0,15.836,12.852,28.688,28.688,28.688c7.478,0,14.21-2.926,19.335-7.611l0.057,0.076l114.75-105.188
				c5.91-5.451,9.295-13.101,9.295-21.152s-3.385-15.702-9.295-21.152L277.58,179.679z M306,0C137.012,0,0,137.012,0,306
				s137.012,306,306,306s306-137.012,306-306S474.988,0,306,0z M306,554.625C168.912,554.625,57.375,443.088,57.375,306
				S168.912,57.375,306,57.375S554.625,168.912,554.625,306S443.088,554.625,306,554.625z"/>
    </symbol>

    <symbol id="advantages01" role="img" aria-labelledby="advantages01_title" viewBox="0 0 512 512">
        <title id="advantages01_title"></title>
        <path d="M449,0H99C74.187,0,54,20.187,54,45v75H18v30h61v153.537C42.872,321.589,18,358.942,18,402c0,60.654,49.346,110,110,110
			c24.722,0,47.563-8.199,65.952-22.019C212.899,504.266,235.854,512,260,512c0.668,0,1.334-0.013,2-0.024V512h207V150h25V45
			C494,20.187,473.813,0,449,0z M113,480.569C76.036,473.526,48,440.984,48,402s28.036-71.526,65-78.569V480.569z M194.73,446.056
			l-12.512,12.512l1.121,1.121c-10.945,10.504-24.854,17.929-40.339,20.88V323.431c36.964,7.043,65,39.585,65,78.569
			C208,418.27,203.106,433.412,194.73,446.056z M260,482c-16.069,0-31.414-4.708-44.463-13.469c0.809-1.062,1.601-2.136,2.372-3.227
			l108.269-108.269C335.158,370.193,340,385.722,340,402c0,21.368-8.321,41.458-23.432,56.568C301.457,473.678,281.368,482,260,482z
			 M215.537,335.469C228.586,326.708,243.931,322,260,322c16.278,0,31.807,4.842,44.965,13.822l-66.975,66.975
			c0.002-0.266,0.01-0.531,0.01-0.797C238,377.017,229.622,353.957,215.537,335.469z M439,482H335.492
			c0.771-0.729,1.536-1.466,2.289-2.219c13.501-13.5,23.055-29.894,28.095-47.781H439V482z M439,402h-69
			c0-29.382-11.442-57.006-32.219-77.781C317.005,303.442,289.382,292,260,292c-7.824,0-15.521,0.819-23,2.402V245
			c0-8.271,6.729-15,15-15h187V402z M439,200H252c-24.813,0-45,20.187-45,45v60.562c-4.523,2.494-8.882,5.316-13.048,8.457
			C175.563,300.199,152.722,292,128,292c-6.478,0-12.826,0.568-19,1.647V150h330V200z M464,120H84V45c0-8.271,6.729-15,15-15h350
			c8.271,0,15,6.729,15,15V120z"/>
		<rect x="289" y="60" width="30" height="30"/>
		<rect x="349" y="60" width="30" height="30"/>
		<rect x="409" y="60" width="30" height="30"/>
		<rect x="109" y="60" width="30" height="30"/>
		<rect x="169" y="60" width="30" height="30"/>
		<rect x="229" y="60" width="30" height="30"/>
    </symbol>

    <symbol id="advantages02" role="img" aria-labelledby="advantages02_title" viewBox="0 -5 512 512">
        <title id="advantages02_title"></title>
        <path d="m384.277344 81.214844c-78.453125 0-142.277344 63.824218-142.277344 142.277344v25.625c-6.640625 8.246093-12.40625 17.15625-17.347656 27.402343-3.929688-5.738281-8.503906-11.03125-13.652344-15.785156v-7.4375c0-61.804687-50.730469-112.082031-113.082031-112.082031-12.675781 0-25.371094-2.996094-36.707031-8.667969l-61.210938-30.605469v84.273438c0 57.894531 47.101562 105 105 105h93.238281c6.507813 8.648437 10.769531 18.9375 12.207031 30.003906-49.371093.300781-89.445312 40.554688-89.445312 89.996094 0 49.625 40.375 90 90 90h211c49.625 0 90-40.375 90-90s-40.375-90-90-90h-179.9375c3.179688-22.753906 13.492188-43.625 29.03125-60h105.90625c74.4375 0 135-60.5625 135-135v-126.214844l-48.328125 48.328125c-21.207031 21.207031-49.402344 32.886719-79.394531 32.886719zm0 30c20.042968 0 39.453125-4.125 57.261718-11.960938-31.34375 48.953125-78.625 85.84375-133.902343 104.269532-12.78125 4.261718-24.726563 10.242187-35.609375 17.726562 1.199218-60.878906 51.089844-110.035156 112.25-110.035156zm-204.121094 130.484375c-42.082031-17.125-80.523438-42.8125-112.269531-74.609375 9.769531 2.710937 19.902343 4.125 30.03125 4.125 41.824219 0 76.515625 30.699218 82.238281 70.484375zm-150.15625-55.484375v-15.710938c33.9375 39.027344 75.269531 69.546875 120.019531 90.710938h-45.019531c-41.355469 0-75-33.644532-75-75zm121 225c0-33.085938 26.914062-60 60-60h91v120h-91c-33.085938 0-60-26.917969-60-60zm331 0c0 33.082031-26.914062 60-60 60h-90v-120h90c33.085938 0 60 26.914062 60 60zm-105-180h-57.648438c63.441407-21.734375 117.296876-65.261719 151.824219-122.808594l10.824219-18.039062v35.847656c0 57.894531-47.101562 105-105 105zm0 0"/>
    </symbol>

    <symbol id="advantages03" role="img" aria-labelledby="advantages03_title" viewBox="0 0 512 512">
        <title id="advantages03_title"></title>
        <path d="M244.236,182.896c-17.533-17.534-46.066-17.536-63.601,0c-17.535,17.534-17.535,46.066,0,63.6
			c17.533,17.534,46.067,17.536,63.601,0C261.771,228.962,261.771,200.43,244.236,182.896z M223.036,225.296
			c-5.846,5.846-15.355,5.844-21.201,0c-5.859-5.86-5.858-15.341,0-21.2c5.858-5.858,15.342-5.859,21.201,0
			C228.881,209.942,228.881,219.452,223.036,225.296z"/>
		<path d="M265.436,331.299c-17.535-17.537-46.067-17.535-63.602,0c-17.533,17.534-17.533,46.066,0.001,63.601
			c17.533,17.533,46.066,17.534,63.601,0C282.971,377.366,282.971,348.834,265.436,331.299z M244.236,373.698
			c-5.845,5.845-15.357,5.845-21.2,0.001c-5.845-5.845-5.845-15.357-0.001-21.201c5.858-5.858,15.342-5.858,21.201,0
			C250.095,358.358,250.095,367.838,244.236,373.698z"/>
		<path d="M333.335,276.641c-0.915-8.228-8.327-14.161-16.554-13.243l-190.803,21.2c-8.228,0.914-14.158,8.326-13.244,16.554
			c0.914,8.228,8.324,14.158,16.554,13.244l190.803-21.2C328.319,292.281,334.25,284.87,333.335,276.641z"/>
		<path d="M466.084,192.74c27.758-37.072,27.777-88.472,0.074-125.573l41.463-41.549c5.847-5.86,5.838-15.352-0.023-21.2
			c-5.859-5.848-15.352-5.838-21.2,0.022l-41.409,41.496c-37.117-27.868-88.652-27.901-125.798-0.087l-30.435-30.435
			c-17.535-17.535-46.068-17.534-63.601,0L13.151,227.416c-17.535,17.534-17.535,46.066,0,63.6l37.107,37.107
			c-13.448,37.834-4.249,80.551,24.375,109.174c28.626,28.628,71.34,37.827,109.173,24.374l37.108,37.107
			c17.577,17.577,46.024,17.577,63.601,0L496.52,286.777c17.534-17.535,17.534-46.066,0-63.6L466.084,192.74z M475.32,265.578
			l-34.505,34.505c-0.188-3.568-1.628-7.082-4.353-9.807l-21.2-21.2c-5.852-5.853-15.345-5.854-21.2,0
			c-5.854,5.854-5.854,15.346,0,21.2l21.2,21.2c2.725,2.725,6.239,4.164,9.807,4.352L263.317,477.58
			c-5.857,5.857-15.342,5.859-21.201,0l-44.176-44.175c-4.488-4.489-11.313-5.661-17.038-2.938
			c-28.662,13.628-62.847,7.854-85.068-14.367c-22.221-22.221-27.996-56.409-14.367-85.069c2.724-5.728,1.547-12.552-2.938-17.038
			l-44.176-44.175c-5.845-5.845-5.845-15.356,0-21.2L200.164,82.804c-2.435,5.501-1.414,12.161,3.095,16.669l21.201,21.2
			c5.853,5.853,15.346,5.854,21.2,0c5.854-5.854,5.854-15.346,0-21.2l-21.201-21.2c-4.508-4.508-11.168-5.53-16.669-3.094
			l38.565-38.564c5.845-5.845,15.356-5.844,21.201,0l40.281,40.281c5.853,5.854,15.346,5.854,21.2,0
			c25.84-25.839,65.571-28.747,94.488-9.45l-21.822,21.867c-16.712-7.955-37.351-5.033-51.166,8.783
			c-17.535,17.534-17.535,46.066,0,63.601c17.533,17.533,46.066,17.534,63.601,0c13.823-13.823,16.74-34.474,8.771-51.19
			l21.763-21.808c19.001,28.76,16.241,68.322-9.634,94.198c-5.854,5.854-5.854,15.346,0,21.2l40.281,40.281
			C481.165,250.223,481.164,259.733,475.32,265.578z M392.939,140.494c-5.844,5.845-15.355,5.846-21.201,0
			c-5.859-5.86-5.859-15.341,0-21.201c5.858-5.856,15.342-5.857,21.201,0.001C398.798,125.154,398.798,134.634,392.939,140.494z"/>
		<path d="M309.26,163.073l-21.201-21.2c-5.853-5.853-15.346-5.854-21.2,0s-5.854,15.346,0,21.2l21.202,21.201
			c2.927,2.927,6.764,4.39,10.6,4.39s7.673-1.463,10.6-4.391C315.114,178.419,315.114,168.928,309.26,163.073z"/>
		<path d="M372.86,226.674l-21.2-21.2c-5.852-5.854-15.345-5.853-21.2,0c-5.854,5.854-5.854,15.346,0,21.2l21.2,21.2
			c5.853,5.854,15.345,5.854,21.2,0C378.715,242.02,378.715,232.529,372.86,226.674z"/>
    </symbol>

    <symbol id="advantages04" role="img" aria-labelledby="advantages04_title" viewBox="0 0 512 512">
        <title id="advantages04_title"></title>
        <path d="M492.522,118.3L266.433,3.743l-0.093-0.047c-10.068-5.012-22.029-4.9-32.002,0.3
			C233.553,4.328,19.617,117.874,18.896,118.338C7.24,124.44,0,136.398,0,149.559V362.44c0,13.161,7.24,25.118,18.896,31.221
			l215.345,114.292l0.097,0.051c5.086,2.652,10.691,3.981,16.297,3.981c5.385,0,10.772-1.226,15.705-3.682l226.182-114.604
			C504.539,387.69,512,375.618,512,362.18V149.82C512,136.381,504.538,124.309,492.522,118.3z M248.237,30.57
			c1.469-0.754,3.224-0.769,4.705-0.042l211.629,107.229l-82.365,41.006L175.308,69.276L248.237,30.57z M235.424,474.631
			L32.91,367.148l-0.097-0.051c-1.741-0.909-2.824-2.692-2.824-4.656V163.092l205.435,107.124V474.631z M250.577,244.295
			L46.272,137.76l97.024-51.493l205.875,108.945L250.577,244.295z M482.01,362.181c0,2.004-1.116,3.806-2.912,4.7L265.414,475.152
			V270.409l98.386-48.981v51.355c0,8.281,6.714,14.995,14.995,14.995s14.995-6.714,14.995-14.995v-66.285l88.22-43.92V362.181z"/>
		<path d="M181.277,294.419c-4.19-7.144-13.378-9.536-20.521-5.346l-46.437,27.244l-9.751-17.666
			c-4.002-7.25-13.125-9.884-20.374-5.882c-7.25,4.002-9.884,13.124-5.882,20.374l17.189,31.143c0.04,0.073,0.086,0.14,0.127,0.212
			c0.024,0.043,0.043,0.087,0.068,0.13c0.057,0.098,0.121,0.189,0.18,0.285c0.089,0.145,0.179,0.29,0.273,0.431
			c0.095,0.143,0.193,0.282,0.292,0.42c0.1,0.14,0.2,0.28,0.304,0.416c0.103,0.134,0.21,0.264,0.316,0.394
			c0.108,0.131,0.215,0.262,0.326,0.388c0.112,0.127,0.227,0.249,0.343,0.371c0.113,0.12,0.226,0.241,0.343,0.357
			c0.122,0.121,0.248,0.237,0.373,0.353c0.117,0.108,0.233,0.217,0.352,0.321c0.133,0.116,0.271,0.226,0.408,0.337
			c0.118,0.095,0.235,0.192,0.356,0.284c0.144,0.109,0.291,0.212,0.438,0.315c0.121,0.085,0.24,0.171,0.363,0.252
			c0.152,0.1,0.308,0.194,0.464,0.289c0.123,0.075,0.245,0.152,0.37,0.223c0.16,0.091,0.324,0.175,0.487,0.26
			c0.125,0.065,0.249,0.133,0.376,0.195c0.166,0.081,0.336,0.154,0.505,0.229c0.129,0.057,0.256,0.117,0.386,0.17
			c0.168,0.069,0.34,0.129,0.51,0.192c0.135,0.049,0.268,0.102,0.404,0.148c0.169,0.057,0.341,0.105,0.511,0.155
			c0.14,0.042,0.279,0.087,0.421,0.124c0.168,0.044,0.338,0.08,0.507,0.118c0.147,0.034,0.294,0.072,0.442,0.101
			c0.161,0.032,0.324,0.054,0.486,0.081c0.159,0.026,0.316,0.056,0.476,0.077c0.153,0.02,0.306,0.03,0.46,0.046
			c0.17,0.017,0.34,0.038,0.51,0.049c0.135,0.009,0.27,0.008,0.405,0.013c0.188,0.007,0.375,0.019,0.563,0.019
			c0.317,0,0.634-0.011,0.951-0.031c0.081-0.005,0.162-0.016,0.243-0.023c0.233-0.019,0.466-0.038,0.699-0.068
			c0.12-0.015,0.239-0.038,0.358-0.056c0.194-0.03,0.387-0.058,0.58-0.095c0.138-0.027,0.276-0.061,0.414-0.092
			c0.173-0.039,0.346-0.076,0.518-0.121c0.149-0.039,0.296-0.084,0.444-0.128c0.161-0.047,0.321-0.093,0.481-0.146
			c0.152-0.05,0.302-0.107,0.453-0.162c0.155-0.057,0.31-0.113,0.464-0.176c0.151-0.061,0.3-0.128,0.45-0.194
			c0.152-0.068,0.305-0.136,0.456-0.209c0.146-0.071,0.29-0.146,0.434-0.222c0.096-0.05,0.194-0.095,0.289-0.148
			c0.04-0.022,0.076-0.05,0.117-0.072c0.075-0.042,0.151-0.078,0.225-0.122l59.715-35.033
			C183.074,310.75,185.468,301.562,181.277,294.419z"/>
    </symbol>

    <symbol id="footer-facebook" role="img" aria-labelledby="footer-facebook_title" viewBox="0 0 512 512">
        <title id="footer-facebook_title">Facebook</title>
        <path d="M296.296,512H200.36V256h-64v-88.225l64-0.029l-0.104-51.976C200.256,43.794,219.773,0,304.556,0h70.588v88.242h-44.115
		c-33.016,0-34.604,12.328-34.604,35.342l-0.131,44.162h79.346l-9.354,88.225L296.36,256L296.296,512z"/>
    </symbol>

    <symbol id="footer-twitter" role="img" aria-labelledby="footer-twitter_title" viewBox="0 0 512.002 512.002">
        <title id="footer-twitter_title">Twitter</title>
        <path d="M512.002,97.211c-18.84,8.354-39.082,14.001-60.33,16.54c21.686-13,38.342-33.585,46.186-58.115
		c-20.299,12.039-42.777,20.78-66.705,25.49c-19.16-20.415-46.461-33.17-76.674-33.17c-58.011,0-105.042,47.029-105.042,105.039
		c0,8.233,0.929,16.25,2.72,23.939c-87.3-4.382-164.701-46.2-216.509-109.753c-9.042,15.514-14.223,33.558-14.223,52.809
		c0,36.444,18.544,68.596,46.73,87.433c-17.219-0.546-33.416-5.271-47.577-13.139c-0.01,0.438-0.01,0.878-0.01,1.321
		c0,50.894,36.209,93.348,84.261,103c-8.813,2.399-18.094,3.687-27.674,3.687c-6.769,0-13.349-0.66-19.764-1.888
		c13.368,41.73,52.16,72.104,98.126,72.949c-35.95,28.176-81.243,44.967-130.458,44.967c-8.479,0-16.84-0.496-25.058-1.471
		c46.486,29.807,101.701,47.197,161.021,47.197c193.211,0,298.868-160.062,298.868-298.872c0-4.554-0.104-9.084-0.305-13.59
		C480.111,136.775,497.92,118.275,512.002,97.211z"/>
    </symbol>

    <symbol id="footer-instagram" role="img" aria-labelledby="footer-instagram_title" viewBox="0 0 97.395 97.395">
        <title id="footer-instagram_title">Instagram</title>
        <path d="M12.501,0h72.393c6.875,0,12.5,5.09,12.5,12.5v72.395c0,7.41-5.625,12.5-12.5,12.5H12.501C5.624,97.395,0,92.305,0,84.895
		V12.5C0,5.09,5.624,0,12.501,0L12.501,0z M70.948,10.821c-2.412,0-4.383,1.972-4.383,4.385v10.495c0,2.412,1.971,4.385,4.383,4.385
		h11.008c2.412,0,4.385-1.973,4.385-4.385V15.206c0-2.413-1.973-4.385-4.385-4.385H70.948L70.948,10.821z M86.387,41.188h-8.572
		c0.811,2.648,1.25,5.453,1.25,8.355c0,16.2-13.556,29.332-30.275,29.332c-16.718,0-30.272-13.132-30.272-29.332
		c0-2.904,0.438-5.708,1.25-8.355h-8.945v41.141c0,2.129,1.742,3.872,3.872,3.872h67.822c2.13,0,3.872-1.742,3.872-3.872V41.188
		H86.387z M48.789,29.533c-10.802,0-19.56,8.485-19.56,18.953c0,10.468,8.758,18.953,19.56,18.953
		c10.803,0,19.562-8.485,19.562-18.953C68.351,38.018,59.593,29.533,48.789,29.533z"/>
    </symbol>

    <symbol id="footer-linkedin" role="img" aria-labelledby="footer-linkedin_title" viewBox="0 0 93.06 93.06">
        <title id="footer-linkedin_title">Linkedin</title>
        <path d="M11.185,0.08C5.004,0.08,0.001,5.092,0,11.259c0,6.173,5.003,11.184,11.186,11.184c6.166,0,11.176-5.011,11.176-11.184
			C22.362,5.091,17.351,0.08,11.185,0.08z"/>
		<rect x="1.538" y="30.926" width="19.287" height="62.054"/>
		<path d="M69.925,29.383c-9.382,0-15.673,5.144-18.248,10.022h-0.258v-8.479H32.921H32.92v62.053h19.27V62.281
			c0-8.093,1.541-15.932,11.575-15.932c9.89,0,10.022,9.256,10.022,16.451v30.178H93.06V58.942
			C93.06,42.235,89.455,29.383,69.925,29.383z"/>
    </symbol>

    <symbol id="footer-pinterest" role="img" aria-labelledby="footer-pinterest_title" viewBox="0 0 486.392 486.392">
        <title id="footer-pinterest_title">pPinterest</title>
		<path d="M430.149,135.248C416.865,39.125,321.076-9.818,218.873,1.642
				C138.071,10.701,57.512,76.03,54.168,169.447c-2.037,57.029,14.136,99.801,68.399,111.84
				c23.499-41.586-7.569-50.676-12.433-80.802C90.222,77.367,252.16-6.718,336.975,79.313c58.732,59.583,20.033,242.77-74.57,223.71
				c-90.621-18.179,44.383-164.005-27.937-192.611c-58.793-23.286-90.013,71.135-62.137,118.072
				c-16.355,80.711-51.557,156.709-37.3,257.909c46.207-33.561,61.802-97.734,74.57-164.704
				c23.225,14.136,35.659,28.758,65.268,31.038C384.064,361.207,445.136,243.713,430.149,135.248z"/>
    </symbol>

    <symbol id="footer-google" role="img" aria-labelledby="footer-google_title" viewBox="0 90 320 320">
        <title id="footer-google_title">Google</title>
		<path d="M160,224v64h90.528c-13.216,37.248-48.8,64-90.528,64c-52.928,0-96-43.072-96-96c0-52.928,43.072-96,96-96
			c22.944,0,45.024,8.224,62.176,23.168l42.048-48.256C235.424,109.824,198.432,96,160,96C71.776,96,0,167.776,0,256
			s71.776,160,160,160s160-71.776,160-160v-32H160z"/>
    </symbol>

    <symbol id="footer-phone" role="img" aria-labelledby="footer-phone_title" viewBox="0 0 504.375 504.375">
        <title id="footer-phone_title"></title>
        <path d="M443.292,157.799l29.392-12.656c-4.539-10.491-9.81-20.65-15.776-30.4l-27.296,16.704
			C434.791,139.895,439.363,148.701,443.292,157.799z"/>
		<path d="M412.332,107.239l24.64-20.4c-7.294-8.803-15.208-17.075-23.68-24.752l-21.488,23.776
			C399.142,92.495,406.002,99.638,412.332,107.239z"/>
		<path d="M483.948,177.527l-30.896,8.304c29.815,111.067-36.053,225.274-147.12,255.088c-17.533,4.707-35.606,7.1-53.76,7.12
			c-31.242-0.006-62.073-7.119-90.16-20.8l-5.936-2.864l-90.928,31.328l19.584-92.192l-3.904-5.68
			C15.804,263.13,39.862,133.648,134.563,68.624c70.356-48.308,163.081-48.736,233.88-1.081l17.904-26.528
			C276.438-33.072,127.279-4.032,53.192,105.878c-53.686,79.645-54.717,183.627-2.62,264.32l-28.48,134.176l132.08-45.472
			c30.788,13.948,64.201,21.154,98,21.136c132.654-0.105,240.107-107.728,240.002-240.382
			C492.157,218.676,489.391,197.788,483.948,177.527z"/>
		<path d="M256.06,168.279l-79.2-79.2l-45.264,45.264c-31.188,31.264-31.188,81.872,0,113.136l113.152,113.12
			c31.24,31.231,81.88,31.231,113.12,0l45.28-45.248l-79.216-79.184l-22.624,22.624c-6.248,6.246-16.376,6.246-22.624,0
			l-45.264-45.264c-6.246-6.248-6.246-16.376,0-22.624L256.06,168.279z M256.06,281.415c18.744,18.738,49.128,18.738,67.872,0
			l33.936,33.936l-22.624,22.624c-18.993,18.127-48.879,18.127-67.872,0L154.22,224.855c-18.705-18.764-18.705-49.124,0-67.888
			l22.64-22.624l33.936,33.936c-18.738,18.744-18.738,49.128,0,67.872L256.06,281.415z"/>
    </symbol>

    <symbol id="footer-fax" role="img" aria-labelledby="footer-fax_title" viewBox="0 0 512 512">
        <title id="footer-fax_title"></title>
        <path d="M464,128h-64c-26.51,0-48,21.49-48,48v16h-32V0H137.376L32,105.376V192H0v256c0,35.346,28.654,64,64,64h400
			c26.51,0,48-21.49,48-48V176C512,149.49,490.51,128,464,128z M128,54.624V96H86.624L128,54.624z M64,128h96V32h128v160H64V128z
			 M352,480H64c-17.673,0-32-14.327-32-32V224h320V480z M480,464c0,8.837-7.163,16-16,16h-80V176c0-8.837,7.163-16,16-16h64
			c8.837,0,16,7.163,16,16V464z"/>
		<rect x="80" y="256" width="224" height="32"/>
		<rect x="80" y="320" width="32" height="32"/>
		<rect x="144" y="320" width="32" height="32"/>
		<rect x="208" y="320" width="32" height="32"/>
		<rect x="272" y="320" width="32" height="32"/>
		<rect x="80" y="384" width="32" height="32"/>
		<rect x="144" y="384" width="32" height="32"/>
		<rect x="208" y="384" width="32" height="32"/>
		<rect x="272" y="384" width="32" height="32"/>
    </symbol>

	<symbol id="footer-mail" role="img" aria-labelledby="footer-mail_title" viewBox="0 0 512 512">
        <title id="footer-mail_title"></title>
        <path d="M368,34.072v32h75.2L256,190.872L68.8,66.072H208v-32H0v320h112v123.856l212.336-123.856H512v-320H368z M32,79.96
			l125.504,83.712L32,297.592V79.96z M315.664,322.072L144,422.216V322.072H52.912L184.48,181.624L256,229.272l71.52-47.68
			l131.568,140.48H315.664z M480,297.592l-125.504-133.92L480,79.96V297.592z"/>
		<rect x="304" y="34.072" width="32" height="32"/>
		<rect x="240" y="34.072" width="32" height="32"/>
    </symbol>

    <symbol id="footer-location" role="img" aria-labelledby="footer-location_title" viewBox="0 0 496.261 496.261">
        <title id="footer-location_title"></title>
        <path d="M248.118,79.989c-61.856,0-112,50.144-112,112s50.144,112,112,112s112-50.144,112-112
			C360.047,130.162,309.944,80.059,248.118,79.989z M248.118,271.989c-44.183,0-80-35.817-80-80s35.817-80,80-80s80,35.817,80,80
			C328.065,236.15,292.279,271.936,248.118,271.989z"/>
		<path d="M404.47,157.861l31.296-6.768c-2.479-11.382-5.987-22.516-10.48-33.264l-29.52,12.368
			C399.515,139.129,402.429,148.39,404.47,157.861z"/>
		<path d="M440.006,185.669l-32,1.024c0,1.76,0,3.536,0,5.296c-0.064,66.875-41.689,126.664-104.384,149.936l-5.488,2.016
			l-50.016,87.776l-50.128-87.728l-5.488-2.016c-82.839-30.76-125.057-122.85-94.297-205.689s122.85-125.057,205.689-94.297
			c13.691,5.084,26.622,12.018,38.432,20.61l18.832-25.808C275.429-25.62,155.341-6.716,92.932,79.012
			s-43.505,205.817,42.224,268.226c12.618,9.186,26.309,16.799,40.771,22.671l72.192,126.352l72.192-126.4
			c72.367-29.44,119.722-99.746,119.808-177.872C440.118,189.877,440.118,187.765,440.006,185.669z"/>
		<path d="M408.966,87.029c-6.389-9.73-13.634-18.87-21.648-27.312l-23.184,22.032c6.691,7.04,12.732,14.671,18.048,22.8
			L408.966,87.029z"/>
    </symbol>

    <symbol id="link-arrow" role="img" aria-labelledby="link-arrow_title" viewBox="0 0 512 512">
        <title id="link-arrow_title"></title>
        <path d="M256,0C114.615,0,0,114.615,0,256s114.615,256,256,256s256-114.615,256-256C511.833,114.685,397.315,0.167,256,0z
			 M256,480C132.288,480,32,379.712,32,256S132.288,32,256,32s224,100.288,224,224C479.868,379.657,379.657,479.868,256,480z"/>
		<polygon points="126.88,256 208,256 208,224 196.336,224 256,154.24 315.664,224 240,224 240,288 272,288 272,256 385.12,256 
			256,104.992 			"/>
		<rect x="240" y="384" width="32" height="32"/>
		<rect x="240" y="320" width="32" height="32"/>
    </symbol>

</svg>