<svg xmlns="http://www.w3.org/2000/svg" xmlns:xlink="http://www.w3.org/1999/xlink">

	<symbol id="services01" role="img" aria-labelledby="services01_title" viewBox="0 0 64 64">
        <title id="services01_title"></title>
        <rect x="14" y="5" width="2" height="2"/>
        <rect x="18" y="5" width="2" height="2"/>
        <rect x="22" y="5" width="2" height="2"/>
        <path d="M57,6H54V5a3,3,0,0,0-3-3H13a3,3,0,0,0-3,3V6H7a5.006,5.006,0,0,0-5,5V43a5.006,5.006,0,0,0,5,5H24v6H14a4,4,0,0,0,0,8H50a4,4,0,0,0,0-8H40V48H57a5.006,5.006,0,0,0,5-5V11A5.006,5.006,0,0,0,57,6ZM48,20H45a1,1,0,0,0,0,2h3v2H45a1,1,0,0,0,0,2h3v2H45a1,1,0,0,0,0,2h3v2H45a1,1,0,0,0,0,2h3v2H45a1,1,0,0,0,0,2h3v2H40V18h8Zm2-3a1,1,0,0,0-1-1H39a1,1,0,0,0-1,1V40H36V21a.992.992,0,0,0-.1-.412c0-.011,0-.024-.008-.035l-3-6a1.042,1.042,0,0,0-1.79,0l-3,6c0,.011,0,.024-.008.035A.992.992,0,0,0,28,21V40H23.1l.84-9.243A1.993,1.993,0,0,0,25,29V28a2,2,0,0,0-1.176-1.818A4.951,4.951,0,0,0,25,23c0-2.31-1.844-7.717-2.055-8.327a1,1,0,0,0-1.639-.393C19.826,15.708,15,20.556,15,23a4.951,4.951,0,0,0,1.176,3.182A2,2,0,0,0,15,28v1a1.993,1.993,0,0,0,1.065,1.757L16.905,40H12V10H52V40H50ZM30,40V23.414l1,1V40Zm2-17.414L30.217,20.8,32,17.236,33.783,20.8Zm1,1.828,1-1V40H33ZM17,23c0-.919,2.19-3.694,4.557-6.143A29.441,29.441,0,0,1,23,23a3,3,0,0,1-6,0Zm0,5h6v1H17ZM18.1,31h3.81l-.818,9H18.913ZM10,40H8V12h2ZM54,12h2V40H54ZM12,5a1,1,0,0,1,1-1H51a1,1,0,0,1,1,1V8H12ZM52,58a2,2,0,0,1-2,2H14a2,2,0,0,1,0-4H50A2,2,0,0,1,52,58ZM38,54H26V48H38ZM60,43a3,3,0,0,1-3,3H7a3,3,0,0,1-3-3V11A3,3,0,0,1,7,8h3v2H7a1,1,0,0,0-1,1V41a1,1,0,0,0,1,1H57a1,1,0,0,0,1-1V11a1,1,0,0,0-1-1H54V8h3a3,3,0,0,1,3,3Z"/>
    </symbol>

    <symbol id="services02" role="img" aria-labelledby="services02_title" viewBox="0 0 64 64">
        <title id="services02_title"></title>
        <path d="M62,19a7,7,0,0,0-13.92-1H12V62H55.21A6.8,6.8,0,0,0,62,55.206ZM50,19a5,5,0,0,1,10,0v31.1a6.991,6.991,0,0,0-10,0Zm5.21,41H14V20H48V55a1,1,0,0,0,2,0,5,5,0,0,1,10,0v.21A4.8,4.8,0,0,1,55.21,60Z"/>
        <path d="M2,2V16H46V2ZM44,14H4V4H7V8H9V4h2V6h2V4h2V8h2V4h2V6h2V4h2V8h2V4h2V6h2V4h2V8h2V4h2V6h2V4h2V8h2V4h3Z"/>
        <path d="M6,18a4,4,0,0,0-4,4V55a1,1,0,0,0,.1.447l3,6a1,1,0,0,0,1.79,0l3-6A1,1,0,0,0,10,55V22A4,4,0,0,0,6,18ZM7,52.465V30H8V53.132ZM8,28H4V26H8ZM4,30H5V52.465l-1,.667Zm0-8a2,2,0,0,1,4,0v2H4ZM6,58.764,4.289,55.342,6,54.2l1.711,1.14Z"/>
        <path d="M30,26V36H24v2h6v8h8V44H32V28H42V52H25.92A7,7,0,0,0,20,46.08V28h4V26H18V54H44V26ZM20,52V48.1A5.016,5.016,0,0,1,23.9,52Z"/>
    </symbol>

    <symbol id="services03" role="img" aria-labelledby="services03_title" viewBox="0 0 64 64">
        <title id="services03_title"></title>
        <path d="m45 27h-8a1 1 0 0 0 -1 1v1a1 1 0 0 1 -1 1h-6a1 1 0 0 1 -1-1v-1a1 1 0 0 0 -1-1h-8a1 1 0 0 0 0 2h7a3 3 0 0 0 3 3h6a3 3 0 0 0 3-3h7a1 1 0 0 0 0-2z"/><path d="m54.956 26.1a22.873 22.873 0 0 0 -16.976-21.293 2.994 2.994 0 0 0 -2.98-2.807h-6a2.994 2.994 0 0 0 -2.981 2.815 22.822 22.822 0 0 0 -16.981 21.285 5.005 5.005 0 0 0 -4.038 4.9v2a3 3 0 0 0 3 3h1v7a1 1 0 0 0 1 1h5.744a16.969 16.969 0 0 0 1.224 2.958l-4.056 4.065a1 1 0 0 0 0 1.414l5.65 5.65a1 1 0 0 0 1.414 0l4.065-4.056a16.969 16.969 0 0 0 2.959 1.225v5.744a1 1 0 0 0 1 1h8a1 1 0 0 0 1-1v-5.744a16.682 16.682 0 0 0 2.952-1.232l4.071 4.064a1 1 0 0 0 1.414 0l5.65-5.65a1 1 0 0 0 0-1.414l-4.063-4.071a16.678 16.678 0 0 0 1.232-2.953h5.744a1 1 0 0 0 1-1v-7h1a3 3 0 0 0 3-3v-2a5.005 5.005 0 0 0 -4.044-4.9zm-1.956 15.9h-5.5a1 1 0 0 0 -.968.75 14.651 14.651 0 0 1 -1.61 3.857 1 1 0 0 0 .15 1.22l3.894 3.9-4.237 4.237-3.9-3.894a1 1 0 0 0 -1.221-.15 14.617 14.617 0 0 1 -3.856 1.61 1 1 0 0 0 -.752.97v5.5h-6v-5.5a1 1 0 0 0 -.75-.968 14.979 14.979 0 0 1 -3.872-1.6 1 1 0 0 0 -1.214.153l-3.893 3.884-4.237-4.237 3.884-3.893a1 1 0 0 0 .153-1.214 14.979 14.979 0 0 1 -1.6-3.872 1 1 0 0 0 -.971-.753h-5.5v-6h11.477a10 10 0 1 0 19.046 0h11.477zm-13.6-6a8 8 0 1 1 -14.8 0zm17.6-3a1 1 0 0 1 -1 1h-48a1 1 0 0 1 -1-1v-2a3 3 0 0 1 2-2.816v2.816a1 1 0 0 0 2 0v-4a20.855 20.855 0 0 1 15-20.107v13.107a1 1 0 0 0 2 0v-15a1 1 0 0 1 1-1h6a1 1 0 0 1 1 1v15a1 1 0 0 0 2 0v-13.12a20.963 20.963 0 0 1 15 20.12v4a1 1 0 0 0 2 0v-2.816a3 3 0 0 1 2 2.816z"/>
        <path d="m41 18a1 1 0 0 0 1-1v-6a1 1 0 0 0 -2 0v6a1 1 0 0 0 1 1z"/>
        <path d="m23 18a1 1 0 0 0 1-1v-6a1 1 0 0 0 -2 0v6a1 1 0 0 0 1 1z"/>
        <path d="m50 27h-1a1 1 0 0 0 0 2h1a1 1 0 0 0 0-2z"/>
        <path d="m15 27h-1a1 1 0 0 0 0 2h1a1 1 0 0 0 0-2z"/>
        <path d="m13 38h2v2h-2z"/>
        <path d="m18.272 50.728h2v2h-2z" transform="matrix(.707 -.707 .707 .707 -30.933 28.778)"/>
        <path d="m31 56h2v2h-2z"/>
        <path d="m43.728 50.728h2v2h-2z" transform="matrix(.707 -.707 .707 .707 -23.477 46.778)"/>
        <path d="m49 38h2v2h-2z"/>
    </symbol>

    <symbol id="footer-facebook" role="img" aria-labelledby="footer-facebook_title" viewBox="0 0 512 512">
        <title id="footer-facebook_title">Facebook</title>
        <path d="M314.829,135.492h70.595c11.423,0,20.682-9.26,20.682-20.682V20.682C406.107,9.26,396.848,0,385.425,0h-70.595
            c-76.282,0-138.341,62.06-138.341,138.341v49.913h-49.913c-11.422,0-20.682,9.26-20.682,20.682v94.127
            c0,11.423,9.26,20.682,20.682,20.682h49.913v167.572c0,11.423,9.26,20.682,20.682,20.682h94.127
            c11.423,0,20.682-9.259,20.682-20.682V323.746h49.913c9.49,0,17.763-6.458,20.065-15.666l23.532-94.127
            c1.544-6.179,0.156-12.725-3.763-17.744c-3.919-5.02-9.932-7.954-16.301-7.954H311.98v-49.913
            C311.98,136.77,313.258,135.492,314.829,135.492z M291.298,229.619h67.637l-13.191,52.763h-54.447
            c-11.423,0-20.682,9.259-20.682,20.682v167.572h-52.763V303.064c0-11.423-9.26-20.682-20.682-20.682h-49.913v-52.763h49.913
            c11.422,0,20.682-9.26,20.682-20.682v-70.595c0-53.473,43.503-96.977,96.977-96.977h49.913v52.763h-49.913
            c-24.38,0-44.214,19.835-44.214,44.214v70.595C270.615,220.359,279.875,229.619,291.298,229.619z"/>
    </symbol>

    <symbol id="footer-twitter" role="img" aria-labelledby="footer-twitter_title" viewBox="0 0 512 512">
        <title id="footer-twitter_title">Twitter</title>
        <path d="M502.954,47.189c-7.126-4.852-16.515-4.774-23.559,0.196c-15.351,10.828-31.974,19.528-49.557,25.948
            c-19.253-17.414-43.615-27.826-69.915-29.656c-31.056-2.16-61.081,7.9-84.561,28.326c-25.59,22.259-40.174,54.444-40.046,88.349
            c-85.248-7.609-139.14-61.55-177.09-108.986c-4.598-5.746-11.901-8.619-19.182-7.538c-7.279,1.078-13.438,5.944-16.171,12.777
            c-0.948,2.369-23.141,58.799-17.453,127.057c4.761,57.133,30.23,131.964,120.039,181.717
            c-32.436,14.756-68.282,21.939-103.953,20.519c-9.576-0.378-18.15,5.859-20.736,15.08c-2.587,9.221,1.497,19.013,9.869,23.665
            c51.359,28.532,108.03,43.736,163.889,43.965c0.432,0.002,0.861,0.003,1.294,0.003c54.105-0.001,106.379-13.938,151.246-40.336
            c42.898-25.241,78.416-61.759,102.715-105.603c26.162-47.206,39.427-101.75,39.427-162.186c-0.011-3.544-0.186-7.098-0.52-10.638
            c20.7-22.885,35.388-50.567,42.719-80.667C513.451,60.803,510.081,52.04,502.954,47.189z M432.297,128.07
            c-4.916,4.847-7.088,11.827-5.793,18.607c0.877,4.588,1.329,9.278,1.344,13.874c0,101.956-44.378,186.544-121.756,232.072
            c-60.586,35.649-133.037,43.933-203.609,25.057c0.729-0.201,1.459-0.407,2.185-0.615c27.596-7.885,53.63-20.055,77.377-36.174
            c6.329-4.296,9.77-11.734,8.946-19.34c-0.825-7.605-5.778-14.134-12.881-16.975C97.757,312.434,53.563,257.594,46.757,181.575
            c-2.536-28.334,0.707-54.721,4.766-74.501c16.638,17.909,37.384,37.227,62.129,53.407c42.771,27.966,90.663,42.146,142.346,42.146
            c11.423,0,20.682-9.26,20.682-20.682v-21.393c0-0.045,0-0.091,0-0.137c-0.146-21.948,9.268-42.797,25.829-57.202
            c15.146-13.175,34.51-19.665,54.543-18.27c20.026,1.393,38.311,10.502,51.487,25.648c5.339,6.138,13.783,8.577,21.567,6.229
            c5.725-1.724,11.375-3.645,16.941-5.757C442.599,117.081,437.672,122.769,432.297,128.07z"/>
    </symbol>    

    <symbol id="footer-linkedin" role="img" aria-labelledby="footer-linkedin_title" viewBox="0 0 512 512">
        <title id="footer-linkedin_title">Houzz</title>
        <path d="M475.3,207.8l-312.6-97.9V21.6c0-10.3-8.4-18.6-18.6-18.6H42.3C32,3,23.7,11.4,23.7,21.6v469.1c0,10.3,8.4,18.6,18.6,18.6
			h162.8c10.3,0,18.6-8.4,18.6-18.6V366.6h64.5v124.1c0,10.3,8.4,18.6,18.6,18.6h162.8c10.3,0,18.6-8.4,18.6-18.6V225.6
			C488.3,217.4,483.1,210.2,475.3,207.8z M138.5,141.4L451,239.3v232.8H325.5V347.9c0-10.3-8.4-18.6-18.6-18.6H205.1
			c-10.3,0-18.6,8.4-18.6,18.6v124.1H60.9V40.3h64.5v83.3C125.4,131.8,130.7,138.9,138.5,141.4z"/>
    </symbol>

    <symbol id="footer-instagram" role="img" aria-labelledby="footer-instagram_title" viewBox="0 0 512 512">
        <title id="footer-instagram_title">Instagram</title>
        <path d="M373.659,0H138.341C62.06,0,0,62.06,0,138.341v235.318C0,449.94,62.06,512,138.341,512h235.318
            C449.94,512,512,449.94,512,373.659V138.341C512,62.06,449.94,0,373.659,0z M470.636,373.659
            c0,53.473-43.503,96.977-96.977,96.977H138.341c-53.473,0-96.977-43.503-96.977-96.977V138.341
            c0-53.473,43.503-96.977,96.977-96.977h235.318c53.473,0,96.977,43.503,96.977,96.977V373.659z"/>
        <path d="M370.586,238.141c-3.64-24.547-14.839-46.795-32.386-64.342c-17.547-17.546-39.795-28.746-64.341-32.385
            c-11.176-1.657-22.507-1.657-33.682,0c-30.336,4.499-57.103,20.541-75.372,45.172c-18.269,24.631-25.854,54.903-21.355,85.237
            c4.499,30.335,20.541,57.102,45.172,75.372c19.996,14.831,43.706,22.619,68.153,22.619c5.667,0,11.375-0.418,17.083-1.265
            c30.336-4.499,57.103-20.541,75.372-45.172C367.5,298.747,375.085,268.476,370.586,238.141z M267.791,327.632
            c-19.405,2.882-38.77-1.973-54.527-13.66c-15.757-11.687-26.019-28.811-28.896-48.216c-2.878-19.405,1.973-38.77,13.66-54.527
            c11.688-15.757,28.811-26.019,48.217-28.897c3.574-0.53,7.173-0.795,10.772-0.795s7.199,0.265,10.773,0.796
            c32.231,4.779,57.098,29.645,61.878,61.877C335.608,284.268,307.851,321.692,267.791,327.632z"/>
        <path d="M400.049,111.951c-3.852-3.851-9.183-6.058-14.625-6.058c-5.442,0-10.773,2.206-14.625,6.058
            c-3.851,3.852-6.058,9.174-6.058,14.625c0,5.451,2.207,10.773,6.058,14.625c3.852,3.851,9.183,6.058,14.625,6.058
            c5.442,0,10.773-2.206,14.625-6.058c3.851-3.852,6.058-9.183,6.058-14.625C406.107,121.133,403.9,115.802,400.049,111.951z"/>
    </symbol>

    <symbol id="footer-phone" role="img" aria-labelledby="footer-phone_title" viewBox="0 0 512 512">
        <title id="footer-phone_title"></title>
        <path d="M421.216,195.504c-5.092-26.101-17.723-49.836-36.526-68.64c-18.804-18.803-42.54-31.434-68.641-36.527
			c-11.21-2.189-22.073,5.128-24.261,16.339c-2.187,11.212,5.128,22.073,16.339,24.26c36.847,7.188,65.3,35.642,72.489,72.489
			c1.927,9.874,10.581,16.726,20.278,16.726c1.313,0,2.645-0.125,3.984-0.387C416.088,217.577,423.403,206.715,421.216,195.504z"/>
		<path d="M511.422,196.929c-5.629-50.096-28.373-97.304-64.042-132.927C411.712,28.378,364.475,5.694,314.371,0.128
			c-11.355-1.261-21.578,6.92-22.839,18.272c-1.261,11.353,6.919,21.578,18.272,22.84c84.961,9.438,150.966,75.36,160.512,160.31
			c1.188,10.566,10.139,18.374,20.527,18.374c0.771,0,1.552-0.043,2.336-0.131C504.53,218.516,512.698,208.281,511.422,196.929z"/>
		<path d="M432.59,312.566c-0.062-0.008-0.124-0.017-0.186-0.025c-20.013-2.639-39.751-7.557-58.619-14.596
			c-23.91-8.99-51.103-3.191-69.27,14.772c-0.028,0.028-0.056,0.055-0.083,0.083l-17.148,17.148
			c-42.633-26.924-78.756-63.047-105.679-105.679l17.149-17.149c0.027-0.028,0.054-0.055,0.082-0.083
			c17.964-18.166,23.762-45.356,14.79-69.223c-7.057-18.914-11.974-38.653-14.614-58.666c-0.007-0.063-0.017-0.127-0.026-0.19
			c-4.591-32.478-32.782-56.734-65.548-56.467H66.053c-1.943,0.002-3.912,0.091-5.853,0.267
			C24.143,26.016-2.541,58.001,0.718,94.058c0.01,0.108,0.02,0.215,0.032,0.323c7.684,72.354,32.649,142.88,72.197,203.955
			c35.892,56.461,84.701,105.269,141.162,141.164c60.792,39.406,130.99,64.369,203.013,72.196c0.127,0.015,0.254,0.027,0.38,0.038
			c1.961,0.176,3.949,0.266,5.921,0.266c0.083,0,0.165,0,0.247,0.001c36.204-0.148,65.538-29.722,65.391-65.841v-67.233
			C489.746,345.714,465.515,317.211,432.59,312.566z M447.698,378.695v67.548c0.055,13.396-10.8,24.338-24.19,24.393
			c-0.715-0.004-1.425-0.027-2.135-0.086c-65.578-7.161-129.488-29.914-184.837-65.808c-0.053-0.035-0.107-0.069-0.161-0.103
			c-51.429-32.68-95.885-77.137-128.565-128.565c-0.032-0.051-0.064-0.101-0.097-0.153C71.683,220.306,48.928,156.086,41.902,90.193
			C40.779,76.91,50.63,65.155,63.923,63.954c0.717-0.064,1.443-0.098,2.145-0.098h67.463c0.146-0.001,0.294-0.003,0.443-0.002
			c12.021,0,22.322,8.905,24.044,20.819c3.05,23.063,8.721,45.806,16.871,67.649c3.319,8.832,1.189,18.869-5.427,25.591
			l-28.517,28.517c-6.583,6.582-7.956,16.753-3.354,24.847c33.837,59.508,83.177,108.847,142.685,142.685
			c8.094,4.6,18.264,3.23,24.848-3.355l28.512-28.512c6.72-6.621,16.765-8.752,25.642-5.415
			c21.799,8.134,44.547,13.805,67.61,16.855c12.18,1.757,21.122,12.339,20.816,24.647
			C447.7,378.353,447.698,378.524,447.698,378.695z"/>
    </symbol>    

	<symbol id="footer-mail" role="img" aria-labelledby="footer-mail_title" viewBox="0 0 512 512">
        <title id="footer-mail_title"></title>
        <path d="M256,141.176c-63.306,0-114.809,51.503-114.809,114.809S192.694,370.795,256,370.795s114.809-51.503,114.809-114.809
			S319.306,141.176,256,141.176z M256,329.43c-40.498,0-73.445-32.947-73.445-73.445c0-40.498,32.947-73.445,73.445-73.445
			c40.499,0,73.445,32.947,73.445,73.445C329.445,296.483,296.499,329.43,256,329.43z"/>
		<path d="M437.008,74.97C388.656,26.623,324.375,0,256,0c-0.005,0-0.013,0-0.017,0C187.603,0.004,123.318,26.637,74.97,74.992
			C26.62,123.347-0.005,187.637,0,256.017c0.004,68.379,26.637,132.666,74.992,181.014C123.344,485.377,187.625,512.001,256,512
			c0.004,0,0.012,0,0.017,0c55.945-0.004,111.216-18.738,155.631-52.752c9.07-6.945,10.792-19.927,3.846-28.995
			c-6.945-9.069-19.926-10.794-28.995-3.846c-37.24,28.518-83.58,44.224-130.486,44.228c-0.006,0-0.006,0-0.014,0
			c-57.324,0-111.224-22.324-151.761-62.856c-40.542-40.536-62.871-94.435-62.875-151.766
			C41.357,137.663,137.636,41.372,255.986,41.364c0.007,0,0.006,0,0.014,0c118.34,0,214.628,96.279,214.636,214.622v23.532
			c0,27.523-22.39,49.913-49.913,49.913c-27.523,0-49.913-22.391-49.913-49.913v-23.532c0-11.422-9.259-20.682-20.682-20.682
			s-20.682,9.26-20.682,20.682v23.532c0,50.33,40.947,91.278,91.278,91.278S512,329.848,512,279.518v-23.534
			C511.995,187.604,485.362,123.318,437.008,74.97z"/>
    </symbol>

    <symbol id="footer-location" role="img" aria-labelledby="footer-location_title" viewBox="0 0 512 512">
        <title id="footer-location_title"></title>
        <path d="M406.766,62.449C366.495,22.178,312.951,0,256,0S145.505,22.178,105.234,62.449
			c-40.272,40.271-62.449,93.814-62.449,150.766c0,37.656,10.972,76.863,32.609,116.532c16.825,30.846,40.15,62.102,69.326,92.898
			c49.17,51.903,97.763,84.519,99.808,85.881C248.001,510.842,252,512,256,512c4,0,7.999-1.158,11.473-3.474
			c2.045-1.363,50.638-33.978,99.808-85.881c29.176-30.795,52.501-62.051,69.326-92.898c21.637-39.669,32.609-78.876,32.609-116.532
			C469.215,156.263,447.038,102.72,406.766,62.449z M256.001,465.903C215.826,436.156,84.15,329.739,84.15,213.215
			c0-94.759,77.091-171.851,171.85-171.851s171.85,77.092,171.851,171.851C427.851,329.748,296.159,436.168,256.001,465.903z"/>
		<path d="M256,128.355c-46.791,0-84.86,38.068-84.86,84.86c0,46.791,38.068,84.86,84.86,84.86c46.792,0,84.861-38.068,84.86-84.86
			C340.86,166.423,302.791,128.355,256,128.355z M256,256.71c-23.983,0-43.495-19.512-43.495-43.495
			c0-23.983,19.512-43.495,43.495-43.495c23.984,0,43.495,19.512,43.495,43.495C299.495,237.198,279.984,256.71,256,256.71z"/>
		</symbol>

	<symbol id="footer-time" role="img" aria-labelledby="footer-time_title" viewBox="0 0 512 512">
        <title id="footer-time_title"></title>
        <path d="M437.019,74.981C388.667,26.629,324.38,0,256,0S123.333,26.63,74.981,74.981S0,187.62,0,256
			s26.629,132.667,74.981,181.019C123.332,485.371,187.62,512,256,512s132.667-26.629,181.019-74.981
			C485.371,388.667,512,324.38,512,256S485.371,123.332,437.019,74.981z M256,470.636C137.65,470.636,41.364,374.35,41.364,256
			S137.65,41.364,256,41.364S470.636,137.65,470.636,256S374.35,470.636,256,470.636z"/>
		<path d="M341.221,311.97l-64.538-64.537V114.809c0-11.422-9.259-20.682-20.682-20.682c-11.422,0-20.682,9.26-20.682,20.682V256
			c0,5.486,2.179,10.746,6.058,14.625l70.594,70.595c4.038,4.039,9.332,6.058,14.625,6.058c5.293,0,10.586-2.019,14.626-6.058
			C349.297,333.142,349.297,320.047,341.221,311.97z"/>
	</symbol>

</svg>