<svg xmlns="http://www.w3.org/2000/svg" xmlns:xlink="http://www.w3.org/1999/xlink">

	<symbol id="approach01" role="img" aria-labelledby="approach01_title" viewBox="0 0 512 512">
        <title id="approach01_title"></title>
        <path d="m332 257h40c0 63.960938-52.035156 116-116 116s-116-52.039062-116-116h40c0 41.90625 34.09375 76 76 76s76-34.09375 76-76zm154.480469-3.222656-11.230469 3.222656h-3.25v.933594l-61.96875 17.785156-2.449219 11.835938c-3.914062 18.90625-11.363281 36.816406-22.140625 53.230468l-6.753906 10.289063 31.640625 54.960937-4.292969 4.292969-54.960937-31.644531-10.289063 6.753906c-16.414062 10.777344-34.324218 18.226562-53.230468 22.140625l-12.097657 2.507813-16.46875 61.914062h-5.976562l-16.46875-61.914062-12.097657-2.503907c-18.910156-3.914062-36.816406-11.363281-53.234374-22.140625l-10.289063-6.753906-54.960937 31.640625-4.292969-4.292969 31.644531-54.957031-6.753906-10.289063c-10.777344-16.417968-18.226563-34.324218-22.140625-53.234374l-2.449219-11.832032-61.96875-17.789062v-.933594h-3.25l-11.230469-3.222656-.925781 3.222656h-24.59375v31.066406l68.125 19.554688c4.253906 15.488281 10.433594 30.367187 18.460938 44.449218l-34.875 60.574219 47.644531 47.644531 60.574219-34.875c14.003906 7.984376 28.792968 14.136719 44.191406 18.390626l18.140625 68.195312h67.476562l18.140625-68.195312c15.398438-4.253907 30.1875-10.40625 44.191406-18.390626l60.574219 34.875 47.644531-47.644531-34.875-60.574219c8.027344-14.082031 14.207032-28.960937 18.460938-44.449218l68.125-19.554688v-31.066406h-24.59375zm-446.480469-36.777344h-40c0-36.734375 20.183594-68.839844 50.039062-85.824219-6.335937-9.511719-10.039062-20.917969-10.039062-33.175781 0-33.085938 26.914062-60 60-60s60 26.914062 60 60c0 12.703125-3.980469 24.492188-10.742188 34.203125 5.839844 3.480469 11.3125 7.570313 16.332032 12.210937 9.902344-12.3125 22.265625-22.566406 36.335937-30.011718-9.945312-12.089844-15.925781-27.5625-15.925781-44.402344 0-38.597656 31.402344-70 70-70s70 31.402344 70 70c0 16.839844-5.980469 32.3125-15.925781 44.402344 14.070312 7.445312 26.433593 17.699218 36.339843 30.011718 5.019532-4.640624 10.492188-8.730468 16.332032-12.210937-6.765625-9.710937-10.746094-21.5-10.746094-34.203125 0-33.085938 26.914062-60 60-60s60 26.914062 60 60c0 12.257812-3.703125 23.664062-10.039062 33.175781 29.855468 16.984375 50.039062 49.089844 50.039062 85.824219h-40c0-32.347656-26.316406-58.667969-58.667969-58.667969-18.722656 0-35.878906 8.726563-46.847656 23.320313 3.578125 11.148437 5.515625 23.027344 5.515625 35.347656h-40c0-41.90625-34.09375-76-76-76s-76 34.09375-76 76h-40c0-12.320312 1.9375-24.199219 5.515625-35.347656-10.96875-14.59375-28.125-23.316406-46.847656-23.316406-32.351563-.003907-58.667969 26.316406-58.667969 58.664062zm352-119c0 11.027344 8.972656 20 20 20s20-8.972656 20-20-8.972656-20-20-20-20 8.972656-20 20zm-166-28c0 16.542969 13.457031 30 30 30s30-13.457031 30-30-13.457031-30-30-30-30 13.457031-30 30zm-146 28c0 11.027344 8.972656 20 20 20s20-8.972656 20-20-8.972656-20-20-20-20 8.972656-20 20zm0 0"/>
    </symbol>

    <symbol id="approach02" role="img" aria-labelledby="approach02_title" viewBox="0 0 512 512">
        <title id="approach02_title"></title>
        <polygon points="234.53,285.912 169.76,224.259 142.172,253.242 236.775,343.294 380.923,182.799 351.154,156.061 			"/>
		<path d="M420.499,65.192c-48.502-8.692-93.168-35.18-115.476-50.195C290.447,5.186,273.496,0,256.001,0
			s-34.447,5.186-49.022,14.996C184.671,30.011,140.005,56.5,91.503,65.192c-28.726,5.148-49.576,30.002-49.576,59.097v120.71
			c0,39.877,11.157,78.749,33.159,115.539c17.214,28.781,41.064,56.288,70.888,81.757c50.147,42.825,99.804,65.156,101.892,66.086
			L256,512l8.134-3.619c2.089-0.929,51.745-23.261,101.892-66.086c29.823-25.469,53.675-52.976,70.888-81.757
			c22.004-36.789,33.159-75.662,33.159-115.539V124.29C470.075,95.194,449.225,70.34,420.499,65.192z M430.061,245
			c0,59.45-30.033,115.375-89.267,166.224c-34.432,29.558-69.39,48.824-84.791,56.643C220.601,449.879,81.941,371.328,81.941,245
			V124.29c0-9.695,6.99-17.985,16.621-19.711c55.718-9.985,105.843-39.616,130.761-56.388c7.947-5.35,17.172-8.178,26.678-8.178
			c9.506,0,18.732,2.828,26.678,8.177c24.919,16.773,75.043,46.402,130.761,56.387c9.63,1.726,16.621,10.016,16.621,19.711V245z"/>
    </symbol>

    <symbol id="approach03" role="img" aria-labelledby="approach03_title" viewBox="0 0 512 512">
        <title id="approach03_title"></title>
        <path d="M355.945,188.774c0-60.62-44.835-109.817-99.945-109.817s-99.945,49.197-99.945,109.817
			c0,35.891,15.718,67.817,39.978,87.895v-88.774h0.019c0.407-38.172,27.134-69.084,59.948-69.084s59.541,30.912,59.948,69.084
			h0.019v88.774C340.226,256.592,355.945,224.664,355.945,188.774z"/>
		<polygon points="275.989,435.862 275.989,257.857 236.011,257.857 236.011,435.087 182.183,381.259 153.915,409.527 256.388,512 
			358.862,409.527 330.594,381.259 			"/>
		<circle cx="97.088" cy="187.774" r="19.989"/>
		<circle cx="414.912" cy="187.774" r="19.989"/>
		<path d="M451.891,0H60.109C27.043,0,0.142,26.901,0.142,59.967v255.858c0,33.066,26.901,59.967,59.967,59.967h59.967v-59.967
			c0-33.066-26.901-59.967-59.967-59.967c-6.986,0-19.989,0-19.989-31.982v-71.96c0-31.982,13.003-31.982,19.989-31.982
			c33.066,0,59.967-26.901,59.967-59.967c0-11.583,12.61-19.989,29.983-19.989h211.882c17.373,0,29.983,8.406,29.983,19.989
			c0,33.066,26.901,59.967,59.967,59.967c6.986,0,19.989,0,19.989,31.982v71.96c0,31.982-13.003,31.982-19.989,31.982
			c-33.066,0-59.967,26.901-59.967,59.967v59.967h59.967c33.066,0,59.967-26.901,59.967-59.967V59.967
			C511.858,26.901,484.957,0,451.891,0z M60.109,295.836c11.022,0,19.989,8.967,19.989,19.989v19.989H60.109
			c-11.022,0-19.989-8.967-19.989-19.989v-23.014C46.26,294.8,52.952,295.836,60.109,295.836z M80.098,59.967
			c0,11.022-8.967,19.989-19.989,19.989c-7.157,0-13.848,1.035-19.989,3.025V59.967c0-11.022,8.967-19.989,19.989-19.989h23.694
			C81.405,46.18,80.098,52.89,80.098,59.967z M471.88,315.825c0,11.022-8.967,19.989-19.989,19.989h-19.989v-19.989
			c0-11.022,8.967-19.989,19.989-19.989c7.157,0,13.848-1.035,19.989-3.025V315.825z M471.88,82.981
			c-6.14-1.99-12.832-3.025-19.989-3.025c-11.022,0-19.989-8.967-19.989-19.989c0-7.077-1.307-13.786-3.705-19.989h23.694
			c11.022,0,19.989,8.967,19.989,19.989V82.981z"/>
    </symbol>

    <symbol id="approach04" role="img" aria-labelledby="approach04_title" viewBox="0 0 512 512">
        <title id="approach04_title"></title>
        <path d="m512 474.539062-51.105469-51.105468c8.75-13.871094 13.820313-30.28125 13.820313-47.855469 0-49.597656-40.347656-89.949219-89.945313-89.949219-49.597656 0-89.945312 40.351563-89.945312 89.949219 0 49.59375 40.347656 89.945313 89.945312 89.945313 17.574219 0 33.988281-5.074219 47.855469-13.824219l51.105469 51.105469zm-127.230469-48.992187c-27.554687 0-49.96875-22.417969-49.96875-49.96875 0-27.554687 22.414063-49.972656 49.96875-49.972656 27.554688 0 49.96875 22.417969 49.96875 49.972656 0 27.550781-22.414062 49.96875-49.96875 49.96875zm-105.949219 25.148437h-218.855468c-11.023438 0-19.988282-8.96875-19.988282-19.988281v-211.875h195.882813v49.96875h39.976563v-49.96875h195.882812v60.292969c19.796875 17.863281 34.082031 41.71875 39.976562 68.679688v-207.886719c0-33.066407-26.902343-59.964844-59.964843-59.964844h-106.011719v-19.988281c0-33.066406-26.898438-59.964844-59.964844-59.964844h-59.816406c-33.0625 0-59.960938 26.898438-59.960938 59.964844v19.988281h-106.011718c-33.066406 0-59.964844 26.898437-59.964844 59.964844v290.789062c0 33.0625 26.898438 59.960938 59.964844 59.960938h264.585937c-18.207031-9.5625-33.882812-23.3125-45.730469-39.972657zm-72.871093-390.730468c0-11.023438 8.96875-19.988282 19.988281-19.988282h59.816406c11.023438 0 19.988282 8.964844 19.988282 19.988282v19.988281h-99.792969zm-165.972657 79.953125c0-11.023438 8.964844-20.027344 19.988282-20.027344h391.765625c11.019531 0 19.988281 9.003906 19.988281 20.027344v38.9375h-431.742188zm0 0"/>
    </symbol>

    <symbol id="approach05" role="img" aria-labelledby="approach05_title" viewBox="0 1 511 511.999">
        <title id="approach05_title"></title>
        <path d="m494.867188 257.347656-.566407-.566406-125.488281-106.851562-.113281-33.160157-74.753907.257813-48.71875 48.714844c-7.636718 7.636718-20.171874 7.761718-27.945312.277343-3.726562-3.589843-5.8125-8.535156-5.863281-13.929687-.054688-5.664063 2.183593-11.179688 6.136719-15.132813l39.726562-42.382812c31.949219-34.097657 77.078125-53.65625 123.808594-53.65625h130.394531v-39.921875h-130.394531c-46.527344 0-91.761719 15.707031-128.230469 43.851562-36.847656-29.027344-82.214844-44.847656-129.558594-44.847656h-122.800781v39.921875h122.800781c36.246094 0 71.0625 11.449219 99.96875 32.570313l-34.195312 36.492187c-11.328125 11.46875-17.730469 27.296875-17.574219 43.488281.15625 16.199219 6.582031 31.226563 18.097656 42.3125 11.351563 10.925782 26.332032 16.859375 42.054688 16.722656 15.789062-.140624 30.636718-6.367187 41.800781-17.535156l37.082031-37.082031 4.855469-.019531 151.695313 129.167968c6.164062 6.644532 6.011718 17.066407-.449219 23.53125-3.175781 3.175782-7.433594 4.921876-11.996094 4.921876s-8.820313-1.746094-11.996094-4.921876l-4.097656-4.097656-28.226563 28.226563 4.09375 4.097656c1.917969 1.914063 3.9375 3.664063 6.042969 5.25l-.398437.394531c6.617187 6.617188 6.617187 17.378906 0 23.996094-6.613282 6.613281-17.378906 6.613281-23.992188 0l-6.773437-6.722656-28.226563 28.226562 4.589844 4.589844c3.4375 3.453125 5.511719 8.363281 5.6875 13.480469.09375 2.792969-.332031 8.066406-4.285156 12.011719-6.246094 6.25-17.0625 5.601562-24.101563-1.4375l-.558593-.5625-3.597657-3.066407-27.066406 29.304688c3.332031 3.328125 5.195313 7.6875 5.246094 12.273437.050781 4.4375-1.628907 8.589844-4.726563 11.6875-6.617187 6.617188-17.515625 6.484375-24.34375-.347656l-2.839844-2.816406c8.15625-20.785156 3.855469-45.367188-12.914062-62.140625-7.507812-7.507813-16.65625-12.761719-26.570312-15.398438 2.460937-17.148437-2.890626-35.210937-16.054688-48.375-9.863281-9.863281-22.480469-15.328125-35.398438-16.417969-.976562-12.84375-6.464843-25.445312-16.496093-35.476562-9.921875-9.921875-22.628907-15.390625-35.628907-16.4375-1.042968-13-6.511718-25.707031-16.433593-35.628906-22.136719-22.128906-58.121094-22.179688-80.316407-.136719l-27.890624 26.929687-.25.246094c-10.714844 10.714844-16.617188 25-16.617188 40.222656 0 15.226563 5.902344 29.511719 16.617188 40.226563 8.480468 8.480469 18.996093 13.707031 29.988281 15.703125-.515625 15.207031 5.003906 30.582031 16.589843 42.164062 10.328126 10.332032 24.117188 15.980469 38.933594 15.980469.28125 0 .5625-.003906.847656-.007812 1.613282 11.863281 6.945313 23.289062 16.019532 32.363281 11.039062 11.039062 25.546875 16.550781 40.101562 16.546875 1.222656 0 2.445313-.050781 3.667969-.128906 2.113281 11.617187 7.65625 22.300781 16.136719 30.78125 11.285156 11.285156 26.105468 16.925781 40.929687 16.925781 14.476563-.003906 28.945313-5.398438 40.125-16.160156 11.132813 10.757812 25.542969 16.160156 39.925781 16.15625 14.550782 0 29.066407-5.507813 40.101563-16.546875 8.828125-8.828125 14.339844-20.066407 15.9375-32.25 14.207031-.023438 28.242187-5.320313 38.867187-15.949219 9.335938-9.332031 14.832032-21.589844 15.824219-35.03125 13.535157-.722656 26.859375-6.238281 37.175781-16.554688 11.582032-11.582031 17.113282-26.953124 16.601563-42.15625 10.988281-1.996093 21.5-7.234374 29.976563-15.710937 22.179687-22.179687 22.179687-58.269531 0-80.449219zm-454.445313 44.097656c0-4.511718 1.710937-8.726562 4.820313-11.894531l27.859374-26.890625.25-.246094c3.175782-3.179687 7.4375-4.925781 11.996094-4.925781 4.5625 0 8.824219 1.746094 12 4.925781 3.171875 3.175782 4.921875 7.433594 4.921875 11.996094 0 3.789063-1.222656 7.367188-3.453125 10.292969-.523437.480469-1.042968.964844-1.554687 1.46875l-20.472657 20.074219-7.199218 6.953125-.25.246093c-3.175782 3.175782-7.4375 4.925782-12 4.925782-4.558594 0-8.820313-1.75-11.996094-4.925782-3.175781-3.175781-4.921875-7.4375-4.921875-12zm51.5 69.867188c-6.597656-6.597656-6.613281-17.320312-.054687-23.9375l12.78125-12.535156 20.675781-19.960938.25-.242187c.535156-.535157 1.042969-1.085938 1.554687-1.636719 6.644532-5.078125 16.207032-4.597656 22.28125 1.476562 6.570313 6.574219 6.609375 16.085938.101563 22.652344l-34.0625 33.394532c-6.984375 6.445312-17.503907 6.8125-23.527344.789062zm55.800781 48.335938c-6.605468-6.609376-6.480468-17.484376.273438-24.265626l29.242187-28.9375.074219-.074218c3.171875-3.175782 7.433594-4.921875 11.996094-4.921875 4.558594 0 8.820312 1.746093 11.996094 4.921875 6.605468 6.605468 6.613281 17.347656.03125 23.964844l-29.246094 28.941406-.074219.070312c-6.777344 6.78125-17.675781 6.914063-24.292969.300782zm59.90625 47.195312c-3.441406-3.441406-5.363281-8.054688-5.414062-12.992188-.050782-4.835937 1.730468-9.304687 5.015625-12.585937l11.976562-11.976563c3.195313-3.199218 7.34375-4.78125 11.585938-4.78125 4.636719 0 9.390625 1.890626 13.136719 5.636719 7.003906 7.003907 7.003906 18.402344 0 25.40625l-11 11.398438c-7.011719 6.898437-18.332032 6.863281-25.300782-.105469zm0 0"/>
    </symbol>

    <symbol id="approach06" role="img" aria-labelledby="approach06_title" viewBox="-20 0 512 512">
        <title id="approach06_title"></title>
        <path d="m404.996094 110.746094 18.21875-21.09375 22.707031 19.605468 26.144531-30.269531-75.683594-65.363281-26.144531 30.273438 22.703125 19.609374-18.242187 21.121094c-34.621094-25.109375-75.210938-40.199218-118.167969-43.78125v-40.847656h-40v40.847656c-43.210938 3.601563-84.027344 18.851563-118.78125 44.226563l-18.628906-21.566407 22.703125-19.609374-26.140625-30.273438-75.683594 65.363281 26.144531 30.269531 22.703125-19.605468 18.691406 21.640625c-43.226562 44.320312-67.007812 102.679687-67.007812 164.707031 0 63.039062 24.546875 122.304688 69.125 166.878906 44.574219 44.574219 103.835938 69.121094 166.875 69.121094s122.304688-24.546875 166.878906-69.121094c44.574219-44.578125 69.121094-103.839844 69.121094-166.878906 0-62.277344-23.972656-120.867188-67.535156-165.253906zm-168.464844 361.253906c-108.074219 0-196-87.925781-196-196s87.925781-196 196-196 196 87.925781 196 196-87.925781 196-196 196zm66-149.640625c0 29.820313-19.792969 55.125-47 63.605469v35.035156h-40v-35.085938c-10.132812-3.199218-19.457031-8.828124-27.253906-16.609374-12.730469-12.707032-19.746094-29.476563-19.746094-47.207032v-12.097656h40v12.097656c0 14.582032 12.363281 26.902344 27 26.902344s27-12.199219 27-26.640625c0-11.644531-11.503906-18.902344-35.929688-31.601563l-.296874-.15625c-18.988282-9.875-50.773438-26.40625-50.773438-68.035156 0-15.871094 6.324219-30.84375 17.804688-42.160156 6.417968-6.332031 13.980468-11.054688 22.195312-13.972656v-35.433594h40v35.386719c23.25 8.125 39.949219 29.980469 39.949219 55.613281v10h-40v-10c0-10.476562-8.949219-19-19.949219-19-10.839844 0-20 8.960938-20 19.566406 0 14.726563 7.660156 21.328125 29.230469 32.546875l.296875.152344c25.605468 13.316406 57.472656 29.890625 57.472656 67.09375zm0 0"/>
    </symbol>
  
    <symbol id="problems01" role="img" aria-labelledby="problems01_title" viewBox="0 0 512 512">
        <title id="problems01_title"></title>
        <polygon points="117.269,322.334 117.269,511.826 157.242,511.826 157.241,281.588 			"/>
		<polygon points="195.216,511.826 235.188,511.826 235.188,307.318 195.216,267.346 			"/>
		<polygon points="38.322,511.826 78.295,511.826 78.295,362.064 38.322,402.812 			"/>
		<polygon points="392.081,0.173 392.081,40.146 444.761,40.146 262.919,221.989 182.265,141.335 0,329.017 28.676,356.865 
			182.683,198.282 262.919,278.519 472.027,69.411 472.027,119.093 512,119.093 512,0.173 			"/>
		<polygon points="431.055,166.913 431.055,511.827 471.028,511.827 471.028,161.064 436.904,161.064 			"/>
		<polygon points="273.162,511.826 313.135,511.826 313.135,284.833 273.162,324.806 			"/>
		<polygon points="352.109,511.827 392.081,511.827 392.081,205.887 352.109,245.859 			"/>
    </symbol>

    <symbol id="problems02" role="img" aria-labelledby="problems02_title" viewBox="0 0 512 512">
        <title id="problems02_title"></title>
        <path d="m45 192h-45v-40h45zm-26.574219 79.003906 17.996094 35.722656 42.4375-21.375-17.992187-35.722656zm59.433594-215.410156-41.441406-20.871094-17.992188 35.726563 41.441407 20.867187zm355.28125 229.757812 42.441406 21.375 17.992188-35.722656-42.441407-21.375zm60.433594-214.902343-17.992188-35.726563-41.441406 20.871094 17.992187 35.722656zm-65.578125 100.40625h.003906l-.003906 1.144531c-.316406 68.6875-29.203125 106.699219-54.707032 140.261719-21.328124 28.066406-38.175781 50.242187-38.175781 87.152343v52.585938c0 33.085938-26.917969 60-60 60h-38.222656c-33.085937 0-60-26.914062-60-60v-52.585938c0-36.910156-16.851563-59.085937-38.179687-87.152343-25.503907-33.5625-54.390626-71.574219-54.707032-140.261719h-.003906l.003906-1.144531c.617188-94.316407 77.535156-170.855469 171.996094-170.855469s171.378906 76.539062 171.996094 170.855469zm-132.886719 281.144531v-39h-78.222656v39c0 11.027344 8.972656 20 20 20h38.222656c11.03125 0 20-8.972656 20-20zm92.890625-280.507812c-.273438-72.554688-59.382812-131.492188-132-131.492188s-131.726562 58.9375-132 131.492188c.171875 55.523437 22.707031 85.179687 46.558594 116.566406 18.507812 24.355468 37.527344 49.382812 44.007812 84.941406h82.867188c6.480468-35.558594 25.5-60.585938 44.007812-84.941406 23.851563-31.386719 46.386719-61.042969 46.558594-116.566406zm-122.53125-80.03125c-20.902344-2.316407-41.804688 4.328124-57.339844 18.234374-15.335937 13.726563-24.128906 33.367188-24.128906 53.882813h40c0-9.289063 3.839844-17.839844 10.808594-24.078125 7.171875-6.421875 16.496094-9.363281 26.25-8.28125 15.039062 1.667969 27.140625 13.6875 28.777344 28.578125 1.148437 10.445313-3.871094 20.441406-16.789063 33.417969-3.160156 3.175781-6.085937 5.964844-8.914063 8.664062-14.558593 13.882813-27.128906 25.871094-27.128906 52.117188v1.003906h40v-1.003906c0-8.613282 1.667969-10.707032 14.734375-23.171875 2.875-2.738281 6.128907-5.847657 9.660157-9.390625 13.707031-13.773438 31.542968-35.59375 28.199218-66.007813-3.667968-33.347656-30.636718-60.246093-64.128906-63.964843zm-28.46875 233.539062h40v-40h-40zm230-173v40h45v-40zm0 0"/>
    </symbol>

    <symbol id="problems03" role="img" aria-labelledby="problems03_title" viewBox="-21 -21 682.66669 682.66669">
        <title id="problems03_title"></title>
        <path d="m640 345h-63.714844c-11.816406 122.070312-109.214844 219.46875-231.285156 231.285156v63.714844h-50v-63.714844c-122.070312-11.816406-219.46875-109.214844-231.285156-231.285156h-63.714844v-50h63.714844c11.816406-122.070312 109.214844-219.46875 231.285156-231.285156v-63.714844h50v63.714844c34.476562 3.339844 66.988281 13.507812 96.15625 29.128906-12.214844 12.085938-24.882812 24.621094-37.53125 37.15625-.03125.03125-.054688.054688-.085938.082031-18.289062-8.074219-37.957031-13.578125-58.539062-16.0625v50.980469h-50v-50.984375c-94.472656 11.390625-169.59375 86.511719-180.992188 180.984375h50.992188v50h-50.992188c11.398438 94.472656 86.519532 169.59375 180.992188 180.992188v-50.992188h50v50.992188c94.472656-11.398438 169.59375-86.519532 180.992188-180.992188h-50.992188v-50h50.980469c-2.503907-20.746094-8.070313-40.5625-16.25-58.976562 12.320312-12.199219 24.898437-24.65625 37.472656-37.09375 15.59375 29.148437 25.746094 61.625 29.082031 96.070312h63.714844zm-295-86.230469v-43.769531h-50v130h130v-50h-45.511719c55.101563-55.113281 155.160157-154.070312 228.058594-225.945312l-35.09375-35.609376c-.671875.65625-67.355469 66.40625-133.640625 132.078126-43.570312 43.15625-73.347656 72.773437-93.8125 93.246093zm0 0"/>
    </symbol>

    <symbol id="problems04" role="img" aria-labelledby="problems04_title" viewBox="0 0 512 512">
        <title id="problems04_title"></title>
        <path d="M452,20H60C26.916,20,0,46.916,0,80v352c0,33.084,26.916,60,60,60h12.771c-0.945-1.476-1.855-2.98-2.716-4.522  c-6.199-11.109-9.768-23.236-10.732-35.512C48.609,451.604,40,442.8,40,432V180h432v252c0,10.8-8.61,19.605-19.324,19.966  c-0.964,12.277-4.533,24.403-10.731,35.512c-0.861,1.542-1.771,3.047-2.716,4.522H452c33.084,0,60-26.916,60-60V80  C512,46.916,485.084,20,452,20z M40,140V80c0-11.028,8.972-20,20-20h392c11.028,0,20,8.972,20,20v60H40z M405.966,420.498  c8.925,14.463,9.324,32.656,1.048,47.489C398.624,483.023,383.343,492,366.136,492H316v-40h50.136c3.475,0,5.218-2.195,5.948-3.503  c0.737-1.321,1.697-3.985-0.153-6.984L261.8,263.252c-1.747-2.83-4.383-3.252-5.8-3.252s-4.053,0.422-5.794,3.243L140.063,441.521  c-1.845,2.99-0.885,5.654-0.147,6.976c0.73,1.308,2.474,3.503,5.948,3.503H196v40h-50.136c-17.207,0-32.488-8.977-40.878-24.013  c-8.276-14.833-7.877-33.026,1.042-47.48l110.143-178.278C224.758,228.313,239.649,220,256,220s31.242,8.313,39.835,22.237  L405.966,420.498z M235,452h40v40h-40V452z M235,337h40v85h-40V337z M110,100c0,11.046-8.954,20-20,20s-20-8.954-20-20  s8.954-20,20-20S110,88.954,110,100z M180,100c0,11.046-8.954,20-20,20s-20-8.954-20-20s8.954-20,20-20S180,88.954,180,100z"/>
    </symbol>

    <symbol id="problems05" role="img" aria-labelledby="problems05_title" viewBox="0 0 512 512">
        <title id="problems05_title"></title>
        <path d="M289.739,512h-67.479l-18.14-68.196c-15.398-4.252-30.188-10.407-44.192-18.39l-60.574,34.876l-47.646-47.647l34.876-60.573  c-7.983-14.004-14.137-28.794-18.389-44.192L0,289.739v-67.479l68.196-18.14c4.251-15.397,10.406-30.188,18.389-44.192  L51.709,99.355l47.646-47.647l60.575,34.876c14.004-7.983,28.793-14.137,44.191-18.389L222.261,0h67.479l18.14,68.196  c15.398,4.252,30.188,10.406,44.191,18.389l60.575-34.876l47.646,47.647l-34.876,60.574c7.983,14.004,14.138,28.794,18.39,44.192  L512,222.261v67.479l-68.196,18.14c-4.252,15.398-10.406,30.188-18.389,44.192l34.875,60.573l-47.646,47.647l-60.574-34.876  c-14.004,7.983-28.794,14.137-44.192,18.39L289.739,512z M253.012,472h5.977l16.468-61.914l12.098-2.505  c18.907-3.914,36.817-11.363,53.232-22.141l10.289-6.755l54.961,31.645l4.293-4.293l-31.644-54.96l6.755-10.289  c10.777-16.416,18.226-34.326,22.14-53.233l2.505-12.098L472,258.988v-5.977l-61.914-16.468l-2.504-12.098  c-3.913-18.907-11.362-36.816-22.141-53.232l-6.755-10.289l31.645-54.961l-4.293-4.293l-54.961,31.645l-10.289-6.755  c-16.415-10.777-34.325-18.226-53.232-22.14l-12.098-2.504L258.988,40h-5.977l-16.468,61.915l-12.098,2.504  c-18.907,3.914-36.817,11.362-53.232,22.14l-10.289,6.755l-54.961-31.645l-4.293,4.293l31.645,54.961l-6.755,10.289  c-10.778,16.417-18.227,34.326-22.14,53.232l-2.504,12.099L40,253.012v5.977l61.915,16.468l2.504,12.098  c3.914,18.907,11.362,36.817,22.14,53.232l6.755,10.289l-31.644,54.96l4.293,4.293l54.961-31.645l10.289,6.755  c16.416,10.777,34.325,18.227,53.232,22.141l12.098,2.505L253.012,472z M492,274.364h0.01H492z M276.004,301.996  c0-8.612,1.665-10.708,14.734-23.171c2.874-2.74,6.13-5.846,9.658-9.39c13.708-13.771,31.544-35.596,28.2-66.008  c-3.666-33.347-30.636-60.248-64.129-63.964c-20.896-2.317-41.802,4.327-57.339,18.235C191.794,171.423,183,191.063,183,211.58h40  c0-9.29,3.838-17.842,10.807-24.08c7.175-6.423,16.495-9.361,26.25-8.282c15.039,1.668,27.143,13.688,28.78,28.58  c1.149,10.447-3.872,20.441-16.789,33.418c-3.161,3.175-6.085,5.964-8.914,8.662c-14.557,13.882-27.128,25.871-27.128,52.118V303h40  V301.996z M276,333h-40v40h40V333z"/>
    </symbol>

    <symbol id="problems06" role="img" aria-labelledby="problems06_title" viewBox="0 0 512 512">
        <title id="problems06_title"></title>
        <path d="m437.019531 74.980469c-48.351562-48.351563-112.640625-74.980469-181.019531-74.980469s-132.667969 26.628906-181.019531 74.980469c-48.351563 48.351562-74.980469 112.640625-74.980469 181.019531s26.628906 132.667969 74.980469 181.019531c48.351562 48.351563 112.640625 74.980469 181.019531 74.980469s132.667969-26.628906 181.019531-74.980469c48.351563-48.351562 74.980469-112.640625 74.980469-181.019531s-26.628906-132.667969-74.980469-181.019531zm-181.019531 397.019531c-119.101562 0-216-96.898438-216-216s96.898438-216 216-216 216 96.898438 216 216-96.898438 216-216 216zm-30.015625-302.269531c0-15.839844 13.457031-28.730469 30-28.730469v-40c-38.597656 0-70 30.832031-70 68.730469v27.269531h-42.984375v184h226v-184h-143.015625zm103.015625 171.269531h-146v-104h146zm-73.015625-200v-40c27.707031 0 52.847656 16.078125 64.046875 40.96875 3.949219 8.773438 5.953125 18.113281 5.953125 27.765625h-40c0-3.953125-.820313-7.769531-2.429687-11.351563-4.75-10.558593-15.574219-17.382812-27.570313-17.382812zm-19.984375 148c0-11.046875 8.953125-20 20-20s20 8.953125 20 20-8.953125 20-20 20-20-8.953125-20-20zm0 0"/>
    </symbol>

    <symbol id="quote" role="img" aria-labelledby="quote_title" viewBox="0 0 298.667 298.667">
    	<title id="quote_title"></title>
        <polygon points="0,170.667 64,170.667 21.333,256 85.333,256 128,170.667 128,42.667 0,42.667 			"/>
		<polygon points="170.667,42.667 170.667,170.667 234.667,170.667 192,256 256,256 298.667,170.667 298.667,42.667 			"/>
    </symbol>

    <symbol id="arrows" role="img" aria-labelledby="arrows_title" viewBox="0 0 220.682 220.682">
    	<title id="arrows_title"></title>
        <polygon points="92.695,38.924 164.113,110.341 92.695,181.758 120.979,210.043 220.682,110.341 120.979,10.639 	"/>
		<polygon points="28.284,210.043 127.986,110.341 28.284,10.639 0,38.924 71.417,110.341 0,181.758 	"/>
    </symbol>

    <symbol id="footer-facebook" role="img" aria-labelledby="footer-facebook_title" viewBox="0 0 512 512">
        <title id="footer-facebook_title">Facebook</title>
        <path d="M296.296,512H200.36V256h-64v-88.225l64-0.029l-0.104-51.976C200.256,43.794,219.773,0,304.556,0h70.588v88.242h-44.115
		c-33.016,0-34.604,12.328-34.604,35.342l-0.131,44.162h79.346l-9.354,88.225L296.36,256L296.296,512z"/>
    </symbol>

    <symbol id="footer-twitter" role="img" aria-labelledby="footer-twitter_title" viewBox="0 0 512.002 512.002">
        <title id="footer-twitter_title">Twitter</title>
        <path d="M512.002,97.211c-18.84,8.354-39.082,14.001-60.33,16.54c21.686-13,38.342-33.585,46.186-58.115
		c-20.299,12.039-42.777,20.78-66.705,25.49c-19.16-20.415-46.461-33.17-76.674-33.17c-58.011,0-105.042,47.029-105.042,105.039
		c0,8.233,0.929,16.25,2.72,23.939c-87.3-4.382-164.701-46.2-216.509-109.753c-9.042,15.514-14.223,33.558-14.223,52.809
		c0,36.444,18.544,68.596,46.73,87.433c-17.219-0.546-33.416-5.271-47.577-13.139c-0.01,0.438-0.01,0.878-0.01,1.321
		c0,50.894,36.209,93.348,84.261,103c-8.813,2.399-18.094,3.687-27.674,3.687c-6.769,0-13.349-0.66-19.764-1.888
		c13.368,41.73,52.16,72.104,98.126,72.949c-35.95,28.176-81.243,44.967-130.458,44.967c-8.479,0-16.84-0.496-25.058-1.471
		c46.486,29.807,101.701,47.197,161.021,47.197c193.211,0,298.868-160.062,298.868-298.872c0-4.554-0.104-9.084-0.305-13.59
		C480.111,136.775,497.92,118.275,512.002,97.211z"/>
    </symbol>

    <symbol id="footer-instagram" role="img" aria-labelledby="footer-instagram_title" viewBox="155 155 200 200">
        <title id="footer-instagram_title">Instagram</title>
        <path d="M256,227.5c-15.7,0-28.5,12.8-28.5,28.5s12.8,28.5,28.5,28.5s28.5-12.8,28.5-28.5S271.7,227.5,256,227.5z"/>
        <path d="M322.2,154.8H189.8c-19.3,0-35,15.7-35,35v132.5c0,19.3,15.7,35,35,35h132.5c19.3,0,35-15.7,35-35V189.8   C357.2,170.5,341.5,154.8,322.2,154.8z M256,314.5c-32.2,0-58.5-26.2-58.5-58.5s26.2-58.5,58.5-58.5s58.5,26.2,58.5,58.5   S288.2,314.5,256,314.5z M335.9,190.6c0,8-6.5,14.5-14.5,14.5h0c-8,0-14.5-6.5-14.5-14.5v0c0-8,6.5-14.5,14.5-14.5h0   C329.4,176.1,335.9,182.6,335.9,190.6L335.9,190.6z"/>
    </symbol>

    <symbol id="footer-linkedin" role="img" aria-labelledby="footer-linkedin_title" viewBox="0 0 93.06 93.06">
        <title id="footer-linkedin_title">Linkedin</title>
        <path d="M11.185,0.08C5.004,0.08,0.001,5.092,0,11.259c0,6.173,5.003,11.184,11.186,11.184c6.166,0,11.176-5.011,11.176-11.184
			C22.362,5.091,17.351,0.08,11.185,0.08z"/>
		<rect x="1.538" y="30.926" width="19.287" height="62.054"/>
		<path d="M69.925,29.383c-9.382,0-15.673,5.144-18.248,10.022h-0.258v-8.479H32.921H32.92v62.053h19.27V62.281
			c0-8.093,1.541-15.932,11.575-15.932c9.89,0,10.022,9.256,10.022,16.451v30.178H93.06V58.942
			C93.06,42.235,89.455,29.383,69.925,29.383z"/>
    </symbol>

    <symbol id="footer-google" role="img" aria-labelledby="footer-google_title" viewBox="0 90 320 320">
        <title id="footer-google_title">Google</title>
		<path d="M160,224v64h90.528c-13.216,37.248-48.8,64-90.528,64c-52.928,0-96-43.072-96-96c0-52.928,43.072-96,96-96
			c22.944,0,45.024,8.224,62.176,23.168l42.048-48.256C235.424,109.824,198.432,96,160,96C71.776,96,0,167.776,0,256
			s71.776,160,160,160s160-71.776,160-160v-32H160z"/>
    </symbol>

    <symbol id="footer-phone" role="img" aria-labelledby="footer-phone_title" viewBox="0 0 512 512">
        <title id="footer-phone_title"></title>
        <path d="M421.216,195.504c-5.092-26.101-17.723-49.836-36.526-68.64c-18.804-18.803-42.54-31.434-68.641-36.527
			c-11.21-2.189-22.073,5.128-24.261,16.339c-2.187,11.212,5.128,22.073,16.339,24.26c36.847,7.188,65.3,35.642,72.489,72.489
			c1.927,9.874,10.581,16.726,20.278,16.726c1.313,0,2.645-0.125,3.984-0.387C416.088,217.577,423.403,206.715,421.216,195.504z"/>
		<path d="M511.422,196.929c-5.629-50.096-28.373-97.304-64.042-132.927C411.712,28.378,364.475,5.694,314.371,0.128
			c-11.355-1.261-21.578,6.92-22.839,18.272c-1.261,11.353,6.919,21.578,18.272,22.84c84.961,9.438,150.966,75.36,160.512,160.31
			c1.188,10.566,10.139,18.374,20.527,18.374c0.771,0,1.552-0.043,2.336-0.131C504.53,218.516,512.698,208.281,511.422,196.929z"/>
		<path d="M432.59,312.566c-0.062-0.008-0.124-0.017-0.186-0.025c-20.013-2.639-39.751-7.557-58.619-14.596
			c-23.91-8.99-51.103-3.191-69.27,14.772c-0.028,0.028-0.056,0.055-0.083,0.083l-17.148,17.148
			c-42.633-26.924-78.756-63.047-105.679-105.679l17.149-17.149c0.027-0.028,0.054-0.055,0.082-0.083
			c17.964-18.166,23.762-45.356,14.79-69.223c-7.057-18.914-11.974-38.653-14.614-58.666c-0.007-0.063-0.017-0.127-0.026-0.19
			c-4.591-32.478-32.782-56.734-65.548-56.467H66.053c-1.943,0.002-3.912,0.091-5.853,0.267
			C24.143,26.016-2.541,58.001,0.718,94.058c0.01,0.108,0.02,0.215,0.032,0.323c7.684,72.354,32.649,142.88,72.197,203.955
			c35.892,56.461,84.701,105.269,141.162,141.164c60.792,39.406,130.99,64.369,203.013,72.196c0.127,0.015,0.254,0.027,0.38,0.038
			c1.961,0.176,3.949,0.266,5.921,0.266c0.083,0,0.165,0,0.247,0.001c36.204-0.148,65.538-29.722,65.391-65.841v-67.233
			C489.746,345.714,465.515,317.211,432.59,312.566z M447.698,378.695v67.548c0.055,13.396-10.8,24.338-24.19,24.393
			c-0.715-0.004-1.425-0.027-2.135-0.086c-65.578-7.161-129.488-29.914-184.837-65.808c-0.053-0.035-0.107-0.069-0.161-0.103
			c-51.429-32.68-95.885-77.137-128.565-128.565c-0.032-0.051-0.064-0.101-0.097-0.153C71.683,220.306,48.928,156.086,41.902,90.193
			C40.779,76.91,50.63,65.155,63.923,63.954c0.717-0.064,1.443-0.098,2.145-0.098h67.463c0.146-0.001,0.294-0.003,0.443-0.002
			c12.021,0,22.322,8.905,24.044,20.819c3.05,23.063,8.721,45.806,16.871,67.649c3.319,8.832,1.189,18.869-5.427,25.591
			l-28.517,28.517c-6.583,6.582-7.956,16.753-3.354,24.847c33.837,59.508,83.177,108.847,142.685,142.685
			c8.094,4.6,18.264,3.23,24.848-3.355l28.512-28.512c6.72-6.621,16.765-8.752,25.642-5.415
			c21.799,8.134,44.547,13.805,67.61,16.855c12.18,1.757,21.122,12.339,20.816,24.647
			C447.7,378.353,447.698,378.524,447.698,378.695z"/>
    </symbol>    

	<symbol id="footer-mail" role="img" aria-labelledby="footer-mail_title" viewBox="0 0 512 512">
        <title id="footer-mail_title"></title>
        <path d="M256,141.176c-63.306,0-114.809,51.503-114.809,114.809S192.694,370.795,256,370.795s114.809-51.503,114.809-114.809
			S319.306,141.176,256,141.176z M256,329.43c-40.498,0-73.445-32.947-73.445-73.445c0-40.498,32.947-73.445,73.445-73.445
			c40.499,0,73.445,32.947,73.445,73.445C329.445,296.483,296.499,329.43,256,329.43z"/>
		<path d="M437.008,74.97C388.656,26.623,324.375,0,256,0c-0.005,0-0.013,0-0.017,0C187.603,0.004,123.318,26.637,74.97,74.992
			C26.62,123.347-0.005,187.637,0,256.017c0.004,68.379,26.637,132.666,74.992,181.014C123.344,485.377,187.625,512.001,256,512
			c0.004,0,0.012,0,0.017,0c55.945-0.004,111.216-18.738,155.631-52.752c9.07-6.945,10.792-19.927,3.846-28.995
			c-6.945-9.069-19.926-10.794-28.995-3.846c-37.24,28.518-83.58,44.224-130.486,44.228c-0.006,0-0.006,0-0.014,0
			c-57.324,0-111.224-22.324-151.761-62.856c-40.542-40.536-62.871-94.435-62.875-151.766
			C41.357,137.663,137.636,41.372,255.986,41.364c0.007,0,0.006,0,0.014,0c118.34,0,214.628,96.279,214.636,214.622v23.532
			c0,27.523-22.39,49.913-49.913,49.913c-27.523,0-49.913-22.391-49.913-49.913v-23.532c0-11.422-9.259-20.682-20.682-20.682
			s-20.682,9.26-20.682,20.682v23.532c0,50.33,40.947,91.278,91.278,91.278S512,329.848,512,279.518v-23.534
			C511.995,187.604,485.362,123.318,437.008,74.97z"/>
    </symbol>

    <symbol id="footer-location" role="img" aria-labelledby="footer-location_title" viewBox="0 0 512 512">
        <title id="footer-location_title"></title>
        <path d="M406.766,62.449C366.495,22.178,312.951,0,256,0S145.505,22.178,105.234,62.449
			c-40.272,40.271-62.449,93.814-62.449,150.766c0,37.656,10.972,76.863,32.609,116.532c16.825,30.846,40.15,62.102,69.326,92.898
			c49.17,51.903,97.763,84.519,99.808,85.881C248.001,510.842,252,512,256,512c4,0,7.999-1.158,11.473-3.474
			c2.045-1.363,50.638-33.978,99.808-85.881c29.176-30.795,52.501-62.051,69.326-92.898c21.637-39.669,32.609-78.876,32.609-116.532
			C469.215,156.263,447.038,102.72,406.766,62.449z M256.001,465.903C215.826,436.156,84.15,329.739,84.15,213.215
			c0-94.759,77.091-171.851,171.85-171.851s171.85,77.092,171.851,171.851C427.851,329.748,296.159,436.168,256.001,465.903z"/>
		<path d="M256,128.355c-46.791,0-84.86,38.068-84.86,84.86c0,46.791,38.068,84.86,84.86,84.86c46.792,0,84.861-38.068,84.86-84.86
			C340.86,166.423,302.791,128.355,256,128.355z M256,256.71c-23.983,0-43.495-19.512-43.495-43.495
			c0-23.983,19.512-43.495,43.495-43.495c23.984,0,43.495,19.512,43.495,43.495C299.495,237.198,279.984,256.71,256,256.71z"/>
		</symbol>

	<symbol id="footer-time" role="img" aria-labelledby="footer-time_title" viewBox="0 0 512 512">
        <title id="footer-time_title"></title>
        <path d="M437.019,74.981C388.667,26.629,324.38,0,256,0S123.333,26.63,74.981,74.981S0,187.62,0,256
			s26.629,132.667,74.981,181.019C123.332,485.371,187.62,512,256,512s132.667-26.629,181.019-74.981
			C485.371,388.667,512,324.38,512,256S485.371,123.332,437.019,74.981z M256,470.636C137.65,470.636,41.364,374.35,41.364,256
			S137.65,41.364,256,41.364S470.636,137.65,470.636,256S374.35,470.636,256,470.636z"/>
		<path d="M341.221,311.97l-64.538-64.537V114.809c0-11.422-9.259-20.682-20.682-20.682c-11.422,0-20.682,9.26-20.682,20.682V256
			c0,5.486,2.179,10.746,6.058,14.625l70.594,70.595c4.038,4.039,9.332,6.058,14.625,6.058c5.293,0,10.586-2.019,14.626-6.058
			C349.297,333.142,349.297,320.047,341.221,311.97z"/>
	</symbol>

</svg>