<svg xmlns="http://www.w3.org/2000/svg" xmlns:xlink="http://www.w3.org/1999/xlink">

	<symbol id="services01" role="img" aria-labelledby="services01_title" viewBox="0 0 64 64">
        <title id="services01_title"></title>
        <path d="m6 23a1 1 0 0 0 -1 1v4a1 1 0 0 0 1 1h2v23h-1a1 1 0 0 0 -1 1v4a1 1 0 0 0 1 1h5v3a1 1 0 0 0 1 1h12a1 1 0 0 0 1-1v-3h12v3a1 1 0 0 0 1 1h12a1 1 0 0 0 1-1v-3h5a1 1 0 0 0 1-1v-4a1 1 0 0 0 -1-1h-1v-23h2a1 1 0 0 0 1-1v-4a1 1 0 0 0 -1-1h-7v-2h4v-2h-2v-3a1 1 0 0 0 -1-1h-1v-2h4v-2h-2v-3a1 1 0 0 0 -1-1h-1v-4a1 1 0 0 0 -1-1h-4a1 1 0 0 0 -1 1v4h-1a1 1 0 0 0 -1 1v3h-2v2h4v2h-1a1 1 0 0 0 -1 1v3h-2v2h4v2h-10v-2h4v-2h-2v-3a1 1 0 0 0 -1-1h-1v-2h4v-2h-2v-3a1 1 0 0 0 -1-1h-1v-4a1 1 0 0 0 -1-1h-4a1 1 0 0 0 -1 1v4h-1a1 1 0 0 0 -1 1v3h-2v2h4v2h-1a1 1 0 0 0 -1 1v3h-2v2h4v2h-10v-2h4v-2h-2v-3a1 1 0 0 0 -1-1h-1v-2h4v-2h-2v-3a1 1 0 0 0 -1-1h-1v-4a1 1 0 0 0 -1-1h-4a1 1 0 0 0 -1 1v4h-1a1 1 0 0 0 -1 1v3h-2v2h4v2h-1a1 1 0 0 0 -1 1v3h-2v2h4v2zm18 37h-10v-2h10zm26 0h-10v-2h10zm6-4h-48v-2h48zm-46-4v-23h44v23zm37-48h2v3h-2zm-2 5h6v2h-6zm4 4v2h-2v-2zm-4 4h6v2h-6zm4 4v2h-2v-2zm-18-17h2v3h-2zm-2 5h6v2h-6zm4 4v2h-2v-2zm-4 4h6v2h-6zm4 4v2h-2v-2zm-18-17h2v3h-2zm-2 5h6v2h-6zm4 4v2h-2v-2zm-4 4h6v2h-6zm4 4v2h-2v-2zm40 4v2h-50v-2z"/>
        <path d="m43 31h-22a1 1 0 0 0 -1 1v17a1 1 0 0 0 1 1h22a1 1 0 0 0 1-1v-17a1 1 0 0 0 -1-1zm-1 17h-20v-15h20z"/>
        <path d="m25.1 42.424a1 1 0 0 0 .9.576h4v3a1 1 0 0 0 1.65.759l7-6a1 1 0 0 0 -.65-1.759h-3l1.8-2.4a1 1 0 0 0 -.8-1.6h-5a1 1 0 0 0 -.769.359l-5 6a1 1 0 0 0 -.131 1.065zm6.369-5.424h2.531l-1.8 2.4a1 1 0 0 0 .8 1.6h2.3l-3.3 2.826v-1.826a1 1 0 0 0 -1-1h-2.865z"/>
        <path d="m24 35h2v2h-2z"/>
        <path d="m38 44h2v2h-2z"/>
        <path d="m12 31h2v19h-2z"/>
        <path d="m16 31h2v19h-2z"/>
        <path d="m46 31h2v19h-2z"/>
        <path d="m50 31h2v19h-2z"/>
    </symbol>

    <symbol id="services02" role="img" aria-labelledby="services02_title" viewBox="0 0 64 64">
        <title id="services02_title"></title>
        <path d="m61.555 24.168-5.555-3.703v-13.465a5.006 5.006 0 0 0 -5-5h-38a5.006 5.006 0 0 0 -5 5v13.465l-5.555 3.7a1 1 0 0 0 -.445.835v2a1 1 0 0 0 .445.832l5.555 3.703v13.465a5.006 5.006 0 0 0 5 5v11a1 1 0 0 0 1 1h36a1 1 0 0 0 1-1v-11a5.006 5.006 0 0 0 5-5v-13.465l5.555-3.7a1 1 0 0 0 .445-.835v-2a1 1 0 0 0 -.445-.832zm-12.555 35.832h-34v-10h2v7a1 1 0 0 0 1 1h4a1 1 0 0 0 1-1v-7h2v7a1 1 0 0 0 1 1h4a1 1 0 0 0 1-1v-7h2v7a1 1 0 0 0 1 1h4a1 1 0 0 0 1-1v-7h2v7a1 1 0 0 0 1 1h4a1 1 0 0 0 1-1v-7h2zm-30-4v-6h2v6zm8 0v-6h2v6zm8 0v-6h2v6zm8 0v-6h2v6zm17-29.535-5.555 3.7a1 1 0 0 0 -.445.835v14a3 3 0 0 1 -3 3h-38a3 3 0 0 1 -3-3v-14a1 1 0 0 0 -.445-.832l-5.555-3.703v-.93l5.555-3.7a1 1 0 0 0 .445-.835v-14a3 3 0 0 1 3-3h38a3 3 0 0 1 3 3v14a1 1 0 0 0 .445.832l5.555 3.703z"/>
        <path d="m51 6h-38a1 1 0 0 0 -1 1v38a1 1 0 0 0 1 1h38a1 1 0 0 0 1-1v-38a1 1 0 0 0 -1-1zm-1 38h-36v-36h36z"/>
        <path d="m8 25h2v2h-2z"/>
        <path d="m54 25h2v2h-2z"/>
        <path d="m48 36h-32v6h32zm-2 4h-28v-2h28z"/>
        <path d="m48 26v-12h-32v12zm-6-10h4v8h-4zm-6 0h4v8h-4zm-6 0h4v8h-4zm-6 0h4v8h-4zm-6 0h4v8h-4z"/>
        <path d="m19 34a3 3 0 1 0 -3-3 3 3 0 0 0 3 3zm0-4a1 1 0 1 1 -1 1 1 1 0 0 1 1-1z"/>
        <path d="m25 34a3 3 0 1 0 -3-3 3 3 0 0 0 3 3zm0-4a1 1 0 1 1 -1 1 1 1 0 0 1 1-1z"/>
        <path d="m31 34a3 3 0 1 0 -3-3 3 3 0 0 0 3 3zm0-4a1 1 0 1 1 -1 1 1 1 0 0 1 1-1z"/>
        <path d="m36 32h4v2h-4z"/>
        <path d="m42 32h6v2h-6z"/>
        <path d="m36 28h8v2h-8z"/>
        <path d="m46 28h2v2h-2z"/>
        <path d="m16 10h2v2h-2z"/>
        <path d="m46 10h2v2h-2z"/>
    </symbol>

    <symbol id="services03" role="img" aria-labelledby="services03_title" viewBox="0 0 64 64">
        <title id="services03_title"></title>
        <path d="M32,6A16,16,0,1,0,48,22,16.019,16.019,0,0,0,32,6ZM42.447,18.9l2.8-1.4a13.825,13.825,0,0,1,.706,3.5H43v2h2.949a13.9,13.9,0,0,1-1.132,4.613L41.6,25.2l-1.2,1.6,3.464,2.6a14.054,14.054,0,0,1-1.772,2.28l-2.385-2.385-1.414,1.414,2.313,2.313a13.921,13.921,0,0,1-17.76-.452l1.861-1.861-1.414-1.414-1.861,1.861a14.067,14.067,0,0,1-1.609-2.272L22.6,26.8l-1.2-1.6-2.448,1.836a13.864,13.864,0,0,1-.9-4.036H21V21H18.051a13.825,13.825,0,0,1,.706-3.5l2.8,1.4.894-1.79-2.909-1.454a14.067,14.067,0,0,1,1.894-2.8l1.861,1.861,1.414-1.414-1.861-1.861a13.942,13.942,0,0,1,2.435-1.708l1.887,2.831,1.664-1.11-1.7-2.553A13.827,13.827,0,0,1,31,8.051V11h2V8.051a13.827,13.827,0,0,1,3.87.841l-1.7,2.553,1.664,1.11,1.887-2.831a13.942,13.942,0,0,1,2.435,1.708l-1.861,1.861,1.414,1.414,1.861-1.861a14.067,14.067,0,0,1,1.894,2.805l-2.909,1.454Z"/>
        <path d="M32,2A19.989,19.989,0,0,0,21,38.686V46H20a1,1,0,0,0-1,1v4a1,1,0,0,0,1,1h1v3H20a1,1,0,0,0-1,1v5a1,1,0,0,0,1,1H30a1,1,0,0,0,1-1V56a1,1,0,0,0-1-1H29V52h1a1,1,0,0,0,1-1V47a1,1,0,0,0-1-1H29V41.75a18.125,18.125,0,0,0,6,0V46H34a1,1,0,0,0-1,1v4a1,1,0,0,0,1,1h1v3H34a1,1,0,0,0-1,1v5a1,1,0,0,0,1,1H44a1,1,0,0,0,1-1V56a1,1,0,0,0-1-1H43V52h1a1,1,0,0,0,1-1V47a1,1,0,0,0-1-1H43V38.686A19.989,19.989,0,0,0,32,2ZM29,60H21V57h8Zm-6-5V52h4v3Zm6-5H21V48h8Zm-6-4V39.836a19.845,19.845,0,0,0,4,1.506V46ZM43,60H35V57h8Zm-6-5V52h4v3Zm6-5H35V48h8Zm-6-4V41.342a19.845,19.845,0,0,0,4-1.506V46Zm-5-6A18,18,0,1,1,50,22,18.021,18.021,0,0,1,32,40Z"/>
        <rect x="29" y="29" width="2" height="2"/>
        <rect x="33" y="29" width="2" height="2"/>
        <path d="M37.293,15.293l-4,4-.006.009A2.957,2.957,0,0,0,32,19a3,3,0,0,0-3,3,2.957,2.957,0,0,0,.3,1.287l-.009.006-4,4a1,1,0,1,0,1.414,1.414l4-4,.006-.009A2.957,2.957,0,0,0,32,25a3,3,0,0,0,3-3,2.957,2.957,0,0,0-.3-1.287l.009-.006,4-4a1,1,0,0,0-1.414-1.414ZM32,23a1,1,0,1,1,1-1A1,1,0,0,1,32,23Z"/>
        <path d="M58.87,40.507A1,1,0,0,0,58,40H53a1,1,0,0,0-.874.515l-5,9A1,1,0,0,0,48,51h4v6a1,1,0,0,0,.721.96,1,1,0,0,0,1.123-.423l7-11A1,1,0,0,0,60,45H56.767l2.09-3.485A1,1,0,0,0,58.87,40.507ZM58.179,47,54,53.566V50a1,1,0,0,0-1-1H49.7l3.89-7h2.644l-2.09,3.485A1,1,0,0,0,55,47Z"/>
        <path d="M7.126,34.515l-5,9A1,1,0,0,0,3,45H7v6a1,1,0,0,0,.721.96,1,1,0,0,0,1.123-.423l7-11A1,1,0,0,0,15,39H11.767l2.09-3.485A1,1,0,0,0,13,34H8A1,1,0,0,0,7.126,34.515ZM11.233,36l-2.09,3.485A1,1,0,0,0,10,41h3.179L9,47.566V44a1,1,0,0,0-1-1H4.7l3.89-7Z"/>
    </symbol>

    <symbol id="check" role="img" aria-labelledby="check_title" viewBox="0 0 448 448">
        <title id="check_title"></title>
        <polygon points="341.333,192.96 341.333,381.12 42.667,381.12 42.667,82.453 308.693,82.453 355.627,39.787 0,39.787 0,423.787 
            384,423.787 384,153.707         "/>
        <polygon points="417.493,24.213 186.027,234.56 113.493,162.24 85.333,190.4 187.947,293.013 448,54.08        "/>
    </symbol>

    <symbol id="footer-facebook" role="img" aria-labelledby="footer-facebook_title" viewBox="0 0 512 512">
        <title id="footer-facebook_title">Facebook</title>
        <path d="M314.829,135.492h70.595c11.423,0,20.682-9.26,20.682-20.682V20.682C406.107,9.26,396.848,0,385.425,0h-70.595
            c-76.282,0-138.341,62.06-138.341,138.341v49.913h-49.913c-11.422,0-20.682,9.26-20.682,20.682v94.127
            c0,11.423,9.26,20.682,20.682,20.682h49.913v167.572c0,11.423,9.26,20.682,20.682,20.682h94.127
            c11.423,0,20.682-9.259,20.682-20.682V323.746h49.913c9.49,0,17.763-6.458,20.065-15.666l23.532-94.127
            c1.544-6.179,0.156-12.725-3.763-17.744c-3.919-5.02-9.932-7.954-16.301-7.954H311.98v-49.913
            C311.98,136.77,313.258,135.492,314.829,135.492z M291.298,229.619h67.637l-13.191,52.763h-54.447
            c-11.423,0-20.682,9.259-20.682,20.682v167.572h-52.763V303.064c0-11.423-9.26-20.682-20.682-20.682h-49.913v-52.763h49.913
            c11.422,0,20.682-9.26,20.682-20.682v-70.595c0-53.473,43.503-96.977,96.977-96.977h49.913v52.763h-49.913
            c-24.38,0-44.214,19.835-44.214,44.214v70.595C270.615,220.359,279.875,229.619,291.298,229.619z"/>
    </symbol>

    <symbol id="footer-twitter" role="img" aria-labelledby="footer-twitter_title" viewBox="0 0 512 512">
        <title id="footer-twitter_title">Twitter</title>
        <path d="M502.954,47.189c-7.126-4.852-16.515-4.774-23.559,0.196c-15.351,10.828-31.974,19.528-49.557,25.948
            c-19.253-17.414-43.615-27.826-69.915-29.656c-31.056-2.16-61.081,7.9-84.561,28.326c-25.59,22.259-40.174,54.444-40.046,88.349
            c-85.248-7.609-139.14-61.55-177.09-108.986c-4.598-5.746-11.901-8.619-19.182-7.538c-7.279,1.078-13.438,5.944-16.171,12.777
            c-0.948,2.369-23.141,58.799-17.453,127.057c4.761,57.133,30.23,131.964,120.039,181.717
            c-32.436,14.756-68.282,21.939-103.953,20.519c-9.576-0.378-18.15,5.859-20.736,15.08c-2.587,9.221,1.497,19.013,9.869,23.665
            c51.359,28.532,108.03,43.736,163.889,43.965c0.432,0.002,0.861,0.003,1.294,0.003c54.105-0.001,106.379-13.938,151.246-40.336
            c42.898-25.241,78.416-61.759,102.715-105.603c26.162-47.206,39.427-101.75,39.427-162.186c-0.011-3.544-0.186-7.098-0.52-10.638
            c20.7-22.885,35.388-50.567,42.719-80.667C513.451,60.803,510.081,52.04,502.954,47.189z M432.297,128.07
            c-4.916,4.847-7.088,11.827-5.793,18.607c0.877,4.588,1.329,9.278,1.344,13.874c0,101.956-44.378,186.544-121.756,232.072
            c-60.586,35.649-133.037,43.933-203.609,25.057c0.729-0.201,1.459-0.407,2.185-0.615c27.596-7.885,53.63-20.055,77.377-36.174
            c6.329-4.296,9.77-11.734,8.946-19.34c-0.825-7.605-5.778-14.134-12.881-16.975C97.757,312.434,53.563,257.594,46.757,181.575
            c-2.536-28.334,0.707-54.721,4.766-74.501c16.638,17.909,37.384,37.227,62.129,53.407c42.771,27.966,90.663,42.146,142.346,42.146
            c11.423,0,20.682-9.26,20.682-20.682v-21.393c0-0.045,0-0.091,0-0.137c-0.146-21.948,9.268-42.797,25.829-57.202
            c15.146-13.175,34.51-19.665,54.543-18.27c20.026,1.393,38.311,10.502,51.487,25.648c5.339,6.138,13.783,8.577,21.567,6.229
            c5.725-1.724,11.375-3.645,16.941-5.757C442.599,117.081,437.672,122.769,432.297,128.07z"/>
    </symbol>    

    <symbol id="footer-linkedin" role="img" aria-labelledby="footer-linkedin_title" viewBox="0 0 512 512">
        <title id="footer-linkedin_title">Linkedin</title>
        <path d="M2.5,510V153.7h137.3V510H2.5z M102.5,472.7V191H39.8v281.7H102.5z"/>
        <path d="M375.4,510l0.1-158.1c0.5-23.6-8.8-42.9-24.9-51.7c-5.4-3-11.2-4.5-17.3-4.5c-5.2,0-10.4,1.1-15.5,3.3l-1.1,211H176.1
            V153.7h140.6V166c16.6-6,33.6-9.1,50.6-9.1c24.7,0,48.3,6.4,70.2,18.9c44,25.2,72.5,71.8,72.5,118.8V510H375.4z M472.7,472.7V294.6
            c0-33.8-21.1-67.7-53.7-86.4c-15.9-9.1-33.8-13.9-51.7-14h-0.3c-20.1,0-40.1,5.8-59.6,17.3L279.4,228V191h-66.1v281.7h66.2l1-194.7
            l8.2-5.5c13.7-9.2,29.1-14.1,44.5-14.1c12.4,0,24.2,3,35.1,9c13.7,7.5,25,19.2,32.8,33.8c7.9,14.9,11.9,32.6,11.5,51.1l0,120.3
            H472.7z"/>
        <path d="M70.9,139.9C32.9,139.9,2,109,2,71c0-38,30.9-69,68.9-69c38,0,68.9,30.9,68.9,69C139.8,109,108.9,139.9,70.9,139.9z
             M70.9,39.3c-17.4,0-31.6,14.2-31.6,31.7c0,17.5,14.2,31.7,31.6,31.7c17.4,0,31.6-14.2,31.6-31.7C102.5,53.5,88.3,39.3,70.9,39.3z"
            />
    </symbol>

    <symbol id="footer-instagram" role="img" aria-labelledby="footer-instagram_title" viewBox="0 0 512 512">
        <title id="footer-instagram_title">Instagram</title>
        <path d="M373.659,0H138.341C62.06,0,0,62.06,0,138.341v235.318C0,449.94,62.06,512,138.341,512h235.318
            C449.94,512,512,449.94,512,373.659V138.341C512,62.06,449.94,0,373.659,0z M470.636,373.659
            c0,53.473-43.503,96.977-96.977,96.977H138.341c-53.473,0-96.977-43.503-96.977-96.977V138.341
            c0-53.473,43.503-96.977,96.977-96.977h235.318c53.473,0,96.977,43.503,96.977,96.977V373.659z"/>
        <path d="M370.586,238.141c-3.64-24.547-14.839-46.795-32.386-64.342c-17.547-17.546-39.795-28.746-64.341-32.385
            c-11.176-1.657-22.507-1.657-33.682,0c-30.336,4.499-57.103,20.541-75.372,45.172c-18.269,24.631-25.854,54.903-21.355,85.237
            c4.499,30.335,20.541,57.102,45.172,75.372c19.996,14.831,43.706,22.619,68.153,22.619c5.667,0,11.375-0.418,17.083-1.265
            c30.336-4.499,57.103-20.541,75.372-45.172C367.5,298.747,375.085,268.476,370.586,238.141z M267.791,327.632
            c-19.405,2.882-38.77-1.973-54.527-13.66c-15.757-11.687-26.019-28.811-28.896-48.216c-2.878-19.405,1.973-38.77,13.66-54.527
            c11.688-15.757,28.811-26.019,48.217-28.897c3.574-0.53,7.173-0.795,10.772-0.795s7.199,0.265,10.773,0.796
            c32.231,4.779,57.098,29.645,61.878,61.877C335.608,284.268,307.851,321.692,267.791,327.632z"/>
        <path d="M400.049,111.951c-3.852-3.851-9.183-6.058-14.625-6.058c-5.442,0-10.773,2.206-14.625,6.058
            c-3.851,3.852-6.058,9.174-6.058,14.625c0,5.451,2.207,10.773,6.058,14.625c3.852,3.851,9.183,6.058,14.625,6.058
            c5.442,0,10.773-2.206,14.625-6.058c3.851-3.852,6.058-9.183,6.058-14.625C406.107,121.133,403.9,115.802,400.049,111.951z"/>
    </symbol>

    <symbol id="footer-phone" role="img" aria-labelledby="footer-phone_title" viewBox="0 0 512 512">
        <title id="footer-phone_title"></title>
        <path d="M421.216,195.504c-5.092-26.101-17.723-49.836-36.526-68.64c-18.804-18.803-42.54-31.434-68.641-36.527
			c-11.21-2.189-22.073,5.128-24.261,16.339c-2.187,11.212,5.128,22.073,16.339,24.26c36.847,7.188,65.3,35.642,72.489,72.489
			c1.927,9.874,10.581,16.726,20.278,16.726c1.313,0,2.645-0.125,3.984-0.387C416.088,217.577,423.403,206.715,421.216,195.504z"/>
		<path d="M511.422,196.929c-5.629-50.096-28.373-97.304-64.042-132.927C411.712,28.378,364.475,5.694,314.371,0.128
			c-11.355-1.261-21.578,6.92-22.839,18.272c-1.261,11.353,6.919,21.578,18.272,22.84c84.961,9.438,150.966,75.36,160.512,160.31
			c1.188,10.566,10.139,18.374,20.527,18.374c0.771,0,1.552-0.043,2.336-0.131C504.53,218.516,512.698,208.281,511.422,196.929z"/>
		<path d="M432.59,312.566c-0.062-0.008-0.124-0.017-0.186-0.025c-20.013-2.639-39.751-7.557-58.619-14.596
			c-23.91-8.99-51.103-3.191-69.27,14.772c-0.028,0.028-0.056,0.055-0.083,0.083l-17.148,17.148
			c-42.633-26.924-78.756-63.047-105.679-105.679l17.149-17.149c0.027-0.028,0.054-0.055,0.082-0.083
			c17.964-18.166,23.762-45.356,14.79-69.223c-7.057-18.914-11.974-38.653-14.614-58.666c-0.007-0.063-0.017-0.127-0.026-0.19
			c-4.591-32.478-32.782-56.734-65.548-56.467H66.053c-1.943,0.002-3.912,0.091-5.853,0.267
			C24.143,26.016-2.541,58.001,0.718,94.058c0.01,0.108,0.02,0.215,0.032,0.323c7.684,72.354,32.649,142.88,72.197,203.955
			c35.892,56.461,84.701,105.269,141.162,141.164c60.792,39.406,130.99,64.369,203.013,72.196c0.127,0.015,0.254,0.027,0.38,0.038
			c1.961,0.176,3.949,0.266,5.921,0.266c0.083,0,0.165,0,0.247,0.001c36.204-0.148,65.538-29.722,65.391-65.841v-67.233
			C489.746,345.714,465.515,317.211,432.59,312.566z M447.698,378.695v67.548c0.055,13.396-10.8,24.338-24.19,24.393
			c-0.715-0.004-1.425-0.027-2.135-0.086c-65.578-7.161-129.488-29.914-184.837-65.808c-0.053-0.035-0.107-0.069-0.161-0.103
			c-51.429-32.68-95.885-77.137-128.565-128.565c-0.032-0.051-0.064-0.101-0.097-0.153C71.683,220.306,48.928,156.086,41.902,90.193
			C40.779,76.91,50.63,65.155,63.923,63.954c0.717-0.064,1.443-0.098,2.145-0.098h67.463c0.146-0.001,0.294-0.003,0.443-0.002
			c12.021,0,22.322,8.905,24.044,20.819c3.05,23.063,8.721,45.806,16.871,67.649c3.319,8.832,1.189,18.869-5.427,25.591
			l-28.517,28.517c-6.583,6.582-7.956,16.753-3.354,24.847c33.837,59.508,83.177,108.847,142.685,142.685
			c8.094,4.6,18.264,3.23,24.848-3.355l28.512-28.512c6.72-6.621,16.765-8.752,25.642-5.415
			c21.799,8.134,44.547,13.805,67.61,16.855c12.18,1.757,21.122,12.339,20.816,24.647
			C447.7,378.353,447.698,378.524,447.698,378.695z"/>
    </symbol>    

	<symbol id="footer-mail" role="img" aria-labelledby="footer-mail_title" viewBox="0 0 512 512">
        <title id="footer-mail_title"></title>
        <path d="M256,141.176c-63.306,0-114.809,51.503-114.809,114.809S192.694,370.795,256,370.795s114.809-51.503,114.809-114.809
			S319.306,141.176,256,141.176z M256,329.43c-40.498,0-73.445-32.947-73.445-73.445c0-40.498,32.947-73.445,73.445-73.445
			c40.499,0,73.445,32.947,73.445,73.445C329.445,296.483,296.499,329.43,256,329.43z"/>
		<path d="M437.008,74.97C388.656,26.623,324.375,0,256,0c-0.005,0-0.013,0-0.017,0C187.603,0.004,123.318,26.637,74.97,74.992
			C26.62,123.347-0.005,187.637,0,256.017c0.004,68.379,26.637,132.666,74.992,181.014C123.344,485.377,187.625,512.001,256,512
			c0.004,0,0.012,0,0.017,0c55.945-0.004,111.216-18.738,155.631-52.752c9.07-6.945,10.792-19.927,3.846-28.995
			c-6.945-9.069-19.926-10.794-28.995-3.846c-37.24,28.518-83.58,44.224-130.486,44.228c-0.006,0-0.006,0-0.014,0
			c-57.324,0-111.224-22.324-151.761-62.856c-40.542-40.536-62.871-94.435-62.875-151.766
			C41.357,137.663,137.636,41.372,255.986,41.364c0.007,0,0.006,0,0.014,0c118.34,0,214.628,96.279,214.636,214.622v23.532
			c0,27.523-22.39,49.913-49.913,49.913c-27.523,0-49.913-22.391-49.913-49.913v-23.532c0-11.422-9.259-20.682-20.682-20.682
			s-20.682,9.26-20.682,20.682v23.532c0,50.33,40.947,91.278,91.278,91.278S512,329.848,512,279.518v-23.534
			C511.995,187.604,485.362,123.318,437.008,74.97z"/>
    </symbol>

    <symbol id="footer-location" role="img" aria-labelledby="footer-location_title" viewBox="0 0 512 512">
        <title id="footer-location_title"></title>
        <path d="M406.766,62.449C366.495,22.178,312.951,0,256,0S145.505,22.178,105.234,62.449
			c-40.272,40.271-62.449,93.814-62.449,150.766c0,37.656,10.972,76.863,32.609,116.532c16.825,30.846,40.15,62.102,69.326,92.898
			c49.17,51.903,97.763,84.519,99.808,85.881C248.001,510.842,252,512,256,512c4,0,7.999-1.158,11.473-3.474
			c2.045-1.363,50.638-33.978,99.808-85.881c29.176-30.795,52.501-62.051,69.326-92.898c21.637-39.669,32.609-78.876,32.609-116.532
			C469.215,156.263,447.038,102.72,406.766,62.449z M256.001,465.903C215.826,436.156,84.15,329.739,84.15,213.215
			c0-94.759,77.091-171.851,171.85-171.851s171.85,77.092,171.851,171.851C427.851,329.748,296.159,436.168,256.001,465.903z"/>
		<path d="M256,128.355c-46.791,0-84.86,38.068-84.86,84.86c0,46.791,38.068,84.86,84.86,84.86c46.792,0,84.861-38.068,84.86-84.86
			C340.86,166.423,302.791,128.355,256,128.355z M256,256.71c-23.983,0-43.495-19.512-43.495-43.495
			c0-23.983,19.512-43.495,43.495-43.495c23.984,0,43.495,19.512,43.495,43.495C299.495,237.198,279.984,256.71,256,256.71z"/>
		</symbol>

	<symbol id="footer-time" role="img" aria-labelledby="footer-time_title" viewBox="0 0 512 512">
        <title id="footer-time_title"></title>
        <path d="M437.019,74.981C388.667,26.629,324.38,0,256,0S123.333,26.63,74.981,74.981S0,187.62,0,256
			s26.629,132.667,74.981,181.019C123.332,485.371,187.62,512,256,512s132.667-26.629,181.019-74.981
			C485.371,388.667,512,324.38,512,256S485.371,123.332,437.019,74.981z M256,470.636C137.65,470.636,41.364,374.35,41.364,256
			S137.65,41.364,256,41.364S470.636,137.65,470.636,256S374.35,470.636,256,470.636z"/>
		<path d="M341.221,311.97l-64.538-64.537V114.809c0-11.422-9.259-20.682-20.682-20.682c-11.422,0-20.682,9.26-20.682,20.682V256
			c0,5.486,2.179,10.746,6.058,14.625l70.594,70.595c4.038,4.039,9.332,6.058,14.625,6.058c5.293,0,10.586-2.019,14.626-6.058
			C349.297,333.142,349.297,320.047,341.221,311.97z"/>
	</symbol>

</svg>