<svg xmlns="http://www.w3.org/2000/svg" xmlns:xlink="http://www.w3.org/1999/xlink">

	<symbol id="warning01" role="img" aria-labelledby="warning01_title" viewBox="0 0 310.285 310.285">
        <title id="warning01_title"></title>
		<path d="M264.845,45.441C235.542,16.139,196.583,0,155.142,0C113.702,0,74.743,16.139,45.44,45.441
			C16.138,74.743,0,113.703,0,155.144c0,41.439,16.138,80.399,45.44,109.701c29.303,29.303,68.262,45.44,109.702,45.44
			c41.44,0,80.399-16.138,109.702-45.44c29.303-29.302,45.44-68.262,45.44-109.701C310.285,113.703,294.147,74.743,264.845,45.441z
			 M132.172,49.336c2.399-2.483,5.637-3.873,9.119-3.873h28.04c3.482,0,6.72,1.403,9.114,3.888c2.395,2.485,3.643,5.804,3.514,9.284
			l-4.634,104.895c-0.263,7.102-6.26,12.933-13.368,12.933h-17.627c-7.112,0-13.099-5.839-13.345-12.945L128.64,58.594
			C128.519,55.114,129.773,51.821,132.172,49.336z M155.478,268.78c-16.266,0-28.532-12.844-28.532-29.876
			c0-17.223,12.122-30.211,28.196-30.211c16.602,0,28.196,12.423,28.196,30.211C183.339,256.495,171.882,268.78,155.478,268.78z"/>
    </symbol>
  
    <symbol id="tickets01" role="img" aria-labelledby="tickets01_title" viewBox="0 0 512 512">
        <title id="tickets01_title"></title>
		<path d="M352.459,220c0-11.046-8.954-20-20-20h-206c-11.046,0-20,8.954-20,20s8.954,20,20,20h206
			C343.505,240,352.459,231.046,352.459,220z"/>
		<path d="M126.459,280c-11.046,0-20,8.954-20,20c0,11.046,8.954,20,20,20H251.57c11.046,0,20-8.954,20-20c0-11.046-8.954-20-20-20
			H126.459z"/>
		<path d="M173.459,472H106.57c-22.056,0-40-17.944-40-40V80c0-22.056,17.944-40,40-40h245.889c22.056,0,40,17.944,40,40v123
			c0,11.046,8.954,20,20,20c11.046,0,20-8.954,20-20V80c0-44.112-35.888-80-80-80H106.57c-44.112,0-80,35.888-80,80v352
			c0,44.112,35.888,80,80,80h66.889c11.046,0,20-8.954,20-20C193.459,480.954,184.505,472,173.459,472z"/>
		<path d="M467.884,289.572c-23.394-23.394-61.458-23.395-84.837-0.016l-109.803,109.56c-2.332,2.327-4.052,5.193-5.01,8.345
			l-23.913,78.725c-2.12,6.98-0.273,14.559,4.821,19.78c3.816,3.911,9,6.034,14.317,6.034c1.779,0,3.575-0.238,5.338-0.727
			l80.725-22.361c3.322-0.92,6.35-2.683,8.79-5.119l109.573-109.367C491.279,351.032,491.279,312.968,467.884,289.572z
			 M333.776,451.768l-40.612,11.25l11.885-39.129l74.089-73.925l28.29,28.29L333.776,451.768z M439.615,346.13l-3.875,3.867
			l-28.285-28.285l3.862-3.854c7.798-7.798,20.486-7.798,28.284,0C447.399,325.656,447.399,338.344,439.615,346.13z"/>
		<path d="M332.459,120h-206c-11.046,0-20,8.954-20,20s8.954,20,20,20h206c11.046,0,20-8.954,20-20S343.505,120,332.459,120z"/>
    </symbol>

    <symbol id="tickets02" role="img" aria-labelledby="tickets02_title" viewBox="0 0 512 512">
        <title id="tickets02_title"></title>
		<path d="M352.5,220c0-11-9-20-20-20h-206c-11,0-20,9-20,20s9,20,20,20h206C343.5,240,352.5,231,352.5,220z"/>
		<path d="M126.5,280c-11,0-20,9-20,20s9,20,20,20h125.1c11,0,20-9,20-20s-9-20-20-20H126.5z"/>
		<path d="M173.5,472h-66.9c-22.1,0-40-17.9-40-40V80c0-22.1,17.9-40,40-40h245.9c22.1,0,40,17.9,40,40v123c0,11,9,20,20,20
			s20-9,20-20V80c0-44.1-35.9-80-80-80H106.6c-44.1,0-80,35.9-80,80v352c0,44.1,35.9,80,80,80h66.9c11,0,20-9,20-20
			S184.5,472,173.5,472z"/>
		<path d="M332.5,120h-206c-11,0-20,9-20,20s9,20,20,20h206c11,0,20-9,20-20S343.5,120,332.5,120z"/>
		<path d="M257.7,505.9c3.8,3.8,8.8,5.7,13.9,5.7c5,0,10-1.9,13.8-5.7l58.1-58.1c14.9,9.5,32,14.3,49,14.3c23.3,0,46.6-8.9,64.4-26.6
			c35.5-35.5,35.5-93.3,0-128.8c-35.5-35.5-93.3-35.5-128.8,0c-30.8,30.8-34.9,78.2-12.3,113.4l-58.1,58.1
			C250,485.9,250,498.3,257.7,505.9z M355.9,334.3c20.2-20.2,53.2-20.2,73.4,0c20.2,20.2,20.2,53.2,0,73.4
			c-20.2,20.2-53.2,20.2-73.4,0C335.6,387.5,335.6,354.6,355.9,334.3z"/>
    </symbol>

    <symbol id="link02" role="img" aria-labelledby="link02_title" viewBox="0 0 444.819 444.819">
        <title id="link02_title"></title>
		<path d="M352.025,196.712L165.884,10.848C159.029,3.615,150.469,0,140.187,0c-10.282,0-18.842,3.619-25.697,10.848L92.792,32.264
		c-7.044,7.043-10.566,15.604-10.566,25.692c0,9.897,3.521,18.56,10.566,25.981l138.753,138.473L92.786,361.168
		c-7.042,7.043-10.564,15.604-10.564,25.693c0,9.896,3.521,18.562,10.564,25.98l21.7,21.413
		c7.043,7.043,15.612,10.564,25.697,10.564c10.089,0,18.656-3.521,25.697-10.564l186.145-185.864
		c7.046-7.423,10.571-16.084,10.571-25.981C362.597,212.321,359.071,203.755,352.025,196.712z"/>
    </symbol>

    <symbol id="link01" role="img" aria-labelledby="link01_title" viewBox="0 0 512 512">
        <title id="link01_title"></title>
		<path d="M256,0C114.6,0,0,114.6,0,256s114.6,256,256,256s256-114.6,256-256S397.4,0,256,0z M256,471c-118.7,0-215-96.3-215-215
			S137.3,41,256,41s215,96.3,215,215S374.7,471,256,471z"/>
		<path d="M266.8,376.1c3.9,3.9,9,5.9,14.2,5.9c5.1,0,10.2-1.9,14.1-5.8l78.2-77.7c11.4-11.3,17.7-26.4,17.7-42.5s-6.3-31.1-17.7-42.5
			l-78.2-77.7c-7.8-7.8-20.5-7.7-28.3,0.1c-7.8,7.8-7.7,20.5,0.1,28.3l72.3,71.8H132c-11,0-20,9-20,20s9,20,20,20h207.2l-72.3,71.8
			C259.1,355.6,259,368.3,266.8,376.1z"/>
    </symbol>

</svg>