<svg xmlns="http://www.w3.org/2000/svg" xmlns:xlink="http://www.w3.org/1999/xlink">

    <symbol id="home-apple" role="img" aria-labelledby="home-apple_title" viewBox="0 0 22.773 22.773">
        <title id="home-apple_title"></title>
        <path d="M15.769,0c0.053,0,0.106,0,0.162,0c0.13,1.606-0.483,2.806-1.228,3.675c-0.731,0.863-1.732,1.7-3.351,1.573
            c-0.108-1.583,0.506-2.694,1.25-3.561C13.292,0.879,14.557,0.16,15.769,0z"/>
        <path d="M20.67,16.716c0,0.016,0,0.03,0,0.045c-0.455,1.378-1.104,2.559-1.896,3.655c-0.723,0.995-1.609,2.334-3.191,2.334
            c-1.367,0-2.275-0.879-3.676-0.903c-1.482-0.024-2.297,0.735-3.652,0.926c-0.155,0-0.31,0-0.462,0
            c-0.995-0.144-1.798-0.932-2.383-1.642c-1.725-2.098-3.058-4.808-3.306-8.276c0-0.34,0-0.679,0-1.019
            c0.105-2.482,1.311-4.5,2.914-5.478c0.846-0.52,2.009-0.963,3.304-0.765c0.555,0.086,1.122,0.276,1.619,0.464
            c0.471,0.181,1.06,0.502,1.618,0.485c0.378-0.011,0.754-0.208,1.135-0.347c1.116-0.403,2.21-0.865,3.652-0.648
            c1.733,0.262,2.963,1.032,3.723,2.22c-1.466,0.933-2.625,2.339-2.427,4.74C17.818,14.688,19.086,15.964,20.67,16.716z"/>
    </symbol>

    <symbol id="home-playstore" role="img" aria-labelledby="home-playstore_title" viewBox="0 0 512 512">
        <title id="home-playstore_title"></title>
        <path d="M99.617,8.057C87.953,0.52,73.943-1.758,60.802,1.344l230.932,230.933l74.846-74.846L99.617,8.057z"/>
        <path d="M32.139,20.116c-6.441,8.563-10.148,19.077-10.148,30.199v411.358c0,11.123,3.708,21.636,10.148,30.199l235.877-235.877
            L32.139,20.116z"/>
        <path d="M464.261,212.087l-67.266-37.637l-81.544,81.544l81.548,81.548l67.273-37.64c16.117-9.03,25.738-25.442,25.738-43.908
            S480.389,221.117,464.261,212.087z"/>
        <path d="M291.733,279.711L60.815,510.629c3.786,0.891,7.639,1.371,11.492,1.371c9.522,0,19.011-2.708,27.31-8.07l266.965-149.372
            L291.733,279.711z"/>
    </symbol>

    <symbol id="home-youtube" role="img" aria-labelledby="home-youtube_title" viewBox="0 0 512 512">
        <title id="home-youtube_title"></title>
        <path d="M437,61H75C33.6,61,0,94.6,0,136v240c0,41.4,33.6,75,75,75h362c41.4,0,75-33.6,75-75V136C512,94.6,478.4,61,437,61z    M338.5,268.9l-135,77.699c-4.816,2.41-10.179,2.412-15,0c-4.501-2.699-7.5-7.798-7.5-13.2V181c0-5.4,2.701-10.201,7.5-12.9   c4.501-2.701,10.201-2.701,14.7-0.3l135,75c4.801,2.699,7.8,7.8,7.8,13.2S343.299,266.199,338.5,268.9z M211,307.599l89.399-51.299   L211,206.499V307.599z"/>
    </symbol>

    <symbol id="check" role="img" aria-labelledby="check_title" viewBox="0 0 448 448">
        <title id="check_title"></title>
        <polygon points="341.333,192.96 341.333,381.12 42.667,381.12 42.667,82.453 308.693,82.453 355.627,39.787 0,39.787 0,423.787 
            384,423.787 384,153.707         "/>
        <polygon points="417.493,24.213 186.027,234.56 113.493,162.24 85.333,190.4 187.947,293.013 448,54.08        "/>
    </symbol>

	<symbol id="services01" role="img" aria-labelledby="services01_title" viewBox="0 0 512 512">
        <title id="services01_title"></title>
        <path fill="#EB5134" d="M512,256c0,141.4-114.6,256-256,256S0,397.4,0,256S114.6,0,256,0S512,114.6,512,256z"/>
        <path fill="#BD3D20" d="M512,256c0-2.9-0.1-5.8-0.2-8.8l-78.4-78.4l-21.2,34.6L315.7,107l-43,47.2l-59.1-59.1l-3.9,9.9l-33.5-33.5
            l-47.4,55.8l-12.5,47l47.5,47.5l-54.9,31.8l69.7,69.7l-99.4,81.1l94,94c26,8.9,53.8,13.7,82.8,13.7C397.4,512,512,397.4,512,256z"/>
        <path fill="#FFFFFF" d="M433.4,168.8l-119.9,11.3l2.9,31l66.2-6.3l-93.4,99.7l-76.4-40.6L79.2,361.8v42.5L218,301.9l77.8,41.3
            l111.6-119.3l6.4,67.7l31-2.9L433.4,168.8z"/>
        <path fill="#E9EDF5" d="M433.4,168.8l-119.9,11.3l2.9,31l66.2-6.3l-93.4,99.7l-33.6-17.8v35.2l40.1,21.3l111.6-119.3l6.4,67.7l31-2.9
            L433.4,168.8z"/>
        <path fill="#FFC612" d="M324.3,130.7c0,20.5-16.6,37.1-37.1,37.1S250,151.2,250,130.7s16.6-37.1,37.1-37.1S324.3,110.2,324.3,130.7z"/>
        <path fill="#FFAA00" d="M324.3,130.7c0-20.5-16.6-37.1-37-37.1v74.3C307.7,167.8,324.3,151.2,324.3,130.7z"/>
        <path fill="#FFB115" d="M310.9,130.7c0,13.1-10.6,23.7-23.7,23.7s-23.7-10.6-23.7-23.7S274,107,287.1,107S310.9,117.6,310.9,130.7z"/>
        <path fill="#FFA017" d="M310.9,130.7c0-13.1-10.6-23.7-23.6-23.7v47.4C300.3,154.4,310.9,143.8,310.9,130.7z"/>
        <path fill="#FFC612" d="M402.7,364.4c0,20.5-16.6,37.1-37.1,37.1c-20.5,0-37.1-16.6-37.1-37.1s16.6-37.1,37.1-37.1
            C386,327.3,402.7,343.9,402.7,364.4z"/>
        <path fill="#FFAA00" d="M365.5,327.3c-0.1,0-0.2,0-0.3,0v74.3c0.1,0,0.2,0,0.3,0c20.5,0,37.1-16.6,37.1-37.1S386,327.3,365.5,327.3z"/>
        <path fill="#FFB115" d="M389.2,364.4c0,13.1-10.6,23.7-23.7,23.7s-23.7-10.6-23.7-23.7s10.6-23.7,23.7-23.7S389.2,351.3,389.2,364.4z"
            />
        <path fill="#FFA017" d="M365.5,340.7c-0.1,0-0.2,0-0.3,0v47.4c0.1,0,0.2,0,0.3,0c13.1,0,23.7-10.6,23.7-23.7S378.6,340.7,365.5,340.7z"
            />
        <path fill="#FFC612" d="M268.9,390.2c0,27.3-22.2,49.5-49.5,49.5s-49.5-22.2-49.5-49.5s22.2-49.5,49.5-49.5S268.9,362.9,268.9,390.2z"
            />
        <path fill="#FFAA00" d="M268.9,390.2c0-27.3-22.1-49.5-49.5-49.5v99C246.7,439.7,268.9,417.5,268.9,390.2z"/>
        <path fill="#FFB115" d="M251,390.2c0,17.5-14.2,31.6-31.6,31.6s-31.6-14.2-31.6-31.6s14.2-31.6,31.6-31.6S251,372.8,251,390.2z"/>
        <path fill="#FFA017" d="M251,390.2c0-17.4-14.1-31.6-31.6-31.6v63.2C236.9,421.8,251,407.7,251,390.2z"/>
        <path fill="#FFEB97" d="M218.5,206.6c0-24.3-18.5-44.3-42.2-46.7v-34.8h37.4v-30h-37.4V71.5h-30v23.9c-23.6,2.4-42.2,22.4-42.2,46.7
            v0.6c0,24.3,18.5,44.3,42.2,46.7v34.1h-37.4v30h37.4v23.6h30v-23.9C199.9,250.9,218.5,230.9,218.5,206.6z M134.1,142.7v-0.6
            c0-7.7,5.1-14.2,12.2-16.2V159C139.3,156.9,134.1,150.4,134.1,142.7z M176.3,222.9v-32.5c7,2.1,12.2,8.6,12.2,16.2
            C188.5,214.3,183.3,220.8,176.3,222.9z"/>
        <path fill="#F4DD7D" d="M176.3,159.9v-34.8h37.4v-30h-37.4V71.5h-15.2v205.7h15.2v-23.9c23.6-2.4,42.2-22.4,42.2-46.7
            C218.5,182.4,199.9,162.3,176.3,159.9z M176.3,222.9v-32.5c7,2.1,12.2,8.6,12.2,16.2C188.5,214.3,183.3,220.8,176.3,222.9z"/>
    </symbol>

    <symbol id="services02" role="img" aria-labelledby="services02_title" viewBox="0 0 512 512">
        <title id="services02_title"></title>
        <path fill="#EB5134" d="M512,256.3c0,0.3,0,0.6,0,1c0,0.3,0,0.7,0,1c0,1,0,2,0,2.9c-0.1,3.5-0.2,7-0.4,10.4c0,0.4-0.1,0.8-0.1,1.3
            c-0.1,1.5-0.2,3-0.3,4.5c-8.9,108-84.9,197-186.1,225.3c-0.1,0-0.2,0.1-0.2,0.1c-3.2,0.9-6.5,1.7-9.8,2.5c-0.3,0.1-0.6,0.1-0.9,0.2
            c-4.6,1.1-9.2,2-13.8,2.8c-10.1,1.8-20.5,2.9-31,3.5c-0.6,0-1.2,0.1-1.9,0.1c-0.3,0-0.7,0-1,0c-3.5,0.2-7.1,0.2-10.7,0.2
            c-12.6,0-24.9-0.9-37-2.7c-4.3-0.6-8.6-1.4-12.8-2.2c-0.2-0.1-0.5-0.1-0.7-0.1c-12.9-2.6-25.5-6.2-37.6-10.6
            c-3.5-1.3-7-2.7-10.4-4.1C64.8,453.5-0.1,362.2,0,255.7C0.1,114.4,114.9-0.1,256.3,0c119.1,0.1,219.1,81.5,247.6,191.6
            c0.3,1.3,0.7,2.7,1,4c0.7,2.9,1.3,5.8,1.9,8.7c0.4,1.9,0.8,3.9,1.1,5.8c0.1,0.6,0.2,1.2,0.3,1.7c1.1,6.5,2,13.1,2.6,19.8
            c0.4,4.4,0.7,8.9,0.9,13.4C511.9,248.8,512,252.5,512,256.3z"/>
        <path fill="#BD3D20" d="M511.1,276.3c-8.9,108-84.9,197-186.1,225.3L256,434.1l100.4-312.4L511.1,276.3z"/>
        <path fill="#FFBF00" d="M368.3,285.4c14.8-21.7,23.2-48,22.7-76.2c-1.4-71.2-60.6-129-133-130c-75.5-1.1-137,58.7-137,132.6
            c0,27.2,8.4,52.6,22.7,73.6L256,434.1L368.3,285.4z"/>
        <path fill="#EBB200" d="M368.3,285.4L256,434.1v-355c0.7,0,1.3,0,2,0c72.4,1,131.6,58.9,133,130C391.6,237.4,383.1,263.6,368.3,285.4z"
            />
        <path fill="#FFFFFF" d="M356,208.1c0,55.2-44.8,100-100,100c-55.2,0-100-44.8-100-100c0-55.2,44.8-100,100-100
            C311.3,108.1,356,152.9,356,208.1z"/>
        <path fill="#EBF6FC" d="M356,208.1c0,55.2-44.8,100-100,100v-200C311.3,108.1,356,152.9,356,208.1z"/>
        <path fill="#00EE84" d="M250.5,245.8V213c-10.2-2.9-17.7-7.3-22.5-13.2c-7.6-9.4-9.4-23.6-4.6-34.7c1.3-3.1,3.2-5.9,5.5-8.3
            c5.4-5.8,12.6-9.2,21.5-10V139h11.3v7.7c8.3,1,14.9,3.8,19.8,8.5c4.9,4.7,8,10.9,9.4,18.7l-19.8,2.6c-1.2-6.1-4.3-10.3-9.4-12.5
            v30.5c5.3,1.4,10.6,3.2,15.5,5.7c3.6,1.8,7,4.1,9.7,7.1c7,7.9,8.4,19.5,6.3,29.6c-1.2,5.7-3.8,11-7.7,15.4
            c-5.7,6.5-13.6,10.4-23.8,11.9v14.6h-11.3v-14.2c-6.7-0.8-13.3-3.1-18.7-7.2c-5-3.9-8.7-9.1-11-14.9c-1.5-3.8-2.4-7.7-3-11.7
            l20.4-2.2c0.8,4.2,2.4,7.8,4.7,10.8C245.2,242.2,247.7,244.4,250.5,245.8z M250.5,163.7c-3.1,1-5.5,2.8-7.3,5.3
            c-3.5,4.8-3.6,11.1-0.2,16c1.7,2.4,4.2,4.3,7.6,5.7V163.7z M261.9,246.9c3.9-0.7,7.1-2.5,9.5-5.4c4.5-5.3,5.1-13.7,0.6-19.2
            c-2.1-2.5-5.4-4.5-10.1-5.8V246.9z"/>
        <path fill="#00CD71" d="M287.1,207.3c-2.7-3-6.1-5.3-9.7-7.1c-4.9-2.5-10.2-4.3-15.5-5.7V164c5.1,2.2,8.2,6.4,9.4,12.5l19.8-2.6
            c-1.4-7.8-4.5-14.1-9.4-18.7c-4.9-4.7-11.5-7.5-19.8-8.5V139H256v139.8h5.8v-14.6c10.2-1.5,18.1-5.4,23.8-11.9
            c3.9-4.4,6.5-9.7,7.7-15.4C295.5,226.8,294,215.2,287.1,207.3z M271.4,241.4c-2.4,2.9-5.6,4.7-9.5,5.4v-30.5
            c4.7,1.4,8.1,3.3,10.1,5.8C276.5,227.7,275.9,236.1,271.4,241.4z"/>
    </symbol>

    <symbol id="services03" role="img" aria-labelledby="services03_title" viewBox="0 0 512 512">
        <title id="services03_title"></title>
        <path fill="#EB5134" d="M512,256c0,141.4-114.6,256-256,256S0,397.4,0,256S114.6,0,256,0S512,114.6,512,256z"/>
        <path fill="#BD3D20" d="M267.3,511.7C403.4,505.8,512,393.6,512,256c0-1.3,0-2.5,0-3.8L382.3,122.6l-23.6,23.6l39.4,39.4l-7,7L271,72.3
            l-30,33.3l30,30v51.6l-41.1-41.1l-17.3,27l-48.2-48.2l-21.2,21.2l125.5,125.5L96.3,340.7L267.3,511.7z"/>
        <path fill="#FFEEE5" d="M329,269c-11.2,0.1-20.3,9.3-20.3,20.5V350c0,0,0,0,0,0l-5.9,0.4c-27.2,1.9-49.1,22.8-53.1,49.1l-12.9,0.1
            c3.8-31.1,28-56.4,59.1-61.3c0,0,0,0,0,0v-49.5c0-0.5,0-1,0-1.5c0.7-12.4,11.7-27.5,24.2-27.6c0.2,0,0.1-83.6,0-109.7
            c0-8.6-7-15.5-15.5-15.5h0c-8.6,0-15.5,6.9-15.5,15.5v116.3h-10.5V138.9c0-8.6-6.9-15.5-15.5-15.5H262c-8.6,0-15.5,6.9-15.5,15.5
            l0,136.4h-10.5l0-116.9c0-8.6-6.9-15.5-15.5-15.5h-1.1c-8.6,0-15.5,6.9-15.5,15.5v128h-10.5v-91.6c0-8.6-6.9-15.5-15.5-15.5
            c-8.6,0-15.5,6.9-15.5,15.5l0,207.9h0.2c1.7,19.6,13.2,36.4,29.5,45.6c0,0,0,0,0,0c0,0,0,22.5,0,55.5c20.5,5.3,41.9,8.1,64,8.1
            c22.2,0,43.7-2.8,64.2-8.1c0-30.5,0-52.8,0-52.8c0,0,0,0,0,0c17.4-7.8,29.6-25.3,29.6-45.6V289.5C349.8,278.1,340.5,268.9,329,269z"
            />
        <path fill="#FFDECF" d="M295.9,338.4C296,338.4,296,338.3,295.9,338.4l0-49.6c0-0.5,0-1,0-1.5c0.7-12.4,11.7-27.5,24.2-27.6
            c0.2,0,0.1-83.6,0-109.7c0-8.6-7-15.5-15.5-15.5h0c-8.6,0-15.5,6.9-15.5,15.5v116.3h-10.5l0-127.5c0-8.6-6.9-15.5-15.5-15.5H262
            c-2.2,0-4.3,0.5-6.3,1.3v234.9C266.2,348.5,280.2,340.8,295.9,338.4z"/>
        <path fill="#FFDECF" d="M329,269c-11.2,0.1-20.3,9.3-20.3,20.5V350c0,0,0,0,0,0l-5.9,0.4c-20.5,1.4-38,13.7-47.1,30.9V512
            c0.1,0,0.2,0,0.3,0c22.2,0,43.7-2.8,64.2-8.1c0-30.5,0-52.8,0-52.8c0,0,0,0,0,0c17.4-7.8,29.6-25.3,29.6-45.6V289.5
            C349.8,278.1,340.5,268.9,329,269z"/>
        <path fill="#FFFFFF" d="M241,72.3h30v33.3h-30V72.3z"/>
        <path fill="#E9EDF5" d="M255.7,72.3H271v33.3h-15.3V72.3z"/>
        <path fill="#E9EDF5" d="M337.5,124.9l23.6-23.6l21.2,21.2l-23.6,23.6L337.5,124.9z"/>
        <path fill="#FFFFFF" d="M119.7,122.6l21.2-21.2l23.6,23.6l-21.2,21.2L119.7,122.6z"/>
        <path fill="#00AFCC" d="M96.3,171.3h319.5v169.5H96.3V171.3z"/>
        <path fill="#00A0AA" d="M255.7,171.3h160v169.5h-160V171.3z"/>
        <path fill="#00C8C8" d="M127.9,198.7h256.2v114.6H127.9V198.7z"/>
        <path fill="#00AFCC" d="M255.7,198.7h128.4v114.6H255.7V198.7z"/>
        <path fill="#00AFCC" d="M289.7,256c0-24.4-15.1-44.2-33.7-44.2s-33.7,19.8-33.7,44.2s15.1,44.2,33.7,44.2S289.7,280.4,289.7,256z"/>
        <path fill="#00A0AA" d="M256,211.8c-0.1,0-0.2,0-0.3,0v88.5c0.1,0,0.2,0,0.3,0c18.6,0,33.7-19.8,33.7-44.2S274.6,211.8,256,211.8z"/>
        <path fill="#00A0AA" d="M364.9,256c0-15.9-9.8-28.7-21.9-28.7s-21.9,12.9-21.9,28.7s9.8,28.7,21.9,28.7S364.9,271.9,364.9,256z"/>
        <path fill="#00AFCC" d="M190.9,256c0-15.9-9.8-28.7-21.9-28.7s-21.9,12.9-21.9,28.7s9.8,28.7,21.9,28.7S190.9,271.9,190.9,256z"/>
        <path fill="#FFDECF" d="M349.8,405.5V289.5c0-11.4-9.3-20.7-20.8-20.5c-11.2,0.1-20.3,9.3-20.3,20.5V350L349.8,405.5z"/>
    </symbol>

    <symbol id="services04" role="img" aria-labelledby="services04_title" viewBox="0 0 512 512">
        <title id="services04_title"></title>
        <circle fill="#EB5134" cx="256" cy="256" r="256"/>
        <path fill="#BD3D20" d="M264.4,59.9L264.4,59.9c-8.1,0-5.9,0-14.5,0v24.6c-59.7,5-65.4,62.5-42.9,82.8l45.1,45.1v15.5
            c-19.8-2.2-42.2-13.3-49.4-20.5L188,236l67.9,67.9h-56.6v57.6h-53.1l147.7,147.7C404.5,492.8,492.2,405.5,509.1,295L317.1,103.1
            c-6.1-4.2-13-7.9-20.8-11.2L264.4,59.9z"/>
        <polygon fill="#00C8C8" points="314.4,361.5 314.4,303.9 199.2,303.9 199.2,361.5 146.1,361.5 256.8,447.6 367.6,361.5 "/>
        <polygon fill="#00AFCC" points="314.4,361.5 314.4,303.9 256.8,303.9 256.8,447.6 367.6,361.5 "/>
        <path fill="#F6CE23" d="M302.4,130c-3.2-3.7-21.6-14.5-40.2-16.4v41.7c34.4,8.3,61,17.8,61,52c0,34-25,49.2-58.8,50.6v26.5h-14.5v-26.7
            c-23.3-1.7-45.2-9.9-61.9-21.7l14.7-28.7c7.4,7.4,29.9,18.3,49.4,20.5v-41.4c-1.4-0.3-2.9-0.7-4.3-1.1
            c-29.2-8.1-52.8-16.8-52.8-47.6c0-28.8,19.7-50.3,54.9-53.2V59.9h14.5v24.3c10.6,0.8,20.4,3,29.3,6.5c8.9,3.5,16.7,7.6,23.5,12.3
            L302.4,130z M229.2,132.4c0,10.5,6.7,15.3,22.9,20v-39C236.8,114.4,229.2,120.7,229.2,132.4z M287.7,210.8
            c0-10.1-7.4-15.4-25.5-21.2v38.8C279.2,227.9,287.7,222,287.7,210.8z"/>
        <path fill="#E5BF2B" d="M262.2,155.3v-41.7c18.5,1.9,37,12.6,40.2,16.4l14.7-27c-6.7-4.7-14.6-8.8-23.5-12.3
            c-8.9-3.5-18.7-5.7-29.3-6.5V59.9h-7.6v224.6h7.6V258c33.8-1.4,58.8-16.6,58.8-50.6C323.1,173,296.4,163.5,262.2,155.3z
             M262.2,228.3v-38.8c18.4,5.9,25.5,11.2,25.5,21.2C287.7,222,279.2,227.9,262.2,228.3z"/>
    </symbol>

    <symbol id="footer-facebook" role="img" aria-labelledby="footer-facebook_title" viewBox="0 0 512 512">
        <title id="footer-facebook_title">Facebook</title>
        <path d="M314.829,135.492h70.595c11.423,0,20.682-9.26,20.682-20.682V20.682C406.107,9.26,396.848,0,385.425,0h-70.595
            c-76.282,0-138.341,62.06-138.341,138.341v49.913h-49.913c-11.422,0-20.682,9.26-20.682,20.682v94.127
            c0,11.423,9.26,20.682,20.682,20.682h49.913v167.572c0,11.423,9.26,20.682,20.682,20.682h94.127
            c11.423,0,20.682-9.259,20.682-20.682V323.746h49.913c9.49,0,17.763-6.458,20.065-15.666l23.532-94.127
            c1.544-6.179,0.156-12.725-3.763-17.744c-3.919-5.02-9.932-7.954-16.301-7.954H311.98v-49.913
            C311.98,136.77,313.258,135.492,314.829,135.492z M291.298,229.619h67.637l-13.191,52.763h-54.447
            c-11.423,0-20.682,9.259-20.682,20.682v167.572h-52.763V303.064c0-11.423-9.26-20.682-20.682-20.682h-49.913v-52.763h49.913
            c11.422,0,20.682-9.26,20.682-20.682v-70.595c0-53.473,43.503-96.977,96.977-96.977h49.913v52.763h-49.913
            c-24.38,0-44.214,19.835-44.214,44.214v70.595C270.615,220.359,279.875,229.619,291.298,229.619z"/>
    </symbol>

    <symbol id="footer-twitter" role="img" aria-labelledby="footer-twitter_title" viewBox="0 0 512 512">
        <title id="footer-twitter_title">Twitter</title>
        <path d="M502.954,47.189c-7.126-4.852-16.515-4.774-23.559,0.196c-15.351,10.828-31.974,19.528-49.557,25.948
            c-19.253-17.414-43.615-27.826-69.915-29.656c-31.056-2.16-61.081,7.9-84.561,28.326c-25.59,22.259-40.174,54.444-40.046,88.349
            c-85.248-7.609-139.14-61.55-177.09-108.986c-4.598-5.746-11.901-8.619-19.182-7.538c-7.279,1.078-13.438,5.944-16.171,12.777
            c-0.948,2.369-23.141,58.799-17.453,127.057c4.761,57.133,30.23,131.964,120.039,181.717
            c-32.436,14.756-68.282,21.939-103.953,20.519c-9.576-0.378-18.15,5.859-20.736,15.08c-2.587,9.221,1.497,19.013,9.869,23.665
            c51.359,28.532,108.03,43.736,163.889,43.965c0.432,0.002,0.861,0.003,1.294,0.003c54.105-0.001,106.379-13.938,151.246-40.336
            c42.898-25.241,78.416-61.759,102.715-105.603c26.162-47.206,39.427-101.75,39.427-162.186c-0.011-3.544-0.186-7.098-0.52-10.638
            c20.7-22.885,35.388-50.567,42.719-80.667C513.451,60.803,510.081,52.04,502.954,47.189z M432.297,128.07
            c-4.916,4.847-7.088,11.827-5.793,18.607c0.877,4.588,1.329,9.278,1.344,13.874c0,101.956-44.378,186.544-121.756,232.072
            c-60.586,35.649-133.037,43.933-203.609,25.057c0.729-0.201,1.459-0.407,2.185-0.615c27.596-7.885,53.63-20.055,77.377-36.174
            c6.329-4.296,9.77-11.734,8.946-19.34c-0.825-7.605-5.778-14.134-12.881-16.975C97.757,312.434,53.563,257.594,46.757,181.575
            c-2.536-28.334,0.707-54.721,4.766-74.501c16.638,17.909,37.384,37.227,62.129,53.407c42.771,27.966,90.663,42.146,142.346,42.146
            c11.423,0,20.682-9.26,20.682-20.682v-21.393c0-0.045,0-0.091,0-0.137c-0.146-21.948,9.268-42.797,25.829-57.202
            c15.146-13.175,34.51-19.665,54.543-18.27c20.026,1.393,38.311,10.502,51.487,25.648c5.339,6.138,13.783,8.577,21.567,6.229
            c5.725-1.724,11.375-3.645,16.941-5.757C442.599,117.081,437.672,122.769,432.297,128.07z"/>
    </symbol>    

    <symbol id="footer-linkedin" role="img" aria-labelledby="footer-linkedin_title" viewBox="0 0 512 512">
        <title id="footer-linkedin_title">Linkedin</title>
        <path d="M2.5,510V153.7h137.3V510H2.5z M102.5,472.7V191H39.8v281.7H102.5z"/>
        <path d="M375.4,510l0.1-158.1c0.5-23.6-8.8-42.9-24.9-51.7c-5.4-3-11.2-4.5-17.3-4.5c-5.2,0-10.4,1.1-15.5,3.3l-1.1,211H176.1
            V153.7h140.6V166c16.6-6,33.6-9.1,50.6-9.1c24.7,0,48.3,6.4,70.2,18.9c44,25.2,72.5,71.8,72.5,118.8V510H375.4z M472.7,472.7V294.6
            c0-33.8-21.1-67.7-53.7-86.4c-15.9-9.1-33.8-13.9-51.7-14h-0.3c-20.1,0-40.1,5.8-59.6,17.3L279.4,228V191h-66.1v281.7h66.2l1-194.7
            l8.2-5.5c13.7-9.2,29.1-14.1,44.5-14.1c12.4,0,24.2,3,35.1,9c13.7,7.5,25,19.2,32.8,33.8c7.9,14.9,11.9,32.6,11.5,51.1l0,120.3
            H472.7z"/>
        <path d="M70.9,139.9C32.9,139.9,2,109,2,71c0-38,30.9-69,68.9-69c38,0,68.9,30.9,68.9,69C139.8,109,108.9,139.9,70.9,139.9z
             M70.9,39.3c-17.4,0-31.6,14.2-31.6,31.7c0,17.5,14.2,31.7,31.6,31.7c17.4,0,31.6-14.2,31.6-31.7C102.5,53.5,88.3,39.3,70.9,39.3z"
            />
    </symbol>

    <symbol id="footer-instagram" role="img" aria-labelledby="footer-instagram_title" viewBox="0 0 512 512">
        <title id="footer-instagram_title">Instagram</title>
        <path d="M373.659,0H138.341C62.06,0,0,62.06,0,138.341v235.318C0,449.94,62.06,512,138.341,512h235.318
            C449.94,512,512,449.94,512,373.659V138.341C512,62.06,449.94,0,373.659,0z M470.636,373.659
            c0,53.473-43.503,96.977-96.977,96.977H138.341c-53.473,0-96.977-43.503-96.977-96.977V138.341
            c0-53.473,43.503-96.977,96.977-96.977h235.318c53.473,0,96.977,43.503,96.977,96.977V373.659z"/>
        <path d="M370.586,238.141c-3.64-24.547-14.839-46.795-32.386-64.342c-17.547-17.546-39.795-28.746-64.341-32.385
            c-11.176-1.657-22.507-1.657-33.682,0c-30.336,4.499-57.103,20.541-75.372,45.172c-18.269,24.631-25.854,54.903-21.355,85.237
            c4.499,30.335,20.541,57.102,45.172,75.372c19.996,14.831,43.706,22.619,68.153,22.619c5.667,0,11.375-0.418,17.083-1.265
            c30.336-4.499,57.103-20.541,75.372-45.172C367.5,298.747,375.085,268.476,370.586,238.141z M267.791,327.632
            c-19.405,2.882-38.77-1.973-54.527-13.66c-15.757-11.687-26.019-28.811-28.896-48.216c-2.878-19.405,1.973-38.77,13.66-54.527
            c11.688-15.757,28.811-26.019,48.217-28.897c3.574-0.53,7.173-0.795,10.772-0.795s7.199,0.265,10.773,0.796
            c32.231,4.779,57.098,29.645,61.878,61.877C335.608,284.268,307.851,321.692,267.791,327.632z"/>
        <path d="M400.049,111.951c-3.852-3.851-9.183-6.058-14.625-6.058c-5.442,0-10.773,2.206-14.625,6.058
            c-3.851,3.852-6.058,9.174-6.058,14.625c0,5.451,2.207,10.773,6.058,14.625c3.852,3.851,9.183,6.058,14.625,6.058
            c5.442,0,10.773-2.206,14.625-6.058c3.851-3.852,6.058-9.183,6.058-14.625C406.107,121.133,403.9,115.802,400.049,111.951z"/>
    </symbol>

    <symbol id="footer-phone" role="img" aria-labelledby="footer-phone_title" viewBox="0 0 512 512">
        <title id="footer-phone_title"></title>
        <path d="M421.216,195.504c-5.092-26.101-17.723-49.836-36.526-68.64c-18.804-18.803-42.54-31.434-68.641-36.527
			c-11.21-2.189-22.073,5.128-24.261,16.339c-2.187,11.212,5.128,22.073,16.339,24.26c36.847,7.188,65.3,35.642,72.489,72.489
			c1.927,9.874,10.581,16.726,20.278,16.726c1.313,0,2.645-0.125,3.984-0.387C416.088,217.577,423.403,206.715,421.216,195.504z"/>
		<path d="M511.422,196.929c-5.629-50.096-28.373-97.304-64.042-132.927C411.712,28.378,364.475,5.694,314.371,0.128
			c-11.355-1.261-21.578,6.92-22.839,18.272c-1.261,11.353,6.919,21.578,18.272,22.84c84.961,9.438,150.966,75.36,160.512,160.31
			c1.188,10.566,10.139,18.374,20.527,18.374c0.771,0,1.552-0.043,2.336-0.131C504.53,218.516,512.698,208.281,511.422,196.929z"/>
		<path d="M432.59,312.566c-0.062-0.008-0.124-0.017-0.186-0.025c-20.013-2.639-39.751-7.557-58.619-14.596
			c-23.91-8.99-51.103-3.191-69.27,14.772c-0.028,0.028-0.056,0.055-0.083,0.083l-17.148,17.148
			c-42.633-26.924-78.756-63.047-105.679-105.679l17.149-17.149c0.027-0.028,0.054-0.055,0.082-0.083
			c17.964-18.166,23.762-45.356,14.79-69.223c-7.057-18.914-11.974-38.653-14.614-58.666c-0.007-0.063-0.017-0.127-0.026-0.19
			c-4.591-32.478-32.782-56.734-65.548-56.467H66.053c-1.943,0.002-3.912,0.091-5.853,0.267
			C24.143,26.016-2.541,58.001,0.718,94.058c0.01,0.108,0.02,0.215,0.032,0.323c7.684,72.354,32.649,142.88,72.197,203.955
			c35.892,56.461,84.701,105.269,141.162,141.164c60.792,39.406,130.99,64.369,203.013,72.196c0.127,0.015,0.254,0.027,0.38,0.038
			c1.961,0.176,3.949,0.266,5.921,0.266c0.083,0,0.165,0,0.247,0.001c36.204-0.148,65.538-29.722,65.391-65.841v-67.233
			C489.746,345.714,465.515,317.211,432.59,312.566z M447.698,378.695v67.548c0.055,13.396-10.8,24.338-24.19,24.393
			c-0.715-0.004-1.425-0.027-2.135-0.086c-65.578-7.161-129.488-29.914-184.837-65.808c-0.053-0.035-0.107-0.069-0.161-0.103
			c-51.429-32.68-95.885-77.137-128.565-128.565c-0.032-0.051-0.064-0.101-0.097-0.153C71.683,220.306,48.928,156.086,41.902,90.193
			C40.779,76.91,50.63,65.155,63.923,63.954c0.717-0.064,1.443-0.098,2.145-0.098h67.463c0.146-0.001,0.294-0.003,0.443-0.002
			c12.021,0,22.322,8.905,24.044,20.819c3.05,23.063,8.721,45.806,16.871,67.649c3.319,8.832,1.189,18.869-5.427,25.591
			l-28.517,28.517c-6.583,6.582-7.956,16.753-3.354,24.847c33.837,59.508,83.177,108.847,142.685,142.685
			c8.094,4.6,18.264,3.23,24.848-3.355l28.512-28.512c6.72-6.621,16.765-8.752,25.642-5.415
			c21.799,8.134,44.547,13.805,67.61,16.855c12.18,1.757,21.122,12.339,20.816,24.647
			C447.7,378.353,447.698,378.524,447.698,378.695z"/>
    </symbol>    

	<symbol id="footer-mail" role="img" aria-labelledby="footer-mail_title" viewBox="0 0 512 512">
        <title id="footer-mail_title"></title>
        <path d="M256,141.176c-63.306,0-114.809,51.503-114.809,114.809S192.694,370.795,256,370.795s114.809-51.503,114.809-114.809
			S319.306,141.176,256,141.176z M256,329.43c-40.498,0-73.445-32.947-73.445-73.445c0-40.498,32.947-73.445,73.445-73.445
			c40.499,0,73.445,32.947,73.445,73.445C329.445,296.483,296.499,329.43,256,329.43z"/>
		<path d="M437.008,74.97C388.656,26.623,324.375,0,256,0c-0.005,0-0.013,0-0.017,0C187.603,0.004,123.318,26.637,74.97,74.992
			C26.62,123.347-0.005,187.637,0,256.017c0.004,68.379,26.637,132.666,74.992,181.014C123.344,485.377,187.625,512.001,256,512
			c0.004,0,0.012,0,0.017,0c55.945-0.004,111.216-18.738,155.631-52.752c9.07-6.945,10.792-19.927,3.846-28.995
			c-6.945-9.069-19.926-10.794-28.995-3.846c-37.24,28.518-83.58,44.224-130.486,44.228c-0.006,0-0.006,0-0.014,0
			c-57.324,0-111.224-22.324-151.761-62.856c-40.542-40.536-62.871-94.435-62.875-151.766
			C41.357,137.663,137.636,41.372,255.986,41.364c0.007,0,0.006,0,0.014,0c118.34,0,214.628,96.279,214.636,214.622v23.532
			c0,27.523-22.39,49.913-49.913,49.913c-27.523,0-49.913-22.391-49.913-49.913v-23.532c0-11.422-9.259-20.682-20.682-20.682
			s-20.682,9.26-20.682,20.682v23.532c0,50.33,40.947,91.278,91.278,91.278S512,329.848,512,279.518v-23.534
			C511.995,187.604,485.362,123.318,437.008,74.97z"/>
    </symbol>

    <symbol id="footer-location" role="img" aria-labelledby="footer-location_title" viewBox="0 0 512 512">
        <title id="footer-location_title"></title>
        <path d="M406.766,62.449C366.495,22.178,312.951,0,256,0S145.505,22.178,105.234,62.449
			c-40.272,40.271-62.449,93.814-62.449,150.766c0,37.656,10.972,76.863,32.609,116.532c16.825,30.846,40.15,62.102,69.326,92.898
			c49.17,51.903,97.763,84.519,99.808,85.881C248.001,510.842,252,512,256,512c4,0,7.999-1.158,11.473-3.474
			c2.045-1.363,50.638-33.978,99.808-85.881c29.176-30.795,52.501-62.051,69.326-92.898c21.637-39.669,32.609-78.876,32.609-116.532
			C469.215,156.263,447.038,102.72,406.766,62.449z M256.001,465.903C215.826,436.156,84.15,329.739,84.15,213.215
			c0-94.759,77.091-171.851,171.85-171.851s171.85,77.092,171.851,171.851C427.851,329.748,296.159,436.168,256.001,465.903z"/>
		<path d="M256,128.355c-46.791,0-84.86,38.068-84.86,84.86c0,46.791,38.068,84.86,84.86,84.86c46.792,0,84.861-38.068,84.86-84.86
			C340.86,166.423,302.791,128.355,256,128.355z M256,256.71c-23.983,0-43.495-19.512-43.495-43.495
			c0-23.983,19.512-43.495,43.495-43.495c23.984,0,43.495,19.512,43.495,43.495C299.495,237.198,279.984,256.71,256,256.71z"/>
		</symbol>

	<symbol id="footer-time" role="img" aria-labelledby="footer-time_title" viewBox="0 0 512 512">
        <title id="footer-time_title"></title>
        <path d="M437.019,74.981C388.667,26.629,324.38,0,256,0S123.333,26.63,74.981,74.981S0,187.62,0,256
			s26.629,132.667,74.981,181.019C123.332,485.371,187.62,512,256,512s132.667-26.629,181.019-74.981
			C485.371,388.667,512,324.38,512,256S485.371,123.332,437.019,74.981z M256,470.636C137.65,470.636,41.364,374.35,41.364,256
			S137.65,41.364,256,41.364S470.636,137.65,470.636,256S374.35,470.636,256,470.636z"/>
		<path d="M341.221,311.97l-64.538-64.537V114.809c0-11.422-9.259-20.682-20.682-20.682c-11.422,0-20.682,9.26-20.682,20.682V256
			c0,5.486,2.179,10.746,6.058,14.625l70.594,70.595c4.038,4.039,9.332,6.058,14.625,6.058c5.293,0,10.586-2.019,14.626-6.058
			C349.297,333.142,349.297,320.047,341.221,311.97z"/>
	</symbol>

</svg>