<svg xmlns="http://www.w3.org/2000/svg" xmlns:xlink="http://www.w3.org/1999/xlink">

    <symbol id="facebook" role="img" aria-labelledby="facebook_title" viewBox="0 0 161.7 161.7">
        <title id="facebook_title">Facebook</title>
        <path d="M106.5,31.8l17.6,0V1.4l-2.6-0.3C119.3,0.8,110.6,0,99.8,0C76.1,0,61.4,15.1,61.4,39.5v17.3H37.6v33.6h23.8v70.8h34.5V90.4
			h23.4l4.3-33.6H95.8V42.2C95.8,35.1,97.4,31.8,106.5,31.8z"/>
    </symbol>

    <symbol id="adroll" role="img" aria-labelledby="adroll_title" viewBox="0 0 209.5 190.1">
        <title id="adroll_title">AdRoll</title>
        <path d="M109.8,0.6C92.1,0.6,74.7,5,59.5,13.5c-13.2,7.3-24.6,17.6-33,29.7L66,82.7c4.6-20,22.8-35,43.8-35
		c24.8,0,44.9,20.2,44.9,44.9c0,23.2-18.1,42.8-41.1,44.8l-0.1,0l-0.1,0h-0.1h-0.1h-87C11.7,137.5,0,149.2,0,163.6v26.1h110.7
		c26.5-0.3,51.3-10.3,70-28.1c18.6-17.8,28.8-41.4,28.8-66.4C209.5,43,164.8,0.6,109.8,0.6z"/>
    </symbol>    

    <symbol id="google" role="img" aria-labelledby="google_title" viewBox="0 0 512 512">
        <title id="google_title">Google</title>
        <path d="M507.5,208.2h-107H261.6v101.3h136.9c-12.3,32.9-35.7,60.4-65.6,77.9l0,0l0,0c-22.5,13.2-48.8,20.8-76.9,20.8
			c-65.3,0-120.9-41.1-142.5-98.8l0,0l0,0c-6.2-16.6-9.6-34.6-9.7-53.4c0-17.3,2.9-34,8.2-49.5l0,0l0,0
			c20.5-59.8,77.2-102.7,144-102.7c29.6,0,57.1,8.4,80.5,23l82.9-67.9C375.1,22.1,318.1,0,256,0C157.1,0,71.2,56.1,28.6,138.3
			C10.3,173.5,0,213.5,0,256c0,43.9,11,85.2,30.5,121.3h0l0,0C73.7,457.5,158.5,512,256,512c60.7,0,116.4-21.1,160.3-56.4l0,0l0,0l0,0
			l0,0c45.1-36.3,77.7-87.5,90.1-146.2c3.7-17.2,5.6-35.1,5.6-53.5C512,239.7,510.5,223.7,507.5,208.2z"/>
    </symbol>

</svg>