<svg xmlns="http://www.w3.org/2000/svg" xmlns:xlink="http://www.w3.org/1999/xlink">
  
    <symbol id="aside-menu01" role="img" aria-labelledby="aside-menu01_title" viewBox="0 0 512 512">
        <title id="aside-menu01_title"></title>
        <path d="M256,11.96L0,234.276l26.206,30.176l23.967-20.814V440.09c0,33.056,26.893,59.95,59.95,59.95h111.906V304.204h69.941
			V500.04h109.908c33.056,0,59.95-26.893,59.95-59.95V243.639l23.967,20.814L512,234.277L256,11.96z M421.861,440.09
			c0,11.019-8.964,19.983-19.983,19.983h-69.941V264.238H182.062v195.836h-71.94c-11.019,0-19.983-8.964-19.983-19.983V208.931
			L256,64.894l165.861,144.037V440.09z"/>
    </symbol>

    <symbol id="aside-menu02" role="img" aria-labelledby="aside-menu02_title" viewBox="0 0 512 512">
        <title id="aside-menu02_title"></title>
        <path d="m371 472c22.494 0 43.275-7.467 60-20.05v.05c0 33.137-26.863 60-60 60h-311c-33.137 0-60-26.863-60-60v-392c0-33.137 26.863-60 60-60h174.525l-78.529 40h-95.996c-11.046 0-20 8.954-20 20v335.427c6.258-2.219 12.991-3.427 20-3.427h311c11.046 0 20-8.954 20-20v-41.962c9.412 12.505 17.718 21.83 18.12 22.28l21.679 24.263c-2.351 30.948-28.258 55.419-59.799 55.419h-310.509c-10.83 0-20.067 8.405-20.477 19.228-.43 11.378 8.702 20.772 19.986 20.772zm141-364c0 13.617-7.538 25.915-19.671 32.094l-34.329 17.457v66.286c12.445 6.759 20.949 19.915 20.949 35.038 0 22.023-40 66.791-40 66.791s-40-44.769-40-66.791c0-14.389 7.647-26.995 19.109-34.007v-46.943l-64.671 32.941c-6.695 3.41-14.042 5.115-21.386 5.116-7.346 0-14.69-1.705-21.386-5.116l-63.615-32.401v56.782c11.743 6.447 38.787 17.639 85 17.639 10.085 0 19.163-.487 27.296-1.291-.218 2.4-.347 4.825-.347 7.281 0 9.986 2.501 20.453 7.817 32.169-10.379 1.152-21.94 1.841-34.766 1.841-79.861 0-114.555-28.637-118.248-31.902l-6.752-5.97v-96.924l-35.33-17.996c-12.132-6.179-19.67-18.477-19.67-32.094s7.538-25.915 19.671-32.094l138.943-70.773c13.392-6.821 29.381-6.821 42.772 0l138.944 70.773c12.132 6.179 19.67 18.477 19.67 32.094zm-44.792 0-131.977-67.225c-2.023-1.03-4.438-1.03-6.462 0l-131.977 67.225 131.977 67.225c2.023 1.03 4.438 1.03 6.462 0l45.812-23.335-62.347-31.285c-7.429-2.92-12.696-10.14-12.696-18.605 0-11.046 8.954-20 20-20 2.629 0 5.132.521 7.431 1.442l.079-.157 91.792 46.06z"/>
    </symbol>

    <symbol id="aside-menu03" role="img" aria-labelledby="aside-menu03_title" viewBox="0 0 512 512">
        <title id="aside-menu03_title"></title>
        <path d="m452 392c-9.835938 0-19.121094 2.394531-27.320312 6.609375l-44.734376-44.734375c21.3125-26.929688 34.054688-60.941406 34.054688-97.875 0-36.367188-12.355469-69.898438-33.085938-96.628906l45.234376-45.234375c7.832031 3.753906 16.601562 5.863281 25.851562 5.863281 33.085938 0 60-26.914062 60-60 0-33.082031-26.914062-60-60-60s-60 26.917969-60 60c0 9.25 2.109375 18.019531 5.863281 25.851562l-45.230469 45.234376c-26.734374-20.726563-60.265624-33.085938-96.632812-33.085938-36.933594 0-70.941406 12.742188-97.875 34.054688l-44.734375-44.730469c4.214844-8.203125 6.609375-17.484375 6.609375-27.324219 0-33.082031-26.914062-60-60-60s-60 26.917969-60 60c0 33.085938 26.914062 60 60 60 8.65625 0 16.886719-1.859375 24.328125-5.171875l45.792969 45.796875c-20.144532 26.523438-32.121094 59.574219-32.121094 95.375 0 36.367188 12.355469 69.898438 33.085938 96.628906l-45.234376 45.234375c-7.832031-3.753906-16.601562-5.863281-25.851562-5.863281-33.085938 0-60 26.917969-60 60 0 33.085938 26.914062 60 60 60s60-26.914062 60-60c0-9.25-2.109375-18.019531-5.863281-25.851562l45.234375-45.234376c26.730468 20.726563 60.261718 33.085938 96.628906 33.085938 35.800781 0 68.855469-11.976562 95.378906-32.121094l45.792969 45.792969c-3.3125 7.441406-5.171875 15.671875-5.171875 24.328125 0 33.085938 26.914062 60 60 60s60-26.914062 60-60c0-33.082031-26.914062-60-60-60zm0-352c11.027344 0 20 8.972656 20 20s-8.972656 20-20 20-20-8.972656-20-20 8.972656-20 20-20zm-78 216c0 29.230469-10.6875 56.007812-28.355469 76.644531-8.226562-17.640625-21.511719-32.46875-37.980469-42.605469 8.964844-11.269531 14.335938-25.511718 14.335938-40.996093 0-36.394531-29.605469-66-66-66s-66 29.605469-66 66c0 15.484375 5.371094 29.726562 14.335938 40.996093-16.46875 10.136719-29.75 24.960938-37.980469 42.601563-17.667969-20.632813-28.355469-47.410156-28.355469-76.640625 0-65.066406 52.933594-118 118-118s118 52.933594 118 118zm-118 19.042969c-14.335938 0-26-11.664063-26-26 0-14.335938 11.664062-26 26-26s26 11.664062 26 26c0 14.335937-11.664062 26-26 26zm-196-195.042969c-11.027344 0-20-8.972656-20-20s8.972656-20 20-20 20 8.972656 20 20-8.972656 20-20 20zm0 392c-11.027344 0-20-8.972656-20-20s8.972656-20 20-20 20 8.972656 20 20-8.972656 20-20 20zm139.074219-112.667969c6.636719-25.234375 29.640625-43.902343 56.925781-43.902343s50.292969 18.667968 56.925781 43.902343c-16.890625 9.339844-36.296875 14.667969-56.925781 14.667969s-40.035156-5.328125-56.925781-14.667969zm252.925781 112.667969c-11.027344 0-20-8.972656-20-20s8.972656-20 20-20 20 8.972656 20 20-8.972656 20-20 20zm0 0"/>
    </symbol>

    <symbol id="aside-menu04" role="img" aria-labelledby="aside-menu04_title" viewBox="0 0 512 512">
        <title id="aside-menu04_title"></title>
        <path d="M483.426,289.573c-11.332-11.33-26.396-17.569-42.417-17.569c-0.003,0-0.006,0-0.009,0h-3v-139.24L306.333,0H134
			c-33.084,0-60,26.916-60,60v158h-3c-33.084,0-60,26.916-60,60v174c0,33.084,26.916,60,60,60h370
			c16.027,0,31.094-6.241,42.426-17.574C494.758,483.093,501,468.026,501,452V332C501,315.973,494.759,300.905,483.426,289.573z
			 M317,67.561L369.997,121H337c-11.028,0-20-8.972-20-20V67.561z M114,60c0-11.028,8.972-20,20-20h143v61c0,33.084,26.916,60,60,60
			h61v111.003L241.477,272l-9.026-19.357C222.637,231.598,201.292,218,178.072,218H114V60z M461,452
			c0,5.342-2.08,10.364-5.857,14.142C451.366,469.92,446.343,472,441,472H71c-11.028,0-20-8.972-20-20V278c0-11.028,8.972-20,20-20
			h107.073c7.74,0,14.855,4.533,18.126,11.548L215.994,312l225.009,0.003c5.342-0.001,10.363,2.079,14.14,5.855
			c3.777,3.778,5.857,8.8,5.857,14.142V452z"/>
    </symbol>

    <symbol id="aside-menu05" role="img" aria-labelledby="aside-menu05_title" viewBox="0 0 512 512">
        <title id="aside-menu05_title"></title>
        <path d="m451.910156 307.378906v-102.859375c23.269532-8.253906 39.988282-30.480469 39.988282-56.550781 0-33.074219-26.910157-59.988281-59.984376-59.988281-15.136718 0-28.972656 5.648437-39.535156 14.929687l-86.613281-47.226562c-2.214844-31.074219-28.1875-55.683594-59.816406-55.683594-31.824219 0-57.925781 24.914062-59.859375 56.261719l-86.378906 46.8125c-10.589844-9.382813-24.5-15.09375-39.722657-15.09375-33.078125 0-59.988281 26.914062-59.988281 59.988281 0 26.070312 16.71875 48.292969 39.992188 56.550781v102.859375c-23.273438 8.253906-39.992188 30.480469-39.992188 56.546875 0 33.078125 26.910156 59.988281 59.988281 59.988281 15.1875 0 29.070313-5.6875 39.648438-15.027343l86.453125 46.851562c1.933594 31.347657 28.035156 56.261719 59.859375 56.261719 31.628906 0 57.601562-24.609375 59.820312-55.683594l86.683594-47.265625c10.554687 9.242188 24.359375 14.863281 39.460937 14.863281 33.078126 0 59.988282-26.910156 59.988282-59.988281-.003906-26.066406-16.722656-48.292969-39.992188-56.546875zm-79.984375 56.546875c0 3.503907.316407 6.933594.898438 10.273438l-78.289063 42.6875c-10.910156-15.046875-28.617187-24.863281-48.585937-24.863281-19.800781 0-37.382813 9.648437-48.3125 24.484374l-78.515625-42.546874c.550781-3.265626.855468-6.613282.855468-10.035157 0-26.066406-16.71875-48.292969-39.992187-56.546875v-102.859375c23.273437-8.253906 39.992187-30.480469 39.992187-56.550781 0-3.386719-.300781-6.703125-.839843-9.9375l78.496093-42.539062c10.933594 14.835937 28.515626 24.484374 48.316407 24.484374 19.96875 0 37.675781-9.816406 48.585937-24.863281l78.269532 42.675781c-.566407 3.3125-.878907 6.710938-.878907 10.179688 0 26.070312 16.71875 48.292969 39.992188 56.550781v102.859375c-23.273438 8.253906-39.992188 30.480469-39.992188 56.546875zm59.988281-235.953125c11.023438 0 19.996094 8.972656 19.996094 19.996094 0 11.027344-8.972656 19.996094-19.996094 19.996094-11.027343 0-19.996093-8.96875-19.996093-19.996094 0-11.023438 8.96875-19.996094 19.996093-19.996094zm-185.964843-87.980468c11.027343 0 19.996093 8.96875 19.996093 19.996093 0 11.023438-8.96875 19.996094-19.996093 19.996094-11.023438 0-19.996094-8.972656-19.996094-19.996094 0-11.027343 8.972656-19.996093 19.996094-19.996093zm-185.960938 87.980468c11.023438 0 19.996094 8.972656 19.996094 19.996094 0 11.027344-8.972656 19.996094-19.996094 19.996094-11.027343 0-19.996093-8.96875-19.996093-19.996094 0-11.023438 8.96875-19.996094 19.996093-19.996094zm0 255.949219c-11.027343 0-19.996093-8.96875-19.996093-19.996094 0-11.027343 8.96875-19.996093 19.996093-19.996093 11.023438 0 19.996094 8.96875 19.996094 19.996093 0 11.027344-8.972656 19.996094-19.996094 19.996094zm185.960938 88.085937c-11.023438 0-19.996094-8.96875-19.996094-19.996093 0-11.023438 8.972656-19.996094 19.996094-19.996094 11.027343 0 19.996093 8.972656 19.996093 19.996094 0 11.027343-8.96875 19.996093-19.996093 19.996093zm185.964843-88.085937c-11.027343 0-19.996093-8.96875-19.996093-19.996094 0-11.027343 8.96875-19.996093 19.996093-19.996093 11.023438 0 19.996094 8.96875 19.996094 19.996093 0 11.027344-8.972656 19.996094-19.996094 19.996094zm-134.65625-129.769531c8.5625-11.007813 13.679688-24.820313 13.679688-39.8125 0-35.835938-29.152344-64.988282-64.988281-64.988282-35.832031 0-64.984375 29.152344-64.984375 64.988282 0 14.992187 5.117187 28.804687 13.675781 39.8125-29.132813 17.492187-48.671875 49.394531-48.671875 85.777344h39.992188c0-33.074219 26.910156-59.988282 59.988281-59.988282s59.988281 26.914063 59.988281 59.988282h39.992188c0-36.382813-19.539063-68.285157-48.671876-85.777344zm-51.308593-64.808594c13.78125 0 24.996093 11.210938 24.996093 24.996094 0 13.78125-11.214843 24.992187-24.996093 24.992187s-24.992188-11.210937-24.992188-24.992187c0-13.785156 11.210938-24.996094 24.992188-24.996094zm0 0"/>
    </symbol>

    <symbol id="aside-menu06" role="img" aria-labelledby="aside-menu06_title" viewBox="0 0 512 512">
        <title id="aside-menu06_title"></title>
        <path d="M512,289.74v-67.479l-68.197-18.139c-4.251-15.398-10.406-30.187-18.389-44.192l34.876-60.574l-47.646-47.647
			L352.07,86.585c-14.002-7.982-28.794-14.137-44.191-18.389L289.74,0h-67.48l-18.14,68.195
			c-15.397,4.252-30.189,10.408-44.191,18.389L99.355,51.708L51.709,99.355l34.876,60.573
			c-7.984,14.005-14.138,28.795-18.389,44.192L0,222.26v67.479l68.197,18.139c4.252,15.398,10.407,30.188,18.389,44.192
			L51.71,412.643l47.646,47.647l60.574-34.876c14.002,7.983,28.793,14.138,44.19,18.39L222.26,512h67.48l18.141-68.194
			c15.397-4.253,30.187-10.407,44.19-18.39l60.574,34.876l47.646-47.647l-34.876-60.573c7.983-14.004,14.137-28.794,18.389-44.192
			L512,289.74z M410.086,275.458l-2.504,12.098c-3.913,18.907-11.363,36.817-22.14,53.232l-6.755,10.289l31.644,54.96l-4.293,4.293
			l-54.961-31.645l-10.289,6.755c-16.415,10.778-34.325,18.227-53.232,22.141l-12.098,2.505L258.989,472h-5.977l-16.469-61.915
			l-12.098-2.505c-18.907-3.914-36.817-11.364-53.232-22.141l-10.289-6.755l-54.961,31.645l-4.293-4.293l31.644-54.96l-6.755-10.289
			c-10.778-16.415-18.227-34.325-22.14-53.232l-2.504-12.098L40,258.989v-5.977l61.914-16.47l2.504-12.099
			c3.912-18.905,11.362-36.814,22.14-53.231l6.755-10.289l-31.644-54.961l4.293-4.293l54.962,31.645l10.29-6.756
			c16.413-10.776,34.322-18.225,53.229-22.139l12.099-2.504L253.011,40h5.977l16.469,61.915l12.099,2.504
			c18.907,3.914,36.816,11.363,53.229,22.139l10.29,6.756l54.962-31.645l4.293,4.293l-31.644,54.961l6.755,10.289
			c10.779,16.416,18.228,34.326,22.14,53.231l2.504,12.099L472,253.011v5.977L410.086,275.458z"/>
		<path d="M256,140c-63.963,0-116,52.038-116,116s52.037,116,116,116s116-52.038,116-116S319.963,140,256,140z M256,332
			c-41.906,0-76-34.093-76-76s34.094-76,76-76s76,34.093,76,76C332,297.907,297.906,332,256,332z"/>
    </symbol>

    <symbol id="aside-menu07" role="img" aria-labelledby="aside-menu07_title" viewBox="0 0 512 512">
        <title id="aside-menu07_title"></title>
        <path d="M100.5,432h311c33.084,0,60-26.916,60-60V60c0-33.084-26.916-60-60-60h-311c-33.084,0-60,26.916-60,60v392  c0,33.084,26.916,60,60,60h291h20c33.084,0,60-26.916,60-60v-0.05c-16.725,12.583-37.506,20.05-60,20.05h-20h-291  c-11.028,0-20-8.972-20-20S89.472,432,100.5,432z M80.5,60c0-11.028,8.972-20,20-20h311c11.028,0,20,8.972,20,20v312  c0,11.028-8.972,20-20,20h-311c-7.009,0-13.742,1.208-20,3.427V60z M238.411,121c0-13.807,11.193-25,25-25s25,11.193,25,25  s-11.193,25-25,25S238.411,134.807,238.411,121z M212.977,224.815l-17.517-35.961c0.01-0.004,2.822-1.375,16.378-7.989  c16.264-7.937,35.427-6.206,50.01,4.517c14.578,10.721,21.94,28.493,19.212,46.381c-0.096,0.625-0.221,1.247-0.375,1.861  l-15.876,63.147c-0.328,3.996,1.984,6.354,3.448,7.431c1.549,1.138,4.747,2.757,8.771,0.792l13.589-6.63l17.54,35.949l-13.588,6.63  c-6.775,3.306-14.054,4.935-21.294,4.935c-10.142,0-20.208-3.194-28.716-9.451c-14.579-10.722-21.94-28.493-19.211-46.381  c0.096-0.626,0.221-1.247,0.375-1.861l15.876-63.147c0.328-3.996-1.985-6.354-3.449-7.431c-1.548-1.138-4.748-2.756-8.771-0.793  C215.78,223.45,212.977,224.815,212.977,224.815z"/>
    </symbol>

    <symbol id="header-panel01" role="img" aria-labelledby="header-panel01_title" viewBox="0 0 512 512">
        <title id="header-panel01_title"></title>
        <path d="M477.187,120.776l-7.224-18.65l-37.3,14.448l7.225,18.649C447.925,155.974,452,177.768,452,200v92h40v-92
			C492,172.807,487.017,146.152,477.187,120.776z"/>
		<path d="M42.037,102.127l-7.224,18.65C24.983,146.152,20,172.807,20,200v92h40v-92c0-22.232,4.075-44.026,12.112-64.776
			l7.225-18.649L42.037,102.127z"/>
		<path d="M468,392h-20c-10.384,0-18.709-3.609-24.745-10.728C415.892,372.588,412,358.886,412,341.646V204
			c0-78.818-59.543-144.777-136-154.699V0h-40v49.301C159.543,59.223,100,125.181,100,204v144c0,14.175-3.734,25.775-10.799,33.546
			C82.984,388.385,74.27,392,64,392H44v56h161.413c-0.915,3.855-1.413,7.869-1.413,12c0,28.673,23.327,52,52,52
			c28.673,0,52-23.327,52-52c0-4.131-0.499-8.145-1.413-12H468V392z M256,472c-6.617,0-12-5.383-12-12s5.383-12,12-12
			s12,5.383,12,12S262.617,472,256,472z M119.208,408C132.813,392.784,140,372.052,140,348V204
			c0-63.067,51.263-115.072,114.302-115.987h3.396C320.737,88.928,372,140.933,372,204v137.646c0,26.84,7.174,49.488,20.745,65.494
			c0.245,0.289,0.492,0.576,0.741,0.86H119.208z"/>
    </symbol>

    <symbol id="header-panel02" role="img" aria-labelledby="header-panel02_title" viewBox="0 0 512 512">
        <title id="header-panel02_title"></title>
        <path d="m256 0-256 190.933594v261.03125c0 33.085937 26.914062 60 60 60h392c33.085938 0 60-26.914063 60-60v-261.03125zm200.8125 199.671875-200.8125 149.367187-200.8125-149.367187 200.8125-149.773437zm-4.8125 272.292969h-392c-11.027344 0-20-8.972656-20-20v-213.734375l216 160.660156 216-160.660156v213.734375c0 11.027344-8.972656 20-20 20zm-217-190v-40h40v40zm40-70h-40v-95h40zm0 0"/>
    </symbol>

    <symbol id="header-panel04" role="img" aria-labelledby="header-panel04_title" viewBox="0 0 512 512">
        <title id="header-panel04_title"></title>
        <path d="M302.058,0C186.296,0,92.116,94.18,92.116,209.942c0,50.697,18.064,97.253,48.092,133.574L0,483.724L28.276,512
			l140.208-140.208c36.321,30.028,82.877,48.092,133.574,48.092C417.82,419.884,512,325.704,512,209.942S417.821,0,302.058,0z
			 M302.058,379.895c-93.712,0-169.953-76.241-169.953-169.953S208.346,39.989,302.058,39.989s169.953,76.241,169.953,169.953
			S395.77,379.895,302.058,379.895z"/>
    </symbol>

    <symbol id="numbers01" role="img" aria-labelledby="numbers01_title" viewBox="0 0 512 512">
        <title id="numbers01_title"></title>
        <path d="m294.237 359.786v-17.892c44.361-15.116 75.34-55.533 75.34-104.236v-19.373c-34.825 19.953-74.171 30.451-114.459 30.451-40.287 0-79.634-10.498-114.458-30.451v19.373c0 48.669 30.974 89.064 75.34 104.204v17.924c0 21.537 17.514 38.996 39.119 38.996 21.604.001 39.118-17.459 39.118-38.996z"/>
        <path d="m186 359.79v-5.39h-82.87c-56.86 0-103.13 46.14-103.13 102.86v9.77c0 24.8 20.21 44.97 45.06 44.97h195.06v-84.86c-30.92-6.85-54.12-34.45-54.12-67.35z"/>
        <path d="m408.87 354.4h-84.63v5.39c0 32.9-23.2 60.5-54.12 67.35v84.86h196.82c24.85 0 45.06-20.17 45.06-44.97v-9.77c0-56.72-46.27-102.86-103.13-102.86z"/>
        <path d="m66.853 96.458 19.049 6.975v80.975c0 8.284 6.716 15 15 15s15-6.716 15-15v-69.989l24.758 9.066v51.306c0 5.13 2.62 9.9 6.95 12.65 32.19 20.47 69.36 31.29 107.51 31.29 38.14 0 75.32-10.82 107.51-31.29 4.33-2.75 6.95-7.52 6.95-12.65v-50.661l75.567-27.671c5.911-2.165 9.842-7.79 9.842-14.085s-3.931-11.921-9.842-14.085l-183.99-67.374c-3.33-1.22-6.984-1.22-10.314 0l-183.99 67.372c-5.912 2.165-9.842 7.79-9.842 14.085s3.931 11.921 9.842 14.086z"/>
    </symbol>

    <symbol id="numbers02" role="img" aria-labelledby="numbers02_title" viewBox="0 0 512 512">
        <title id="numbers02_title"></title>
        <path d="m101.84375 312.390625v-97.808594c0-7.058593 1.011719-13.941406 2.90625-20.511719h-65.953125c-10.695313 0-20.394531 4.351563-27.417969 11.375-7.023437 7.023438-11.378906 16.726563-11.378906 27.417969v77.828125c0 9.472656 3.457031 18.195313 9.183594 24.980469 2.976562 3.53125 6.578125 6.523437 10.632812 8.8125v113.121094c0 8.269531 6.703125 14.972656 14.96875 14.972656h91.960938v-104.574219c-15.722656-14.195312-24.902344-34.417968-24.902344-55.613281zm0 0"/>
        <path d="m80.847656 176.363281c32.339844 0 58.648438-26.308593 58.648438-58.648437s-26.308594-58.648438-58.648438-58.648438-58.648437 26.308594-58.648437 58.648438 26.308593 58.648437 58.648437 58.648437zm0 0"/>
        <path d="m282.441406 169.667969h-105.746094c-12.375 0-23.605468 5.042969-31.738281 13.171875-8.132812 8.132812-13.171875 19.363281-13.171875 31.742187v97.808594c0 10.96875 4 21.070313 10.621094 28.917969 3.925781 4.652344 8.785156 8.5 14.28125 11.25v144.46875c0 8.269531 6.703125 14.972656 14.972656 14.972656h115.820313c8.269531 0 14.972656-6.703125 14.972656-14.972656v-144.46875c5.496094-2.75 10.355469-6.597656 14.277344-11.25 6.625-7.847656 10.625-17.945313 10.625-28.917969v-97.808594c0-12.378906-5.039063-23.609375-13.171875-31.738281-8.132813-8.132812-19.363282-13.175781-31.742188-13.175781zm0 0"/>
        <path d="m229.546875 139.726562c38.523437 0 69.863281-31.339843 69.863281-69.863281 0-38.523437-31.339844-69.863281-69.863281-69.863281s-69.863281 31.339844-69.863281 69.863281c0 38.523438 31.339844 69.863281 69.863281 69.863281zm0 0"/>
        <path d="m449.769531 205.445312c-7.023437-7.023437-16.722656-11.375-27.417969-11.375h-67.960937c1.890625 6.570313 2.90625 13.453126 2.90625 20.511719v97.808594c0 21.191406-9.179687 41.417969-24.902344 55.613281v104.464844c.589844.070312 1.195313.109375 1.808594.109375h92.15625c8.269531 0 14.972656-6.703125 14.972656-14.972656v-113.121094c4.050781-2.285156 7.652344-5.28125 10.632813-8.8125 5.726562-6.785156 9.183594-15.507813 9.183594-24.980469v-77.828125c0-10.691406-4.355469-20.394531-11.378907-27.417969zm0 0"/>
        <path d="m380.261719 176.363281c32.339843 0 58.648437-26.308593 58.648437-58.648437s-26.308594-58.648438-58.648437-58.648438c-32.335938 0-58.648438 26.308594-58.648438 58.648438s26.3125 58.648437 58.648438 58.648437zm0 0"/>
    </symbol>

    <symbol id="numbers03" role="img" aria-labelledby="numbers03_title" viewBox="0 0 512 512">
        <title id="numbers03_title"></title>
        <path d="m512 128v-29.539062c0-8.15625-6.613281-14.769532-14.769531-14.769532h-14.769531v-68.921875c0-8.15625-6.613282-14.769531-14.769532-14.769531h-59.074218c-8.160157 0-14.769532 6.613281-14.769532 14.769531v68.921875h-14.769531c-8.15625 0-14.769531 6.613282-14.769531 14.769532v29.539062c0 4.140625 1.738281 8.089844 4.789062 10.886719l31.085938 28.496093h-106.214844l31.085938-28.496093c3.054687-2.796875 4.789062-6.746094 4.789062-10.886719v-29.539062c0-8.15625-6.609375-14.769532-14.769531-14.769532h-14.765625v-68.921875c0-8.15625-6.613282-14.769531-14.769532-14.769531h-59.078124c-8.15625 0-14.769532 6.613281-14.769532 14.769531v68.921875h-14.769531c-8.15625 0-14.769531 6.613282-14.769531 14.769532v29.539062c0 4.140625 1.738281 8.089844 4.789062 10.886719l31.089844 28.496093h-106.214844l31.085938-28.496093c3.050781-2.796875 4.789062-6.746094 4.789062-10.886719v-29.539062c0-8.15625-6.613281-14.769532-14.769531-14.769532h-14.769531v-68.921875c0-8.15625-6.613282-14.769531-14.769532-14.769531h-59.074218c-8.15625 0-14.769532 6.613281-14.769532 14.769531v68.921875h-14.769531c-8.15625 0-14.769531 6.613282-14.769531 14.769532v29.539062c0 4.140625 1.738281 8.089844 4.789062 10.886719l31.089844 28.496093h-21.109375c-8.15625 0-14.769531 6.613282-14.769531 14.769532v315.078125c0 8.15625 6.613281 14.769531 14.769531 14.769531h482.460938c8.15625 0 14.769531-6.613281 14.769531-14.769531v-315.078125c0-8.15625-6.613281-14.769532-14.769531-14.769532h-21.109375l31.089844-28.496093c3.050781-2.796875 4.789062-6.746094 4.789062-10.886719zm-391.1875 295.382812h36.726562c8.15625 0 14.769532 6.613282 14.769532 14.769532s-6.613282 14.769531-14.769532 14.769531h-49.230468c-8.15625 0-14.769532-6.613281-14.769532-14.769531 0-10.855469-8.835937-19.691406-19.691406-19.691406-8.15625 0-14.769531-6.613282-14.769531-14.769532v-128c0-8.15625 6.613281-14.769531 14.769531-14.769531 10.855469 0 19.691406-8.832031 19.691406-19.691406 0-8.15625 6.613282-14.769531 14.769532-14.769531h49.230468c8.15625 0 14.769532 6.613281 14.769532 14.769531s-6.613282 14.769531-14.769532 14.769531h-36.726562c-4.816406 15.289062-16.90625 27.382812-32.195312 32.199219v102.988281c15.289062 4.816406 27.378906 16.90625 32.195312 32.195312zm120.417969-98.460937h29.539062c21.714844 0 39.382813 17.667969 39.382813 39.386719 0 21.714844-17.667969 39.382812-39.382813 39.382812v24.617188c0 8.15625-6.613281 14.769531-14.769531 14.769531s-14.769531-6.613281-14.769531-14.769531v-24.617188h-24.613281c-8.160157 0-14.769532-6.613281-14.769532-14.769531s6.609375-14.769531 14.769532-14.769531h54.152343c5.429688 0 9.847657-4.414063 9.847657-9.84375 0-5.429688-4.417969-9.847656-9.847657-9.847656h-29.539062c-21.714844 0-39.382813-17.667969-39.382813-39.382813 0-21.71875 17.667969-39.386719 39.382813-39.386719v-24.613281c0-8.15625 6.613281-14.769531 14.769531-14.769531s14.769531 6.613281 14.769531 14.769531v24.613281h24.613281c8.160157 0 14.769532 6.613282 14.769532 14.769532s-6.609375 14.769531-14.769532 14.769531h-54.152343c-5.429688 0-9.847657 4.417969-9.847657 9.847656s4.417969 9.84375 9.847657 9.84375zm211.691406 78.769531c0 8.15625-6.613281 14.769532-14.769531 14.769532-10.855469 0-19.691406 8.835937-19.691406 19.691406 0 8.15625-6.613282 14.769531-14.769532 14.769531h-49.230468c-8.15625 0-14.769532-6.613281-14.769532-14.769531s6.613282-14.769532 14.769532-14.769532h36.726562c4.816406-15.289062 16.90625-27.378906 32.195312-32.195312v-102.988281c-15.289062-4.820313-27.378906-16.910157-32.195312-32.199219h-36.726562c-8.15625 0-14.769532-6.613281-14.769532-14.769531s6.613282-14.769531 14.769532-14.769531h49.230468c8.15625 0 14.769532 6.613281 14.769532 14.769531 0 10.859375 8.835937 19.691406 19.691406 19.691406 8.15625 0 14.769531 6.613281 14.769531 14.769531zm0 0"/>
    </symbol>

    <symbol id="numbers04" role="img" aria-labelledby="numbers04_title" viewBox="0 0 512 512">
        <title id="numbers04_title"></title>
        <path d="m197.573 188.379h-6.15c-35.801 0-65.108 28.328-66.681 63.748h139.512c-1.577-35.416-30.883-63.748-66.681-63.748z"/>
        <path d="m428.513 0h-348.031c-44.366 0-80.461 39.036-80.461 87.019v219.758c0 47.982 36.095 87.018 80.461 87.018h104.492l56.241 107.171c2.591 4.937 7.706 8.03 13.282 8.03s10.691-3.093 13.282-8.03l56.241-107.171h104.492c44.366 0 80.461-39.036 80.461-87.018v-219.758c.001-47.983-36.094-87.019-80.46-87.019zm-161.193 282.128h-145.645c-14.888 0-27-12.112-27-27 0-40.134 24.565-74.635 59.448-89.266-10.311-10.331-16.695-24.581-16.695-40.295 0-31.468 25.601-57.07 57.069-57.07s57.069 25.602 57.069 57.07c0 15.714-6.385 29.964-16.695 40.295 34.883 14.63 59.448 49.131 59.448 89.265.001 14.888-12.111 27.001-26.999 27.001zm129.796-24.774c0 6.353-7.742 9.529-15.485 9.529-7.742 0-15.485-3.177-15.485-9.529v-101.053l-5.758 3.574c-1.786 1.191-3.573 1.588-4.963 1.588-5.758 0-9.729-6.155-9.729-12.309 0-4.169 1.787-8.14 5.758-10.522l26.206-15.882c1.589-.993 3.574-1.39 5.758-1.39 6.353 0 13.698 3.772 13.698 9.728z"/>
        <path d="m194.498 152.637c14.926 0 27.069-12.143 27.069-27.07 0-14.926-12.144-27.07-27.069-27.07s-27.069 12.144-27.069 27.07c-.001 14.927 12.143 27.07 27.069 27.07z"/>
    </symbol>

    <symbol id="activities01" role="img" aria-labelledby="activities01_title" viewBox="0 0 512 512">
        <title id="activities01_title"></title>
        <path d="M482.104,17.321c-1.75,0.996-174.858,98.783-294.107,100.481c-0.657-0.065-1.323-0.101-1.997-0.101H60
			c-33.084,0-60,26.916-60,60v69c0,26.073,16.722,48.303,40,56.56v108.44c0,55.141,44.86,100,100,100h20v-127h40v-48h-40v-30h26
			c0.943,0,1.863-0.088,2.771-0.214c119.434,1.946,292.173,91.998,293.92,92.915L512,414.815V0.299L482.104,17.321z M120,468.274
			c-23.281-8.255-40-30.498-40-56.573v-105h40V468.274z M166,266.701H60c-11.028,0-20-8.972-20-20v-69c0-11.028,8.972-20,20-20h106
			V266.701z M472,349.495c-53.451-25.371-169.574-75.459-266-82.263V156.984c96.352-7.335,212.222-61.303,266-88.898V349.495z"/>
    </symbol>

    <symbol id="activities02" role="img" aria-labelledby="activities02_title" viewBox="0 0 512 512">
        <title id="activities02_title"></title>
        <path d="M0,216.007v30.187l116.611,48.501l51.31,172.678l31.417,21.992l74.259-96.762l131.384,91.398h27.123L512,22.635L0,216.007
			z M70.497,232.167l243.818-92.087l-183.21,117.295L70.497,232.167z M184.985,310.423l-5.647,54.854l-22.782-76.67L318.696,184.8
			L184.985,310.423z M215.773,402.206l4.786-46.499l20.145,14.014L215.773,402.206z M400.47,432.105L235.829,317.572l220.319-206.99
			L400.47,432.105z"/>
    </symbol>

    <symbol id="activities03" role="img" aria-labelledby="activities03_title" viewBox="0 0 512 512">
        <title id="activities03_title"></title>
        <path d="m199.945312 359.898438h67.980469v39.988281h-67.980469zm-74.980468-4.996094c-13.804688 0-24.992188 11.1875-24.992188 24.992187 0 13.800781 11.1875 24.992188 24.992188 24.992188 13.804687 0 24.992187-11.191407 24.992187-24.992188 0-13.804687-11.1875-24.992187-24.992187-24.992187zm276.921875-121.96875h-201.941407v39.988281h201.941407zm-276.921875-4.996094c-13.804688 0-24.992188 11.1875-24.992188 24.992188 0 13.804687 11.1875 24.992187 24.992188 24.992187 13.804687 0 24.992187-11.1875 24.992187-24.992187 0-13.804688-11.1875-24.992188-24.992187-24.992188zm276.921875-114.96875h-201.941407v39.988281h201.941407zm-276.921875-5c-13.804688 0-24.992188 11.191406-24.992188 24.992188 0 13.804687 11.1875 24.996093 24.992188 24.996093 13.804687 0 24.992187-11.191406 24.992187-24.996093 0-13.800782-11.1875-24.992188-24.992187-24.992188zm-84.976563 343.90625v-391.890625c0-11.027344 8.96875-19.996094 19.996094-19.996094h391.890625c11.023438 0 19.992188 8.96875 19.992188 19.996094v225.9375h39.988281v-225.9375c0-33.074219-26.90625-59.984375-59.980469-59.984375h-391.890625c-33.074219 0-59.984375 26.910156-59.984375 59.984375v391.890625c0 33.074219 26.910156 59.980469 59.984375 59.980469h230.933594v-39.988281h-230.933594c-11.027344 0-19.996094-8.96875-19.996094-19.992188zm443.734375 60.125-39.820312-39.820312c-13.472656 8.050781-29.210938 12.683593-46.011719 12.683593-49.613281 0-89.976563-40.363281-89.976563-89.972656 0-49.613281 40.363282-89.976563 89.976563-89.976563 49.609375 0 89.972656 40.363282 89.972656 89.976563 0 18.355469-5.53125 35.441406-15.003906 49.691406l39.140625 39.140625zm-85.832031-67.125c27.5625 0 49.984375-22.421875 49.984375-49.984375s-22.421875-49.988281-49.984375-49.988281-49.988281 22.425781-49.988281 49.988281 22.425781 49.984375 49.988281 49.984375zm0 0"/>
    </symbol>

    <symbol id="activities04" role="img" aria-labelledby="activities04_title" viewBox="0 0 512 512">
        <title id="activities04_title"></title>
        <path d="m512 474.539062-51.105469-51.105468c8.75-13.871094 13.820313-30.28125 13.820313-47.855469 0-49.597656-40.347656-89.949219-89.945313-89.949219-49.597656 0-89.945312 40.351563-89.945312 89.949219 0 49.59375 40.347656 89.945313 89.945312 89.945313 17.574219 0 33.988281-5.074219 47.855469-13.824219l51.105469 51.105469zm-127.230469-48.992187c-27.554687 0-49.96875-22.417969-49.96875-49.96875 0-27.554687 22.414063-49.972656 49.96875-49.972656 27.554688 0 49.96875 22.417969 49.96875 49.972656 0 27.550781-22.414062 49.96875-49.96875 49.96875zm-105.949219 25.148437h-218.855468c-11.023438 0-19.988282-8.96875-19.988282-19.988281v-211.875h195.882813v49.96875h39.976563v-49.96875h195.882812v60.292969c19.796875 17.863281 34.082031 41.71875 39.976562 68.679688v-207.886719c0-33.066407-26.902343-59.964844-59.964843-59.964844h-106.011719v-19.988281c0-33.066406-26.898438-59.964844-59.964844-59.964844h-59.816406c-33.0625 0-59.960938 26.898438-59.960938 59.964844v19.988281h-106.011718c-33.066406 0-59.964844 26.898437-59.964844 59.964844v290.789062c0 33.0625 26.898438 59.960938 59.964844 59.960938h264.585937c-18.207031-9.5625-33.882812-23.3125-45.730469-39.972657zm-72.871093-390.730468c0-11.023438 8.96875-19.988282 19.988281-19.988282h59.816406c11.023438 0 19.988282 8.964844 19.988282 19.988282v19.988281h-99.792969zm-165.972657 79.953125c0-11.023438 8.964844-20.027344 19.988282-20.027344h391.765625c11.019531 0 19.988281 9.003906 19.988281 20.027344v38.9375h-431.742188zm0 0"/>
    </symbol>

    <symbol id="activities05" role="img" aria-labelledby="activities05_title" viewBox="0 0 512 512">
        <title id="activities05_title"></title>
        <path d="m512 428h-84v84h-40v-84h-84v-40h84v-84h40v84h84zm-212.695312-204.5625c1.757812 7.910156 2.695312 16.128906 2.695312 24.5625 0 34.550781-15.59375 65.527344-40.105469 86.269531.699219.277344 1.40625.546875 2.105469.832031v44.199219c-21.414062-11.667969-45.945312-18.300781-72-18.300781v-.039062c-.332031.007812-.667969.007812-1 .015624v.023438c-83.261719 0-151 67.738281-151 151h-40c0-79.371094 48.671875-147.582031 117.730469-176.378906-25.449219-20.734375-41.730469-52.3125-41.730469-87.621094 0-62.308594 50.691406-113 113-113 7.40625 0 14.644531.722656 21.65625 2.089844-1.734375-7.84375-2.65625-15.988282-2.65625-24.34375 0-62.167969 50.578125-112.746094 112.746094-112.746094 62.167968 0 112.746094 50.578125 112.746094 112.746094 0 34.894531-15.9375 66.136718-40.910157 86.832031 33.011719 13.109375 61.464844 35.117187 82.304688 63.421875h-53.847657c-24.847656-22.023438-56.976562-36-92.273437-37.796875-2.652344.1875-5.324219.289063-8.019531.289063-7.332032 0-14.5-.710938-21.441406-2.054688zm-51.304688-110.691406c0 40.113281 32.632812 72.746094 72.746094 72.746094 40.109375 0 72.746094-32.632813 72.746094-72.746094 0-40.113282-32.636719-72.746094-72.746094-72.746094-40.113282 0-72.746094 32.632812-72.746094 72.746094zm14 135.253906c0-40.253906-32.746094-73-73-73s-73 32.746094-73 73 32.746094 73 73 73 73-32.746094 73-73zm0 0"/>
    </symbol>

    <symbol id="arrow" role="img" aria-labelledby="arrow_title" viewBox="0 0 451.846 451.847">
        <title id="arrow_title"></title>
        <path d="M345.441,248.292L151.154,442.573c-12.359,12.365-32.397,12.365-44.75,0c-12.354-12.354-12.354-32.391,0-44.744
		L278.318,225.92L106.409,54.017c-12.354-12.359-12.354-32.394,0-44.748c12.354-12.359,32.391-12.359,44.75,0l194.287,194.284
		c6.177,6.18,9.262,14.271,9.262,22.366C354.708,234.018,351.617,242.115,345.441,248.292z"/>
    </symbol>

</svg>