<svg xmlns="http://www.w3.org/2000/svg" xmlns:xlink="http://www.w3.org/1999/xlink">

    <symbol id="header-loupe" role="img" aria-labelledby="header-loupe_title" viewBox="0 0 451 451">
        <title id="header-loupe_title"></title>
        <path d="M447.05,428l-109.6-109.6c29.4-33.8,47.2-77.9,47.2-126.1C384.65,86.2,298.35,0,192.35,0C86.25,0,0.05,86.3,0.05,192.3
        s86.3,192.3,192.3,192.3c48.2,0,92.3-17.8,126.1-47.2L428.05,447c2.6,2.6,6.1,4,9.5,4s6.9-1.3,9.5-4
        C452.25,441.8,452.25,433.2,447.05,428z M26.95,192.3c0-91.2,74.2-165.3,165.3-165.3c91.2,0,165.3,74.2,165.3,165.3
        s-74.1,165.4-165.3,165.4C101.15,357.7,26.95,283.5,26.95,192.3z"/>
    </symbol>

    <symbol id="header-phone" role="img" aria-labelledby="header-phone_title" viewBox="0 0 486.1 486.1">
        <title id="header-phone_title"></title>
        <path d="M414.8,71.25C368.9,25.35,307.9,0.05,243,0.05s-125.9,25.3-171.8,71.2S0,178.15,0,243.05s25.3,125.9,71.2,171.8
        s106.9,71.2,171.8,71.2c37.7,0,72.1-7,99.4-20.1c25.9-12.5,44.7-30.4,53-50.3c9.9-23.9,4.3-48.8-15.3-68.4l-0.7-0.7
        c0.3-0.4,0.7-0.7,1-1c14-14.7,14-34-0.2-48.2l-34.6-34.6c-6.8-7-15-10.8-23.7-10.8s-17,3.7-24,10.7l-18,18
        c-0.9-0.5-1.7-0.9-2.6-1.3c-2.2-1.1-4.2-2.1-5.9-3.2c-18.3-11.6-34.9-26.8-50.8-46.3c-7-8.8-11.8-16.3-15.4-23.7
        c4.5-4.2,8.7-8.5,12.8-12.7c1.7-1.8,3.5-3.5,5.3-5.3c14.7-14.7,14.7-33.7,0-48.4l-17.1-17.1c-2-2-3.9-3.9-5.8-5.9
        c-3.8-3.9-7.7-7.9-11.9-11.8c-6.8-6.7-14.9-10.2-23.5-10.2s-16.8,3.5-23.8,10.2c-0.1,0.1-0.1,0.1-0.2,0.2l-21.5,21.5
        c-8.6,8.6-13.6,19.2-14.6,31.4c-1.5,19,4,36.6,8.3,48.1c10.3,27.8,25.7,53.6,48.6,81.2c27.8,33.2,61.3,59.5,99.6,78
        c14.7,7,34.4,15.2,56.6,16.7c1.4,0.1,2.8,0.1,4.2,0.1c15.5,0,28.6-5.6,38.8-16.7c0.1-0.1,0.3-0.3,0.4-0.4c0.3-0.4,0.7-0.8,1.1-1.2
        l0.6,0.6c12.8,12.8,16.3,27.4,10.1,42.3c-11.5,27.3-56.2,55.3-130.2,55.3c-120.8,0-219-98.2-219-219s98.2-219,219-219
        s219,98.2,219,219c0,19.9-2.7,39.5-7.9,58.4c-1.8,6.4,2,13,8.4,14.8s13-2,14.8-8.4c5.8-21,8.8-42.8,8.8-64.8
        C486,178.15,460.7,117.15,414.8,71.25z M343.2,349.15c-5.7,6.1-12.1,8.8-21,8.8c-0.9,0-1.8,0-2.7-0.1c-18-1.2-35-8.3-47.7-14.4
        c-35.1-17-65.9-41.1-91.5-71.7c-21.1-25.4-35.2-48.9-44.6-74.1c-5.6-15.2-7.7-26.8-6.9-37.8c0.6-6.5,3-11.8,7.7-16.4l21.5-21.4
        c1.7-1.6,4.3-3.5,7.1-3.5s5.2,1.8,6.7,3.4c0.1,0.1,0.2,0.2,0.3,0.3c3.8,3.5,7.4,7.2,11.2,11.1c2,2,4,4.1,6,6.1l17.1,17.1
        c5.3,5.3,5.3,9.2,0,14.5c-1.8,1.8-3.6,3.6-5.4,5.4c-5.3,5.3-10.2,10.4-15.6,15.2c-0.2,0.1-0.3,0.3-0.5,0.5
        c-7.5,7.5-4.9,15.3-4.1,17.9c0.1,0.3,0.2,0.5,0.3,0.8c4.6,11.1,11,21.5,20.8,33.9l0.1,0.1c17.6,21.7,36.1,38.5,56.6,51.5
        c2.7,1.7,5.4,3.1,8,4.4c2.2,1.1,4.2,2.1,5.9,3.2c0.3,0.2,0.7,0.4,1.1,0.6c2.6,1.3,5.2,1.9,7.8,1.9c4.4,0,8.5-1.8,12-5.4l21.5-21.5
        c1.7-1.7,4.2-3.7,7-3.7c2.6,0,5,1.9,6.5,3.5c0.1,0.1,0.1,0.1,0.2,0.2l34.6,34.6c4.9,4.9,4.9,9.4-0.2,14.7l-0.1,0.1
        c-2.3,2.5-4.8,4.9-7.5,7.5C351.4,340.35,347.2,344.45,343.2,349.15z"/>
    </symbol>

    <symbol id="header-language" role="img" aria-labelledby="header-language_title" viewBox="0 0 512 512">
        <title id="header-language_title"></title>
        <path d="m429.2,82.8c-46.2-46.3-107.8-71.8-173.2-71.8s-127,25.5-173.2,71.8-71.8,107.8-71.8,173.2 25.5,127 71.8,173.2 107.8,71.8 173.2,71.8 127-25.5 173.2-71.8 71.8-107.8 71.8-173.2-25.5-127-71.8-173.2zm49.6,162.2h-95c-0.9-37.8-6.2-74.2-15.5-106.5 18.1-9.3 35-21 50.5-34.8 35,37.4 57.3,86.8 60,141.3zm-211.8,22h94.9c-0.8,34.8-5.6,68.1-13.9,97.9-25.6-10.3-52.9-16.3-81-17.6v-80.3zm136-178.6c-12.8,11.3-26.8,20.9-41.6,28.9-3.8-10.6-8.1-20.6-12.9-30-9.5-18.8-20.3-34.2-32.2-46 32.5,9.1 62,25.4 86.7,47.1zm-136-52c22.9,5.1 44.5,26.2 61.9,60.6 4.7,9.3 8.9,19.2 12.6,29.7-23.5,9.7-48.6,15.4-74.5,16.7v-107zm81.1,111.4c8.2,29.6 12.9,62.7 13.7,97.3h-94.8v-79.6c28.2-1.3 55.5-7.4 81.1-17.7zm-103.1,97.2h-94.9c0.8-34.6 5.5-67.7 13.7-97.3 25.6,10.4 53,16.4 81.1,17.6v79.7zm.1-208.6v107c-25.9-1.3-51.1-7-74.5-16.7 3.7-10.5 7.9-20.4 12.6-29.7 17.4-34.4 39-55.5 61.9-60.6zm-49.3,4.9c-11.9,11.8-22.7,27.3-32.2,46-4.7,9.4-9,19.4-12.9,30-14.8-8-28.7-17.6-41.6-28.9 24.7-21.7 54.2-38 86.7-47.1zm-102.5,62.4c15.5,13.8 32.4,25.4 50.5,34.8-9.3,32.4-14.7,68.7-15.5,106.5h-95c2.7-54.5 25-103.9 60-141.3zm-60,163.3h95c0.9,38.1 6.3,74.6 15.7,107.1-18,9.3-34.9,20.8-50.3,34.6-35.3-37.5-57.7-87-60.4-141.7zm76.2,157c12.8-11.2 26.7-20.8 41.4-28.7 3.8,10.3 8,20.2 12.7,29.4 9.5,18.8 20.3,34.2 32.2,46.1-32.3-9.1-61.7-25.3-86.3-46.8zm135.6,51.6c-22.9-5.1-44.5-26.2-61.9-60.6-4.6-9.1-8.7-18.8-12.4-29.1 23.4-9.7 48.5-15.4 74.3-16.6v106.3zm-81-110.7c-8.3-29.8-13.1-63.1-13.9-97.9h94.9v80.3c-28.1,1.2-55.4,7.2-81,17.6zm103,110.7v-106.3c25.8,1.3 50.9,6.9 74.3,16.6-3.7,10.3-7.8,20-12.4,29.1-17.4,34.4-39,55.5-61.9,60.6zm49.3-4.9c11.9-11.8 22.7-27.3 32.2-46.1 4.7-9.2 8.9-19.1 12.7-29.4 14.7,7.9 28.6,17.5 41.4,28.7-24.6,21.6-54,37.8-86.3,46.8zm102.2-62c-15.4-13.7-32.3-25.3-50.3-34.6 9.4-32.5 14.8-69.1 15.7-107.1h95c-2.8,54.7-25.2,104.2-60.4,141.7z"/>
    </symbol>s

    <symbol id="logo-white" role="img" aria-labelledby="logo-white_title" viewBox="0 0 57.6 43.3">
        <title id="logo-white_title"></title>
        <path class="st0" d="M35.7,38.3H5V7.6h30.8v3.1h5V6.3c0-2.1-1.7-3.7-3.8-3.7H3.8C1.7,2.6,0,4.3,0,6.3v33.2c0,2.1,1.7,3.7,3.8,3.7
                H37c2.1,0,3.8-1.7,3.8-3.7v-4.3h-5L35.7,38.3L35.7,38.3z"/>
        <polygon class="st1" points="32.1,36.2 14,13.7 20.5,13.7 31.8,27.9 51.5,0 57.6,0            "/>
    </symbol>

    <symbol id="advantages01" role="img" aria-labelledby="advantages01_title" viewBox="-21 -22 682.66669 682">
        <title id="advantages01_title"></title>
        <path d="m640 472.65625-22.90625-17.753906c-2.949219-2.285156-16.722656-12.660156-35.984375-22.445313 3.574219-2.96875 7.011719-6.199219 10.25-9.742187 35.707031-39.007813 43.972656-101.882813 44.308594-104.542969l3.625-28.785156-27.6875.726562c3.390625-6.773437 6.199219-14.042969 8.136719-21.796875 12.882812-51.542968-10.03125-111.355468-11.007813-113.875l-10.449219-26.835937-25.058594 14.1875c-7.148437 4.046875-70.21875 41.09375-83.539062 94.371093-8.433594 33.730469 2.507812 67.105469 12.578125 88.367188-3.429687 2.808594-6.675781 5.835938-9.683594 9.121094-15.136719 16.539062-23.082031 36.730468-27.148437 55.226562-11.222656 39.730469-38.230469 68.515625-80.324219 85.574219-26.140625 10.597656-50.84375 13.546875-61.328125 14.351563-1.359375-.074219-2.726562-.117188-4.097656-.117188-1.308594 0-2.609375.039062-3.902344.101562-24.273438-1.886718-119.238281-14.90625-142.039062-102.914062l-.925782.238281c-4.1875-17.6875-11.976562-36.664062-26.171875-52.351562-2.714843-3.003907-5.628906-5.792969-8.699219-8.394531 10.175782-21.214844 21.515626-55.027344 12.972657-89.203126-13.316407-53.277343-76.390625-90.324218-83.539063-94.371093l-25.054687-14.1875-10.449219 26.835937c-.980469 2.519532-23.890625 62.332032-11.007812 113.875 1.941406 7.753906 4.75 15.023438 8.136718 21.800782l-27.949218-.742188 3.578124 28.761719c.328126 2.65625 8.496094 65.476562 43.769532 104.46875 3.269531 3.617187 6.738281 6.90625 10.347656 9.925781-19.1875 9.765625-32.898438 20.09375-35.84375 22.371094l-22.90625 17.753906 20.980469 19.988281c1.941406 1.84375 47.839843 45.066407 99.785156 53.289063-9.570313 16.546875-14.945313 30.382812-16.140625 33.59375l-10.128906 27.152344 28.363281 5.945312c1.460937.304688 21.296875 4.355469 46.96875 4.355469 20.644531 0 45.070313-2.625 66.734375-11.910157 5.71875-2.453124 11.0625-5.371093 16.050781-8.632812 12.210938 24.726562 37.679688 41.777344 67.070313 41.777344 29.511718 0 55.082031-17.199219 67.230468-42.09375 5.121094 3.382812 10.621094 6.417968 16.523438 8.949218 21.671875 9.292969 46.089844 11.910157 66.738281 11.910157 25.664063 0 45.503907-4.050781 46.964844-4.355469l28.363281-5.945312-10.128906-27.152344c-1.195312-3.210938-6.570312-17.046875-16.140625-33.59375 51.945313-8.222656 97.84375-51.445313 99.785156-53.289063zm-530.316406-105.457031c10.691406 11.816406 15.316406 29.125 17.050781 44-13.765625-3.3125-30.21875-9.703125-41.375-22.027344-10.867187-12.015625-18.523437-29.199219-23.570313-44.722656 17.710938 3.949219 37.230469 10.960937 47.894532 22.75zm419.660156.105469c2.65625-2.898438 5.871094-5.507813 9.476562-7.855469l8.480469-4.546875c.230469-.125.980469-.53125 2.152344-1.214844 9.101563-4.136719 19.335937-7.144531 29.027344-9.261719-4.871094 14.980469-12.460938 32.152344-23.886719 44.636719-11.472656 12.535156-28.441406 18.957031-42.519531 22.242188.324219-2.894532.769531-5.917969 1.355469-9 .367187-1.300782.734374-2.609376 1.078124-3.933594l-.234374-.058594c2.527343-10.9375 7.058593-22.25 15.070312-31.007812zm8.699219-119.054688c3.941406-15.773438 18.566406-31.652344 32.855469-43.78125 3.023437 16.390625 4.515624 35.648438.488281 51.761719-4.164063 16.667969-16.246094 30.445312-27.199219 40.011719-5.75-14.195313-10.117188-32.121094-6.144531-47.992188zm-468.335938-43.78125c14.292969 12.132812 28.917969 28.011719 32.855469 43.78125 3.96875 15.871094-.394531 33.800781-6.132812 47.988281-10.960938-9.578125-23.046876-23.367187-27.210938-40.007812-4.027344-16.113281-2.535156-35.375.488281-51.761719zm64.332031 259.351562c15.84375 2.386719 30.46875 12.875 41.3125 23.339844-1.167968.660156-2.320312 1.335938-3.453124 2.046875-12.34375 5.492188-27.71875 9.871094-42.851563 7.589844-16.253906-2.445313-33.308594-11.054687-47.214844-20 16.40625-8.289063 36.253907-15.375 52.207031-12.976563zm82.882813 95.4375c-15.125 6.484376-34.167969 8.152344-50.71875 7.859376 7.945313-13.054688 18.332031-26.539063 30.148437-34.414063 3.539063-1.679687 6.859376-3.390625 9.914063-5.070313 14.382813-5.253906 31.371094-3.933593 45.371094-.855468-7.65625 12.101562-19.183594 25.828125-34.714844 32.480468zm102.761719 29.113282c-13.746094 0-24.921875-11.175782-24.921875-24.921875 0-12.628907 9.449219-23.0625 21.640625-24.679688 1.117187.066407 2.03125.105469 2.742187.128907v.046874c.113281-.003906.410157-.007812.855469-.019531.445312.011719.742188.015625.855469.019531v-.046874c.605469-.019532 1.363281-.054688 2.265625-.101563 12.113281 1.683594 21.480468 12.082031 21.480468 24.652344 0 13.738281-11.179687 24.921875-24.917968 24.921875zm103.394531-29.113282c-15.542969-6.660156-27.078125-20.402343-34.738281-32.507812 13.457031-3.046875 30.449218-4.613281 45.378906.878906 3.0625 1.683594 6.390625 3.394532 9.933594 5.078125 11.835937 7.886719 22.230468 21.402344 30.179687 34.460938-16.488281.292969-35.519531-1.375-50.753906-7.910157zm87.875-62.460937c-15.128906 2.277344-30.507813-2.097656-42.84375-7.585937-1.136719-.707032-2.289063-1.390626-3.457031-2.046876 10.851562-10.476562 25.46875-20.957031 41.308594-23.34375 16.0625-2.417968 35.875 4.644532 52.304687 12.984376-13.859375 8.929687-30.917969 17.523437-47.3125 19.992187zm-214.945313-112.773437v-130.691407c-18.078124 12.476563-39.972656 19.800781-63.546874 19.800781v-49.84375c34.351562 0 62.300781-27.949218 62.300781-62.300781h49.839843v.214844h1.242188v222.820313zm-147.082031-249.148438-39.683593-30.15625c24.121093-31.742188 55.617187-58.03125 91.078124-76.019531 37.214844-18.878907 77.371094-28.449219 119.363282-28.449219 41.753906 0 83.339844 9.996094 120.261718 28.910156 35.703126 18.28125 67.304688 44.972656 91.390626 77.167969l-39.910157 29.855469c-40.921875-54.710938-103.519531-86.089844-171.742187-86.089844-67.578125 0-129.816406 30.898438-170.757813 84.78125zm0 0"/>
    </symbol>

    <symbol id="advantages02" role="img" aria-labelledby="advantages02_title" viewBox="0 1 511 511.999">
        <title id="advantages02_title"></title>
        <path d="m494.867188 257.347656-.566407-.566406-125.488281-106.851562-.113281-33.160157-74.753907.257813-48.71875 48.714844c-7.636718 7.636718-20.171874 7.761718-27.945312.277343-3.726562-3.589843-5.8125-8.535156-5.863281-13.929687-.054688-5.664063 2.183593-11.179688 6.136719-15.132813l39.726562-42.382812c31.949219-34.097657 77.078125-53.65625 123.808594-53.65625h130.394531v-39.921875h-130.394531c-46.527344 0-91.761719 15.707031-128.230469 43.851562-36.847656-29.027344-82.214844-44.847656-129.558594-44.847656h-122.800781v39.921875h122.800781c36.246094 0 71.0625 11.449219 99.96875 32.570313l-34.195312 36.492187c-11.328125 11.46875-17.730469 27.296875-17.574219 43.488281.15625 16.199219 6.582031 31.226563 18.097656 42.3125 11.351563 10.925782 26.332032 16.859375 42.054688 16.722656 15.789062-.140624 30.636718-6.367187 41.800781-17.535156l37.082031-37.082031 4.855469-.019531 151.695313 129.167968c6.164062 6.644532 6.011718 17.066407-.449219 23.53125-3.175781 3.175782-7.433594 4.921876-11.996094 4.921876s-8.820313-1.746094-11.996094-4.921876l-4.097656-4.097656-28.226563 28.226563 4.09375 4.097656c1.917969 1.914063 3.9375 3.664063 6.042969 5.25l-.398437.394531c6.617187 6.617188 6.617187 17.378906 0 23.996094-6.613282 6.613281-17.378906 6.613281-23.992188 0l-6.773437-6.722656-28.226563 28.226562 4.589844 4.589844c3.4375 3.453125 5.511719 8.363281 5.6875 13.480469.09375 2.792969-.332031 8.066406-4.285156 12.011719-6.246094 6.25-17.0625 5.601562-24.101563-1.4375l-.558593-.5625-3.597657-3.066407-27.066406 29.304688c3.332031 3.328125 5.195313 7.6875 5.246094 12.273437.050781 4.4375-1.628907 8.589844-4.726563 11.6875-6.617187 6.617188-17.515625 6.484375-24.34375-.347656l-2.839844-2.816406c8.15625-20.785156 3.855469-45.367188-12.914062-62.140625-7.507812-7.507813-16.65625-12.761719-26.570312-15.398438 2.460937-17.148437-2.890626-35.210937-16.054688-48.375-9.863281-9.863281-22.480469-15.328125-35.398438-16.417969-.976562-12.84375-6.464843-25.445312-16.496093-35.476562-9.921875-9.921875-22.628907-15.390625-35.628907-16.4375-1.042968-13-6.511718-25.707031-16.433593-35.628906-22.136719-22.128906-58.121094-22.179688-80.316407-.136719l-27.890624 26.929687-.25.246094c-10.714844 10.714844-16.617188 25-16.617188 40.222656 0 15.226563 5.902344 29.511719 16.617188 40.226563 8.480468 8.480469 18.996093 13.707031 29.988281 15.703125-.515625 15.207031 5.003906 30.582031 16.589843 42.164062 10.328126 10.332032 24.117188 15.980469 38.933594 15.980469.28125 0 .5625-.003906.847656-.007812 1.613282 11.863281 6.945313 23.289062 16.019532 32.363281 11.039062 11.039062 25.546875 16.550781 40.101562 16.546875 1.222656 0 2.445313-.050781 3.667969-.128906 2.113281 11.617187 7.65625 22.300781 16.136719 30.78125 11.285156 11.285156 26.105468 16.925781 40.929687 16.925781 14.476563-.003906 28.945313-5.398438 40.125-16.160156 11.132813 10.757812 25.542969 16.160156 39.925781 16.15625 14.550782 0 29.066407-5.507813 40.101563-16.546875 8.828125-8.828125 14.339844-20.066407 15.9375-32.25 14.207031-.023438 28.242187-5.320313 38.867187-15.949219 9.335938-9.332031 14.832032-21.589844 15.824219-35.03125 13.535157-.722656 26.859375-6.238281 37.175781-16.554688 11.582032-11.582031 17.113282-26.953124 16.601563-42.15625 10.988281-1.996093 21.5-7.234374 29.976563-15.710937 22.179687-22.179687 22.179687-58.269531 0-80.449219zm-454.445313 44.097656c0-4.511718 1.710937-8.726562 4.820313-11.894531l27.859374-26.890625.25-.246094c3.175782-3.179687 7.4375-4.925781 11.996094-4.925781 4.5625 0 8.824219 1.746094 12 4.925781 3.171875 3.175782 4.921875 7.433594 4.921875 11.996094 0 3.789063-1.222656 7.367188-3.453125 10.292969-.523437.480469-1.042968.964844-1.554687 1.46875l-20.472657 20.074219-7.199218 6.953125-.25.246093c-3.175782 3.175782-7.4375 4.925782-12 4.925782-4.558594 0-8.820313-1.75-11.996094-4.925782-3.175781-3.175781-4.921875-7.4375-4.921875-12zm51.5 69.867188c-6.597656-6.597656-6.613281-17.320312-.054687-23.9375l12.78125-12.535156 20.675781-19.960938.25-.242187c.535156-.535157 1.042969-1.085938 1.554687-1.636719 6.644532-5.078125 16.207032-4.597656 22.28125 1.476562 6.570313 6.574219 6.609375 16.085938.101563 22.652344l-34.0625 33.394532c-6.984375 6.445312-17.503907 6.8125-23.527344.789062zm55.800781 48.335938c-6.605468-6.609376-6.480468-17.484376.273438-24.265626l29.242187-28.9375.074219-.074218c3.171875-3.175782 7.433594-4.921875 11.996094-4.921875 4.558594 0 8.820312 1.746093 11.996094 4.921875 6.605468 6.605468 6.613281 17.347656.03125 23.964844l-29.246094 28.941406-.074219.070312c-6.777344 6.78125-17.675781 6.914063-24.292969.300782zm59.90625 47.195312c-3.441406-3.441406-5.363281-8.054688-5.414062-12.992188-.050782-4.835937 1.730468-9.304687 5.015625-12.585937l11.976562-11.976563c3.195313-3.199218 7.34375-4.78125 11.585938-4.78125 4.636719 0 9.390625 1.890626 13.136719 5.636719 7.003906 7.003907 7.003906 18.402344 0 25.40625l-11 11.398438c-7.011719 6.898437-18.332032 6.863281-25.300782-.105469zm0 0"/>
    </symbol>

    <symbol id="advantages03" role="img" aria-labelledby="advantages03_title" viewBox="0 0 512 512">
        <title id="advantages03_title"></title>
        <path d="m463.113281 426.082031c8.6875-11.050781 13.886719-24.96875 13.886719-40.082031 0-35.839844-29.160156-65-65-65s-65 29.160156-65 65c0 10.242188 2.390625 19.933594 6.625 28.558594-10.730469-10.753906-23.222656-19.742188-37-26.507813 14.460938-15.09375 23.375-35.542969 23.375-58.050781 0-46.316406-37.683594-84-84-84s-84 37.683594-84 84c0 22.507812 8.914062 42.957031 23.375 58.050781-13.777344 6.765625-26.269531 15.757813-37 26.507813 4.234375-8.625 6.625-18.316406 6.625-28.558594 0-35.839844-29.160156-65-65-65s-65 29.160156-65 65c0 15.113281 5.199219 29.03125 13.886719 40.082031-29.25 17.46875-48.886719 49.441407-48.886719 85.917969h40c0-33.085938 26.914062-60 60-60 10.03125 0 19.816406 2.507812 28.507812 7.199219-6.765624 16.273437-10.507812 34.109375-10.507812 52.800781h40c0-54.039062 43.964844-98 98-98s98 43.960938 98 98h40c0-18.691406-3.742188-36.527344-10.507812-52.800781 8.691406-4.691407 18.476562-7.199219 28.507812-7.199219 33.085938 0 60 26.914062 60 60h40c0-36.476562-19.636719-68.449219-48.886719-85.917969zm-363.113281-65.082031c13.785156 0 25 11.214844 25 25s-11.214844 25-25 25-25-11.214844-25-25 11.214844-25 25-25zm112-31c0-24.261719 19.738281-44 44-44s44 19.738281 44 44-19.738281 44-44 44-44-19.738281-44-44zm200 31c13.785156 0 25 11.214844 25 25s-11.214844 25-25 25-25-11.214844-25-25 11.214844-25 25-25zm-368.023438-63.726562c-1.351562-6.976563-2.378906-14.074219-3.042968-21.273438h103.480468c3.882813-7.980469 8.160157-15.480469 13.585938-22.398438v-17.601562c1.1875-27.445312 5.261719-53.789062 11.121094-78h66.878906v50h40v-50h66.878906c5.859375 24.210938 9.933594 50.554688 11.121094 78v17.601562c5.425781 6.917969 9.703125 14.417969 13.585938 22.398438h103.480468c-.664062 7.199219-1.6875 14.296875-3.042968 21.273438 13.328124 8.460937 24.640624 19.835937 33.027343 33.21875 7.210938-23.839844 10.949219-48.878907 10.949219-74.492188 0-68.378906-26.628906-132.667969-74.980469-181.019531-48.351562-48.351563-112.640625-74.980469-181.019531-74.980469s-132.667969 26.628906-181.019531 74.980469c-48.351563 48.351562-74.980469 112.640625-74.980469 181.019531 0 25.613281 3.738281 50.652344 10.949219 74.492188 8.386719-13.378907 19.699219-24.757813 33.027343-33.21875zm404.484376-139.273438c12.167968 23.800781 20.035156 50.144531 22.605468 78h-77.472656c-1.089844-27.105469-4.386719-53.378906-9.71875-78zm-26.425782-40h-49.109375c-4.519531-13.421875-9.730469-26.089844-15.597656-37.820312-3.6875-7.375-7.585937-14.257813-11.667969-20.671876 29.664063 13.589844 55.738282 33.703126 76.375 58.492188zm-146.035156-72.890625c16.46875 8.339844 32.394531 26.644531 45.550781 52.957031 3.164063 6.328125 6.109375 12.988282 8.835938 19.933594h-54.386719zm-85.550781 52.957031c13.15625-26.3125 29.082031-44.617187 45.550781-52.957031v72.890625h-54.386719c2.726563-6.945312 5.671875-13.605469 8.835938-19.933594zm-24.109375-38.558594c-4.082032 6.414063-7.980469 13.296876-11.667969 20.671876-5.863281 11.730468-11.074219 24.398437-15.597656 37.820312h-49.109375c20.636718-24.789062 46.710937-44.902344 76.375-58.492188zm-102.800782 98.492188h64.585938c-5.332031 24.621094-8.628906 50.894531-9.71875 78h-77.472656c2.570312-27.855469 10.4375-54.199219 22.605468-78zm0 0"/>
    </symbol>

	<symbol id="services01" role="img" aria-labelledby="services01_title" viewBox="0 0 512 512">
        <title id="services01_title"></title>
        <rect x="30" y="446" style="fill:#fff;" width="452" height="56"/>
        <path style="fill:#fff;" d="M37,209.193L256,64l219,145.193H37z"/>
        <circle cx="256" cy="86" r="76"/>
        <rect id="XMLID_1129_" x="64" y="209.193" width="48" height="236.807"/>
        <rect id="XMLID_1128_" x="176" y="209.193" width="48" height="236.807"/>
        <rect id="XMLID_1127_" x="288" y="209.193" width="48" height="236.807"/>
        <rect id="XMLID_1126_" x="400" y="209.193" width="48" height="236.807"/>
        <path fill="#000" d="M482,436h-24V219.192h17c4.412,0,8.302-2.891,9.575-7.114c1.273-4.224-0.372-8.783-4.049-11.22    l-141.188-93.605C341.073,100.453,342,93.333,342,86c0-47.42-38.58-86-86-86s-86,38.58-86,86c0,7.333,0.927,14.453,2.663,21.253    L31.474,200.858c-3.677,2.438-5.322,6.996-4.049,11.22c1.273,4.224,5.163,7.114,9.575,7.114h17v68.403c0,5.523,4.477,10,10,10    s10-4.477,10-10v-68.403h28V436H74v-68.404c0-5.523-4.477-10-10-10s-10,4.477-10,10V436H30c-5.523,0-10,4.477-10,10v56    c0,5.523,4.477,10,10,10h329.667c5.523,0,10-4.477,10-10s-4.477-10-10-10H40v-36h432v36h-32c-5.523,0-10,4.477-10,10    s4.477,10,10,10h42c5.523,0,10-4.477,10-10v-56C492,440.477,487.523,436,482,436z M256,20c36.393,0,66,29.607,66,66    s-29.607,66-66,66s-66-29.607-66-66S219.607,20,256,20z M70.181,199.192l109.894-72.858C194.553,153.478,223.149,172,256,172    s61.447-18.522,75.925-45.665l109.894,72.858H70.181z M390,219.192V436h-44V219.192H390z M278,219.192V436h-44V219.192H278z     M122,219.192h44V436h-44V219.192z M186,436V219.192h28V436H186z M298,436V219.192h28V436H298z M410,436V219.192h28V436H410z"/>
        <path fill="#000" d="M256.022,116.18c-6.617,0-12-4.471-12-9.966c0-5.523-4.477-10-10-10s-10,4.477-10,10    c0,13.257,9.244,24.523,22.01,28.462c0.103,5.434,4.532,9.809,9.99,9.809s9.888-4.375,9.99-9.809    c12.766-3.939,22.01-15.206,22.01-28.462c0-16.523-14.355-29.966-32-29.966c-6.617,0-12-4.471-12-9.966    c0-5.496,5.383-9.966,12-9.966s12,4.471,12,9.966c0,5.523,4.477,10,10,10s10-4.477,10-10c0-13.253-9.239-24.518-22-28.46v-0.576    c0-5.523-4.477-10-10-10s-10,4.477-10,10v0.576c-12.761,3.942-22,15.206-22,28.46c0,16.523,14.355,29.966,32,29.966    c6.617,0,12,4.471,12,9.966C268.022,111.709,262.639,116.18,256.022,116.18z"/>
        <path fill="#000" d="M64,337.6c2.63,0,5.21-1.07,7.07-2.93S74,330.23,74,327.6c0-2.64-1.07-5.21-2.93-7.07    c-1.86-1.87-4.44-2.93-7.07-2.93s-5.21,1.06-7.07,2.93c-1.86,1.86-2.93,4.43-2.93,7.07c0,2.63,1.07,5.2,2.93,7.07    C58.79,336.53,61.37,337.6,64,337.6z"/>
        <path fill="#000" d="M400,492c-2.63,0-5.21,1.07-7.07,2.93c-1.86,1.86-2.93,4.44-2.93,7.07c0,2.63,1.07,5.21,2.93,7.07    c1.86,1.86,4.44,2.93,7.07,2.93c2.63,0,5.21-1.07,7.07-2.93S410,504.63,410,502c0-2.63-1.07-5.21-2.93-7.07    C405.21,493.07,402.63,492,400,492z"/>
    </symbol>

    <symbol id="services02" role="img" aria-labelledby="services02_title" viewBox="0 0 480 480">
        <title id="services02_title"></title>
        <path d="m196.558594 298.398438c-1.832032 4.914062-1.144532 10.414062 1.84375 14.722656 2.988281 4.308594 7.898437 6.878906 13.140625 6.878906h32.175781l13.601562 20.441406c1.488282 2.230469 3.996094 3.566406 6.679688 3.558594h48c2.675781 0 5.171875-1.335938 6.65625-3.558594l13.625-20.441406h32.175781c5.242188 0 10.152344-2.570312 13.140625-6.878906 2.988282-4.308594 3.675782-9.808594 1.84375-14.722656l-12.160156-32.421876c-5.105469-13.488281-17.039062-23.214843-31.28125-25.488281v-31.007812c.027344-8.007813-2.371094-15.835938-6.886719-22.449219-23.960937-35.03125-36.875-35.03125-41.113281-35.03125s-17.152344 0-41.113281 35.023438c-4.511719 6.617187-6.914063 14.445312-6.886719 22.457031v31.007812c-14.238281 2.273438-26.171875 11.988281-31.28125 25.472657zm111.203125 29.601562h-39.441407l-5.335937-8h50.113281zm44.574219-56.425781 12.121093 32.425781h-28.457031v-47.121094c7.476562 1.996094 13.539062 7.464844 16.296875 14.695313zm-96.335938-62.09375c-.023438-4.78125 1.402344-9.460938 4.089844-13.417969 15.191406-22.199219 24.902344-28.0625 27.910156-28.0625s12.71875 5.863281 27.910156 28.0625c2.6875 3.957031 4.113282 8.636719 4.089844 13.417969v94.519531h-64zm-32.296875 62.09375c2.757813-7.230469 8.820313-12.699219 16.296875-14.695313v47.121094h-28.457031zm0 0"/>
        <path d="m288 360c-17.671875 0-32 14.328125-32 32 0 16.480469 12.464844 48 32 48s32-31.519531 32-48c0-17.671875-14.328125-32-32-32zm0 64c-5.984375 0-16-20.039062-16-32 0-8.835938 7.164062-16 16-16s16 7.164062 16 16c0 12-10.015625 32-16 32zm0 0"/>
        <path d="m392 456c-.054688-6.582031-2.789062-12.855469-7.574219-17.378906-4.785156-4.519532-11.203125-6.898438-17.777343-6.582032-3.875-11.042968-15.148438-17.683593-26.683594-15.714843-11.539063 1.96875-19.972656 11.972656-19.964844 23.675781h16c0-4.417969 3.582031-8 8-8s8 3.582031 8 8c-.007812.449219-.042969.894531-.113281 1.335938-.34375 3.027343 1.058593 5.984374 3.617187 7.632812 2.5625 1.648438 5.835938 1.703125 8.449219.136719 1.222656-.734375 2.621094-1.113281 4.046875-1.105469 4.417969 0 8 3.582031 8 8s-3.582031 8-8 8h-160c-4.417969 0-8-3.582031-8-8s3.582031-8 8-8c1.425781-.007812 2.824219.371094 4.046875 1.105469 2.613281 1.566406 5.886719 1.511719 8.449219-.136719 2.558594-1.648438 3.960937-4.605469 3.617187-7.632812-.070312-.441407-.105469-.886719-.113281-1.335938 0-4.417969 3.582031-8 8-8s8 3.582031 8 8h16c.007812-11.703125-8.425781-21.707031-19.964844-23.675781-11.535156-1.96875-22.808594 4.671875-26.683594 15.714843-6.574218-.320312-13 2.050782-17.785156 6.574219-4.785156 4.523438-7.519531 10.800781-7.566406 17.386719.027344 2.730469.523438 5.4375 1.472656 8h-25.472656v16h256v-16h-25.472656c.949218-2.5625 1.445312-5.269531 1.472656-8zm0 0"/>
        <path d="m288 184c-13.253906 0-24 10.746094-24 24s10.746094 24 24 24 24-10.746094 24-24-10.746094-24-24-24zm0 32c-4.417969 0-8-3.582031-8-8s3.582031-8 8-8 8 3.582031 8 8-3.582031 8-8 8zm0 0"/>
        <path d="m376 328h16v32h-16zm0 0"/>
        <path d="m376 376h16v16h-16zm0 0"/>
        <path d="m408 344h16v32h-16zm0 0"/>
        <path d="m408 392h16v16h-16zm0 0"/>
        <path d="m184 328h16v32h-16zm0 0"/>
        <path d="m184 376h16v16h-16zm0 0"/>
        <path d="m152 344h16v32h-16zm0 0"/>
        <path d="m152 392h16v16h-16zm0 0"/>
        <path d="m456 0h-432c-13.253906 0-24 10.746094-24 24v400c0 13.253906 10.746094 24 24 24h144v-16h-144c-4.417969 0-8-3.582031-8-8v-344h448v344c0 4.417969-3.582031 8-8 8h-48v16h48c13.253906 0 24-10.746094 24-24v-400c0-13.253906-10.746094-24-24-24zm-440 64v-40c0-4.417969 3.582031-8 8-8h432c4.417969 0 8 3.582031 8 8v40zm0 0"/>
        <path d="m48 32h16v16h-16zm0 0"/>
        <path d="m80 32h16v16h-16zm0 0"/>
        <path d="m112 32h16v16h-16zm0 0"/>
        <path d="m184 112h16v16h-16zm0 0"/>
        <path d="m216 112h16v16h-16zm0 0"/>
        <path d="m248 112h16v16h-16zm0 0"/>
        <path d="m280 112h16v16h-16zm0 0"/>
        <path d="m176 32h176v16h-176zm0 0"/>
        <path d="m56 160h112v16h-112zm0 0"/>
        <path d="m56 192h112v16h-112zm0 0"/>
        <path d="m56 224h112v16h-112zm0 0"/>
    </symbol>

    <symbol id="services03" role="img" aria-labelledby="services03_title" viewBox="0 0 480 480">
        <title id="services03_title"></title>
        <path d="m16 408v-328h400v56h16v-112c0-13.253906-10.746094-24-24-24h-384c-13.253906 0-24 10.746094-24 24v384c0 13.253906 10.746094 24 24 24h200v-16h-200c-4.417969 0-8-3.582031-8-8zm8-392h384c4.417969 0 8 3.582031 8 8v40h-400v-40c0-4.417969 3.582031-8 8-8zm0 0"/>
        <path d="m48 32h16v16h-16zm0 0"/>
        <path d="m80 32h16v16h-16zm0 0"/>
        <path d="m112 32h16v16h-16zm0 0"/>
        <path d="m48 112h16v16h-16zm0 0"/>
        <path d="m80 112h16v16h-16zm0 0"/>
        <path d="m112 112h16v16h-16zm0 0"/>
        <path d="m144 112h16v16h-16zm0 0"/>
        <path d="m176 32h176v16h-176zm0 0"/>
        <path d="m304 112h16v32h-16zm0 0"/>
        <path d="m402.511719 178.171875 22.628906-22.625 11.3125 11.3125-22.628906 22.628906zm0 0"/>
        <path d="m448 272h32v16h-32zm0 0"/>
        <path d="m402.511719 381.820312 11.3125-11.3125 22.628906 22.625-11.3125 11.3125zm0 0"/>
        <path d="m187.550781 393.132812 22.628907-22.628906 11.3125 11.316406-22.625 22.625zm0 0"/>
        <path d="m144 272h32v16h-32zm0 0"/>
        <path d="m187.550781 166.859375 11.316407-11.3125 22.625 22.625-11.3125 11.316406zm0 0"/>
        <path d="m432 280c-.003906-56.261719-39.097656-104.96875-94.027344-117.148438-54.929687-12.175781-110.945312 15.445313-134.726562 66.433594-23.78125 50.992188-8.941406 111.65625 35.691406 145.914063-5.117188 5.152343-7.609375 12.351562-6.777344 19.5625.828125 7.214843 4.894532 13.65625 11.046875 17.511719-3.625 6.234374-4.207031 13.78125-1.585937 20.5 2.625 6.71875 8.167968 11.875 15.058594 14.003906 3.292968 19.15625 19.882812 33.171875 39.320312 33.222656h32c19.449219-.054688 36.042969-14.089844 39.320312-33.265625 6.890626-2.125 12.4375-7.28125 15.0625-14s2.042969-14.265625-1.582031-20.503906c6.152344-3.851563 10.21875-10.296875 11.046875-17.507813.832032-7.210937-1.660156-14.410156-6.777344-19.5625 29.703126-22.605468 47.074219-57.835937 46.929688-95.160156zm-64 104c4.417969 0 8 3.582031 8 8s-3.582031 8-8 8h-112c-4.417969 0-8-3.582031-8-8s3.582031-8 8-8zm-40 80h-32c-10.132812-.042969-19.148438-6.445312-22.527344-16h77.054688c-3.378906 9.554688-12.394532 15.957031-22.527344 16zm32-32h-96c-4.417969 0-8-3.582031-8-8s3.582031-8 8-8h96c4.417969 0 8 3.582031 8 8s-3.582031 8-8 8zm7.238281-64h-47.238281v-72h24c13.253906 0 24-10.746094 24-24s-10.746094-24-24-24-24 10.746094-24 24h16c0-4.417969 3.582031-8 8-8s8 3.582031 8 8-3.582031 8-8 8h-64c-4.417969 0-8-3.582031-8-8s3.582031-8 8-8 8 3.582031 8 8h16c0-13.253906-10.746094-24-24-24s-24 10.746094-24 24 10.746094 24 24 24h24v72h-47.199219c-39.289062-24.628906-57.523437-72.292969-44.710937-116.855469s53.582031-75.261719 99.949218-75.261719c46.371094 0 87.136719 30.699219 99.953126 75.261719 12.8125 44.5625-5.425782 92.226563-44.710938 116.855469zm0 0"/>
        <path d="m48 144h112v16h-112zm0 0"/>
        <path d="m48 176h112v16h-112zm0 0"/>
        <path d="m48 208h112v16h-112zm0 0"/>
    </symbol>

    <symbol id="services04" role="img" aria-labelledby="services04_title" viewBox="0 0 480 480">
        <title id="services04_title"></title>
        <path d="M416,454.3c0,4.7-3.6,8.6-8,8.6H24c-4.4,0-8-3.8-8-8.6V85.7h400v77.1h16V25.7C432,11.5,421.3,0,408,0H24
            C10.7,0,0,11.5,0,25.7v428.6C0,468.5,10.7,480,24,480h384c13.3,0,24-11.5,24-25.7v-51.4h-16V454.3z M24,16h384c4.4,0,8,3.6,8,8v40
            H16V24C16,19.6,19.6,16,24,16z"/>
        <path d="M48,32h16v16H48V32z"/>
        <path d="M80,32h16v16H80V32z"/>
        <path d="M112,32h16v16h-16V32z"/>
        <path d="M160,112h16v16h-16V112z"/>
        <path d="M192,112h16v16h-16V112z"/>
        <path d="M224,112h16v16h-16V112z"/>
        <path d="M256,112h16v16h-16V112z"/>
        <path d="M176,32h176v16H176V32z"/>
        <path d="M456,187H248c-13.3,0-24,10.7-24,24v144c0,13.3,10.7,24,24,24h40v40c0,3.2,1.9,6.2,4.9,7.4s6.4,0.6,8.7-1.7l45.7-45.7H456
            c13.3,0,24-10.7,24-24V211C480,197.7,469.3,187,456,187z M464,355c0,4.4-3.6,8-8,8H344c-2.1,0-4.2,0.8-5.7,2.3L304,399.7V371
            c0-4.4-3.6-8-8-8h-48c-4.4,0-8-3.6-8-8V211c0-4.4,3.6-8,8-8h208c4.4,0,8,3.6,8,8V355z"/>
        <path d="M298.3,325.3l96-96l11.3,11.3l-96,96L298.3,325.3z"/>
        <path d="M384,291c-13.3,0-24,10.7-24,24s10.7,24,24,24s24-10.7,24-24S397.3,291,384,291z M384,323c-4.4,0-8-3.6-8-8s3.6-8,8-8
            s8,3.6,8,8S388.4,323,384,323z"/>
        <path d="M320,275c13.3,0,24-10.7,24-24s-10.7-24-24-24s-24,10.7-24,24S306.7,275,320,275z M320,243c4.4,0,8,3.6,8,8s-3.6,8-8,8
            s-8-3.6-8-8S315.6,243,320,243z"/>
        <path d="M175,250h8c3.3,0,6.3-2.1,7.5-5.2s0.3-6.6-2.2-8.8l-64-56c-3-2.6-7.5-2.6-10.5,0l-64,56c-2.5,2.2-3.4,5.7-2.2,8.8
            s4.2,5.2,7.5,5.2h8v56c0,4.4,3.6,8,8,8h96c4.4,0,8-3.6,8-8V250z M119,196.6l42.7,37.4H76.3L119,196.6z M111,298v-16h16v16H111z
             M159,298h-16v-24c0-4.4-3.6-8-8-8h-32c-4.4,0-8,3.6-8,8v24H79v-48h80V298z"/>
        <path d="M63,330h32v16H63V330z"/>
        <path d="M111,330h64v16h-64V330z"/>
        <path d="M63,370h112v16H63V370z"/>
        <path d="M63,410h112v16H63V410z"/>
    </symbol>

    <symbol id="check" role="img" aria-labelledby="check_title" viewBox="0 0 448 448">
        <title id="check_title"></title>
        <polygon points="341.333,192.96 341.333,381.12 42.667,381.12 42.667,82.453 308.693,82.453 355.627,39.787 0,39.787 0,423.787 
            384,423.787 384,153.707         "/>
        <polygon points="417.493,24.213 186.027,234.56 113.493,162.24 85.333,190.4 187.947,293.013 448,54.08        "/>
    </symbol>

    <symbol id="footer-facebook" role="img" aria-labelledby="footer-facebook_title" viewBox="0 0 512 512">
        <title id="footer-facebook_title">Facebook</title>
        <path d="M314.829,135.492h70.595c11.423,0,20.682-9.26,20.682-20.682V20.682C406.107,9.26,396.848,0,385.425,0h-70.595
            c-76.282,0-138.341,62.06-138.341,138.341v49.913h-49.913c-11.422,0-20.682,9.26-20.682,20.682v94.127
            c0,11.423,9.26,20.682,20.682,20.682h49.913v167.572c0,11.423,9.26,20.682,20.682,20.682h94.127
            c11.423,0,20.682-9.259,20.682-20.682V323.746h49.913c9.49,0,17.763-6.458,20.065-15.666l23.532-94.127
            c1.544-6.179,0.156-12.725-3.763-17.744c-3.919-5.02-9.932-7.954-16.301-7.954H311.98v-49.913
            C311.98,136.77,313.258,135.492,314.829,135.492z M291.298,229.619h67.637l-13.191,52.763h-54.447
            c-11.423,0-20.682,9.259-20.682,20.682v167.572h-52.763V303.064c0-11.423-9.26-20.682-20.682-20.682h-49.913v-52.763h49.913
            c11.422,0,20.682-9.26,20.682-20.682v-70.595c0-53.473,43.503-96.977,96.977-96.977h49.913v52.763h-49.913
            c-24.38,0-44.214,19.835-44.214,44.214v70.595C270.615,220.359,279.875,229.619,291.298,229.619z"/>
    </symbol>

    <symbol id="footer-twitter" role="img" aria-labelledby="footer-twitter_title" viewBox="0 0 512 512">
        <title id="footer-twitter_title">Twitter</title>
        <path d="M502.954,47.189c-7.126-4.852-16.515-4.774-23.559,0.196c-15.351,10.828-31.974,19.528-49.557,25.948
            c-19.253-17.414-43.615-27.826-69.915-29.656c-31.056-2.16-61.081,7.9-84.561,28.326c-25.59,22.259-40.174,54.444-40.046,88.349
            c-85.248-7.609-139.14-61.55-177.09-108.986c-4.598-5.746-11.901-8.619-19.182-7.538c-7.279,1.078-13.438,5.944-16.171,12.777
            c-0.948,2.369-23.141,58.799-17.453,127.057c4.761,57.133,30.23,131.964,120.039,181.717
            c-32.436,14.756-68.282,21.939-103.953,20.519c-9.576-0.378-18.15,5.859-20.736,15.08c-2.587,9.221,1.497,19.013,9.869,23.665
            c51.359,28.532,108.03,43.736,163.889,43.965c0.432,0.002,0.861,0.003,1.294,0.003c54.105-0.001,106.379-13.938,151.246-40.336
            c42.898-25.241,78.416-61.759,102.715-105.603c26.162-47.206,39.427-101.75,39.427-162.186c-0.011-3.544-0.186-7.098-0.52-10.638
            c20.7-22.885,35.388-50.567,42.719-80.667C513.451,60.803,510.081,52.04,502.954,47.189z M432.297,128.07
            c-4.916,4.847-7.088,11.827-5.793,18.607c0.877,4.588,1.329,9.278,1.344,13.874c0,101.956-44.378,186.544-121.756,232.072
            c-60.586,35.649-133.037,43.933-203.609,25.057c0.729-0.201,1.459-0.407,2.185-0.615c27.596-7.885,53.63-20.055,77.377-36.174
            c6.329-4.296,9.77-11.734,8.946-19.34c-0.825-7.605-5.778-14.134-12.881-16.975C97.757,312.434,53.563,257.594,46.757,181.575
            c-2.536-28.334,0.707-54.721,4.766-74.501c16.638,17.909,37.384,37.227,62.129,53.407c42.771,27.966,90.663,42.146,142.346,42.146
            c11.423,0,20.682-9.26,20.682-20.682v-21.393c0-0.045,0-0.091,0-0.137c-0.146-21.948,9.268-42.797,25.829-57.202
            c15.146-13.175,34.51-19.665,54.543-18.27c20.026,1.393,38.311,10.502,51.487,25.648c5.339,6.138,13.783,8.577,21.567,6.229
            c5.725-1.724,11.375-3.645,16.941-5.757C442.599,117.081,437.672,122.769,432.297,128.07z"/>
    </symbol>    

    <symbol id="footer-linkedin" role="img" aria-labelledby="footer-linkedin_title" viewBox="0 0 512 512">
        <title id="footer-linkedin_title">Linkedin</title>
        <path d="M2.5,510V153.7h137.3V510H2.5z M102.5,472.7V191H39.8v281.7H102.5z"/>
        <path d="M375.4,510l0.1-158.1c0.5-23.6-8.8-42.9-24.9-51.7c-5.4-3-11.2-4.5-17.3-4.5c-5.2,0-10.4,1.1-15.5,3.3l-1.1,211H176.1
            V153.7h140.6V166c16.6-6,33.6-9.1,50.6-9.1c24.7,0,48.3,6.4,70.2,18.9c44,25.2,72.5,71.8,72.5,118.8V510H375.4z M472.7,472.7V294.6
            c0-33.8-21.1-67.7-53.7-86.4c-15.9-9.1-33.8-13.9-51.7-14h-0.3c-20.1,0-40.1,5.8-59.6,17.3L279.4,228V191h-66.1v281.7h66.2l1-194.7
            l8.2-5.5c13.7-9.2,29.1-14.1,44.5-14.1c12.4,0,24.2,3,35.1,9c13.7,7.5,25,19.2,32.8,33.8c7.9,14.9,11.9,32.6,11.5,51.1l0,120.3
            H472.7z"/>
        <path d="M70.9,139.9C32.9,139.9,2,109,2,71c0-38,30.9-69,68.9-69c38,0,68.9,30.9,68.9,69C139.8,109,108.9,139.9,70.9,139.9z
             M70.9,39.3c-17.4,0-31.6,14.2-31.6,31.7c0,17.5,14.2,31.7,31.6,31.7c17.4,0,31.6-14.2,31.6-31.7C102.5,53.5,88.3,39.3,70.9,39.3z"
            />
    </symbol>

    <symbol id="footer-instagram" role="img" aria-labelledby="footer-instagram_title" viewBox="0 0 512 512">
        <title id="footer-instagram_title">Instagram</title>
        <path d="M373.659,0H138.341C62.06,0,0,62.06,0,138.341v235.318C0,449.94,62.06,512,138.341,512h235.318
            C449.94,512,512,449.94,512,373.659V138.341C512,62.06,449.94,0,373.659,0z M470.636,373.659
            c0,53.473-43.503,96.977-96.977,96.977H138.341c-53.473,0-96.977-43.503-96.977-96.977V138.341
            c0-53.473,43.503-96.977,96.977-96.977h235.318c53.473,0,96.977,43.503,96.977,96.977V373.659z"/>
        <path d="M370.586,238.141c-3.64-24.547-14.839-46.795-32.386-64.342c-17.547-17.546-39.795-28.746-64.341-32.385
            c-11.176-1.657-22.507-1.657-33.682,0c-30.336,4.499-57.103,20.541-75.372,45.172c-18.269,24.631-25.854,54.903-21.355,85.237
            c4.499,30.335,20.541,57.102,45.172,75.372c19.996,14.831,43.706,22.619,68.153,22.619c5.667,0,11.375-0.418,17.083-1.265
            c30.336-4.499,57.103-20.541,75.372-45.172C367.5,298.747,375.085,268.476,370.586,238.141z M267.791,327.632
            c-19.405,2.882-38.77-1.973-54.527-13.66c-15.757-11.687-26.019-28.811-28.896-48.216c-2.878-19.405,1.973-38.77,13.66-54.527
            c11.688-15.757,28.811-26.019,48.217-28.897c3.574-0.53,7.173-0.795,10.772-0.795s7.199,0.265,10.773,0.796
            c32.231,4.779,57.098,29.645,61.878,61.877C335.608,284.268,307.851,321.692,267.791,327.632z"/>
        <path d="M400.049,111.951c-3.852-3.851-9.183-6.058-14.625-6.058c-5.442,0-10.773,2.206-14.625,6.058
            c-3.851,3.852-6.058,9.174-6.058,14.625c0,5.451,2.207,10.773,6.058,14.625c3.852,3.851,9.183,6.058,14.625,6.058
            c5.442,0,10.773-2.206,14.625-6.058c3.851-3.852,6.058-9.183,6.058-14.625C406.107,121.133,403.9,115.802,400.049,111.951z"/>
    </symbol>

    <symbol id="footer-phone" role="img" aria-labelledby="footer-phone_title" viewBox="0 0 512 512">
        <title id="footer-phone_title"></title>
        <path d="M421.216,195.504c-5.092-26.101-17.723-49.836-36.526-68.64c-18.804-18.803-42.54-31.434-68.641-36.527
			c-11.21-2.189-22.073,5.128-24.261,16.339c-2.187,11.212,5.128,22.073,16.339,24.26c36.847,7.188,65.3,35.642,72.489,72.489
			c1.927,9.874,10.581,16.726,20.278,16.726c1.313,0,2.645-0.125,3.984-0.387C416.088,217.577,423.403,206.715,421.216,195.504z"/>
		<path d="M511.422,196.929c-5.629-50.096-28.373-97.304-64.042-132.927C411.712,28.378,364.475,5.694,314.371,0.128
			c-11.355-1.261-21.578,6.92-22.839,18.272c-1.261,11.353,6.919,21.578,18.272,22.84c84.961,9.438,150.966,75.36,160.512,160.31
			c1.188,10.566,10.139,18.374,20.527,18.374c0.771,0,1.552-0.043,2.336-0.131C504.53,218.516,512.698,208.281,511.422,196.929z"/>
		<path d="M432.59,312.566c-0.062-0.008-0.124-0.017-0.186-0.025c-20.013-2.639-39.751-7.557-58.619-14.596
			c-23.91-8.99-51.103-3.191-69.27,14.772c-0.028,0.028-0.056,0.055-0.083,0.083l-17.148,17.148
			c-42.633-26.924-78.756-63.047-105.679-105.679l17.149-17.149c0.027-0.028,0.054-0.055,0.082-0.083
			c17.964-18.166,23.762-45.356,14.79-69.223c-7.057-18.914-11.974-38.653-14.614-58.666c-0.007-0.063-0.017-0.127-0.026-0.19
			c-4.591-32.478-32.782-56.734-65.548-56.467H66.053c-1.943,0.002-3.912,0.091-5.853,0.267
			C24.143,26.016-2.541,58.001,0.718,94.058c0.01,0.108,0.02,0.215,0.032,0.323c7.684,72.354,32.649,142.88,72.197,203.955
			c35.892,56.461,84.701,105.269,141.162,141.164c60.792,39.406,130.99,64.369,203.013,72.196c0.127,0.015,0.254,0.027,0.38,0.038
			c1.961,0.176,3.949,0.266,5.921,0.266c0.083,0,0.165,0,0.247,0.001c36.204-0.148,65.538-29.722,65.391-65.841v-67.233
			C489.746,345.714,465.515,317.211,432.59,312.566z M447.698,378.695v67.548c0.055,13.396-10.8,24.338-24.19,24.393
			c-0.715-0.004-1.425-0.027-2.135-0.086c-65.578-7.161-129.488-29.914-184.837-65.808c-0.053-0.035-0.107-0.069-0.161-0.103
			c-51.429-32.68-95.885-77.137-128.565-128.565c-0.032-0.051-0.064-0.101-0.097-0.153C71.683,220.306,48.928,156.086,41.902,90.193
			C40.779,76.91,50.63,65.155,63.923,63.954c0.717-0.064,1.443-0.098,2.145-0.098h67.463c0.146-0.001,0.294-0.003,0.443-0.002
			c12.021,0,22.322,8.905,24.044,20.819c3.05,23.063,8.721,45.806,16.871,67.649c3.319,8.832,1.189,18.869-5.427,25.591
			l-28.517,28.517c-6.583,6.582-7.956,16.753-3.354,24.847c33.837,59.508,83.177,108.847,142.685,142.685
			c8.094,4.6,18.264,3.23,24.848-3.355l28.512-28.512c6.72-6.621,16.765-8.752,25.642-5.415
			c21.799,8.134,44.547,13.805,67.61,16.855c12.18,1.757,21.122,12.339,20.816,24.647
			C447.7,378.353,447.698,378.524,447.698,378.695z"/>
    </symbol>    

	<symbol id="footer-mail" role="img" aria-labelledby="footer-mail_title" viewBox="0 0 512 512">
        <title id="footer-mail_title"></title>
        <path d="M256,141.176c-63.306,0-114.809,51.503-114.809,114.809S192.694,370.795,256,370.795s114.809-51.503,114.809-114.809
			S319.306,141.176,256,141.176z M256,329.43c-40.498,0-73.445-32.947-73.445-73.445c0-40.498,32.947-73.445,73.445-73.445
			c40.499,0,73.445,32.947,73.445,73.445C329.445,296.483,296.499,329.43,256,329.43z"/>
		<path d="M437.008,74.97C388.656,26.623,324.375,0,256,0c-0.005,0-0.013,0-0.017,0C187.603,0.004,123.318,26.637,74.97,74.992
			C26.62,123.347-0.005,187.637,0,256.017c0.004,68.379,26.637,132.666,74.992,181.014C123.344,485.377,187.625,512.001,256,512
			c0.004,0,0.012,0,0.017,0c55.945-0.004,111.216-18.738,155.631-52.752c9.07-6.945,10.792-19.927,3.846-28.995
			c-6.945-9.069-19.926-10.794-28.995-3.846c-37.24,28.518-83.58,44.224-130.486,44.228c-0.006,0-0.006,0-0.014,0
			c-57.324,0-111.224-22.324-151.761-62.856c-40.542-40.536-62.871-94.435-62.875-151.766
			C41.357,137.663,137.636,41.372,255.986,41.364c0.007,0,0.006,0,0.014,0c118.34,0,214.628,96.279,214.636,214.622v23.532
			c0,27.523-22.39,49.913-49.913,49.913c-27.523,0-49.913-22.391-49.913-49.913v-23.532c0-11.422-9.259-20.682-20.682-20.682
			s-20.682,9.26-20.682,20.682v23.532c0,50.33,40.947,91.278,91.278,91.278S512,329.848,512,279.518v-23.534
			C511.995,187.604,485.362,123.318,437.008,74.97z"/>
    </symbol>

    <symbol id="footer-location" role="img" aria-labelledby="footer-location_title" viewBox="0 0 512 512">
        <title id="footer-location_title"></title>
        <path d="M406.766,62.449C366.495,22.178,312.951,0,256,0S145.505,22.178,105.234,62.449
			c-40.272,40.271-62.449,93.814-62.449,150.766c0,37.656,10.972,76.863,32.609,116.532c16.825,30.846,40.15,62.102,69.326,92.898
			c49.17,51.903,97.763,84.519,99.808,85.881C248.001,510.842,252,512,256,512c4,0,7.999-1.158,11.473-3.474
			c2.045-1.363,50.638-33.978,99.808-85.881c29.176-30.795,52.501-62.051,69.326-92.898c21.637-39.669,32.609-78.876,32.609-116.532
			C469.215,156.263,447.038,102.72,406.766,62.449z M256.001,465.903C215.826,436.156,84.15,329.739,84.15,213.215
			c0-94.759,77.091-171.851,171.85-171.851s171.85,77.092,171.851,171.851C427.851,329.748,296.159,436.168,256.001,465.903z"/>
		<path d="M256,128.355c-46.791,0-84.86,38.068-84.86,84.86c0,46.791,38.068,84.86,84.86,84.86c46.792,0,84.861-38.068,84.86-84.86
			C340.86,166.423,302.791,128.355,256,128.355z M256,256.71c-23.983,0-43.495-19.512-43.495-43.495
			c0-23.983,19.512-43.495,43.495-43.495c23.984,0,43.495,19.512,43.495,43.495C299.495,237.198,279.984,256.71,256,256.71z"/>
		</symbol>

	<symbol id="footer-time" role="img" aria-labelledby="footer-time_title" viewBox="0 0 512 512">
        <title id="footer-time_title"></title>
        <path d="M437.019,74.981C388.667,26.629,324.38,0,256,0S123.333,26.63,74.981,74.981S0,187.62,0,256
			s26.629,132.667,74.981,181.019C123.332,485.371,187.62,512,256,512s132.667-26.629,181.019-74.981
			C485.371,388.667,512,324.38,512,256S485.371,123.332,437.019,74.981z M256,470.636C137.65,470.636,41.364,374.35,41.364,256
			S137.65,41.364,256,41.364S470.636,137.65,470.636,256S374.35,470.636,256,470.636z"/>
		<path d="M341.221,311.97l-64.538-64.537V114.809c0-11.422-9.259-20.682-20.682-20.682c-11.422,0-20.682,9.26-20.682,20.682V256
			c0,5.486,2.179,10.746,6.058,14.625l70.594,70.595c4.038,4.039,9.332,6.058,14.625,6.058c5.293,0,10.586-2.019,14.626-6.058
			C349.297,333.142,349.297,320.047,341.221,311.97z"/>
	</symbol>

</svg>