<svg xmlns="http://www.w3.org/2000/svg" xmlns:xlink="http://www.w3.org/1999/xlink">

    <symbol id="header-phone" role="img" aria-labelledby="header-phone_title" viewBox="0 0 480.56 480.56">
        <title id="header-phone_title"></title>
        <path d="M365.354,317.9c-15.7-15.5-35.3-15.5-50.9,0c-11.9,11.8-23.8,23.6-35.5,35.6c-3.2,3.3-5.9,4-9.8,1.8
            c-7.7-4.2-15.9-7.6-23.3-12.2c-34.5-21.7-63.4-49.6-89-81c-12.7-15.6-24-32.3-31.9-51.1c-1.6-3.8-1.3-6.3,1.8-9.4
            c11.9-11.5,23.5-23.3,35.2-35.1c16.3-16.4,16.3-35.6-0.1-52.1c-9.3-9.4-18.6-18.6-27.9-28c-9.6-9.6-19.1-19.3-28.8-28.8
            c-15.7-15.3-35.3-15.3-50.9,0.1c-12,11.8-23.5,23.9-35.7,35.5c-11.3,10.7-17,23.8-18.2,39.1c-1.9,24.9,4.2,48.4,12.8,71.3
            c17.6,47.4,44.4,89.5,76.9,128.1c43.9,52.2,96.3,93.5,157.6,123.3c27.6,13.4,56.2,23.7,87.3,25.4c21.4,1.2,40-4.2,54.9-20.9
            c10.2-11.4,21.7-21.8,32.5-32.7c16-16.2,16.1-35.8,0.2-51.8C403.554,355.9,384.454,336.9,365.354,317.9z"/>
        <path d="M346.254,238.2l36.9-6.3c-5.8-33.9-21.8-64.6-46.1-89c-25.7-25.7-58.2-41.9-94-46.9l-5.2,37.1
            c27.7,3.9,52.9,16.4,72.8,36.3C329.454,188.2,341.754,212,346.254,238.2z"/>
        <path d="M403.954,77.8c-42.6-42.6-96.5-69.5-156-77.8l-5.2,37.1c51.4,7.2,98,30.5,134.8,67.2c34.9,34.9,57.8,79,66.1,127.5
            l36.9-6.3C470.854,169.3,444.354,118.3,403.954,77.8z"/>
    </symbol>

    <symbol id="header-mail" role="img" aria-labelledby="header-mail_title" viewBox="0 0 474.6 474.6">
        <title id="header-mail_title"></title>
        <path d="M428.5,45.7h-383c-7.2,0-13.8,1.5-20,4.6l211.5,171.5L448.5,50.3C442.4,47.3,436.2,45.7,428.5,45.7z"/>
        <path d="M251.4,283c-4.1,3.6-9.2,5.1-14.3,5.1s-10.2-1.5-14.3-5.1L0,102.2c0,1,0,1.5,0,3.1v278c0,25.1,20.5,45.6,45.6,45.6h383.5
            c25.1,0,45.6-20.5,45.6-45.6v-278c0-1,0-1.5,0-3.1L251.4,283z"/>
    </symbol>

    <symbol id="header-locations" role="img" aria-labelledby="header-locations_title" viewBox="0 0 487.724 487.724">
        <title id="header-locations_title"></title>
        <path d="M236.925,0.124c-96.9,3.4-177.4,79-186.7,175.5c-1.9,19.3-0.8,38,2.6,55.9l0,0c0,0,0.3,2.1,1.3,6.1
            c3,13.4,7.5,26.4,13.1,38.6c19.5,46.2,64.6,123.5,165.8,207.6c6.2,5.2,15.3,5.2,21.6,0c101.2-84,146.3-161.3,165.9-207.7
            c5.7-12.2,10.1-25.1,13.1-38.6c0.9-3.9,1.3-6.1,1.3-6.1l0,0c2.3-12,3.5-24.3,3.5-36.9C438.425,84.724,347.525-3.776,236.925,0.124
            z M243.825,291.324c-52.2,0-94.5-42.3-94.5-94.5s42.3-94.5,94.5-94.5s94.5,42.3,94.5,94.5S296.025,291.324,243.825,291.324z"/>
    </symbol>

    <symbol id="quote" role="img" aria-labelledby="quote_title" viewBox="0 0 409.294 409.294">
        <title id="quote_title"></title>
        <path d="m0 204.647v175.412h175.412v-175.412h-116.941c0-64.48 52.461-116.941 116.941-116.941v-58.471c-96.728 0-175.412 78.684-175.412 175.412z"/>
        <path d="m409.294 87.706v-58.471c-96.728 0-175.412 78.684-175.412 175.412v175.412h175.412v-175.412h-116.941c0-64.48 52.461-116.941 116.941-116.941z"/>
    </symbol>

    <symbol id="about01" role="img" aria-labelledby="about01_title" viewBox="0 0 64 64">
        <title id="about01_title"></title>
        <path d="m33.82 21.01a2.01 2.01 0 0 1 2.18 1.99v3.59a5 5 0 1 0 -4 0v-3.48a2.076 2.076 0 0 1 1.82-2.1z" fill="#7dd4fd"/>
        <path d="m40.27 31h-.27v1a2 2 0 0 1 .27-1z" fill="#7dd4fd"/>
        <path d="m19 6h39v23h3v-26h-42z" fill="#7dd4fd"/>
        <path d="m19 6h-3v3h39v23h3v-3-23z" fill="#7dd4fd"/>
        <path d="m49 55v-6h-22v6z" fill="#7dd4fd"/>
        <path d="m29 55h18v6h-18z" fill="#7dd4fd"/>
        <circle cx="13" cy="42" fill="#7dd4fd" r="10"/>
        <path d="m39 22a5 5 0 1 0 -7 4.578v-3.468a2.076 2.076 0 0 1 1.82-2.1 2.01 2.01 0 0 1 2.18 1.99v3.578a5 5 0 0 0 3-4.578z" fill="#7dd4fd"/>
        <path d="m16 9h-3v26h15.27a2 2 0 0 1 1.73-1h2v-3h-12a3 3 0 0 0 -3-3v-12a3 3 0 0 0 3-3h28a3 3 0 0 0 3 3v12a3 3 0 0 0 -3 3h-4.27a2 2 0 0 1 .27 1v2a2.006 2.006 0 0 1 2-2 2.015 2.015 0 0 1 2 2v1h7v-26z" fill="#7dd4fd"/>
        <path d="m40.27 31h-.27v1a2 2 0 0 1 .27-1z" fill="#7dd4fd"/>
        <path d="m32 34h-2a2 2 0 0 0 -1.73 1h3.73z" fill="#7dd4fd"/>
        <path d="m42 30a2 2 0 0 0 -1.73 1h3.46a1.813 1.813 0 0 0 -.32-.41 1.955 1.955 0 0 0 -1.41-.59z" fill="#7dd4fd"/>
        <path fill="#1c9cd9" d="m47.314 29.442a1 1 0 0 0 1.843.778 1.994 1.994 0 0 1 1.843-1.22 1 1 0 0 0 1-1v-12a1 1 0 0 0 -1-1 2 2 0 0 1 -2-2 1 1 0 0 0 -1-1h-28a1 1 0 0 0 -1 1 2 2 0 0 1 -2 2 1 1 0 0 0 -1 1v12a1 1 0 0 0 1 1 2 2 0 0 1 2 2 1 1 0 0 0 1 1h9a1 1 0 0 0 0-2h-8.126a4.016 4.016 0 0 0 -2.874-2.874v-10.252a4.016 4.016 0 0 0 2.874-2.874h26.252a4.016 4.016 0 0 0 2.874 2.874v10.252a3.987 3.987 0 0 0 -2.686 2.316z"/>
        <path fill="#1c9cd9" d="m44 21a1 1 0 0 0 0 2h2a1 1 0 0 0 0-2z"/>
        <path fill="#1c9cd9" d="m22 21a1 1 0 0 0 0 2h2a1 1 0 0 0 0-2z"/>
        <path fill="#1c9cd9" d="m61 2h-42a1 1 0 0 0 -1 1v2h-2a1 1 0 0 0 -1 1v2h-2a1 1 0 0 0 -1 1v20a1 1 0 0 0 2 0v-19h40v24h-3a1 1 0 0 0 0 2h4a1 1 0 0 0 1-1v-2h2a1 1 0 0 0 1-1v-2h2a1 1 0 0 0 1-1v-26a1 1 0 0 0 -1-1zm-4 29h-1v-22a1 1 0 0 0 -1-1h-38v-1h40zm3-3h-1v-22a1 1 0 0 0 -1-1h-38v-1h40z"/>
        <path fill="#1c9cd9" d="m49 48h-.614l.35-1.057a4.91 4.91 0 0 0 .264-1.593v-11.35a2.928 2.928 0 0 0 -.874-2.108 3.062 3.062 0 0 0 -3.232-.681 3.012 3.012 0 0 0 -.306-.725 2.659 2.659 0 0 0 -.462-.594 3.065 3.065 0 0 0 -3.6-.509 2.774 2.774 0 0 0 -.4-.491 3.057 3.057 0 0 0 -3.126-.721v-.984a6 6 0 1 0 -6 0v5.813h-1a3.005 3.005 0 0 0 -3 3v8.79a4.987 4.987 0 0 0 .838 2.775l.291.435h-1.129a1 1 0 0 0 -1 1v6a1 1 0 0 0 1 1h1v5a1 1 0 0 0 1 1h18a1 1 0 0 0 1-1v-5h1a1 1 0 0 0 1-1v-6a1 1 0 0 0 -1-1zm-19-26a4 4 0 1 1 7 2.644v-1.644a3.01 3.01 0 0 0 -3.266-2.986 3.075 3.075 0 0 0 -2.734 3.096v1.534a4.008 4.008 0 0 1 -1-2.644zm-.5 24.455a2.987 2.987 0 0 1 -.5-1.665v-8.79a1.006 1.006 0 0 1 1-1h1v7a1 1 0 0 0 2 0v-18.89a1.081 1.081 0 0 1 .916-1.105 1.01 1.01 0 0 1 1.084.995v14a1 1 0 0 0 2 0v-6a1 1 0 0 1 1-1 .974.974 0 0 1 .712.306.957.957 0 0 1 .288.694v6a1 1 0 0 0 2 0v-5a1 1 0 0 1 1.731-.676.842.842 0 0 1 .136.181.992.992 0 0 1 .133.495v5a1 1 0 0 0 2 0v-3a1 1 0 0 1 1-1 .974.974 0 0 1 .712.306.957.957 0 0 1 .288.694v11.35a2.948 2.948 0 0 1 -.159.955l-.563 1.695h-15.743zm16.5 13.545h-16v-4h16zm2-6h-20v-4h20z"/>
        <path fill="#1c9cd9" d="m43 51h3v2h-3z"/>
        <path fill="#1c9cd9" d="m13 31a11 11 0 1 0 11 11 11.013 11.013 0 0 0 -11-11zm0 20a9 9 0 1 1 9-9 9.011 9.011 0 0 1 -9 9z"/>
        <path fill="#1c9cd9" d="m14 37h-.006l.006-2h-2l-.006 2a2 2 0 0 0 -1.994 2v2a2 2 0 0 0 2 2h2v2h-2v-1h-2v1a2 2 0 0 0 1.994 2l.006 2h2l-.006-2h.006a2 2 0 0 0 2-2v-2a2 2 0 0 0 -2-2h-2v-2h2v1h2v-1a2 2 0 0 0 -2-2z"/>
        <path fill="#1c9cd9" d="m25 34h-1a1 1 0 0 0 0 2h1a1 1 0 0 0 0-2z"/>
    </symbol>

    <symbol id="about02" role="img" aria-labelledby="about02_title" viewBox="0 0 64 64">
        <title id="about02_title"></title>
        <path d="m19 10h-3v3h39v23h3v-3-23z" fill="#7dd4fd"/>
        <path d="m19 10h39v23h3v-26h-42z" fill="#7dd4fd"/>
        <path d="m11 61h9v-4-9-5h-9v2 14z" fill="#7dd4fd"/>
        <path d="m3 45h8v14h-8z" fill="#7dd4fd"/>
        <path d="m16 13h-3v26h42v-26zm35 19a3 3 0 0 0 -3 3h-28a3 3 0 0 0 -3-3v-12a3 3 0 0 0 3-3h28a3 3 0 0 0 3 3z" fill="#7dd4fd"/>
        <circle cx="34" cy="26" r="5" fill="#7dd4fd"/>
        <path fill="#1c9cd9" d="m59.751 43.337a4 4 0 0 0 -3.8.1l-10.037 5.79a3.967 3.967 0 0 0 -1.258-2.227 4.056 4.056 0 0 0 -2.666-1h-6.162a1.009 1.009 0 0 1 -.707-.293l-.244-.244a4.964 4.964 0 0 0 -3.532-1.463h-6.688a4.966 4.966 0 0 0 -3.535 1.464l-.122.122v-2.586a1 1 0 0 0 -1-1h-9a1 1 0 0 0 -1 1v1h-7a1 1 0 0 0 -1 1v14a1 1 0 0 0 1 1h7v1a1 1 0 0 0 1 1h9a1 1 0 0 0 1-1v-2.132l.437.292a4.992 4.992 0 0 0 2.774.84h17.719a4.93 4.93 0 0 0 2.5-.674l15.52-8.96a3.962 3.962 0 0 0 2-3.466 4.012 4.012 0 0 0 -.534-2 3.921 3.921 0 0 0 -1.665-1.563zm-55.751 14.663v-12h6v12zm15 2h-7v-16h7zm39.95-11.366-15.529 8.966a2.935 2.935 0 0 1 -1.491.4h-17.719a2.989 2.989 0 0 1 -1.664-.5l-1.547-1.035v-8.051l1.536-1.536a3.02 3.02 0 0 1 2.121-.878h6.688a2.979 2.979 0 0 1 2.118.877l.244.244a2.978 2.978 0 0 0 2.121.879h6.162a2.053 2.053 0 0 1 1.345.5 1.965 1.965 0 0 1 .659 1.288 1.871 1.871 0 0 1 -.134.92 1.81 1.81 0 0 1 -.447.708 1.986 1.986 0 0 1 -1.413.584h-6.58a1 1 0 0 0 0 2h6.58a3.979 3.979 0 0 0 2.828-1.173 3.846 3.846 0 0 0 .78-1.113l11.338-6.546a2.009 2.009 0 0 1 1.913-.04 1.926 1.926 0 0 1 .824.77 2.025 2.025 0 0 1 .267 1 1.983 1.983 0 0 1 -1 1.736z"/>
        <path fill="#1c9cd9" d="m51 19a2 2 0 0 1 -2-2 1 1 0 0 0 -1-1h-28a1 1 0 0 0 -1 1 2 2 0 0 1 -2 2 1 1 0 0 0 -1 1v12a1 1 0 0 0 1 1 2 2 0 0 1 2 2 1 1 0 0 0 1 1h28a1 1 0 0 0 1-1 2 2 0 0 1 2-2 1 1 0 0 0 1-1v-12a1 1 0 0 0 -1-1zm-1 12.126a4.015 4.015 0 0 0 -2.873 2.874h-26.253a4.016 4.016 0 0 0 -2.874-2.874v-10.252a4.016 4.016 0 0 0 2.874-2.874h26.253a4.015 4.015 0 0 0 2.873 2.874z"/>
        <path fill="#1c9cd9" d="m46 25h-2a1 1 0 0 0 0 2h2a1 1 0 0 0 0-2z"/>
        <path fill="#1c9cd9" d="m24 25h-2a1 1 0 0 0 0 2h2a1 1 0 0 0 0-2z"/>
        <path fill="#1c9cd9" d="m34 20a6 6 0 1 0 6 6 6.006 6.006 0 0 0 -6-6zm0 10a4 4 0 1 1 4-4 4 4 0 0 1 -4 4z"/>
        <path fill="#1c9cd9" d="m61 6h-42a1 1 0 0 0 -1 1v2h-2a1 1 0 0 0 -1 1v2h-2a1 1 0 0 0 -1 1v26a1 1 0 0 0 1 1h42a1 1 0 0 0 1-1v-2h2a1 1 0 0 0 1-1v-2h2a1 1 0 0 0 1-1v-26a1 1 0 0 0 -1-1zm-7 32h-40v-24h40zm3-3h-1v-22a1 1 0 0 0 -1-1h-38v-1h40zm3-3h-1v-22a1 1 0 0 0 -1-1h-38v-1h40z"/>
    </symbol>

    <symbol id="about03" role="img" aria-labelledby="about03_title" viewBox="0 0 480.23973 480">
        <title id="about03_title"></title>
        <path d="m408.121094 128.121094v-24h-400v208h400zm-32 128c-13.257813 0-24 10.742187-24 24h-288c0-13.257813-10.746094-24-24-24v-96c13.253906 0 24-10.746094 24-24h288c0 13.253906 10.742187 24 24 24zm0 0" fill="#7dd4fd"/>
        <path d="m56.121094 32.121094c0 13.253906-10.746094 24-24 24-13.257813 0-24-10.746094-24-24 0-13.257813 10.742187-24 24-24 13.253906 0 24 10.742187 24 24zm0 0" fill="#7dd4fd"/>
        <path d="m472.121094 32.121094c0 13.253906-10.746094 24-24 24-13.257813 0-24-10.746094-24-24 0-13.257813 10.742187-24 24-24 13.253906 0 24 10.742187 24 24zm0 0" fill="#7dd4fd"/>
        <path d="m56.121094 448.121094c0 13.253906-10.746094 24-24 24-13.257813 0-24-10.746094-24-24 0-13.257813 10.742187-24 24-24 13.253906 0 24 10.742187 24 24zm0 0" fill="#7dd4fd"/>
        <path d="m472.121094 448.121094c0 13.253906-10.746094 24-24 24-13.257813 0-24-10.746094-24-24 0-13.257813 10.742187-24 24-24 13.253906 0 24 10.742187 24 24zm0 0" fill="#7dd4fd"/>
        <path d="m352.121094 136.121094h-288c0 13.253906-10.746094 24-24 24v96c13.253906 0 24 10.742187 24 24h288c0-13.257813 10.742187-24 24-24v-96c-13.257813 0-24-10.746094-24-24zm-144 112c-22.09375 0-40-17.910156-40-40 0-22.09375 17.90625-40 40-40 22.089844 0 40 17.90625 40 40 0 22.089844-17.910156 40-40 40zm0 0" fill="#7dd4fd"/>
        <path d="m248.121094 208.121094c0 22.089844-17.910156 40-40 40-22.09375 0-40-17.910156-40-40 0-22.09375 17.90625-40 40-40 22.089844 0 40 17.90625 40 40zm0 0" fill="#7dd4fd"/>
        <path fill="#1c9cd9" d="m448.121094 120.121094h-32v-24h-168v-8h-16v8h-72v-72h-97.136719c-4.027344-15.605469-19.03125-25.777344-35.015625-23.746094-15.988281 2.03125-27.96875 15.628906-27.96875 31.746094 0 16.113281 11.980469 29.714844 27.96875 31.742187 15.984375 2.03125 30.988281-8.140625 35.015625-23.742187h81.136719v56h-144v224h40v32h32v32h160v8h16v-8h72v72h97.136718c4.027344 15.601562 19.027344 25.773437 35.015626 23.742187 15.984374-2.027343 27.964843-15.628906 27.964843-31.742187 0-16.117188-11.980469-29.714844-27.964843-31.746094-15.988282-2.03125-30.988282 8.140625-35.015626 23.746094h-81.136718v-56h144v-232h-32zm-416-72c-8.835938 0-16-7.164063-16-16 0-8.835938 7.164062-16 16-16 8.835937 0 16 7.164062 16 16 0 8.835937-7.164063 16-16 16zm416 384c8.835937 0 16 7.164062 16 16 0 8.835937-7.164063 16-16 16-8.835938 0-16-7.164063-16-16 0-8.835938 7.164062-16 16-16zm-432-320h384v192h-384zm40 208h360v-184h16v200h-376zm408-152v200h-376v-16h360v-184zm0 0"/>
        <path fill="#1c9cd9" d="m448.121094 64.121094c17.671875 0 32-14.328125 32-32 0-17.675782-14.328125-32-32-32-17.675782 0-32 14.324218-32 32 0 17.671875 14.324218 32 32 32zm0-48c8.835937 0 16 7.164062 16 16 0 8.835937-7.164063 16-16 16-8.835938 0-16-7.164063-16-16 0-8.835938 7.164062-16 16-16zm0 0"/>
        <path fill="#1c9cd9" d="m32.121094 416.121094c-17.675782 0-32 14.324218-32 32 0 17.671875 14.324218 32 32 32 17.671875 0 32-14.328125 32-32 0-17.675782-14.328125-32-32-32zm0 48c-8.835938 0-16-7.164063-16-16 0-8.835938 7.164062-16 16-16 8.835937 0 16 7.164062 16 16 0 8.835937-7.164063 16-16 16zm0 0"/>
        <path fill="#1c9cd9" d="m360.121094 136.121094v-8h-304v8c0 8.835937-7.164063 16-16 16h-8v112h8c8.835937 0 16 7.164062 16 16v8h304v-8c0-8.835938 7.164062-16 16-16h8v-112h-8c-8.835938 0-16-7.164063-16-16zm8 113.015625c-11.261719 2.929687-20.054688 11.722656-22.984375 22.984375h-274.03125c-2.933594-11.261719-11.726563-20.054688-22.984375-22.984375v-82.03125c11.257812-2.933594 20.050781-11.726563 22.984375-22.984375h274.03125c2.929687 11.257812 11.722656 20.050781 22.984375 22.984375zm0 0"/>
        <path fill="#1c9cd9" d="m208.121094 160.121094c-26.511719 0-48 21.488281-48 48 0 26.507812 21.488281 48 48 48 26.507812 0 48-21.492188 48-48-.027344-26.5-21.503906-47.976563-48-48zm0 80c-17.675782 0-32-14.328125-32-32 0-17.675782 14.324218-32 32-32 17.671875 0 32 14.324218 32 32 0 17.671875-14.328125 32-32 32zm0 0"/>
        <path fill="#1c9cd9" d="m232.121094 56.121094h16v16h-16zm0 0"/>
        <path fill="#1c9cd9" d="m232.121094 24.121094h16v16h-16zm0 0"/>
        <path fill="#1c9cd9" d="m296.121094 24.121094h16v16h-16zm0 0"/>
        <path fill="#1c9cd9" d="m264.121094 24.121094h16v16h-16zm0 0"/>
        <path fill="#1c9cd9" d="m328.121094 24.121094h16v16h-16zm0 0"/>
        <path fill="#1c9cd9" d="m360.121094 24.121094h16v16h-16zm0 0"/>
        <path fill="#1c9cd9" d="m392.121094 24.121094h16v16h-16zm0 0"/>
        <path fill="#1c9cd9" d="m72.121094 440.121094h16v16h-16zm0 0"/>
        <path fill="#1c9cd9" d="m104.121094 440.121094h16v16h-16zm0 0"/>
        <path fill="#1c9cd9" d="m136.121094 440.121094h16v16h-16zm0 0"/>
        <path fill="#1c9cd9" d="m168.121094 440.121094h16v16h-16zm0 0"/>
        <path fill="#1c9cd9" d="m200.121094 440.121094h16v16h-16zm0 0"/>
        <path fill="#1c9cd9" d="m232.121094 440.121094h16v16h-16zm0 0"/>
        <path fill="#1c9cd9" d="m232.121094 408.121094h16v16h-16zm0 0"/>
        <path fill="#1c9cd9" d="m288.121094 200.121094h48v16h-48zm0 0"/>
        <path fill="#1c9cd9" d="m80.121094 200.121094h48v16h-48zm0 0"/>
    </symbol>

    <symbol id="about04" role="img" aria-labelledby="about04_title" viewBox="-41 0 482 482.544">
        <title id="about04_title"></title>
        <path d="m132.097656 439.511719 68.175782 34.089843 68.175781-34.089843c75.875-37.9375 123.808593-115.480469 123.824219-200.3125v-165.597657h-3.960938c-60.015625-.003906-118.6875-17.765624-168.625-51.058593l-19.414062-12.941407-19.121094 12.796876c-49.652344 33.167968-107.976563 50.976562-167.6875 51.203124h-5.191406v165.597657c.015624 84.832031 47.949218 162.375 123.824218 200.3125zm-75.824218-320.671875c51.214843-6.398438 100.386718-24.035156 144-51.640625 43.609374 27.621093 92.78125 45.265625 144 51.679687v120.320313c.210937 66.714843-37.515626 127.746093-97.289063 157.375l-46.710937 23.363281-46.710938-23.363281c-59.773438-29.628907-97.5-90.660157-97.289062-157.375zm0 0" fill="#7dd4fd"/>
        <path fill="#1c9cd9" d="m200.273438 482.542969-71.761719-35.878907c-78.789063-39.066406-128.5195315-119.523437-128.238281-207.464843v-173.597657h13.160156c58.148437-.183593 114.949218-17.535156 163.273437-49.882812l23.566407-15.71875 23.855468 15.902344c48.601563 32.460937 105.75 49.757812 164.191406 49.699218h11.953126v173.597657c.28125 87.941406-49.453126 168.398437-128.242188 207.464843zm-184-400.941407v157.597657c-.261719 81.878906 46.042968 156.785156 119.398437 193.152343l64.601563 32.304688 64.601562-32.304688c73.355469-36.367187 119.660156-111.273437 119.398438-193.152343v-157.597657c-60.226563-.734374-118.945313-18.9375-169.023438-52.402343l-14.976562-10-14.679688 9.824219c-50.144531 33.582031-108.976562 51.847656-169.320312 52.578124zm0 0"/>
        <path fill="#1c9cd9" d="m200.273438 428.878906-50.289063-25.144531c-62.488281-30.980469-101.929687-94.789063-101.710937-164.535156v-127.421875l7.007812-.875c50.070312-6.203125 98.140625-23.445313 140.734375-50.488282l4.257813-2.703124 4.273437 2.703124c42.582031 27.042969 90.640625 44.292969 140.703125 50.507813l7.007812.878906v127.398438c.222657 69.742187-39.214843 133.550781-101.695312 164.535156zm-136-303.046875v113.367188c-.199219 63.679687 35.8125 121.9375 92.863281 150.226562l43.136719 21.566407 43.136718-21.601563c57.039063-28.28125 93.050782-86.523437 92.863282-150.191406v-113.351563c-48.222657-6.941406-94.511719-23.703125-136-49.246094-41.488282 25.542969-87.777344 42.296876-136 49.230469zm0 0"/>
        <path fill="#1c9cd9" d="m200.273438 233.601562c-30.871094 0-56-17.945312-56-40 0-22.058593 25.128906-40 56-40 30.871093 0 56 17.941407 56 40h16c0-28.800781-28.054688-52.53125-64-55.632812v-24.367188h-16v24.367188c-35.945313 3.101562-64 26.855469-64 55.632812 0 30.878907 32.296874 56 72 56 30.871093 0 56 17.941407 56 40 0 22.054688-25.128907 40-56 40-30.871094 0-56-17.945312-56-40h-16c0 28.796876 28.054687 52.527344 64 55.628907v24.371093h16v-24.371093c35.945312-3.101563 64-26.855469 64-55.628907 0-30.882812-32.296876-56-72-56zm0 0"/>
    </symbol>

    <symbol id="home-play" role="img" aria-labelledby="home-play_title" viewBox="0 0 512 512">
        <title id="home-play_title"></title>
        <path d="M47.127,0v512l417.745-254.837L47.127,0z M87.172,71.676l301.06,185.333L87.172,440.664V71.676z"/>
    </symbol>

    <symbol id="quote" role="img" aria-labelledby="quote_title" viewBox="0 0 298.667 298.667">
        <title id="quote_title"></title>
        <polygon points="0,170.667 64,170.667 21.333,256 85.333,256 128,170.667 128,42.667 0,42.667             "/>
        <polygon points="170.667,42.667 170.667,170.667 234.667,170.667 192,256 256,256 298.667,170.667 298.667,42.667          "/>
    </symbol>

    <symbol id="footer-license" role="img" aria-labelledby="footer-license_title" viewBox="0 0 512 512">
        <title id="footer-license_title">Verified License</title>
        <path d="M256,0C114.84,0,0,114.842,0,256s114.84,256,256,256s256-114.842,256-256S397.16,0,256,0z M256,462.452
            c-113.837,0-206.452-92.614-206.452-206.452S142.163,49.548,256,49.548S462.452,142.163,462.452,256S369.837,462.452,256,462.452z
            "/>
        <polygon points="345.838,164.16 222.968,287.029 157.904,221.967 122.87,257.001 222.968,357.1 380.872,199.194        "/>
    </symbol>

    <symbol id="footer-facebook" role="img" aria-labelledby="footer-facebook_title" viewBox="0 0 512 512">
        <title id="footer-facebook_title">Facebook</title>
        <path d="M314.829,135.492h70.595c11.423,0,20.682-9.26,20.682-20.682V20.682C406.107,9.26,396.848,0,385.425,0h-70.595
            c-76.282,0-138.341,62.06-138.341,138.341v49.913h-49.913c-11.422,0-20.682,9.26-20.682,20.682v94.127
            c0,11.423,9.26,20.682,20.682,20.682h49.913v167.572c0,11.423,9.26,20.682,20.682,20.682h94.127
            c11.423,0,20.682-9.259,20.682-20.682V323.746h49.913c9.49,0,17.763-6.458,20.065-15.666l23.532-94.127
            c1.544-6.179,0.156-12.725-3.763-17.744c-3.919-5.02-9.932-7.954-16.301-7.954H311.98v-49.913
            C311.98,136.77,313.258,135.492,314.829,135.492z M291.298,229.619h67.637l-13.191,52.763h-54.447
            c-11.423,0-20.682,9.259-20.682,20.682v167.572h-52.763V303.064c0-11.423-9.26-20.682-20.682-20.682h-49.913v-52.763h49.913
            c11.422,0,20.682-9.26,20.682-20.682v-70.595c0-53.473,43.503-96.977,96.977-96.977h49.913v52.763h-49.913
            c-24.38,0-44.214,19.835-44.214,44.214v70.595C270.615,220.359,279.875,229.619,291.298,229.619z"/>
    </symbol>

    <symbol id="footer-twitter" role="img" aria-labelledby="footer-twitter_title" viewBox="0 0 512 512">
        <title id="footer-twitter_title">Twitter</title>
        <path d="M502.954,47.189c-7.126-4.852-16.515-4.774-23.559,0.196c-15.351,10.828-31.974,19.528-49.557,25.948
            c-19.253-17.414-43.615-27.826-69.915-29.656c-31.056-2.16-61.081,7.9-84.561,28.326c-25.59,22.259-40.174,54.444-40.046,88.349
            c-85.248-7.609-139.14-61.55-177.09-108.986c-4.598-5.746-11.901-8.619-19.182-7.538c-7.279,1.078-13.438,5.944-16.171,12.777
            c-0.948,2.369-23.141,58.799-17.453,127.057c4.761,57.133,30.23,131.964,120.039,181.717
            c-32.436,14.756-68.282,21.939-103.953,20.519c-9.576-0.378-18.15,5.859-20.736,15.08c-2.587,9.221,1.497,19.013,9.869,23.665
            c51.359,28.532,108.03,43.736,163.889,43.965c0.432,0.002,0.861,0.003,1.294,0.003c54.105-0.001,106.379-13.938,151.246-40.336
            c42.898-25.241,78.416-61.759,102.715-105.603c26.162-47.206,39.427-101.75,39.427-162.186c-0.011-3.544-0.186-7.098-0.52-10.638
            c20.7-22.885,35.388-50.567,42.719-80.667C513.451,60.803,510.081,52.04,502.954,47.189z M432.297,128.07
            c-4.916,4.847-7.088,11.827-5.793,18.607c0.877,4.588,1.329,9.278,1.344,13.874c0,101.956-44.378,186.544-121.756,232.072
            c-60.586,35.649-133.037,43.933-203.609,25.057c0.729-0.201,1.459-0.407,2.185-0.615c27.596-7.885,53.63-20.055,77.377-36.174
            c6.329-4.296,9.77-11.734,8.946-19.34c-0.825-7.605-5.778-14.134-12.881-16.975C97.757,312.434,53.563,257.594,46.757,181.575
            c-2.536-28.334,0.707-54.721,4.766-74.501c16.638,17.909,37.384,37.227,62.129,53.407c42.771,27.966,90.663,42.146,142.346,42.146
            c11.423,0,20.682-9.26,20.682-20.682v-21.393c0-0.045,0-0.091,0-0.137c-0.146-21.948,9.268-42.797,25.829-57.202
            c15.146-13.175,34.51-19.665,54.543-18.27c20.026,1.393,38.311,10.502,51.487,25.648c5.339,6.138,13.783,8.577,21.567,6.229
            c5.725-1.724,11.375-3.645,16.941-5.757C442.599,117.081,437.672,122.769,432.297,128.07z"/>
    </symbol>    

    <symbol id="footer-linkedin" role="img" aria-labelledby="footer-linkedin_title" viewBox="0 0 512 512">
        <title id="footer-linkedin_title">Linkedin</title>
        <path d="M2.5,510V153.7h137.3V510H2.5z M102.5,472.7V191H39.8v281.7H102.5z"/>
        <path d="M375.4,510l0.1-158.1c0.5-23.6-8.8-42.9-24.9-51.7c-5.4-3-11.2-4.5-17.3-4.5c-5.2,0-10.4,1.1-15.5,3.3l-1.1,211H176.1
            V153.7h140.6V166c16.6-6,33.6-9.1,50.6-9.1c24.7,0,48.3,6.4,70.2,18.9c44,25.2,72.5,71.8,72.5,118.8V510H375.4z M472.7,472.7V294.6
            c0-33.8-21.1-67.7-53.7-86.4c-15.9-9.1-33.8-13.9-51.7-14h-0.3c-20.1,0-40.1,5.8-59.6,17.3L279.4,228V191h-66.1v281.7h66.2l1-194.7
            l8.2-5.5c13.7-9.2,29.1-14.1,44.5-14.1c12.4,0,24.2,3,35.1,9c13.7,7.5,25,19.2,32.8,33.8c7.9,14.9,11.9,32.6,11.5,51.1l0,120.3
            H472.7z"/>
        <path d="M70.9,139.9C32.9,139.9,2,109,2,71c0-38,30.9-69,68.9-69c38,0,68.9,30.9,68.9,69C139.8,109,108.9,139.9,70.9,139.9z
             M70.9,39.3c-17.4,0-31.6,14.2-31.6,31.7c0,17.5,14.2,31.7,31.6,31.7c17.4,0,31.6-14.2,31.6-31.7C102.5,53.5,88.3,39.3,70.9,39.3z"
            />
    </symbol>

    <symbol id="footer-instagram" role="img" aria-labelledby="footer-instagram_title" viewBox="0 0 512 512">
        <title id="footer-instagram_title">Instagram</title>
        <path d="M373.659,0H138.341C62.06,0,0,62.06,0,138.341v235.318C0,449.94,62.06,512,138.341,512h235.318
            C449.94,512,512,449.94,512,373.659V138.341C512,62.06,449.94,0,373.659,0z M470.636,373.659
            c0,53.473-43.503,96.977-96.977,96.977H138.341c-53.473,0-96.977-43.503-96.977-96.977V138.341
            c0-53.473,43.503-96.977,96.977-96.977h235.318c53.473,0,96.977,43.503,96.977,96.977V373.659z"/>
        <path d="M370.586,238.141c-3.64-24.547-14.839-46.795-32.386-64.342c-17.547-17.546-39.795-28.746-64.341-32.385
            c-11.176-1.657-22.507-1.657-33.682,0c-30.336,4.499-57.103,20.541-75.372,45.172c-18.269,24.631-25.854,54.903-21.355,85.237
            c4.499,30.335,20.541,57.102,45.172,75.372c19.996,14.831,43.706,22.619,68.153,22.619c5.667,0,11.375-0.418,17.083-1.265
            c30.336-4.499,57.103-20.541,75.372-45.172C367.5,298.747,375.085,268.476,370.586,238.141z M267.791,327.632
            c-19.405,2.882-38.77-1.973-54.527-13.66c-15.757-11.687-26.019-28.811-28.896-48.216c-2.878-19.405,1.973-38.77,13.66-54.527
            c11.688-15.757,28.811-26.019,48.217-28.897c3.574-0.53,7.173-0.795,10.772-0.795s7.199,0.265,10.773,0.796
            c32.231,4.779,57.098,29.645,61.878,61.877C335.608,284.268,307.851,321.692,267.791,327.632z"/>
        <path d="M400.049,111.951c-3.852-3.851-9.183-6.058-14.625-6.058c-5.442,0-10.773,2.206-14.625,6.058
            c-3.851,3.852-6.058,9.174-6.058,14.625c0,5.451,2.207,10.773,6.058,14.625c3.852,3.851,9.183,6.058,14.625,6.058
            c5.442,0,10.773-2.206,14.625-6.058c3.851-3.852,6.058-9.183,6.058-14.625C406.107,121.133,403.9,115.802,400.049,111.951z"/>
    </symbol>

    <symbol id="footer-phone" role="img" aria-labelledby="footer-phone_title" viewBox="0 0 512 512">
        <title id="footer-phone_title"></title>
        <path d="M421.216,195.504c-5.092-26.101-17.723-49.836-36.526-68.64c-18.804-18.803-42.54-31.434-68.641-36.527
			c-11.21-2.189-22.073,5.128-24.261,16.339c-2.187,11.212,5.128,22.073,16.339,24.26c36.847,7.188,65.3,35.642,72.489,72.489
			c1.927,9.874,10.581,16.726,20.278,16.726c1.313,0,2.645-0.125,3.984-0.387C416.088,217.577,423.403,206.715,421.216,195.504z"/>
		<path d="M511.422,196.929c-5.629-50.096-28.373-97.304-64.042-132.927C411.712,28.378,364.475,5.694,314.371,0.128
			c-11.355-1.261-21.578,6.92-22.839,18.272c-1.261,11.353,6.919,21.578,18.272,22.84c84.961,9.438,150.966,75.36,160.512,160.31
			c1.188,10.566,10.139,18.374,20.527,18.374c0.771,0,1.552-0.043,2.336-0.131C504.53,218.516,512.698,208.281,511.422,196.929z"/>
		<path d="M432.59,312.566c-0.062-0.008-0.124-0.017-0.186-0.025c-20.013-2.639-39.751-7.557-58.619-14.596
			c-23.91-8.99-51.103-3.191-69.27,14.772c-0.028,0.028-0.056,0.055-0.083,0.083l-17.148,17.148
			c-42.633-26.924-78.756-63.047-105.679-105.679l17.149-17.149c0.027-0.028,0.054-0.055,0.082-0.083
			c17.964-18.166,23.762-45.356,14.79-69.223c-7.057-18.914-11.974-38.653-14.614-58.666c-0.007-0.063-0.017-0.127-0.026-0.19
			c-4.591-32.478-32.782-56.734-65.548-56.467H66.053c-1.943,0.002-3.912,0.091-5.853,0.267
			C24.143,26.016-2.541,58.001,0.718,94.058c0.01,0.108,0.02,0.215,0.032,0.323c7.684,72.354,32.649,142.88,72.197,203.955
			c35.892,56.461,84.701,105.269,141.162,141.164c60.792,39.406,130.99,64.369,203.013,72.196c0.127,0.015,0.254,0.027,0.38,0.038
			c1.961,0.176,3.949,0.266,5.921,0.266c0.083,0,0.165,0,0.247,0.001c36.204-0.148,65.538-29.722,65.391-65.841v-67.233
			C489.746,345.714,465.515,317.211,432.59,312.566z M447.698,378.695v67.548c0.055,13.396-10.8,24.338-24.19,24.393
			c-0.715-0.004-1.425-0.027-2.135-0.086c-65.578-7.161-129.488-29.914-184.837-65.808c-0.053-0.035-0.107-0.069-0.161-0.103
			c-51.429-32.68-95.885-77.137-128.565-128.565c-0.032-0.051-0.064-0.101-0.097-0.153C71.683,220.306,48.928,156.086,41.902,90.193
			C40.779,76.91,50.63,65.155,63.923,63.954c0.717-0.064,1.443-0.098,2.145-0.098h67.463c0.146-0.001,0.294-0.003,0.443-0.002
			c12.021,0,22.322,8.905,24.044,20.819c3.05,23.063,8.721,45.806,16.871,67.649c3.319,8.832,1.189,18.869-5.427,25.591
			l-28.517,28.517c-6.583,6.582-7.956,16.753-3.354,24.847c33.837,59.508,83.177,108.847,142.685,142.685
			c8.094,4.6,18.264,3.23,24.848-3.355l28.512-28.512c6.72-6.621,16.765-8.752,25.642-5.415
			c21.799,8.134,44.547,13.805,67.61,16.855c12.18,1.757,21.122,12.339,20.816,24.647
			C447.7,378.353,447.698,378.524,447.698,378.695z"/>
    </symbol>    

	<symbol id="footer-mail" role="img" aria-labelledby="footer-mail_title" viewBox="0 0 512 512">
        <title id="footer-mail_title"></title>
        <path d="M256,141.176c-63.306,0-114.809,51.503-114.809,114.809S192.694,370.795,256,370.795s114.809-51.503,114.809-114.809
			S319.306,141.176,256,141.176z M256,329.43c-40.498,0-73.445-32.947-73.445-73.445c0-40.498,32.947-73.445,73.445-73.445
			c40.499,0,73.445,32.947,73.445,73.445C329.445,296.483,296.499,329.43,256,329.43z"/>
		<path d="M437.008,74.97C388.656,26.623,324.375,0,256,0c-0.005,0-0.013,0-0.017,0C187.603,0.004,123.318,26.637,74.97,74.992
			C26.62,123.347-0.005,187.637,0,256.017c0.004,68.379,26.637,132.666,74.992,181.014C123.344,485.377,187.625,512.001,256,512
			c0.004,0,0.012,0,0.017,0c55.945-0.004,111.216-18.738,155.631-52.752c9.07-6.945,10.792-19.927,3.846-28.995
			c-6.945-9.069-19.926-10.794-28.995-3.846c-37.24,28.518-83.58,44.224-130.486,44.228c-0.006,0-0.006,0-0.014,0
			c-57.324,0-111.224-22.324-151.761-62.856c-40.542-40.536-62.871-94.435-62.875-151.766
			C41.357,137.663,137.636,41.372,255.986,41.364c0.007,0,0.006,0,0.014,0c118.34,0,214.628,96.279,214.636,214.622v23.532
			c0,27.523-22.39,49.913-49.913,49.913c-27.523,0-49.913-22.391-49.913-49.913v-23.532c0-11.422-9.259-20.682-20.682-20.682
			s-20.682,9.26-20.682,20.682v23.532c0,50.33,40.947,91.278,91.278,91.278S512,329.848,512,279.518v-23.534
			C511.995,187.604,485.362,123.318,437.008,74.97z"/>
    </symbol>

    <symbol id="footer-location" role="img" aria-labelledby="footer-location_title" viewBox="0 0 512 512">
        <title id="footer-location_title"></title>
        <path d="M406.766,62.449C366.495,22.178,312.951,0,256,0S145.505,22.178,105.234,62.449
			c-40.272,40.271-62.449,93.814-62.449,150.766c0,37.656,10.972,76.863,32.609,116.532c16.825,30.846,40.15,62.102,69.326,92.898
			c49.17,51.903,97.763,84.519,99.808,85.881C248.001,510.842,252,512,256,512c4,0,7.999-1.158,11.473-3.474
			c2.045-1.363,50.638-33.978,99.808-85.881c29.176-30.795,52.501-62.051,69.326-92.898c21.637-39.669,32.609-78.876,32.609-116.532
			C469.215,156.263,447.038,102.72,406.766,62.449z M256.001,465.903C215.826,436.156,84.15,329.739,84.15,213.215
			c0-94.759,77.091-171.851,171.85-171.851s171.85,77.092,171.851,171.851C427.851,329.748,296.159,436.168,256.001,465.903z"/>
		<path d="M256,128.355c-46.791,0-84.86,38.068-84.86,84.86c0,46.791,38.068,84.86,84.86,84.86c46.792,0,84.861-38.068,84.86-84.86
			C340.86,166.423,302.791,128.355,256,128.355z M256,256.71c-23.983,0-43.495-19.512-43.495-43.495
			c0-23.983,19.512-43.495,43.495-43.495c23.984,0,43.495,19.512,43.495,43.495C299.495,237.198,279.984,256.71,256,256.71z"/>
		</symbol>

	<symbol id="footer-time" role="img" aria-labelledby="footer-time_title" viewBox="0 0 512 512">
        <title id="footer-time_title"></title>
        <path d="M437.019,74.981C388.667,26.629,324.38,0,256,0S123.333,26.63,74.981,74.981S0,187.62,0,256
			s26.629,132.667,74.981,181.019C123.332,485.371,187.62,512,256,512s132.667-26.629,181.019-74.981
			C485.371,388.667,512,324.38,512,256S485.371,123.332,437.019,74.981z M256,470.636C137.65,470.636,41.364,374.35,41.364,256
			S137.65,41.364,256,41.364S470.636,137.65,470.636,256S374.35,470.636,256,470.636z"/>
		<path d="M341.221,311.97l-64.538-64.537V114.809c0-11.422-9.259-20.682-20.682-20.682c-11.422,0-20.682,9.26-20.682,20.682V256
			c0,5.486,2.179,10.746,6.058,14.625l70.594,70.595c4.038,4.039,9.332,6.058,14.625,6.058c5.293,0,10.586-2.019,14.626-6.058
			C349.297,333.142,349.297,320.047,341.221,311.97z"/>
	</symbol>

</svg>