<svg xmlns="http://www.w3.org/2000/svg" xmlns:xlink="http://www.w3.org/1999/xlink">

	<symbol id="services01" role="img" aria-labelledby="services01_title" viewBox="-37 1 511 511.99871">
        <title id="services01_title"></title>
        <path d="m415.195312 57.667969c-105.761718-2.375-161.832031-37.386719-181.035156-52.328125-9.144531-7.117188-21.917968-7.121094-31.066406 0-19.199219 14.941406-75.273438 49.953125-181.035156 52.328125-11.886719.269531-21.558594 10.175781-21.558594 22.089843v103.800782c0 66.628906 18.335938 131.875 53.027344 188.6875 34.738281 56.894531 84.433594 102.945312 143.710937 133.175781 1.90625.972656 3.828125 1.941406 5.773438 2.914063 4.890625 2.441406 10.253906 3.664062 15.617187 3.664062 5.363282 0 10.726563-1.222656 15.617188-3.664062 1.941406-.972657 3.867187-1.941407 5.773437-2.917969 40.550781-20.679688 76.367188-48.476563 106.453125-82.625 3.683594-4.179688 3.28125-10.554688-.898437-14.234375-4.179688-3.683594-10.554688-3.28125-14.234375.898437-28.398438 32.230469-62.207032 58.472657-100.484375 77.992188-1.855469.945312-3.730469 1.894531-5.621094 2.839843-4.136719 2.066407-9.074219 2.066407-13.210937 0-1.890626-.945312-3.765626-1.894531-5.621094-2.839843-114.5625-58.425781-185.730469-174.871094-185.730469-303.890625v-103.800782c0-1.035156.824219-1.898437 1.84375-1.921874 111.78125-2.511719 172.1875-40.40625 192.96875-56.578126 1.851563-1.441406 4.441406-1.441406 6.289063 0 20.785156 16.171876 81.1875 54.066407 192.972656 56.578126 1.015625.023437 1.84375.886718 1.84375 1.921874v103.800782c0 57.875-14.816406 115.195312-42.847656 165.765625-2.703126 4.871093-.941407 11.007812 3.929687 13.710937 4.875 2.699219 11.011719.9375 13.710937-3.933594 29.6875-53.550781 45.375-114.253906 45.375-175.542968v-103.800782c0-11.914062-9.671874-21.820312-21.5625-22.089843zm0 0"/>
        <path d="m219.773438 431.085938c5.570312 0 10.085937-4.515626 10.085937-10.085938v-20.4375c.449219-.191406.898437-.394531 1.339844-.617188 1.089843-.542968 2.167969-1.089843 3.234375-1.632812 33.605468-17.140625 61.785156-43.25 81.480468-75.507812 11.570313-18.945313 19.925782-39.554688 24.851563-61h47.972656c5.570313 0 10.085938-4.515626 10.085938-10.085938s-4.515625-10.085938-10.085938-10.085938h-44.394531c1.078125-8.523437 1.632812-17.140624 1.632812-25.796874v-57.558594c0-9.027344-7.335937-16.535156-16.347656-16.738282-57.304687-1.289062-87.433594-20.0625-97.726562-28.074218-.65625-.507813-1.34375-.953125-2.042969-1.363282v-26.675781c0-5.574219-4.515625-10.085937-10.085937-10.085937-5.570313 0-10.085938 4.511718-10.085938 10.085937v27.664063c-.175781.125-.359375.242187-.53125.375-10.292969 8.011718-40.421875 26.785156-97.722656 28.074218-9.015625.199219-16.351563 7.710938-16.351563 16.738282v57.558594c0 8.65625.554688 17.273437 1.632813 25.796874h-50.730469c-5.570313 0-10.085937 4.515626-10.085937 10.085938s4.515624 10.085938 10.085937 10.085938h54.308594c4.925781 21.445312 13.28125 42.050781 24.851562 61 19.699219 32.257812 47.875 58.367187 81.484375 75.507812 1.007813.515625 2.03125 1.03125 3.058594 1.546875v21.140625c0 5.570312 4.515625 10.085938 10.085938 10.085938zm-98.785157-169.28125h58.710938c5.570312 0 10.085937-4.515626 10.085937-10.085938s-4.515625-10.085938-10.085937-10.085938h-62.671875c-1.171875-8.460937-1.773438-17.074218-1.773438-25.796874v-54.226563c46.859375-1.609375 77.4375-14.328125 94.429688-24.277344v72.6875c0 5.570313 4.515625 10.085938 10.085937 10.085938 5.570313 0 10.085938-4.515625 10.085938-10.085938v-73.582031c16.664062 10.0625 47.667969 23.515625 95.949219 25.171875v54.226563c0 8.722656-.601563 17.335937-1.773438 25.796874h-64.300781c-5.570313 0-10.085938 4.515626-10.085938 10.085938s4.515625 10.085938 10.085938 10.085938h60.339843c-12.460937 49.09375-44.632812 91.234374-90.214843 116.097656v-87.738282c0-5.570312-4.515625-10.085937-10.085938-10.085937-5.570312 0-10.085937 4.515625-10.085937 10.085937v86.914063c-44.78125-24.960937-76.375-66.722656-88.695313-115.273437zm0 0"/>
        <path d="m210.097656 253.90625c1.589844 3.921875 5.363282 6.300781 9.351563 6.300781 1.261719 0 2.542969-.238281 3.78125-.738281 5.164062-2.089844 7.652343-7.972656 5.5625-13.132812l-.117188-.300782c-2.09375-5.160156-7.972656-7.652344-13.136719-5.5625-5.160156 2.09375-7.652343 7.972656-5.5625 13.132813zm0 0"/>
        <path d="m371.777344 382.527344c-2.085938-5.164063-7.964844-7.660156-13.128906-5.574219-5.164063 2.085937-7.660157 7.964844-5.574219 13.128906l.121093.296875c1.585938 3.929688 5.363282 6.3125 9.351563 6.3125 1.257813 0 2.539063-.238281 3.777344-.738281 5.164062-2.085937 7.660156-7.964844 5.570312-13.128906zm0 0"/>
    </symbol>

    <symbol id="services02" role="img" aria-labelledby="services02_title" viewBox="0 0 512 512">
        <title id="services02_title"></title>
        <path d="M159.502,111.548h-29.33v-29.32c0-5.515-4.471-9.986-9.986-9.986c-5.515,0-9.986,4.471-9.986,9.986v29.32h-29.32
            c-5.515,0-9.986,4.471-9.986,9.986c0,5.515,4.471,9.986,9.986,9.986h29.32v29.33c0,5.515,4.471,9.986,9.986,9.986
            c5.515,0,9.986-4.471,9.986-9.986v-29.33h29.33c5.515,0,9.986-4.471,9.986-9.986C169.488,116.019,165.018,111.548,159.502,111.548
            z"/>
        <path d="M379.901,111.548h-78.622c-5.515,0-9.986,4.471-9.986,9.986c0,5.515,4.471,9.986,9.986,9.986h78.622
            c5.515,0,9.986-4.471,9.986-9.986C389.887,116.019,385.416,111.548,379.901,111.548z"/>
        <path d="M134.312,341.939l20.735-20.735c3.901-3.902,3.9-10.224-0.001-14.123c-3.9-3.899-10.223-3.898-14.122,0.002
            l-20.733,20.733l-20.734-20.734c-3.9-3.9-10.223-3.9-14.123,0c-3.9,3.9-3.9,10.223,0,14.123l20.734,20.734l-20.733,20.733
            c-3.901,3.899-3.902,10.222-0.002,14.122c1.95,1.951,4.506,2.926,7.062,2.926c2.555,0,5.11-0.975,7.06-2.924l20.735-20.735
            l20.734,20.734c1.95,1.95,4.506,2.925,7.061,2.925c2.555,0,5.112-0.976,7.061-2.925c3.9-3.9,3.9-10.223,0-14.122L134.312,341.939z
            "/>
        <path d="M460.77,222.543V47.127c0-25.242-20.536-45.778-45.778-45.778H230.385H45.778C20.536,1.349,0,21.886,0,47.127v184.607
            v184.607c0,25.242,20.536,45.778,45.778,45.778h180.776c31.56,31.331,73.262,48.532,117.912,48.532
            c92.379,0,167.535-75.156,167.535-167.535C512,297.713,493.382,254.025,460.77,222.543z M240.371,21.321h174.621
            c14.229,0,25.805,11.576,25.805,25.805v158.928c-28.068-19.759-61.576-30.464-96.333-30.464
            c-38.432,0-74.64,12.736-104.094,36.237V21.321z M19.972,47.127c0-14.229,11.576-25.805,25.805-25.805h174.621v200.426H19.972
            V47.127z M45.778,442.147c-14.229,0-25.805-11.576-25.805-25.805V241.72h191.14c-22.143,29.031-34.172,64.404-34.172,101.396
            c0,36.004,11.384,70.451,32.393,99.031H45.778z M344.465,490.678c-40.595,0-78.422-16.143-106.516-45.457
            c-26.462-27.594-41.035-63.856-41.035-102.106c0-38.078,14.458-74.213,40.715-101.755c28.117-29.533,66.06-45.797,106.837-45.797
            c36.962,0,72.326,13.731,99.578,38.664c30.495,27.901,47.985,67.589,47.985,108.888
            C492.028,424.482,425.831,490.678,344.465,490.678z"/>
        <path d="M344.465,218.381c-68.78,0-124.735,55.956-124.735,124.735s55.956,124.735,124.735,124.735S469.2,411.895,469.2,343.116
            S413.244,218.381,344.465,218.381z M344.465,447.879c-57.767,0-104.763-46.997-104.763-104.763
            c0-57.766,46.997-104.763,104.763-104.763s104.763,46.996,104.763,104.763C449.228,400.883,402.232,447.879,344.465,447.879z"/>
        <path d="M383.907,333.13h-29.456v-60.039c0-5.515-4.471-9.986-9.986-9.986c-5.515,0-9.986,4.471-9.986,9.986v70.025
            c0,5.515,4.471,9.986,9.986,9.986h39.442c5.515,0,9.986-4.471,9.986-9.986C393.894,337.6,389.423,333.13,383.907,333.13z"/>
        <path d="M337.143,409.836c-19.89,0-38.152-10.869-47.657-28.367c-2.632-4.846-8.696-6.638-13.542-4.007
            c-4.846,2.633-6.64,8.696-4.007,13.542c13.003,23.935,37.989,38.804,65.207,38.804c5.515,0,9.986-4.471,9.986-9.986
            S342.659,409.836,337.143,409.836z"/>
        <path d="M273.021,345.787c-12.851,0-12.872,19.972,0,19.972C285.872,365.759,285.893,345.787,273.021,345.787z"/>
    </symbol>

    <symbol id="services03" role="img" aria-labelledby="services03_title" viewBox="0 0 512 512">
        <title id="services03_title"></title>
        <path d="M450.372,222.019l-29.615-7.379l-15.484-37.364l15.716-26.145c2.366-3.936,1.748-8.977-1.499-12.224L378.05,97.469
            c-3.249-3.247-8.289-3.864-12.224-1.499l-26.145,15.716l-37.364-15.484l-7.379-29.615c-1.109-4.455-5.111-7.582-9.703-7.582
            h-58.59c-4.592,0-8.594,3.127-9.703,7.582l-7.379,29.615L172.2,111.686L146.055,95.97c-3.935-2.365-8.978-1.748-12.224,1.499
            l-41.438,41.438c-3.247,3.247-3.865,8.288-1.499,12.224l15.716,26.145L91.125,214.64l-29.615,7.379
            c-4.456,1.109-7.583,5.111-7.583,9.703v58.591c0,4.592,3.127,8.594,7.583,9.703l29.615,7.379l15.484,37.363l-15.716,26.145
            c-2.366,3.936-1.748,8.977,1.499,12.224l41.438,41.438c3.248,3.247,8.289,3.865,12.224,1.499l26.145-15.716l17.938,7.434
            c0.116,2.048,0.182,4.106,0.182,6.176v1.417v53.482c0,18.275,14.868,33.144,33.144,33.144h65.182
            c18.275,0,33.144-14.868,33.144-33.144v-53.482v-1.415c0-2.099,0.071-4.192,0.197-6.277l17.696-7.334l26.145,15.716
            c1.599,0.962,3.38,1.43,5.149,1.43c2.586,0,5.146-1.001,7.074-2.929l41.438-41.438c3.247-3.247,3.865-8.288,1.499-12.224
            l-15.716-26.145l15.484-37.363l29.615-7.379c4.456-1.109,7.583-5.111,7.583-9.703v-58.591
            C457.955,227.13,454.828,223.128,450.372,222.019z M288.644,492h-65.182c-7.247,0-13.144-5.896-13.144-13.144V472h33.121
            c5.522,0,10-4.478,10-10c0-5.522-4.478-10-10-10h-33.121v-16.626h91.469v43.482h0.001C301.789,486.103,295.893,492,288.644,492z
             M302.086,415.374h-92.05c-1.953-29.413-13.928-56.808-34.213-77.898c-20.829-21.654-31.85-50.154-31.031-80.25
            c1.611-59.238,51.162-107.773,110.457-108.192c0.271-0.002,0.54-0.003,0.81-0.003c29.589,0,57.411,11.46,78.42,32.321
            c21.204,21.055,32.881,49.104,32.881,78.983c0,28.536-10.786,55.671-30.372,76.405
            C316.313,358.628,304.099,386.275,302.086,415.374z M437.956,282.498h-0.001l-26.924,6.708c-3.077,0.767-5.607,2.946-6.821,5.875
            l-19.345,46.679c-1.214,2.93-0.967,6.262,0.668,8.98l14.288,23.769l-30.388,30.388l-23.769-14.288
            c-2.717-1.633-6.049-1.882-8.981-0.668l-10.591,4.389c4.769-16.107,13.405-31.121,25.434-43.855
            c23.107-24.464,35.833-56.476,35.833-90.14c0-35.248-13.775-68.338-38.788-93.175c-25.011-24.835-58.163-38.402-93.463-38.127
            c-34.081,0.241-66.348,13.593-90.856,37.595c-24.515,24.009-38.525,55.99-39.452,90.055
            c-0.966,35.494,12.036,69.111,36.609,94.658c11.768,12.235,20.194,27.023,24.812,43.168l-11.023-4.568
            c-2.931-1.215-6.263-0.966-8.98,0.668l-23.769,14.288l-30.388-30.388l14.288-23.769c1.635-2.719,1.882-6.051,0.668-8.98
            l-19.345-46.679c-1.214-2.929-3.744-5.108-6.821-5.875l-26.924-6.708v-42.962l26.924-6.708c3.077-0.767,5.607-2.946,6.821-5.875
            l19.345-46.68c1.214-2.93,0.967-6.262-0.668-8.98l-14.288-23.769l30.388-30.388l23.769,14.288c2.718,1.634,6.051,1.883,8.98,0.668
            l46.68-19.345c2.929-1.214,5.108-3.744,5.875-6.82l6.708-26.924h42.961l6.708,26.924c0.767,3.076,2.946,5.606,5.875,6.82
            l46.68,19.345c2.93,1.214,6.262,0.966,8.98-0.668l23.769-14.288l30.388,30.388l-14.288,23.769
            c-1.635,2.719-1.882,6.051-0.668,8.98l19.345,46.68c1.214,2.929,3.744,5.108,6.821,5.875l26.924,6.708V282.498z"/>
        <path d="M209.951,250.27c-1.86-1.871-4.44-2.93-7.07-2.93s-5.21,1.06-7.069,2.93c-1.86,1.86-2.931,4.431-2.931,7.07
            c0,2.63,1.07,5.21,2.931,7.07c1.859,1.859,4.439,2.93,7.069,2.93s5.21-1.07,7.07-2.93c1.86-1.87,2.93-4.44,2.93-7.07
            S211.812,252.13,209.951,250.27z"/>
        <path d="M263.01,250.27c-1.859-1.871-4.439-2.93-7.069-2.93s-5.21,1.06-7.07,2.93c-1.86,1.86-2.93,4.44-2.93,7.07
            s1.069,5.21,2.93,7.07c1.86,1.859,4.44,2.93,7.07,2.93s5.21-1.07,7.069-2.93c1.86-1.86,2.931-4.44,2.931-7.07
            S264.87,252.13,263.01,250.27z"/>
        <path d="M316.07,250.27c-1.86-1.871-4.44-2.93-7.07-2.93s-5.21,1.06-7.069,2.93c-1.86,1.851-2.931,4.431-2.931,7.07
            c0,2.63,1.07,5.21,2.931,7.07c1.859,1.859,4.439,2.93,7.069,2.93s5.21-1.07,7.07-2.93c1.86-1.87,2.93-4.44,2.93-7.07
            S317.932,252.13,316.07,250.27z"/>
        <path d="M255.94,0c-5.522,0-10,4.478-10,10v24.487c0,5.523,4.478,10,10,10c5.522,0,10-4.478,10-10V10
            C265.94,4.478,261.463,0,255.94,0z"/>
        <path d="M98.164,84.079L66.164,52.081c-3.906-3.904-10.236-3.904-14.143,0c-3.905,3.905-3.905,10.237,0,14.143l31.999,31.999
            c1.954,1.952,4.512,2.928,7.072,2.928s5.118-0.977,7.071-2.929C102.068,94.317,102.068,87.985,98.164,84.079z"/>
        <path d="M459.979,51.962c-3.906-3.904-10.236-3.904-14.143,0l-32,32c-3.905,3.905-3.905,10.237,0,14.143
            c1.953,1.952,4.512,2.929,7.071,2.929s5.118-0.977,7.071-2.929l32-32C463.885,62.199,463.885,55.867,459.979,51.962z"/>
        <path d="M284.51,454.93c-1.859-1.86-4.439-2.93-7.069-2.93s-5.21,1.069-7.07,2.93c-1.86,1.861-2.93,4.44-2.93,7.07
            s1.069,5.21,2.93,7.069c1.86,1.861,4.441,2.931,7.07,2.931c2.63,0,5.21-1.07,7.069-2.931c1.86-1.859,2.931-4.439,2.931-7.069
            S286.37,456.79,284.51,454.93z"/>
        <path d="M255.569,166c-0.025,0-0.052,0-0.077,0l-0.389,0.002c-5.522,0.042-9.966,4.553-9.925,10.075
            c0.042,5.497,4.51,9.925,9.998,9.925c0.025,0,0.052,0,0.077,0l0.389-0.002c5.522-0.042,9.966-4.553,9.925-10.075
            C265.526,170.428,261.057,166,255.569,166z"/>
        <path d="M340.938,219.69c-9.921-20.751-27.027-37.145-48.168-46.162c-5.082-2.167-10.955,0.194-13.122,5.274
            c-2.167,5.08,0.194,10.955,5.274,13.122c16.665,7.108,30.15,20.032,37.973,36.393c1.717,3.591,5.297,5.688,9.028,5.688
            c1.446,0,2.915-0.314,4.307-0.98C341.214,230.644,343.322,224.673,340.938,219.69z"/>
    </symbol>

    <symbol id="services04" role="img" aria-labelledby="services04_title" viewBox="0 0 512 512">
        <title id="services04_title"></title>
        <path d="M444.797,82.575C401.736,35.583,343.206,6.466,279.99,0.586c-2.85-0.262-5.692,0.682-7.814,2.616
            c-2.121,1.934-3.33,4.67-3.33,7.539v77.3c0,5.101,3.768,9.416,8.82,10.105c78.173,10.661,137.123,78.29,137.123,157.312
            c0,19.629-3.547,38.804-10.542,56.989c-1.803,4.684,0.071,9.984,4.419,12.494l67.094,38.737c1.567,0.905,3.328,1.367,5.1,1.367
            c1.064,0,2.131-0.167,3.162-0.504c2.751-0.898,4.993-2.921,6.164-5.568C504.662,326.275,512,291.447,512,255.457
            C512,191.265,488.134,129.867,444.797,82.575z M475.891,340.199l-49.663-28.674c5.948-18.047,8.96-36.868,8.959-56.068
            c0-43.591-15.84-85.603-44.603-118.296c-26.516-30.14-62.23-50.445-101.34-57.797V22.192
            C405.373,38.44,491.602,136.82,491.602,255.457C491.602,284.754,486.323,313.205,475.891,340.199z"/>
        <path d="M239.826,3.2c-2.12-1.932-4.97-2.872-7.814-2.616c-63.218,5.88-121.747,34.997-164.808,81.988
            C23.866,129.867,0,191.265,0,255.457c0,35.99,7.338,70.818,21.812,103.517c1.172,2.647,3.414,4.67,6.164,5.568
            c1.032,0.337,2.099,0.503,3.163,0.503c1.773,0,3.533-0.463,5.102-1.369l67.094-38.737c4.348-2.51,6.223-7.81,4.419-12.494
            c-6.995-18.185-10.542-37.36-10.542-56.989c0-79.02,58.95-146.65,137.123-157.311c5.053-0.689,8.82-5.005,8.82-10.105v-77.3
            C243.156,7.869,241.948,5.134,239.826,3.2z M121.415,137.161c-28.763,32.693-44.603,74.705-44.603,118.296
            c0,19.2,3.011,38.022,8.959,56.068l-49.663,28.674c-10.431-26.994-15.71-55.445-15.71-84.742
            c0-118.637,86.228-217.017,202.357-233.265v57.171C183.647,86.715,147.931,107.021,121.415,137.161z"/>
        <path d="M468.273,392.814c-0.625-2.78-2.385-5.172-4.852-6.596l-66.832-38.586c-4.476-2.583-10.179-1.411-13.272,2.73
            c-30.316,40.599-76.721,63.884-127.317,63.884c-50.595,0-97.001-23.285-127.317-63.884c-3.093-4.141-8.794-5.315-13.272-2.73
            l-66.832,38.586c-2.467,1.425-4.227,3.815-4.852,6.596c-0.625,2.779-0.059,5.693,1.562,8.037
            C93.166,470.109,171.935,511.457,256,511.457s162.834-41.349,210.711-110.606C468.332,398.507,468.897,395.593,468.273,392.814z
             M256,491.059c-73.665,0-142.917-34.507-187.415-92.836l49.38-28.51c15.506,18.688,34.848,34.246,56.394,45.293
            c25.419,13.032,52.887,19.64,81.641,19.64s56.221-6.608,81.641-19.64c21.547-11.047,40.889-26.605,56.394-45.293l49.38,28.51
            C398.917,456.552,329.665,491.059,256,491.059z"/>
        <path d="M265.495,239.07v-58.497c18.731,1.026,25.914,9.493,31.302,9.493c5.9,0,9.235-7.697,9.235-11.802
            c0-10.262-22.321-16.164-40.538-16.934v-7.184c0-2.821-3.334-5.387-6.669-5.387c-3.848,0-6.671,2.565-6.671,5.387v7.697
            c-23.092,2.052-47.466,13.342-47.466,45.669c0,32.84,24.631,41.308,47.466,49.261v68.247
            c-29.249-1.283-35.407-20.526-42.59-20.526c-4.877,0-9.494,6.671-9.494,11.802c0,10.776,20.012,28.479,52.083,28.992h0.001v8.466
            c0,2.822,2.823,5.388,6.671,5.388c3.334,0,6.669-2.565,6.669-5.388v-9.236c26.683-3.592,45.157-20.27,45.157-51.57
            C310.652,257.799,287.304,247.024,265.495,239.07z M253.179,234.71c-15.137-5.645-27.966-11.547-27.966-29.249
            c0-16.42,12.572-23.09,27.966-24.63V234.71z M264.468,324.509v-62.86c14.112,5.901,25.657,13.855,25.657,33.353
            C290.126,311.937,280.632,321.943,264.468,324.509z"/>
        <path d="M467.125,243.873c-5.632,0-10.199,4.567-10.199,10.199c0,15.712-1.887,31.343-5.605,46.46
            c-1.347,5.471,1.997,10.996,7.466,12.341c0.818,0.202,1.638,0.298,2.445,0.298c4.585,0,8.751-3.114,9.896-7.765
            c4.112-16.711,6.197-33.983,6.197-51.335C477.324,248.44,472.757,243.873,467.125,243.873z"/>
        <path d="M473.657,214.397c-0.342-1.818-0.704-3.622-1.076-5.363c-1.179-5.509-6.596-9.017-12.107-7.839
            c-5.509,1.178-9.018,6.6-7.839,12.107c0.345,1.609,0.667,3.228,0.972,4.853c0.919,4.901,5.201,8.322,10.013,8.322
            c0.624,0,1.258-0.057,1.893-0.175C471.048,225.262,474.695,219.933,473.657,214.397z"/>
    </symbol>

    <symbol id="services05" role="img" aria-labelledby="services05_title" viewBox="0 0 512 512">
        <title id="services05_title"></title>
        <path d="M437.02,74.98C388.667,26.629,324.38,0,256,0S123.333,26.629,74.98,74.98C26.629,123.333,0,187.62,0,256
            s26.629,132.667,74.98,181.02C123.333,485.371,187.62,512,256,512c46.813,0,92.618-12.758,132.462-36.894
            c9.448-5.724,12.467-18.021,6.744-27.469c-5.723-9.449-18.021-12.467-27.468-6.744C334.144,461.244,295.506,472,256,472
            c-119.103,0-216-96.897-216-216c0-111.333,84.671-203.255,193-214.774v85.812C172.25,137.927,126,191.164,126,255
            c0,71.683,58.318,130,130,130c37.159,0,70.724-15.675,94.438-40.757l90.585,59.475c9.179,6.026,21.5,3.524,27.603-5.603
            C497.001,355.674,512,306.53,512,256C512,187.62,485.371,123.333,437.02,74.98z M273,40.667
            c12.071,0.944,23.862,2.894,35.299,5.749L273,81.709V40.667z M256,345c-49.626,0-90-40.374-90-90c0-49.626,40.374-90,90-90
            c49.626,0,90,40.374,90,90C346,304.626,305.626,345,256,345z M324.044,144.275c-12.348-7.616-26.059-13.223-40.676-16.367
            l66.456-66.445c12.533,6.069,24.396,13.313,35.442,21.59L324.044,144.275z M414.964,109.922
            c9.338,10.155,17.717,21.201,24.995,32.998l-63.417,63.417c-5.355-13.218-12.82-25.362-21.981-36.011L414.964,109.922z
             M373.16,311.311C381.387,294.265,386,275.161,386,255c0-0.512-0.014-1.021-0.02-1.532l72.552-72.552
            c5.365,14.424,9.222,29.573,11.398,45.252l-89.751,89.751L373.16,311.311z M445.654,358.908l-31.326-20.568l56.044-56.044
            C467.058,309.063,458.705,334.989,445.654,358.908z"/>
    </symbol>

    <symbol id="services06" role="img" aria-labelledby="services06_title" viewBox="0 0 512 512">
        <title id="services06_title"></title>
        <path d="m256 512c-68.378906 0-132.667969-26.628906-181.019531-74.980469-48.351563-48.351562-74.980469-112.640625-74.980469-181.019531s26.628906-132.667969 74.980469-181.019531c48.351562-48.351563 112.640625-74.980469 181.019531-74.980469s132.667969 26.628906 181.019531 74.980469c48.351563 48.351562 74.980469 112.640625 74.980469 181.019531 0 50.53125-14.996094 99.675781-43.375 142.117188-6.136719 9.179687-18.558594 11.648437-27.742188 5.507812-9.179687-6.136719-11.648437-18.558594-5.507812-27.742188 23.960938-35.839843 36.625-77.292968 36.625-119.882812 0-119.101562-96.898438-216-216-216s-216 96.898438-216 216 96.898438 216 216 216c39.503906 0 78.144531-10.757812 111.738281-31.105469 9.445313-5.722656 21.742188-2.707031 27.46875 6.742188 5.722657 9.449219 2.703125 21.746093-6.746093 27.46875-39.84375 24.136719-85.648438 36.894531-132.460938 36.894531zm92.011719-124.644531c13.910156-10.164063 19.445312-27.292969 14.097656-43.640625l-17.054687-52.148438 44.695312-32.261718c13.832031-9.984376 19.574219-27.679688 14.289062-44.027344-5.355468-16.570313-19.988281-27.277344-37.285156-27.277344h-55.566406l-16.910156-52.03125c-5.359375-16.382812-19.992188-26.96875-37.277344-26.96875s-31.917969 10.585938-37.289062 27.007812l-16.898438 51.992188h-55.566406c-17.296875 0-31.929688 10.707031-37.285156 27.273438-5.285157 16.351562.457031 34.046874 14.289062 44.03125l44.695312 32.257812-17.054687 52.152344c-5.347656 16.347656.1875 33.476562 14.097656 43.636718 14 10.226563 32.125 10.277344 46.175781.132813l44.835938-32.371094 44.835938 32.371094c6.996093 5.050781 14.996093 7.574219 23 7.574219 8.070312 0 16.144531-2.570313 23.175781-7.703125zm-144.832031-159.355469c17.128906 0 32.109374-10.609375 37.289062-26.441406l16.535156-50.871094 16.539063 50.90625c5.167969 15.796875 20.148437 26.40625 37.277343 26.40625h53.953126l-43.683594 31.53125c-13.839844 9.988281-19.578125 27.578125-14.28125 43.769531l16.453125 50.316407-43.265625-31.234376c-6.734375-4.859374-14.6875-7.429687-22.996094-7.429687-8.3125 0-16.265625 2.566406-23 7.429687l-43.265625 31.238282 16.457031-50.316406c5.296875-16.195313-.445312-33.785157-14.28125-43.773438l-43.679687-31.53125zm163.648437.003906h.007813zm0 0"/>
    </symbol>

    <symbol id="footer-share" role="img" aria-labelledby="footer-share_title" viewBox="0 0 512 512">
        <title id="footer-share_title"></title>
        <path d="m245.394 420.231c2.929 2.929 6.768 4.394 10.606 4.394s7.678-1.464 10.606-4.394l120.5-120.5c4.29-4.29 5.573-10.742 3.252-16.347-2.322-5.605-7.791-9.26-13.858-9.26h-45.25v-138.624c0-8.284-6.716-15-15-15h-120.5c-8.284 0-15 6.716-15 15v138.625h-45.25c-6.067 0-11.537 3.655-13.858 9.26s-1.038 12.057 3.252 16.347zm-49.644-116.106c8.284 0 15-6.716 15-15v-138.625h90.5v138.625c0 8.284 6.716 15 15 15h24.037l-84.287 84.287-84.287-84.287z"/>
        <path d="m387.106 365.894c-5.857-5.858-15.355-5.858-21.213 0l-109.893 109.893-109.894-109.893c-5.857-5.858-15.355-5.858-21.213 0s-5.858 15.355 0 21.213l120.5 120.5c2.929 2.929 6.768 4.393 10.607 4.393s7.678-1.464 10.606-4.394l120.5-120.5c5.859-5.857 5.859-15.355 0-21.212z"/>
        <path d="m195.75 90.25h120.5c8.284 0 15-6.716 15-15s-6.716-15-15-15h-120.5c-8.284 0-15 6.716-15 15s6.716 15 15 15z"/>
        <path d="m195.75 30h120.5c8.284 0 15-6.716 15-15s-6.716-15-15-15h-120.5c-8.284 0-15 6.716-15 15s6.716 15 15 15z"/>
    </symbol>

    <symbol id="footer-facebook" role="img" aria-labelledby="footer-facebook_title" viewBox="0 0 512 512">
        <title id="footer-facebook_title">Facebook</title>
        <path d="M314.829,135.492h70.595c11.423,0,20.682-9.26,20.682-20.682V20.682C406.107,9.26,396.848,0,385.425,0h-70.595
            c-76.282,0-138.341,62.06-138.341,138.341v49.913h-49.913c-11.422,0-20.682,9.26-20.682,20.682v94.127
            c0,11.423,9.26,20.682,20.682,20.682h49.913v167.572c0,11.423,9.26,20.682,20.682,20.682h94.127
            c11.423,0,20.682-9.259,20.682-20.682V323.746h49.913c9.49,0,17.763-6.458,20.065-15.666l23.532-94.127
            c1.544-6.179,0.156-12.725-3.763-17.744c-3.919-5.02-9.932-7.954-16.301-7.954H311.98v-49.913
            C311.98,136.77,313.258,135.492,314.829,135.492z M291.298,229.619h67.637l-13.191,52.763h-54.447
            c-11.423,0-20.682,9.259-20.682,20.682v167.572h-52.763V303.064c0-11.423-9.26-20.682-20.682-20.682h-49.913v-52.763h49.913
            c11.422,0,20.682-9.26,20.682-20.682v-70.595c0-53.473,43.503-96.977,96.977-96.977h49.913v52.763h-49.913
            c-24.38,0-44.214,19.835-44.214,44.214v70.595C270.615,220.359,279.875,229.619,291.298,229.619z"/>
    </symbol>

    <symbol id="footer-twitter" role="img" aria-labelledby="footer-twitter_title" viewBox="0 0 512 512">
        <title id="footer-twitter_title">Twitter</title>
        <path d="M502.954,47.189c-7.126-4.852-16.515-4.774-23.559,0.196c-15.351,10.828-31.974,19.528-49.557,25.948
            c-19.253-17.414-43.615-27.826-69.915-29.656c-31.056-2.16-61.081,7.9-84.561,28.326c-25.59,22.259-40.174,54.444-40.046,88.349
            c-85.248-7.609-139.14-61.55-177.09-108.986c-4.598-5.746-11.901-8.619-19.182-7.538c-7.279,1.078-13.438,5.944-16.171,12.777
            c-0.948,2.369-23.141,58.799-17.453,127.057c4.761,57.133,30.23,131.964,120.039,181.717
            c-32.436,14.756-68.282,21.939-103.953,20.519c-9.576-0.378-18.15,5.859-20.736,15.08c-2.587,9.221,1.497,19.013,9.869,23.665
            c51.359,28.532,108.03,43.736,163.889,43.965c0.432,0.002,0.861,0.003,1.294,0.003c54.105-0.001,106.379-13.938,151.246-40.336
            c42.898-25.241,78.416-61.759,102.715-105.603c26.162-47.206,39.427-101.75,39.427-162.186c-0.011-3.544-0.186-7.098-0.52-10.638
            c20.7-22.885,35.388-50.567,42.719-80.667C513.451,60.803,510.081,52.04,502.954,47.189z M432.297,128.07
            c-4.916,4.847-7.088,11.827-5.793,18.607c0.877,4.588,1.329,9.278,1.344,13.874c0,101.956-44.378,186.544-121.756,232.072
            c-60.586,35.649-133.037,43.933-203.609,25.057c0.729-0.201,1.459-0.407,2.185-0.615c27.596-7.885,53.63-20.055,77.377-36.174
            c6.329-4.296,9.77-11.734,8.946-19.34c-0.825-7.605-5.778-14.134-12.881-16.975C97.757,312.434,53.563,257.594,46.757,181.575
            c-2.536-28.334,0.707-54.721,4.766-74.501c16.638,17.909,37.384,37.227,62.129,53.407c42.771,27.966,90.663,42.146,142.346,42.146
            c11.423,0,20.682-9.26,20.682-20.682v-21.393c0-0.045,0-0.091,0-0.137c-0.146-21.948,9.268-42.797,25.829-57.202
            c15.146-13.175,34.51-19.665,54.543-18.27c20.026,1.393,38.311,10.502,51.487,25.648c5.339,6.138,13.783,8.577,21.567,6.229
            c5.725-1.724,11.375-3.645,16.941-5.757C442.599,117.081,437.672,122.769,432.297,128.07z"/>
    </symbol>    

    <symbol id="footer-linkedin" role="img" aria-labelledby="footer-linkedin_title" viewBox="0 0 512 512">
        <title id="footer-linkedin_title">Linkedin</title>
        <path d="M2.5,510V153.7h137.3V510H2.5z M102.5,472.7V191H39.8v281.7H102.5z"/>
        <path d="M375.4,510l0.1-158.1c0.5-23.6-8.8-42.9-24.9-51.7c-5.4-3-11.2-4.5-17.3-4.5c-5.2,0-10.4,1.1-15.5,3.3l-1.1,211H176.1
            V153.7h140.6V166c16.6-6,33.6-9.1,50.6-9.1c24.7,0,48.3,6.4,70.2,18.9c44,25.2,72.5,71.8,72.5,118.8V510H375.4z M472.7,472.7V294.6
            c0-33.8-21.1-67.7-53.7-86.4c-15.9-9.1-33.8-13.9-51.7-14h-0.3c-20.1,0-40.1,5.8-59.6,17.3L279.4,228V191h-66.1v281.7h66.2l1-194.7
            l8.2-5.5c13.7-9.2,29.1-14.1,44.5-14.1c12.4,0,24.2,3,35.1,9c13.7,7.5,25,19.2,32.8,33.8c7.9,14.9,11.9,32.6,11.5,51.1l0,120.3
            H472.7z"/>
        <path d="M70.9,139.9C32.9,139.9,2,109,2,71c0-38,30.9-69,68.9-69c38,0,68.9,30.9,68.9,69C139.8,109,108.9,139.9,70.9,139.9z
             M70.9,39.3c-17.4,0-31.6,14.2-31.6,31.7c0,17.5,14.2,31.7,31.6,31.7c17.4,0,31.6-14.2,31.6-31.7C102.5,53.5,88.3,39.3,70.9,39.3z"
            />
    </symbol>

    <symbol id="footer-instagram" role="img" aria-labelledby="footer-instagram_title" viewBox="0 0 512 512">
        <title id="footer-instagram_title">Instagram</title>
        <path d="M373.659,0H138.341C62.06,0,0,62.06,0,138.341v235.318C0,449.94,62.06,512,138.341,512h235.318
            C449.94,512,512,449.94,512,373.659V138.341C512,62.06,449.94,0,373.659,0z M470.636,373.659
            c0,53.473-43.503,96.977-96.977,96.977H138.341c-53.473,0-96.977-43.503-96.977-96.977V138.341
            c0-53.473,43.503-96.977,96.977-96.977h235.318c53.473,0,96.977,43.503,96.977,96.977V373.659z"/>
        <path d="M370.586,238.141c-3.64-24.547-14.839-46.795-32.386-64.342c-17.547-17.546-39.795-28.746-64.341-32.385
            c-11.176-1.657-22.507-1.657-33.682,0c-30.336,4.499-57.103,20.541-75.372,45.172c-18.269,24.631-25.854,54.903-21.355,85.237
            c4.499,30.335,20.541,57.102,45.172,75.372c19.996,14.831,43.706,22.619,68.153,22.619c5.667,0,11.375-0.418,17.083-1.265
            c30.336-4.499,57.103-20.541,75.372-45.172C367.5,298.747,375.085,268.476,370.586,238.141z M267.791,327.632
            c-19.405,2.882-38.77-1.973-54.527-13.66c-15.757-11.687-26.019-28.811-28.896-48.216c-2.878-19.405,1.973-38.77,13.66-54.527
            c11.688-15.757,28.811-26.019,48.217-28.897c3.574-0.53,7.173-0.795,10.772-0.795s7.199,0.265,10.773,0.796
            c32.231,4.779,57.098,29.645,61.878,61.877C335.608,284.268,307.851,321.692,267.791,327.632z"/>
        <path d="M400.049,111.951c-3.852-3.851-9.183-6.058-14.625-6.058c-5.442,0-10.773,2.206-14.625,6.058
            c-3.851,3.852-6.058,9.174-6.058,14.625c0,5.451,2.207,10.773,6.058,14.625c3.852,3.851,9.183,6.058,14.625,6.058
            c5.442,0,10.773-2.206,14.625-6.058c3.851-3.852,6.058-9.183,6.058-14.625C406.107,121.133,403.9,115.802,400.049,111.951z"/>
    </symbol>

    <symbol id="footer-phone" role="img" aria-labelledby="footer-phone_title" viewBox="0 0 512 512">
        <title id="footer-phone_title"></title>
        <path d="M421.216,195.504c-5.092-26.101-17.723-49.836-36.526-68.64c-18.804-18.803-42.54-31.434-68.641-36.527
			c-11.21-2.189-22.073,5.128-24.261,16.339c-2.187,11.212,5.128,22.073,16.339,24.26c36.847,7.188,65.3,35.642,72.489,72.489
			c1.927,9.874,10.581,16.726,20.278,16.726c1.313,0,2.645-0.125,3.984-0.387C416.088,217.577,423.403,206.715,421.216,195.504z"/>
		<path d="M511.422,196.929c-5.629-50.096-28.373-97.304-64.042-132.927C411.712,28.378,364.475,5.694,314.371,0.128
			c-11.355-1.261-21.578,6.92-22.839,18.272c-1.261,11.353,6.919,21.578,18.272,22.84c84.961,9.438,150.966,75.36,160.512,160.31
			c1.188,10.566,10.139,18.374,20.527,18.374c0.771,0,1.552-0.043,2.336-0.131C504.53,218.516,512.698,208.281,511.422,196.929z"/>
		<path d="M432.59,312.566c-0.062-0.008-0.124-0.017-0.186-0.025c-20.013-2.639-39.751-7.557-58.619-14.596
			c-23.91-8.99-51.103-3.191-69.27,14.772c-0.028,0.028-0.056,0.055-0.083,0.083l-17.148,17.148
			c-42.633-26.924-78.756-63.047-105.679-105.679l17.149-17.149c0.027-0.028,0.054-0.055,0.082-0.083
			c17.964-18.166,23.762-45.356,14.79-69.223c-7.057-18.914-11.974-38.653-14.614-58.666c-0.007-0.063-0.017-0.127-0.026-0.19
			c-4.591-32.478-32.782-56.734-65.548-56.467H66.053c-1.943,0.002-3.912,0.091-5.853,0.267
			C24.143,26.016-2.541,58.001,0.718,94.058c0.01,0.108,0.02,0.215,0.032,0.323c7.684,72.354,32.649,142.88,72.197,203.955
			c35.892,56.461,84.701,105.269,141.162,141.164c60.792,39.406,130.99,64.369,203.013,72.196c0.127,0.015,0.254,0.027,0.38,0.038
			c1.961,0.176,3.949,0.266,5.921,0.266c0.083,0,0.165,0,0.247,0.001c36.204-0.148,65.538-29.722,65.391-65.841v-67.233
			C489.746,345.714,465.515,317.211,432.59,312.566z M447.698,378.695v67.548c0.055,13.396-10.8,24.338-24.19,24.393
			c-0.715-0.004-1.425-0.027-2.135-0.086c-65.578-7.161-129.488-29.914-184.837-65.808c-0.053-0.035-0.107-0.069-0.161-0.103
			c-51.429-32.68-95.885-77.137-128.565-128.565c-0.032-0.051-0.064-0.101-0.097-0.153C71.683,220.306,48.928,156.086,41.902,90.193
			C40.779,76.91,50.63,65.155,63.923,63.954c0.717-0.064,1.443-0.098,2.145-0.098h67.463c0.146-0.001,0.294-0.003,0.443-0.002
			c12.021,0,22.322,8.905,24.044,20.819c3.05,23.063,8.721,45.806,16.871,67.649c3.319,8.832,1.189,18.869-5.427,25.591
			l-28.517,28.517c-6.583,6.582-7.956,16.753-3.354,24.847c33.837,59.508,83.177,108.847,142.685,142.685
			c8.094,4.6,18.264,3.23,24.848-3.355l28.512-28.512c6.72-6.621,16.765-8.752,25.642-5.415
			c21.799,8.134,44.547,13.805,67.61,16.855c12.18,1.757,21.122,12.339,20.816,24.647
			C447.7,378.353,447.698,378.524,447.698,378.695z"/>
    </symbol>    

	<symbol id="footer-mail" role="img" aria-labelledby="footer-mail_title" viewBox="0 0 512 512">
        <title id="footer-mail_title"></title>
        <path d="M256,141.176c-63.306,0-114.809,51.503-114.809,114.809S192.694,370.795,256,370.795s114.809-51.503,114.809-114.809
			S319.306,141.176,256,141.176z M256,329.43c-40.498,0-73.445-32.947-73.445-73.445c0-40.498,32.947-73.445,73.445-73.445
			c40.499,0,73.445,32.947,73.445,73.445C329.445,296.483,296.499,329.43,256,329.43z"/>
		<path d="M437.008,74.97C388.656,26.623,324.375,0,256,0c-0.005,0-0.013,0-0.017,0C187.603,0.004,123.318,26.637,74.97,74.992
			C26.62,123.347-0.005,187.637,0,256.017c0.004,68.379,26.637,132.666,74.992,181.014C123.344,485.377,187.625,512.001,256,512
			c0.004,0,0.012,0,0.017,0c55.945-0.004,111.216-18.738,155.631-52.752c9.07-6.945,10.792-19.927,3.846-28.995
			c-6.945-9.069-19.926-10.794-28.995-3.846c-37.24,28.518-83.58,44.224-130.486,44.228c-0.006,0-0.006,0-0.014,0
			c-57.324,0-111.224-22.324-151.761-62.856c-40.542-40.536-62.871-94.435-62.875-151.766
			C41.357,137.663,137.636,41.372,255.986,41.364c0.007,0,0.006,0,0.014,0c118.34,0,214.628,96.279,214.636,214.622v23.532
			c0,27.523-22.39,49.913-49.913,49.913c-27.523,0-49.913-22.391-49.913-49.913v-23.532c0-11.422-9.259-20.682-20.682-20.682
			s-20.682,9.26-20.682,20.682v23.532c0,50.33,40.947,91.278,91.278,91.278S512,329.848,512,279.518v-23.534
			C511.995,187.604,485.362,123.318,437.008,74.97z"/>
    </symbol>

    <symbol id="footer-location" role="img" aria-labelledby="footer-location_title" viewBox="0 0 512 512">
        <title id="footer-location_title"></title>
        <path d="M406.766,62.449C366.495,22.178,312.951,0,256,0S145.505,22.178,105.234,62.449
			c-40.272,40.271-62.449,93.814-62.449,150.766c0,37.656,10.972,76.863,32.609,116.532c16.825,30.846,40.15,62.102,69.326,92.898
			c49.17,51.903,97.763,84.519,99.808,85.881C248.001,510.842,252,512,256,512c4,0,7.999-1.158,11.473-3.474
			c2.045-1.363,50.638-33.978,99.808-85.881c29.176-30.795,52.501-62.051,69.326-92.898c21.637-39.669,32.609-78.876,32.609-116.532
			C469.215,156.263,447.038,102.72,406.766,62.449z M256.001,465.903C215.826,436.156,84.15,329.739,84.15,213.215
			c0-94.759,77.091-171.851,171.85-171.851s171.85,77.092,171.851,171.851C427.851,329.748,296.159,436.168,256.001,465.903z"/>
		<path d="M256,128.355c-46.791,0-84.86,38.068-84.86,84.86c0,46.791,38.068,84.86,84.86,84.86c46.792,0,84.861-38.068,84.86-84.86
			C340.86,166.423,302.791,128.355,256,128.355z M256,256.71c-23.983,0-43.495-19.512-43.495-43.495
			c0-23.983,19.512-43.495,43.495-43.495c23.984,0,43.495,19.512,43.495,43.495C299.495,237.198,279.984,256.71,256,256.71z"/>
		</symbol>

	<symbol id="footer-time" role="img" aria-labelledby="footer-time_title" viewBox="0 0 512 512">
        <title id="footer-time_title"></title>
        <path d="M437.019,74.981C388.667,26.629,324.38,0,256,0S123.333,26.63,74.981,74.981S0,187.62,0,256
			s26.629,132.667,74.981,181.019C123.332,485.371,187.62,512,256,512s132.667-26.629,181.019-74.981
			C485.371,388.667,512,324.38,512,256S485.371,123.332,437.019,74.981z M256,470.636C137.65,470.636,41.364,374.35,41.364,256
			S137.65,41.364,256,41.364S470.636,137.65,470.636,256S374.35,470.636,256,470.636z"/>
		<path d="M341.221,311.97l-64.538-64.537V114.809c0-11.422-9.259-20.682-20.682-20.682c-11.422,0-20.682,9.26-20.682,20.682V256
			c0,5.486,2.179,10.746,6.058,14.625l70.594,70.595c4.038,4.039,9.332,6.058,14.625,6.058c5.293,0,10.586-2.019,14.626-6.058
			C349.297,333.142,349.297,320.047,341.221,311.97z"/>
	</symbol>

</svg>