<svg xmlns="http://www.w3.org/2000/svg" xmlns:xlink="http://www.w3.org/1999/xlink">

    <symbol id="date" role="img" aria-labelledby="date_title" viewBox="0 0 512 512">
        <title id="date_title"></title>
        <circle cx="299" cy="297" r="20"/>
        <path d="M409.589,289.557l-109.803,109.56c-2.332,2.327-4.052,5.194-5.01,8.346l-23.913,78.725
            c-2.12,6.978-0.273,14.558,4.821,19.779c3.817,3.911,9,6.034,14.317,6.034c1.78,0,3.575-0.239,5.338-0.727l80.725-22.362
            c3.322-0.921,6.35-2.683,8.79-5.119l109.573-109.366c23.394-23.395,23.394-61.459,0-84.854
            C471.034,266.181,432.969,266.181,409.589,289.557z M360.32,451.768l-40.612,11.25l11.885-39.128l74.089-73.925l28.289,28.289
            L360.32,451.768z M466.158,346.129l-3.875,3.867l-28.285-28.285l3.862-3.853c7.798-7.799,20.486-7.799,28.284,0
            C473.94,325.656,473.94,338.344,466.158,346.129z"/>
        <circle cx="212" cy="384" r="20"/>
        <circle cx="212" cy="297" r="20"/>
        <circle cx="212" cy="210" r="20"/>
        <circle cx="125" cy="297" r="20"/>
        <circle cx="125" cy="384" r="20"/>
        <circle cx="125" cy="210" r="20"/>
        <circle cx="386" cy="210" r="20"/>
        <path d="M432,40h-26V20c0-11.046-8.954-20-20-20c-11.046,0-20,8.954-20,20v20h-91V20c0-11.046-8.954-20-20-20
            c-11.046,0-20,8.954-20,20v20h-90V20c0-11.046-8.954-20-20-20s-20,8.954-20,20v20H80C35.888,40,0,75.888,0,120v312
            c0,44.112,35.888,80,80,80h122c11.046,0,20-8.954,20-20c0-11.046-8.954-20-20-20H80c-22.056,0-40-17.944-40-40V120
            c0-22.056,17.944-40,40-40h25v20c0,11.046,8.954,20,20,20s20-8.954,20-20V80h90v20c0,11.046,8.954,20,20,20s20-8.954,20-20V80h91
            v20c0,11.046,8.954,20,20,20c11.046,0,20-8.954,20-20V80h26c22.056,0,40,17.944,40,40v90c0,11.046,8.954,20,20,20
            c11.046,0,20-8.954,20-20v-90C512,75.888,476.114,40,432,40z"/>
        <circle cx="299" cy="210" r="20"/>
    </symbol>

    <symbol id="time" role="img" aria-labelledby="time_title" viewBox="0 0 512 512">
        <title id="time_title"></title>
        <path d="m512 256c0 50.53125-14.996094 99.675781-43.375 142.117188-6.136719 9.179687-18.558594 11.648437-27.742188 5.511718-9.183593-6.140625-11.648437-18.5625-5.511718-27.742187 23.964844-35.84375 36.628906-77.296875 36.628906-119.886719 0-119.101562-96.898438-216-216-216s-216 96.898438-216 216 96.898438 216 216 216c39.503906 0 78.144531-10.757812 111.738281-31.105469 9.449219-5.722656 21.746094-2.703125 27.46875 6.746094 5.722657 9.445313 2.703125 21.742187-6.742187 27.464844-39.847656 24.136719-85.652344 36.894531-132.464844 36.894531-68.378906 0-132.667969-26.628906-181.019531-74.980469-48.351563-48.351562-74.980469-112.640625-74.980469-181.019531s26.628906-132.667969 74.980469-181.019531c48.351562-48.351563 112.640625-74.980469 181.019531-74.980469s132.667969 26.628906 181.019531 74.980469c48.351563 48.351562 74.980469 112.640625 74.980469 181.019531zm-255-176c-11.046875 0-20 8.953125-20 20v121.363281c-11.953125 6.917969-20 19.832031-20 34.636719 0 22.089844 17.910156 40 40 40 3.582031 0 7.050781-.476562 10.355469-1.359375l53.003906 53c3.902344 3.90625 9.023437 5.859375 14.140625 5.859375s10.238281-1.953125 14.140625-5.859375c7.8125-7.808594 7.8125-20.472656 0-28.28125l-53-53.003906c.882813-3.304688 1.359375-6.773438 1.359375-10.355469 0-14.804688-8.046875-27.71875-20-34.636719v-121.363281c0-11.046875-8.953125-20-20-20zm0 0"/>
    </symbol>

    <symbol id="events" role="img" aria-labelledby="events_title" viewBox="0 0 512 512">
        <title id="events_title"></title>
        <path d="M275.961,251.509c0-11.024-8.937-19.961-19.961-19.961c-30.819,0-55.891-25.072-55.891-55.891
            s25.072-55.891,55.891-55.891s55.891,25.072,55.891,55.891c0,11.024,8.937,19.961,19.961,19.961
            c11.024,0,19.961-8.937,19.961-19.961c0-52.832-42.981-95.813-95.813-95.813s-95.813,42.981-95.813,95.813
            S203.168,271.47,256,271.47C267.025,271.47,275.961,262.533,275.961,251.509z"/>
        <path d="M506.593,443.716l-37.53-76.196c-8.866-18-26.838-29.182-46.902-29.182h-20.445c-11.024,0-19.961,8.937-19.961,19.961
            s8.937,19.961,19.961,19.961h20.444c4.744,0,8.991,2.643,11.088,6.898l37.531,76.197c1.588,3.225,0.457,5.903-0.357,7.214
            c-0.814,1.31-2.719,3.508-6.314,3.508H47.892c-3.594,0-5.498-2.197-6.313-3.507s-1.945-3.99-0.357-7.214l37.531-76.197
            c2.095-4.256,6.344-6.898,11.087-6.898h19.447c11.024,0,19.961-8.937,19.961-19.961c0-11.024-8.937-19.961-19.961-19.961H89.84
            c-20.066,0-38.038,11.182-46.901,29.181L5.408,443.717c-7.28,14.779-6.43,31.954,2.274,45.942
            C16.385,503.649,31.416,512,47.892,512h416.217c16.475,0,31.506-8.351,40.21-22.34
            C513.022,475.672,513.872,458.497,506.593,443.716z"/>
        <path d="M233.812,425.844c3.656,5.793,10.028,9.306,16.879,9.306h10.034c6.851,0,13.223-3.512,16.879-9.306
            c18.18-28.802,41.038-53.867,63.142-78.107c44.025-48.278,89.549-98.199,89.621-173.073C430.256,78.355,351.904,0,255.708,0
            S81.16,78.355,81.049,174.708c0.072,74.83,45.596,124.752,89.621,173.03C192.774,371.977,215.631,397.043,233.812,425.844z
             M255.708,39.922c74.209,0,134.651,60.466,134.737,134.747c-0.058,59.384-36.732,99.601-79.197,146.169
            c-18.842,20.664-38.203,41.893-55.54,66.097c-17.336-24.204-36.696-45.434-55.54-66.097
            c-42.465-46.568-79.139-86.786-79.197-146.127C121.057,100.388,181.499,39.922,255.708,39.922z"/>
    </symbol>

    <symbol id="sport" role="img" aria-labelledby="sport_title" viewBox="0 0 512 512">
        <title id="sport_title"></title>
        <path d="M506.617,46.371C502.833,42.308,497.531,40,491.979,40h-81.152c0.129-6.524,0.193-13.188,0.193-20
            c0-11.046-8.954-20-20-20h-270c-11.046,0-20,8.954-20,20c0,6.812,0.064,13.476,0.193,20H20.021
            c-5.552,0-10.854,2.308-14.637,6.371c-3.783,4.063-5.708,9.516-5.312,15.054c0.114,1.599,3.091,39.716,28.72,88.743
            c14.855,28.419,34.368,54.938,57.994,78.819c28.755,29.065,63.71,54.25,103.9,74.904c18.457,21.856,35.811,42.68,45.333,69.916
            l0.001,32.513c-10.341,2.857-24.442,7.336-38.639,13.662c-51.542,22.964-62.36,51.839-62.36,72.019c0,11.046,8.954,20,20,20h200
            c11.046,0,20-8.954,20-20c0-19.663-10.602-48.002-61.11-71.343c-13.925-6.435-27.755-11.074-37.89-14.059l-0.001-34.313
            c9.388-26.689,26.528-46.895,44.735-68.097c53.546-27.425,97.406-62.582,130.374-104.529c6.826-8.685,5.318-21.258-3.366-28.083
            c-8.686-6.826-21.258-5.318-28.083,3.366c-12.011,15.283-25.702,29.582-40.996,42.843C395.469,179.744,405.225,135.43,409.082,80
            h58.831c-1.128,4.366-2.554,9.287-4.35,14.66c-3.502,10.476,2.151,21.807,12.627,25.309c2.104,0.703,4.241,1.038,6.343,1.038
            c8.367-0.001,16.167-5.293,18.966-13.665c8.838-26.438,10.293-44.001,10.43-45.917C512.324,55.887,510.4,50.435,506.617,46.371z
             M65.216,133.486C53.918,112.279,47.6,93.469,44.109,80h58.85c3.866,55.563,13.661,99.953,30.522,138.057
            C104.887,193.352,82.05,165.087,65.216,133.486z M322.276,472h-134.81c8.52-7.008,19.373-12.416,25.657-15.24
            c17.333-7.791,35.083-12.433,42.807-14.253C276.216,447.486,305.628,458.545,322.276,472z M323.309,236.295
            c-9.55,14.645-20.464,27.353-32.019,40.806c-12.358,14.388-24.966,29.067-35.638,46.139
            c-10.649-17.032-23.143-31.823-35.391-46.324c-11.369-13.46-22.106-26.172-31.528-40.621
            C157.565,188.501,143.052,129.072,141.22,40h229.601C368.989,129.072,354.476,188.501,323.309,236.295z"/>
        <path d="M236.021,139.322V195c0,11.046,8.954,20,20,20c11.046,0,20-8.954,20-20v-94c0-7.457-4.149-14.296-10.763-17.739
            c-6.616-3.445-14.597-2.921-20.706,1.354l-30,21c-9.049,6.333-11.25,18.804-4.916,27.854
            C215.634,142.036,227.133,144.465,236.021,139.322z"/>
    </symbol>

    <symbol id="education" role="img" aria-labelledby="education_title" viewBox="0 0 512 512">
        <title id="education_title"></title>
        <path d="M468.86,446.934c-2.246-10.815-12.833-17.765-23.648-15.517c-10.815,2.245-17.762,12.833-15.517,23.648
            c0.878,4.231-0.194,8.595-2.943,11.973c-1.508,1.853-4.838,4.961-10.204,4.961H283.731l54.007-138.104
            c19.667,10.191,37.454,24.084,52.283,41.2c7.232,8.348,19.863,9.252,28.212,2.02c8.348-7.232,9.252-19.864,2.02-28.212
            c-24.557-28.345-55.72-49.488-90.244-61.959C355.057,265.832,371,234.245,371,198.999c0-20.703-5.437-40.557-15.624-57.954
            L417,118.339V217c0,11.046,8.954,20,20,20c11.046,0,20-8.954,20-20V91c0-0.197-0.024-0.389-0.03-0.585
            c0.01-0.253,0.03-0.505,0.03-0.76V88.53c0-8.306-5.134-15.748-12.899-18.697L263.666,1.303c-4.555-1.73-9.585-1.738-14.147-0.021
            L67.953,69.626c-7.794,2.934-12.954,10.39-12.954,18.718v1.125c0,8.397,5.245,15.9,13.131,18.784l88.7,32.435
            c-10.322,17.476-15.832,37.452-15.832,58.312c0,35.285,15.979,66.903,41.074,88.015c-23.168,8.394-44.914,20.711-64.132,36.564
            c-38.209,31.52-64.774,75.483-74.803,123.792c-3.312,15.955,0.671,32.335,10.929,44.94C64.248,504.824,79.332,512,95.45,512
            h321.098c16.007,0,31.035-7.186,41.23-19.715C468.156,479.531,472.195,463.001,468.86,446.934z M130.978,88.643l125.555-47.261
            l124.893,47.436l-56.265,20.732c-19.656-9.129-50.205-10.771-68.941-10.813c-18.741-0.063-49.314,1.452-68.976,10.481
            L130.978,88.643z M180.999,199c0-20.095,7.839-38.933,22.068-53.112c3.863-2.359,21.626-7.152,52.4-7.152c0.234,0,0.471,0,0.706,0
            c31.23,0.074,49.189,5.029,53.041,7.43c14.047,14.145,21.785,32.885,21.785,52.833c0,41.355-33.645,75-75,75
            C214.644,273.999,180.999,240.355,180.999,199z M95.45,472c-5.518,0-8.858-3.092-10.357-4.935
            c-1.544-1.898-3.96-5.924-2.79-11.563c11.089-53.417,45.963-97.285,92.045-121.379L228.267,472H95.45z M211.659,319.701
            c14.248-3.721,29.117-5.701,44.34-5.701c15.128,0,30.021,1.933,44.369,5.627l-44.369,113.458L211.659,319.701z"/>
    </symbol>

    <symbol id="medical" role="img" aria-labelledby="medical_title" viewBox="0 0 512 512">
        <title id="medical_title"></title>
        <path d="m512 145.273438c0 70.015624-49.855469 128.707031-87.355469 166.765624-3.914062 3.972657-9.082031 5.960938-14.25 5.960938-5.070312 0-10.136719-1.914062-14.035156-5.753906-7.867187-7.753906-7.960937-20.417969-.207031-28.28125 51.746094-52.515625 75.847656-96.585938 75.847656-138.691406 0-61.984376-40.300781-105.273438-98-105.273438-37.519531 0-65.222656 14.113281-82.34375 41.953125-13.585938 22.097656-15.703125 45.097656-15.722656 45.328125-.800782 10.417969-9.488282 18.417969-19.9375 18.417969-10.449219 0-19.136719-8.089844-19.9375-18.507813-.011719-.140625-2.128906-23.140625-15.71875-45.238281-17.117188-27.839844-44.820313-41.953125-82.339844-41.953125-57.699219 0-98 43.289062-98 105.273438 0 27.953124 10.605469 56.695312 32.382812 87.726562h47.472657l33.179687-67.792969c3.414063-6.972656 10.582032-11.367187 18.320313-11.203125 7.765625.136719 14.746093 4.757813 17.910156 11.847656l40.863281 91.59375 26.023438-51.46875c3.378906-6.679687 10.203125-10.914062 17.6875-10.976562h.164062c7.421875 0 14.234375 4.109375 17.695313 10.6875l14.375 27.3125h44.925781c11.046875 0 20 8.953125 20 20s-8.953125 20-20 20h-57c-7.425781 0-14.238281-4.113281-17.699219-10.683594l-1.945312-3.699218-27.507813 54.40625c-3.40625 6.742187-10.316406 10.976562-17.84375 10.976562-.164062 0-.324218-.003906-.488281-.007812-7.714844-.183594-14.632813-4.796876-17.78125-11.84375l-40.574219-90.941407-19.863281 40.585938c-3.355469 6.859375-10.328125 11.207031-17.964844 11.207031h-112.332031c-11.046875 0-20-8.953125-20-20s8.953125-20 20-20h5.070312c-16.828124-29.765625-25.070312-58.6875-25.070312-87.726562 0-42.476563 13.945312-79.050782 40.332031-105.769532 25.152344-25.476562 59.839844-39.503906 97.667969-39.503906 66.136719 0 100.332031 34.03125 117.371094 62.578125.210937.351563.421875.707031.628906 1.0625.207031-.355469.417969-.710937.628906-1.0625 17.039063-28.546875 51.234375-62.578125 117.371094-62.578125 37.828125 0 72.515625 14.027344 97.667969 39.503906 26.386719 26.71875 40.332031 63.292969 40.332031 105.769532zm-186.191406 203.457031-.457032.402343c-25.421874 22.300782-49.722656 43.640626-69.351562 64.542969-19.628906-20.90625-43.933594-42.242187-69.355469-64.546875-13.539062-11.875-27.539062-24.15625-41.109375-36.632812-8.132812-7.476563-20.785156-6.945313-28.257812 1.1875-7.476563 8.128906-6.945313 20.78125 1.1875 28.257812 13.914062 12.792969 28.089844 25.230469 41.800781 37.257813 31.328125 27.484375 60.921875 53.445312 80.15625 77.339843.019531.027344.042969.050782.0625.078126.089844.109374.183594.214843.277344.320312.359375.425781.730469.835938 1.121093 1.226562.023438.023438.042969.046876.0625.066407.472657.46875.964844.902343 1.472657 1.3125.015625.011719.027343.023437.042969.035156.007812.011719.019531.015625.027343.023437.441407.355469.894531.6875 1.363281 1 .027344.019532.058594.039063.085938.058594.441406.292969.894531.570313 1.355469.824219.03125.019531.0625.039063.097656.054687.445313.246094.898437.46875 1.363281.679688.113282.050781.230469.097656.34375.148438.375.160156.753906.3125 1.136719.449218.101563.035156.203125.078125.300781.113282.429688.144531.863282.269531 1.300782.386718.171874.046875.339843.085938.511718.128906.355469.085938.714844.160157 1.078125.226563.140625.023437.28125.050781.421875.074219.421875.066406.847656.117187 1.269532.160156.152343.011719.300781.023438.453124.035156.457032.035156.914063.054688 1.371094.054688.015625 0 .035156.003906.050782.003906h.011718.011719c.015625 0 .03125-.003906.046875-.003906.460938 0 .914062-.023438 1.371094-.054688.152344-.011718.304687-.023437.453125-.035156.425781-.042969.84375-.089844 1.265625-.160156.144531-.019532.289062-.050782.4375-.074219.355468-.066406.710937-.140625 1.066406-.226563.171875-.039062.34375-.082031.515625-.128906.433594-.117187.867187-.242187 1.292969-.386718.105468-.035157.210937-.078126.316406-.117188.375-.132812.75-.28125 1.117188-.441406.121093-.050782.242187-.101563.359374-.15625.457032-.207032.910157-.429688 1.351563-.671875.039063-.019531.078125-.042969.117187-.066407.453126-.25.894532-.523437 1.332032-.8125.035156-.019531.070312-.042968.101562-.066406.464844-.308594.914063-.640625 1.355469-.996094.007813-.007812.019531-.011718.03125-.023437.015625-.011719.027344-.023437.042969-.039063.503906-.410156.996094-.84375 1.46875-1.308593.023437-.019531.042968-.046875.066406-.070313.386719-.386718.761719-.796875 1.121094-1.222656.089844-.105469.183594-.210938.273437-.320312.019531-.027344.042969-.050782.066407-.078126 19.230468-23.894531 48.820312-49.855468 80.148437-77.335937l.460937-.40625c8.300782-7.28125 9.128907-19.917969 1.84375-28.222656-7.289062-8.300781-19.925781-9.128907-28.230468-1.84375zm0 0"/>
    </symbol>

    <symbol id="family" role="img" aria-labelledby="family_title" viewBox="0 0 512 512">
        <title id="family_title"></title>
        <path d="m380 120c33.084 0 60-26.916 60-60s-26.916-60-60-60-60 26.916-60 60 26.916 60 60 60zm0-80c11.028 0 20 8.972 20 20s-8.972 20-20 20-20-8.972-20-20 8.972-20 20-20zm-320 159v109c0 11.028 8.972 20 20 20 11.046 0 20 8.954 20 20v144c0 11.046-8.954 20-20 20s-20-8.954-20-20v-127.427c-23.282-8.255-40-30.498-40-56.573v-109c0-33.084 26.916-60 60-60h57c11.046 0 20 8.954 20 20s-8.954 20-20 20h-57c-11.028 0-20 8.972-20 20zm120 149v144c0 11.046-8.954 20-20 20s-20-8.954-20-20v-144c0-11.046 8.954-20 20-20s20 8.954 20 20zm-60-228c33.084 0 60-26.916 60-60s-26.916-60-60-60-60 26.916-60 60 26.916 60 60 60zm0-80c11.028 0 20 8.972 20 20s-8.972 20-20 20-20-8.972-20-20 8.972-20 20-20zm240 359v93c0 11.046-8.954 20-20 20s-20-8.954-20-20v-73h-30c-11.046 0-20-8.954-20-20s8.954-20 20-20h50c11.046 0 20 8.954 20 20zm131.999.146c-.08 10.989-9.011 19.854-20 19.854h-31v73c0 11.046-8.954 20-20 20s-20-8.954-20-20v-93c0-11.046 8.954-20 20-20h29.915c-1.252-13.646-3.949-32.768-9.751-52.306-6.895-23.219-16.736-41.71-29.25-54.962-4.952-5.243-6.697-12.746-4.567-19.636l15.545-50.305c1.593-5.233.648-10.919-2.617-15.522-1.802-2.541-5.838-6.818-12.762-7.233h-35.512c-11.046 0-20-8.954-20-20s8.954-20 20-20h36c.274 0 .549.006.824.017 17.675.729 33.74 9.502 44.076 24.073 10.485 14.78 13.486 33.149 8.233 50.397l-12.307 39.827c13.086 16.6 23.385 37.383 30.683 61.958 12.642 42.571 12.502 82.173 12.49 83.838zm-196.497-82.547c23.835-17.666 53.498-39.651 53.498-75.038 0-16.869-5.965-32.162-16.797-43.062-10.574-10.64-25.029-16.499-40.703-16.499-16.159 0-28.482 5.224-37.5 12.813-9.018-7.589-21.341-12.813-37.5-12.813-15.675 0-30.13 5.859-40.703 16.499-10.832 10.9-16.797 26.193-16.797 43.062 0 35.387 29.663 57.372 53.498 75.038 10.487 7.772 20.392 15.114 25.961 21.989 3.796 4.688 9.507 7.412 15.541 7.412 6.033 0 11.744-2.724 15.541-7.412 5.569-6.876 15.474-14.217 25.961-21.989zm-41.502-18.503c-5.664-4.724-11.725-9.216-17.685-13.633-18.345-13.597-37.315-27.657-37.315-42.902 0-12.249 6.542-19.561 17.5-19.561 8.958 0 12.345 3.284 14.294 6.146 2.451 3.598 3.153 7.687 3.276 8.529.547 10.477 9.092 18.424 19.605 18.605 10.573.202 19.436-8.238 20.263-18.776.003-.035.622-4.051 2.804-7.638 1.945-3.197 5.38-6.866 14.757-6.866 10.958 0 17.5 7.313 17.5 19.561 0 15.245-18.97 29.305-37.315 42.902-5.96 4.417-12.021 8.91-17.684 13.633z"/>
    </symbol>

    <symbol id="check" role="img" aria-labelledby="check_title" viewBox="0 0 448 448">
        <title id="check_title"></title>
        <polygon points="341.333,192.96 341.333,381.12 42.667,381.12 42.667,82.453 308.693,82.453 355.627,39.787 0,39.787 0,423.787 
            384,423.787 384,153.707         "/>
        <polygon points="417.493,24.213 186.027,234.56 113.493,162.24 85.333,190.4 187.947,293.013 448,54.08        "/>
    </symbol>

    <symbol id="footer-facebook" role="img" aria-labelledby="footer-facebook_title" viewBox="0 0 512 512">
        <title id="footer-facebook_title">Facebook</title>
        <path d="M314.829,135.492h70.595c11.423,0,20.682-9.26,20.682-20.682V20.682C406.107,9.26,396.848,0,385.425,0h-70.595
            c-76.282,0-138.341,62.06-138.341,138.341v49.913h-49.913c-11.422,0-20.682,9.26-20.682,20.682v94.127
            c0,11.423,9.26,20.682,20.682,20.682h49.913v167.572c0,11.423,9.26,20.682,20.682,20.682h94.127
            c11.423,0,20.682-9.259,20.682-20.682V323.746h49.913c9.49,0,17.763-6.458,20.065-15.666l23.532-94.127
            c1.544-6.179,0.156-12.725-3.763-17.744c-3.919-5.02-9.932-7.954-16.301-7.954H311.98v-49.913
            C311.98,136.77,313.258,135.492,314.829,135.492z M291.298,229.619h67.637l-13.191,52.763h-54.447
            c-11.423,0-20.682,9.259-20.682,20.682v167.572h-52.763V303.064c0-11.423-9.26-20.682-20.682-20.682h-49.913v-52.763h49.913
            c11.422,0,20.682-9.26,20.682-20.682v-70.595c0-53.473,43.503-96.977,96.977-96.977h49.913v52.763h-49.913
            c-24.38,0-44.214,19.835-44.214,44.214v70.595C270.615,220.359,279.875,229.619,291.298,229.619z"/>
    </symbol>

    <symbol id="footer-twitter" role="img" aria-labelledby="footer-twitter_title" viewBox="0 0 512 512">
        <title id="footer-twitter_title">Twitter</title>
        <path d="M502.954,47.189c-7.126-4.852-16.515-4.774-23.559,0.196c-15.351,10.828-31.974,19.528-49.557,25.948
            c-19.253-17.414-43.615-27.826-69.915-29.656c-31.056-2.16-61.081,7.9-84.561,28.326c-25.59,22.259-40.174,54.444-40.046,88.349
            c-85.248-7.609-139.14-61.55-177.09-108.986c-4.598-5.746-11.901-8.619-19.182-7.538c-7.279,1.078-13.438,5.944-16.171,12.777
            c-0.948,2.369-23.141,58.799-17.453,127.057c4.761,57.133,30.23,131.964,120.039,181.717
            c-32.436,14.756-68.282,21.939-103.953,20.519c-9.576-0.378-18.15,5.859-20.736,15.08c-2.587,9.221,1.497,19.013,9.869,23.665
            c51.359,28.532,108.03,43.736,163.889,43.965c0.432,0.002,0.861,0.003,1.294,0.003c54.105-0.001,106.379-13.938,151.246-40.336
            c42.898-25.241,78.416-61.759,102.715-105.603c26.162-47.206,39.427-101.75,39.427-162.186c-0.011-3.544-0.186-7.098-0.52-10.638
            c20.7-22.885,35.388-50.567,42.719-80.667C513.451,60.803,510.081,52.04,502.954,47.189z M432.297,128.07
            c-4.916,4.847-7.088,11.827-5.793,18.607c0.877,4.588,1.329,9.278,1.344,13.874c0,101.956-44.378,186.544-121.756,232.072
            c-60.586,35.649-133.037,43.933-203.609,25.057c0.729-0.201,1.459-0.407,2.185-0.615c27.596-7.885,53.63-20.055,77.377-36.174
            c6.329-4.296,9.77-11.734,8.946-19.34c-0.825-7.605-5.778-14.134-12.881-16.975C97.757,312.434,53.563,257.594,46.757,181.575
            c-2.536-28.334,0.707-54.721,4.766-74.501c16.638,17.909,37.384,37.227,62.129,53.407c42.771,27.966,90.663,42.146,142.346,42.146
            c11.423,0,20.682-9.26,20.682-20.682v-21.393c0-0.045,0-0.091,0-0.137c-0.146-21.948,9.268-42.797,25.829-57.202
            c15.146-13.175,34.51-19.665,54.543-18.27c20.026,1.393,38.311,10.502,51.487,25.648c5.339,6.138,13.783,8.577,21.567,6.229
            c5.725-1.724,11.375-3.645,16.941-5.757C442.599,117.081,437.672,122.769,432.297,128.07z"/>
    </symbol>    

    <symbol id="footer-linkedin" role="img" aria-labelledby="footer-linkedin_title" viewBox="0 0 512 512">
        <title id="footer-linkedin_title">Linkedin</title>
        <path d="M2.5,510V153.7h137.3V510H2.5z M102.5,472.7V191H39.8v281.7H102.5z"/>
        <path d="M375.4,510l0.1-158.1c0.5-23.6-8.8-42.9-24.9-51.7c-5.4-3-11.2-4.5-17.3-4.5c-5.2,0-10.4,1.1-15.5,3.3l-1.1,211H176.1
            V153.7h140.6V166c16.6-6,33.6-9.1,50.6-9.1c24.7,0,48.3,6.4,70.2,18.9c44,25.2,72.5,71.8,72.5,118.8V510H375.4z M472.7,472.7V294.6
            c0-33.8-21.1-67.7-53.7-86.4c-15.9-9.1-33.8-13.9-51.7-14h-0.3c-20.1,0-40.1,5.8-59.6,17.3L279.4,228V191h-66.1v281.7h66.2l1-194.7
            l8.2-5.5c13.7-9.2,29.1-14.1,44.5-14.1c12.4,0,24.2,3,35.1,9c13.7,7.5,25,19.2,32.8,33.8c7.9,14.9,11.9,32.6,11.5,51.1l0,120.3
            H472.7z"/>
        <path d="M70.9,139.9C32.9,139.9,2,109,2,71c0-38,30.9-69,68.9-69c38,0,68.9,30.9,68.9,69C139.8,109,108.9,139.9,70.9,139.9z
             M70.9,39.3c-17.4,0-31.6,14.2-31.6,31.7c0,17.5,14.2,31.7,31.6,31.7c17.4,0,31.6-14.2,31.6-31.7C102.5,53.5,88.3,39.3,70.9,39.3z"
            />
    </symbol>

    <symbol id="footer-instagram" role="img" aria-labelledby="footer-instagram_title" viewBox="0 0 512 512">
        <title id="footer-instagram_title">Instagram</title>
        <path d="M373.659,0H138.341C62.06,0,0,62.06,0,138.341v235.318C0,449.94,62.06,512,138.341,512h235.318
            C449.94,512,512,449.94,512,373.659V138.341C512,62.06,449.94,0,373.659,0z M470.636,373.659
            c0,53.473-43.503,96.977-96.977,96.977H138.341c-53.473,0-96.977-43.503-96.977-96.977V138.341
            c0-53.473,43.503-96.977,96.977-96.977h235.318c53.473,0,96.977,43.503,96.977,96.977V373.659z"/>
        <path d="M370.586,238.141c-3.64-24.547-14.839-46.795-32.386-64.342c-17.547-17.546-39.795-28.746-64.341-32.385
            c-11.176-1.657-22.507-1.657-33.682,0c-30.336,4.499-57.103,20.541-75.372,45.172c-18.269,24.631-25.854,54.903-21.355,85.237
            c4.499,30.335,20.541,57.102,45.172,75.372c19.996,14.831,43.706,22.619,68.153,22.619c5.667,0,11.375-0.418,17.083-1.265
            c30.336-4.499,57.103-20.541,75.372-45.172C367.5,298.747,375.085,268.476,370.586,238.141z M267.791,327.632
            c-19.405,2.882-38.77-1.973-54.527-13.66c-15.757-11.687-26.019-28.811-28.896-48.216c-2.878-19.405,1.973-38.77,13.66-54.527
            c11.688-15.757,28.811-26.019,48.217-28.897c3.574-0.53,7.173-0.795,10.772-0.795s7.199,0.265,10.773,0.796
            c32.231,4.779,57.098,29.645,61.878,61.877C335.608,284.268,307.851,321.692,267.791,327.632z"/>
        <path d="M400.049,111.951c-3.852-3.851-9.183-6.058-14.625-6.058c-5.442,0-10.773,2.206-14.625,6.058
            c-3.851,3.852-6.058,9.174-6.058,14.625c0,5.451,2.207,10.773,6.058,14.625c3.852,3.851,9.183,6.058,14.625,6.058
            c5.442,0,10.773-2.206,14.625-6.058c3.851-3.852,6.058-9.183,6.058-14.625C406.107,121.133,403.9,115.802,400.049,111.951z"/>
    </symbol>

    <symbol id="footer-phone" role="img" aria-labelledby="footer-phone_title" viewBox="0 0 512 512">
        <title id="footer-phone_title"></title>
        <path d="M421.216,195.504c-5.092-26.101-17.723-49.836-36.526-68.64c-18.804-18.803-42.54-31.434-68.641-36.527
			c-11.21-2.189-22.073,5.128-24.261,16.339c-2.187,11.212,5.128,22.073,16.339,24.26c36.847,7.188,65.3,35.642,72.489,72.489
			c1.927,9.874,10.581,16.726,20.278,16.726c1.313,0,2.645-0.125,3.984-0.387C416.088,217.577,423.403,206.715,421.216,195.504z"/>
		<path d="M511.422,196.929c-5.629-50.096-28.373-97.304-64.042-132.927C411.712,28.378,364.475,5.694,314.371,0.128
			c-11.355-1.261-21.578,6.92-22.839,18.272c-1.261,11.353,6.919,21.578,18.272,22.84c84.961,9.438,150.966,75.36,160.512,160.31
			c1.188,10.566,10.139,18.374,20.527,18.374c0.771,0,1.552-0.043,2.336-0.131C504.53,218.516,512.698,208.281,511.422,196.929z"/>
		<path d="M432.59,312.566c-0.062-0.008-0.124-0.017-0.186-0.025c-20.013-2.639-39.751-7.557-58.619-14.596
			c-23.91-8.99-51.103-3.191-69.27,14.772c-0.028,0.028-0.056,0.055-0.083,0.083l-17.148,17.148
			c-42.633-26.924-78.756-63.047-105.679-105.679l17.149-17.149c0.027-0.028,0.054-0.055,0.082-0.083
			c17.964-18.166,23.762-45.356,14.79-69.223c-7.057-18.914-11.974-38.653-14.614-58.666c-0.007-0.063-0.017-0.127-0.026-0.19
			c-4.591-32.478-32.782-56.734-65.548-56.467H66.053c-1.943,0.002-3.912,0.091-5.853,0.267
			C24.143,26.016-2.541,58.001,0.718,94.058c0.01,0.108,0.02,0.215,0.032,0.323c7.684,72.354,32.649,142.88,72.197,203.955
			c35.892,56.461,84.701,105.269,141.162,141.164c60.792,39.406,130.99,64.369,203.013,72.196c0.127,0.015,0.254,0.027,0.38,0.038
			c1.961,0.176,3.949,0.266,5.921,0.266c0.083,0,0.165,0,0.247,0.001c36.204-0.148,65.538-29.722,65.391-65.841v-67.233
			C489.746,345.714,465.515,317.211,432.59,312.566z M447.698,378.695v67.548c0.055,13.396-10.8,24.338-24.19,24.393
			c-0.715-0.004-1.425-0.027-2.135-0.086c-65.578-7.161-129.488-29.914-184.837-65.808c-0.053-0.035-0.107-0.069-0.161-0.103
			c-51.429-32.68-95.885-77.137-128.565-128.565c-0.032-0.051-0.064-0.101-0.097-0.153C71.683,220.306,48.928,156.086,41.902,90.193
			C40.779,76.91,50.63,65.155,63.923,63.954c0.717-0.064,1.443-0.098,2.145-0.098h67.463c0.146-0.001,0.294-0.003,0.443-0.002
			c12.021,0,22.322,8.905,24.044,20.819c3.05,23.063,8.721,45.806,16.871,67.649c3.319,8.832,1.189,18.869-5.427,25.591
			l-28.517,28.517c-6.583,6.582-7.956,16.753-3.354,24.847c33.837,59.508,83.177,108.847,142.685,142.685
			c8.094,4.6,18.264,3.23,24.848-3.355l28.512-28.512c6.72-6.621,16.765-8.752,25.642-5.415
			c21.799,8.134,44.547,13.805,67.61,16.855c12.18,1.757,21.122,12.339,20.816,24.647
			C447.7,378.353,447.698,378.524,447.698,378.695z"/>
    </symbol>    

	<symbol id="footer-mail" role="img" aria-labelledby="footer-mail_title" viewBox="0 0 512 512">
        <title id="footer-mail_title"></title>
        <path d="M256,141.176c-63.306,0-114.809,51.503-114.809,114.809S192.694,370.795,256,370.795s114.809-51.503,114.809-114.809
			S319.306,141.176,256,141.176z M256,329.43c-40.498,0-73.445-32.947-73.445-73.445c0-40.498,32.947-73.445,73.445-73.445
			c40.499,0,73.445,32.947,73.445,73.445C329.445,296.483,296.499,329.43,256,329.43z"/>
		<path d="M437.008,74.97C388.656,26.623,324.375,0,256,0c-0.005,0-0.013,0-0.017,0C187.603,0.004,123.318,26.637,74.97,74.992
			C26.62,123.347-0.005,187.637,0,256.017c0.004,68.379,26.637,132.666,74.992,181.014C123.344,485.377,187.625,512.001,256,512
			c0.004,0,0.012,0,0.017,0c55.945-0.004,111.216-18.738,155.631-52.752c9.07-6.945,10.792-19.927,3.846-28.995
			c-6.945-9.069-19.926-10.794-28.995-3.846c-37.24,28.518-83.58,44.224-130.486,44.228c-0.006,0-0.006,0-0.014,0
			c-57.324,0-111.224-22.324-151.761-62.856c-40.542-40.536-62.871-94.435-62.875-151.766
			C41.357,137.663,137.636,41.372,255.986,41.364c0.007,0,0.006,0,0.014,0c118.34,0,214.628,96.279,214.636,214.622v23.532
			c0,27.523-22.39,49.913-49.913,49.913c-27.523,0-49.913-22.391-49.913-49.913v-23.532c0-11.422-9.259-20.682-20.682-20.682
			s-20.682,9.26-20.682,20.682v23.532c0,50.33,40.947,91.278,91.278,91.278S512,329.848,512,279.518v-23.534
			C511.995,187.604,485.362,123.318,437.008,74.97z"/>
    </symbol>

    <symbol id="footer-location" role="img" aria-labelledby="footer-location_title" viewBox="0 0 512 512">
        <title id="footer-location_title"></title>
        <path d="M406.766,62.449C366.495,22.178,312.951,0,256,0S145.505,22.178,105.234,62.449
			c-40.272,40.271-62.449,93.814-62.449,150.766c0,37.656,10.972,76.863,32.609,116.532c16.825,30.846,40.15,62.102,69.326,92.898
			c49.17,51.903,97.763,84.519,99.808,85.881C248.001,510.842,252,512,256,512c4,0,7.999-1.158,11.473-3.474
			c2.045-1.363,50.638-33.978,99.808-85.881c29.176-30.795,52.501-62.051,69.326-92.898c21.637-39.669,32.609-78.876,32.609-116.532
			C469.215,156.263,447.038,102.72,406.766,62.449z M256.001,465.903C215.826,436.156,84.15,329.739,84.15,213.215
			c0-94.759,77.091-171.851,171.85-171.851s171.85,77.092,171.851,171.851C427.851,329.748,296.159,436.168,256.001,465.903z"/>
		<path d="M256,128.355c-46.791,0-84.86,38.068-84.86,84.86c0,46.791,38.068,84.86,84.86,84.86c46.792,0,84.861-38.068,84.86-84.86
			C340.86,166.423,302.791,128.355,256,128.355z M256,256.71c-23.983,0-43.495-19.512-43.495-43.495
			c0-23.983,19.512-43.495,43.495-43.495c23.984,0,43.495,19.512,43.495,43.495C299.495,237.198,279.984,256.71,256,256.71z"/>
		</symbol>

	<symbol id="footer-time" role="img" aria-labelledby="footer-time_title" viewBox="0 0 512 512">
        <title id="footer-time_title"></title>
        <path d="M437.019,74.981C388.667,26.629,324.38,0,256,0S123.333,26.63,74.981,74.981S0,187.62,0,256
			s26.629,132.667,74.981,181.019C123.332,485.371,187.62,512,256,512s132.667-26.629,181.019-74.981
			C485.371,388.667,512,324.38,512,256S485.371,123.332,437.019,74.981z M256,470.636C137.65,470.636,41.364,374.35,41.364,256
			S137.65,41.364,256,41.364S470.636,137.65,470.636,256S374.35,470.636,256,470.636z"/>
		<path d="M341.221,311.97l-64.538-64.537V114.809c0-11.422-9.259-20.682-20.682-20.682c-11.422,0-20.682,9.26-20.682,20.682V256
			c0,5.486,2.179,10.746,6.058,14.625l70.594,70.595c4.038,4.039,9.332,6.058,14.625,6.058c5.293,0,10.586-2.019,14.626-6.058
			C349.297,333.142,349.297,320.047,341.221,311.97z"/>
	</symbol>

</svg>