<svg xmlns="http://www.w3.org/2000/svg" xmlns:xlink="http://www.w3.org/1999/xlink">

    <symbol id="home-play" role="img" aria-labelledby="home-play_title" viewBox="0 0 512 512">
        <title id="home-play_title"></title>
        <path d="M47.127,0v512l417.745-254.837L47.127,0z M87.172,71.676l301.06,185.333L87.172,440.664V71.676z"/>
    </symbol>

	<symbol id="services01" role="img" aria-labelledby="services01_title" viewBox="0 0 512 512">
        <title id="services01_title"></title>
        <path d="M422.877,89.123C378.303,44.548,319.038,20,256,20S133.697,44.548,89.123,89.123C44.548,133.697,20,192.962,20,256
            s24.548,122.303,69.123,166.877C133.697,467.452,192.962,492,256,492s122.303-24.548,166.877-69.123
            C467.452,378.303,492,319.038,492,256S467.452,133.697,422.877,89.123z M256,472c-119.103,0-216-96.897-216-216S136.897,40,256,40
            s216,96.897,216,216S375.103,472,256,472z"/>
        <path d="M448.191,217.365c-12.346-61.741-54.076-114.113-111.628-140.093c-5.035-2.273-10.957-0.034-13.229,5
            c-2.272,5.034-0.034,10.957,5,13.229c51.686,23.332,89.161,70.355,100.246,125.786c0.951,4.754,5.126,8.041,9.795,8.041
            c0.649,0,1.31-0.064,1.971-0.196C445.762,228.049,449.274,222.781,448.191,217.365z"/>
        <path d="M302.395,65.525l-0.359-0.087c-5.371-1.292-10.77,2.016-12.061,7.386c-1.29,5.371,2.016,10.77,7.386,12.061l0.25,0.06
            c0.803,0.198,1.608,0.293,2.4,0.293c4.493,0,8.578-3.051,9.701-7.611C311.034,72.264,307.758,66.846,302.395,65.525z"/>
        <path d="M224.67,72.354c-1.214-5.389-6.57-8.77-11.954-7.556c-35.595,8.025-68.217,25.884-94.339,51.646
            c-26.099,25.74-44.404,58.077-52.937,93.517c-1.293,5.369,2.011,10.77,7.381,12.063c0.786,0.189,1.574,0.28,2.349,0.28
            c4.515,0,8.611-3.079,9.714-7.661c15.547-64.57,67.45-115.729,132.23-130.334C222.502,83.094,225.885,77.741,224.67,72.354z"/>
        <path d="M180.308,414.94c-49.87-23.795-86.09-70.235-96.887-124.227c-1.083-5.415-6.352-8.93-11.767-7.845
            c-5.416,1.083-8.928,6.351-7.845,11.767c12.026,60.138,52.357,111.86,107.886,138.355c1.389,0.664,2.855,0.977,4.299,0.977
            c3.734,0,7.317-2.101,9.033-5.695C187.406,423.287,185.293,417.318,180.308,414.94z"/>
        <path d="M214.588,427.103c-5.364-1.326-10.782,1.952-12.103,7.314c-1.322,5.363,1.953,10.782,7.315,12.104l0.138,0.034
            c0.793,0.192,1.585,0.285,2.365,0.285c4.499,0,8.564-3.074,9.677-7.647C223.285,433.826,219.954,428.408,214.588,427.103z"/>
        <path d="M439.178,289.977c-5.368-1.295-10.77,2.011-12.063,7.381c-15.547,64.569-67.45,115.729-132.23,130.334
            c-5.388,1.215-8.771,6.566-7.556,11.954c1.048,4.648,5.174,7.803,9.746,7.803c0.729,0,1.468-0.08,2.208-0.247
            c35.595-8.025,68.217-25.883,94.339-51.646c26.099-25.739,44.404-58.077,52.937-93.516
            C447.852,296.67,444.548,291.269,439.178,289.977z"/>
        <path d="M256,0c-5.523,0-10,4.477-10,10v75c0,5.523,4.477,10,10,10s10-4.477,10-10V10C266,4.477,261.523,0,256,0z"/>
        <path d="M256,417c-5.523,0-10,4.478-10,10v75c0,5.522,4.477,10,10,10s10-4.478,10-10v-75C266,421.478,261.523,417,256,417z"/>
        <path d="M502,246h-75c-5.523,0-10,4.477-10,10c0,5.522,4.477,10,10,10h75c5.523,0,10-4.478,10-10C512,250.477,507.523,246,502,246
            z"/>
        <path d="M85,246H10c-5.523,0-10,4.477-10,10c0,5.522,4.477,10,10,10h75c5.523,0,10-4.478,10-10C95,250.477,90.523,246,85,246z"/>
        <path d="M300.281,245.583c-0.102-0.029-0.206-0.05-0.309-0.075c9.359-10.451,15.064-24.239,15.064-39.339V124.5
            c0-5.523-4.477-10-10-10h-60.742c-26.099,0-47.332,21.233-47.332,47.332v44.337c0,15.1,5.705,28.888,15.064,39.339
            c-0.103,0.025-0.207,0.047-0.309,0.075c-43.211,3.983-77.166,40.42-77.166,84.653V365.5c0,5.522,4.477,10,10,10h222.896
            c5.523,0,10-4.478,10-10v-35.264C377.448,286.003,343.493,249.567,300.281,245.583z M256.001,245.207
            c-21.525,0-39.037-17.512-39.037-39.037v-13.217h59.764c6.628,0,12.866-1.693,18.31-4.667v17.884
            C295.038,227.695,277.526,245.207,256.001,245.207z M273.432,265.206L256,282.638l-17.432-17.432H273.432z M216.962,161.832h0.001
            c0-15.071,12.261-27.332,27.332-27.332h50.742v20.144c0,10.096-8.214,18.31-18.31,18.31h-59.765V161.832z M357.448,355.5H154.552
            v-25.264c0-32.906,24.573-60.164,56.33-64.431l38.047,38.047c1.953,1.952,4.512,2.929,7.071,2.929s5.119-0.977,7.071-2.929
            l38.047-38.047c31.757,4.267,56.33,31.525,56.33,64.431V355.5z"/>
    </symbol>

    <symbol id="services02" role="img" aria-labelledby="services02_title" viewBox="0 0 512 512">
        <title id="services02_title"></title>
        <path d="M196,146c-5.52,0-10,4.48-10,10s4.48,10,10,10s10-4.48,10-10S201.52,146,196,146z"/>
        <path d="M256,86c-93.738,0-170,76.262-170,170s76.262,170,170,170s170-76.262,170-170S349.738,86,256,86z M256,406
            c-82.71,0-150-67.29-150-150s67.29-150,150-150s150,67.29,150,150S338.71,406,256,406z"/>
        <path d="M256,126c-7.751,0-15.55,0.695-23.18,2.068c-5.436,0.978-9.05,6.176-8.072,11.612c0.978,5.436,6.176,9.055,11.612,8.071
            C242.825,146.59,249.433,146,256,146c60.654,0,110,49.346,110,110s-49.346,110-110,110s-110-49.346-110-110
            c0-23.452,7.308-45.841,21.132-64.748c3.26-4.458,2.289-10.715-2.17-13.975c-4.457-3.26-10.714-2.287-13.975,2.17
            C134.641,201.804,126,228.275,126,256c0,71.683,58.318,130,130,130c71.683,0,130-58.317,130-130S327.683,126,256,126z"/>
        <path d="M276,246h-10v-40h10c5.514,0,10,4.486,10,10c0,5.522,4.478,10,10,10c5.522,0,10-4.478,10-10c0-16.542-13.458-30-30-30h-10
            v-10c0-5.522-4.478-10-10-10c-5.522,0-10,4.478-10,10v10h-10c-16.542,0-30,13.458-30,30v20c0,16.542,13.458,30,30,30h10v40h-10
            c-5.514,0-10-4.486-10-10c0-5.522-4.477-10-10-10s-10,4.478-10,10c0,16.542,13.458,30,30,30h10v10c0,5.522,4.478,10,10,10
            c5.522,0,10-4.478,10-10v-10h10c16.542,0,30-13.458,30-30v-20C306,259.458,292.542,246,276,246z M246,246h-10
            c-5.514,0-10-4.486-10-10v-20c0-5.514,4.486-10,10-10h10V246z M286,296c0,5.514-4.486,10-10,10h-10v-40h10c5.514,0,10,4.486,10,10
            V296z"/>
        <path d="M504.145,216.232l-43.076-9.457c-5.104-21.685-13.593-42.233-25.303-61.241l19.729-32.879
            c2.36-3.935,1.74-8.972-1.504-12.217l-42.43-42.43c-3.245-3.245-8.283-3.864-12.217-1.504l-32.879,19.729
            c-19.008-11.71-39.557-20.199-61.241-25.303l-9.457-43.076C294.761,3.269,290.696,0,286,0h-60c-4.697,0-8.76,3.269-9.768,7.855
            l-9.457,43.076c-21.685,5.104-42.233,13.593-61.241,25.303l-32.879-19.729c-3.936-2.36-8.972-1.741-12.216,1.504l-42.43,42.43
            c-3.245,3.245-3.865,8.282-1.503,12.217l19.729,32.879c-11.71,19.008-20.2,39.557-25.303,61.241l-43.076,9.457
            C3.269,217.239,0,221.304,0,226v60c0,4.695,3.267,8.759,7.853,9.767l43.51,9.566c5.223,21.515,13.708,41.792,25.288,60.437
            l-20.146,33.576c-2.361,3.935-1.741,8.971,1.504,12.216l42.43,42.43c3.244,3.243,8.28,3.864,12.215,1.504l34.11-20.465
            c18.602,11.29,38.607,19.51,59.634,24.506l9.836,44.616c1.011,4.584,5.072,7.848,9.766,7.848h60c4.693,0,8.755-3.264,9.766-7.848
            l9.836-44.616c21.027-4.996,41.032-13.216,59.634-24.506l34.11,20.465c3.934,2.36,8.972,1.742,12.216-1.504l42.43-42.43
            c3.244-3.245,3.864-8.281,1.504-12.216L435.35,365.77c11.58-18.645,20.064-38.922,25.288-60.437l43.51-9.566
            c4.586-1.008,7.853-5.071,7.853-9.767v-60C512,221.304,508.731,217.239,504.145,216.232z M492,277.96l-41.857,9.203
            c-3.839,0.844-6.827,3.858-7.638,7.704c-4.95,23.489-14.12,45.422-27.254,65.188c-2.136,3.214-2.231,7.37-0.246,10.679
            l19.323,32.206l-31.389,31.388l-32.675-19.604c-3.271-1.964-7.378-1.895-10.583,0.184c-19.831,12.852-41.524,21.749-64.477,26.445
            c-3.869,0.792-6.91,3.787-7.761,7.644L277.965,492h-43.929l-9.48-43.003c-0.851-3.856-3.892-6.852-7.761-7.644
            c-22.952-4.696-44.645-13.594-64.476-26.445c-3.204-2.076-7.31-2.146-10.583-0.184l-32.675,19.604L77.672,402.94l19.323-32.206
            c1.985-3.309,1.89-7.465-0.246-10.679c-13.134-19.767-22.304-41.699-27.254-65.188c-0.811-3.846-3.799-6.86-7.638-7.704L20,277.96
            v-43.917l41.475-9.105c3.868-0.85,6.87-3.901,7.656-7.782c4.781-23.603,13.937-45.797,27.212-65.967
            c2.113-3.211,2.199-7.348,0.222-10.644L77.672,109.06l31.387-31.388l31.485,18.894c3.297,1.977,7.434,1.892,10.643-0.222
            c20.17-13.275,42.365-22.431,65.968-27.213c3.881-0.786,6.933-3.789,7.782-7.656L234.042,20h43.915l9.105,41.475
            c0.85,3.867,3.901,6.87,7.782,7.656c23.603,4.782,45.797,13.938,65.967,27.213c3.212,2.111,7.348,2.198,10.644,0.222
            l31.485-18.894l31.388,31.388l-18.894,31.485c-1.977,3.296-1.891,7.433,0.222,10.644c13.275,20.17,22.431,42.364,27.213,65.967
            c0.786,3.881,3.789,6.933,7.656,7.782L492,234.043V277.96z"/>
    </symbol>

    <symbol id="services03" role="img" aria-labelledby="services03_title" viewBox="0 0 512 512">
        <title id="services03_title"></title>
        <path d="M482.882,190.828c-17.225-60.074-58.651-111.81-113.657-141.942c-4.844-2.65-10.921-0.877-13.575,3.966
            c-2.653,4.843-0.878,10.921,3.966,13.575c50.356,27.585,88.277,74.937,104.042,129.913c1.258,4.389,5.259,7.247,9.607,7.247
            c0.912,0,1.841-0.126,2.761-0.391C481.336,201.675,484.405,196.136,482.882,190.828z"/>
        <path d="M329.293,31.606l-0.446-0.146c-5.261-1.688-10.891,1.206-12.579,6.464c-1.688,5.258,1.205,10.889,6.463,12.579l0.36,0.116
            c1.03,0.336,2.075,0.496,3.103,0.496c4.211,0,8.129-2.682,9.505-6.902C337.412,38.962,334.543,33.317,329.293,31.606z"/>
        <path d="M45.765,172.301c-5.22-1.813-10.916,0.945-12.729,6.161c-1.938,5.575-3.686,11.289-5.192,16.983
            c-1.413,5.338,1.769,10.812,7.108,12.225c0.857,0.228,1.718,0.336,2.565,0.336c4.427,0,8.475-2.963,9.66-7.444
            c1.379-5.207,2.977-10.434,4.749-15.532C53.739,179.813,50.982,174.114,45.765,172.301z"/>
        <path d="M80.052,113.796c-4.439-3.282-10.702-2.343-13.984,2.102c-3.505,4.743-6.87,9.675-10.003,14.659
            c-2.94,4.675-1.533,10.848,3.143,13.788c1.653,1.04,3.494,1.535,5.313,1.535c3.324,0,6.576-1.656,8.476-4.679
            c2.868-4.563,5.949-9.077,9.157-13.421C85.436,123.339,84.495,117.077,80.052,113.796z"/>
        <path d="M191.408,39.131c-1.808-5.218-7.505-7.982-12.724-6.173c-5.569,1.931-11.133,4.098-16.536,6.442
            c-5.067,2.198-7.393,8.087-5.194,13.153c1.635,3.772,5.314,6.025,9.178,6.025c1.328,0,2.679-0.267,3.975-0.829
            c4.943-2.145,10.033-4.127,15.128-5.894C190.453,50.046,193.217,44.349,191.408,39.131z"/>
        <path d="M130.086,68.034c-3.277-4.446-9.537-5.395-13.983-2.116c-4.74,3.495-9.409,7.214-13.877,11.055
            c-4.188,3.6-4.665,9.914-1.064,14.102c1.977,2.299,4.774,3.48,7.587,3.48c2.308,0,4.627-0.795,6.514-2.417
            c4.091-3.517,8.366-6.922,12.707-10.121C132.415,78.74,133.363,72.48,130.086,68.034z"/>
        <path d="M30,226c-16.542,0-30,13.458-30,30s13.458,30,30,30s30-13.458,30-30S46.542,226,30,226z M30,266c-5.514,0-10-4.486-10-10
            c0-5.514,4.486-10,10-10s10,4.486,10,10C40,261.514,35.514,266,30,266z"/>
        <path d="M482,226c-16.542,0-30,13.458-30,30s13.458,30,30,30s30-13.458,30-30S498.542,226,482,226z M482,266
            c-5.514,0-10-4.486-10-10c0-5.514,4.486-10,10-10c5.514,0,10,4.486,10,10C492,261.514,487.514,266,482,266z"/>
        <path d="M256,0c-16.542,0-30,13.458-30,30s13.458,30,30,30s30-13.458,30-30S272.542,0,256,0z M256,40c-5.514,0-10-4.486-10-10
            s4.486-10,10-10c5.514,0,10,4.486,10,10S261.514,40,256,40z"/>
        <path d="M153.612,446.241c-50.991-27.504-89.36-75.1-105.271-130.582c-1.521-5.308-7.057-8.382-12.369-6.855
            c-5.309,1.522-8.378,7.06-6.855,12.369C46.501,381.798,88.418,433.8,144.118,463.845c1.51,0.813,3.136,1.2,4.738,1.2
            c3.558,0,7.003-1.903,8.811-5.255C160.288,454.93,158.474,448.863,153.612,446.241z"/>
        <path d="M189.307,461.51l-0.285-0.093c-5.261-1.69-10.892,1.199-12.583,6.456c-1.691,5.257,1.198,10.891,6.456,12.583l0.221,0.071
            c1.028,0.335,2.071,0.494,3.098,0.494c4.213,0,8.132-2.685,9.507-6.907C197.43,468.863,194.559,463.22,189.307,461.51z"/>
        <path d="M355.046,459.447c-2.199-5.066-8.087-7.396-13.152-5.196c-4.943,2.145-10.033,4.127-15.128,5.894
            c-5.218,1.809-7.982,7.506-6.173,12.724c1.433,4.134,5.306,6.728,9.448,6.728c1.086,0,2.191-0.179,3.275-0.555
            c5.569-1.931,11.133-4.098,16.536-6.442C354.919,470.402,357.245,464.513,355.046,459.447z"/>
        <path d="M452.792,367.655c-4.676-2.941-10.85-1.532-13.788,3.144c-2.868,4.563-5.949,9.077-9.157,13.421
            c-3.282,4.441-2.341,10.703,2.102,13.984c1.787,1.321,3.869,1.958,5.934,1.958c3.064,0,6.09-1.404,8.051-4.06
            c3.505-4.743,6.87-9.675,10.003-14.659C458.875,376.768,457.468,370.595,452.792,367.655z"/>
        <path d="M410.839,420.925c-3.6-4.187-9.914-4.662-14.102-1.063c-4.091,3.517-8.366,6.922-12.707,10.121
            c-4.445,3.277-5.393,9.537-2.116,13.983c1.961,2.66,4.988,4.067,8.058,4.067c2.061,0,4.14-0.635,5.926-1.951
            c4.74-3.495,9.409-7.214,13.877-11.055C413.963,431.427,414.44,425.113,410.839,420.925z"/>
        <path d="M477.048,304.33c-5.337-1.416-10.813,1.769-12.226,7.108c-1.379,5.207-2.977,10.434-4.749,15.532
            c-1.813,5.217,0.944,10.916,6.161,12.729c1.088,0.378,2.194,0.558,3.284,0.558c4.139,0,8.01-2.59,9.445-6.719
            c1.938-5.575,3.686-11.289,5.192-16.983C485.569,311.217,482.387,305.743,477.048,304.33z"/>
        <path d="M256,452c-16.542,0-30,13.458-30,30s13.458,30,30,30s30-13.458,30-30S272.542,452,256,452z M256,492
            c-5.514,0-10-4.486-10-10c0-5.514,4.486-10,10-10c5.514,0,10,4.486,10,10C266,487.514,261.514,492,256,492z"/>
        <path d="M304.576,246h-4.115c9.366-10.522,15.072-24.371,15.072-39.533v-21.039v-9.734v-2.19
            c0-32.827-26.706-59.533-59.533-59.533s-59.533,26.706-59.533,59.533v2.19v9.734v21.039c0,15.162,5.706,29.011,15.072,39.533
            h-4.115c-40.804,0-74,33.196-74,74v49.97c0,5.522,4.478,10,10,10h225.152c5.522,0,10-4.478,10-10V320
            C378.576,279.196,345.38,246,304.576,246z M256,133.97c19.829,0,36.296,14.676,39.109,33.735l-17.646-10.367
            c-4.21-2.475-9.593-1.544-12.73,2.199c-8.462,10.099-20.871,15.891-34.047,15.891h-14.219v-1.925h0
            C216.467,151.704,234.201,133.97,256,133.97z M216.467,195.428h14.219c16.225,0,31.649-6.057,43.447-16.851l21.4,12.573v15.316
            c0,21.8-17.734,39.534-39.533,39.534s-39.533-17.734-39.533-39.533V195.428z M358.576,359.97H153.424V320
            c0-29.775,24.225-54,54-54H246v42c0,5.522,4.478,10,10,10c5.522,0,10-4.478,10-10v-42h38.576c29.775,0,54,24.225,54,54V359.97z"/>
        <path d="M182.204,199.794l-13.266-13.267c-1.875-1.876-4.419-2.93-7.071-2.93s-5.195,1.054-7.071,2.929L92.661,248.66
            c-3.905,3.905-3.905,10.237,0,14.143c1.954,1.954,4.513,2.93,7.072,2.93c2.559,0,5.118-0.977,7.071-2.929l55.063-55.063
            l6.194,6.195c3.906,3.904,10.236,3.906,14.143,0C186.109,210.031,186.109,203.7,182.204,199.794z"/>
        <path d="M392.506,118.831h-28.085c-5.522,0-10,4.478-10,10c0,5.522,4.478,10,10,10h3.925l-36.861,36.861
            c-3.905,3.905-3.905,10.237,0,14.143c1.953,1.952,4.512,2.929,7.071,2.929s5.118-0.977,7.071-2.929l36.879-36.879v3.961
            c0,5.522,4.477,10,10,10c5.522,0,10-4.478,10-10v-28.086C402.506,123.309,398.028,118.831,392.506,118.831z"/>
    </symbol>

    <symbol id="services04" role="img" aria-labelledby="services04_title" viewBox="0 0 512 512">
        <title id="services04_title"></title>
        <path d="M450.372,222.019l-29.615-7.379l-15.484-37.364l15.716-26.145c2.366-3.936,1.748-8.977-1.499-12.224L378.05,97.469
            c-3.249-3.247-8.289-3.864-12.224-1.499l-26.145,15.716l-37.364-15.484l-7.379-29.615c-1.109-4.455-5.111-7.582-9.703-7.582
            h-58.59c-4.592,0-8.594,3.127-9.703,7.582l-7.379,29.615L172.2,111.686L146.055,95.97c-3.935-2.365-8.978-1.748-12.224,1.499
            l-41.438,41.438c-3.247,3.247-3.865,8.288-1.499,12.224l15.716,26.145L91.125,214.64l-29.615,7.379
            c-4.456,1.109-7.583,5.111-7.583,9.703v58.591c0,4.592,3.127,8.594,7.583,9.703l29.615,7.379l15.484,37.363l-15.716,26.145
            c-2.366,3.936-1.748,8.977,1.499,12.224l41.438,41.438c3.248,3.247,8.289,3.865,12.224,1.499l26.145-15.716l17.938,7.434
            c0.116,2.048,0.182,4.106,0.182,6.176v1.417v53.482c0,18.275,14.868,33.144,33.144,33.144h65.182
            c18.275,0,33.144-14.868,33.144-33.144v-53.482v-1.415c0-2.099,0.071-4.192,0.197-6.277l17.696-7.334l26.145,15.716
            c1.599,0.962,3.38,1.43,5.149,1.43c2.586,0,5.146-1.001,7.074-2.929l41.438-41.438c3.247-3.247,3.865-8.288,1.499-12.224
            l-15.716-26.145l15.484-37.363l29.615-7.379c4.456-1.109,7.583-5.111,7.583-9.703v-58.591
            C457.955,227.13,454.828,223.128,450.372,222.019z M288.644,492h-65.182c-7.247,0-13.144-5.896-13.144-13.144V472h33.121
            c5.522,0,10-4.478,10-10c0-5.522-4.478-10-10-10h-33.121v-16.626h91.469v43.482h0.001C301.789,486.103,295.893,492,288.644,492z
             M302.086,415.374h-92.05c-1.953-29.413-13.928-56.808-34.213-77.898c-20.829-21.654-31.85-50.154-31.031-80.25
            c1.611-59.238,51.162-107.773,110.457-108.192c0.271-0.002,0.54-0.003,0.81-0.003c29.589,0,57.411,11.46,78.42,32.321
            c21.204,21.055,32.881,49.104,32.881,78.983c0,28.536-10.786,55.671-30.372,76.405
            C316.313,358.628,304.099,386.275,302.086,415.374z M437.956,282.498h-0.001l-26.924,6.708c-3.077,0.767-5.607,2.946-6.821,5.875
            l-19.345,46.679c-1.214,2.93-0.967,6.262,0.668,8.98l14.288,23.769l-30.388,30.388l-23.769-14.288
            c-2.717-1.633-6.049-1.882-8.981-0.668l-10.591,4.389c4.769-16.107,13.405-31.121,25.434-43.855
            c23.107-24.464,35.833-56.476,35.833-90.14c0-35.248-13.775-68.338-38.788-93.175c-25.011-24.835-58.163-38.402-93.463-38.127
            c-34.081,0.241-66.348,13.593-90.856,37.595c-24.515,24.009-38.525,55.99-39.452,90.055
            c-0.966,35.494,12.036,69.111,36.609,94.658c11.768,12.235,20.194,27.023,24.812,43.168l-11.023-4.568
            c-2.931-1.215-6.263-0.966-8.98,0.668l-23.769,14.288l-30.388-30.388l14.288-23.769c1.635-2.719,1.882-6.051,0.668-8.98
            l-19.345-46.679c-1.214-2.929-3.744-5.108-6.821-5.875l-26.924-6.708v-42.962l26.924-6.708c3.077-0.767,5.607-2.946,6.821-5.875
            l19.345-46.68c1.214-2.93,0.967-6.262-0.668-8.98l-14.288-23.769l30.388-30.388l23.769,14.288c2.718,1.634,6.051,1.883,8.98,0.668
            l46.68-19.345c2.929-1.214,5.108-3.744,5.875-6.82l6.708-26.924h42.961l6.708,26.924c0.767,3.076,2.946,5.606,5.875,6.82
            l46.68,19.345c2.93,1.214,6.262,0.966,8.98-0.668l23.769-14.288l30.388,30.388l-14.288,23.769
            c-1.635,2.719-1.882,6.051-0.668,8.98l19.345,46.68c1.214,2.929,3.744,5.108,6.821,5.875l26.924,6.708V282.498z"/>
        <path d="M209.951,250.27c-1.86-1.871-4.44-2.93-7.07-2.93s-5.21,1.06-7.069,2.93c-1.86,1.86-2.931,4.431-2.931,7.07
            c0,2.63,1.07,5.21,2.931,7.07c1.859,1.859,4.439,2.93,7.069,2.93s5.21-1.07,7.07-2.93c1.86-1.87,2.93-4.44,2.93-7.07
            S211.812,252.13,209.951,250.27z"/>
        <path d="M263.01,250.27c-1.859-1.871-4.439-2.93-7.069-2.93s-5.21,1.06-7.07,2.93c-1.86,1.86-2.93,4.44-2.93,7.07
            s1.069,5.21,2.93,7.07c1.86,1.859,4.44,2.93,7.07,2.93s5.21-1.07,7.069-2.93c1.86-1.86,2.931-4.44,2.931-7.07
            S264.87,252.13,263.01,250.27z"/>
        <path d="M316.07,250.27c-1.86-1.871-4.44-2.93-7.07-2.93s-5.21,1.06-7.069,2.93c-1.86,1.851-2.931,4.431-2.931,7.07
            c0,2.63,1.07,5.21,2.931,7.07c1.859,1.859,4.439,2.93,7.069,2.93s5.21-1.07,7.07-2.93c1.86-1.87,2.93-4.44,2.93-7.07
            S317.932,252.13,316.07,250.27z"/>
        <path d="M255.94,0c-5.522,0-10,4.478-10,10v24.487c0,5.523,4.478,10,10,10c5.522,0,10-4.478,10-10V10
            C265.94,4.478,261.463,0,255.94,0z"/>
        <path d="M98.164,84.079L66.164,52.081c-3.906-3.904-10.236-3.904-14.143,0c-3.905,3.905-3.905,10.237,0,14.143l31.999,31.999
            c1.954,1.952,4.512,2.928,7.072,2.928s5.118-0.977,7.071-2.929C102.068,94.317,102.068,87.985,98.164,84.079z"/>
        <path d="M459.979,51.962c-3.906-3.904-10.236-3.904-14.143,0l-32,32c-3.905,3.905-3.905,10.237,0,14.143
            c1.953,1.952,4.512,2.929,7.071,2.929s5.118-0.977,7.071-2.929l32-32C463.885,62.199,463.885,55.867,459.979,51.962z"/>
        <path d="M284.51,454.93c-1.859-1.86-4.439-2.93-7.069-2.93s-5.21,1.069-7.07,2.93c-1.86,1.861-2.93,4.44-2.93,7.07
            s1.069,5.21,2.93,7.069c1.86,1.861,4.441,2.931,7.07,2.931c2.63,0,5.21-1.07,7.069-2.931c1.86-1.859,2.931-4.439,2.931-7.069
            S286.37,456.79,284.51,454.93z"/>
        <path d="M255.569,166c-0.025,0-0.052,0-0.077,0l-0.389,0.002c-5.522,0.042-9.966,4.553-9.925,10.075
            c0.042,5.497,4.51,9.925,9.998,9.925c0.025,0,0.052,0,0.077,0l0.389-0.002c5.522-0.042,9.966-4.553,9.925-10.075
            C265.526,170.428,261.057,166,255.569,166z"/>
        <path d="M340.938,219.69c-9.921-20.751-27.027-37.145-48.168-46.162c-5.082-2.167-10.955,0.194-13.122,5.274
            c-2.167,5.08,0.194,10.955,5.274,13.122c16.665,7.108,30.15,20.032,37.973,36.393c1.717,3.591,5.297,5.688,9.028,5.688
            c1.446,0,2.915-0.314,4.307-0.98C341.214,230.644,343.322,224.673,340.938,219.69z"/>
    </symbol>

    <symbol id="services05" role="img" aria-labelledby="services05_title" viewBox="0 0 512 512">
        <title id="services05_title"></title>
        <path d="m20.504 159.031c-4.885-1.478-10.091.953-12.094 5.64-.718 1.68-17.405 41.524-1.697 75.219 13.685 29.331 46.716 42.844 56.189 46.199.956 5.342 2.141 10.633 3.559 15.862-27.427-10.135-56.941-3.463-58.422-3.117-4.963 1.161-8.259 5.869-7.651 10.93.218 1.813 5.684 44.662 36.134 65.979 26.661 18.668 70.99 15.189 78.24 9.529 4.986 4.991 10.247 9.694 15.775 14.091-22.082 9.401-37.149 25.976-38.02 26.948-3.399 3.797-3.399 9.544 0 13.341 1.219 1.361 30.269 33.33 67.45 33.33s66.231-31.969 67.45-33.33c.151-.168.287-.345.424-.521l26.736 3.753c.92.13 1.859.13 2.779 0l26.763-3.757c.138.177.275.355.427.524 1.219 1.361 30.268 33.33 67.45 33.33s66.231-31.969 67.45-33.33c3.399-3.797 3.399-9.544 0-13.341-.871-.972-15.946-17.556-38.037-26.956 5.53-4.399 10.792-9.101 15.778-14.094 1.114.873 2.423 1.527 3.881 1.868 22.109 5.172 53.495 3.233 74.373-11.386 30.45-21.318 35.915-64.166 36.133-65.98.607-5.061-2.688-9.769-7.651-10.929-1.483-.347-31.017-7.023-58.455 3.13 1.418-5.23 2.605-10.521 3.562-15.865 9.434-3.338 42.52-16.849 56.219-46.212 15.707-33.692-.98-73.537-1.698-75.216-2.005-4.688-7.217-7.119-12.093-5.64-1.294.392-24.212 7.516-42.412 24.839-1.881-12.568-4.667-24.991-8.334-37.158 3.625-14.315 7.139-38.852-3.022-60.636-15.73-33.742-57.052-46.178-58.803-46.691-4.844-1.421-9.988.996-11.991 5.631-.719 1.665-17.429 41.159-1.712 74.874 15.718 33.69 56.966 46.513 58.714 47.042.538.163 1.081.274 1.622.344 3.191 13.629 5.21 27.532 6.028 41.534-9.477 22.975-4.81 48.106-.58 62.447-1.877 17.224-6.407 33.951-13.479 49.773-7.301 8.212-13.257 18.475-17.732 30.548-12.044 16.484-26.782 30.439-43.861 41.529-1.29-.077-2.588-.126-3.899-.126-25.11 0-46.523 14.585-58.214 24.543-2.777.485-.202.043-37.816 5.359-20.964-2.963-35.244-4.907-37.773-5.353-11.601-9.888-33.042-24.549-58.227-24.549-1.32 0-2.627.05-3.926.128-17.041-11.07-31.756-24.993-43.795-41.433-4.498-12.153-10.489-22.472-17.833-30.711-7.046-15.789-11.561-32.473-13.437-49.649 4.246-14.37 8.929-39.55-.591-62.571.816-13.963 2.836-27.844 6.028-41.471.542-.07 1.083-.181 1.622-.344 1.748-.529 42.996-13.352 58.715-47.045 15.716-33.712-.994-73.206-1.713-74.871-2.002-4.635-7.146-7.051-11.991-5.631-1.751.513-43.072 12.949-58.802 46.689-10.163 21.787-6.649 46.326-3.023 60.64-3.668 12.171-6.453 24.585-8.334 37.132-18.198-17.303-41.09-24.421-42.383-24.812zm469.29 157.861c-2.988 11.736-10.124 31.477-25.823 42.468-15.614 10.932-36.675 10.899-48.757 9.713 4.125-16.101 12.251-32.959 25.808-42.47 15.621-10.937 36.693-10.896 48.772-9.711zm-1.543-135.158c3.28 11.66 6.971 32.329-1.128 49.7-8.056 17.269-26.312 27.772-37.367 32.787-3.01-10.816-7.02-31.97.998-49.438.034-.073.066-.147.099-.221.006-.012.011-.023.017-.035 8.054-17.276 26.325-27.781 37.381-32.793zm-104.941-70.298c-8.048-17.262-4.36-37.832-1.103-49.405 11.037 4.899 29.309 15.236 37.356 32.498 8.158 17.489 4.203 38.636 1.12 49.685-.004.012-.007.024-.011.037-11.037-4.978-29.255-15.436-37.362-32.815zm-31.314 341.546c-19.055 0-36.286-12.104-45.507-20.009 9.375-8.047 26.495-19.991 45.507-19.991 19.066 0 36.307 12.119 45.52 20.019-9.179 7.9-26.349 19.981-45.52 19.981zm-192.03 0c-19.066 0-36.307-12.119-45.52-20.019 9.179-7.901 26.349-19.981 45.52-19.981 19.063 0 36.301 12.115 45.519 20.019-9.178 7.901-26.348 19.981-45.519 19.981zm-135.127-221.546c-8.055-17.276-4.36-38.026-1.095-49.717 11.023 4.973 29.188 15.406 37.313 32.731.04.095.082.188.125.282 8.05 17.491 4.036 38.67 1.016 49.516-11.041-4.98-29.253-15.437-37.359-32.812zm23.152 127.924c-15.6-10.921-22.774-30.711-25.795-42.47 12.089-1.186 33.141-1.211 48.746 9.715 13.559 9.485 21.729 26.537 25.804 42.467-12.091 1.187-33.145 1.217-48.755-9.712zm44.378-264.833c8.049-17.264 26.324-27.601 37.354-32.497 3.261 11.58 6.945 32.145-1.101 49.403-8.056 17.267-26.311 27.771-37.372 32.789-.001-.003-.002-.006-.003-.009-3.082-11.048-7.037-32.195 1.122-49.686z"/>
        <circle cx="315.966" cy="312.982" r="10"/>
        <path d="m340.699 288.247c3.906 3.906 10.236 3.906 14.143 0l28.195-28.195c3.821-3.816 3.959-10.188 0-14.143l-60-60c-1.896-1.894-4.46-2.93-7.076-2.929h-119.99c-2.653-.001-5.207 1.061-7.076 2.929l-60 60c-.034.034-.062.071-.095.105-3.883 3.995-3.68 10.27.095 14.038l120 120c3.916 3.916 10.244 3.887 14.143 0l28.195-28.195c3.905-3.905 3.905-10.237 0-14.142s-10.235-3.905-14.143 0l-11.124 11.124v-85.858h85.857l-11.124 11.124c-3.905 3.905-3.905 10.237 0 14.142zm-144.733-81.123 35.857 35.857h-71.715zm24.142-4.142h71.715l-35.857 35.857zm25.858 60v85.858l-85.857-85.858zm70-55.858 35.857 35.857h-71.715z"/>
    </symbol>

    <symbol id="footer-facebook" role="img" aria-labelledby="footer-facebook_title" viewBox="0 0 512 512">
        <title id="footer-facebook_title">Facebook</title>
        <path d="M314.829,135.492h70.595c11.423,0,20.682-9.26,20.682-20.682V20.682C406.107,9.26,396.848,0,385.425,0h-70.595
            c-76.282,0-138.341,62.06-138.341,138.341v49.913h-49.913c-11.422,0-20.682,9.26-20.682,20.682v94.127
            c0,11.423,9.26,20.682,20.682,20.682h49.913v167.572c0,11.423,9.26,20.682,20.682,20.682h94.127
            c11.423,0,20.682-9.259,20.682-20.682V323.746h49.913c9.49,0,17.763-6.458,20.065-15.666l23.532-94.127
            c1.544-6.179,0.156-12.725-3.763-17.744c-3.919-5.02-9.932-7.954-16.301-7.954H311.98v-49.913
            C311.98,136.77,313.258,135.492,314.829,135.492z M291.298,229.619h67.637l-13.191,52.763h-54.447
            c-11.423,0-20.682,9.259-20.682,20.682v167.572h-52.763V303.064c0-11.423-9.26-20.682-20.682-20.682h-49.913v-52.763h49.913
            c11.422,0,20.682-9.26,20.682-20.682v-70.595c0-53.473,43.503-96.977,96.977-96.977h49.913v52.763h-49.913
            c-24.38,0-44.214,19.835-44.214,44.214v70.595C270.615,220.359,279.875,229.619,291.298,229.619z"/>
    </symbol>

    <symbol id="footer-twitter" role="img" aria-labelledby="footer-twitter_title" viewBox="0 0 512 512">
        <title id="footer-twitter_title">Twitter</title>
        <path d="M502.954,47.189c-7.126-4.852-16.515-4.774-23.559,0.196c-15.351,10.828-31.974,19.528-49.557,25.948
            c-19.253-17.414-43.615-27.826-69.915-29.656c-31.056-2.16-61.081,7.9-84.561,28.326c-25.59,22.259-40.174,54.444-40.046,88.349
            c-85.248-7.609-139.14-61.55-177.09-108.986c-4.598-5.746-11.901-8.619-19.182-7.538c-7.279,1.078-13.438,5.944-16.171,12.777
            c-0.948,2.369-23.141,58.799-17.453,127.057c4.761,57.133,30.23,131.964,120.039,181.717
            c-32.436,14.756-68.282,21.939-103.953,20.519c-9.576-0.378-18.15,5.859-20.736,15.08c-2.587,9.221,1.497,19.013,9.869,23.665
            c51.359,28.532,108.03,43.736,163.889,43.965c0.432,0.002,0.861,0.003,1.294,0.003c54.105-0.001,106.379-13.938,151.246-40.336
            c42.898-25.241,78.416-61.759,102.715-105.603c26.162-47.206,39.427-101.75,39.427-162.186c-0.011-3.544-0.186-7.098-0.52-10.638
            c20.7-22.885,35.388-50.567,42.719-80.667C513.451,60.803,510.081,52.04,502.954,47.189z M432.297,128.07
            c-4.916,4.847-7.088,11.827-5.793,18.607c0.877,4.588,1.329,9.278,1.344,13.874c0,101.956-44.378,186.544-121.756,232.072
            c-60.586,35.649-133.037,43.933-203.609,25.057c0.729-0.201,1.459-0.407,2.185-0.615c27.596-7.885,53.63-20.055,77.377-36.174
            c6.329-4.296,9.77-11.734,8.946-19.34c-0.825-7.605-5.778-14.134-12.881-16.975C97.757,312.434,53.563,257.594,46.757,181.575
            c-2.536-28.334,0.707-54.721,4.766-74.501c16.638,17.909,37.384,37.227,62.129,53.407c42.771,27.966,90.663,42.146,142.346,42.146
            c11.423,0,20.682-9.26,20.682-20.682v-21.393c0-0.045,0-0.091,0-0.137c-0.146-21.948,9.268-42.797,25.829-57.202
            c15.146-13.175,34.51-19.665,54.543-18.27c20.026,1.393,38.311,10.502,51.487,25.648c5.339,6.138,13.783,8.577,21.567,6.229
            c5.725-1.724,11.375-3.645,16.941-5.757C442.599,117.081,437.672,122.769,432.297,128.07z"/>
    </symbol>    

    <symbol id="footer-linkedin" role="img" aria-labelledby="footer-linkedin_title" viewBox="0 0 512 512">
        <title id="footer-linkedin_title">Linkedin</title>
        <path d="M2.5,510V153.7h137.3V510H2.5z M102.5,472.7V191H39.8v281.7H102.5z"/>
        <path d="M375.4,510l0.1-158.1c0.5-23.6-8.8-42.9-24.9-51.7c-5.4-3-11.2-4.5-17.3-4.5c-5.2,0-10.4,1.1-15.5,3.3l-1.1,211H176.1
            V153.7h140.6V166c16.6-6,33.6-9.1,50.6-9.1c24.7,0,48.3,6.4,70.2,18.9c44,25.2,72.5,71.8,72.5,118.8V510H375.4z M472.7,472.7V294.6
            c0-33.8-21.1-67.7-53.7-86.4c-15.9-9.1-33.8-13.9-51.7-14h-0.3c-20.1,0-40.1,5.8-59.6,17.3L279.4,228V191h-66.1v281.7h66.2l1-194.7
            l8.2-5.5c13.7-9.2,29.1-14.1,44.5-14.1c12.4,0,24.2,3,35.1,9c13.7,7.5,25,19.2,32.8,33.8c7.9,14.9,11.9,32.6,11.5,51.1l0,120.3
            H472.7z"/>
        <path d="M70.9,139.9C32.9,139.9,2,109,2,71c0-38,30.9-69,68.9-69c38,0,68.9,30.9,68.9,69C139.8,109,108.9,139.9,70.9,139.9z
             M70.9,39.3c-17.4,0-31.6,14.2-31.6,31.7c0,17.5,14.2,31.7,31.6,31.7c17.4,0,31.6-14.2,31.6-31.7C102.5,53.5,88.3,39.3,70.9,39.3z"
            />
    </symbol>

    <symbol id="footer-instagram" role="img" aria-labelledby="footer-instagram_title" viewBox="0 0 512 512">
        <title id="footer-instagram_title">Instagram</title>
        <path d="M373.659,0H138.341C62.06,0,0,62.06,0,138.341v235.318C0,449.94,62.06,512,138.341,512h235.318
            C449.94,512,512,449.94,512,373.659V138.341C512,62.06,449.94,0,373.659,0z M470.636,373.659
            c0,53.473-43.503,96.977-96.977,96.977H138.341c-53.473,0-96.977-43.503-96.977-96.977V138.341
            c0-53.473,43.503-96.977,96.977-96.977h235.318c53.473,0,96.977,43.503,96.977,96.977V373.659z"/>
        <path d="M370.586,238.141c-3.64-24.547-14.839-46.795-32.386-64.342c-17.547-17.546-39.795-28.746-64.341-32.385
            c-11.176-1.657-22.507-1.657-33.682,0c-30.336,4.499-57.103,20.541-75.372,45.172c-18.269,24.631-25.854,54.903-21.355,85.237
            c4.499,30.335,20.541,57.102,45.172,75.372c19.996,14.831,43.706,22.619,68.153,22.619c5.667,0,11.375-0.418,17.083-1.265
            c30.336-4.499,57.103-20.541,75.372-45.172C367.5,298.747,375.085,268.476,370.586,238.141z M267.791,327.632
            c-19.405,2.882-38.77-1.973-54.527-13.66c-15.757-11.687-26.019-28.811-28.896-48.216c-2.878-19.405,1.973-38.77,13.66-54.527
            c11.688-15.757,28.811-26.019,48.217-28.897c3.574-0.53,7.173-0.795,10.772-0.795s7.199,0.265,10.773,0.796
            c32.231,4.779,57.098,29.645,61.878,61.877C335.608,284.268,307.851,321.692,267.791,327.632z"/>
        <path d="M400.049,111.951c-3.852-3.851-9.183-6.058-14.625-6.058c-5.442,0-10.773,2.206-14.625,6.058
            c-3.851,3.852-6.058,9.174-6.058,14.625c0,5.451,2.207,10.773,6.058,14.625c3.852,3.851,9.183,6.058,14.625,6.058
            c5.442,0,10.773-2.206,14.625-6.058c3.851-3.852,6.058-9.183,6.058-14.625C406.107,121.133,403.9,115.802,400.049,111.951z"/>
    </symbol>

    <symbol id="footer-phone" role="img" aria-labelledby="footer-phone_title" viewBox="0 0 512 512">
        <title id="footer-phone_title"></title>
        <path d="M421.216,195.504c-5.092-26.101-17.723-49.836-36.526-68.64c-18.804-18.803-42.54-31.434-68.641-36.527
			c-11.21-2.189-22.073,5.128-24.261,16.339c-2.187,11.212,5.128,22.073,16.339,24.26c36.847,7.188,65.3,35.642,72.489,72.489
			c1.927,9.874,10.581,16.726,20.278,16.726c1.313,0,2.645-0.125,3.984-0.387C416.088,217.577,423.403,206.715,421.216,195.504z"/>
		<path d="M511.422,196.929c-5.629-50.096-28.373-97.304-64.042-132.927C411.712,28.378,364.475,5.694,314.371,0.128
			c-11.355-1.261-21.578,6.92-22.839,18.272c-1.261,11.353,6.919,21.578,18.272,22.84c84.961,9.438,150.966,75.36,160.512,160.31
			c1.188,10.566,10.139,18.374,20.527,18.374c0.771,0,1.552-0.043,2.336-0.131C504.53,218.516,512.698,208.281,511.422,196.929z"/>
		<path d="M432.59,312.566c-0.062-0.008-0.124-0.017-0.186-0.025c-20.013-2.639-39.751-7.557-58.619-14.596
			c-23.91-8.99-51.103-3.191-69.27,14.772c-0.028,0.028-0.056,0.055-0.083,0.083l-17.148,17.148
			c-42.633-26.924-78.756-63.047-105.679-105.679l17.149-17.149c0.027-0.028,0.054-0.055,0.082-0.083
			c17.964-18.166,23.762-45.356,14.79-69.223c-7.057-18.914-11.974-38.653-14.614-58.666c-0.007-0.063-0.017-0.127-0.026-0.19
			c-4.591-32.478-32.782-56.734-65.548-56.467H66.053c-1.943,0.002-3.912,0.091-5.853,0.267
			C24.143,26.016-2.541,58.001,0.718,94.058c0.01,0.108,0.02,0.215,0.032,0.323c7.684,72.354,32.649,142.88,72.197,203.955
			c35.892,56.461,84.701,105.269,141.162,141.164c60.792,39.406,130.99,64.369,203.013,72.196c0.127,0.015,0.254,0.027,0.38,0.038
			c1.961,0.176,3.949,0.266,5.921,0.266c0.083,0,0.165,0,0.247,0.001c36.204-0.148,65.538-29.722,65.391-65.841v-67.233
			C489.746,345.714,465.515,317.211,432.59,312.566z M447.698,378.695v67.548c0.055,13.396-10.8,24.338-24.19,24.393
			c-0.715-0.004-1.425-0.027-2.135-0.086c-65.578-7.161-129.488-29.914-184.837-65.808c-0.053-0.035-0.107-0.069-0.161-0.103
			c-51.429-32.68-95.885-77.137-128.565-128.565c-0.032-0.051-0.064-0.101-0.097-0.153C71.683,220.306,48.928,156.086,41.902,90.193
			C40.779,76.91,50.63,65.155,63.923,63.954c0.717-0.064,1.443-0.098,2.145-0.098h67.463c0.146-0.001,0.294-0.003,0.443-0.002
			c12.021,0,22.322,8.905,24.044,20.819c3.05,23.063,8.721,45.806,16.871,67.649c3.319,8.832,1.189,18.869-5.427,25.591
			l-28.517,28.517c-6.583,6.582-7.956,16.753-3.354,24.847c33.837,59.508,83.177,108.847,142.685,142.685
			c8.094,4.6,18.264,3.23,24.848-3.355l28.512-28.512c6.72-6.621,16.765-8.752,25.642-5.415
			c21.799,8.134,44.547,13.805,67.61,16.855c12.18,1.757,21.122,12.339,20.816,24.647
			C447.7,378.353,447.698,378.524,447.698,378.695z"/>
    </symbol>    

	<symbol id="footer-mail" role="img" aria-labelledby="footer-mail_title" viewBox="0 0 512 512">
        <title id="footer-mail_title"></title>
        <path d="M256,141.176c-63.306,0-114.809,51.503-114.809,114.809S192.694,370.795,256,370.795s114.809-51.503,114.809-114.809
			S319.306,141.176,256,141.176z M256,329.43c-40.498,0-73.445-32.947-73.445-73.445c0-40.498,32.947-73.445,73.445-73.445
			c40.499,0,73.445,32.947,73.445,73.445C329.445,296.483,296.499,329.43,256,329.43z"/>
		<path d="M437.008,74.97C388.656,26.623,324.375,0,256,0c-0.005,0-0.013,0-0.017,0C187.603,0.004,123.318,26.637,74.97,74.992
			C26.62,123.347-0.005,187.637,0,256.017c0.004,68.379,26.637,132.666,74.992,181.014C123.344,485.377,187.625,512.001,256,512
			c0.004,0,0.012,0,0.017,0c55.945-0.004,111.216-18.738,155.631-52.752c9.07-6.945,10.792-19.927,3.846-28.995
			c-6.945-9.069-19.926-10.794-28.995-3.846c-37.24,28.518-83.58,44.224-130.486,44.228c-0.006,0-0.006,0-0.014,0
			c-57.324,0-111.224-22.324-151.761-62.856c-40.542-40.536-62.871-94.435-62.875-151.766
			C41.357,137.663,137.636,41.372,255.986,41.364c0.007,0,0.006,0,0.014,0c118.34,0,214.628,96.279,214.636,214.622v23.532
			c0,27.523-22.39,49.913-49.913,49.913c-27.523,0-49.913-22.391-49.913-49.913v-23.532c0-11.422-9.259-20.682-20.682-20.682
			s-20.682,9.26-20.682,20.682v23.532c0,50.33,40.947,91.278,91.278,91.278S512,329.848,512,279.518v-23.534
			C511.995,187.604,485.362,123.318,437.008,74.97z"/>
    </symbol>

    <symbol id="footer-location" role="img" aria-labelledby="footer-location_title" viewBox="0 0 512 512">
        <title id="footer-location_title"></title>
        <path d="M406.766,62.449C366.495,22.178,312.951,0,256,0S145.505,22.178,105.234,62.449
			c-40.272,40.271-62.449,93.814-62.449,150.766c0,37.656,10.972,76.863,32.609,116.532c16.825,30.846,40.15,62.102,69.326,92.898
			c49.17,51.903,97.763,84.519,99.808,85.881C248.001,510.842,252,512,256,512c4,0,7.999-1.158,11.473-3.474
			c2.045-1.363,50.638-33.978,99.808-85.881c29.176-30.795,52.501-62.051,69.326-92.898c21.637-39.669,32.609-78.876,32.609-116.532
			C469.215,156.263,447.038,102.72,406.766,62.449z M256.001,465.903C215.826,436.156,84.15,329.739,84.15,213.215
			c0-94.759,77.091-171.851,171.85-171.851s171.85,77.092,171.851,171.851C427.851,329.748,296.159,436.168,256.001,465.903z"/>
		<path d="M256,128.355c-46.791,0-84.86,38.068-84.86,84.86c0,46.791,38.068,84.86,84.86,84.86c46.792,0,84.861-38.068,84.86-84.86
			C340.86,166.423,302.791,128.355,256,128.355z M256,256.71c-23.983,0-43.495-19.512-43.495-43.495
			c0-23.983,19.512-43.495,43.495-43.495c23.984,0,43.495,19.512,43.495,43.495C299.495,237.198,279.984,256.71,256,256.71z"/>
		</symbol>

	<symbol id="footer-time" role="img" aria-labelledby="footer-time_title" viewBox="0 0 512 512">
        <title id="footer-time_title"></title>
        <path d="M437.019,74.981C388.667,26.629,324.38,0,256,0S123.333,26.63,74.981,74.981S0,187.62,0,256
			s26.629,132.667,74.981,181.019C123.332,485.371,187.62,512,256,512s132.667-26.629,181.019-74.981
			C485.371,388.667,512,324.38,512,256S485.371,123.332,437.019,74.981z M256,470.636C137.65,470.636,41.364,374.35,41.364,256
			S137.65,41.364,256,41.364S470.636,137.65,470.636,256S374.35,470.636,256,470.636z"/>
		<path d="M341.221,311.97l-64.538-64.537V114.809c0-11.422-9.259-20.682-20.682-20.682c-11.422,0-20.682,9.26-20.682,20.682V256
			c0,5.486,2.179,10.746,6.058,14.625l70.594,70.595c4.038,4.039,9.332,6.058,14.625,6.058c5.293,0,10.586-2.019,14.626-6.058
			C349.297,333.142,349.297,320.047,341.221,311.97z"/>
	</symbol>

</svg>