<svg xmlns="http://www.w3.org/2000/svg" xmlns:xlink="http://www.w3.org/1999/xlink">
  
    <symbol id="header-facebook" role="img" aria-labelledby="header-facebook_title" viewBox="0 0 512 512">
        <title id="header-facebook_title">Facebook</title>
        <polygon points="411.826,122.435 411.826,0 233.739,0 233.739,33.391 200.348,33.391 200.348,66.783 166.957,66.783 
			166.957,166.957 100.174,166.957 100.174,289.391 166.957,289.391 166.957,512 300.522,512 300.522,289.391 367.304,289.391 
			367.304,166.957 300.522,166.957 300.522,122.435 		"/>
    </symbol>

    <symbol id="header-twitter" role="img" aria-labelledby="header-twitter_title" viewBox="0 0 512 512">
        <title id="header-twitter_title">Twitter</title>
        <polygon points="445.217,161.391 445.217,94.609 411.826,94.609 411.826,61.217 378.435,61.217 378.435,27.826 256,27.826 
			256,61.217 222.609,61.217 222.609,94.609 189.217,94.609 189.217,161.391 144.696,161.391 144.696,128 100.174,128 
			100.174,94.609 66.783,94.609 66.783,61.217 0,61.217 0,250.435 33.391,250.435 33.391,283.826 66.783,283.826 66.783,317.217 
			133.565,317.217 133.565,350.609 100.174,350.609 100.174,384 66.783,384 66.783,417.391 33.391,417.391 33.391,484.174 
			345.043,484.174 345.043,450.783 378.435,450.783 378.435,417.391 411.826,417.391 411.826,384 445.217,384 445.217,261.565 
			478.609,261.565 478.609,228.174 512,228.174 512,161.391 		"/>
    </symbol>

    <symbol id="header-instagram" role="img" aria-labelledby="header-instagram_title" viewBox="0 0 512 512">
        <title id="header-instagram_title">Instagram</title>
        <path d="M478.609,66.783V33.391h-33.391V0H66.783v33.391H33.391v33.391H0v378.435h33.391v33.391h33.391V512h378.435v-33.391
			h33.391v-33.391H512V66.783H478.609z M389.565,322.783h-33.391v33.391h-33.391v33.391H189.217v-33.391h-33.391v-33.391h-33.391
			V189.217h33.391v-33.391h33.391v-33.391h133.565v33.391h33.391v33.391h33.391V322.783z M422.957,133.565h-44.522V89.044h44.522
			V133.565z"/>
		<polygon points="322.783,189.217 322.783,155.826 189.217,155.826 189.217,189.217 155.826,189.217 155.826,322.783 
			189.217,322.783 189.217,356.174 322.783,356.174 322.783,322.783 356.174,322.783 356.174,189.217 		"/>
    </symbol>

    <symbol id="heart" role="img" aria-labelledby="heart_title" viewBox="0 0 512 512">
        <title id="heart_title"></title>
        <polygon points="478.585,105.748 478.585,72.359 445.195,72.359 445.195,38.969 311.637,38.969 
			311.637,72.359 278.247,72.359 278.247,105.748 233.728,105.748 233.728,72.359 200.339,72.359 200.339,38.969 66.78,38.969 
			66.78,72.359 33.391,72.359 33.391,105.748 0.001,105.748 0.001,306.085 33.391,306.085 33.391,339.475 66.78,339.475 
			66.78,372.865 100.17,372.865 100.17,406.254 166.949,406.254 166.949,439.644 233.728,439.644 233.728,473.033 278.247,473.033 
			278.247,439.644 345.027,439.644 345.027,406.254 411.806,406.254 411.806,372.865 445.195,372.865 445.195,339.475 
			478.585,339.475 478.585,306.099 512,306.099 512,105.761 "/>
		<rect style="fill:#000000;" x="33.39" y="72.356" width="33.39" height="33.39"/>
		<rect style="fill:#000000;" x="445.194" y="72.356" width="33.39" height="33.39"/>
		<rect style="fill:#000000;" x="278.246" y="72.356" width="33.39" height="33.39"/>
		<rect style="fill:#000000;" x="33.39" y="306.083" width="33.39" height="33.39"/>
		<rect style="fill:#000000;" x="445.194" y="306.083" width="33.39" height="33.39"/>
		<rect style="fill:#000000;" x="166.948" y="406.252" width="66.779" height="33.39"/>
		<rect style="fill:#000000;" x="278.246" y="406.252" width="66.779" height="33.39"/>
		<rect style="fill:#000000;" x="200.337" y="72.356" width="33.39" height="33.39"/>
		<rect style="fill:#000000;" x="233.727" y="105.746" width="44.519" height="33.39"/>
		<rect style="fill:#000000;" x="345.026" y="372.862" width="66.779" height="33.39"/>
		<rect style="fill:#000000;" x="100.169" y="372.862" width="66.779" height="33.39"/>
		<rect style="fill:#000000;" x="66.779" y="339.473" width="33.39" height="33.39"/>
		<rect style="fill:#000000;" x="411.805" y="339.473" width="33.39" height="33.39"/>
		<rect style="fill:#000000;" x="233.727" y="439.642" width="44.519" height="33.39"/>
		<rect style="fill:#000000;" x="66.779" y="38.967" width="133.558" height="33.39"/>
		<rect style="fill:#000000;" x="311.636" y="38.967" width="133.558" height="33.39"/>
		<rect style="fill:#000000;" y="105.746" width="33.39" height="200.337"/>
		<rect style="fill:#000000;" x="478.584" y="105.746" width="33.39" height="200.337"/>
    </symbol>

    <symbol id="industries01" role="img" aria-labelledby="industries01_title" viewBox="0 0 512 512">
        <title id="industries01_title"></title>
        <polygon points="478.609,166.957 478.609,100.174 445.217,100.174 445.217,66.783 411.826,66.783 
			411.826,33.391 345.043,33.391 345.043,0 166.957,0 166.957,33.391 100.174,33.391 100.174,66.783 66.783,66.783 66.783,100.174 
			33.391,100.174 33.391,166.957 0,166.957 0,345.043 33.391,345.043 33.391,411.826 66.783,411.826 66.783,445.217 100.174,445.217 
			100.174,478.609 166.957,478.609 166.957,512 345.043,512 345.043,478.609 411.826,478.609 411.826,445.217 445.217,445.217 
			445.217,411.826 478.609,411.826 478.609,345.043 512,345.043 512,166.957 "/>
		<rect style="fill:#000000;" x="166.957" y="322.783" width="33.391" height="33.391"/>
		<rect style="fill:#000000;" x="311.652" y="267.13" width="33.391" height="89.043"/>
		<rect style="fill:#000000;" x="166.957" y="155.826" width="33.391" height="77.913"/>
		<rect style="fill:#000000;" x="200.348" y="233.739" width="111.304" height="33.391"/>
		<polygon style="fill:#000000;" points="267.13,122.435 267.13,77.913 233.739,77.913 233.739,122.435 200.348,122.435 200.348,155.826 311.652,155.826 
			311.652,122.435 "/>
		<rect style="fill:#000000;" x="311.652" y="155.826" width="33.391" height="33.391"/>
		<polygon style="fill:#000000;" points="200.348,356.174 200.348,389.565 233.739,389.565 233.739,434.087 267.13,434.087 267.13,389.565 311.652,389.565 
			311.652,356.174 "/>
		<rect style="fill:#000000;" x="66.783" y="66.783" width="33.391" height="33.391"/>
		<polygon style="fill:#000000;" points="411.826,33.391 345.043,33.391 345.043,0 166.957,0 166.957,33.391 100.174,33.391 100.174,66.783 166.957,66.783 
			166.957,33.391 345.043,33.391 345.043,66.783 411.826,66.783 411.826,100.174 445.217,100.174 445.217,66.783 411.826,66.783 "/>
		<rect style="fill:#000000;" x="445.217" y="100.174" width="33.391" height="66.783"/>
		<rect style="fill:#000000;" x="478.609" y="166.957" width="33.391" height="178.087"/>
		<rect style="fill:#000000;" x="445.217" y="345.043" width="33.391" height="66.783"/>
		<polygon style="fill:#000000;" points="33.391,166.957 0,166.957 0,345.043 33.391,345.043 33.391,411.826 66.783,411.826 66.783,445.217 100.174,445.217 
			100.174,411.826 66.783,411.826 66.783,345.043 33.391,345.043 33.391,166.957 66.783,166.957 66.783,100.174 33.391,100.174 "/>
		<polygon style="fill:#000000;" points="166.957,478.609 166.957,512 345.043,512 345.043,478.609 411.826,478.609 411.826,445.217 345.043,445.217 
			345.043,478.609 166.957,478.609 166.957,445.217 100.174,445.217 100.174,478.609 "/>
		<rect style="fill:#000000;" x="411.826" y="411.826" width="33.391" height="33.391"/>
    </symbol>

    <symbol id="industries02" role="img" aria-labelledby="industries02_title" viewBox="0 0 512 512">
        <title id="industries02_title"></title>
        <path d="M478.609,222.609v-33.391h-33.391v-66.783h33.391V66.783h-33.391V33.391h-55.652v33.391h-66.783
			V33.391h-33.391V0h-66.783v33.391h-33.391v33.391h-66.783V33.391H66.783v33.391H33.391v55.652h33.391v66.783H33.391v33.391H0v66.783
			h33.391l0,0v33.391h33.391v66.783H33.391v55.652h33.391v33.391h55.652v-33.391h66.783v33.391h33.391V512h66.783v-33.391h33.391
			v-33.391h66.783v33.391h55.652v-33.391h33.391v-55.652h-33.391v-66.783h33.391v-33.391H512v-66.783H478.609z M311.652,311.652
			v33.391H200.348v-33.391h-33.391V200.348h33.391v-33.391h111.304v33.391h33.391v111.304H311.652z"/>
		<rect x="389.565" y="389.565" width="33.391" height="33.391"/>
		<polygon points="66.783,66.783 33.391,66.783 33.391,100.174 66.783,100.174 100.174,100.174 
			100.174,66.783 100.174,33.391 66.783,33.391 	"/>
		<polygon points="222.609,33.391 189.217,33.391 189.217,66.783 222.609,66.783 256,66.783 256,33.391 256,0 
			222.609,0 	"/>
		<polygon points="422.957,100.174 422.957,66.783 422.957,33.391 389.565,33.391 389.565,66.783 
			356.174,66.783 356.174,100.174 389.565,100.174 	"/>
		<polygon points="66.783,256 66.783,222.609 66.783,189.217 33.391,189.217 33.391,222.609 0,222.609 0,256 
			33.391,256 	"/>
		<polygon points="66.783,389.565 33.391,389.565 33.391,422.957 66.783,422.957 100.174,422.957 
			100.174,389.565 100.174,356.174 66.783,356.174 	"/>
		<polygon points="189.217,411.826 189.217,445.217 222.609,445.217 256,445.217 256,411.826 222.609,411.826 
				"/>
		<polygon points="411.826,189.217 411.826,222.609 411.826,256 445.217,256 445.217,222.609 445.217,189.217 
				"/>
        <rect style="fill:#000000;" x="200.348" y="133.565" width="111.304" height="33.391"/>
		<rect style="fill:#000000;" x="200.348" y="345.043" width="111.304" height="33.391"/>
		<rect style="fill:#000000;" x="345.043" y="200.348" width="33.391" height="111.304"/>
		<rect style="fill:#000000;" x="133.565" y="200.348" width="33.391" height="111.304"/>
		<rect style="fill:#000000;" x="166.957" y="166.957" width="33.391" height="33.391"/>
		<rect style="fill:#000000;" x="311.652" y="166.957" width="33.391" height="33.391"/>
		<rect style="fill:#000000;" x="166.957" y="311.652" width="33.391" height="33.391"/>
		<rect style="fill:#000000;" x="311.652" y="311.652" width="33.391" height="33.391"/>
		<polygon style="fill:#000000;" points="222.609,100.174 222.609,33.391 189.217,33.391 189.217,66.783 122.435,66.783 122.435,100.174 "/>
		<rect style="fill:#000000;" x="33.391" y="66.783" width="33.391" height="55.652"/>
		<rect style="fill:#000000;" x="66.783" y="33.391" width="55.652" height="33.391"/>
		<rect style="fill:#000000;" x="389.565" y="33.391" width="55.652" height="33.391"/>
		<rect style="fill:#000000;" x="445.217" y="66.783" width="33.391" height="55.652"/>
		<polygon style="fill:#000000;" points="389.565,100.174 389.565,66.783 322.783,66.783 322.783,33.391 289.391,33.391 289.391,100.174 "/>
		<rect style="fill:#000000;" x="222.609" width="66.783" height="33.391"/>
		<polygon style="fill:#000000;" points="100.174,389.565 100.174,289.391 33.391,289.391 33.391,322.783 66.783,322.783 66.783,389.565 "/>
		<rect style="fill:#000000;" x="33.391" y="389.565" width="33.391" height="55.652"/>
		<rect style="fill:#000000;" x="66.783" y="445.217" width="55.652" height="33.391"/>
		<polygon style="fill:#000000;" points="289.391,411.826 289.391,478.609 322.783,478.609 322.783,445.217 389.565,445.217 389.565,411.826 "/>
		<polygon style="fill:#000000;" points="445.217,322.783 478.609,322.783 478.609,289.391 411.826,289.391 411.826,389.565 445.217,389.565 "/>
		<rect style="fill:#000000;" x="445.217" y="389.565" width="33.391" height="55.652"/>
		<rect style="fill:#000000;" x="389.565" y="445.217" width="55.652" height="33.391"/>
		<polygon style="fill:#000000;" points="122.435,411.826 122.435,445.217 189.217,445.217 189.217,478.609 222.609,478.609 222.609,411.826 "/>
		<rect style="fill:#000000;" x="222.609" y="478.609" width="66.783" height="33.391"/>
		<polygon style="fill:#000000;" points="478.609,222.609 478.609,189.217 445.217,189.217 445.217,122.435 411.826,122.435 411.826,222.609 411.826,222.61 
			478.609,222.609 478.609,289.391 512,289.391 512,222.609 "/>
		<polygon style="fill:#000000;" points="33.391,222.609 100.174,222.609 100.174,122.435 66.783,122.435 66.783,189.217 33.391,189.217 33.391,222.609 
			0,222.609 0,289.391 33.391,289.391 "/>
    </symbol>

    <symbol id="industries03" role="img" aria-labelledby="industries03_title" viewBox="0 0 512 512">
        <title id="industries03_title"></title>
        <polygon points="411.826,77.913 411.826,0 389.565,0 378.435,0 133.565,0 100.174,0 100.174,77.913 0,77.913 
			0,111.304 0,211.478 33.391,211.478 33.391,244.87 66.783,244.87 66.783,278.261 100.174,278.261 100.174,311.652 133.565,311.652 
			133.565,345.043 166.957,345.043 166.957,378.435 200.348,378.435 200.348,411.826 133.565,411.826 133.565,445.217 
			100.174,445.217 100.174,478.609 100.174,478.609 100.174,512 100.174,512 133.565,512 378.435,512 411.826,512 411.826,445.217 
			378.435,445.217 378.435,411.826 311.652,411.826 311.652,378.435 345.043,378.435 345.043,345.043 378.435,345.043 
			378.435,311.652 389.565,311.652 411.826,311.652 411.826,278.261 445.217,278.261 445.217,244.87 478.609,244.87 478.609,211.478 
			512,211.478 512,111.304 512,77.913 "/>
		<polygon points="166.957,0 155.826,0 133.565,0 100.174,0 100.174,111.304 133.565,111.304 133.565,144.696 
			166.957,144.696 166.957,66.783 411.826,66.783 411.826,0 	"/>
		<rect style="fill:#000000;" x="100.174" y="178.087" width="66.783" height="33.391"/>
		<rect style="fill:#000000;" x="133.565" y="311.652" width="33.391" height="33.391"/>
		<polygon style="fill:#000000;" points="200.348,378.435 200.348,411.826 133.565,411.826 133.565,445.217 200.348,445.217 222.609,445.217 
			233.739,445.217 233.739,378.435 233.739,345.043 200.348,345.043 166.957,345.043 166.957,378.435 "/>
		<rect style="fill:#000000;" x="33.391" y="211.478" width="33.391" height="33.391"/>
		<polygon style="fill:#000000;" points="100.174,278.261 100.174,311.652 133.565,311.652 133.565,278.261 133.565,244.87 100.174,244.87 66.783,244.87 
			66.783,278.261 "/>
		<polygon style="fill:#000000;" points="133.565,211.478 133.565,144.696 100.174,144.696 66.783,144.696 66.783,178.087 100.174,178.087 100.174,211.478 
			"/>
		<polygon style="fill:#000000;" points="378.435,478.609 133.565,478.609 133.565,445.217 100.174,445.217 100.174,478.609 100.174,478.609 100.174,512 
			100.174,512 100.174,512 133.565,512 133.565,512 378.435,512 378.435,512 411.826,512 411.826,445.217 378.435,445.217 "/>
		<rect style="fill:#000000;" x="345.043" y="311.652" width="33.391" height="33.391"/>
		<polygon style="fill:#000000;" points="278.261,345.043 278.261,378.435 278.261,445.217 289.391,445.217 311.652,445.217 378.435,445.217 
			378.435,411.826 311.652,411.826 311.652,378.435 345.043,378.435 345.043,345.043 311.652,345.043 "/>
		<rect style="fill:#000000;" x="445.217" y="211.478" width="33.391" height="33.391"/>
		<polygon style="fill:#000000;" points="411.826,178.087 445.217,178.087 445.217,144.696 411.826,144.696 378.435,144.696 378.435,211.478 
			411.826,211.478 "/>
		<polygon style="fill:#000000;" points="378.435,244.87 378.435,278.261 378.435,311.652 411.826,311.652 411.826,278.261 445.217,278.261 445.217,244.87 
			411.826,244.87 "/>
		<polygon style="fill:#000000;" points="478.609,77.913 411.826,77.913 411.826,0 389.565,0 378.435,0 133.565,0 100.174,0 100.174,33.391 100.174,77.913 
			33.391,77.913 0,77.913 0,111.304 0,211.478 33.391,211.478 33.391,111.304 100.174,111.304 133.565,111.304 133.565,77.913 
			133.565,33.391 378.435,33.391 378.435,77.913 378.435,111.304 411.826,111.304 478.609,111.304 478.609,211.478 512,211.478 
			512,111.304 512,77.913 "/>
    </symbol>

    <symbol id="industries04" role="img" aria-labelledby="industries04_title" viewBox="0 0 512 512">
        <title id="industries04_title"></title>
        <rect x="66.783" y="300.522" width="111.304" height="144.696"/>
		<rect x="222.609" y="155.826" width="111.304" height="289.391"/>
		<rect x="378.435" y="33.391" width="111.304" height="411.826"/>
		<polygon style="fill:#000000;" points="33.391,478.609 33.391,0 0,0 0,478.609 0,512 33.391,512 512,512 512,478.609 "/>
		<path style="fill:#000000;" d="M411.827,445.217h44.521h33.391V33.391h-0.002V33.39H378.435v33.391h0.001v345.045h-0.001v33.391h0.001H411.827z
			 M411.827,66.781h44.521v345.045h-44.521V66.781z"/>
		<path style="fill:#000000;" d="M256.001,445.217h44.521h33.391v-289.39h-0.002v-0.001H222.609v33.391h0.001v222.609h-0.001v33.391h0.001H256.001z
			 M256.001,189.217h44.521v222.609h-44.521V189.217z"/>
		<path style="fill:#000000;" d="M100.175,445.217h44.521h33.391V300.523h-0.002v-0.001H66.783v33.391h0.001v77.913h-0.001v33.391h0.001H100.175z
			 M100.175,333.913h44.521v77.913h-44.521V333.913z"/>
    </symbol>

    <symbol id="industries05" role="img" aria-labelledby="industries05_title" viewBox="0 0 512 512">
        <title id="industries05_title"></title>
        <rect width="66.783" height="33.391"/>
		<polygon points="200.348,478.609 200.348,512 256,512 256,478.609 289.391,478.609 289.391,422.957 
			356.174,422.957 356.174,478.609 389.565,478.609 389.565,512 445.217,512 445.217,478.609 478.609,478.609 478.609,422.957 
			445.217,422.957 445.217,389.565 166.957,389.565 166.957,478.609 	"/>
		<polygon points="378.435,89.043 378.435,122.435 422.957,122.435 422.957,222.609 389.565,222.609 
			389.565,256 356.174,256 356.174,289.391 256,289.391 256,256 222.609,256 222.609,222.609 189.217,222.609 189.217,122.435 
			233.739,122.435 233.739,89.043 100.174,89.043 100.174,33.391 66.783,33.391 66.783,122.435 100.174,122.435 100.174,222.609 
			133.565,222.609 133.565,389.565 166.957,389.565 166.957,356.174 445.217,356.174 445.217,322.783 478.609,322.783 
			478.609,222.609 512,222.609 512,89.043 	"/>
		<polygon points="289.391,422.957 256,422.957 256,389.565 200.348,389.565 200.348,422.957 166.957,422.957 
			166.957,478.609 200.348,478.609 200.348,512 256,512 256,478.609 289.391,478.609 	"/>
		<polygon points="478.609,422.957 445.217,422.957 445.217,389.565 389.565,389.565 389.565,422.957 
			356.174,422.957 356.174,478.609 389.565,478.609 389.565,512 445.217,512 445.217,478.609 478.609,478.609 	"/>
		<rect style="fill:#000000;" width="66.783" height="33.391"/>
		<polygon style="fill:#000000;" points="166.957,222.609 133.565,222.609 133.565,389.565 166.957,389.565 166.957,356.174 445.217,356.174 
			445.217,322.783 166.957,322.783 "/>
		<rect style="fill:#000000;" x="445.217" y="222.609" width="33.391" height="100.174"/>
		<polygon style="fill:#000000;" points="233.739,122.435 233.739,89.043 100.174,89.043 100.174,33.391 66.783,33.391 66.783,122.435 100.174,122.435 
			100.174,222.609 133.565,222.609 133.565,122.435 "/>
		<polygon style="fill:#000000;" points="378.435,89.043 378.435,122.435 478.609,122.435 478.609,222.609 512,222.609 512,89.043 "/>
		<rect style="fill:#000000;" x="200.348" y="478.609" width="55.652" height="33.391"/>
		<rect style="fill:#000000;" x="389.565" y="478.609" width="55.652" height="33.391"/>
		<rect style="fill:#000000;" x="445.217" y="422.957" width="33.391" height="55.652"/>
		<polygon style="fill:#000000;" points="166.957,478.609 200.348,478.609 200.348,422.957 256,422.957 256,478.609 289.391,478.609 289.391,422.957 
			356.174,422.957 356.174,478.609 389.565,478.609 389.565,422.957 445.217,422.957 445.217,389.565 389.565,389.565 
			389.565,389.565 256,389.565 256,389.565 200.348,389.565 200.348,389.565 166.957,389.565 "/>
		<polygon style="fill:#000000;" points="289.391,222.609 289.391,256 322.783,256 322.783,222.609 356.174,222.609 356.174,189.217 322.783,189.217 
			322.783,0 289.391,0 289.391,189.217 256,189.217 256,222.609 "/>
		<rect style="fill:#000000;" x="222.609" y="155.826" width="33.391" height="33.391"/>
		<rect style="fill:#000000;" x="356.174" y="155.826" width="33.391" height="33.391"/>
    </symbol>

    <symbol id="industries06" role="img" aria-labelledby="industries06_title" viewBox="0 0 512 512">
        <title id="industries06_title"></title>
        <polygon points="478.609,61.217 478.609,27.826 33.391,27.826 33.391,61.217 0,61.217 0,384 33.391,384 
			33.391,417.391 200.348,417.391 200.348,450.783 200.348,484.174 233.739,484.174 267.13,484.174 267.13,450.783 300.522,450.783 
			300.522,417.391 478.609,417.391 478.609,384 512,384 512,61.217 "/>
		<polygon points="478.609,61.217 478.609,27.826 66.783,27.826 33.391,27.826 33.391,61.217 0,61.217 0,384 
			33.391,384 33.391,417.391 66.783,417.391 66.783,384 66.783,339.478 66.783,94.609 411.826,94.609 478.609,94.609 512,94.609 
			512,61.217 "/>
		<rect style="fill:#000000;" x="267.13" y="417.391" width="33.391" height="33.391"/>
		<rect style="fill:#000000;"  y="61.217" width="33.391" height="322.783"/>
		<rect style="fill:#000000;"  x="478.609" y="61.217" width="33.391" height="322.783"/>
		<polygon style="fill:#000000;"  points="233.739,417.391 233.739,384 200.348,384 33.391,384 33.391,417.391 200.348,417.391 200.348,484.174 
			233.739,484.174 267.13,484.174 267.13,450.783 233.739,450.783 "/>
		<rect style="fill:#000000;"  x="33.391" y="27.826" width="445.217" height="33.391"/>
		<rect style="fill:#000000;"  x="300.522" y="384" width="178.087" height="33.391"/>
		<rect style="fill:#000000;"  x="100.174" y="128" width="311.652" height="33.391"/>
		<rect style="fill:#000000;"  x="100.174" y="205.913" width="311.652" height="33.391"/>
		<rect style="fill:#000000;"  x="100.174" y="283.826" width="311.652" height="33.391"/>
    </symbol>

    <symbol id="industries07" role="img" aria-labelledby="industries07_title" viewBox="0 0 512 512">
        <title id="industries07_title"></title>
        <polygon points="478.609,189.217 478.609,155.826 445.217,155.826 445.217,33.391 411.826,33.391 411.826,0 
			345.043,0 345.043,33.391 311.652,33.391 311.652,66.783 244.87,66.783 244.87,100.174 66.783,100.174 66.783,133.565 
			33.391,133.565 33.391,166.957 0,166.957 0,289.391 33.391,289.391 33.391,322.783 66.783,322.783 66.783,478.609 100.174,478.609 
			100.174,512 166.957,512 166.957,478.609 200.348,478.609 200.348,356.174 244.87,356.174 244.87,389.565 311.652,389.565 
			311.652,422.957 345.043,422.957 345.043,456.348 411.826,456.348 411.826,422.957 445.217,422.957 445.217,300.522 
			478.609,300.522 478.609,267.13 512,267.13 512,189.217 "/>
		<polygon points="512,189.217 478.609,189.217 478.609,155.826 411.826,155.826 411.826,300.522 
			478.609,300.522 478.609,267.13 512,267.13 	"/>
		<polygon points="200.348,322.783 155.826,322.783 155.826,100.174 66.783,100.174 66.783,133.565 
			33.391,133.565 33.391,166.957 0,166.957 0,289.391 33.391,289.391 33.391,322.783 66.783,322.783 66.783,356.174 66.783,478.609 
			100.174,478.609 100.174,512 166.957,512 166.957,478.609 200.348,478.609 	"/>
		<polygon points="66.783,100.174 66.783,133.565 33.391,133.565 33.391,166.957 0,166.957 0,200.348 
			66.783,200.348 66.783,166.957 100.174,166.957 100.174,100.174 "/>
		<polygon style="fill:#000000;" points="445.217,189.217 478.609,189.217 478.609,155.826 445.217,155.826 445.217,33.391 411.826,33.391 411.826,422.957 
			445.217,422.957 445.217,300.522 478.609,300.522 478.609,267.13 445.217,267.13 "/>
		<rect style="fill:#000000;" x="345.043" width="66.783" height="33.391"/>
		<rect style="fill:#000000;" x="345.043" y="422.957" width="66.783" height="33.391"/>
		<rect style="fill:#000000;" x="244.87" y="66.783" width="66.783" height="33.391"/>
		<rect style="fill:#000000;" x="244.87" y="356.174" width="66.783" height="33.391"/>
		<polygon style="fill:#000000;" points="155.826,322.783 155.826,133.565 244.87,133.565 244.87,100.174 66.783,100.174 66.783,133.565 122.435,133.565 
			122.435,322.783 66.783,322.783 66.783,478.609 100.174,478.609 100.174,356.174 166.957,356.174 166.957,478.609 200.348,478.609 
			200.348,356.174 244.87,356.174 244.87,322.783 "/>
		<rect style="fill:#000000;" y="166.957" width="33.391" height="122.435"/>
		<rect style="fill:#000000;" x="311.652" y="33.391" width="33.391" height="33.391"/>
		<rect style="fill:#000000;" x="311.652" y="389.565" width="33.391" height="33.391"/>
		<rect style="fill:#000000;" x="100.174" y="478.609" width="66.783" height="33.391"/>
		<rect style="fill:#000000;" x="33.391" y="133.565" width="33.391" height="33.391"/>
		<rect style="fill:#000000;" x="33.391" y="289.391" width="33.391" height="33.391"/>
		<rect style="fill:#000000;" x="478.609" y="189.217" width="33.391" height="77.913"/>
    </symbol>

    <symbol id="industries09" role="img" aria-labelledby="industries09_title" viewBox="0 0 512 512">
        <title id="industries09_title"></title>
        <polygon points="512,166.959 511.997,166.959 511.997,166.958 478.606,166.958 378.432,166.958 
			378.432,133.567 345.041,133.567 345.041,89.045 311.65,89.045 311.65,33.393 278.259,33.393 278.259,0.002 233.738,0.002 
			233.738,33.393 200.347,33.393 200.347,89.045 166.955,89.045 166.955,133.567 133.564,133.567 133.564,166.959 33.391,166.959 
			33.391,166.958 0,166.958 0,256.001 0.003,256.001 0.003,256.001 33.391,256.001 33.391,289.392 66.782,289.392 66.782,478.608 
			66.782,489.738 66.782,511.999 155.825,511.999 155.825,489.738 155.825,478.608 155.825,478.608 155.825,478.609 211.477,478.609 
			211.477,445.218 211.477,445.218 211.477,445.217 300.52,445.217 300.52,445.218 300.52,445.218 300.52,478.609 356.172,478.609 
			356.172,478.608 356.172,478.608 356.172,511.999 445.215,511.999 445.215,489.738 445.215,478.608 445.215,289.392 
			478.606,289.392 478.606,256.002 512,256.002 "/>
		<polygon points="378.432,166.958 378.432,133.567 345.041,133.567 345.041,89.045 311.65,89.045 
			311.65,33.393 278.259,33.393 278.259,0.002 233.738,0.002 233.738,33.393 200.347,33.393 200.347,89.045 166.955,89.045 
			166.955,133.567 133.564,133.567 133.564,166.958 0,166.958 0,233.74 33.391,233.74 133.564,233.74 133.564,200.349 
			166.955,200.349 166.955,166.958 200.347,166.958 200.347,133.567 200.347,122.436 233.738,122.436 233.738,89.045 233.738,66.784 
			278.259,66.784 278.259,89.045 278.259,122.436 311.65,122.436 311.65,133.567 311.65,166.958 345.041,166.958 345.041,200.349 
			378.432,200.349 378.432,233.74 478.606,233.74 511.997,233.74 511.997,166.958 "/>
		<polygon style="fill:#000000;" points="133.564,166.958 0,166.958 0,166.958 0,200.349 0,256.001 33.391,256.001 33.391,200.349 133.564,200.349 
			133.564,166.958 166.955,166.958 166.955,133.567 133.564,133.567 "/>
		<rect style="fill:#000000;" x="33.391" y="255.999" width="33.391" height="33.391"/>
		<rect style="fill:#000000;" x="200.347" y="33.392" width="33.391" height="55.652"/>
		<rect style="fill:#000000;" x="166.955" y="89.044" width="33.391" height="44.521"/>
		<rect style="fill:#000000;" x="278.259" y="33.392" width="33.391" height="55.652"/>
		<rect style="fill:#000000;" x="311.65" y="89.044" width="33.391" height="44.521"/>
		<rect style="fill:#000000;" x="155.825" y="445.216" width="55.652" height="33.391"/>
		<polygon style="fill:#000000;" points="66.782,489.738 66.782,511.999 155.825,511.999 155.825,478.608 100.173,478.608 100.173,289.392 66.782,289.392 
			66.782,478.608 "/>
		<rect style="fill:#000000;" x="445.215" y="255.999" width="33.391" height="33.391"/>
		<polygon style="fill:#000000;" points="411.823,478.608 356.172,478.608 356.172,511.999 445.215,511.999 445.215,489.738 445.215,478.608 
			445.215,289.392 411.823,289.392 "/>
		<polygon style="fill:#000000;" points="378.432,166.958 378.432,133.567 345.041,133.567 345.041,166.958 378.432,166.958 378.432,200.349 
			478.606,200.349 478.606,256.001 511.997,256.001 511.997,200.349 511.997,166.958 511.997,166.958 "/>
		<rect style="fill:#000000;" x="300.52" y="445.216" width="55.652" height="33.391"/>
		<rect style="fill:#000000;" x="233.738" y="0.001" width="44.521" height="33.391"/>
		<rect style="fill:#000000;" x="211.477" y="411.824" width="89.043" height="33.391"/>
    </symbol>

    <symbol id="industries10" role="img" aria-labelledby="industries10_title" viewBox="0 0 512 512">
        <title id="industries10_title"></title>
        <polygon style="fill:#FFFFFF;" points="456.348,133.565 456.348,66.783 422.957,66.783 422.957,33.391 389.565,33.391 389.565,0 
			122.435,0 122.435,33.391 89.043,33.391 89.043,66.783 55.652,66.783 55.652,133.565 22.261,133.565 22.261,512 489.739,512 
			489.739,133.565 "/>
		<polygon points="456.348,133.565 456.348,66.783 422.957,66.783 422.957,33.391 389.565,33.391 389.565,0 
			122.435,0 122.435,33.391 89.043,33.391 89.043,66.783 55.652,66.783 55.652,133.565 22.261,133.565 22.261,512 122.435,512 
			122.435,478.609 155.826,478.609 155.826,445.217 222.609,445.217 222.609,411.826 189.217,411.826 189.217,378.435 
			155.826,378.435 155.826,311.652 122.435,311.652 122.435,200.348 155.826,200.348 155.826,166.957 189.217,166.957 
			189.217,200.348 222.609,200.348 222.609,233.739 389.565,233.739 389.565,311.652 356.174,311.652 356.174,378.435 
			322.783,378.435 322.783,411.826 289.391,411.826 289.391,445.217 356.174,445.217 356.174,478.609 389.565,478.609 389.565,512 
			489.739,512 489.739,133.565 "/>
		<polygon points="456.348,133.565 456.348,66.783 422.957,66.783 422.957,33.391 389.565,33.391 389.565,0 
			256,0 256,233.739 389.565,233.739 389.565,311.652 356.174,311.652 356.174,378.435 322.783,378.435 322.783,411.826 
			289.391,411.826 289.391,445.217 356.174,445.217 356.174,478.609 389.565,478.609 389.565,512 489.739,512 489.739,133.565 "/>
		<polygon points="122.435,0 122.435,33.391 89.043,33.391 89.043,66.783 55.652,66.783 55.652,100.174 
			122.435,100.174 122.435,66.783 155.826,66.783 155.826,0 "/>
		<polygon style="fill:#000000;" points="422.957,200.348 222.609,200.348 222.609,233.739 389.565,233.739 389.565,311.652 422.957,311.652 "/>
		<rect style="fill:#000000;" x="189.217" y="166.957" width="33.391" height="33.391"/>
		<polygon style="fill:#000000;" points="89.043,166.957 89.043,311.652 122.435,311.652 122.435,200.348 155.826,200.348 155.826,166.957 "/>
		<rect style="fill:#000000;" x="122.435" y="311.652" width="33.391" height="66.783"/>
		<rect style="fill:#000000;" x="356.174" y="311.652" width="33.391" height="66.783"/>
		<polygon style="fill:#000000;" points="356.174,378.435 322.783,378.435 322.783,411.826 289.391,411.826 289.391,445.217 356.174,445.217 "/>
		<rect style="fill:#000000;" x="122.435" y="445.217" width="33.391" height="33.391"/>
		<rect style="fill:#000000;" x="356.174" y="445.217" width="33.391" height="33.391"/>
		<polygon style="fill:#000000;" points="155.826,445.217 222.609,445.217 222.609,411.826 189.217,411.826 189.217,378.435 155.826,378.435 "/>
		<polygon style="fill:#000000;" points="55.652,133.565 22.261,133.565 22.261,512 122.435,512 122.435,478.609 55.652,478.609 "/>
		<polygon style="fill:#000000;" points="456.348,133.565 456.348,478.609 389.565,478.609 389.565,512 489.739,512 489.739,133.565 "/>
		<rect style="fill:#000000;" x="55.652" y="66.783" width="33.391" height="66.783"/>
		<rect style="fill:#000000;" x="422.957" y="66.783" width="33.391" height="66.783"/>
		<rect style="fill:#000000;" x="122.435" width="267.13" height="33.391"/>
		<rect style="fill:#000000;" x="89.043" y="33.391" width="33.391" height="33.391"/>
		<rect style="fill:#000000;" x="389.565" y="33.391" width="33.391" height="33.391"/>
		<rect style="fill:#000000;" x="155.826" y="133.565" width="33.391" height="33.391"/>
    </symbol>

    <symbol id="footer-search" role="img" aria-labelledby="footer-search_title" viewBox="0 0 512 512">
        <title id="footer-search_title"></title>
        <rect x="166.957" y="133.565" width="33.391" height="144.696"/>
		<rect x="233.739" y="66.783" width="144.696" height="33.391"/>
		<rect x="233.739" y="311.652" width="144.696" height="33.391"/>
		<rect x="411.826" y="133.565" width="33.391" height="144.696"/>
		<rect x="200.348" y="100.174" width="33.391" height="33.391"/>
		<rect x="200.348" y="278.261" width="33.391" height="33.391"/>
		<rect x="378.435" y="100.174" width="33.391" height="33.391"/>
		<rect x="378.435" y="278.261" width="33.391" height="33.391"/>
		<rect y="411.826" width="33.391" height="66.783"/>
		<polygon points="100.174,100.174 100.174,311.652 100.174,345.043 133.565,345.043 133.565,311.652 133.565,100.174 		"/>
		<rect x="66.783" y="345.043" width="33.391" height="33.391"/>
		<rect x="33.391" y="378.435" width="33.391" height="33.391"/>
		<rect x="33.391" y="478.609" width="66.783" height="33.391"/>
		<polygon points="200.348,378.435 166.957,378.435 166.957,411.826 200.348,411.826 411.826,411.826 411.826,378.435 		"/>
		<rect x="133.565" y="411.826" width="33.391" height="33.391"/>
		<rect x="100.174" y="445.217" width="33.391" height="33.391"/>
		<rect x="478.609" y="100.174" width="33.391" height="211.478"/>
		<rect x="200.348" width="211.478" height="33.391"/>
		<rect x="133.565" y="66.783" width="33.391" height="33.391"/>
		<rect x="166.957" y="33.391" width="33.391" height="33.391"/>
		<rect x="411.826" y="33.391" width="33.391" height="33.391"/>
		<rect x="445.217" y="66.783" width="33.391" height="33.391"/>
		<rect x="445.217" y="311.652" width="33.391" height="33.391"/>
		<rect x="411.826" y="345.043" width="33.391" height="33.391"/>
    </symbol>

    <symbol id="footer-star" role="img" aria-labelledby="footer-star_title" viewBox="0 0 512 512">
        <title id="footer-star_title"></title>
        <polygon points="0,200.348 0,256 33.391,256 33.391,200.348 133.565,200.348 133.565,166.957 0,166.957 			"/>
		<rect x="133.565" y="133.565" width="33.391" height="33.391"/>
		<rect x="33.391" y="256" width="33.391" height="33.391"/>
		<rect x="200.348" y="33.391" width="33.391" height="55.652"/>
		<rect x="166.957" y="89.044" width="33.391" height="44.522"/>
		<rect x="278.261" y="33.391" width="33.391" height="55.652"/>
		<rect x="311.652" y="89.044" width="33.391" height="44.522"/>
		<rect x="155.826" y="445.217" width="55.652" height="33.391"/>
		<polygon points="100.174,478.609 100.174,289.391 66.783,289.391 66.783,478.609 66.783,489.739 66.783,512 155.826,512 
			155.826,478.609 		"/>
		<rect x="445.217" y="256" width="33.391" height="33.391"/>
		<polygon points="411.826,289.391 411.826,478.609 356.174,478.609 356.174,512 445.217,512 445.217,489.739 445.217,478.609 
			445.217,289.391 		"/>
		<rect x="345.043" y="133.565" width="33.391" height="33.391"/>
		<polygon points="378.435,166.957 378.435,200.348 478.609,200.348 478.609,256 512,256 512,200.348 512,166.957 			"/>
	<rect x="300.522" y="445.217" width="55.652" height="33.391"/>
		<rect x="233.739" width="44.522" height="33.391"/>
		<rect x="211.478" y="411.826" width="89.043" height="33.391"/>
    </symbol>

    <symbol id="footer-touch" role="img" aria-labelledby="footer-touch_title" viewBox="0 0 512 512">
        <title id="footer-touch_title"></title>
        <polygon points="0,72.348 0,139.13 33.391,139.13 33.391,105.739 478.609,105.739 478.609,139.13 512,139.13 512,72.348 		"/>
		<rect x="445.217" y="139.13" width="33.391" height="33.391"/>
		<rect x="411.826" y="172.522" width="33.391" height="33.391"/>
		<rect x="378.435" y="205.913" width="33.391" height="33.391"/>
		<rect x="345.043" y="239.304" width="33.391" height="33.391"/>
		<rect x="311.652" y="272.696" width="33.391" height="33.391"/>
		<rect x="278.261" y="306.087" width="33.391" height="33.391"/>
		<rect x="244.87" y="339.478" width="33.391" height="33.391"/>
		<rect x="211.478" y="372.87" width="33.391" height="33.391"/>
		<rect x="33.391" y="139.13" width="33.391" height="33.391"/>
		<rect x="66.783" y="172.522" width="33.391" height="33.391"/>
		<rect x="100.174" y="205.913" width="33.391" height="33.391"/>
		<polygon points="211.478,272.696 211.478,239.304 133.565,239.304 133.565,439.652 211.478,439.652 211.478,406.261 
			166.957,406.261 166.957,272.696 		"/>
		<rect x="211.478" y="205.913" width="66.783" height="33.391"/>
		<rect x="278.261" y="172.522" width="66.783" height="33.391"/>
    </symbol>

    <symbol id="footer-mail" role="img" aria-labelledby="footer-mail_title" viewBox="0 0 512 512">
        <title id="footer-mail_title"></title>
        <rect x="189.217" y="122.435" width="133.565" height="33.391"/>
		<rect x="189.217" y="345.043" width="133.565" height="33.391"/>
		<rect x="122.435" y="189.217" width="33.391" height="122.435"/>
		<rect x="66.783" y="66.783" width="33.391" height="33.391"/>
		<rect y="166.957" width="33.391" height="178.087"/>
		<rect x="33.391" y="100.174" width="33.391" height="66.783"/>
		<rect x="33.391" y="345.043" width="33.391" height="66.783"/>
		<rect x="66.783" y="411.826" width="33.391" height="33.391"/>
		<rect x="100.174" y="33.391" width="66.783" height="33.391"/>
		<rect x="166.957" width="178.087" height="33.391"/>
		<rect x="411.826" y="66.783" width="33.391" height="33.391"/>
		<rect x="345.043" y="33.391" width="66.783" height="33.391"/>
		<rect x="445.217" y="100.174" width="33.391" height="66.783"/>
		<rect x="478.609" y="166.957" width="33.391" height="178.087"/>
		<rect x="389.565" y="345.043" width="89.044" height="33.391"/>
		<rect x="166.957" y="478.609" width="178.087" height="33.391"/>
		<rect x="345.043" y="445.217" width="66.783" height="33.391"/>
		<rect x="100.174" y="445.217" width="66.783" height="33.391"/>
		<polygon points="356.173,189.217 356.173,311.652 322.781,311.652 322.781,345.043 389.564,345.043 389.564,189.217 		"/>
		<rect x="322.783" y="155.826" width="33.391" height="33.391"/>
		<rect x="155.826" y="155.826" width="33.391" height="33.391"/>
		<rect x="155.826" y="311.652" width="33.391" height="33.391"/>
    </symbol>

    <symbol id="footer-location" role="img" aria-labelledby="footer-location_title" viewBox="0 0 512 512">
        <title id="footer-location_title"></title>
        <rect x="233.739" y="478.609" width="44.522" height="33.391"/>
		<rect x="200.348" y="445.217" width="33.391" height="33.391"/>
		<rect x="278.261" y="445.217" width="33.391" height="33.391"/>
		<rect x="166.957" y="411.826" width="33.391" height="33.391"/>
		<rect x="311.652" y="411.826" width="33.391" height="33.391"/>
		<rect x="133.565" y="378.435" width="33.391" height="33.391"/>
		<rect x="345.043" y="378.435" width="33.391" height="33.391"/>
		<rect x="100.174" y="345.043" width="33.391" height="33.391"/>
		<rect x="378.435" y="345.043" width="33.391" height="33.391"/>
		<rect x="66.783" y="278.261" width="33.391" height="66.783"/>
		<rect x="411.826" y="278.261" width="33.391" height="66.783"/>
		<rect x="33.391" y="133.565" width="33.391" height="144.696"/>
		<rect x="445.217" y="133.565" width="33.391" height="144.696"/>
		<rect x="66.783" y="66.783" width="33.391" height="66.783"/>
		<rect x="411.826" y="66.783" width="33.391" height="66.783"/>
		<rect x="100.174" y="33.391" width="66.783" height="33.391"/>
		<rect x="345.043" y="33.391" width="66.783" height="33.391"/>
		<rect x="166.957" width="178.087" height="33.391"/>
		<rect x="200.348" y="66.783" width="111.304" height="33.391"/>
		<rect x="200.348" y="278.261" width="111.304" height="33.391"/>
		<rect x="133.565" y="133.565" width="33.391" height="111.304"/>
		<rect x="345.043" y="133.565" width="33.391" height="111.304"/>
		<rect x="166.957" y="100.174" width="33.391" height="33.391"/>
		<rect x="311.652" y="100.174" width="33.391" height="33.391"/>
		<rect x="166.957" y="244.87" width="33.391" height="33.391"/>
		<rect x="311.652" y="244.87" width="33.391" height="33.391"/>
	</symbol>

</svg>