<svg xmlns="http://www.w3.org/2000/svg" xmlns:xlink="http://www.w3.org/1999/xlink">

    <symbol id="footer-facebook" role="img" aria-labelledby="footer-facebook_title" viewBox="0 0 512 512">
        <title id="footer-facebook_title">Facebook</title>
        <path d="M296.296,512H200.36V256h-64v-88.225l64-0.029l-0.104-51.976C200.256,43.794,219.773,0,304.556,0h70.588v88.242h-44.115
		c-33.016,0-34.604,12.328-34.604,35.342l-0.131,44.162h79.346l-9.354,88.225L296.36,256L296.296,512z"/>
    </symbol>

    <symbol id="footer-twitter" role="img" aria-labelledby="footer-twitter_title" viewBox="0 0 512.002 512.002">
        <title id="footer-twitter_title">Twitter</title>
        <path d="M512.002,97.211c-18.84,8.354-39.082,14.001-60.33,16.54c21.686-13,38.342-33.585,46.186-58.115
		c-20.299,12.039-42.777,20.78-66.705,25.49c-19.16-20.415-46.461-33.17-76.674-33.17c-58.011,0-105.042,47.029-105.042,105.039
		c0,8.233,0.929,16.25,2.72,23.939c-87.3-4.382-164.701-46.2-216.509-109.753c-9.042,15.514-14.223,33.558-14.223,52.809
		c0,36.444,18.544,68.596,46.73,87.433c-17.219-0.546-33.416-5.271-47.577-13.139c-0.01,0.438-0.01,0.878-0.01,1.321
		c0,50.894,36.209,93.348,84.261,103c-8.813,2.399-18.094,3.687-27.674,3.687c-6.769,0-13.349-0.66-19.764-1.888
		c13.368,41.73,52.16,72.104,98.126,72.949c-35.95,28.176-81.243,44.967-130.458,44.967c-8.479,0-16.84-0.496-25.058-1.471
		c46.486,29.807,101.701,47.197,161.021,47.197c193.211,0,298.868-160.062,298.868-298.872c0-4.554-0.104-9.084-0.305-13.59
		C480.111,136.775,497.92,118.275,512.002,97.211z"/>
    </symbol>

    <symbol id="footer-instagram" role="img" aria-labelledby="footer-instagram_title" viewBox="0 0 97.395 97.395">
        <title id="footer-instagram_title">Instagram</title>
        <path d="M12.501,0h72.393c6.875,0,12.5,5.09,12.5,12.5v72.395c0,7.41-5.625,12.5-12.5,12.5H12.501C5.624,97.395,0,92.305,0,84.895
		V12.5C0,5.09,5.624,0,12.501,0L12.501,0z M70.948,10.821c-2.412,0-4.383,1.972-4.383,4.385v10.495c0,2.412,1.971,4.385,4.383,4.385
		h11.008c2.412,0,4.385-1.973,4.385-4.385V15.206c0-2.413-1.973-4.385-4.385-4.385H70.948L70.948,10.821z M86.387,41.188h-8.572
		c0.811,2.648,1.25,5.453,1.25,8.355c0,16.2-13.556,29.332-30.275,29.332c-16.718,0-30.272-13.132-30.272-29.332
		c0-2.904,0.438-5.708,1.25-8.355h-8.945v41.141c0,2.129,1.742,3.872,3.872,3.872h67.822c2.13,0,3.872-1.742,3.872-3.872V41.188
		H86.387z M48.789,29.533c-10.802,0-19.56,8.485-19.56,18.953c0,10.468,8.758,18.953,19.56,18.953
		c10.803,0,19.562-8.485,19.562-18.953C68.351,38.018,59.593,29.533,48.789,29.533z"/>
    </symbol>

    <symbol id="footer-linkedin" role="img" aria-labelledby="footer-linkedin_title" viewBox="0 0 93.06 93.06">
        <title id="footer-linkedin_title">Linkedin</title>
        <path d="M11.185,0.08C5.004,0.08,0.001,5.092,0,11.259c0,6.173,5.003,11.184,11.186,11.184c6.166,0,11.176-5.011,11.176-11.184
			C22.362,5.091,17.351,0.08,11.185,0.08z"/>
		<rect x="1.538" y="30.926" width="19.287" height="62.054"/>
		<path d="M69.925,29.383c-9.382,0-15.673,5.144-18.248,10.022h-0.258v-8.479H32.921H32.92v62.053h19.27V62.281
			c0-8.093,1.541-15.932,11.575-15.932c9.89,0,10.022,9.256,10.022,16.451v30.178H93.06V58.942
			C93.06,42.235,89.455,29.383,69.925,29.383z"/>
    </symbol>

    <symbol id="footer-pinterest" role="img" aria-labelledby="footer-pinterest_title" viewBox="0 0 486.392 486.392">
        <title id="footer-pinterest_title">pPinterest</title>
		<path d="M430.149,135.248C416.865,39.125,321.076-9.818,218.873,1.642
			C138.071,10.701,57.512,76.03,54.168,169.447c-2.037,57.029,14.136,99.801,68.399,111.84
			c23.499-41.586-7.569-50.676-12.433-80.802C90.222,77.367,252.16-6.718,336.975,79.313c58.732,59.583,20.033,242.77-74.57,223.71
			c-90.621-18.179,44.383-164.005-27.937-192.611c-58.793-23.286-90.013,71.135-62.137,118.072
			c-16.355,80.711-51.557,156.709-37.3,257.909c46.207-33.561,61.802-97.734,74.57-164.704
			c23.225,14.136,35.659,28.758,65.268,31.038C384.064,361.207,445.136,243.713,430.149,135.248z"/>
    </symbol>

    <symbol id="footer-google" role="img" aria-labelledby="footer-google_title" viewBox="0 90 320 320">
        <title id="footer-google_title">Google</title>
		<path d="M160,224v64h90.528c-13.216,37.248-48.8,64-90.528,64c-52.928,0-96-43.072-96-96c0-52.928,43.072-96,96-96
			c22.944,0,45.024,8.224,62.176,23.168l42.048-48.256C235.424,109.824,198.432,96,160,96C71.776,96,0,167.776,0,256
			s71.776,160,160,160s160-71.776,160-160v-32H160z"/>
    </symbol>

    <symbol id="footer-phone" role="img" aria-labelledby="footer-phone_title" viewBox="0 0 504.375 504.375">
        <title id="footer-phone_title"></title>
        <path d="M443.292,157.799l29.392-12.656c-4.539-10.491-9.81-20.65-15.776-30.4l-27.296,16.704
			C434.791,139.895,439.363,148.701,443.292,157.799z"/>
		<path d="M412.332,107.239l24.64-20.4c-7.294-8.803-15.208-17.075-23.68-24.752l-21.488,23.776
			C399.142,92.495,406.002,99.638,412.332,107.239z"/>
		<path d="M483.948,177.527l-30.896,8.304c29.815,111.067-36.053,225.274-147.12,255.088c-17.533,4.707-35.606,7.1-53.76,7.12
			c-31.242-0.006-62.073-7.119-90.16-20.8l-5.936-2.864l-90.928,31.328l19.584-92.192l-3.904-5.68
			C15.804,263.13,39.862,133.648,134.563,68.624c70.356-48.308,163.081-48.736,233.88-1.081l17.904-26.528
			C276.438-33.072,127.279-4.032,53.192,105.878c-53.686,79.645-54.717,183.627-2.62,264.32l-28.48,134.176l132.08-45.472
			c30.788,13.948,64.201,21.154,98,21.136c132.654-0.105,240.107-107.728,240.002-240.382
			C492.157,218.676,489.391,197.788,483.948,177.527z"/>
		<path d="M256.06,168.279l-79.2-79.2l-45.264,45.264c-31.188,31.264-31.188,81.872,0,113.136l113.152,113.12
			c31.24,31.231,81.88,31.231,113.12,0l45.28-45.248l-79.216-79.184l-22.624,22.624c-6.248,6.246-16.376,6.246-22.624,0
			l-45.264-45.264c-6.246-6.248-6.246-16.376,0-22.624L256.06,168.279z M256.06,281.415c18.744,18.738,49.128,18.738,67.872,0
			l33.936,33.936l-22.624,22.624c-18.993,18.127-48.879,18.127-67.872,0L154.22,224.855c-18.705-18.764-18.705-49.124,0-67.888
			l22.64-22.624l33.936,33.936c-18.738,18.744-18.738,49.128,0,67.872L256.06,281.415z"/>
    </symbol>

	<symbol id="footer-mail" role="img" aria-labelledby="footer-mail_title" viewBox="0 0 512 512">
        <title id="footer-mail_title"></title>
        <path d="M368,34.072v32h75.2L256,190.872L68.8,66.072H208v-32H0v320h112v123.856l212.336-123.856H512v-320H368z M32,79.96
			l125.504,83.712L32,297.592V79.96z M315.664,322.072L144,422.216V322.072H52.912L184.48,181.624L256,229.272l71.52-47.68
			l131.568,140.48H315.664z M480,297.592l-125.504-133.92L480,79.96V297.592z"/>
		<rect x="304" y="34.072" width="32" height="32"/>
		<rect x="240" y="34.072" width="32" height="32"/>
    </symbol>

    <symbol id="footer-location" role="img" aria-labelledby="footer-location_title" viewBox="0 0 496.261 496.261">
        <title id="footer-location_title"></title>
        <path d="M248.118,79.989c-61.856,0-112,50.144-112,112s50.144,112,112,112s112-50.144,112-112
			C360.047,130.162,309.944,80.059,248.118,79.989z M248.118,271.989c-44.183,0-80-35.817-80-80s35.817-80,80-80s80,35.817,80,80
			C328.065,236.15,292.279,271.936,248.118,271.989z"/>
		<path d="M404.47,157.861l31.296-6.768c-2.479-11.382-5.987-22.516-10.48-33.264l-29.52,12.368
			C399.515,139.129,402.429,148.39,404.47,157.861z"/>
		<path d="M440.006,185.669l-32,1.024c0,1.76,0,3.536,0,5.296c-0.064,66.875-41.689,126.664-104.384,149.936l-5.488,2.016
			l-50.016,87.776l-50.128-87.728l-5.488-2.016c-82.839-30.76-125.057-122.85-94.297-205.689s122.85-125.057,205.689-94.297
			c13.691,5.084,26.622,12.018,38.432,20.61l18.832-25.808C275.429-25.62,155.341-6.716,92.932,79.012
			s-43.505,205.817,42.224,268.226c12.618,9.186,26.309,16.799,40.771,22.671l72.192,126.352l72.192-126.4
			c72.367-29.44,119.722-99.746,119.808-177.872C440.118,189.877,440.118,187.765,440.006,185.669z"/>
		<path d="M408.966,87.029c-6.389-9.73-13.634-18.87-21.648-27.312l-23.184,22.032c6.691,7.04,12.732,14.671,18.048,22.8
			L408.966,87.029z"/>
    </symbol>

    <symbol id="footer-time01" role="img" aria-labelledby="footer-time01_title" viewBox="0 0 507.289 507.289">
        <title id="footer-time01_title"></title>
        <path d="M153.712,375.691l-24,21.248c7.642,8.598,15.944,16.585,24.832,23.888l20.288-24.8
			C167.265,389.818,160.203,383.018,153.712,375.691z"/>
		<path d="M122.176,326.187l-29.408,12.624c4.547,10.596,9.946,20.805,16.144,30.528l26.992-17.152
			C130.64,343.901,126.049,335.207,122.176,326.187z"/>
		<path d="M399.595,66.763c-32.9-19.075-70.253-29.126-108.283-29.136C183.147,37.801,91.764,117.904,77.424,225.115l-54.8-54.8
			L0,192.939l91.312,91.312l91.312-91.312L160,170.315l-49.488,49.424c18.803-99.758,114.916-165.384,214.674-146.581
			S490.57,188.074,471.767,287.831S356.851,453.216,257.093,434.412c-20.449-3.854-40.095-11.153-58.101-21.586l-16.08,27.664
			c103.202,59.835,235.37,24.679,295.205-78.523C537.953,258.766,502.797,126.598,399.595,66.763z"/>
		<polygon points="267.312,109.627 267.312,285.627 337.712,338.427 356.912,312.827 299.312,269.627 299.312,109.627 			"/>
    </symbol>

    <symbol id="footer-time02" role="img" aria-labelledby="footer-time02_title" viewBox="0 0 507.482 507.482">
        <title id="footer-time02_title"></title>
        <path d="M123.472,123.508l-24.288-20.832c-7.467,8.706-14.28,17.953-20.384,27.664l27.2,17.008
			C111.217,138.974,117.058,131.005,123.472,123.508z"/>
		<path d="M168.112,84.82l-17.216-26.992c-9.69,6.151-18.91,13.012-27.584,20.528l20.96,24.16
			C151.772,96.038,159.74,90.123,168.112,84.82z"/>
		<path d="M482.815,149.716c-39.367-78.501-119.684-128.045-207.503-128c-32.429-0.066-64.508,6.705-94.144,19.872l12.976,29.248
			c101.002-44.714,219.128,0.916,263.842,101.918s-0.916,219.128-101.918,263.842c-25.435,11.26-52.94,17.091-80.756,17.12
			c-75.716,0.332-145.02-42.46-178.64-110.304l-28.624,14.304C125.486,472.251,264.897,518.537,379.432,461.1
			C493.967,403.662,540.253,264.251,482.815,149.716z"/>
		<path d="M96,210.404L76.912,229.46c1.826-15.819,5.588-31.354,11.2-46.256c1.232-3.28,2.56-6.528,3.952-9.744l-29.344-12.8
			c-1.6,3.696-3.2,7.44-4.528,11.2c-7.366,19.345-12.044,39.608-13.904,60.224l-21.664-21.68L0,233.028l59.312,59.312
			l59.312-59.312L96,210.404z"/>
		<polygon points="251.312,109.716 251.312,269.716 347.312,269.716 347.312,237.716 283.312,237.716 283.312,109.716 			"/>
		<rect x="379.312" y="237.716" width="32" height="32"/>
		<rect x="251.312" y="365.716" width="32" height="32"/>
    </symbol>

    <symbol id="footer-time03" role="img" aria-labelledby="footer-time03_title" viewBox="0 0 512 512">
        <title id="footer-time03_title"></title>
        <path d="M0,0v512h512V0H0z M480,480H32V32h448V480z"/>
		<path d="M176,240v48h32v-48c-0.004-15.055-7.07-29.236-19.088-38.304L256,134.624l67.088,67.072
			C311.07,210.764,304.004,224.945,304,240v48h32v-48c0-8.837,7.163-16,16-16h38.624L256,89.376L121.376,224H160
			C168.837,224,176,231.163,176,240z"/>
		<rect x="304" y="384" width="32" height="32"/>
		<rect x="304" y="320" width="32" height="32"/>
		<rect x="176" y="384" width="32" height="32"/>
		<rect x="176" y="320" width="32" height="32"/>
    </symbol>

    <symbol id="link-arrow" role="img" aria-labelledby="link-arrow_title" viewBox="0 0 512 512">
        <title id="link-arrow_title"></title>
        <path d="M256,0C114.615,0,0,114.615,0,256s114.615,256,256,256s256-114.615,256-256C511.833,114.685,397.315,0.167,256,0z
			 M256,480C132.288,480,32,379.712,32,256S132.288,32,256,32s224,100.288,224,224C479.868,379.657,379.657,479.868,256,480z"/>
		<polygon points="126.88,256 208,256 208,224 196.336,224 256,154.24 315.664,224 240,224 240,288 272,288 272,256 385.12,256 
			256,104.992 			"/>
		<rect x="240" y="384" width="32" height="32"/>
		<rect x="240" y="320" width="32" height="32"/>
    </symbol>

</svg>