<svg xmlns="http://www.w3.org/2000/svg" xmlns:xlink="http://www.w3.org/1999/xlink">
  
    <symbol id="begin01" role="img" aria-labelledby="begin01_title" viewBox="0 0 584.4 639.4">
        <title id="begin01_title"></title>
        <path d="M522.2,497.1c-30.4-11-70.2-19.5-116.3-24.8c4.5-4.5,8.8-9.1,13.2-13.7c41.2-44.3,68.7-87.6,83.9-132.5
			c32.7-96.3,0.6-215.5-74.8-277.4C389.8,17.3,341,0,290.7,0c0,0,0,0,0,0c-50.3,0-99.1,17.3-137.5,48.8C117.5,78.1,90,121.1,75.8,170
			c-14,48.3-14.4,99.4-0.9,143.8c18,59.4,56.7,111.8,102.2,158.5c-45.9,5.3-85.6,13.8-115.9,24.7C19.8,512-1.2,530.7-1.2,552.6
			c0,26.8,30.8,48.5,91.4,64.6c53.9,14.3,125.5,22.1,201.4,22.1c75.9,0,147.4-7.9,201.4-22.1c60.7-16,91.4-37.8,91.4-64.6
			C584.4,530.7,563.5,512,522.2,497.1z M100,177c12.8-44.1,37.4-82.7,69.2-108.8c33.9-27.8,77-43.1,121.5-43.1
			c44.5,0,87.6,15.3,121.5,43.1c32.9,27,57.8,67.7,70,114.5c12,46.1,10.9,94.1-3,135.3c-31.5,92.7-114.5,161.9-188.5,222.8
			C212.3,476.2,127.2,399.5,99,306.5C86.9,266.7,87.3,220.7,100,177z M486.5,592.9c-51.9,13.7-121.1,21.3-194.9,21.3
			s-143-7.6-194.9-21.3C39.3,577.7,24,560.5,24,552.6c0-16.7,56.1-46.3,176.3-57.4c25.1,23.8,51.4,46.1,76.9,67.1
			c10.4,8.5,16.5,8.7,27,0c24.9-20.5,52-42.9,78.1-67.2c120.7,11.1,176.9,40.8,176.9,57.5C559.2,560.5,543.9,577.7,486.5,592.9z"/>
		<path d="M359,362.7c14.6-6.9,3.9-29.7-10.7-22.8c-17.9,8.4-38,13.1-56.7,13.1c-71.2,0-129.2-57.9-129.2-129.2
			c0-71.2,57.9-129.2,129.2-129.2s129.2,57.9,129.2,129.2c0,17.6-3.5,34.6-10.3,50.6c-6.3,14.9,16.8,24.8,23.2,9.9
			c8.2-19.1,12.3-39.5,12.3-60.4c0-85.1-69.2-154.4-154.3-154.4c-85.1,0-154.4,69.2-154.4,154.4s69.2,154.3,154.4,154.3
			C313.9,378.2,337.8,372.7,359,362.7C365.3,359.8,337.8,372.7,359,362.7C373.6,355.9,337.8,372.7,359,362.7z"/>
		<path d="M394.9,308.1c-6.8,0-12.6,5.8-12.6,12.6c0,6.8,5.8,12.6,12.6,12.6c6.6,0,12.3-5.4,12.6-12
			C407.8,314.2,402,308.1,394.9,308.1z"/>
		<path d="M369.2,192l-70-54.4c-3.5-2.7-8.4-2.7-12,0l-70,54.4c-2.4,1.9-3.8,4.7-3.8,7.7v14.8c0,5.4,4.4,9.7,9.7,9.7h8.2v59.6
			c0,5.4,4.4,9.7,9.7,9.7h104c5.4,0,9.7-4.4,9.7-9.7v-59.6h8.2c5.4,0,9.7-4.4,9.7-9.7v-14.8C373,196.7,371.6,193.9,369.2,192z
			 M241.3,204.7H233v-0.3l60.2-46.9l60.2,46.9v0.3h-8.2c-5.4,0-9.7,4.4-9.7,9.7v59.6H251v-59.6C251,209.1,246.6,204.7,241.3,204.7z"
			/>
		<path d="M275,261.7h36.6c5.4,0,9.7-4.4,9.7-9.7v-36.6c0-5.4-4.4-9.7-9.7-9.7H275c-5.4,0-9.7,4.4-9.7,9.7V252
			C265.2,257.3,269.6,261.7,275,261.7z M284.7,242.2v-17.1h17.1v17.1H284.7z"/>
    </symbol>

    <symbol id="begin02" role="img" aria-labelledby="begin02_title" viewBox="0 0 584.4 639.4">
        <title id="begin02_title"></title>
        <path d="M522.2,497.1c-30.4-11-70.2-19.5-116.3-24.8c4.5-4.5,8.8-9.1,13.2-13.7c41.2-44.3,68.7-87.6,83.9-132.5
			c32.7-96.3,0.6-215.5-74.8-277.4C389.8,17.3,341,0,290.7,0c0,0,0,0,0,0c-50.3,0-99.1,17.3-137.5,48.8C117.5,78.1,90,121.1,75.8,170
			c-14,48.3-14.4,99.4-0.9,143.8c18,59.4,56.7,111.8,102.2,158.5c-45.9,5.3-85.6,13.8-115.9,24.7C19.8,512-1.2,530.7-1.2,552.6
			c0,26.8,30.8,48.5,91.4,64.6c53.9,14.3,125.5,22.1,201.4,22.1c75.9,0,147.4-7.9,201.4-22.1c60.7-16,91.4-37.8,91.4-64.6
			C584.4,530.7,563.5,512,522.2,497.1z M100,177c12.8-44.1,37.4-82.7,69.2-108.8c33.9-27.8,77-43.1,121.5-43.1
			c44.5,0,87.6,15.3,121.5,43.1c32.9,27,57.8,67.7,70,114.5c12,46.1,10.9,94.1-3,135.3c-31.5,92.7-114.5,161.9-188.5,222.8
			C212.3,476.2,127.2,399.5,99,306.5C86.9,266.7,87.3,220.7,100,177z M486.5,592.9c-51.9,13.7-121.1,21.3-194.9,21.3
			s-143-7.6-194.9-21.3C39.3,577.7,24,560.5,24,552.6c0-16.7,56.1-46.3,176.3-57.4c25.1,23.8,51.4,46.1,76.9,67.1
			c10.4,8.5,16.5,8.7,27,0c24.9-20.5,52-42.9,78.1-67.2c120.7,11.1,176.9,40.8,176.9,57.5C559.2,560.5,543.9,577.7,486.5,592.9z"/>
		<path d="M359,362.7c14.6-6.9,3.9-29.7-10.7-22.8c-17.9,8.4-38,13.1-56.7,13.1c-71.2,0-129.2-57.9-129.2-129.2
			c0-71.2,57.9-129.2,129.2-129.2s129.2,57.9,129.2,129.2c0,17.6-3.5,34.6-10.3,50.6c-6.3,14.9,16.8,24.8,23.2,9.9
			c8.2-19.1,12.3-39.5,12.3-60.4c0-85.1-69.2-154.4-154.3-154.4c-85.1,0-154.4,69.2-154.4,154.4s69.2,154.3,154.4,154.3
			C313.9,378.2,337.8,372.7,359,362.7C365.3,359.8,337.8,372.7,359,362.7C373.6,355.9,337.8,372.7,359,362.7z"/>
		<path d="M394.9,308.1c-6.8,0-12.6,5.8-12.6,12.6c0,6.8,5.8,12.6,12.6,12.6c6.6,0,12.3-5.4,12.6-12
			C407.8,314.2,402,308.1,394.9,308.1z"/>
		<path d="M372.7,211.3h-38.9c-4.2-14.2-15.4-25.4-29.6-29.6v-28.6c0-16.2-25.2-16.2-25.2,0v28.6c-18.2,5.4-31.5,22.3-31.5,42.2
			c0,24.3,19.8,44,44,44c19.9,0,36.8-13.3,42.2-31.5h38.9C388.9,236.5,388.9,211.3,372.7,211.3z M291.6,242.8
			c-10.4,0-18.9-8.5-18.9-18.9c0-10.4,8.5-18.9,18.9-18.9c10.4,0,18.9,8.5,18.9,18.9C310.5,234.3,302,242.8,291.6,242.8z"/>
    </symbol>

    <symbol id="begin03" role="img" aria-labelledby="begin03_title" viewBox="0 0 584.4 639.4">
        <title id="begin03_title"></title>
        <path d="M522.2,497.1c-30.4-11-70.2-19.5-116.3-24.8c4.5-4.5,8.8-9.1,13.2-13.7c41.2-44.3,68.7-87.6,83.9-132.5
			c32.7-96.3,0.6-215.5-74.8-277.4C389.8,17.3,341,0,290.7,0c0,0,0,0,0,0c-50.3,0-99.1,17.3-137.5,48.8C117.5,78.1,90,121.1,75.8,170
			c-14,48.3-14.4,99.4-0.9,143.8c18,59.4,56.7,111.8,102.2,158.5c-45.9,5.3-85.6,13.8-115.9,24.7C19.8,512-1.2,530.7-1.2,552.6
			c0,26.8,30.8,48.5,91.4,64.6c53.9,14.3,125.5,22.1,201.4,22.1c75.9,0,147.4-7.9,201.4-22.1c60.7-16,91.4-37.8,91.4-64.6
			C584.4,530.7,563.5,512,522.2,497.1z M100,177c12.8-44.1,37.4-82.7,69.2-108.8c33.9-27.8,77-43.1,121.5-43.1
			c44.5,0,87.6,15.3,121.5,43.1c32.9,27,57.8,67.7,70,114.5c12,46.1,10.9,94.1-3,135.3c-31.5,92.7-114.5,161.9-188.5,222.8
			C212.3,476.2,127.2,399.5,99,306.5C86.9,266.7,87.3,220.7,100,177z M486.5,592.9c-51.9,13.7-121.1,21.3-194.9,21.3
			s-143-7.6-194.9-21.3C39.3,577.7,24,560.5,24,552.6c0-16.7,56.1-46.3,176.3-57.4c25.1,23.8,51.4,46.1,76.9,67.1
			c10.4,8.5,16.5,8.7,27,0c24.9-20.5,52-42.9,78.1-67.2c120.7,11.1,176.9,40.8,176.9,57.5C559.2,560.5,543.9,577.7,486.5,592.9z"/>
		<path d="M359,362.7c14.6-6.9,3.9-29.7-10.7-22.8c-17.9,8.4-38,13.1-56.7,13.1c-71.2,0-129.2-57.9-129.2-129.2
			c0-71.2,57.9-129.2,129.2-129.2s129.2,57.9,129.2,129.2c0,17.6-3.5,34.6-10.3,50.6c-6.3,14.9,16.8,24.8,23.2,9.9
			c8.2-19.1,12.3-39.5,12.3-60.4c0-85.1-69.2-154.4-154.3-154.4c-85.1,0-154.4,69.2-154.4,154.4s69.2,154.3,154.4,154.3
			C313.9,378.2,337.8,372.7,359,362.7C365.3,359.8,337.8,372.7,359,362.7C373.6,355.9,337.8,372.7,359,362.7z"/>
		<path d="M394.9,308.1c-6.8,0-12.6,5.8-12.6,12.6c0,6.8,5.8,12.6,12.6,12.6c6.6,0,12.3-5.4,12.6-12
			C407.8,314.2,402,308.1,394.9,308.1z"/>
		<path d="M221.2,283.7c0,5.5,4.4,9.9,9.9,9.9h126.2c5.4,0,9.9-4.4,9.9-9.9c0-25-12.7-47.9-33.2-61.2c3.9-6.8,6.2-14.6,6.2-22.9v-18
			c0-25.3-20.6-45.9-45.9-45.9c-25.3,0-45.9,20.6-45.9,45.9v18c0,8.4,2.3,16.2,6.2,22.9C233.9,235.8,221.2,258.7,221.2,283.7z
			 M346.5,273.8H241.9c2.9-15.4,12.4-28.8,26.2-36.5c7.4,5.1,16.4,8.2,26.1,8.2c9.7,0,18.7-3,26.1-8.2
			C334.1,245,343.6,258.4,346.5,273.8z M268,195.2c1.1,0.1,2.1,0.1,3.3,0.1c7,0,15.4-1.5,25-4.4c8.7-2.6,17.2-6.1,24.1-9.5
			c0,0,0,0.1,0,0.1v18c0,7.3-3,13.8-7.8,18.6c-0.3,0.2-0.5,0.5-0.8,0.8c-4.7,4.2-10.8,6.8-17.6,6.8c-6.8,0-13-2.6-17.6-6.8
			c-0.2-0.3-0.5-0.5-0.8-0.7c-4.8-4.8-7.8-11.3-7.8-18.6V195.2z M294.2,155.3c7.3,0,13.9,3,18.6,7.8c-6,3-14.1,6.4-22.3,8.9
			c-11.1,3.4-18,3.9-21.8,3.5C271.4,163.9,281.8,155.3,294.2,155.3z"/>
    </symbol>

    <symbol id="begin04" role="img" aria-labelledby="begin04_title" viewBox="0 0 584.4 639.4">
        <title id="begin04_title"></title>
        <path d="m521.242188 496.71875c-30.347657-10.972656-70.167969-19.449219-116.179688-24.789062 4.445312-4.503907 8.835938-9.066407 13.144531-13.695313 41.1875-44.273437 68.609375-87.5625 83.839844-132.332031 32.710937-96.164063.578125-215.285156-74.75-277.078125-38.316406-31.429688-87.09375-48.7421878-137.34375-48.7421878-.003906 0 0 0 0 0-50.246094 0-99.027344 17.3124998-137.34375 48.7421878-35.671875 29.265625-63.140625 72.273437-77.347656 121.101562-14.035157 48.257813-14.355469 99.265625-.910157 143.640625 17.992188 59.367188 56.628907 111.652344 102.074219 158.386719-45.851562 5.335937-85.542969 13.785156-115.828125 24.722656-41.316406 14.917969-62.261718 33.605469-62.261718 55.535157 0 26.78125 30.738281 48.484374 91.355468 64.519531 53.894532 14.253906 125.335938 22.105469 201.171875 22.105469 75.828125 0 147.273438-7.851563 201.167969-22.105469 60.617188-16.035157 91.355469-37.738281 91.355469-64.519531 0-21.910157-20.914063-40.578126-62.144531-55.492188zm-421.828126-319.765625c12.800782-44.003906 37.359376-82.605469 69.148438-108.683594 33.828125-27.753906 76.941406-43.035156 121.390625-43.035156 44.445313 0 87.558594 15.289063 121.390625 43.039063 32.894531 26.984374 57.734375 67.605468 69.9375 114.386718 12.015625 46.046875 10.933594 94.046875-3.046875 135.148438-31.511719 92.628906-114.414063 161.707031-188.28125 222.59375-78.273437-64.597656-163.367187-141.195313-191.527344-234.128906-12.050781-39.769532-11.703125-85.695313.988281-129.320313zm386.183594 415.457031c-51.855468 13.71875-121.019531 21.273438-194.734375 21.273438-73.726562 0-142.886719-7.554688-194.742187-21.273438-57.335938-15.164062-72.632813-32.402344-72.632813-40.195312 0-16.707032 56.007813-46.292969 176.125-57.390625 25.03125 23.761719 51.328125 46.03125 76.84375 67.050781 10.355469 8.535156 16.464844 8.671875 26.996094-.003906 24.851563-20.484375 51.933594-42.816406 78.027344-67.101563 120.550781 11.054688 176.75 40.722657 176.75 57.445313 0 7.792968-15.296875 25.03125-72.632813 40.195312zm0 0"/>
        <path d="m358.1875 362.496094c14.609375-6.882813 3.910156-29.648438-10.71875-22.757813-17.871094 8.414063-37.980469 13.054688-56.625 13.054688-71.15625 0-129.046875-57.894531-129.046875-129.050781 0-71.160157 57.890625-129.050782 129.046875-129.050782s129.046875 57.890625 129.046875 129.050782c0 17.539062-3.453125 34.542968-10.261719 50.53125-6.332031 14.855468 16.800782 24.738281 23.136719 9.859374 8.148437-19.125 12.277344-39.441406 12.277344-60.390624 0-85.023438-69.171875-154.199219-154.199219-154.199219s-154.203125 69.175781-154.203125 154.199219c0 85.023437 69.175781 154.199218 154.203125 154.199218 22.269531 0 46.1875-5.484375 67.34375-15.445312zm0 0"/>
        <path d="m394.082031 307.9375c-6.832031 0-12.574219 5.722656-12.574219 12.5625 0 6.84375 5.738282 12.574219 12.574219 12.574219 6.652344 0 12.261719-5.390625 12.554688-12.023438.3125-7.046875-5.488281-13.113281-12.554688-13.113281zm0 0"/>
        <path d="m388.628906 194.585938c-1.285156-3.949219-4.429687-7.007813-8.40625-8.175782l-49.707031-14.65625-29.296875-42.746094c-4.910156-7.160156-15.839844-7.160156-20.746094 0l-29.300781 42.746094-49.707031 14.65625c-8.316406 2.449219-11.710938 12.839844-6.40625 19.730469l31.597656 41.070313-1.421875 51.804687c-.242187 8.667969 8.589844 15.105469 16.78125 12.191406l48.828125-17.363281 48.828125 17.363281c8.1875 2.914063 17.023437-3.523437 16.785156-12.191406l-1.425781-51.804687 31.605469-41.070313c2.523437-3.289063 3.273437-7.613281 1.992187-11.554687zm-56.257812 40.832031c-7.558594 9.824219-1.878906 34.347656-1.5625 45.945312l-35.75-12.714843c-11.683594-4.15625-33.246094 8.828124-44.175782 12.714843.316407-11.503906 5.972657-36.148437-1.566406-45.945312l-23.136718-30.078125 36.398437-10.726563c11.890625-3.507812 21.710937-26.683593 28.265625-36.25l21.449219 31.300781c7.007812 10.222657 32.085937 12.398438 43.21875 15.683594zm0 0"/>
    </symbol>

    <symbol id="footer-facebook" role="img" aria-labelledby="footer-facebook_title" viewBox="0 0 314.652 314.652">
        <title id="footer-facebook_title">Facebook</title>
        <path d="M193.764,71.952H172.43c-17.461,0-31.667,14.206-31.667,31.667v24h-19.875c-4.971,0-9,4.029-9,9s4.029,9,9,9h19.875v83.333
		c0,4.971,4.029,9,9,9s9-4.029,9-9v-83.333h30.75c4.971,0,9-4.029,9-9s-4.029-9-9-9h-30.75v-24c0-7.536,6.131-13.667,13.667-13.667
		h21.333c4.971,0,9-4.029,9-9S198.734,71.952,193.764,71.952z"/>
    </symbol>

    <symbol id="footer-twitter" role="img" aria-labelledby="footer-twitter_title" viewBox="0 0 324.142 324.142">
        <title id="footer-twitter_title">Twitter</title>
        <path d="M253.389,102.125c0.572-1.293,1.08-2.619,1.521-3.974c0.963-2.96-0.002-6.209-2.427-8.162
			c-2.425-1.954-5.804-2.204-8.492-0.633c-5.124,2.998-10.619,5.252-16.38,6.723c-7.721-6.577-17.7-10.282-27.988-10.282
			c-23.436,0-42.529,18.709-42.768,41.793c-22.825-3.3-43.8-14.938-58.529-32.722c-1.558-1.88-3.944-2.883-6.365-2.693
			c-2.434,0.192-4.622,1.556-5.865,3.657c-3.812,6.439-5.826,13.797-5.826,21.278c0,6.252,1.391,12.307,3.974,17.799
			c-0.197,0.094-0.391,0.198-0.581,0.311c-2.277,1.351-3.673,3.803-3.673,6.45v0.437c0,11.941,5.121,22.946,13.467,30.728
			c-1.136,1.855-1.422,4.136-0.734,6.244c3.501,10.73,11.073,19.349,20.719,24.391c-7.661,3.141-15.915,4.764-24.452,4.764
			c-2.533,0-5.072-0.146-7.548-0.436c-3.48-0.403-6.776,1.649-7.942,4.953c-1.166,3.303,0.109,6.973,3.072,8.841
			c17.386,10.961,37.47,16.754,58.082,16.754c40.536,0,65.935-18.863,80.104-34.687c17.643-19.703,27.761-45.804,27.761-71.609
			c0-0.278,0-0.55-0.002-0.814c6.27-4.956,11.713-10.811,16.217-17.45c1.875-2.764,1.696-6.436-0.438-9.004
			C257.03,103.259,255.259,102.342,253.389,102.125z M227.518,132.05c0,22.162-8.724,44.615-23.936,61.603
			c-12.129,13.546-33.933,29.693-68.929,29.693c-8.136,0-16.176-1.046-23.941-3.087c9.592-2.706,18.602-7.229,26.673-13.449
			c2.523-1.944,3.543-5.27,2.543-8.294s-3.8-5.087-6.985-5.145c-7.847-0.143-15.056-3.501-20.096-8.958
			c1.648-0.243,3.28-0.58,4.887-1.01c3.369-0.903,5.67-4.008,5.555-7.493c-0.116-3.485-2.619-6.431-6.04-7.109
			c-9.1-1.801-16.438-7.918-19.973-15.899c1.962,0.339,3.948,0.543,5.94,0.61c3.373,0.108,6.378-2.023,7.396-5.224
			c1.018-3.201-0.217-6.688-3.021-8.536c-7.717-5.084-12.324-13.548-12.324-22.642c0-1.125,0.071-2.246,0.211-3.355
			c18.659,17.722,43.334,28.378,69.408,29.667c2.343,0.117,4.62-0.878,6.128-2.685s2.081-4.217,1.545-6.51
			c-0.471-2.02-0.71-4.105-0.71-6.199c0-15.015,12.458-27.23,27.771-27.23c7.683,0,15.085,3.149,20.312,8.64
			c1.464,1.54,3.483,2.381,5.582,2.328c-0.833,1.72-1.005,3.745-0.361,5.662c0.755,2.246,2.491,3.934,4.612,4.683
			c-1.569,1.488-2.434,3.597-2.331,5.791C227.492,129.114,227.518,130.432,227.518,132.05z"/>
    </symbol>    

    <symbol id="footer-linkedin" role="img" aria-labelledby="footer-linkedin_title" viewBox="0 0 314.652 314.652">
        <title id="footer-linkedin_title">Linkedin</title>
        <path d="M112.326,121.119c-4.971,0-9,4.029-9,9v74.414c0,4.971,4.029,9,9,9s9-4.029,9-9v-74.414
			C121.326,125.148,117.297,121.119,112.326,121.119z"/>
		<path d="M112.326,79.116c-2.37,0-4.69,0.96-6.36,2.64c-1.68,1.67-2.64,3.99-2.64,6.36s0.96,4.689,2.64,6.37
			c1.67,1.67,3.99,2.63,6.36,2.63c2.37,0,4.69-0.96,6.36-2.63c1.68-1.681,2.64-4,2.64-6.37s-0.96-4.69-2.64-6.36
			C117.016,80.076,114.696,79.116,112.326,79.116z"/>
		<path d="M190.076,128.119c-9.42,0-18.139,3.036-25.25,8.169v-6.169c0-4.971-4.029-9-9-9s-9,4.029-9,9v74.414c0,4.971,4.029,9,9,9
			s9-4.029,9-9v-33.164c0-13.923,11.327-25.25,25.25-25.25s25.25,11.327,25.25,25.25v35.164c0,4.971,4.029,9,9,9s9-4.029,9-9v-35.164
			C233.326,147.521,213.924,128.119,190.076,128.119z"/>
    </symbol>

    <symbol id="footer-instagram" role="img" aria-labelledby="footer-instagram_title" viewBox="0 0 388 388">
        <title id="footer-instagram_title">Instagram</title>
        <path d="m256.425781 68.035156h-124.847656c-35.050781 0-63.5625 28.515625-63.5625 63.5625v124.847656c0 35.050782 28.511719 63.558594 63.5625 63.558594h124.847656c35.050781 0 63.558594-28.507812 63.558594-63.558594v-124.847656c0-35.046875-28.507813-63.5625-63.558594-63.5625zm36.140625 188.410156c0 19.929688-16.214844 36.144532-36.140625 36.144532h-124.847656c-19.925781 0-36.140625-16.214844-36.140625-36.144532v-124.847656c0-19.925781 16.214844-36.136718 36.140625-36.136718h124.847656c19.925781 0 36.140625 16.210937 36.140625 36.136718zm0 0"/>
        <path d="m260.980469 142.546875c-8.46875 0-15.359375-6.886719-15.359375-15.355469 0-8.464844 6.890625-15.351562 15.359375-15.351562s15.355469 6.886718 15.355469 15.351562c0 8.46875-6.886719 15.355469-15.355469 15.355469zm0 0"/>
        <path d="m193.996094 129.128906c-35.777344 0-64.890625 29.109375-64.890625 64.890625s29.113281 64.894531 64.890625 64.894531c35.785156 0 64.898437-29.113281 64.898437-64.894531 0-35.777343-29.113281-64.890625-64.898437-64.890625zm0 102.371094c-20.652344 0-37.472656-16.816406-37.472656-37.480469 0-20.65625 16.820312-37.464843 37.472656-37.464843 20.664062 0 37.472656 16.808593 37.472656 37.464843 0 20.664063-16.808594 37.480469-37.472656 37.480469zm0 0"/>
    </symbol>

</svg>