<svg xmlns="http://www.w3.org/2000/svg" xmlns:xlink="http://www.w3.org/1999/xlink">

	<symbol id="services01" role="img" aria-labelledby="services01_title" viewBox="0 0 512 512">
        <title id="services01_title"></title>
        <path d="M437.02,74.98C388.667,26.629,324.38,0,256,0S123.333,26.629,74.98,74.98C26.629,123.333,0,187.62,0,256
            s26.629,132.667,74.98,181.02C123.333,485.371,187.62,512,256,512c46.813,0,92.617-12.758,132.462-36.893
            c9.447-5.724,12.467-18.022,6.744-27.469c-5.724-9.449-18.021-12.467-27.469-6.744C334.144,461.244,295.505,472,256,472
            c-119.103,0-216-96.897-216-216S136.897,40,256,40s216,96.897,216,216c0,42.589-12.665,84.044-36.626,119.884
            c-6.139,9.182-3.672,21.603,5.51,27.742c9.184,6.141,21.604,3.672,27.742-5.51C497.002,355.674,512,306.53,512,256
            C512,187.62,485.371,123.333,437.02,74.98z"/>
        <path d="M194.3,373.594c3.024,1.635,6.281,2.41,9.493,2.41c7.109,0,13.994-3.801,17.611-10.493l108.108-200
            c5.253-9.718,1.634-21.853-8.083-27.104c-9.719-5.253-21.854-1.633-27.104,8.083l-108.108,200
            C180.964,356.207,184.583,368.342,194.3,373.594z"/>
        <path d="M223,186c0-27.57-22.43-50-50-50s-50,22.43-50,50s22.43,50,50,50S223,213.57,223,186z M173,196c-5.514,0-10-4.486-10-10
            c0-5.514,4.486-10,10-10c5.514,0,10,4.486,10,10C183,191.514,178.514,196,173,196z"/>
        <path d="M338,376c27.57,0,50-22.43,50-50s-22.43-50-50-50s-50,22.43-50,50S310.43,376,338,376z M338,316c5.514,0,10,4.486,10,10
            c0,5.514-4.486,10-10,10c-5.514,0-10-4.486-10-10C328,320.486,332.486,316,338,316z"/>
    </symbol>

    <symbol id="services02" role="img" aria-labelledby="services02_title" viewBox="0 0 512 512">
        <title id="services02_title"></title>
        <path d="M467.7,92.539L263.1,1.716c-5.179-2.299-11.092-2.289-16.263,0.03L44.232,92.569
            c-7.177,3.218-11.796,10.35-11.796,18.214v157.692c0,59.596,23.551,120.517,64.615,167.142
            c20.655,23.452,44.466,42.01,70.774,55.158C196.004,504.859,225.67,512,256,512c42.469,0,83.803-13.746,119.536-39.751
            c8.914-6.487,10.881-18.972,4.393-27.886c-6.487-8.913-18.972-10.88-27.885-4.393c-28.862,21.005-62.073,32.108-96.043,32.108
            c-96.111,0-183.641-97.044-183.641-203.602V123.71l182.683-81.892l184.599,81.944v144.713c0,36.757-10.559,73.956-30.537,107.572
            c-5.632,9.477-2.515,21.726,6.962,27.358c9.479,5.633,21.726,2.515,27.358-6.962c23.643-39.785,36.139-84.035,36.139-127.967
            V110.783C479.563,102.892,474.914,95.741,467.7,92.539z"/>
        <path d="M344.565,168.972l-98.389,137.432c-2.687,3.116-6.053,3.789-7.858,3.908c-1.855,0.124-5.411-0.112-8.548-3.051
            l-63.588-62.054c-7.89-7.7-20.528-7.546-28.227,0.345c-7.699,7.89-7.545,20.527,0.345,28.227l63.697,62.16
            c0.059,0.058,0.119,0.115,0.179,0.172c9.55,9.091,22.296,14.147,35.411,14.147c1.126,0.001,2.258-0.036,3.387-0.112
            c14.286-0.952,27.623-7.9,36.591-19.061c0.232-0.288,0.456-0.583,0.671-0.884l98.789-137.99
            c6.417-8.964,4.352-21.433-4.611-27.85C363.451,157.943,350.981,160.007,344.565,168.972z"/>
    </symbol>

    <symbol id="services03" role="img" aria-labelledby="services03_title" viewBox="0 0 512 512">
        <title id="services03_title"></title>
        <path d="m512 246v20c0 33.085938-26.914062 60-60 60h-10.074219c-2.648437 0-5.050781 1.667969-6.117187 4.25l-.125.308594c-4.203125 10.214844-15.890625 15.089844-26.105469 10.882812-10.214844-4.203125-15.089844-15.890625-10.886719-26.105468l.136719-.328126c7.28125-17.628906 24.191406-29.007812 43.097656-29.007812h10.074219c11.027344 0 20-8.972656 20-20v-20c0-11.027344-8.972656-20-20-20h-10.074219c-18.90625 0-35.816406-11.378906-43.089843-28.984375l-.121094-.292969c-7.308594-17.601562-3.398438-37.613281 9.96875-50.980468l7.125-7.121094c7.796875-7.796875 7.796875-20.484375 0-28.285156l-14.144532-14.140626c-3.777343-3.777343-8.800781-5.859374-14.140624-5.859374-5.34375 0-10.367188 2.082031-14.140626 5.859374l-7.125 7.121094c-13.367187 13.367188-33.378906 17.28125-50.980468 9.96875l-.296875-.125c-17.601563-7.269531-28.980469-24.179687-28.980469-43.085937v-10.074219c0-11.027344-8.972656-20-20-20h-20c-11.027344 0-20 8.972656-20 20v10.074219c0 18.90625-11.378906 35.816406-28.984375 43.085937l-.253906.105469c-17.644531 7.328125-37.652344 3.417969-51.019531-9.949219l-7.125-7.125c-3.773438-3.777344-8.796876-5.855468-14.140626-5.855468-5.339843 0-10.363281 2.078124-14.140624 5.855468l-14.144532 14.144532c-7.796875 7.796874-7.796875 20.484374 0 28.285156l7.125 7.121094c13.367188 13.367187 17.277344 33.378906 9.964844 50.984374l-.121094.296876c-7.269531 17.597656-24.179687 28.976562-43.085937 28.976562h-10.074219c-11.027344 0-20 8.972656-20 20v20c0 11.027344 8.972656 20 20 20h10.074219c18.902343 0 35.816406 11.378906 43.085937 28.984375l.148438.351563c7.285156 17.542968 3.375 37.554687-9.992188 50.921874l-7.125 7.121094c-3.777344 3.777344-5.855468 8.800782-5.855468 14.144532 0 5.339843 2.078124 10.363281 5.855468 14.140624l14.144532 14.144532c7.796874 7.796875 20.484374 7.800781 28.285156 0l7.121094-7.125c13.359374-13.355469 33.355468-17.273438 50.953124-9.976563l.257813.105469c17.671875 7.296875 29.046875 24.210938 29.046875 43.113281v10.074219c0 11.027344 8.972656 20 20 20h20c11.027344 0 20-8.972656 20-20v-10.074219c0-18.902343 11.375-35.816406 28.980469-43.085937l.324219-.136719c17.597656-7.292969 37.59375-3.378906 50.953124 9.980469l7.121094 7.121094c7.800782 7.800781 20.488282 7.800781 28.285156 0l14.140626-14.140626c7.8125-7.8125 20.476562-7.8125 28.285156 0 7.8125 7.808594 7.8125 20.472657 0 28.28125l-14.140625 14.144532c-23.394531 23.394531-61.460938 23.394531-84.851563 0l-7.125-7.121094c-1.871094-1.875-4.757812-2.390625-7.355468-1.3125l-.429688.179688c-2.519531 1.039062-4.1875 3.441406-4.1875 6.089843v10.074219c0 33.085938-26.914062 60-60 60h-20c-33.085938 0-60-26.914062-60-60v-10.074219c0-2.648437-1.667969-5.050781-4.253906-6.117187l-.363282-.152344c-2.597656-1.078125-5.484374-.5625-7.355468 1.3125l-7.125 7.125c-23.390625 23.390625-61.457032 23.390625-84.851563 0l-14.144531-14.144531c-11.332031-11.332031-17.570312-26.398438-17.570312-42.425781 0-16.027344 6.238281-31.09375 17.574218-42.425782l7.121094-7.125c1.871094-1.871094 2.386719-4.757812 1.3125-7.351562l-.164062-.390625c-1.054688-2.5625-3.457032-4.230469-6.105469-4.230469h-10.074219c-33.085938 0-60-26.914062-60-60v-20c0-33.085938 26.914062-60 60-60h10.074219c2.648437 0 5.050781-1.667969 6.117187-4.25l.148438-.363281c1.082031-2.597657.566406-5.484375-1.308594-7.359375l-7.121094-7.121094c-23.394531-23.394531-23.394531-61.460938 0-84.855469l14.140625-14.140625c11.335938-11.332031 26.402344-17.574218 42.425781-17.574218 16.027344 0 31.09375 6.242187 42.429688 17.574218l7.121094 7.121094c1.875 1.875 4.761718 2.390625 7.355468 1.3125l.359376-.152344c2.589843-1.066406 4.257812-3.46875 4.257812-6.117187v-10.074219c0-33.085938 26.917969-60 60-60h20c33.085938 0 60 26.914062 60 60v10.074219c0 2.648437 1.667969 5.050781 4.25 6.117187l.40625.167969c2.558594 1.0625 5.445312.546875 7.316406-1.328125l7.125-7.121094c11.332032-11.335937 26.398438-17.574218 42.425782-17.574218 16.023437 0 31.09375 6.238281 42.425781 17.574218l14.140625 14.140625c23.394531 23.394531 23.394531 61.460938 0 84.851563l-7.121094 7.125c-1.875 1.871094-2.390625 4.757812-1.3125 7.355468l.148438.359376c1.070312 2.585937 3.472656 4.257812 6.121093 4.257812h10.074219c33.085938 0 60 26.914062 60 60zm-306.871094 1.101562c-7.617187-10.417968-12.128906-23.238281-12.128906-37.101562 0-34.738281 28.261719-63 63-63s63 28.261719 63 63c0 13.863281-4.511719 26.683594-12.128906 37.101562 22.75 13.742188 39.75 36.519532 45.425781 63.851563 2.050781 9.867187-.417969 20.007813-6.769531 27.816406-6.324219 7.773438-15.695313 12.230469-25.714844 12.230469h-127.625c-10.019531 0-19.390625-4.457031-25.714844-12.230469-6.351562-7.808593-8.820312-17.945312-6.769531-27.816406 5.675781-27.332031 22.675781-50.109375 45.425781-63.851563zm27.871094-37.101562c0 12.683594 10.316406 23 23 23s23-10.316406 23-23-10.316406-23-23-23-23 10.316406-23 23zm-31.824219 101h109.648438c-8.234375-22.441406-29.882813-38-54.300781-38h-1.046876c-24.417968 0-46.066406 15.558594-54.300781 38zm0 0"/>
    </symbol>

    <symbol id="services04" role="img" aria-labelledby="services04_title" viewBox="0 0 512 512">
        <title id="services04_title"></title>
        <path d="M53.196,133.658c3.543,2.585,7.655,3.823,11.737,3.823c6.168,0,12.246-2.844,16.148-8.214
            c6.487-8.913,4.521-21.398-4.391-27.885c-8.913-6.487-21.398-4.521-27.885,4.391C42.317,114.686,44.283,127.171,53.196,133.658z"
            />
        <path d="M25.281,202.115c2.046,0.669,4.122,0.988,6.168,0.988c8.414,0,16.238-5.359,18.983-13.793
            c3.403-10.49-2.325-21.747-12.815-25.161c-10.479-3.403-21.747,2.335-25.151,12.815C9.052,187.453,14.791,198.711,25.281,202.115
            z"/>
        <path d="M117.071,85.383c4.072,0,8.184-1.248,11.737-3.823c-0.01,0-0.01,0-0.01,0c8.923-6.487,10.889-18.973,4.401-27.885
            c-6.487-8.913-18.973-10.879-27.885-4.391c-8.913,6.487-10.879,18.963-4.391,27.885
            C104.825,82.538,110.903,85.383,117.071,85.383z"/>
        <path d="M0.389,259.902c0.13,0.639,0.289,1.267,0.479,1.896c0.19,0.619,0.409,1.238,0.659,1.836s0.529,1.198,0.838,1.767
            c0.299,0.569,0.639,1.138,0.998,1.677c0.359,0.549,0.749,1.078,1.168,1.577c0.409,0.509,0.858,0.998,1.317,1.457
            s0.948,0.908,1.457,1.317c0.499,0.409,1.028,0.808,1.577,1.168c0.539,0.359,1.108,0.699,1.677,0.998
            c0.569,0.309,1.168,0.589,1.767,0.838c0.599,0.25,1.218,0.469,1.836,0.659c0.629,0.19,1.268,0.349,1.896,0.479
            c0.639,0.13,1.297,0.23,1.936,0.289c0.659,0.07,1.317,0.1,1.966,0.1c0.649,0,1.307-0.03,1.966-0.1
            c0.639-0.06,1.297-0.16,1.936-0.289s1.268-0.289,1.896-0.479c0.619-0.19,1.238-0.409,1.836-0.659
            c0.599-0.25,1.198-0.529,1.767-0.838c0.579-0.299,1.138-0.639,1.677-0.998c0.549-0.359,1.078-0.759,1.577-1.168
            c0.509-0.409,0.998-0.858,1.457-1.317s0.908-0.948,1.317-1.457c0.409-0.499,0.808-1.028,1.168-1.577
            c0.359-0.539,0.699-1.108,0.998-1.677c0.309-0.569,0.589-1.168,0.838-1.767s0.469-1.218,0.659-1.836
            c0.19-0.629,0.349-1.258,0.479-1.896c0.13-0.639,0.23-1.288,0.289-1.936c0.07-0.649,0.1-1.317,0.1-1.966
            c0-0.649-0.03-1.307-0.1-1.966c-0.06-0.639-0.16-1.297-0.289-1.936c-0.13-0.629-0.289-1.268-0.479-1.896
            c-0.19-0.619-0.409-1.238-0.659-1.836s-0.529-1.198-0.838-1.767c-0.299-0.569-0.639-1.138-0.998-1.677
            c-0.359-0.549-0.759-1.078-1.168-1.577c-0.409-0.509-0.858-0.998-1.317-1.457s-0.948-0.908-1.457-1.317
            c-0.499-0.419-1.028-0.808-1.577-1.168c-0.539-0.359-1.098-0.699-1.677-0.998c-0.569-0.309-1.168-0.589-1.767-0.838
            c-0.599-0.25-1.218-0.469-1.836-0.659c-0.629-0.19-1.258-0.349-1.896-0.479c-0.639-0.13-1.297-0.23-1.936-0.289
            c-1.307-0.13-2.625-0.13-3.932,0c-0.639,0.06-1.297,0.16-1.936,0.289c-0.629,0.13-1.268,0.289-1.896,0.479
            c-0.619,0.19-1.238,0.409-1.836,0.659c-0.599,0.25-1.198,0.529-1.767,0.838c-0.569,0.299-1.138,0.639-1.677,0.998
            c-0.549,0.359-1.078,0.749-1.577,1.168c-0.509,0.409-0.998,0.858-1.457,1.317s-0.908,0.948-1.317,1.457
            c-0.419,0.499-0.808,1.028-1.168,1.577c-0.359,0.539-0.699,1.108-0.998,1.677c-0.309,0.569-0.589,1.168-0.838,1.767
            s-0.469,1.218-0.659,1.836c-0.19,0.629-0.349,1.268-0.479,1.896c-0.13,0.639-0.23,1.297-0.289,1.936
            c-0.07,0.659-0.1,1.317-0.1,1.966c0,0.649,0.03,1.317,0.1,1.966C0.16,258.614,0.26,259.263,0.389,259.902z"/>
        <path d="M182.693,51.888c2.046,0,4.122-0.309,6.168-0.978c10.49-3.403,16.228-14.661,12.825-25.151
            c-3.413-10.479-14.671-16.218-25.151-12.815c-10.489,3.403-16.228,14.661-12.825,25.151
            C166.455,46.529,174.279,51.888,182.693,51.888z"/>
        <path d="M176.655,199.167v3.707c0,38.648,31.264,70.092,69.693,70.092h25.14c16.5,0,29.923,13.381,29.923,29.828v13.032
            c0,16.542-13.424,29.998-29.923,29.998H230.63c-11.405,0-21.04-10.055-21.04-21.957c0-11.024-8.937-19.961-19.961-19.961
            c-11.024,0-19.961,8.937-19.961,19.961c0,34.12,27.348,61.879,60.962,61.879h4.909v20.959c0,11.024,8.937,19.961,19.961,19.961
            c11.024,0,19.961-8.937,19.961-19.961v-21.08c36.67-2.07,65.871-32.581,65.871-69.799v-13.032c0-38.46-31.333-69.75-69.845-69.75
            h-25.14c-16.416,0-29.771-13.534-29.771-30.169v-3.707c0-16.542,13.355-29.998,29.771-29.998h23.774
            c11.75,0,21.309,9.402,21.309,20.959c0,11.024,8.937,19.961,19.961,19.961c11.024,0,19.961-8.937,19.961-19.961
            c0-31.78-24.621-57.934-55.891-60.635v-23.202c0-11.024-8.937-19.961-19.961-19.961c-11.024,0-19.961,8.937-19.961,19.961v23.799
            C202.226,135.317,176.655,164.301,176.655,199.167z"/>
        <path d="M486.718,309.874c-10.479-3.403-21.747,2.335-25.151,12.815c-3.403,10.49,2.325,21.747,12.815,25.161
            c2.046,0.659,4.132,0.978,6.178,0.978c8.414,0,16.238-5.36,18.973-13.793C502.947,324.545,497.208,313.287,486.718,309.874z"/>
        <path d="M276.362,489.615c-0.011-0.112-0.026-0.222-0.039-0.333c-0.057-0.508-0.134-1.022-0.234-1.528
            c-0.424-2.21-1.219-4.283-2.307-6.169c-0.175-0.305-0.356-0.605-0.547-0.9c-0.126-0.194-0.254-0.385-0.386-0.575
            c-0.258-0.371-0.528-0.733-0.807-1.079c-0.103-0.127-0.207-0.253-0.311-0.376c-0.321-0.383-0.66-0.756-1.008-1.11
            c-0.076-0.077-0.152-0.154-0.23-0.23c-0.353-0.348-0.724-0.685-1.106-1.005c-0.129-0.11-0.259-0.217-0.39-0.323
            c-0.344-0.278-0.703-0.545-1.071-0.8c-0.187-0.131-0.375-0.258-0.566-0.381c-0.299-0.194-0.604-0.378-0.914-0.555
            c-1.879-1.084-3.944-1.875-6.145-2.3c-0.516-0.102-1.041-0.181-1.559-0.238c-0.738-0.083-1.484-0.134-2.244-0.134
            c-75.491,0-145.537-40.049-184.326-103.728l45.627-0.069c11.024-0.017,19.947-8.967,19.931-19.991
            c-0.017-11.014-8.951-19.931-19.961-19.931c-0.01,0-0.021,0-0.031,0l-58.39,0.089c-0.065,0-0.13,0-0.195,0
            c-15.793,0-30.584,6.097-41.671,17.184c-11.341,11.34-17.55,26.565-17.483,42.786v57.71c0,11.024,8.937,19.961,19.961,19.961
            c11.024,0,19.961-8.937,19.961-19.961V391.63c19.75,31.508,46.2,58.429,77.692,78.859
            c41.347,26.824,89.361,41.004,138.853,41.011c0.01,0,0.021,0.001,0.032,0.001c0.647,0,1.303-0.03,1.96-0.1
            c0.09-0.009,0.178-0.023,0.267-0.033c0.53-0.058,1.069-0.139,1.596-0.244c2.189-0.425,4.243-1.213,6.112-2.29
            c0.322-0.184,0.639-0.375,0.949-0.577c0.179-0.117,0.355-0.236,0.531-0.358c0.382-0.264,0.754-0.542,1.11-0.829
            c0.118-0.095,0.233-0.191,0.348-0.288c0.392-0.327,0.771-0.673,1.133-1.03c0.07-0.069,0.14-0.139,0.209-0.209
            c0.355-0.36,0.7-0.739,1.026-1.13c0.099-0.118,0.198-0.235,0.294-0.356c0.284-0.352,0.559-0.72,0.82-1.097
            c0.122-0.175,0.242-0.35,0.357-0.529c0.208-0.318,0.405-0.645,0.593-0.976c1.076-1.873,1.86-3.931,2.283-6.124
            c0.101-0.509,0.179-1.025,0.236-1.541c0.012-0.109,0.027-0.216,0.038-0.325c0.066-0.63,0.096-1.279,0.096-1.908
            c0-0.006,0.001-0.012,0.001-0.018s-0.001-0.013-0.001-0.019C276.457,490.891,276.428,490.253,276.362,489.615z"/>
        <path d="M492.038,46.409c-11.024,0-19.961,8.937-19.961,19.961v53.999c-19.75-31.509-46.2-58.429-77.692-78.86
            C353.029,14.68,305.004,0.499,255.5,0.499c-0.757,0-1.5,0.051-2.236,0.133c-0.53,0.058-1.067,0.139-1.594,0.244
            c-2.184,0.425-4.234,1.212-6.1,2.286c-0.332,0.189-0.659,0.386-0.978,0.594c-0.682,0.446-1.335,0.93-1.956,1.455
            c-0.402,0.335-0.792,0.69-1.161,1.055c-0.057,0.057-0.114,0.113-0.17,0.17c-0.365,0.369-0.72,0.758-1.055,1.161
            c-0.093,0.11-0.185,0.22-0.275,0.331c-0.292,0.362-0.575,0.741-0.844,1.129c-0.115,0.164-0.227,0.328-0.335,0.496
            c-0.208,0.319-0.405,0.647-0.594,0.978c-1.076,1.87-1.863,3.925-2.288,6.114c-0.101,0.514-0.176,1.037-0.237,1.553
            c-0.011,0.101-0.028,0.199-0.038,0.299c-0.071,0.66-0.101,1.317-0.101,1.964s0.03,1.304,0.099,1.961
            c0.01,0.102,0.027,0.202,0.038,0.303c0.061,0.515,0.136,1.036,0.237,1.547c0.424,2.191,1.212,4.248,2.289,6.12
            c0.189,0.331,0.385,0.658,0.593,0.976c0.11,0.169,0.223,0.334,0.337,0.499c0.266,0.384,0.546,0.759,0.835,1.118
            c0.095,0.118,0.192,0.234,0.288,0.348c0.33,0.396,0.68,0.779,1.04,1.144c0.063,0.063,0.126,0.126,0.189,0.189
            c0.366,0.362,0.752,0.713,1.15,1.045c0.111,0.093,0.221,0.186,0.333,0.276c0.359,0.291,0.736,0.571,1.122,0.838
            c0.173,0.121,0.346,0.238,0.523,0.352c0.31,0.202,0.629,0.394,0.951,0.578c1.874,1.08,3.934,1.869,6.128,2.294
            c0.52,0.103,1.048,0.182,1.57,0.24c0.099,0.011,0.197,0.026,0.295,0.035c0.652,0.068,1.302,0.098,1.944,0.098
            c75.491,0,145.536,40.049,184.325,103.728l-45.626,0.069c-11.023,0.017-19.947,8.966-19.931,19.991
            c0.017,11.014,8.951,19.931,19.961,19.931c0.01,0,0.021,0,0.031,0l58.39-0.088c0.065,0,0.129,0,0.194,0
            c15.794,0,30.586-6.098,41.673-17.184c11.341-11.341,17.55-26.566,17.483-42.787V66.37
            C511.999,55.346,503.063,46.409,492.038,46.409z"/>
        <path d="M458.803,378.34c-8.913-6.487-21.398-4.521-27.885,4.391c-6.487,8.913-4.521,21.398,4.391,27.885
            c3.543,2.575,7.655,3.823,11.727,3.823c6.168,0,12.246-2.854,16.158-8.214C469.682,397.313,467.716,384.827,458.803,378.34z"/>
        <path d="M511.61,252.097c-0.13-0.629-0.289-1.268-0.479-1.896c-0.19-0.619-0.409-1.238-0.659-1.836s-0.529-1.198-0.838-1.767
            c-0.299-0.579-0.639-1.138-0.998-1.677c-0.359-0.549-0.759-1.078-1.168-1.577c-0.409-0.509-0.858-0.998-1.317-1.457
            s-0.948-0.908-1.457-1.317c-0.499-0.419-1.028-0.808-1.577-1.168c-0.539-0.359-1.108-0.699-1.677-0.998
            c-0.569-0.309-1.168-0.589-1.767-0.838s-1.218-0.469-1.836-0.659c-0.629-0.19-1.268-0.349-1.896-0.479
            c-0.639-0.13-1.297-0.23-1.936-0.289c-1.307-0.13-2.625-0.13-3.932,0c-0.639,0.06-1.297,0.16-1.936,0.289
            c-0.629,0.13-1.267,0.289-1.896,0.479c-0.619,0.19-1.238,0.409-1.836,0.659s-1.198,0.529-1.767,0.838
            c-0.569,0.299-1.138,0.639-1.677,0.998c-0.549,0.359-1.078,0.749-1.577,1.168c-0.509,0.409-0.998,0.858-1.457,1.317
            s-0.908,0.948-1.317,1.457c-0.409,0.499-0.808,1.028-1.168,1.577c-0.359,0.539-0.699,1.098-0.998,1.677
            c-0.309,0.569-0.589,1.168-0.838,1.767s-0.469,1.218-0.659,1.836c-0.19,0.629-0.349,1.268-0.479,1.896
            c-0.13,0.639-0.23,1.297-0.289,1.936c-0.07,0.659-0.1,1.317-0.1,1.966c0,0.649,0.03,1.307,0.1,1.966
            c0.06,0.639,0.16,1.297,0.289,1.936c0.13,0.629,0.289,1.267,0.479,1.896c0.19,0.619,0.409,1.238,0.659,1.836
            s0.529,1.198,0.838,1.767c0.299,0.569,0.639,1.138,0.998,1.677c0.359,0.549,0.759,1.078,1.168,1.577
            c0.409,0.509,0.858,0.998,1.317,1.457s0.948,0.908,1.457,1.317c0.499,0.409,1.028,0.808,1.577,1.168
            c0.539,0.359,1.108,0.699,1.677,0.998c0.569,0.309,1.168,0.589,1.767,0.838s1.218,0.469,1.836,0.659
            c0.629,0.19,1.268,0.349,1.896,0.479c0.639,0.13,1.297,0.23,1.936,0.289c0.659,0.07,1.317,0.1,1.966,0.1s1.307-0.03,1.966-0.1
            c0.639-0.06,1.297-0.16,1.936-0.289c0.629-0.13,1.268-0.289,1.896-0.479c0.619-0.19,1.238-0.409,1.836-0.659
            s1.198-0.529,1.767-0.838c0.569-0.299,1.138-0.639,1.677-0.998c0.549-0.359,1.078-0.759,1.577-1.168
            c0.509-0.409,0.998-0.858,1.457-1.317s0.908-0.948,1.317-1.457c0.409-0.499,0.808-1.028,1.168-1.577
            c0.359-0.539,0.699-1.108,0.998-1.677c0.309-0.569,0.589-1.168,0.838-1.767s0.469-1.218,0.659-1.836
            c0.19-0.629,0.349-1.268,0.479-1.896c0.13-0.639,0.23-1.297,0.289-1.936c0.07-0.659,0.1-1.317,0.1-1.966
            c0-0.649-0.03-1.307-0.1-1.966C511.839,253.394,511.74,252.736,511.61,252.097z"/>
        <path d="M383.201,430.438c-8.923,6.487-10.889,18.973-4.401,27.885c3.912,5.37,9.99,8.214,16.158,8.214
            c4.072,0,8.184-1.238,11.727-3.823c8.913-6.487,10.879-18.973,4.401-27.885C404.599,425.917,392.113,423.951,383.201,430.438z"/>
        <path d="M323.138,461.088c-10.49,3.403-16.228,14.661-12.825,25.151c2.745,8.434,10.569,13.793,18.983,13.803
            c2.046,0,4.122-0.319,6.168-0.988c10.49-3.403,16.228-14.661,12.825-25.151C344.886,463.424,333.618,457.685,323.138,461.088z"/>
    </symbol>

    <symbol id="services05" role="img" aria-labelledby="services05_title" viewBox="0 0 512 512">
        <title id="services05_title"></title>
        <path d="M437.02,74.98C388.667,26.629,324.38,0,256,0S123.333,26.629,74.98,74.98C26.629,123.333,0,187.62,0,256
            s26.629,132.667,74.98,181.02C123.333,485.371,187.62,512,256,512c46.813,0,92.618-12.758,132.462-36.894
            c9.448-5.724,12.467-18.021,6.744-27.469c-5.723-9.449-18.021-12.467-27.468-6.744C334.144,461.244,295.506,472,256,472
            c-119.103,0-216-96.897-216-216c0-111.333,84.671-203.255,193-214.774v85.812C172.25,137.927,126,191.164,126,255
            c0,71.683,58.318,130,130,130c37.159,0,70.724-15.675,94.438-40.757l90.585,59.475c9.179,6.026,21.5,3.524,27.603-5.603
            C497.001,355.674,512,306.53,512,256C512,187.62,485.371,123.333,437.02,74.98z M273,40.667
            c12.071,0.944,23.862,2.894,35.299,5.749L273,81.709V40.667z M256,345c-49.626,0-90-40.374-90-90c0-49.626,40.374-90,90-90
            c49.626,0,90,40.374,90,90C346,304.626,305.626,345,256,345z M324.044,144.275c-12.348-7.616-26.059-13.223-40.676-16.367
            l66.456-66.445c12.533,6.069,24.396,13.313,35.442,21.59L324.044,144.275z M414.964,109.922
            c9.338,10.155,17.717,21.201,24.995,32.998l-63.417,63.417c-5.355-13.218-12.82-25.362-21.981-36.011L414.964,109.922z
             M373.16,311.311C381.387,294.265,386,275.161,386,255c0-0.512-0.014-1.021-0.02-1.532l72.552-72.552
            c5.365,14.424,9.222,29.573,11.398,45.252l-89.751,89.751L373.16,311.311z M445.654,358.908l-31.326-20.568l56.044-56.044
            C467.058,309.063,458.705,334.989,445.654,358.908z"/>
    </symbol>

    <symbol id="services06" role="img" aria-labelledby="services06_title" viewBox="0 0 512 512">
        <title id="services06_title"></title>
        <path d="m256 512c-68.378906 0-132.667969-26.628906-181.019531-74.980469-48.351563-48.351562-74.980469-112.640625-74.980469-181.019531s26.628906-132.667969 74.980469-181.019531c48.351562-48.351563 112.640625-74.980469 181.019531-74.980469s132.667969 26.628906 181.019531 74.980469c48.351563 48.351562 74.980469 112.640625 74.980469 181.019531 0 50.53125-14.996094 99.675781-43.375 142.117188-6.136719 9.179687-18.558594 11.648437-27.742188 5.507812-9.179687-6.136719-11.648437-18.558594-5.507812-27.742188 23.960938-35.839843 36.625-77.292968 36.625-119.882812 0-119.101562-96.898438-216-216-216s-216 96.898438-216 216 96.898438 216 216 216c39.503906 0 78.144531-10.757812 111.738281-31.105469 9.445313-5.722656 21.742188-2.707031 27.46875 6.742188 5.722657 9.449219 2.703125 21.746093-6.746093 27.46875-39.84375 24.136719-85.648438 36.894531-132.460938 36.894531zm92.011719-124.644531c13.910156-10.164063 19.445312-27.292969 14.097656-43.640625l-17.054687-52.148438 44.695312-32.261718c13.832031-9.984376 19.574219-27.679688 14.289062-44.027344-5.355468-16.570313-19.988281-27.277344-37.285156-27.277344h-55.566406l-16.910156-52.03125c-5.359375-16.382812-19.992188-26.96875-37.277344-26.96875s-31.917969 10.585938-37.289062 27.007812l-16.898438 51.992188h-55.566406c-17.296875 0-31.929688 10.707031-37.285156 27.273438-5.285157 16.351562.457031 34.046874 14.289062 44.03125l44.695312 32.257812-17.054687 52.152344c-5.347656 16.347656.1875 33.476562 14.097656 43.636718 14 10.226563 32.125 10.277344 46.175781.132813l44.835938-32.371094 44.835938 32.371094c6.996093 5.050781 14.996093 7.574219 23 7.574219 8.070312 0 16.144531-2.570313 23.175781-7.703125zm-144.832031-159.355469c17.128906 0 32.109374-10.609375 37.289062-26.441406l16.535156-50.871094 16.539063 50.90625c5.167969 15.796875 20.148437 26.40625 37.277343 26.40625h53.953126l-43.683594 31.53125c-13.839844 9.988281-19.578125 27.578125-14.28125 43.769531l16.453125 50.316407-43.265625-31.234376c-6.734375-4.859374-14.6875-7.429687-22.996094-7.429687-8.3125 0-16.265625 2.566406-23 7.429687l-43.265625 31.238282 16.457031-50.316406c5.296875-16.195313-.445312-33.785157-14.28125-43.773438l-43.679687-31.53125zm163.648437.003906h.007813zm0 0"/>
    </symbol>

    <symbol id="footer-facebook" role="img" aria-labelledby="footer-facebook_title" viewBox="0 0 512 512">
        <title id="footer-facebook_title">Facebook</title>
        <path d="M314.829,135.492h70.595c11.423,0,20.682-9.26,20.682-20.682V20.682C406.107,9.26,396.848,0,385.425,0h-70.595
            c-76.282,0-138.341,62.06-138.341,138.341v49.913h-49.913c-11.422,0-20.682,9.26-20.682,20.682v94.127
            c0,11.423,9.26,20.682,20.682,20.682h49.913v167.572c0,11.423,9.26,20.682,20.682,20.682h94.127
            c11.423,0,20.682-9.259,20.682-20.682V323.746h49.913c9.49,0,17.763-6.458,20.065-15.666l23.532-94.127
            c1.544-6.179,0.156-12.725-3.763-17.744c-3.919-5.02-9.932-7.954-16.301-7.954H311.98v-49.913
            C311.98,136.77,313.258,135.492,314.829,135.492z M291.298,229.619h67.637l-13.191,52.763h-54.447
            c-11.423,0-20.682,9.259-20.682,20.682v167.572h-52.763V303.064c0-11.423-9.26-20.682-20.682-20.682h-49.913v-52.763h49.913
            c11.422,0,20.682-9.26,20.682-20.682v-70.595c0-53.473,43.503-96.977,96.977-96.977h49.913v52.763h-49.913
            c-24.38,0-44.214,19.835-44.214,44.214v70.595C270.615,220.359,279.875,229.619,291.298,229.619z"/>
    </symbol>

    <symbol id="footer-twitter" role="img" aria-labelledby="footer-twitter_title" viewBox="0 0 512 512">
        <title id="footer-twitter_title">Twitter</title>
        <path d="M502.954,47.189c-7.126-4.852-16.515-4.774-23.559,0.196c-15.351,10.828-31.974,19.528-49.557,25.948
            c-19.253-17.414-43.615-27.826-69.915-29.656c-31.056-2.16-61.081,7.9-84.561,28.326c-25.59,22.259-40.174,54.444-40.046,88.349
            c-85.248-7.609-139.14-61.55-177.09-108.986c-4.598-5.746-11.901-8.619-19.182-7.538c-7.279,1.078-13.438,5.944-16.171,12.777
            c-0.948,2.369-23.141,58.799-17.453,127.057c4.761,57.133,30.23,131.964,120.039,181.717
            c-32.436,14.756-68.282,21.939-103.953,20.519c-9.576-0.378-18.15,5.859-20.736,15.08c-2.587,9.221,1.497,19.013,9.869,23.665
            c51.359,28.532,108.03,43.736,163.889,43.965c0.432,0.002,0.861,0.003,1.294,0.003c54.105-0.001,106.379-13.938,151.246-40.336
            c42.898-25.241,78.416-61.759,102.715-105.603c26.162-47.206,39.427-101.75,39.427-162.186c-0.011-3.544-0.186-7.098-0.52-10.638
            c20.7-22.885,35.388-50.567,42.719-80.667C513.451,60.803,510.081,52.04,502.954,47.189z M432.297,128.07
            c-4.916,4.847-7.088,11.827-5.793,18.607c0.877,4.588,1.329,9.278,1.344,13.874c0,101.956-44.378,186.544-121.756,232.072
            c-60.586,35.649-133.037,43.933-203.609,25.057c0.729-0.201,1.459-0.407,2.185-0.615c27.596-7.885,53.63-20.055,77.377-36.174
            c6.329-4.296,9.77-11.734,8.946-19.34c-0.825-7.605-5.778-14.134-12.881-16.975C97.757,312.434,53.563,257.594,46.757,181.575
            c-2.536-28.334,0.707-54.721,4.766-74.501c16.638,17.909,37.384,37.227,62.129,53.407c42.771,27.966,90.663,42.146,142.346,42.146
            c11.423,0,20.682-9.26,20.682-20.682v-21.393c0-0.045,0-0.091,0-0.137c-0.146-21.948,9.268-42.797,25.829-57.202
            c15.146-13.175,34.51-19.665,54.543-18.27c20.026,1.393,38.311,10.502,51.487,25.648c5.339,6.138,13.783,8.577,21.567,6.229
            c5.725-1.724,11.375-3.645,16.941-5.757C442.599,117.081,437.672,122.769,432.297,128.07z"/>
    </symbol>    

    <symbol id="footer-linkedin" role="img" aria-labelledby="footer-linkedin_title" viewBox="0 0 512 512">
        <title id="footer-linkedin_title">Linkedin</title>
        <path d="M2.5,510V153.7h137.3V510H2.5z M102.5,472.7V191H39.8v281.7H102.5z"/>
        <path d="M375.4,510l0.1-158.1c0.5-23.6-8.8-42.9-24.9-51.7c-5.4-3-11.2-4.5-17.3-4.5c-5.2,0-10.4,1.1-15.5,3.3l-1.1,211H176.1
            V153.7h140.6V166c16.6-6,33.6-9.1,50.6-9.1c24.7,0,48.3,6.4,70.2,18.9c44,25.2,72.5,71.8,72.5,118.8V510H375.4z M472.7,472.7V294.6
            c0-33.8-21.1-67.7-53.7-86.4c-15.9-9.1-33.8-13.9-51.7-14h-0.3c-20.1,0-40.1,5.8-59.6,17.3L279.4,228V191h-66.1v281.7h66.2l1-194.7
            l8.2-5.5c13.7-9.2,29.1-14.1,44.5-14.1c12.4,0,24.2,3,35.1,9c13.7,7.5,25,19.2,32.8,33.8c7.9,14.9,11.9,32.6,11.5,51.1l0,120.3
            H472.7z"/>
        <path d="M70.9,139.9C32.9,139.9,2,109,2,71c0-38,30.9-69,68.9-69c38,0,68.9,30.9,68.9,69C139.8,109,108.9,139.9,70.9,139.9z
             M70.9,39.3c-17.4,0-31.6,14.2-31.6,31.7c0,17.5,14.2,31.7,31.6,31.7c17.4,0,31.6-14.2,31.6-31.7C102.5,53.5,88.3,39.3,70.9,39.3z"
            />
    </symbol>

    <symbol id="footer-instagram" role="img" aria-labelledby="footer-instagram_title" viewBox="0 0 512 512">
        <title id="footer-instagram_title">Instagram</title>
        <path d="M373.659,0H138.341C62.06,0,0,62.06,0,138.341v235.318C0,449.94,62.06,512,138.341,512h235.318
            C449.94,512,512,449.94,512,373.659V138.341C512,62.06,449.94,0,373.659,0z M470.636,373.659
            c0,53.473-43.503,96.977-96.977,96.977H138.341c-53.473,0-96.977-43.503-96.977-96.977V138.341
            c0-53.473,43.503-96.977,96.977-96.977h235.318c53.473,0,96.977,43.503,96.977,96.977V373.659z"/>
        <path d="M370.586,238.141c-3.64-24.547-14.839-46.795-32.386-64.342c-17.547-17.546-39.795-28.746-64.341-32.385
            c-11.176-1.657-22.507-1.657-33.682,0c-30.336,4.499-57.103,20.541-75.372,45.172c-18.269,24.631-25.854,54.903-21.355,85.237
            c4.499,30.335,20.541,57.102,45.172,75.372c19.996,14.831,43.706,22.619,68.153,22.619c5.667,0,11.375-0.418,17.083-1.265
            c30.336-4.499,57.103-20.541,75.372-45.172C367.5,298.747,375.085,268.476,370.586,238.141z M267.791,327.632
            c-19.405,2.882-38.77-1.973-54.527-13.66c-15.757-11.687-26.019-28.811-28.896-48.216c-2.878-19.405,1.973-38.77,13.66-54.527
            c11.688-15.757,28.811-26.019,48.217-28.897c3.574-0.53,7.173-0.795,10.772-0.795s7.199,0.265,10.773,0.796
            c32.231,4.779,57.098,29.645,61.878,61.877C335.608,284.268,307.851,321.692,267.791,327.632z"/>
        <path d="M400.049,111.951c-3.852-3.851-9.183-6.058-14.625-6.058c-5.442,0-10.773,2.206-14.625,6.058
            c-3.851,3.852-6.058,9.174-6.058,14.625c0,5.451,2.207,10.773,6.058,14.625c3.852,3.851,9.183,6.058,14.625,6.058
            c5.442,0,10.773-2.206,14.625-6.058c3.851-3.852,6.058-9.183,6.058-14.625C406.107,121.133,403.9,115.802,400.049,111.951z"/>
    </symbol>

    <symbol id="footer-phone" role="img" aria-labelledby="footer-phone_title" viewBox="0 0 512 512">
        <title id="footer-phone_title"></title>
        <path d="M421.216,195.504c-5.092-26.101-17.723-49.836-36.526-68.64c-18.804-18.803-42.54-31.434-68.641-36.527
			c-11.21-2.189-22.073,5.128-24.261,16.339c-2.187,11.212,5.128,22.073,16.339,24.26c36.847,7.188,65.3,35.642,72.489,72.489
			c1.927,9.874,10.581,16.726,20.278,16.726c1.313,0,2.645-0.125,3.984-0.387C416.088,217.577,423.403,206.715,421.216,195.504z"/>
		<path d="M511.422,196.929c-5.629-50.096-28.373-97.304-64.042-132.927C411.712,28.378,364.475,5.694,314.371,0.128
			c-11.355-1.261-21.578,6.92-22.839,18.272c-1.261,11.353,6.919,21.578,18.272,22.84c84.961,9.438,150.966,75.36,160.512,160.31
			c1.188,10.566,10.139,18.374,20.527,18.374c0.771,0,1.552-0.043,2.336-0.131C504.53,218.516,512.698,208.281,511.422,196.929z"/>
		<path d="M432.59,312.566c-0.062-0.008-0.124-0.017-0.186-0.025c-20.013-2.639-39.751-7.557-58.619-14.596
			c-23.91-8.99-51.103-3.191-69.27,14.772c-0.028,0.028-0.056,0.055-0.083,0.083l-17.148,17.148
			c-42.633-26.924-78.756-63.047-105.679-105.679l17.149-17.149c0.027-0.028,0.054-0.055,0.082-0.083
			c17.964-18.166,23.762-45.356,14.79-69.223c-7.057-18.914-11.974-38.653-14.614-58.666c-0.007-0.063-0.017-0.127-0.026-0.19
			c-4.591-32.478-32.782-56.734-65.548-56.467H66.053c-1.943,0.002-3.912,0.091-5.853,0.267
			C24.143,26.016-2.541,58.001,0.718,94.058c0.01,0.108,0.02,0.215,0.032,0.323c7.684,72.354,32.649,142.88,72.197,203.955
			c35.892,56.461,84.701,105.269,141.162,141.164c60.792,39.406,130.99,64.369,203.013,72.196c0.127,0.015,0.254,0.027,0.38,0.038
			c1.961,0.176,3.949,0.266,5.921,0.266c0.083,0,0.165,0,0.247,0.001c36.204-0.148,65.538-29.722,65.391-65.841v-67.233
			C489.746,345.714,465.515,317.211,432.59,312.566z M447.698,378.695v67.548c0.055,13.396-10.8,24.338-24.19,24.393
			c-0.715-0.004-1.425-0.027-2.135-0.086c-65.578-7.161-129.488-29.914-184.837-65.808c-0.053-0.035-0.107-0.069-0.161-0.103
			c-51.429-32.68-95.885-77.137-128.565-128.565c-0.032-0.051-0.064-0.101-0.097-0.153C71.683,220.306,48.928,156.086,41.902,90.193
			C40.779,76.91,50.63,65.155,63.923,63.954c0.717-0.064,1.443-0.098,2.145-0.098h67.463c0.146-0.001,0.294-0.003,0.443-0.002
			c12.021,0,22.322,8.905,24.044,20.819c3.05,23.063,8.721,45.806,16.871,67.649c3.319,8.832,1.189,18.869-5.427,25.591
			l-28.517,28.517c-6.583,6.582-7.956,16.753-3.354,24.847c33.837,59.508,83.177,108.847,142.685,142.685
			c8.094,4.6,18.264,3.23,24.848-3.355l28.512-28.512c6.72-6.621,16.765-8.752,25.642-5.415
			c21.799,8.134,44.547,13.805,67.61,16.855c12.18,1.757,21.122,12.339,20.816,24.647
			C447.7,378.353,447.698,378.524,447.698,378.695z"/>
    </symbol>    

	<symbol id="footer-mail" role="img" aria-labelledby="footer-mail_title" viewBox="0 0 512 512">
        <title id="footer-mail_title"></title>
        <path d="M256,141.176c-63.306,0-114.809,51.503-114.809,114.809S192.694,370.795,256,370.795s114.809-51.503,114.809-114.809
			S319.306,141.176,256,141.176z M256,329.43c-40.498,0-73.445-32.947-73.445-73.445c0-40.498,32.947-73.445,73.445-73.445
			c40.499,0,73.445,32.947,73.445,73.445C329.445,296.483,296.499,329.43,256,329.43z"/>
		<path d="M437.008,74.97C388.656,26.623,324.375,0,256,0c-0.005,0-0.013,0-0.017,0C187.603,0.004,123.318,26.637,74.97,74.992
			C26.62,123.347-0.005,187.637,0,256.017c0.004,68.379,26.637,132.666,74.992,181.014C123.344,485.377,187.625,512.001,256,512
			c0.004,0,0.012,0,0.017,0c55.945-0.004,111.216-18.738,155.631-52.752c9.07-6.945,10.792-19.927,3.846-28.995
			c-6.945-9.069-19.926-10.794-28.995-3.846c-37.24,28.518-83.58,44.224-130.486,44.228c-0.006,0-0.006,0-0.014,0
			c-57.324,0-111.224-22.324-151.761-62.856c-40.542-40.536-62.871-94.435-62.875-151.766
			C41.357,137.663,137.636,41.372,255.986,41.364c0.007,0,0.006,0,0.014,0c118.34,0,214.628,96.279,214.636,214.622v23.532
			c0,27.523-22.39,49.913-49.913,49.913c-27.523,0-49.913-22.391-49.913-49.913v-23.532c0-11.422-9.259-20.682-20.682-20.682
			s-20.682,9.26-20.682,20.682v23.532c0,50.33,40.947,91.278,91.278,91.278S512,329.848,512,279.518v-23.534
			C511.995,187.604,485.362,123.318,437.008,74.97z"/>
    </symbol>

    <symbol id="footer-location" role="img" aria-labelledby="footer-location_title" viewBox="0 0 512 512">
        <title id="footer-location_title"></title>
        <path d="M406.766,62.449C366.495,22.178,312.951,0,256,0S145.505,22.178,105.234,62.449
			c-40.272,40.271-62.449,93.814-62.449,150.766c0,37.656,10.972,76.863,32.609,116.532c16.825,30.846,40.15,62.102,69.326,92.898
			c49.17,51.903,97.763,84.519,99.808,85.881C248.001,510.842,252,512,256,512c4,0,7.999-1.158,11.473-3.474
			c2.045-1.363,50.638-33.978,99.808-85.881c29.176-30.795,52.501-62.051,69.326-92.898c21.637-39.669,32.609-78.876,32.609-116.532
			C469.215,156.263,447.038,102.72,406.766,62.449z M256.001,465.903C215.826,436.156,84.15,329.739,84.15,213.215
			c0-94.759,77.091-171.851,171.85-171.851s171.85,77.092,171.851,171.851C427.851,329.748,296.159,436.168,256.001,465.903z"/>
		<path d="M256,128.355c-46.791,0-84.86,38.068-84.86,84.86c0,46.791,38.068,84.86,84.86,84.86c46.792,0,84.861-38.068,84.86-84.86
			C340.86,166.423,302.791,128.355,256,128.355z M256,256.71c-23.983,0-43.495-19.512-43.495-43.495
			c0-23.983,19.512-43.495,43.495-43.495c23.984,0,43.495,19.512,43.495,43.495C299.495,237.198,279.984,256.71,256,256.71z"/>
		</symbol>

	<symbol id="footer-time" role="img" aria-labelledby="footer-time_title" viewBox="0 0 512 512">
        <title id="footer-time_title"></title>
        <path d="M437.019,74.981C388.667,26.629,324.38,0,256,0S123.333,26.63,74.981,74.981S0,187.62,0,256
			s26.629,132.667,74.981,181.019C123.332,485.371,187.62,512,256,512s132.667-26.629,181.019-74.981
			C485.371,388.667,512,324.38,512,256S485.371,123.332,437.019,74.981z M256,470.636C137.65,470.636,41.364,374.35,41.364,256
			S137.65,41.364,256,41.364S470.636,137.65,470.636,256S374.35,470.636,256,470.636z"/>
		<path d="M341.221,311.97l-64.538-64.537V114.809c0-11.422-9.259-20.682-20.682-20.682c-11.422,0-20.682,9.26-20.682,20.682V256
			c0,5.486,2.179,10.746,6.058,14.625l70.594,70.595c4.038,4.039,9.332,6.058,14.625,6.058c5.293,0,10.586-2.019,14.626-6.058
			C349.297,333.142,349.297,320.047,341.221,311.97z"/>
	</symbol>

</svg>