<svg xmlns="http://www.w3.org/2000/svg" xmlns:xlink="http://www.w3.org/1999/xlink">	

	<symbol id="investors-what01" role="img" aria-labelledby="investors-what01_title" viewBox="0 0 512 512">
        <title id="investors-what01_title"></title>
        <path d="m332 257h40c0 63.960938-52.035156 116-116 116s-116-52.039062-116-116h40c0 41.90625 34.09375 76 76 76s76-34.09375 76-76zm154.480469-3.222656-11.230469 3.222656h-3.25v.933594l-61.96875 17.785156-2.449219 11.835938c-3.914062 18.90625-11.363281 36.816406-22.140625 53.230468l-6.753906 10.289063 31.640625 54.960937-4.292969 4.292969-54.960937-31.644531-10.289063 6.753906c-16.414062 10.777344-34.324218 18.226562-53.230468 22.140625l-12.097657 2.507813-16.46875 61.914062h-5.976562l-16.46875-61.914062-12.097657-2.503907c-18.910156-3.914062-36.816406-11.363281-53.234374-22.140625l-10.289063-6.753906-54.960937 31.640625-4.292969-4.292969 31.644531-54.957031-6.753906-10.289063c-10.777344-16.417968-18.226563-34.324218-22.140625-53.234374l-2.449219-11.832032-61.96875-17.789062v-.933594h-3.25l-11.230469-3.222656-.925781 3.222656h-24.59375v31.066406l68.125 19.554688c4.253906 15.488281 10.433594 30.367187 18.460938 44.449218l-34.875 60.574219 47.644531 47.644531 60.574219-34.875c14.003906 7.984376 28.792968 14.136719 44.191406 18.390626l18.140625 68.195312h67.476562l18.140625-68.195312c15.398438-4.253907 30.1875-10.40625 44.191406-18.390626l60.574219 34.875 47.644531-47.644531-34.875-60.574219c8.027344-14.082031 14.207032-28.960937 18.460938-44.449218l68.125-19.554688v-31.066406h-24.59375zm-446.480469-36.777344h-40c0-36.734375 20.183594-68.839844 50.039062-85.824219-6.335937-9.511719-10.039062-20.917969-10.039062-33.175781 0-33.085938 26.914062-60 60-60s60 26.914062 60 60c0 12.703125-3.980469 24.492188-10.742188 34.203125 5.839844 3.480469 11.3125 7.570313 16.332032 12.210937 9.902344-12.3125 22.265625-22.566406 36.335937-30.011718-9.945312-12.089844-15.925781-27.5625-15.925781-44.402344 0-38.597656 31.402344-70 70-70s70 31.402344 70 70c0 16.839844-5.980469 32.3125-15.925781 44.402344 14.070312 7.445312 26.433593 17.699218 36.339843 30.011718 5.019532-4.640624 10.492188-8.730468 16.332032-12.210937-6.765625-9.710937-10.746094-21.5-10.746094-34.203125 0-33.085938 26.914062-60 60-60s60 26.914062 60 60c0 12.257812-3.703125 23.664062-10.039062 33.175781 29.855468 16.984375 50.039062 49.089844 50.039062 85.824219h-40c0-32.347656-26.316406-58.667969-58.667969-58.667969-18.722656 0-35.878906 8.726563-46.847656 23.320313 3.578125 11.148437 5.515625 23.027344 5.515625 35.347656h-40c0-41.90625-34.09375-76-76-76s-76 34.09375-76 76h-40c0-12.320312 1.9375-24.199219 5.515625-35.347656-10.96875-14.59375-28.125-23.316406-46.847656-23.316406-32.351563-.003907-58.667969 26.316406-58.667969 58.664062zm352-119c0 11.027344 8.972656 20 20 20s20-8.972656 20-20-8.972656-20-20-20-20 8.972656-20 20zm-166-28c0 16.542969 13.457031 30 30 30s30-13.457031 30-30-13.457031-30-30-30-30 13.457031-30 30zm-146 28c0 11.027344 8.972656 20 20 20s20-8.972656 20-20-8.972656-20-20-20-20 8.972656-20 20zm0 0"/>
    </symbol>

    <symbol id="investors-what02" role="img" aria-labelledby="investors-what02_title" viewBox="-21 -21 682 682.66669">
        <title id="investors-what02_title"></title>
        <path d="m629.09375 219.007812-213.90625-30.429687-95.074219-188.578125-95.074219 188.578125-213.90625 30.429687 154.832032 147.746094-36.40625 207.816406 190.554687-98.078124 190.5625 98.078124-36.410156-207.816406zm-308.980469 201.226563-123.90625 63.769531 23.648438-134.976562-99.582031-95.019532 137.675781-19.585937 62.164062-123.296875 62.164063 123.296875 137.675781 19.585937-99.582031 95.019532 23.648437 134.976562zm164.960938-277.695313-39.597657-30.566406 55.027344-71.285156 39.59375 30.566406zm154.71875 255.042969-16.773438 47.128907-89.84375-31.976563 16.773438-47.128906zm-483.035157-254.828125-56.277343-71.285156 39.261719-30.996094 56.28125 71.285156zm-66.582031 221.167969 17.351563 46.917969-89.839844 33.222656-17.355469-46.914062zm204.929688 179.785156h50.019531v96.292969h-50.019531zm0 0"/>
    </symbol>

    <symbol id="investors-what03" role="img" aria-labelledby="investors-what03_title" viewBox="0 0 511.999 511.999">
        <title id="investors-what03_title"></title>
        <rect x="134.869" y="423.638" transform="matrix(-0.7071 -0.7071 0.7071 -0.7071 -65.4241 905.6945)" width="39.98" height="85.517"/>
		<rect x="2.655" y="336.961" transform="matrix(0.7071 -0.7071 0.7071 0.7071 -239.1015 136.6608)" width="85.517" height="39.98"/>
		<rect x="-4.59" y="428.915" transform="matrix(0.7071 -0.7071 0.7071 0.7071 -298.9997 175.9617)" width="134.99" height="39.98"/>
		<circle cx="251.061" cy="259.75" r="19.99"/>
		<path d="M490.117,0.896c-1.542,0.063-38.316,1.715-87.065,15.28c-64.917,18.063-120.634,49.015-161.129,89.508
			c-26.16,26.16-51.087,58.345-71.994,88.294l-19.142-19.142c-14.74-14.741-34.337-22.92-55.183-23.032
			c-0.145,0-0.289-0.001-0.434-0.001c-20.656,0-40.147,7.938-54.934,22.38L0.187,212.77v37.984h22.765
			c21.227,0,41.181,8.27,56.182,23.282l158.798,159.012c15.016,15.003,23.286,34.958,23.286,56.186v22.765h37.984l38.587-40.051
			c14.544-14.89,22.491-34.55,22.379-55.367c-0.112-20.845-8.291-40.442-23.031-55.182l-19.27-19.27
			c29.893-21.015,62.064-46.047,88.26-72.243c40.494-40.495,71.445-96.212,89.508-161.128
			c13.564-48.749,15.216-85.523,15.28-87.065L511.812,0L490.117,0.896z M125.172,263.561l-17.754-17.778
			c-14.716-14.729-32.599-25.141-52.115-30.598l12.726-12.261l0.112-0.109c15.07-14.75,39.464-14.618,54.374,0.292l24.735,24.735
			C138.441,241.536,130.955,253.808,125.172,263.561z M309.157,444.045l-12.37,12.839c-5.456-19.514-15.864-37.394-30.583-52.1
			l-17.654-17.678c9.692-5.809,21.912-13.335,35.558-22.19l24.757,24.755C323.777,404.581,323.908,428.973,309.157,444.045z
			 M377.855,241.617c-50.579,50.579-128.001,98.335-158.483,116.27l-64.978-65.065c17.767-30.56,65.168-108.235,115.799-158.867
			c28.245-28.245,61.559-47.779,92.438-61.201l76.423,76.423C425.634,180.056,406.1,213.372,377.855,241.617z M456.835,99.054
			c-0.799,2.844-1.662,5.78-2.58,8.784l-50.282-50.282c3.003-0.918,5.94-1.78,8.784-2.579c22.104-6.211,41.661-9.735,55.789-11.711
			C466.569,57.395,463.045,76.95,456.835,99.054z"/>
		<circle cx="306.034" cy="205.776" r="19.99"/>
		<circle cx="362.006" cy="150.805" r="19.99"/>
    </symbol>

    <symbol id="investors-what04" role="img" aria-labelledby="investors-what04_title" viewBox="-21 -21 682.66669 682.66669">
        <title id="investors-what04_title"></title>
        <path d="m640 0h-120.039062c-11.917969 0-22.855469 5.46875-30.003907 15.003906-7.148437 9.53125-9.332031 21.550782-5.996093 32.980469 4.78125 16.382813 6.5625 30 6.5625 34.734375 0 10.96875-10.328126 19.890625-23.023438 19.890625s-23.023438-8.921875-23.023438-19.890625c0-4.734375 1.78125-18.351562 6.5625-34.734375 3.335938-11.429687 1.152344-23.449219-5.996093-32.980469-7.148438-9.535156-18.085938-15.003906-30.003907-15.003906h-60.738281c-12.691406 0-54.398437 0-66.367187 0h-287.933594v120.039062c0 11.917969 5.46875 22.855469 15.003906 30.003907 9.53125 7.148437 21.554688 9.332031 32.980469 5.996093 16.382813-4.78125 30-6.5625 34.734375-6.5625 10.96875 0 19.890625 10.328126 19.890625 23.023438 0 12.691406-8.921875 23.023438-19.890625 23.023438-4.734375 0-18.351562-1.78125-34.734375-6.570313-11.429687-3.328125-23.449219-1.144531-32.980469 6-9.535156 7.152344-15.003906 18.089844-15.003906 30.007813v415.039062h120.039062c11.917969 0 22.855469-5.46875 30.003907-15.003906 7.148437-9.53125 9.332031-21.550782 5.996093-32.980469-4.78125-16.382813-6.5625-30-6.5625-34.734375 0-10.96875 10.328126-19.890625 23.023438-19.890625s23.023438 8.921875 23.023438 19.890625c0 4.734375-1.78125 18.351562-6.5625 34.734375-3.335938 11.429687-1.152344 23.449219 5.996093 32.980469 7.148438 9.535156 18.085938 15.003906 30.003907 15.003906h415.039062v-120.039062c0-11.917969-5.46875-22.855469-15.003906-30.003907-9.53125-7.148437-21.554688-9.335937-32.980469-5.996093-16.382813 4.78125-30 6.5625-34.734375 6.5625-10.96875 0-19.890625-10.328126-19.890625-23.023438 0-12.691406 8.921875-23.023438 19.890625-23.023438 4.734375 0 18.351562 1.78125 34.734375 6.570313 11.429687 3.332031 23.449219 1.144531 32.980469-6 9.535156-7.152344 15.003906-18.089844 15.003906-30.003906v-60.738281c0-12.6875 0-54.402344 0-66.367188zm-285.699219 50h44.609375c-2.808594 12.539062-4.4375 24.292969-4.4375 32.71875 0 38.535156 32.757813 69.890625 73.027344 69.890625 40.265625 0 73.023438-31.355469 73.023438-69.890625 0-8.425781-1.632813-20.179688-4.4375-32.71875h44.613281c5.039062 0 9.296875 3.238281 9.296875 7.066406v230.867188c0 3.828125-4.257813 7.066406-9.296875 7.066406h-44.613281c2.804687-12.539062 4.4375-24.296875 4.4375-32.71875 0-38.539062-32.757813-69.894531-73.023438-69.894531-40.269531 0-73.027344 31.359375-73.027344 69.894531 0 8.421875 1.628906 20.179688 4.4375 32.71875h-44.609375c-5.042969 0-9.300781-3.238281-9.300781-7.066406h-.054688c.023438-.742188.054688-1.488282.054688-2.234375v-60.738281c0-11.917969-5.46875-22.855469-15.003906-30.003907-9.53125-7.148437-21.554688-9.332031-32.980469-5.996093-16.382813 4.78125-30 6.5625-34.734375 6.5625-10.96875 0-19.890625-10.328126-19.890625-23.023438s8.921875-23.023438 19.890625-23.023438c4.734375 0 18.351562 1.78125 34.734375 6.5625 11.429687 3.339844 23.449219 1.152344 32.980469-5.996093 9.535156-7.148438 15.003906-18.085938 15.003906-30.003907v-60.738281c0-.746093-.03125-1.492187-.054688-2.234375h.054688c0-3.828125 4.257812-7.066406 9.300781-7.066406zm-304.300781 191.089844c12.539062 2.808594 24.292969 4.433594 32.71875 4.433594 38.535156 0 69.890625-32.757813 69.890625-73.023438s-31.355469-73.023438-69.890625-73.023438c-8.425781 0-20.179688 1.625-32.71875 4.4375v-44.613281c0-5.042969 3.238281-9.300781 7.066406-9.300781h230.867188c3.828125 0 7.066406 4.257812 7.066406 9.300781v44.609375c-12.539062-2.808594-24.296875-4.433594-32.71875-4.433594-38.535156 0-69.894531 32.757813-69.894531 73.023438s31.359375 73.023438 69.894531 73.023438c8.421875 0 20.179688-1.632813 32.71875-4.4375v44.609374c0 5.042969-3.238281 9.300782-7.066406 9.300782v.058594c-.742188-.03125-1.488282-.058594-2.234375-.058594h-60.738281c-11.917969 0-22.855469 5.46875-30.003907 15.007812-7.148437 9.527344-9.335937 21.550782-6.003906 32.972656 4.789063 16.390626 6.570313 30 6.570313 34.738282 0 10.964844-10.328126 19.894531-23.023438 19.894531s-23.027344-8.929687-23.027344-19.894531c0-4.730469 1.785156-18.347656 6.566406-34.738282 3.335938-11.421874 1.152344-23.445312-5.996093-32.972656-7.148438-9.535156-18.085938-15.003906-30.003907-15.003906h-60.738281c-.75 0-1.492187.03125-2.234375.054688v-.054688c-3.828125 0-7.066406-4.257812-7.066406-9.300781zm235.699219 348.910156h-44.609375c2.808594-12.539062 4.4375-24.292969 4.4375-32.71875 0-38.535156-32.757813-69.890625-73.027344-69.890625-40.265625 0-73.023438 31.355469-73.023438 69.890625 0 8.425781 1.632813 20.179688 4.4375 32.71875h-44.613281c-5.042969 0-9.300781-3.238281-9.300781-7.066406v-230.867188c0-3.828125 4.257812-7.066406 9.300781-7.066406h44.609375c-2.808594 12.539062-4.4375 24.292969-4.4375 32.71875 0 38.535156 32.757813 69.890625 73.027344 69.890625 40.265625 0 73.023438-31.355469 73.023438-69.890625 0-8.425781-1.632813-20.179688-4.4375-32.71875h44.613281c5.039062 0 9.296875 3.238281 9.296875 7.066406h.058594c-.03125.742188-.058594 1.484375-.058594 2.234375v60.738281c0 11.917969 5.46875 22.855469 15.007812 30.003907 9.527344 7.148437 21.550782 9.332031 32.980469 5.996093 16.382813-4.78125 29.992187-6.5625 34.730469-6.5625 10.964844 0 19.894531 10.328126 19.894531 23.023438 0 12.691406-8.929687 23.023438-19.894531 23.023438-4.738282 0-18.347656-1.78125-34.738282-6.570313-11.421874-3.332031-23.445312-1.144531-32.972656 6-9.539062 7.152344-15.007812 18.089844-15.007812 30.003906v60.738281c0 .75.027344 1.492188.058594 2.238282h-.054688c0 3.828125-4.257812 7.066406-9.300781 7.066406zm304.300781-191.089844c-12.539062-2.808594-24.292969-4.433594-32.71875-4.433594-38.535156 0-69.890625 32.757813-69.890625 73.023438s31.355469 73.023438 69.890625 73.023438c8.425781 0 20.179688-1.632813 32.71875-4.4375v44.609374c0 5.042969-3.238281 9.300782-7.066406 9.300782h-230.867188c-3.828125 0-7.066406-4.257813-7.066406-9.300782v-44.605468c12.539062 2.808594 24.292969 4.433594 32.71875 4.433594 38.535156 0 69.890625-32.757813 69.890625-73.023438s-31.355469-73.023438-69.890625-73.023438c-8.425781 0-20.179688 1.632813-32.71875 4.4375v-44.609374c0-5.042969 3.238281-9.300782 7.066406-9.300782v-.058594c.742188.03125 1.484375.058594 2.234375.058594h60.738281c11.917969 0 22.855469-5.46875 30.003907-15.007812 7.148437-9.527344 9.332031-21.550782 5.996093-32.972656-4.78125-16.390626-6.5625-30-6.5625-34.738282 0-10.964844 10.328126-19.894531 23.023438-19.894531s23.023438 8.929687 23.023438 19.894531c0 4.730469-1.78125 18.347656-6.5625 34.738282-3.335938 11.421874-1.152344 23.445312 5.996093 32.972656 7.148438 9.535156 18.085938 15.007812 30.003907 15.007812h60.738281c.75 0 1.492187-.027344 2.234375-.058594v.054688c3.828125 0 7.066406 4.257812 7.066406 9.300781zm0 0"/>
    </symbol>
    
</svg>