<?xml version="1.0" encoding="utf-8"?>
<!-- Generator: Adobe Illustrator 20.1.0, SVG Export Plug-In . SVG Version: 6.00 Build 0)  -->
<svg version="1.1" id="Слой_1" xmlns="http://www.w3.org/2000/svg" xmlns:xlink="http://www.w3.org/1999/xlink" x="0px" y="0px"
	 viewBox="0 0 2294 618.9" style="enable-background:new 0 0 2294 618.9;" xml:space="preserve">
<style type="text/css">
	.st0{fill:#1B7FC3;}
</style>
<g id="Слой_x0020_1">
	<path class="st0" d="M1007.7,90.5c14.6,42.3,27,85.7,42.4,127.7c13.4-42.4,27.5-85.7,42.2-127.7h22.3c14.6,42,28.5,85.9,44.8,127.2
		c12.5-41.9,26.7-85.3,39.8-127.2h37.9c-21,58.9-42.6,119.2-63.9,177.9H1144c-14.9-36.2-28-73.8-40.6-110.8
		c-12.2,37.1-25,74.8-40,110.8h-28.1c-22.7-59-43.3-118.9-66.1-177.9H1007.7L1007.7,90.5z"/>
	<path class="st0" d="M1767.7,85.5c-54.3,0.5-91.6,42.2-91.6,94.3c0,52.1,34.6,94.3,91.6,94.3c57,0,91.6-42.2,91.6-94.3
		C1859.3,127.8,1821.9,85.1,1767.7,85.5z M1767.8,242c-32.4,0-58.6-28.3-58.6-63.3c0-34.9,26.2-63.3,58.6-63.3
		c32.4,0,58.6,28.3,58.6,63.3C1826.4,213.7,1800.2,242,1767.8,242z"/>
	<polygon class="st0" points="0,0 515.1,0 363.7,268.3 254.1,268.3 350.9,435.2 550.6,91.5 604.2,0 710.7,0 505.6,354.8 554.8,435 
		796.4,11.2 803.6,0 910.8,0 788.9,212.5 555.6,616.2 452.9,446.3 351.1,618.9 99.4,175.4 312,175.2 354,93.6 53.4,94.3 1.6,3.1 	
		"/>
	<path class="st0" d="M2092.1,390.3c18.2-28,54-40.7,86.5-35.5c23.2,3.7,33.6,12.8,49.9,27.4c-7.7,5.1-14.8,10.7-22,16.3
		c-20.7-14.8-49.9-19.7-72.4-6.1c-35.2,21.1-34.2,82.2,3.5,100.2c23.2,11.5,50.3,4.6,70.5-9.9c6.7,5.9,16.7,14.6,23.6,20.4
		c-19.4,15.1-46,24.2-71.7,24.2c-18.5,0-36.7-4.3-51.4-16.3C2072.8,483.3,2067.6,427.1,2092.1,390.3z"/>
	<polygon class="st0" points="2021.6,357.2 2053.5,357.2 2053.5,524.6 2021.5,524.7 	"/>
	<polygon class="st0" points="1914.7,356.6 1914.7,356.6 1914.7,495.2 1999.8,495.2 1999.8,524.6 1882.2,524.6 1882.2,357.2 
		1914.7,357.2 	"/>
	<path class="st0" d="M1750.4,451.9l-0.2,43c21.5,0.2,49,1.4,64.9-3.5c21.1-6.6,16.5-29.2-0.9-35.4
		C1803.9,450.8,1773,451.7,1750.4,451.9z M1750.1,386.3c0.2,12.6,0.2,25.1,0.2,37.7c6.3,0.1,20.9,0.4,35.1,0
		c13.6-0.4,39.5,1.5,38.6-18.3c-0.6-13.5-13.6-19.5-31.4-19.6C1785.6,386.1,1759.9,386.4,1750.1,386.3L1750.1,386.3z M1718.8,357.4
		c11.9,0.6,23.9,0.3,35.9,0h41.1c27.9,1.6,53.6,6.2,59.1,39.3c2.7,15.9-2.8,32.6-19,40.5c14.7,9.7,27.5,25.5,24.6,44.3
		c-1,22.9-21.6,39.8-43.5,41.6c-7.9,0.9-15.8,1.4-23.7,1.6h-43.1c-10.1-0.2-20.2-0.2-30.2,0h-1.2
		C1719,468.8,1718.9,413.1,1718.8,357.4z"/>
	<path class="st0" d="M1575.1,357.2c0.2,34.7-1.7,72.4,0.6,106.9c3.1,44.9,81.4,49.2,81.6,0l0.4-107h31.8
		c-1.2,37,1.8,77.1-1.6,113.8c-8.1,76.2-136.2,74.6-143.4-2.1l-1.3-111.7H1575.1L1575.1,357.2z"/>
	<path class="st0" d="M1413.8,445.7c11.5-0.1,23,0.5,34.5,0.5c20.6-0.1,42-2.3,42.5-29.3c0.4-20.2-11.9-27.4-29.4-28.7
		c-14-1-31.8-0.7-47.5-0.5L1413.8,445.7L1413.8,445.7z M1382.3,357.4c8.3,0.2,16.6,0.2,24.9,0h51.8c7,0.4,13.9,1,20.8,2.1
		c41.9,9.2,56.5,67.8,27,97.6c-21.5,23.6-61.7,16.9-92.7,18.3l0.3,49.1h-32.2L1382.3,357.4L1382.3,357.4z"/>
	<polygon class="st0" points="1358.8,387.6 1265.1,387.6 1265.1,425.8 1355.1,425.8 1355.2,455.6 1265.1,455.6 1265.1,493.4 
		1358.8,493.5 1358.8,524.2 1233.3,524.4 1233.3,356.9 1358.8,356.9 	"/>
	<path class="st0" d="M1105.1,387.3c0.2,17.1,0.3,34.7,0.1,52.3c19.6-0.2,45.7,0.9,58.8-1.2c22.2-5.8,23.8-41.1,2.2-49
		C1151.6,386.3,1125.5,387,1105.1,387.3L1105.1,387.3z M1151.1,357.5c5.4,0.3,10.7,0.7,16.1,1.2c28.2,3.6,49.9,31.6,46,59.9
		c-0.3,23.5-19.2,41.8-41.1,47.1c16.9,20,34.4,39.4,52.2,58.6c-6.4,0.1-12.8,0.2-19.1,0.3h-20.8c-16.7-18.5-32.8-37.4-48.9-56.4
		c-10.1,0.1-20.2,0.2-30.2,0.2c0.3,18.7,0.4,37.4,0.6,56.1c-6,0-11.9,0.1-17.8,0.1h-14.3c0.2-55.7,0.1-111.4,0.1-167.1L1151.1,357.5
		L1151.1,357.5z"/>
	<path class="st0" d="M1902.2,90.1c14.6,42.3,27,85.7,42.4,127.7c13.4-42.4,27.5-85.7,42.2-127.7h22.3c14.6,42,28.5,86,44.8,127.2
		c12.5-41.9,26.7-85.3,39.8-127.2h37.9c-21.1,59-42.7,119.4-64.1,178.3h-28.8c-15-36.3-28.1-74.1-40.7-111.3
		c-12.2,37.2-25.1,75.1-40.2,111.3h-27.7c-22.7-59.1-43.4-119.2-66.2-178.3H1902.2L1902.2,90.1z"/>
	<path class="st0" d="M1534.3,122.2c0.4,37.9,0.2,76.9,0.1,114.8c23.5-0.5,50,2.1,68.3-9.4c34.9-22.1,31.8-84.1-6.7-100.9
		C1579.7,120.7,1555.8,122,1534.3,122.2z M1500.7,90.2c27.2,0.2,50.8-0.2,75.1-0.2c117.4,8.8,110.7,170.7-2.3,178.5H1535
		c-11.6,0-22.7,0-34.4-0.1L1500.7,90.2L1500.7,90.2z"/>
	<polygon class="st0" points="1351.8,89.9 1440.1,200.5 1439.2,89.9 1474.7,89.9 1475,268.4 1452.3,268.4 1358.1,147.4 
		1359.2,268.4 1324.6,268.4 1324.7,89.9 	"/>
	<polygon class="st0" points="1257.4,90.1 1291.7,90.1 1291.9,271.7 1257.3,271.7 	"/>
	<path class="st0" d="M2168.3,98.3c35-23,98.1-16.4,122,20.2c-8.8,4.6-17.7,9.1-26.4,13.6c-18.7-16.3-46.3-25.5-69.7-13.5
		c-12.9,6-17.3,26-2.5,32.6c26.3,11.2,57.7,6.9,82.2,23c18.4,12.7,24,37.6,17.5,58.4c-6.5,20.8-22.1,30.8-42.3,36.2
		c-10.9,2.9-22.7,4.2-33.9,4c-13.8-0.2-26.7-2.5-36-6.4c-16.9-7-30.4-20.9-39.6-37.1c9.3-4.7,18.5-9.5,27.8-14.1
		c18.2,26.2,55.6,36.1,83.3,19.4c13.6-8.2,13.5-30-1.3-36.8c-26.7-12.3-59.7-6.6-83.8-25.2C2142.2,154.9,2143.8,114.4,2168.3,98.3
		L2168.3,98.3z"/>
</g>
</svg>
