<?xml version="1.0" encoding="utf-8"?>
<!-- Generator: Adobe Illustrator 20.1.0, SVG Export Plug-In . SVG Version: 6.00 Build 0)  -->
<svg version="1.1" id="Слой_1" xmlns="http://www.w3.org/2000/svg" xmlns:xlink="http://www.w3.org/1999/xlink" x="0px" y="0px"
	 viewBox="0 0 2294 619" style="enable-background:new 0 0 2294 619;" xml:space="preserve">
<style type="text/css">
	.st0{fill:#1B7FC3;}
	.st1{fill:#FFFFFF;}
</style>
<g id="Слой_x0020_1">
	<path class="st0" d="M1007.7,90.7c14.6,42.3,27,85.7,42.4,127.7c13.4-42.4,27.5-85.7,42.2-127.7h22.3c14.6,42,28.5,85.9,44.8,127.2
		c12.5-41.9,26.7-85.3,39.8-127.2h37.9c-21,58.9-42.6,119.2-63.9,177.9H1144c-14.9-36.2-28-73.8-40.6-110.8
		c-12.2,37.1-25,74.8-40,110.8h-28.1c-22.7-59-43.3-118.9-66.1-177.9H1007.7L1007.7,90.7z"/>
	<path class="st0" d="M1767.7,85.7c54.2-0.5,91.6,42.2,91.6,94.3c0,52.1-34.6,94.3-91.6,94.3c-57,0-91.6-42.2-91.6-94.3
		C1676.1,127.9,1713.4,86.1,1767.7,85.7z"/>
	<path class="st1" d="M1767.8,115.6c32.4,0,58.6,28.3,58.6,63.3s-26.3,63.3-58.6,63.3c-32.4,0-58.6-28.3-58.6-63.3
		S1735.4,115.6,1767.8,115.6z"/>
	<polygon class="st0" points="0,0.1 515.1,0.1 363.7,268.5 254.1,268.5 350.9,435.3 550.6,91.6 604.2,0.1 710.7,0.1 505.6,354.9 
		554.8,435.1 796.4,11.3 803.6,0.1 910.8,0.1 788.9,212.6 555.6,616.4 452.9,446.4 351.1,619 99.4,175.6 312,175.4 354,93.7 
		53.4,94.4 1.6,3.3 	"/>
	<path class="st0" d="M2092.1,390.4c18.2-28,54-40.7,86.5-35.5c23.2,3.7,33.6,12.8,49.9,27.4c-7.7,5.1-14.8,10.7-22,16.3
		c-20.7-14.8-49.9-19.7-72.4-6.1c-35.2,21.1-34.2,82.2,3.5,100.2c23.2,11.5,50.3,4.6,70.5-9.9c6.7,5.9,16.7,14.6,23.6,20.4
		c-19.4,15.1-46,24.2-71.7,24.2c-18.5,0-36.7-4.3-51.4-16.3C2072.8,483.4,2067.6,427.2,2092.1,390.4z"/>
	<polygon class="st0" points="2021.6,357.3 2053.5,357.3 2053.5,524.7 2021.5,524.8 	"/>
	<polygon class="st0" points="1914.7,356.7 1914.7,356.7 1914.7,495.3 1999.8,495.3 1999.8,524.8 1882.2,524.8 1882.2,357.3 
		1914.7,357.3 	"/>
	<path class="st0" d="M1750.4,452l-0.2,43c21.5,0.2,49,1.4,64.9-3.5c21.1-6.6,16.5-29.2-0.9-35.4
		C1803.9,450.9,1773,451.8,1750.4,452z M1750.1,386.4c0.2,12.6,0.2,25.1,0.2,37.7c6.3,0.1,20.9,0.4,35.1,0
		c13.6-0.4,39.5,1.5,38.6-18.3c-0.6-13.5-13.6-19.5-31.4-19.6C1785.6,386.2,1759.9,386.6,1750.1,386.4L1750.1,386.4z M1718.8,357.5
		c11.9,0.6,23.9,0.3,35.9,0h41.1c27.9,1.6,53.6,6.2,59.1,39.3c2.7,15.9-2.8,32.6-19,40.5c14.7,9.7,27.5,25.5,24.6,44.3
		c-1,22.9-21.6,39.8-43.5,41.6c-7.9,0.9-15.8,1.4-23.7,1.6h-43.1c-10.1-0.2-20.2-0.2-30.2,0h-1.2
		C1719,469,1718.9,413.2,1718.8,357.5z"/>
	<path class="st0" d="M1575.1,357.3c0.2,34.7-1.7,72.4,0.6,106.9c3.1,44.9,81.4,49.2,81.6,0l0.4-107h31.8
		c-1.2,37,1.8,77.1-1.6,113.8c-8.1,76.2-136.2,74.6-143.4-2.1l-1.3-111.7H1575.1L1575.1,357.3z"/>
	<path class="st0" d="M1413.8,445.8c11.5-0.1,23,0.5,34.5,0.5c20.6-0.1,42-2.3,42.5-29.3c0.4-20.2-11.9-27.4-29.4-28.7
		c-14-1-31.8-0.7-47.5-0.5L1413.8,445.8L1413.8,445.8z M1382.3,357.5c8.3,0.2,16.6,0.2,24.9,0h51.8c7,0.4,13.9,1,20.8,2.1
		c41.9,9.2,56.5,67.8,27,97.6c-21.5,23.6-61.7,16.9-92.7,18.3l0.3,49.1h-32.2L1382.3,357.5L1382.3,357.5z"/>
	<polygon class="st0" points="1358.8,387.7 1265.1,387.7 1265.1,425.9 1355.1,425.9 1355.2,455.8 1265.1,455.8 1265.1,493.6 
		1358.8,493.6 1358.8,524.3 1233.3,524.5 1233.3,357 1358.8,357 	"/>
	<path class="st0" d="M1105.1,387.4c0.2,17.1,0.3,34.7,0.1,52.3c19.6-0.2,45.7,0.9,58.8-1.2c22.2-5.8,23.8-41.1,2.2-49
		C1151.6,386.4,1125.5,387.1,1105.1,387.4L1105.1,387.4z M1151.1,357.7c5.4,0.3,10.7,0.7,16.1,1.2c28.2,3.6,49.9,31.6,46,59.9
		c-0.3,23.5-19.2,41.8-41.1,47.1c16.9,20,34.4,39.4,52.2,58.6c-6.4,0.1-12.8,0.2-19.1,0.3h-20.8c-16.7-18.5-32.8-37.4-48.9-56.4
		c-10.1,0.1-20.2,0.2-30.2,0.2c0.3,18.7,0.4,37.4,0.6,56.1c-6,0-11.9,0.1-17.8,0.1h-14.3c0.2-55.7,0.1-111.4,0.1-167.1L1151.1,357.7
		L1151.1,357.7z"/>
	<path class="st0" d="M1902.2,90.2c14.6,42.3,27,85.7,42.4,127.7c13.4-42.4,27.5-85.7,42.2-127.7h22.3c14.6,42,28.5,86,44.8,127.2
		c12.5-41.9,26.7-85.3,39.8-127.2h37.9c-21.1,59-42.7,119.4-64.1,178.3h-28.8c-15-36.3-28.1-74.1-40.7-111.3
		c-12.2,37.2-25.1,75.1-40.2,111.3h-27.7c-22.7-59.1-43.4-119.2-66.2-178.3H1902.2L1902.2,90.2z"/>
	<path class="st0" d="M1534.3,122.3c0.4,37.9,0.2,76.9,0.1,114.8c23.5-0.5,50,2.1,68.3-9.4c34.9-22.1,31.8-84.1-6.7-100.9
		C1579.7,120.8,1555.8,122.1,1534.3,122.3z M1500.7,90.3c27.2,0.2,50.8-0.2,75.1-0.2c117.4,8.8,110.7,170.7-2.3,178.5H1535
		c-11.6,0-22.7,0-34.4-0.1L1500.7,90.3L1500.7,90.3z"/>
	<polygon class="st0" points="1351.8,90 1440.1,200.6 1439.2,90 1474.7,90 1475,268.5 1452.3,268.5 1358.1,147.6 1359.2,268.5 
		1324.6,268.5 1324.7,90 	"/>
	<polygon class="st0" points="1257.4,90.2 1291.7,90.2 1291.9,271.8 1257.3,271.8 	"/>
	<path class="st0" d="M2168.3,98.4c35-23,98.1-16.4,122,20.2c-8.8,4.6-17.7,9.1-26.4,13.6c-18.7-16.3-46.3-25.5-69.7-13.5
		c-12.9,6-17.3,26-2.5,32.6c26.3,11.2,57.7,6.9,82.2,23c18.4,12.7,24,37.6,17.5,58.4c-6.5,20.8-22.1,30.8-42.3,36.2
		c-10.9,2.9-22.7,4.2-33.9,4c-13.8-0.2-26.7-2.5-36-6.4c-16.9-7-30.4-20.9-39.6-37.1c9.3-4.7,18.5-9.5,27.8-14.1
		c18.2,26.2,55.6,36.1,83.3,19.4c13.6-8.2,13.5-30-1.3-36.8c-26.7-12.3-59.7-6.6-83.8-25.2C2142.2,155,2143.8,114.5,2168.3,98.4
		L2168.3,98.4z"/>
</g>
</svg>
