<svg xmlns="http://www.w3.org/2000/svg" xmlns:xlink="http://www.w3.org/1999/xlink">

	<symbol id="services01" role="img" aria-labelledby="services01_title" viewBox="0 0 512 512">
        <title id="services01_title"></title>
        <path d="M256,66C151.234,66,66,151.234,66,256s85.234,190,190,190s190-85.234,190-190S360.766,66,256,66z M172.694,107.858
            c-9.382,12.538-15.999,27.258-18.952,43.246c-8.425-1.651-16.522-4.588-24.069-8.737
            C142.009,128.667,156.535,116.981,172.694,107.858z M117.046,158.173c10.821,6.431,22.625,10.784,34.963,12.935V246H86.302
            C88.201,213.435,99.302,183.302,117.046,158.173z M117.045,353.825C99.302,328.697,88.201,298.565,86.302,266h65.707v74.892
            C139.672,343.042,127.866,347.395,117.045,353.825z M129.672,369.632c7.547-4.15,15.645-7.086,24.07-8.737
            c2.953,15.988,9.57,30.708,18.952,43.247C156.534,395.019,142.008,383.332,129.672,369.632z M246,425.338
            c-35.845-4.275-64.83-31.195-72.177-66.017H246V425.338z M246,339.321h-73.991V266H246V339.321z M246,246h-73.991v-73.321H246V246
            z M246,152.678h-72.177c7.347-34.822,36.332-61.742,72.177-66.017V152.678z M394.955,158.174
            c17.743,25.129,28.844,55.261,30.743,87.826h-65.707v-74.892C372.329,168.958,384.134,164.605,394.955,158.174z M382.328,142.368
            c-7.547,4.15-15.645,7.086-24.07,8.737c-2.953-15.988-9.57-30.708-18.952-43.247C355.466,116.981,369.992,128.668,382.328,142.368
            z M266,86.661c35.845,4.275,64.83,31.195,72.177,66.017H266V86.661z M266,172.679h73.991V246H266V172.679z M266,266h73.991v73.321
            H266V266z M266,425.339v-66.017h72.177C330.83,394.144,301.845,421.064,266,425.339z M339.306,404.142
            c9.382-12.538,15.999-27.258,18.952-43.246c8.425,1.651,16.522,4.588,24.069,8.737
            C369.991,383.333,355.465,395.019,339.306,404.142z M394.954,353.827c-10.821-6.431-22.625-10.784-34.963-12.935V266h65.707
            C423.799,298.565,412.698,328.698,394.954,353.827z"/>
        <path d="M405.999,451.232c-3.189-4.509-9.429-5.583-13.939-2.393C352.121,477.075,305.072,492,256,492
            c-27.156,0-53.776-4.573-79.118-13.593c-5.205-1.853-10.923,0.864-12.774,6.068c-1.852,5.203,0.865,10.922,6.068,12.774
            C197.677,507.037,226.552,512,256,512c53.23,0,104.271-16.193,147.606-46.83C408.115,461.982,409.187,455.741,405.999,451.232z"/>
        <path d="M351.799,18.539C321.346,6.237,289.114,0,256,0c-54.599,0-106.711,16.963-150.705,49.056
            c-4.461,3.254-5.44,9.51-2.186,13.972c1.959,2.683,5.002,4.107,8.088,4.107c2.044,0,4.107-0.625,5.885-1.922
            C157.63,35.634,205.667,20,256,20c30.535,0,60.247,5.748,88.309,17.083c5.121,2.071,10.949-0.405,13.017-5.527
            C359.395,26.435,356.92,20.607,351.799,18.539z"/>
        <path d="M461.461,103.299c4.217-6.226,6.487-13.561,6.487-21.247c0-10.15-3.953-19.693-11.13-26.87
            c-7.177-7.178-16.72-11.13-26.87-11.13c-10.15,0-19.693,3.953-26.87,11.13c-7.178,7.177-11.13,16.72-11.13,26.87
            s3.953,19.693,11.13,26.87c7.177,7.178,16.72,11.13,26.87,11.13c5.743,0,11.29-1.267,16.325-3.666
            C476.216,157.038,492,205.111,492,256c0,30.72-5.815,60.599-17.284,88.806c-2.08,5.116,0.381,10.95,5.497,13.03
            c1.234,0.501,2.509,0.739,3.763,0.739c3.948,0,7.688-2.354,9.267-6.236C505.689,321.728,512,289.315,512,256
            C512,200.276,494.547,147.665,461.461,103.299z M442.676,94.779c-3.399,3.4-7.92,5.272-12.728,5.272s-9.328-1.871-12.728-5.272
            c-3.4-3.399-5.272-7.92-5.272-12.728c0-4.808,1.872-9.328,5.272-12.728c3.399-3.4,7.92-5.272,12.728-5.272
            s9.328,1.872,12.728,5.272c3.4,3.399,5.272,7.92,5.272,12.728C447.948,86.859,446.076,91.379,442.676,94.779z"/>
        <path d="M103.265,408.734c-8.781-8.779-21.695-10.968-32.537-6.566C37.542,360.174,20,309.652,20,256
            c0-25.049,3.904-49.707,11.604-73.287c1.714-5.25-1.152-10.896-6.402-12.61c-5.25-1.716-10.896,1.152-12.61,6.402
            C4.236,202.093,0,228.839,0,256c0,58.502,19.223,113.581,55.592,159.281c0.058,0.072,0.124,0.134,0.183,0.204
            c-6.265,11.396-4.583,26.029,5.064,35.676c5.849,5.848,13.531,8.772,21.213,8.772s15.365-2.924,21.213-8.772
            C114.962,439.464,114.962,420.432,103.265,408.734z M89.123,437.019c-1.889,1.889-4.4,2.929-7.071,2.929s-5.182-1.04-7.071-2.929
            c-1.889-1.889-2.929-4.4-2.929-7.071s1.04-5.182,2.929-7.071c1.889-1.889,4.4-2.929,7.071-2.929s5.182,1.04,7.071,2.929
            c1.889,1.889,2.929,4.4,2.929,7.071S91.012,435.13,89.123,437.019z"/>
        <path d="M89.12,74.98c-1.86-1.86-4.43-2.93-7.07-2.93c-2.63,0-5.21,1.07-7.07,2.93c-1.86,1.86-2.93,4.44-2.93,7.07
            s1.07,5.21,2.93,7.07c1.86,1.86,4.44,2.93,7.07,2.93s5.21-1.07,7.07-2.93s2.93-4.44,2.93-7.07S90.98,76.84,89.12,74.98z"/>
        <path d="M437.02,422.88c-1.86-1.86-4.44-2.93-7.07-2.93s-5.21,1.07-7.07,2.93c-1.86,1.86-2.93,4.44-2.93,7.07s1.07,5.21,2.93,7.07
            c1.86,1.86,4.44,2.93,7.07,2.93s5.21-1.07,7.07-2.93s2.93-4.44,2.93-7.07S438.88,424.74,437.02,422.88z"/>
    </symbol>

    <symbol id="services02" role="img" aria-labelledby="services02_title" viewBox="0 0 512 512">
        <title id="services02_title"></title>
        <path d="m472.894531 216.894531c-18.105469 0-33.371093 12.375-37.800781 29.105469h-63.660156c-1.25-.820312-2.542969-1.589844-3.875-2.292969.433594-2.597656.652344-5.238281.652344-7.90625 0-20.796875-13.445313-38.503906-32.097657-44.910156l53.664063-54.441406c5.765625 3.355469 12.453125 5.285156 19.589844 5.285156 21.5625 0 39.105468-17.542969 39.105468-39.101563 0-21.5625-17.542968-39.105468-39.105468-39.105468-21.558594 0-39.101563 17.542968-39.101563 39.105468 0 7.179688 1.953125 13.910157 5.347656 19.703126l-64.574219 65.503906c-11.324218-14.042969-27.386718-23.140625-45.207031-25.628906l.152344-85.300782c16.738281-4.425781 29.117187-19.695312 29.117187-37.804687 0-21.5625-17.539062-39.105469-39.101562-39.105469s-39.105469 17.542969-39.105469 39.105469c0 18.097656 12.367188 33.359375 29.089844 37.796875l-.152344 85.328125c-17.578125 2.511719-33.4375 11.546875-44.59375 24.871093l-64.820312-64.824218c3.375-5.777344 5.316406-12.488282 5.316406-19.644532 0-21.5625-17.542969-39.105468-39.101563-39.105468-21.5625 0-39.105468 17.542968-39.105468 39.105468s17.542968 39.101563 39.105468 39.101563c7.15625 0 13.867188-1.941406 19.644532-5.3125l68.191406 68.191406c-.015625.039063-.035156.074219-.050781.113281-.417969-.015624-.835938-.023437-1.257813-.023437-19.066406 0-34.574218 15.511719-34.574218 34.578125 0 .160156 0 .324219.003906.488281-5.035156 1.320313-9.75 3.449219-14.003906 6.230469h-63.679688c-4.429688-16.730469-19.695312-29.101562-37.800781-29.101562-21.5625-.003907-39.105469 17.539062-39.105469 39.101562s17.542969 39.101562 39.105469 39.101562c18.105469 0 33.371093-12.371093 37.800781-29.101562h46.363281c-2.835937 6.097656-4.429687 12.878906-4.429687 20.011719 0 25.511719 20.089844 46.417969 45.277344 47.726562l-41.839844 41.839844c-5.777344-3.371094-12.488282-5.3125-19.644532-5.3125-21.5625 0-39.105468 17.542969-39.105468 39.101563 0 21.5625 17.542968 39.105468 39.105468 39.105468 21.558594 0 39.101563-17.542968 39.101563-39.105468 0-7.15625-1.941406-13.867188-5.316406-19.644532l55.917969-55.914062h53.664062v9.992187c0 5.523438 4.476562 10 10 10s10-4.476562 10-10v-9.992187h53.664062l55.914063 55.914062c-3.371094 5.777344-5.3125 12.488282-5.3125 19.644532 0 21.5625 17.542969 39.105468 39.101563 39.105468 21.5625 0 39.105468-17.542968 39.105468-39.105468 0-21.558594-17.542968-39.101563-39.105468-39.101563-7.15625 0-13.867188 1.941406-19.644532 5.3125l-41.839844-41.839844c25.1875-1.308593 45.277344-22.214843 45.277344-47.726562 0-7.0625-1.582031-13.863281-4.441406-20.011719h46.375c4.429688 16.730469 19.695312 29.101562 37.804688 29.101562 21.558593 0 39.101562-17.539062 39.101562-39.101562s-17.542969-39.105469-39.105469-39.105469zm-389.367187-114.261719c0-10.535156 8.570312-19.105468 19.105468-19.105468 10.53125 0 19.101563 8.570312 19.101563 19.105468 0 10.53125-8.570313 19.101563-19.101563 19.101563-10.535156 0-19.105468-8.570313-19.105468-19.101563zm325.839844-19.105468c10.535156 0 19.105468 8.570312 19.105468 19.105468 0 10.53125-8.570312 19.101563-19.105468 19.101563-10.53125 0-19.101563-8.570313-19.101563-19.101563 0-10.535156 8.570313-19.105468 19.101563-19.105468zm-172.472657-44.421875c0-10.535157 8.570313-19.105469 19.105469-19.105469s19.101562 8.570312 19.101562 19.105469c0 10.53125-8.566406 19.101562-19.101562 19.101562s-19.105469-8.570312-19.105469-19.101562zm-197.789062 235.996093c-10.535157 0-19.105469-8.566406-19.105469-19.101562 0-10.53125 8.570312-19.105469 19.105469-19.105469 10.53125 0 19.101562 8.570313 19.101562 19.105469s-8.570312 19.101562-19.101562 19.101562zm63.527343 153.371094c-10.535156 0-19.105468-8.570312-19.105468-19.105468 0-10.53125 8.570312-19.101563 19.105468-19.101563 10.53125 0 19.101563 8.570313 19.101563 19.101563 0 10.535156-8.570313 19.105468-19.101563 19.105468zm325.839844-19.105468c0 10.535156-8.570312 19.105468-19.105468 19.105468-10.53125 0-19.101563-8.570312-19.101563-19.105468 0-10.53125 8.570313-19.101563 19.101563-19.101563 10.535156 0 19.105468 8.570313 19.105468 19.101563zm-83.105468-95.558594h-178.734376c-15.328124 0-27.792968-12.46875-27.792968-27.796875 0-15.175781 12.34375-27.644531 27.519531-27.789063 3.289063-.03125 6.347656-1.675781 8.1875-4.402344 1.839844-2.722656 2.226563-6.175781 1.027344-9.238281-.65625-1.683593-.992188-3.46875-.992188-5.300781 0-8.039062 6.539063-14.578125 14.578125-14.578125 1.601563 0 3.171875.257813 4.664063.761719 2.597656.878906 5.441406.652344 7.867187-.625 2.421875-1.28125 4.214844-3.496094 4.960938-6.136719 6.164062-21.898437 26.382812-37.191406 49.160156-37.191406 17.863281 0 34.128906 9.097656 43.515625 24.332031 2.492187 4.046875 7.492187 5.777344 11.953125 4.144531 3.019531-1.105469 6.199219-1.664062 9.449219-1.664062 15.152343 0 27.480469 12.328125 27.480469 27.480469 0 3.507812-.648438 6.917968-1.925782 10.132812-1.046875 2.632812-.929687 5.582031.324219 8.121094 1.253906 2.539062 3.523437 4.425781 6.25 5.195312 11.953125 3.378906 20.300781 14.382813 20.300781 26.761719 0 15.324219-12.46875 27.792969-27.792968 27.792969zm127.527343-38.707032c-10.53125 0-19.101562-8.570312-19.101562-19.101562s8.570312-19.105469 19.101562-19.105469c10.535157 0 19.105469 8.574219 19.105469 19.105469 0 10.535156-8.570312 19.101562-19.105469 19.101562zm0 0"/>
        <path d="m266 435.09375v-11.292969c0-5.523437-4.476562-10-10-10s-10 4.476563-10 10v11.292969c-16.730469 4.429688-29.105469 19.695312-29.105469 37.800781 0 21.5625 17.542969 39.105469 39.105469 39.105469s39.101562-17.542969 39.101562-39.101562c0-18.109376-12.371093-33.375-29.101562-37.804688zm-10 56.90625c-10.535156 0-19.105469-8.570312-19.105469-19.101562s8.566407-19.097657 19.09375-19.105469h.011719.011719c10.527343.007812 19.09375 8.574219 19.09375 19.105469-.003907 10.53125-8.570313 19.101562-19.105469 19.101562zm0 0"/>
        <path d="m256 393.800781c5.507812 0 10-4.492187 10-10 0-5.507812-4.492188-10-10-10s-10 4.492188-10 10c0 5.507813 4.492188 10 10 10zm0 0"/>
    </symbol>

    <symbol id="services03" role="img" aria-labelledby="services03_title" viewBox="0 0 512 512">
        <title id="services03_title"></title>
        <path d="M203.07,188.93c-3.9-3.91-10.24-3.91-14.14,0c-3.91,3.9-3.91,10.24,0,14.14c3.9,3.91,10.24,3.91,14.14,0
            C206.98,199.17,206.98,192.83,203.07,188.93z"/>
        <path d="M420.538,226.119l-39.731-6.19c-2.684-9.288-6.399-18.232-11.1-26.718l21.709-30.399c2.841-3.978,2.39-9.426-1.066-12.883
            l-28.28-28.28c-3.458-3.456-8.904-3.907-12.883-1.067l-30.398,21.709c-8.488-4.701-17.433-8.417-26.719-11.1l-6.19-39.73
            C285.122,86.591,280.929,83,276,83h-40c-4.929,0-9.122,3.591-9.881,8.46l-6.19,39.73c-9.286,2.683-18.23,6.399-26.719,11.1
            l-30.398-21.709c-3.979-2.84-9.425-2.389-12.883,1.067l-28.28,28.28c-3.456,3.457-3.907,8.905-1.066,12.883l21.709,30.399
            c-4.7,8.486-8.416,17.43-11.1,26.718l-39.731,6.19C86.591,226.878,83,231.072,83,236v40c0,4.928,3.591,9.122,8.46,9.881
            l39.731,6.19c2.684,9.288,6.398,18.231,11.099,26.717l-21.707,30.389c-2.842,3.977-2.392,9.426,1.064,12.882l28.28,28.29
            c3.457,3.458,8.905,3.909,12.884,1.068l30.398-21.709c8.488,4.701,17.433,8.417,26.719,11.1l6.19,39.73
            c0.759,4.87,4.952,8.46,9.881,8.46h40c4.929,0,9.122-3.591,9.881-8.46l6.19-39.73c9.286-2.683,18.23-6.399,26.719-11.1
            l30.398,21.709c3.979,2.84,9.428,2.389,12.884-1.068l28.28-28.29c3.456-3.457,3.906-8.905,1.064-12.882l-21.707-30.389
            c4.7-8.486,8.415-17.429,11.099-26.717l39.731-6.19c4.869-0.759,8.46-4.953,8.46-9.881v-40
            C428.998,231.072,425.407,226.878,420.538,226.119z M408.999,267.438l-37.75,5.882c-4.03,0.628-7.276,3.642-8.2,7.616
            c-2.722,11.704-7.343,22.838-13.736,33.094c-2.139,3.431-2.001,7.813,0.35,11.103l20.557,28.778l-16.303,16.308l-28.785-20.556
            c-3.289-2.35-7.669-2.488-11.102-0.349c-10.259,6.395-21.394,11.016-33.095,13.736c-3.974,0.924-6.988,4.169-7.616,8.201
            L267.438,409h-22.875l-5.882-37.75c-0.628-4.031-3.643-7.277-7.616-8.201c-11.701-2.72-22.836-7.342-33.095-13.736
            c-3.433-2.14-7.813-2-11.102,0.349l-28.785,20.556L141.78,353.91l20.557-28.778c2.351-3.29,2.488-7.671,0.35-11.103
            c-6.394-10.256-11.015-21.391-13.736-33.094c-0.924-3.974-4.17-6.988-8.2-7.616L103,267.438v-22.875l37.75-5.882
            c4.03-0.628,7.276-3.642,8.2-7.616c2.722-11.704,7.343-22.838,13.736-33.094c2.139-3.431,2.001-7.812-0.349-11.102l-20.558-28.787
            l16.301-16.301l28.787,20.557c3.29,2.35,7.668,2.488,11.102,0.349c10.259-6.395,21.394-11.016,33.095-13.736
            c3.974-0.924,6.988-4.169,7.616-8.201l5.882-37.75h22.875l5.882,37.75c0.628,4.031,3.643,7.277,7.616,8.201
            c11.701,2.72,22.836,7.342,33.095,13.736c3.434,2.141,7.814,2,11.102-0.349l28.787-20.557l16.301,16.301l-20.558,28.787
            c-2.35,3.29-2.487,7.671-0.349,11.102c6.394,10.256,11.015,21.391,13.736,33.094c0.924,3.974,4.17,6.988,8.2,7.616l37.75,5.882
            V267.438z"/>
        <path d="M310.366,184.313c-22.631-17.202-51.709-22.595-79.783-14.799c-5.321,1.478-8.437,6.99-6.958,12.312
            c1.479,5.322,6.988,8.438,12.312,6.959c21.995-6.111,44.714-1.937,62.327,11.451C315.891,213.634,326,233.959,326,256
            c0,38.598-31.402,70-70,70c-21.698,0-41.829-9.859-55.231-27.049c-13.384-17.165-17.933-39.443-12.48-61.122
            c1.347-5.356-1.903-10.79-7.26-12.137c-5.353-1.346-10.789,1.903-12.137,7.259c-6.965,27.699-1.096,56.237,16.104,78.298
            C202.215,333.333,228.095,346,256,346c49.626,0,90-40.374,90-90C346,227.655,333.012,201.526,310.366,184.313z"/>
        <path d="M256,206c-27.57,0-50,22.43-50,50s22.43,50,50,50s50-22.43,50-50S283.57,206,256,206z M256,286c-16.542,0-30-13.458-30-30
            s13.458-30,30-30s30,13.458,30,30S272.542,286,256,286z"/>
        <path d="M482,307.266V204.734c17.233-4.452,30-20.13,30-38.734c0-22.056-17.944-40-40-40c-7.263,0-14.229,1.929-20.321,5.537
            L380.463,60.32C384.071,54.228,386,47.262,386,40c0-22.056-17.944-40-40-40c-18.604,0-34.282,12.767-38.734,30H204.734
            C200.282,12.767,184.604,0,166,0c-22.056,0-40,17.944-40,40c0,7.262,1.929,14.228,5.537,20.32l-71.216,71.216
            C54.229,127.929,47.263,126,40,126c-22.056,0-40,17.944-40,40c0,18.604,12.767,34.282,30,38.734v102.532
            C12.767,311.718,0,327.396,0,346c0,22.056,17.944,40,40,40c7.263,0,14.229-1.929,20.321-5.537l71.216,71.216
            C127.929,457.772,126,464.738,126,472c0,22.056,17.944,40,40,40c18.604,0,34.282-12.767,38.734-30h102.532
            c4.452,17.233,20.13,30,38.734,30c22.056,0,40-17.944,40-40c0-7.262-1.929-14.228-5.537-20.32l71.216-71.216
            C457.771,384.071,464.737,386,472,386c22.056,0,40-17.944,40-40C512,327.396,499.233,311.718,482,307.266z M457.859,151.864
            c0.001-0.001,0.002-0.001,0.002-0.002c0.001-0.001,0.001-0.002,0.002-0.003c3.78-3.778,8.8-5.859,14.137-5.859
            c11.028,0,20,8.972,20,20s-8.972,20-20,20s-20-8.972-20-20C452,160.663,454.081,155.644,457.859,151.864z M346,20
            c11.028,0,20,8.972,20,20c0,5.337-2.081,10.356-5.859,14.136c-0.001,0.001-0.002,0.001-0.002,0.002
            c-0.001,0.001-0.001,0.002-0.002,0.003C356.357,57.919,351.337,60,346,60c-11.028,0-20-8.972-20-20S334.972,20,346,20z M166,20
            c11.028,0,20,8.972,20,20s-8.972,20-20,20c-5.337,0-10.357-2.081-14.136-5.859c-0.001-0.001-0.002-0.002-0.002-0.003
            c-0.001-0.001-0.002-0.001-0.002-0.002C148.081,50.356,146,45.337,146,40C146,28.972,154.972,20,166,20z M20,166
            c0-11.028,8.972-20,20-20c5.337,0,10.357,2.081,14.136,5.859c0.001,0.001,0.002,0.002,0.002,0.003
            c0.001,0.001,0.002,0.001,0.002,0.002C57.919,155.644,60,160.663,60,166c0,11.028-8.972,20-20,20S20,177.028,20,166z
             M54.141,360.136c-0.001,0.001-0.002,0.001-0.002,0.002c-0.001,0.001-0.002,0.002-0.002,0.003C50.357,363.919,45.337,366,40,366
            c-11.028,0-20-8.972-20-20s8.972-20,20-20s20,8.972,20,20C60,351.337,57.919,356.356,54.141,360.136z M166,492
            c-11.028,0-20-8.972-20-20c0-5.337,2.081-10.356,5.859-14.136c0.001-0.001,0.002-0.001,0.002-0.002
            c0.001-0.001,0.002-0.002,0.002-0.003c3.78-3.778,8.8-5.859,14.137-5.859c11.028,0,20,8.972,20,20S177.028,492,166,492z M346,492
            c-11.028,0-20-8.972-20-20s8.972-20,20-20c5.337,0,10.357,2.081,14.136,5.859c0.001,0.001,0.001,0.002,0.002,0.003
            c0.001,0.001,0.002,0.001,0.002,0.002c3.778,3.78,5.859,8.8,5.859,14.136C366,483.028,357.028,492,346,492z M432,346
            c0,7.262,1.929,14.228,5.537,20.32l-71.216,71.216C360.229,433.929,353.263,432,346,432c-18.604,0-34.282,12.767-38.734,30
            H204.734c-4.452-17.233-20.13-30-38.734-30c-7.263,0-14.229,1.929-20.321,5.537L74.463,366.32C78.071,360.228,80,353.262,80,346
            c0-18.604-12.767-34.282-30-38.734V204.734c17.233-4.452,30-20.13,30-38.734c0-7.262-1.929-14.228-5.537-20.32l71.216-71.216
            C151.771,78.071,158.737,80,166,80c18.604,0,34.282-12.767,38.734-30h102.532c4.452,17.233,20.13,30,38.734,30
            c7.263,0,14.229-1.929,20.321-5.537l71.216,71.216C433.929,151.772,432,158.738,432,166c0,18.604,12.767,34.282,30,38.734v102.532
            C444.767,311.718,432,327.396,432,346z M472,366c-5.337,0-10.357-2.081-14.136-5.859c-0.001-0.001-0.001-0.002-0.002-0.003
            c-0.001-0.001-0.002-0.001-0.002-0.002c-3.778-3.78-5.859-8.8-5.859-14.136c0-11.028,8.972-20,20-20S492,334.972,492,346
            S483.028,366,472,366z"/>
    </symbol>

    <symbol id="services04" role="img" aria-labelledby="services04_title" viewBox="0 0 512 512">
        <title id="services04_title"></title>
        <path d="M481.899,352.133c-2.905-10.835-9.854-19.892-19.568-25.5c-3.491-2.016-7.19-3.49-10.999-4.43V293.01
            c0-5.521-4.477-9.999-9.999-9.999s-9.999,4.478-9.999,9.999v29.216c-0.29,0.071-0.581,0.133-0.87,0.211
            c-7.538,2.02-14.211,6.001-19.465,11.507l-44.706-25.812c7.503-15.814,11.71-33.483,11.71-52.12c0-18.643-4.21-36.32-11.72-52.138
            l44.741-25.831c5.602,5.846,12.687,9.835,20.309,11.707v32.265c0,5.523,4.477,9.999,9.999,9.999c5.523,0,9.999-4.477,9.999-9.999
            v-32.242c3.77-0.922,7.473-2.37,10.999-4.405c9.715-5.609,16.665-14.665,19.567-25.5c2.904-10.835,1.414-22.153-4.196-31.868
            c-11.578-20.054-37.313-26.951-57.368-15.372c-3.526,2.036-6.635,4.517-9.319,7.32L296.316,53.727
            c1.086-3.726,1.68-7.659,1.68-11.731C297.996,18.839,279.156,0,256,0s-41.996,18.839-41.996,41.996
            c0,4.072,0.594,8.005,1.68,11.731L101.001,119.94c-2.718-2.829-5.845-5.296-9.335-7.311c-20.055-11.58-45.79-4.683-57.368,15.372
            c-5.609,9.714-7.099,21.032-4.196,31.868c2.903,10.835,9.852,19.892,19.567,25.5c3.527,2.036,7.23,3.483,10.999,4.406v30.242
            c0,5.523,4.477,9.999,9.999,9.999s9.999-4.477,9.999-9.999V189.75c7.622-1.873,14.706-5.862,20.308-11.707l44.763,25.844
            c-7.506,15.816-11.714,33.488-11.714,52.127c0,18.631,4.205,36.297,11.705,52.107l-44.727,25.824
            c-5.254-5.505-11.927-9.486-19.464-11.506c-0.289-0.078-0.58-0.139-0.87-0.211V295.01c0-5.522-4.477-9.999-9.999-9.999
            s-9.999,4.478-9.999,9.999v27.194c-3.809,0.939-7.508,2.414-10.999,4.43c-9.715,5.608-16.665,14.665-19.567,25.5
            c-2.904,10.836-1.414,22.153,4.196,31.868c7.77,13.458,21.914,20.989,36.44,20.989c7.119,0,14.332-1.811,20.928-5.619
            c3.491-2.015,6.617-4.482,9.335-7.31l114.682,66.212c-1.086,3.726-1.68,7.659-1.68,11.731c0,23.157,18.839,41.996,41.996,41.996
            c23.157,0,41.996-18.839,41.996-41.996c0-4.072-0.594-8.005-1.68-11.731l114.68-66.215c2.718,2.83,5.846,5.298,9.338,7.313
            c6.597,3.81,13.808,5.619,20.928,5.619c14.524-0.001,28.671-7.532,36.44-20.989C483.312,374.286,484.803,362.969,481.899,352.133z
             M420.084,143.304c1.521-5.675,5.161-10.418,10.249-13.357c10.505-6.065,23.985-2.453,30.05,8.052
            c2.938,5.089,3.719,11.017,2.198,16.693c-1.521,5.675-5.161,10.419-10.249,13.357c-10.504,6.065-23.985,2.454-30.05-8.052
            C419.344,154.908,418.564,148.979,420.084,143.304z M89.719,159.997c-2.939,5.089-7.683,8.729-13.358,10.25
            c-5.676,1.521-11.604,0.74-16.693-2.198s-8.728-7.682-10.249-13.357c-1.521-5.675-0.74-11.604,2.198-16.693
            c4.07-7.049,11.479-10.995,19.088-10.995c3.729,0,7.506,0.948,10.962,2.943c5.089,2.938,8.728,7.682,10.249,13.357
            C93.438,148.98,92.658,154.909,89.719,159.997z M91.914,368.695c-1.519,5.677-5.159,10.419-10.247,13.357
            c-10.503,6.063-23.985,2.453-30.05-8.051c-2.938-5.089-3.719-11.018-2.198-16.693c1.521-5.677,5.161-10.419,10.249-13.357
            c3.39-1.957,7.151-2.957,10.963-2.957c1.911,0,3.834,0.251,5.729,0.759c5.676,1.521,10.419,5.162,13.357,10.25
            C92.654,357.092,93.435,363.021,91.914,368.695z M286.296,71.034l114.741,66.246c-2.191,7.539-2.286,15.675-0.024,23.451
            l-44.761,25.843c-20.262-29.16-52.902-49.099-90.253-52.14V82.78C273.865,80.851,280.862,76.7,286.296,71.034z M256.013,310.469
            c12.324,0,23.533-4.837,31.852-12.701l13.178,2.458c10.319,1.925,17.809,10.941,17.809,21.438v14.627
            c-17.331,13.597-39.155,21.713-62.84,21.713c-23.685,0-45.509-8.116-62.841-21.712v-14.627c0-10.497,7.49-19.514,17.809-21.438
            l13.179-2.458C232.481,305.633,243.69,310.469,256.013,310.469z M229.592,264.05v-14.568c0-14.569,11.852-26.421,26.421-26.421
            c14.569,0,26.421,11.852,26.421,26.421v14.568c0,14.568-11.852,26.421-26.421,26.421
            C241.444,290.471,229.592,278.618,229.592,264.05z M304.71,280.568l-4.98-0.929c1.744-4.876,2.701-10.122,2.701-15.59v-14.568
            c0-25.596-20.823-46.419-46.419-46.419c-25.596,0-46.419,20.823-46.419,46.419v14.568c0,5.468,0.957,10.714,2.701,15.59
            l-4.98,0.929c-17.888,3.336-31.34,17.789-33.752,35.406c-12.282-16.842-19.542-37.568-19.542-59.962
            c0-56.238,45.753-101.991,101.991-101.991s101.991,45.753,101.991,101.991c0,18.496-4.951,35.858-13.594,50.831
            c-0.03,0.05-0.065,0.096-0.095,0.146c-0.019,0.033-0.033,0.068-0.052,0.101c-1.779,3.068-3.719,6.031-5.799,8.884
            C336.051,298.357,322.599,283.904,304.71,280.568z M256,19.998c12.13,0,21.998,9.868,21.998,21.998S268.129,63.995,256,63.995
            s-21.998-9.868-21.998-21.998S243.87,19.998,256,19.998z M111,160.739c2.14-7.302,2.252-15.072,0.233-22.61
            c-0.078-0.289-0.169-0.572-0.253-0.859l114.723-66.236C231.137,76.7,238.134,80.851,246,82.78v51.657
            c-37.344,3.049-69.977,22.989-90.233,52.148L111,160.739z M225.703,440.966L110.98,374.731c0.083-0.287,0.175-0.57,0.253-0.859
            c2.02-7.538,1.908-15.308-0.233-22.61l44.754-25.839c20.256,29.168,52.894,49.117,90.246,52.165v51.632
            C238.134,431.149,231.137,435.299,225.703,440.966z M256,492.002c-12.13,0-21.998-9.868-21.998-21.998s9.868-21.998,21.998-21.998
            s21.998,9.868,21.998,21.998S268.129,492.002,256,492.002z M286.296,440.966c-5.434-5.667-12.431-9.817-20.297-11.746v-51.629
            c37.358-3.041,70.004-22.987,90.265-52.158l44.735,25.828c-2.14,7.302-2.252,15.072-0.232,22.61
            c0.077,0.288,0.169,0.57,0.252,0.855L286.296,440.966z M460.383,374.002c-6.064,10.504-19.543,14.116-30.05,8.051
            c-5.089-2.938-8.728-7.681-10.249-13.357c-1.521-5.675-0.74-11.603,2.198-16.692s7.682-8.728,13.358-10.25
            c1.834-0.491,3.694-0.737,5.544-0.753c0.05,0.001,0.099,0.008,0.15,0.008c0.06,0,0.118-0.008,0.178-0.009
            c3.763,0.025,7.473,1.02,10.821,2.952c5.089,2.938,8.728,7.681,10.249,13.357C464.102,362.984,463.321,368.913,460.383,374.002z"
            />
        <path d="M77.738,249.694c-1.86-1.86-4.44-2.93-7.069-2.93c-2.64,0-5.21,1.07-7.069,2.93c-1.86,1.86-2.93,4.44-2.93,7.069
            c0,2.64,1.07,5.21,2.93,7.068c1.86,1.87,4.44,2.931,7.069,2.931c2.63,0,5.21-1.061,7.069-2.931c1.86-1.859,2.93-4.43,2.93-7.068
            C80.668,254.133,79.598,251.553,77.738,249.694z"/>
        <path d="M448.406,248.943c-1.87-1.86-4.44-2.93-7.069-2.93c-2.64,0.001-5.22,1.07-7.079,2.93c-1.86,1.86-2.92,4.44-2.92,7.069
            c0,2.63,1.06,5.21,2.92,7.068c1.87,1.86,4.44,2.931,7.079,2.931c2.63,0,5.2-1.07,7.069-2.931c1.86-1.859,2.92-4.439,2.92-7.068
            C451.326,253.382,450.266,250.802,448.406,248.943z"/>
    </symbol>

    <symbol id="marker" role="img" aria-labelledby="marker_title" viewBox="0 0 320 320">
        <title id="marker_title"></title>
        <path class="st0" d="M253.3,30H66.7C26.3,59,0,106.4,0,160s26.3,101,66.7,130h186.6c40.4-29,66.7-76.4,66.7-130S293.7,59,253.3,30z
            M160,227.5c-37.3,0-67.5-30.2-67.5-67.5s30.2-67.5,67.5-67.5s67.5,30.2,67.5,67.5S197.3,227.5,160,227.5z"/>
    </symbol>

    <symbol id="footer-facebook" role="img" aria-labelledby="footer-facebook_title" viewBox="0 0 512 512">
        <title id="footer-facebook_title">Facebook</title>
        <path d="M314.829,135.492h70.595c11.423,0,20.682-9.26,20.682-20.682V20.682C406.107,9.26,396.848,0,385.425,0h-70.595
            c-76.282,0-138.341,62.06-138.341,138.341v49.913h-49.913c-11.422,0-20.682,9.26-20.682,20.682v94.127
            c0,11.423,9.26,20.682,20.682,20.682h49.913v167.572c0,11.423,9.26,20.682,20.682,20.682h94.127
            c11.423,0,20.682-9.259,20.682-20.682V323.746h49.913c9.49,0,17.763-6.458,20.065-15.666l23.532-94.127
            c1.544-6.179,0.156-12.725-3.763-17.744c-3.919-5.02-9.932-7.954-16.301-7.954H311.98v-49.913
            C311.98,136.77,313.258,135.492,314.829,135.492z M291.298,229.619h67.637l-13.191,52.763h-54.447
            c-11.423,0-20.682,9.259-20.682,20.682v167.572h-52.763V303.064c0-11.423-9.26-20.682-20.682-20.682h-49.913v-52.763h49.913
            c11.422,0,20.682-9.26,20.682-20.682v-70.595c0-53.473,43.503-96.977,96.977-96.977h49.913v52.763h-49.913
            c-24.38,0-44.214,19.835-44.214,44.214v70.595C270.615,220.359,279.875,229.619,291.298,229.619z"/>
    </symbol>

    <symbol id="footer-twitter" role="img" aria-labelledby="footer-twitter_title" viewBox="0 0 512 512">
        <title id="footer-twitter_title">Twitter</title>
        <path d="M502.954,47.189c-7.126-4.852-16.515-4.774-23.559,0.196c-15.351,10.828-31.974,19.528-49.557,25.948
            c-19.253-17.414-43.615-27.826-69.915-29.656c-31.056-2.16-61.081,7.9-84.561,28.326c-25.59,22.259-40.174,54.444-40.046,88.349
            c-85.248-7.609-139.14-61.55-177.09-108.986c-4.598-5.746-11.901-8.619-19.182-7.538c-7.279,1.078-13.438,5.944-16.171,12.777
            c-0.948,2.369-23.141,58.799-17.453,127.057c4.761,57.133,30.23,131.964,120.039,181.717
            c-32.436,14.756-68.282,21.939-103.953,20.519c-9.576-0.378-18.15,5.859-20.736,15.08c-2.587,9.221,1.497,19.013,9.869,23.665
            c51.359,28.532,108.03,43.736,163.889,43.965c0.432,0.002,0.861,0.003,1.294,0.003c54.105-0.001,106.379-13.938,151.246-40.336
            c42.898-25.241,78.416-61.759,102.715-105.603c26.162-47.206,39.427-101.75,39.427-162.186c-0.011-3.544-0.186-7.098-0.52-10.638
            c20.7-22.885,35.388-50.567,42.719-80.667C513.451,60.803,510.081,52.04,502.954,47.189z M432.297,128.07
            c-4.916,4.847-7.088,11.827-5.793,18.607c0.877,4.588,1.329,9.278,1.344,13.874c0,101.956-44.378,186.544-121.756,232.072
            c-60.586,35.649-133.037,43.933-203.609,25.057c0.729-0.201,1.459-0.407,2.185-0.615c27.596-7.885,53.63-20.055,77.377-36.174
            c6.329-4.296,9.77-11.734,8.946-19.34c-0.825-7.605-5.778-14.134-12.881-16.975C97.757,312.434,53.563,257.594,46.757,181.575
            c-2.536-28.334,0.707-54.721,4.766-74.501c16.638,17.909,37.384,37.227,62.129,53.407c42.771,27.966,90.663,42.146,142.346,42.146
            c11.423,0,20.682-9.26,20.682-20.682v-21.393c0-0.045,0-0.091,0-0.137c-0.146-21.948,9.268-42.797,25.829-57.202
            c15.146-13.175,34.51-19.665,54.543-18.27c20.026,1.393,38.311,10.502,51.487,25.648c5.339,6.138,13.783,8.577,21.567,6.229
            c5.725-1.724,11.375-3.645,16.941-5.757C442.599,117.081,437.672,122.769,432.297,128.07z"/>
    </symbol>    

    <symbol id="footer-linkedin" role="img" aria-labelledby="footer-linkedin_title" viewBox="0 0 512 512">
        <title id="footer-linkedin_title">Linkedin</title>
        <path d="M2.5,510V153.7h137.3V510H2.5z M102.5,472.7V191H39.8v281.7H102.5z"/>
        <path d="M375.4,510l0.1-158.1c0.5-23.6-8.8-42.9-24.9-51.7c-5.4-3-11.2-4.5-17.3-4.5c-5.2,0-10.4,1.1-15.5,3.3l-1.1,211H176.1
            V153.7h140.6V166c16.6-6,33.6-9.1,50.6-9.1c24.7,0,48.3,6.4,70.2,18.9c44,25.2,72.5,71.8,72.5,118.8V510H375.4z M472.7,472.7V294.6
            c0-33.8-21.1-67.7-53.7-86.4c-15.9-9.1-33.8-13.9-51.7-14h-0.3c-20.1,0-40.1,5.8-59.6,17.3L279.4,228V191h-66.1v281.7h66.2l1-194.7
            l8.2-5.5c13.7-9.2,29.1-14.1,44.5-14.1c12.4,0,24.2,3,35.1,9c13.7,7.5,25,19.2,32.8,33.8c7.9,14.9,11.9,32.6,11.5,51.1l0,120.3
            H472.7z"/>
        <path d="M70.9,139.9C32.9,139.9,2,109,2,71c0-38,30.9-69,68.9-69c38,0,68.9,30.9,68.9,69C139.8,109,108.9,139.9,70.9,139.9z
             M70.9,39.3c-17.4,0-31.6,14.2-31.6,31.7c0,17.5,14.2,31.7,31.6,31.7c17.4,0,31.6-14.2,31.6-31.7C102.5,53.5,88.3,39.3,70.9,39.3z"
            />
    </symbol>

    <symbol id="footer-instagram" role="img" aria-labelledby="footer-instagram_title" viewBox="0 0 512 512">
        <title id="footer-instagram_title">Instagram</title>
        <path d="M373.659,0H138.341C62.06,0,0,62.06,0,138.341v235.318C0,449.94,62.06,512,138.341,512h235.318
            C449.94,512,512,449.94,512,373.659V138.341C512,62.06,449.94,0,373.659,0z M470.636,373.659
            c0,53.473-43.503,96.977-96.977,96.977H138.341c-53.473,0-96.977-43.503-96.977-96.977V138.341
            c0-53.473,43.503-96.977,96.977-96.977h235.318c53.473,0,96.977,43.503,96.977,96.977V373.659z"/>
        <path d="M370.586,238.141c-3.64-24.547-14.839-46.795-32.386-64.342c-17.547-17.546-39.795-28.746-64.341-32.385
            c-11.176-1.657-22.507-1.657-33.682,0c-30.336,4.499-57.103,20.541-75.372,45.172c-18.269,24.631-25.854,54.903-21.355,85.237
            c4.499,30.335,20.541,57.102,45.172,75.372c19.996,14.831,43.706,22.619,68.153,22.619c5.667,0,11.375-0.418,17.083-1.265
            c30.336-4.499,57.103-20.541,75.372-45.172C367.5,298.747,375.085,268.476,370.586,238.141z M267.791,327.632
            c-19.405,2.882-38.77-1.973-54.527-13.66c-15.757-11.687-26.019-28.811-28.896-48.216c-2.878-19.405,1.973-38.77,13.66-54.527
            c11.688-15.757,28.811-26.019,48.217-28.897c3.574-0.53,7.173-0.795,10.772-0.795s7.199,0.265,10.773,0.796
            c32.231,4.779,57.098,29.645,61.878,61.877C335.608,284.268,307.851,321.692,267.791,327.632z"/>
        <path d="M400.049,111.951c-3.852-3.851-9.183-6.058-14.625-6.058c-5.442,0-10.773,2.206-14.625,6.058
            c-3.851,3.852-6.058,9.174-6.058,14.625c0,5.451,2.207,10.773,6.058,14.625c3.852,3.851,9.183,6.058,14.625,6.058
            c5.442,0,10.773-2.206,14.625-6.058c3.851-3.852,6.058-9.183,6.058-14.625C406.107,121.133,403.9,115.802,400.049,111.951z"/>
    </symbol>

    <symbol id="footer-phone" role="img" aria-labelledby="footer-phone_title" viewBox="0 0 512 512">
        <title id="footer-phone_title"></title>
        <path d="M421.216,195.504c-5.092-26.101-17.723-49.836-36.526-68.64c-18.804-18.803-42.54-31.434-68.641-36.527
			c-11.21-2.189-22.073,5.128-24.261,16.339c-2.187,11.212,5.128,22.073,16.339,24.26c36.847,7.188,65.3,35.642,72.489,72.489
			c1.927,9.874,10.581,16.726,20.278,16.726c1.313,0,2.645-0.125,3.984-0.387C416.088,217.577,423.403,206.715,421.216,195.504z"/>
		<path d="M511.422,196.929c-5.629-50.096-28.373-97.304-64.042-132.927C411.712,28.378,364.475,5.694,314.371,0.128
			c-11.355-1.261-21.578,6.92-22.839,18.272c-1.261,11.353,6.919,21.578,18.272,22.84c84.961,9.438,150.966,75.36,160.512,160.31
			c1.188,10.566,10.139,18.374,20.527,18.374c0.771,0,1.552-0.043,2.336-0.131C504.53,218.516,512.698,208.281,511.422,196.929z"/>
		<path d="M432.59,312.566c-0.062-0.008-0.124-0.017-0.186-0.025c-20.013-2.639-39.751-7.557-58.619-14.596
			c-23.91-8.99-51.103-3.191-69.27,14.772c-0.028,0.028-0.056,0.055-0.083,0.083l-17.148,17.148
			c-42.633-26.924-78.756-63.047-105.679-105.679l17.149-17.149c0.027-0.028,0.054-0.055,0.082-0.083
			c17.964-18.166,23.762-45.356,14.79-69.223c-7.057-18.914-11.974-38.653-14.614-58.666c-0.007-0.063-0.017-0.127-0.026-0.19
			c-4.591-32.478-32.782-56.734-65.548-56.467H66.053c-1.943,0.002-3.912,0.091-5.853,0.267
			C24.143,26.016-2.541,58.001,0.718,94.058c0.01,0.108,0.02,0.215,0.032,0.323c7.684,72.354,32.649,142.88,72.197,203.955
			c35.892,56.461,84.701,105.269,141.162,141.164c60.792,39.406,130.99,64.369,203.013,72.196c0.127,0.015,0.254,0.027,0.38,0.038
			c1.961,0.176,3.949,0.266,5.921,0.266c0.083,0,0.165,0,0.247,0.001c36.204-0.148,65.538-29.722,65.391-65.841v-67.233
			C489.746,345.714,465.515,317.211,432.59,312.566z M447.698,378.695v67.548c0.055,13.396-10.8,24.338-24.19,24.393
			c-0.715-0.004-1.425-0.027-2.135-0.086c-65.578-7.161-129.488-29.914-184.837-65.808c-0.053-0.035-0.107-0.069-0.161-0.103
			c-51.429-32.68-95.885-77.137-128.565-128.565c-0.032-0.051-0.064-0.101-0.097-0.153C71.683,220.306,48.928,156.086,41.902,90.193
			C40.779,76.91,50.63,65.155,63.923,63.954c0.717-0.064,1.443-0.098,2.145-0.098h67.463c0.146-0.001,0.294-0.003,0.443-0.002
			c12.021,0,22.322,8.905,24.044,20.819c3.05,23.063,8.721,45.806,16.871,67.649c3.319,8.832,1.189,18.869-5.427,25.591
			l-28.517,28.517c-6.583,6.582-7.956,16.753-3.354,24.847c33.837,59.508,83.177,108.847,142.685,142.685
			c8.094,4.6,18.264,3.23,24.848-3.355l28.512-28.512c6.72-6.621,16.765-8.752,25.642-5.415
			c21.799,8.134,44.547,13.805,67.61,16.855c12.18,1.757,21.122,12.339,20.816,24.647
			C447.7,378.353,447.698,378.524,447.698,378.695z"/>
    </symbol>    

	<symbol id="footer-mail" role="img" aria-labelledby="footer-mail_title" viewBox="0 0 512 512">
        <title id="footer-mail_title"></title>
        <path d="M256,141.176c-63.306,0-114.809,51.503-114.809,114.809S192.694,370.795,256,370.795s114.809-51.503,114.809-114.809
			S319.306,141.176,256,141.176z M256,329.43c-40.498,0-73.445-32.947-73.445-73.445c0-40.498,32.947-73.445,73.445-73.445
			c40.499,0,73.445,32.947,73.445,73.445C329.445,296.483,296.499,329.43,256,329.43z"/>
		<path d="M437.008,74.97C388.656,26.623,324.375,0,256,0c-0.005,0-0.013,0-0.017,0C187.603,0.004,123.318,26.637,74.97,74.992
			C26.62,123.347-0.005,187.637,0,256.017c0.004,68.379,26.637,132.666,74.992,181.014C123.344,485.377,187.625,512.001,256,512
			c0.004,0,0.012,0,0.017,0c55.945-0.004,111.216-18.738,155.631-52.752c9.07-6.945,10.792-19.927,3.846-28.995
			c-6.945-9.069-19.926-10.794-28.995-3.846c-37.24,28.518-83.58,44.224-130.486,44.228c-0.006,0-0.006,0-0.014,0
			c-57.324,0-111.224-22.324-151.761-62.856c-40.542-40.536-62.871-94.435-62.875-151.766
			C41.357,137.663,137.636,41.372,255.986,41.364c0.007,0,0.006,0,0.014,0c118.34,0,214.628,96.279,214.636,214.622v23.532
			c0,27.523-22.39,49.913-49.913,49.913c-27.523,0-49.913-22.391-49.913-49.913v-23.532c0-11.422-9.259-20.682-20.682-20.682
			s-20.682,9.26-20.682,20.682v23.532c0,50.33,40.947,91.278,91.278,91.278S512,329.848,512,279.518v-23.534
			C511.995,187.604,485.362,123.318,437.008,74.97z"/>
    </symbol>

    <symbol id="footer-location" role="img" aria-labelledby="footer-location_title" viewBox="0 0 512 512">
        <title id="footer-location_title"></title>
        <path d="M406.766,62.449C366.495,22.178,312.951,0,256,0S145.505,22.178,105.234,62.449
			c-40.272,40.271-62.449,93.814-62.449,150.766c0,37.656,10.972,76.863,32.609,116.532c16.825,30.846,40.15,62.102,69.326,92.898
			c49.17,51.903,97.763,84.519,99.808,85.881C248.001,510.842,252,512,256,512c4,0,7.999-1.158,11.473-3.474
			c2.045-1.363,50.638-33.978,99.808-85.881c29.176-30.795,52.501-62.051,69.326-92.898c21.637-39.669,32.609-78.876,32.609-116.532
			C469.215,156.263,447.038,102.72,406.766,62.449z M256.001,465.903C215.826,436.156,84.15,329.739,84.15,213.215
			c0-94.759,77.091-171.851,171.85-171.851s171.85,77.092,171.851,171.851C427.851,329.748,296.159,436.168,256.001,465.903z"/>
		<path d="M256,128.355c-46.791,0-84.86,38.068-84.86,84.86c0,46.791,38.068,84.86,84.86,84.86c46.792,0,84.861-38.068,84.86-84.86
			C340.86,166.423,302.791,128.355,256,128.355z M256,256.71c-23.983,0-43.495-19.512-43.495-43.495
			c0-23.983,19.512-43.495,43.495-43.495c23.984,0,43.495,19.512,43.495,43.495C299.495,237.198,279.984,256.71,256,256.71z"/>
		</symbol>

	<symbol id="footer-time" role="img" aria-labelledby="footer-time_title" viewBox="0 0 512 512">
        <title id="footer-time_title"></title>
        <path d="M437.019,74.981C388.667,26.629,324.38,0,256,0S123.333,26.63,74.981,74.981S0,187.62,0,256
			s26.629,132.667,74.981,181.019C123.332,485.371,187.62,512,256,512s132.667-26.629,181.019-74.981
			C485.371,388.667,512,324.38,512,256S485.371,123.332,437.019,74.981z M256,470.636C137.65,470.636,41.364,374.35,41.364,256
			S137.65,41.364,256,41.364S470.636,137.65,470.636,256S374.35,470.636,256,470.636z"/>
		<path d="M341.221,311.97l-64.538-64.537V114.809c0-11.422-9.259-20.682-20.682-20.682c-11.422,0-20.682,9.26-20.682,20.682V256
			c0,5.486,2.179,10.746,6.058,14.625l70.594,70.595c4.038,4.039,9.332,6.058,14.625,6.058c5.293,0,10.586-2.019,14.626-6.058
			C349.297,333.142,349.297,320.047,341.221,311.97z"/>
	</symbol>

</svg>