<svg xmlns="http://www.w3.org/2000/svg" xmlns:xlink="http://www.w3.org/1999/xlink">

	<symbol id="services01" role="img" aria-labelledby="services01_title" viewBox="0 0 511.601 511.601">
        <title id="services01_title"></title>
        <path d="m264.395 199.698v20.772c0 7.811 6.354 14.165 14.165 14.165h2.887v41.196l-16.03 16.03c-1.406 1.407-2.196 3.314-2.196 5.303v16.626c0 4.142 3.357 7.5 7.5 7.5s7.5-3.358 7.5-7.5v-13.52l16.03-16.03c1.406-1.407 2.196-3.314 2.196-5.303v-44.302h2.886c7.811 0 14.165-6.354 14.165-14.165v-20.772c0-7.811-6.354-14.166-14.165-14.166h-20.773c-7.81 0-14.165 6.355-14.165 14.166zm15 .834h19.103v19.103h-19.103z"/>
        <path d="m172.31 174.949c-7.811 0-14.165 6.354-14.165 14.165v25.28c0 7.811 6.354 14.166 14.165 14.166h25.28c7.811 0 14.165-6.354 14.165-14.166v-25.28c0-7.811-6.354-14.165-14.165-14.165zm24.445 38.611h-23.61v-23.61h23.61z"/>
        <path d="m189.767 125.155v15.344c0 7.811 6.354 14.165 14.165 14.165h15.344c7.811 0 14.165-6.354 14.165-14.165v-15.344c0-7.811-6.354-14.165-14.165-14.165h-15.344c-7.811 0-14.165 6.354-14.165 14.165zm15 .835h13.674v13.674h-13.674z"/>
        <path d="m73.606 272.043c0-7.811-6.354-14.165-14.166-14.165h-15.344c-7.811 0-14.165 6.354-14.165 14.165v15.344c0 7.811 6.354 14.165 14.165 14.165h15.344c7.811 0 14.166-6.354 14.166-14.165zm-15 14.509h-13.675v-13.674h13.674v13.674z"/>
        <path d="m110.504 330.253h-25.147c-7.811 0-14.165 6.354-14.165 14.165v25.146c0 7.811 6.354 14.166 14.165 14.166h25.147c7.811 0 14.165-6.354 14.165-14.166v-25.146c0-7.81-6.355-14.165-14.165-14.165zm-.835 38.477h-23.477v-23.477h23.477z"/>
        <path d="m430.521 208.484c0-6.865-.426-13.81-1.266-20.641-.506-4.111-4.26-7.032-8.359-6.528-4.111.505-7.034 4.248-6.529 8.359.766 6.226 1.154 12.555 1.154 18.81 0 42.282-16.903 81.6-47.596 110.711-21.241 20.146-38.308 45.284-49.612 72.948h-8.526v-41.99l33.58-33.58c1.406-1.406 2.196-3.314 2.196-5.303v-18.897c6.866-.077 12.431-5.68 12.431-12.565v-16.392c0-6.932-5.64-12.571-12.571-12.571h-16.393c-6.932 0-12.571 5.64-12.571 12.571v16.392c0 6.932 5.64 12.572 12.571 12.572h1.533v15.783l-33.58 33.58c-1.406 1.406-2.196 3.314-2.196 5.303v45.097h-16.567v-46.392c0-4.142-3.357-7.5-7.5-7.5s-7.5 3.358-7.5 7.5v46.392h-24.812v-93.236h2.886c7.811 0 14.165-6.354 14.165-14.165v-20.772c0-7.811-6.354-14.165-14.165-14.165h-20.772c-7.811 0-14.166 6.354-14.166 14.165v20.772c0 7.811 6.354 14.165 14.166 14.165h2.886v93.236h-15.884c-9.021-21.86-21.711-42.192-37.792-60.489-2.735-3.112-7.473-3.417-10.584-.682s-3.417 7.473-.682 10.584c14.179 16.133 25.526 33.94 33.813 53.03-8.754 4.122-14.83 13.025-14.83 23.325 0 13.789 10.886 25.081 24.515 25.737v10.695c0 9.491 6.1 17.58 14.584 20.565 3.044 20.727 20.939 36.692 42.498 36.692h7.781c21.559 0 39.454-15.965 42.498-36.692 8.484-2.985 14.584-11.073 14.584-20.565v-10.695c13.629-.656 24.515-11.948 24.515-25.737 0-10.313-6.092-19.226-14.865-23.341 10.49-24.423 25.816-46.593 44.688-64.493 33.71-31.971 52.274-75.154 52.274-121.593zm-99.061 57.363h11.535v11.535h-11.535zm-110.102-1.041h19.103v19.103h-19.103zm45.47 231.795h-7.781c-12.82 0-23.653-8.673-26.938-20.46h61.658c-3.287 11.787-14.119 20.46-26.939 20.46zm55.828-67.92h-24.729c-4.143 0-7.5 3.358-7.5 7.5s3.357 7.5 7.5 7.5h10.982v10.663c0 3.748-3.05 6.797-6.798 6.797h-78.35c-3.748 0-6.797-3.049-6.797-6.797v-10.663h49c4.143 0 7.5-3.358 7.5-7.5s-3.357-7.5-7.5-7.5h-62.747c-5.938 0-10.769-4.831-10.769-10.769 0-5.69 4.439-10.351 10.034-10.731.091 0 .184-.002.275-.005.171-.006.341-.017.51-.028l.049-.003h119.337l-.063.003c.163.011.326.021.49.028.098.004.195.005.292.006 5.602.372 10.05 5.037 10.05 10.732.003 5.937-4.828 10.767-10.766 10.767z"/>
        <path d="m110.353 208.486c0-32.164 9.968-62.964 28.827-89.071 2.426-3.357 1.67-8.046-1.688-10.471-3.357-2.426-8.046-1.67-10.471 1.688-20.718 28.679-31.668 62.517-31.667 97.854 0 40.324 14.543 79.297 40.95 109.738 1.483 1.71 3.57 2.585 5.669 2.585 1.742 0 3.492-.604 4.911-1.834 3.129-2.714 3.465-7.451.751-10.58-24.042-27.714-37.282-63.196-37.282-99.909z"/>
        <path d="m223.839 60.749c.607 0 1.226-.075 1.842-.23 12.249-3.093 24.929-4.672 37.605-4.619 7.8.018 15.637.63 23.292 1.82 4.101.636 7.927-2.166 8.563-6.259s-2.166-7.927-6.259-8.563c-8.404-1.307-17.005-1.979-25.563-1.998-13.978-.059-27.852 1.677-41.311 5.075-4.016 1.014-6.449 5.092-5.436 9.108.859 3.4 3.913 5.666 7.267 5.666z"/>
        <path d="m158.458 102.745h29.237c7.811 0 14.165-6.354 14.165-14.165v-29.238c0-7.811-6.354-14.166-14.165-14.166h-29.237c-7.811 0-14.165 6.354-14.165 14.166v29.238c0 7.81 6.355 14.165 14.165 14.165zm.835-42.568h27.567v27.568h-27.567z"/>
        <path d="m426.306 356.183h-32.375c-7.811 0-14.165 6.354-14.165 14.165v32.375c0 7.811 6.354 14.166 14.165 14.166h32.375c7.811 0 14.165-6.354 14.165-14.166v-32.375c0-7.81-6.354-14.165-14.165-14.165zm-.835 45.706h-30.705v-30.706h30.705z"/>
        <path d="m465.826 292.583h-19.046c-7.811 0-14.165 6.354-14.165 14.165v19.045c0 7.811 6.354 14.165 14.165 14.165h19.046c7.811 0 14.165-6.354 14.165-14.165v-19.045c0-7.81-6.355-14.165-14.165-14.165zm-.835 32.376h-17.376v-17.375h17.376z"/>
        <path d="m96.901 46.504h17.634c7.811 0 14.165-6.354 14.165-14.166v-17.633c0-7.811-6.354-14.165-14.165-14.165h-17.634c-7.811 0-14.165 6.354-14.165 14.165v17.634c0 7.811 6.355 14.165 14.165 14.165zm.835-30.964h15.964v15.964h-15.964z"/>
        <path d="m50.879 106.875h13.729c7.811 0 14.166-6.354 14.166-14.165v-13.729c0-7.811-6.354-14.165-14.166-14.165h-13.729c-7.811 0-14.165 6.354-14.165 14.165v13.729c0 7.811 6.354 14.165 14.165 14.165zm.835-27.059h12.06v12.06h-12.06z"/>
        <path d="m427.242 46.927h-58.837c-4.143 0-7.5 3.358-7.5 7.5v58.837c0 4.142 3.357 7.5 7.5 7.5h58.837c4.143 0 7.5-3.358 7.5-7.5v-58.837c0-4.142-3.357-7.5-7.5-7.5zm-7.5 58.837h-43.837v-43.837h43.837z"/>
        <path d="m474.17 91.346c4.143 0 7.5-3.358 7.5-7.5s-3.357-7.5-7.5-7.5h-9.428v-20.756h9.428c4.143 0 7.5-3.358 7.5-7.5s-3.357-7.5-7.5-7.5h-9.428v-.338c0-12.861-10.463-23.324-23.324-23.324h-.339v-9.428c0-4.142-3.357-7.5-7.5-7.5s-7.5 3.358-7.5 7.5v9.427h-20.755v-9.427c0-4.142-3.357-7.5-7.5-7.5s-7.5 3.358-7.5 7.5v9.427h-20.756v-9.427c0-4.142-3.357-7.5-7.5-7.5s-7.5 3.358-7.5 7.5v9.427h-.339c-12.861 0-23.324 10.463-23.324 23.324v.339h-9.427c-4.143 0-7.5 3.358-7.5 7.5s3.357 7.5 7.5 7.5h9.427v20.755h-9.427c-4.143 0-7.5 3.358-7.5 7.5s3.357 7.5 7.5 7.5h9.427v20.756h-9.427c-4.143 0-7.5 3.358-7.5 7.5s3.357 7.5 7.5 7.5h9.427v.338c0 12.861 10.463 23.324 23.324 23.324h.339v9.427c0 4.142 3.357 7.5 7.5 7.5s7.5-3.358 7.5-7.5v-9.427h20.756v9.427c0 4.142 3.357 7.5 7.5 7.5s7.5-3.358 7.5-7.5v-9.427h20.756v9.427c0 4.142 3.357 7.5 7.5 7.5s7.5-3.358 7.5-7.5v-9.427h.338c12.861 0 23.324-10.463 23.324-23.324v-.339h9.428c4.143 0 7.5-3.358 7.5-7.5s-3.357-7.5-7.5-7.5h-9.428v-20.754zm-24.428 36.094c0 4.59-3.734 8.324-8.324 8.324h-87.188c-4.59 0-8.324-3.734-8.324-8.324v-87.189c0-4.59 3.734-8.324 8.324-8.324h87.188c4.59 0 8.324 3.734 8.324 8.324z"/>
    </symbol>

    <symbol id="services02" role="img" aria-labelledby="services02_title" viewBox="0 -27 512.00074 512">
        <title id="services02_title"></title>
        <path d="m221.003906 427.105469c-25.757812-7.46875-49.71875-20.613281-69.828125-38.277344-6.894531-6.054687-13.335937-12.625-19.253906-19.636719-6.652344-7.871094-12.703125-16.386718-17.929687-25.269531-1.964844-3.34375-3.824219-6.746094-5.574219-10.207031-3.386719-6.695313-6.355469-13.601563-8.886719-20.664063-5.105469-14.25-8.414062-29.128906-9.882812-44.191406-2.980469-30.578125 1.78125-61.574219 13.769531-89.636719 1.628906-3.8125-.140625-8.226562-3.953125-9.855468-3.816406-1.628907-8.226563.140624-9.855469 3.957031-2.90625 6.796875-5.398437 13.765625-7.511719 20.839843-5.480468-8.398437-13.425781-14.890624-23.214844-18.792968-12.625-5.03125-27.796874-5.40625-41.628906-1.027344-3.035156.960938-5.136718 3.734375-5.238281 6.921875-.460937 14.496094 4.019531 28.996094 12.285156 39.785156 9.253907 12.074219 22.652344 18.992188 37.738281 19.484375.464844.015625.929688.023438 1.394532.023438 3.566406 0 7.175781-.453125 10.683594-1.304688-.488282 8.226563-.46875 16.496094.070312 24.753906-9.523438-7.480468-21.277344-11.101562-33.800781-10.261718-13.5625.902344-27.414063 7.101562-38.007813 17.011718-2.3281248 2.175782-3.027344 5.585938-1.746094 8.503907 5.832032 13.277343 16.125 24.433593 28.234376 30.605469 7.242187 3.691406 14.921874 5.542968 22.609374 5.542968 6.699219 0 13.40625-1.40625 19.839844-4.222656 3.523438-1.542969 6.882813-3.597656 9.9375-6.035156 2.710938 9.617187 6.140625 18.984375 10.261719 28.046875-8.851563-2.15625-18.183594-1.769531-27.304687 1.253906-12.902344 4.277344-24.753907 13.753906-32.519532 26.003906-1.707031 2.691407-1.53125 6.167969.441406 8.671875 8.980469 11.390625 21.742188 19.605469 35.011719 22.542969 3.730469.824219 7.453125 1.230469 11.121094 1.230469 10.941406 0 21.421875-3.621094 30.300781-10.609375 2.96875-2.335938 5.667969-5.113281 7.988282-8.175781 1.273437 1.605468 2.566406 3.199218 3.890624 4.769531 4.898438 5.792969 10.089844 11.273437 15.546876 16.425781-8.144532 1.363281-15.890626 4.8125-22.71875 10.25-10.632813 8.464844-18.484376 21.453125-21.546876 35.632812-.671874 3.113282.695313 6.3125 3.410157 7.980469 10.128906 6.222657 21.902343 9.566407 33.234375 9.566407 2.496094 0 4.972656-.160157 7.40625-.492188 15.070312-2.042969 27.730468-10.246094 35.640625-23.097656 1.996093-3.246094 3.578125-6.8125 4.699219-10.519532 12.816406 7.085938 26.449218 12.761719 40.703124 16.898438.699219.199219 1.402344.296875 2.09375.296875 3.257813 0 6.257813-2.132813 7.210938-5.417969 1.15625-3.984375-1.136719-8.148437-5.121094-9.304687zm-147.367187-203.359375c-3.558594 1.285156-7.386719 1.898437-11.113281 1.777344-16.640626-.542969-33.84375-14.070313-35.414063-38.277344 23.722656-5.058594 41.410156 7.832031 46.449219 23.699218 1.125 3.546876 1.574218 7.402344 1.304687 11.179688-.042969.234375-.105469.574219-.179687.964844-.007813.050781-.015625.101562-.027344.152344-.046875.023437-.09375.046874-.140625.070312-.355469.175781-.664063.332031-.878906.433594zm1.519531 66.519531c-.246094.3125-.460938.585937-.605469.773437-2.660156 2.691407-5.855469 4.898438-9.261719 6.390626-15.25 6.683593-36.605468 1.894531-48.453124-19.273438 19.230468-14.789062 40.742187-10.78125 52.128906 1.367188 2.542968 2.710937 4.609375 6 5.992187 9.523437.0625.230469.152344.566406.257813.949219.011718.050781.023437.101562.039062.148437-.03125.039063-.066406.082031-.097656.121094zm24.125 80.222656c-13.085938 10.296875-34.960938 11.019531-51.738281-6.496093 14.898437-19.140626 36.730469-20.664063 50.800781-11.761719 2.519531 1.597656 4.832031 3.632812 6.796875 5.953125.625.96875 1.253906 1.933594 1.890625 2.902344-1.601562 3.660156-4.621094 6.9375-7.75 9.402343zm59.34375 56.792969c-8.726562 14.179688-29.003906 22.40625-50.800781 11.757812-1.078125-.527343 5.828125-12.253906 6.621093-13.355468 2.621094-3.628906 5.824219-6.839844 9.5-9.402344 3.257813-2.261719 6.878907-4 10.683594-5.113281 1.957032-.574219 3.960938-.980469 5.988282-1.210938 5.199218-.589843 21.40625-1.0625 21.972656 6.792969.246094 3.382812-2.496094 8.148438-3.964844 10.53125zm0 0"/>
        <path d="m509.621094 270.757812c-10.59375-9.910156-24.445313-16.109374-38.007813-17.015624-12.53125-.832032-24.277343 2.789062-33.800781 10.265624.539062-8.257812.5625-16.527343.074219-24.757812 18.46875 4.503906 38.183593-3.023438 49.816406-18.203125 8.265625-10.785156 12.742187-25.289063 12.285156-39.785156-.101562-3.183594-2.203125-5.957031-5.242187-6.921875-13.828125-4.375-29.003906-4-41.625 1.027344-9.789063 3.902343-17.738282 10.394531-23.214844 18.796874-2.113281-7.078124-4.605469-14.042968-7.511719-20.84375-1.628906-3.8125-6.039062-5.585937-9.855469-3.953124-3.8125 1.628906-5.582031 6.039062-3.953124 9.855468 11.988281 28.0625 16.75 59.058594 13.769531 89.632813-3.609375 37-18.402344 72.078125-42.273438 100.335937-23.433593 27.738282-54.160156 47.78125-89.085937 57.914063-3.984375 1.15625-6.277344 5.320312-5.117188 9.304687.953125 3.285156 3.949219 5.417969 7.207032 5.417969.691406 0 1.398437-.097656 2.09375-.300781 14.253906-4.132813 27.886718-9.808594 40.707031-16.894532 1.121093 3.703126 2.703125 7.273438 4.699219 10.519532 7.910156 12.851562 20.566406 21.054687 35.640624 23.097656 13.96875 1.894531 28.683594-1.730469 40.640626-9.074219 2.714843-1.667969 4.082031-4.867187 3.410156-7.984375-3.0625-14.175781-10.917969-27.164062-21.546875-35.632812-6.828125-5.4375-14.574219-8.886719-22.71875-10.25 5.457031-5.152344 10.648437-10.632813 15.542969-16.425782 1.328124-1.570312 2.621093-3.164062 3.894531-4.765624 2.320312 3.058593 5.015625 5.835937 7.984375 8.171874 8.882812 6.988282 19.359375 10.609376 30.300781 10.609376 17.992187 0 35.136719-9.816407 46.132813-23.773438 1.972656-2.503906 2.152343-5.980469.445312-8.671875-7.765625-12.246094-19.621094-21.726563-32.519531-26.003906-9.121094-3.027344-18.453125-3.410157-27.304688-1.257813 4.121094-9.058594 7.550781-18.425781 10.261719-28.042968 3.054688 2.4375 6.414062 4.492187 9.9375 6.035156 6.433594 2.820312 13.140625 4.226562 19.835938 4.226562 7.691406 0 15.371093-1.855468 22.609374-5.546875 12.109376-6.171875 22.402344-17.324219 28.234376-30.605469 1.28125-2.914062.582031-6.324218-1.746094-8.5zm-129.257813 141.421876c5.429688 2.113281 10.289063 5.539062 14.214844 9.835937 1.214844 1.332031 11.390625 16.148437 9.597656 17.023437-21.792969 10.648438-42.074219 2.421876-50.800781-11.757812-1.949219-3.164062-3.316406-6.800781-3.96875-10.53125-.007812-.085938-.015625-.199219-.023438-.316406-.214843-4 8.375-5.269532 11.1875-5.921875.042969-.007813.085938-.019531.125-.027344 6.492188-1.558594 13.433594-.734375 19.667969 1.695313zm84.097657-48.1875c-16.78125 17.515624-38.652344 16.792968-51.742188 6.496093-2.917969-2.296875-5.457031-5.234375-7.359375-8.515625-.097656-.214844-.234375-.535156-.394531-.898437 2.386718-3.570313 4.984375-6.496094 8.691406-8.84375 14.070312-8.898438 35.902344-7.378907 50.804688 11.761719zm-26.019532-153.042969c5.035156-15.871094 22.714844-28.761719 46.449219-23.699219-1.570313 24.207031-18.773437 37.730469-35.414063 38.273438-3.726562.121093-7.554687-.492188-11.113281-1.777344-.210937-.101563-.523437-.253906-.875-.429688-.050781-.023437-.097656-.046875-.144531-.070312-.011719-.054688-.019531-.105469-.027344-.15625-.074218-.390625-.140625-.730469-.179687-.964844-.269531-3.773438.179687-7.632812 1.304687-11.175781zm8.269532 86.480469c-3.402344-1.492188-6.59375-3.695313-9.25-6.382813-2.4375-2.46875 3.867187-9.703125 5.574218-11.523437 11.382813-12.152344 32.902344-16.15625 52.128906-1.367188-11.847656 21.164062-33.203124 25.957031-48.453124 19.273438zm0 0"/>
        <path d="m122.667969 142.390625c-2.476563 4.292969-2.1875 9.652344.742187 13.652344l46.605469 63.664062-46.605469 63.664063c-2.929687 4-3.21875 9.355468-.742187 13.648437 2.253906 3.898438 6.40625 6.257813 10.839843 6.257813.449219 0 .898438-.023438 1.355469-.070313l28.667969-3.121093c4.121094-.445313 7.101562-4.152344 6.652344-8.277344-.449219-4.121094-4.152344-7.09375-8.277344-6.652344l-23.027344 2.503906 44.335938-60.5625c3.238281-4.421875 3.238281-10.363281 0-14.785156l-44.332032-60.5625 74.613282 8.117188c5.4375.589843 10.59375-2.378907 12.804687-7.394532l30.28125-68.675781 10.378907 23.539063c1.671874 3.792968 6.105468 5.511718 9.902343 3.839843 3.792969-1.671875 5.511719-6.105469 3.839844-9.902343l-12.667969-28.730469c-2-4.535157-6.496094-7.46875-11.453125-7.46875s-9.449219 2.933593-11.449219 7.46875l-31.832031 72.191406-78.4375-8.527344c-4.925781-.535156-9.714843 1.890625-12.195312 6.183594zm0 0"/>
        <path d="m378.304688 303.207031c4.9375.53125 9.710937-1.894531 12.191406-6.1875 2.480468-4.292969 2.1875-9.648437-.742188-13.648437l-46.605468-63.664063 46.605468-63.664062c2.929688-4 3.222656-9.359375.742188-13.652344-2.480469-4.292969-7.28125-6.722656-12.191406-6.183594l-78.4375 8.53125-4.9375-11.199219c-1.675782-3.792968-6.105469-5.515624-9.902344-3.839843-3.796875 1.671875-5.515625 6.105469-3.839844 9.898437l5.675781 12.875c2.210938 5.015625 7.367188 7.992188 12.804688 7.394532l74.613281-8.117188-44.335938 60.566406c-3.234374 4.421875-3.234374 10.363282.003907 14.78125l44.332031 60.5625-74.613281-8.113281c-5.449219-.59375-10.597657 2.378906-12.804688 7.394531l-30.28125 68.675782-30.28125-68.679688c-2.210937-5.011719-7.363281-7.984375-12.804687-7.390625l-17.246094 1.875c-4.121094.449219-7.101562 4.15625-6.652344 8.277344.449219 4.125 4.15625 7.097656 8.277344 6.652343l15.421875-1.675781 31.832031 72.195313c2 4.535156 6.492188 7.464844 11.449219 7.464844s9.453125-2.929688 11.453125-7.464844l31.832031-72.195313zm0 0"/>
        <path d="m220.835938 35.535156c.546874 3.734375 3.753906 6.417969 7.417968 6.417969.363282 0 .734375-.027344 1.101563-.082031 4.105469-.601563 6.941406-4.417969 6.335937-8.519532l-3.960937-26.933593c-.605469-4.101563-4.417969-6.945313-8.523438-6.3359378-4.101562.6054688-6.9375 4.4218748-6.335937 8.5234378zm0 0"/>
        <path d="m109.722656 81.941406 22.339844 15.558594c1.304688.910156 2.800781 1.347656 4.285156 1.347656 2.371094 0 4.707032-1.125 6.167969-3.21875 2.371094-3.402344 1.53125-8.082031-1.871094-10.453125l-22.335937-15.558593c-3.402344-2.371094-8.085938-1.535157-10.457032 1.871093-2.367187 3.402344-1.53125 8.082031 1.871094 10.453125zm0 0"/>
        <path d="m174.265625 64.167969c1.421875 2.292969 3.878906 3.558593 6.394531 3.558593 1.347656 0 2.714844-.363281 3.945313-1.125 3.523437-2.183593 4.613281-6.8125 2.433593-10.339843l-13.628906-22.011719c-2.179687-3.527344-6.8125-4.617188-10.335937-2.433594-3.527344 2.183594-4.617188 6.808594-2.433594 10.335938zm0 0"/>
        <path d="m283.808594 41.875c.371094.054688.738281.078125 1.101562.078125 3.664063 0 6.871094-2.683594 7.417969-6.414063l3.964844-26.933593c.605469-4.101563-2.230469-7.917969-6.335938-8.5234378-4.09375-.6015622-7.917969 2.2343748-8.523437 6.3359378l-3.960938 26.933593c-.605468 4.101563 2.230469 7.917969 6.335938 8.523438zm0 0"/>
        <path d="m376.820312 98.847656c1.480469 0 2.976563-.4375 4.28125-1.347656l22.339844-15.558594c3.402344-2.371094 4.238282-7.050781 1.871094-10.453125-2.371094-3.402343-7.050781-4.242187-10.453125-1.871093l-22.339844 15.558593c-3.402343 2.371094-4.238281 7.050781-1.871093 10.453125 1.460937 2.09375 3.796874 3.21875 6.171874 3.21875zm0 0"/>
        <path d="m328.558594 66.601562c1.230468.761719 2.597656 1.125 3.945312 1.125 2.515625 0 4.972656-1.265624 6.394532-3.558593l13.625-22.015625c2.183593-3.523438 1.09375-8.152344-2.433594-10.335938-3.523438-2.179687-8.152344-1.09375-10.335938 2.429688l-13.628906 22.015625c-2.179688 3.527343-1.089844 8.15625 2.433594 10.339843zm0 0"/>
    </symbol>

    <symbol id="services03" role="img" aria-labelledby="services03_title" viewBox="0 0 512 512">
        <title id="services03_title"></title>
        <path d="m388.933594 149.765625c-13.507813 0-23.847656 5.835937-23.847656 21.511719v24.183594c0 15.84375 10.339843 21.515624 23.847656 21.515624 13.34375 0 23.683594-5.671874 23.683594-21.515624v-24.183594c0-15.675782-10.339844-21.511719-23.683594-21.511719zm9.507812 45.695313c0 6.171874-3.667968 9.003906-9.507812 9.003906-5.835938 0-9.339844-2.832032-9.339844-9.003906v-24.183594c0-6.171875 3.503906-9.003906 9.339844-9.003906 5.839844 0 9.507812 2.835937 9.507812 9.003906zm0 0"/>
        <path d="m389.269531 95.394531c0-4.5-4.503906-7.503906-8.339843-7.503906-2.503907 0-4.835938 1.167969-6.003907 3.5l-60.039062 121.582031c-.335938.832032-.667969 1.832032-.667969 2.835938 0 3.5 3.167969 7.335937 7.835938 7.335937 2.835937 0 5.503906-1.332031 6.507812-3.667969l60.039062-121.082031c.5-1 .667969-2 .667969-3zm0 0"/>
        <path d="m337.398438 140.257812v-24.183593c0-15.675781-10.339844-21.511719-23.679688-21.511719-13.507812 0-23.851562 5.835938-23.851562 21.511719v24.183593c0 15.679688 10.34375 21.515626 23.851562 21.515626 13.339844 0 23.679688-5.839844 23.679688-21.515626zm-14.175782 0c0 6.171876-3.667968 9.007813-9.503906 9.007813s-9.339844-2.835937-9.339844-9.007813v-24.183593c0-6.167969 3.503906-9.003907 9.339844-9.003907s9.503906 2.835938 9.503906 9.003907zm0 0"/>
        <path d="m95.632812 173.671875h-30.53125c-6.933593 0-12.574218 5.640625-12.574218 12.574219v30.261718h-.824219c-4.167969 0-7.546875 3.378907-7.546875 7.542969 0 4.167969 3.378906 7.546875 7.546875 7.546875h178.488281c4.167969 0 7.542969-3.378906 7.542969-7.546875 0-4.164062-3.375-7.542969-7.542969-7.542969h-.828125v-44.117187c0-6.933594-5.640625-12.574219-12.574219-12.574219h-30.53125c-6.933593 0-12.574218 5.640625-12.574218 12.574219v44.117187h-4.898438v-126.835937c0-6.933594-5.640625-12.574219-12.574218-12.574219h-30.527344c-6.933594 0-12.574219 5.640625-12.574219 12.574219v126.835937h-4.898437v-30.261718c-.003907-6.933594-5.644532-12.574219-12.578126-12.574219zm-2.515624 42.835937h-25.5v-27.746093h25.5zm95.65625-41.601562h25.5v41.601562h-25.5zm-60.578126-82.71875h25.5v124.320312h-25.5zm0 0"/>
        <path d="m437.015625 74.980469c-48.351563-48.351563-112.636719-74.980469-181.015625-74.980469-36.167969 0-71.132812 7.394531-103.917969 21.972656-31.671875 14.085938-59.753906 34.140625-83.472656 59.613282-2.839844 3.046874-2.667969 7.824218.382813 10.660156 3.046874 2.839844 7.820312 2.671875 10.660156-.378906 22.328125-23.976563 48.757812-42.851563 78.558594-56.105469 28.5625-12.703125 58.886718-19.59375 90.242187-20.546875v233.238281h-233.246094c1.4375-46.886719 16.277344-91.761719 43.140625-130.226563 2.386719-3.414062 1.550782-8.117187-1.867187-10.503906-3.417969-2.386718-8.117188-1.550781-10.503907 1.863282-30.078124 43.070312-45.976562 93.699218-45.976562 146.414062 0 34.492188 6.804688 67.933594 19.730469 98.824219-4.683594 12.15625-7.257813 25.351562-7.257813 39.136719 0 60.230468 49 109.230468 109.230469 109.230468 14.8125 0 28.945313-2.96875 41.839844-8.335937 29.09375 11.253906 60.320312 17.144531 92.457031 17.144531 68.378906 0 132.664062-26.628906 181.015625-74.980469 48.355469-48.351562 74.984375-112.640625 74.984375-181.019531s-26.628906-132.667969-74.984375-181.019531zm-173.472656 188.5625h31.632812l-31.632812 33.082031zm0 54.917969 52.507812-54.917969h47.015625l-99.523437 104.066406zm-141.839844 169.640624c-51.90625 0-94.140625-42.230468-94.140625-94.140624 0-51.910157 42.234375-94.140626 94.140625-94.140626 51.910156 0 94.140625 42.230469 94.140625 94.140626 0 51.910156-42.230469 94.140624-94.140625 94.140624zm59.921875-2.859374c29.679688-19.546876 49.308594-53.164063 49.308594-91.28125 0-60.230469-49-109.230469-109.230469-109.230469-39.175781 0-73.59375 20.738281-92.875 51.804687-8.210937-23.210937-12.851563-47.765625-13.621094-72.988281h233.25v202.003906c-.0625.5625-.066406 1.128907 0 1.691407v29.554687c-23.007812-.703125-45.453125-4.640625-66.832031-11.554687zm244.722656-58.894532c-29.945312 29.945313-66.382812 51.03125-106.140625 61.953125l170.699219-178.5c-9.945312 43.800781-32.019531 84.007813-64.558594 116.546875zm69.027344-143.054687-201.445312 210.652343c-9.988282 1.570313-20.128907 2.535157-30.386719 2.851563v-27.367187l118.832031-122.4375c2.902344-2.992188 2.832031-7.769532-.15625-10.671876-2.992188-2.898437-7.769531-2.828124-10.671875.160157l-108.003906 111.28125v-58.320313l120.402343-125.894531h58.390626l-47.640626 49.085937c-2.898437 2.988282-2.828124 7.765626.160157 10.667969 1.46875 1.421875 3.363281 2.128907 5.253906 2.128907 1.96875 0 3.9375-.761719 5.414063-2.289063l57.839843-59.59375h33.429688c-.199219 6.632813-.6875 13.21875-1.417969 19.746094zm-231.832031-34.835938v-233.238281c.820312.023438 1.632812.054688 2.453125.089844.878906.035156 1.761718.066406 2.640625.109375 1.089843.058593 2.175781.128906 3.261719.199219.867187.054687 1.730468.105468 2.59375.171874 1.105468.082032 2.207031.183594 3.308593.28125.839844.074219 1.683594.144532 2.523438.226563 1.128906.113281 2.257812.246094 3.386719.375.804687.089844 1.609374.171875 2.410156.269531 1.203125.152344 2.398437.320313 3.597656.488282.722656.101562 1.445312.191406 2.164062.296874 1.429688.210938 2.847657.449219 4.269532.683594.488281.082032.976562.152344 1.460937.234375 1.902344.332031 3.800781.683594 5.6875 1.058594.523438.101563 1.042969.21875 1.5625.328125 1.367188.277344 2.734375.558594 4.09375.863281.730469.160157 1.453125.339844 2.179688.511719 1.148437.265625 2.296875.53125 3.4375.8125.792969.199219 1.582031.414062 2.375.617188 1.066406.277343 2.136719.550781 3.203125.84375.824218.226562 1.640625.46875 2.464844.703124 1.023437.292969 2.046874.582032 3.066406.886719.839844.253907 1.671875.519531 2.507812.78125.996094.3125 1.988282.621094 2.980469.945313.84375.273437 1.679687.5625 2.519531.847656.976563.332031 1.953125.664062 2.921875 1.007812.84375.296876 1.683594.609376 2.523438.917969.957031.351563 1.917969.703125 2.871093 1.066407.84375.320312 1.679688.652343 2.519532.984374.941406.371094 1.882812.746094 2.820312 1.128907.839844.34375 1.675782.695312 2.511719 1.050781.929687.390625 1.855469.785156 2.777344 1.191406.835937.363282 1.664062.738282 2.496093 1.113282.914063.414062 1.832032.832031 2.742188 1.257812.828125.386719 1.648438.777344 2.472656 1.175781.90625.433594 1.808594.875 2.707032 1.320313.816406.40625 1.632812.820312 2.445312 1.234375.898438.460937 1.789062.921875 2.679688 1.390625.808593.425781 1.613281.859375 2.414062 1.292968.886719.480469 1.769531.964844 2.652344 1.457032.792968.445312 1.589844.894531 2.382812 1.347656.875.503906 1.746094 1.015625 2.617188 1.527344.785156.464844 1.570312.929687 2.347656 1.402344.867188.527343 1.734375 1.0625 2.59375 1.601562.773438.480469 1.542969.964844 2.308594 1.453125.859375.550781 1.714844 1.113281 2.570312 1.675781.757813.496094 1.511719.992188 2.265625 1.5.855469.578125 1.699219 1.164063 2.546875 1.753906.742188.511719 1.480469 1.023438 2.214844 1.542969.851562.601563 1.695312 1.21875 2.535156 1.835938.722656.523437 1.445313 1.046875 2.160156 1.582031.84375.632812 1.683594 1.277344 2.519532 1.921875.699218.535156 1.40625 1.070313 2.101562 1.617187.847656.664063 1.679688 1.34375 2.519532 2.019532.675781.542968 1.355468 1.082031 2.027343 1.636718.855469.707032 1.703125 1.429688 2.554688 2.152344.636719.539063 1.277343 1.074219 1.910156 1.621094.886719.769531 1.761719 1.554688 2.640625 2.335938.582031.519531 1.171875 1.03125 1.75 1.554687.96875.878906 1.921875 1.777344 2.875 2.671875.476562.449219.960938.886719 1.433594 1.339844 1.421875 1.355468 2.832031 2.730468 4.226562 4.125 1.367188 1.363281 2.714844 2.746094 4.042969 4.136718 35.890625 37.613282 58.253906 84.859376 64.632813 135.800782.945312 7.546875 1.539062 15.175781 1.773437 22.863281h-233.253906zm0 0"/>
        <path d="m157.054688 453.53125c-10.65625 6.335938-22.878907 9.6875-35.351563 9.6875-38.1875 0-69.253906-31.070312-69.253906-69.257812 0-11.289063 2.625-22.050782 7.808593-31.980469 1.925782-3.695313.496094-8.253907-3.199218-10.179688-3.699219-1.929687-8.253906-.496093-10.179688 3.199219-6.230468 11.9375-9.519531 25.410156-9.519531 38.960938 0 46.507812 37.835937 84.347656 84.34375 84.347656 15.1875 0 30.078125-4.082032 43.0625-11.808594 3.582031-2.128906 4.757813-6.757812 2.628906-10.339844-2.128906-3.582031-6.761719-4.761718-10.339843-2.628906zm0 0"/>
        <path d="m191.960938 432.566406c2.894531 0 5.65625-1.675781 6.902343-4.492187 4.769531-10.769531 7.1875-22.246094 7.1875-34.113281 0-46.507813-37.835937-84.34375-84.347656-84.34375-14.789063 0-29.34375 3.882812-42.085937 11.234374-3.609376 2.082032-4.847657 6.695313-2.765626 10.304688 2.082032 3.609375 6.695313 4.847656 10.304688 2.765625 10.453125-6.03125 22.402344-9.214844 34.546875-9.214844 38.191406 0 69.257813 31.066407 69.257813 69.253907 0 9.75-1.980469 19.171874-5.894532 28.003906-1.683594 3.8125.035156 8.265625 3.847656 9.953125.992188.441406 2.027344.648437 3.046876.648437zm0 0"/>
        <path d="m94.234375 417.785156c-4.101563 0-7.410156 5.558594-7.410156 9.261719 0 7.410156 12.042969 16.007813 28.050781 16.40625v3.703125c0 1.722656 1.984375 3.308594 4.496094 3.308594 2.25 0 4.5-1.585938 4.5-3.308594v-4.101562c14.816406-2.378907 25.003906-11.773438 25.003906-28.046876 0-17.992187-13.230469-23.945312-25.003906-28.3125v-23.285156c8.863281.660156 11.90625 4.894532 15.609375 4.894532 4.898437 0 7.011719-6.085938 7.011719-9.128907 0-7.671875-14.023438-10.1875-22.621094-10.453125v-3.4375c0-1.722656-2.25-3.308594-4.496094-3.308594-2.515625 0-4.5 1.585938-4.5 3.308594v3.703125c-13.230469 1.71875-25.667969 8.996094-25.667969 25.796875 0 16.9375 13.628907 22.097656 25.667969 26.59375v26.328125c-11.644531-1.320312-15.613281-9.921875-20.640625-9.921875zm28.578125-13.230468c5.6875 2.515624 9.921875 5.691406 9.921875 12.171874 0 6.21875-4.101563 9.660157-9.921875 10.847657zm-17.464844-31.484376c0-5.027343 3.96875-8.203124 10.582032-9.261718v19.976562c-6.085938-2.382812-10.582032-4.894531-10.582032-10.714844zm0 0"/>
    </symbol>

    <symbol id="services04" role="img" aria-labelledby="services04_title" viewBox="-1 0 512 512">
        <title id="services04_title"></title>
        <path d="m193.660156 427.285156h-141.660156c-4.136719 0-7.492188-3.355468-7.492188-7.492187 0-4.140625 3.355469-7.496094 7.492188-7.496094h141.660156c4.136719 0 7.492188 3.355469 7.492188 7.496094 0 4.136719-3.355469 7.492187-7.492188 7.492187zm0 0"/>
        <path d="m462.457031 45.433594h-62.433593c-4.140626 0-7.496094-3.355469-7.496094-7.492188 0-4.140625 3.355468-7.496094 7.496094-7.496094h62.433593c4.140625 0 7.496094 3.355469 7.496094 7.496094 0 4.136719-3.355469 7.492188-7.496094 7.492188zm0 0"/>
        <path d="m503.089844 75.554688h-70.671875c-4.136719 0-7.492188-3.355469-7.492188-7.492188 0-4.140625 3.355469-7.496094 7.492188-7.496094h70.671875c4.136718 0 7.492187 3.355469 7.492187 7.496094 0 4.136719-3.355469 7.492188-7.492187 7.492188zm0 0"/>
        <path d="m86.15625 367.039062h-78.664062c-4.136719 0-7.492188-3.351562-7.492188-7.492187 0-4.136719 3.355469-7.492187 7.492188-7.492187h78.664062c4.140625 0 7.492188 3.355468 7.492188 7.492187 0 4.140625-3.351563 7.492187-7.492188 7.492187zm0 0"/>
        <path d="m86.15625 336.917969h-78.664062c-4.136719 0-7.492188-3.351563-7.492188-7.492188 0-4.136719 3.355469-7.492187 7.492188-7.492187h78.664062c4.140625 0 7.492188 3.355468 7.492188 7.492187 0 4.140625-3.351563 7.492188-7.492188 7.492188zm0 0"/>
        <path d="m193.660156 397.164062h-141.660156c-4.136719 0-7.492188-3.355468-7.492188-7.496093 0-4.136719 3.355469-7.492188 7.492188-7.492188h141.660156c4.136719 0 7.492188 3.355469 7.492188 7.492188 0 4.140625-3.355469 7.496093-7.492188 7.496093zm0 0"/>
        <path d="m502.273438 329.363281h-69.855469c-4.140625 0-7.492188-3.355469-7.492188-7.496093 0-4.136719 3.351563-7.492188 7.492188-7.492188h69.855469c4.136718 0 7.492187 3.355469 7.492187 7.492188 0 4.140624-3.355469 7.496093-7.492187 7.496093zm0 0"/>
        <path d="m503.089844 359.484375h-70.671875c-4.136719 0-7.492188-3.355469-7.492188-7.492187 0-4.140626 3.355469-7.492188 7.492188-7.492188h70.671875c4.136718 0 7.492187 3.351562 7.492187 7.492188 0 4.136718-3.355469 7.492187-7.492187 7.492187zm0 0"/>
        <path d="m503.089844 390.125h-103.066406c-4.140626 0-7.496094-3.355469-7.496094-7.496094 0-4.136718 3.355468-7.492187 7.496094-7.492187h103.066406c4.136718 0 7.492187 3.355469 7.492187 7.492187 0 4.140625-3.355469 7.496094-7.492187 7.496094zm0 0"/>
        <path d="m193.660156 427.285156h-141.660156c-4.136719 0-7.492188-3.355468-7.492188-7.492187 0-4.140625 3.355469-7.496094 7.492188-7.496094h141.660156c4.136719 0 7.492188 3.355469 7.492188 7.496094 0 4.136719-3.355469 7.492187-7.492188 7.492187zm0 0"/>
        <path d="m462.457031 45.433594h-62.433593c-4.140626 0-7.496094-3.355469-7.496094-7.492188 0-4.140625 3.355468-7.496094 7.496094-7.496094h62.433593c4.140625 0 7.496094 3.355469 7.496094 7.496094 0 4.136719-3.355469 7.492188-7.496094 7.492188zm0 0"/>
        <path d="m503.089844 75.554688h-70.671875c-4.136719 0-7.492188-3.355469-7.492188-7.492188 0-4.140625 3.355469-7.496094 7.492188-7.496094h70.671875c4.136718 0 7.492187 3.355469 7.492187 7.496094 0 4.136719-3.355469 7.492188-7.492187 7.492188zm0 0"/>
        <path d="m86.15625 367.039062h-78.664062c-4.136719 0-7.492188-3.351562-7.492188-7.492187 0-4.136719 3.355469-7.492187 7.492188-7.492187h78.664062c4.140625 0 7.492188 3.355468 7.492188 7.492187 0 4.140625-3.351563 7.492187-7.492188 7.492187zm0 0"/>
        <path d="m86.15625 336.917969h-78.664062c-4.136719 0-7.492188-3.351563-7.492188-7.492188 0-4.136719 3.355469-7.492187 7.492188-7.492187h78.664062c4.140625 0 7.492188 3.355468 7.492188 7.492187 0 4.140625-3.351563 7.492188-7.492188 7.492188zm0 0"/>
        <path d="m193.660156 397.164062h-141.660156c-4.136719 0-7.492188-3.355468-7.492188-7.496093 0-4.136719 3.355469-7.492188 7.492188-7.492188h141.660156c4.136719 0 7.492188 3.355469 7.492188 7.492188 0 4.140625-3.355469 7.496093-7.492188 7.496093zm0 0"/>
        <path d="m502.273438 329.363281h-69.855469c-4.140625 0-7.492188-3.355469-7.492188-7.496093 0-4.136719 3.351563-7.492188 7.492188-7.492188h69.855469c4.136718 0 7.492187 3.355469 7.492187 7.492188 0 4.140624-3.355469 7.496093-7.492187 7.496093zm0 0"/>
        <path d="m503.089844 359.484375h-70.671875c-4.136719 0-7.492188-3.355469-7.492188-7.492187 0-4.140626 3.355469-7.492188 7.492188-7.492188h70.671875c4.136718 0 7.492187 3.351562 7.492187 7.492188 0 4.136718-3.355469 7.492187-7.492187 7.492187zm0 0"/>
        <path d="m503.089844 390.125h-103.066406c-4.140626 0-7.496094-3.355469-7.496094-7.496094 0-4.136718 3.355468-7.492187 7.496094-7.492187h103.066406c4.136718 0 7.492187 3.355469 7.492187 7.492187 0 4.140625-3.355469 7.496094-7.492187 7.496094zm0 0"/>
        <path d="m254.449219 372.5c102.699219 0 186.25-83.550781 186.25-186.25s-83.550781-186.25-186.25-186.25-186.25 83.550781-186.25 186.25c0 88.722656 62.371093 163.148438 145.5625 181.757812v103.304688c0 22.433594 18.253906 40.6875 40.6875 40.6875 22.433593 0 40.6875-18.25 40.6875-40.6875v-71.558594c0-4.136718-3.355469-7.492187-7.496094-7.492187-4.136719 0-7.492187 3.355469-7.492187 7.492187v71.558594c0 14.171875-11.527344 25.699219-25.699219 25.699219-14.167969 0-25.699219-11.527344-25.699219-25.699219v-100.597656c8.402344 1.167968 16.980469 1.785156 25.699219 1.785156zm-171.261719-186.25c0-94.4375 76.828125-171.261719 171.261719-171.261719 94.433593 0 171.261719 76.824219 171.261719 171.261719 0 94.433594-76.828126 171.261719-171.261719 171.261719-94.433594 0-171.261719-76.828125-171.261719-171.261719zm0 0"/>
        <path d="m413.882812 186.25c0-87.914062-71.519531-159.4375-159.433593-159.4375-87.914063 0-159.4375 71.523438-159.4375 159.4375 0 49.035156 22.082031 94.632812 60.582031 125.09375 3.242188 2.570312 7.957031 2.019531 10.523438-1.226562 2.570312-3.242188 2.019531-7.957032-1.226563-10.523438-34.882813-27.605469-54.890625-68.917969-54.890625-113.34375 0-79.652344 64.796875-144.449219 144.449219-144.449219 79.648437 0 144.449219 64.796875 144.449219 144.449219 0 79.648438-64.800782 144.449219-144.449219 144.449219-20.886719 0-41.03125-4.359375-59.875-12.953125-3.761719-1.71875-8.210938-.058594-9.929688 3.707031-1.714843 3.765625-.054687 8.207031 3.710938 9.925781 20.804687 9.492188 43.042969 14.304688 66.09375 14.304688 87.914062 0 159.433593-71.523438 159.433593-159.433594zm0 0"/>
        <path d="m339.425781 230.953125c17.9375-18.453125 26.558594-36.800781 26.914063-37.574219.925781-1.992187.929687-4.289062.011718-6.285156-.300781-.648438-7.476562-16.070312-22.398437-32.835938-2.753906-3.09375-7.492187-3.367187-10.582031-.617187-3.089844 2.753906-3.367188 7.488281-.613282 10.578125 9.578126 10.761719 15.664063 21.011719 18.359376 25.992188-7.214844 13.214843-38.527344 63.53125-96.667969 63.53125-28.234375 0-53.261719-11.054688-74.390625-32.851563-12.039063-12.414063-19.367188-25.015625-22.332032-30.652344 6.925782-13.0625 37.53125-63.53125 96.722657-63.53125 19.640625 0 38.0625 5.652344 54.75 16.796875 3.441406 2.296875 8.09375 1.371094 10.390625-2.070312 2.300781-3.441406 1.375-8.097656-2.070313-10.394532-19.191406-12.820312-40.414062-19.316406-63.070312-19.316406-32.046875 0-61.585938 13.070313-85.421875 37.796875-17.820313 18.480469-26.164063 36.867188-26.511719 37.640625-.871094 1.941406-.875 4.160156-.011719 6.105469.34375.773437 8.625 19.167969 26.410156 37.65625 23.789063 24.734375 53.367188 37.804687 85.535157 37.804687 31.570312.003907 60.953125-13.0625 84.976562-37.773437zm0 0"/>
        <path d="m209.910156 191.789062c0 24.558594 19.980469 44.539063 44.539063 44.539063 24.558593 0 44.539062-19.980469 44.539062-44.539063 0-24.558593-19.980469-44.542968-44.539062-44.542968-24.558594.003906-44.539063 19.984375-44.539063 44.542968zm74.089844 0c0 16.292969-13.257812 29.550782-29.550781 29.550782s-29.550781-13.257813-29.550781-29.550782c0-16.296874 13.257812-29.554687 29.550781-29.554687s29.550781 13.257813 29.550781 29.554687zm0 0"/>
        <path d="m473.105469 259.222656c-11.191407 0-20.296875-9.101562-20.296875-20.296875 0-11.191406 9.105468-20.296875 20.296875-20.296875 11.191406 0 20.296875 9.105469 20.296875 20.296875 0 11.195313-9.105469 20.296875-20.296875 20.296875zm0-25.605468c-2.929688 0-5.3125 2.382812-5.3125 5.308593 0 2.929688 2.382812 5.3125 5.3125 5.3125 2.925781 0 5.308593-2.382812 5.308593-5.3125 0-2.925781-2.382812-5.308593-5.308593-5.308593zm0 0"/>
        <path d="m344.039062 447.519531c-15.261718 0-27.675781-12.414062-27.675781-27.675781s12.414063-27.675781 27.675781-27.675781c15.261719 0 27.675782 12.414062 27.675782 27.675781s-12.414063 27.675781-27.675782 27.675781zm0-40.367187c-7 0-12.691406 5.695312-12.691406 12.691406s5.691406 12.691406 12.691406 12.691406c6.996094 0 12.6875-5.691406 12.6875-12.691406 0-6.996094-5.691406-12.691406-12.6875-12.691406zm0 0"/>
        <path d="m53.992188 117.515625c-4.386719 0-8.175782-2.976563-9.21875-7.234375l-2.417969-9.867188c-3.957031-16.160156-16.238281-24.617187-25.847657-28.871093-.390624-.171875-.769531-.378907-1.125-.617188-2.761718-1.839843-4.40625-4.917969-4.40625-8.234375 0-3.3125 1.644532-6.390625 4.40625-8.230468.355469-.238282.730469-.445313 1.125-.621094 9.609376-4.25 21.890626-12.707032 25.847657-28.863282l2.417969-9.871093c1.039062-4.257813 4.832031-7.234375 9.21875-7.234375 4.382812 0 8.175781 2.976562 9.21875 7.234375l2.414062 9.871093c3.957031 16.15625 16.242188 24.617188 25.851562 28.867188.390626.171875.765626.378906 1.125.617188 2.757813 1.839843 4.40625 4.917968 4.40625 8.234374 0 3.3125-1.648437 6.390626-4.40625 8.230469-.359374.238281-.734374.445313-1.125.621094-9.609374 4.25-21.894531 12.707031-25.851562 28.867187l-2.414062 9.867188c-1.042969 4.257812-4.835938 7.234375-9.21875 7.234375zm-22.238282-54.824219c10.257813 6.433594 17.789063 15.027344 22.238282 25.394532 4.449218-10.367188 11.976562-18.960938 22.238281-25.394532-10.261719-6.429687-17.789063-15.027344-22.238281-25.390625-4.449219 10.363281-11.980469 18.960938-22.238282 25.390625zm0 0"/>
        <path d="m34.070312 197.71875c-3.953124 0-7.371093-2.683594-8.3125-6.523438l-1.285156-5.253906c-1.417968-5.792968-5.378906-10.167968-11.773437-12.996094-.394531-.175781-.769531-.378906-1.125-.617187-2.445313-1.632813-3.90625-4.359375-3.90625-7.300781 0-2.9375 1.460937-5.667969 3.90625-7.296875.355469-.238281.730469-.445313 1.125-.617188 6.394531-2.832031 10.355469-7.203125 11.773437-13l1.285156-5.253906c.941407-3.839844 4.363282-6.523437 8.3125-6.523437 3.953126 0 7.371094 2.683593 8.3125 6.523437l1.285157 5.253906c1.417969 5.796875 5.382812 10.167969 11.777343 13 .394532.171875.769532.378907 1.125.617188 2.445313 1.628906 3.90625 4.359375 3.90625 7.296875 0 2.941406-1.460937 5.667968-3.90625 7.300781-.355468.238281-.730468.441406-1.125.617187-6.394531 2.828126-10.355468 7.203126-11.777343 12.996094l-1.285157 5.253906c-.941406 3.84375-4.359374 6.523438-8.3125 6.523438zm-5.867187-32.691406c2.265625 1.894531 4.230469 4.015625 5.871094 6.347656 1.636719-2.332031 3.597656-4.453125 5.863281-6.347656-2.265625-1.890625-4.226562-4.011719-5.867188-6.347656-1.636718 2.335937-3.597656 4.457031-5.867187 6.347656zm0 0"/>
        <path d="m473.105469 163.621094c-3.957031 0-7.375-2.683594-8.3125-6.527344l-1.289063-5.25c-1.417968-5.796875-5.378906-10.167969-11.773437-13-.390625-.171875-.769531-.378906-1.125-.617188-2.445313-1.628906-3.90625-4.359374-3.90625-7.296874 0-2.941407 1.460937-5.667969 3.90625-7.300782.355469-.238281.730469-.441406 1.125-.617187 6.394531-2.828125 10.355469-7.203125 11.773437-12.996094l1.289063-5.253906c.9375-3.839844 4.355469-6.523438 8.3125-6.523438 3.953125 0 7.371093 2.683594 8.308593 6.523438l1.289063 5.253906c1.417969 5.792969 5.378906 10.167969 11.777344 12.996094.390625.175781.765625.378906 1.121093.617187 2.445313 1.632813 3.90625 4.359375 3.90625 7.300782 0 2.9375-1.460937 5.667968-3.90625 7.296874-.355468.238282-.730468.445313-1.121093.617188-6.398438 2.832031-10.359375 7.203125-11.777344 13l-1.289063 5.253906c-.9375 3.839844-4.355468 6.523438-8.308593 6.523438zm-5.871094-32.691406c2.269531 1.890624 4.230469 4.011718 5.867187 6.34375 1.640626-2.332032 3.601563-4.453126 5.867188-6.34375-2.265625-1.894532-4.226562-4.015626-5.867188-6.347657-1.636718 2.332031-3.597656 4.453125-5.867187 6.347657zm-.375-22.609376c0 .003907 0 .011719.003906.015626l-.003906-.011719s0 0 0-.003907zm0 0"/>
    </symbol>

    <symbol id="footer-facebook" role="img" aria-labelledby="footer-facebook_title" viewBox="0 0 512 512">
        <title id="footer-facebook_title">Facebook</title>
        <path d="M314.829,135.492h70.595c11.423,0,20.682-9.26,20.682-20.682V20.682C406.107,9.26,396.848,0,385.425,0h-70.595
            c-76.282,0-138.341,62.06-138.341,138.341v49.913h-49.913c-11.422,0-20.682,9.26-20.682,20.682v94.127
            c0,11.423,9.26,20.682,20.682,20.682h49.913v167.572c0,11.423,9.26,20.682,20.682,20.682h94.127
            c11.423,0,20.682-9.259,20.682-20.682V323.746h49.913c9.49,0,17.763-6.458,20.065-15.666l23.532-94.127
            c1.544-6.179,0.156-12.725-3.763-17.744c-3.919-5.02-9.932-7.954-16.301-7.954H311.98v-49.913
            C311.98,136.77,313.258,135.492,314.829,135.492z M291.298,229.619h67.637l-13.191,52.763h-54.447
            c-11.423,0-20.682,9.259-20.682,20.682v167.572h-52.763V303.064c0-11.423-9.26-20.682-20.682-20.682h-49.913v-52.763h49.913
            c11.422,0,20.682-9.26,20.682-20.682v-70.595c0-53.473,43.503-96.977,96.977-96.977h49.913v52.763h-49.913
            c-24.38,0-44.214,19.835-44.214,44.214v70.595C270.615,220.359,279.875,229.619,291.298,229.619z"/>
    </symbol>

    <symbol id="footer-twitter" role="img" aria-labelledby="footer-twitter_title" viewBox="0 0 512 512">
        <title id="footer-twitter_title">Twitter</title>
        <path d="M502.954,47.189c-7.126-4.852-16.515-4.774-23.559,0.196c-15.351,10.828-31.974,19.528-49.557,25.948
            c-19.253-17.414-43.615-27.826-69.915-29.656c-31.056-2.16-61.081,7.9-84.561,28.326c-25.59,22.259-40.174,54.444-40.046,88.349
            c-85.248-7.609-139.14-61.55-177.09-108.986c-4.598-5.746-11.901-8.619-19.182-7.538c-7.279,1.078-13.438,5.944-16.171,12.777
            c-0.948,2.369-23.141,58.799-17.453,127.057c4.761,57.133,30.23,131.964,120.039,181.717
            c-32.436,14.756-68.282,21.939-103.953,20.519c-9.576-0.378-18.15,5.859-20.736,15.08c-2.587,9.221,1.497,19.013,9.869,23.665
            c51.359,28.532,108.03,43.736,163.889,43.965c0.432,0.002,0.861,0.003,1.294,0.003c54.105-0.001,106.379-13.938,151.246-40.336
            c42.898-25.241,78.416-61.759,102.715-105.603c26.162-47.206,39.427-101.75,39.427-162.186c-0.011-3.544-0.186-7.098-0.52-10.638
            c20.7-22.885,35.388-50.567,42.719-80.667C513.451,60.803,510.081,52.04,502.954,47.189z M432.297,128.07
            c-4.916,4.847-7.088,11.827-5.793,18.607c0.877,4.588,1.329,9.278,1.344,13.874c0,101.956-44.378,186.544-121.756,232.072
            c-60.586,35.649-133.037,43.933-203.609,25.057c0.729-0.201,1.459-0.407,2.185-0.615c27.596-7.885,53.63-20.055,77.377-36.174
            c6.329-4.296,9.77-11.734,8.946-19.34c-0.825-7.605-5.778-14.134-12.881-16.975C97.757,312.434,53.563,257.594,46.757,181.575
            c-2.536-28.334,0.707-54.721,4.766-74.501c16.638,17.909,37.384,37.227,62.129,53.407c42.771,27.966,90.663,42.146,142.346,42.146
            c11.423,0,20.682-9.26,20.682-20.682v-21.393c0-0.045,0-0.091,0-0.137c-0.146-21.948,9.268-42.797,25.829-57.202
            c15.146-13.175,34.51-19.665,54.543-18.27c20.026,1.393,38.311,10.502,51.487,25.648c5.339,6.138,13.783,8.577,21.567,6.229
            c5.725-1.724,11.375-3.645,16.941-5.757C442.599,117.081,437.672,122.769,432.297,128.07z"/>
    </symbol>    

    <symbol id="footer-linkedin" role="img" aria-labelledby="footer-linkedin_title" viewBox="0 0 512 512">
        <title id="footer-linkedin_title">Linkedin</title>
        <path d="M2.5,510V153.7h137.3V510H2.5z M102.5,472.7V191H39.8v281.7H102.5z"/>
        <path d="M375.4,510l0.1-158.1c0.5-23.6-8.8-42.9-24.9-51.7c-5.4-3-11.2-4.5-17.3-4.5c-5.2,0-10.4,1.1-15.5,3.3l-1.1,211H176.1
            V153.7h140.6V166c16.6-6,33.6-9.1,50.6-9.1c24.7,0,48.3,6.4,70.2,18.9c44,25.2,72.5,71.8,72.5,118.8V510H375.4z M472.7,472.7V294.6
            c0-33.8-21.1-67.7-53.7-86.4c-15.9-9.1-33.8-13.9-51.7-14h-0.3c-20.1,0-40.1,5.8-59.6,17.3L279.4,228V191h-66.1v281.7h66.2l1-194.7
            l8.2-5.5c13.7-9.2,29.1-14.1,44.5-14.1c12.4,0,24.2,3,35.1,9c13.7,7.5,25,19.2,32.8,33.8c7.9,14.9,11.9,32.6,11.5,51.1l0,120.3
            H472.7z"/>
        <path d="M70.9,139.9C32.9,139.9,2,109,2,71c0-38,30.9-69,68.9-69c38,0,68.9,30.9,68.9,69C139.8,109,108.9,139.9,70.9,139.9z
             M70.9,39.3c-17.4,0-31.6,14.2-31.6,31.7c0,17.5,14.2,31.7,31.6,31.7c17.4,0,31.6-14.2,31.6-31.7C102.5,53.5,88.3,39.3,70.9,39.3z"
            />
    </symbol>

    <symbol id="footer-instagram" role="img" aria-labelledby="footer-instagram_title" viewBox="0 0 512 512">
        <title id="footer-instagram_title">Instagram</title>
        <path d="M373.659,0H138.341C62.06,0,0,62.06,0,138.341v235.318C0,449.94,62.06,512,138.341,512h235.318
            C449.94,512,512,449.94,512,373.659V138.341C512,62.06,449.94,0,373.659,0z M470.636,373.659
            c0,53.473-43.503,96.977-96.977,96.977H138.341c-53.473,0-96.977-43.503-96.977-96.977V138.341
            c0-53.473,43.503-96.977,96.977-96.977h235.318c53.473,0,96.977,43.503,96.977,96.977V373.659z"/>
        <path d="M370.586,238.141c-3.64-24.547-14.839-46.795-32.386-64.342c-17.547-17.546-39.795-28.746-64.341-32.385
            c-11.176-1.657-22.507-1.657-33.682,0c-30.336,4.499-57.103,20.541-75.372,45.172c-18.269,24.631-25.854,54.903-21.355,85.237
            c4.499,30.335,20.541,57.102,45.172,75.372c19.996,14.831,43.706,22.619,68.153,22.619c5.667,0,11.375-0.418,17.083-1.265
            c30.336-4.499,57.103-20.541,75.372-45.172C367.5,298.747,375.085,268.476,370.586,238.141z M267.791,327.632
            c-19.405,2.882-38.77-1.973-54.527-13.66c-15.757-11.687-26.019-28.811-28.896-48.216c-2.878-19.405,1.973-38.77,13.66-54.527
            c11.688-15.757,28.811-26.019,48.217-28.897c3.574-0.53,7.173-0.795,10.772-0.795s7.199,0.265,10.773,0.796
            c32.231,4.779,57.098,29.645,61.878,61.877C335.608,284.268,307.851,321.692,267.791,327.632z"/>
        <path d="M400.049,111.951c-3.852-3.851-9.183-6.058-14.625-6.058c-5.442,0-10.773,2.206-14.625,6.058
            c-3.851,3.852-6.058,9.174-6.058,14.625c0,5.451,2.207,10.773,6.058,14.625c3.852,3.851,9.183,6.058,14.625,6.058
            c5.442,0,10.773-2.206,14.625-6.058c3.851-3.852,6.058-9.183,6.058-14.625C406.107,121.133,403.9,115.802,400.049,111.951z"/>
    </symbol>

    <symbol id="footer-phone" role="img" aria-labelledby="footer-phone_title" viewBox="0 0 512 512">
        <title id="footer-phone_title"></title>
        <path d="M421.216,195.504c-5.092-26.101-17.723-49.836-36.526-68.64c-18.804-18.803-42.54-31.434-68.641-36.527
			c-11.21-2.189-22.073,5.128-24.261,16.339c-2.187,11.212,5.128,22.073,16.339,24.26c36.847,7.188,65.3,35.642,72.489,72.489
			c1.927,9.874,10.581,16.726,20.278,16.726c1.313,0,2.645-0.125,3.984-0.387C416.088,217.577,423.403,206.715,421.216,195.504z"/>
		<path d="M511.422,196.929c-5.629-50.096-28.373-97.304-64.042-132.927C411.712,28.378,364.475,5.694,314.371,0.128
			c-11.355-1.261-21.578,6.92-22.839,18.272c-1.261,11.353,6.919,21.578,18.272,22.84c84.961,9.438,150.966,75.36,160.512,160.31
			c1.188,10.566,10.139,18.374,20.527,18.374c0.771,0,1.552-0.043,2.336-0.131C504.53,218.516,512.698,208.281,511.422,196.929z"/>
		<path d="M432.59,312.566c-0.062-0.008-0.124-0.017-0.186-0.025c-20.013-2.639-39.751-7.557-58.619-14.596
			c-23.91-8.99-51.103-3.191-69.27,14.772c-0.028,0.028-0.056,0.055-0.083,0.083l-17.148,17.148
			c-42.633-26.924-78.756-63.047-105.679-105.679l17.149-17.149c0.027-0.028,0.054-0.055,0.082-0.083
			c17.964-18.166,23.762-45.356,14.79-69.223c-7.057-18.914-11.974-38.653-14.614-58.666c-0.007-0.063-0.017-0.127-0.026-0.19
			c-4.591-32.478-32.782-56.734-65.548-56.467H66.053c-1.943,0.002-3.912,0.091-5.853,0.267
			C24.143,26.016-2.541,58.001,0.718,94.058c0.01,0.108,0.02,0.215,0.032,0.323c7.684,72.354,32.649,142.88,72.197,203.955
			c35.892,56.461,84.701,105.269,141.162,141.164c60.792,39.406,130.99,64.369,203.013,72.196c0.127,0.015,0.254,0.027,0.38,0.038
			c1.961,0.176,3.949,0.266,5.921,0.266c0.083,0,0.165,0,0.247,0.001c36.204-0.148,65.538-29.722,65.391-65.841v-67.233
			C489.746,345.714,465.515,317.211,432.59,312.566z M447.698,378.695v67.548c0.055,13.396-10.8,24.338-24.19,24.393
			c-0.715-0.004-1.425-0.027-2.135-0.086c-65.578-7.161-129.488-29.914-184.837-65.808c-0.053-0.035-0.107-0.069-0.161-0.103
			c-51.429-32.68-95.885-77.137-128.565-128.565c-0.032-0.051-0.064-0.101-0.097-0.153C71.683,220.306,48.928,156.086,41.902,90.193
			C40.779,76.91,50.63,65.155,63.923,63.954c0.717-0.064,1.443-0.098,2.145-0.098h67.463c0.146-0.001,0.294-0.003,0.443-0.002
			c12.021,0,22.322,8.905,24.044,20.819c3.05,23.063,8.721,45.806,16.871,67.649c3.319,8.832,1.189,18.869-5.427,25.591
			l-28.517,28.517c-6.583,6.582-7.956,16.753-3.354,24.847c33.837,59.508,83.177,108.847,142.685,142.685
			c8.094,4.6,18.264,3.23,24.848-3.355l28.512-28.512c6.72-6.621,16.765-8.752,25.642-5.415
			c21.799,8.134,44.547,13.805,67.61,16.855c12.18,1.757,21.122,12.339,20.816,24.647
			C447.7,378.353,447.698,378.524,447.698,378.695z"/>
    </symbol>    

	<symbol id="footer-mail" role="img" aria-labelledby="footer-mail_title" viewBox="0 0 512 512">
        <title id="footer-mail_title"></title>
        <path d="M256,141.176c-63.306,0-114.809,51.503-114.809,114.809S192.694,370.795,256,370.795s114.809-51.503,114.809-114.809
			S319.306,141.176,256,141.176z M256,329.43c-40.498,0-73.445-32.947-73.445-73.445c0-40.498,32.947-73.445,73.445-73.445
			c40.499,0,73.445,32.947,73.445,73.445C329.445,296.483,296.499,329.43,256,329.43z"/>
		<path d="M437.008,74.97C388.656,26.623,324.375,0,256,0c-0.005,0-0.013,0-0.017,0C187.603,0.004,123.318,26.637,74.97,74.992
			C26.62,123.347-0.005,187.637,0,256.017c0.004,68.379,26.637,132.666,74.992,181.014C123.344,485.377,187.625,512.001,256,512
			c0.004,0,0.012,0,0.017,0c55.945-0.004,111.216-18.738,155.631-52.752c9.07-6.945,10.792-19.927,3.846-28.995
			c-6.945-9.069-19.926-10.794-28.995-3.846c-37.24,28.518-83.58,44.224-130.486,44.228c-0.006,0-0.006,0-0.014,0
			c-57.324,0-111.224-22.324-151.761-62.856c-40.542-40.536-62.871-94.435-62.875-151.766
			C41.357,137.663,137.636,41.372,255.986,41.364c0.007,0,0.006,0,0.014,0c118.34,0,214.628,96.279,214.636,214.622v23.532
			c0,27.523-22.39,49.913-49.913,49.913c-27.523,0-49.913-22.391-49.913-49.913v-23.532c0-11.422-9.259-20.682-20.682-20.682
			s-20.682,9.26-20.682,20.682v23.532c0,50.33,40.947,91.278,91.278,91.278S512,329.848,512,279.518v-23.534
			C511.995,187.604,485.362,123.318,437.008,74.97z"/>
    </symbol>

    <symbol id="footer-location" role="img" aria-labelledby="footer-location_title" viewBox="0 0 512 512">
        <title id="footer-location_title"></title>
        <path d="M406.766,62.449C366.495,22.178,312.951,0,256,0S145.505,22.178,105.234,62.449
			c-40.272,40.271-62.449,93.814-62.449,150.766c0,37.656,10.972,76.863,32.609,116.532c16.825,30.846,40.15,62.102,69.326,92.898
			c49.17,51.903,97.763,84.519,99.808,85.881C248.001,510.842,252,512,256,512c4,0,7.999-1.158,11.473-3.474
			c2.045-1.363,50.638-33.978,99.808-85.881c29.176-30.795,52.501-62.051,69.326-92.898c21.637-39.669,32.609-78.876,32.609-116.532
			C469.215,156.263,447.038,102.72,406.766,62.449z M256.001,465.903C215.826,436.156,84.15,329.739,84.15,213.215
			c0-94.759,77.091-171.851,171.85-171.851s171.85,77.092,171.851,171.851C427.851,329.748,296.159,436.168,256.001,465.903z"/>
		<path d="M256,128.355c-46.791,0-84.86,38.068-84.86,84.86c0,46.791,38.068,84.86,84.86,84.86c46.792,0,84.861-38.068,84.86-84.86
			C340.86,166.423,302.791,128.355,256,128.355z M256,256.71c-23.983,0-43.495-19.512-43.495-43.495
			c0-23.983,19.512-43.495,43.495-43.495c23.984,0,43.495,19.512,43.495,43.495C299.495,237.198,279.984,256.71,256,256.71z"/>
		</symbol>

	<symbol id="footer-time" role="img" aria-labelledby="footer-time_title" viewBox="0 0 512 512">
        <title id="footer-time_title"></title>
        <path d="M437.019,74.981C388.667,26.629,324.38,0,256,0S123.333,26.63,74.981,74.981S0,187.62,0,256
			s26.629,132.667,74.981,181.019C123.332,485.371,187.62,512,256,512s132.667-26.629,181.019-74.981
			C485.371,388.667,512,324.38,512,256S485.371,123.332,437.019,74.981z M256,470.636C137.65,470.636,41.364,374.35,41.364,256
			S137.65,41.364,256,41.364S470.636,137.65,470.636,256S374.35,470.636,256,470.636z"/>
		<path d="M341.221,311.97l-64.538-64.537V114.809c0-11.422-9.259-20.682-20.682-20.682c-11.422,0-20.682,9.26-20.682,20.682V256
			c0,5.486,2.179,10.746,6.058,14.625l70.594,70.595c4.038,4.039,9.332,6.058,14.625,6.058c5.293,0,10.586-2.019,14.626-6.058
			C349.297,333.142,349.297,320.047,341.221,311.97z"/>
	</symbol>

</svg>