<svg xmlns="http://www.w3.org/2000/svg" xmlns:xlink="http://www.w3.org/1999/xlink">

    <symbol id="home-apple" role="img" aria-labelledby="home-apple_title" viewBox="0 0 22.773 22.773">
        <title id="home-apple_title"></title>
        <path d="M15.769,0c0.053,0,0.106,0,0.162,0c0.13,1.606-0.483,2.806-1.228,3.675c-0.731,0.863-1.732,1.7-3.351,1.573
            c-0.108-1.583,0.506-2.694,1.25-3.561C13.292,0.879,14.557,0.16,15.769,0z"/>
        <path d="M20.67,16.716c0,0.016,0,0.03,0,0.045c-0.455,1.378-1.104,2.559-1.896,3.655c-0.723,0.995-1.609,2.334-3.191,2.334
            c-1.367,0-2.275-0.879-3.676-0.903c-1.482-0.024-2.297,0.735-3.652,0.926c-0.155,0-0.31,0-0.462,0
            c-0.995-0.144-1.798-0.932-2.383-1.642c-1.725-2.098-3.058-4.808-3.306-8.276c0-0.34,0-0.679,0-1.019
            c0.105-2.482,1.311-4.5,2.914-5.478c0.846-0.52,2.009-0.963,3.304-0.765c0.555,0.086,1.122,0.276,1.619,0.464
            c0.471,0.181,1.06,0.502,1.618,0.485c0.378-0.011,0.754-0.208,1.135-0.347c1.116-0.403,2.21-0.865,3.652-0.648
            c1.733,0.262,2.963,1.032,3.723,2.22c-1.466,0.933-2.625,2.339-2.427,4.74C17.818,14.688,19.086,15.964,20.67,16.716z"/>
    </symbol>

    <symbol id="home-playstore" role="img" aria-labelledby="home-playstore_title" viewBox="0 0 512 512">
        <title id="home-playstore_title"></title>
        <path d="M99.617,8.057C87.953,0.52,73.943-1.758,60.802,1.344l230.932,230.933l74.846-74.846L99.617,8.057z"/>
        <path d="M32.139,20.116c-6.441,8.563-10.148,19.077-10.148,30.199v411.358c0,11.123,3.708,21.636,10.148,30.199l235.877-235.877
            L32.139,20.116z"/>
        <path d="M464.261,212.087l-67.266-37.637l-81.544,81.544l81.548,81.548l67.273-37.64c16.117-9.03,25.738-25.442,25.738-43.908
            S480.389,221.117,464.261,212.087z"/>
        <path d="M291.733,279.711L60.815,510.629c3.786,0.891,7.639,1.371,11.492,1.371c9.522,0,19.011-2.708,27.31-8.07l266.965-149.372
            L291.733,279.711z"/>
    </symbol>

	<symbol id="home-differents01" role="img" aria-labelledby="home-differents01_title" viewBox="0 0 512 512">
        <title id="home-differents01_title"></title>
        <path d="M467.76,88.1c-1.87-1.87-4.44-2.931-7.071-2.931c-2.64,0-5.21,1.061-7.081,2.931c-1.859,1.859-2.92,4.43-2.92,7.07
            c0,2.63,1.061,5.211,2.92,7.071c1.87,1.86,4.44,2.93,7.081,2.93c2.63,0,5.201-1.069,7.071-2.93c1.86-1.86,2.92-4.44,2.92-7.071
            C470.68,92.53,469.62,89.959,467.76,88.1z"/>
        <path d="M238.071,323.626c-1.869-1.87-4.44-2.931-7.071-2.931c-2.64,0-5.211,1.061-7.081,2.931c-1.859,1.859-2.92,4.43-2.92,7.07
            c0,2.63,1.061,5.21,2.92,7.071c1.87,1.86,4.44,2.93,7.081,2.93c2.63,0,5.201-1.069,7.071-2.93c1.86-1.86,2.92-4.44,2.92-7.071
            C240.992,328.056,239.932,325.485,238.071,323.626z"/>
        <path d="M491.983,121.313c-2.73-4.802-8.838-6.48-13.637-3.75c-4.801,2.73-6.48,8.836-3.749,13.637
            c29.706,52.238,20.738,118.438-21.81,160.985l-7.583,7.583c-1.832-4.807-4.67-9.316-8.537-13.182L333.911,183.831
            c6.72-3.306,12.929-7.717,18.38-13.168l19.708-19.709c3.905-3.905,3.905-10.238,0-14.143c-3.906-3.905-10.237-3.905-14.144,0
            l-19.708,19.709c-9.259,9.258-21.568,14.357-34.661,14.357h-39.397c-2.652,0-5.195,1.054-7.072,2.929l-30.16,30.16
            c-8.956,8.957-23.529,8.957-32.485,0c-8.957-8.956-8.957-23.529,0-32.485l68.856-68.855C305.307,60.546,371,51.292,422.975,80.122
            c4.83,2.677,10.918,0.936,13.597-3.895c2.679-4.83,0.935-10.918-3.895-13.597c-28.668-15.899-62.444-22.262-95.112-17.911
            c-30.572,4.071-58.555,16.872-81.493,37.184C227.893,56.922,192.02,43.261,154.04,43.261c-41.146,0-79.828,16.023-108.923,45.117
            S0,156.157,0,197.302c0,41.146,16.023,79.828,45.117,108.923l3.769,3.769c0.656,0.655,1.384,1.191,2.153,1.626
            c0.669,8.652,4.294,17.116,10.897,23.718c7.349,7.348,16.997,11.02,26.648,11.02c0.501,0,1.003-0.016,1.504-0.036
            c-0.02,0.506-0.037,1.012-0.037,1.521c0,10.066,3.92,19.53,11.038,26.648c7.349,7.348,16.997,11.021,26.648,11.02
            c0.501,0,1.003-0.016,1.504-0.036c-0.02,0.506-0.037,1.012-0.037,1.521c0,10.066,3.92,19.53,11.039,26.648
            c7.348,7.347,16.998,11.02,26.648,11.02c0.507,0,1.014-0.016,1.521-0.036c-0.406,10.151,3.251,20.437,10.984,28.171
            c7.119,7.118,16.583,11.038,26.648,11.038c10.067,0,19.531-3.92,26.648-11.038l13.977-13.978l18.879,18.877
            c7.118,7.119,16.582,11.039,26.648,11.039c10.066,0,19.53-3.92,26.648-11.038c7.826-7.826,11.482-18.267,10.972-28.537
            c0.628,0.031,1.258,0.049,1.887,0.049c9.651,0,19.303-3.673,26.65-11.021c7.729-7.729,11.386-18.007,10.984-28.153
            c0.506,0.02,1.012,0.037,1.521,0.037c10.066,0,19.53-3.92,26.648-11.038c7.729-7.729,11.386-18.007,10.984-28.153
            c0.506,0.02,1.012,0.037,1.521,0.037c10.066,0,19.53-3.92,26.648-11.038c3.615-3.615,6.337-7.791,8.173-12.248
            c0.973-0.474,1.888-1.105,2.697-1.913l19.394-19.394C515.824,257.436,526.126,181.354,491.983,121.313z M88.585,326.374
            c-4.724,0-9.165-1.839-12.506-5.18c-3.34-3.34-5.18-7.781-5.18-12.505c0-4.723,1.839-9.165,5.18-12.505l17.234-17.234
            c3.34-3.341,7.782-5.18,12.506-5.18c4.723,0,9.165,1.839,12.505,5.18c6.896,6.896,6.896,18.115,0,25.01l-17.234,17.235
            C97.75,324.534,93.31,326.374,88.585,326.374z M115.235,360.349c-3.341-3.34-5.18-7.782-5.18-12.505
            c0-4.724,1.839-9.165,5.18-12.505l17.235-17.235c0,0,0,0,0-0.001c3.34-3.34,7.781-5.18,12.505-5.18
            c4.723,0,9.165,1.839,12.505,5.18c6.896,6.896,6.896,18.115,0,25.01l-17.234,17.235
            C133.349,367.243,122.127,367.243,115.235,360.349z M154.388,399.502c-3.341-3.34-5.18-7.782-5.18-12.505
            c0-4.724,1.839-9.165,5.18-12.505l17.235-17.235c0,0,0,0,0-0.001c3.34-3.34,7.781-5.18,12.505-5.18
            c4.724,0,9.165,1.839,12.505,5.18c6.896,6.897,6.896,18.116,0,25.011l-17.235,17.235
            C172.503,406.398,161.284,406.398,154.388,399.502z M235.787,421.422l-17.235,17.236c-3.34,3.34-7.781,5.18-12.505,5.18
            c-4.723,0-9.165-1.839-12.505-5.18c-6.896-6.897-6.896-18.116,0-25.011l17.235-17.235c0,0,0,0,0-0.001
            c3.34-3.34,7.781-5.18,12.505-5.18c4.723,0,9.165,1.839,12.505,5.18c3.341,3.34,5.18,7.782,5.18,12.505
            C240.968,413.642,239.128,418.082,235.787,421.422z M422.523,325.739c-3.34,3.341-7.782,5.18-12.505,5.18
            c-4.724,0-9.165-1.839-12.505-5.18l-41.627-41.627c-0.002-0.002-0.003-0.003-0.005-0.005l-39.15-39.15
            c-3.906-3.905-10.237-3.905-14.144,0c-3.905,3.905-3.905,10.238,0,14.143l80.782,80.78c6.896,6.897,6.896,18.116,0,25.011
            c-3.34,3.341-7.782,5.18-12.505,5.18c-4.724,0-9.165-1.839-12.505-5.18l-80.782-80.781c-3.906-3.904-10.237-3.904-14.144,0
            c-3.905,3.905-3.905,10.238,0,14.144l39.146,39.145c0.003,0.003,0.006,0.007,0.009,0.01l41.628,41.626
            c6.896,6.897,6.896,18.117,0.001,25.012c-6.897,6.896-18.118,6.896-25.011,0l-41.628-41.628c-0.77-0.769-1.635-1.381-2.556-1.847
            l-11.873-11.873c-3.906-3.904-10.237-3.904-14.144,0c-3.905,3.905-3.905,10.238,0,14.144l55.702,55.7
            c6.896,6.897,6.896,18.116,0,25.011c-3.34,3.341-7.782,5.18-12.505,5.18c-4.724,0-9.165-1.839-12.505-5.18l-21.196-21.195
            c1.615-4.237,2.469-8.774,2.469-13.444c0-10.066-3.92-19.53-11.038-26.648c-7.119-7.118-16.583-11.038-26.648-11.038
            c-0.509,0-1.015,0.017-1.521,0.037c0.401-10.146-3.255-20.424-10.984-28.153c-7.119-7.118-16.583-11.038-26.648-11.038
            c-0.509,0-1.015,0.017-1.521,0.037c0.402-10.146-3.255-20.424-10.984-28.153c-7.119-7.118-16.583-11.038-26.648-11.038
            c-0.509,0-1.015,0.017-1.521,0.037c0.402-10.146-3.255-20.424-10.984-28.153c-14.694-14.694-38.605-14.693-53.299,0
            l-17.234,17.234c-2.174,2.174-4.017,4.553-5.549,7.071c-23.491-24.951-36.385-57.388-36.385-91.81
            c0-35.803,13.942-69.464,39.26-94.78c25.316-25.316,58.978-39.259,94.78-39.259c32.536,0,63.302,11.516,87.644,32.618
            l-61.457,61.457c-8.116,8.117-12.586,18.908-12.586,30.386c0,11.479,4.47,22.27,12.586,30.387
            c8.378,8.377,19.383,12.566,30.387,12.566s22.009-4.188,30.387-12.566l27.232-27.232h35.253c2.911,0,5.79-0.199,8.634-0.552
            l110.403,110.401C429.418,307.625,429.418,318.845,422.523,325.739z"/>
    </symbol>

    <symbol id="home-differents02" role="img" aria-labelledby="home-differents02_title" viewBox="0 0 512 512">
        <title id="home-differents02_title"></title>
        <path d="M165.325,283.881c-1.082-5.416-6.357-8.929-11.766-7.845c-0.175,0.035-0.343,0.071-0.518,0.113
            c-5.37,1.289-8.679,6.687-7.39,12.058c1.101,4.586,5.197,7.669,9.716,7.668c0.724,0,1.459-0.079,2.194-0.244
            C162.931,294.512,166.403,289.27,165.325,283.881z"/>
        <path d="M256.002,0c-5.522,0-10,4.478-10,10v20c0,5.522,4.477,10,10,10c5.522,0,10-4.478,10-10V10
            C266.002,4.478,261.524,0,256.002,0z"/>
        <path d="M151.66,55.277l-10-17.32c-2.762-4.781-8.878-6.422-13.66-3.66c-4.783,2.762-6.422,8.877-3.66,13.66l10,17.32
            c1.853,3.208,5.213,5.002,8.67,5.002c1.696,0,3.416-0.433,4.99-1.342C152.783,66.175,154.422,60.06,151.66,55.277z"/>
        <path d="M65.279,134.34l-17.322-10c-4.785-2.762-10.899-1.122-13.66,3.66c-2.762,4.783-1.123,10.899,3.66,13.66l17.322,10
            c1.575,0.909,3.294,1.342,4.99,1.342c3.456,0,6.818-1.794,8.67-5.002C71.701,143.217,70.062,137.101,65.279,134.34z"/>
        <path d="M30,246H10c-5.522,0-10,4.478-10,10c0,5.522,4.478,10,10,10h20c5.522,0,10-4.478,10-10C40,250.478,35.522,246,30,246z"/>
        <path d="M68.939,364.002c-2.759-4.781-8.875-6.421-13.66-3.66l-17.322,10c-4.783,2.761-6.422,8.877-3.66,13.66
            c1.852,3.208,5.213,5.002,8.67,5.002c1.696,0,3.415-0.433,4.99-1.342l17.322-10C70.062,374.901,71.701,368.785,68.939,364.002z"/>
        <path d="M148,443.063c-4.784-2.761-10.9-1.123-13.66,3.66l-10,17.32c-2.762,4.783-1.123,10.898,3.66,13.66
            c1.575,0.909,3.294,1.342,4.99,1.342c3.456,0,6.818-1.794,8.67-5.002l10-17.32C154.422,451.939,152.783,445.824,148,443.063z"/>
        <path d="M256.002,472.002c-5.522,0-10,4.478-10,10v20c0,5.522,4.477,10,10,10s10-4.477,10-10v-20
            C266.002,476.479,261.524,472.002,256.002,472.002z"/>
        <path d="M387.662,464.043l-10-17.32c-2.762-4.782-8.877-6.421-13.66-3.66c-4.783,2.762-6.422,8.877-3.66,13.66l10,17.32
            c1.853,3.208,5.213,5.002,8.67,5.002c1.696,0,3.416-0.433,4.99-1.342C388.785,474.941,390.424,468.826,387.662,464.043z"/>
        <path d="M474.045,370.342l-17.32-10c-4.784-2.761-10.899-1.122-13.66,3.66c-2.762,4.783-1.123,10.898,3.66,13.66l17.32,10
            c1.575,0.909,3.294,1.342,4.99,1.342c3.456,0,6.818-1.794,8.67-5.002C480.467,379.219,478.828,373.104,474.045,370.342z"/>
        <path d="M502.002,246h-20c-5.522,0-10,4.478-10,10c0,5.522,4.478,10,10,10h20c5.522,0,10-4.478,10-10
            C512.002,250.478,507.524,246,502.002,246z"/>
        <path d="M477.704,128c-2.761-4.782-8.877-6.421-13.66-3.66l-17.32,10c-4.783,2.762-6.422,8.877-3.66,13.66
            c1.853,3.208,5.213,5.002,8.67,5.002c1.696,0,3.416-0.433,4.99-1.342l17.32-10C478.827,138.898,480.466,132.783,477.704,128z"/>
        <path d="M384.002,34.298c-4.784-2.762-10.9-1.123-13.66,3.66l-10,17.32c-2.762,4.783-1.123,10.898,3.66,13.66
            c1.575,0.909,3.294,1.342,4.99,1.342c3.456,0,6.818-1.794,8.67-5.002l10-17.32C390.424,43.175,388.785,37.059,384.002,34.298z"/>
        <path d="M458.723,232.896c0-32.991-21.421-61.054-51.076-71.064c-5.975-24.21-26.132-42.548-50.897-46.861
            c-1.092-11.419-5.86-22.137-13.876-30.898C332.365,72.587,317.284,66,301.496,66c-18.811,0-35.454,9.189-45.495,23.202
            C245.96,75.189,229.316,66,210.506,66c-15.788,0-30.869,6.587-41.377,18.072c-8.01,8.755-12.777,19.466-13.874,30.876
            c-16.776,2.854-31.524,12.061-41.403,26.113c-9.566,13.608-13.174,29.875-10.368,45.744
            c-23.03,12.142-37.481,35.442-37.481,61.515c0,22.884,11.137,43.723,29.715,56.746c-10.689,16.856-12.299,37.146-4.016,56.243
            c10.153,23.409,32.925,38.535,58.012,38.535c1.952,0,3.917-0.09,5.887-0.269c1.553,10.393,6.173,20.256,13.399,28.21
            C179.516,439.361,194.644,446,210.506,446c18.811,0,35.454-9.189,45.495-23.202C266.042,436.811,282.686,446,301.496,446
            c15.862,0,30.99-6.639,41.507-18.214c7.228-7.955,11.849-17.819,13.399-28.213c24.265,2.183,46.919-9.041,59.911-30.537
            c13.217-21.865,12.068-47.572-2.445-67.486C440.251,289.919,458.723,263.531,458.723,232.896z M246.002,391.84
            C246,410.676,230.077,426,210.506,426c-10.237,0-19.97-4.251-26.704-11.663c-5.023-5.529-7.985-12.263-8.642-19.411
            c18.032-7.16,22.689-19.381,26.186-28.583c2.936-7.729,4.41-11.608,12.779-13.852c5.335-1.43,8.501-6.913,7.071-12.247
            c-1.43-5.335-6.914-8.501-12.247-7.071c-18.255,4.892-22.904,17.131-26.3,26.067c-3.421,9.002-5.68,14.948-20.024,18.792
            c-0.014,0.004-0.025,0.009-0.039,0.013c-0.01,0.003-0.02,0.003-0.029,0.006c-4.32,1.19-8.643,1.794-12.844,1.794
            c-17.113,0-32.683-10.399-39.663-26.494c-6.679-15.397-3.758-31.969,7.813-44.332c2.178-2.327,3.116-5.554,2.525-8.686
            c-0.591-3.133-2.641-5.796-5.517-7.17c-17.807-8.507-28.869-25.689-28.869-44.842c0-20.662,12.864-38.922,32.773-46.519
            c5.007-1.91,7.618-7.427,5.921-12.51c-4.154-12.443-2.144-25.83,5.518-36.729c8.036-11.433,20.831-18.186,35.114-18.544
            c17.016,0.037,20.771,6.827,25.958,16.215c4.726,8.553,11.197,20.266,28.599,20.266c5.522,0,10-4.478,10-10
            c0-5.522-4.478-10-10-10c-5.153,0-6.502-1.629-11.093-9.938c-5.083-9.201-12.436-22.491-33.339-25.782
            c1.035-6.333,3.906-12.261,8.433-17.208C190.613,90.218,200.316,86,210.506,86C230.077,86,246,101.324,246,120.16v135.259
            c-23.479-2.284-29.346-13.019-36.536-26.216c-7.037-12.916-15.795-28.99-42.115-31.772c-5.508-0.593-10.416,3.401-10.996,8.893
            c-0.581,5.492,3.4,10.416,8.893,10.996c15.883,1.68,20.169,9.546,26.656,21.452c2.348,4.31,4.853,8.893,8.04,13.316
            c-5.27,5.354-13.218,10.9-22.236,15.37c-4.948,2.453-6.971,8.453-4.518,13.401c1.746,3.522,5.287,5.561,8.968,5.561
            c1.491,0,3.007-0.335,4.434-1.042c11.205-5.555,20.837-12.35,27.754-19.435c7.566,4.829,17.65,8.385,31.658,9.527V391.84z
             M399.198,358.692c-7.903,13.075-25.675,25.986-49.752,19.359c-0.011-0.003-0.02-0.004-0.031-0.007
            c-0.013-0.003-0.024-0.009-0.037-0.012c-14.345-3.844-16.603-9.79-20.024-18.792c-3.395-8.937-8.045-21.176-26.3-26.067
            c-5.331-1.429-10.817,1.737-12.247,7.071c-1.43,5.334,1.736,10.817,7.071,12.247c8.369,2.243,9.843,6.122,12.779,13.852
            c3.497,9.202,8.153,21.423,26.186,28.583c-0.656,7.148-3.618,13.882-8.642,19.411C321.466,421.749,311.733,426,301.496,426
            c-19.571,0-35.494-15.324-35.494-34.16v-71.527c0-18.021,9.48-26.982,18.353-29.36c11.006-2.946,22.532,2.785,29.36,14.61
            c2.761,4.783,8.876,6.424,13.66,3.66c4.783-2.761,6.422-8.877,3.66-13.66c-11.311-19.592-32.152-29.209-51.856-23.929
            c-4.831,1.294-9.247,3.384-13.177,6.135V120.16c0-18.836,15.923-34.16,35.494-34.16c10.189,0,19.893,4.218,26.62,11.572
            c4.526,4.947,7.397,10.875,8.433,17.208c-20.901,3.29-28.254,16.58-33.338,25.781c-4.592,8.309-5.94,9.938-11.094,9.938
            c-5.522,0-10,4.478-10,10c0,5.522,4.478,10,10,10c17.401,0,23.873-11.713,28.599-20.266c5.188-9.39,8.944-16.18,25.97-16.215
            c16.699,0.424,31.303,9.941,38.326,23.91c-0.431-0.008-0.857-0.033-1.289-0.033c-41.355,0-75,33.645-75,75
            c0,41.355,33.645,75,75,75c3.096,0,6.142-0.211,9.14-0.577c0.358,0.6,0.781,1.17,1.277,1.701
            C409.856,325.811,407.057,345.689,399.198,358.692z M383.723,287.896c-30.327,0-55-24.673-55-55c0-30.327,24.673-55,55-55
            c30.327,0,55,24.673,55,55C438.723,263.224,414.05,287.896,383.723,287.896z"/>
        <path d="M413.565,207.179c-4.22-3.564-10.53-3.03-14.092,1.191l-22.044,26.116l-9.488-7.281
            c-4.381-3.361-10.66-2.538-14.022,1.846c-3.362,4.382-2.536,10.659,1.846,14.021l17.06,13.092
            c1.812,1.391,3.954,2.066,6.082,2.066c2.85,0,5.675-1.213,7.647-3.55l28.201-33.41
            C418.319,217.05,417.786,210.741,413.565,207.179z"/>
    </symbol>

    <symbol id="home-differents03" role="img" aria-labelledby="home-differents03_title" viewBox="0 0 512 512">
        <title id="home-differents03_title"></title>
        <path d="m290 512h-68c-11.027344 0-20-8.972656-20-20v-29.855469c-18.816406-4.917969-36.773438-12.363281-53.5625-22.210937l-21.128906 21.128906c-7.800782 7.796875-20.488282 7.796875-28.285156 0l-48.085938-48.085938c-7.796875-7.796874-7.796875-20.484374 0-28.28125l21.128906-21.132812c-9.847656-16.789062-17.292968-34.746094-22.210937-53.5625h-29.855469c-11.027344 0-20-8.972656-20-20v-68c0-11.027344 8.972656-20 20-20h29.789062c4.902344-18.847656 12.339844-36.835938 22.1875-53.65625l-21.039062-21.039062c-7.796875-7.796876-7.796875-20.484376 0-28.28125l48.085938-48.085938c7.796874-7.796875 20.484374-7.796875 28.285156 0l20.964844 20.96875c16.835937-9.894531 34.847656-17.371094 53.726562-22.304688v-29.601562c0-11.027344 8.972656-20 20-20h68c11.027344 0 20 8.972656 20 20v29.535156c18.90625 4.917969 36.953125 12.386719 53.816406 22.277344l20.878906-20.875c7.796876-7.796875 20.484376-7.796875 28.28125 0l48.085938 48.085938c7.796875 7.796874 7.796875 20.484374 0 28.285156l-20.875 20.875c9.890625 16.863281 17.359375 34.910156 22.277344 53.816406h29.535156c11.027344 0 20 8.972656 20 20v68c0 11.027344-8.972656 20-20 20h-29.601562c-4.933594 18.878906-12.414063 36.890625-22.304688 53.726562l20.964844 20.96875c7.796875 7.796876 7.796875 20.484376 0 28.28125l-48.082032 48.085938c-7.796874 7.796875-20.484374 7.796875-28.285156 0l-21.035156-21.039062c-16.824219 9.847656-34.8125 17.285156-53.65625 22.1875v29.789062c0 11.027344-8.972656 20-20 20zm-143.0625-94.710938c1.859375 0 3.722656.515626 5.378906 1.570313 19.027344 12.148437 39.835938 20.777344 61.84375 25.648437 4.582032 1.015626 7.839844 5.074219 7.839844 9.765626v37.726562h68v-37.671875c0-4.695313 3.265625-8.757813 7.851562-9.765625 22.039063-4.851562 42.878907-13.46875 61.9375-25.609375 3.953126-2.519531 9.128907-1.953125 12.445313 1.363281l26.601563 26.601563 48.082031-48.082031-26.542969-26.542969c-3.320312-3.320313-3.882812-8.503907-1.351562-12.460938 12.191406-19.0625 20.855468-39.921875 25.742187-61.992187 1.011719-4.582032 5.074219-7.839844 9.761719-7.839844h37.472656v-68h-37.417969c-4.695312 0-8.757812-3.265625-9.765625-7.851562-4.863281-22.101563-13.511718-42.992188-25.703125-62.085938-2.523437-3.957031-1.957031-9.132812 1.359375-12.453125l26.445313-26.445313-48.082031-48.082031-26.445313 26.445313c-3.316406 3.316406-8.496094 3.882812-12.453125 1.359375-19.09375-12.191407-39.984375-20.835938-62.085938-25.703125-4.585937-1.007813-7.851562-5.070313-7.851562-9.765625v-37.417969h-68v37.472656c0 4.691406-3.257812 8.75-7.835938 9.765625-22.074218 4.886719-42.933593 13.546875-61.996093 25.738281-3.953125 2.53125-9.140625 1.96875-12.457031-1.351562l-26.546876-26.542969-48.082031 48.082031 26.601563 26.605469c3.316406 3.3125 3.882812 8.488281 1.363281 12.441407-12.140625 19.058593-20.757813 39.898437-25.609375 61.9375-1.007812 4.585937-5.070312 7.851562-9.765625 7.851562h-37.671875v68h37.726562c4.691407 0 8.75 3.261719 9.765626 7.839844 4.871093 22.011718 13.503906 42.816406 25.648437 61.84375 2.523437 3.957031 1.960937 9.136718-1.359375 12.453125l-26.699219 26.699219 48.082031 48.085937 26.699219-26.703125c1.933594-1.929688 4.492188-2.929688 7.074219-2.929688zm0 0"/>
        <path d="m256 401.933594c-37.386719 0-74.773438-14.234375-103.238281-42.695313-56.925781-56.925781-56.925781-149.550781 0-206.476562 22.960937-22.957031 52.074219-37.316407 84.191406-41.519531 31.097656-4.070313 63.203125 2.09375 90.414063 17.351562 4.816406 2.699219 6.53125 8.792969 3.832031 13.609375-2.703125 4.820313-8.796875 6.535156-13.613281 3.832031-48.96875-27.460937-110.933594-18.878906-150.679688 20.871094-49.128906 49.125-49.128906 129.0625 0 178.191406 24.5625 24.558594 56.832031 36.839844 89.09375 36.84375 32.269531.003906 64.53125-12.277344 89.097656-36.84375 38.410156-38.410156 47.921875-96.84375 23.664063-145.402344-2.46875-4.941406-.464844-10.949218 4.476562-13.417968 4.9375-2.46875 10.945313-.460938 13.414063 4.480468 28.109375 56.265626 17.09375 123.976563-27.414063 168.480469-28.464843 28.460938-65.851562 42.695313-103.238281 42.695313zm0 0"/>
        <path d="m354.351562 172.011719c-2.640624 0-5.210937-1.0625-7.082031-2.933594-1.859375-1.859375-2.917969-4.429687-2.917969-7.066406 0-2.632813 1.058594-5.210938 2.917969-7.070313 1.859375-1.863281 4.441407-2.929687 7.082031-2.929687 2.628907 0 5.207032 1.066406 7.070313 2.929687 1.859375 1.859375 2.929687 4.4375 2.929687 7.070313 0 2.636719-1.070312 5.207031-2.929687 7.066406-1.871094 1.871094-4.441406 2.933594-7.070313 2.933594zm0 0"/>
        <path d="m241.886719 329.667969c-2.652344 0-5.195313-1.054688-7.070313-2.929688l-63.238281-63.242187c-3.90625-3.902344-3.90625-10.234375 0-14.140625l35.867187-35.871094c1.875-1.875 4.417969-2.925781 7.070313-2.925781s5.199219 1.050781 7.074219 2.925781l20.296875 20.300781 48.527343-48.523437c3.902344-3.90625 10.234376-3.90625 14.140626 0l35.871093 35.871093c3.902344 3.902344 3.902344 10.234376 0 14.140626l-91.464843 91.464843c-1.878907 1.875-4.421876 2.929688-7.074219 2.929688zm-49.097657-73.242188 49.097657 49.097657 77.324219-77.320313-21.726563-21.726563-48.523437 48.523438c-1.875 1.875-4.421876 2.929688-7.074219 2.929688-2.652344 0-5.195313-1.054688-7.070313-2.929688l-20.300781-20.300781zm0 0"/>
    </symbol>

    <symbol id="services02" role="img" aria-labelledby="services02_title" viewBox="0 0 480 480">
        <title id="services02_title"></title>
        <path d="m196.558594 298.398438c-1.832032 4.914062-1.144532 10.414062 1.84375 14.722656 2.988281 4.308594 7.898437 6.878906 13.140625 6.878906h32.175781l13.601562 20.441406c1.488282 2.230469 3.996094 3.566406 6.679688 3.558594h48c2.675781 0 5.171875-1.335938 6.65625-3.558594l13.625-20.441406h32.175781c5.242188 0 10.152344-2.570312 13.140625-6.878906 2.988282-4.308594 3.675782-9.808594 1.84375-14.722656l-12.160156-32.421876c-5.105469-13.488281-17.039062-23.214843-31.28125-25.488281v-31.007812c.027344-8.007813-2.371094-15.835938-6.886719-22.449219-23.960937-35.03125-36.875-35.03125-41.113281-35.03125s-17.152344 0-41.113281 35.023438c-4.511719 6.617187-6.914063 14.445312-6.886719 22.457031v31.007812c-14.238281 2.273438-26.171875 11.988281-31.28125 25.472657zm111.203125 29.601562h-39.441407l-5.335937-8h50.113281zm44.574219-56.425781 12.121093 32.425781h-28.457031v-47.121094c7.476562 1.996094 13.539062 7.464844 16.296875 14.695313zm-96.335938-62.09375c-.023438-4.78125 1.402344-9.460938 4.089844-13.417969 15.191406-22.199219 24.902344-28.0625 27.910156-28.0625s12.71875 5.863281 27.910156 28.0625c2.6875 3.957031 4.113282 8.636719 4.089844 13.417969v94.519531h-64zm-32.296875 62.09375c2.757813-7.230469 8.820313-12.699219 16.296875-14.695313v47.121094h-28.457031zm0 0"/>
        <path d="m288 360c-17.671875 0-32 14.328125-32 32 0 16.480469 12.464844 48 32 48s32-31.519531 32-48c0-17.671875-14.328125-32-32-32zm0 64c-5.984375 0-16-20.039062-16-32 0-8.835938 7.164062-16 16-16s16 7.164062 16 16c0 12-10.015625 32-16 32zm0 0"/>
        <path d="m392 456c-.054688-6.582031-2.789062-12.855469-7.574219-17.378906-4.785156-4.519532-11.203125-6.898438-17.777343-6.582032-3.875-11.042968-15.148438-17.683593-26.683594-15.714843-11.539063 1.96875-19.972656 11.972656-19.964844 23.675781h16c0-4.417969 3.582031-8 8-8s8 3.582031 8 8c-.007812.449219-.042969.894531-.113281 1.335938-.34375 3.027343 1.058593 5.984374 3.617187 7.632812 2.5625 1.648438 5.835938 1.703125 8.449219.136719 1.222656-.734375 2.621094-1.113281 4.046875-1.105469 4.417969 0 8 3.582031 8 8s-3.582031 8-8 8h-160c-4.417969 0-8-3.582031-8-8s3.582031-8 8-8c1.425781-.007812 2.824219.371094 4.046875 1.105469 2.613281 1.566406 5.886719 1.511719 8.449219-.136719 2.558594-1.648438 3.960937-4.605469 3.617187-7.632812-.070312-.441407-.105469-.886719-.113281-1.335938 0-4.417969 3.582031-8 8-8s8 3.582031 8 8h16c.007812-11.703125-8.425781-21.707031-19.964844-23.675781-11.535156-1.96875-22.808594 4.671875-26.683594 15.714843-6.574218-.320312-13 2.050782-17.785156 6.574219-4.785156 4.523438-7.519531 10.800781-7.566406 17.386719.027344 2.730469.523438 5.4375 1.472656 8h-25.472656v16h256v-16h-25.472656c.949218-2.5625 1.445312-5.269531 1.472656-8zm0 0"/>
        <path d="m288 184c-13.253906 0-24 10.746094-24 24s10.746094 24 24 24 24-10.746094 24-24-10.746094-24-24-24zm0 32c-4.417969 0-8-3.582031-8-8s3.582031-8 8-8 8 3.582031 8 8-3.582031 8-8 8zm0 0"/>
        <path d="m376 328h16v32h-16zm0 0"/>
        <path d="m376 376h16v16h-16zm0 0"/>
        <path d="m408 344h16v32h-16zm0 0"/>
        <path d="m408 392h16v16h-16zm0 0"/>
        <path d="m184 328h16v32h-16zm0 0"/>
        <path d="m184 376h16v16h-16zm0 0"/>
        <path d="m152 344h16v32h-16zm0 0"/>
        <path d="m152 392h16v16h-16zm0 0"/>
        <path d="m456 0h-432c-13.253906 0-24 10.746094-24 24v400c0 13.253906 10.746094 24 24 24h144v-16h-144c-4.417969 0-8-3.582031-8-8v-344h448v344c0 4.417969-3.582031 8-8 8h-48v16h48c13.253906 0 24-10.746094 24-24v-400c0-13.253906-10.746094-24-24-24zm-440 64v-40c0-4.417969 3.582031-8 8-8h432c4.417969 0 8 3.582031 8 8v40zm0 0"/>
        <path d="m48 32h16v16h-16zm0 0"/>
        <path d="m80 32h16v16h-16zm0 0"/>
        <path d="m112 32h16v16h-16zm0 0"/>
        <path d="m184 112h16v16h-16zm0 0"/>
        <path d="m216 112h16v16h-16zm0 0"/>
        <path d="m248 112h16v16h-16zm0 0"/>
        <path d="m280 112h16v16h-16zm0 0"/>
        <path d="m176 32h176v16h-176zm0 0"/>
        <path d="m56 160h112v16h-112zm0 0"/>
        <path d="m56 192h112v16h-112zm0 0"/>
        <path d="m56 224h112v16h-112zm0 0"/>
    </symbol>

    <symbol id="services03" role="img" aria-labelledby="services03_title" viewBox="0 0 480 480">
        <title id="services03_title"></title>
        <path d="m16 408v-328h400v56h16v-112c0-13.253906-10.746094-24-24-24h-384c-13.253906 0-24 10.746094-24 24v384c0 13.253906 10.746094 24 24 24h200v-16h-200c-4.417969 0-8-3.582031-8-8zm8-392h384c4.417969 0 8 3.582031 8 8v40h-400v-40c0-4.417969 3.582031-8 8-8zm0 0"/>
        <path d="m48 32h16v16h-16zm0 0"/>
        <path d="m80 32h16v16h-16zm0 0"/>
        <path d="m112 32h16v16h-16zm0 0"/>
        <path d="m48 112h16v16h-16zm0 0"/>
        <path d="m80 112h16v16h-16zm0 0"/>
        <path d="m112 112h16v16h-16zm0 0"/>
        <path d="m144 112h16v16h-16zm0 0"/>
        <path d="m176 32h176v16h-176zm0 0"/>
        <path d="m304 112h16v32h-16zm0 0"/>
        <path d="m402.511719 178.171875 22.628906-22.625 11.3125 11.3125-22.628906 22.628906zm0 0"/>
        <path d="m448 272h32v16h-32zm0 0"/>
        <path d="m402.511719 381.820312 11.3125-11.3125 22.628906 22.625-11.3125 11.3125zm0 0"/>
        <path d="m187.550781 393.132812 22.628907-22.628906 11.3125 11.316406-22.625 22.625zm0 0"/>
        <path d="m144 272h32v16h-32zm0 0"/>
        <path d="m187.550781 166.859375 11.316407-11.3125 22.625 22.625-11.3125 11.316406zm0 0"/>
        <path d="m432 280c-.003906-56.261719-39.097656-104.96875-94.027344-117.148438-54.929687-12.175781-110.945312 15.445313-134.726562 66.433594-23.78125 50.992188-8.941406 111.65625 35.691406 145.914063-5.117188 5.152343-7.609375 12.351562-6.777344 19.5625.828125 7.214843 4.894532 13.65625 11.046875 17.511719-3.625 6.234374-4.207031 13.78125-1.585937 20.5 2.625 6.71875 8.167968 11.875 15.058594 14.003906 3.292968 19.15625 19.882812 33.171875 39.320312 33.222656h32c19.449219-.054688 36.042969-14.089844 39.320312-33.265625 6.890626-2.125 12.4375-7.28125 15.0625-14s2.042969-14.265625-1.582031-20.503906c6.152344-3.851563 10.21875-10.296875 11.046875-17.507813.832032-7.210937-1.660156-14.410156-6.777344-19.5625 29.703126-22.605468 47.074219-57.835937 46.929688-95.160156zm-64 104c4.417969 0 8 3.582031 8 8s-3.582031 8-8 8h-112c-4.417969 0-8-3.582031-8-8s3.582031-8 8-8zm-40 80h-32c-10.132812-.042969-19.148438-6.445312-22.527344-16h77.054688c-3.378906 9.554688-12.394532 15.957031-22.527344 16zm32-32h-96c-4.417969 0-8-3.582031-8-8s3.582031-8 8-8h96c4.417969 0 8 3.582031 8 8s-3.582031 8-8 8zm7.238281-64h-47.238281v-72h24c13.253906 0 24-10.746094 24-24s-10.746094-24-24-24-24 10.746094-24 24h16c0-4.417969 3.582031-8 8-8s8 3.582031 8 8-3.582031 8-8 8h-64c-4.417969 0-8-3.582031-8-8s3.582031-8 8-8 8 3.582031 8 8h16c0-13.253906-10.746094-24-24-24s-24 10.746094-24 24 10.746094 24 24 24h24v72h-47.199219c-39.289062-24.628906-57.523437-72.292969-44.710937-116.855469s53.582031-75.261719 99.949218-75.261719c46.371094 0 87.136719 30.699219 99.953126 75.261719 12.8125 44.5625-5.425782 92.226563-44.710938 116.855469zm0 0"/>
        <path d="m48 144h112v16h-112zm0 0"/>
        <path d="m48 176h112v16h-112zm0 0"/>
        <path d="m48 208h112v16h-112zm0 0"/>
    </symbol>

    <symbol id="services04" role="img" aria-labelledby="services04_title" viewBox="0 0 480 480">
        <title id="services04_title"></title>
        <path d="M416,454.3c0,4.7-3.6,8.6-8,8.6H24c-4.4,0-8-3.8-8-8.6V85.7h400v77.1h16V25.7C432,11.5,421.3,0,408,0H24
            C10.7,0,0,11.5,0,25.7v428.6C0,468.5,10.7,480,24,480h384c13.3,0,24-11.5,24-25.7v-51.4h-16V454.3z M24,16h384c4.4,0,8,3.6,8,8v40
            H16V24C16,19.6,19.6,16,24,16z"/>
        <path d="M48,32h16v16H48V32z"/>
        <path d="M80,32h16v16H80V32z"/>
        <path d="M112,32h16v16h-16V32z"/>
        <path d="M160,112h16v16h-16V112z"/>
        <path d="M192,112h16v16h-16V112z"/>
        <path d="M224,112h16v16h-16V112z"/>
        <path d="M256,112h16v16h-16V112z"/>
        <path d="M176,32h176v16H176V32z"/>
        <path d="M456,187H248c-13.3,0-24,10.7-24,24v144c0,13.3,10.7,24,24,24h40v40c0,3.2,1.9,6.2,4.9,7.4s6.4,0.6,8.7-1.7l45.7-45.7H456
            c13.3,0,24-10.7,24-24V211C480,197.7,469.3,187,456,187z M464,355c0,4.4-3.6,8-8,8H344c-2.1,0-4.2,0.8-5.7,2.3L304,399.7V371
            c0-4.4-3.6-8-8-8h-48c-4.4,0-8-3.6-8-8V211c0-4.4,3.6-8,8-8h208c4.4,0,8,3.6,8,8V355z"/>
        <path d="M298.3,325.3l96-96l11.3,11.3l-96,96L298.3,325.3z"/>
        <path d="M384,291c-13.3,0-24,10.7-24,24s10.7,24,24,24s24-10.7,24-24S397.3,291,384,291z M384,323c-4.4,0-8-3.6-8-8s3.6-8,8-8
            s8,3.6,8,8S388.4,323,384,323z"/>
        <path d="M320,275c13.3,0,24-10.7,24-24s-10.7-24-24-24s-24,10.7-24,24S306.7,275,320,275z M320,243c4.4,0,8,3.6,8,8s-3.6,8-8,8
            s-8-3.6-8-8S315.6,243,320,243z"/>
        <path d="M175,250h8c3.3,0,6.3-2.1,7.5-5.2s0.3-6.6-2.2-8.8l-64-56c-3-2.6-7.5-2.6-10.5,0l-64,56c-2.5,2.2-3.4,5.7-2.2,8.8
            s4.2,5.2,7.5,5.2h8v56c0,4.4,3.6,8,8,8h96c4.4,0,8-3.6,8-8V250z M119,196.6l42.7,37.4H76.3L119,196.6z M111,298v-16h16v16H111z
             M159,298h-16v-24c0-4.4-3.6-8-8-8h-32c-4.4,0-8,3.6-8,8v24H79v-48h80V298z"/>
        <path d="M63,330h32v16H63V330z"/>
        <path d="M111,330h64v16h-64V330z"/>
        <path d="M63,370h112v16H63V370z"/>
        <path d="M63,410h112v16H63V410z"/>
    </symbol>

    <symbol id="check" role="img" aria-labelledby="check_title" viewBox="0 0 448 448">
        <title id="check_title"></title>
        <polygon points="341.333,192.96 341.333,381.12 42.667,381.12 42.667,82.453 308.693,82.453 355.627,39.787 0,39.787 0,423.787 
            384,423.787 384,153.707         "/>
        <polygon points="417.493,24.213 186.027,234.56 113.493,162.24 85.333,190.4 187.947,293.013 448,54.08        "/>
    </symbol>

    <symbol id="footer-facebook" role="img" aria-labelledby="footer-facebook_title" viewBox="0 0 512 512">
        <title id="footer-facebook_title">Facebook</title>
        <path d="M314.829,135.492h70.595c11.423,0,20.682-9.26,20.682-20.682V20.682C406.107,9.26,396.848,0,385.425,0h-70.595
            c-76.282,0-138.341,62.06-138.341,138.341v49.913h-49.913c-11.422,0-20.682,9.26-20.682,20.682v94.127
            c0,11.423,9.26,20.682,20.682,20.682h49.913v167.572c0,11.423,9.26,20.682,20.682,20.682h94.127
            c11.423,0,20.682-9.259,20.682-20.682V323.746h49.913c9.49,0,17.763-6.458,20.065-15.666l23.532-94.127
            c1.544-6.179,0.156-12.725-3.763-17.744c-3.919-5.02-9.932-7.954-16.301-7.954H311.98v-49.913
            C311.98,136.77,313.258,135.492,314.829,135.492z M291.298,229.619h67.637l-13.191,52.763h-54.447
            c-11.423,0-20.682,9.259-20.682,20.682v167.572h-52.763V303.064c0-11.423-9.26-20.682-20.682-20.682h-49.913v-52.763h49.913
            c11.422,0,20.682-9.26,20.682-20.682v-70.595c0-53.473,43.503-96.977,96.977-96.977h49.913v52.763h-49.913
            c-24.38,0-44.214,19.835-44.214,44.214v70.595C270.615,220.359,279.875,229.619,291.298,229.619z"/>
    </symbol>

    <symbol id="footer-twitter" role="img" aria-labelledby="footer-twitter_title" viewBox="0 0 512 512">
        <title id="footer-twitter_title">Twitter</title>
        <path d="M502.954,47.189c-7.126-4.852-16.515-4.774-23.559,0.196c-15.351,10.828-31.974,19.528-49.557,25.948
            c-19.253-17.414-43.615-27.826-69.915-29.656c-31.056-2.16-61.081,7.9-84.561,28.326c-25.59,22.259-40.174,54.444-40.046,88.349
            c-85.248-7.609-139.14-61.55-177.09-108.986c-4.598-5.746-11.901-8.619-19.182-7.538c-7.279,1.078-13.438,5.944-16.171,12.777
            c-0.948,2.369-23.141,58.799-17.453,127.057c4.761,57.133,30.23,131.964,120.039,181.717
            c-32.436,14.756-68.282,21.939-103.953,20.519c-9.576-0.378-18.15,5.859-20.736,15.08c-2.587,9.221,1.497,19.013,9.869,23.665
            c51.359,28.532,108.03,43.736,163.889,43.965c0.432,0.002,0.861,0.003,1.294,0.003c54.105-0.001,106.379-13.938,151.246-40.336
            c42.898-25.241,78.416-61.759,102.715-105.603c26.162-47.206,39.427-101.75,39.427-162.186c-0.011-3.544-0.186-7.098-0.52-10.638
            c20.7-22.885,35.388-50.567,42.719-80.667C513.451,60.803,510.081,52.04,502.954,47.189z M432.297,128.07
            c-4.916,4.847-7.088,11.827-5.793,18.607c0.877,4.588,1.329,9.278,1.344,13.874c0,101.956-44.378,186.544-121.756,232.072
            c-60.586,35.649-133.037,43.933-203.609,25.057c0.729-0.201,1.459-0.407,2.185-0.615c27.596-7.885,53.63-20.055,77.377-36.174
            c6.329-4.296,9.77-11.734,8.946-19.34c-0.825-7.605-5.778-14.134-12.881-16.975C97.757,312.434,53.563,257.594,46.757,181.575
            c-2.536-28.334,0.707-54.721,4.766-74.501c16.638,17.909,37.384,37.227,62.129,53.407c42.771,27.966,90.663,42.146,142.346,42.146
            c11.423,0,20.682-9.26,20.682-20.682v-21.393c0-0.045,0-0.091,0-0.137c-0.146-21.948,9.268-42.797,25.829-57.202
            c15.146-13.175,34.51-19.665,54.543-18.27c20.026,1.393,38.311,10.502,51.487,25.648c5.339,6.138,13.783,8.577,21.567,6.229
            c5.725-1.724,11.375-3.645,16.941-5.757C442.599,117.081,437.672,122.769,432.297,128.07z"/>
    </symbol>    

    <symbol id="footer-linkedin" role="img" aria-labelledby="footer-linkedin_title" viewBox="0 0 512 512">
        <title id="footer-linkedin_title">Linkedin</title>
        <path d="M2.5,510V153.7h137.3V510H2.5z M102.5,472.7V191H39.8v281.7H102.5z"/>
        <path d="M375.4,510l0.1-158.1c0.5-23.6-8.8-42.9-24.9-51.7c-5.4-3-11.2-4.5-17.3-4.5c-5.2,0-10.4,1.1-15.5,3.3l-1.1,211H176.1
            V153.7h140.6V166c16.6-6,33.6-9.1,50.6-9.1c24.7,0,48.3,6.4,70.2,18.9c44,25.2,72.5,71.8,72.5,118.8V510H375.4z M472.7,472.7V294.6
            c0-33.8-21.1-67.7-53.7-86.4c-15.9-9.1-33.8-13.9-51.7-14h-0.3c-20.1,0-40.1,5.8-59.6,17.3L279.4,228V191h-66.1v281.7h66.2l1-194.7
            l8.2-5.5c13.7-9.2,29.1-14.1,44.5-14.1c12.4,0,24.2,3,35.1,9c13.7,7.5,25,19.2,32.8,33.8c7.9,14.9,11.9,32.6,11.5,51.1l0,120.3
            H472.7z"/>
        <path d="M70.9,139.9C32.9,139.9,2,109,2,71c0-38,30.9-69,68.9-69c38,0,68.9,30.9,68.9,69C139.8,109,108.9,139.9,70.9,139.9z
             M70.9,39.3c-17.4,0-31.6,14.2-31.6,31.7c0,17.5,14.2,31.7,31.6,31.7c17.4,0,31.6-14.2,31.6-31.7C102.5,53.5,88.3,39.3,70.9,39.3z"
            />
    </symbol>

    <symbol id="footer-instagram" role="img" aria-labelledby="footer-instagram_title" viewBox="0 0 512 512">
        <title id="footer-instagram_title">Instagram</title>
        <path d="M373.659,0H138.341C62.06,0,0,62.06,0,138.341v235.318C0,449.94,62.06,512,138.341,512h235.318
            C449.94,512,512,449.94,512,373.659V138.341C512,62.06,449.94,0,373.659,0z M470.636,373.659
            c0,53.473-43.503,96.977-96.977,96.977H138.341c-53.473,0-96.977-43.503-96.977-96.977V138.341
            c0-53.473,43.503-96.977,96.977-96.977h235.318c53.473,0,96.977,43.503,96.977,96.977V373.659z"/>
        <path d="M370.586,238.141c-3.64-24.547-14.839-46.795-32.386-64.342c-17.547-17.546-39.795-28.746-64.341-32.385
            c-11.176-1.657-22.507-1.657-33.682,0c-30.336,4.499-57.103,20.541-75.372,45.172c-18.269,24.631-25.854,54.903-21.355,85.237
            c4.499,30.335,20.541,57.102,45.172,75.372c19.996,14.831,43.706,22.619,68.153,22.619c5.667,0,11.375-0.418,17.083-1.265
            c30.336-4.499,57.103-20.541,75.372-45.172C367.5,298.747,375.085,268.476,370.586,238.141z M267.791,327.632
            c-19.405,2.882-38.77-1.973-54.527-13.66c-15.757-11.687-26.019-28.811-28.896-48.216c-2.878-19.405,1.973-38.77,13.66-54.527
            c11.688-15.757,28.811-26.019,48.217-28.897c3.574-0.53,7.173-0.795,10.772-0.795s7.199,0.265,10.773,0.796
            c32.231,4.779,57.098,29.645,61.878,61.877C335.608,284.268,307.851,321.692,267.791,327.632z"/>
        <path d="M400.049,111.951c-3.852-3.851-9.183-6.058-14.625-6.058c-5.442,0-10.773,2.206-14.625,6.058
            c-3.851,3.852-6.058,9.174-6.058,14.625c0,5.451,2.207,10.773,6.058,14.625c3.852,3.851,9.183,6.058,14.625,6.058
            c5.442,0,10.773-2.206,14.625-6.058c3.851-3.852,6.058-9.183,6.058-14.625C406.107,121.133,403.9,115.802,400.049,111.951z"/>
    </symbol>

    <symbol id="footer-phone" role="img" aria-labelledby="footer-phone_title" viewBox="0 0 512 512">
        <title id="footer-phone_title"></title>
        <path d="M421.216,195.504c-5.092-26.101-17.723-49.836-36.526-68.64c-18.804-18.803-42.54-31.434-68.641-36.527
			c-11.21-2.189-22.073,5.128-24.261,16.339c-2.187,11.212,5.128,22.073,16.339,24.26c36.847,7.188,65.3,35.642,72.489,72.489
			c1.927,9.874,10.581,16.726,20.278,16.726c1.313,0,2.645-0.125,3.984-0.387C416.088,217.577,423.403,206.715,421.216,195.504z"/>
		<path d="M511.422,196.929c-5.629-50.096-28.373-97.304-64.042-132.927C411.712,28.378,364.475,5.694,314.371,0.128
			c-11.355-1.261-21.578,6.92-22.839,18.272c-1.261,11.353,6.919,21.578,18.272,22.84c84.961,9.438,150.966,75.36,160.512,160.31
			c1.188,10.566,10.139,18.374,20.527,18.374c0.771,0,1.552-0.043,2.336-0.131C504.53,218.516,512.698,208.281,511.422,196.929z"/>
		<path d="M432.59,312.566c-0.062-0.008-0.124-0.017-0.186-0.025c-20.013-2.639-39.751-7.557-58.619-14.596
			c-23.91-8.99-51.103-3.191-69.27,14.772c-0.028,0.028-0.056,0.055-0.083,0.083l-17.148,17.148
			c-42.633-26.924-78.756-63.047-105.679-105.679l17.149-17.149c0.027-0.028,0.054-0.055,0.082-0.083
			c17.964-18.166,23.762-45.356,14.79-69.223c-7.057-18.914-11.974-38.653-14.614-58.666c-0.007-0.063-0.017-0.127-0.026-0.19
			c-4.591-32.478-32.782-56.734-65.548-56.467H66.053c-1.943,0.002-3.912,0.091-5.853,0.267
			C24.143,26.016-2.541,58.001,0.718,94.058c0.01,0.108,0.02,0.215,0.032,0.323c7.684,72.354,32.649,142.88,72.197,203.955
			c35.892,56.461,84.701,105.269,141.162,141.164c60.792,39.406,130.99,64.369,203.013,72.196c0.127,0.015,0.254,0.027,0.38,0.038
			c1.961,0.176,3.949,0.266,5.921,0.266c0.083,0,0.165,0,0.247,0.001c36.204-0.148,65.538-29.722,65.391-65.841v-67.233
			C489.746,345.714,465.515,317.211,432.59,312.566z M447.698,378.695v67.548c0.055,13.396-10.8,24.338-24.19,24.393
			c-0.715-0.004-1.425-0.027-2.135-0.086c-65.578-7.161-129.488-29.914-184.837-65.808c-0.053-0.035-0.107-0.069-0.161-0.103
			c-51.429-32.68-95.885-77.137-128.565-128.565c-0.032-0.051-0.064-0.101-0.097-0.153C71.683,220.306,48.928,156.086,41.902,90.193
			C40.779,76.91,50.63,65.155,63.923,63.954c0.717-0.064,1.443-0.098,2.145-0.098h67.463c0.146-0.001,0.294-0.003,0.443-0.002
			c12.021,0,22.322,8.905,24.044,20.819c3.05,23.063,8.721,45.806,16.871,67.649c3.319,8.832,1.189,18.869-5.427,25.591
			l-28.517,28.517c-6.583,6.582-7.956,16.753-3.354,24.847c33.837,59.508,83.177,108.847,142.685,142.685
			c8.094,4.6,18.264,3.23,24.848-3.355l28.512-28.512c6.72-6.621,16.765-8.752,25.642-5.415
			c21.799,8.134,44.547,13.805,67.61,16.855c12.18,1.757,21.122,12.339,20.816,24.647
			C447.7,378.353,447.698,378.524,447.698,378.695z"/>
    </symbol>    

	<symbol id="footer-mail" role="img" aria-labelledby="footer-mail_title" viewBox="0 0 512 512">
        <title id="footer-mail_title"></title>
        <path d="M256,141.176c-63.306,0-114.809,51.503-114.809,114.809S192.694,370.795,256,370.795s114.809-51.503,114.809-114.809
			S319.306,141.176,256,141.176z M256,329.43c-40.498,0-73.445-32.947-73.445-73.445c0-40.498,32.947-73.445,73.445-73.445
			c40.499,0,73.445,32.947,73.445,73.445C329.445,296.483,296.499,329.43,256,329.43z"/>
		<path d="M437.008,74.97C388.656,26.623,324.375,0,256,0c-0.005,0-0.013,0-0.017,0C187.603,0.004,123.318,26.637,74.97,74.992
			C26.62,123.347-0.005,187.637,0,256.017c0.004,68.379,26.637,132.666,74.992,181.014C123.344,485.377,187.625,512.001,256,512
			c0.004,0,0.012,0,0.017,0c55.945-0.004,111.216-18.738,155.631-52.752c9.07-6.945,10.792-19.927,3.846-28.995
			c-6.945-9.069-19.926-10.794-28.995-3.846c-37.24,28.518-83.58,44.224-130.486,44.228c-0.006,0-0.006,0-0.014,0
			c-57.324,0-111.224-22.324-151.761-62.856c-40.542-40.536-62.871-94.435-62.875-151.766
			C41.357,137.663,137.636,41.372,255.986,41.364c0.007,0,0.006,0,0.014,0c118.34,0,214.628,96.279,214.636,214.622v23.532
			c0,27.523-22.39,49.913-49.913,49.913c-27.523,0-49.913-22.391-49.913-49.913v-23.532c0-11.422-9.259-20.682-20.682-20.682
			s-20.682,9.26-20.682,20.682v23.532c0,50.33,40.947,91.278,91.278,91.278S512,329.848,512,279.518v-23.534
			C511.995,187.604,485.362,123.318,437.008,74.97z"/>
    </symbol>

    <symbol id="footer-location" role="img" aria-labelledby="footer-location_title" viewBox="0 0 512 512">
        <title id="footer-location_title"></title>
        <path d="M406.766,62.449C366.495,22.178,312.951,0,256,0S145.505,22.178,105.234,62.449
			c-40.272,40.271-62.449,93.814-62.449,150.766c0,37.656,10.972,76.863,32.609,116.532c16.825,30.846,40.15,62.102,69.326,92.898
			c49.17,51.903,97.763,84.519,99.808,85.881C248.001,510.842,252,512,256,512c4,0,7.999-1.158,11.473-3.474
			c2.045-1.363,50.638-33.978,99.808-85.881c29.176-30.795,52.501-62.051,69.326-92.898c21.637-39.669,32.609-78.876,32.609-116.532
			C469.215,156.263,447.038,102.72,406.766,62.449z M256.001,465.903C215.826,436.156,84.15,329.739,84.15,213.215
			c0-94.759,77.091-171.851,171.85-171.851s171.85,77.092,171.851,171.851C427.851,329.748,296.159,436.168,256.001,465.903z"/>
		<path d="M256,128.355c-46.791,0-84.86,38.068-84.86,84.86c0,46.791,38.068,84.86,84.86,84.86c46.792,0,84.861-38.068,84.86-84.86
			C340.86,166.423,302.791,128.355,256,128.355z M256,256.71c-23.983,0-43.495-19.512-43.495-43.495
			c0-23.983,19.512-43.495,43.495-43.495c23.984,0,43.495,19.512,43.495,43.495C299.495,237.198,279.984,256.71,256,256.71z"/>
		</symbol>

	<symbol id="footer-time" role="img" aria-labelledby="footer-time_title" viewBox="0 0 512 512">
        <title id="footer-time_title"></title>
        <path d="M437.019,74.981C388.667,26.629,324.38,0,256,0S123.333,26.63,74.981,74.981S0,187.62,0,256
			s26.629,132.667,74.981,181.019C123.332,485.371,187.62,512,256,512s132.667-26.629,181.019-74.981
			C485.371,388.667,512,324.38,512,256S485.371,123.332,437.019,74.981z M256,470.636C137.65,470.636,41.364,374.35,41.364,256
			S137.65,41.364,256,41.364S470.636,137.65,470.636,256S374.35,470.636,256,470.636z"/>
		<path d="M341.221,311.97l-64.538-64.537V114.809c0-11.422-9.259-20.682-20.682-20.682c-11.422,0-20.682,9.26-20.682,20.682V256
			c0,5.486,2.179,10.746,6.058,14.625l70.594,70.595c4.038,4.039,9.332,6.058,14.625,6.058c5.293,0,10.586-2.019,14.626-6.058
			C349.297,333.142,349.297,320.047,341.221,311.97z"/>
	</symbol>

</svg>