<?xml version="1.0" encoding="utf-8"?>
<!-- Generator: Adobe Illustrator 20.1.0, SVG Export Plug-In . SVG Version: 6.00 Build 0)  -->
<svg version="1.1" id="Layer_1" xmlns="http://www.w3.org/2000/svg" xmlns:xlink="http://www.w3.org/1999/xlink" x="0px" y="0px"
	 viewBox="0 0 571.9 381.3" style="enable-background:new 0 0 571.9 381.3;" xml:space="preserve">
<style type="text/css">
	.st0{clip-path:url(#SVGID_2_);}
	.st1{fill:#FFFFFF;}
	.st2{fill:none;}
</style>
<g>
	<defs>
		<path id="SVGID_1_" d="M571.9,369.1c0,6.7-5.4,12.1-12,12.1H12c-6.6,0-12-5.4-12-12.1v-357C0,5.4,5.4,0,12,0h547.8
			c6.6,0,12,5.4,12,12.1V369.1z"/>
	</defs>
	<clipPath id="SVGID_2_">
		<use xlink:href="#SVGID_1_"  style="overflow:visible;"/>
	</clipPath>
	<g class="st0">
		<circle class="st1" cx="480.8" cy="190.6" r="2"/>
		<circle class="st1" cx="91.2" cy="190.6" r="2"/>
		<path class="st1" d="M549.7,165.4h-16.8V24.8H39.2v140.6h-17v50.5h17v140.6h493.7V215.9h16.8V165.4z M548.6,167.9l-0.8-1.5h0.8
			V167.9z M41.9,27.5H51c-0.6,4.8-4.4,8.6-9.2,9.2V27.5z M117.3,158.2c9.5,8.1,14.9,19.9,14.9,32.4c0,12.5-5.4,24.3-14.9,32.4V158.2
			z M115.7,154.8v71.6v55.9H41.9v-48.6h23.8v-86.2H41.9V99h73.8V154.8z M41.9,149.1h22.2v83H41.9V149.1z M39.2,209.5l-0.9-1.6
			l0.9-1.6V209.5z M38.1,211.2h-1.9l-0.9-1.6l0.9-1.6h1.9l0.9,1.6L38.1,211.2z M23.3,209.6l0.9-1.6h1.9l0.9,1.6l-0.9,1.6h-1.9
			L23.3,209.6z M24.3,170h1.9l0.9,1.6l-0.9,1.6h-1.9l-0.9-1.6L24.3,170z M39,171.7l-0.9,1.6h-1.9l-0.9-1.6l0.9-1.6h1.9L39,171.7z
			 M38.1,207.8h-1.9l-0.9-1.6l0.9-1.6h1.9l0.9,1.6L38.1,207.8z M34.1,211.2h-1.9l-0.9-1.6l0.9-1.6h1.9l0.9,1.6L34.1,211.2z
			 M30.1,211.2h-1.9l-0.9-1.6l0.9-1.6h1.9l0.9,1.6L30.1,211.2z M28.2,170h1.9l0.9,1.6l-0.9,1.6h-1.9l-0.9-1.6L28.2,170z M32.2,170
			h1.9l0.9,1.6l-0.9,1.6h-1.9l-0.9-1.6L32.2,170z M34.1,207.8h-1.9l-0.9-1.6l0.9-1.6h1.9l0.9,1.6L34.1,207.8z M31.2,206l-0.9-1.5
			l0.9-1.5l0.9,1.5L31.2,206z M34.3,204.4l0.9-1.5l0.9,1.5l-0.9,1.5L34.3,204.4z M34.1,204.3h-1.9l-0.9-1.6l0.9-1.6h1.9l0.9,1.6
			L34.1,204.3z M31.2,202.5l-0.9-1.5l0.9-1.5l0.9,1.5L31.2,202.5z M34.3,201l0.9-1.5L36,201l-0.9,1.5L34.3,201z M34.1,200.9h-1.9
			l-0.9-1.6l0.9-1.6h1.9l0.9,1.6L34.1,200.9z M31.2,199.1l-0.9-1.5l0.9-1.5l0.9,1.5L31.2,199.1z M34.3,197.5l0.9-1.5l0.9,1.5
			l-0.9,1.5L34.3,197.5z M34.1,197.4h-1.9l-0.9-1.6l0.9-1.6h1.9l0.9,1.6L34.1,197.4z M31.2,195.6l-0.9-1.5l0.9-1.5l0.9,1.5
			L31.2,195.6z M34.3,194.1l0.9-1.5l0.9,1.5l-0.9,1.5L34.3,194.1z M34.1,194h-1.9l-0.9-1.6l0.9-1.6h1.9l0.9,1.6L34.1,194z
			 M31.2,192.2l-0.9-1.5l0.9-1.5l0.9,1.5L31.2,192.2z M34.3,190.6l0.9-1.5l0.9,1.5l-0.9,1.5L34.3,190.6z M34.1,190.5h-1.9l-0.9-1.6
			l0.9-1.6h1.9l0.9,1.6L34.1,190.5z M31.2,188.7l-0.9-1.5l0.9-1.5l0.9,1.5L31.2,188.7z M34.3,187.2l0.9-1.5l0.9,1.5l-0.9,1.5
			L34.3,187.2z M34.1,187.1h-1.9l-0.9-1.6l0.9-1.6h1.9l0.9,1.6L34.1,187.1z M31.2,185.3l-0.9-1.5l0.9-1.5l0.9,1.5L31.2,185.3z
			 M34.3,183.7l0.9-1.5l0.9,1.5l-0.9,1.5L34.3,183.7z M34.1,183.6h-1.9l-0.9-1.6l0.9-1.6h1.9L35,182L34.1,183.6z M31.2,181.8
			l-0.9-1.5l0.9-1.5l0.9,1.5L31.2,181.8z M34.3,180.3l0.9-1.5l0.9,1.5l-0.9,1.5L34.3,180.3z M34.1,180.2h-1.9l-0.9-1.6l0.9-1.6h1.9
			l0.9,1.6L34.1,180.2z M31.2,178.4l-0.9-1.5l0.9-1.5l0.9,1.5L31.2,178.4z M34.3,176.8l0.9-1.5l0.9,1.5l-0.9,1.5L34.3,176.8z
			 M34.1,176.7h-1.9l-0.9-1.6l0.9-1.6h1.9l0.9,1.6L34.1,176.7z M34.3,173.4l0.9-1.5l0.9,1.5l-0.9,1.5L34.3,173.4z M32.1,173.4
			l-0.9,1.5l-0.9-1.5l0.9-1.5L32.1,173.4z M28.1,173.4l-0.9,1.5l-0.9-1.5l0.9-1.5L28.1,173.4z M28.2,173.5h1.9l0.9,1.6l-0.9,1.6
			h-1.9l-0.9-1.6L28.2,173.5z M28.1,176.8l-0.9,1.5l-0.9-1.5l0.9-1.5L28.1,176.8z M28.2,176.9h1.9l0.9,1.6l-0.9,1.6h-1.9l-0.9-1.6
			L28.2,176.9z M28.1,180.3l-0.9,1.5l-0.9-1.5l0.9-1.5L28.1,180.3z M28.2,180.4h1.9l0.9,1.6l-0.9,1.6h-1.9l-0.9-1.6L28.2,180.4z
			 M28.1,183.7l-0.9,1.5l-0.9-1.5l0.9-1.5L28.1,183.7z M28.2,183.8h1.9l0.9,1.6l-0.9,1.6h-1.9l-0.9-1.6L28.2,183.8z M28.1,187.2
			l-0.9,1.5l-0.9-1.5l0.9-1.5L28.1,187.2z M28.2,187.3h1.9l0.9,1.6l-0.9,1.6h-1.9l-0.9-1.6L28.2,187.3z M28.1,190.6l-0.9,1.5
			l-0.9-1.5l0.9-1.5L28.1,190.6z M28.2,190.7h1.9l0.9,1.6l-0.9,1.6h-1.9l-0.9-1.6L28.2,190.7z M28.1,194.1l-0.9,1.5l-0.9-1.5
			l0.9-1.5L28.1,194.1z M28.2,194.2h1.9l0.9,1.6l-0.9,1.6h-1.9l-0.9-1.6L28.2,194.2z M28.1,197.5l-0.9,1.5l-0.9-1.5l0.9-1.5
			L28.1,197.5z M28.2,197.6h1.9l0.9,1.6l-0.9,1.6h-1.9l-0.9-1.6L28.2,197.6z M28.1,201l-0.9,1.5l-0.9-1.5l0.9-1.5L28.1,201z
			 M28.2,201.1h1.9l0.9,1.6l-0.9,1.6h-1.9l-0.9-1.6L28.2,201.1z M28.1,204.4l-0.9,1.5l-0.9-1.5l0.9-1.5L28.1,204.4z M28.2,204.5h1.9
			l0.9,1.6l-0.9,1.6h-1.9l-0.9-1.6L28.2,204.5z M28.1,207.9l-0.9,1.5l-0.9-1.5l0.9-1.5L28.1,207.9z M30.3,207.9l0.9-1.5l0.9,1.5
			l-0.9,1.5L30.3,207.9z M34.3,207.9l0.9-1.5l0.9,1.5l-0.9,1.5L34.3,207.9z M38.1,204.3h-1.9l-0.9-1.6l0.9-1.6h1.9l0.9,1.6
			L38.1,204.3z M38.1,200.9h-1.9l-0.9-1.6l0.9-1.6h1.9l0.9,1.6L38.1,200.9z M38.1,197.4h-1.9l-0.9-1.6l0.9-1.6h1.9l0.9,1.6
			L38.1,197.4z M38.1,194h-1.9l-0.9-1.6l0.9-1.6h1.9l0.9,1.6L38.1,194z M38.1,190.5h-1.9l-0.9-1.6l0.9-1.6h1.9l0.9,1.6L38.1,190.5z
			 M38.1,187.1h-1.9l-0.9-1.6l0.9-1.6h1.9l0.9,1.6L38.1,187.1z M38.1,183.6h-1.9l-0.9-1.6l0.9-1.6h1.9L39,182L38.1,183.6z
			 M38.1,180.2h-1.9l-0.9-1.6l0.9-1.6h1.9l0.9,1.6L38.1,180.2z M38.1,176.7h-1.9l-0.9-1.6l0.9-1.6h1.9l0.9,1.6L38.1,176.7z
			 M35.2,171.5l-0.9-1.5l0.9-1.5l0.9,1.5L35.2,171.5z M34.1,169.8h-1.9l-0.9-1.6l0.9-1.6h1.9l0.9,1.6L34.1,169.8z M32.1,169.9
			l-0.9,1.5l-0.9-1.5l0.9-1.5L32.1,169.9z M30.1,169.8h-1.9l-0.9-1.6l0.9-1.6h1.9l0.9,1.6L30.1,169.8z M28.1,169.9l-0.9,1.5
			l-0.9-1.5l0.9-1.5L28.1,169.9z M24.3,173.5h1.9l0.9,1.6l-0.9,1.6h-1.9l-0.9-1.6L24.3,173.5z M24.3,176.9h1.9l0.9,1.6l-0.9,1.6
			h-1.9l-0.9-1.6L24.3,176.9z M24.3,180.4h1.9l0.9,1.6l-0.9,1.6h-1.9l-0.9-1.6L24.3,180.4z M24.3,183.8h1.9l0.9,1.6l-0.9,1.6h-1.9
			l-0.9-1.6L24.3,183.8z M24.3,187.3h1.9l0.9,1.6l-0.9,1.6h-1.9l-0.9-1.6L24.3,187.3z M24.3,190.7h1.9l0.9,1.6l-0.9,1.6h-1.9
			l-0.9-1.6L24.3,190.7z M24.3,194.2h1.9l0.9,1.6l-0.9,1.6h-1.9l-0.9-1.6L24.3,194.2z M24.3,197.6h1.9l0.9,1.6l-0.9,1.6h-1.9
			l-0.9-1.6L24.3,197.6z M24.3,201.1h1.9l0.9,1.6l-0.9,1.6h-1.9l-0.9-1.6L24.3,201.1z M24.3,204.5h1.9l0.9,1.6l-0.9,1.6h-1.9
			l-0.9-1.6L24.3,204.5z M27.2,209.8l0.9,1.5l-0.9,1.5l-0.9-1.5L27.2,209.8z M28.2,211.4h1.9l0.9,1.6l-0.9,1.6h-1.9l-0.9-1.6
			L28.2,211.4z M30.3,211.3l0.9-1.5l0.9,1.5l-0.9,1.5L30.3,211.3z M32.2,211.4h1.9L35,213l-0.9,1.6h-1.9l-0.9-1.6L32.2,211.4z
			 M34.3,211.3l0.9-1.5l0.9,1.5l-0.9,1.5L34.3,211.3z M39.2,206l-0.9-1.6l0.9-1.6V206z M39.2,202.6l-0.9-1.6l0.9-1.6V202.6z
			 M39.2,199.1l-0.9-1.6l0.9-1.6V199.1z M39.2,195.7l-0.9-1.6l0.9-1.6V195.7z M39.2,192.3l-0.9-1.6l0.9-1.6V192.3z M39.2,188.8
			l-0.9-1.6l0.9-1.6V188.8z M39.2,185.4l-0.9-1.6l0.9-1.6V185.4z M39.2,181.9l-0.9-1.6l0.9-1.6V181.9z M39.2,178.5l-0.9-1.6l0.9-1.6
			V178.5z M39.2,175l-0.9-1.6l0.9-1.6V175z M39.2,171.6l-0.9-1.6l0.9-1.6V171.6z M38.1,169.8h-1.9l-0.9-1.6l0.9-1.6h1.9l0.9,1.6
			L38.1,169.8z M35.2,168l-0.9-1.6h1.8L35.2,168z M31.2,168l-0.9-1.6h1.8L31.2,168z M27.2,168l-0.9-1.6h1.8L27.2,168z M26.1,166.6
			l0.9,1.6l-0.9,1.6h-1.9l-0.9-1.6l0.9-1.6H26.1z M24.1,169.9l-0.8,1.4v-2.9L24.1,169.9z M24.1,173.4l-0.8,1.4v-2.9L24.1,173.4z
			 M24.1,176.8l-0.8,1.4v-2.9L24.1,176.8z M24.1,180.3l-0.8,1.4v-2.9L24.1,180.3z M24.1,183.7l-0.8,1.4v-2.9L24.1,183.7z
			 M24.1,187.2l-0.8,1.4v-2.9L24.1,187.2z M24.1,190.6l-0.8,1.4v-2.9L24.1,190.6z M24.1,194.1l-0.8,1.4v-2.9L24.1,194.1z
			 M24.1,197.5l-0.8,1.4v-2.9L24.1,197.5z M24.1,201l-0.8,1.4v-2.9L24.1,201z M24.1,204.4l-0.8,1.4V203L24.1,204.4z M24.1,207.9
			l-0.8,1.4v-2.9L24.1,207.9z M24.1,211.3l-0.8,1.4v-2.9L24.1,211.3z M24.3,211.4h1.9l0.9,1.6l-0.9,1.6h-1.9l-0.9-1.6L24.3,211.4z
			 M27.2,213.2l0.9,1.6h-1.8L27.2,213.2z M31.2,213.2l0.9,1.6h-1.8L31.2,213.2z M35.2,213.2l0.9,1.6h-1.8L35.2,213.2z M36.2,214.7
			l-0.9-1.6l0.9-1.6h1.9L39,213l-0.9,1.6H36.2z M38.2,211.3l0.9-1.6v3.3L38.2,211.3z M41.9,353.8v-9.2c4.8,0.6,8.6,4.4,9.2,9.2H41.9
			z M41.9,342.8v-58.9h75.4v-58.8c10.5-8.5,16.5-21,16.5-34.5c0-13.5-6-26-16.5-34.5V97.4H41.9V38.5c5.8-0.6,10.4-5.2,11-11h232.1
			v118.8c-11.4,0.3-22.2,4.9-30.3,13c-8.4,8.4-13,19.5-13,31.4c0,11.8,4.6,23,13,31.4c8.1,8.1,18.8,12.7,30.3,13v118.8H52.8
			C52.2,348,47.6,343.4,41.9,342.8z M284.9,189c-0.5,0.4-0.9,1-0.9,1.7s0.4,1.3,0.9,1.7v41.1c-23.1-0.6-41.7-19.5-41.7-42.7
			c0-23.2,18.6-42.2,41.7-42.7V189z M287.1,192.3c0.5-0.4,0.9-1,0.9-1.7s-0.4-1.3-0.9-1.7v-41.1c23.1,0.6,41.7,19.5,41.7,42.7
			c0,23.2-18.6,42.2-41.7,42.7V192.3z M287.1,235c11.4-0.3,22.2-4.9,30.3-13c8.4-8.4,13-19.5,13-31.4c0-11.8-4.6-23-13-31.4
			c-8.1-8.1-18.8-12.7-30.3-13V27.5h232.1c0.6,5.8,5.2,10.4,11,11v58.9h-75.4v58.8c-10.5,8.5-16.5,21-16.5,34.5
			c0,13.5,6,26,16.5,34.5v58.8h75.4v58.9c-5.8,0.6-10.3,5.2-11,11H287.1V235z M547.6,211.2h-1.9l-0.9-1.6l0.9-1.6h1.9l0.9,1.6
			L547.6,211.2z M532.8,209.6l0.9-1.6h1.9l0.9,1.6l-0.9,1.6h-1.9L532.8,209.6z M532.8,172l0.8,1.4l-0.8,1.4V172z M533.8,170h1.9
			l0.9,1.6l-0.9,1.6h-1.9l-0.9-1.6L533.8,170z M543.6,211.2h-1.9l-0.9-1.6l0.9-1.6h1.9l0.9,1.6L543.6,211.2z M539.7,211.2h-1.9
			l-0.9-1.6l0.9-1.6h1.9l0.9,1.6L539.7,211.2z M532.8,206.1l0.9-1.6h1.9l0.9,1.6l-0.9,1.6h-1.9L532.8,206.1z M533.8,173.5h1.9
			l0.9,1.6l-0.9,1.6h-1.9l-0.9-1.6L533.8,173.5z M537.8,170h1.9l0.9,1.6l-0.9,1.6h-1.9l-0.9-1.6L537.8,170z M539.7,207.8h-1.9
			l-0.9-1.6l0.9-1.6h1.9l0.9,1.6L539.7,207.8z M536.7,206l-0.9-1.5l0.9-1.5l0.9,1.5L536.7,206z M539.8,204.4l0.9-1.5l0.9,1.5
			l-0.9,1.5L539.8,204.4z M539.7,204.3h-1.9l-0.9-1.6l0.9-1.6h1.9l0.9,1.6L539.7,204.3z M536.7,202.5l-0.9-1.5l0.9-1.5l0.9,1.5
			L536.7,202.5z M539.8,201l0.9-1.5l0.9,1.5l-0.9,1.5L539.8,201z M539.7,200.9h-1.9l-0.9-1.6l0.9-1.6h1.9l0.9,1.6L539.7,200.9z
			 M536.7,199.1l-0.9-1.5l0.9-1.5l0.9,1.5L536.7,199.1z M539.8,197.5l0.9-1.5l0.9,1.5l-0.9,1.5L539.8,197.5z M539.7,197.4h-1.9
			l-0.9-1.6l0.9-1.6h1.9l0.9,1.6L539.7,197.4z M536.7,195.6l-0.9-1.5l0.9-1.5l0.9,1.5L536.7,195.6z M539.8,194.1l0.9-1.5l0.9,1.5
			l-0.9,1.5L539.8,194.1z M539.7,194h-1.9l-0.9-1.6l0.9-1.6h1.9l0.9,1.6L539.7,194z M536.7,192.2l-0.9-1.5l0.9-1.5l0.9,1.5
			L536.7,192.2z M539.8,190.6l0.9-1.5l0.9,1.5l-0.9,1.5L539.8,190.6z M539.7,190.5h-1.9l-0.9-1.6l0.9-1.6h1.9l0.9,1.6L539.7,190.5z
			 M536.7,188.7l-0.9-1.5l0.9-1.5l0.9,1.5L536.7,188.7z M539.8,187.2l0.9-1.5l0.9,1.5l-0.9,1.5L539.8,187.2z M539.7,187.1h-1.9
			l-0.9-1.6l0.9-1.6h1.9l0.9,1.6L539.7,187.1z M536.7,185.3l-0.9-1.5l0.9-1.5l0.9,1.5L536.7,185.3z M539.8,183.7l0.9-1.5l0.9,1.5
			l-0.9,1.5L539.8,183.7z M539.7,183.6h-1.9l-0.9-1.6l0.9-1.6h1.9l0.9,1.6L539.7,183.6z M536.7,181.8l-0.9-1.5l0.9-1.5l0.9,1.5
			L536.7,181.8z M539.8,180.3l0.9-1.5l0.9,1.5l-0.9,1.5L539.8,180.3z M539.7,180.2h-1.9l-0.9-1.6l0.9-1.6h1.9l0.9,1.6L539.7,180.2z
			 M536.7,178.4l-0.9-1.5l0.9-1.5l0.9,1.5L536.7,178.4z M539.8,176.8l0.9-1.5l0.9,1.5l-0.9,1.5L539.8,176.8z M539.7,176.7h-1.9
			l-0.9-1.6l0.9-1.6h1.9l0.9,1.6L539.7,176.7z M539.8,173.4l0.9-1.5l0.9,1.5l-0.9,1.5L539.8,173.4z M537.6,173.4l-0.9,1.5l-0.9-1.5
			l0.9-1.5L537.6,173.4z M533.8,176.9h1.9l0.9,1.6l-0.9,1.6h-1.9l-0.9-1.6L533.8,176.9z M533.8,180.4h1.9l0.9,1.6l-0.9,1.6h-1.9
			l-0.9-1.6L533.8,180.4z M533.8,183.8h1.9l0.9,1.6l-0.9,1.6h-1.9l-0.9-1.6L533.8,183.8z M533.8,187.3h1.9l0.9,1.6l-0.9,1.6h-1.9
			l-0.9-1.6L533.8,187.3z M533.8,190.7h1.9l0.9,1.6l-0.9,1.6h-1.9l-0.9-1.6L533.8,190.7z M533.8,194.2h1.9l0.9,1.6l-0.9,1.6h-1.9
			l-0.9-1.6L533.8,194.2z M533.8,197.6h1.9l0.9,1.6l-0.9,1.6h-1.9l-0.9-1.6L533.8,197.6z M533.8,201.1h1.9l0.9,1.6l-0.9,1.6h-1.9
			l-0.9-1.6L533.8,201.1z M536.7,206.3l0.9,1.5l-0.9,1.5l-0.9-1.5L536.7,206.3z M539.8,207.9l0.9-1.5l0.9,1.5l-0.9,1.5L539.8,207.9z
			 M543.8,207.9l0.9-1.5l0.9,1.5l-0.9,1.5L543.8,207.9z M543.6,207.8h-1.9l-0.9-1.6l0.9-1.6h1.9l0.9,1.6L543.6,207.8z M543.8,204.4
			l0.9-1.5l0.9,1.5l-0.9,1.5L543.8,204.4z M543.6,204.3h-1.9l-0.9-1.6l0.9-1.6h1.9l0.9,1.6L543.6,204.3z M543.8,201l0.9-1.5l0.9,1.5
			l-0.9,1.5L543.8,201z M543.6,200.9h-1.9l-0.9-1.6l0.9-1.6h1.9l0.9,1.6L543.6,200.9z M543.8,197.5l0.9-1.5l0.9,1.5l-0.9,1.5
			L543.8,197.5z M543.6,197.4h-1.9l-0.9-1.6l0.9-1.6h1.9l0.9,1.6L543.6,197.4z M543.8,194.1l0.9-1.5l0.9,1.5l-0.9,1.5L543.8,194.1z
			 M543.6,194h-1.9l-0.9-1.6l0.9-1.6h1.9l0.9,1.6L543.6,194z M543.8,190.6l0.9-1.5l0.9,1.5l-0.9,1.5L543.8,190.6z M543.6,190.5h-1.9
			l-0.9-1.6l0.9-1.6h1.9l0.9,1.6L543.6,190.5z M543.8,187.2l0.9-1.5l0.9,1.5l-0.9,1.5L543.8,187.2z M543.6,187.1h-1.9l-0.9-1.6
			l0.9-1.6h1.9l0.9,1.6L543.6,187.1z M543.8,183.7l0.9-1.5l0.9,1.5l-0.9,1.5L543.8,183.7z M543.6,183.6h-1.9l-0.9-1.6l0.9-1.6h1.9
			l0.9,1.6L543.6,183.6z M543.8,180.3l0.9-1.5l0.9,1.5l-0.9,1.5L543.8,180.3z M543.6,180.2h-1.9l-0.9-1.6l0.9-1.6h1.9l0.9,1.6
			L543.6,180.2z M543.8,176.8l0.9-1.5l0.9,1.5l-0.9,1.5L543.8,176.8z M543.6,176.7h-1.9l-0.9-1.6l0.9-1.6h1.9l0.9,1.6L543.6,176.7z
			 M543.8,173.4l0.9-1.5l0.9,1.5l-0.9,1.5L543.8,173.4z M543.6,173.3h-1.9l-0.9-1.6l0.9-1.6h1.9l0.9,1.6L543.6,173.3z M543.8,169.9
			l0.9-1.5l0.9,1.5l-0.9,1.5L543.8,169.9z M543.6,169.8h-1.9l-0.9-1.6l0.9-1.6h1.9l0.9,1.6L543.6,169.8z M541.6,169.9l-0.9,1.5
			l-0.9-1.5l0.9-1.5L541.6,169.9z M539.7,169.8h-1.9l-0.9-1.6l0.9-1.6h1.9l0.9,1.6L539.7,169.8z M537.6,169.9l-0.9,1.5l-0.9-1.5
			l0.9-1.5L537.6,169.9z M532.8,175.5l0.8,1.4l-0.8,1.4V175.5z M532.8,178.9l0.8,1.4l-0.8,1.4V178.9z M532.8,182.4l0.8,1.4l-0.8,1.4
			V182.4z M532.8,185.8l0.8,1.4l-0.8,1.4V185.8z M532.8,189.3l0.8,1.4l-0.8,1.4V189.3z M532.8,192.7l0.8,1.4l-0.8,1.4V192.7z
			 M532.8,196.2l0.8,1.4l-0.8,1.4V196.2z M532.8,199.6l0.8,1.4l-0.8,1.4V199.6z M532.8,203.1l0.8,1.4l-0.8,1.4V203.1z M532.8,206.5
			l0.8,1.4l-0.8,1.4V206.5z M536.7,209.8l0.9,1.5l-0.9,1.5l-0.9-1.5L536.7,209.8z M537.8,211.4h1.9l0.9,1.6l-0.9,1.6h-1.9l-0.9-1.6
			L537.8,211.4z M539.8,211.3l0.9-1.5l0.9,1.5l-0.9,1.5L539.8,211.3z M541.8,211.4h1.9l0.9,1.6l-0.9,1.6h-1.9l-0.9-1.6L541.8,211.4z
			 M543.8,211.3l0.9-1.5l0.9,1.5l-0.9,1.5L543.8,211.3z M547.6,207.8h-1.9l-0.9-1.6l0.9-1.6h1.9l0.9,1.6L547.6,207.8z M547.6,204.3
			h-1.9l-0.9-1.6l0.9-1.6h1.9l0.9,1.6L547.6,204.3z M547.6,200.9h-1.9l-0.9-1.6l0.9-1.6h1.9l0.9,1.6L547.6,200.9z M547.6,197.4h-1.9
			l-0.9-1.6l0.9-1.6h1.9l0.9,1.6L547.6,197.4z M547.6,194h-1.9l-0.9-1.6l0.9-1.6h1.9l0.9,1.6L547.6,194z M547.6,190.5h-1.9l-0.9-1.6
			l0.9-1.6h1.9l0.9,1.6L547.6,190.5z M547.6,187.1h-1.9l-0.9-1.6l0.9-1.6h1.9l0.9,1.6L547.6,187.1z M547.6,183.6h-1.9l-0.9-1.6
			l0.9-1.6h1.9l0.9,1.6L547.6,183.6z M547.6,180.2h-1.9l-0.9-1.6l0.9-1.6h1.9l0.9,1.6L547.6,180.2z M547.6,176.7h-1.9l-0.9-1.6
			l0.9-1.6h1.9l0.9,1.6L547.6,176.7z M547.6,173.3h-1.9l-0.9-1.6l0.9-1.6h1.9l0.9,1.6L547.6,173.3z M547.6,169.8h-1.9l-0.9-1.6
			l0.9-1.6h1.9l0.9,1.6L547.6,169.8z M544.7,168l-0.9-1.6h1.8L544.7,168z M540.7,168l-0.9-1.6h1.8L540.7,168z M536.7,168l-0.9-1.6
			h1.8L536.7,168z M535.7,166.6l0.9,1.6l-0.9,1.6h-1.9l-0.9-1.6l0.9-1.6H535.7z M533.6,169.9l-0.8,1.4v-2.7L533.6,169.9z M454.7,223
			c-9.5-8.1-14.9-19.9-14.9-32.4c0-12.5,5.4-24.3,14.9-32.4V223z M456.3,226.4v-71.6V99h73.8v48.6h-23.8v86.2h23.8v48.6h-73.8V226.4
			z M530.2,149.1v83h-22.2v-83H530.2z M530.2,27.5v9.2c-4.8-0.6-8.6-4.4-9.2-9.2H530.2z M521,353.8c0.6-4.8,4.4-8.6,9.2-9.2v9.2H521
			z M532.8,210l0.8,1.4l-0.8,1.4V210z M533.8,211.4h1.9l0.9,1.6l-0.9,1.6h-1.9l-0.9-1.6L533.8,211.4z M536.7,213.2l0.9,1.6h-1.8
			L536.7,213.2z M540.7,213.2l0.9,1.6h-1.8L540.7,213.2z M544.7,213.2l0.9,1.6h-1.8L544.7,213.2z M545.7,214.7l-0.9-1.6l0.9-1.6h1.9
			l0.9,1.6l-0.9,1.6H545.7z M547.8,211.3l0.8-1.4v2.9L547.8,211.3z M547.8,207.9l0.8-1.4v2.9L547.8,207.9z M547.8,204.4l0.8-1.4v2.9
			L547.8,204.4z M547.8,201l0.8-1.4v2.9L547.8,201z M547.8,197.5l0.8-1.4v2.9L547.8,197.5z M547.8,194.1l0.8-1.4v2.9L547.8,194.1z
			 M547.8,190.6l0.8-1.4v2.9L547.8,190.6z M547.8,187.2l0.8-1.4v2.9L547.8,187.2z M547.8,183.7l0.8-1.4v2.9L547.8,183.7z
			 M547.8,180.3l0.8-1.4v2.9L547.8,180.3z M547.8,176.8l0.8-1.4v2.9L547.8,176.8z M547.8,173.4l0.8-1.4v2.9L547.8,173.4z
			 M547.8,169.9l0.8-1.4v2.9L547.8,169.9z M533.6,166.5l-0.8,1.4v-1.4H533.6z M39.2,168.1l-0.9-1.6h0.9V168.1z M24.1,166.5l-0.8,1.5
			v-1.5H24.1z M23.3,213.3l0.8,1.5h-0.8V213.3z M38.2,214.8l0.9-1.6v1.6H38.2z M532.8,213.4l0.8,1.4h-0.8V213.4z M547.8,214.8
			l0.8-1.5v1.5H547.8z"/>
	</g>
</g>
<rect x="-18.1" y="-17.1" class="st2" width="604" height="416"/>
</svg>
