<svg xmlns="http://www.w3.org/2000/svg" xmlns:xlink="http://www.w3.org/1999/xlink">	

	<symbol id="hedge-advantages01" role="img" aria-labelledby="hedge-advantages01_title" viewBox="-21 -22 682.66669 682">
        <title id="hedge-advantages01_title"></title>
        <path d="m640 472.65625-22.90625-17.753906c-2.949219-2.285156-16.722656-12.660156-35.984375-22.445313 3.574219-2.96875 7.011719-6.199219 10.25-9.742187 35.707031-39.007813 43.972656-101.882813 44.308594-104.542969l3.625-28.785156-27.6875.726562c3.390625-6.773437 6.199219-14.042969 8.136719-21.796875 12.882812-51.542968-10.03125-111.355468-11.007813-113.875l-10.449219-26.835937-25.058594 14.1875c-7.148437 4.046875-70.21875 41.09375-83.539062 94.371093-8.433594 33.730469 2.507812 67.105469 12.578125 88.367188-3.429687 2.808594-6.675781 5.835938-9.683594 9.121094-15.136719 16.539062-23.082031 36.730468-27.148437 55.226562-11.222656 39.730469-38.230469 68.515625-80.324219 85.574219-26.140625 10.597656-50.84375 13.546875-61.328125 14.351563-1.359375-.074219-2.726562-.117188-4.097656-.117188-1.308594 0-2.609375.039062-3.902344.101562-24.273438-1.886718-119.238281-14.90625-142.039062-102.914062l-.925782.238281c-4.1875-17.6875-11.976562-36.664062-26.171875-52.351562-2.714843-3.003907-5.628906-5.792969-8.699219-8.394531 10.175782-21.214844 21.515626-55.027344 12.972657-89.203126-13.316407-53.277343-76.390625-90.324218-83.539063-94.371093l-25.054687-14.1875-10.449219 26.835937c-.980469 2.519532-23.890625 62.332032-11.007812 113.875 1.941406 7.753906 4.75 15.023438 8.136718 21.800782l-27.949218-.742188 3.578124 28.761719c.328126 2.65625 8.496094 65.476562 43.769532 104.46875 3.269531 3.617187 6.738281 6.90625 10.347656 9.925781-19.1875 9.765625-32.898438 20.09375-35.84375 22.371094l-22.90625 17.753906 20.980469 19.988281c1.941406 1.84375 47.839843 45.066407 99.785156 53.289063-9.570313 16.546875-14.945313 30.382812-16.140625 33.59375l-10.128906 27.152344 28.363281 5.945312c1.460937.304688 21.296875 4.355469 46.96875 4.355469 20.644531 0 45.070313-2.625 66.734375-11.910157 5.71875-2.453124 11.0625-5.371093 16.050781-8.632812 12.210938 24.726562 37.679688 41.777344 67.070313 41.777344 29.511718 0 55.082031-17.199219 67.230468-42.09375 5.121094 3.382812 10.621094 6.417968 16.523438 8.949218 21.671875 9.292969 46.089844 11.910157 66.738281 11.910157 25.664063 0 45.503907-4.050781 46.964844-4.355469l28.363281-5.945312-10.128906-27.152344c-1.195312-3.210938-6.570312-17.046875-16.140625-33.59375 51.945313-8.222656 97.84375-51.445313 99.785156-53.289063zm-530.316406-105.457031c10.691406 11.816406 15.316406 29.125 17.050781 44-13.765625-3.3125-30.21875-9.703125-41.375-22.027344-10.867187-12.015625-18.523437-29.199219-23.570313-44.722656 17.710938 3.949219 37.230469 10.960937 47.894532 22.75zm419.660156.105469c2.65625-2.898438 5.871094-5.507813 9.476562-7.855469l8.480469-4.546875c.230469-.125.980469-.53125 2.152344-1.214844 9.101563-4.136719 19.335937-7.144531 29.027344-9.261719-4.871094 14.980469-12.460938 32.152344-23.886719 44.636719-11.472656 12.535156-28.441406 18.957031-42.519531 22.242188.324219-2.894532.769531-5.917969 1.355469-9 .367187-1.300782.734374-2.609376 1.078124-3.933594l-.234374-.058594c2.527343-10.9375 7.058593-22.25 15.070312-31.007812zm8.699219-119.054688c3.941406-15.773438 18.566406-31.652344 32.855469-43.78125 3.023437 16.390625 4.515624 35.648438.488281 51.761719-4.164063 16.667969-16.246094 30.445312-27.199219 40.011719-5.75-14.195313-10.117188-32.121094-6.144531-47.992188zm-468.335938-43.78125c14.292969 12.132812 28.917969 28.011719 32.855469 43.78125 3.96875 15.871094-.394531 33.800781-6.132812 47.988281-10.960938-9.578125-23.046876-23.367187-27.210938-40.007812-4.027344-16.113281-2.535156-35.375.488281-51.761719zm64.332031 259.351562c15.84375 2.386719 30.46875 12.875 41.3125 23.339844-1.167968.660156-2.320312 1.335938-3.453124 2.046875-12.34375 5.492188-27.71875 9.871094-42.851563 7.589844-16.253906-2.445313-33.308594-11.054687-47.214844-20 16.40625-8.289063 36.253907-15.375 52.207031-12.976563zm82.882813 95.4375c-15.125 6.484376-34.167969 8.152344-50.71875 7.859376 7.945313-13.054688 18.332031-26.539063 30.148437-34.414063 3.539063-1.679687 6.859376-3.390625 9.914063-5.070313 14.382813-5.253906 31.371094-3.933593 45.371094-.855468-7.65625 12.101562-19.183594 25.828125-34.714844 32.480468zm102.761719 29.113282c-13.746094 0-24.921875-11.175782-24.921875-24.921875 0-12.628907 9.449219-23.0625 21.640625-24.679688 1.117187.066407 2.03125.105469 2.742187.128907v.046874c.113281-.003906.410157-.007812.855469-.019531.445312.011719.742188.015625.855469.019531v-.046874c.605469-.019532 1.363281-.054688 2.265625-.101563 12.113281 1.683594 21.480468 12.082031 21.480468 24.652344 0 13.738281-11.179687 24.921875-24.917968 24.921875zm103.394531-29.113282c-15.542969-6.660156-27.078125-20.402343-34.738281-32.507812 13.457031-3.046875 30.449218-4.613281 45.378906.878906 3.0625 1.683594 6.390625 3.394532 9.933594 5.078125 11.835937 7.886719 22.230468 21.402344 30.179687 34.460938-16.488281.292969-35.519531-1.375-50.753906-7.910157zm87.875-62.460937c-15.128906 2.277344-30.507813-2.097656-42.84375-7.585937-1.136719-.707032-2.289063-1.390626-3.457031-2.046876 10.851562-10.476562 25.46875-20.957031 41.308594-23.34375 16.0625-2.417968 35.875 4.644532 52.304687 12.984376-13.859375 8.929687-30.917969 17.523437-47.3125 19.992187zm-214.945313-112.773437v-130.691407c-18.078124 12.476563-39.972656 19.800781-63.546874 19.800781v-49.84375c34.351562 0 62.300781-27.949218 62.300781-62.300781h49.839843v.214844h1.242188v222.820313zm-147.082031-249.148438-39.683593-30.15625c24.121093-31.742188 55.617187-58.03125 91.078124-76.019531 37.214844-18.878907 77.371094-28.449219 119.363282-28.449219 41.753906 0 83.339844 9.996094 120.261718 28.910156 35.703126 18.28125 67.304688 44.972656 91.390626 77.167969l-39.910157 29.855469c-40.921875-54.710938-103.519531-86.089844-171.742187-86.089844-67.578125 0-129.816406 30.898438-170.757813 84.78125zm0 0"/>
    </symbol>

    <symbol id="hedge-advantages02" role="img" aria-labelledby="hedge-advantages02_title" viewBox="0 0 512 512">
        <title id="hedge-advantages02_title"></title>
        <path d="M512,268.264c0-22.837-11.594-44.148-30.189-57.526c1.457-5.524,2.189-11.06,2.189-16.572
			c0-31.372-20.079-58.134-48.03-68.055c0.085-1.405,0.126-2.829,0.126-4.277c0-35.64-26.029-65.314-60.075-71.013
			c-3.487-11.727-9.869-22.391-18.7-31C344.1,6.933,326.584,0,308,0c-20.429,0-38.883,8.566-52,22.279
			C242.883,8.566,224.429,0,204,0c-18.584,0-36.1,6.933-49.321,19.822c-8.831,8.608-15.212,19.272-18.7,31
			c-0.532,0.089-1.057,0.201-1.585,0.302c-0.421,0.08-0.843,0.153-1.261,0.24c-0.802,0.168-1.596,0.358-2.388,0.552
			c-0.307,0.075-0.618,0.14-0.924,0.22c-1.094,0.284-2.178,0.592-3.252,0.925c-0.209,0.065-0.412,0.141-0.62,0.207
			c-0.861,0.276-1.717,0.562-2.564,0.869c-0.378,0.137-0.749,0.289-1.124,0.432c-0.669,0.256-1.336,0.513-1.995,0.788
			c-0.414,0.173-0.822,0.357-1.232,0.537c-0.611,0.269-1.22,0.54-1.822,0.825c-0.42,0.199-0.836,0.405-1.251,0.612
			c-0.581,0.289-1.159,0.584-1.731,0.888c-0.415,0.22-0.826,0.445-1.236,0.673c-0.565,0.314-1.123,0.637-1.678,0.966
			c-0.399,0.237-0.798,0.473-1.192,0.717c-0.56,0.347-1.112,0.705-1.662,1.067c-0.373,0.245-0.747,0.487-1.115,0.738
			c-0.575,0.394-1.14,0.802-1.703,1.212c-0.327,0.238-0.659,0.47-0.982,0.713c-0.666,0.502-1.319,1.022-1.967,1.546
			c-0.206,0.166-0.418,0.325-0.621,0.493c-0.845,0.699-1.673,1.417-2.484,2.153c-0.215,0.195-0.421,0.4-0.633,0.598
			c-0.592,0.549-1.18,1.102-1.753,1.671c-0.291,0.289-0.571,0.588-0.858,0.882c-0.48,0.493-0.959,0.987-1.425,1.494
			c-0.304,0.33-0.599,0.668-0.896,1.003c-0.432,0.488-0.861,0.978-1.281,1.478c-0.298,0.356-0.591,0.716-0.882,1.077
			c-0.402,0.498-0.798,1.001-1.187,1.51c-0.284,0.371-0.564,0.745-0.841,1.122c-0.381,0.519-0.753,1.044-1.12,1.574
			c-0.263,0.379-0.525,0.757-0.781,1.14c-0.367,0.552-0.722,1.112-1.075,1.675c-0.234,0.374-0.472,0.745-0.7,1.124
			c-0.368,0.612-0.72,1.235-1.07,1.859c-0.191,0.341-0.39,0.677-0.576,1.021c-0.441,0.816-0.861,1.643-1.271,2.477
			c-0.079,0.161-0.166,0.318-0.244,0.479c-0.481,0.998-0.937,2.009-1.373,3.032c-0.132,0.31-0.25,0.626-0.377,0.938
			c-0.294,0.719-0.586,1.44-0.857,2.171c-0.149,0.402-0.285,0.81-0.428,1.215c-0.229,0.653-0.456,1.306-0.667,1.967
			c-0.14,0.44-0.27,0.884-0.402,1.327c-0.19,0.639-0.375,1.279-0.548,1.925c-0.123,0.46-0.239,0.923-0.353,1.386
			c-0.158,0.643-0.308,1.288-0.448,1.938c-0.102,0.47-0.2,0.94-0.293,1.413c-0.129,0.659-0.245,1.322-0.356,1.987
			c-0.078,0.468-0.157,0.936-0.226,1.407c-0.101,0.694-0.185,1.393-0.267,2.093c-0.052,0.448-0.11,0.895-0.154,1.345
			c-0.075,0.775-0.128,1.556-0.178,2.338c-0.025,0.382-0.06,0.761-0.078,1.145c-0.057,1.168-0.089,2.342-0.089,3.524
			c0,1.131,0.034,2.258,0.086,3.382c0.008,0.173,0.014,0.347,0.024,0.52c0.009,0.176,0.013,0.354,0.024,0.53
			C48.079,136.16,28,162.862,28,194.167c0,5.512,0.733,11.048,2.189,16.572C11.594,224.116,0,245.426,0,268.264
			c0,17.098,6.233,33.342,17.117,46.13C6.23,327.083,0,343.333,0,360.573c0,35.194,25.385,64.572,58.804,70.788
			c5.246,34.574,35.169,61.152,71.185,61.152c7.09,0,14.083-1.029,20.768-3.027C164.098,504.297,183.264,512,204,512
			c20.429,0,38.883-8.566,52-22.279C269.117,503.434,287.571,512,308,512c20.736,0,39.902-7.703,53.244-22.514
			c6.685,1.999,13.678,3.027,20.768,3.027c35.865,0,65.689-26.357,71.118-60.72C486.583,425.568,512,396,512,360.573
			c0-17.24-6.23-33.49-17.117-46.179C505.767,301.605,512,285.361,512,268.264z M454.775,332.745
			c10.786,5.607,17.225,16.01,17.225,27.828c0,17.88-14.355,32.427-32,32.427c-17.645,0-32-14.355-32-32h-40
			c0,30.218,18.721,56.13,45.166,66.793c-3.305,14.148-16.014,24.721-31.155,24.721c-5.932,0-11.673-1.588-16.604-4.592
			L360.614,445h-18.876l-5.562,10.929C330.735,466.618,320.203,472,308,472c-17.645,0-32-13.355-32-31v-38.387l-44.393,54.54
			c-1.666,2.837-3.751,5.398-6.178,7.591l-0.749,0.92c-0.008-0.012-0.095-0.034-0.238-0.065C218.894,470.217,211.767,472,204,472
			c-12.203,0-22.735-5.382-28.175-16.071L170.263,445h-18.876l-4.794,2.921c-4.927,3.002-10.664,4.59-16.592,4.592v-0.461
			c-17.606,0-31.933-14.292-31.997-31.883c0.018-1.594,0.147-3.218,0.41-4.838l0.373-2.301
			c3.21-14.277,15.982-24.979,31.214-24.979v-40c-29.573,0-55.029,17.927-66.097,43.481C50.166,387.938,40,375.421,40,360.573
			c0-11.817,6.439-22.221,17.226-27.828L68,327.144v-25.051l-10.522-5.663C46.697,290.628,40,279.835,40,268.264
			c0-14.79,11.012-25.473,21.924-29.5L75,233.938v-20.102l-2.5-4.519c-3.028-5.473-4.5-10.429-4.5-15.151
			c0-13.985,9.021-25.894,21.546-30.237c13.091,18.097,34.365,29.904,58.358,29.904v-40c-17.645,0-32-14.355-32-32s14.355-32,32-32
			c0.729,0,1.569,0.039,2.569,0.117l9.559,0.754l12.546-13.322l0.393-7.309C173.898,52.834,187.238,40,204,40
			c17.645,0,32,14.189,32,31.834v39.051l46.302-58.096C288.139,44.934,297.484,40,308,40c16.762,0,30.102,12.834,31.029,30.074
			l0.393,7.309l12.546,13.323l9.56-0.754c1-0.079,1.84-0.117,2.569-0.117c17.645,0,32,14.355,32,32
			c0,3.979-0.678,7.052-2.501,11.339l-1.596,3.75V162h20c17.645,0,32,14.43,32,32.166c0,4.722-1.472,9.678-4.5,15.152l-2.5,4.519
			v20.101l13.076,4.826c10.913,4.027,21.924,14.711,21.924,29.5c0,11.572-6.697,22.365-17.478,28.166L444,302.092v25.051
			L454.775,332.745z"/>
		<path d="M308.967,77.745L117.485,318h115l-35.484,124.195L390.067,205H275.032L308.967,77.745z M305.933,245l-26.86,33h-78.558
			l26.301-33H305.933z"/>
    </symbol>

    <symbol id="hedge-advantages03" role="img" aria-labelledby="hedge-advantages03_title" viewBox="0 0 512 512">
        <title id="hedge-advantages03_title"></title>
        <path d="m512 236h-40.921875c-4.574219-50.144531-26.296875-96.691406-62.34375-132.734375-36.042969-36.046875-82.589844-57.769531-132.734375-62.34375v-40.921875h-40v40.921875c-50.144531 4.574219-96.691406 26.296875-132.734375 62.34375-36.046875 36.042969-57.769531 82.589844-62.34375 132.734375h-40.921875v40h40.921875c4.574219 50.144531 26.296875 96.691406 62.34375 132.734375 36.042969 36.046875 82.589844 57.769531 132.734375 62.34375v40.921875h40v-40.921875c50.144531-4.574219 96.6875-26.296875 132.734375-62.34375 36.042969-36.042969 57.769531-82.589844 62.34375-132.734375h40.921875zm-236 194.855469v-37.855469h-40v37.855469c-81.097656-9.214844-145.640625-73.757813-154.855469-154.855469h38.855469v-40h-38.855469c9.214844-81.097656 73.757813-145.640625 154.855469-154.855469v38.855469h40v-38.855469c81.097656 9.214844 145.640625 73.757813 154.855469 154.855469h-38.855469v40h38.855469c-9.214844 81.097656-73.757813 145.640625-154.855469 154.855469zm28.816406-167.035157c7.03125-9.828124 11.183594-21.84375 11.183594-34.820312 0-33.085938-26.914062-60-60-60s-60 26.914062-60 60c0 12.976562 4.152344 24.992188 11.183594 34.820312-23.609375 15.796876-39.183594 42.703126-39.183594 73.179688h40c0-26.46875 21.53125-48 48-48s48 21.53125 48 48h40c0-30.476562-15.574219-57.382812-39.183594-73.179688zm-68.816406-34.820312c0-11.027344 8.972656-20 20-20s20 8.972656 20 20-8.972656 20-20 20-20-8.972656-20-20zm0 0"/>
    </symbol>

    <symbol id="hedge-advantages04" role="img" aria-labelledby="hedge-advantages04_title" viewBox="0 0 512 512">
        <title id="hedge-advantages04_title"></title>
        <polygon points="275.939,161.021 235.948,161.021 235.948,275.996 350.923,275.996 350.923,236.004 304.356,236.004 512,29.222 
			483.78,0.885 275.939,207.864 			"/>
		<path d="M159.965,256c0,52.923,43.055,95.979,95.979,95.979c30.243,0,57.258-14.065,74.864-35.992h-64.867
			c-16.273,0-31.237-5.57-43.123-14.886c-4.57-3.365-8.61-7.405-11.975-11.975c-9.316-11.886-14.886-26.85-14.886-43.123v-64.867
			C174.03,198.742,159.965,225.758,159.965,256z"/>
		<path d="M445.234,152.15c16.984,30.833,26.662,66.231,26.662,103.85c0,119.077-96.876,215.952-215.952,215.952
			S39.991,375.077,39.991,256S136.867,40.048,255.944,40.048c37.937,0,73.612,9.846,104.627,27.097l29.403-29.281
			C350.062,13.24,304.019,0.057,255.944,0.057c-68.365,0-132.638,26.623-180.98,74.964C26.623,123.362,0,187.636,0,256
			s26.623,132.638,74.963,180.98c48.341,48.341,112.615,74.963,180.98,74.963s132.638-26.623,180.98-74.963
			c48.341-48.342,74.964-112.615,74.964-180.98c0-47.714-12.983-93.426-37.252-133.13L445.234,152.15z"/>
		<path d="M300.077,127.387l30.731-30.603c-22.73-10.732-48.106-16.745-74.864-16.745c-97.026,0-175.961,78.936-175.961,175.961
			s78.936,175.961,175.961,175.961S431.905,353.026,431.905,256c0-26.5-5.9-51.645-16.437-74.207l-30.726,30.598
			c4.65,13.694,7.172,28.362,7.172,43.608c0,74.973-60.996,135.97-135.97,135.97S119.974,330.974,119.974,256
			c0-74.973,60.996-135.97,135.97-135.97C271.385,120.03,286.232,122.623,300.077,127.387z"/>
    </symbol>

    <symbol id="hedge-advantages05" role="img" aria-labelledby="hedge-advantages05_title" viewBox="-6 -23 526 526">
        <title id="hedge-advantages05_title"></title>
        <path d="m470.082031 211.183594v-45.507813c0-91.351562-73.820312-165.675781-164.625-165.675781-10.863281 0-87.59375 0-99.289062 0-90.566407 0-164.25 74.324219-164.25 165.675781v45.503907l-40.777344 98.476562c-1.914063 4.621094-1.394531 9.890625 1.382813 14.046875 2.777343 4.15625 7.449218 6.652344 12.449218 6.652344h45.910156v74.855469c0 8.265624 6.703126 14.96875 14.96875 14.96875h44.914063v75.851562c0 8.269531 6.703125 14.972656 14.96875 14.972656h240.53125c8.269531 0 14.96875-6.703125 14.96875-14.972656v-75.851562h44.914063c8.269531 0 14.972656-6.703126 14.972656-14.96875v-74.855469h45.910156c4.996094 0 9.664062-2.496094 12.445312-6.648438 2.777344-4.15625 3.296876-9.425781 1.386719-14.042969zm-229.53125 151.328125v.007812c-.015625.261719-.019531.519531-.019531.78125v117.761719h-89.824219v-75.851562c0-8.269532-6.703125-14.972657-14.972656-14.972657h-44.910156v-74.855469c0-8.265624-6.703125-14.96875-14.972657-14.96875h-38.476562l33.347656-80.527343c.75-1.816407 1.136719-3.765625 1.136719-5.730469v-48.480469c0-74.84375 60.25-135.734375 134.308594-135.734375h34.363281v92.71875c-4.851562-1.25-9.878906-1.894531-14.972656-1.894531-33.019532 0-59.882813 26.863281-59.882813 59.882813 0 33.019531 26.863281 59.882812 59.882813 59.882812 5.09375 0 10.121094-.644531 14.972656-1.894531v58.8125c0 5.953125 3.53125 11.34375 8.988281 13.722656s11.808594 1.296875 16.171875-2.753906c5.554688-5.160157 12.789063-8.003907 20.375-8.003907 16.714844 0 30.316406 13.433594 30.316406 29.941407 0 16.511719-13.601562 29.941406-30.316406 29.941406-7.578125 0-14.808594-2.835937-20.359375-7.984375-9.289062-8.667969-24.527343-2.460938-25.15625 10.195312zm195.597657-62.097657c-8.269532 0-14.96875 6.703126-14.96875 14.96875v74.855469h-44.914063c-8.269531 0-14.972656 6.703125-14.972656 14.972657v75.851562h-90.820313v-92.878906c5.035156 1.355468 10.269532 2.054687 15.59375 2.054687 33.226563 0 60.257813-26.863281 60.257813-59.882812s-27.03125-59.882813-60.257813-59.882813c-5.324218 0-10.558594.699219-15.59375 2.054688v-58.402344c0-5.90625-3.472656-11.257812-8.859375-13.667969-5.394531-2.410156-11.695312-1.425781-16.09375 2.511719-5.492187 4.914062-12.578125 7.621094-19.957031 7.621094-16.511719 0-29.941406-13.433594-29.941406-29.941406 0-16.511719 13.429687-29.941407 29.941406-29.941407 7.378906 0 14.464844 2.707031 19.957031 7.621094 4.398438 3.9375 10.703125 4.921875 16.09375 2.511719 5.386719-2.410156 8.859375-7.765625 8.859375-13.667969v-117.230469h34.984375c74.296875 0 134.738281 60.890625 134.738281 135.734375v48.480469c0 1.964844.386719 3.910156 1.136719 5.722656l33.304688 80.535156zm0 0"/>
    </symbol>

    <symbol id="hedge-advantages06" role="img" aria-labelledby="hedge-advantages06_title" viewBox="0 0 512 512">
        <title id="hedge-advantages06_title"></title>
        <path d="m45 192h-45v-40h45zm-26.574219 79 17.992188 35.726562 42.441406-21.371093-17.992187-35.726563zm59.433594-215.40625-41.441406-20.871094-17.992188 35.726563 41.441407 20.867187zm415.714844 14.855469-17.992188-35.726563-41.441406 20.871094 17.992187 35.722656zm-236.574219 49.550781c28.121094 0 51 22.878906 51 51h40c0-50.179688-40.820312-91-91-91zm210 32v40h45v-40zm9.132812 221h35.867188v40h-35.867188c-1.894531 7.328125-4.816406 14.242188-8.582031 20.605469l25.394531 25.394531-28.285156 28.285156-25.394531-25.394531c-6.261719 3.703125-13.0625 6.585937-20.265625 8.480469v35.628906h-40v-35.453125c-7.453125-1.890625-14.484375-4.835937-20.941406-8.65625l-25.394532 25.394531-28.285156-28.285156 25.394532-25.394531c-3.765626-6.363281-6.6875-13.277344-8.578126-20.605469h-36.195312v-40h36.195312c1.890626-7.328125 4.8125-14.246094 8.578126-20.605469l-25.394532-25.394531 28.285156-28.285156 25.394532 25.394531c6.457031-3.820313 13.488281-6.765625 20.941406-8.65625v-35.453125h40v35.628906c7.203125 1.894532 14.003906 4.777344 20.265625 8.480469l25.394531-25.394531 28.285156 28.285156-25.394531 25.394531c3.765625 6.363281 6.6875 13.277344 8.582031 20.605469zm-77.472656 60c22.058594 0 40-17.945312 40-40s-17.941406-40-40-40c-8.585937 0-16.542968 2.730469-23.066406 7.355469l-9.578125 9.574219c-4.625 6.523437-7.355469 14.480468-7.355469 23.070312 0 22.054688 17.945313 40 40 40zm-131.300781 39h-30.472656c-11.027344 0-20-8.972656-20-20v-39h29.113281v-40h-31.433594c-6.480468-35.558594-25.5-60.585938-44.007812-84.941406-23.851563-31.386719-46.386719-61.042969-46.558594-116.566406.273438-72.554688 59.382812-131.492188 132-131.492188s131.726562 58.9375 132 131.492188c-.09375 30.171874-6.796875 52.695312-16.71875 72.019531 8.988281-1.644531 18.253906-2.511719 27.71875-2.511719 5.660156 0 11.242188.316406 16.742188.914062 7.339843-19.453124 12.128906-42.183593 12.253906-69.914062l.003906-1.144531h-.003906c-.617188-94.316407-77.535156-170.855469-171.996094-170.855469s-171.378906 76.539062-171.996094 170.855469l-.003906 1.144531h.003906c.316406 68.6875 29.203125 106.699219 54.707032 140.261719 21.328124 28.070312 38.289062 50.242187 38.289062 87.148437v52.589844c0 33.085938 26.804688 60 59.890625 60h38.222656c7.667969 0 15-1.460938 21.746094-4.097656-11.558594-10.371094-21.523437-22.472656-29.5-35.902344zm0 0"/>
    </symbol>

    <symbol id="hedge-diaclaimer" role="img" aria-labelledby="hedge-diaclaimer_title" viewBox="0 0 512 512">
        <title id="hedge-diaclaimer_title"></title>
        <path d="m468.023438 256 43.976562-68.59375-72.378906-37.417969 3.785156-81.394531-81.394531 3.785156-37.417969-72.378906-68.59375 43.976562-68.59375-43.976562-37.417969 72.378906-81.394531-3.785156 3.785156 81.394531-72.378906 37.417969 43.976562 68.59375-43.976562 68.59375 72.378906 37.417969-3.785156 81.394531 81.394531-3.785156 37.417969 72.378906 68.59375-43.976562 68.59375 43.976562 37.417969-72.378906 81.394531 3.785156-3.785156-81.394531 72.378906-37.417969zm-13.574219 53.175781-56.109375 29.003907 2.933594 63.09375-63.09375-2.933594-29.003907 56.109375-53.175781-34.089844-53.175781 34.089844-29.003907-56.109375-63.09375 2.933594 2.933594-63.09375-56.109375-29.003907 34.089844-53.175781-34.089844-53.175781 56.109375-29.003907-2.933594-63.09375 63.09375 2.933594 29.003907-56.109375 53.175781 34.089844 53.175781-34.089844 29.003907 56.109375 63.09375-2.933594-2.933594 63.09375 56.109375 29.003907-34.089844 53.175781zm-218.511719-177.070312h40.125v166.53125h-40.125zm0 206.660156h40.125v40.125h-40.125zm0 0"/>
    </symbol>
    
</svg>