<svg xmlns="http://www.w3.org/2000/svg" xmlns:xlink="http://www.w3.org/1999/xlink">

	<symbol id="services01" role="img" aria-labelledby="services01_title" viewBox="0 0 64 64">
        <title id="services01_title"></title>
        <path d="M52,8H8A1,1,0,0,0,7,9V33a1,1,0,0,0,2,0V10H51V60H9V38.13a1,1,0,0,0-2,0V61a1,1,0,0,0,1,1H52a1,1,0,0,0,1-1V9A1,1,0,0,0,52,8Z"/>
        <path d="M29,43H17a1,1,0,0,0-1,1v4H13a1,1,0,0,0-1,1v8a1,1,0,0,0,1,1h8a1,1,0,0,0,1-1V49a1,1,0,0,0-1-1H18V45H29v3H26a1,1,0,0,0-1,1v8a1,1,0,0,0,1,1h8a1,1,0,0,0,1-1V49a1,1,0,0,0-1-1H31V45H42v3H39a1,1,0,0,0-1,1v8a1,1,0,0,0,1,1h8a1,1,0,0,0,1-1V55a1,1,0,0,0-2,0v1H40V50h6v1a1,1,0,0,0,2,0V49a1,1,0,0,0-1-1H44V44a1,1,0,0,0-1-1H31V40s0-.06,0-.1A5,5,0,0,0,34.9,36H35a3,3,0,0,0,0-6H33V23.62l1.45-.73A1,1,0,0,0,35,22V19a1,1,0,0,0-1.24-1L30,19,26.24,18A1,1,0,0,0,25,19v3a1,1,0,0,0,.55.89l1.45.73V27a1,1,0,0,0,2,0V23a1,1,0,0,0-.55-.89L27,21.38v-1.1l2.76.69a1,1,0,0,0,.48,0L33,20.28v1.1l-1.45.73A1,1,0,0,0,31,23v7H26V27.24a1,1,0,0,0-.37-.78,7,7,0,1,1,8.74,0,1,1,0,0,0-.15,1.41,1,1,0,0,0,1.41.15A9,9,0,1,0,24,27.7v2.48A3,3,0,0,0,25,36h.1A5,5,0,0,0,29,39.9s0,.06,0,.1ZM20,56H14V50h6Zm13,0H27V50h6ZM24,33a1,1,0,0,1,1-1H35a1,1,0,0,1,0,2H25A1,1,0,0,1,24,33Zm3.17,3h5.66a3,3,0,0,1-5.66,0Z"/>
        <path d="M48,17a1,1,0,0,0,0-2H42a1,1,0,0,0-1,1v4a1,1,0,0,0,1,1h6a1,1,0,0,0,0-2H43V17Z"/>
        <path d="M48,23H44a1,1,0,0,0,0,2h4a1,1,0,0,0,0-2Z"/>
        <path d="M48,27H46a1,1,0,0,0,0,2h2a1,1,0,0,0,0-2Z"/>
        <path d="M16,15H12a1,1,0,0,0,0,2h4a1,1,0,0,0,0-2Z"/>
        <path d="M12,22h3a1,1,0,0,0,0-2H12a1,1,0,0,0,0,2Z"/>
        <path d="M58,2H14a1,1,0,0,0-1,1V5a1,1,0,0,0,2,0V4H57V54H56a1,1,0,0,0,0,2h2a1,1,0,0,0,1-1V3A1,1,0,0,0,58,2Z"/>
    </symbol>

    <symbol id="services02" role="img" aria-labelledby="services02_title" viewBox="0 0 64 64">
        <title id="services02_title"></title>
        <path d="M27.63,31.46a7,7,0,1,1,8.74,0A1,1,0,1,0,37.63,33,9,9,0,1,0,26,32.7v2.48A3,3,0,0,0,27,41h.1a5,5,0,0,0,9.8,0H37a3,3,0,0,0,0-6H35V28.62l1.45-.73A1,1,0,0,0,37,27V24a1,1,0,0,0-1.24-1L32,24,28.24,23a1,1,0,0,0-.86.18A1,1,0,0,0,27,24v3a1,1,0,0,0,.55.89l1.45.73V32a1,1,0,0,0,2,0V28a1,1,0,0,0-.55-.89L29,26.38v-1.1l2.76.69a1,1,0,0,0,.48,0L35,25.28v1.1l-1.45.73A1,1,0,0,0,33,28v7H28V32.24A1,1,0,0,0,27.63,31.46ZM32,43a3,3,0,0,1-2.83-2h5.66A3,3,0,0,1,32,43Zm6-5a1,1,0,0,1-1,1H27a1,1,0,0,1,0-2H37A1,1,0,0,1,38,38Z"/>
        <path d="M53.94,21.35a1,1,0,0,0-.29-1.11l-21-18a1,1,0,0,0-1.3,0l-21,18A1,1,0,0,0,11,22h7V61a1,1,0,0,0,2,0V21a1,1,0,0,0-1-1H13.7L32,4.32,50.3,20H45a1,1,0,0,0-1,1V61a1,1,0,0,0,2,0V22h7A1,1,0,0,0,53.94,21.35Z"/>
        <path d="M11,36h4a1,1,0,0,0,0-2H12V32a1,1,0,0,0-1.66-.75l-8,7a1,1,0,0,0,0,1.5l8,7a1,1,0,0,0,1.07.16A1,1,0,0,0,12,46V44h3a1,1,0,0,0,0-2H11a1,1,0,0,0-1,1v.8L4.52,39,10,34.2V35A1,1,0,0,0,11,36Z"/>
        <path d="M3,12H5V31.38a1,1,0,0,0,2,0V11a1,1,0,0,0-1-1H5L9,4.67,13,10H12a1,1,0,0,0-1,1v4.14a1,1,0,0,0,2,0V12h2a1,1,0,0,0,.89-.55,1,1,0,0,0-.09-1l-6-8a1,1,0,0,0-1.6,0l-6,8a1,1,0,0,0-.09,1A1,1,0,0,0,3,12Z"/>
        <path d="M12,29a1,1,0,0,0,1-1V25a1,1,0,0,0-2,0v3A1,1,0,0,0,12,29Z"/>
        <path d="M15,51H13V50a1,1,0,0,0-2,0v1a2,2,0,0,0,2,2h2a1,1,0,0,0,0-2Z"/>
        <path d="M15,57H12a5,5,0,0,1-5-5V47.63a1,1,0,0,0-2,0V52a7,7,0,0,0,7,7h3a1,1,0,0,0,0-2Z"/>
        <path d="M54.75,36.34a1,1,0,0,0-1.5,0l-7,8A1,1,0,0,0,47,46h2V61a1,1,0,0,0,2,0V45a1,1,0,0,0-1-1h-.8L54,38.52,58.8,44H58a1,1,0,0,0-1,1V61a1,1,0,0,0,2,0V46h2a1,1,0,0,0,.75-1.66Z"/><path d="M49,10h2v5a1,1,0,0,0,2,0V9a1,1,0,0,0-1-1h-.59L55,4.41,58.59,8H58a1,1,0,0,0-1,1v6a1,1,0,0,0,2,0V10h2a1,1,0,0,0,.92-.62,1,1,0,0,0-.21-1.09l-6-6a1,1,0,0,0-1.42,0l-6,6a1,1,0,0,0-.21,1.09A1,1,0,0,0,49,10Z"/>
        <path d="M59,21a1,1,0,0,0-2,0v5a1,1,0,0,0,2,0Z"/>
        <path d="M50,25v7a1,1,0,0,0,2,0V25a1,1,0,0,0-2,0Z"/>
        <circle cx="58" cy="30" r="1"/>
        <path d="M38,46a1,1,0,0,0-1,1v4a1,1,0,0,0,2,0V47A1,1,0,0,0,38,46Z"/>
        <circle cx="38" cy="55" r="1"/>
        <path d="M26,45a1,1,0,0,0-1,1v4a1,1,0,0,0,2,0V46A1,1,0,0,0,26,45Z"/>
        <circle cx="32" cy="56" r="1"/>
        <path d="M32,48a1,1,0,0,0-1,1v3a1,1,0,0,0,2,0V49A1,1,0,0,0,32,48Z"/>
        <path d="M26,53a1,1,0,0,0-1,1v2a1,1,0,0,0,2,0V54A1,1,0,0,0,26,53Z"/>
    </symbol>

    <symbol id="services03" role="img" aria-labelledby="services03_title" viewBox="0 0 64 64">
        <title id="services03_title"></title>
        <path d="M22.15,31a3,3,0,0,0-2.59,1.5L18.3,34.67h0l-2.71,4.7A4.48,4.48,0,0,0,15,41.58,4.42,4.42,0,0,0,19.42,46H27a3,3,0,0,0,2.23-1h5.54A3,3,0,0,0,37,46h7.58A4.42,4.42,0,0,0,49,41.58a4.48,4.48,0,0,0-.59-2.21l-2.71-4.7h0L44.44,32.5A3,3,0,0,0,41.85,31H36.46a6,6,0,0,0,1.45-3H39a3,3,0,0,0,3-3V23a9,9,0,0,0-9-9H31a9,9,0,0,0-9,9v2a3,3,0,0,0,3,3h1.09a6,6,0,0,0,1.45,3Zm5.61,12.65A1,1,0,0,1,27,44H19.42A2.43,2.43,0,0,1,17,41.58a2.32,2.32,0,0,1,.33-1.21l2.05-3.57,1.47,1.46L19.56,40.5a1,1,0,0,0,.86,1.5h6.47a1.09,1.09,0,0,1,1.1.83A1,1,0,0,1,27.76,43.65ZM34,43H30V38h4Zm13-1.42A2.43,2.43,0,0,1,44.58,44H37a1,1,0,0,1-.76-.35,1,1,0,0,1-.23-.82,1.09,1.09,0,0,1,1.1-.83h6.47a1,1,0,0,0,.86-1.5l-1.29-2.24,1.47-1.46,2.05,3.57A2.32,2.32,0,0,1,47,41.58ZM41.85,33a1,1,0,0,1,.86.5L43.58,35l-1.46,1.46-.56-1a1,1,0,0,0-.87-.5H39a1,1,0,0,0-1,1v1a1,1,0,0,0,2,0h.11l1.73,3H37.11a3.17,3.17,0,0,0-1.11.2V37a1,1,0,0,0-1-1H29a1,1,0,0,0-1,1v3.2a3.17,3.17,0,0,0-1.11-.2H22.16l1.73-3H24a1,1,0,0,0,2,0V36a1,1,0,0,0-1-1H23.31a1,1,0,0,0-.87.5l-.56,1L20.42,35l.87-1.51a1,1,0,0,1,.86-.5ZM28,27V23h5a1,1,0,0,0,0-2H27a1,1,0,0,0-1,1v4H25a1,1,0,0,1-1-1V23a7,7,0,0,1,7-7h2a7,7,0,0,1,7,7v2a1,1,0,0,1-1,1H38V22a1,1,0,0,0-2,0v5a4,4,0,0,1-8,0Z"/>
        <path d="M27,47a1,1,0,0,0,0,2H37a1,1,0,0,0,0-2Z"/>
        <path d="M61,31H60A28,28,0,0,0,33,4V3a1,1,0,0,0-2,0V4a28,28,0,0,0-9.58,2.05,1,1,0,0,0-.55,1.3,1,1,0,0,0,1.31.55A26,26,0,0,1,31,6v2A23.92,23.92,0,0,0,8.7,26.24a1,1,0,0,0,1.94.48A21.9,21.9,0,0,1,31,10.06V11a1,1,0,0,0,2,0v-.94A21.84,21.84,0,0,1,53.94,31H53a1,1,0,0,0,0,2h.94a21.92,21.92,0,0,1-6.38,14.56,23,23,0,0,1-2.18,1.9,1,1,0,1,0,1.22,1.59A24.33,24.33,0,0,0,49,49a23.89,23.89,0,0,0,7-16h2A26,26,0,0,1,33,58V56a23.94,23.94,0,0,0,8.39-1.9,1,1,0,1,0-.78-1.84A22,22,0,0,1,33,54V53a1,1,0,0,0-2,0v1A22,22,0,0,1,10.05,33H11a1,1,0,0,0,0-2H6A26.21,26.21,0,0,1,16.59,11.05a1,1,0,0,0-1.18-1.61A29.18,29.18,0,0,0,12.2,12.2,27.82,27.82,0,0,0,4,31H3a1,1,0,0,0,0,2H4A28,28,0,0,0,31,60v1a1,1,0,0,0,2,0V60A28,28,0,0,0,60,33h1a1,1,0,0,0,0-2ZM13.62,50.38A25.79,25.79,0,0,1,6,33H8A24,24,0,0,0,31,56v2A25.79,25.79,0,0,1,13.62,50.38ZM49,15a23.84,23.84,0,0,0-16-7V6A26,26,0,0,1,58,31h-2A23.89,23.89,0,0,0,49,15Z"/>
    </symbol>

    <symbol id="services04" role="img" aria-labelledby="services04_title" viewBox="0 0 64 64">
        <title id="services04_title"></title>
        <circle cx="24" cy="44" r="1"/><circle cx="20" cy="44" r="1"/>
        <path d="M46,40H43V35a3,3,0,0,0-3-3H39a3,3,0,0,0-3,3v2.46L30.7,41H29V40a1,1,0,0,0-1-1H16a1,1,0,0,0,0,2H27V55H16a1,1,0,0,0,0,2H28a1,1,0,0,0,1-1V43h2a1,1,0,0,0,.55-.17l6-4A1,1,0,0,0,38,38V35a1,1,0,0,1,1-1h1a1,1,0,0,1,1,1v6a1,1,0,0,0,1,1h4a1,1,0,0,1,0,2H43a1,1,0,0,0,0,2h3a1,1,0,0,1,0,2H43a1,1,0,0,0,0,2h3a1,1,0,0,1,0,2H43a1,1,0,0,0,0,2h3a1,1,0,0,1,0,2H37.24l-4.79-2.39a1,1,0,0,0-.9,1.78l5,2.5A1,1,0,0,0,37,58h9a3,3,0,0,0,3-3,3,3,0,0,0-.77-2,3,3,0,0,0,0-4,3,3,0,0,0,0-4A3,3,0,0,0,49,43,3,3,0,0,0,46,40Z"/>
        <path d="M50.5,36V35h1a1,1,0,0,0,0-2h-1V32a1,1,0,0,0-2,0v1h-1a1,1,0,0,0,0,2h1v1a1,1,0,0,0,2,0Z"/>
        <path d="M42,23a1,1,0,0,0-1,1v1H40a1,1,0,0,0,0,2h1v1a1,1,0,0,0,2,0V27h1a1,1,0,0,0,0-2H43V24A1,1,0,0,0,42,23Z"/>
        <path d="M29.5,29a1,1,0,0,0-1,1v1h-1a1,1,0,0,0,0,2h1v1a1,1,0,0,0,2,0V33h1a1,1,0,0,0,0-2h-1V30A1,1,0,0,0,29.5,29Z"/>
        <path d="M61,27a1,1,0,0,0,1-1V3a1,1,0,0,0-1-1H3A1,1,0,0,0,2,3V61a1,1,0,0,0,1,1H61a1,1,0,0,0,1-1V33a1,1,0,0,0-2,0V60H4V4H39V18H25V7a1,1,0,0,0-2,0V19a1,1,0,0,0,1,1H40a1,1,0,0,0,1-1V4H60V26A1,1,0,0,0,61,27Z"/>
        <path d="M8,21h8a1,1,0,0,0,0-2H8a1,1,0,0,0,0,2Z"/>
        <path d="M8,26h6a1,1,0,0,0,0-2H8a1,1,0,0,0,0,2Z"/>
    </symbol>

    <symbol id="services05" role="img" aria-labelledby="services05_title" viewBox="0 0 64 64">
        <title id="services05_title"></title>
        <path d="M52,35H49a16.59,16.59,0,0,0-.73-1.75l2.14-2.15a1,1,0,0,0,.3-.71,1,1,0,0,0-.3-.7l-4.14-4.15a1,1,0,0,0-1.41,0,1,1,0,0,0,0,1.42l3.43,3.43-1.95,2a1,1,0,0,0-.17,1.18,15.75,15.75,0,0,1,1.15,2.77,1,1,0,0,0,1,.71H51v8H48.25a1,1,0,0,0-1,.71,15.75,15.75,0,0,1-1.15,2.77,1,1,0,0,0,.17,1.18l1.95,2-5.65,5.65-2-1.95a1,1,0,0,0-1.18-.17,15.75,15.75,0,0,1-2.77,1.15,1,1,0,0,0-.71,1V60H28V57.25a1,1,0,0,0-.71-1,15.75,15.75,0,0,1-2.77-1.15,1,1,0,0,0-1.18.17l-1.95,1.95-5.65-5.65,2-2a1,1,0,0,0,.17-1.18,15.75,15.75,0,0,1-1.15-2.77,1,1,0,0,0-1-.71H13V37h2.75a1,1,0,0,0,1-.71,15.75,15.75,0,0,1,1.15-2.77,1,1,0,0,0-.17-1.18l-2-2L19.17,27a1,1,0,0,0,0-1.42,1,1,0,0,0-1.41,0l-4.14,4.15a1,1,0,0,0-.3.7,1,1,0,0,0,.3.71l2.14,2.15A16.59,16.59,0,0,0,15,35H12a1,1,0,0,0-1,1V46a1,1,0,0,0,1,1h3a17.68,17.68,0,0,0,.73,1.76L13.62,50.9a1,1,0,0,0-.3.71,1,1,0,0,0,.3.7l7.07,7.07a1,1,0,0,0,1.41,0l2.15-2.14A16.59,16.59,0,0,0,26,58v3a1,1,0,0,0,1,1H37a1,1,0,0,0,1-1V58a16.59,16.59,0,0,0,1.75-.73l2.15,2.14a1,1,0,0,0,1.41,0l7.07-7.07a1,1,0,0,0,.3-.7,1,1,0,0,0-.3-.71l-2.14-2.14A17.68,17.68,0,0,0,49,47h3a1,1,0,0,0,1-1V36A1,1,0,0,0,52,35Z"/>
        <path d="M45.77,7.65a1,1,0,0,0,1.36-.36l.38-.66,1.17.68a1,1,0,0,0,1.15-.11,4.87,4.87,0,0,1,1.58-.91,1,1,0,0,0,.66-.94V4h2V5.35a1,1,0,0,0,.67.94,5.09,5.09,0,0,1,1.58.91,1,1,0,0,0,1.15.11l1.16-.68,1,1.74L58.47,9A1,1,0,0,0,58,10.09a4.65,4.65,0,0,1,0,1.82A1,1,0,0,0,58.47,13l1.16.67-1,1.74-1.16-.68a1,1,0,0,0-1.15.11,5.09,5.09,0,0,1-1.58.91,1,1,0,0,0-.67.94V18h-2V16.65a1,1,0,0,0-.66-.94,4.87,4.87,0,0,1-1.58-.91,1,1,0,1,0-1.3,1.52,7,7,0,0,0,1.54,1V19a1,1,0,0,0,1,1h4a1,1,0,0,0,1-1V17.32a6.62,6.62,0,0,0,1-.56l1.46.84a1,1,0,0,0,1.37-.37l2-3.46a1,1,0,0,0-.37-1.37l-1.45-.84c0-.19,0-.37,0-.56s0-.37,0-.56L61.5,9.6a1,1,0,0,0,.37-1.37l-2-3.46A1,1,0,0,0,58.5,4.4L57,5.24a6.62,6.62,0,0,0-1-.56V3a1,1,0,0,0-1-1h-4a1,1,0,0,0-1,1V4.68a7.18,7.18,0,0,0-1,.56L47.64,4.4a1,1,0,0,0-1.36.37L45.4,6.29A1,1,0,0,0,45.77,7.65Z"/>
        <path d="M53.07,10a1,1,0,0,1,1,1,1,1,0,0,0,2,0,3,3,0,1,0-3,3,1,1,0,0,0,0-2,1,1,0,1,1,0-2Z"/>
        <path d="M23,26.71V30a1,1,0,0,0,2,0V26.23a1,1,0,0,0-.38-.78,12,12,0,1,1,14.76,0,1,1,0,0,0-.38.78V33H29V20a1,1,0,0,0-.45-.83L26,17.46V14h2.36l3,2.73a1,1,0,0,0,1.39,0L35.41,14H38v3.46l-2.55,1.71A1,1,0,0,0,35,20v8a1,1,0,0,0,2,0V20.54l2.55-1.71A1,1,0,0,0,40,18V13a1,1,0,0,0-1-1H35a1,1,0,0,0-.71.29L32,14.61l-2.54-2.34a1,1,0,0,0-.68-.27H25a1,1,0,0,0-1,1v5a1,1,0,0,0,.45.83L27,20.54V33H24a3,3,0,0,0-3,3,3,3,0,0,0,.78,2A3,3,0,0,0,21,40a3,3,0,0,0,3,3h1.08a7,7,0,0,0,13.84,0H40a1,1,0,0,0,0-2H24a1,1,0,0,1,0-2H40a3,3,0,0,0,1-5.82V26.71a14,14,0,1,0-18,0ZM36.9,43a5,5,0,0,1-9.8,0ZM40,37H24a1,1,0,0,1,0-2H40a1,1,0,0,1,0,2Z"/>
        <path d="M11.5,29.6a1,1,0,0,0,.37-1.37l-1.5-2.6L11.53,25A1,1,0,0,0,12,23.91a4.65,4.65,0,0,1,0-1.82A1,1,0,0,0,11.53,21l-1.16-.67,1-1.74,1.16.68a1,1,0,0,0,1.15-.11,5.09,5.09,0,0,1,1.58-.91,1,1,0,0,0,.67-.94v-1A1.11,1.11,0,0,0,16,16c0-.22,0-.44,0-.66l0-.28a1,1,0,0,0-.27-.75,1,1,0,0,0-.73-.31h-.12a1,1,0,0,0-1,1v1.68a6.62,6.62,0,0,0-1,.56L11.5,16.4a1,1,0,0,0-1.37.37l-2,3.46A1,1,0,0,0,8.5,21.6l1.45.84c0,.19,0,.37,0,.56s0,.37,0,.56L8.5,24.4a1,1,0,0,0-.37,1.37l2,3.46a1,1,0,0,0,1.37.37Z"/>
        <path d="M15.32,20.47A3,3,0,0,0,13.93,23a1,1,0,0,0,2,0,1,1,0,0,1,.47-.84,1,1,0,0,0,.3-1.38A1,1,0,0,0,15.32,20.47Z"/>
        <path d="M61,21a1,1,0,0,0-1,1V40H56a1,1,0,0,0,0,2h5a1,1,0,0,0,1-1V22A1,1,0,0,0,61,21Z"/>
        <path d="M8,40H4V24H5a1,1,0,0,0,0-2H3a1,1,0,0,0-1,1V41a1,1,0,0,0,1,1H8a1,1,0,0,0,0-2Z"/>
    </symbol>

    <symbol id="services06" role="img" aria-labelledby="services06_title" viewBox="0 0 64 64">
        <title id="services06_title"></title>
        <path d="M58,36.7V35h1a1,1,0,0,0,1-1V26a1,1,0,0,0-2,0v7H44V26.33a1,1,0,0,0-2,0V34a1,1,0,0,0,1,1H56v2a1,1,0,0,0,.17.55L60,43.3V48a1,1,0,0,1-2,0V45a1,1,0,0,0-2,0V56a1,1,0,0,1-2,0V48a1,1,0,0,0-2,0V58a1,1,0,0,1-2,0V48a1,1,0,0,0-2,0v8a1,1,0,0,1-2,0V48a1,1,0,0,0-2,0v6a1,1,0,0,1-2,0V43.3l3.17-4.75a1,1,0,0,0-1.67-1.1l-3.33,5A1,1,0,0,0,40,43V54a3,3,0,0,0,3,3,3,3,0,0,0,1.11-.21A3,3,0,0,0,47,59a3,3,0,0,0,1.11-.21,3,3,0,0,0,5.78,0A3,3,0,0,0,55,59a3,3,0,0,0,3-3V50.83A3,3,0,0,0,62,48V43a1,1,0,0,0-.17-.55Z"/>
        <circle cx="55" cy="30" r="1"/>
        <circle cx="55" cy="26" r="1"/><circle cx="33" cy="55" r="1"/>
        <circle cx="37" cy="55" r="1"/>
        <path d="M37.28,58H30V44h7a1,1,0,0,0,0-2H29a1,1,0,0,0-1,1V56H26a1,1,0,0,0-.55.17L19.7,60H15a1,1,0,0,1,0-2h3a1,1,0,0,0,0-2H7a1,1,0,0,1,0-2h8a1,1,0,0,0,0-2H5a1,1,0,0,1,0-2H15a1,1,0,0,0,0-2H7a1,1,0,0,1,0-2h8a1,1,0,0,0,0-2H9a1,1,0,0,1,0-2H19.7l4.5,3a1,1,0,0,0,1.38-.28,1,1,0,0,0-.28-1.39l-4.75-3.16A1,1,0,0,0,20,40H9a3,3,0,0,0-3,3,3,3,0,0,0,.21,1.11A3,3,0,0,0,4,47a3,3,0,0,0,.21,1.11,3,3,0,0,0,0,5.78A3,3,0,0,0,4,55a3,3,0,0,0,3,3h5.17A3,3,0,0,0,15,62h5a1,1,0,0,0,.55-.17L26.3,58H28v1a1,1,0,0,0,1,1h8.28a1,1,0,0,0,0-2Z"/>
        <path d="M39.06,30.23a1,1,0,0,0-1.36-.36l-1.25.72a1,1,0,0,0-.5,1l0,.19a1.57,1.57,0,0,1,0,.5l0,.19a1,1,0,0,0,.5,1l.38.22-1,1.74-.38-.22a1,1,0,0,0-1.09.06,3.6,3.6,0,0,1-.76.45,1,1,0,0,0-.6.92V37H31v-.42a1,1,0,0,0-.6-.92,3.6,3.6,0,0,1-.76-.45,1,1,0,0,0-1.09-.06l-.38.22-1-1.74.39-.22a1,1,0,0,0,.49-1l0-.19a1.06,1.06,0,0,1,0-.5l0-.19a1,1,0,0,0-.49-1l-.39-.22,1-1.74.38.22a1,1,0,0,0,1.09-.06,3.6,3.6,0,0,1,.76-.45,1,1,0,0,0,.6-.92V27h2v.42a1,1,0,0,0,.6.92,3.6,3.6,0,0,1,.76.45,1,1,0,0,0,1.09.06l1.25-.72a1,1,0,0,0-1-1.73l-.7.4V26a1,1,0,0,0-1-1H30a1,1,0,0,0-1,1v.8l-.7-.4a1,1,0,0,0-1.36.37l-2,3.46a1,1,0,0,0,.36,1.37l.7.4-.7.4a1,1,0,0,0-.36,1.37l2,3.46a1,1,0,0,0,1.36.37l.7-.4V38a1,1,0,0,0,1,1h4a1,1,0,0,0,1-1v-.8l.7.4a1,1,0,0,0,1.36-.37l2-3.46a1,1,0,0,0-.36-1.37L38,32l.7-.4A1,1,0,0,0,39.06,30.23Z"/>
        <path d="M32,31a1,1,0,0,1,1,1,1,1,0,0,0,2,0,3,3,0,1,0-3,3,1,1,0,0,0,0-2,1,1,0,0,1,0-2Z"/>
        <path d="M6,27.3V29H5a1,1,0,0,0-1,1v8a1,1,0,0,0,2,0V31H20v6.67a1,1,0,0,0,2,0V30a1,1,0,0,0-1-1H8V27a1,1,0,0,0-.17-.55L4,20.7V16a1,1,0,0,1,2,0v3a1,1,0,0,0,2,0V8a1,1,0,0,1,2,0v8a1,1,0,0,0,2,0V6a1,1,0,0,1,2,0V16a1,1,0,0,0,2,0V8a1,1,0,0,1,2,0v8a1,1,0,0,0,2,0V10a1,1,0,0,1,2,0V20.7l-3.17,4.75a1,1,0,0,0,1.67,1.1l3.33-5A1,1,0,0,0,24,21V10a3,3,0,0,0-3-3,3,3,0,0,0-1.11.21A3,3,0,0,0,17,5a3,3,0,0,0-1.11.21,3,3,0,0,0-5.78,0A3,3,0,0,0,9,5,3,3,0,0,0,6,8v5.17A3,3,0,0,0,2,16v5a1,1,0,0,0,.17.55Z"/>
        <circle cx="9" cy="34" r="1"/>
        <circle cx="9" cy="38" r="1"/>
        <circle cx="31" cy="9" r="1"/>
        <circle cx="27" cy="9" r="1"/>
        <path d="M26.72,6H34V20H27a1,1,0,0,0,0,2h8a1,1,0,0,0,1-1V8h2a1,1,0,0,0,.55-.17L44.3,4H49a1,1,0,0,1,0,2H46a1,1,0,0,0,0,2H57a1,1,0,0,1,0,2H49a1,1,0,0,0,0,2H59a1,1,0,0,1,0,2H49a1,1,0,0,0,0,2h8a1,1,0,0,1,0,2H49a1,1,0,0,0,0,2h6a1,1,0,0,1,0,2H44.3l-4.5-3a1,1,0,0,0-1.38.28,1,1,0,0,0,.28,1.39l4.75,3.16A1,1,0,0,0,44,24H55a3,3,0,0,0,3-3,3.17,3.17,0,0,0-.21-1.11A3,3,0,0,0,60,17a3.17,3.17,0,0,0-.21-1.11,3,3,0,0,0,0-5.78A3.17,3.17,0,0,0,60,9a3,3,0,0,0-3-3H51.83A3,3,0,0,0,49,2H44a1,1,0,0,0-.55.17L37.7,6H36V5a1,1,0,0,0-1-1H26.72a1,1,0,0,0,0,2Z"/>
    </symbol>

    <symbol id="footer-facebook" role="img" aria-labelledby="footer-facebook_title" viewBox="0 0 512 512">
        <title id="footer-facebook_title">Facebook</title>
        <path d="M314.829,135.492h70.595c11.423,0,20.682-9.26,20.682-20.682V20.682C406.107,9.26,396.848,0,385.425,0h-70.595
            c-76.282,0-138.341,62.06-138.341,138.341v49.913h-49.913c-11.422,0-20.682,9.26-20.682,20.682v94.127
            c0,11.423,9.26,20.682,20.682,20.682h49.913v167.572c0,11.423,9.26,20.682,20.682,20.682h94.127
            c11.423,0,20.682-9.259,20.682-20.682V323.746h49.913c9.49,0,17.763-6.458,20.065-15.666l23.532-94.127
            c1.544-6.179,0.156-12.725-3.763-17.744c-3.919-5.02-9.932-7.954-16.301-7.954H311.98v-49.913
            C311.98,136.77,313.258,135.492,314.829,135.492z M291.298,229.619h67.637l-13.191,52.763h-54.447
            c-11.423,0-20.682,9.259-20.682,20.682v167.572h-52.763V303.064c0-11.423-9.26-20.682-20.682-20.682h-49.913v-52.763h49.913
            c11.422,0,20.682-9.26,20.682-20.682v-70.595c0-53.473,43.503-96.977,96.977-96.977h49.913v52.763h-49.913
            c-24.38,0-44.214,19.835-44.214,44.214v70.595C270.615,220.359,279.875,229.619,291.298,229.619z"/>
    </symbol>

    <symbol id="footer-twitter" role="img" aria-labelledby="footer-twitter_title" viewBox="0 0 512 512">
        <title id="footer-twitter_title">Twitter</title>
        <path d="M502.954,47.189c-7.126-4.852-16.515-4.774-23.559,0.196c-15.351,10.828-31.974,19.528-49.557,25.948
            c-19.253-17.414-43.615-27.826-69.915-29.656c-31.056-2.16-61.081,7.9-84.561,28.326c-25.59,22.259-40.174,54.444-40.046,88.349
            c-85.248-7.609-139.14-61.55-177.09-108.986c-4.598-5.746-11.901-8.619-19.182-7.538c-7.279,1.078-13.438,5.944-16.171,12.777
            c-0.948,2.369-23.141,58.799-17.453,127.057c4.761,57.133,30.23,131.964,120.039,181.717
            c-32.436,14.756-68.282,21.939-103.953,20.519c-9.576-0.378-18.15,5.859-20.736,15.08c-2.587,9.221,1.497,19.013,9.869,23.665
            c51.359,28.532,108.03,43.736,163.889,43.965c0.432,0.002,0.861,0.003,1.294,0.003c54.105-0.001,106.379-13.938,151.246-40.336
            c42.898-25.241,78.416-61.759,102.715-105.603c26.162-47.206,39.427-101.75,39.427-162.186c-0.011-3.544-0.186-7.098-0.52-10.638
            c20.7-22.885,35.388-50.567,42.719-80.667C513.451,60.803,510.081,52.04,502.954,47.189z M432.297,128.07
            c-4.916,4.847-7.088,11.827-5.793,18.607c0.877,4.588,1.329,9.278,1.344,13.874c0,101.956-44.378,186.544-121.756,232.072
            c-60.586,35.649-133.037,43.933-203.609,25.057c0.729-0.201,1.459-0.407,2.185-0.615c27.596-7.885,53.63-20.055,77.377-36.174
            c6.329-4.296,9.77-11.734,8.946-19.34c-0.825-7.605-5.778-14.134-12.881-16.975C97.757,312.434,53.563,257.594,46.757,181.575
            c-2.536-28.334,0.707-54.721,4.766-74.501c16.638,17.909,37.384,37.227,62.129,53.407c42.771,27.966,90.663,42.146,142.346,42.146
            c11.423,0,20.682-9.26,20.682-20.682v-21.393c0-0.045,0-0.091,0-0.137c-0.146-21.948,9.268-42.797,25.829-57.202
            c15.146-13.175,34.51-19.665,54.543-18.27c20.026,1.393,38.311,10.502,51.487,25.648c5.339,6.138,13.783,8.577,21.567,6.229
            c5.725-1.724,11.375-3.645,16.941-5.757C442.599,117.081,437.672,122.769,432.297,128.07z"/>
    </symbol>    

    <symbol id="footer-linkedin" role="img" aria-labelledby="footer-linkedin_title" viewBox="0 0 512 512">
        <title id="footer-linkedin_title">Linkedin</title>
        <path d="M2.5,510V153.7h137.3V510H2.5z M102.5,472.7V191H39.8v281.7H102.5z"/>
        <path d="M375.4,510l0.1-158.1c0.5-23.6-8.8-42.9-24.9-51.7c-5.4-3-11.2-4.5-17.3-4.5c-5.2,0-10.4,1.1-15.5,3.3l-1.1,211H176.1
            V153.7h140.6V166c16.6-6,33.6-9.1,50.6-9.1c24.7,0,48.3,6.4,70.2,18.9c44,25.2,72.5,71.8,72.5,118.8V510H375.4z M472.7,472.7V294.6
            c0-33.8-21.1-67.7-53.7-86.4c-15.9-9.1-33.8-13.9-51.7-14h-0.3c-20.1,0-40.1,5.8-59.6,17.3L279.4,228V191h-66.1v281.7h66.2l1-194.7
            l8.2-5.5c13.7-9.2,29.1-14.1,44.5-14.1c12.4,0,24.2,3,35.1,9c13.7,7.5,25,19.2,32.8,33.8c7.9,14.9,11.9,32.6,11.5,51.1l0,120.3
            H472.7z"/>
        <path d="M70.9,139.9C32.9,139.9,2,109,2,71c0-38,30.9-69,68.9-69c38,0,68.9,30.9,68.9,69C139.8,109,108.9,139.9,70.9,139.9z
             M70.9,39.3c-17.4,0-31.6,14.2-31.6,31.7c0,17.5,14.2,31.7,31.6,31.7c17.4,0,31.6-14.2,31.6-31.7C102.5,53.5,88.3,39.3,70.9,39.3z"
            />
    </symbol>

    <symbol id="footer-instagram" role="img" aria-labelledby="footer-instagram_title" viewBox="0 0 512 512">
        <title id="footer-instagram_title">Instagram</title>
        <path d="M373.659,0H138.341C62.06,0,0,62.06,0,138.341v235.318C0,449.94,62.06,512,138.341,512h235.318
            C449.94,512,512,449.94,512,373.659V138.341C512,62.06,449.94,0,373.659,0z M470.636,373.659
            c0,53.473-43.503,96.977-96.977,96.977H138.341c-53.473,0-96.977-43.503-96.977-96.977V138.341
            c0-53.473,43.503-96.977,96.977-96.977h235.318c53.473,0,96.977,43.503,96.977,96.977V373.659z"/>
        <path d="M370.586,238.141c-3.64-24.547-14.839-46.795-32.386-64.342c-17.547-17.546-39.795-28.746-64.341-32.385
            c-11.176-1.657-22.507-1.657-33.682,0c-30.336,4.499-57.103,20.541-75.372,45.172c-18.269,24.631-25.854,54.903-21.355,85.237
            c4.499,30.335,20.541,57.102,45.172,75.372c19.996,14.831,43.706,22.619,68.153,22.619c5.667,0,11.375-0.418,17.083-1.265
            c30.336-4.499,57.103-20.541,75.372-45.172C367.5,298.747,375.085,268.476,370.586,238.141z M267.791,327.632
            c-19.405,2.882-38.77-1.973-54.527-13.66c-15.757-11.687-26.019-28.811-28.896-48.216c-2.878-19.405,1.973-38.77,13.66-54.527
            c11.688-15.757,28.811-26.019,48.217-28.897c3.574-0.53,7.173-0.795,10.772-0.795s7.199,0.265,10.773,0.796
            c32.231,4.779,57.098,29.645,61.878,61.877C335.608,284.268,307.851,321.692,267.791,327.632z"/>
        <path d="M400.049,111.951c-3.852-3.851-9.183-6.058-14.625-6.058c-5.442,0-10.773,2.206-14.625,6.058
            c-3.851,3.852-6.058,9.174-6.058,14.625c0,5.451,2.207,10.773,6.058,14.625c3.852,3.851,9.183,6.058,14.625,6.058
            c5.442,0,10.773-2.206,14.625-6.058c3.851-3.852,6.058-9.183,6.058-14.625C406.107,121.133,403.9,115.802,400.049,111.951z"/>
    </symbol>

    <symbol id="footer-phone" role="img" aria-labelledby="footer-phone_title" viewBox="0 0 512 512">
        <title id="footer-phone_title"></title>
        <path d="M421.216,195.504c-5.092-26.101-17.723-49.836-36.526-68.64c-18.804-18.803-42.54-31.434-68.641-36.527
			c-11.21-2.189-22.073,5.128-24.261,16.339c-2.187,11.212,5.128,22.073,16.339,24.26c36.847,7.188,65.3,35.642,72.489,72.489
			c1.927,9.874,10.581,16.726,20.278,16.726c1.313,0,2.645-0.125,3.984-0.387C416.088,217.577,423.403,206.715,421.216,195.504z"/>
		<path d="M511.422,196.929c-5.629-50.096-28.373-97.304-64.042-132.927C411.712,28.378,364.475,5.694,314.371,0.128
			c-11.355-1.261-21.578,6.92-22.839,18.272c-1.261,11.353,6.919,21.578,18.272,22.84c84.961,9.438,150.966,75.36,160.512,160.31
			c1.188,10.566,10.139,18.374,20.527,18.374c0.771,0,1.552-0.043,2.336-0.131C504.53,218.516,512.698,208.281,511.422,196.929z"/>
		<path d="M432.59,312.566c-0.062-0.008-0.124-0.017-0.186-0.025c-20.013-2.639-39.751-7.557-58.619-14.596
			c-23.91-8.99-51.103-3.191-69.27,14.772c-0.028,0.028-0.056,0.055-0.083,0.083l-17.148,17.148
			c-42.633-26.924-78.756-63.047-105.679-105.679l17.149-17.149c0.027-0.028,0.054-0.055,0.082-0.083
			c17.964-18.166,23.762-45.356,14.79-69.223c-7.057-18.914-11.974-38.653-14.614-58.666c-0.007-0.063-0.017-0.127-0.026-0.19
			c-4.591-32.478-32.782-56.734-65.548-56.467H66.053c-1.943,0.002-3.912,0.091-5.853,0.267
			C24.143,26.016-2.541,58.001,0.718,94.058c0.01,0.108,0.02,0.215,0.032,0.323c7.684,72.354,32.649,142.88,72.197,203.955
			c35.892,56.461,84.701,105.269,141.162,141.164c60.792,39.406,130.99,64.369,203.013,72.196c0.127,0.015,0.254,0.027,0.38,0.038
			c1.961,0.176,3.949,0.266,5.921,0.266c0.083,0,0.165,0,0.247,0.001c36.204-0.148,65.538-29.722,65.391-65.841v-67.233
			C489.746,345.714,465.515,317.211,432.59,312.566z M447.698,378.695v67.548c0.055,13.396-10.8,24.338-24.19,24.393
			c-0.715-0.004-1.425-0.027-2.135-0.086c-65.578-7.161-129.488-29.914-184.837-65.808c-0.053-0.035-0.107-0.069-0.161-0.103
			c-51.429-32.68-95.885-77.137-128.565-128.565c-0.032-0.051-0.064-0.101-0.097-0.153C71.683,220.306,48.928,156.086,41.902,90.193
			C40.779,76.91,50.63,65.155,63.923,63.954c0.717-0.064,1.443-0.098,2.145-0.098h67.463c0.146-0.001,0.294-0.003,0.443-0.002
			c12.021,0,22.322,8.905,24.044,20.819c3.05,23.063,8.721,45.806,16.871,67.649c3.319,8.832,1.189,18.869-5.427,25.591
			l-28.517,28.517c-6.583,6.582-7.956,16.753-3.354,24.847c33.837,59.508,83.177,108.847,142.685,142.685
			c8.094,4.6,18.264,3.23,24.848-3.355l28.512-28.512c6.72-6.621,16.765-8.752,25.642-5.415
			c21.799,8.134,44.547,13.805,67.61,16.855c12.18,1.757,21.122,12.339,20.816,24.647
			C447.7,378.353,447.698,378.524,447.698,378.695z"/>
    </symbol>    

	<symbol id="footer-mail" role="img" aria-labelledby="footer-mail_title" viewBox="0 0 512 512">
        <title id="footer-mail_title"></title>
        <path d="M256,141.176c-63.306,0-114.809,51.503-114.809,114.809S192.694,370.795,256,370.795s114.809-51.503,114.809-114.809
			S319.306,141.176,256,141.176z M256,329.43c-40.498,0-73.445-32.947-73.445-73.445c0-40.498,32.947-73.445,73.445-73.445
			c40.499,0,73.445,32.947,73.445,73.445C329.445,296.483,296.499,329.43,256,329.43z"/>
		<path d="M437.008,74.97C388.656,26.623,324.375,0,256,0c-0.005,0-0.013,0-0.017,0C187.603,0.004,123.318,26.637,74.97,74.992
			C26.62,123.347-0.005,187.637,0,256.017c0.004,68.379,26.637,132.666,74.992,181.014C123.344,485.377,187.625,512.001,256,512
			c0.004,0,0.012,0,0.017,0c55.945-0.004,111.216-18.738,155.631-52.752c9.07-6.945,10.792-19.927,3.846-28.995
			c-6.945-9.069-19.926-10.794-28.995-3.846c-37.24,28.518-83.58,44.224-130.486,44.228c-0.006,0-0.006,0-0.014,0
			c-57.324,0-111.224-22.324-151.761-62.856c-40.542-40.536-62.871-94.435-62.875-151.766
			C41.357,137.663,137.636,41.372,255.986,41.364c0.007,0,0.006,0,0.014,0c118.34,0,214.628,96.279,214.636,214.622v23.532
			c0,27.523-22.39,49.913-49.913,49.913c-27.523,0-49.913-22.391-49.913-49.913v-23.532c0-11.422-9.259-20.682-20.682-20.682
			s-20.682,9.26-20.682,20.682v23.532c0,50.33,40.947,91.278,91.278,91.278S512,329.848,512,279.518v-23.534
			C511.995,187.604,485.362,123.318,437.008,74.97z"/>
    </symbol>

    <symbol id="footer-location" role="img" aria-labelledby="footer-location_title" viewBox="0 0 512 512">
        <title id="footer-location_title"></title>
        <path d="M406.766,62.449C366.495,22.178,312.951,0,256,0S145.505,22.178,105.234,62.449
			c-40.272,40.271-62.449,93.814-62.449,150.766c0,37.656,10.972,76.863,32.609,116.532c16.825,30.846,40.15,62.102,69.326,92.898
			c49.17,51.903,97.763,84.519,99.808,85.881C248.001,510.842,252,512,256,512c4,0,7.999-1.158,11.473-3.474
			c2.045-1.363,50.638-33.978,99.808-85.881c29.176-30.795,52.501-62.051,69.326-92.898c21.637-39.669,32.609-78.876,32.609-116.532
			C469.215,156.263,447.038,102.72,406.766,62.449z M256.001,465.903C215.826,436.156,84.15,329.739,84.15,213.215
			c0-94.759,77.091-171.851,171.85-171.851s171.85,77.092,171.851,171.851C427.851,329.748,296.159,436.168,256.001,465.903z"/>
		<path d="M256,128.355c-46.791,0-84.86,38.068-84.86,84.86c0,46.791,38.068,84.86,84.86,84.86c46.792,0,84.861-38.068,84.86-84.86
			C340.86,166.423,302.791,128.355,256,128.355z M256,256.71c-23.983,0-43.495-19.512-43.495-43.495
			c0-23.983,19.512-43.495,43.495-43.495c23.984,0,43.495,19.512,43.495,43.495C299.495,237.198,279.984,256.71,256,256.71z"/>
		</symbol>

	<symbol id="footer-time" role="img" aria-labelledby="footer-time_title" viewBox="0 0 512 512">
        <title id="footer-time_title"></title>
        <path d="M437.019,74.981C388.667,26.629,324.38,0,256,0S123.333,26.63,74.981,74.981S0,187.62,0,256
			s26.629,132.667,74.981,181.019C123.332,485.371,187.62,512,256,512s132.667-26.629,181.019-74.981
			C485.371,388.667,512,324.38,512,256S485.371,123.332,437.019,74.981z M256,470.636C137.65,470.636,41.364,374.35,41.364,256
			S137.65,41.364,256,41.364S470.636,137.65,470.636,256S374.35,470.636,256,470.636z"/>
		<path d="M341.221,311.97l-64.538-64.537V114.809c0-11.422-9.259-20.682-20.682-20.682c-11.422,0-20.682,9.26-20.682,20.682V256
			c0,5.486,2.179,10.746,6.058,14.625l70.594,70.595c4.038,4.039,9.332,6.058,14.625,6.058c5.293,0,10.586-2.019,14.626-6.058
			C349.297,333.142,349.297,320.047,341.221,311.97z"/>
	</symbol>

</svg>