<svg xmlns="http://www.w3.org/2000/svg" xmlns:xlink="http://www.w3.org/1999/xlink">

    <symbol id="footer-facebook" role="img" aria-labelledby="footer-facebook_title" viewBox="0 0 512 512">
        <title id="footer-facebook_title">Facebook</title>
        <path d="M314.829,135.492h70.595c11.423,0,20.682-9.26,20.682-20.682V20.682C406.107,9.26,396.848,0,385.425,0h-70.595
            c-76.282,0-138.341,62.06-138.341,138.341v49.913h-49.913c-11.422,0-20.682,9.26-20.682,20.682v94.127
            c0,11.423,9.26,20.682,20.682,20.682h49.913v167.572c0,11.423,9.26,20.682,20.682,20.682h94.127
            c11.423,0,20.682-9.259,20.682-20.682V323.746h49.913c9.49,0,17.763-6.458,20.065-15.666l23.532-94.127
            c1.544-6.179,0.156-12.725-3.763-17.744c-3.919-5.02-9.932-7.954-16.301-7.954H311.98v-49.913
            C311.98,136.77,313.258,135.492,314.829,135.492z M291.298,229.619h67.637l-13.191,52.763h-54.447
            c-11.423,0-20.682,9.259-20.682,20.682v167.572h-52.763V303.064c0-11.423-9.26-20.682-20.682-20.682h-49.913v-52.763h49.913
            c11.422,0,20.682-9.26,20.682-20.682v-70.595c0-53.473,43.503-96.977,96.977-96.977h49.913v52.763h-49.913
            c-24.38,0-44.214,19.835-44.214,44.214v70.595C270.615,220.359,279.875,229.619,291.298,229.619z"/>
    </symbol>

    <symbol id="footer-twitter" role="img" aria-labelledby="footer-twitter_title" viewBox="0 0 512 512">
        <title id="footer-twitter_title">Twitter</title>
        <path d="M502.954,47.189c-7.126-4.852-16.515-4.774-23.559,0.196c-15.351,10.828-31.974,19.528-49.557,25.948
            c-19.253-17.414-43.615-27.826-69.915-29.656c-31.056-2.16-61.081,7.9-84.561,28.326c-25.59,22.259-40.174,54.444-40.046,88.349
            c-85.248-7.609-139.14-61.55-177.09-108.986c-4.598-5.746-11.901-8.619-19.182-7.538c-7.279,1.078-13.438,5.944-16.171,12.777
            c-0.948,2.369-23.141,58.799-17.453,127.057c4.761,57.133,30.23,131.964,120.039,181.717
            c-32.436,14.756-68.282,21.939-103.953,20.519c-9.576-0.378-18.15,5.859-20.736,15.08c-2.587,9.221,1.497,19.013,9.869,23.665
            c51.359,28.532,108.03,43.736,163.889,43.965c0.432,0.002,0.861,0.003,1.294,0.003c54.105-0.001,106.379-13.938,151.246-40.336
            c42.898-25.241,78.416-61.759,102.715-105.603c26.162-47.206,39.427-101.75,39.427-162.186c-0.011-3.544-0.186-7.098-0.52-10.638
            c20.7-22.885,35.388-50.567,42.719-80.667C513.451,60.803,510.081,52.04,502.954,47.189z M432.297,128.07
            c-4.916,4.847-7.088,11.827-5.793,18.607c0.877,4.588,1.329,9.278,1.344,13.874c0,101.956-44.378,186.544-121.756,232.072
            c-60.586,35.649-133.037,43.933-203.609,25.057c0.729-0.201,1.459-0.407,2.185-0.615c27.596-7.885,53.63-20.055,77.377-36.174
            c6.329-4.296,9.77-11.734,8.946-19.34c-0.825-7.605-5.778-14.134-12.881-16.975C97.757,312.434,53.563,257.594,46.757,181.575
            c-2.536-28.334,0.707-54.721,4.766-74.501c16.638,17.909,37.384,37.227,62.129,53.407c42.771,27.966,90.663,42.146,142.346,42.146
            c11.423,0,20.682-9.26,20.682-20.682v-21.393c0-0.045,0-0.091,0-0.137c-0.146-21.948,9.268-42.797,25.829-57.202
            c15.146-13.175,34.51-19.665,54.543-18.27c20.026,1.393,38.311,10.502,51.487,25.648c5.339,6.138,13.783,8.577,21.567,6.229
            c5.725-1.724,11.375-3.645,16.941-5.757C442.599,117.081,437.672,122.769,432.297,128.07z"/>
    </symbol>    

    <symbol id="footer-linkedin" role="img" aria-labelledby="footer-linkedin_title" viewBox="0 0 512 512">
        <title id="footer-linkedin_title">Linkedin</title>
        <path d="M2.5,510V153.7h137.3V510H2.5z M102.5,472.7V191H39.8v281.7H102.5z"/>
        <path d="M375.4,510l0.1-158.1c0.5-23.6-8.8-42.9-24.9-51.7c-5.4-3-11.2-4.5-17.3-4.5c-5.2,0-10.4,1.1-15.5,3.3l-1.1,211H176.1
            V153.7h140.6V166c16.6-6,33.6-9.1,50.6-9.1c24.7,0,48.3,6.4,70.2,18.9c44,25.2,72.5,71.8,72.5,118.8V510H375.4z M472.7,472.7V294.6
            c0-33.8-21.1-67.7-53.7-86.4c-15.9-9.1-33.8-13.9-51.7-14h-0.3c-20.1,0-40.1,5.8-59.6,17.3L279.4,228V191h-66.1v281.7h66.2l1-194.7
            l8.2-5.5c13.7-9.2,29.1-14.1,44.5-14.1c12.4,0,24.2,3,35.1,9c13.7,7.5,25,19.2,32.8,33.8c7.9,14.9,11.9,32.6,11.5,51.1l0,120.3
            H472.7z"/>
        <path d="M70.9,139.9C32.9,139.9,2,109,2,71c0-38,30.9-69,68.9-69c38,0,68.9,30.9,68.9,69C139.8,109,108.9,139.9,70.9,139.9z
             M70.9,39.3c-17.4,0-31.6,14.2-31.6,31.7c0,17.5,14.2,31.7,31.6,31.7c17.4,0,31.6-14.2,31.6-31.7C102.5,53.5,88.3,39.3,70.9,39.3z"
            />
    </symbol>

    <symbol id="footer-instagram" role="img" aria-labelledby="footer-instagram_title" viewBox="0 0 512 512">
        <title id="footer-instagram_title">Instagram</title>
        <path d="M373.659,0H138.341C62.06,0,0,62.06,0,138.341v235.318C0,449.94,62.06,512,138.341,512h235.318
            C449.94,512,512,449.94,512,373.659V138.341C512,62.06,449.94,0,373.659,0z M470.636,373.659
            c0,53.473-43.503,96.977-96.977,96.977H138.341c-53.473,0-96.977-43.503-96.977-96.977V138.341
            c0-53.473,43.503-96.977,96.977-96.977h235.318c53.473,0,96.977,43.503,96.977,96.977V373.659z"/>
        <path d="M370.586,238.141c-3.64-24.547-14.839-46.795-32.386-64.342c-17.547-17.546-39.795-28.746-64.341-32.385
            c-11.176-1.657-22.507-1.657-33.682,0c-30.336,4.499-57.103,20.541-75.372,45.172c-18.269,24.631-25.854,54.903-21.355,85.237
            c4.499,30.335,20.541,57.102,45.172,75.372c19.996,14.831,43.706,22.619,68.153,22.619c5.667,0,11.375-0.418,17.083-1.265
            c30.336-4.499,57.103-20.541,75.372-45.172C367.5,298.747,375.085,268.476,370.586,238.141z M267.791,327.632
            c-19.405,2.882-38.77-1.973-54.527-13.66c-15.757-11.687-26.019-28.811-28.896-48.216c-2.878-19.405,1.973-38.77,13.66-54.527
            c11.688-15.757,28.811-26.019,48.217-28.897c3.574-0.53,7.173-0.795,10.772-0.795s7.199,0.265,10.773,0.796
            c32.231,4.779,57.098,29.645,61.878,61.877C335.608,284.268,307.851,321.692,267.791,327.632z"/>
        <path d="M400.049,111.951c-3.852-3.851-9.183-6.058-14.625-6.058c-5.442,0-10.773,2.206-14.625,6.058
            c-3.851,3.852-6.058,9.174-6.058,14.625c0,5.451,2.207,10.773,6.058,14.625c3.852,3.851,9.183,6.058,14.625,6.058
            c5.442,0,10.773-2.206,14.625-6.058c3.851-3.852,6.058-9.183,6.058-14.625C406.107,121.133,403.9,115.802,400.049,111.951z"/>
    </symbol>

    <symbol id="web" role="img" aria-labelledby="web_title" viewBox="0 0 512 512">
        <title id="web_title"></title>
        <path d="M256,0C114.843,0,0,114.843,0,256s114.843,256,256,256s256-114.843,256-256S397.157,0,256,0z M256,473.791
            c-120.091,0-217.791-97.7-217.791-217.791S135.909,38.209,256,38.209c120.097,0,217.791,97.7,217.791,217.791
            S376.091,473.791,256,473.791z"/>
        <path d="M483.388,223.516C413.427,263.674,318.854,282.823,256,284.014c-62.86-1.191-157.44-20.34-227.388-60.498L9.59,256.65
            c75.966,43.616,178.321,64.363,246.066,65.579c0.115,0,0.229,0,0.344,0s0.229,0,0.344,0
            c67.745-1.223,170.094-21.97,246.059-65.579L483.388,223.516z"/>
        <path d="M292.407,6.234l-28.236,25.74C320.248,93.478,352.159,173.023,354.063,256c-1.904,82.977-33.815,162.528-89.893,224.025
            l28.236,25.746c62.395-68.432,97.859-156.988,99.865-249.352c0.006-0.28,0.006-0.554,0-0.834
            C390.266,163.222,354.802,74.667,292.407,6.234z"/>
        <path d="M247.83,31.981L219.593,6.234c-62.395,68.426-97.859,156.988-99.872,249.352c0,0.28,0,0.554,0,0.834
            c2.012,92.37,37.483,180.919,99.872,249.352l28.236-25.746C191.758,418.522,159.841,338.984,157.937,256
            C159.841,173.017,191.752,93.478,247.83,31.981z"/>
    </symbol>

    <symbol id="phone" role="img" aria-labelledby="phone_title" viewBox="0 0 512 512">
        <title id="phone_title"></title>
        <path d="M421.216,195.504c-5.092-26.101-17.723-49.836-36.526-68.64c-18.804-18.803-42.54-31.434-68.641-36.527
			c-11.21-2.189-22.073,5.128-24.261,16.339c-2.187,11.212,5.128,22.073,16.339,24.26c36.847,7.188,65.3,35.642,72.489,72.489
			c1.927,9.874,10.581,16.726,20.278,16.726c1.313,0,2.645-0.125,3.984-0.387C416.088,217.577,423.403,206.715,421.216,195.504z"/>
		<path d="M511.422,196.929c-5.629-50.096-28.373-97.304-64.042-132.927C411.712,28.378,364.475,5.694,314.371,0.128
			c-11.355-1.261-21.578,6.92-22.839,18.272c-1.261,11.353,6.919,21.578,18.272,22.84c84.961,9.438,150.966,75.36,160.512,160.31
			c1.188,10.566,10.139,18.374,20.527,18.374c0.771,0,1.552-0.043,2.336-0.131C504.53,218.516,512.698,208.281,511.422,196.929z"/>
		<path d="M432.59,312.566c-0.062-0.008-0.124-0.017-0.186-0.025c-20.013-2.639-39.751-7.557-58.619-14.596
			c-23.91-8.99-51.103-3.191-69.27,14.772c-0.028,0.028-0.056,0.055-0.083,0.083l-17.148,17.148
			c-42.633-26.924-78.756-63.047-105.679-105.679l17.149-17.149c0.027-0.028,0.054-0.055,0.082-0.083
			c17.964-18.166,23.762-45.356,14.79-69.223c-7.057-18.914-11.974-38.653-14.614-58.666c-0.007-0.063-0.017-0.127-0.026-0.19
			c-4.591-32.478-32.782-56.734-65.548-56.467H66.053c-1.943,0.002-3.912,0.091-5.853,0.267
			C24.143,26.016-2.541,58.001,0.718,94.058c0.01,0.108,0.02,0.215,0.032,0.323c7.684,72.354,32.649,142.88,72.197,203.955
			c35.892,56.461,84.701,105.269,141.162,141.164c60.792,39.406,130.99,64.369,203.013,72.196c0.127,0.015,0.254,0.027,0.38,0.038
			c1.961,0.176,3.949,0.266,5.921,0.266c0.083,0,0.165,0,0.247,0.001c36.204-0.148,65.538-29.722,65.391-65.841v-67.233
			C489.746,345.714,465.515,317.211,432.59,312.566z M447.698,378.695v67.548c0.055,13.396-10.8,24.338-24.19,24.393
			c-0.715-0.004-1.425-0.027-2.135-0.086c-65.578-7.161-129.488-29.914-184.837-65.808c-0.053-0.035-0.107-0.069-0.161-0.103
			c-51.429-32.68-95.885-77.137-128.565-128.565c-0.032-0.051-0.064-0.101-0.097-0.153C71.683,220.306,48.928,156.086,41.902,90.193
			C40.779,76.91,50.63,65.155,63.923,63.954c0.717-0.064,1.443-0.098,2.145-0.098h67.463c0.146-0.001,0.294-0.003,0.443-0.002
			c12.021,0,22.322,8.905,24.044,20.819c3.05,23.063,8.721,45.806,16.871,67.649c3.319,8.832,1.189,18.869-5.427,25.591
			l-28.517,28.517c-6.583,6.582-7.956,16.753-3.354,24.847c33.837,59.508,83.177,108.847,142.685,142.685
			c8.094,4.6,18.264,3.23,24.848-3.355l28.512-28.512c6.72-6.621,16.765-8.752,25.642-5.415
			c21.799,8.134,44.547,13.805,67.61,16.855c12.18,1.757,21.122,12.339,20.816,24.647
			C447.7,378.353,447.698,378.524,447.698,378.695z"/>
    </symbol>

    <symbol id="kind" role="img" aria-labelledby="kind_title" viewBox="-28 0 512 512">
        <title id="kind_title"></title>
        <path d="m433.101562 72.746094c-26.234374-60.125-59.667968-72.746094-83.101562-72.746094-23.410156 0-56.835938 12.703125-83.113281 73.21875-14.28125 32.886719-21.886719 69.984375-21.886719 84.121094 0 59.144531 31.375 96.980468 85 104.339844v250.320312h40v-250.285156c39.46875-5.253906 59.898438-25.820313 70.296875-43.46875 9.757813-16.558594 14.703125-37.050782 14.703125-60.90625 0-14.417969-7.609375-51.839844-21.898438-84.59375zm-27.265624 125.195312c-9.9375 16.863282-28.199219 25.058594-55.835938 25.058594-16.078125 0-65 0-65-65.660156 0-7 5.710938-38.5625 18.574219-68.1875 7.972656-18.355469 24.605469-49.152344 46.425781-49.152344 21.902344 0 38.496094 30.539062 46.4375 48.742188 13.042969 29.894531 18.5625 61.183593 18.5625 68.597656 0 16.617187-3.085938 30.277344-9.164062 40.601562zm-245.835938-197.941406h40v144c0 48.292969-34.410156 88.699219-80 97.988281v270.011719h-40v-270.011719c-45.589844-9.289062-80-49.695312-80-97.988281v-144h40v144c0 26.074219 16.722656 48.304688 40 56.558594v-200.558594h40v200.558594c23.277344-8.253906 40-30.484375 40-56.558594zm0 0"/>
		</symbol>

	<symbol id="footer-time" role="img" aria-labelledby="footer-time_title" viewBox="0 0 512 512">
        <title id="footer-time_title"></title>
        <path d="M437.019,74.981C388.667,26.629,324.38,0,256,0S123.333,26.63,74.981,74.981S0,187.62,0,256
			s26.629,132.667,74.981,181.019C123.332,485.371,187.62,512,256,512s132.667-26.629,181.019-74.981
			C485.371,388.667,512,324.38,512,256S485.371,123.332,437.019,74.981z M256,470.636C137.65,470.636,41.364,374.35,41.364,256
			S137.65,41.364,256,41.364S470.636,137.65,470.636,256S374.35,470.636,256,470.636z"/>
		<path d="M341.221,311.97l-64.538-64.537V114.809c0-11.422-9.259-20.682-20.682-20.682c-11.422,0-20.682,9.26-20.682,20.682V256
			c0,5.486,2.179,10.746,6.058,14.625l70.594,70.595c4.038,4.039,9.332,6.058,14.625,6.058c5.293,0,10.586-2.019,14.626-6.058
			C349.297,333.142,349.297,320.047,341.221,311.97z"/>
	</symbol>

</svg>