<svg xmlns="http://www.w3.org/2000/svg" xmlns:xlink="http://www.w3.org/1999/xlink">

	<symbol id="services01" role="img" aria-labelledby="services01_title" viewBox="0 0 64 64">
        <title id="services01_title"></title>
        <path d="m33.483 11c-2.752-6.093-8.75-10-15.483-10-9.374 0-17 7.626-17 17 0 7.245 4.564 13.429 10.961 15.872l-.961 22.128c0 3.859 3.14 7 7 7s7-3.141 6.999-7.043l-.959-22.06c4.139-1.564 7.554-4.714 9.443-8.897h29.517v-14zm-7.023 14c-2.072 2.495-5.166 4-8.46 4-6.065 0-11-4.935-11-11s4.935-11 11-11c3.294 0 6.388 1.505 8.46 4h-13.46v14zm-11.46-2v-10h32v10zm8 33c0 2.757-2.243 5-5 5s-5-2.243-5.001-4.957l.937-21.554c1.305.321 2.661.511 4.064.511 1.394 0 2.755-.174 4.065-.494zm-5-23c-8.271 0-15-6.729-15-15s6.729-15 15-15c5.633 0 10.682 3.098 13.262 8h-2.313c-2.38-3.713-6.519-6-10.949-6-7.168 0-13 5.832-13 13s5.832 13 13 13c4.43 0 8.569-2.287 10.949-6h2.313c-2.58 4.902-7.629 8-13.262 8zm43-10h-12v-10h12z"/>
        <path d="m60 21-5-6.667-5 6.667zm-4-2h-2l1-1.333z"/>
        <path d="m17 37h2v2h-2z"/>
        <path d="m17 41h2v2h-2z"/>
        <path d="m17 45h2v2h-2z"/>
        <path d="m31 15c-1.654 0-3 1.346-3 3s1.346 3 3 3 3-1.346 3-3-1.346-3-3-3zm0 4c-.551 0-1-.448-1-1s.449-1 1-1 1 .448 1 1-.449 1-1 1z"/>
        <path d="m23 15c-1.654 0-3 1.346-3 3s1.346 3 3 3 3-1.346 3-3-1.346-3-3-3zm0 4c-.551 0-1-.448-1-1s.449-1 1-1 1 .448 1 1-.449 1-1 1z"/>
        <path d="m39 15c-1.654 0-3 1.346-3 3s1.346 3 3 3 3-1.346 3-3-1.346-3-3-3zm0 4c-.551 0-1-.448-1-1s.449-1 1-1 1 .448 1 1-.449 1-1 1z"/>
        <path d="m27 63h36v-30h-36zm2-2v-18h32v18zm32-26v6h-32v-6z"/>
        <path d="m31 37h2v2h-2z"/>
        <path d="m35 37h2v2h-2z"/>
        <path d="m39 37h2v2h-2z"/>
        <path d="m31 59h14v-14h-14zm2-12h10v10h-10z"/>
        <path d="m47 45h12v2h-12z"/>
        <path d="m51 49h8v2h-8z"/>
        <path d="m47 49h2v2h-2z"/>
        <path d="m47 53h12v2h-12z"/>
        <path d="m57 57h2v2h-2z"/>
        <path d="m47 57h8v2h-8z"/>
    </symbol>

    <symbol id="services02" role="img" aria-labelledby="services02_title" viewBox="0 0 64 64">
        <title id="services02_title"></title>
        <path d="m60 1h-26c-1.654 0-3 1.346-3 3v16.586l-2.222 2.222c-1.059 1.059-1.828 2.328-2.287 3.709-1.382.467-2.651 1.229-3.683 2.262l-6.029 6.029c-1.182 1.182-2.004 2.623-2.434 4.192h-10.345c-1.654 0-3 1.346-3 3v18c0 1.654 1.346 3 3 3h26c1.654 0 3-1.346 3-3v-14.586l3.222-3.222c1.059-1.059 1.828-2.328 2.287-3.709 1.382-.466 2.651-1.229 3.683-2.262l5.029-5.029c1.669-1.67 2.628-3.853 2.753-6.192h10.026c1.654 0 3-1.346 3-3v-18c0-1.654-1.346-3-3-3zm-26 2h26c.551 0 1 .448 1 1v5h-28v-5c0-.552.449-1 1-1zm-.711 23.782 1.782-1.782h8.872c-.016.115-.018.23-.045.346-.139.587-.478 1.163-.98 1.666l-4.7 4.7c-.946-2.185-2.694-3.964-4.929-4.93zm-3.097-2.56 1.048-1.048c.27.633.759 1.144 1.364 1.465l-.939.939c-.758.758-1.278 1.657-1.505 2.6-.543 2.265.324 4.548 2.212 5.852.403.438.625.944.628 1.435.001.303-.035.609-.109.911-.01.041-.028.082-.041.123-2.886-1.087-4.85-3.837-4.85-6.984 0-1.999.779-3.879 2.192-5.293zm-7.107 20.782c-.969-.083-1.854-.585-2.428-1.378-.546-.753-.741-1.676-.601-2.626h9.944c.551 0 1 .448 1 1v5h-7v-1.918zm7.713-5.882c-.256-.072-.52-.122-.798-.122h-8.928c.003-.003.004-.005.007-.008l5.703-5.704c.946 2.184 2.694 3.963 4.927 4.929zm-12.606-2.9 6.029-6.029c.532-.532 1.147-.967 1.809-1.316-.013.211-.03.423-.03.638 0 .559.05 1.109.144 1.645-.178.139-.348.288-.508.447l-5.971 5.972c-.762.762-1.284 1.666-1.509 2.615-.384 1.622-.063 3.301.881 4.605.731 1.01 1.78 1.725 2.963 2.038v2.043c-3.438-.653-6-3.706-6-7.365 0-1.999.779-3.879 2.192-5.293zm-14.192 4.778h10.025c-.009.171-.025.342-.025.515 0 .506.049 1 .124 1.485h-1.124v2h1.653c.277.714.641 1.383 1.073 2h-12.726v-5c0-.552.449-1 1-1zm26 20h-26c-.551 0-1-.448-1-1v-11h14.611c1.483 1.171 3.322 1.909 5.344 1.999l1.045.047v-2.046h7v11c0 .552-.449 1-1 1zm4.808-20.222-1.808 1.808v-.586c0-.636-.202-1.224-.541-1.71l.882-.875c.748-.748 1.264-1.634 1.492-2.563.113-.461.169-.932.167-1.398-.006-1.032-.45-2.054-1.272-2.899l-.156-.127c-1.245-.823-1.821-2.308-1.467-3.782.012-.048.032-.095.046-.142 2.886 1.084 4.849 3.834 4.849 6.981 0 1.999-.779 3.879-2.192 5.293zm11-11-5.029 5.029c-.532.532-1.147.967-1.809 1.316.013-.211.03-.423.03-.638 0-.559-.05-1.109-.144-1.645.178-.139.348-.287.508-.447l4.968-4.968c.764-.766 1.287-1.671 1.512-2.619.371-1.564.072-3.147-.842-4.455-.736-1.054-1.8-1.813-3.002-2.164v-2.047c3.438.711 6 3.754 6 7.346 0 1.998-.779 3.878-2.192 5.292zm14.192-6.778h-10.127c-.687-4.321-4.305-7.719-8.811-7.998l-1.062-.066v5.952l.882.105c.991.118 1.896.666 2.48 1.503.112.16.196.332.279.504h-9.641c-.551 0-1-.448-1-1v-11h28v11c0 .552-.449 1-1 1z"/>
        <path d="m43 5h2v2h-2z"/>
        <path d="m35 5h2v2h-2z"/>
        <path d="m39 5h2v2h-2z"/>
        <path d="m9 43h2v2h-2z"/>
        <path d="m5 43h2v2h-2z"/>
        <path d="m56 54.586-6.293-6.293-1.414 1.414 6.293 6.293h-5.586v2h9v-9h-2z"/>
        <path d="m45.328 45.379h2v1.899h-2z" transform="matrix(.707 -.707 .707 .707 -19.19 46.34)"/>
        <path d="m42.536 42.535h2v2h-2z" transform="matrix(.707 -.707 .707 .707 -18.033 43.536)"/>
        <path d="m39.707 39.707h2v2h-2z" transform="matrix(.707 -.707 .707 .707 -16.861 40.707)"/>
        <path d="m57 39c-1.061 0-1.99.557-2.524 1.391l-10.251-2.366-.45 1.949 10.26 2.368c.172 1.492 1.428 2.658 2.965 2.658 1.654 0 3-1.346 3-3s-1.346-3-3-3zm0 4c-.551 0-1-.448-1-1s.449-1 1-1 1 .448 1 1-.449 1-1 1z"/>
        <path d="m42.342 54.035-2.368-10.259-1.949.449 2.366 10.252c-.834.533-1.391 1.462-1.391 2.523 0 1.654 1.346 3 3 3s3-1.346 3-3c0-1.537-1.166-2.793-2.658-2.965zm-.342 3.965c-.551 0-1-.448-1-1s.449-1 1-1 1 .448 1 1-.449 1-1 1z"/>
        <path d="m8 9.414 6.293 6.293 1.414-1.414-6.293-6.293h5.586v-2h-9v9h2z"/>
        <path d="m16.672 16.722h2v1.899h-2z" transform="matrix(.707 -.707 .707 .707 -7.32 17.676)"/>
        <path d="m19.464 19.465h2v2h-2z" transform="matrix(.707 -.707 .707 .707 -8.477 20.465)"/>
        <path d="m22.293 22.293h2v2h-2z" transform="matrix(.707 -.707 .707 .707 -9.648 23.293)"/>
        <path d="m7 25c1.061 0 1.99-.557 2.524-1.391l10.251 2.366.45-1.949-10.26-2.368c-.172-1.492-1.428-2.658-2.965-2.658-1.654 0-3 1.346-3 3s1.346 3 3 3zm0-4c.551 0 1 .448 1 1s-.449 1-1 1-1-.448-1-1 .449-1 1-1z"/>
        <path d="m21.658 9.965 2.368 10.259 1.949-.449-2.366-10.251c.834-.534 1.391-1.463 1.391-2.524 0-1.654-1.346-3-3-3s-3 1.346-3 3c0 1.537 1.166 2.793 2.658 2.965zm.342-3.965c.551 0 1 .448 1 1s-.449 1-1 1-1-.448-1-1 .449-1 1-1z"/>
        <path d="m35 13h2v2h-2z"/>
        <path d="m35 17h2v2h-2z"/>
        <path d="m51 21h8v-8h-8zm2-6h4v4h-4z"/>
        <path d="m5 53h10v2h-10z"/>
        <path d="m5 57h10v2h-10z"/>
        <path d="m17 59h12v-6h-12zm2-4h8v2h-8z"/>
    </symbol>

    <symbol id="services03" role="img" aria-labelledby="services03_title" viewBox="0 0 64 64">
        <title id="services03_title"></title>
        <path d="m60 1h-44c-1.654 0-3 1.346-3 3v15h-7c-2.757 0-5 2.243-5 5v24c0 2.757 2.243 5 5 5h9.612l-1.333 4h-3.279c-1.654 0-3 1.346-3 3v3h30v-3c0-1.654-1.346-3-3-3h-3.279l-1.333-4h9.612c2.757 0 5-2.243 5-5v-1h15c1.654 0 3-1.346 3-3v-40c0-1.654-1.346-3-3-3zm-44 2h44c.551 0 1 .449 1 1v5h-46v-5c0-.551.449-1 1-1zm-10 18h34c1.654 0 3 1.346 3 3v19h-40v-19c0-1.654 1.346-3 3-3zm39 6h12v14h-12zm-9 33v1h-26v-1c0-.551.449-1 1-1h24c.551 0 1 .449 1 1zm-6.388-3h-13.224l1.333-4h10.558zm10.388-6h-34c-1.654 0-3-1.346-3-3v-3h40v3c0 1.654-1.346 3-3 3zm20-6h-15v-2h14v-18h-14v-1c0-2.757-2.243-5-5-5h-25v-8h46v33c0 .551-.449 1-1 1z"/>
        <path d="m18 47h2v2h-2z"/>
        <path d="m22 47h2v2h-2z"/>
        <path d="m26 47h2v2h-2z"/>
        <path d="m21 5h2v2h-2z"/>
        <path d="m25 5h2v2h-2z"/>
        <path d="m17 5h2v2h-2z"/>
        <path d="m17 13h2v2h-2z"/>
        <path d="m21 13h38v2h-38z"/>
        <path d="m47 17h12v2h-12z"/>
        <path d="m47 21h12v2h-12z"/>
        <path d="m8 41h20c1.654 0 3-1.346 3-3v-12c0-1.654-1.346-3-3-3h-20c-1.654 0-3 1.346-3 3v12c0 1.654 1.346 3 3 3zm-1-15c0-.551.449-1 1-1h20c.551 0 1 .449 1 1v12c0 .551-.449 1-1 1h-20c-.551 0-1-.449-1-1z"/>
        <path d="m11.675 31h12.649v2h-12.649z" transform="matrix(.316 -.949 .949 .316 -18.051 38.951)"/>
        <path d="m22.707 36.707 4.707-4.707-4.707-4.707-1.414 1.414 3.293 3.293-3.293 3.293z"/>
        <path d="m14.707 35.293-3.293-3.293 3.293-3.293-1.414-1.414-4.707 4.707 4.707 4.707z"/>
        <path d="m33 23h8v2h-8z"/>
        <path d="m33 27h8v2h-8z"/>
        <path d="m33 31h8v2h-8z"/>
        <path d="m33 35h8v2h-8z"/>
        <path d="m35 39h2v2h-2z"/>
        <path d="m39 39h2v2h-2z"/>
    </symbol>

    <symbol id="services04" role="img" aria-labelledby="services04_title" viewBox="0 0 480 480">
        <title id="services04_title"></title>
        <path d="m16 408v-328h400v56h16v-112c0-13.253906-10.746094-24-24-24h-384c-13.253906 0-24 10.746094-24 24v384c0 13.253906 10.746094 24 24 24h200v-16h-200c-4.417969 0-8-3.582031-8-8zm8-392h384c4.417969 0 8 3.582031 8 8v40h-400v-40c0-4.417969 3.582031-8 8-8zm0 0"/>
        <path d="m48 32h16v16h-16zm0 0"/>
        <path d="m80 32h16v16h-16zm0 0"/>
        <path d="m112 32h16v16h-16zm0 0"/>
        <path d="m48 112h16v16h-16zm0 0"/>
        <path d="m80 112h16v16h-16zm0 0"/>
        <path d="m112 112h16v16h-16zm0 0"/>
        <path d="m144 112h16v16h-16zm0 0"/>
        <path d="m176 32h176v16h-176zm0 0"/>
        <path d="m304 112h16v32h-16zm0 0"/>
        <path d="m402.511719 178.171875 22.628906-22.625 11.3125 11.3125-22.628906 22.628906zm0 0"/>
        <path d="m448 272h32v16h-32zm0 0"/>
        <path d="m402.511719 381.820312 11.3125-11.3125 22.628906 22.625-11.3125 11.3125zm0 0"/>
        <path d="m187.550781 393.132812 22.628907-22.628906 11.3125 11.316406-22.625 22.625zm0 0"/>
        <path d="m144 272h32v16h-32zm0 0"/>
        <path d="m187.550781 166.859375 11.316407-11.3125 22.625 22.625-11.3125 11.316406zm0 0"/>
        <path d="m432 280c-.003906-56.261719-39.097656-104.96875-94.027344-117.148438-54.929687-12.175781-110.945312 15.445313-134.726562 66.433594-23.78125 50.992188-8.941406 111.65625 35.691406 145.914063-5.117188 5.152343-7.609375 12.351562-6.777344 19.5625.828125 7.214843 4.894532 13.65625 11.046875 17.511719-3.625 6.234374-4.207031 13.78125-1.585937 20.5 2.625 6.71875 8.167968 11.875 15.058594 14.003906 3.292968 19.15625 19.882812 33.171875 39.320312 33.222656h32c19.449219-.054688 36.042969-14.089844 39.320312-33.265625 6.890626-2.125 12.4375-7.28125 15.0625-14s2.042969-14.265625-1.582031-20.503906c6.152344-3.851563 10.21875-10.296875 11.046875-17.507813.832032-7.210937-1.660156-14.410156-6.777344-19.5625 29.703126-22.605468 47.074219-57.835937 46.929688-95.160156zm-64 104c4.417969 0 8 3.582031 8 8s-3.582031 8-8 8h-112c-4.417969 0-8-3.582031-8-8s3.582031-8 8-8zm-40 80h-32c-10.132812-.042969-19.148438-6.445312-22.527344-16h77.054688c-3.378906 9.554688-12.394532 15.957031-22.527344 16zm32-32h-96c-4.417969 0-8-3.582031-8-8s3.582031-8 8-8h96c4.417969 0 8 3.582031 8 8s-3.582031 8-8 8zm7.238281-64h-47.238281v-72h24c13.253906 0 24-10.746094 24-24s-10.746094-24-24-24-24 10.746094-24 24h16c0-4.417969 3.582031-8 8-8s8 3.582031 8 8-3.582031 8-8 8h-64c-4.417969 0-8-3.582031-8-8s3.582031-8 8-8 8 3.582031 8 8h16c0-13.253906-10.746094-24-24-24s-24 10.746094-24 24 10.746094 24 24 24h24v72h-47.199219c-39.289062-24.628906-57.523437-72.292969-44.710937-116.855469s53.582031-75.261719 99.949218-75.261719c46.371094 0 87.136719 30.699219 99.953126 75.261719 12.8125 44.5625-5.425782 92.226563-44.710938 116.855469zm0 0"/>
        <path d="m48 144h112v16h-112zm0 0"/>
        <path d="m48 176h112v16h-112zm0 0"/>
        <path d="m48 208h112v16h-112zm0 0"/>
    </symbol>

    <symbol id="services05" role="img" aria-labelledby="services05_title" viewBox="0 0 64 64">
        <title id="services05_title"></title>
        <path d="m35 45h2v2h-2z"/>
        <path d="m27 45h2v2h-2z"/>
        <path d="m31 45h2v2h-2z"/>
        <path d="m32 19c-5.514 0-10 4.486-10 10s4.486 10 10 10 10-4.486 10-10-4.486-10-10-10zm0 18c-.313 0-.983-1.023-1.462-3h2.924c-.479 1.977-1.149 3-1.462 3zm-1.819-5c-.077-.614-.134-1.277-.161-2h3.962c-.027.723-.085 1.386-.161 2zm1.819-11c.313 0 .983 1.023 1.462 3h-2.924c.479-1.977 1.149-3 1.462-3zm1.819 5c.077.614.134 1.277.161 2h-3.962c.027-.723.085-1.386.161-2zm-5.8 2h-3.95c.088-.698.263-1.369.52-2h3.579c-.074.657-.125 1.327-.149 2zm-3.95 2h3.95c.024.673.075 1.343.149 2h-3.579c-.256-.631-.432-1.302-.52-2zm11.912 0h3.95c-.088.698-.263 1.369-.52 2h-3.579c.074-.657.125-1.327.149-2zm0-2c-.024-.673-.075-1.343-.149-2h3.579c.256.631.432 1.302.52 2zm2.254-4h-2.719c-.192-.919-.44-1.771-.752-2.498 1.373.508 2.57 1.377 3.471 2.498zm-8.999-2.498c-.312.727-.56 1.579-.752 2.498h-2.719c.901-1.121 2.098-1.99 3.471-2.498zm-3.471 12.498h2.719c.192.919.44 1.771.752 2.498-1.373-.508-2.57-1.377-3.471-2.498zm8.999 2.498c.312-.727.56-1.579.752-2.498h2.719c-.901 1.121-2.098 1.99-3.471 2.498z"/>
        <path d="m63 15.764v-5.527l-2.625-.718c-.086-.229-.181-.457-.286-.684l1.35-2.367-3.908-3.907-2.365 1.351c-.226-.104-.455-.2-.685-.286l-.718-2.626h-5.526l-.718 2.625c-.23.086-.459.182-.685.286l-2.365-1.351-3.908 3.907 1.35 2.367c-.104.227-.2.455-.286.684l-2.625.718v.764h-14v-10h-24v20h4v11.522c-2.41 1.616-4 4.364-4 7.478v.193c0 2.036.7 4.032 1.972 5.623l2.028 2.535v1.649c0 2.757 2.243 5 5 5 2.414 0 4.434-1.721 4.899-4h6.82l-1.5 6h-3.219c-1.654 0-3 1.346-3 3v3h36v-3c0-1.654-1.346-3-3-3h-3.219l-1.5-6h11.719c2.414 0 4.434-1.721 4.899-4h1.101c1.654 0 3-1.346 3-3v-8c0-1.654-1.346-3-3-3h-1v-11.029l2.439-2.439-1.35-2.367c.104-.227.2-.455.286-.684zm-10 15.822-1.879-1.88c-.45-.448-1.072-.706-1.707-.706-1.331 0-2.414 1.083-2.414 2.414v1.586h-1c-1.654 0-3 1.346-3 3v5h-24.038c.024-.268.038-.537.038-.807v-.193c0-4.625-3.507-8.442-8-8.941v-10.059h14v-4h16.842c.024.055.044.11.069.165l-1.35 2.367 3.908 3.907 2.365-1.351c.226.104.455.2.685.286l.718 2.626h4.763zm-30-13.55-6.352-4.62c.124-.132.242-.27.352-.416l6-8zm-7.6-6.236c-.563.752-1.461 1.2-2.4 1.2s-1.837-.448-2.4-1.199l-6.601-8.801h18.001zm-6.4 1.201c.11.146.228.284.352.416l-6.352 4.619v-13.036zm2.104 1.615c.596.245 1.239.384 1.896.384s1.299-.139 1.896-.384l6.029 4.384h-15.85zm27.896-1.616v2h-14v-2zm-32 8h2v10.059c-.694.077-1.362.24-2 .466zm-2.466 23.566c-.989-1.236-1.534-2.79-1.534-4.373v-.193c0-3.859 3.14-7 7-7s7 3.141 7 7v.193c0 1.583-.545 3.137-1.534 4.373l-1.946 2.434h-2.52v-4.184c1.161-.414 2-1.514 2-2.816 0-1.654-1.346-3-3-3s-3 1.346-3 3c0 1.302.839 2.402 2 2.816v4.184h-2.52zm4.466-4.566c0-.552.449-1 1-1s1 .448 1 1-.449 1-1 1-1-.448-1-1zm1 13c-1.654 0-3-1.346-3-3v-1h6v1c0 1.654-1.346 3-3 3zm38 7v1h-32v-1c0-.552.449-1 1-1h30c.551 0 1 .448 1 1zm-6.281-3h-19.438l1.5-6h16.438zm12.281-8h-39v-.649l2.028-2.534c.674-.843 1.182-1.801 1.515-2.816h24.457v1c0 1.654 1.346 3 3 3h10.816c-.414 1.16-1.514 1.999-2.816 1.999zm7-13v8c0 .552-.449 1-1 1h-14c-.551 0-1-.448-1-1v-8c0-.552.449-1 1-1h3v-3.586c0-.337.467-.531.707-.293l3.879 3.879h6.414c.551 0 1 .448 1 1zm-6-3v-10.842c.055-.024.111-.044.166-.069l1.834 1.047v9.864zm3.807-18.163-.162.524c-.142.459-.334.921-.572 1.371l-.256.485 1.129 1.979-1.75 1.749-1.979-1.13-.486.258c-.445.236-.906.429-1.369.572l-.525.161-.6 2.194h-2.474l-.6-2.193-.525-.161c-.463-.144-.924-.336-1.369-.572l-.486-.258-1.979 1.13-1.75-1.749 1.129-1.979-.256-.485c-.238-.45-.43-.912-.572-1.371l-.162-.524-2.193-.602v-2.473l2.193-.601.162-.524c.142-.459.334-.921.572-1.371l.256-.485-1.129-1.979 1.75-1.749 1.979 1.13.486-.258c.445-.236.906-.429 1.369-.572l.525-.161.6-2.193h2.474l.6 2.193.525.161c.463.144.924.336 1.369.572l.486.258 1.979-1.13 1.75 1.749-1.129 1.979.256.485c.238.45.43.912.572 1.371l.162.524 2.193.602v2.473z"/>
        <path d="m51 7c-3.309 0-6 2.691-6 6s2.691 6 6 6 6-2.691 6-6-2.691-6-6-6zm0 10c-2.206 0-4-1.794-4-4s1.794-4 4-4 4 1.794 4 4-1.794 4-4 4z"/>
        <path d="m47 41h8v2h-8z"/>
        <path d="m57 41h2v2h-2z"/>
        <path d="m47 37h12v2h-12z"/>
    </symbol>

    <symbol id="services06" role="img" aria-labelledby="services06_title" viewBox="0 0 64 64">
        <title id="services06_title"></title>
        <path d="m39 48c0 4.963 4.037 9 9 9s9-4.037 9-9-4.037-9-9-9-9 4.037-9 9zm9-7c3.859 0 7 3.141 7 7s-3.141 7-7 7-7-3.141-7-7 3.141-7 7-7z"/>
        <path d="m48 53c2.757 0 5-2.243 5-5s-2.243-5-5-5-5 2.243-5 5 2.243 5 5 5zm0-8c1.654 0 3 1.346 3 3s-1.346 3-3 3-3-1.346-3-3 1.346-3 3-3z"/>
        <path d="m49 30v-6h5c4.963 0 9-4.037 9-9v-1h-7c-4.963 0-9 4.037-9 9v1 .355c-1.651-2.043-4.174-3.355-7-3.355h-1v-8.586c0-1.331-1.083-2.414-2.414-2.414-.636 0-1.258.258-1.707.707l-5.879 5.879v44.414h-2v-36.586c0-1.331-1.083-2.414-2.414-2.414-.636 0-1.258.258-1.707.707l-5.879 5.879v32.414h-2v-24.586c0-1.331-1.083-2.414-2.414-2.414-.636 0-1.258.258-1.707.707l-5.879 5.879v20.414h-4v2h43.216 1.784 5.784l.687-2.794c.332-.123.665-.262.995-.416l2.465 1.492 5.352-5.352-1.492-2.465c.154-.331.293-.663.416-.995l2.793-.686v-7.568l-2.794-.687c-.123-.332-.262-.664-.416-.995l1.492-2.465-5.352-5.352-2.465 1.492c-.331-.154-.663-.293-.995-.416l-.686-2.793h-2.784v-2zm7-14h4.929c-.486 3.388-3.408 6-6.929 6h-4.929c.487-3.388 3.408-6 6.929-6zm-9.071 13h-4.929c-3.521 0-6.442-2.612-6.929-6h4.929c3.521 0 6.442 2.612 6.929 6zm-15.929-11.586 5.293-5.293c.238-.237.707-.045.707.293v8.586h-4v1c0 3.114 1.59 5.862 4 7.478v8.309l-2.282 2.282 1.492 2.465c-.154.331-.293.663-.416.995l-2.794.687v7.568l2.794.687c.123.332.262.665.416.995l-1.492 2.465 5.069 5.069h-8.787zm-12 12 5.293-5.293c.238-.238.707-.045.707.293v36.586h-6zm-12 12 5.293-5.293c.239-.238.707-.045.707.293v24.586h-6zm33.536 19.586 1.999-1.21c.33.154.663.293.995.416l.194.794zm10.257-23.653.536.169c.57.181 1.151.424 1.725.722l.498.259 2.074-1.255 3.133 3.133-1.255 2.074.259.498c.298.573.541 1.154.722 1.725l.169.536 2.346.576v4.432l-2.347.577-.169.536c-.181.57-.424 1.151-.722 1.725l-.259.498 1.255 2.074-3.133 3.133-2.074-1.255-.498.259c-.572.298-1.153.541-1.727.723l-.534.17-.576 2.344h-4.216-.216l-.577-2.345-.534-.17c-.573-.182-1.154-.425-1.727-.723l-.498-.259-2.074 1.255-3.133-3.133 1.255-2.074-.259-.498c-.298-.572-.541-1.153-.723-1.727l-.17-.534-2.344-.576v-4.432l2.347-.577.169-.536c.181-.57.424-1.151.722-1.725l.259-.498-1.255-2.074 3.133-3.133 2.074 1.255.498-.259c.573-.298 1.154-.541 1.725-.722l.536-.169.576-2.346h4.432zm-3.793-4.347h-2.784l-.687 2.794c-.332.123-.664.262-.995.416l-2.465-1.492-1.069 1.069v-5.312c.94.334 1.947.525 3 .525h5z"/>
        <path d="m6 35.414 34.414-34.414h-20.828l6 6-24 24zm18.414-32.414h11.172l-29.586 29.586-1.586-1.586 24-24z"/>
        <path d="m9 53h2v2h-2z"/>
        <path d="m9 49h2v2h-2z"/>
        <path d="m9 57h2v2h-2z"/>
        <path d="m21 37h2v2h-2z"/>
        <path d="m21 29h2v2h-2z"/>
        <path d="m21 33h2v2h-2z"/>
    </symbol>

    <symbol id="footer-facebook" role="img" aria-labelledby="footer-facebook_title" viewBox="0 0 512 512">
        <title id="footer-facebook_title">Facebook</title>
        <path d="M314.829,135.492h70.595c11.423,0,20.682-9.26,20.682-20.682V20.682C406.107,9.26,396.848,0,385.425,0h-70.595
            c-76.282,0-138.341,62.06-138.341,138.341v49.913h-49.913c-11.422,0-20.682,9.26-20.682,20.682v94.127
            c0,11.423,9.26,20.682,20.682,20.682h49.913v167.572c0,11.423,9.26,20.682,20.682,20.682h94.127
            c11.423,0,20.682-9.259,20.682-20.682V323.746h49.913c9.49,0,17.763-6.458,20.065-15.666l23.532-94.127
            c1.544-6.179,0.156-12.725-3.763-17.744c-3.919-5.02-9.932-7.954-16.301-7.954H311.98v-49.913
            C311.98,136.77,313.258,135.492,314.829,135.492z M291.298,229.619h67.637l-13.191,52.763h-54.447
            c-11.423,0-20.682,9.259-20.682,20.682v167.572h-52.763V303.064c0-11.423-9.26-20.682-20.682-20.682h-49.913v-52.763h49.913
            c11.422,0,20.682-9.26,20.682-20.682v-70.595c0-53.473,43.503-96.977,96.977-96.977h49.913v52.763h-49.913
            c-24.38,0-44.214,19.835-44.214,44.214v70.595C270.615,220.359,279.875,229.619,291.298,229.619z"/>
    </symbol>

    <symbol id="footer-twitter" role="img" aria-labelledby="footer-twitter_title" viewBox="0 0 512 512">
        <title id="footer-twitter_title">Twitter</title>
        <path d="M502.954,47.189c-7.126-4.852-16.515-4.774-23.559,0.196c-15.351,10.828-31.974,19.528-49.557,25.948
            c-19.253-17.414-43.615-27.826-69.915-29.656c-31.056-2.16-61.081,7.9-84.561,28.326c-25.59,22.259-40.174,54.444-40.046,88.349
            c-85.248-7.609-139.14-61.55-177.09-108.986c-4.598-5.746-11.901-8.619-19.182-7.538c-7.279,1.078-13.438,5.944-16.171,12.777
            c-0.948,2.369-23.141,58.799-17.453,127.057c4.761,57.133,30.23,131.964,120.039,181.717
            c-32.436,14.756-68.282,21.939-103.953,20.519c-9.576-0.378-18.15,5.859-20.736,15.08c-2.587,9.221,1.497,19.013,9.869,23.665
            c51.359,28.532,108.03,43.736,163.889,43.965c0.432,0.002,0.861,0.003,1.294,0.003c54.105-0.001,106.379-13.938,151.246-40.336
            c42.898-25.241,78.416-61.759,102.715-105.603c26.162-47.206,39.427-101.75,39.427-162.186c-0.011-3.544-0.186-7.098-0.52-10.638
            c20.7-22.885,35.388-50.567,42.719-80.667C513.451,60.803,510.081,52.04,502.954,47.189z M432.297,128.07
            c-4.916,4.847-7.088,11.827-5.793,18.607c0.877,4.588,1.329,9.278,1.344,13.874c0,101.956-44.378,186.544-121.756,232.072
            c-60.586,35.649-133.037,43.933-203.609,25.057c0.729-0.201,1.459-0.407,2.185-0.615c27.596-7.885,53.63-20.055,77.377-36.174
            c6.329-4.296,9.77-11.734,8.946-19.34c-0.825-7.605-5.778-14.134-12.881-16.975C97.757,312.434,53.563,257.594,46.757,181.575
            c-2.536-28.334,0.707-54.721,4.766-74.501c16.638,17.909,37.384,37.227,62.129,53.407c42.771,27.966,90.663,42.146,142.346,42.146
            c11.423,0,20.682-9.26,20.682-20.682v-21.393c0-0.045,0-0.091,0-0.137c-0.146-21.948,9.268-42.797,25.829-57.202
            c15.146-13.175,34.51-19.665,54.543-18.27c20.026,1.393,38.311,10.502,51.487,25.648c5.339,6.138,13.783,8.577,21.567,6.229
            c5.725-1.724,11.375-3.645,16.941-5.757C442.599,117.081,437.672,122.769,432.297,128.07z"/>
    </symbol>    

    <symbol id="footer-linkedin" role="img" aria-labelledby="footer-linkedin_title" viewBox="0 0 512 512">
        <title id="footer-linkedin_title">Linkedin</title>
        <path d="M2.5,510V153.7h137.3V510H2.5z M102.5,472.7V191H39.8v281.7H102.5z"/>
        <path d="M375.4,510l0.1-158.1c0.5-23.6-8.8-42.9-24.9-51.7c-5.4-3-11.2-4.5-17.3-4.5c-5.2,0-10.4,1.1-15.5,3.3l-1.1,211H176.1
            V153.7h140.6V166c16.6-6,33.6-9.1,50.6-9.1c24.7,0,48.3,6.4,70.2,18.9c44,25.2,72.5,71.8,72.5,118.8V510H375.4z M472.7,472.7V294.6
            c0-33.8-21.1-67.7-53.7-86.4c-15.9-9.1-33.8-13.9-51.7-14h-0.3c-20.1,0-40.1,5.8-59.6,17.3L279.4,228V191h-66.1v281.7h66.2l1-194.7
            l8.2-5.5c13.7-9.2,29.1-14.1,44.5-14.1c12.4,0,24.2,3,35.1,9c13.7,7.5,25,19.2,32.8,33.8c7.9,14.9,11.9,32.6,11.5,51.1l0,120.3
            H472.7z"/>
        <path d="M70.9,139.9C32.9,139.9,2,109,2,71c0-38,30.9-69,68.9-69c38,0,68.9,30.9,68.9,69C139.8,109,108.9,139.9,70.9,139.9z
             M70.9,39.3c-17.4,0-31.6,14.2-31.6,31.7c0,17.5,14.2,31.7,31.6,31.7c17.4,0,31.6-14.2,31.6-31.7C102.5,53.5,88.3,39.3,70.9,39.3z"
            />
    </symbol>

    <symbol id="footer-instagram" role="img" aria-labelledby="footer-instagram_title" viewBox="0 0 512 512">
        <title id="footer-instagram_title">Instagram</title>
        <path d="M373.659,0H138.341C62.06,0,0,62.06,0,138.341v235.318C0,449.94,62.06,512,138.341,512h235.318
            C449.94,512,512,449.94,512,373.659V138.341C512,62.06,449.94,0,373.659,0z M470.636,373.659
            c0,53.473-43.503,96.977-96.977,96.977H138.341c-53.473,0-96.977-43.503-96.977-96.977V138.341
            c0-53.473,43.503-96.977,96.977-96.977h235.318c53.473,0,96.977,43.503,96.977,96.977V373.659z"/>
        <path d="M370.586,238.141c-3.64-24.547-14.839-46.795-32.386-64.342c-17.547-17.546-39.795-28.746-64.341-32.385
            c-11.176-1.657-22.507-1.657-33.682,0c-30.336,4.499-57.103,20.541-75.372,45.172c-18.269,24.631-25.854,54.903-21.355,85.237
            c4.499,30.335,20.541,57.102,45.172,75.372c19.996,14.831,43.706,22.619,68.153,22.619c5.667,0,11.375-0.418,17.083-1.265
            c30.336-4.499,57.103-20.541,75.372-45.172C367.5,298.747,375.085,268.476,370.586,238.141z M267.791,327.632
            c-19.405,2.882-38.77-1.973-54.527-13.66c-15.757-11.687-26.019-28.811-28.896-48.216c-2.878-19.405,1.973-38.77,13.66-54.527
            c11.688-15.757,28.811-26.019,48.217-28.897c3.574-0.53,7.173-0.795,10.772-0.795s7.199,0.265,10.773,0.796
            c32.231,4.779,57.098,29.645,61.878,61.877C335.608,284.268,307.851,321.692,267.791,327.632z"/>
        <path d="M400.049,111.951c-3.852-3.851-9.183-6.058-14.625-6.058c-5.442,0-10.773,2.206-14.625,6.058
            c-3.851,3.852-6.058,9.174-6.058,14.625c0,5.451,2.207,10.773,6.058,14.625c3.852,3.851,9.183,6.058,14.625,6.058
            c5.442,0,10.773-2.206,14.625-6.058c3.851-3.852,6.058-9.183,6.058-14.625C406.107,121.133,403.9,115.802,400.049,111.951z"/>
    </symbol>

    <symbol id="footer-phone" role="img" aria-labelledby="footer-phone_title" viewBox="0 0 512 512">
        <title id="footer-phone_title"></title>
        <path d="M421.216,195.504c-5.092-26.101-17.723-49.836-36.526-68.64c-18.804-18.803-42.54-31.434-68.641-36.527
			c-11.21-2.189-22.073,5.128-24.261,16.339c-2.187,11.212,5.128,22.073,16.339,24.26c36.847,7.188,65.3,35.642,72.489,72.489
			c1.927,9.874,10.581,16.726,20.278,16.726c1.313,0,2.645-0.125,3.984-0.387C416.088,217.577,423.403,206.715,421.216,195.504z"/>
		<path d="M511.422,196.929c-5.629-50.096-28.373-97.304-64.042-132.927C411.712,28.378,364.475,5.694,314.371,0.128
			c-11.355-1.261-21.578,6.92-22.839,18.272c-1.261,11.353,6.919,21.578,18.272,22.84c84.961,9.438,150.966,75.36,160.512,160.31
			c1.188,10.566,10.139,18.374,20.527,18.374c0.771,0,1.552-0.043,2.336-0.131C504.53,218.516,512.698,208.281,511.422,196.929z"/>
		<path d="M432.59,312.566c-0.062-0.008-0.124-0.017-0.186-0.025c-20.013-2.639-39.751-7.557-58.619-14.596
			c-23.91-8.99-51.103-3.191-69.27,14.772c-0.028,0.028-0.056,0.055-0.083,0.083l-17.148,17.148
			c-42.633-26.924-78.756-63.047-105.679-105.679l17.149-17.149c0.027-0.028,0.054-0.055,0.082-0.083
			c17.964-18.166,23.762-45.356,14.79-69.223c-7.057-18.914-11.974-38.653-14.614-58.666c-0.007-0.063-0.017-0.127-0.026-0.19
			c-4.591-32.478-32.782-56.734-65.548-56.467H66.053c-1.943,0.002-3.912,0.091-5.853,0.267
			C24.143,26.016-2.541,58.001,0.718,94.058c0.01,0.108,0.02,0.215,0.032,0.323c7.684,72.354,32.649,142.88,72.197,203.955
			c35.892,56.461,84.701,105.269,141.162,141.164c60.792,39.406,130.99,64.369,203.013,72.196c0.127,0.015,0.254,0.027,0.38,0.038
			c1.961,0.176,3.949,0.266,5.921,0.266c0.083,0,0.165,0,0.247,0.001c36.204-0.148,65.538-29.722,65.391-65.841v-67.233
			C489.746,345.714,465.515,317.211,432.59,312.566z M447.698,378.695v67.548c0.055,13.396-10.8,24.338-24.19,24.393
			c-0.715-0.004-1.425-0.027-2.135-0.086c-65.578-7.161-129.488-29.914-184.837-65.808c-0.053-0.035-0.107-0.069-0.161-0.103
			c-51.429-32.68-95.885-77.137-128.565-128.565c-0.032-0.051-0.064-0.101-0.097-0.153C71.683,220.306,48.928,156.086,41.902,90.193
			C40.779,76.91,50.63,65.155,63.923,63.954c0.717-0.064,1.443-0.098,2.145-0.098h67.463c0.146-0.001,0.294-0.003,0.443-0.002
			c12.021,0,22.322,8.905,24.044,20.819c3.05,23.063,8.721,45.806,16.871,67.649c3.319,8.832,1.189,18.869-5.427,25.591
			l-28.517,28.517c-6.583,6.582-7.956,16.753-3.354,24.847c33.837,59.508,83.177,108.847,142.685,142.685
			c8.094,4.6,18.264,3.23,24.848-3.355l28.512-28.512c6.72-6.621,16.765-8.752,25.642-5.415
			c21.799,8.134,44.547,13.805,67.61,16.855c12.18,1.757,21.122,12.339,20.816,24.647
			C447.7,378.353,447.698,378.524,447.698,378.695z"/>
    </symbol>    

	<symbol id="footer-mail" role="img" aria-labelledby="footer-mail_title" viewBox="0 0 512 512">
        <title id="footer-mail_title"></title>
        <path d="M256,141.176c-63.306,0-114.809,51.503-114.809,114.809S192.694,370.795,256,370.795s114.809-51.503,114.809-114.809
			S319.306,141.176,256,141.176z M256,329.43c-40.498,0-73.445-32.947-73.445-73.445c0-40.498,32.947-73.445,73.445-73.445
			c40.499,0,73.445,32.947,73.445,73.445C329.445,296.483,296.499,329.43,256,329.43z"/>
		<path d="M437.008,74.97C388.656,26.623,324.375,0,256,0c-0.005,0-0.013,0-0.017,0C187.603,0.004,123.318,26.637,74.97,74.992
			C26.62,123.347-0.005,187.637,0,256.017c0.004,68.379,26.637,132.666,74.992,181.014C123.344,485.377,187.625,512.001,256,512
			c0.004,0,0.012,0,0.017,0c55.945-0.004,111.216-18.738,155.631-52.752c9.07-6.945,10.792-19.927,3.846-28.995
			c-6.945-9.069-19.926-10.794-28.995-3.846c-37.24,28.518-83.58,44.224-130.486,44.228c-0.006,0-0.006,0-0.014,0
			c-57.324,0-111.224-22.324-151.761-62.856c-40.542-40.536-62.871-94.435-62.875-151.766
			C41.357,137.663,137.636,41.372,255.986,41.364c0.007,0,0.006,0,0.014,0c118.34,0,214.628,96.279,214.636,214.622v23.532
			c0,27.523-22.39,49.913-49.913,49.913c-27.523,0-49.913-22.391-49.913-49.913v-23.532c0-11.422-9.259-20.682-20.682-20.682
			s-20.682,9.26-20.682,20.682v23.532c0,50.33,40.947,91.278,91.278,91.278S512,329.848,512,279.518v-23.534
			C511.995,187.604,485.362,123.318,437.008,74.97z"/>
    </symbol>

    <symbol id="footer-location" role="img" aria-labelledby="footer-location_title" viewBox="0 0 512 512">
        <title id="footer-location_title"></title>
        <path d="M406.766,62.449C366.495,22.178,312.951,0,256,0S145.505,22.178,105.234,62.449
			c-40.272,40.271-62.449,93.814-62.449,150.766c0,37.656,10.972,76.863,32.609,116.532c16.825,30.846,40.15,62.102,69.326,92.898
			c49.17,51.903,97.763,84.519,99.808,85.881C248.001,510.842,252,512,256,512c4,0,7.999-1.158,11.473-3.474
			c2.045-1.363,50.638-33.978,99.808-85.881c29.176-30.795,52.501-62.051,69.326-92.898c21.637-39.669,32.609-78.876,32.609-116.532
			C469.215,156.263,447.038,102.72,406.766,62.449z M256.001,465.903C215.826,436.156,84.15,329.739,84.15,213.215
			c0-94.759,77.091-171.851,171.85-171.851s171.85,77.092,171.851,171.851C427.851,329.748,296.159,436.168,256.001,465.903z"/>
		<path d="M256,128.355c-46.791,0-84.86,38.068-84.86,84.86c0,46.791,38.068,84.86,84.86,84.86c46.792,0,84.861-38.068,84.86-84.86
			C340.86,166.423,302.791,128.355,256,128.355z M256,256.71c-23.983,0-43.495-19.512-43.495-43.495
			c0-23.983,19.512-43.495,43.495-43.495c23.984,0,43.495,19.512,43.495,43.495C299.495,237.198,279.984,256.71,256,256.71z"/>
		</symbol>

	<symbol id="footer-time" role="img" aria-labelledby="footer-time_title" viewBox="0 0 512 512">
        <title id="footer-time_title"></title>
        <path d="M437.019,74.981C388.667,26.629,324.38,0,256,0S123.333,26.63,74.981,74.981S0,187.62,0,256
			s26.629,132.667,74.981,181.019C123.332,485.371,187.62,512,256,512s132.667-26.629,181.019-74.981
			C485.371,388.667,512,324.38,512,256S485.371,123.332,437.019,74.981z M256,470.636C137.65,470.636,41.364,374.35,41.364,256
			S137.65,41.364,256,41.364S470.636,137.65,470.636,256S374.35,470.636,256,470.636z"/>
		<path d="M341.221,311.97l-64.538-64.537V114.809c0-11.422-9.259-20.682-20.682-20.682c-11.422,0-20.682,9.26-20.682,20.682V256
			c0,5.486,2.179,10.746,6.058,14.625l70.594,70.595c4.038,4.039,9.332,6.058,14.625,6.058c5.293,0,10.586-2.019,14.626-6.058
			C349.297,333.142,349.297,320.047,341.221,311.97z"/>
	</symbol>

</svg>